{
	"asset":{
		"generator":"Khronos glTF Blender I/O v4.5.48",
		"version":"2.0"
	},
	"scene":0,
	"scenes":[
		{
			"name":"Scene",
			"nodes":[
				0
			]
		}
	],
	"nodes":[
		{
			"mesh":0,
			"name":"Object"
		}
	],
	"materials":[
		{
			"doubleSided":true,
			"name":"BE_EWAL03A",
			"pbrMetallicRoughness":{
				"baseColorFactor":[
					0.800000011920929,
					0.800000011920929,
					0.800000011920929,
					1
				],
				"metallicFactor":0,
				"roughnessFactor":0.5
			}
		},
		{
			"doubleSided":true,
			"name":"BE_EWAL04A",
			"pbrMetallicRoughness":{
				"baseColorFactor":[
					0.800000011920929,
					0.800000011920929,
					0.800000011920929,
					1
				],
				"metallicFactor":0,
				"roughnessFactor":0.5
			}
		},
		{
			"doubleSided":true,
			"name":"BE_EWAL01B",
			"pbrMetallicRoughness":{
				"baseColorFactor":[
					0.800000011920929,
					0.800000011920929,
					0.800000011920929,
					1
				],
				"metallicFactor":0,
				"roughnessFactor":0.5
			}
		},
		{
			"doubleSided":true,
			"name":"BE_ITEBOR02",
			"pbrMetallicRoughness":{
				"baseColorFactor":[
					0.800000011920929,
					0.800000011920929,
					0.800000011920929,
					1
				],
				"metallicFactor":0,
				"roughnessFactor":0.5
			}
		},
		{
			"doubleSided":true,
			"name":"BE_IFLO01",
			"pbrMetallicRoughness":{
				"baseColorFactor":[
					0.800000011920929,
					0.800000011920929,
					0.800000011920929,
					1
				],
				"metallicFactor":0,
				"roughnessFactor":0.5
			}
		},
		{
			"doubleSided":true,
			"name":"BE_ICEI01A",
			"pbrMetallicRoughness":{
				"baseColorFactor":[
					0.800000011920929,
					0.800000011920929,
					0.800000011920929,
					1
				],
				"metallicFactor":0,
				"roughnessFactor":0.5
			}
		}
	],
	"meshes":[
		{
			"name":"Mesh",
			"primitives":[
				{
					"attributes":{
						"POSITION":0,
						"NORMAL":1,
						"TEXCOORD_0":2
					},
					"indices":3,
					"material":0
				},
				{
					"attributes":{
						"POSITION":4,
						"NORMAL":5,
						"TEXCOORD_0":6
					},
					"indices":7,
					"material":1
				},
				{
					"attributes":{
						"POSITION":8,
						"NORMAL":9,
						"TEXCOORD_0":10
					},
					"indices":11,
					"material":2
				},
				{
					"attributes":{
						"POSITION":12,
						"NORMAL":13,
						"TEXCOORD_0":14
					},
					"indices":15,
					"material":3
				},
				{
					"attributes":{
						"POSITION":16,
						"NORMAL":17,
						"TEXCOORD_0":18
					},
					"indices":19,
					"material":4
				},
				{
					"attributes":{
						"POSITION":20,
						"NORMAL":21,
						"TEXCOORD_0":22
					},
					"indices":23,
					"material":5
				}
			]
		}
	],
	"accessors":[
		{
			"bufferView":0,
			"componentType":5126,
			"count":54,
			"max":[
				5,
				4,
				3
			],
			"min":[
				-5,
				0,
				-3
			],
			"type":"VEC3"
		},
		{
			"bufferView":1,
			"componentType":5126,
			"count":54,
			"type":"VEC3"
		},
		{
			"bufferView":2,
			"componentType":5126,
			"count":54,
			"type":"VEC2"
		},
		{
			"bufferView":3,
			"componentType":5123,
			"count":90,
			"type":"SCALAR"
		},
		{
			"bufferView":4,
			"componentType":5126,
			"count":92,
			"max":[
				4,
				4,
				3
			],
			"min":[
				-4,
				0,
				-2.25
			],
			"type":"VEC3"
		},
		{
			"bufferView":5,
			"componentType":5126,
			"count":92,
			"type":"VEC3"
		},
		{
			"bufferView":6,
			"componentType":5126,
			"count":92,
			"type":"VEC2"
		},
		{
			"bufferView":7,
			"componentType":5123,
			"count":156,
			"type":"SCALAR"
		},
		{
			"bufferView":8,
			"componentType":5126,
			"count":40,
			"max":[
				5,
				5,
				3
			],
			"min":[
				-5,
				4.5,
				-3
			],
			"type":"VEC3"
		},
		{
			"bufferView":9,
			"componentType":5126,
			"count":40,
			"type":"VEC3"
		},
		{
			"bufferView":10,
			"componentType":5126,
			"count":40,
			"type":"VEC2"
		},
		{
			"bufferView":11,
			"componentType":5123,
			"count":66,
			"type":"SCALAR"
		},
		{
			"bufferView":12,
			"componentType":5126,
			"count":38,
			"max":[
				5,
				4.5,
				3
			],
			"min":[
				-5,
				4,
				-3
			],
			"type":"VEC3"
		},
		{
			"bufferView":13,
			"componentType":5126,
			"count":38,
			"type":"VEC3"
		},
		{
			"bufferView":14,
			"componentType":5126,
			"count":38,
			"type":"VEC2"
		},
		{
			"bufferView":15,
			"componentType":5123,
			"count":66,
			"type":"SCALAR"
		},
		{
			"bufferView":16,
			"componentType":5126,
			"count":88,
			"max":[
				15,
				0,
				10.5
			],
			"min":[
				-15,
				-2,
				-10.5
			],
			"type":"VEC3"
		},
		{
			"bufferView":17,
			"componentType":5126,
			"count":88,
			"type":"VEC3"
		},
		{
			"bufferView":18,
			"componentType":5126,
			"count":88,
			"type":"VEC2"
		},
		{
			"bufferView":19,
			"componentType":5123,
			"count":258,
			"type":"SCALAR"
		},
		{
			"bufferView":20,
			"componentType":5126,
			"count":8,
			"max":[
				0.5,
				3.875,
				0.5
			],
			"min":[
				-0.5,
				3.875,
				-0.5
			],
			"type":"VEC3"
		},
		{
			"bufferView":21,
			"componentType":5126,
			"count":8,
			"type":"VEC3"
		},
		{
			"bufferView":22,
			"componentType":5126,
			"count":8,
			"type":"VEC2"
		},
		{
			"bufferView":23,
			"componentType":5123,
			"count":18,
			"type":"SCALAR"
		}
	],
	"bufferViews":[
		{
			"buffer":0,
			"byteLength":648,
			"byteOffset":0,
			"target":34962
		},
		{
			"buffer":0,
			"byteLength":648,
			"byteOffset":648,
			"target":34962
		},
		{
			"buffer":0,
			"byteLength":432,
			"byteOffset":1296,
			"target":34962
		},
		{
			"buffer":0,
			"byteLength":180,
			"byteOffset":1728,
			"target":34963
		},
		{
			"buffer":0,
			"byteLength":1104,
			"byteOffset":1908,
			"target":34962
		},
		{
			"buffer":0,
			"byteLength":1104,
			"byteOffset":3012,
			"target":34962
		},
		{
			"buffer":0,
			"byteLength":736,
			"byteOffset":4116,
			"target":34962
		},
		{
			"buffer":0,
			"byteLength":312,
			"byteOffset":4852,
			"target":34963
		},
		{
			"buffer":0,
			"byteLength":480,
			"byteOffset":5164,
			"target":34962
		},
		{
			"buffer":0,
			"byteLength":480,
			"byteOffset":5644,
			"target":34962
		},
		{
			"buffer":0,
			"byteLength":320,
			"byteOffset":6124,
			"target":34962
		},
		{
			"buffer":0,
			"byteLength":132,
			"byteOffset":6444,
			"target":34963
		},
		{
			"buffer":0,
			"byteLength":456,
			"byteOffset":6576,
			"target":34962
		},
		{
			"buffer":0,
			"byteLength":456,
			"byteOffset":7032,
			"target":34962
		},
		{
			"buffer":0,
			"byteLength":304,
			"byteOffset":7488,
			"target":34962
		},
		{
			"buffer":0,
			"byteLength":132,
			"byteOffset":7792,
			"target":34963
		},
		{
			"buffer":0,
			"byteLength":1056,
			"byteOffset":7924,
			"target":34962
		},
		{
			"buffer":0,
			"byteLength":1056,
			"byteOffset":8980,
			"target":34962
		},
		{
			"buffer":0,
			"byteLength":704,
			"byteOffset":10036,
			"target":34962
		},
		{
			"buffer":0,
			"byteLength":516,
			"byteOffset":10740,
			"target":34963
		},
		{
			"buffer":0,
			"byteLength":96,
			"byteOffset":11256,
			"target":34962
		},
		{
			"buffer":0,
			"byteLength":96,
			"byteOffset":11352,
			"target":34962
		},
		{
			"buffer":0,
			"byteLength":64,
			"byteOffset":11448,
			"target":34962
		},
		{
			"buffer":0,
			"byteLength":36,
			"byteOffset":11512,
			"target":34963
		}
	],
	"buffers":[
		{
			"byteLength":11548,
			"uri":"anthem_pipebunker.bin"
		}
	]
}
