{
	"asset":{
		"generator":"Khronos glTF Blender I/O v4.5.48",
		"version":"2.0"
	},
	"scene":0,
	"scenes":[
		{
			"name":"Scene",
			"nodes":[
				0
			]
		}
	],
	"nodes":[
		{
			"mesh":0,
			"name":"Object"
		}
	],
	"materials":[
		{
			"doubleSided":true,
			"name":"BE_EWAL01B",
			"pbrMetallicRoughness":{
				"baseColorFactor":[
					0.800000011920929,
					0.800000011920929,
					0.800000011920929,
					1
				],
				"metallicFactor":0,
				"roughnessFactor":0.5
			}
		},
		{
			"doubleSided":true,
			"name":"BE_EWALL10",
			"pbrMetallicRoughness":{
				"baseColorFactor":[
					0.800000011920929,
					0.800000011920929,
					0.800000011920929,
					1
				],
				"metallicFactor":0,
				"roughnessFactor":0.5
			}
		},
		{
			"doubleSided":true,
			"name":"BE_EWAL02B",
			"pbrMetallicRoughness":{
				"baseColorFactor":[
					0.800000011920929,
					0.800000011920929,
					0.800000011920929,
					1
				],
				"metallicFactor":0,
				"roughnessFactor":0.5
			}
		},
		{
			"doubleSided":true,
			"name":"BE_EWAL05",
			"pbrMetallicRoughness":{
				"baseColorFactor":[
					0.800000011920929,
					0.800000011920929,
					0.800000011920929,
					1
				],
				"metallicFactor":0,
				"roughnessFactor":0.5
			}
		},
		{
			"doubleSided":true,
			"name":"BE_ITEFLO02",
			"pbrMetallicRoughness":{
				"baseColorFactor":[
					0.800000011920929,
					0.800000011920929,
					0.800000011920929,
					1
				],
				"metallicFactor":0,
				"roughnessFactor":0.5
			}
		},
		{
			"doubleSided":true,
			"name":"BE_IHALIG",
			"pbrMetallicRoughness":{
				"baseColorFactor":[
					0.800000011920929,
					0.800000011920929,
					0.800000011920929,
					1
				],
				"metallicFactor":0,
				"roughnessFactor":0.5
			}
		},
		{
			"doubleSided":true,
			"name":"BE_ESPEC01",
			"pbrMetallicRoughness":{
				"baseColorFactor":[
					0.800000011920929,
					0.800000011920929,
					0.800000011920929,
					1
				],
				"metallicFactor":0,
				"roughnessFactor":0.5
			}
		},
		{
			"doubleSided":true,
			"name":"BE_EFLO01",
			"pbrMetallicRoughness":{
				"baseColorFactor":[
					0.800000011920929,
					0.800000011920929,
					0.800000011920929,
					1
				],
				"metallicFactor":0,
				"roughnessFactor":0.5
			}
		}
	],
	"meshes":[
		{
			"name":"Mesh",
			"primitives":[
				{
					"attributes":{
						"POSITION":0,
						"NORMAL":1,
						"TEXCOORD_0":2
					},
					"indices":3,
					"material":0
				},
				{
					"attributes":{
						"POSITION":4,
						"NORMAL":5,
						"TEXCOORD_0":6
					},
					"indices":7,
					"material":1
				},
				{
					"attributes":{
						"POSITION":8,
						"NORMAL":9,
						"TEXCOORD_0":10
					},
					"indices":11,
					"material":2
				},
				{
					"attributes":{
						"POSITION":12,
						"NORMAL":13,
						"TEXCOORD_0":14
					},
					"indices":15,
					"material":3
				},
				{
					"attributes":{
						"POSITION":16,
						"NORMAL":17,
						"TEXCOORD_0":18
					},
					"indices":19,
					"material":4
				},
				{
					"attributes":{
						"POSITION":20,
						"NORMAL":21,
						"TEXCOORD_0":22
					},
					"indices":23,
					"material":5
				},
				{
					"attributes":{
						"POSITION":24,
						"NORMAL":25,
						"TEXCOORD_0":26
					},
					"indices":27,
					"material":6
				},
				{
					"attributes":{
						"POSITION":28,
						"NORMAL":29,
						"TEXCOORD_0":30
					},
					"indices":31,
					"material":7
				}
			]
		}
	],
	"accessors":[
		{
			"bufferView":0,
			"componentType":5126,
			"count":354,
			"max":[
				46.5,
				44,
				30
			],
			"min":[
				29.5,
				0,
				-22
			],
			"type":"VEC3"
		},
		{
			"bufferView":1,
			"componentType":5126,
			"count":354,
			"type":"VEC3"
		},
		{
			"bufferView":2,
			"componentType":5126,
			"count":354,
			"type":"VEC2"
		},
		{
			"bufferView":3,
			"componentType":5123,
			"count":684,
			"type":"SCALAR"
		},
		{
			"bufferView":4,
			"componentType":5126,
			"count":280,
			"max":[
				47,
				44,
				30.5
			],
			"min":[
				19.5,
				-4,
				-22
			],
			"type":"VEC3"
		},
		{
			"bufferView":5,
			"componentType":5126,
			"count":280,
			"type":"VEC3"
		},
		{
			"bufferView":6,
			"componentType":5126,
			"count":280,
			"type":"VEC2"
		},
		{
			"bufferView":7,
			"componentType":5123,
			"count":618,
			"type":"SCALAR"
		},
		{
			"bufferView":8,
			"componentType":5126,
			"count":195,
			"max":[
				45.5,
				42,
				28
			],
			"min":[
				29.5,
				13.5,
				-16
			],
			"type":"VEC3"
		},
		{
			"bufferView":9,
			"componentType":5126,
			"count":195,
			"type":"VEC3"
		},
		{
			"bufferView":10,
			"componentType":5126,
			"count":195,
			"type":"VEC2"
		},
		{
			"bufferView":11,
			"componentType":5123,
			"count":399,
			"type":"SCALAR"
		},
		{
			"bufferView":12,
			"componentType":5126,
			"count":176,
			"max":[
				47,
				0,
				30.5
			],
			"min":[
				19.5,
				-8,
				-22
			],
			"type":"VEC3"
		},
		{
			"bufferView":13,
			"componentType":5126,
			"count":176,
			"type":"VEC3"
		},
		{
			"bufferView":14,
			"componentType":5126,
			"count":176,
			"type":"VEC2"
		},
		{
			"bufferView":15,
			"componentType":5123,
			"count":306,
			"type":"SCALAR"
		},
		{
			"bufferView":16,
			"componentType":5126,
			"count":39,
			"max":[
				43.5,
				0,
				24
			],
			"min":[
				29.5,
				0,
				4
			],
			"type":"VEC3"
		},
		{
			"bufferView":17,
			"componentType":5126,
			"count":39,
			"type":"VEC3"
		},
		{
			"bufferView":18,
			"componentType":5126,
			"count":39,
			"type":"VEC2"
		},
		{
			"bufferView":19,
			"componentType":5123,
			"count":117,
			"type":"SCALAR"
		},
		{
			"bufferView":20,
			"componentType":5126,
			"count":4,
			"max":[
				43.5,
				9.5,
				16
			],
			"min":[
				42.5,
				8,
				12
			],
			"type":"VEC3"
		},
		{
			"bufferView":21,
			"componentType":5126,
			"count":4,
			"type":"VEC3"
		},
		{
			"bufferView":22,
			"componentType":5126,
			"count":4,
			"type":"VEC2"
		},
		{
			"bufferView":23,
			"componentType":5123,
			"count":6,
			"type":"SCALAR"
		},
		{
			"bufferView":24,
			"componentType":5126,
			"count":4,
			"max":[
				42.5,
				17.5,
				16
			],
			"min":[
				42.5,
				9.5,
				12
			],
			"type":"VEC3"
		},
		{
			"bufferView":25,
			"componentType":5126,
			"count":4,
			"type":"VEC3"
		},
		{
			"bufferView":26,
			"componentType":5126,
			"count":4,
			"type":"VEC2"
		},
		{
			"bufferView":27,
			"componentType":5123,
			"count":6,
			"type":"SCALAR"
		},
		{
			"bufferView":28,
			"componentType":5126,
			"count":8,
			"max":[
				43.5,
				19,
				16
			],
			"min":[
				42.5,
				8,
				12
			],
			"type":"VEC3"
		},
		{
			"bufferView":29,
			"componentType":5126,
			"count":8,
			"type":"VEC3"
		},
		{
			"bufferView":30,
			"componentType":5126,
			"count":8,
			"type":"VEC2"
		},
		{
			"bufferView":31,
			"componentType":5123,
			"count":12,
			"type":"SCALAR"
		}
	],
	"bufferViews":[
		{
			"buffer":0,
			"byteLength":4248,
			"byteOffset":0,
			"target":34962
		},
		{
			"buffer":0,
			"byteLength":4248,
			"byteOffset":4248,
			"target":34962
		},
		{
			"buffer":0,
			"byteLength":2832,
			"byteOffset":8496,
			"target":34962
		},
		{
			"buffer":0,
			"byteLength":1368,
			"byteOffset":11328,
			"target":34963
		},
		{
			"buffer":0,
			"byteLength":3360,
			"byteOffset":12696,
			"target":34962
		},
		{
			"buffer":0,
			"byteLength":3360,
			"byteOffset":16056,
			"target":34962
		},
		{
			"buffer":0,
			"byteLength":2240,
			"byteOffset":19416,
			"target":34962
		},
		{
			"buffer":0,
			"byteLength":1236,
			"byteOffset":21656,
			"target":34963
		},
		{
			"buffer":0,
			"byteLength":2340,
			"byteOffset":22892,
			"target":34962
		},
		{
			"buffer":0,
			"byteLength":2340,
			"byteOffset":25232,
			"target":34962
		},
		{
			"buffer":0,
			"byteLength":1560,
			"byteOffset":27572,
			"target":34962
		},
		{
			"buffer":0,
			"byteLength":798,
			"byteOffset":29132,
			"target":34963
		},
		{
			"buffer":0,
			"byteLength":2112,
			"byteOffset":29932,
			"target":34962
		},
		{
			"buffer":0,
			"byteLength":2112,
			"byteOffset":32044,
			"target":34962
		},
		{
			"buffer":0,
			"byteLength":1408,
			"byteOffset":34156,
			"target":34962
		},
		{
			"buffer":0,
			"byteLength":612,
			"byteOffset":35564,
			"target":34963
		},
		{
			"buffer":0,
			"byteLength":468,
			"byteOffset":36176,
			"target":34962
		},
		{
			"buffer":0,
			"byteLength":468,
			"byteOffset":36644,
			"target":34962
		},
		{
			"buffer":0,
			"byteLength":312,
			"byteOffset":37112,
			"target":34962
		},
		{
			"buffer":0,
			"byteLength":234,
			"byteOffset":37424,
			"target":34963
		},
		{
			"buffer":0,
			"byteLength":48,
			"byteOffset":37660,
			"target":34962
		},
		{
			"buffer":0,
			"byteLength":48,
			"byteOffset":37708,
			"target":34962
		},
		{
			"buffer":0,
			"byteLength":32,
			"byteOffset":37756,
			"target":34962
		},
		{
			"buffer":0,
			"byteLength":12,
			"byteOffset":37788,
			"target":34963
		},
		{
			"buffer":0,
			"byteLength":48,
			"byteOffset":37800,
			"target":34962
		},
		{
			"buffer":0,
			"byteLength":48,
			"byteOffset":37848,
			"target":34962
		},
		{
			"buffer":0,
			"byteLength":32,
			"byteOffset":37896,
			"target":34962
		},
		{
			"buffer":0,
			"byteLength":12,
			"byteOffset":37928,
			"target":34963
		},
		{
			"buffer":0,
			"byteLength":96,
			"byteOffset":37940,
			"target":34962
		},
		{
			"buffer":0,
			"byteLength":96,
			"byteOffset":38036,
			"target":34962
		},
		{
			"buffer":0,
			"byteLength":64,
			"byteOffset":38132,
			"target":34962
		},
		{
			"buffer":0,
			"byteLength":24,
			"byteOffset":38196,
			"target":34963
		}
	],
	"buffers":[
		{
			"byteLength":38220,
			"uri":"bmiscpan_ruine.bin"
		}
	]
}
