{
	"asset":{
		"generator":"Khronos glTF Blender I/O v4.5.48",
		"version":"2.0"
	},
	"scene":0,
	"scenes":[
		{
			"name":"Scene",
			"nodes":[
				0
			]
		}
	],
	"nodes":[
		{
			"mesh":0,
			"name":"Object"
		}
	],
	"materials":[
		{
			"doubleSided":true,
			"name":"BE_EWAL06",
			"pbrMetallicRoughness":{
				"baseColorFactor":[
					0.800000011920929,
					0.800000011920929,
					0.800000011920929,
					1
				],
				"metallicFactor":0,
				"roughnessFactor":0.5
			}
		},
		{
			"doubleSided":true,
			"name":"BE_IHALIG",
			"pbrMetallicRoughness":{
				"baseColorFactor":[
					0.800000011920929,
					0.800000011920929,
					0.800000011920929,
					1
				],
				"metallicFactor":0,
				"roughnessFactor":0.5
			}
		},
		{
			"doubleSided":true,
			"name":"BE_EWAL09B",
			"pbrMetallicRoughness":{
				"baseColorFactor":[
					0.800000011920929,
					0.800000011920929,
					0.800000011920929,
					1
				],
				"metallicFactor":0,
				"roughnessFactor":0.5
			}
		},
		{
			"doubleSided":true,
			"name":"BE_IPRWAL01",
			"pbrMetallicRoughness":{
				"baseColorFactor":[
					0.800000011920929,
					0.800000011920929,
					0.800000011920929,
					1
				],
				"metallicFactor":0,
				"roughnessFactor":0.5
			}
		},
		{
			"doubleSided":true,
			"name":"BE_ICEI03B",
			"pbrMetallicRoughness":{
				"baseColorFactor":[
					0.800000011920929,
					0.800000011920929,
					0.800000011920929,
					1
				],
				"metallicFactor":0,
				"roughnessFactor":0.5
			}
		},
		{
			"doubleSided":true,
			"name":"BE_EWAL01B",
			"pbrMetallicRoughness":{
				"baseColorFactor":[
					0.800000011920929,
					0.800000011920929,
					0.800000011920929,
					1
				],
				"metallicFactor":0,
				"roughnessFactor":0.5
			}
		},
		{
			"doubleSided":true,
			"name":"BE_ICOMP01A",
			"pbrMetallicRoughness":{
				"baseColorFactor":[
					0.800000011920929,
					0.800000011920929,
					0.800000011920929,
					1
				],
				"metallicFactor":0,
				"roughnessFactor":0.5
			}
		}
	],
	"meshes":[
		{
			"name":"Mesh",
			"primitives":[
				{
					"attributes":{
						"POSITION":0,
						"NORMAL":1,
						"TEXCOORD_0":2
					},
					"indices":3,
					"material":0
				},
				{
					"attributes":{
						"POSITION":4,
						"NORMAL":5,
						"TEXCOORD_0":6
					},
					"indices":7,
					"material":1
				},
				{
					"attributes":{
						"POSITION":8,
						"NORMAL":9,
						"TEXCOORD_0":10
					},
					"indices":11,
					"material":2
				},
				{
					"attributes":{
						"POSITION":12,
						"NORMAL":13,
						"TEXCOORD_0":14
					},
					"indices":15,
					"material":3
				},
				{
					"attributes":{
						"POSITION":16,
						"NORMAL":17,
						"TEXCOORD_0":18
					},
					"indices":19,
					"material":4
				},
				{
					"attributes":{
						"POSITION":20,
						"NORMAL":21,
						"TEXCOORD_0":22
					},
					"indices":23,
					"material":5
				},
				{
					"attributes":{
						"POSITION":24,
						"NORMAL":25,
						"TEXCOORD_0":26
					},
					"indices":27,
					"material":6
				}
			]
		}
	],
	"accessors":[
		{
			"bufferView":0,
			"componentType":5126,
			"count":104,
			"max":[
				16,
				30,
				16
			],
			"min":[
				-16,
				-8,
				-16
			],
			"type":"VEC3"
		},
		{
			"bufferView":1,
			"componentType":5126,
			"count":104,
			"type":"VEC3"
		},
		{
			"bufferView":2,
			"componentType":5126,
			"count":104,
			"type":"VEC2"
		},
		{
			"bufferView":3,
			"componentType":5123,
			"count":225,
			"type":"SCALAR"
		},
		{
			"bufferView":4,
			"componentType":5126,
			"count":16,
			"max":[
				2,
				20,
				2
			],
			"min":[
				-2,
				18,
				-2
			],
			"type":"VEC3"
		},
		{
			"bufferView":5,
			"componentType":5126,
			"count":16,
			"type":"VEC3"
		},
		{
			"bufferView":6,
			"componentType":5126,
			"count":16,
			"type":"VEC2"
		},
		{
			"bufferView":7,
			"componentType":5123,
			"count":24,
			"type":"SCALAR"
		},
		{
			"bufferView":8,
			"componentType":5126,
			"count":52,
			"max":[
				8,
				30,
				8
			],
			"min":[
				-8,
				18,
				-8
			],
			"type":"VEC3"
		},
		{
			"bufferView":9,
			"componentType":5126,
			"count":52,
			"type":"VEC3"
		},
		{
			"bufferView":10,
			"componentType":5126,
			"count":52,
			"type":"VEC2"
		},
		{
			"bufferView":11,
			"componentType":5123,
			"count":96,
			"type":"SCALAR"
		},
		{
			"bufferView":12,
			"componentType":5126,
			"count":64,
			"max":[
				10,
				16,
				10
			],
			"min":[
				-10,
				8,
				-10
			],
			"type":"VEC3"
		},
		{
			"bufferView":13,
			"componentType":5126,
			"count":64,
			"type":"VEC3"
		},
		{
			"bufferView":14,
			"componentType":5126,
			"count":64,
			"type":"VEC2"
		},
		{
			"bufferView":15,
			"componentType":5123,
			"count":120,
			"type":"SCALAR"
		},
		{
			"bufferView":16,
			"componentType":5126,
			"count":162,
			"max":[
				16,
				28,
				16
			],
			"min":[
				-16,
				-8,
				-16
			],
			"type":"VEC3"
		},
		{
			"bufferView":17,
			"componentType":5126,
			"count":162,
			"type":"VEC3"
		},
		{
			"bufferView":18,
			"componentType":5126,
			"count":162,
			"type":"VEC2"
		},
		{
			"bufferView":19,
			"componentType":5123,
			"count":348,
			"type":"SCALAR"
		},
		{
			"bufferView":20,
			"componentType":5126,
			"count":148,
			"max":[
				16,
				28,
				16
			],
			"min":[
				-16,
				-8,
				-16
			],
			"type":"VEC3"
		},
		{
			"bufferView":21,
			"componentType":5126,
			"count":148,
			"type":"VEC3"
		},
		{
			"bufferView":22,
			"componentType":5126,
			"count":148,
			"type":"VEC2"
		},
		{
			"bufferView":23,
			"componentType":5123,
			"count":276,
			"type":"SCALAR"
		},
		{
			"bufferView":24,
			"componentType":5126,
			"count":16,
			"max":[
				6,
				16,
				6
			],
			"min":[
				-6,
				10,
				-6
			],
			"type":"VEC3"
		},
		{
			"bufferView":25,
			"componentType":5126,
			"count":16,
			"type":"VEC3"
		},
		{
			"bufferView":26,
			"componentType":5126,
			"count":16,
			"type":"VEC2"
		},
		{
			"bufferView":27,
			"componentType":5123,
			"count":24,
			"type":"SCALAR"
		}
	],
	"bufferViews":[
		{
			"buffer":0,
			"byteLength":1248,
			"byteOffset":0,
			"target":34962
		},
		{
			"buffer":0,
			"byteLength":1248,
			"byteOffset":1248,
			"target":34962
		},
		{
			"buffer":0,
			"byteLength":832,
			"byteOffset":2496,
			"target":34962
		},
		{
			"buffer":0,
			"byteLength":450,
			"byteOffset":3328,
			"target":34963
		},
		{
			"buffer":0,
			"byteLength":192,
			"byteOffset":3780,
			"target":34962
		},
		{
			"buffer":0,
			"byteLength":192,
			"byteOffset":3972,
			"target":34962
		},
		{
			"buffer":0,
			"byteLength":128,
			"byteOffset":4164,
			"target":34962
		},
		{
			"buffer":0,
			"byteLength":48,
			"byteOffset":4292,
			"target":34963
		},
		{
			"buffer":0,
			"byteLength":624,
			"byteOffset":4340,
			"target":34962
		},
		{
			"buffer":0,
			"byteLength":624,
			"byteOffset":4964,
			"target":34962
		},
		{
			"buffer":0,
			"byteLength":416,
			"byteOffset":5588,
			"target":34962
		},
		{
			"buffer":0,
			"byteLength":192,
			"byteOffset":6004,
			"target":34963
		},
		{
			"buffer":0,
			"byteLength":768,
			"byteOffset":6196,
			"target":34962
		},
		{
			"buffer":0,
			"byteLength":768,
			"byteOffset":6964,
			"target":34962
		},
		{
			"buffer":0,
			"byteLength":512,
			"byteOffset":7732,
			"target":34962
		},
		{
			"buffer":0,
			"byteLength":240,
			"byteOffset":8244,
			"target":34963
		},
		{
			"buffer":0,
			"byteLength":1944,
			"byteOffset":8484,
			"target":34962
		},
		{
			"buffer":0,
			"byteLength":1944,
			"byteOffset":10428,
			"target":34962
		},
		{
			"buffer":0,
			"byteLength":1296,
			"byteOffset":12372,
			"target":34962
		},
		{
			"buffer":0,
			"byteLength":696,
			"byteOffset":13668,
			"target":34963
		},
		{
			"buffer":0,
			"byteLength":1776,
			"byteOffset":14364,
			"target":34962
		},
		{
			"buffer":0,
			"byteLength":1776,
			"byteOffset":16140,
			"target":34962
		},
		{
			"buffer":0,
			"byteLength":1184,
			"byteOffset":17916,
			"target":34962
		},
		{
			"buffer":0,
			"byteLength":552,
			"byteOffset":19100,
			"target":34963
		},
		{
			"buffer":0,
			"byteLength":192,
			"byteOffset":19652,
			"target":34962
		},
		{
			"buffer":0,
			"byteLength":192,
			"byteOffset":19844,
			"target":34962
		},
		{
			"buffer":0,
			"byteLength":128,
			"byteOffset":20036,
			"target":34962
		},
		{
			"buffer":0,
			"byteLength":48,
			"byteOffset":20164,
			"target":34963
		}
	],
	"buffers":[
		{
			"byteLength":20212,
			"uri":"bmiscpan_tower1.bin"
		}
	]
}
