{
	"asset":{
		"generator":"Khronos glTF Blender I/O v4.5.48",
		"version":"2.0"
	},
	"scene":0,
	"scenes":[
		{
			"name":"Scene",
			"nodes":[
				0
			]
		}
	],
	"nodes":[
		{
			"mesh":0,
			"name":"Object"
		}
	],
	"materials":[
		{
			"doubleSided":true,
			"name":"BE_IHASPE01",
			"pbrMetallicRoughness":{
				"baseColorFactor":[
					0.800000011920929,
					0.800000011920929,
					0.800000011920929,
					1
				],
				"metallicFactor":0,
				"roughnessFactor":0.5
			}
		},
		{
			"doubleSided":true,
			"name":"BE_ICEI03B",
			"pbrMetallicRoughness":{
				"baseColorFactor":[
					0.800000011920929,
					0.800000011920929,
					0.800000011920929,
					1
				],
				"metallicFactor":0,
				"roughnessFactor":0.5
			}
		},
		{
			"doubleSided":true,
			"name":"BE_ITEBOR02B",
			"pbrMetallicRoughness":{
				"baseColorFactor":[
					0.800000011920929,
					0.800000011920929,
					0.800000011920929,
					1
				],
				"metallicFactor":0,
				"roughnessFactor":0.5
			}
		},
		{
			"doubleSided":true,
			"name":"BE_ITEFLO01",
			"pbrMetallicRoughness":{
				"baseColorFactor":[
					0.800000011920929,
					0.800000011920929,
					0.800000011920929,
					1
				],
				"metallicFactor":0,
				"roughnessFactor":0.5
			}
		},
		{
			"doubleSided":true,
			"name":"BE_EFLO01",
			"pbrMetallicRoughness":{
				"baseColorFactor":[
					0.800000011920929,
					0.800000011920929,
					0.800000011920929,
					1
				],
				"metallicFactor":0,
				"roughnessFactor":0.5
			}
		},
		{
			"doubleSided":true,
			"name":"BE_ITEBOR02A",
			"pbrMetallicRoughness":{
				"baseColorFactor":[
					0.800000011920929,
					0.800000011920929,
					0.800000011920929,
					1
				],
				"metallicFactor":0,
				"roughnessFactor":0.5
			}
		},
		{
			"doubleSided":true,
			"name":"BE_IGENERICDARK",
			"pbrMetallicRoughness":{
				"baseColorFactor":[
					0.800000011920929,
					0.800000011920929,
					0.800000011920929,
					1
				],
				"metallicFactor":0,
				"roughnessFactor":0.5
			}
		},
		{
			"doubleSided":true,
			"name":"BE_IHAWAL04A",
			"pbrMetallicRoughness":{
				"baseColorFactor":[
					0.800000011920929,
					0.800000011920929,
					0.800000011920929,
					1
				],
				"metallicFactor":0,
				"roughnessFactor":0.5
			}
		},
		{
			"doubleSided":true,
			"name":"BE_IHAWAL04",
			"pbrMetallicRoughness":{
				"baseColorFactor":[
					0.800000011920929,
					0.800000011920929,
					0.800000011920929,
					1
				],
				"metallicFactor":0,
				"roughnessFactor":0.5
			}
		},
		{
			"doubleSided":true,
			"name":"BE_EDOO02",
			"pbrMetallicRoughness":{
				"baseColorFactor":[
					0.800000011920929,
					0.800000011920929,
					0.800000011920929,
					1
				],
				"metallicFactor":0,
				"roughnessFactor":0.5
			}
		},
		{
			"doubleSided":true,
			"name":"BE_ELIG03",
			"pbrMetallicRoughness":{
				"baseColorFactor":[
					0.800000011920929,
					0.800000011920929,
					0.800000011920929,
					1
				],
				"metallicFactor":0,
				"roughnessFactor":0.5
			}
		},
		{
			"doubleSided":true,
			"name":"BE_EWAL01B",
			"pbrMetallicRoughness":{
				"baseColorFactor":[
					0.800000011920929,
					0.800000011920929,
					0.800000011920929,
					1
				],
				"metallicFactor":0,
				"roughnessFactor":0.5
			}
		},
		{
			"doubleSided":true,
			"name":"BE_EPORT01E",
			"pbrMetallicRoughness":{
				"baseColorFactor":[
					0.800000011920929,
					0.800000011920929,
					0.800000011920929,
					1
				],
				"metallicFactor":0,
				"roughnessFactor":0.5
			}
		},
		{
			"doubleSided":true,
			"name":"BE_IHALIG",
			"pbrMetallicRoughness":{
				"baseColorFactor":[
					0.800000011920929,
					0.800000011920929,
					0.800000011920929,
					1
				],
				"metallicFactor":0,
				"roughnessFactor":0.5
			}
		}
	],
	"meshes":[
		{
			"name":"Mesh",
			"primitives":[
				{
					"attributes":{
						"POSITION":0,
						"NORMAL":1,
						"TEXCOORD_0":2
					},
					"indices":3,
					"material":0
				},
				{
					"attributes":{
						"POSITION":4,
						"NORMAL":5,
						"TEXCOORD_0":6
					},
					"indices":7,
					"material":1
				},
				{
					"attributes":{
						"POSITION":8,
						"NORMAL":9,
						"TEXCOORD_0":10
					},
					"indices":11,
					"material":2
				},
				{
					"attributes":{
						"POSITION":12,
						"NORMAL":13,
						"TEXCOORD_0":14
					},
					"indices":15,
					"material":3
				},
				{
					"attributes":{
						"POSITION":16,
						"NORMAL":17,
						"TEXCOORD_0":18
					},
					"indices":19,
					"material":4
				},
				{
					"attributes":{
						"POSITION":20,
						"NORMAL":21,
						"TEXCOORD_0":22
					},
					"indices":23,
					"material":5
				},
				{
					"attributes":{
						"POSITION":24,
						"NORMAL":25,
						"TEXCOORD_0":26
					},
					"indices":27,
					"material":6
				},
				{
					"attributes":{
						"POSITION":28,
						"NORMAL":29,
						"TEXCOORD_0":30
					},
					"indices":31,
					"material":7
				},
				{
					"attributes":{
						"POSITION":32,
						"NORMAL":33,
						"TEXCOORD_0":34
					},
					"indices":35,
					"material":8
				},
				{
					"attributes":{
						"POSITION":36,
						"NORMAL":37,
						"TEXCOORD_0":38
					},
					"indices":39,
					"material":9
				},
				{
					"attributes":{
						"POSITION":40,
						"NORMAL":41,
						"TEXCOORD_0":42
					},
					"indices":43,
					"material":10
				},
				{
					"attributes":{
						"POSITION":44,
						"NORMAL":45,
						"TEXCOORD_0":46
					},
					"indices":47,
					"material":11
				},
				{
					"attributes":{
						"POSITION":48,
						"NORMAL":49,
						"TEXCOORD_0":50
					},
					"indices":51,
					"material":12
				},
				{
					"attributes":{
						"POSITION":52,
						"NORMAL":53,
						"TEXCOORD_0":54
					},
					"indices":55,
					"material":13
				}
			]
		}
	],
	"accessors":[
		{
			"bufferView":0,
			"componentType":5126,
			"count":4,
			"max":[
				4,
				0,
				4
			],
			"min":[
				-4,
				0,
				-4
			],
			"type":"VEC3"
		},
		{
			"bufferView":1,
			"componentType":5126,
			"count":4,
			"type":"VEC3"
		},
		{
			"bufferView":2,
			"componentType":5126,
			"count":4,
			"type":"VEC2"
		},
		{
			"bufferView":3,
			"componentType":5123,
			"count":6,
			"type":"SCALAR"
		},
		{
			"bufferView":4,
			"componentType":5126,
			"count":190,
			"max":[
				19,
				-3,
				14
			],
			"min":[
				-19,
				-3,
				-14
			],
			"type":"VEC3"
		},
		{
			"bufferView":5,
			"componentType":5126,
			"count":190,
			"type":"VEC3"
		},
		{
			"bufferView":6,
			"componentType":5126,
			"count":190,
			"type":"VEC2"
		},
		{
			"bufferView":7,
			"componentType":5123,
			"count":450,
			"type":"SCALAR"
		},
		{
			"bufferView":8,
			"componentType":5126,
			"count":16,
			"max":[
				5,
				0,
				5
			],
			"min":[
				-5,
				-0.25,
				-5
			],
			"type":"VEC3"
		},
		{
			"bufferView":9,
			"componentType":5126,
			"count":16,
			"type":"VEC3"
		},
		{
			"bufferView":10,
			"componentType":5126,
			"count":16,
			"type":"VEC2"
		},
		{
			"bufferView":11,
			"componentType":5123,
			"count":24,
			"type":"SCALAR"
		},
		{
			"bufferView":12,
			"componentType":5126,
			"count":16,
			"max":[
				6,
				-0.25,
				6
			],
			"min":[
				-6,
				-0.25,
				-6
			],
			"type":"VEC3"
		},
		{
			"bufferView":13,
			"componentType":5126,
			"count":16,
			"type":"VEC3"
		},
		{
			"bufferView":14,
			"componentType":5126,
			"count":16,
			"type":"VEC2"
		},
		{
			"bufferView":15,
			"componentType":5123,
			"count":24,
			"type":"SCALAR"
		},
		{
			"bufferView":16,
			"componentType":5126,
			"count":82,
			"max":[
				18,
				0,
				12
			],
			"min":[
				-18,
				-2.5,
				-12
			],
			"type":"VEC3"
		},
		{
			"bufferView":17,
			"componentType":5126,
			"count":82,
			"type":"VEC3"
		},
		{
			"bufferView":18,
			"componentType":5126,
			"count":82,
			"type":"VEC2"
		},
		{
			"bufferView":19,
			"componentType":5123,
			"count":156,
			"type":"SCALAR"
		},
		{
			"bufferView":20,
			"componentType":5126,
			"count":48,
			"max":[
				18,
				0,
				6
			],
			"min":[
				-18,
				-3,
				-6
			],
			"type":"VEC3"
		},
		{
			"bufferView":21,
			"componentType":5126,
			"count":48,
			"type":"VEC3"
		},
		{
			"bufferView":22,
			"componentType":5126,
			"count":48,
			"type":"VEC2"
		},
		{
			"bufferView":23,
			"componentType":5123,
			"count":72,
			"type":"SCALAR"
		},
		{
			"bufferView":24,
			"componentType":5126,
			"count":192,
			"max":[
				19,
				1,
				13
			],
			"min":[
				-19,
				-3,
				-13
			],
			"type":"VEC3"
		},
		{
			"bufferView":25,
			"componentType":5126,
			"count":192,
			"type":"VEC3"
		},
		{
			"bufferView":26,
			"componentType":5126,
			"count":192,
			"type":"VEC2"
		},
		{
			"bufferView":27,
			"componentType":5123,
			"count":480,
			"type":"SCALAR"
		},
		{
			"bufferView":28,
			"componentType":5126,
			"count":136,
			"max":[
				19,
				1,
				13
			],
			"min":[
				-19,
				-3,
				-13
			],
			"type":"VEC3"
		},
		{
			"bufferView":29,
			"componentType":5126,
			"count":136,
			"type":"VEC3"
		},
		{
			"bufferView":30,
			"componentType":5126,
			"count":136,
			"type":"VEC2"
		},
		{
			"bufferView":31,
			"componentType":5123,
			"count":240,
			"type":"SCALAR"
		},
		{
			"bufferView":32,
			"componentType":5126,
			"count":32,
			"max":[
				13,
				1,
				13
			],
			"min":[
				-13,
				-3,
				-13
			],
			"type":"VEC3"
		},
		{
			"bufferView":33,
			"componentType":5126,
			"count":32,
			"type":"VEC3"
		},
		{
			"bufferView":34,
			"componentType":5126,
			"count":32,
			"type":"VEC2"
		},
		{
			"bufferView":35,
			"componentType":5123,
			"count":48,
			"type":"SCALAR"
		},
		{
			"bufferView":36,
			"componentType":5126,
			"count":8,
			"max":[
				3,
				0,
				13
			],
			"min":[
				-3,
				-3,
				-13
			],
			"type":"VEC3"
		},
		{
			"bufferView":37,
			"componentType":5126,
			"count":8,
			"type":"VEC3"
		},
		{
			"bufferView":38,
			"componentType":5126,
			"count":8,
			"type":"VEC2"
		},
		{
			"bufferView":39,
			"componentType":5123,
			"count":12,
			"type":"SCALAR"
		},
		{
			"bufferView":40,
			"componentType":5126,
			"count":8,
			"max":[
				3,
				0,
				13
			],
			"min":[
				-3,
				0,
				-13
			],
			"type":"VEC3"
		},
		{
			"bufferView":41,
			"componentType":5126,
			"count":8,
			"type":"VEC3"
		},
		{
			"bufferView":42,
			"componentType":5126,
			"count":8,
			"type":"VEC2"
		},
		{
			"bufferView":43,
			"componentType":5123,
			"count":12,
			"type":"SCALAR"
		},
		{
			"bufferView":44,
			"componentType":5126,
			"count":72,
			"max":[
				6,
				2,
				14
			],
			"min":[
				-6,
				-3,
				-14
			],
			"type":"VEC3"
		},
		{
			"bufferView":45,
			"componentType":5126,
			"count":72,
			"type":"VEC3"
		},
		{
			"bufferView":46,
			"componentType":5126,
			"count":72,
			"type":"VEC2"
		},
		{
			"bufferView":47,
			"componentType":5123,
			"count":144,
			"type":"SCALAR"
		},
		{
			"bufferView":48,
			"componentType":5126,
			"count":32,
			"max":[
				6,
				2,
				14
			],
			"min":[
				-6,
				-3,
				-14
			],
			"type":"VEC3"
		},
		{
			"bufferView":49,
			"componentType":5126,
			"count":32,
			"type":"VEC3"
		},
		{
			"bufferView":50,
			"componentType":5126,
			"count":32,
			"type":"VEC2"
		},
		{
			"bufferView":51,
			"componentType":5123,
			"count":48,
			"type":"SCALAR"
		},
		{
			"bufferView":52,
			"componentType":5126,
			"count":16,
			"max":[
				6,
				2,
				13
			],
			"min":[
				-6,
				1,
				-13
			],
			"type":"VEC3"
		},
		{
			"bufferView":53,
			"componentType":5126,
			"count":16,
			"type":"VEC3"
		},
		{
			"bufferView":54,
			"componentType":5126,
			"count":16,
			"type":"VEC2"
		},
		{
			"bufferView":55,
			"componentType":5123,
			"count":24,
			"type":"SCALAR"
		}
	],
	"bufferViews":[
		{
			"buffer":0,
			"byteLength":48,
			"byteOffset":0,
			"target":34962
		},
		{
			"buffer":0,
			"byteLength":48,
			"byteOffset":48,
			"target":34962
		},
		{
			"buffer":0,
			"byteLength":32,
			"byteOffset":96,
			"target":34962
		},
		{
			"buffer":0,
			"byteLength":12,
			"byteOffset":128,
			"target":34963
		},
		{
			"buffer":0,
			"byteLength":2280,
			"byteOffset":140,
			"target":34962
		},
		{
			"buffer":0,
			"byteLength":2280,
			"byteOffset":2420,
			"target":34962
		},
		{
			"buffer":0,
			"byteLength":1520,
			"byteOffset":4700,
			"target":34962
		},
		{
			"buffer":0,
			"byteLength":900,
			"byteOffset":6220,
			"target":34963
		},
		{
			"buffer":0,
			"byteLength":192,
			"byteOffset":7120,
			"target":34962
		},
		{
			"buffer":0,
			"byteLength":192,
			"byteOffset":7312,
			"target":34962
		},
		{
			"buffer":0,
			"byteLength":128,
			"byteOffset":7504,
			"target":34962
		},
		{
			"buffer":0,
			"byteLength":48,
			"byteOffset":7632,
			"target":34963
		},
		{
			"buffer":0,
			"byteLength":192,
			"byteOffset":7680,
			"target":34962
		},
		{
			"buffer":0,
			"byteLength":192,
			"byteOffset":7872,
			"target":34962
		},
		{
			"buffer":0,
			"byteLength":128,
			"byteOffset":8064,
			"target":34962
		},
		{
			"buffer":0,
			"byteLength":48,
			"byteOffset":8192,
			"target":34963
		},
		{
			"buffer":0,
			"byteLength":984,
			"byteOffset":8240,
			"target":34962
		},
		{
			"buffer":0,
			"byteLength":984,
			"byteOffset":9224,
			"target":34962
		},
		{
			"buffer":0,
			"byteLength":656,
			"byteOffset":10208,
			"target":34962
		},
		{
			"buffer":0,
			"byteLength":312,
			"byteOffset":10864,
			"target":34963
		},
		{
			"buffer":0,
			"byteLength":576,
			"byteOffset":11176,
			"target":34962
		},
		{
			"buffer":0,
			"byteLength":576,
			"byteOffset":11752,
			"target":34962
		},
		{
			"buffer":0,
			"byteLength":384,
			"byteOffset":12328,
			"target":34962
		},
		{
			"buffer":0,
			"byteLength":144,
			"byteOffset":12712,
			"target":34963
		},
		{
			"buffer":0,
			"byteLength":2304,
			"byteOffset":12856,
			"target":34962
		},
		{
			"buffer":0,
			"byteLength":2304,
			"byteOffset":15160,
			"target":34962
		},
		{
			"buffer":0,
			"byteLength":1536,
			"byteOffset":17464,
			"target":34962
		},
		{
			"buffer":0,
			"byteLength":960,
			"byteOffset":19000,
			"target":34963
		},
		{
			"buffer":0,
			"byteLength":1632,
			"byteOffset":19960,
			"target":34962
		},
		{
			"buffer":0,
			"byteLength":1632,
			"byteOffset":21592,
			"target":34962
		},
		{
			"buffer":0,
			"byteLength":1088,
			"byteOffset":23224,
			"target":34962
		},
		{
			"buffer":0,
			"byteLength":480,
			"byteOffset":24312,
			"target":34963
		},
		{
			"buffer":0,
			"byteLength":384,
			"byteOffset":24792,
			"target":34962
		},
		{
			"buffer":0,
			"byteLength":384,
			"byteOffset":25176,
			"target":34962
		},
		{
			"buffer":0,
			"byteLength":256,
			"byteOffset":25560,
			"target":34962
		},
		{
			"buffer":0,
			"byteLength":96,
			"byteOffset":25816,
			"target":34963
		},
		{
			"buffer":0,
			"byteLength":96,
			"byteOffset":25912,
			"target":34962
		},
		{
			"buffer":0,
			"byteLength":96,
			"byteOffset":26008,
			"target":34962
		},
		{
			"buffer":0,
			"byteLength":64,
			"byteOffset":26104,
			"target":34962
		},
		{
			"buffer":0,
			"byteLength":24,
			"byteOffset":26168,
			"target":34963
		},
		{
			"buffer":0,
			"byteLength":96,
			"byteOffset":26192,
			"target":34962
		},
		{
			"buffer":0,
			"byteLength":96,
			"byteOffset":26288,
			"target":34962
		},
		{
			"buffer":0,
			"byteLength":64,
			"byteOffset":26384,
			"target":34962
		},
		{
			"buffer":0,
			"byteLength":24,
			"byteOffset":26448,
			"target":34963
		},
		{
			"buffer":0,
			"byteLength":864,
			"byteOffset":26472,
			"target":34962
		},
		{
			"buffer":0,
			"byteLength":864,
			"byteOffset":27336,
			"target":34962
		},
		{
			"buffer":0,
			"byteLength":576,
			"byteOffset":28200,
			"target":34962
		},
		{
			"buffer":0,
			"byteLength":288,
			"byteOffset":28776,
			"target":34963
		},
		{
			"buffer":0,
			"byteLength":384,
			"byteOffset":29064,
			"target":34962
		},
		{
			"buffer":0,
			"byteLength":384,
			"byteOffset":29448,
			"target":34962
		},
		{
			"buffer":0,
			"byteLength":256,
			"byteOffset":29832,
			"target":34962
		},
		{
			"buffer":0,
			"byteLength":96,
			"byteOffset":30088,
			"target":34963
		},
		{
			"buffer":0,
			"byteLength":192,
			"byteOffset":30184,
			"target":34962
		},
		{
			"buffer":0,
			"byteLength":192,
			"byteOffset":30376,
			"target":34962
		},
		{
			"buffer":0,
			"byteLength":128,
			"byteOffset":30568,
			"target":34962
		},
		{
			"buffer":0,
			"byteLength":48,
			"byteOffset":30696,
			"target":34963
		}
	],
	"buffers":[
		{
			"byteLength":30744,
			"uri":"bmisc_neftrstand1.bin"
		}
	]
}
