{
	"asset":{
		"generator":"Khronos glTF Blender I/O v4.5.48",
		"version":"2.0"
	},
	"scene":0,
	"scenes":[
		{
			"name":"Scene",
			"nodes":[
				0
			]
		}
	],
	"nodes":[
		{
			"mesh":0,
			"name":"Object"
		}
	],
	"materials":[
		{
			"doubleSided":true,
			"name":"DS_JET02",
			"pbrMetallicRoughness":{
				"baseColorFactor":[
					0.800000011920929,
					0.800000011920929,
					0.800000011920929,
					1
				],
				"metallicFactor":0,
				"roughnessFactor":0.5
			}
		},
		{
			"doubleSided":true,
			"name":"DS_IBOR04",
			"pbrMetallicRoughness":{
				"baseColorFactor":[
					0.800000011920929,
					0.800000011920929,
					0.800000011920929,
					1
				],
				"metallicFactor":0,
				"roughnessFactor":0.5
			}
		},
		{
			"doubleSided":true,
			"name":"DS_EFLOOR1",
			"pbrMetallicRoughness":{
				"baseColorFactor":[
					0.800000011920929,
					0.800000011920929,
					0.800000011920929,
					1
				],
				"metallicFactor":0,
				"roughnessFactor":0.5
			}
		},
		{
			"doubleSided":true,
			"name":"DS_IHACEI01",
			"pbrMetallicRoughness":{
				"baseColorFactor":[
					0.800000011920929,
					0.800000011920929,
					0.800000011920929,
					1
				],
				"metallicFactor":0,
				"roughnessFactor":0.5
			}
		},
		{
			"doubleSided":true,
			"name":"DS_IFLO04",
			"pbrMetallicRoughness":{
				"baseColorFactor":[
					0.800000011920929,
					0.800000011920929,
					0.800000011920929,
					1
				],
				"metallicFactor":0,
				"roughnessFactor":0.5
			}
		},
		{
			"doubleSided":true,
			"name":"DS_EWAL02",
			"pbrMetallicRoughness":{
				"baseColorFactor":[
					0.800000011920929,
					0.800000011920929,
					0.800000011920929,
					1
				],
				"metallicFactor":0,
				"roughnessFactor":0.5
			}
		},
		{
			"doubleSided":true,
			"name":"DS_ICEILIG01",
			"pbrMetallicRoughness":{
				"baseColorFactor":[
					0.800000011920929,
					0.800000011920929,
					0.800000011920929,
					1
				],
				"metallicFactor":0,
				"roughnessFactor":0.5
			}
		},
		{
			"doubleSided":true,
			"name":"DS_ICHUTE02",
			"pbrMetallicRoughness":{
				"baseColorFactor":[
					0.800000011920929,
					0.800000011920929,
					0.800000011920929,
					1
				],
				"metallicFactor":0,
				"roughnessFactor":0.5
			}
		}
	],
	"meshes":[
		{
			"name":"Mesh",
			"primitives":[
				{
					"attributes":{
						"POSITION":0,
						"NORMAL":1,
						"TEXCOORD_0":2
					},
					"indices":3,
					"material":0
				},
				{
					"attributes":{
						"POSITION":4,
						"NORMAL":5,
						"TEXCOORD_0":6
					},
					"indices":7,
					"material":1
				},
				{
					"attributes":{
						"POSITION":8,
						"NORMAL":9,
						"TEXCOORD_0":10
					},
					"indices":11,
					"material":2
				},
				{
					"attributes":{
						"POSITION":12,
						"NORMAL":13,
						"TEXCOORD_0":14
					},
					"indices":15,
					"material":3
				},
				{
					"attributes":{
						"POSITION":16,
						"NORMAL":17,
						"TEXCOORD_0":18
					},
					"indices":19,
					"material":4
				},
				{
					"attributes":{
						"POSITION":20,
						"NORMAL":21,
						"TEXCOORD_0":22
					},
					"indices":23,
					"material":5
				},
				{
					"attributes":{
						"POSITION":24,
						"NORMAL":25,
						"TEXCOORD_0":26
					},
					"indices":27,
					"material":6
				},
				{
					"attributes":{
						"POSITION":28,
						"NORMAL":29,
						"TEXCOORD_0":30
					},
					"indices":31,
					"material":7
				}
			]
		}
	],
	"accessors":[
		{
			"bufferView":0,
			"componentType":5126,
			"count":188,
			"max":[
				3,
				6.125,
				4.375
			],
			"min":[
				-3,
				1.6288940906524658,
				-1.625
			],
			"type":"VEC3"
		},
		{
			"bufferView":1,
			"componentType":5126,
			"count":188,
			"type":"VEC3"
		},
		{
			"bufferView":2,
			"componentType":5126,
			"count":188,
			"type":"VEC2"
		},
		{
			"bufferView":3,
			"componentType":5123,
			"count":300,
			"type":"SCALAR"
		},
		{
			"bufferView":4,
			"componentType":5126,
			"count":20,
			"max":[
				1.2390351295471191,
				1.625,
				2.614035129547119
			],
			"min":[
				-1.2390351295471191,
				1.625,
				0.13596491515636444
			],
			"type":"VEC3"
		},
		{
			"bufferView":5,
			"componentType":5126,
			"count":20,
			"type":"VEC3"
		},
		{
			"bufferView":6,
			"componentType":5126,
			"count":20,
			"type":"VEC2"
		},
		{
			"bufferView":7,
			"componentType":5123,
			"count":36,
			"type":"SCALAR"
		},
		{
			"bufferView":8,
			"componentType":5126,
			"count":28,
			"max":[
				2.1208791732788086,
				4.875,
				3.4958791732788086
			],
			"min":[
				-2.1208791732788086,
				4.875,
				-0.7458791136741638
			],
			"type":"VEC3"
		},
		{
			"bufferView":9,
			"componentType":5126,
			"count":28,
			"type":"VEC3"
		},
		{
			"bufferView":10,
			"componentType":5126,
			"count":28,
			"type":"VEC2"
		},
		{
			"bufferView":11,
			"componentType":5123,
			"count":78,
			"type":"SCALAR"
		},
		{
			"bufferView":12,
			"componentType":5126,
			"count":104,
			"max":[
				2.1208791732788086,
				4.875,
				3.4958791732788086
			],
			"min":[
				-2.1208791732788086,
				1.625,
				-0.7458791136741638
			],
			"type":"VEC3"
		},
		{
			"bufferView":13,
			"componentType":5126,
			"count":104,
			"type":"VEC3"
		},
		{
			"bufferView":14,
			"componentType":5126,
			"count":104,
			"type":"VEC2"
		},
		{
			"bufferView":15,
			"componentType":5123,
			"count":216,
			"type":"SCALAR"
		},
		{
			"bufferView":16,
			"componentType":5126,
			"count":118,
			"max":[
				1.25,
				1.625,
				2.625
			],
			"min":[
				-1.25,
				-6.116518974304199,
				-4.351665019989014
			],
			"type":"VEC3"
		},
		{
			"bufferView":17,
			"componentType":5126,
			"count":118,
			"type":"VEC3"
		},
		{
			"bufferView":18,
			"componentType":5126,
			"count":118,
			"type":"VEC2"
		},
		{
			"bufferView":19,
			"componentType":5123,
			"count":228,
			"type":"SCALAR"
		},
		{
			"bufferView":20,
			"componentType":5126,
			"count":93,
			"max":[
				1.25,
				1.125,
				2.875
			],
			"min":[
				-1.25,
				-1.875,
				-0.125
			],
			"type":"VEC3"
		},
		{
			"bufferView":21,
			"componentType":5126,
			"count":93,
			"type":"VEC3"
		},
		{
			"bufferView":22,
			"componentType":5126,
			"count":93,
			"type":"VEC2"
		},
		{
			"bufferView":23,
			"componentType":5123,
			"count":186,
			"type":"SCALAR"
		},
		{
			"bufferView":24,
			"componentType":5126,
			"count":16,
			"max":[
				1.75,
				0.375,
				2.125
			],
			"min":[
				-1.75,
				-1.125,
				0.625
			],
			"type":"VEC3"
		},
		{
			"bufferView":25,
			"componentType":5126,
			"count":16,
			"type":"VEC3"
		},
		{
			"bufferView":26,
			"componentType":5126,
			"count":16,
			"type":"VEC2"
		},
		{
			"bufferView":27,
			"componentType":5123,
			"count":36,
			"type":"SCALAR"
		},
		{
			"bufferView":28,
			"componentType":5126,
			"count":70,
			"max":[
				1.75,
				1.125,
				2.875
			],
			"min":[
				-1.75,
				-1.875,
				-0.125
			],
			"type":"VEC3"
		},
		{
			"bufferView":29,
			"componentType":5126,
			"count":70,
			"type":"VEC3"
		},
		{
			"bufferView":30,
			"componentType":5126,
			"count":70,
			"type":"VEC2"
		},
		{
			"bufferView":31,
			"componentType":5123,
			"count":114,
			"type":"SCALAR"
		}
	],
	"bufferViews":[
		{
			"buffer":0,
			"byteLength":2256,
			"byteOffset":0,
			"target":34962
		},
		{
			"buffer":0,
			"byteLength":2256,
			"byteOffset":2256,
			"target":34962
		},
		{
			"buffer":0,
			"byteLength":1504,
			"byteOffset":4512,
			"target":34962
		},
		{
			"buffer":0,
			"byteLength":600,
			"byteOffset":6016,
			"target":34963
		},
		{
			"buffer":0,
			"byteLength":240,
			"byteOffset":6616,
			"target":34962
		},
		{
			"buffer":0,
			"byteLength":240,
			"byteOffset":6856,
			"target":34962
		},
		{
			"buffer":0,
			"byteLength":160,
			"byteOffset":7096,
			"target":34962
		},
		{
			"buffer":0,
			"byteLength":72,
			"byteOffset":7256,
			"target":34963
		},
		{
			"buffer":0,
			"byteLength":336,
			"byteOffset":7328,
			"target":34962
		},
		{
			"buffer":0,
			"byteLength":336,
			"byteOffset":7664,
			"target":34962
		},
		{
			"buffer":0,
			"byteLength":224,
			"byteOffset":8000,
			"target":34962
		},
		{
			"buffer":0,
			"byteLength":156,
			"byteOffset":8224,
			"target":34963
		},
		{
			"buffer":0,
			"byteLength":1248,
			"byteOffset":8380,
			"target":34962
		},
		{
			"buffer":0,
			"byteLength":1248,
			"byteOffset":9628,
			"target":34962
		},
		{
			"buffer":0,
			"byteLength":832,
			"byteOffset":10876,
			"target":34962
		},
		{
			"buffer":0,
			"byteLength":432,
			"byteOffset":11708,
			"target":34963
		},
		{
			"buffer":0,
			"byteLength":1416,
			"byteOffset":12140,
			"target":34962
		},
		{
			"buffer":0,
			"byteLength":1416,
			"byteOffset":13556,
			"target":34962
		},
		{
			"buffer":0,
			"byteLength":944,
			"byteOffset":14972,
			"target":34962
		},
		{
			"buffer":0,
			"byteLength":456,
			"byteOffset":15916,
			"target":34963
		},
		{
			"buffer":0,
			"byteLength":1116,
			"byteOffset":16372,
			"target":34962
		},
		{
			"buffer":0,
			"byteLength":1116,
			"byteOffset":17488,
			"target":34962
		},
		{
			"buffer":0,
			"byteLength":744,
			"byteOffset":18604,
			"target":34962
		},
		{
			"buffer":0,
			"byteLength":372,
			"byteOffset":19348,
			"target":34963
		},
		{
			"buffer":0,
			"byteLength":192,
			"byteOffset":19720,
			"target":34962
		},
		{
			"buffer":0,
			"byteLength":192,
			"byteOffset":19912,
			"target":34962
		},
		{
			"buffer":0,
			"byteLength":128,
			"byteOffset":20104,
			"target":34962
		},
		{
			"buffer":0,
			"byteLength":72,
			"byteOffset":20232,
			"target":34963
		},
		{
			"buffer":0,
			"byteLength":840,
			"byteOffset":20304,
			"target":34962
		},
		{
			"buffer":0,
			"byteLength":840,
			"byteOffset":21144,
			"target":34962
		},
		{
			"buffer":0,
			"byteLength":560,
			"byteOffset":21984,
			"target":34962
		},
		{
			"buffer":0,
			"byteLength":228,
			"byteOffset":22544,
			"target":34963
		}
	],
	"buffers":[
		{
			"byteLength":22772,
			"uri":"btf_turretplatform_x2.bin"
		}
	]
}
