{
	"asset":{
		"generator":"Khronos glTF Blender I/O v4.5.48",
		"version":"2.0"
	},
	"scene":0,
	"scenes":[
		{
			"name":"Scene",
			"nodes":[
				0
			]
		}
	],
	"nodes":[
		{
			"mesh":0,
			"name":"Object"
		}
	],
	"materials":[
		{
			"doubleSided":true,
			"name":"DS_GENWALL",
			"pbrMetallicRoughness":{
				"baseColorFactor":[
					0.800000011920929,
					0.800000011920929,
					0.800000011920929,
					1
				],
				"metallicFactor":0,
				"roughnessFactor":0.5
			}
		},
		{
			"doubleSided":true,
			"name":"DS_EWALL07",
			"pbrMetallicRoughness":{
				"baseColorFactor":[
					0.800000011920929,
					0.800000011920929,
					0.800000011920929,
					1
				],
				"metallicFactor":0,
				"roughnessFactor":0.5
			}
		},
		{
			"doubleSided":true,
			"name":"DS_EWALL06",
			"pbrMetallicRoughness":{
				"baseColorFactor":[
					0.800000011920929,
					0.800000011920929,
					0.800000011920929,
					1
				],
				"metallicFactor":0,
				"roughnessFactor":0.5
			}
		},
		{
			"doubleSided":true,
			"name":"DS_TECHWALL_2",
			"pbrMetallicRoughness":{
				"baseColorFactor":[
					0.800000011920929,
					0.800000011920929,
					0.800000011920929,
					1
				],
				"metallicFactor":0,
				"roughnessFactor":0.5
			}
		},
		{
			"doubleSided":true,
			"name":"DS_ILAVLIGHT",
			"pbrMetallicRoughness":{
				"baseColorFactor":[
					0.800000011920929,
					0.800000011920929,
					0.800000011920929,
					1
				],
				"metallicFactor":0,
				"roughnessFactor":0.5
			}
		},
		{
			"doubleSided":true,
			"name":"DS_IFLO04",
			"pbrMetallicRoughness":{
				"baseColorFactor":[
					0.800000011920929,
					0.800000011920929,
					0.800000011920929,
					1
				],
				"metallicFactor":0,
				"roughnessFactor":0.5
			}
		},
		{
			"doubleSided":true,
			"name":"DS_EFLOOR1",
			"pbrMetallicRoughness":{
				"baseColorFactor":[
					0.800000011920929,
					0.800000011920929,
					0.800000011920929,
					1
				],
				"metallicFactor":0,
				"roughnessFactor":0.5
			}
		},
		{
			"doubleSided":true,
			"name":"DS_EWALDECO06",
			"pbrMetallicRoughness":{
				"baseColorFactor":[
					0.800000011920929,
					0.800000011920929,
					0.800000011920929,
					1
				],
				"metallicFactor":0,
				"roughnessFactor":0.5
			}
		},
		{
			"doubleSided":true,
			"name":"DS_GENFLOOR",
			"pbrMetallicRoughness":{
				"baseColorFactor":[
					0.800000011920929,
					0.800000011920929,
					0.800000011920929,
					1
				],
				"metallicFactor":0,
				"roughnessFactor":0.5
			}
		},
		{
			"doubleSided":true,
			"name":"DS_ILIG02",
			"pbrMetallicRoughness":{
				"baseColorFactor":[
					0.800000011920929,
					0.800000011920929,
					0.800000011920929,
					1
				],
				"metallicFactor":0,
				"roughnessFactor":0.5
			}
		},
		{
			"doubleSided":true,
			"name":"DS_IWAL01",
			"pbrMetallicRoughness":{
				"baseColorFactor":[
					0.800000011920929,
					0.800000011920929,
					0.800000011920929,
					1
				],
				"metallicFactor":0,
				"roughnessFactor":0.5
			}
		},
		{
			"doubleSided":true,
			"name":"DS_ILIG03",
			"pbrMetallicRoughness":{
				"baseColorFactor":[
					0.800000011920929,
					0.800000011920929,
					0.800000011920929,
					1
				],
				"metallicFactor":0,
				"roughnessFactor":0.5
			}
		},
		{
			"doubleSided":true,
			"name":"DS_ETECHBRDR2",
			"pbrMetallicRoughness":{
				"baseColorFactor":[
					0.800000011920929,
					0.800000011920929,
					0.800000011920929,
					1
				],
				"metallicFactor":0,
				"roughnessFactor":0.5
			}
		},
		{
			"doubleSided":true,
			"name":"DS_EWAL02",
			"pbrMetallicRoughness":{
				"baseColorFactor":[
					0.800000011920929,
					0.800000011920929,
					0.800000011920929,
					1
				],
				"metallicFactor":0,
				"roughnessFactor":0.5
			}
		},
		{
			"doubleSided":true,
			"name":"DS_ICHUTE01",
			"pbrMetallicRoughness":{
				"baseColorFactor":[
					0.800000011920929,
					0.800000011920929,
					0.800000011920929,
					1
				],
				"metallicFactor":0,
				"roughnessFactor":0.5
			}
		},
		{
			"doubleSided":true,
			"name":"DS_ILIG06",
			"pbrMetallicRoughness":{
				"baseColorFactor":[
					0.800000011920929,
					0.800000011920929,
					0.800000011920929,
					1
				],
				"metallicFactor":0,
				"roughnessFactor":0.5
			}
		}
	],
	"meshes":[
		{
			"name":"Mesh",
			"primitives":[
				{
					"attributes":{
						"POSITION":0,
						"NORMAL":1,
						"TEXCOORD_0":2
					},
					"indices":3,
					"material":0
				},
				{
					"attributes":{
						"POSITION":4,
						"NORMAL":5,
						"TEXCOORD_0":6
					},
					"indices":7,
					"material":1
				},
				{
					"attributes":{
						"POSITION":8,
						"NORMAL":9,
						"TEXCOORD_0":10
					},
					"indices":11,
					"material":2
				},
				{
					"attributes":{
						"POSITION":12,
						"NORMAL":13,
						"TEXCOORD_0":14
					},
					"indices":15,
					"material":3
				},
				{
					"attributes":{
						"POSITION":16,
						"NORMAL":17,
						"TEXCOORD_0":18
					},
					"indices":19,
					"material":4
				},
				{
					"attributes":{
						"POSITION":20,
						"NORMAL":21,
						"TEXCOORD_0":22
					},
					"indices":23,
					"material":5
				},
				{
					"attributes":{
						"POSITION":24,
						"NORMAL":25,
						"TEXCOORD_0":26
					},
					"indices":27,
					"material":6
				},
				{
					"attributes":{
						"POSITION":28,
						"NORMAL":29,
						"TEXCOORD_0":30
					},
					"indices":31,
					"material":7
				},
				{
					"attributes":{
						"POSITION":32,
						"NORMAL":33,
						"TEXCOORD_0":34
					},
					"indices":35,
					"material":8
				},
				{
					"attributes":{
						"POSITION":36,
						"NORMAL":37,
						"TEXCOORD_0":38
					},
					"indices":39,
					"material":9
				},
				{
					"attributes":{
						"POSITION":40,
						"NORMAL":41,
						"TEXCOORD_0":42
					},
					"indices":43,
					"material":10
				},
				{
					"attributes":{
						"POSITION":44,
						"NORMAL":45,
						"TEXCOORD_0":46
					},
					"indices":47,
					"material":11
				},
				{
					"attributes":{
						"POSITION":48,
						"NORMAL":49,
						"TEXCOORD_0":50
					},
					"indices":51,
					"material":12
				},
				{
					"attributes":{
						"POSITION":52,
						"NORMAL":53,
						"TEXCOORD_0":54
					},
					"indices":55,
					"material":13
				},
				{
					"attributes":{
						"POSITION":56,
						"NORMAL":57,
						"TEXCOORD_0":58
					},
					"indices":59,
					"material":14
				},
				{
					"attributes":{
						"POSITION":60,
						"NORMAL":61,
						"TEXCOORD_0":62
					},
					"indices":63,
					"material":15
				}
			]
		}
	],
	"accessors":[
		{
			"bufferView":0,
			"componentType":5126,
			"count":489,
			"max":[
				18,
				-9,
				22
			],
			"min":[
				-8,
				-40,
				0
			],
			"type":"VEC3"
		},
		{
			"bufferView":1,
			"componentType":5126,
			"count":489,
			"type":"VEC3"
		},
		{
			"bufferView":2,
			"componentType":5126,
			"count":489,
			"type":"VEC2"
		},
		{
			"bufferView":3,
			"componentType":5123,
			"count":1050,
			"type":"SCALAR"
		},
		{
			"bufferView":4,
			"componentType":5126,
			"count":279,
			"max":[
				12,
				-9,
				26
			],
			"min":[
				-12,
				-40,
				-4
			],
			"type":"VEC3"
		},
		{
			"bufferView":5,
			"componentType":5126,
			"count":279,
			"type":"VEC3"
		},
		{
			"bufferView":6,
			"componentType":5126,
			"count":279,
			"type":"VEC2"
		},
		{
			"bufferView":7,
			"componentType":5123,
			"count":744,
			"type":"SCALAR"
		},
		{
			"bufferView":8,
			"componentType":5126,
			"count":94,
			"max":[
				12,
				-20,
				16.5
			],
			"min":[
				-13,
				-36,
				5.5
			],
			"type":"VEC3"
		},
		{
			"bufferView":9,
			"componentType":5126,
			"count":94,
			"type":"VEC3"
		},
		{
			"bufferView":10,
			"componentType":5126,
			"count":94,
			"type":"VEC2"
		},
		{
			"bufferView":11,
			"componentType":5123,
			"count":240,
			"type":"SCALAR"
		},
		{
			"bufferView":12,
			"componentType":5126,
			"count":272,
			"max":[
				9.25,
				-9,
				21.40625
			],
			"min":[
				-8,
				-36,
				0
			],
			"type":"VEC3"
		},
		{
			"bufferView":13,
			"componentType":5126,
			"count":272,
			"type":"VEC3"
		},
		{
			"bufferView":14,
			"componentType":5126,
			"count":272,
			"type":"VEC2"
		},
		{
			"bufferView":15,
			"componentType":5123,
			"count":594,
			"type":"SCALAR"
		},
		{
			"bufferView":16,
			"componentType":5126,
			"count":52,
			"max":[
				7.5,
				-19,
				21.5
			],
			"min":[
				-13,
				-20,
				0.5
			],
			"type":"VEC3"
		},
		{
			"bufferView":17,
			"componentType":5126,
			"count":52,
			"type":"VEC3"
		},
		{
			"bufferView":18,
			"componentType":5126,
			"count":52,
			"type":"VEC2"
		},
		{
			"bufferView":19,
			"componentType":5123,
			"count":96,
			"type":"SCALAR"
		},
		{
			"bufferView":20,
			"componentType":5126,
			"count":38,
			"max":[
				5,
				-18,
				19
			],
			"min":[
				-13,
				-19,
				3
			],
			"type":"VEC3"
		},
		{
			"bufferView":21,
			"componentType":5126,
			"count":38,
			"type":"VEC3"
		},
		{
			"bufferView":22,
			"componentType":5126,
			"count":38,
			"type":"VEC2"
		},
		{
			"bufferView":23,
			"componentType":5123,
			"count":108,
			"type":"SCALAR"
		},
		{
			"bufferView":24,
			"componentType":5126,
			"count":94,
			"max":[
				18,
				-27,
				19
			],
			"min":[
				-5,
				-40,
				3
			],
			"type":"VEC3"
		},
		{
			"bufferView":25,
			"componentType":5126,
			"count":94,
			"type":"VEC3"
		},
		{
			"bufferView":26,
			"componentType":5126,
			"count":94,
			"type":"VEC2"
		},
		{
			"bufferView":27,
			"componentType":5123,
			"count":228,
			"type":"SCALAR"
		},
		{
			"bufferView":28,
			"componentType":5126,
			"count":60,
			"max":[
				10.03125,
				-20.15625,
				14
			],
			"min":[
				8.09375,
				-27.875,
				8
			],
			"type":"VEC3"
		},
		{
			"bufferView":29,
			"componentType":5126,
			"count":60,
			"type":"VEC3"
		},
		{
			"bufferView":30,
			"componentType":5126,
			"count":60,
			"type":"VEC2"
		},
		{
			"bufferView":31,
			"componentType":5123,
			"count":114,
			"type":"SCALAR"
		},
		{
			"bufferView":32,
			"componentType":5126,
			"count":86,
			"max":[
				12.5,
				-28,
				16
			],
			"min":[
				10.125,
				-40,
				6
			],
			"type":"VEC3"
		},
		{
			"bufferView":33,
			"componentType":5126,
			"count":86,
			"type":"VEC3"
		},
		{
			"bufferView":34,
			"componentType":5126,
			"count":86,
			"type":"VEC2"
		},
		{
			"bufferView":35,
			"componentType":5123,
			"count":138,
			"type":"SCALAR"
		},
		{
			"bufferView":36,
			"componentType":5126,
			"count":28,
			"max":[
				11.5,
				-28,
				14.5
			],
			"min":[
				5.75,
				-33.75,
				7.5
			],
			"type":"VEC3"
		},
		{
			"bufferView":37,
			"componentType":5126,
			"count":28,
			"type":"VEC3"
		},
		{
			"bufferView":38,
			"componentType":5126,
			"count":28,
			"type":"VEC2"
		},
		{
			"bufferView":39,
			"componentType":5123,
			"count":42,
			"type":"SCALAR"
		},
		{
			"bufferView":40,
			"componentType":5126,
			"count":64,
			"max":[
				3,
				-19,
				18
			],
			"min":[
				1.5,
				-28.5,
				4
			],
			"type":"VEC3"
		},
		{
			"bufferView":41,
			"componentType":5126,
			"count":64,
			"type":"VEC3"
		},
		{
			"bufferView":42,
			"componentType":5126,
			"count":64,
			"type":"VEC2"
		},
		{
			"bufferView":43,
			"componentType":5123,
			"count":96,
			"type":"SCALAR"
		},
		{
			"bufferView":44,
			"componentType":5126,
			"count":16,
			"max":[
				2.75,
				-19.5,
				17.75
			],
			"min":[
				1.75,
				-28.5,
				4.25
			],
			"type":"VEC3"
		},
		{
			"bufferView":45,
			"componentType":5126,
			"count":16,
			"type":"VEC3"
		},
		{
			"bufferView":46,
			"componentType":5126,
			"count":16,
			"type":"VEC2"
		},
		{
			"bufferView":47,
			"componentType":5123,
			"count":24,
			"type":"SCALAR"
		},
		{
			"bufferView":48,
			"componentType":5126,
			"count":10,
			"max":[
				-4.75,
				-19,
				13
			],
			"min":[
				-4.75,
				-36,
				9
			],
			"type":"VEC3"
		},
		{
			"bufferView":49,
			"componentType":5126,
			"count":10,
			"type":"VEC3"
		},
		{
			"bufferView":50,
			"componentType":5126,
			"count":10,
			"type":"VEC2"
		},
		{
			"bufferView":51,
			"componentType":5123,
			"count":18,
			"type":"SCALAR"
		},
		{
			"bufferView":52,
			"componentType":5126,
			"count":18,
			"max":[
				-4.5,
				-19,
				15
			],
			"min":[
				-5,
				-36,
				7
			],
			"type":"VEC3"
		},
		{
			"bufferView":53,
			"componentType":5126,
			"count":18,
			"type":"VEC3"
		},
		{
			"bufferView":54,
			"componentType":5126,
			"count":18,
			"type":"VEC2"
		},
		{
			"bufferView":55,
			"componentType":5123,
			"count":30,
			"type":"SCALAR"
		},
		{
			"bufferView":56,
			"componentType":5126,
			"count":16,
			"max":[
				-4.5,
				-19,
				13
			],
			"min":[
				-4.75,
				-36,
				9
			],
			"type":"VEC3"
		},
		{
			"bufferView":57,
			"componentType":5126,
			"count":16,
			"type":"VEC3"
		},
		{
			"bufferView":58,
			"componentType":5126,
			"count":16,
			"type":"VEC2"
		},
		{
			"bufferView":59,
			"componentType":5123,
			"count":24,
			"type":"SCALAR"
		},
		{
			"bufferView":60,
			"componentType":5126,
			"count":16,
			"max":[
				2,
				-9,
				12
			],
			"min":[
				-3.75,
				-27.75,
				10
			],
			"type":"VEC3"
		},
		{
			"bufferView":61,
			"componentType":5126,
			"count":16,
			"type":"VEC3"
		},
		{
			"bufferView":62,
			"componentType":5126,
			"count":16,
			"type":"VEC2"
		},
		{
			"bufferView":63,
			"componentType":5123,
			"count":24,
			"type":"SCALAR"
		}
	],
	"bufferViews":[
		{
			"buffer":0,
			"byteLength":5868,
			"byteOffset":0,
			"target":34962
		},
		{
			"buffer":0,
			"byteLength":5868,
			"byteOffset":5868,
			"target":34962
		},
		{
			"buffer":0,
			"byteLength":3912,
			"byteOffset":11736,
			"target":34962
		},
		{
			"buffer":0,
			"byteLength":2100,
			"byteOffset":15648,
			"target":34963
		},
		{
			"buffer":0,
			"byteLength":3348,
			"byteOffset":17748,
			"target":34962
		},
		{
			"buffer":0,
			"byteLength":3348,
			"byteOffset":21096,
			"target":34962
		},
		{
			"buffer":0,
			"byteLength":2232,
			"byteOffset":24444,
			"target":34962
		},
		{
			"buffer":0,
			"byteLength":1488,
			"byteOffset":26676,
			"target":34963
		},
		{
			"buffer":0,
			"byteLength":1128,
			"byteOffset":28164,
			"target":34962
		},
		{
			"buffer":0,
			"byteLength":1128,
			"byteOffset":29292,
			"target":34962
		},
		{
			"buffer":0,
			"byteLength":752,
			"byteOffset":30420,
			"target":34962
		},
		{
			"buffer":0,
			"byteLength":480,
			"byteOffset":31172,
			"target":34963
		},
		{
			"buffer":0,
			"byteLength":3264,
			"byteOffset":31652,
			"target":34962
		},
		{
			"buffer":0,
			"byteLength":3264,
			"byteOffset":34916,
			"target":34962
		},
		{
			"buffer":0,
			"byteLength":2176,
			"byteOffset":38180,
			"target":34962
		},
		{
			"buffer":0,
			"byteLength":1188,
			"byteOffset":40356,
			"target":34963
		},
		{
			"buffer":0,
			"byteLength":624,
			"byteOffset":41544,
			"target":34962
		},
		{
			"buffer":0,
			"byteLength":624,
			"byteOffset":42168,
			"target":34962
		},
		{
			"buffer":0,
			"byteLength":416,
			"byteOffset":42792,
			"target":34962
		},
		{
			"buffer":0,
			"byteLength":192,
			"byteOffset":43208,
			"target":34963
		},
		{
			"buffer":0,
			"byteLength":456,
			"byteOffset":43400,
			"target":34962
		},
		{
			"buffer":0,
			"byteLength":456,
			"byteOffset":43856,
			"target":34962
		},
		{
			"buffer":0,
			"byteLength":304,
			"byteOffset":44312,
			"target":34962
		},
		{
			"buffer":0,
			"byteLength":216,
			"byteOffset":44616,
			"target":34963
		},
		{
			"buffer":0,
			"byteLength":1128,
			"byteOffset":44832,
			"target":34962
		},
		{
			"buffer":0,
			"byteLength":1128,
			"byteOffset":45960,
			"target":34962
		},
		{
			"buffer":0,
			"byteLength":752,
			"byteOffset":47088,
			"target":34962
		},
		{
			"buffer":0,
			"byteLength":456,
			"byteOffset":47840,
			"target":34963
		},
		{
			"buffer":0,
			"byteLength":720,
			"byteOffset":48296,
			"target":34962
		},
		{
			"buffer":0,
			"byteLength":720,
			"byteOffset":49016,
			"target":34962
		},
		{
			"buffer":0,
			"byteLength":480,
			"byteOffset":49736,
			"target":34962
		},
		{
			"buffer":0,
			"byteLength":228,
			"byteOffset":50216,
			"target":34963
		},
		{
			"buffer":0,
			"byteLength":1032,
			"byteOffset":50444,
			"target":34962
		},
		{
			"buffer":0,
			"byteLength":1032,
			"byteOffset":51476,
			"target":34962
		},
		{
			"buffer":0,
			"byteLength":688,
			"byteOffset":52508,
			"target":34962
		},
		{
			"buffer":0,
			"byteLength":276,
			"byteOffset":53196,
			"target":34963
		},
		{
			"buffer":0,
			"byteLength":336,
			"byteOffset":53472,
			"target":34962
		},
		{
			"buffer":0,
			"byteLength":336,
			"byteOffset":53808,
			"target":34962
		},
		{
			"buffer":0,
			"byteLength":224,
			"byteOffset":54144,
			"target":34962
		},
		{
			"buffer":0,
			"byteLength":84,
			"byteOffset":54368,
			"target":34963
		},
		{
			"buffer":0,
			"byteLength":768,
			"byteOffset":54452,
			"target":34962
		},
		{
			"buffer":0,
			"byteLength":768,
			"byteOffset":55220,
			"target":34962
		},
		{
			"buffer":0,
			"byteLength":512,
			"byteOffset":55988,
			"target":34962
		},
		{
			"buffer":0,
			"byteLength":192,
			"byteOffset":56500,
			"target":34963
		},
		{
			"buffer":0,
			"byteLength":192,
			"byteOffset":56692,
			"target":34962
		},
		{
			"buffer":0,
			"byteLength":192,
			"byteOffset":56884,
			"target":34962
		},
		{
			"buffer":0,
			"byteLength":128,
			"byteOffset":57076,
			"target":34962
		},
		{
			"buffer":0,
			"byteLength":48,
			"byteOffset":57204,
			"target":34963
		},
		{
			"buffer":0,
			"byteLength":120,
			"byteOffset":57252,
			"target":34962
		},
		{
			"buffer":0,
			"byteLength":120,
			"byteOffset":57372,
			"target":34962
		},
		{
			"buffer":0,
			"byteLength":80,
			"byteOffset":57492,
			"target":34962
		},
		{
			"buffer":0,
			"byteLength":36,
			"byteOffset":57572,
			"target":34963
		},
		{
			"buffer":0,
			"byteLength":216,
			"byteOffset":57608,
			"target":34962
		},
		{
			"buffer":0,
			"byteLength":216,
			"byteOffset":57824,
			"target":34962
		},
		{
			"buffer":0,
			"byteLength":144,
			"byteOffset":58040,
			"target":34962
		},
		{
			"buffer":0,
			"byteLength":60,
			"byteOffset":58184,
			"target":34963
		},
		{
			"buffer":0,
			"byteLength":192,
			"byteOffset":58244,
			"target":34962
		},
		{
			"buffer":0,
			"byteLength":192,
			"byteOffset":58436,
			"target":34962
		},
		{
			"buffer":0,
			"byteLength":128,
			"byteOffset":58628,
			"target":34962
		},
		{
			"buffer":0,
			"byteLength":48,
			"byteOffset":58756,
			"target":34963
		},
		{
			"buffer":0,
			"byteLength":192,
			"byteOffset":58804,
			"target":34962
		},
		{
			"buffer":0,
			"byteLength":192,
			"byteOffset":58996,
			"target":34962
		},
		{
			"buffer":0,
			"byteLength":128,
			"byteOffset":59188,
			"target":34962
		},
		{
			"buffer":0,
			"byteLength":48,
			"byteOffset":59316,
			"target":34963
		}
	],
	"buffers":[
		{
			"byteLength":59364,
			"uri":"dbase_-nefbase2_x2.bin"
		}
	]
}
