{
	"asset":{
		"generator":"Khronos glTF Blender I/O v4.5.48",
		"version":"2.0"
	},
	"scene":0,
	"scenes":[
		{
			"name":"Scene",
			"nodes":[
				0
			]
		}
	],
	"nodes":[
		{
			"mesh":0,
			"name":"Object"
		}
	],
	"materials":[
		{
			"doubleSided":true,
			"name":"DS_EFLOOR1",
			"pbrMetallicRoughness":{
				"baseColorFactor":[
					0.800000011920929,
					0.800000011920929,
					0.800000011920929,
					1
				],
				"metallicFactor":0,
				"roughnessFactor":0.5
			}
		},
		{
			"doubleSided":true,
			"name":"DS_ILIG02",
			"pbrMetallicRoughness":{
				"baseColorFactor":[
					0.800000011920929,
					0.800000011920929,
					0.800000011920929,
					1
				],
				"metallicFactor":0,
				"roughnessFactor":0.5
			}
		},
		{
			"doubleSided":true,
			"name":"SW_FLOORGRATE",
			"pbrMetallicRoughness":{
				"baseColorFactor":[
					0.800000011920929,
					0.800000011920929,
					0.800000011920929,
					1
				],
				"metallicFactor":0,
				"roughnessFactor":0.5
			}
		},
		{
			"doubleSided":true,
			"name":"BD_IFLO03B",
			"pbrMetallicRoughness":{
				"baseColorFactor":[
					0.800000011920929,
					0.800000011920929,
					0.800000011920929,
					1
				],
				"metallicFactor":0,
				"roughnessFactor":0.5
			}
		},
		{
			"doubleSided":true,
			"name":"DS_GENWALL",
			"pbrMetallicRoughness":{
				"baseColorFactor":[
					0.800000011920929,
					0.800000011920929,
					0.800000011920929,
					1
				],
				"metallicFactor":0,
				"roughnessFactor":0.5
			}
		},
		{
			"doubleSided":true,
			"name":"DS_IWALDECO04",
			"pbrMetallicRoughness":{
				"baseColorFactor":[
					0.800000011920929,
					0.800000011920929,
					0.800000011920929,
					1
				],
				"metallicFactor":0,
				"roughnessFactor":0.5
			}
		},
		{
			"doubleSided":true,
			"name":"DS_EWALL06",
			"pbrMetallicRoughness":{
				"baseColorFactor":[
					0.800000011920929,
					0.800000011920929,
					0.800000011920929,
					1
				],
				"metallicFactor":0,
				"roughnessFactor":0.5
			}
		},
		{
			"doubleSided":true,
			"name":"INF_LIGHT011",
			"pbrMetallicRoughness":{
				"baseColorFactor":[
					0.800000011920929,
					0.800000011920929,
					0.800000011920929,
					1
				],
				"metallicFactor":0,
				"roughnessFactor":0.5
			}
		},
		{
			"doubleSided":true,
			"name":"DS_EWALL07",
			"pbrMetallicRoughness":{
				"baseColorFactor":[
					0.800000011920929,
					0.800000011920929,
					0.800000011920929,
					1
				],
				"metallicFactor":0,
				"roughnessFactor":0.5
			}
		},
		{
			"doubleSided":true,
			"name":"DS_IWALDECO02",
			"pbrMetallicRoughness":{
				"baseColorFactor":[
					0.800000011920929,
					0.800000011920929,
					0.800000011920929,
					1
				],
				"metallicFactor":0,
				"roughnessFactor":0.5
			}
		},
		{
			"doubleSided":true,
			"name":"DS_ETECHBRDR2",
			"pbrMetallicRoughness":{
				"baseColorFactor":[
					0.800000011920929,
					0.800000011920929,
					0.800000011920929,
					1
				],
				"metallicFactor":0,
				"roughnessFactor":0.5
			}
		},
		{
			"doubleSided":true,
			"name":"INF_LIGHT09",
			"pbrMetallicRoughness":{
				"baseColorFactor":[
					0.800000011920929,
					0.800000011920929,
					0.800000011920929,
					1
				],
				"metallicFactor":0,
				"roughnessFactor":0.5
			}
		},
		{
			"doubleSided":true,
			"name":"DS_EWALL05",
			"pbrMetallicRoughness":{
				"baseColorFactor":[
					0.800000011920929,
					0.800000011920929,
					0.800000011920929,
					1
				],
				"metallicFactor":0,
				"roughnessFactor":0.5
			}
		},
		{
			"doubleSided":true,
			"name":"DS_IWALDECO03A",
			"pbrMetallicRoughness":{
				"baseColorFactor":[
					0.800000011920929,
					0.800000011920929,
					0.800000011920929,
					1
				],
				"metallicFactor":0,
				"roughnessFactor":0.5
			}
		},
		{
			"doubleSided":true,
			"name":"DS_IWALDECO04A",
			"pbrMetallicRoughness":{
				"baseColorFactor":[
					0.800000011920929,
					0.800000011920929,
					0.800000011920929,
					1
				],
				"metallicFactor":0,
				"roughnessFactor":0.5
			}
		},
		{
			"doubleSided":true,
			"name":"BE_ICEI01A",
			"pbrMetallicRoughness":{
				"baseColorFactor":[
					0.800000011920929,
					0.800000011920929,
					0.800000011920929,
					1
				],
				"metallicFactor":0,
				"roughnessFactor":0.5
			}
		},
		{
			"doubleSided":true,
			"name":"DS_IFLO04",
			"pbrMetallicRoughness":{
				"baseColorFactor":[
					0.800000011920929,
					0.800000011920929,
					0.800000011920929,
					1
				],
				"metallicFactor":0,
				"roughnessFactor":0.5
			}
		},
		{
			"doubleSided":true,
			"name":"DS_MRIVETED2",
			"pbrMetallicRoughness":{
				"baseColorFactor":[
					0.800000011920929,
					0.800000011920929,
					0.800000011920929,
					1
				],
				"metallicFactor":0,
				"roughnessFactor":0.5
			}
		},
		{
			"doubleSided":true,
			"name":"DS_IBOR04",
			"pbrMetallicRoughness":{
				"baseColorFactor":[
					0.800000011920929,
					0.800000011920929,
					0.800000011920929,
					1
				],
				"metallicFactor":0,
				"roughnessFactor":0.5
			}
		},
		{
			"doubleSided":true,
			"name":"DS_IHACEILIG01",
			"pbrMetallicRoughness":{
				"baseColorFactor":[
					0.800000011920929,
					0.800000011920929,
					0.800000011920929,
					1
				],
				"metallicFactor":0,
				"roughnessFactor":0.5
			}
		}
	],
	"meshes":[
		{
			"name":"Mesh",
			"primitives":[
				{
					"attributes":{
						"POSITION":0,
						"NORMAL":1,
						"TEXCOORD_0":2
					},
					"indices":3,
					"material":0
				},
				{
					"attributes":{
						"POSITION":4,
						"NORMAL":5,
						"TEXCOORD_0":6
					},
					"indices":7,
					"material":1
				},
				{
					"attributes":{
						"POSITION":8,
						"NORMAL":9,
						"TEXCOORD_0":10
					},
					"indices":11,
					"material":2
				},
				{
					"attributes":{
						"POSITION":12,
						"NORMAL":13,
						"TEXCOORD_0":14
					},
					"indices":15,
					"material":3
				},
				{
					"attributes":{
						"POSITION":16,
						"NORMAL":17,
						"TEXCOORD_0":18
					},
					"indices":19,
					"material":4
				},
				{
					"attributes":{
						"POSITION":20,
						"NORMAL":21,
						"TEXCOORD_0":22
					},
					"indices":23,
					"material":5
				},
				{
					"attributes":{
						"POSITION":24,
						"NORMAL":25,
						"TEXCOORD_0":26
					},
					"indices":27,
					"material":6
				},
				{
					"attributes":{
						"POSITION":28,
						"NORMAL":29,
						"TEXCOORD_0":30
					},
					"indices":31,
					"material":7
				},
				{
					"attributes":{
						"POSITION":32,
						"NORMAL":33,
						"TEXCOORD_0":34
					},
					"indices":35,
					"material":8
				},
				{
					"attributes":{
						"POSITION":36,
						"NORMAL":37,
						"TEXCOORD_0":38
					},
					"indices":39,
					"material":9
				},
				{
					"attributes":{
						"POSITION":40,
						"NORMAL":41,
						"TEXCOORD_0":42
					},
					"indices":43,
					"material":10
				},
				{
					"attributes":{
						"POSITION":44,
						"NORMAL":45,
						"TEXCOORD_0":46
					},
					"indices":47,
					"material":11
				},
				{
					"attributes":{
						"POSITION":48,
						"NORMAL":49,
						"TEXCOORD_0":50
					},
					"indices":51,
					"material":12
				},
				{
					"attributes":{
						"POSITION":52,
						"NORMAL":53,
						"TEXCOORD_0":54
					},
					"indices":55,
					"material":13
				},
				{
					"attributes":{
						"POSITION":56,
						"NORMAL":57,
						"TEXCOORD_0":58
					},
					"indices":59,
					"material":14
				},
				{
					"attributes":{
						"POSITION":60,
						"NORMAL":61,
						"TEXCOORD_0":62
					},
					"indices":63,
					"material":15
				},
				{
					"attributes":{
						"POSITION":64,
						"NORMAL":65,
						"TEXCOORD_0":66
					},
					"indices":67,
					"material":16
				},
				{
					"attributes":{
						"POSITION":68,
						"NORMAL":69,
						"TEXCOORD_0":70
					},
					"indices":71,
					"material":17
				},
				{
					"attributes":{
						"POSITION":72,
						"NORMAL":73,
						"TEXCOORD_0":74
					},
					"indices":75,
					"material":18
				},
				{
					"attributes":{
						"POSITION":76,
						"NORMAL":77,
						"TEXCOORD_0":78
					},
					"indices":79,
					"material":19
				}
			]
		}
	],
	"accessors":[
		{
			"bufferView":0,
			"componentType":5126,
			"count":92,
			"max":[
				36,
				-7.25,
				36
			],
			"min":[
				-4,
				-35.5,
				-4
			],
			"type":"VEC3"
		},
		{
			"bufferView":1,
			"componentType":5126,
			"count":92,
			"type":"VEC3"
		},
		{
			"bufferView":2,
			"componentType":5126,
			"count":92,
			"type":"VEC2"
		},
		{
			"bufferView":3,
			"componentType":5123,
			"count":252,
			"type":"SCALAR"
		},
		{
			"bufferView":4,
			"componentType":5126,
			"count":80,
			"max":[
				28,
				-7.25,
				28
			],
			"min":[
				4,
				-24.25,
				4
			],
			"type":"VEC3"
		},
		{
			"bufferView":5,
			"componentType":5126,
			"count":80,
			"type":"VEC3"
		},
		{
			"bufferView":6,
			"componentType":5126,
			"count":80,
			"type":"VEC2"
		},
		{
			"bufferView":7,
			"componentType":5123,
			"count":144,
			"type":"SCALAR"
		},
		{
			"bufferView":8,
			"componentType":5126,
			"count":130,
			"max":[
				36,
				-11.5,
				56
			],
			"min":[
				-24,
				-36,
				-4
			],
			"type":"VEC3"
		},
		{
			"bufferView":9,
			"componentType":5126,
			"count":130,
			"type":"VEC3"
		},
		{
			"bufferView":10,
			"componentType":5126,
			"count":130,
			"type":"VEC2"
		},
		{
			"bufferView":11,
			"componentType":5123,
			"count":381,
			"type":"SCALAR"
		},
		{
			"bufferView":12,
			"componentType":5126,
			"count":56,
			"max":[
				76,
				-22,
				76
			],
			"min":[
				-44,
				-35.5,
				-44
			],
			"type":"VEC3"
		},
		{
			"bufferView":13,
			"componentType":5126,
			"count":56,
			"type":"VEC3"
		},
		{
			"bufferView":14,
			"componentType":5126,
			"count":56,
			"type":"VEC2"
		},
		{
			"bufferView":15,
			"componentType":5123,
			"count":96,
			"type":"SCALAR"
		},
		{
			"bufferView":16,
			"componentType":5126,
			"count":592,
			"max":[
				76,
				-10,
				76
			],
			"min":[
				-44,
				-35,
				-44
			],
			"type":"VEC3"
		},
		{
			"bufferView":17,
			"componentType":5126,
			"count":592,
			"type":"VEC3"
		},
		{
			"bufferView":18,
			"componentType":5126,
			"count":592,
			"type":"VEC2"
		},
		{
			"bufferView":19,
			"componentType":5123,
			"count":948,
			"type":"SCALAR"
		},
		{
			"bufferView":20,
			"componentType":5126,
			"count":728,
			"max":[
				76,
				-12,
				76
			],
			"min":[
				-44,
				-36,
				-44
			],
			"type":"VEC3"
		},
		{
			"bufferView":21,
			"componentType":5126,
			"count":728,
			"type":"VEC3"
		},
		{
			"bufferView":22,
			"componentType":5126,
			"count":728,
			"type":"VEC2"
		},
		{
			"bufferView":23,
			"componentType":5123,
			"count":1176,
			"type":"SCALAR"
		},
		{
			"bufferView":24,
			"componentType":5126,
			"count":1269,
			"max":[
				76,
				-7.25,
				76
			],
			"min":[
				-44,
				-48,
				-44
			],
			"type":"VEC3"
		},
		{
			"bufferView":25,
			"componentType":5126,
			"count":1269,
			"type":"VEC3"
		},
		{
			"bufferView":26,
			"componentType":5126,
			"count":1269,
			"type":"VEC2"
		},
		{
			"bufferView":27,
			"componentType":5123,
			"count":2634,
			"type":"SCALAR"
		},
		{
			"bufferView":28,
			"componentType":5126,
			"count":543,
			"max":[
				76,
				-11.5,
				76
			],
			"min":[
				-44,
				-36,
				-44
			],
			"type":"VEC3"
		},
		{
			"bufferView":29,
			"componentType":5126,
			"count":543,
			"type":"VEC3"
		},
		{
			"bufferView":30,
			"componentType":5126,
			"count":543,
			"type":"VEC2"
		},
		{
			"bufferView":31,
			"componentType":5123,
			"count":981,
			"type":"SCALAR"
		},
		{
			"bufferView":32,
			"componentType":5126,
			"count":372,
			"max":[
				76,
				-22,
				76
			],
			"min":[
				-44,
				-36,
				-44
			],
			"type":"VEC3"
		},
		{
			"bufferView":33,
			"componentType":5126,
			"count":372,
			"type":"VEC3"
		},
		{
			"bufferView":34,
			"componentType":5126,
			"count":372,
			"type":"VEC2"
		},
		{
			"bufferView":35,
			"componentType":5123,
			"count":816,
			"type":"SCALAR"
		},
		{
			"bufferView":36,
			"componentType":5126,
			"count":89,
			"max":[
				32,
				-12,
				32
			],
			"min":[
				0,
				-35.5,
				0
			],
			"type":"VEC3"
		},
		{
			"bufferView":37,
			"componentType":5126,
			"count":89,
			"type":"VEC3"
		},
		{
			"bufferView":38,
			"componentType":5126,
			"count":89,
			"type":"VEC2"
		},
		{
			"bufferView":39,
			"componentType":5123,
			"count":147,
			"type":"SCALAR"
		},
		{
			"bufferView":40,
			"componentType":5126,
			"count":19,
			"max":[
				28,
				-22.75,
				28
			],
			"min":[
				4,
				-25.25,
				4
			],
			"type":"VEC3"
		},
		{
			"bufferView":41,
			"componentType":5126,
			"count":19,
			"type":"VEC3"
		},
		{
			"bufferView":42,
			"componentType":5126,
			"count":19,
			"type":"VEC2"
		},
		{
			"bufferView":43,
			"componentType":5123,
			"count":33,
			"type":"SCALAR"
		},
		{
			"bufferView":44,
			"componentType":5126,
			"count":16,
			"max":[
				28,
				-22.75,
				28
			],
			"min":[
				4,
				-35.5,
				4
			],
			"type":"VEC3"
		},
		{
			"bufferView":45,
			"componentType":5126,
			"count":16,
			"type":"VEC3"
		},
		{
			"bufferView":46,
			"componentType":5126,
			"count":16,
			"type":"VEC2"
		},
		{
			"bufferView":47,
			"componentType":5123,
			"count":24,
			"type":"SCALAR"
		},
		{
			"bufferView":48,
			"componentType":5126,
			"count":128,
			"max":[
				56,
				-36,
				56
			],
			"min":[
				-24,
				-48,
				-24
			],
			"type":"VEC3"
		},
		{
			"bufferView":49,
			"componentType":5126,
			"count":128,
			"type":"VEC3"
		},
		{
			"bufferView":50,
			"componentType":5126,
			"count":128,
			"type":"VEC2"
		},
		{
			"bufferView":51,
			"componentType":5123,
			"count":264,
			"type":"SCALAR"
		},
		{
			"bufferView":52,
			"componentType":5126,
			"count":72,
			"max":[
				28,
				-22.75,
				28
			],
			"min":[
				4,
				-35.5,
				4
			],
			"type":"VEC3"
		},
		{
			"bufferView":53,
			"componentType":5126,
			"count":72,
			"type":"VEC3"
		},
		{
			"bufferView":54,
			"componentType":5126,
			"count":72,
			"type":"VEC2"
		},
		{
			"bufferView":55,
			"componentType":5123,
			"count":168,
			"type":"SCALAR"
		},
		{
			"bufferView":56,
			"componentType":5126,
			"count":48,
			"max":[
				34,
				-12,
				34
			],
			"min":[
				-2,
				-48,
				-2
			],
			"type":"VEC3"
		},
		{
			"bufferView":57,
			"componentType":5126,
			"count":48,
			"type":"VEC3"
		},
		{
			"bufferView":58,
			"componentType":5126,
			"count":48,
			"type":"VEC2"
		},
		{
			"bufferView":59,
			"componentType":5123,
			"count":96,
			"type":"SCALAR"
		},
		{
			"bufferView":60,
			"componentType":5126,
			"count":12,
			"max":[
				19.25,
				-7.75,
				19.25
			],
			"min":[
				12.75,
				-23.75,
				12.75
			],
			"type":"VEC3"
		},
		{
			"bufferView":61,
			"componentType":5126,
			"count":12,
			"type":"VEC3"
		},
		{
			"bufferView":62,
			"componentType":5126,
			"count":12,
			"type":"VEC2"
		},
		{
			"bufferView":63,
			"componentType":5123,
			"count":18,
			"type":"SCALAR"
		},
		{
			"bufferView":64,
			"componentType":5126,
			"count":16,
			"max":[
				28,
				-7.25,
				28
			],
			"min":[
				4,
				-7.25,
				4
			],
			"type":"VEC3"
		},
		{
			"bufferView":65,
			"componentType":5126,
			"count":16,
			"type":"VEC3"
		},
		{
			"bufferView":66,
			"componentType":5126,
			"count":16,
			"type":"VEC2"
		},
		{
			"bufferView":67,
			"componentType":5123,
			"count":48,
			"type":"SCALAR"
		},
		{
			"bufferView":68,
			"componentType":5126,
			"count":112,
			"max":[
				65,
				-34.5,
				65
			],
			"min":[
				-33,
				-48,
				-33
			],
			"type":"VEC3"
		},
		{
			"bufferView":69,
			"componentType":5126,
			"count":112,
			"type":"VEC3"
		},
		{
			"bufferView":70,
			"componentType":5126,
			"count":112,
			"type":"VEC2"
		},
		{
			"bufferView":71,
			"componentType":5123,
			"count":192,
			"type":"SCALAR"
		},
		{
			"bufferView":72,
			"componentType":5126,
			"count":128,
			"max":[
				66,
				-36,
				66
			],
			"min":[
				-34,
				-48,
				-34
			],
			"type":"VEC3"
		},
		{
			"bufferView":73,
			"componentType":5126,
			"count":128,
			"type":"VEC3"
		},
		{
			"bufferView":74,
			"componentType":5126,
			"count":128,
			"type":"VEC2"
		},
		{
			"bufferView":75,
			"componentType":5123,
			"count":240,
			"type":"SCALAR"
		},
		{
			"bufferView":76,
			"componentType":5126,
			"count":32,
			"max":[
				45.125,
				-27.75,
				45.125
			],
			"min":[
				-13.125,
				-29.75,
				-13.125
			],
			"type":"VEC3"
		},
		{
			"bufferView":77,
			"componentType":5126,
			"count":32,
			"type":"VEC3"
		},
		{
			"bufferView":78,
			"componentType":5126,
			"count":32,
			"type":"VEC2"
		},
		{
			"bufferView":79,
			"componentType":5123,
			"count":48,
			"type":"SCALAR"
		}
	],
	"bufferViews":[
		{
			"buffer":0,
			"byteLength":1104,
			"byteOffset":0,
			"target":34962
		},
		{
			"buffer":0,
			"byteLength":1104,
			"byteOffset":1104,
			"target":34962
		},
		{
			"buffer":0,
			"byteLength":736,
			"byteOffset":2208,
			"target":34962
		},
		{
			"buffer":0,
			"byteLength":504,
			"byteOffset":2944,
			"target":34963
		},
		{
			"buffer":0,
			"byteLength":960,
			"byteOffset":3448,
			"target":34962
		},
		{
			"buffer":0,
			"byteLength":960,
			"byteOffset":4408,
			"target":34962
		},
		{
			"buffer":0,
			"byteLength":640,
			"byteOffset":5368,
			"target":34962
		},
		{
			"buffer":0,
			"byteLength":288,
			"byteOffset":6008,
			"target":34963
		},
		{
			"buffer":0,
			"byteLength":1560,
			"byteOffset":6296,
			"target":34962
		},
		{
			"buffer":0,
			"byteLength":1560,
			"byteOffset":7856,
			"target":34962
		},
		{
			"buffer":0,
			"byteLength":1040,
			"byteOffset":9416,
			"target":34962
		},
		{
			"buffer":0,
			"byteLength":762,
			"byteOffset":10456,
			"target":34963
		},
		{
			"buffer":0,
			"byteLength":672,
			"byteOffset":11220,
			"target":34962
		},
		{
			"buffer":0,
			"byteLength":672,
			"byteOffset":11892,
			"target":34962
		},
		{
			"buffer":0,
			"byteLength":448,
			"byteOffset":12564,
			"target":34962
		},
		{
			"buffer":0,
			"byteLength":192,
			"byteOffset":13012,
			"target":34963
		},
		{
			"buffer":0,
			"byteLength":7104,
			"byteOffset":13204,
			"target":34962
		},
		{
			"buffer":0,
			"byteLength":7104,
			"byteOffset":20308,
			"target":34962
		},
		{
			"buffer":0,
			"byteLength":4736,
			"byteOffset":27412,
			"target":34962
		},
		{
			"buffer":0,
			"byteLength":1896,
			"byteOffset":32148,
			"target":34963
		},
		{
			"buffer":0,
			"byteLength":8736,
			"byteOffset":34044,
			"target":34962
		},
		{
			"buffer":0,
			"byteLength":8736,
			"byteOffset":42780,
			"target":34962
		},
		{
			"buffer":0,
			"byteLength":5824,
			"byteOffset":51516,
			"target":34962
		},
		{
			"buffer":0,
			"byteLength":2352,
			"byteOffset":57340,
			"target":34963
		},
		{
			"buffer":0,
			"byteLength":15228,
			"byteOffset":59692,
			"target":34962
		},
		{
			"buffer":0,
			"byteLength":15228,
			"byteOffset":74920,
			"target":34962
		},
		{
			"buffer":0,
			"byteLength":10152,
			"byteOffset":90148,
			"target":34962
		},
		{
			"buffer":0,
			"byteLength":5268,
			"byteOffset":100300,
			"target":34963
		},
		{
			"buffer":0,
			"byteLength":6516,
			"byteOffset":105568,
			"target":34962
		},
		{
			"buffer":0,
			"byteLength":6516,
			"byteOffset":112084,
			"target":34962
		},
		{
			"buffer":0,
			"byteLength":4344,
			"byteOffset":118600,
			"target":34962
		},
		{
			"buffer":0,
			"byteLength":1962,
			"byteOffset":122944,
			"target":34963
		},
		{
			"buffer":0,
			"byteLength":4464,
			"byteOffset":124908,
			"target":34962
		},
		{
			"buffer":0,
			"byteLength":4464,
			"byteOffset":129372,
			"target":34962
		},
		{
			"buffer":0,
			"byteLength":2976,
			"byteOffset":133836,
			"target":34962
		},
		{
			"buffer":0,
			"byteLength":1632,
			"byteOffset":136812,
			"target":34963
		},
		{
			"buffer":0,
			"byteLength":1068,
			"byteOffset":138444,
			"target":34962
		},
		{
			"buffer":0,
			"byteLength":1068,
			"byteOffset":139512,
			"target":34962
		},
		{
			"buffer":0,
			"byteLength":712,
			"byteOffset":140580,
			"target":34962
		},
		{
			"buffer":0,
			"byteLength":294,
			"byteOffset":141292,
			"target":34963
		},
		{
			"buffer":0,
			"byteLength":228,
			"byteOffset":141588,
			"target":34962
		},
		{
			"buffer":0,
			"byteLength":228,
			"byteOffset":141816,
			"target":34962
		},
		{
			"buffer":0,
			"byteLength":152,
			"byteOffset":142044,
			"target":34962
		},
		{
			"buffer":0,
			"byteLength":66,
			"byteOffset":142196,
			"target":34963
		},
		{
			"buffer":0,
			"byteLength":192,
			"byteOffset":142264,
			"target":34962
		},
		{
			"buffer":0,
			"byteLength":192,
			"byteOffset":142456,
			"target":34962
		},
		{
			"buffer":0,
			"byteLength":128,
			"byteOffset":142648,
			"target":34962
		},
		{
			"buffer":0,
			"byteLength":48,
			"byteOffset":142776,
			"target":34963
		},
		{
			"buffer":0,
			"byteLength":1536,
			"byteOffset":142824,
			"target":34962
		},
		{
			"buffer":0,
			"byteLength":1536,
			"byteOffset":144360,
			"target":34962
		},
		{
			"buffer":0,
			"byteLength":1024,
			"byteOffset":145896,
			"target":34962
		},
		{
			"buffer":0,
			"byteLength":528,
			"byteOffset":146920,
			"target":34963
		},
		{
			"buffer":0,
			"byteLength":864,
			"byteOffset":147448,
			"target":34962
		},
		{
			"buffer":0,
			"byteLength":864,
			"byteOffset":148312,
			"target":34962
		},
		{
			"buffer":0,
			"byteLength":576,
			"byteOffset":149176,
			"target":34962
		},
		{
			"buffer":0,
			"byteLength":336,
			"byteOffset":149752,
			"target":34963
		},
		{
			"buffer":0,
			"byteLength":576,
			"byteOffset":150088,
			"target":34962
		},
		{
			"buffer":0,
			"byteLength":576,
			"byteOffset":150664,
			"target":34962
		},
		{
			"buffer":0,
			"byteLength":384,
			"byteOffset":151240,
			"target":34962
		},
		{
			"buffer":0,
			"byteLength":192,
			"byteOffset":151624,
			"target":34963
		},
		{
			"buffer":0,
			"byteLength":144,
			"byteOffset":151816,
			"target":34962
		},
		{
			"buffer":0,
			"byteLength":144,
			"byteOffset":151960,
			"target":34962
		},
		{
			"buffer":0,
			"byteLength":96,
			"byteOffset":152104,
			"target":34962
		},
		{
			"buffer":0,
			"byteLength":36,
			"byteOffset":152200,
			"target":34963
		},
		{
			"buffer":0,
			"byteLength":192,
			"byteOffset":152236,
			"target":34962
		},
		{
			"buffer":0,
			"byteLength":192,
			"byteOffset":152428,
			"target":34962
		},
		{
			"buffer":0,
			"byteLength":128,
			"byteOffset":152620,
			"target":34962
		},
		{
			"buffer":0,
			"byteLength":96,
			"byteOffset":152748,
			"target":34963
		},
		{
			"buffer":0,
			"byteLength":1344,
			"byteOffset":152844,
			"target":34962
		},
		{
			"buffer":0,
			"byteLength":1344,
			"byteOffset":154188,
			"target":34962
		},
		{
			"buffer":0,
			"byteLength":896,
			"byteOffset":155532,
			"target":34962
		},
		{
			"buffer":0,
			"byteLength":384,
			"byteOffset":156428,
			"target":34963
		},
		{
			"buffer":0,
			"byteLength":1536,
			"byteOffset":156812,
			"target":34962
		},
		{
			"buffer":0,
			"byteLength":1536,
			"byteOffset":158348,
			"target":34962
		},
		{
			"buffer":0,
			"byteLength":1024,
			"byteOffset":159884,
			"target":34962
		},
		{
			"buffer":0,
			"byteLength":480,
			"byteOffset":160908,
			"target":34963
		},
		{
			"buffer":0,
			"byteLength":384,
			"byteOffset":161388,
			"target":34962
		},
		{
			"buffer":0,
			"byteLength":384,
			"byteOffset":161772,
			"target":34962
		},
		{
			"buffer":0,
			"byteLength":256,
			"byteOffset":162156,
			"target":34962
		},
		{
			"buffer":0,
			"byteLength":96,
			"byteOffset":162412,
			"target":34963
		}
	],
	"buffers":[
		{
			"byteLength":162508,
			"uri":"inf_butch_lava_flagbase06.bin"
		}
	]
}
