{
	"asset":{
		"generator":"Khronos glTF Blender I/O v4.5.48",
		"version":"2.0"
	},
	"scene":0,
	"scenes":[
		{
			"name":"Scene",
			"nodes":[
				0
			]
		}
	],
	"nodes":[
		{
			"mesh":0,
			"name":"Object"
		}
	],
	"materials":[
		{
			"doubleSided":true,
			"name":"DS_GENWALL",
			"pbrMetallicRoughness":{
				"baseColorFactor":[
					0.800000011920929,
					0.800000011920929,
					0.800000011920929,
					1
				],
				"metallicFactor":0,
				"roughnessFactor":0.5
			}
		},
		{
			"doubleSided":true,
			"name":"DS_EWALL06",
			"pbrMetallicRoughness":{
				"baseColorFactor":[
					0.800000011920929,
					0.800000011920929,
					0.800000011920929,
					1
				],
				"metallicFactor":0,
				"roughnessFactor":0.5
			}
		},
		{
			"doubleSided":true,
			"name":"DS_IWALDECO05",
			"pbrMetallicRoughness":{
				"baseColorFactor":[
					0.800000011920929,
					0.800000011920929,
					0.800000011920929,
					1
				],
				"metallicFactor":0,
				"roughnessFactor":0.5
			}
		},
		{
			"doubleSided":true,
			"name":"DS_IFLO04",
			"pbrMetallicRoughness":{
				"baseColorFactor":[
					0.800000011920929,
					0.800000011920929,
					0.800000011920929,
					1
				],
				"metallicFactor":0,
				"roughnessFactor":0.5
			}
		},
		{
			"doubleSided":true,
			"name":"INF_LIGHT011",
			"pbrMetallicRoughness":{
				"baseColorFactor":[
					0.800000011920929,
					0.800000011920929,
					0.800000011920929,
					1
				],
				"metallicFactor":0,
				"roughnessFactor":0.5
			}
		},
		{
			"doubleSided":true,
			"name":"DS_EWALL07",
			"pbrMetallicRoughness":{
				"baseColorFactor":[
					0.800000011920929,
					0.800000011920929,
					0.800000011920929,
					1
				],
				"metallicFactor":0,
				"roughnessFactor":0.5
			}
		},
		{
			"doubleSided":true,
			"name":"INF_LIGHT09",
			"pbrMetallicRoughness":{
				"baseColorFactor":[
					0.800000011920929,
					0.800000011920929,
					0.800000011920929,
					1
				],
				"metallicFactor":0,
				"roughnessFactor":0.5
			}
		},
		{
			"doubleSided":true,
			"name":"DS_EWALL05",
			"pbrMetallicRoughness":{
				"baseColorFactor":[
					0.800000011920929,
					0.800000011920929,
					0.800000011920929,
					1
				],
				"metallicFactor":0,
				"roughnessFactor":0.5
			}
		},
		{
			"doubleSided":true,
			"name":"DS_IWALDECO04",
			"pbrMetallicRoughness":{
				"baseColorFactor":[
					0.800000011920929,
					0.800000011920929,
					0.800000011920929,
					1
				],
				"metallicFactor":0,
				"roughnessFactor":0.5
			}
		},
		{
			"doubleSided":true,
			"name":"DS_ILIG06",
			"pbrMetallicRoughness":{
				"baseColorFactor":[
					0.800000011920929,
					0.800000011920929,
					0.800000011920929,
					1
				],
				"metallicFactor":0,
				"roughnessFactor":0.5
			}
		}
	],
	"meshes":[
		{
			"name":"Mesh",
			"primitives":[
				{
					"attributes":{
						"POSITION":0,
						"NORMAL":1,
						"TEXCOORD_0":2
					},
					"indices":3,
					"material":0
				},
				{
					"attributes":{
						"POSITION":4,
						"NORMAL":5,
						"TEXCOORD_0":6
					},
					"indices":7,
					"material":1
				},
				{
					"attributes":{
						"POSITION":8,
						"NORMAL":9,
						"TEXCOORD_0":10
					},
					"indices":11,
					"material":2
				},
				{
					"attributes":{
						"POSITION":12,
						"NORMAL":13,
						"TEXCOORD_0":14
					},
					"indices":15,
					"material":3
				},
				{
					"attributes":{
						"POSITION":16,
						"NORMAL":17,
						"TEXCOORD_0":18
					},
					"indices":19,
					"material":4
				},
				{
					"attributes":{
						"POSITION":20,
						"NORMAL":21,
						"TEXCOORD_0":22
					},
					"indices":23,
					"material":5
				},
				{
					"attributes":{
						"POSITION":24,
						"NORMAL":25,
						"TEXCOORD_0":26
					},
					"indices":27,
					"material":6
				},
				{
					"attributes":{
						"POSITION":28,
						"NORMAL":29,
						"TEXCOORD_0":30
					},
					"indices":31,
					"material":7
				},
				{
					"attributes":{
						"POSITION":32,
						"NORMAL":33,
						"TEXCOORD_0":34
					},
					"indices":35,
					"material":8
				},
				{
					"attributes":{
						"POSITION":36,
						"NORMAL":37,
						"TEXCOORD_0":38
					},
					"indices":39,
					"material":9
				}
			]
		}
	],
	"accessors":[
		{
			"bufferView":0,
			"componentType":5126,
			"count":112,
			"max":[
				17.25,
				-8,
				17.25
			],
			"min":[
				8,
				-10,
				8
			],
			"type":"VEC3"
		},
		{
			"bufferView":1,
			"componentType":5126,
			"count":112,
			"type":"VEC3"
		},
		{
			"bufferView":2,
			"componentType":5126,
			"count":112,
			"type":"VEC2"
		},
		{
			"bufferView":3,
			"componentType":5123,
			"count":216,
			"type":"SCALAR"
		},
		{
			"bufferView":4,
			"componentType":5126,
			"count":217,
			"max":[
				16.625,
				-8,
				16.625
			],
			"min":[
				8.625,
				-18,
				8.625
			],
			"type":"VEC3"
		},
		{
			"bufferView":5,
			"componentType":5126,
			"count":217,
			"type":"VEC3"
		},
		{
			"bufferView":6,
			"componentType":5126,
			"count":217,
			"type":"VEC2"
		},
		{
			"bufferView":7,
			"componentType":5123,
			"count":462,
			"type":"SCALAR"
		},
		{
			"bufferView":8,
			"componentType":5126,
			"count":80,
			"max":[
				16.375,
				-8,
				16.375
			],
			"min":[
				8.875,
				-8.25,
				8.875
			],
			"type":"VEC3"
		},
		{
			"bufferView":9,
			"componentType":5126,
			"count":80,
			"type":"VEC3"
		},
		{
			"bufferView":10,
			"componentType":5126,
			"count":80,
			"type":"VEC2"
		},
		{
			"bufferView":11,
			"componentType":5123,
			"count":120,
			"type":"SCALAR"
		},
		{
			"bufferView":12,
			"componentType":5126,
			"count":24,
			"max":[
				16.375,
				-8.25,
				16.375
			],
			"min":[
				8.875,
				-8.25,
				8.875
			],
			"type":"VEC3"
		},
		{
			"bufferView":13,
			"componentType":5126,
			"count":24,
			"type":"VEC3"
		},
		{
			"bufferView":14,
			"componentType":5126,
			"count":24,
			"type":"VEC2"
		},
		{
			"bufferView":15,
			"componentType":5123,
			"count":78,
			"type":"SCALAR"
		},
		{
			"bufferView":16,
			"componentType":5126,
			"count":16,
			"max":[
				16,
				-10,
				16
			],
			"min":[
				9.25,
				-11,
				9.25
			],
			"type":"VEC3"
		},
		{
			"bufferView":17,
			"componentType":5126,
			"count":16,
			"type":"VEC3"
		},
		{
			"bufferView":18,
			"componentType":5126,
			"count":16,
			"type":"VEC2"
		},
		{
			"bufferView":19,
			"componentType":5123,
			"count":24,
			"type":"SCALAR"
		},
		{
			"bufferView":20,
			"componentType":5126,
			"count":128,
			"max":[
				16.375,
				-11,
				16.375
			],
			"min":[
				8.875,
				-18,
				8.875
			],
			"type":"VEC3"
		},
		{
			"bufferView":21,
			"componentType":5126,
			"count":128,
			"type":"VEC3"
		},
		{
			"bufferView":22,
			"componentType":5126,
			"count":128,
			"type":"VEC2"
		},
		{
			"bufferView":23,
			"componentType":5123,
			"count":264,
			"type":"SCALAR"
		},
		{
			"bufferView":24,
			"componentType":5126,
			"count":40,
			"max":[
				16.625,
				-8,
				16.625
			],
			"min":[
				8.625,
				-8.5,
				8.625
			],
			"type":"VEC3"
		},
		{
			"bufferView":25,
			"componentType":5126,
			"count":40,
			"type":"VEC3"
		},
		{
			"bufferView":26,
			"componentType":5126,
			"count":40,
			"type":"VEC2"
		},
		{
			"bufferView":27,
			"componentType":5123,
			"count":72,
			"type":"SCALAR"
		},
		{
			"bufferView":28,
			"componentType":5126,
			"count":48,
			"max":[
				15.625,
				-11.59375,
				15.625
			],
			"min":[
				9.625,
				-18,
				9.625
			],
			"type":"VEC3"
		},
		{
			"bufferView":29,
			"componentType":5126,
			"count":48,
			"type":"VEC3"
		},
		{
			"bufferView":30,
			"componentType":5126,
			"count":48,
			"type":"VEC2"
		},
		{
			"bufferView":31,
			"componentType":5123,
			"count":72,
			"type":"SCALAR"
		},
		{
			"bufferView":32,
			"componentType":5126,
			"count":32,
			"max":[
				15.625,
				-11.4453125,
				15.625
			],
			"min":[
				9.625,
				-18,
				9.625
			],
			"type":"VEC3"
		},
		{
			"bufferView":33,
			"componentType":5126,
			"count":32,
			"type":"VEC3"
		},
		{
			"bufferView":34,
			"componentType":5126,
			"count":32,
			"type":"VEC2"
		},
		{
			"bufferView":35,
			"componentType":5123,
			"count":48,
			"type":"SCALAR"
		},
		{
			"bufferView":36,
			"componentType":5126,
			"count":16,
			"max":[
				15.625,
				-11.4453125,
				15.625
			],
			"min":[
				9.625,
				-18,
				9.625
			],
			"type":"VEC3"
		},
		{
			"bufferView":37,
			"componentType":5126,
			"count":16,
			"type":"VEC3"
		},
		{
			"bufferView":38,
			"componentType":5126,
			"count":16,
			"type":"VEC2"
		},
		{
			"bufferView":39,
			"componentType":5123,
			"count":24,
			"type":"SCALAR"
		}
	],
	"bufferViews":[
		{
			"buffer":0,
			"byteLength":1344,
			"byteOffset":0,
			"target":34962
		},
		{
			"buffer":0,
			"byteLength":1344,
			"byteOffset":1344,
			"target":34962
		},
		{
			"buffer":0,
			"byteLength":896,
			"byteOffset":2688,
			"target":34962
		},
		{
			"buffer":0,
			"byteLength":432,
			"byteOffset":3584,
			"target":34963
		},
		{
			"buffer":0,
			"byteLength":2604,
			"byteOffset":4016,
			"target":34962
		},
		{
			"buffer":0,
			"byteLength":2604,
			"byteOffset":6620,
			"target":34962
		},
		{
			"buffer":0,
			"byteLength":1736,
			"byteOffset":9224,
			"target":34962
		},
		{
			"buffer":0,
			"byteLength":924,
			"byteOffset":10960,
			"target":34963
		},
		{
			"buffer":0,
			"byteLength":960,
			"byteOffset":11884,
			"target":34962
		},
		{
			"buffer":0,
			"byteLength":960,
			"byteOffset":12844,
			"target":34962
		},
		{
			"buffer":0,
			"byteLength":640,
			"byteOffset":13804,
			"target":34962
		},
		{
			"buffer":0,
			"byteLength":240,
			"byteOffset":14444,
			"target":34963
		},
		{
			"buffer":0,
			"byteLength":288,
			"byteOffset":14684,
			"target":34962
		},
		{
			"buffer":0,
			"byteLength":288,
			"byteOffset":14972,
			"target":34962
		},
		{
			"buffer":0,
			"byteLength":192,
			"byteOffset":15260,
			"target":34962
		},
		{
			"buffer":0,
			"byteLength":156,
			"byteOffset":15452,
			"target":34963
		},
		{
			"buffer":0,
			"byteLength":192,
			"byteOffset":15608,
			"target":34962
		},
		{
			"buffer":0,
			"byteLength":192,
			"byteOffset":15800,
			"target":34962
		},
		{
			"buffer":0,
			"byteLength":128,
			"byteOffset":15992,
			"target":34962
		},
		{
			"buffer":0,
			"byteLength":48,
			"byteOffset":16120,
			"target":34963
		},
		{
			"buffer":0,
			"byteLength":1536,
			"byteOffset":16168,
			"target":34962
		},
		{
			"buffer":0,
			"byteLength":1536,
			"byteOffset":17704,
			"target":34962
		},
		{
			"buffer":0,
			"byteLength":1024,
			"byteOffset":19240,
			"target":34962
		},
		{
			"buffer":0,
			"byteLength":528,
			"byteOffset":20264,
			"target":34963
		},
		{
			"buffer":0,
			"byteLength":480,
			"byteOffset":20792,
			"target":34962
		},
		{
			"buffer":0,
			"byteLength":480,
			"byteOffset":21272,
			"target":34962
		},
		{
			"buffer":0,
			"byteLength":320,
			"byteOffset":21752,
			"target":34962
		},
		{
			"buffer":0,
			"byteLength":144,
			"byteOffset":22072,
			"target":34963
		},
		{
			"buffer":0,
			"byteLength":576,
			"byteOffset":22216,
			"target":34962
		},
		{
			"buffer":0,
			"byteLength":576,
			"byteOffset":22792,
			"target":34962
		},
		{
			"buffer":0,
			"byteLength":384,
			"byteOffset":23368,
			"target":34962
		},
		{
			"buffer":0,
			"byteLength":144,
			"byteOffset":23752,
			"target":34963
		},
		{
			"buffer":0,
			"byteLength":384,
			"byteOffset":23896,
			"target":34962
		},
		{
			"buffer":0,
			"byteLength":384,
			"byteOffset":24280,
			"target":34962
		},
		{
			"buffer":0,
			"byteLength":256,
			"byteOffset":24664,
			"target":34962
		},
		{
			"buffer":0,
			"byteLength":96,
			"byteOffset":24920,
			"target":34963
		},
		{
			"buffer":0,
			"byteLength":192,
			"byteOffset":25016,
			"target":34962
		},
		{
			"buffer":0,
			"byteLength":192,
			"byteOffset":25208,
			"target":34962
		},
		{
			"buffer":0,
			"byteLength":128,
			"byteOffset":25400,
			"target":34962
		},
		{
			"buffer":0,
			"byteLength":48,
			"byteOffset":25528,
			"target":34963
		}
	],
	"buffers":[
		{
			"byteLength":25576,
			"uri":"inf_butch_lava_sensor12.bin"
		}
	]
}
