{
	"asset":{
		"generator":"Khronos glTF Blender I/O v4.5.48",
		"version":"2.0"
	},
	"scene":0,
	"scenes":[
		{
			"name":"Scene",
			"nodes":[
				0
			]
		}
	],
	"nodes":[
		{
			"mesh":0,
			"name":"Object"
		}
	],
	"materials":[
		{
			"doubleSided":true,
			"name":"DS_GENWALL",
			"pbrMetallicRoughness":{
				"baseColorFactor":[
					0.800000011920929,
					0.800000011920929,
					0.800000011920929,
					1
				],
				"metallicFactor":0,
				"roughnessFactor":0.5
			}
		},
		{
			"doubleSided":true,
			"name":"DS_EWALL06",
			"pbrMetallicRoughness":{
				"baseColorFactor":[
					0.800000011920929,
					0.800000011920929,
					0.800000011920929,
					1
				],
				"metallicFactor":0,
				"roughnessFactor":0.5
			}
		},
		{
			"doubleSided":true,
			"name":"DS_IWALDECO05",
			"pbrMetallicRoughness":{
				"baseColorFactor":[
					0.800000011920929,
					0.800000011920929,
					0.800000011920929,
					1
				],
				"metallicFactor":0,
				"roughnessFactor":0.5
			}
		},
		{
			"doubleSided":true,
			"name":"DS_IFLO04",
			"pbrMetallicRoughness":{
				"baseColorFactor":[
					0.800000011920929,
					0.800000011920929,
					0.800000011920929,
					1
				],
				"metallicFactor":0,
				"roughnessFactor":0.5
			}
		},
		{
			"doubleSided":true,
			"name":"INF_LIGHT011",
			"pbrMetallicRoughness":{
				"baseColorFactor":[
					0.800000011920929,
					0.800000011920929,
					0.800000011920929,
					1
				],
				"metallicFactor":0,
				"roughnessFactor":0.5
			}
		},
		{
			"doubleSided":true,
			"name":"DS_EWALL07",
			"pbrMetallicRoughness":{
				"baseColorFactor":[
					0.800000011920929,
					0.800000011920929,
					0.800000011920929,
					1
				],
				"metallicFactor":0,
				"roughnessFactor":0.5
			}
		},
		{
			"doubleSided":true,
			"name":"DS_ILIG02",
			"pbrMetallicRoughness":{
				"baseColorFactor":[
					0.800000011920929,
					0.800000011920929,
					0.800000011920929,
					1
				],
				"metallicFactor":0,
				"roughnessFactor":0.5
			}
		},
		{
			"doubleSided":true,
			"name":"DS_IWALDECO04A",
			"pbrMetallicRoughness":{
				"baseColorFactor":[
					0.800000011920929,
					0.800000011920929,
					0.800000011920929,
					1
				],
				"metallicFactor":0,
				"roughnessFactor":0.5
			}
		}
	],
	"meshes":[
		{
			"name":"Mesh",
			"primitives":[
				{
					"attributes":{
						"POSITION":0,
						"NORMAL":1,
						"TEXCOORD_0":2
					},
					"indices":3,
					"material":0
				},
				{
					"attributes":{
						"POSITION":4,
						"NORMAL":5,
						"TEXCOORD_0":6
					},
					"indices":7,
					"material":1
				},
				{
					"attributes":{
						"POSITION":8,
						"NORMAL":9,
						"TEXCOORD_0":10
					},
					"indices":11,
					"material":2
				},
				{
					"attributes":{
						"POSITION":12,
						"NORMAL":13,
						"TEXCOORD_0":14
					},
					"indices":15,
					"material":3
				},
				{
					"attributes":{
						"POSITION":16,
						"NORMAL":17,
						"TEXCOORD_0":18
					},
					"indices":19,
					"material":4
				},
				{
					"attributes":{
						"POSITION":20,
						"NORMAL":21,
						"TEXCOORD_0":22
					},
					"indices":23,
					"material":5
				},
				{
					"attributes":{
						"POSITION":24,
						"NORMAL":25,
						"TEXCOORD_0":26
					},
					"indices":27,
					"material":6
				},
				{
					"attributes":{
						"POSITION":28,
						"NORMAL":29,
						"TEXCOORD_0":30
					},
					"indices":31,
					"material":7
				}
			]
		}
	],
	"accessors":[
		{
			"bufferView":0,
			"componentType":5126,
			"count":66,
			"max":[
				17.25,
				-8,
				28
			],
			"min":[
				8,
				-10,
				8
			],
			"type":"VEC3"
		},
		{
			"bufferView":1,
			"componentType":5126,
			"count":66,
			"type":"VEC3"
		},
		{
			"bufferView":2,
			"componentType":5126,
			"count":66,
			"type":"VEC2"
		},
		{
			"bufferView":3,
			"componentType":5123,
			"count":186,
			"type":"SCALAR"
		},
		{
			"bufferView":4,
			"componentType":5126,
			"count":87,
			"max":[
				17.25,
				-8,
				28
			],
			"min":[
				8,
				-24,
				8
			],
			"type":"VEC3"
		},
		{
			"bufferView":5,
			"componentType":5126,
			"count":87,
			"type":"VEC3"
		},
		{
			"bufferView":6,
			"componentType":5126,
			"count":87,
			"type":"VEC2"
		},
		{
			"bufferView":7,
			"componentType":5123,
			"count":231,
			"type":"SCALAR"
		},
		{
			"bufferView":8,
			"componentType":5126,
			"count":60,
			"max":[
				16.375,
				-8,
				28
			],
			"min":[
				8.875,
				-8.25,
				8.875
			],
			"type":"VEC3"
		},
		{
			"bufferView":9,
			"componentType":5126,
			"count":60,
			"type":"VEC3"
		},
		{
			"bufferView":10,
			"componentType":5126,
			"count":60,
			"type":"VEC2"
		},
		{
			"bufferView":11,
			"componentType":5123,
			"count":90,
			"type":"SCALAR"
		},
		{
			"bufferView":12,
			"componentType":5126,
			"count":20,
			"max":[
				16.375,
				-8.25,
				28
			],
			"min":[
				8.875,
				-8.25,
				8.875
			],
			"type":"VEC3"
		},
		{
			"bufferView":13,
			"componentType":5126,
			"count":20,
			"type":"VEC3"
		},
		{
			"bufferView":14,
			"componentType":5126,
			"count":20,
			"type":"VEC2"
		},
		{
			"bufferView":15,
			"componentType":5123,
			"count":60,
			"type":"SCALAR"
		},
		{
			"bufferView":16,
			"componentType":5126,
			"count":14,
			"max":[
				16,
				-10,
				28
			],
			"min":[
				9.25,
				-11,
				9.25
			],
			"type":"VEC3"
		},
		{
			"bufferView":17,
			"componentType":5126,
			"count":14,
			"type":"VEC3"
		},
		{
			"bufferView":18,
			"componentType":5126,
			"count":14,
			"type":"VEC2"
		},
		{
			"bufferView":19,
			"componentType":5123,
			"count":24,
			"type":"SCALAR"
		},
		{
			"bufferView":20,
			"componentType":5126,
			"count":77,
			"max":[
				17.25,
				-9,
				28
			],
			"min":[
				8,
				-24,
				8
			],
			"type":"VEC3"
		},
		{
			"bufferView":21,
			"componentType":5126,
			"count":77,
			"type":"VEC3"
		},
		{
			"bufferView":22,
			"componentType":5126,
			"count":77,
			"type":"VEC2"
		},
		{
			"bufferView":23,
			"componentType":5123,
			"count":159,
			"type":"SCALAR"
		},
		{
			"bufferView":24,
			"componentType":5126,
			"count":8,
			"max":[
				17.25,
				-8,
				10
			],
			"min":[
				8,
				-9,
				8
			],
			"type":"VEC3"
		},
		{
			"bufferView":25,
			"componentType":5126,
			"count":8,
			"type":"VEC3"
		},
		{
			"bufferView":26,
			"componentType":5126,
			"count":8,
			"type":"VEC2"
		},
		{
			"bufferView":27,
			"componentType":5123,
			"count":12,
			"type":"SCALAR"
		},
		{
			"bufferView":28,
			"componentType":5126,
			"count":4,
			"max":[
				13.5,
				-11.59375,
				9.75
			],
			"min":[
				11.75,
				-24,
				9.75
			],
			"type":"VEC3"
		},
		{
			"bufferView":29,
			"componentType":5126,
			"count":4,
			"type":"VEC3"
		},
		{
			"bufferView":30,
			"componentType":5126,
			"count":4,
			"type":"VEC2"
		},
		{
			"bufferView":31,
			"componentType":5123,
			"count":6,
			"type":"SCALAR"
		}
	],
	"bufferViews":[
		{
			"buffer":0,
			"byteLength":792,
			"byteOffset":0,
			"target":34962
		},
		{
			"buffer":0,
			"byteLength":792,
			"byteOffset":792,
			"target":34962
		},
		{
			"buffer":0,
			"byteLength":528,
			"byteOffset":1584,
			"target":34962
		},
		{
			"buffer":0,
			"byteLength":372,
			"byteOffset":2112,
			"target":34963
		},
		{
			"buffer":0,
			"byteLength":1044,
			"byteOffset":2484,
			"target":34962
		},
		{
			"buffer":0,
			"byteLength":1044,
			"byteOffset":3528,
			"target":34962
		},
		{
			"buffer":0,
			"byteLength":696,
			"byteOffset":4572,
			"target":34962
		},
		{
			"buffer":0,
			"byteLength":462,
			"byteOffset":5268,
			"target":34963
		},
		{
			"buffer":0,
			"byteLength":720,
			"byteOffset":5732,
			"target":34962
		},
		{
			"buffer":0,
			"byteLength":720,
			"byteOffset":6452,
			"target":34962
		},
		{
			"buffer":0,
			"byteLength":480,
			"byteOffset":7172,
			"target":34962
		},
		{
			"buffer":0,
			"byteLength":180,
			"byteOffset":7652,
			"target":34963
		},
		{
			"buffer":0,
			"byteLength":240,
			"byteOffset":7832,
			"target":34962
		},
		{
			"buffer":0,
			"byteLength":240,
			"byteOffset":8072,
			"target":34962
		},
		{
			"buffer":0,
			"byteLength":160,
			"byteOffset":8312,
			"target":34962
		},
		{
			"buffer":0,
			"byteLength":120,
			"byteOffset":8472,
			"target":34963
		},
		{
			"buffer":0,
			"byteLength":168,
			"byteOffset":8592,
			"target":34962
		},
		{
			"buffer":0,
			"byteLength":168,
			"byteOffset":8760,
			"target":34962
		},
		{
			"buffer":0,
			"byteLength":112,
			"byteOffset":8928,
			"target":34962
		},
		{
			"buffer":0,
			"byteLength":48,
			"byteOffset":9040,
			"target":34963
		},
		{
			"buffer":0,
			"byteLength":924,
			"byteOffset":9088,
			"target":34962
		},
		{
			"buffer":0,
			"byteLength":924,
			"byteOffset":10012,
			"target":34962
		},
		{
			"buffer":0,
			"byteLength":616,
			"byteOffset":10936,
			"target":34962
		},
		{
			"buffer":0,
			"byteLength":318,
			"byteOffset":11552,
			"target":34963
		},
		{
			"buffer":0,
			"byteLength":96,
			"byteOffset":11872,
			"target":34962
		},
		{
			"buffer":0,
			"byteLength":96,
			"byteOffset":11968,
			"target":34962
		},
		{
			"buffer":0,
			"byteLength":64,
			"byteOffset":12064,
			"target":34962
		},
		{
			"buffer":0,
			"byteLength":24,
			"byteOffset":12128,
			"target":34963
		},
		{
			"buffer":0,
			"byteLength":48,
			"byteOffset":12152,
			"target":34962
		},
		{
			"buffer":0,
			"byteLength":48,
			"byteOffset":12200,
			"target":34962
		},
		{
			"buffer":0,
			"byteLength":32,
			"byteOffset":12248,
			"target":34962
		},
		{
			"buffer":0,
			"byteLength":12,
			"byteOffset":12280,
			"target":34963
		}
	],
	"buffers":[
		{
			"byteLength":12292,
			"uri":"inf_butch_lava_plat6.bin"
		}
	]
}
