{
	"asset":{
		"generator":"Khronos glTF Blender I/O v4.5.48",
		"version":"2.0"
	},
	"scene":0,
	"scenes":[
		{
			"name":"Scene",
			"nodes":[
				0
			]
		}
	],
	"nodes":[
		{
			"mesh":0,
			"name":"Object"
		}
	],
	"materials":[
		{
			"doubleSided":true,
			"name":"BE_EWAL06",
			"pbrMetallicRoughness":{
				"baseColorFactor":[
					0.800000011920929,
					0.800000011920929,
					0.800000011920929,
					1
				],
				"metallicFactor":0,
				"roughnessFactor":0.5
			}
		},
		{
			"doubleSided":true,
			"name":"BE_EBOR01E",
			"pbrMetallicRoughness":{
				"baseColorFactor":[
					0.800000011920929,
					0.800000011920929,
					0.800000011920929,
					1
				],
				"metallicFactor":0,
				"roughnessFactor":0.5
			}
		},
		{
			"doubleSided":true,
			"name":"BE_IHAWAL04D",
			"pbrMetallicRoughness":{
				"baseColorFactor":[
					0.800000011920929,
					0.800000011920929,
					0.800000011920929,
					1
				],
				"metallicFactor":0,
				"roughnessFactor":0.5
			}
		},
		{
			"doubleSided":true,
			"name":"BE_IGENERICDARK",
			"pbrMetallicRoughness":{
				"baseColorFactor":[
					0.800000011920929,
					0.800000011920929,
					0.800000011920929,
					1
				],
				"metallicFactor":0,
				"roughnessFactor":0.5
			}
		},
		{
			"doubleSided":true,
			"name":"BE_IGENERIC",
			"pbrMetallicRoughness":{
				"baseColorFactor":[
					0.800000011920929,
					0.800000011920929,
					0.800000011920929,
					1
				],
				"metallicFactor":0,
				"roughnessFactor":0.5
			}
		},
		{
			"doubleSided":true,
			"name":"BE_ELIG02",
			"pbrMetallicRoughness":{
				"baseColorFactor":[
					0.800000011920929,
					0.800000011920929,
					0.800000011920929,
					1
				],
				"metallicFactor":0,
				"roughnessFactor":0.5
			}
		}
	],
	"meshes":[
		{
			"name":"Mesh",
			"primitives":[
				{
					"attributes":{
						"POSITION":0,
						"NORMAL":1,
						"TEXCOORD_0":2
					},
					"indices":3,
					"material":0
				},
				{
					"attributes":{
						"POSITION":4,
						"NORMAL":5,
						"TEXCOORD_0":6
					},
					"indices":7,
					"material":1
				},
				{
					"attributes":{
						"POSITION":8,
						"NORMAL":9,
						"TEXCOORD_0":10
					},
					"indices":11,
					"material":2
				},
				{
					"attributes":{
						"POSITION":12,
						"NORMAL":13,
						"TEXCOORD_0":14
					},
					"indices":15,
					"material":3
				},
				{
					"attributes":{
						"POSITION":16,
						"NORMAL":17,
						"TEXCOORD_0":18
					},
					"indices":19,
					"material":4
				},
				{
					"attributes":{
						"POSITION":20,
						"NORMAL":21,
						"TEXCOORD_0":22
					},
					"indices":23,
					"material":5
				}
			]
		}
	],
	"accessors":[
		{
			"bufferView":0,
			"componentType":5126,
			"count":60,
			"max":[
				22,
				0.25,
				12
			],
			"min":[
				4,
				-2,
				-6
			],
			"type":"VEC3"
		},
		{
			"bufferView":1,
			"componentType":5126,
			"count":60,
			"type":"VEC3"
		},
		{
			"bufferView":2,
			"componentType":5126,
			"count":60,
			"type":"VEC2"
		},
		{
			"bufferView":3,
			"componentType":5123,
			"count":78,
			"type":"SCALAR"
		},
		{
			"bufferView":4,
			"componentType":5126,
			"count":32,
			"max":[
				22,
				0.25,
				12
			],
			"min":[
				4,
				-1.75,
				-6
			],
			"type":"VEC3"
		},
		{
			"bufferView":5,
			"componentType":5126,
			"count":32,
			"type":"VEC3"
		},
		{
			"bufferView":6,
			"componentType":5126,
			"count":32,
			"type":"VEC2"
		},
		{
			"bufferView":7,
			"componentType":5123,
			"count":48,
			"type":"SCALAR"
		},
		{
			"bufferView":8,
			"componentType":5126,
			"count":46,
			"max":[
				20,
				-2,
				10
			],
			"min":[
				6,
				-10.5,
				-4
			],
			"type":"VEC3"
		},
		{
			"bufferView":9,
			"componentType":5126,
			"count":46,
			"type":"VEC3"
		},
		{
			"bufferView":10,
			"componentType":5126,
			"count":46,
			"type":"VEC2"
		},
		{
			"bufferView":11,
			"componentType":5123,
			"count":96,
			"type":"SCALAR"
		},
		{
			"bufferView":12,
			"componentType":5126,
			"count":6,
			"max":[
				20,
				-2,
				10
			],
			"min":[
				6,
				-4,
				8
			],
			"type":"VEC3"
		},
		{
			"bufferView":13,
			"componentType":5126,
			"count":6,
			"type":"VEC3"
		},
		{
			"bufferView":14,
			"componentType":5126,
			"count":6,
			"type":"VEC2"
		},
		{
			"bufferView":15,
			"componentType":5123,
			"count":12,
			"type":"SCALAR"
		},
		{
			"bufferView":16,
			"componentType":5126,
			"count":12,
			"max":[
				18,
				-4.5,
				8
			],
			"min":[
				8,
				-4.5,
				-2
			],
			"type":"VEC3"
		},
		{
			"bufferView":17,
			"componentType":5126,
			"count":12,
			"type":"VEC3"
		},
		{
			"bufferView":18,
			"componentType":5126,
			"count":12,
			"type":"VEC2"
		},
		{
			"bufferView":19,
			"componentType":5123,
			"count":36,
			"type":"SCALAR"
		},
		{
			"bufferView":20,
			"componentType":5126,
			"count":16,
			"max":[
				17.5,
				-4,
				7.5
			],
			"min":[
				8.5,
				-4.5,
				-1.5
			],
			"type":"VEC3"
		},
		{
			"bufferView":21,
			"componentType":5126,
			"count":16,
			"type":"VEC3"
		},
		{
			"bufferView":22,
			"componentType":5126,
			"count":16,
			"type":"VEC2"
		},
		{
			"bufferView":23,
			"componentType":5123,
			"count":24,
			"type":"SCALAR"
		}
	],
	"bufferViews":[
		{
			"buffer":0,
			"byteLength":720,
			"byteOffset":0,
			"target":34962
		},
		{
			"buffer":0,
			"byteLength":720,
			"byteOffset":720,
			"target":34962
		},
		{
			"buffer":0,
			"byteLength":480,
			"byteOffset":1440,
			"target":34962
		},
		{
			"buffer":0,
			"byteLength":156,
			"byteOffset":1920,
			"target":34963
		},
		{
			"buffer":0,
			"byteLength":384,
			"byteOffset":2076,
			"target":34962
		},
		{
			"buffer":0,
			"byteLength":384,
			"byteOffset":2460,
			"target":34962
		},
		{
			"buffer":0,
			"byteLength":256,
			"byteOffset":2844,
			"target":34962
		},
		{
			"buffer":0,
			"byteLength":96,
			"byteOffset":3100,
			"target":34963
		},
		{
			"buffer":0,
			"byteLength":552,
			"byteOffset":3196,
			"target":34962
		},
		{
			"buffer":0,
			"byteLength":552,
			"byteOffset":3748,
			"target":34962
		},
		{
			"buffer":0,
			"byteLength":368,
			"byteOffset":4300,
			"target":34962
		},
		{
			"buffer":0,
			"byteLength":192,
			"byteOffset":4668,
			"target":34963
		},
		{
			"buffer":0,
			"byteLength":72,
			"byteOffset":4860,
			"target":34962
		},
		{
			"buffer":0,
			"byteLength":72,
			"byteOffset":4932,
			"target":34962
		},
		{
			"buffer":0,
			"byteLength":48,
			"byteOffset":5004,
			"target":34962
		},
		{
			"buffer":0,
			"byteLength":24,
			"byteOffset":5052,
			"target":34963
		},
		{
			"buffer":0,
			"byteLength":144,
			"byteOffset":5076,
			"target":34962
		},
		{
			"buffer":0,
			"byteLength":144,
			"byteOffset":5220,
			"target":34962
		},
		{
			"buffer":0,
			"byteLength":96,
			"byteOffset":5364,
			"target":34962
		},
		{
			"buffer":0,
			"byteLength":72,
			"byteOffset":5460,
			"target":34963
		},
		{
			"buffer":0,
			"byteLength":192,
			"byteOffset":5532,
			"target":34962
		},
		{
			"buffer":0,
			"byteLength":192,
			"byteOffset":5724,
			"target":34962
		},
		{
			"buffer":0,
			"byteLength":128,
			"byteOffset":5916,
			"target":34962
		},
		{
			"buffer":0,
			"byteLength":48,
			"byteOffset":6044,
			"target":34963
		}
	],
	"buffers":[
		{
			"byteLength":6092,
			"uri":"Magellan_kab_magflagstand.bin"
		}
	]
}
