{
	"asset":{
		"generator":"Khronos glTF Blender I/O v4.5.48",
		"version":"2.0"
	},
	"scene":0,
	"scenes":[
		{
			"name":"Scene",
			"nodes":[
				0
			]
		}
	],
	"nodes":[
		{
			"mesh":0,
			"name":"Object"
		}
	],
	"materials":[
		{
			"doubleSided":true,
			"name":"BE_EWAL06",
			"pbrMetallicRoughness":{
				"baseColorFactor":[
					0.800000011920929,
					0.800000011920929,
					0.800000011920929,
					1
				],
				"metallicFactor":0,
				"roughnessFactor":0.5
			}
		},
		{
			"doubleSided":true,
			"name":"BE_EBOR01E",
			"pbrMetallicRoughness":{
				"baseColorFactor":[
					0.800000011920929,
					0.800000011920929,
					0.800000011920929,
					1
				],
				"metallicFactor":0,
				"roughnessFactor":0.5
			}
		},
		{
			"doubleSided":true,
			"name":"BE_EWAL04A",
			"pbrMetallicRoughness":{
				"baseColorFactor":[
					0.800000011920929,
					0.800000011920929,
					0.800000011920929,
					1
				],
				"metallicFactor":0,
				"roughnessFactor":0.5
			}
		},
		{
			"doubleSided":true,
			"name":"BE_IHAWAL04D",
			"pbrMetallicRoughness":{
				"baseColorFactor":[
					0.800000011920929,
					0.800000011920929,
					0.800000011920929,
					1
				],
				"metallicFactor":0,
				"roughnessFactor":0.5
			}
		},
		{
			"doubleSided":true,
			"name":"BE_ELIG02",
			"pbrMetallicRoughness":{
				"baseColorFactor":[
					0.800000011920929,
					0.800000011920929,
					0.800000011920929,
					1
				],
				"metallicFactor":0,
				"roughnessFactor":0.5
			}
		}
	],
	"meshes":[
		{
			"name":"Mesh",
			"primitives":[
				{
					"attributes":{
						"POSITION":0,
						"NORMAL":1,
						"TEXCOORD_0":2
					},
					"indices":3,
					"material":0
				},
				{
					"attributes":{
						"POSITION":4,
						"NORMAL":5,
						"TEXCOORD_0":6
					},
					"indices":7,
					"material":1
				},
				{
					"attributes":{
						"POSITION":8,
						"NORMAL":9,
						"TEXCOORD_0":10
					},
					"indices":11,
					"material":2
				},
				{
					"attributes":{
						"POSITION":12,
						"NORMAL":13,
						"TEXCOORD_0":14
					},
					"indices":15,
					"material":3
				},
				{
					"attributes":{
						"POSITION":16,
						"NORMAL":17,
						"TEXCOORD_0":18
					},
					"indices":19,
					"material":4
				}
			]
		}
	],
	"accessors":[
		{
			"bufferView":0,
			"componentType":5126,
			"count":60,
			"max":[
				18,
				0.25,
				8
			],
			"min":[
				8,
				-2,
				-2
			],
			"type":"VEC3"
		},
		{
			"bufferView":1,
			"componentType":5126,
			"count":60,
			"type":"VEC3"
		},
		{
			"bufferView":2,
			"componentType":5126,
			"count":60,
			"type":"VEC2"
		},
		{
			"bufferView":3,
			"componentType":5123,
			"count":78,
			"type":"SCALAR"
		},
		{
			"bufferView":4,
			"componentType":5126,
			"count":32,
			"max":[
				18,
				0.25,
				8
			],
			"min":[
				8,
				-1.75,
				-2
			],
			"type":"VEC3"
		},
		{
			"bufferView":5,
			"componentType":5126,
			"count":32,
			"type":"VEC3"
		},
		{
			"bufferView":6,
			"componentType":5126,
			"count":32,
			"type":"VEC2"
		},
		{
			"bufferView":7,
			"componentType":5123,
			"count":48,
			"type":"SCALAR"
		},
		{
			"bufferView":8,
			"componentType":5126,
			"count":24,
			"max":[
				16,
				-4,
				6
			],
			"min":[
				10,
				-4.25,
				0
			],
			"type":"VEC3"
		},
		{
			"bufferView":9,
			"componentType":5126,
			"count":24,
			"type":"VEC3"
		},
		{
			"bufferView":10,
			"componentType":5126,
			"count":24,
			"type":"VEC2"
		},
		{
			"bufferView":11,
			"componentType":5123,
			"count":72,
			"type":"SCALAR"
		},
		{
			"bufferView":12,
			"componentType":5126,
			"count":40,
			"max":[
				16.5,
				-2,
				6.5
			],
			"min":[
				9.5,
				-8.5,
				-0.5
			],
			"type":"VEC3"
		},
		{
			"bufferView":13,
			"componentType":5126,
			"count":40,
			"type":"VEC3"
		},
		{
			"bufferView":14,
			"componentType":5126,
			"count":40,
			"type":"VEC2"
		},
		{
			"bufferView":15,
			"componentType":5123,
			"count":72,
			"type":"SCALAR"
		},
		{
			"bufferView":16,
			"componentType":5126,
			"count":16,
			"max":[
				15.75,
				-4,
				5.75
			],
			"min":[
				10.25,
				-4.25,
				0.25
			],
			"type":"VEC3"
		},
		{
			"bufferView":17,
			"componentType":5126,
			"count":16,
			"type":"VEC3"
		},
		{
			"bufferView":18,
			"componentType":5126,
			"count":16,
			"type":"VEC2"
		},
		{
			"bufferView":19,
			"componentType":5123,
			"count":24,
			"type":"SCALAR"
		}
	],
	"bufferViews":[
		{
			"buffer":0,
			"byteLength":720,
			"byteOffset":0,
			"target":34962
		},
		{
			"buffer":0,
			"byteLength":720,
			"byteOffset":720,
			"target":34962
		},
		{
			"buffer":0,
			"byteLength":480,
			"byteOffset":1440,
			"target":34962
		},
		{
			"buffer":0,
			"byteLength":156,
			"byteOffset":1920,
			"target":34963
		},
		{
			"buffer":0,
			"byteLength":384,
			"byteOffset":2076,
			"target":34962
		},
		{
			"buffer":0,
			"byteLength":384,
			"byteOffset":2460,
			"target":34962
		},
		{
			"buffer":0,
			"byteLength":256,
			"byteOffset":2844,
			"target":34962
		},
		{
			"buffer":0,
			"byteLength":96,
			"byteOffset":3100,
			"target":34963
		},
		{
			"buffer":0,
			"byteLength":288,
			"byteOffset":3196,
			"target":34962
		},
		{
			"buffer":0,
			"byteLength":288,
			"byteOffset":3484,
			"target":34962
		},
		{
			"buffer":0,
			"byteLength":192,
			"byteOffset":3772,
			"target":34962
		},
		{
			"buffer":0,
			"byteLength":144,
			"byteOffset":3964,
			"target":34963
		},
		{
			"buffer":0,
			"byteLength":480,
			"byteOffset":4108,
			"target":34962
		},
		{
			"buffer":0,
			"byteLength":480,
			"byteOffset":4588,
			"target":34962
		},
		{
			"buffer":0,
			"byteLength":320,
			"byteOffset":5068,
			"target":34962
		},
		{
			"buffer":0,
			"byteLength":144,
			"byteOffset":5388,
			"target":34963
		},
		{
			"buffer":0,
			"byteLength":192,
			"byteOffset":5532,
			"target":34962
		},
		{
			"buffer":0,
			"byteLength":192,
			"byteOffset":5724,
			"target":34962
		},
		{
			"buffer":0,
			"byteLength":128,
			"byteOffset":5916,
			"target":34962
		},
		{
			"buffer":0,
			"byteLength":48,
			"byteOffset":6044,
			"target":34963
		}
	],
	"buffers":[
		{
			"byteLength":6092,
			"uri":"Magellan_kab_turretstand.bin"
		}
	]
}
