{
	"asset":{
		"generator":"Khronos glTF Blender I/O v4.5.48",
		"version":"2.0"
	},
	"scene":0,
	"scenes":[
		{
			"name":"Scene",
			"nodes":[
				0
			]
		}
	],
	"nodes":[
		{
			"mesh":0,
			"name":"Object"
		}
	],
	"materials":[
		{
			"doubleSided":true,
			"name":"BE_EWAL06",
			"pbrMetallicRoughness":{
				"baseColorFactor":[
					0.800000011920929,
					0.800000011920929,
					0.800000011920929,
					1
				],
				"metallicFactor":0,
				"roughnessFactor":0.5
			}
		},
		{
			"doubleSided":true,
			"name":"BE_ICEI03B",
			"pbrMetallicRoughness":{
				"baseColorFactor":[
					0.800000011920929,
					0.800000011920929,
					0.800000011920929,
					1
				],
				"metallicFactor":0,
				"roughnessFactor":0.5
			}
		},
		{
			"doubleSided":true,
			"name":"BE_ITELIG02",
			"pbrMetallicRoughness":{
				"baseColorFactor":[
					0.800000011920929,
					0.800000011920929,
					0.800000011920929,
					1
				],
				"metallicFactor":0,
				"roughnessFactor":0.5
			}
		},
		{
			"doubleSided":true,
			"name":"BE_ESPEC01",
			"pbrMetallicRoughness":{
				"baseColorFactor":[
					0.800000011920929,
					0.800000011920929,
					0.800000011920929,
					1
				],
				"metallicFactor":0,
				"roughnessFactor":0.5
			}
		},
		{
			"doubleSided":true,
			"name":"BE_IGENERICDARK",
			"pbrMetallicRoughness":{
				"baseColorFactor":[
					0.800000011920929,
					0.800000011920929,
					0.800000011920929,
					1
				],
				"metallicFactor":0,
				"roughnessFactor":0.5
			}
		},
		{
			"doubleSided":true,
			"name":"BE_ITEFLO01",
			"pbrMetallicRoughness":{
				"baseColorFactor":[
					0.800000011920929,
					0.800000011920929,
					0.800000011920929,
					1
				],
				"metallicFactor":0,
				"roughnessFactor":0.5
			}
		},
		{
			"doubleSided":true,
			"name":"BE_ICOWAL02",
			"pbrMetallicRoughness":{
				"baseColorFactor":[
					0.800000011920929,
					0.800000011920929,
					0.800000011920929,
					1
				],
				"metallicFactor":0,
				"roughnessFactor":0.5
			}
		},
		{
			"doubleSided":true,
			"name":"BE_ITEFLO02",
			"pbrMetallicRoughness":{
				"baseColorFactor":[
					0.800000011920929,
					0.800000011920929,
					0.800000011920929,
					1
				],
				"metallicFactor":0,
				"roughnessFactor":0.5
			}
		},
		{
			"doubleSided":true,
			"name":"BE_ESPEC08",
			"pbrMetallicRoughness":{
				"baseColorFactor":[
					0.800000011920929,
					0.800000011920929,
					0.800000011920929,
					1
				],
				"metallicFactor":0,
				"roughnessFactor":0.5
			}
		},
		{
			"doubleSided":true,
			"name":"BE_ICHUTE02",
			"pbrMetallicRoughness":{
				"baseColorFactor":[
					0.800000011920929,
					0.800000011920929,
					0.800000011920929,
					1
				],
				"metallicFactor":0,
				"roughnessFactor":0.5
			}
		},
		{
			"doubleSided":true,
			"name":"BE_ESPEC03",
			"pbrMetallicRoughness":{
				"baseColorFactor":[
					0.800000011920929,
					0.800000011920929,
					0.800000011920929,
					1
				],
				"metallicFactor":0,
				"roughnessFactor":0.5
			}
		},
		{
			"doubleSided":true,
			"name":"BE_ITEBOR02B",
			"pbrMetallicRoughness":{
				"baseColorFactor":[
					0.800000011920929,
					0.800000011920929,
					0.800000011920929,
					1
				],
				"metallicFactor":0,
				"roughnessFactor":0.5
			}
		},
		{
			"doubleSided":true,
			"name":"BE_IHALIG",
			"pbrMetallicRoughness":{
				"baseColorFactor":[
					0.800000011920929,
					0.800000011920929,
					0.800000011920929,
					1
				],
				"metallicFactor":0,
				"roughnessFactor":0.5
			}
		},
		{
			"doubleSided":true,
			"name":"BE_ITECEI02",
			"pbrMetallicRoughness":{
				"baseColorFactor":[
					0.800000011920929,
					0.800000011920929,
					0.800000011920929,
					1
				],
				"metallicFactor":0,
				"roughnessFactor":0.5
			}
		},
		{
			"doubleSided":true,
			"name":"BE_IHAWAL04D",
			"pbrMetallicRoughness":{
				"baseColorFactor":[
					0.800000011920929,
					0.800000011920929,
					0.800000011920929,
					1
				],
				"metallicFactor":0,
				"roughnessFactor":0.5
			}
		},
		{
			"doubleSided":true,
			"name":"BE_IHAWAL04",
			"pbrMetallicRoughness":{
				"baseColorFactor":[
					0.800000011920929,
					0.800000011920929,
					0.800000011920929,
					1
				],
				"metallicFactor":0,
				"roughnessFactor":0.5
			}
		},
		{
			"doubleSided":true,
			"name":"BE_ESPEC02",
			"pbrMetallicRoughness":{
				"baseColorFactor":[
					0.800000011920929,
					0.800000011920929,
					0.800000011920929,
					1
				],
				"metallicFactor":0,
				"roughnessFactor":0.5
			}
		},
		{
			"doubleSided":true,
			"name":"BE_ICOLIGOLA",
			"pbrMetallicRoughness":{
				"baseColorFactor":[
					0.800000011920929,
					0.800000011920929,
					0.800000011920929,
					1
				],
				"metallicFactor":0,
				"roughnessFactor":0.5
			}
		},
		{
			"doubleSided":true,
			"name":"BE_ELIG03",
			"pbrMetallicRoughness":{
				"baseColorFactor":[
					0.800000011920929,
					0.800000011920929,
					0.800000011920929,
					1
				],
				"metallicFactor":0,
				"roughnessFactor":0.5
			}
		},
		{
			"doubleSided":true,
			"name":"BE_ITEDOO01",
			"pbrMetallicRoughness":{
				"baseColorFactor":[
					0.800000011920929,
					0.800000011920929,
					0.800000011920929,
					1
				],
				"metallicFactor":0,
				"roughnessFactor":0.5
			}
		},
		{
			"doubleSided":true,
			"name":"BE_ITEWAL02A",
			"pbrMetallicRoughness":{
				"baseColorFactor":[
					0.800000011920929,
					0.800000011920929,
					0.800000011920929,
					1
				],
				"metallicFactor":0,
				"roughnessFactor":0.5
			}
		}
	],
	"meshes":[
		{
			"name":"Mesh",
			"primitives":[
				{
					"attributes":{
						"POSITION":0,
						"NORMAL":1,
						"TEXCOORD_0":2
					},
					"indices":3,
					"material":0
				},
				{
					"attributes":{
						"POSITION":4,
						"NORMAL":5,
						"TEXCOORD_0":6
					},
					"indices":7,
					"material":1
				},
				{
					"attributes":{
						"POSITION":8,
						"NORMAL":9,
						"TEXCOORD_0":10
					},
					"indices":11,
					"material":2
				},
				{
					"attributes":{
						"POSITION":12,
						"NORMAL":13,
						"TEXCOORD_0":14
					},
					"indices":15,
					"material":3
				},
				{
					"attributes":{
						"POSITION":16,
						"NORMAL":17,
						"TEXCOORD_0":18
					},
					"indices":19,
					"material":4
				},
				{
					"attributes":{
						"POSITION":20,
						"NORMAL":21,
						"TEXCOORD_0":22
					},
					"indices":23,
					"material":5
				},
				{
					"attributes":{
						"POSITION":24,
						"NORMAL":25,
						"TEXCOORD_0":26
					},
					"indices":27,
					"material":6
				},
				{
					"attributes":{
						"POSITION":28,
						"NORMAL":29,
						"TEXCOORD_0":30
					},
					"indices":31,
					"material":7
				},
				{
					"attributes":{
						"POSITION":32,
						"NORMAL":33,
						"TEXCOORD_0":34
					},
					"indices":35,
					"material":8
				},
				{
					"attributes":{
						"POSITION":36,
						"NORMAL":37,
						"TEXCOORD_0":38
					},
					"indices":39,
					"material":9
				},
				{
					"attributes":{
						"POSITION":40,
						"NORMAL":41,
						"TEXCOORD_0":42
					},
					"indices":43,
					"material":10
				},
				{
					"attributes":{
						"POSITION":44,
						"NORMAL":45,
						"TEXCOORD_0":46
					},
					"indices":47,
					"material":11
				},
				{
					"attributes":{
						"POSITION":48,
						"NORMAL":49,
						"TEXCOORD_0":50
					},
					"indices":51,
					"material":12
				},
				{
					"attributes":{
						"POSITION":52,
						"NORMAL":53,
						"TEXCOORD_0":54
					},
					"indices":55,
					"material":13
				},
				{
					"attributes":{
						"POSITION":56,
						"NORMAL":57,
						"TEXCOORD_0":58
					},
					"indices":59,
					"material":14
				},
				{
					"attributes":{
						"POSITION":60,
						"NORMAL":61,
						"TEXCOORD_0":62
					},
					"indices":63,
					"material":15
				},
				{
					"attributes":{
						"POSITION":64,
						"NORMAL":65,
						"TEXCOORD_0":66
					},
					"indices":67,
					"material":16
				},
				{
					"attributes":{
						"POSITION":68,
						"NORMAL":69,
						"TEXCOORD_0":70
					},
					"indices":71,
					"material":17
				},
				{
					"attributes":{
						"POSITION":72,
						"NORMAL":73,
						"TEXCOORD_0":74
					},
					"indices":75,
					"material":18
				},
				{
					"attributes":{
						"POSITION":76,
						"NORMAL":77,
						"TEXCOORD_0":78
					},
					"indices":79,
					"material":19
				},
				{
					"attributes":{
						"POSITION":80,
						"NORMAL":81,
						"TEXCOORD_0":82
					},
					"indices":83,
					"material":20
				}
			]
		}
	],
	"accessors":[
		{
			"bufferView":0,
			"componentType":5126,
			"count":86,
			"max":[
				16,
				15,
				28
			],
			"min":[
				-16,
				2,
				-8
			],
			"type":"VEC3"
		},
		{
			"bufferView":1,
			"componentType":5126,
			"count":86,
			"type":"VEC3"
		},
		{
			"bufferView":2,
			"componentType":5126,
			"count":86,
			"type":"VEC2"
		},
		{
			"bufferView":3,
			"componentType":5123,
			"count":138,
			"type":"SCALAR"
		},
		{
			"bufferView":4,
			"componentType":5126,
			"count":431,
			"max":[
				20,
				18.5,
				36
			],
			"min":[
				-20,
				0,
				-12
			],
			"type":"VEC3"
		},
		{
			"bufferView":5,
			"componentType":5126,
			"count":431,
			"type":"VEC3"
		},
		{
			"bufferView":6,
			"componentType":5126,
			"count":431,
			"type":"VEC2"
		},
		{
			"bufferView":7,
			"componentType":5123,
			"count":735,
			"type":"SCALAR"
		},
		{
			"bufferView":8,
			"componentType":5126,
			"count":48,
			"max":[
				20,
				7,
				36
			],
			"min":[
				-20,
				2,
				-12
			],
			"type":"VEC3"
		},
		{
			"bufferView":9,
			"componentType":5126,
			"count":48,
			"type":"VEC3"
		},
		{
			"bufferView":10,
			"componentType":5126,
			"count":48,
			"type":"VEC2"
		},
		{
			"bufferView":11,
			"componentType":5123,
			"count":72,
			"type":"SCALAR"
		},
		{
			"bufferView":12,
			"componentType":5126,
			"count":16,
			"max":[
				16,
				7,
				32
			],
			"min":[
				-16,
				3,
				-8
			],
			"type":"VEC3"
		},
		{
			"bufferView":13,
			"componentType":5126,
			"count":16,
			"type":"VEC3"
		},
		{
			"bufferView":14,
			"componentType":5126,
			"count":16,
			"type":"VEC2"
		},
		{
			"bufferView":15,
			"componentType":5123,
			"count":24,
			"type":"SCALAR"
		},
		{
			"bufferView":16,
			"componentType":5126,
			"count":280,
			"max":[
				20,
				18.5,
				36
			],
			"min":[
				-20,
				2,
				-12
			],
			"type":"VEC3"
		},
		{
			"bufferView":17,
			"componentType":5126,
			"count":280,
			"type":"VEC3"
		},
		{
			"bufferView":18,
			"componentType":5126,
			"count":280,
			"type":"VEC2"
		},
		{
			"bufferView":19,
			"componentType":5123,
			"count":468,
			"type":"SCALAR"
		},
		{
			"bufferView":20,
			"componentType":5126,
			"count":44,
			"max":[
				20,
				15.5,
				36
			],
			"min":[
				-20,
				2,
				-12
			],
			"type":"VEC3"
		},
		{
			"bufferView":21,
			"componentType":5126,
			"count":44,
			"type":"VEC3"
		},
		{
			"bufferView":22,
			"componentType":5126,
			"count":44,
			"type":"VEC2"
		},
		{
			"bufferView":23,
			"componentType":5123,
			"count":78,
			"type":"SCALAR"
		},
		{
			"bufferView":24,
			"componentType":5126,
			"count":16,
			"max":[
				16,
				5,
				32
			],
			"min":[
				-16,
				4,
				-8
			],
			"type":"VEC3"
		},
		{
			"bufferView":25,
			"componentType":5126,
			"count":16,
			"type":"VEC3"
		},
		{
			"bufferView":26,
			"componentType":5126,
			"count":16,
			"type":"VEC2"
		},
		{
			"bufferView":27,
			"componentType":5123,
			"count":24,
			"type":"SCALAR"
		},
		{
			"bufferView":28,
			"componentType":5126,
			"count":16,
			"max":[
				14,
				5,
				30
			],
			"min":[
				-14,
				3,
				-6
			],
			"type":"VEC3"
		},
		{
			"bufferView":29,
			"componentType":5126,
			"count":16,
			"type":"VEC3"
		},
		{
			"bufferView":30,
			"componentType":5126,
			"count":16,
			"type":"VEC2"
		},
		{
			"bufferView":31,
			"componentType":5123,
			"count":24,
			"type":"SCALAR"
		},
		{
			"bufferView":32,
			"componentType":5126,
			"count":16,
			"max":[
				12.25,
				16,
				22.5
			],
			"min":[
				-12.25,
				15,
				1.5
			],
			"type":"VEC3"
		},
		{
			"bufferView":33,
			"componentType":5126,
			"count":16,
			"type":"VEC3"
		},
		{
			"bufferView":34,
			"componentType":5126,
			"count":16,
			"type":"VEC2"
		},
		{
			"bufferView":35,
			"componentType":5123,
			"count":24,
			"type":"SCALAR"
		},
		{
			"bufferView":36,
			"componentType":5126,
			"count":164,
			"max":[
				15.5,
				15.5,
				21.5
			],
			"min":[
				-15.5,
				5.5,
				2.5
			],
			"type":"VEC3"
		},
		{
			"bufferView":37,
			"componentType":5126,
			"count":164,
			"type":"VEC3"
		},
		{
			"bufferView":38,
			"componentType":5126,
			"count":164,
			"type":"VEC2"
		},
		{
			"bufferView":39,
			"componentType":5123,
			"count":336,
			"type":"SCALAR"
		},
		{
			"bufferView":40,
			"componentType":5126,
			"count":16,
			"max":[
				12,
				3,
				28
			],
			"min":[
				-12,
				2,
				-4
			],
			"type":"VEC3"
		},
		{
			"bufferView":41,
			"componentType":5126,
			"count":16,
			"type":"VEC3"
		},
		{
			"bufferView":42,
			"componentType":5126,
			"count":16,
			"type":"VEC2"
		},
		{
			"bufferView":43,
			"componentType":5123,
			"count":24,
			"type":"SCALAR"
		},
		{
			"bufferView":44,
			"componentType":5126,
			"count":16,
			"max":[
				12,
				3,
				28
			],
			"min":[
				-12,
				2,
				-4
			],
			"type":"VEC3"
		},
		{
			"bufferView":45,
			"componentType":5126,
			"count":16,
			"type":"VEC3"
		},
		{
			"bufferView":46,
			"componentType":5126,
			"count":16,
			"type":"VEC2"
		},
		{
			"bufferView":47,
			"componentType":5123,
			"count":24,
			"type":"SCALAR"
		},
		{
			"bufferView":48,
			"componentType":5126,
			"count":16,
			"max":[
				16,
				3,
				32
			],
			"min":[
				-16,
				2,
				-8
			],
			"type":"VEC3"
		},
		{
			"bufferView":49,
			"componentType":5126,
			"count":16,
			"type":"VEC3"
		},
		{
			"bufferView":50,
			"componentType":5126,
			"count":16,
			"type":"VEC2"
		},
		{
			"bufferView":51,
			"componentType":5123,
			"count":24,
			"type":"SCALAR"
		},
		{
			"bufferView":52,
			"componentType":5126,
			"count":64,
			"max":[
				19,
				17.5,
				35
			],
			"min":[
				-19,
				3,
				-11
			],
			"type":"VEC3"
		},
		{
			"bufferView":53,
			"componentType":5126,
			"count":64,
			"type":"VEC3"
		},
		{
			"bufferView":54,
			"componentType":5126,
			"count":64,
			"type":"VEC2"
		},
		{
			"bufferView":55,
			"componentType":5123,
			"count":102,
			"type":"SCALAR"
		},
		{
			"bufferView":56,
			"componentType":5126,
			"count":36,
			"max":[
				9.25,
				15.5,
				20
			],
			"min":[
				-9.25,
				15,
				4
			],
			"type":"VEC3"
		},
		{
			"bufferView":57,
			"componentType":5126,
			"count":36,
			"type":"VEC3"
		},
		{
			"bufferView":58,
			"componentType":5126,
			"count":36,
			"type":"VEC2"
		},
		{
			"bufferView":59,
			"componentType":5123,
			"count":72,
			"type":"SCALAR"
		},
		{
			"bufferView":60,
			"componentType":5126,
			"count":8,
			"max":[
				10.75,
				15.5,
				22
			],
			"min":[
				-10.75,
				15,
				2
			],
			"type":"VEC3"
		},
		{
			"bufferView":61,
			"componentType":5126,
			"count":8,
			"type":"VEC3"
		},
		{
			"bufferView":62,
			"componentType":5126,
			"count":8,
			"type":"VEC2"
		},
		{
			"bufferView":63,
			"componentType":5123,
			"count":12,
			"type":"SCALAR"
		},
		{
			"bufferView":64,
			"componentType":5126,
			"count":40,
			"max":[
				10.75,
				15,
				18
			],
			"min":[
				-10.75,
				15,
				6
			],
			"type":"VEC3"
		},
		{
			"bufferView":65,
			"componentType":5126,
			"count":40,
			"type":"VEC3"
		},
		{
			"bufferView":66,
			"componentType":5126,
			"count":40,
			"type":"VEC2"
		},
		{
			"bufferView":67,
			"componentType":5123,
			"count":108,
			"type":"SCALAR"
		},
		{
			"bufferView":68,
			"componentType":5126,
			"count":24,
			"max":[
				9.25,
				15.5,
				20
			],
			"min":[
				-9.25,
				15,
				4
			],
			"type":"VEC3"
		},
		{
			"bufferView":69,
			"componentType":5126,
			"count":24,
			"type":"VEC3"
		},
		{
			"bufferView":70,
			"componentType":5126,
			"count":24,
			"type":"VEC2"
		},
		{
			"bufferView":71,
			"componentType":5123,
			"count":36,
			"type":"SCALAR"
		},
		{
			"bufferView":72,
			"componentType":5126,
			"count":64,
			"max":[
				19,
				5.5,
				35
			],
			"min":[
				-19,
				2.5,
				-11
			],
			"type":"VEC3"
		},
		{
			"bufferView":73,
			"componentType":5126,
			"count":64,
			"type":"VEC3"
		},
		{
			"bufferView":74,
			"componentType":5126,
			"count":64,
			"type":"VEC2"
		},
		{
			"bufferView":75,
			"componentType":5123,
			"count":96,
			"type":"SCALAR"
		},
		{
			"bufferView":76,
			"componentType":5126,
			"count":32,
			"max":[
				6,
				5.5,
				32
			],
			"min":[
				-6,
				5,
				-8
			],
			"type":"VEC3"
		},
		{
			"bufferView":77,
			"componentType":5126,
			"count":32,
			"type":"VEC3"
		},
		{
			"bufferView":78,
			"componentType":5126,
			"count":32,
			"type":"VEC2"
		},
		{
			"bufferView":79,
			"componentType":5123,
			"count":48,
			"type":"SCALAR"
		},
		{
			"bufferView":80,
			"componentType":5126,
			"count":32,
			"max":[
				6,
				5.5,
				32
			],
			"min":[
				-6,
				5,
				-8
			],
			"type":"VEC3"
		},
		{
			"bufferView":81,
			"componentType":5126,
			"count":32,
			"type":"VEC3"
		},
		{
			"bufferView":82,
			"componentType":5126,
			"count":32,
			"type":"VEC2"
		},
		{
			"bufferView":83,
			"componentType":5123,
			"count":48,
			"type":"SCALAR"
		}
	],
	"bufferViews":[
		{
			"buffer":0,
			"byteLength":1032,
			"byteOffset":0,
			"target":34962
		},
		{
			"buffer":0,
			"byteLength":1032,
			"byteOffset":1032,
			"target":34962
		},
		{
			"buffer":0,
			"byteLength":688,
			"byteOffset":2064,
			"target":34962
		},
		{
			"buffer":0,
			"byteLength":276,
			"byteOffset":2752,
			"target":34963
		},
		{
			"buffer":0,
			"byteLength":5172,
			"byteOffset":3028,
			"target":34962
		},
		{
			"buffer":0,
			"byteLength":5172,
			"byteOffset":8200,
			"target":34962
		},
		{
			"buffer":0,
			"byteLength":3448,
			"byteOffset":13372,
			"target":34962
		},
		{
			"buffer":0,
			"byteLength":1470,
			"byteOffset":16820,
			"target":34963
		},
		{
			"buffer":0,
			"byteLength":576,
			"byteOffset":18292,
			"target":34962
		},
		{
			"buffer":0,
			"byteLength":576,
			"byteOffset":18868,
			"target":34962
		},
		{
			"buffer":0,
			"byteLength":384,
			"byteOffset":19444,
			"target":34962
		},
		{
			"buffer":0,
			"byteLength":144,
			"byteOffset":19828,
			"target":34963
		},
		{
			"buffer":0,
			"byteLength":192,
			"byteOffset":19972,
			"target":34962
		},
		{
			"buffer":0,
			"byteLength":192,
			"byteOffset":20164,
			"target":34962
		},
		{
			"buffer":0,
			"byteLength":128,
			"byteOffset":20356,
			"target":34962
		},
		{
			"buffer":0,
			"byteLength":48,
			"byteOffset":20484,
			"target":34963
		},
		{
			"buffer":0,
			"byteLength":3360,
			"byteOffset":20532,
			"target":34962
		},
		{
			"buffer":0,
			"byteLength":3360,
			"byteOffset":23892,
			"target":34962
		},
		{
			"buffer":0,
			"byteLength":2240,
			"byteOffset":27252,
			"target":34962
		},
		{
			"buffer":0,
			"byteLength":936,
			"byteOffset":29492,
			"target":34963
		},
		{
			"buffer":0,
			"byteLength":528,
			"byteOffset":30428,
			"target":34962
		},
		{
			"buffer":0,
			"byteLength":528,
			"byteOffset":30956,
			"target":34962
		},
		{
			"buffer":0,
			"byteLength":352,
			"byteOffset":31484,
			"target":34962
		},
		{
			"buffer":0,
			"byteLength":156,
			"byteOffset":31836,
			"target":34963
		},
		{
			"buffer":0,
			"byteLength":192,
			"byteOffset":31992,
			"target":34962
		},
		{
			"buffer":0,
			"byteLength":192,
			"byteOffset":32184,
			"target":34962
		},
		{
			"buffer":0,
			"byteLength":128,
			"byteOffset":32376,
			"target":34962
		},
		{
			"buffer":0,
			"byteLength":48,
			"byteOffset":32504,
			"target":34963
		},
		{
			"buffer":0,
			"byteLength":192,
			"byteOffset":32552,
			"target":34962
		},
		{
			"buffer":0,
			"byteLength":192,
			"byteOffset":32744,
			"target":34962
		},
		{
			"buffer":0,
			"byteLength":128,
			"byteOffset":32936,
			"target":34962
		},
		{
			"buffer":0,
			"byteLength":48,
			"byteOffset":33064,
			"target":34963
		},
		{
			"buffer":0,
			"byteLength":192,
			"byteOffset":33112,
			"target":34962
		},
		{
			"buffer":0,
			"byteLength":192,
			"byteOffset":33304,
			"target":34962
		},
		{
			"buffer":0,
			"byteLength":128,
			"byteOffset":33496,
			"target":34962
		},
		{
			"buffer":0,
			"byteLength":48,
			"byteOffset":33624,
			"target":34963
		},
		{
			"buffer":0,
			"byteLength":1968,
			"byteOffset":33672,
			"target":34962
		},
		{
			"buffer":0,
			"byteLength":1968,
			"byteOffset":35640,
			"target":34962
		},
		{
			"buffer":0,
			"byteLength":1312,
			"byteOffset":37608,
			"target":34962
		},
		{
			"buffer":0,
			"byteLength":672,
			"byteOffset":38920,
			"target":34963
		},
		{
			"buffer":0,
			"byteLength":192,
			"byteOffset":39592,
			"target":34962
		},
		{
			"buffer":0,
			"byteLength":192,
			"byteOffset":39784,
			"target":34962
		},
		{
			"buffer":0,
			"byteLength":128,
			"byteOffset":39976,
			"target":34962
		},
		{
			"buffer":0,
			"byteLength":48,
			"byteOffset":40104,
			"target":34963
		},
		{
			"buffer":0,
			"byteLength":192,
			"byteOffset":40152,
			"target":34962
		},
		{
			"buffer":0,
			"byteLength":192,
			"byteOffset":40344,
			"target":34962
		},
		{
			"buffer":0,
			"byteLength":128,
			"byteOffset":40536,
			"target":34962
		},
		{
			"buffer":0,
			"byteLength":48,
			"byteOffset":40664,
			"target":34963
		},
		{
			"buffer":0,
			"byteLength":192,
			"byteOffset":40712,
			"target":34962
		},
		{
			"buffer":0,
			"byteLength":192,
			"byteOffset":40904,
			"target":34962
		},
		{
			"buffer":0,
			"byteLength":128,
			"byteOffset":41096,
			"target":34962
		},
		{
			"buffer":0,
			"byteLength":48,
			"byteOffset":41224,
			"target":34963
		},
		{
			"buffer":0,
			"byteLength":768,
			"byteOffset":41272,
			"target":34962
		},
		{
			"buffer":0,
			"byteLength":768,
			"byteOffset":42040,
			"target":34962
		},
		{
			"buffer":0,
			"byteLength":512,
			"byteOffset":42808,
			"target":34962
		},
		{
			"buffer":0,
			"byteLength":204,
			"byteOffset":43320,
			"target":34963
		},
		{
			"buffer":0,
			"byteLength":432,
			"byteOffset":43524,
			"target":34962
		},
		{
			"buffer":0,
			"byteLength":432,
			"byteOffset":43956,
			"target":34962
		},
		{
			"buffer":0,
			"byteLength":288,
			"byteOffset":44388,
			"target":34962
		},
		{
			"buffer":0,
			"byteLength":144,
			"byteOffset":44676,
			"target":34963
		},
		{
			"buffer":0,
			"byteLength":96,
			"byteOffset":44820,
			"target":34962
		},
		{
			"buffer":0,
			"byteLength":96,
			"byteOffset":44916,
			"target":34962
		},
		{
			"buffer":0,
			"byteLength":64,
			"byteOffset":45012,
			"target":34962
		},
		{
			"buffer":0,
			"byteLength":24,
			"byteOffset":45076,
			"target":34963
		},
		{
			"buffer":0,
			"byteLength":480,
			"byteOffset":45100,
			"target":34962
		},
		{
			"buffer":0,
			"byteLength":480,
			"byteOffset":45580,
			"target":34962
		},
		{
			"buffer":0,
			"byteLength":320,
			"byteOffset":46060,
			"target":34962
		},
		{
			"buffer":0,
			"byteLength":216,
			"byteOffset":46380,
			"target":34963
		},
		{
			"buffer":0,
			"byteLength":288,
			"byteOffset":46596,
			"target":34962
		},
		{
			"buffer":0,
			"byteLength":288,
			"byteOffset":46884,
			"target":34962
		},
		{
			"buffer":0,
			"byteLength":192,
			"byteOffset":47172,
			"target":34962
		},
		{
			"buffer":0,
			"byteLength":72,
			"byteOffset":47364,
			"target":34963
		},
		{
			"buffer":0,
			"byteLength":768,
			"byteOffset":47436,
			"target":34962
		},
		{
			"buffer":0,
			"byteLength":768,
			"byteOffset":48204,
			"target":34962
		},
		{
			"buffer":0,
			"byteLength":512,
			"byteOffset":48972,
			"target":34962
		},
		{
			"buffer":0,
			"byteLength":192,
			"byteOffset":49484,
			"target":34963
		},
		{
			"buffer":0,
			"byteLength":384,
			"byteOffset":49676,
			"target":34962
		},
		{
			"buffer":0,
			"byteLength":384,
			"byteOffset":50060,
			"target":34962
		},
		{
			"buffer":0,
			"byteLength":256,
			"byteOffset":50444,
			"target":34962
		},
		{
			"buffer":0,
			"byteLength":96,
			"byteOffset":50700,
			"target":34963
		},
		{
			"buffer":0,
			"byteLength":384,
			"byteOffset":50796,
			"target":34962
		},
		{
			"buffer":0,
			"byteLength":384,
			"byteOffset":51180,
			"target":34962
		},
		{
			"buffer":0,
			"byteLength":256,
			"byteOffset":51564,
			"target":34962
		},
		{
			"buffer":0,
			"byteLength":96,
			"byteOffset":51820,
			"target":34963
		}
	],
	"buffers":[
		{
			"byteLength":51916,
			"uri":"rilke_bombscare_flagstand_x2.bin"
		}
	]
}
