{
	"asset":{
		"generator":"Khronos glTF Blender I/O v4.5.48",
		"version":"2.0"
	},
	"scene":0,
	"scenes":[
		{
			"name":"Scene",
			"nodes":[
				0
			]
		}
	],
	"nodes":[
		{
			"mesh":0,
			"name":"Object"
		}
	],
	"materials":[
		{
			"doubleSided":true,
			"name":"BE_EWAL07",
			"pbrMetallicRoughness":{
				"baseColorFactor":[
					0.800000011920929,
					0.800000011920929,
					0.800000011920929,
					1
				],
				"metallicFactor":0,
				"roughnessFactor":0.5
			}
		},
		{
			"doubleSided":true,
			"name":"BE_ICEI03B",
			"pbrMetallicRoughness":{
				"baseColorFactor":[
					0.800000011920929,
					0.800000011920929,
					0.800000011920929,
					1
				],
				"metallicFactor":0,
				"roughnessFactor":0.5
			}
		},
		{
			"doubleSided":true,
			"name":"BE_ICOWAL02",
			"pbrMetallicRoughness":{
				"baseColorFactor":[
					0.800000011920929,
					0.800000011920929,
					0.800000011920929,
					1
				],
				"metallicFactor":0,
				"roughnessFactor":0.5
			}
		},
		{
			"doubleSided":true,
			"name":"BE_ITEWAL04",
			"pbrMetallicRoughness":{
				"baseColorFactor":[
					0.800000011920929,
					0.800000011920929,
					0.800000011920929,
					1
				],
				"metallicFactor":0,
				"roughnessFactor":0.5
			}
		},
		{
			"doubleSided":true,
			"name":"BE_IFUNCTEC01",
			"pbrMetallicRoughness":{
				"baseColorFactor":[
					0.800000011920929,
					0.800000011920929,
					0.800000011920929,
					1
				],
				"metallicFactor":0,
				"roughnessFactor":0.5
			}
		},
		{
			"doubleSided":true,
			"name":"BE_IHAWAL04",
			"pbrMetallicRoughness":{
				"baseColorFactor":[
					0.800000011920929,
					0.800000011920929,
					0.800000011920929,
					1
				],
				"metallicFactor":0,
				"roughnessFactor":0.5
			}
		},
		{
			"doubleSided":true,
			"name":"BE_ICOLIGOLA",
			"pbrMetallicRoughness":{
				"baseColorFactor":[
					0.800000011920929,
					0.800000011920929,
					0.800000011920929,
					1
				],
				"metallicFactor":0,
				"roughnessFactor":0.5
			}
		}
	],
	"meshes":[
		{
			"name":"Mesh",
			"primitives":[
				{
					"attributes":{
						"POSITION":0,
						"NORMAL":1,
						"TEXCOORD_0":2
					},
					"indices":3,
					"material":0
				},
				{
					"attributes":{
						"POSITION":4,
						"NORMAL":5,
						"TEXCOORD_0":6
					},
					"indices":7,
					"material":1
				},
				{
					"attributes":{
						"POSITION":8,
						"NORMAL":9,
						"TEXCOORD_0":10
					},
					"indices":11,
					"material":2
				},
				{
					"attributes":{
						"POSITION":12,
						"NORMAL":13,
						"TEXCOORD_0":14
					},
					"indices":15,
					"material":3
				},
				{
					"attributes":{
						"POSITION":16,
						"NORMAL":17,
						"TEXCOORD_0":18
					},
					"indices":19,
					"material":4
				},
				{
					"attributes":{
						"POSITION":20,
						"NORMAL":21,
						"TEXCOORD_0":22
					},
					"indices":23,
					"material":5
				},
				{
					"attributes":{
						"POSITION":24,
						"NORMAL":25,
						"TEXCOORD_0":26
					},
					"indices":27,
					"material":6
				}
			]
		}
	],
	"accessors":[
		{
			"bufferView":0,
			"componentType":5126,
			"count":40,
			"max":[
				13.5,
				1.75,
				-13.25
			],
			"min":[
				7,
				1,
				-20.75
			],
			"type":"VEC3"
		},
		{
			"bufferView":1,
			"componentType":5126,
			"count":40,
			"type":"VEC3"
		},
		{
			"bufferView":2,
			"componentType":5126,
			"count":40,
			"type":"VEC2"
		},
		{
			"bufferView":3,
			"componentType":5123,
			"count":78,
			"type":"SCALAR"
		},
		{
			"bufferView":4,
			"componentType":5126,
			"count":262,
			"max":[
				13.5,
				1.75,
				-13.25
			],
			"min":[
				7,
				-0.25,
				-20.75
			],
			"type":"VEC3"
		},
		{
			"bufferView":5,
			"componentType":5126,
			"count":262,
			"type":"VEC3"
		},
		{
			"bufferView":6,
			"componentType":5126,
			"count":262,
			"type":"VEC2"
		},
		{
			"bufferView":7,
			"componentType":5123,
			"count":606,
			"type":"SCALAR"
		},
		{
			"bufferView":8,
			"componentType":5126,
			"count":64,
			"max":[
				12.75,
				1,
				-14
			],
			"min":[
				7.75,
				0.5,
				-20
			],
			"type":"VEC3"
		},
		{
			"bufferView":9,
			"componentType":5126,
			"count":64,
			"type":"VEC3"
		},
		{
			"bufferView":10,
			"componentType":5126,
			"count":64,
			"type":"VEC2"
		},
		{
			"bufferView":11,
			"componentType":5123,
			"count":120,
			"type":"SCALAR"
		},
		{
			"bufferView":12,
			"componentType":5126,
			"count":10,
			"max":[
				11.75,
				0,
				-15.125
			],
			"min":[
				8.75,
				-6,
				-19.125
			],
			"type":"VEC3"
		},
		{
			"bufferView":13,
			"componentType":5126,
			"count":10,
			"type":"VEC3"
		},
		{
			"bufferView":14,
			"componentType":5126,
			"count":10,
			"type":"VEC2"
		},
		{
			"bufferView":15,
			"componentType":5123,
			"count":18,
			"type":"SCALAR"
		},
		{
			"bufferView":16,
			"componentType":5126,
			"count":8,
			"max":[
				10.75,
				0,
				-15.125
			],
			"min":[
				9.75,
				-6,
				-19.125
			],
			"type":"VEC3"
		},
		{
			"bufferView":17,
			"componentType":5126,
			"count":8,
			"type":"VEC3"
		},
		{
			"bufferView":18,
			"componentType":5126,
			"count":8,
			"type":"VEC2"
		},
		{
			"bufferView":19,
			"componentType":5123,
			"count":12,
			"type":"SCALAR"
		},
		{
			"bufferView":20,
			"componentType":5126,
			"count":56,
			"max":[
				11.75,
				0,
				-14.625
			],
			"min":[
				8.75,
				-6,
				-19.625
			],
			"type":"VEC3"
		},
		{
			"bufferView":21,
			"componentType":5126,
			"count":56,
			"type":"VEC3"
		},
		{
			"bufferView":22,
			"componentType":5126,
			"count":56,
			"type":"VEC2"
		},
		{
			"bufferView":23,
			"componentType":5123,
			"count":96,
			"type":"SCALAR"
		},
		{
			"bufferView":24,
			"componentType":5126,
			"count":48,
			"max":[
				11.625,
				0,
				-14.75
			],
			"min":[
				8.875,
				-0.1875,
				-19.5
			],
			"type":"VEC3"
		},
		{
			"bufferView":25,
			"componentType":5126,
			"count":48,
			"type":"VEC3"
		},
		{
			"bufferView":26,
			"componentType":5126,
			"count":48,
			"type":"VEC2"
		},
		{
			"bufferView":27,
			"componentType":5123,
			"count":72,
			"type":"SCALAR"
		}
	],
	"bufferViews":[
		{
			"buffer":0,
			"byteLength":480,
			"byteOffset":0,
			"target":34962
		},
		{
			"buffer":0,
			"byteLength":480,
			"byteOffset":480,
			"target":34962
		},
		{
			"buffer":0,
			"byteLength":320,
			"byteOffset":960,
			"target":34962
		},
		{
			"buffer":0,
			"byteLength":156,
			"byteOffset":1280,
			"target":34963
		},
		{
			"buffer":0,
			"byteLength":3144,
			"byteOffset":1436,
			"target":34962
		},
		{
			"buffer":0,
			"byteLength":3144,
			"byteOffset":4580,
			"target":34962
		},
		{
			"buffer":0,
			"byteLength":2096,
			"byteOffset":7724,
			"target":34962
		},
		{
			"buffer":0,
			"byteLength":1212,
			"byteOffset":9820,
			"target":34963
		},
		{
			"buffer":0,
			"byteLength":768,
			"byteOffset":11032,
			"target":34962
		},
		{
			"buffer":0,
			"byteLength":768,
			"byteOffset":11800,
			"target":34962
		},
		{
			"buffer":0,
			"byteLength":512,
			"byteOffset":12568,
			"target":34962
		},
		{
			"buffer":0,
			"byteLength":240,
			"byteOffset":13080,
			"target":34963
		},
		{
			"buffer":0,
			"byteLength":120,
			"byteOffset":13320,
			"target":34962
		},
		{
			"buffer":0,
			"byteLength":120,
			"byteOffset":13440,
			"target":34962
		},
		{
			"buffer":0,
			"byteLength":80,
			"byteOffset":13560,
			"target":34962
		},
		{
			"buffer":0,
			"byteLength":36,
			"byteOffset":13640,
			"target":34963
		},
		{
			"buffer":0,
			"byteLength":96,
			"byteOffset":13676,
			"target":34962
		},
		{
			"buffer":0,
			"byteLength":96,
			"byteOffset":13772,
			"target":34962
		},
		{
			"buffer":0,
			"byteLength":64,
			"byteOffset":13868,
			"target":34962
		},
		{
			"buffer":0,
			"byteLength":24,
			"byteOffset":13932,
			"target":34963
		},
		{
			"buffer":0,
			"byteLength":672,
			"byteOffset":13956,
			"target":34962
		},
		{
			"buffer":0,
			"byteLength":672,
			"byteOffset":14628,
			"target":34962
		},
		{
			"buffer":0,
			"byteLength":448,
			"byteOffset":15300,
			"target":34962
		},
		{
			"buffer":0,
			"byteLength":192,
			"byteOffset":15748,
			"target":34963
		},
		{
			"buffer":0,
			"byteLength":576,
			"byteOffset":15940,
			"target":34962
		},
		{
			"buffer":0,
			"byteLength":576,
			"byteOffset":16516,
			"target":34962
		},
		{
			"buffer":0,
			"byteLength":384,
			"byteOffset":17092,
			"target":34962
		},
		{
			"buffer":0,
			"byteLength":144,
			"byteOffset":17476,
			"target":34963
		}
	],
	"buffers":[
		{
			"byteLength":17620,
			"uri":"rilke_whitedwarf_platform3_x2.bin"
		}
	]
}
