{
	"asset":{
		"generator":"Khronos glTF Blender I/O v4.5.48",
		"version":"2.0"
	},
	"scene":0,
	"scenes":[
		{
			"name":"Scene",
			"nodes":[
				0
			]
		}
	],
	"nodes":[
		{
			"mesh":0,
			"name":"Object"
		}
	],
	"materials":[
		{
			"doubleSided":true,
			"name":"BE_EWAL06",
			"pbrMetallicRoughness":{
				"baseColorFactor":[
					0.800000011920929,
					0.800000011920929,
					0.800000011920929,
					1
				],
				"metallicFactor":0,
				"roughnessFactor":0.5
			}
		},
		{
			"doubleSided":true,
			"name":"BE_ICEI03B",
			"pbrMetallicRoughness":{
				"baseColorFactor":[
					0.800000011920929,
					0.800000011920929,
					0.800000011920929,
					1
				],
				"metallicFactor":0,
				"roughnessFactor":0.5
			}
		},
		{
			"doubleSided":true,
			"name":"BE_ITELIG02",
			"pbrMetallicRoughness":{
				"baseColorFactor":[
					0.800000011920929,
					0.800000011920929,
					0.800000011920929,
					1
				],
				"metallicFactor":0,
				"roughnessFactor":0.5
			}
		},
		{
			"doubleSided":true,
			"name":"BE_ESPEC01",
			"pbrMetallicRoughness":{
				"baseColorFactor":[
					0.800000011920929,
					0.800000011920929,
					0.800000011920929,
					1
				],
				"metallicFactor":0,
				"roughnessFactor":0.5
			}
		},
		{
			"doubleSided":true,
			"name":"BE_IGENERICDARK",
			"pbrMetallicRoughness":{
				"baseColorFactor":[
					0.800000011920929,
					0.800000011920929,
					0.800000011920929,
					1
				],
				"metallicFactor":0,
				"roughnessFactor":0.5
			}
		},
		{
			"doubleSided":true,
			"name":"BE_ITECEI02",
			"pbrMetallicRoughness":{
				"baseColorFactor":[
					0.800000011920929,
					0.800000011920929,
					0.800000011920929,
					1
				],
				"metallicFactor":0,
				"roughnessFactor":0.5
			}
		},
		{
			"doubleSided":true,
			"name":"BE_ITEFLO01",
			"pbrMetallicRoughness":{
				"baseColorFactor":[
					0.800000011920929,
					0.800000011920929,
					0.800000011920929,
					1
				],
				"metallicFactor":0,
				"roughnessFactor":0.5
			}
		},
		{
			"doubleSided":true,
			"name":"BE_ICOWAL02",
			"pbrMetallicRoughness":{
				"baseColorFactor":[
					0.800000011920929,
					0.800000011920929,
					0.800000011920929,
					1
				],
				"metallicFactor":0,
				"roughnessFactor":0.5
			}
		},
		{
			"doubleSided":true,
			"name":"BE_ITEFLO02",
			"pbrMetallicRoughness":{
				"baseColorFactor":[
					0.800000011920929,
					0.800000011920929,
					0.800000011920929,
					1
				],
				"metallicFactor":0,
				"roughnessFactor":0.5
			}
		},
		{
			"doubleSided":true,
			"name":"BE_EPORT01E",
			"pbrMetallicRoughness":{
				"baseColorFactor":[
					0.800000011920929,
					0.800000011920929,
					0.800000011920929,
					1
				],
				"metallicFactor":0,
				"roughnessFactor":0.5
			}
		},
		{
			"doubleSided":true,
			"name":"BE_IHALIG",
			"pbrMetallicRoughness":{
				"baseColorFactor":[
					0.800000011920929,
					0.800000011920929,
					0.800000011920929,
					1
				],
				"metallicFactor":0,
				"roughnessFactor":0.5
			}
		},
		{
			"doubleSided":true,
			"name":"BE_ICHUTE02",
			"pbrMetallicRoughness":{
				"baseColorFactor":[
					0.800000011920929,
					0.800000011920929,
					0.800000011920929,
					1
				],
				"metallicFactor":0,
				"roughnessFactor":0.5
			}
		},
		{
			"doubleSided":true,
			"name":"BE_ITEDOO01",
			"pbrMetallicRoughness":{
				"baseColorFactor":[
					0.800000011920929,
					0.800000011920929,
					0.800000011920929,
					1
				],
				"metallicFactor":0,
				"roughnessFactor":0.5
			}
		},
		{
			"doubleSided":true,
			"name":"BE_ITEWAL02A",
			"pbrMetallicRoughness":{
				"baseColorFactor":[
					0.800000011920929,
					0.800000011920929,
					0.800000011920929,
					1
				],
				"metallicFactor":0,
				"roughnessFactor":0.5
			}
		},
		{
			"doubleSided":true,
			"name":"BE_ESPEC08",
			"pbrMetallicRoughness":{
				"baseColorFactor":[
					0.800000011920929,
					0.800000011920929,
					0.800000011920929,
					1
				],
				"metallicFactor":0,
				"roughnessFactor":0.5
			}
		},
		{
			"doubleSided":true,
			"name":"BE_ESPEC03",
			"pbrMetallicRoughness":{
				"baseColorFactor":[
					0.800000011920929,
					0.800000011920929,
					0.800000011920929,
					1
				],
				"metallicFactor":0,
				"roughnessFactor":0.5
			}
		},
		{
			"doubleSided":true,
			"name":"BE_ITEBOR02B",
			"pbrMetallicRoughness":{
				"baseColorFactor":[
					0.800000011920929,
					0.800000011920929,
					0.800000011920929,
					1
				],
				"metallicFactor":0,
				"roughnessFactor":0.5
			}
		},
		{
			"doubleSided":true,
			"name":"BE_ELIG03",
			"pbrMetallicRoughness":{
				"baseColorFactor":[
					0.800000011920929,
					0.800000011920929,
					0.800000011920929,
					1
				],
				"metallicFactor":0,
				"roughnessFactor":0.5
			}
		},
		{
			"doubleSided":true,
			"name":"BE_ICOLIGOLA",
			"pbrMetallicRoughness":{
				"baseColorFactor":[
					0.800000011920929,
					0.800000011920929,
					0.800000011920929,
					1
				],
				"metallicFactor":0,
				"roughnessFactor":0.5
			}
		},
		{
			"doubleSided":true,
			"name":"BE_ITEWAL01",
			"pbrMetallicRoughness":{
				"baseColorFactor":[
					0.800000011920929,
					0.800000011920929,
					0.800000011920929,
					1
				],
				"metallicFactor":0,
				"roughnessFactor":0.5
			}
		}
	],
	"meshes":[
		{
			"name":"Mesh",
			"primitives":[
				{
					"attributes":{
						"POSITION":0,
						"NORMAL":1,
						"TEXCOORD_0":2
					},
					"indices":3,
					"material":0
				},
				{
					"attributes":{
						"POSITION":4,
						"NORMAL":5,
						"TEXCOORD_0":6
					},
					"indices":7,
					"material":1
				},
				{
					"attributes":{
						"POSITION":8,
						"NORMAL":9,
						"TEXCOORD_0":10
					},
					"indices":11,
					"material":2
				},
				{
					"attributes":{
						"POSITION":12,
						"NORMAL":13,
						"TEXCOORD_0":14
					},
					"indices":15,
					"material":3
				},
				{
					"attributes":{
						"POSITION":16,
						"NORMAL":17,
						"TEXCOORD_0":18
					},
					"indices":19,
					"material":4
				},
				{
					"attributes":{
						"POSITION":20,
						"NORMAL":21,
						"TEXCOORD_0":22
					},
					"indices":23,
					"material":5
				},
				{
					"attributes":{
						"POSITION":24,
						"NORMAL":25,
						"TEXCOORD_0":26
					},
					"indices":27,
					"material":6
				},
				{
					"attributes":{
						"POSITION":28,
						"NORMAL":29,
						"TEXCOORD_0":30
					},
					"indices":31,
					"material":7
				},
				{
					"attributes":{
						"POSITION":32,
						"NORMAL":33,
						"TEXCOORD_0":34
					},
					"indices":35,
					"material":8
				},
				{
					"attributes":{
						"POSITION":36,
						"NORMAL":37,
						"TEXCOORD_0":38
					},
					"indices":39,
					"material":9
				},
				{
					"attributes":{
						"POSITION":40,
						"NORMAL":41,
						"TEXCOORD_0":42
					},
					"indices":43,
					"material":10
				},
				{
					"attributes":{
						"POSITION":44,
						"NORMAL":45,
						"TEXCOORD_0":46
					},
					"indices":47,
					"material":11
				},
				{
					"attributes":{
						"POSITION":48,
						"NORMAL":49,
						"TEXCOORD_0":50
					},
					"indices":51,
					"material":12
				},
				{
					"attributes":{
						"POSITION":52,
						"NORMAL":53,
						"TEXCOORD_0":54
					},
					"indices":55,
					"material":13
				},
				{
					"attributes":{
						"POSITION":56,
						"NORMAL":57,
						"TEXCOORD_0":58
					},
					"indices":59,
					"material":14
				},
				{
					"attributes":{
						"POSITION":60,
						"NORMAL":61,
						"TEXCOORD_0":62
					},
					"indices":63,
					"material":15
				},
				{
					"attributes":{
						"POSITION":64,
						"NORMAL":65,
						"TEXCOORD_0":66
					},
					"indices":67,
					"material":16
				},
				{
					"attributes":{
						"POSITION":68,
						"NORMAL":69,
						"TEXCOORD_0":70
					},
					"indices":71,
					"material":17
				},
				{
					"attributes":{
						"POSITION":72,
						"NORMAL":73,
						"TEXCOORD_0":74
					},
					"indices":75,
					"material":18
				},
				{
					"attributes":{
						"POSITION":76,
						"NORMAL":77,
						"TEXCOORD_0":78
					},
					"indices":79,
					"material":19
				}
			]
		}
	],
	"accessors":[
		{
			"bufferView":0,
			"componentType":5126,
			"count":28,
			"max":[
				16,
				2,
				36
			],
			"min":[
				-16,
				1,
				-8
			],
			"type":"VEC3"
		},
		{
			"bufferView":1,
			"componentType":5126,
			"count":28,
			"type":"VEC3"
		},
		{
			"bufferView":2,
			"componentType":5126,
			"count":28,
			"type":"VEC2"
		},
		{
			"bufferView":3,
			"componentType":5123,
			"count":72,
			"type":"SCALAR"
		},
		{
			"bufferView":4,
			"componentType":5126,
			"count":358,
			"max":[
				20,
				7.25,
				36
			],
			"min":[
				-20,
				0,
				-12
			],
			"type":"VEC3"
		},
		{
			"bufferView":5,
			"componentType":5126,
			"count":358,
			"type":"VEC3"
		},
		{
			"bufferView":6,
			"componentType":5126,
			"count":358,
			"type":"VEC2"
		},
		{
			"bufferView":7,
			"componentType":5123,
			"count":594,
			"type":"SCALAR"
		},
		{
			"bufferView":8,
			"componentType":5126,
			"count":48,
			"max":[
				20,
				7,
				36
			],
			"min":[
				-20,
				2,
				-12
			],
			"type":"VEC3"
		},
		{
			"bufferView":9,
			"componentType":5126,
			"count":48,
			"type":"VEC3"
		},
		{
			"bufferView":10,
			"componentType":5126,
			"count":48,
			"type":"VEC2"
		},
		{
			"bufferView":11,
			"componentType":5123,
			"count":72,
			"type":"SCALAR"
		},
		{
			"bufferView":12,
			"componentType":5126,
			"count":16,
			"max":[
				16,
				7,
				32
			],
			"min":[
				-16,
				3,
				-8
			],
			"type":"VEC3"
		},
		{
			"bufferView":13,
			"componentType":5126,
			"count":16,
			"type":"VEC3"
		},
		{
			"bufferView":14,
			"componentType":5126,
			"count":16,
			"type":"VEC2"
		},
		{
			"bufferView":15,
			"componentType":5123,
			"count":24,
			"type":"SCALAR"
		},
		{
			"bufferView":16,
			"componentType":5126,
			"count":346,
			"max":[
				20,
				16,
				36
			],
			"min":[
				-20,
				1,
				-12
			],
			"type":"VEC3"
		},
		{
			"bufferView":17,
			"componentType":5126,
			"count":346,
			"type":"VEC3"
		},
		{
			"bufferView":18,
			"componentType":5126,
			"count":346,
			"type":"VEC2"
		},
		{
			"bufferView":19,
			"componentType":5123,
			"count":588,
			"type":"SCALAR"
		},
		{
			"bufferView":20,
			"componentType":5126,
			"count":64,
			"max":[
				19,
				5,
				36
			],
			"min":[
				-19,
				2,
				-11
			],
			"type":"VEC3"
		},
		{
			"bufferView":21,
			"componentType":5126,
			"count":64,
			"type":"VEC3"
		},
		{
			"bufferView":22,
			"componentType":5126,
			"count":64,
			"type":"VEC2"
		},
		{
			"bufferView":23,
			"componentType":5123,
			"count":114,
			"type":"SCALAR"
		},
		{
			"bufferView":24,
			"componentType":5126,
			"count":18,
			"max":[
				20,
				4,
				29
			],
			"min":[
				-20,
				2,
				-12
			],
			"type":"VEC3"
		},
		{
			"bufferView":25,
			"componentType":5126,
			"count":18,
			"type":"VEC3"
		},
		{
			"bufferView":26,
			"componentType":5126,
			"count":18,
			"type":"VEC2"
		},
		{
			"bufferView":27,
			"componentType":5123,
			"count":36,
			"type":"SCALAR"
		},
		{
			"bufferView":28,
			"componentType":5126,
			"count":12,
			"max":[
				16,
				5,
				24
			],
			"min":[
				-16,
				4,
				-8
			],
			"type":"VEC3"
		},
		{
			"bufferView":29,
			"componentType":5126,
			"count":12,
			"type":"VEC3"
		},
		{
			"bufferView":30,
			"componentType":5126,
			"count":12,
			"type":"VEC2"
		},
		{
			"bufferView":31,
			"componentType":5123,
			"count":18,
			"type":"SCALAR"
		},
		{
			"bufferView":32,
			"componentType":5126,
			"count":12,
			"max":[
				14,
				5,
				24
			],
			"min":[
				-14,
				3,
				-6
			],
			"type":"VEC3"
		},
		{
			"bufferView":33,
			"componentType":5126,
			"count":12,
			"type":"VEC3"
		},
		{
			"bufferView":34,
			"componentType":5126,
			"count":12,
			"type":"VEC2"
		},
		{
			"bufferView":35,
			"componentType":5123,
			"count":18,
			"type":"SCALAR"
		},
		{
			"bufferView":36,
			"componentType":5126,
			"count":8,
			"max":[
				8,
				7,
				32
			],
			"min":[
				-8,
				3,
				30
			],
			"type":"VEC3"
		},
		{
			"bufferView":37,
			"componentType":5126,
			"count":8,
			"type":"VEC3"
		},
		{
			"bufferView":38,
			"componentType":5126,
			"count":8,
			"type":"VEC2"
		},
		{
			"bufferView":39,
			"componentType":5123,
			"count":12,
			"type":"SCALAR"
		},
		{
			"bufferView":40,
			"componentType":5126,
			"count":32,
			"max":[
				16,
				7,
				32
			],
			"min":[
				-16,
				2,
				-8
			],
			"type":"VEC3"
		},
		{
			"bufferView":41,
			"componentType":5126,
			"count":32,
			"type":"VEC3"
		},
		{
			"bufferView":42,
			"componentType":5126,
			"count":32,
			"type":"VEC2"
		},
		{
			"bufferView":43,
			"componentType":5123,
			"count":48,
			"type":"SCALAR"
		},
		{
			"bufferView":44,
			"componentType":5126,
			"count":292,
			"max":[
				16,
				15.5,
				21.5
			],
			"min":[
				-16,
				5.5,
				-8
			],
			"type":"VEC3"
		},
		{
			"bufferView":45,
			"componentType":5126,
			"count":292,
			"type":"VEC3"
		},
		{
			"bufferView":46,
			"componentType":5126,
			"count":292,
			"type":"VEC2"
		},
		{
			"bufferView":47,
			"componentType":5123,
			"count":588,
			"type":"SCALAR"
		},
		{
			"bufferView":48,
			"componentType":5126,
			"count":82,
			"max":[
				16,
				7,
				21
			],
			"min":[
				-16,
				5,
				-8
			],
			"type":"VEC3"
		},
		{
			"bufferView":49,
			"componentType":5126,
			"count":82,
			"type":"VEC3"
		},
		{
			"bufferView":50,
			"componentType":5126,
			"count":82,
			"type":"VEC2"
		},
		{
			"bufferView":51,
			"componentType":5123,
			"count":138,
			"type":"SCALAR"
		},
		{
			"bufferView":52,
			"componentType":5126,
			"count":120,
			"max":[
				16,
				7,
				21
			],
			"min":[
				-16,
				5,
				-8
			],
			"type":"VEC3"
		},
		{
			"bufferView":53,
			"componentType":5126,
			"count":120,
			"type":"VEC3"
		},
		{
			"bufferView":54,
			"componentType":5126,
			"count":120,
			"type":"VEC2"
		},
		{
			"bufferView":55,
			"componentType":5123,
			"count":216,
			"type":"SCALAR"
		},
		{
			"bufferView":56,
			"componentType":5126,
			"count":24,
			"max":[
				12.25,
				16,
				22.5
			],
			"min":[
				-12.25,
				15,
				-4.25
			],
			"type":"VEC3"
		},
		{
			"bufferView":57,
			"componentType":5126,
			"count":24,
			"type":"VEC3"
		},
		{
			"bufferView":58,
			"componentType":5126,
			"count":24,
			"type":"VEC2"
		},
		{
			"bufferView":59,
			"componentType":5123,
			"count":36,
			"type":"SCALAR"
		},
		{
			"bufferView":60,
			"componentType":5126,
			"count":40,
			"max":[
				12,
				3,
				32
			],
			"min":[
				-12,
				2,
				-4
			],
			"type":"VEC3"
		},
		{
			"bufferView":61,
			"componentType":5126,
			"count":40,
			"type":"VEC3"
		},
		{
			"bufferView":62,
			"componentType":5126,
			"count":40,
			"type":"VEC2"
		},
		{
			"bufferView":63,
			"componentType":5123,
			"count":60,
			"type":"SCALAR"
		},
		{
			"bufferView":64,
			"componentType":5126,
			"count":12,
			"max":[
				12,
				3,
				24
			],
			"min":[
				-12,
				2,
				-4
			],
			"type":"VEC3"
		},
		{
			"bufferView":65,
			"componentType":5126,
			"count":12,
			"type":"VEC3"
		},
		{
			"bufferView":66,
			"componentType":5126,
			"count":12,
			"type":"VEC2"
		},
		{
			"bufferView":67,
			"componentType":5123,
			"count":18,
			"type":"SCALAR"
		},
		{
			"bufferView":68,
			"componentType":5126,
			"count":64,
			"max":[
				19,
				5.5,
				24
			],
			"min":[
				-19,
				2.5,
				-11
			],
			"type":"VEC3"
		},
		{
			"bufferView":69,
			"componentType":5126,
			"count":64,
			"type":"VEC3"
		},
		{
			"bufferView":70,
			"componentType":5126,
			"count":64,
			"type":"VEC2"
		},
		{
			"bufferView":71,
			"componentType":5123,
			"count":96,
			"type":"SCALAR"
		},
		{
			"bufferView":72,
			"componentType":5126,
			"count":48,
			"max":[
				15.75,
				7.15625,
				20.75
			],
			"min":[
				-15.75,
				6.59375,
				-7.75
			],
			"type":"VEC3"
		},
		{
			"bufferView":73,
			"componentType":5126,
			"count":48,
			"type":"VEC3"
		},
		{
			"bufferView":74,
			"componentType":5126,
			"count":48,
			"type":"VEC2"
		},
		{
			"bufferView":75,
			"componentType":5123,
			"count":72,
			"type":"SCALAR"
		},
		{
			"bufferView":76,
			"componentType":5126,
			"count":48,
			"max":[
				15.75,
				6,
				20.75
			],
			"min":[
				-15.75,
				5.5,
				-7.75
			],
			"type":"VEC3"
		},
		{
			"bufferView":77,
			"componentType":5126,
			"count":48,
			"type":"VEC3"
		},
		{
			"bufferView":78,
			"componentType":5126,
			"count":48,
			"type":"VEC2"
		},
		{
			"bufferView":79,
			"componentType":5123,
			"count":72,
			"type":"SCALAR"
		}
	],
	"bufferViews":[
		{
			"buffer":0,
			"byteLength":336,
			"byteOffset":0,
			"target":34962
		},
		{
			"buffer":0,
			"byteLength":336,
			"byteOffset":336,
			"target":34962
		},
		{
			"buffer":0,
			"byteLength":224,
			"byteOffset":672,
			"target":34962
		},
		{
			"buffer":0,
			"byteLength":144,
			"byteOffset":896,
			"target":34963
		},
		{
			"buffer":0,
			"byteLength":4296,
			"byteOffset":1040,
			"target":34962
		},
		{
			"buffer":0,
			"byteLength":4296,
			"byteOffset":5336,
			"target":34962
		},
		{
			"buffer":0,
			"byteLength":2864,
			"byteOffset":9632,
			"target":34962
		},
		{
			"buffer":0,
			"byteLength":1188,
			"byteOffset":12496,
			"target":34963
		},
		{
			"buffer":0,
			"byteLength":576,
			"byteOffset":13684,
			"target":34962
		},
		{
			"buffer":0,
			"byteLength":576,
			"byteOffset":14260,
			"target":34962
		},
		{
			"buffer":0,
			"byteLength":384,
			"byteOffset":14836,
			"target":34962
		},
		{
			"buffer":0,
			"byteLength":144,
			"byteOffset":15220,
			"target":34963
		},
		{
			"buffer":0,
			"byteLength":192,
			"byteOffset":15364,
			"target":34962
		},
		{
			"buffer":0,
			"byteLength":192,
			"byteOffset":15556,
			"target":34962
		},
		{
			"buffer":0,
			"byteLength":128,
			"byteOffset":15748,
			"target":34962
		},
		{
			"buffer":0,
			"byteLength":48,
			"byteOffset":15876,
			"target":34963
		},
		{
			"buffer":0,
			"byteLength":4152,
			"byteOffset":15924,
			"target":34962
		},
		{
			"buffer":0,
			"byteLength":4152,
			"byteOffset":20076,
			"target":34962
		},
		{
			"buffer":0,
			"byteLength":2768,
			"byteOffset":24228,
			"target":34962
		},
		{
			"buffer":0,
			"byteLength":1176,
			"byteOffset":26996,
			"target":34963
		},
		{
			"buffer":0,
			"byteLength":768,
			"byteOffset":28172,
			"target":34962
		},
		{
			"buffer":0,
			"byteLength":768,
			"byteOffset":28940,
			"target":34962
		},
		{
			"buffer":0,
			"byteLength":512,
			"byteOffset":29708,
			"target":34962
		},
		{
			"buffer":0,
			"byteLength":228,
			"byteOffset":30220,
			"target":34963
		},
		{
			"buffer":0,
			"byteLength":216,
			"byteOffset":30448,
			"target":34962
		},
		{
			"buffer":0,
			"byteLength":216,
			"byteOffset":30664,
			"target":34962
		},
		{
			"buffer":0,
			"byteLength":144,
			"byteOffset":30880,
			"target":34962
		},
		{
			"buffer":0,
			"byteLength":72,
			"byteOffset":31024,
			"target":34963
		},
		{
			"buffer":0,
			"byteLength":144,
			"byteOffset":31096,
			"target":34962
		},
		{
			"buffer":0,
			"byteLength":144,
			"byteOffset":31240,
			"target":34962
		},
		{
			"buffer":0,
			"byteLength":96,
			"byteOffset":31384,
			"target":34962
		},
		{
			"buffer":0,
			"byteLength":36,
			"byteOffset":31480,
			"target":34963
		},
		{
			"buffer":0,
			"byteLength":144,
			"byteOffset":31516,
			"target":34962
		},
		{
			"buffer":0,
			"byteLength":144,
			"byteOffset":31660,
			"target":34962
		},
		{
			"buffer":0,
			"byteLength":96,
			"byteOffset":31804,
			"target":34962
		},
		{
			"buffer":0,
			"byteLength":36,
			"byteOffset":31900,
			"target":34963
		},
		{
			"buffer":0,
			"byteLength":96,
			"byteOffset":31936,
			"target":34962
		},
		{
			"buffer":0,
			"byteLength":96,
			"byteOffset":32032,
			"target":34962
		},
		{
			"buffer":0,
			"byteLength":64,
			"byteOffset":32128,
			"target":34962
		},
		{
			"buffer":0,
			"byteLength":24,
			"byteOffset":32192,
			"target":34963
		},
		{
			"buffer":0,
			"byteLength":384,
			"byteOffset":32216,
			"target":34962
		},
		{
			"buffer":0,
			"byteLength":384,
			"byteOffset":32600,
			"target":34962
		},
		{
			"buffer":0,
			"byteLength":256,
			"byteOffset":32984,
			"target":34962
		},
		{
			"buffer":0,
			"byteLength":96,
			"byteOffset":33240,
			"target":34963
		},
		{
			"buffer":0,
			"byteLength":3504,
			"byteOffset":33336,
			"target":34962
		},
		{
			"buffer":0,
			"byteLength":3504,
			"byteOffset":36840,
			"target":34962
		},
		{
			"buffer":0,
			"byteLength":2336,
			"byteOffset":40344,
			"target":34962
		},
		{
			"buffer":0,
			"byteLength":1176,
			"byteOffset":42680,
			"target":34963
		},
		{
			"buffer":0,
			"byteLength":984,
			"byteOffset":43856,
			"target":34962
		},
		{
			"buffer":0,
			"byteLength":984,
			"byteOffset":44840,
			"target":34962
		},
		{
			"buffer":0,
			"byteLength":656,
			"byteOffset":45824,
			"target":34962
		},
		{
			"buffer":0,
			"byteLength":276,
			"byteOffset":46480,
			"target":34963
		},
		{
			"buffer":0,
			"byteLength":1440,
			"byteOffset":46756,
			"target":34962
		},
		{
			"buffer":0,
			"byteLength":1440,
			"byteOffset":48196,
			"target":34962
		},
		{
			"buffer":0,
			"byteLength":960,
			"byteOffset":49636,
			"target":34962
		},
		{
			"buffer":0,
			"byteLength":432,
			"byteOffset":50596,
			"target":34963
		},
		{
			"buffer":0,
			"byteLength":288,
			"byteOffset":51028,
			"target":34962
		},
		{
			"buffer":0,
			"byteLength":288,
			"byteOffset":51316,
			"target":34962
		},
		{
			"buffer":0,
			"byteLength":192,
			"byteOffset":51604,
			"target":34962
		},
		{
			"buffer":0,
			"byteLength":72,
			"byteOffset":51796,
			"target":34963
		},
		{
			"buffer":0,
			"byteLength":480,
			"byteOffset":51868,
			"target":34962
		},
		{
			"buffer":0,
			"byteLength":480,
			"byteOffset":52348,
			"target":34962
		},
		{
			"buffer":0,
			"byteLength":320,
			"byteOffset":52828,
			"target":34962
		},
		{
			"buffer":0,
			"byteLength":120,
			"byteOffset":53148,
			"target":34963
		},
		{
			"buffer":0,
			"byteLength":144,
			"byteOffset":53268,
			"target":34962
		},
		{
			"buffer":0,
			"byteLength":144,
			"byteOffset":53412,
			"target":34962
		},
		{
			"buffer":0,
			"byteLength":96,
			"byteOffset":53556,
			"target":34962
		},
		{
			"buffer":0,
			"byteLength":36,
			"byteOffset":53652,
			"target":34963
		},
		{
			"buffer":0,
			"byteLength":768,
			"byteOffset":53688,
			"target":34962
		},
		{
			"buffer":0,
			"byteLength":768,
			"byteOffset":54456,
			"target":34962
		},
		{
			"buffer":0,
			"byteLength":512,
			"byteOffset":55224,
			"target":34962
		},
		{
			"buffer":0,
			"byteLength":192,
			"byteOffset":55736,
			"target":34963
		},
		{
			"buffer":0,
			"byteLength":576,
			"byteOffset":55928,
			"target":34962
		},
		{
			"buffer":0,
			"byteLength":576,
			"byteOffset":56504,
			"target":34962
		},
		{
			"buffer":0,
			"byteLength":384,
			"byteOffset":57080,
			"target":34962
		},
		{
			"buffer":0,
			"byteLength":144,
			"byteOffset":57464,
			"target":34963
		},
		{
			"buffer":0,
			"byteLength":576,
			"byteOffset":57608,
			"target":34962
		},
		{
			"buffer":0,
			"byteLength":576,
			"byteOffset":58184,
			"target":34962
		},
		{
			"buffer":0,
			"byteLength":384,
			"byteOffset":58760,
			"target":34962
		},
		{
			"buffer":0,
			"byteLength":144,
			"byteOffset":59144,
			"target":34963
		}
	],
	"buffers":[
		{
			"byteLength":59288,
			"uri":"rilke_whitedwarf_vehiclepad_x2.bin"
		}
	]
}
