{
	"asset":{
		"generator":"Khronos glTF Blender I/O v4.5.48",
		"version":"2.0"
	},
	"scene":0,
	"scenes":[
		{
			"name":"Scene",
			"nodes":[
				0
			]
		}
	],
	"nodes":[
		{
			"mesh":0,
			"name":"Object"
		}
	],
	"materials":[
		{
			"doubleSided":true,
			"name":"SW_IWAL03",
			"pbrMetallicRoughness":{
				"baseColorFactor":[
					0.800000011920929,
					0.800000011920929,
					0.800000011920929,
					1
				],
				"metallicFactor":0,
				"roughnessFactor":0.5
			}
		},
		{
			"doubleSided":true,
			"name":"SW_EWAL06B",
			"pbrMetallicRoughness":{
				"baseColorFactor":[
					0.800000011920929,
					0.800000011920929,
					0.800000011920929,
					1
				],
				"metallicFactor":0,
				"roughnessFactor":0.5
			}
		},
		{
			"doubleSided":true,
			"name":"SW_IFLOOR01B",
			"pbrMetallicRoughness":{
				"baseColorFactor":[
					0.800000011920929,
					0.800000011920929,
					0.800000011920929,
					1
				],
				"metallicFactor":0,
				"roughnessFactor":0.5
			}
		},
		{
			"doubleSided":true,
			"name":"SW_IPIPE02",
			"pbrMetallicRoughness":{
				"baseColorFactor":[
					0.800000011920929,
					0.800000011920929,
					0.800000011920929,
					1
				],
				"metallicFactor":0,
				"roughnessFactor":0.5
			}
		},
		{
			"doubleSided":true,
			"name":"SW_FLOORGRATE",
			"pbrMetallicRoughness":{
				"baseColorFactor":[
					0.800000011920929,
					0.800000011920929,
					0.800000011920929,
					1
				],
				"metallicFactor":0,
				"roughnessFactor":0.5
			}
		},
		{
			"doubleSided":true,
			"name":"SW_IBOR01",
			"pbrMetallicRoughness":{
				"baseColorFactor":[
					0.800000011920929,
					0.800000011920929,
					0.800000011920929,
					1
				],
				"metallicFactor":0,
				"roughnessFactor":0.5
			}
		},
		{
			"doubleSided":true,
			"name":"SW_IWAL02",
			"pbrMetallicRoughness":{
				"baseColorFactor":[
					0.800000011920929,
					0.800000011920929,
					0.800000011920929,
					1
				],
				"metallicFactor":0,
				"roughnessFactor":0.5
			}
		},
		{
			"doubleSided":true,
			"name":"SW_EBOR01",
			"pbrMetallicRoughness":{
				"baseColorFactor":[
					0.800000011920929,
					0.800000011920929,
					0.800000011920929,
					1
				],
				"metallicFactor":0,
				"roughnessFactor":0.5
			}
		},
		{
			"doubleSided":true,
			"name":"SW_ESPEC01",
			"pbrMetallicRoughness":{
				"baseColorFactor":[
					0.800000011920929,
					0.800000011920929,
					0.800000011920929,
					1
				],
				"metallicFactor":0,
				"roughnessFactor":0.5
			}
		},
		{
			"doubleSided":true,
			"name":"SW_ESPEC02",
			"pbrMetallicRoughness":{
				"baseColorFactor":[
					0.800000011920929,
					0.800000011920929,
					0.800000011920929,
					1
				],
				"metallicFactor":0,
				"roughnessFactor":0.5
			}
		},
		{
			"doubleSided":true,
			"name":"SW_IPIPE01A",
			"pbrMetallicRoughness":{
				"baseColorFactor":[
					0.800000011920929,
					0.800000011920929,
					0.800000011920929,
					1
				],
				"metallicFactor":0,
				"roughnessFactor":0.5
			}
		},
		{
			"doubleSided":true,
			"name":"SW_ICOL01A",
			"pbrMetallicRoughness":{
				"baseColorFactor":[
					0.800000011920929,
					0.800000011920929,
					0.800000011920929,
					1
				],
				"metallicFactor":0,
				"roughnessFactor":0.5
			}
		},
		{
			"doubleSided":true,
			"name":"SW_THRESH01ON",
			"pbrMetallicRoughness":{
				"baseColorFactor":[
					0.800000011920929,
					0.800000011920929,
					0.800000011920929,
					1
				],
				"metallicFactor":0,
				"roughnessFactor":0.5
			}
		},
		{
			"doubleSided":true,
			"name":"SW_IFLOOR01",
			"pbrMetallicRoughness":{
				"baseColorFactor":[
					0.800000011920929,
					0.800000011920929,
					0.800000011920929,
					1
				],
				"metallicFactor":0,
				"roughnessFactor":0.5
			}
		},
		{
			"doubleSided":true,
			"name":"SW_EDOOR02",
			"pbrMetallicRoughness":{
				"baseColorFactor":[
					0.800000011920929,
					0.800000011920929,
					0.800000011920929,
					1
				],
				"metallicFactor":0,
				"roughnessFactor":0.5
			}
		},
		{
			"doubleSided":true,
			"name":"SW_IWAL01",
			"pbrMetallicRoughness":{
				"baseColorFactor":[
					0.800000011920929,
					0.800000011920929,
					0.800000011920929,
					1
				],
				"metallicFactor":0,
				"roughnessFactor":0.5
			}
		},
		{
			"doubleSided":true,
			"name":"SW_IBORLIG01",
			"pbrMetallicRoughness":{
				"baseColorFactor":[
					0.800000011920929,
					0.800000011920929,
					0.800000011920929,
					1
				],
				"metallicFactor":0,
				"roughnessFactor":0.5
			}
		},
		{
			"doubleSided":true,
			"name":"SW_EDOOR03",
			"pbrMetallicRoughness":{
				"baseColorFactor":[
					0.800000011920929,
					0.800000011920929,
					0.800000011920929,
					1
				],
				"metallicFactor":0,
				"roughnessFactor":0.5
			}
		},
		{
			"doubleSided":true,
			"name":"SW_ICOLIGOLA",
			"pbrMetallicRoughness":{
				"baseColorFactor":[
					0.800000011920929,
					0.800000011920929,
					0.800000011920929,
					1
				],
				"metallicFactor":0,
				"roughnessFactor":0.5
			}
		}
	],
	"meshes":[
		{
			"name":"Mesh",
			"primitives":[
				{
					"attributes":{
						"POSITION":0,
						"NORMAL":1,
						"TEXCOORD_0":2
					},
					"indices":3,
					"material":0
				},
				{
					"attributes":{
						"POSITION":4,
						"NORMAL":5,
						"TEXCOORD_0":6
					},
					"indices":7,
					"material":1
				},
				{
					"attributes":{
						"POSITION":8,
						"NORMAL":9,
						"TEXCOORD_0":10
					},
					"indices":11,
					"material":2
				},
				{
					"attributes":{
						"POSITION":12,
						"NORMAL":13,
						"TEXCOORD_0":14
					},
					"indices":15,
					"material":3
				},
				{
					"attributes":{
						"POSITION":16,
						"NORMAL":17,
						"TEXCOORD_0":18
					},
					"indices":19,
					"material":4
				},
				{
					"attributes":{
						"POSITION":20,
						"NORMAL":21,
						"TEXCOORD_0":22
					},
					"indices":23,
					"material":5
				},
				{
					"attributes":{
						"POSITION":24,
						"NORMAL":25,
						"TEXCOORD_0":26
					},
					"indices":27,
					"material":6
				},
				{
					"attributes":{
						"POSITION":28,
						"NORMAL":29,
						"TEXCOORD_0":30
					},
					"indices":31,
					"material":7
				},
				{
					"attributes":{
						"POSITION":32,
						"NORMAL":33,
						"TEXCOORD_0":34
					},
					"indices":35,
					"material":8
				},
				{
					"attributes":{
						"POSITION":36,
						"NORMAL":37,
						"TEXCOORD_0":38
					},
					"indices":39,
					"material":9
				},
				{
					"attributes":{
						"POSITION":40,
						"NORMAL":41,
						"TEXCOORD_0":42
					},
					"indices":43,
					"material":10
				},
				{
					"attributes":{
						"POSITION":44,
						"NORMAL":45,
						"TEXCOORD_0":46
					},
					"indices":47,
					"material":11
				},
				{
					"attributes":{
						"POSITION":48,
						"NORMAL":49,
						"TEXCOORD_0":50
					},
					"indices":51,
					"material":12
				},
				{
					"attributes":{
						"POSITION":52,
						"NORMAL":53,
						"TEXCOORD_0":54
					},
					"indices":55,
					"material":13
				},
				{
					"attributes":{
						"POSITION":56,
						"NORMAL":57,
						"TEXCOORD_0":58
					},
					"indices":59,
					"material":14
				},
				{
					"attributes":{
						"POSITION":60,
						"NORMAL":61,
						"TEXCOORD_0":62
					},
					"indices":63,
					"material":15
				},
				{
					"attributes":{
						"POSITION":64,
						"NORMAL":65,
						"TEXCOORD_0":66
					},
					"indices":67,
					"material":16
				},
				{
					"attributes":{
						"POSITION":68,
						"NORMAL":69,
						"TEXCOORD_0":70
					},
					"indices":71,
					"material":17
				},
				{
					"attributes":{
						"POSITION":72,
						"NORMAL":73,
						"TEXCOORD_0":74
					},
					"indices":75,
					"material":18
				}
			]
		}
	],
	"accessors":[
		{
			"bufferView":0,
			"componentType":5126,
			"count":378,
			"max":[
				18,
				-19,
				20
			],
			"min":[
				-15,
				-72,
				-20
			],
			"type":"VEC3"
		},
		{
			"bufferView":1,
			"componentType":5126,
			"count":378,
			"type":"VEC3"
		},
		{
			"bufferView":2,
			"componentType":5126,
			"count":378,
			"type":"VEC2"
		},
		{
			"bufferView":3,
			"componentType":5123,
			"count":1020,
			"type":"SCALAR"
		},
		{
			"bufferView":4,
			"componentType":5126,
			"count":199,
			"max":[
				10,
				-21,
				14
			],
			"min":[
				-10,
				-37.5,
				-14
			],
			"type":"VEC3"
		},
		{
			"bufferView":5,
			"componentType":5126,
			"count":199,
			"type":"VEC3"
		},
		{
			"bufferView":6,
			"componentType":5126,
			"count":199,
			"type":"VEC2"
		},
		{
			"bufferView":7,
			"componentType":5123,
			"count":483,
			"type":"SCALAR"
		},
		{
			"bufferView":8,
			"componentType":5126,
			"count":14,
			"max":[
				10,
				-19.5,
				14
			],
			"min":[
				-10,
				-19.5,
				-14
			],
			"type":"VEC3"
		},
		{
			"bufferView":9,
			"componentType":5126,
			"count":14,
			"type":"VEC3"
		},
		{
			"bufferView":10,
			"componentType":5126,
			"count":14,
			"type":"VEC2"
		},
		{
			"bufferView":11,
			"componentType":5123,
			"count":42,
			"type":"SCALAR"
		},
		{
			"bufferView":12,
			"componentType":5126,
			"count":137,
			"max":[
				11.5,
				-19,
				6
			],
			"min":[
				-14,
				-72,
				-6
			],
			"type":"VEC3"
		},
		{
			"bufferView":13,
			"componentType":5126,
			"count":137,
			"type":"VEC3"
		},
		{
			"bufferView":14,
			"componentType":5126,
			"count":137,
			"type":"VEC2"
		},
		{
			"bufferView":15,
			"componentType":5123,
			"count":225,
			"type":"SCALAR"
		},
		{
			"bufferView":16,
			"componentType":5126,
			"count":55,
			"max":[
				18,
				-25,
				14
			],
			"min":[
				-10,
				-37.5,
				-14
			],
			"type":"VEC3"
		},
		{
			"bufferView":17,
			"componentType":5126,
			"count":55,
			"type":"VEC3"
		},
		{
			"bufferView":18,
			"componentType":5126,
			"count":55,
			"type":"VEC2"
		},
		{
			"bufferView":19,
			"componentType":5123,
			"count":159,
			"type":"SCALAR"
		},
		{
			"bufferView":20,
			"componentType":5126,
			"count":20,
			"max":[
				16,
				-42,
				4
			],
			"min":[
				15.75,
				-50,
				-4
			],
			"type":"VEC3"
		},
		{
			"bufferView":21,
			"componentType":5126,
			"count":20,
			"type":"VEC3"
		},
		{
			"bufferView":22,
			"componentType":5126,
			"count":20,
			"type":"VEC2"
		},
		{
			"bufferView":23,
			"componentType":5123,
			"count":36,
			"type":"SCALAR"
		},
		{
			"bufferView":24,
			"componentType":5126,
			"count":222,
			"max":[
				16,
				-14,
				18
			],
			"min":[
				-13.5,
				-72,
				-18
			],
			"type":"VEC3"
		},
		{
			"bufferView":25,
			"componentType":5126,
			"count":222,
			"type":"VEC3"
		},
		{
			"bufferView":26,
			"componentType":5126,
			"count":222,
			"type":"VEC2"
		},
		{
			"bufferView":27,
			"componentType":5123,
			"count":456,
			"type":"SCALAR"
		},
		{
			"bufferView":28,
			"componentType":5126,
			"count":44,
			"max":[
				18,
				-21,
				8.5
			],
			"min":[
				11,
				-29,
				-8.5
			],
			"type":"VEC3"
		},
		{
			"bufferView":29,
			"componentType":5126,
			"count":44,
			"type":"VEC3"
		},
		{
			"bufferView":30,
			"componentType":5126,
			"count":44,
			"type":"VEC2"
		},
		{
			"bufferView":31,
			"componentType":5123,
			"count":72,
			"type":"SCALAR"
		},
		{
			"bufferView":32,
			"componentType":5126,
			"count":54,
			"max":[
				16,
				-14,
				20
			],
			"min":[
				-15,
				-18,
				-20
			],
			"type":"VEC3"
		},
		{
			"bufferView":33,
			"componentType":5126,
			"count":54,
			"type":"VEC3"
		},
		{
			"bufferView":34,
			"componentType":5126,
			"count":54,
			"type":"VEC2"
		},
		{
			"bufferView":35,
			"componentType":5123,
			"count":96,
			"type":"SCALAR"
		},
		{
			"bufferView":36,
			"componentType":5126,
			"count":68,
			"max":[
				16,
				-18,
				20
			],
			"min":[
				-15,
				-19,
				-20
			],
			"type":"VEC3"
		},
		{
			"bufferView":37,
			"componentType":5126,
			"count":68,
			"type":"VEC3"
		},
		{
			"bufferView":38,
			"componentType":5126,
			"count":68,
			"type":"VEC2"
		},
		{
			"bufferView":39,
			"componentType":5123,
			"count":126,
			"type":"SCALAR"
		},
		{
			"bufferView":40,
			"componentType":5126,
			"count":320,
			"max":[
				10,
				-21,
				11
			],
			"min":[
				-10,
				-22,
				-11
			],
			"type":"VEC3"
		},
		{
			"bufferView":41,
			"componentType":5126,
			"count":320,
			"type":"VEC3"
		},
		{
			"bufferView":42,
			"componentType":5126,
			"count":320,
			"type":"VEC2"
		},
		{
			"bufferView":43,
			"componentType":5123,
			"count":480,
			"type":"SCALAR"
		},
		{
			"bufferView":44,
			"componentType":5126,
			"count":24,
			"max":[
				6,
				-19,
				18
			],
			"min":[
				-13.5,
				-72,
				-18
			],
			"type":"VEC3"
		},
		{
			"bufferView":45,
			"componentType":5126,
			"count":24,
			"type":"VEC3"
		},
		{
			"bufferView":46,
			"componentType":5126,
			"count":24,
			"type":"VEC2"
		},
		{
			"bufferView":47,
			"componentType":5123,
			"count":36,
			"type":"SCALAR"
		},
		{
			"bufferView":48,
			"componentType":5126,
			"count":8,
			"max":[
				2,
				-19,
				17
			],
			"min":[
				-2,
				-72,
				-17
			],
			"type":"VEC3"
		},
		{
			"bufferView":49,
			"componentType":5126,
			"count":8,
			"type":"VEC3"
		},
		{
			"bufferView":50,
			"componentType":5126,
			"count":8,
			"type":"VEC2"
		},
		{
			"bufferView":51,
			"componentType":5123,
			"count":12,
			"type":"SCALAR"
		},
		{
			"bufferView":52,
			"componentType":5126,
			"count":6,
			"max":[
				15.75,
				-42,
				4
			],
			"min":[
				15.75,
				-50,
				-4
			],
			"type":"VEC3"
		},
		{
			"bufferView":53,
			"componentType":5126,
			"count":6,
			"type":"VEC3"
		},
		{
			"bufferView":54,
			"componentType":5126,
			"count":6,
			"type":"VEC2"
		},
		{
			"bufferView":55,
			"componentType":5123,
			"count":12,
			"type":"SCALAR"
		},
		{
			"bufferView":56,
			"componentType":5126,
			"count":8,
			"max":[
				18,
				-23,
				6.5
			],
			"min":[
				18,
				-25,
				-6.5
			],
			"type":"VEC3"
		},
		{
			"bufferView":57,
			"componentType":5126,
			"count":8,
			"type":"VEC3"
		},
		{
			"bufferView":58,
			"componentType":5126,
			"count":8,
			"type":"VEC2"
		},
		{
			"bufferView":59,
			"componentType":5123,
			"count":12,
			"type":"SCALAR"
		},
		{
			"bufferView":60,
			"componentType":5126,
			"count":246,
			"max":[
				18,
				-19.5,
				14
			],
			"min":[
				-4,
				-37.5,
				-14
			],
			"type":"VEC3"
		},
		{
			"bufferView":61,
			"componentType":5126,
			"count":246,
			"type":"VEC3"
		},
		{
			"bufferView":62,
			"componentType":5126,
			"count":246,
			"type":"VEC2"
		},
		{
			"bufferView":63,
			"componentType":5123,
			"count":594,
			"type":"SCALAR"
		},
		{
			"bufferView":64,
			"componentType":5126,
			"count":32,
			"max":[
				2.5,
				-24,
				13
			],
			"min":[
				-2.5,
				-36,
				-13
			],
			"type":"VEC3"
		},
		{
			"bufferView":65,
			"componentType":5126,
			"count":32,
			"type":"VEC3"
		},
		{
			"bufferView":66,
			"componentType":5126,
			"count":32,
			"type":"VEC2"
		},
		{
			"bufferView":67,
			"componentType":5123,
			"count":48,
			"type":"SCALAR"
		},
		{
			"bufferView":68,
			"componentType":5126,
			"count":32,
			"max":[
				2.5,
				-24,
				13
			],
			"min":[
				-2.5,
				-36,
				-13
			],
			"type":"VEC3"
		},
		{
			"bufferView":69,
			"componentType":5126,
			"count":32,
			"type":"VEC3"
		},
		{
			"bufferView":70,
			"componentType":5126,
			"count":32,
			"type":"VEC2"
		},
		{
			"bufferView":71,
			"componentType":5123,
			"count":48,
			"type":"SCALAR"
		},
		{
			"bufferView":72,
			"componentType":5126,
			"count":8,
			"max":[
				15.75,
				-25.125,
				0.75
			],
			"min":[
				14.25,
				-25.125,
				-0.75
			],
			"type":"VEC3"
		},
		{
			"bufferView":73,
			"componentType":5126,
			"count":8,
			"type":"VEC3"
		},
		{
			"bufferView":74,
			"componentType":5126,
			"count":8,
			"type":"VEC2"
		},
		{
			"bufferView":75,
			"componentType":5123,
			"count":12,
			"type":"SCALAR"
		}
	],
	"bufferViews":[
		{
			"buffer":0,
			"byteLength":4536,
			"byteOffset":0,
			"target":34962
		},
		{
			"buffer":0,
			"byteLength":4536,
			"byteOffset":4536,
			"target":34962
		},
		{
			"buffer":0,
			"byteLength":3024,
			"byteOffset":9072,
			"target":34962
		},
		{
			"buffer":0,
			"byteLength":2040,
			"byteOffset":12096,
			"target":34963
		},
		{
			"buffer":0,
			"byteLength":2388,
			"byteOffset":14136,
			"target":34962
		},
		{
			"buffer":0,
			"byteLength":2388,
			"byteOffset":16524,
			"target":34962
		},
		{
			"buffer":0,
			"byteLength":1592,
			"byteOffset":18912,
			"target":34962
		},
		{
			"buffer":0,
			"byteLength":966,
			"byteOffset":20504,
			"target":34963
		},
		{
			"buffer":0,
			"byteLength":168,
			"byteOffset":21472,
			"target":34962
		},
		{
			"buffer":0,
			"byteLength":168,
			"byteOffset":21640,
			"target":34962
		},
		{
			"buffer":0,
			"byteLength":112,
			"byteOffset":21808,
			"target":34962
		},
		{
			"buffer":0,
			"byteLength":84,
			"byteOffset":21920,
			"target":34963
		},
		{
			"buffer":0,
			"byteLength":1644,
			"byteOffset":22004,
			"target":34962
		},
		{
			"buffer":0,
			"byteLength":1644,
			"byteOffset":23648,
			"target":34962
		},
		{
			"buffer":0,
			"byteLength":1096,
			"byteOffset":25292,
			"target":34962
		},
		{
			"buffer":0,
			"byteLength":450,
			"byteOffset":26388,
			"target":34963
		},
		{
			"buffer":0,
			"byteLength":660,
			"byteOffset":26840,
			"target":34962
		},
		{
			"buffer":0,
			"byteLength":660,
			"byteOffset":27500,
			"target":34962
		},
		{
			"buffer":0,
			"byteLength":440,
			"byteOffset":28160,
			"target":34962
		},
		{
			"buffer":0,
			"byteLength":318,
			"byteOffset":28600,
			"target":34963
		},
		{
			"buffer":0,
			"byteLength":240,
			"byteOffset":28920,
			"target":34962
		},
		{
			"buffer":0,
			"byteLength":240,
			"byteOffset":29160,
			"target":34962
		},
		{
			"buffer":0,
			"byteLength":160,
			"byteOffset":29400,
			"target":34962
		},
		{
			"buffer":0,
			"byteLength":72,
			"byteOffset":29560,
			"target":34963
		},
		{
			"buffer":0,
			"byteLength":2664,
			"byteOffset":29632,
			"target":34962
		},
		{
			"buffer":0,
			"byteLength":2664,
			"byteOffset":32296,
			"target":34962
		},
		{
			"buffer":0,
			"byteLength":1776,
			"byteOffset":34960,
			"target":34962
		},
		{
			"buffer":0,
			"byteLength":912,
			"byteOffset":36736,
			"target":34963
		},
		{
			"buffer":0,
			"byteLength":528,
			"byteOffset":37648,
			"target":34962
		},
		{
			"buffer":0,
			"byteLength":528,
			"byteOffset":38176,
			"target":34962
		},
		{
			"buffer":0,
			"byteLength":352,
			"byteOffset":38704,
			"target":34962
		},
		{
			"buffer":0,
			"byteLength":144,
			"byteOffset":39056,
			"target":34963
		},
		{
			"buffer":0,
			"byteLength":648,
			"byteOffset":39200,
			"target":34962
		},
		{
			"buffer":0,
			"byteLength":648,
			"byteOffset":39848,
			"target":34962
		},
		{
			"buffer":0,
			"byteLength":432,
			"byteOffset":40496,
			"target":34962
		},
		{
			"buffer":0,
			"byteLength":192,
			"byteOffset":40928,
			"target":34963
		},
		{
			"buffer":0,
			"byteLength":816,
			"byteOffset":41120,
			"target":34962
		},
		{
			"buffer":0,
			"byteLength":816,
			"byteOffset":41936,
			"target":34962
		},
		{
			"buffer":0,
			"byteLength":544,
			"byteOffset":42752,
			"target":34962
		},
		{
			"buffer":0,
			"byteLength":252,
			"byteOffset":43296,
			"target":34963
		},
		{
			"buffer":0,
			"byteLength":3840,
			"byteOffset":43548,
			"target":34962
		},
		{
			"buffer":0,
			"byteLength":3840,
			"byteOffset":47388,
			"target":34962
		},
		{
			"buffer":0,
			"byteLength":2560,
			"byteOffset":51228,
			"target":34962
		},
		{
			"buffer":0,
			"byteLength":960,
			"byteOffset":53788,
			"target":34963
		},
		{
			"buffer":0,
			"byteLength":288,
			"byteOffset":54748,
			"target":34962
		},
		{
			"buffer":0,
			"byteLength":288,
			"byteOffset":55036,
			"target":34962
		},
		{
			"buffer":0,
			"byteLength":192,
			"byteOffset":55324,
			"target":34962
		},
		{
			"buffer":0,
			"byteLength":72,
			"byteOffset":55516,
			"target":34963
		},
		{
			"buffer":0,
			"byteLength":96,
			"byteOffset":55588,
			"target":34962
		},
		{
			"buffer":0,
			"byteLength":96,
			"byteOffset":55684,
			"target":34962
		},
		{
			"buffer":0,
			"byteLength":64,
			"byteOffset":55780,
			"target":34962
		},
		{
			"buffer":0,
			"byteLength":24,
			"byteOffset":55844,
			"target":34963
		},
		{
			"buffer":0,
			"byteLength":72,
			"byteOffset":55868,
			"target":34962
		},
		{
			"buffer":0,
			"byteLength":72,
			"byteOffset":55940,
			"target":34962
		},
		{
			"buffer":0,
			"byteLength":48,
			"byteOffset":56012,
			"target":34962
		},
		{
			"buffer":0,
			"byteLength":24,
			"byteOffset":56060,
			"target":34963
		},
		{
			"buffer":0,
			"byteLength":96,
			"byteOffset":56084,
			"target":34962
		},
		{
			"buffer":0,
			"byteLength":96,
			"byteOffset":56180,
			"target":34962
		},
		{
			"buffer":0,
			"byteLength":64,
			"byteOffset":56276,
			"target":34962
		},
		{
			"buffer":0,
			"byteLength":24,
			"byteOffset":56340,
			"target":34963
		},
		{
			"buffer":0,
			"byteLength":2952,
			"byteOffset":56364,
			"target":34962
		},
		{
			"buffer":0,
			"byteLength":2952,
			"byteOffset":59316,
			"target":34962
		},
		{
			"buffer":0,
			"byteLength":1968,
			"byteOffset":62268,
			"target":34962
		},
		{
			"buffer":0,
			"byteLength":1188,
			"byteOffset":64236,
			"target":34963
		},
		{
			"buffer":0,
			"byteLength":384,
			"byteOffset":65424,
			"target":34962
		},
		{
			"buffer":0,
			"byteLength":384,
			"byteOffset":65808,
			"target":34962
		},
		{
			"buffer":0,
			"byteLength":256,
			"byteOffset":66192,
			"target":34962
		},
		{
			"buffer":0,
			"byteLength":96,
			"byteOffset":66448,
			"target":34963
		},
		{
			"buffer":0,
			"byteLength":384,
			"byteOffset":66544,
			"target":34962
		},
		{
			"buffer":0,
			"byteLength":384,
			"byteOffset":66928,
			"target":34962
		},
		{
			"buffer":0,
			"byteLength":256,
			"byteOffset":67312,
			"target":34962
		},
		{
			"buffer":0,
			"byteLength":96,
			"byteOffset":67568,
			"target":34963
		},
		{
			"buffer":0,
			"byteLength":96,
			"byteOffset":67664,
			"target":34962
		},
		{
			"buffer":0,
			"byteLength":96,
			"byteOffset":67760,
			"target":34962
		},
		{
			"buffer":0,
			"byteLength":64,
			"byteOffset":67856,
			"target":34962
		},
		{
			"buffer":0,
			"byteLength":24,
			"byteOffset":67920,
			"target":34963
		}
	],
	"buffers":[
		{
			"byteLength":67944,
			"uri":"rst_bitterbunker.bin"
		}
	]
}
