{
	"asset":{
		"generator":"Khronos glTF Blender I/O v4.5.48",
		"version":"2.0"
	},
	"scene":0,
	"scenes":[
		{
			"name":"Scene",
			"nodes":[
				0
			]
		}
	],
	"nodes":[
		{
			"mesh":0,
			"name":"Object"
		}
	],
	"materials":[
		{
			"doubleSided":true,
			"name":"BE_EWAL07",
			"pbrMetallicRoughness":{
				"baseColorFactor":[
					0.800000011920929,
					0.800000011920929,
					0.800000011920929,
					1
				],
				"metallicFactor":0,
				"roughnessFactor":0.5
			}
		},
		{
			"doubleSided":true,
			"name":"BE_ICOMP01A",
			"pbrMetallicRoughness":{
				"baseColorFactor":[
					0.800000011920929,
					0.800000011920929,
					0.800000011920929,
					1
				],
				"metallicFactor":0,
				"roughnessFactor":0.5
			}
		},
		{
			"doubleSided":true,
			"name":"BE_IFUNCTEC01A",
			"pbrMetallicRoughness":{
				"baseColorFactor":[
					0.800000011920929,
					0.800000011920929,
					0.800000011920929,
					1
				],
				"metallicFactor":0,
				"roughnessFactor":0.5
			}
		},
		{
			"doubleSided":true,
			"name":"BE_IPRWAL01",
			"pbrMetallicRoughness":{
				"baseColorFactor":[
					0.800000011920929,
					0.800000011920929,
					0.800000011920929,
					1
				],
				"metallicFactor":0,
				"roughnessFactor":0.5
			}
		},
		{
			"doubleSided":true,
			"name":"BE_ITEWAL03",
			"pbrMetallicRoughness":{
				"baseColorFactor":[
					0.800000011920929,
					0.800000011920929,
					0.800000011920929,
					1
				],
				"metallicFactor":0,
				"roughnessFactor":0.5
			}
		},
		{
			"doubleSided":true,
			"name":"BE_ICEI03B",
			"pbrMetallicRoughness":{
				"baseColorFactor":[
					0.800000011920929,
					0.800000011920929,
					0.800000011920929,
					1
				],
				"metallicFactor":0,
				"roughnessFactor":0.5
			}
		},
		{
			"doubleSided":true,
			"name":"BE_EBOR03",
			"pbrMetallicRoughness":{
				"baseColorFactor":[
					0.800000011920929,
					0.800000011920929,
					0.800000011920929,
					1
				],
				"metallicFactor":0,
				"roughnessFactor":0.5
			}
		},
		{
			"doubleSided":true,
			"name":"BE_ESPEC05",
			"pbrMetallicRoughness":{
				"baseColorFactor":[
					0.800000011920929,
					0.800000011920929,
					0.800000011920929,
					1
				],
				"metallicFactor":0,
				"roughnessFactor":0.5
			}
		},
		{
			"doubleSided":true,
			"name":"BE_EBOR01D",
			"pbrMetallicRoughness":{
				"baseColorFactor":[
					0.800000011920929,
					0.800000011920929,
					0.800000011920929,
					1
				],
				"metallicFactor":0,
				"roughnessFactor":0.5
			}
		}
	],
	"meshes":[
		{
			"name":"Mesh",
			"primitives":[
				{
					"attributes":{
						"POSITION":0,
						"NORMAL":1,
						"TEXCOORD_0":2
					},
					"indices":3,
					"material":0
				},
				{
					"attributes":{
						"POSITION":4,
						"NORMAL":5,
						"TEXCOORD_0":6
					},
					"indices":7,
					"material":1
				},
				{
					"attributes":{
						"POSITION":8,
						"NORMAL":9,
						"TEXCOORD_0":10
					},
					"indices":11,
					"material":2
				},
				{
					"attributes":{
						"POSITION":12,
						"NORMAL":13,
						"TEXCOORD_0":14
					},
					"indices":15,
					"material":3
				},
				{
					"attributes":{
						"POSITION":16,
						"NORMAL":17,
						"TEXCOORD_0":18
					},
					"indices":19,
					"material":4
				},
				{
					"attributes":{
						"POSITION":20,
						"NORMAL":21,
						"TEXCOORD_0":22
					},
					"indices":23,
					"material":5
				},
				{
					"attributes":{
						"POSITION":24,
						"NORMAL":25,
						"TEXCOORD_0":26
					},
					"indices":27,
					"material":6
				},
				{
					"attributes":{
						"POSITION":28,
						"NORMAL":29,
						"TEXCOORD_0":30
					},
					"indices":31,
					"material":7
				},
				{
					"attributes":{
						"POSITION":32,
						"NORMAL":33,
						"TEXCOORD_0":34
					},
					"indices":35,
					"material":8
				}
			]
		}
	],
	"accessors":[
		{
			"bufferView":0,
			"componentType":5126,
			"count":278,
			"max":[
				10.25,
				9,
				4
			],
			"min":[
				-10.25,
				0,
				-4
			],
			"type":"VEC3"
		},
		{
			"bufferView":1,
			"componentType":5126,
			"count":278,
			"type":"VEC3"
		},
		{
			"bufferView":2,
			"componentType":5126,
			"count":278,
			"type":"VEC2"
		},
		{
			"bufferView":3,
			"componentType":5123,
			"count":678,
			"type":"SCALAR"
		},
		{
			"bufferView":4,
			"componentType":5126,
			"count":66,
			"max":[
				10.25,
				7,
				3
			],
			"min":[
				-10.25,
				1,
				-3
			],
			"type":"VEC3"
		},
		{
			"bufferView":5,
			"componentType":5126,
			"count":66,
			"type":"VEC3"
		},
		{
			"bufferView":6,
			"componentType":5126,
			"count":66,
			"type":"VEC2"
		},
		{
			"bufferView":7,
			"componentType":5123,
			"count":126,
			"type":"SCALAR"
		},
		{
			"bufferView":8,
			"componentType":5126,
			"count":12,
			"max":[
				10.25,
				8,
				1
			],
			"min":[
				-10.25,
				8,
				-1
			],
			"type":"VEC3"
		},
		{
			"bufferView":9,
			"componentType":5126,
			"count":12,
			"type":"VEC3"
		},
		{
			"bufferView":10,
			"componentType":5126,
			"count":12,
			"type":"VEC2"
		},
		{
			"bufferView":11,
			"componentType":5123,
			"count":24,
			"type":"SCALAR"
		},
		{
			"bufferView":12,
			"componentType":5126,
			"count":56,
			"max":[
				10,
				7,
				2
			],
			"min":[
				-10,
				1,
				-2
			],
			"type":"VEC3"
		},
		{
			"bufferView":13,
			"componentType":5126,
			"count":56,
			"type":"VEC3"
		},
		{
			"bufferView":14,
			"componentType":5126,
			"count":56,
			"type":"VEC2"
		},
		{
			"bufferView":15,
			"componentType":5123,
			"count":96,
			"type":"SCALAR"
		},
		{
			"bufferView":16,
			"componentType":5126,
			"count":72,
			"max":[
				9.25,
				7.75,
				0.5
			],
			"min":[
				-9.25,
				0,
				-0.5
			],
			"type":"VEC3"
		},
		{
			"bufferView":17,
			"componentType":5126,
			"count":72,
			"type":"VEC3"
		},
		{
			"bufferView":18,
			"componentType":5126,
			"count":72,
			"type":"VEC2"
		},
		{
			"bufferView":19,
			"componentType":5123,
			"count":120,
			"type":"SCALAR"
		},
		{
			"bufferView":20,
			"componentType":5126,
			"count":243,
			"max":[
				9,
				9,
				2
			],
			"min":[
				-9,
				0,
				-2
			],
			"type":"VEC3"
		},
		{
			"bufferView":21,
			"componentType":5126,
			"count":243,
			"type":"VEC3"
		},
		{
			"bufferView":22,
			"componentType":5126,
			"count":243,
			"type":"VEC2"
		},
		{
			"bufferView":23,
			"componentType":5123,
			"count":588,
			"type":"SCALAR"
		},
		{
			"bufferView":24,
			"componentType":5126,
			"count":166,
			"max":[
				8,
				8,
				2
			],
			"min":[
				-8,
				0,
				-2
			],
			"type":"VEC3"
		},
		{
			"bufferView":25,
			"componentType":5126,
			"count":166,
			"type":"VEC3"
		},
		{
			"bufferView":26,
			"componentType":5126,
			"count":166,
			"type":"VEC2"
		},
		{
			"bufferView":27,
			"componentType":5123,
			"count":318,
			"type":"SCALAR"
		},
		{
			"bufferView":28,
			"componentType":5126,
			"count":32,
			"max":[
				5,
				2,
				1.5
			],
			"min":[
				-5,
				0,
				-1.5
			],
			"type":"VEC3"
		},
		{
			"bufferView":29,
			"componentType":5126,
			"count":32,
			"type":"VEC3"
		},
		{
			"bufferView":30,
			"componentType":5126,
			"count":32,
			"type":"VEC2"
		},
		{
			"bufferView":31,
			"componentType":5123,
			"count":60,
			"type":"SCALAR"
		},
		{
			"bufferView":32,
			"componentType":5126,
			"count":58,
			"max":[
				8,
				8,
				0.5
			],
			"min":[
				-8,
				3,
				-0.5
			],
			"type":"VEC3"
		},
		{
			"bufferView":33,
			"componentType":5126,
			"count":58,
			"type":"VEC3"
		},
		{
			"bufferView":34,
			"componentType":5126,
			"count":58,
			"type":"VEC2"
		},
		{
			"bufferView":35,
			"componentType":5123,
			"count":216,
			"type":"SCALAR"
		}
	],
	"bufferViews":[
		{
			"buffer":0,
			"byteLength":3336,
			"byteOffset":0,
			"target":34962
		},
		{
			"buffer":0,
			"byteLength":3336,
			"byteOffset":3336,
			"target":34962
		},
		{
			"buffer":0,
			"byteLength":2224,
			"byteOffset":6672,
			"target":34962
		},
		{
			"buffer":0,
			"byteLength":1356,
			"byteOffset":8896,
			"target":34963
		},
		{
			"buffer":0,
			"byteLength":792,
			"byteOffset":10252,
			"target":34962
		},
		{
			"buffer":0,
			"byteLength":792,
			"byteOffset":11044,
			"target":34962
		},
		{
			"buffer":0,
			"byteLength":528,
			"byteOffset":11836,
			"target":34962
		},
		{
			"buffer":0,
			"byteLength":252,
			"byteOffset":12364,
			"target":34963
		},
		{
			"buffer":0,
			"byteLength":144,
			"byteOffset":12616,
			"target":34962
		},
		{
			"buffer":0,
			"byteLength":144,
			"byteOffset":12760,
			"target":34962
		},
		{
			"buffer":0,
			"byteLength":96,
			"byteOffset":12904,
			"target":34962
		},
		{
			"buffer":0,
			"byteLength":48,
			"byteOffset":13000,
			"target":34963
		},
		{
			"buffer":0,
			"byteLength":672,
			"byteOffset":13048,
			"target":34962
		},
		{
			"buffer":0,
			"byteLength":672,
			"byteOffset":13720,
			"target":34962
		},
		{
			"buffer":0,
			"byteLength":448,
			"byteOffset":14392,
			"target":34962
		},
		{
			"buffer":0,
			"byteLength":192,
			"byteOffset":14840,
			"target":34963
		},
		{
			"buffer":0,
			"byteLength":864,
			"byteOffset":15032,
			"target":34962
		},
		{
			"buffer":0,
			"byteLength":864,
			"byteOffset":15896,
			"target":34962
		},
		{
			"buffer":0,
			"byteLength":576,
			"byteOffset":16760,
			"target":34962
		},
		{
			"buffer":0,
			"byteLength":240,
			"byteOffset":17336,
			"target":34963
		},
		{
			"buffer":0,
			"byteLength":2916,
			"byteOffset":17576,
			"target":34962
		},
		{
			"buffer":0,
			"byteLength":2916,
			"byteOffset":20492,
			"target":34962
		},
		{
			"buffer":0,
			"byteLength":1944,
			"byteOffset":23408,
			"target":34962
		},
		{
			"buffer":0,
			"byteLength":1176,
			"byteOffset":25352,
			"target":34963
		},
		{
			"buffer":0,
			"byteLength":1992,
			"byteOffset":26528,
			"target":34962
		},
		{
			"buffer":0,
			"byteLength":1992,
			"byteOffset":28520,
			"target":34962
		},
		{
			"buffer":0,
			"byteLength":1328,
			"byteOffset":30512,
			"target":34962
		},
		{
			"buffer":0,
			"byteLength":636,
			"byteOffset":31840,
			"target":34963
		},
		{
			"buffer":0,
			"byteLength":384,
			"byteOffset":32476,
			"target":34962
		},
		{
			"buffer":0,
			"byteLength":384,
			"byteOffset":32860,
			"target":34962
		},
		{
			"buffer":0,
			"byteLength":256,
			"byteOffset":33244,
			"target":34962
		},
		{
			"buffer":0,
			"byteLength":120,
			"byteOffset":33500,
			"target":34963
		},
		{
			"buffer":0,
			"byteLength":696,
			"byteOffset":33620,
			"target":34962
		},
		{
			"buffer":0,
			"byteLength":696,
			"byteOffset":34316,
			"target":34962
		},
		{
			"buffer":0,
			"byteLength":464,
			"byteOffset":35012,
			"target":34962
		},
		{
			"buffer":0,
			"byteLength":432,
			"byteOffset":35476,
			"target":34963
		}
	],
	"buffers":[
		{
			"byteLength":35908,
			"uri":"rst_barrier1.bin"
		}
	]
}
