{
	"asset":{
		"generator":"Khronos glTF Blender I/O v4.5.48",
		"version":"2.0"
	},
	"scene":0,
	"scenes":[
		{
			"name":"Scene",
			"nodes":[
				0
			]
		}
	],
	"nodes":[
		{
			"mesh":0,
			"name":"Object"
		}
	],
	"materials":[
		{
			"doubleSided":true,
			"name":"BD_EWAL03C",
			"pbrMetallicRoughness":{
				"baseColorFactor":[
					0.800000011920929,
					0.800000011920929,
					0.800000011920929,
					1
				],
				"metallicFactor":0,
				"roughnessFactor":0.5
			}
		},
		{
			"doubleSided":true,
			"name":"BD_IBOR10",
			"pbrMetallicRoughness":{
				"baseColorFactor":[
					0.800000011920929,
					0.800000011920929,
					0.800000011920929,
					1
				],
				"metallicFactor":0,
				"roughnessFactor":0.5
			}
		},
		{
			"doubleSided":true,
			"name":"BD_EFLO01",
			"pbrMetallicRoughness":{
				"baseColorFactor":[
					0.800000011920929,
					0.800000011920929,
					0.800000011920929,
					1
				],
				"metallicFactor":0,
				"roughnessFactor":0.5
			}
		},
		{
			"doubleSided":true,
			"name":"BD_EWAL13",
			"pbrMetallicRoughness":{
				"baseColorFactor":[
					0.800000011920929,
					0.800000011920929,
					0.800000011920929,
					1
				],
				"metallicFactor":0,
				"roughnessFactor":0.5
			}
		},
		{
			"doubleSided":true,
			"name":"BD_ICEI01",
			"pbrMetallicRoughness":{
				"baseColorFactor":[
					0.800000011920929,
					0.800000011920929,
					0.800000011920929,
					1
				],
				"metallicFactor":0,
				"roughnessFactor":0.5
			}
		},
		{
			"doubleSided":true,
			"name":"BD_ESPE01",
			"pbrMetallicRoughness":{
				"baseColorFactor":[
					0.800000011920929,
					0.800000011920929,
					0.800000011920929,
					1
				],
				"metallicFactor":0,
				"roughnessFactor":0.5
			}
		},
		{
			"doubleSided":true,
			"name":"BD_EWAL07",
			"pbrMetallicRoughness":{
				"baseColorFactor":[
					0.800000011920929,
					0.800000011920929,
					0.800000011920929,
					1
				],
				"metallicFactor":0,
				"roughnessFactor":0.5
			}
		},
		{
			"doubleSided":true,
			"name":"BD_ICOMP01",
			"pbrMetallicRoughness":{
				"baseColorFactor":[
					0.800000011920929,
					0.800000011920929,
					0.800000011920929,
					1
				],
				"metallicFactor":0,
				"roughnessFactor":0.5
			}
		},
		{
			"doubleSided":true,
			"name":"BD_ICOLIGOLA",
			"pbrMetallicRoughness":{
				"baseColorFactor":[
					0.800000011920929,
					0.800000011920929,
					0.800000011920929,
					1
				],
				"metallicFactor":0,
				"roughnessFactor":0.5
			}
		},
		{
			"doubleSided":true,
			"name":"BD_ITEWAL01B",
			"pbrMetallicRoughness":{
				"baseColorFactor":[
					0.800000011920929,
					0.800000011920929,
					0.800000011920929,
					1
				],
				"metallicFactor":0,
				"roughnessFactor":0.5
			}
		},
		{
			"doubleSided":true,
			"name":"BD_IBOR01",
			"pbrMetallicRoughness":{
				"baseColorFactor":[
					0.800000011920929,
					0.800000011920929,
					0.800000011920929,
					1
				],
				"metallicFactor":0,
				"roughnessFactor":0.5
			}
		},
		{
			"doubleSided":true,
			"name":"BD_ICEILIG02",
			"pbrMetallicRoughness":{
				"baseColorFactor":[
					0.800000011920929,
					0.800000011920929,
					0.800000011920929,
					1
				],
				"metallicFactor":0,
				"roughnessFactor":0.5
			}
		}
	],
	"meshes":[
		{
			"name":"Mesh",
			"primitives":[
				{
					"attributes":{
						"POSITION":0,
						"NORMAL":1,
						"TEXCOORD_0":2
					},
					"indices":3,
					"material":0
				},
				{
					"attributes":{
						"POSITION":4,
						"NORMAL":5,
						"TEXCOORD_0":6
					},
					"indices":7,
					"material":1
				},
				{
					"attributes":{
						"POSITION":8,
						"NORMAL":9,
						"TEXCOORD_0":10
					},
					"indices":11,
					"material":2
				},
				{
					"attributes":{
						"POSITION":12,
						"NORMAL":13,
						"TEXCOORD_0":14
					},
					"indices":15,
					"material":3
				},
				{
					"attributes":{
						"POSITION":16,
						"NORMAL":17,
						"TEXCOORD_0":18
					},
					"indices":19,
					"material":4
				},
				{
					"attributes":{
						"POSITION":20,
						"NORMAL":21,
						"TEXCOORD_0":22
					},
					"indices":23,
					"material":5
				},
				{
					"attributes":{
						"POSITION":24,
						"NORMAL":25,
						"TEXCOORD_0":26
					},
					"indices":27,
					"material":6
				},
				{
					"attributes":{
						"POSITION":28,
						"NORMAL":29,
						"TEXCOORD_0":30
					},
					"indices":31,
					"material":7
				},
				{
					"attributes":{
						"POSITION":32,
						"NORMAL":33,
						"TEXCOORD_0":34
					},
					"indices":35,
					"material":8
				},
				{
					"attributes":{
						"POSITION":36,
						"NORMAL":37,
						"TEXCOORD_0":38
					},
					"indices":39,
					"material":9
				},
				{
					"attributes":{
						"POSITION":40,
						"NORMAL":41,
						"TEXCOORD_0":42
					},
					"indices":43,
					"material":10
				},
				{
					"attributes":{
						"POSITION":44,
						"NORMAL":45,
						"TEXCOORD_0":46
					},
					"indices":47,
					"material":11
				}
			]
		}
	],
	"accessors":[
		{
			"bufferView":0,
			"componentType":5126,
			"count":3267,
			"max":[
				28.28125,
				100.90625,
				28.28125
			],
			"min":[
				-28.28125,
				-19.4375,
				-28.28125
			],
			"type":"VEC3"
		},
		{
			"bufferView":1,
			"componentType":5126,
			"count":3267,
			"type":"VEC3"
		},
		{
			"bufferView":2,
			"componentType":5126,
			"count":3267,
			"type":"VEC2"
		},
		{
			"bufferView":3,
			"componentType":5123,
			"count":8703,
			"type":"SCALAR"
		},
		{
			"bufferView":4,
			"componentType":5126,
			"count":1884,
			"max":[
				25.09375,
				102.21875,
				25.09375
			],
			"min":[
				-25.09375,
				0,
				-25.09375
			],
			"type":"VEC3"
		},
		{
			"bufferView":5,
			"componentType":5126,
			"count":1884,
			"type":"VEC3"
		},
		{
			"bufferView":6,
			"componentType":5126,
			"count":1884,
			"type":"VEC2"
		},
		{
			"bufferView":7,
			"componentType":5123,
			"count":5100,
			"type":"SCALAR"
		},
		{
			"bufferView":8,
			"componentType":5126,
			"count":3966,
			"max":[
				17.5,
				97.9375,
				17.625
			],
			"min":[
				-17.5,
				0,
				-17.625
			],
			"type":"VEC3"
		},
		{
			"bufferView":9,
			"componentType":5126,
			"count":3966,
			"type":"VEC3"
		},
		{
			"bufferView":10,
			"componentType":5126,
			"count":3966,
			"type":"VEC2"
		},
		{
			"bufferView":11,
			"componentType":5123,
			"count":8334,
			"type":"SCALAR"
		},
		{
			"bufferView":12,
			"componentType":5126,
			"count":317,
			"max":[
				5.15625,
				97.9375,
				5.1875
			],
			"min":[
				-5.15625,
				0,
				-5.1875
			],
			"type":"VEC3"
		},
		{
			"bufferView":13,
			"componentType":5126,
			"count":317,
			"type":"VEC3"
		},
		{
			"bufferView":14,
			"componentType":5126,
			"count":317,
			"type":"VEC2"
		},
		{
			"bufferView":15,
			"componentType":5123,
			"count":567,
			"type":"SCALAR"
		},
		{
			"bufferView":16,
			"componentType":5126,
			"count":477,
			"max":[
				25.375,
				100.375,
				25.46875
			],
			"min":[
				-25.375,
				10.875,
				-25.46875
			],
			"type":"VEC3"
		},
		{
			"bufferView":17,
			"componentType":5126,
			"count":477,
			"type":"VEC3"
		},
		{
			"bufferView":18,
			"componentType":5126,
			"count":477,
			"type":"VEC2"
		},
		{
			"bufferView":19,
			"componentType":5123,
			"count":759,
			"type":"SCALAR"
		},
		{
			"bufferView":20,
			"componentType":5126,
			"count":8,
			"max":[
				13.34375,
				100.90625,
				13.4375
			],
			"min":[
				-13.34375,
				100.90625,
				-13.4375
			],
			"type":"VEC3"
		},
		{
			"bufferView":21,
			"componentType":5126,
			"count":8,
			"type":"VEC3"
		},
		{
			"bufferView":22,
			"componentType":5126,
			"count":8,
			"type":"VEC2"
		},
		{
			"bufferView":23,
			"componentType":5123,
			"count":18,
			"type":"SCALAR"
		},
		{
			"bufferView":24,
			"componentType":5126,
			"count":1729,
			"max":[
				11.75,
				97.9375,
				6.75
			],
			"min":[
				-11.75,
				0,
				-6.625
			],
			"type":"VEC3"
		},
		{
			"bufferView":25,
			"componentType":5126,
			"count":1729,
			"type":"VEC3"
		},
		{
			"bufferView":26,
			"componentType":5126,
			"count":1729,
			"type":"VEC2"
		},
		{
			"bufferView":27,
			"componentType":5123,
			"count":2307,
			"type":"SCALAR"
		},
		{
			"bufferView":28,
			"componentType":5126,
			"count":128,
			"max":[
				6.625,
				87.6875,
				6.75
			],
			"min":[
				-6.625,
				0.125,
				-6.625
			],
			"type":"VEC3"
		},
		{
			"bufferView":29,
			"componentType":5126,
			"count":128,
			"type":"VEC3"
		},
		{
			"bufferView":30,
			"componentType":5126,
			"count":128,
			"type":"VEC2"
		},
		{
			"bufferView":31,
			"componentType":5123,
			"count":192,
			"type":"SCALAR"
		},
		{
			"bufferView":32,
			"componentType":5126,
			"count":64,
			"max":[
				17,
				50.5625,
				17.125
			],
			"min":[
				-17,
				0.125,
				-17.125
			],
			"type":"VEC3"
		},
		{
			"bufferView":33,
			"componentType":5126,
			"count":64,
			"type":"VEC3"
		},
		{
			"bufferView":34,
			"componentType":5126,
			"count":64,
			"type":"VEC2"
		},
		{
			"bufferView":35,
			"componentType":5123,
			"count":96,
			"type":"SCALAR"
		},
		{
			"bufferView":36,
			"componentType":5126,
			"count":96,
			"max":[
				15.71875,
				57.84375,
				15.71875
			],
			"min":[
				-15.71875,
				0.65625,
				-15.71875
			],
			"type":"VEC3"
		},
		{
			"bufferView":37,
			"componentType":5126,
			"count":96,
			"type":"VEC3"
		},
		{
			"bufferView":38,
			"componentType":5126,
			"count":96,
			"type":"VEC2"
		},
		{
			"bufferView":39,
			"componentType":5123,
			"count":192,
			"type":"SCALAR"
		},
		{
			"bufferView":40,
			"componentType":5126,
			"count":384,
			"max":[
				16.1875,
				57.84375,
				16.1875
			],
			"min":[
				-16.1875,
				0.65625,
				-16.1875
			],
			"type":"VEC3"
		},
		{
			"bufferView":41,
			"componentType":5126,
			"count":384,
			"type":"VEC3"
		},
		{
			"bufferView":42,
			"componentType":5126,
			"count":384,
			"type":"VEC2"
		},
		{
			"bufferView":43,
			"componentType":5123,
			"count":576,
			"type":"SCALAR"
		},
		{
			"bufferView":44,
			"componentType":5126,
			"count":96,
			"max":[
				10.25,
				97.4375,
				2.25
			],
			"min":[
				-10.25,
				9.875,
				-2.25
			],
			"type":"VEC3"
		},
		{
			"bufferView":45,
			"componentType":5126,
			"count":96,
			"type":"VEC3"
		},
		{
			"bufferView":46,
			"componentType":5126,
			"count":96,
			"type":"VEC2"
		},
		{
			"bufferView":47,
			"componentType":5123,
			"count":192,
			"type":"SCALAR"
		}
	],
	"bufferViews":[
		{
			"buffer":0,
			"byteLength":39204,
			"byteOffset":0,
			"target":34962
		},
		{
			"buffer":0,
			"byteLength":39204,
			"byteOffset":39204,
			"target":34962
		},
		{
			"buffer":0,
			"byteLength":26136,
			"byteOffset":78408,
			"target":34962
		},
		{
			"buffer":0,
			"byteLength":17406,
			"byteOffset":104544,
			"target":34963
		},
		{
			"buffer":0,
			"byteLength":22608,
			"byteOffset":121952,
			"target":34962
		},
		{
			"buffer":0,
			"byteLength":22608,
			"byteOffset":144560,
			"target":34962
		},
		{
			"buffer":0,
			"byteLength":15072,
			"byteOffset":167168,
			"target":34962
		},
		{
			"buffer":0,
			"byteLength":10200,
			"byteOffset":182240,
			"target":34963
		},
		{
			"buffer":0,
			"byteLength":47592,
			"byteOffset":192440,
			"target":34962
		},
		{
			"buffer":0,
			"byteLength":47592,
			"byteOffset":240032,
			"target":34962
		},
		{
			"buffer":0,
			"byteLength":31728,
			"byteOffset":287624,
			"target":34962
		},
		{
			"buffer":0,
			"byteLength":16668,
			"byteOffset":319352,
			"target":34963
		},
		{
			"buffer":0,
			"byteLength":3804,
			"byteOffset":336020,
			"target":34962
		},
		{
			"buffer":0,
			"byteLength":3804,
			"byteOffset":339824,
			"target":34962
		},
		{
			"buffer":0,
			"byteLength":2536,
			"byteOffset":343628,
			"target":34962
		},
		{
			"buffer":0,
			"byteLength":1134,
			"byteOffset":346164,
			"target":34963
		},
		{
			"buffer":0,
			"byteLength":5724,
			"byteOffset":347300,
			"target":34962
		},
		{
			"buffer":0,
			"byteLength":5724,
			"byteOffset":353024,
			"target":34962
		},
		{
			"buffer":0,
			"byteLength":3816,
			"byteOffset":358748,
			"target":34962
		},
		{
			"buffer":0,
			"byteLength":1518,
			"byteOffset":362564,
			"target":34963
		},
		{
			"buffer":0,
			"byteLength":96,
			"byteOffset":364084,
			"target":34962
		},
		{
			"buffer":0,
			"byteLength":96,
			"byteOffset":364180,
			"target":34962
		},
		{
			"buffer":0,
			"byteLength":64,
			"byteOffset":364276,
			"target":34962
		},
		{
			"buffer":0,
			"byteLength":36,
			"byteOffset":364340,
			"target":34963
		},
		{
			"buffer":0,
			"byteLength":20748,
			"byteOffset":364376,
			"target":34962
		},
		{
			"buffer":0,
			"byteLength":20748,
			"byteOffset":385124,
			"target":34962
		},
		{
			"buffer":0,
			"byteLength":13832,
			"byteOffset":405872,
			"target":34962
		},
		{
			"buffer":0,
			"byteLength":4614,
			"byteOffset":419704,
			"target":34963
		},
		{
			"buffer":0,
			"byteLength":1536,
			"byteOffset":424320,
			"target":34962
		},
		{
			"buffer":0,
			"byteLength":1536,
			"byteOffset":425856,
			"target":34962
		},
		{
			"buffer":0,
			"byteLength":1024,
			"byteOffset":427392,
			"target":34962
		},
		{
			"buffer":0,
			"byteLength":384,
			"byteOffset":428416,
			"target":34963
		},
		{
			"buffer":0,
			"byteLength":768,
			"byteOffset":428800,
			"target":34962
		},
		{
			"buffer":0,
			"byteLength":768,
			"byteOffset":429568,
			"target":34962
		},
		{
			"buffer":0,
			"byteLength":512,
			"byteOffset":430336,
			"target":34962
		},
		{
			"buffer":0,
			"byteLength":192,
			"byteOffset":430848,
			"target":34963
		},
		{
			"buffer":0,
			"byteLength":1152,
			"byteOffset":431040,
			"target":34962
		},
		{
			"buffer":0,
			"byteLength":1152,
			"byteOffset":432192,
			"target":34962
		},
		{
			"buffer":0,
			"byteLength":768,
			"byteOffset":433344,
			"target":34962
		},
		{
			"buffer":0,
			"byteLength":384,
			"byteOffset":434112,
			"target":34963
		},
		{
			"buffer":0,
			"byteLength":4608,
			"byteOffset":434496,
			"target":34962
		},
		{
			"buffer":0,
			"byteLength":4608,
			"byteOffset":439104,
			"target":34962
		},
		{
			"buffer":0,
			"byteLength":3072,
			"byteOffset":443712,
			"target":34962
		},
		{
			"buffer":0,
			"byteLength":1152,
			"byteOffset":446784,
			"target":34963
		},
		{
			"buffer":0,
			"byteLength":1152,
			"byteOffset":447936,
			"target":34962
		},
		{
			"buffer":0,
			"byteLength":1152,
			"byteOffset":449088,
			"target":34962
		},
		{
			"buffer":0,
			"byteLength":768,
			"byteOffset":450240,
			"target":34962
		},
		{
			"buffer":0,
			"byteLength":384,
			"byteOffset":451008,
			"target":34963
		}
	],
	"buffers":[
		{
			"byteLength":451392,
			"uri":"rst_derm_building8.bin"
		}
	]
}
