{
	"asset":{
		"generator":"Khronos glTF Blender I/O v4.5.48",
		"version":"2.0"
	},
	"scene":0,
	"scenes":[
		{
			"name":"Scene",
			"nodes":[
				0
			]
		}
	],
	"nodes":[
		{
			"mesh":0,
			"name":"Object"
		}
	],
	"materials":[
		{
			"doubleSided":true,
			"name":"rockchipd01",
			"pbrMetallicRoughness":{
				"baseColorFactor":[
					0.800000011920929,
					0.800000011920929,
					0.800000011920929,
					1
				],
				"metallicFactor":0,
				"roughnessFactor":0.5
			}
		},
		{
			"doubleSided":true,
			"name":"SANDREG1",
			"pbrMetallicRoughness":{
				"baseColorFactor":[
					0.800000011920929,
					0.800000011920929,
					0.800000011920929,
					1
				],
				"metallicFactor":0,
				"roughnessFactor":0.5
			}
		}
	],
	"meshes":[
		{
			"name":"Mesh",
			"primitives":[
				{
					"attributes":{
						"POSITION":0,
						"NORMAL":1,
						"TEXCOORD_0":2
					},
					"indices":3,
					"material":0
				},
				{
					"attributes":{
						"POSITION":4,
						"NORMAL":5,
						"TEXCOORD_0":6
					},
					"indices":7,
					"material":1
				}
			]
		}
	],
	"accessors":[
		{
			"bufferView":0,
			"componentType":5126,
			"count":1047,
			"max":[
				48,
				44,
				-52
			],
			"min":[
				-153,
				-48,
				-450
			],
			"type":"VEC3"
		},
		{
			"bufferView":1,
			"componentType":5126,
			"count":1047,
			"type":"VEC3"
		},
		{
			"bufferView":2,
			"componentType":5126,
			"count":1047,
			"type":"VEC2"
		},
		{
			"bufferView":3,
			"componentType":5123,
			"count":1047,
			"type":"SCALAR"
		},
		{
			"bufferView":4,
			"componentType":5126,
			"count":249,
			"max":[
				28,
				24,
				-52
			],
			"min":[
				-150,
				-48,
				-431
			],
			"type":"VEC3"
		},
		{
			"bufferView":5,
			"componentType":5126,
			"count":249,
			"type":"VEC3"
		},
		{
			"bufferView":6,
			"componentType":5126,
			"count":249,
			"type":"VEC2"
		},
		{
			"bufferView":7,
			"componentType":5123,
			"count":249,
			"type":"SCALAR"
		}
	],
	"bufferViews":[
		{
			"buffer":0,
			"byteLength":12564,
			"byteOffset":0,
			"target":34962
		},
		{
			"buffer":0,
			"byteLength":12564,
			"byteOffset":12564,
			"target":34962
		},
		{
			"buffer":0,
			"byteLength":8376,
			"byteOffset":25128,
			"target":34962
		},
		{
			"buffer":0,
			"byteLength":2094,
			"byteOffset":33504,
			"target":34963
		},
		{
			"buffer":0,
			"byteLength":2988,
			"byteOffset":35600,
			"target":34962
		},
		{
			"buffer":0,
			"byteLength":2988,
			"byteOffset":38588,
			"target":34962
		},
		{
			"buffer":0,
			"byteLength":1992,
			"byteOffset":41576,
			"target":34962
		},
		{
			"buffer":0,
			"byteLength":498,
			"byteOffset":43568,
			"target":34963
		}
	],
	"buffers":[
		{
			"byteLength":44068,
			"uri":"rst_SEcave1_part1.bin"
		}
	]
}
