{
	"asset":{
		"generator":"Khronos glTF Blender I/O v4.5.48",
		"version":"2.0"
	},
	"scene":0,
	"scenes":[
		{
			"name":"Scene",
			"nodes":[
				0
			]
		}
	],
	"nodes":[
		{
			"mesh":0,
			"name":"Object"
		}
	],
	"materials":[
		{
			"doubleSided":true,
			"name":"BE_EWAL07",
			"pbrMetallicRoughness":{
				"baseColorFactor":[
					0.800000011920929,
					0.800000011920929,
					0.800000011920929,
					1
				],
				"metallicFactor":0,
				"roughnessFactor":0.5
			}
		},
		{
			"doubleSided":true,
			"name":"BE_ITEWAL02",
			"pbrMetallicRoughness":{
				"baseColorFactor":[
					0.800000011920929,
					0.800000011920929,
					0.800000011920929,
					1
				],
				"metallicFactor":0,
				"roughnessFactor":0.5
			}
		},
		{
			"doubleSided":true,
			"name":"BE_ITEWAL01",
			"pbrMetallicRoughness":{
				"baseColorFactor":[
					0.800000011920929,
					0.800000011920929,
					0.800000011920929,
					1
				],
				"metallicFactor":0,
				"roughnessFactor":0.5
			}
		},
		{
			"doubleSided":true,
			"name":"BE_ICEI03B",
			"pbrMetallicRoughness":{
				"baseColorFactor":[
					0.800000011920929,
					0.800000011920929,
					0.800000011920929,
					1
				],
				"metallicFactor":0,
				"roughnessFactor":0.5
			}
		},
		{
			"doubleSided":true,
			"name":"BE_ICOLIGOLA",
			"pbrMetallicRoughness":{
				"baseColorFactor":[
					0.800000011920929,
					0.800000011920929,
					0.800000011920929,
					1
				],
				"metallicFactor":0,
				"roughnessFactor":0.5
			}
		}
	],
	"meshes":[
		{
			"name":"Mesh",
			"primitives":[
				{
					"attributes":{
						"POSITION":0,
						"NORMAL":1,
						"TEXCOORD_0":2
					},
					"indices":3,
					"material":0
				},
				{
					"attributes":{
						"POSITION":4,
						"NORMAL":5,
						"TEXCOORD_0":6
					},
					"indices":7,
					"material":1
				},
				{
					"attributes":{
						"POSITION":8,
						"NORMAL":9,
						"TEXCOORD_0":10
					},
					"indices":11,
					"material":2
				},
				{
					"attributes":{
						"POSITION":12,
						"NORMAL":13,
						"TEXCOORD_0":14
					},
					"indices":15,
					"material":3
				},
				{
					"attributes":{
						"POSITION":16,
						"NORMAL":17,
						"TEXCOORD_0":18
					},
					"indices":19,
					"material":4
				}
			]
		}
	],
	"accessors":[
		{
			"bufferView":0,
			"componentType":5126,
			"count":96,
			"max":[
				3,
				0.75,
				3
			],
			"min":[
				-4,
				-0.5,
				-3
			],
			"type":"VEC3"
		},
		{
			"bufferView":1,
			"componentType":5126,
			"count":96,
			"type":"VEC3"
		},
		{
			"bufferView":2,
			"componentType":5126,
			"count":96,
			"type":"VEC2"
		},
		{
			"bufferView":3,
			"componentType":5123,
			"count":279,
			"type":"SCALAR"
		},
		{
			"bufferView":4,
			"componentType":5126,
			"count":122,
			"max":[
				3,
				0.75,
				3
			],
			"min":[
				-4,
				-1.25,
				-3
			],
			"type":"VEC3"
		},
		{
			"bufferView":5,
			"componentType":5126,
			"count":122,
			"type":"VEC3"
		},
		{
			"bufferView":6,
			"componentType":5126,
			"count":122,
			"type":"VEC2"
		},
		{
			"bufferView":7,
			"componentType":5123,
			"count":204,
			"type":"SCALAR"
		},
		{
			"bufferView":8,
			"componentType":5126,
			"count":8,
			"max":[
				2.46875,
				0.125,
				2.46875
			],
			"min":[
				-2.46875,
				0.125,
				-2.46875
			],
			"type":"VEC3"
		},
		{
			"bufferView":9,
			"componentType":5126,
			"count":8,
			"type":"VEC3"
		},
		{
			"bufferView":10,
			"componentType":5126,
			"count":8,
			"type":"VEC2"
		},
		{
			"bufferView":11,
			"componentType":5123,
			"count":18,
			"type":"SCALAR"
		},
		{
			"bufferView":12,
			"componentType":5126,
			"count":12,
			"max":[
				2.09375,
				0.75,
				2.09375
			],
			"min":[
				1.712394118309021,
				0.25,
				-2.09375
			],
			"type":"VEC3"
		},
		{
			"bufferView":13,
			"componentType":5126,
			"count":12,
			"type":"VEC3"
		},
		{
			"bufferView":14,
			"componentType":5126,
			"count":12,
			"type":"VEC2"
		},
		{
			"bufferView":15,
			"componentType":5123,
			"count":12,
			"type":"SCALAR"
		},
		{
			"bufferView":16,
			"componentType":5126,
			"count":44,
			"max":[
				2.09375,
				0.8125,
				2.09375
			],
			"min":[
				1.75,
				0.75,
				-2.09375
			],
			"type":"VEC3"
		},
		{
			"bufferView":17,
			"componentType":5126,
			"count":44,
			"type":"VEC3"
		},
		{
			"bufferView":18,
			"componentType":5126,
			"count":44,
			"type":"VEC2"
		},
		{
			"bufferView":19,
			"componentType":5123,
			"count":72,
			"type":"SCALAR"
		}
	],
	"bufferViews":[
		{
			"buffer":0,
			"byteLength":1152,
			"byteOffset":0,
			"target":34962
		},
		{
			"buffer":0,
			"byteLength":1152,
			"byteOffset":1152,
			"target":34962
		},
		{
			"buffer":0,
			"byteLength":768,
			"byteOffset":2304,
			"target":34962
		},
		{
			"buffer":0,
			"byteLength":558,
			"byteOffset":3072,
			"target":34963
		},
		{
			"buffer":0,
			"byteLength":1464,
			"byteOffset":3632,
			"target":34962
		},
		{
			"buffer":0,
			"byteLength":1464,
			"byteOffset":5096,
			"target":34962
		},
		{
			"buffer":0,
			"byteLength":976,
			"byteOffset":6560,
			"target":34962
		},
		{
			"buffer":0,
			"byteLength":408,
			"byteOffset":7536,
			"target":34963
		},
		{
			"buffer":0,
			"byteLength":96,
			"byteOffset":7944,
			"target":34962
		},
		{
			"buffer":0,
			"byteLength":96,
			"byteOffset":8040,
			"target":34962
		},
		{
			"buffer":0,
			"byteLength":64,
			"byteOffset":8136,
			"target":34962
		},
		{
			"buffer":0,
			"byteLength":36,
			"byteOffset":8200,
			"target":34963
		},
		{
			"buffer":0,
			"byteLength":144,
			"byteOffset":8236,
			"target":34962
		},
		{
			"buffer":0,
			"byteLength":144,
			"byteOffset":8380,
			"target":34962
		},
		{
			"buffer":0,
			"byteLength":96,
			"byteOffset":8524,
			"target":34962
		},
		{
			"buffer":0,
			"byteLength":24,
			"byteOffset":8620,
			"target":34963
		},
		{
			"buffer":0,
			"byteLength":528,
			"byteOffset":8644,
			"target":34962
		},
		{
			"buffer":0,
			"byteLength":528,
			"byteOffset":9172,
			"target":34962
		},
		{
			"buffer":0,
			"byteLength":352,
			"byteOffset":9700,
			"target":34962
		},
		{
			"buffer":0,
			"byteLength":144,
			"byteOffset":10052,
			"target":34963
		}
	],
	"buffers":[
		{
			"byteLength":10196,
			"uri":"rst_padbottom.bin"
		}
	]
}
