{
	"asset":{
		"generator":"Khronos glTF Blender I/O v4.5.48",
		"version":"2.0"
	},
	"scene":0,
	"scenes":[
		{
			"name":"Scene",
			"nodes":[
				0
			]
		}
	],
	"nodes":[
		{
			"mesh":0,
			"name":"Object"
		}
	],
	"materials":[
		{
			"doubleSided":true,
			"name":"BE_ICOWAL02A",
			"pbrMetallicRoughness":{
				"baseColorFactor":[
					0.800000011920929,
					0.800000011920929,
					0.800000011920929,
					1
				],
				"metallicFactor":0,
				"roughnessFactor":0.5
			}
		},
		{
			"doubleSided":true,
			"name":"BE_EWAL01B",
			"pbrMetallicRoughness":{
				"baseColorFactor":[
					0.800000011920929,
					0.800000011920929,
					0.800000011920929,
					1
				],
				"metallicFactor":0,
				"roughnessFactor":0.5
			}
		},
		{
			"doubleSided":true,
			"name":"BE_EWAL05A",
			"pbrMetallicRoughness":{
				"baseColorFactor":[
					0.800000011920929,
					0.800000011920929,
					0.800000011920929,
					1
				],
				"metallicFactor":0,
				"roughnessFactor":0.5
			}
		},
		{
			"doubleSided":true,
			"name":"BE_ITECEI02",
			"pbrMetallicRoughness":{
				"baseColorFactor":[
					0.800000011920929,
					0.800000011920929,
					0.800000011920929,
					1
				],
				"metallicFactor":0,
				"roughnessFactor":0.5
			}
		},
		{
			"doubleSided":true,
			"name":"BE_EWAL07",
			"pbrMetallicRoughness":{
				"baseColorFactor":[
					0.800000011920929,
					0.800000011920929,
					0.800000011920929,
					1
				],
				"metallicFactor":0,
				"roughnessFactor":0.5
			}
		},
		{
			"doubleSided":true,
			"name":"BE_ICEI03B",
			"pbrMetallicRoughness":{
				"baseColorFactor":[
					0.800000011920929,
					0.800000011920929,
					0.800000011920929,
					1
				],
				"metallicFactor":0,
				"roughnessFactor":0.5
			}
		},
		{
			"doubleSided":true,
			"name":"BE_IHALIG",
			"pbrMetallicRoughness":{
				"baseColorFactor":[
					0.800000011920929,
					0.800000011920929,
					0.800000011920929,
					1
				],
				"metallicFactor":0,
				"roughnessFactor":0.5
			}
		},
		{
			"doubleSided":true,
			"name":"BE_ITEFLO02",
			"pbrMetallicRoughness":{
				"baseColorFactor":[
					0.800000011920929,
					0.800000011920929,
					0.800000011920929,
					1
				],
				"metallicFactor":0,
				"roughnessFactor":0.5
			}
		},
		{
			"doubleSided":true,
			"name":"BE_EWAL05D",
			"pbrMetallicRoughness":{
				"baseColorFactor":[
					0.800000011920929,
					0.800000011920929,
					0.800000011920929,
					1
				],
				"metallicFactor":0,
				"roughnessFactor":0.5
			}
		},
		{
			"doubleSided":true,
			"name":"BE_ICOLIG01",
			"pbrMetallicRoughness":{
				"baseColorFactor":[
					0.800000011920929,
					0.800000011920929,
					0.800000011920929,
					1
				],
				"metallicFactor":0,
				"roughnessFactor":0.5
			}
		},
		{
			"doubleSided":true,
			"name":"BE_ITEFLO01",
			"pbrMetallicRoughness":{
				"baseColorFactor":[
					0.800000011920929,
					0.800000011920929,
					0.800000011920929,
					1
				],
				"metallicFactor":0,
				"roughnessFactor":0.5
			}
		}
	],
	"meshes":[
		{
			"name":"Mesh",
			"primitives":[
				{
					"attributes":{
						"POSITION":0,
						"NORMAL":1,
						"TEXCOORD_0":2
					},
					"indices":3,
					"material":0
				},
				{
					"attributes":{
						"POSITION":4,
						"NORMAL":5,
						"TEXCOORD_0":6
					},
					"indices":7,
					"material":1
				},
				{
					"attributes":{
						"POSITION":8,
						"NORMAL":9,
						"TEXCOORD_0":10
					},
					"indices":11,
					"material":2
				},
				{
					"attributes":{
						"POSITION":12,
						"NORMAL":13,
						"TEXCOORD_0":14
					},
					"indices":15,
					"material":3
				},
				{
					"attributes":{
						"POSITION":16,
						"NORMAL":17,
						"TEXCOORD_0":18
					},
					"indices":19,
					"material":4
				},
				{
					"attributes":{
						"POSITION":20,
						"NORMAL":21,
						"TEXCOORD_0":22
					},
					"indices":23,
					"material":5
				},
				{
					"attributes":{
						"POSITION":24,
						"NORMAL":25,
						"TEXCOORD_0":26
					},
					"indices":27,
					"material":6
				},
				{
					"attributes":{
						"POSITION":28,
						"NORMAL":29,
						"TEXCOORD_0":30
					},
					"indices":31,
					"material":7
				},
				{
					"attributes":{
						"POSITION":32,
						"NORMAL":33,
						"TEXCOORD_0":34
					},
					"indices":35,
					"material":8
				},
				{
					"attributes":{
						"POSITION":36,
						"NORMAL":37,
						"TEXCOORD_0":38
					},
					"indices":39,
					"material":9
				},
				{
					"attributes":{
						"POSITION":40,
						"NORMAL":41,
						"TEXCOORD_0":42
					},
					"indices":43,
					"material":10
				}
			]
		}
	],
	"accessors":[
		{
			"bufferView":0,
			"componentType":5126,
			"count":32,
			"max":[
				11.5,
				-32,
				11.5
			],
			"min":[
				-11.5,
				-33,
				-11.5
			],
			"type":"VEC3"
		},
		{
			"bufferView":1,
			"componentType":5126,
			"count":32,
			"type":"VEC3"
		},
		{
			"bufferView":2,
			"componentType":5126,
			"count":32,
			"type":"VEC2"
		},
		{
			"bufferView":3,
			"componentType":5123,
			"count":48,
			"type":"SCALAR"
		},
		{
			"bufferView":4,
			"componentType":5126,
			"count":280,
			"max":[
				15,
				4,
				15
			],
			"min":[
				-15,
				-32,
				-15
			],
			"type":"VEC3"
		},
		{
			"bufferView":5,
			"componentType":5126,
			"count":280,
			"type":"VEC3"
		},
		{
			"bufferView":6,
			"componentType":5126,
			"count":280,
			"type":"VEC2"
		},
		{
			"bufferView":7,
			"componentType":5123,
			"count":576,
			"type":"SCALAR"
		},
		{
			"bufferView":8,
			"componentType":5126,
			"count":32,
			"max":[
				13,
				-33,
				13
			],
			"min":[
				-13,
				-40,
				-13
			],
			"type":"VEC3"
		},
		{
			"bufferView":9,
			"componentType":5126,
			"count":32,
			"type":"VEC3"
		},
		{
			"bufferView":10,
			"componentType":5126,
			"count":32,
			"type":"VEC2"
		},
		{
			"bufferView":11,
			"componentType":5123,
			"count":48,
			"type":"SCALAR"
		},
		{
			"bufferView":12,
			"componentType":5126,
			"count":48,
			"max":[
				15,
				-2,
				15
			],
			"min":[
				-15,
				-6,
				-15
			],
			"type":"VEC3"
		},
		{
			"bufferView":13,
			"componentType":5126,
			"count":48,
			"type":"VEC3"
		},
		{
			"bufferView":14,
			"componentType":5126,
			"count":48,
			"type":"VEC2"
		},
		{
			"bufferView":15,
			"componentType":5123,
			"count":96,
			"type":"SCALAR"
		},
		{
			"bufferView":16,
			"componentType":5126,
			"count":304,
			"max":[
				15,
				-2,
				15
			],
			"min":[
				-15,
				-40,
				-15
			],
			"type":"VEC3"
		},
		{
			"bufferView":17,
			"componentType":5126,
			"count":304,
			"type":"VEC3"
		},
		{
			"bufferView":18,
			"componentType":5126,
			"count":304,
			"type":"VEC2"
		},
		{
			"bufferView":19,
			"componentType":5123,
			"count":552,
			"type":"SCALAR"
		},
		{
			"bufferView":20,
			"componentType":5126,
			"count":476,
			"max":[
				15,
				8,
				15
			],
			"min":[
				-15,
				-40,
				-15
			],
			"type":"VEC3"
		},
		{
			"bufferView":21,
			"componentType":5126,
			"count":476,
			"type":"VEC3"
		},
		{
			"bufferView":22,
			"componentType":5126,
			"count":476,
			"type":"VEC2"
		},
		{
			"bufferView":23,
			"componentType":5123,
			"count":1008,
			"type":"SCALAR"
		},
		{
			"bufferView":24,
			"componentType":5126,
			"count":16,
			"max":[
				13,
				-2,
				13
			],
			"min":[
				-13,
				-4,
				-13
			],
			"type":"VEC3"
		},
		{
			"bufferView":25,
			"componentType":5126,
			"count":16,
			"type":"VEC3"
		},
		{
			"bufferView":26,
			"componentType":5126,
			"count":16,
			"type":"VEC2"
		},
		{
			"bufferView":27,
			"componentType":5123,
			"count":24,
			"type":"SCALAR"
		},
		{
			"bufferView":28,
			"componentType":5126,
			"count":36,
			"max":[
				15,
				8,
				15
			],
			"min":[
				-15,
				-6,
				-15
			],
			"type":"VEC3"
		},
		{
			"bufferView":29,
			"componentType":5126,
			"count":36,
			"type":"VEC3"
		},
		{
			"bufferView":30,
			"componentType":5126,
			"count":36,
			"type":"VEC2"
		},
		{
			"bufferView":31,
			"componentType":5123,
			"count":54,
			"type":"SCALAR"
		},
		{
			"bufferView":32,
			"componentType":5126,
			"count":48,
			"max":[
				15,
				-33,
				15
			],
			"min":[
				-15,
				-40,
				-15
			],
			"type":"VEC3"
		},
		{
			"bufferView":33,
			"componentType":5126,
			"count":48,
			"type":"VEC3"
		},
		{
			"bufferView":34,
			"componentType":5126,
			"count":48,
			"type":"VEC2"
		},
		{
			"bufferView":35,
			"componentType":5123,
			"count":72,
			"type":"SCALAR"
		},
		{
			"bufferView":36,
			"componentType":5126,
			"count":48,
			"max":[
				15,
				-32,
				15
			],
			"min":[
				-15,
				-33,
				-15
			],
			"type":"VEC3"
		},
		{
			"bufferView":37,
			"componentType":5126,
			"count":48,
			"type":"VEC3"
		},
		{
			"bufferView":38,
			"componentType":5126,
			"count":48,
			"type":"VEC2"
		},
		{
			"bufferView":39,
			"componentType":5123,
			"count":72,
			"type":"SCALAR"
		},
		{
			"bufferView":40,
			"componentType":5126,
			"count":80,
			"max":[
				13.5,
				-7,
				13.5
			],
			"min":[
				-13.5,
				-8,
				-13.5
			],
			"type":"VEC3"
		},
		{
			"bufferView":41,
			"componentType":5126,
			"count":80,
			"type":"VEC3"
		},
		{
			"bufferView":42,
			"componentType":5126,
			"count":80,
			"type":"VEC2"
		},
		{
			"bufferView":43,
			"componentType":5123,
			"count":144,
			"type":"SCALAR"
		}
	],
	"bufferViews":[
		{
			"buffer":0,
			"byteLength":384,
			"byteOffset":0,
			"target":34962
		},
		{
			"buffer":0,
			"byteLength":384,
			"byteOffset":384,
			"target":34962
		},
		{
			"buffer":0,
			"byteLength":256,
			"byteOffset":768,
			"target":34962
		},
		{
			"buffer":0,
			"byteLength":96,
			"byteOffset":1024,
			"target":34963
		},
		{
			"buffer":0,
			"byteLength":3360,
			"byteOffset":1120,
			"target":34962
		},
		{
			"buffer":0,
			"byteLength":3360,
			"byteOffset":4480,
			"target":34962
		},
		{
			"buffer":0,
			"byteLength":2240,
			"byteOffset":7840,
			"target":34962
		},
		{
			"buffer":0,
			"byteLength":1152,
			"byteOffset":10080,
			"target":34963
		},
		{
			"buffer":0,
			"byteLength":384,
			"byteOffset":11232,
			"target":34962
		},
		{
			"buffer":0,
			"byteLength":384,
			"byteOffset":11616,
			"target":34962
		},
		{
			"buffer":0,
			"byteLength":256,
			"byteOffset":12000,
			"target":34962
		},
		{
			"buffer":0,
			"byteLength":96,
			"byteOffset":12256,
			"target":34963
		},
		{
			"buffer":0,
			"byteLength":576,
			"byteOffset":12352,
			"target":34962
		},
		{
			"buffer":0,
			"byteLength":576,
			"byteOffset":12928,
			"target":34962
		},
		{
			"buffer":0,
			"byteLength":384,
			"byteOffset":13504,
			"target":34962
		},
		{
			"buffer":0,
			"byteLength":192,
			"byteOffset":13888,
			"target":34963
		},
		{
			"buffer":0,
			"byteLength":3648,
			"byteOffset":14080,
			"target":34962
		},
		{
			"buffer":0,
			"byteLength":3648,
			"byteOffset":17728,
			"target":34962
		},
		{
			"buffer":0,
			"byteLength":2432,
			"byteOffset":21376,
			"target":34962
		},
		{
			"buffer":0,
			"byteLength":1104,
			"byteOffset":23808,
			"target":34963
		},
		{
			"buffer":0,
			"byteLength":5712,
			"byteOffset":24912,
			"target":34962
		},
		{
			"buffer":0,
			"byteLength":5712,
			"byteOffset":30624,
			"target":34962
		},
		{
			"buffer":0,
			"byteLength":3808,
			"byteOffset":36336,
			"target":34962
		},
		{
			"buffer":0,
			"byteLength":2016,
			"byteOffset":40144,
			"target":34963
		},
		{
			"buffer":0,
			"byteLength":192,
			"byteOffset":42160,
			"target":34962
		},
		{
			"buffer":0,
			"byteLength":192,
			"byteOffset":42352,
			"target":34962
		},
		{
			"buffer":0,
			"byteLength":128,
			"byteOffset":42544,
			"target":34962
		},
		{
			"buffer":0,
			"byteLength":48,
			"byteOffset":42672,
			"target":34963
		},
		{
			"buffer":0,
			"byteLength":432,
			"byteOffset":42720,
			"target":34962
		},
		{
			"buffer":0,
			"byteLength":432,
			"byteOffset":43152,
			"target":34962
		},
		{
			"buffer":0,
			"byteLength":288,
			"byteOffset":43584,
			"target":34962
		},
		{
			"buffer":0,
			"byteLength":108,
			"byteOffset":43872,
			"target":34963
		},
		{
			"buffer":0,
			"byteLength":576,
			"byteOffset":43980,
			"target":34962
		},
		{
			"buffer":0,
			"byteLength":576,
			"byteOffset":44556,
			"target":34962
		},
		{
			"buffer":0,
			"byteLength":384,
			"byteOffset":45132,
			"target":34962
		},
		{
			"buffer":0,
			"byteLength":144,
			"byteOffset":45516,
			"target":34963
		},
		{
			"buffer":0,
			"byteLength":576,
			"byteOffset":45660,
			"target":34962
		},
		{
			"buffer":0,
			"byteLength":576,
			"byteOffset":46236,
			"target":34962
		},
		{
			"buffer":0,
			"byteLength":384,
			"byteOffset":46812,
			"target":34962
		},
		{
			"buffer":0,
			"byteLength":144,
			"byteOffset":47196,
			"target":34963
		},
		{
			"buffer":0,
			"byteLength":960,
			"byteOffset":47340,
			"target":34962
		},
		{
			"buffer":0,
			"byteLength":960,
			"byteOffset":48300,
			"target":34962
		},
		{
			"buffer":0,
			"byteLength":640,
			"byteOffset":49260,
			"target":34962
		},
		{
			"buffer":0,
			"byteLength":288,
			"byteOffset":49900,
			"target":34963
		}
	],
	"buffers":[
		{
			"byteLength":50188,
			"uri":"rst_agroleonstand.bin"
		}
	]
}
