{
	"asset":{
		"generator":"Khronos glTF Blender I/O v4.5.48",
		"version":"2.0"
	},
	"scene":0,
	"scenes":[
		{
			"name":"Scene",
			"nodes":[
				0
			]
		}
	],
	"nodes":[
		{
			"mesh":0,
			"name":"Object"
		}
	],
	"materials":[
		{
			"doubleSided":true,
			"name":"bd_icei03",
			"pbrMetallicRoughness":{
				"baseColorFactor":[
					0.800000011920929,
					0.800000011920929,
					0.800000011920929,
					1
				],
				"metallicFactor":0,
				"roughnessFactor":0.5
			}
		}
	],
	"meshes":[
		{
			"name":"Mesh",
			"primitives":[
				{
					"attributes":{
						"POSITION":0,
						"NORMAL":1,
						"TEXCOORD_0":2
					},
					"indices":3,
					"material":0
				}
			]
		}
	],
	"accessors":[
		{
			"bufferView":0,
			"componentType":5126,
			"count":4569,
			"max":[
				35,
				38,
				29
			],
			"min":[
				-30,
				-1.7533915400332056e-13,
				-35.5
			],
			"type":"VEC3"
		},
		{
			"bufferView":1,
			"componentType":5126,
			"count":4569,
			"type":"VEC3"
		},
		{
			"bufferView":2,
			"componentType":5126,
			"count":4569,
			"type":"VEC2"
		},
		{
			"bufferView":3,
			"componentType":5123,
			"count":12789,
			"type":"SCALAR"
		}
	],
	"bufferViews":[
		{
			"buffer":0,
			"byteLength":54828,
			"byteOffset":0,
			"target":34962
		},
		{
			"buffer":0,
			"byteLength":54828,
			"byteOffset":54828,
			"target":34962
		},
		{
			"buffer":0,
			"byteLength":36552,
			"byteOffset":109656,
			"target":34962
		},
		{
			"buffer":0,
			"byteLength":25578,
			"byteOffset":146208,
			"target":34963
		}
	],
	"buffers":[
		{
			"byteLength":171788,
			"uri":"rst_debris1.bin"
		}
	]
}
