{
	"asset":{
		"generator":"Khronos glTF Blender I/O v4.5.48",
		"version":"2.0"
	},
	"scene":0,
	"scenes":[
		{
			"name":"Scene",
			"nodes":[
				0
			]
		}
	],
	"nodes":[
		{
			"mesh":0,
			"name":"Object"
		}
	],
	"materials":[
		{
			"doubleSided":true,
			"name":"BE_EWAL01B",
			"pbrMetallicRoughness":{
				"baseColorFactor":[
					0.800000011920929,
					0.800000011920929,
					0.800000011920929,
					1
				],
				"metallicFactor":0,
				"roughnessFactor":0.5
			}
		},
		{
			"doubleSided":true,
			"name":"BE_EFLO02",
			"pbrMetallicRoughness":{
				"baseColorFactor":[
					0.800000011920929,
					0.800000011920929,
					0.800000011920929,
					1
				],
				"metallicFactor":0,
				"roughnessFactor":0.5
			}
		},
		{
			"doubleSided":true,
			"name":"BE_ICEI03B",
			"pbrMetallicRoughness":{
				"baseColorFactor":[
					0.800000011920929,
					0.800000011920929,
					0.800000011920929,
					1
				],
				"metallicFactor":0,
				"roughnessFactor":0.5
			}
		},
		{
			"doubleSided":true,
			"name":"BE_EWAL07",
			"pbrMetallicRoughness":{
				"baseColorFactor":[
					0.800000011920929,
					0.800000011920929,
					0.800000011920929,
					1
				],
				"metallicFactor":0,
				"roughnessFactor":0.5
			}
		},
		{
			"doubleSided":true,
			"name":"BE_ITEWAL01",
			"pbrMetallicRoughness":{
				"baseColorFactor":[
					0.800000011920929,
					0.800000011920929,
					0.800000011920929,
					1
				],
				"metallicFactor":0,
				"roughnessFactor":0.5
			}
		},
		{
			"doubleSided":true,
			"name":"BE_ITEBOR02A",
			"pbrMetallicRoughness":{
				"baseColorFactor":[
					0.800000011920929,
					0.800000011920929,
					0.800000011920929,
					1
				],
				"metallicFactor":0,
				"roughnessFactor":0.5
			}
		},
		{
			"doubleSided":true,
			"name":"BE_ITEWAL02",
			"pbrMetallicRoughness":{
				"baseColorFactor":[
					0.800000011920929,
					0.800000011920929,
					0.800000011920929,
					1
				],
				"metallicFactor":0,
				"roughnessFactor":0.5
			}
		},
		{
			"doubleSided":true,
			"name":"BE_ITEWAL03",
			"pbrMetallicRoughness":{
				"baseColorFactor":[
					0.800000011920929,
					0.800000011920929,
					0.800000011920929,
					1
				],
				"metallicFactor":0,
				"roughnessFactor":0.5
			}
		},
		{
			"doubleSided":true,
			"name":"BE_ICOLIG",
			"pbrMetallicRoughness":{
				"baseColorFactor":[
					0.800000011920929,
					0.800000011920929,
					0.800000011920929,
					1
				],
				"metallicFactor":0,
				"roughnessFactor":0.5
			}
		},
		{
			"doubleSided":true,
			"name":"BE_ITEWAL04",
			"pbrMetallicRoughness":{
				"baseColorFactor":[
					0.800000011920929,
					0.800000011920929,
					0.800000011920929,
					1
				],
				"metallicFactor":0,
				"roughnessFactor":0.5
			}
		},
		{
			"doubleSided":true,
			"name":"BE_EBOR03",
			"pbrMetallicRoughness":{
				"baseColorFactor":[
					0.800000011920929,
					0.800000011920929,
					0.800000011920929,
					1
				],
				"metallicFactor":0,
				"roughnessFactor":0.5
			}
		}
	],
	"meshes":[
		{
			"name":"Mesh",
			"primitives":[
				{
					"attributes":{
						"POSITION":0,
						"NORMAL":1,
						"TEXCOORD_0":2
					},
					"indices":3,
					"material":0
				},
				{
					"attributes":{
						"POSITION":4,
						"NORMAL":5,
						"TEXCOORD_0":6
					},
					"indices":7,
					"material":1
				},
				{
					"attributes":{
						"POSITION":8,
						"NORMAL":9,
						"TEXCOORD_0":10
					},
					"indices":11,
					"material":2
				},
				{
					"attributes":{
						"POSITION":12,
						"NORMAL":13,
						"TEXCOORD_0":14
					},
					"indices":15,
					"material":3
				},
				{
					"attributes":{
						"POSITION":16,
						"NORMAL":17,
						"TEXCOORD_0":18
					},
					"indices":19,
					"material":4
				},
				{
					"attributes":{
						"POSITION":20,
						"NORMAL":21,
						"TEXCOORD_0":22
					},
					"indices":23,
					"material":5
				},
				{
					"attributes":{
						"POSITION":24,
						"NORMAL":25,
						"TEXCOORD_0":26
					},
					"indices":27,
					"material":6
				},
				{
					"attributes":{
						"POSITION":28,
						"NORMAL":29,
						"TEXCOORD_0":30
					},
					"indices":31,
					"material":7
				},
				{
					"attributes":{
						"POSITION":32,
						"NORMAL":33,
						"TEXCOORD_0":34
					},
					"indices":35,
					"material":8
				},
				{
					"attributes":{
						"POSITION":36,
						"NORMAL":37,
						"TEXCOORD_0":38
					},
					"indices":39,
					"material":9
				},
				{
					"attributes":{
						"POSITION":40,
						"NORMAL":41,
						"TEXCOORD_0":42
					},
					"indices":43,
					"material":10
				}
			]
		}
	],
	"accessors":[
		{
			"bufferView":0,
			"componentType":5126,
			"count":28,
			"max":[
				24,
				-30,
				32
			],
			"min":[
				-24,
				-96,
				-24
			],
			"type":"VEC3"
		},
		{
			"bufferView":1,
			"componentType":5126,
			"count":28,
			"type":"VEC3"
		},
		{
			"bufferView":2,
			"componentType":5126,
			"count":28,
			"type":"VEC2"
		},
		{
			"bufferView":3,
			"componentType":5123,
			"count":48,
			"type":"SCALAR"
		},
		{
			"bufferView":4,
			"componentType":5126,
			"count":34,
			"max":[
				24,
				-16,
				32
			],
			"min":[
				-24,
				-27,
				-24
			],
			"type":"VEC3"
		},
		{
			"bufferView":5,
			"componentType":5126,
			"count":34,
			"type":"VEC3"
		},
		{
			"bufferView":6,
			"componentType":5126,
			"count":34,
			"type":"VEC2"
		},
		{
			"bufferView":7,
			"componentType":5123,
			"count":87,
			"type":"SCALAR"
		},
		{
			"bufferView":8,
			"componentType":5126,
			"count":49,
			"max":[
				24,
				54.25,
				24
			],
			"min":[
				-24,
				-28,
				-24
			],
			"type":"VEC3"
		},
		{
			"bufferView":9,
			"componentType":5126,
			"count":49,
			"type":"VEC3"
		},
		{
			"bufferView":10,
			"componentType":5126,
			"count":49,
			"type":"VEC2"
		},
		{
			"bufferView":11,
			"componentType":5123,
			"count":87,
			"type":"SCALAR"
		},
		{
			"bufferView":12,
			"componentType":5126,
			"count":829,
			"max":[
				24,
				106.6875,
				32
			],
			"min":[
				-24,
				-30,
				-43.25
			],
			"type":"VEC3"
		},
		{
			"bufferView":13,
			"componentType":5126,
			"count":829,
			"type":"VEC3"
		},
		{
			"bufferView":14,
			"componentType":5126,
			"count":829,
			"type":"VEC2"
		},
		{
			"bufferView":15,
			"componentType":5123,
			"count":1599,
			"type":"SCALAR"
		},
		{
			"bufferView":16,
			"componentType":5126,
			"count":305,
			"max":[
				19.000478744506836,
				106.6875,
				-11.1875
			],
			"min":[
				-19,
				32,
				-43.25
			],
			"type":"VEC3"
		},
		{
			"bufferView":17,
			"componentType":5126,
			"count":305,
			"type":"VEC3"
		},
		{
			"bufferView":18,
			"componentType":5126,
			"count":305,
			"type":"VEC2"
		},
		{
			"bufferView":19,
			"componentType":5123,
			"count":483,
			"type":"SCALAR"
		},
		{
			"bufferView":20,
			"componentType":5126,
			"count":20,
			"max":[
				5.125,
				104.65625,
				-17.75
			],
			"min":[
				3.125,
				54.25,
				-43.25
			],
			"type":"VEC3"
		},
		{
			"bufferView":21,
			"componentType":5126,
			"count":20,
			"type":"VEC3"
		},
		{
			"bufferView":22,
			"componentType":5126,
			"count":20,
			"type":"VEC2"
		},
		{
			"bufferView":23,
			"componentType":5123,
			"count":30,
			"type":"SCALAR"
		},
		{
			"bufferView":24,
			"componentType":5126,
			"count":20,
			"max":[
				-3.125,
				52,
				-10
			],
			"min":[
				-7.875,
				32,
				-14
			],
			"type":"VEC3"
		},
		{
			"bufferView":25,
			"componentType":5126,
			"count":20,
			"type":"VEC3"
		},
		{
			"bufferView":26,
			"componentType":5126,
			"count":20,
			"type":"VEC2"
		},
		{
			"bufferView":27,
			"componentType":5123,
			"count":30,
			"type":"SCALAR"
		},
		{
			"bufferView":28,
			"componentType":5126,
			"count":20,
			"max":[
				24,
				-28,
				24
			],
			"min":[
				-24,
				-30,
				-24
			],
			"type":"VEC3"
		},
		{
			"bufferView":29,
			"componentType":5126,
			"count":20,
			"type":"VEC3"
		},
		{
			"bufferView":30,
			"componentType":5126,
			"count":20,
			"type":"VEC2"
		},
		{
			"bufferView":31,
			"componentType":5123,
			"count":30,
			"type":"SCALAR"
		},
		{
			"bufferView":32,
			"componentType":5126,
			"count":64,
			"max":[
				18.75,
				56.34375,
				-11.1875
			],
			"min":[
				-18.75,
				51.375,
				-16.15625
			],
			"type":"VEC3"
		},
		{
			"bufferView":33,
			"componentType":5126,
			"count":64,
			"type":"VEC3"
		},
		{
			"bufferView":34,
			"componentType":5126,
			"count":64,
			"type":"VEC2"
		},
		{
			"bufferView":35,
			"componentType":5123,
			"count":144,
			"type":"SCALAR"
		},
		{
			"bufferView":36,
			"componentType":5126,
			"count":349,
			"max":[
				19.000478744506836,
				57.03125,
				-10.484375
			],
			"min":[
				-19,
				51.03125,
				-16.5
			],
			"type":"VEC3"
		},
		{
			"bufferView":37,
			"componentType":5126,
			"count":349,
			"type":"VEC3"
		},
		{
			"bufferView":38,
			"componentType":5126,
			"count":349,
			"type":"VEC2"
		},
		{
			"bufferView":39,
			"componentType":5123,
			"count":615,
			"type":"SCALAR"
		},
		{
			"bufferView":40,
			"componentType":5126,
			"count":297,
			"max":[
				18.75,
				56.875,
				-11.1875
			],
			"min":[
				-18.75,
				51.1875,
				-16.34375
			],
			"type":"VEC3"
		},
		{
			"bufferView":41,
			"componentType":5126,
			"count":297,
			"type":"VEC3"
		},
		{
			"bufferView":42,
			"componentType":5126,
			"count":297,
			"type":"VEC2"
		},
		{
			"bufferView":43,
			"componentType":5123,
			"count":459,
			"type":"SCALAR"
		}
	],
	"bufferViews":[
		{
			"buffer":0,
			"byteLength":336,
			"byteOffset":0,
			"target":34962
		},
		{
			"buffer":0,
			"byteLength":336,
			"byteOffset":336,
			"target":34962
		},
		{
			"buffer":0,
			"byteLength":224,
			"byteOffset":672,
			"target":34962
		},
		{
			"buffer":0,
			"byteLength":96,
			"byteOffset":896,
			"target":34963
		},
		{
			"buffer":0,
			"byteLength":408,
			"byteOffset":992,
			"target":34962
		},
		{
			"buffer":0,
			"byteLength":408,
			"byteOffset":1400,
			"target":34962
		},
		{
			"buffer":0,
			"byteLength":272,
			"byteOffset":1808,
			"target":34962
		},
		{
			"buffer":0,
			"byteLength":174,
			"byteOffset":2080,
			"target":34963
		},
		{
			"buffer":0,
			"byteLength":588,
			"byteOffset":2256,
			"target":34962
		},
		{
			"buffer":0,
			"byteLength":588,
			"byteOffset":2844,
			"target":34962
		},
		{
			"buffer":0,
			"byteLength":392,
			"byteOffset":3432,
			"target":34962
		},
		{
			"buffer":0,
			"byteLength":174,
			"byteOffset":3824,
			"target":34963
		},
		{
			"buffer":0,
			"byteLength":9948,
			"byteOffset":4000,
			"target":34962
		},
		{
			"buffer":0,
			"byteLength":9948,
			"byteOffset":13948,
			"target":34962
		},
		{
			"buffer":0,
			"byteLength":6632,
			"byteOffset":23896,
			"target":34962
		},
		{
			"buffer":0,
			"byteLength":3198,
			"byteOffset":30528,
			"target":34963
		},
		{
			"buffer":0,
			"byteLength":3660,
			"byteOffset":33728,
			"target":34962
		},
		{
			"buffer":0,
			"byteLength":3660,
			"byteOffset":37388,
			"target":34962
		},
		{
			"buffer":0,
			"byteLength":2440,
			"byteOffset":41048,
			"target":34962
		},
		{
			"buffer":0,
			"byteLength":966,
			"byteOffset":43488,
			"target":34963
		},
		{
			"buffer":0,
			"byteLength":240,
			"byteOffset":44456,
			"target":34962
		},
		{
			"buffer":0,
			"byteLength":240,
			"byteOffset":44696,
			"target":34962
		},
		{
			"buffer":0,
			"byteLength":160,
			"byteOffset":44936,
			"target":34962
		},
		{
			"buffer":0,
			"byteLength":60,
			"byteOffset":45096,
			"target":34963
		},
		{
			"buffer":0,
			"byteLength":240,
			"byteOffset":45156,
			"target":34962
		},
		{
			"buffer":0,
			"byteLength":240,
			"byteOffset":45396,
			"target":34962
		},
		{
			"buffer":0,
			"byteLength":160,
			"byteOffset":45636,
			"target":34962
		},
		{
			"buffer":0,
			"byteLength":60,
			"byteOffset":45796,
			"target":34963
		},
		{
			"buffer":0,
			"byteLength":240,
			"byteOffset":45856,
			"target":34962
		},
		{
			"buffer":0,
			"byteLength":240,
			"byteOffset":46096,
			"target":34962
		},
		{
			"buffer":0,
			"byteLength":160,
			"byteOffset":46336,
			"target":34962
		},
		{
			"buffer":0,
			"byteLength":60,
			"byteOffset":46496,
			"target":34963
		},
		{
			"buffer":0,
			"byteLength":768,
			"byteOffset":46556,
			"target":34962
		},
		{
			"buffer":0,
			"byteLength":768,
			"byteOffset":47324,
			"target":34962
		},
		{
			"buffer":0,
			"byteLength":512,
			"byteOffset":48092,
			"target":34962
		},
		{
			"buffer":0,
			"byteLength":288,
			"byteOffset":48604,
			"target":34963
		},
		{
			"buffer":0,
			"byteLength":4188,
			"byteOffset":48892,
			"target":34962
		},
		{
			"buffer":0,
			"byteLength":4188,
			"byteOffset":53080,
			"target":34962
		},
		{
			"buffer":0,
			"byteLength":2792,
			"byteOffset":57268,
			"target":34962
		},
		{
			"buffer":0,
			"byteLength":1230,
			"byteOffset":60060,
			"target":34963
		},
		{
			"buffer":0,
			"byteLength":3564,
			"byteOffset":61292,
			"target":34962
		},
		{
			"buffer":0,
			"byteLength":3564,
			"byteOffset":64856,
			"target":34962
		},
		{
			"buffer":0,
			"byteLength":2376,
			"byteOffset":68420,
			"target":34962
		},
		{
			"buffer":0,
			"byteLength":918,
			"byteOffset":70796,
			"target":34963
		}
	],
	"buffers":[
		{
			"byteLength":71716,
			"uri":"rst_arenalight.bin"
		}
	]
}
