{
	"asset":{
		"generator":"Khronos glTF Blender I/O v4.5.48",
		"version":"2.0"
	},
	"scene":0,
	"scenes":[
		{
			"name":"Scene",
			"nodes":[
				0,
				1,
				2
			]
		}
	],
	"nodes":[
		{
			"mesh":0,
			"name":"Object"
		},
		{
			"mesh":1,
			"name":"Object.001"
		},
		{
			"mesh":2,
			"name":"Object.002"
		}
	],
	"materials":[
		{
			"doubleSided":true,
			"name":"mossDirt2",
			"pbrMetallicRoughness":{
				"baseColorFactor":[
					0.800000011920929,
					0.800000011920929,
					0.800000011920929,
					1
				],
				"metallicFactor":0,
				"roughnessFactor":0.5
			}
		},
		{
			"doubleSided":true,
			"name":"grassMix5",
			"pbrMetallicRoughness":{
				"baseColorFactor":[
					0.800000011920929,
					0.800000011920929,
					0.800000011920929,
					1
				],
				"metallicFactor":0,
				"roughnessFactor":0.5
			}
		},
		{
			"doubleSided":true,
			"name":"mossRock3",
			"pbrMetallicRoughness":{
				"baseColorFactor":[
					0.800000011920929,
					0.800000011920929,
					0.800000011920929,
					1
				],
				"metallicFactor":0,
				"roughnessFactor":0.5
			}
		},
		{
			"doubleSided":true,
			"name":"mossDirt2.001",
			"pbrMetallicRoughness":{
				"baseColorFactor":[
					0.800000011920929,
					0.800000011920929,
					0.800000011920929,
					1
				],
				"metallicFactor":0,
				"roughnessFactor":0.5
			}
		},
		{
			"doubleSided":true,
			"name":"grassMix5.001",
			"pbrMetallicRoughness":{
				"baseColorFactor":[
					0.800000011920929,
					0.800000011920929,
					0.800000011920929,
					1
				],
				"metallicFactor":0,
				"roughnessFactor":0.5
			}
		},
		{
			"doubleSided":true,
			"name":"mossRock3.001",
			"pbrMetallicRoughness":{
				"baseColorFactor":[
					0.800000011920929,
					0.800000011920929,
					0.800000011920929,
					1
				],
				"metallicFactor":0,
				"roughnessFactor":0.5
			}
		},
		{
			"doubleSided":true,
			"name":"mossDirt2.002",
			"pbrMetallicRoughness":{
				"baseColorFactor":[
					0.800000011920929,
					0.800000011920929,
					0.800000011920929,
					1
				],
				"metallicFactor":0,
				"roughnessFactor":0.5
			}
		},
		{
			"doubleSided":true,
			"name":"grassMix5.002",
			"pbrMetallicRoughness":{
				"baseColorFactor":[
					0.800000011920929,
					0.800000011920929,
					0.800000011920929,
					1
				],
				"metallicFactor":0,
				"roughnessFactor":0.5
			}
		}
	],
	"meshes":[
		{
			"name":"Mesh",
			"primitives":[
				{
					"attributes":{
						"POSITION":0,
						"NORMAL":1,
						"TEXCOORD_0":2
					},
					"indices":3,
					"material":0
				},
				{
					"attributes":{
						"POSITION":4,
						"NORMAL":5,
						"TEXCOORD_0":6
					},
					"indices":7,
					"material":1
				},
				{
					"attributes":{
						"POSITION":8,
						"NORMAL":9,
						"TEXCOORD_0":10
					},
					"indices":11,
					"material":2
				}
			]
		},
		{
			"name":"Mesh.001",
			"primitives":[
				{
					"attributes":{
						"POSITION":12,
						"NORMAL":13,
						"TEXCOORD_0":14
					},
					"indices":15,
					"material":3
				},
				{
					"attributes":{
						"POSITION":16,
						"NORMAL":17,
						"TEXCOORD_0":18
					},
					"indices":19,
					"material":4
				},
				{
					"attributes":{
						"POSITION":20,
						"NORMAL":21,
						"TEXCOORD_0":22
					},
					"indices":23,
					"material":5
				}
			]
		},
		{
			"name":"Mesh.002",
			"primitives":[
				{
					"attributes":{
						"POSITION":24,
						"NORMAL":25,
						"TEXCOORD_0":26
					},
					"indices":27,
					"material":6
				},
				{
					"attributes":{
						"POSITION":28,
						"NORMAL":29,
						"TEXCOORD_0":30
					},
					"indices":31,
					"material":7
				}
			]
		}
	],
	"accessors":[
		{
			"bufferView":0,
			"componentType":5126,
			"count":336,
			"max":[
				49,
				-25,
				52.5
			],
			"min":[
				-47.5,
				-104,
				-42
			],
			"type":"VEC3"
		},
		{
			"bufferView":1,
			"componentType":5126,
			"count":336,
			"type":"VEC3"
		},
		{
			"bufferView":2,
			"componentType":5126,
			"count":336,
			"type":"VEC2"
		},
		{
			"bufferView":3,
			"componentType":5123,
			"count":336,
			"type":"SCALAR"
		},
		{
			"bufferView":4,
			"componentType":5126,
			"count":96,
			"max":[
				47.5,
				-23.5,
				51.5
			],
			"min":[
				-46,
				-26,
				-38
			],
			"type":"VEC3"
		},
		{
			"bufferView":5,
			"componentType":5126,
			"count":96,
			"type":"VEC3"
		},
		{
			"bufferView":6,
			"componentType":5126,
			"count":96,
			"type":"VEC2"
		},
		{
			"bufferView":7,
			"componentType":5123,
			"count":96,
			"type":"SCALAR"
		},
		{
			"bufferView":8,
			"componentType":5126,
			"count":96,
			"max":[
				49,
				-23.5,
				52.5
			],
			"min":[
				-47.5,
				-26,
				-42
			],
			"type":"VEC3"
		},
		{
			"bufferView":9,
			"componentType":5126,
			"count":96,
			"type":"VEC3"
		},
		{
			"bufferView":10,
			"componentType":5126,
			"count":96,
			"type":"VEC2"
		},
		{
			"bufferView":11,
			"componentType":5123,
			"count":96,
			"type":"SCALAR"
		},
		{
			"bufferView":12,
			"componentType":5126,
			"count":255,
			"max":[
				49,
				-25,
				52.5
			],
			"min":[
				-47.5,
				-104,
				-42
			],
			"type":"VEC3"
		},
		{
			"bufferView":13,
			"componentType":5126,
			"count":255,
			"type":"VEC3"
		},
		{
			"bufferView":14,
			"componentType":5126,
			"count":255,
			"type":"VEC2"
		},
		{
			"bufferView":15,
			"componentType":5123,
			"count":255,
			"type":"SCALAR"
		},
		{
			"bufferView":16,
			"componentType":5126,
			"count":39,
			"max":[
				49,
				-23.5,
				52.5
			],
			"min":[
				-47.5,
				-26,
				-38
			],
			"type":"VEC3"
		},
		{
			"bufferView":17,
			"componentType":5126,
			"count":39,
			"type":"VEC3"
		},
		{
			"bufferView":18,
			"componentType":5126,
			"count":39,
			"type":"VEC2"
		},
		{
			"bufferView":19,
			"componentType":5123,
			"count":39,
			"type":"SCALAR"
		},
		{
			"bufferView":20,
			"componentType":5126,
			"count":18,
			"max":[
				48,
				-23.5,
				36.5
			],
			"min":[
				-45.5,
				-25.5,
				-42
			],
			"type":"VEC3"
		},
		{
			"bufferView":21,
			"componentType":5126,
			"count":18,
			"type":"VEC3"
		},
		{
			"bufferView":22,
			"componentType":5126,
			"count":18,
			"type":"VEC2"
		},
		{
			"bufferView":23,
			"componentType":5123,
			"count":18,
			"type":"SCALAR"
		},
		{
			"bufferView":24,
			"componentType":5126,
			"count":162,
			"max":[
				48,
				-25,
				52.5
			],
			"min":[
				-47.5,
				-104,
				-42
			],
			"type":"VEC3"
		},
		{
			"bufferView":25,
			"componentType":5126,
			"count":162,
			"type":"VEC3"
		},
		{
			"bufferView":26,
			"componentType":5126,
			"count":162,
			"type":"VEC2"
		},
		{
			"bufferView":27,
			"componentType":5123,
			"count":162,
			"type":"SCALAR"
		},
		{
			"bufferView":28,
			"componentType":5126,
			"count":18,
			"max":[
				48,
				-25,
				52.5
			],
			"min":[
				-47.5,
				-26,
				-42
			],
			"type":"VEC3"
		},
		{
			"bufferView":29,
			"componentType":5126,
			"count":18,
			"type":"VEC3"
		},
		{
			"bufferView":30,
			"componentType":5126,
			"count":18,
			"type":"VEC2"
		},
		{
			"bufferView":31,
			"componentType":5123,
			"count":18,
			"type":"SCALAR"
		}
	],
	"bufferViews":[
		{
			"buffer":0,
			"byteLength":4032,
			"byteOffset":0,
			"target":34962
		},
		{
			"buffer":0,
			"byteLength":4032,
			"byteOffset":4032,
			"target":34962
		},
		{
			"buffer":0,
			"byteLength":2688,
			"byteOffset":8064,
			"target":34962
		},
		{
			"buffer":0,
			"byteLength":672,
			"byteOffset":10752,
			"target":34963
		},
		{
			"buffer":0,
			"byteLength":1152,
			"byteOffset":11424,
			"target":34962
		},
		{
			"buffer":0,
			"byteLength":1152,
			"byteOffset":12576,
			"target":34962
		},
		{
			"buffer":0,
			"byteLength":768,
			"byteOffset":13728,
			"target":34962
		},
		{
			"buffer":0,
			"byteLength":192,
			"byteOffset":14496,
			"target":34963
		},
		{
			"buffer":0,
			"byteLength":1152,
			"byteOffset":14688,
			"target":34962
		},
		{
			"buffer":0,
			"byteLength":1152,
			"byteOffset":15840,
			"target":34962
		},
		{
			"buffer":0,
			"byteLength":768,
			"byteOffset":16992,
			"target":34962
		},
		{
			"buffer":0,
			"byteLength":192,
			"byteOffset":17760,
			"target":34963
		},
		{
			"buffer":0,
			"byteLength":3060,
			"byteOffset":17952,
			"target":34962
		},
		{
			"buffer":0,
			"byteLength":3060,
			"byteOffset":21012,
			"target":34962
		},
		{
			"buffer":0,
			"byteLength":2040,
			"byteOffset":24072,
			"target":34962
		},
		{
			"buffer":0,
			"byteLength":510,
			"byteOffset":26112,
			"target":34963
		},
		{
			"buffer":0,
			"byteLength":468,
			"byteOffset":26624,
			"target":34962
		},
		{
			"buffer":0,
			"byteLength":468,
			"byteOffset":27092,
			"target":34962
		},
		{
			"buffer":0,
			"byteLength":312,
			"byteOffset":27560,
			"target":34962
		},
		{
			"buffer":0,
			"byteLength":78,
			"byteOffset":27872,
			"target":34963
		},
		{
			"buffer":0,
			"byteLength":216,
			"byteOffset":27952,
			"target":34962
		},
		{
			"buffer":0,
			"byteLength":216,
			"byteOffset":28168,
			"target":34962
		},
		{
			"buffer":0,
			"byteLength":144,
			"byteOffset":28384,
			"target":34962
		},
		{
			"buffer":0,
			"byteLength":36,
			"byteOffset":28528,
			"target":34963
		},
		{
			"buffer":0,
			"byteLength":1944,
			"byteOffset":28564,
			"target":34962
		},
		{
			"buffer":0,
			"byteLength":1944,
			"byteOffset":30508,
			"target":34962
		},
		{
			"buffer":0,
			"byteLength":1296,
			"byteOffset":32452,
			"target":34962
		},
		{
			"buffer":0,
			"byteLength":324,
			"byteOffset":33748,
			"target":34963
		},
		{
			"buffer":0,
			"byteLength":216,
			"byteOffset":34072,
			"target":34962
		},
		{
			"buffer":0,
			"byteLength":216,
			"byteOffset":34288,
			"target":34962
		},
		{
			"buffer":0,
			"byteLength":144,
			"byteOffset":34504,
			"target":34962
		},
		{
			"buffer":0,
			"byteLength":36,
			"byteOffset":34648,
			"target":34963
		}
	],
	"buffers":[
		{
			"byteLength":34684,
			"uri":"rst_lush_floatingisle1.bin"
		}
	]
}
