{
	"asset":{
		"generator":"Khronos glTF Blender I/O v4.5.48",
		"version":"2.0"
	},
	"scene":0,
	"scenes":[
		{
			"name":"Scene",
			"nodes":[
				0
			]
		}
	],
	"nodes":[
		{
			"mesh":0,
			"name":"Object"
		}
	],
	"materials":[
		{
			"doubleSided":true,
			"name":"BD_EFLO01",
			"pbrMetallicRoughness":{
				"baseColorFactor":[
					0.800000011920929,
					0.800000011920929,
					0.800000011920929,
					1
				],
				"metallicFactor":0,
				"roughnessFactor":0.5
			}
		},
		{
			"doubleSided":true,
			"name":"BD_EWAL03C",
			"pbrMetallicRoughness":{
				"baseColorFactor":[
					0.800000011920929,
					0.800000011920929,
					0.800000011920929,
					1
				],
				"metallicFactor":0,
				"roughnessFactor":0.5
			}
		},
		{
			"doubleSided":true,
			"name":"BD_ETERRAIN5A",
			"pbrMetallicRoughness":{
				"baseColorFactor":[
					0.800000011920929,
					0.800000011920929,
					0.800000011920929,
					1
				],
				"metallicFactor":0,
				"roughnessFactor":0.5
			}
		},
		{
			"doubleSided":true,
			"name":"BD_IFLO01",
			"pbrMetallicRoughness":{
				"baseColorFactor":[
					0.800000011920929,
					0.800000011920929,
					0.800000011920929,
					1
				],
				"metallicFactor":0,
				"roughnessFactor":0.5
			}
		},
		{
			"doubleSided":true,
			"name":"BD_IBOR05",
			"pbrMetallicRoughness":{
				"baseColorFactor":[
					0.800000011920929,
					0.800000011920929,
					0.800000011920929,
					1
				],
				"metallicFactor":0,
				"roughnessFactor":0.5
			}
		},
		{
			"doubleSided":true,
			"name":"BD_IWAL16",
			"pbrMetallicRoughness":{
				"baseColorFactor":[
					0.800000011920929,
					0.800000011920929,
					0.800000011920929,
					1
				],
				"metallicFactor":0,
				"roughnessFactor":0.5
			}
		},
		{
			"doubleSided":true,
			"name":"BD_EWAL02",
			"pbrMetallicRoughness":{
				"baseColorFactor":[
					0.800000011920929,
					0.800000011920929,
					0.800000011920929,
					1
				],
				"metallicFactor":0,
				"roughnessFactor":0.5
			}
		},
		{
			"doubleSided":true,
			"name":"BD_EWAL09",
			"pbrMetallicRoughness":{
				"baseColorFactor":[
					0.800000011920929,
					0.800000011920929,
					0.800000011920929,
					1
				],
				"metallicFactor":0,
				"roughnessFactor":0.5
			}
		},
		{
			"doubleSided":true,
			"name":"BD_ISPE01",
			"pbrMetallicRoughness":{
				"baseColorFactor":[
					0.800000011920929,
					0.800000011920929,
					0.800000011920929,
					1
				],
				"metallicFactor":0,
				"roughnessFactor":0.5
			}
		},
		{
			"doubleSided":true,
			"name":"BD_THRESH02A",
			"pbrMetallicRoughness":{
				"baseColorFactor":[
					0.800000011920929,
					0.800000011920929,
					0.800000011920929,
					1
				],
				"metallicFactor":0,
				"roughnessFactor":0.5
			}
		},
		{
			"doubleSided":true,
			"name":"BD_EWAL07",
			"pbrMetallicRoughness":{
				"baseColorFactor":[
					0.800000011920929,
					0.800000011920929,
					0.800000011920929,
					1
				],
				"metallicFactor":0,
				"roughnessFactor":0.5
			}
		}
	],
	"meshes":[
		{
			"name":"Mesh",
			"primitives":[
				{
					"attributes":{
						"POSITION":0,
						"NORMAL":1,
						"TEXCOORD_0":2
					},
					"indices":3,
					"material":0
				},
				{
					"attributes":{
						"POSITION":4,
						"NORMAL":5,
						"TEXCOORD_0":6
					},
					"indices":7,
					"material":1
				},
				{
					"attributes":{
						"POSITION":8,
						"NORMAL":9,
						"TEXCOORD_0":10
					},
					"indices":11,
					"material":2
				},
				{
					"attributes":{
						"POSITION":12,
						"NORMAL":13,
						"TEXCOORD_0":14
					},
					"indices":15,
					"material":3
				},
				{
					"attributes":{
						"POSITION":16,
						"NORMAL":17,
						"TEXCOORD_0":18
					},
					"indices":19,
					"material":4
				},
				{
					"attributes":{
						"POSITION":20,
						"NORMAL":21,
						"TEXCOORD_0":22
					},
					"indices":23,
					"material":5
				},
				{
					"attributes":{
						"POSITION":24,
						"NORMAL":25,
						"TEXCOORD_0":26
					},
					"indices":27,
					"material":6
				},
				{
					"attributes":{
						"POSITION":28,
						"NORMAL":29,
						"TEXCOORD_0":30
					},
					"indices":31,
					"material":7
				},
				{
					"attributes":{
						"POSITION":32,
						"NORMAL":33,
						"TEXCOORD_0":34
					},
					"indices":35,
					"material":8
				},
				{
					"attributes":{
						"POSITION":36,
						"NORMAL":37,
						"TEXCOORD_0":38
					},
					"indices":39,
					"material":9
				},
				{
					"attributes":{
						"POSITION":40,
						"NORMAL":41,
						"TEXCOORD_0":42
					},
					"indices":43,
					"material":10
				}
			]
		}
	],
	"accessors":[
		{
			"bufferView":0,
			"componentType":5126,
			"count":337,
			"max":[
				64.65625,
				122.8125,
				53.375
			],
			"min":[
				-64.65625,
				0,
				-53.375
			],
			"type":"VEC3"
		},
		{
			"bufferView":1,
			"componentType":5126,
			"count":337,
			"type":"VEC3"
		},
		{
			"bufferView":2,
			"componentType":5126,
			"count":337,
			"type":"VEC2"
		},
		{
			"bufferView":3,
			"componentType":5123,
			"count":690,
			"type":"SCALAR"
		},
		{
			"bufferView":4,
			"componentType":5126,
			"count":288,
			"max":[
				102.71875,
				128,
				84.34375
			],
			"min":[
				-102.71875,
				-33,
				-84.34375
			],
			"type":"VEC3"
		},
		{
			"bufferView":5,
			"componentType":5126,
			"count":288,
			"type":"VEC3"
		},
		{
			"bufferView":6,
			"componentType":5126,
			"count":288,
			"type":"VEC2"
		},
		{
			"bufferView":7,
			"componentType":5123,
			"count":651,
			"type":"SCALAR"
		},
		{
			"bufferView":8,
			"componentType":5126,
			"count":64,
			"max":[
				12.9375,
				98,
				12
			],
			"min":[
				-12.9375,
				0,
				-12
			],
			"type":"VEC3"
		},
		{
			"bufferView":9,
			"componentType":5126,
			"count":64,
			"type":"VEC3"
		},
		{
			"bufferView":10,
			"componentType":5126,
			"count":64,
			"type":"VEC2"
		},
		{
			"bufferView":11,
			"componentType":5123,
			"count":120,
			"type":"SCALAR"
		},
		{
			"bufferView":12,
			"componentType":5126,
			"count":17,
			"max":[
				8,
				100,
				7.78125
			],
			"min":[
				-12.9375,
				0,
				-7.78125
			],
			"type":"VEC3"
		},
		{
			"bufferView":13,
			"componentType":5126,
			"count":17,
			"type":"VEC3"
		},
		{
			"bufferView":14,
			"componentType":5126,
			"count":17,
			"type":"VEC2"
		},
		{
			"bufferView":15,
			"componentType":5123,
			"count":39,
			"type":"SCALAR"
		},
		{
			"bufferView":16,
			"componentType":5126,
			"count":16,
			"max":[
				8.09375,
				100,
				12
			],
			"min":[
				-8.09375,
				98,
				7.78125
			],
			"type":"VEC3"
		},
		{
			"bufferView":17,
			"componentType":5126,
			"count":16,
			"type":"VEC3"
		},
		{
			"bufferView":18,
			"componentType":5126,
			"count":16,
			"type":"VEC2"
		},
		{
			"bufferView":19,
			"componentType":5123,
			"count":30,
			"type":"SCALAR"
		},
		{
			"bufferView":20,
			"componentType":5126,
			"count":8,
			"max":[
				18.65625,
				128,
				7.8125
			],
			"min":[
				-18.65625,
				114,
				-7.78125
			],
			"type":"VEC3"
		},
		{
			"bufferView":21,
			"componentType":5126,
			"count":8,
			"type":"VEC3"
		},
		{
			"bufferView":22,
			"componentType":5126,
			"count":8,
			"type":"VEC2"
		},
		{
			"bufferView":23,
			"componentType":5123,
			"count":12,
			"type":"SCALAR"
		},
		{
			"bufferView":24,
			"componentType":5126,
			"count":8,
			"max":[
				24.221803665161133,
				122.8125,
				4.03125
			],
			"min":[
				-24.221803665161133,
				63.1875,
				-4
			],
			"type":"VEC3"
		},
		{
			"bufferView":25,
			"componentType":5126,
			"count":8,
			"type":"VEC3"
		},
		{
			"bufferView":26,
			"componentType":5126,
			"count":8,
			"type":"VEC2"
		},
		{
			"bufferView":27,
			"componentType":5123,
			"count":12,
			"type":"SCALAR"
		},
		{
			"bufferView":28,
			"componentType":5126,
			"count":8,
			"max":[
				8,
				108,
				4.03125
			],
			"min":[
				-8,
				100,
				-4
			],
			"type":"VEC3"
		},
		{
			"bufferView":29,
			"componentType":5126,
			"count":8,
			"type":"VEC3"
		},
		{
			"bufferView":30,
			"componentType":5126,
			"count":8,
			"type":"VEC2"
		},
		{
			"bufferView":31,
			"componentType":5123,
			"count":12,
			"type":"SCALAR"
		},
		{
			"bufferView":32,
			"componentType":5126,
			"count":8,
			"max":[
				4.6875,
				96,
				11
			],
			"min":[
				-4.6875,
				63.1875,
				-11
			],
			"type":"VEC3"
		},
		{
			"bufferView":33,
			"componentType":5126,
			"count":8,
			"type":"VEC3"
		},
		{
			"bufferView":34,
			"componentType":5126,
			"count":8,
			"type":"VEC2"
		},
		{
			"bufferView":35,
			"componentType":5123,
			"count":12,
			"type":"SCALAR"
		},
		{
			"bufferView":36,
			"componentType":5126,
			"count":8,
			"max":[
				4.6875,
				98,
				12
			],
			"min":[
				-4.6875,
				96,
				-12
			],
			"type":"VEC3"
		},
		{
			"bufferView":37,
			"componentType":5126,
			"count":8,
			"type":"VEC3"
		},
		{
			"bufferView":38,
			"componentType":5126,
			"count":8,
			"type":"VEC2"
		},
		{
			"bufferView":39,
			"componentType":5123,
			"count":12,
			"type":"SCALAR"
		},
		{
			"bufferView":40,
			"componentType":5126,
			"count":8,
			"max":[
				4.6875,
				96,
				12
			],
			"min":[
				-4.6875,
				96,
				-12
			],
			"type":"VEC3"
		},
		{
			"bufferView":41,
			"componentType":5126,
			"count":8,
			"type":"VEC3"
		},
		{
			"bufferView":42,
			"componentType":5126,
			"count":8,
			"type":"VEC2"
		},
		{
			"bufferView":43,
			"componentType":5123,
			"count":12,
			"type":"SCALAR"
		}
	],
	"bufferViews":[
		{
			"buffer":0,
			"byteLength":4044,
			"byteOffset":0,
			"target":34962
		},
		{
			"buffer":0,
			"byteLength":4044,
			"byteOffset":4044,
			"target":34962
		},
		{
			"buffer":0,
			"byteLength":2696,
			"byteOffset":8088,
			"target":34962
		},
		{
			"buffer":0,
			"byteLength":1380,
			"byteOffset":10784,
			"target":34963
		},
		{
			"buffer":0,
			"byteLength":3456,
			"byteOffset":12164,
			"target":34962
		},
		{
			"buffer":0,
			"byteLength":3456,
			"byteOffset":15620,
			"target":34962
		},
		{
			"buffer":0,
			"byteLength":2304,
			"byteOffset":19076,
			"target":34962
		},
		{
			"buffer":0,
			"byteLength":1302,
			"byteOffset":21380,
			"target":34963
		},
		{
			"buffer":0,
			"byteLength":768,
			"byteOffset":22684,
			"target":34962
		},
		{
			"buffer":0,
			"byteLength":768,
			"byteOffset":23452,
			"target":34962
		},
		{
			"buffer":0,
			"byteLength":512,
			"byteOffset":24220,
			"target":34962
		},
		{
			"buffer":0,
			"byteLength":240,
			"byteOffset":24732,
			"target":34963
		},
		{
			"buffer":0,
			"byteLength":204,
			"byteOffset":24972,
			"target":34962
		},
		{
			"buffer":0,
			"byteLength":204,
			"byteOffset":25176,
			"target":34962
		},
		{
			"buffer":0,
			"byteLength":136,
			"byteOffset":25380,
			"target":34962
		},
		{
			"buffer":0,
			"byteLength":78,
			"byteOffset":25516,
			"target":34963
		},
		{
			"buffer":0,
			"byteLength":192,
			"byteOffset":25596,
			"target":34962
		},
		{
			"buffer":0,
			"byteLength":192,
			"byteOffset":25788,
			"target":34962
		},
		{
			"buffer":0,
			"byteLength":128,
			"byteOffset":25980,
			"target":34962
		},
		{
			"buffer":0,
			"byteLength":60,
			"byteOffset":26108,
			"target":34963
		},
		{
			"buffer":0,
			"byteLength":96,
			"byteOffset":26168,
			"target":34962
		},
		{
			"buffer":0,
			"byteLength":96,
			"byteOffset":26264,
			"target":34962
		},
		{
			"buffer":0,
			"byteLength":64,
			"byteOffset":26360,
			"target":34962
		},
		{
			"buffer":0,
			"byteLength":24,
			"byteOffset":26424,
			"target":34963
		},
		{
			"buffer":0,
			"byteLength":96,
			"byteOffset":26448,
			"target":34962
		},
		{
			"buffer":0,
			"byteLength":96,
			"byteOffset":26544,
			"target":34962
		},
		{
			"buffer":0,
			"byteLength":64,
			"byteOffset":26640,
			"target":34962
		},
		{
			"buffer":0,
			"byteLength":24,
			"byteOffset":26704,
			"target":34963
		},
		{
			"buffer":0,
			"byteLength":96,
			"byteOffset":26728,
			"target":34962
		},
		{
			"buffer":0,
			"byteLength":96,
			"byteOffset":26824,
			"target":34962
		},
		{
			"buffer":0,
			"byteLength":64,
			"byteOffset":26920,
			"target":34962
		},
		{
			"buffer":0,
			"byteLength":24,
			"byteOffset":26984,
			"target":34963
		},
		{
			"buffer":0,
			"byteLength":96,
			"byteOffset":27008,
			"target":34962
		},
		{
			"buffer":0,
			"byteLength":96,
			"byteOffset":27104,
			"target":34962
		},
		{
			"buffer":0,
			"byteLength":64,
			"byteOffset":27200,
			"target":34962
		},
		{
			"buffer":0,
			"byteLength":24,
			"byteOffset":27264,
			"target":34963
		},
		{
			"buffer":0,
			"byteLength":96,
			"byteOffset":27288,
			"target":34962
		},
		{
			"buffer":0,
			"byteLength":96,
			"byteOffset":27384,
			"target":34962
		},
		{
			"buffer":0,
			"byteLength":64,
			"byteOffset":27480,
			"target":34962
		},
		{
			"buffer":0,
			"byteLength":24,
			"byteOffset":27544,
			"target":34963
		},
		{
			"buffer":0,
			"byteLength":96,
			"byteOffset":27568,
			"target":34962
		},
		{
			"buffer":0,
			"byteLength":96,
			"byteOffset":27664,
			"target":34962
		},
		{
			"buffer":0,
			"byteLength":64,
			"byteOffset":27760,
			"target":34962
		},
		{
			"buffer":0,
			"byteLength":24,
			"byteOffset":27824,
			"target":34963
		}
	],
	"buffers":[
		{
			"byteLength":27848,
			"uri":"rst_derm_building2.bin"
		}
	]
}
