{
	"asset":{
		"generator":"Khronos glTF Blender I/O v4.5.48",
		"version":"2.0"
	},
	"scene":0,
	"scenes":[
		{
			"name":"Scene",
			"nodes":[
				0
			]
		}
	],
	"nodes":[
		{
			"mesh":0,
			"name":"Object"
		}
	],
	"materials":[
		{
			"doubleSided":true,
			"name":"SW_IWAL03",
			"pbrMetallicRoughness":{
				"baseColorFactor":[
					0.800000011920929,
					0.800000011920929,
					0.800000011920929,
					1
				],
				"metallicFactor":0,
				"roughnessFactor":0.5
			}
		},
		{
			"doubleSided":true,
			"name":"SW_EWAL06B",
			"pbrMetallicRoughness":{
				"baseColorFactor":[
					0.800000011920929,
					0.800000011920929,
					0.800000011920929,
					1
				],
				"metallicFactor":0,
				"roughnessFactor":0.5
			}
		},
		{
			"doubleSided":true,
			"name":"SW_IFLOOR01B",
			"pbrMetallicRoughness":{
				"baseColorFactor":[
					0.800000011920929,
					0.800000011920929,
					0.800000011920929,
					1
				],
				"metallicFactor":0,
				"roughnessFactor":0.5
			}
		},
		{
			"doubleSided":true,
			"name":"SW_IPIPE02",
			"pbrMetallicRoughness":{
				"baseColorFactor":[
					0.800000011920929,
					0.800000011920929,
					0.800000011920929,
					1
				],
				"metallicFactor":0,
				"roughnessFactor":0.5
			}
		},
		{
			"doubleSided":true,
			"name":"SW_FLOORGRATE",
			"pbrMetallicRoughness":{
				"baseColorFactor":[
					0.800000011920929,
					0.800000011920929,
					0.800000011920929,
					1
				],
				"metallicFactor":0,
				"roughnessFactor":0.5
			}
		},
		{
			"doubleSided":true,
			"name":"SW_IWAL02",
			"pbrMetallicRoughness":{
				"baseColorFactor":[
					0.800000011920929,
					0.800000011920929,
					0.800000011920929,
					1
				],
				"metallicFactor":0,
				"roughnessFactor":0.5
			}
		},
		{
			"doubleSided":true,
			"name":"SW_IBOR01",
			"pbrMetallicRoughness":{
				"baseColorFactor":[
					0.800000011920929,
					0.800000011920929,
					0.800000011920929,
					1
				],
				"metallicFactor":0,
				"roughnessFactor":0.5
			}
		},
		{
			"doubleSided":true,
			"name":"SW_EBOR01",
			"pbrMetallicRoughness":{
				"baseColorFactor":[
					0.800000011920929,
					0.800000011920929,
					0.800000011920929,
					1
				],
				"metallicFactor":0,
				"roughnessFactor":0.5
			}
		},
		{
			"doubleSided":true,
			"name":"SW_ESPEC02",
			"pbrMetallicRoughness":{
				"baseColorFactor":[
					0.800000011920929,
					0.800000011920929,
					0.800000011920929,
					1
				],
				"metallicFactor":0,
				"roughnessFactor":0.5
			}
		},
		{
			"doubleSided":true,
			"name":"SW_ESPEC01",
			"pbrMetallicRoughness":{
				"baseColorFactor":[
					0.800000011920929,
					0.800000011920929,
					0.800000011920929,
					1
				],
				"metallicFactor":0,
				"roughnessFactor":0.5
			}
		},
		{
			"doubleSided":true,
			"name":"SW_IPIPE01A",
			"pbrMetallicRoughness":{
				"baseColorFactor":[
					0.800000011920929,
					0.800000011920929,
					0.800000011920929,
					1
				],
				"metallicFactor":0,
				"roughnessFactor":0.5
			}
		},
		{
			"doubleSided":true,
			"name":"SW_ICOL01A",
			"pbrMetallicRoughness":{
				"baseColorFactor":[
					0.800000011920929,
					0.800000011920929,
					0.800000011920929,
					1
				],
				"metallicFactor":0,
				"roughnessFactor":0.5
			}
		},
		{
			"doubleSided":true,
			"name":"SW_THRESH01ON",
			"pbrMetallicRoughness":{
				"baseColorFactor":[
					0.800000011920929,
					0.800000011920929,
					0.800000011920929,
					1
				],
				"metallicFactor":0,
				"roughnessFactor":0.5
			}
		},
		{
			"doubleSided":true,
			"name":"SW_IFLOOR01",
			"pbrMetallicRoughness":{
				"baseColorFactor":[
					0.800000011920929,
					0.800000011920929,
					0.800000011920929,
					1
				],
				"metallicFactor":0,
				"roughnessFactor":0.5
			}
		},
		{
			"doubleSided":true,
			"name":"SW_EDOOR02",
			"pbrMetallicRoughness":{
				"baseColorFactor":[
					0.800000011920929,
					0.800000011920929,
					0.800000011920929,
					1
				],
				"metallicFactor":0,
				"roughnessFactor":0.5
			}
		},
		{
			"doubleSided":true,
			"name":"SW_IWAL01",
			"pbrMetallicRoughness":{
				"baseColorFactor":[
					0.800000011920929,
					0.800000011920929,
					0.800000011920929,
					1
				],
				"metallicFactor":0,
				"roughnessFactor":0.5
			}
		},
		{
			"doubleSided":true,
			"name":"SW_EDOOR01",
			"pbrMetallicRoughness":{
				"baseColorFactor":[
					0.800000011920929,
					0.800000011920929,
					0.800000011920929,
					1
				],
				"metallicFactor":0,
				"roughnessFactor":0.5
			}
		},
		{
			"doubleSided":true,
			"name":"SW_EWAL02",
			"pbrMetallicRoughness":{
				"baseColorFactor":[
					0.800000011920929,
					0.800000011920929,
					0.800000011920929,
					1
				],
				"metallicFactor":0,
				"roughnessFactor":0.5
			}
		},
		{
			"doubleSided":true,
			"name":"SW_IBORLIG01",
			"pbrMetallicRoughness":{
				"baseColorFactor":[
					0.800000011920929,
					0.800000011920929,
					0.800000011920929,
					1
				],
				"metallicFactor":0,
				"roughnessFactor":0.5
			}
		},
		{
			"doubleSided":true,
			"name":"SW_EDOOR03",
			"pbrMetallicRoughness":{
				"baseColorFactor":[
					0.800000011920929,
					0.800000011920929,
					0.800000011920929,
					1
				],
				"metallicFactor":0,
				"roughnessFactor":0.5
			}
		},
		{
			"doubleSided":true,
			"name":"SW_ICOLIGOLA",
			"pbrMetallicRoughness":{
				"baseColorFactor":[
					0.800000011920929,
					0.800000011920929,
					0.800000011920929,
					1
				],
				"metallicFactor":0,
				"roughnessFactor":0.5
			}
		}
	],
	"meshes":[
		{
			"name":"Mesh",
			"primitives":[
				{
					"attributes":{
						"POSITION":0,
						"NORMAL":1,
						"TEXCOORD_0":2
					},
					"indices":3,
					"material":0
				},
				{
					"attributes":{
						"POSITION":4,
						"NORMAL":5,
						"TEXCOORD_0":6
					},
					"indices":7,
					"material":1
				},
				{
					"attributes":{
						"POSITION":8,
						"NORMAL":9,
						"TEXCOORD_0":10
					},
					"indices":11,
					"material":2
				},
				{
					"attributes":{
						"POSITION":12,
						"NORMAL":13,
						"TEXCOORD_0":14
					},
					"indices":15,
					"material":3
				},
				{
					"attributes":{
						"POSITION":16,
						"NORMAL":17,
						"TEXCOORD_0":18
					},
					"indices":19,
					"material":4
				},
				{
					"attributes":{
						"POSITION":20,
						"NORMAL":21,
						"TEXCOORD_0":22
					},
					"indices":23,
					"material":5
				},
				{
					"attributes":{
						"POSITION":24,
						"NORMAL":25,
						"TEXCOORD_0":26
					},
					"indices":27,
					"material":6
				},
				{
					"attributes":{
						"POSITION":28,
						"NORMAL":29,
						"TEXCOORD_0":30
					},
					"indices":31,
					"material":7
				},
				{
					"attributes":{
						"POSITION":32,
						"NORMAL":33,
						"TEXCOORD_0":34
					},
					"indices":35,
					"material":8
				},
				{
					"attributes":{
						"POSITION":36,
						"NORMAL":37,
						"TEXCOORD_0":38
					},
					"indices":39,
					"material":9
				},
				{
					"attributes":{
						"POSITION":40,
						"NORMAL":41,
						"TEXCOORD_0":42
					},
					"indices":43,
					"material":10
				},
				{
					"attributes":{
						"POSITION":44,
						"NORMAL":45,
						"TEXCOORD_0":46
					},
					"indices":47,
					"material":11
				},
				{
					"attributes":{
						"POSITION":48,
						"NORMAL":49,
						"TEXCOORD_0":50
					},
					"indices":51,
					"material":12
				},
				{
					"attributes":{
						"POSITION":52,
						"NORMAL":53,
						"TEXCOORD_0":54
					},
					"indices":55,
					"material":13
				},
				{
					"attributes":{
						"POSITION":56,
						"NORMAL":57,
						"TEXCOORD_0":58
					},
					"indices":59,
					"material":14
				},
				{
					"attributes":{
						"POSITION":60,
						"NORMAL":61,
						"TEXCOORD_0":62
					},
					"indices":63,
					"material":15
				},
				{
					"attributes":{
						"POSITION":64,
						"NORMAL":65,
						"TEXCOORD_0":66
					},
					"indices":67,
					"material":16
				},
				{
					"attributes":{
						"POSITION":68,
						"NORMAL":69,
						"TEXCOORD_0":70
					},
					"indices":71,
					"material":17
				},
				{
					"attributes":{
						"POSITION":72,
						"NORMAL":73,
						"TEXCOORD_0":74
					},
					"indices":75,
					"material":18
				},
				{
					"attributes":{
						"POSITION":76,
						"NORMAL":77,
						"TEXCOORD_0":78
					},
					"indices":79,
					"material":19
				},
				{
					"attributes":{
						"POSITION":80,
						"NORMAL":81,
						"TEXCOORD_0":82
					},
					"indices":83,
					"material":20
				}
			]
		}
	],
	"accessors":[
		{
			"bufferView":0,
			"componentType":5126,
			"count":487,
			"max":[
				18,
				-19,
				20
			],
			"min":[
				-18,
				-72,
				-20
			],
			"type":"VEC3"
		},
		{
			"bufferView":1,
			"componentType":5126,
			"count":487,
			"type":"VEC3"
		},
		{
			"bufferView":2,
			"componentType":5126,
			"count":487,
			"type":"VEC2"
		},
		{
			"bufferView":3,
			"componentType":5123,
			"count":1248,
			"type":"SCALAR"
		},
		{
			"bufferView":4,
			"componentType":5126,
			"count":198,
			"max":[
				10,
				-21,
				14
			],
			"min":[
				-10,
				-37.5,
				-14
			],
			"type":"VEC3"
		},
		{
			"bufferView":5,
			"componentType":5126,
			"count":198,
			"type":"VEC3"
		},
		{
			"bufferView":6,
			"componentType":5126,
			"count":198,
			"type":"VEC2"
		},
		{
			"bufferView":7,
			"componentType":5123,
			"count":480,
			"type":"SCALAR"
		},
		{
			"bufferView":8,
			"componentType":5126,
			"count":14,
			"max":[
				10,
				-19.5,
				14
			],
			"min":[
				-10,
				-19.5,
				-14
			],
			"type":"VEC3"
		},
		{
			"bufferView":9,
			"componentType":5126,
			"count":14,
			"type":"VEC3"
		},
		{
			"bufferView":10,
			"componentType":5126,
			"count":14,
			"type":"VEC2"
		},
		{
			"bufferView":11,
			"componentType":5123,
			"count":42,
			"type":"SCALAR"
		},
		{
			"bufferView":12,
			"componentType":5126,
			"count":124,
			"max":[
				11.5,
				-25.5,
				6
			],
			"min":[
				9.5,
				-37.5,
				-6
			],
			"type":"VEC3"
		},
		{
			"bufferView":13,
			"componentType":5126,
			"count":124,
			"type":"VEC3"
		},
		{
			"bufferView":14,
			"componentType":5126,
			"count":124,
			"type":"VEC2"
		},
		{
			"bufferView":15,
			"componentType":5123,
			"count":204,
			"type":"SCALAR"
		},
		{
			"bufferView":16,
			"componentType":5126,
			"count":65,
			"max":[
				18,
				-25,
				14
			],
			"min":[
				-18,
				-37.5,
				-14
			],
			"type":"VEC3"
		},
		{
			"bufferView":17,
			"componentType":5126,
			"count":65,
			"type":"VEC3"
		},
		{
			"bufferView":18,
			"componentType":5126,
			"count":65,
			"type":"VEC2"
		},
		{
			"bufferView":19,
			"componentType":5123,
			"count":186,
			"type":"SCALAR"
		},
		{
			"bufferView":20,
			"componentType":5126,
			"count":300,
			"max":[
				16,
				-14,
				18
			],
			"min":[
				-16,
				-72,
				-18
			],
			"type":"VEC3"
		},
		{
			"bufferView":21,
			"componentType":5126,
			"count":300,
			"type":"VEC3"
		},
		{
			"bufferView":22,
			"componentType":5126,
			"count":300,
			"type":"VEC2"
		},
		{
			"bufferView":23,
			"componentType":5123,
			"count":648,
			"type":"SCALAR"
		},
		{
			"bufferView":24,
			"componentType":5126,
			"count":38,
			"max":[
				16,
				-42,
				4
			],
			"min":[
				-13,
				-50,
				-4
			],
			"type":"VEC3"
		},
		{
			"bufferView":25,
			"componentType":5126,
			"count":38,
			"type":"VEC3"
		},
		{
			"bufferView":26,
			"componentType":5126,
			"count":38,
			"type":"VEC2"
		},
		{
			"bufferView":27,
			"componentType":5123,
			"count":66,
			"type":"SCALAR"
		},
		{
			"bufferView":28,
			"componentType":5126,
			"count":88,
			"max":[
				18,
				-21,
				8.5
			],
			"min":[
				-18,
				-29,
				-8.5
			],
			"type":"VEC3"
		},
		{
			"bufferView":29,
			"componentType":5126,
			"count":88,
			"type":"VEC3"
		},
		{
			"bufferView":30,
			"componentType":5126,
			"count":88,
			"type":"VEC2"
		},
		{
			"bufferView":31,
			"componentType":5123,
			"count":144,
			"type":"SCALAR"
		},
		{
			"bufferView":32,
			"componentType":5126,
			"count":84,
			"max":[
				16,
				-18,
				20
			],
			"min":[
				-16,
				-19,
				-20
			],
			"type":"VEC3"
		},
		{
			"bufferView":33,
			"componentType":5126,
			"count":84,
			"type":"VEC3"
		},
		{
			"bufferView":34,
			"componentType":5126,
			"count":84,
			"type":"VEC2"
		},
		{
			"bufferView":35,
			"componentType":5123,
			"count":150,
			"type":"SCALAR"
		},
		{
			"bufferView":36,
			"componentType":5126,
			"count":72,
			"max":[
				16,
				-14,
				20
			],
			"min":[
				-16,
				-18,
				-20
			],
			"type":"VEC3"
		},
		{
			"bufferView":37,
			"componentType":5126,
			"count":72,
			"type":"VEC3"
		},
		{
			"bufferView":38,
			"componentType":5126,
			"count":72,
			"type":"VEC2"
		},
		{
			"bufferView":39,
			"componentType":5123,
			"count":144,
			"type":"SCALAR"
		},
		{
			"bufferView":40,
			"componentType":5126,
			"count":320,
			"max":[
				10,
				-21,
				11
			],
			"min":[
				-10,
				-22,
				-11
			],
			"type":"VEC3"
		},
		{
			"bufferView":41,
			"componentType":5126,
			"count":320,
			"type":"VEC3"
		},
		{
			"bufferView":42,
			"componentType":5126,
			"count":320,
			"type":"VEC2"
		},
		{
			"bufferView":43,
			"componentType":5123,
			"count":480,
			"type":"SCALAR"
		},
		{
			"bufferView":44,
			"componentType":5126,
			"count":16,
			"max":[
				6,
				-19,
				18
			],
			"min":[
				-6,
				-72,
				-18
			],
			"type":"VEC3"
		},
		{
			"bufferView":45,
			"componentType":5126,
			"count":16,
			"type":"VEC3"
		},
		{
			"bufferView":46,
			"componentType":5126,
			"count":16,
			"type":"VEC2"
		},
		{
			"bufferView":47,
			"componentType":5123,
			"count":24,
			"type":"SCALAR"
		},
		{
			"bufferView":48,
			"componentType":5126,
			"count":8,
			"max":[
				2,
				-19,
				17
			],
			"min":[
				-2,
				-72,
				-17
			],
			"type":"VEC3"
		},
		{
			"bufferView":49,
			"componentType":5126,
			"count":8,
			"type":"VEC3"
		},
		{
			"bufferView":50,
			"componentType":5126,
			"count":8,
			"type":"VEC2"
		},
		{
			"bufferView":51,
			"componentType":5123,
			"count":12,
			"type":"SCALAR"
		},
		{
			"bufferView":52,
			"componentType":5126,
			"count":6,
			"max":[
				15.75,
				-42,
				4
			],
			"min":[
				15.75,
				-50,
				-4
			],
			"type":"VEC3"
		},
		{
			"bufferView":53,
			"componentType":5126,
			"count":6,
			"type":"VEC3"
		},
		{
			"bufferView":54,
			"componentType":5126,
			"count":6,
			"type":"VEC2"
		},
		{
			"bufferView":55,
			"componentType":5123,
			"count":12,
			"type":"SCALAR"
		},
		{
			"bufferView":56,
			"componentType":5126,
			"count":16,
			"max":[
				18,
				-23,
				6.5
			],
			"min":[
				-18,
				-25,
				-6.5
			],
			"type":"VEC3"
		},
		{
			"bufferView":57,
			"componentType":5126,
			"count":16,
			"type":"VEC3"
		},
		{
			"bufferView":58,
			"componentType":5126,
			"count":16,
			"type":"VEC2"
		},
		{
			"bufferView":59,
			"componentType":5123,
			"count":24,
			"type":"SCALAR"
		},
		{
			"bufferView":60,
			"componentType":5126,
			"count":258,
			"max":[
				18,
				-19.5,
				14
			],
			"min":[
				-18,
				-37.5,
				-14
			],
			"type":"VEC3"
		},
		{
			"bufferView":61,
			"componentType":5126,
			"count":258,
			"type":"VEC3"
		},
		{
			"bufferView":62,
			"componentType":5126,
			"count":258,
			"type":"VEC2"
		},
		{
			"bufferView":63,
			"componentType":5123,
			"count":618,
			"type":"SCALAR"
		},
		{
			"bufferView":64,
			"componentType":5126,
			"count":5,
			"max":[
				-12.75,
				-42,
				4
			],
			"min":[
				-12.75,
				-46,
				-4
			],
			"type":"VEC3"
		},
		{
			"bufferView":65,
			"componentType":5126,
			"count":5,
			"type":"VEC3"
		},
		{
			"bufferView":66,
			"componentType":5126,
			"count":5,
			"type":"VEC2"
		},
		{
			"bufferView":67,
			"componentType":5123,
			"count":9,
			"type":"SCALAR"
		},
		{
			"bufferView":68,
			"componentType":5126,
			"count":8,
			"max":[
				-11,
				-37.5,
				5.5
			],
			"min":[
				-12.5,
				-37.5,
				-5.5
			],
			"type":"VEC3"
		},
		{
			"bufferView":69,
			"componentType":5126,
			"count":8,
			"type":"VEC3"
		},
		{
			"bufferView":70,
			"componentType":5126,
			"count":8,
			"type":"VEC2"
		},
		{
			"bufferView":71,
			"componentType":5123,
			"count":18,
			"type":"SCALAR"
		},
		{
			"bufferView":72,
			"componentType":5126,
			"count":32,
			"max":[
				2.5,
				-24,
				13
			],
			"min":[
				-2.5,
				-36,
				-13
			],
			"type":"VEC3"
		},
		{
			"bufferView":73,
			"componentType":5126,
			"count":32,
			"type":"VEC3"
		},
		{
			"bufferView":74,
			"componentType":5126,
			"count":32,
			"type":"VEC2"
		},
		{
			"bufferView":75,
			"componentType":5123,
			"count":48,
			"type":"SCALAR"
		},
		{
			"bufferView":76,
			"componentType":5126,
			"count":32,
			"max":[
				2.5,
				-24,
				13
			],
			"min":[
				-2.5,
				-36,
				-13
			],
			"type":"VEC3"
		},
		{
			"bufferView":77,
			"componentType":5126,
			"count":32,
			"type":"VEC3"
		},
		{
			"bufferView":78,
			"componentType":5126,
			"count":32,
			"type":"VEC2"
		},
		{
			"bufferView":79,
			"componentType":5123,
			"count":48,
			"type":"SCALAR"
		},
		{
			"bufferView":80,
			"componentType":5126,
			"count":16,
			"max":[
				15.75,
				-25.125,
				0.75
			],
			"min":[
				-15.75,
				-25.125,
				-0.75
			],
			"type":"VEC3"
		},
		{
			"bufferView":81,
			"componentType":5126,
			"count":16,
			"type":"VEC3"
		},
		{
			"bufferView":82,
			"componentType":5126,
			"count":16,
			"type":"VEC2"
		},
		{
			"bufferView":83,
			"componentType":5123,
			"count":24,
			"type":"SCALAR"
		}
	],
	"bufferViews":[
		{
			"buffer":0,
			"byteLength":5844,
			"byteOffset":0,
			"target":34962
		},
		{
			"buffer":0,
			"byteLength":5844,
			"byteOffset":5844,
			"target":34962
		},
		{
			"buffer":0,
			"byteLength":3896,
			"byteOffset":11688,
			"target":34962
		},
		{
			"buffer":0,
			"byteLength":2496,
			"byteOffset":15584,
			"target":34963
		},
		{
			"buffer":0,
			"byteLength":2376,
			"byteOffset":18080,
			"target":34962
		},
		{
			"buffer":0,
			"byteLength":2376,
			"byteOffset":20456,
			"target":34962
		},
		{
			"buffer":0,
			"byteLength":1584,
			"byteOffset":22832,
			"target":34962
		},
		{
			"buffer":0,
			"byteLength":960,
			"byteOffset":24416,
			"target":34963
		},
		{
			"buffer":0,
			"byteLength":168,
			"byteOffset":25376,
			"target":34962
		},
		{
			"buffer":0,
			"byteLength":168,
			"byteOffset":25544,
			"target":34962
		},
		{
			"buffer":0,
			"byteLength":112,
			"byteOffset":25712,
			"target":34962
		},
		{
			"buffer":0,
			"byteLength":84,
			"byteOffset":25824,
			"target":34963
		},
		{
			"buffer":0,
			"byteLength":1488,
			"byteOffset":25908,
			"target":34962
		},
		{
			"buffer":0,
			"byteLength":1488,
			"byteOffset":27396,
			"target":34962
		},
		{
			"buffer":0,
			"byteLength":992,
			"byteOffset":28884,
			"target":34962
		},
		{
			"buffer":0,
			"byteLength":408,
			"byteOffset":29876,
			"target":34963
		},
		{
			"buffer":0,
			"byteLength":780,
			"byteOffset":30284,
			"target":34962
		},
		{
			"buffer":0,
			"byteLength":780,
			"byteOffset":31064,
			"target":34962
		},
		{
			"buffer":0,
			"byteLength":520,
			"byteOffset":31844,
			"target":34962
		},
		{
			"buffer":0,
			"byteLength":372,
			"byteOffset":32364,
			"target":34963
		},
		{
			"buffer":0,
			"byteLength":3600,
			"byteOffset":32736,
			"target":34962
		},
		{
			"buffer":0,
			"byteLength":3600,
			"byteOffset":36336,
			"target":34962
		},
		{
			"buffer":0,
			"byteLength":2400,
			"byteOffset":39936,
			"target":34962
		},
		{
			"buffer":0,
			"byteLength":1296,
			"byteOffset":42336,
			"target":34963
		},
		{
			"buffer":0,
			"byteLength":456,
			"byteOffset":43632,
			"target":34962
		},
		{
			"buffer":0,
			"byteLength":456,
			"byteOffset":44088,
			"target":34962
		},
		{
			"buffer":0,
			"byteLength":304,
			"byteOffset":44544,
			"target":34962
		},
		{
			"buffer":0,
			"byteLength":132,
			"byteOffset":44848,
			"target":34963
		},
		{
			"buffer":0,
			"byteLength":1056,
			"byteOffset":44980,
			"target":34962
		},
		{
			"buffer":0,
			"byteLength":1056,
			"byteOffset":46036,
			"target":34962
		},
		{
			"buffer":0,
			"byteLength":704,
			"byteOffset":47092,
			"target":34962
		},
		{
			"buffer":0,
			"byteLength":288,
			"byteOffset":47796,
			"target":34963
		},
		{
			"buffer":0,
			"byteLength":1008,
			"byteOffset":48084,
			"target":34962
		},
		{
			"buffer":0,
			"byteLength":1008,
			"byteOffset":49092,
			"target":34962
		},
		{
			"buffer":0,
			"byteLength":672,
			"byteOffset":50100,
			"target":34962
		},
		{
			"buffer":0,
			"byteLength":300,
			"byteOffset":50772,
			"target":34963
		},
		{
			"buffer":0,
			"byteLength":864,
			"byteOffset":51072,
			"target":34962
		},
		{
			"buffer":0,
			"byteLength":864,
			"byteOffset":51936,
			"target":34962
		},
		{
			"buffer":0,
			"byteLength":576,
			"byteOffset":52800,
			"target":34962
		},
		{
			"buffer":0,
			"byteLength":288,
			"byteOffset":53376,
			"target":34963
		},
		{
			"buffer":0,
			"byteLength":3840,
			"byteOffset":53664,
			"target":34962
		},
		{
			"buffer":0,
			"byteLength":3840,
			"byteOffset":57504,
			"target":34962
		},
		{
			"buffer":0,
			"byteLength":2560,
			"byteOffset":61344,
			"target":34962
		},
		{
			"buffer":0,
			"byteLength":960,
			"byteOffset":63904,
			"target":34963
		},
		{
			"buffer":0,
			"byteLength":192,
			"byteOffset":64864,
			"target":34962
		},
		{
			"buffer":0,
			"byteLength":192,
			"byteOffset":65056,
			"target":34962
		},
		{
			"buffer":0,
			"byteLength":128,
			"byteOffset":65248,
			"target":34962
		},
		{
			"buffer":0,
			"byteLength":48,
			"byteOffset":65376,
			"target":34963
		},
		{
			"buffer":0,
			"byteLength":96,
			"byteOffset":65424,
			"target":34962
		},
		{
			"buffer":0,
			"byteLength":96,
			"byteOffset":65520,
			"target":34962
		},
		{
			"buffer":0,
			"byteLength":64,
			"byteOffset":65616,
			"target":34962
		},
		{
			"buffer":0,
			"byteLength":24,
			"byteOffset":65680,
			"target":34963
		},
		{
			"buffer":0,
			"byteLength":72,
			"byteOffset":65704,
			"target":34962
		},
		{
			"buffer":0,
			"byteLength":72,
			"byteOffset":65776,
			"target":34962
		},
		{
			"buffer":0,
			"byteLength":48,
			"byteOffset":65848,
			"target":34962
		},
		{
			"buffer":0,
			"byteLength":24,
			"byteOffset":65896,
			"target":34963
		},
		{
			"buffer":0,
			"byteLength":192,
			"byteOffset":65920,
			"target":34962
		},
		{
			"buffer":0,
			"byteLength":192,
			"byteOffset":66112,
			"target":34962
		},
		{
			"buffer":0,
			"byteLength":128,
			"byteOffset":66304,
			"target":34962
		},
		{
			"buffer":0,
			"byteLength":48,
			"byteOffset":66432,
			"target":34963
		},
		{
			"buffer":0,
			"byteLength":3096,
			"byteOffset":66480,
			"target":34962
		},
		{
			"buffer":0,
			"byteLength":3096,
			"byteOffset":69576,
			"target":34962
		},
		{
			"buffer":0,
			"byteLength":2064,
			"byteOffset":72672,
			"target":34962
		},
		{
			"buffer":0,
			"byteLength":1236,
			"byteOffset":74736,
			"target":34963
		},
		{
			"buffer":0,
			"byteLength":60,
			"byteOffset":75972,
			"target":34962
		},
		{
			"buffer":0,
			"byteLength":60,
			"byteOffset":76032,
			"target":34962
		},
		{
			"buffer":0,
			"byteLength":40,
			"byteOffset":76092,
			"target":34962
		},
		{
			"buffer":0,
			"byteLength":18,
			"byteOffset":76132,
			"target":34963
		},
		{
			"buffer":0,
			"byteLength":96,
			"byteOffset":76152,
			"target":34962
		},
		{
			"buffer":0,
			"byteLength":96,
			"byteOffset":76248,
			"target":34962
		},
		{
			"buffer":0,
			"byteLength":64,
			"byteOffset":76344,
			"target":34962
		},
		{
			"buffer":0,
			"byteLength":36,
			"byteOffset":76408,
			"target":34963
		},
		{
			"buffer":0,
			"byteLength":384,
			"byteOffset":76444,
			"target":34962
		},
		{
			"buffer":0,
			"byteLength":384,
			"byteOffset":76828,
			"target":34962
		},
		{
			"buffer":0,
			"byteLength":256,
			"byteOffset":77212,
			"target":34962
		},
		{
			"buffer":0,
			"byteLength":96,
			"byteOffset":77468,
			"target":34963
		},
		{
			"buffer":0,
			"byteLength":384,
			"byteOffset":77564,
			"target":34962
		},
		{
			"buffer":0,
			"byteLength":384,
			"byteOffset":77948,
			"target":34962
		},
		{
			"buffer":0,
			"byteLength":256,
			"byteOffset":78332,
			"target":34962
		},
		{
			"buffer":0,
			"byteLength":96,
			"byteOffset":78588,
			"target":34963
		},
		{
			"buffer":0,
			"byteLength":192,
			"byteOffset":78684,
			"target":34962
		},
		{
			"buffer":0,
			"byteLength":192,
			"byteOffset":78876,
			"target":34962
		},
		{
			"buffer":0,
			"byteLength":128,
			"byteOffset":79068,
			"target":34962
		},
		{
			"buffer":0,
			"byteLength":48,
			"byteOffset":79196,
			"target":34963
		}
	],
	"buffers":[
		{
			"byteLength":79244,
			"uri":"rst_bitterbunker2.bin"
		}
	]
}
