{
	"asset":{
		"generator":"Khronos glTF Blender I/O v4.5.48",
		"version":"2.0"
	},
	"scene":0,
	"scenes":[
		{
			"name":"Scene",
			"nodes":[
				0
			]
		}
	],
	"nodes":[
		{
			"mesh":0,
			"name":"Object"
		}
	],
	"materials":[
		{
			"doubleSided":true,
			"name":"BE_EWAL01B",
			"pbrMetallicRoughness":{
				"baseColorFactor":[
					0.800000011920929,
					0.800000011920929,
					0.800000011920929,
					1
				],
				"metallicFactor":0,
				"roughnessFactor":0.5
			}
		},
		{
			"doubleSided":true,
			"name":"BE_EWAL12B",
			"pbrMetallicRoughness":{
				"baseColorFactor":[
					0.800000011920929,
					0.800000011920929,
					0.800000011920929,
					1
				],
				"metallicFactor":0,
				"roughnessFactor":0.5
			}
		},
		{
			"doubleSided":true,
			"name":"BE_ICEI03B",
			"pbrMetallicRoughness":{
				"baseColorFactor":[
					0.800000011920929,
					0.800000011920929,
					0.800000011920929,
					1
				],
				"metallicFactor":0,
				"roughnessFactor":0.5
			}
		},
		{
			"doubleSided":true,
			"name":"BE_IPRWAL01",
			"pbrMetallicRoughness":{
				"baseColorFactor":[
					0.800000011920929,
					0.800000011920929,
					0.800000011920929,
					1
				],
				"metallicFactor":0,
				"roughnessFactor":0.5
			}
		},
		{
			"doubleSided":true,
			"name":"BE_EBOR03",
			"pbrMetallicRoughness":{
				"baseColorFactor":[
					0.800000011920929,
					0.800000011920929,
					0.800000011920929,
					1
				],
				"metallicFactor":0,
				"roughnessFactor":0.5
			}
		},
		{
			"doubleSided":true,
			"name":"BE_EWAL07",
			"pbrMetallicRoughness":{
				"baseColorFactor":[
					0.800000011920929,
					0.800000011920929,
					0.800000011920929,
					1
				],
				"metallicFactor":0,
				"roughnessFactor":0.5
			}
		},
		{
			"doubleSided":true,
			"name":"BE_ITEBOR01",
			"pbrMetallicRoughness":{
				"baseColorFactor":[
					0.800000011920929,
					0.800000011920929,
					0.800000011920929,
					1
				],
				"metallicFactor":0,
				"roughnessFactor":0.5
			}
		},
		{
			"doubleSided":true,
			"name":"BE_ICEI01A",
			"pbrMetallicRoughness":{
				"baseColorFactor":[
					0.800000011920929,
					0.800000011920929,
					0.800000011920929,
					1
				],
				"metallicFactor":0,
				"roughnessFactor":0.5
			}
		},
		{
			"doubleSided":true,
			"name":"BE_EBOR01D",
			"pbrMetallicRoughness":{
				"baseColorFactor":[
					0.800000011920929,
					0.800000011920929,
					0.800000011920929,
					1
				],
				"metallicFactor":0,
				"roughnessFactor":0.5
			}
		},
		{
			"doubleSided":true,
			"name":"BE_EWAL03A",
			"pbrMetallicRoughness":{
				"baseColorFactor":[
					0.800000011920929,
					0.800000011920929,
					0.800000011920929,
					1
				],
				"metallicFactor":0,
				"roughnessFactor":0.5
			}
		},
		{
			"doubleSided":true,
			"name":"BE_ICOWAL02A",
			"pbrMetallicRoughness":{
				"baseColorFactor":[
					0.800000011920929,
					0.800000011920929,
					0.800000011920929,
					1
				],
				"metallicFactor":0,
				"roughnessFactor":0.5
			}
		},
		{
			"doubleSided":true,
			"name":"BE_IHALIG",
			"pbrMetallicRoughness":{
				"baseColorFactor":[
					0.800000011920929,
					0.800000011920929,
					0.800000011920929,
					1
				],
				"metallicFactor":0,
				"roughnessFactor":0.5
			}
		},
		{
			"doubleSided":true,
			"name":"BE_ITEWAL01",
			"pbrMetallicRoughness":{
				"baseColorFactor":[
					0.800000011920929,
					0.800000011920929,
					0.800000011920929,
					1
				],
				"metallicFactor":0,
				"roughnessFactor":0.5
			}
		},
		{
			"doubleSided":true,
			"name":"BE_ITEWAL03",
			"pbrMetallicRoughness":{
				"baseColorFactor":[
					0.800000011920929,
					0.800000011920929,
					0.800000011920929,
					1
				],
				"metallicFactor":0,
				"roughnessFactor":0.5
			}
		},
		{
			"doubleSided":true,
			"name":"BE_ESPEC08",
			"pbrMetallicRoughness":{
				"baseColorFactor":[
					0.800000011920929,
					0.800000011920929,
					0.800000011920929,
					1
				],
				"metallicFactor":0,
				"roughnessFactor":0.5
			}
		},
		{
			"doubleSided":true,
			"name":"BE_ITEFLO01",
			"pbrMetallicRoughness":{
				"baseColorFactor":[
					0.800000011920929,
					0.800000011920929,
					0.800000011920929,
					1
				],
				"metallicFactor":0,
				"roughnessFactor":0.5
			}
		},
		{
			"doubleSided":true,
			"name":"BE_ITECEI02",
			"pbrMetallicRoughness":{
				"baseColorFactor":[
					0.800000011920929,
					0.800000011920929,
					0.800000011920929,
					1
				],
				"metallicFactor":0,
				"roughnessFactor":0.5
			}
		},
		{
			"doubleSided":true,
			"name":"BE_IHAWAL05B",
			"pbrMetallicRoughness":{
				"baseColorFactor":[
					0.800000011920929,
					0.800000011920929,
					0.800000011920929,
					1
				],
				"metallicFactor":0,
				"roughnessFactor":0.5
			}
		}
	],
	"meshes":[
		{
			"name":"Mesh",
			"primitives":[
				{
					"attributes":{
						"POSITION":0,
						"NORMAL":1,
						"TEXCOORD_0":2
					},
					"indices":3,
					"material":0
				},
				{
					"attributes":{
						"POSITION":4,
						"NORMAL":5,
						"TEXCOORD_0":6
					},
					"indices":7,
					"material":1
				},
				{
					"attributes":{
						"POSITION":8,
						"NORMAL":9,
						"TEXCOORD_0":10
					},
					"indices":11,
					"material":2
				},
				{
					"attributes":{
						"POSITION":12,
						"NORMAL":13,
						"TEXCOORD_0":14
					},
					"indices":15,
					"material":3
				},
				{
					"attributes":{
						"POSITION":16,
						"NORMAL":17,
						"TEXCOORD_0":18
					},
					"indices":19,
					"material":4
				},
				{
					"attributes":{
						"POSITION":20,
						"NORMAL":21,
						"TEXCOORD_0":22
					},
					"indices":23,
					"material":5
				},
				{
					"attributes":{
						"POSITION":24,
						"NORMAL":25,
						"TEXCOORD_0":26
					},
					"indices":27,
					"material":6
				},
				{
					"attributes":{
						"POSITION":28,
						"NORMAL":29,
						"TEXCOORD_0":30
					},
					"indices":31,
					"material":7
				},
				{
					"attributes":{
						"POSITION":32,
						"NORMAL":33,
						"TEXCOORD_0":34
					},
					"indices":35,
					"material":8
				},
				{
					"attributes":{
						"POSITION":36,
						"NORMAL":37,
						"TEXCOORD_0":38
					},
					"indices":39,
					"material":9
				},
				{
					"attributes":{
						"POSITION":40,
						"NORMAL":41,
						"TEXCOORD_0":42
					},
					"indices":43,
					"material":10
				},
				{
					"attributes":{
						"POSITION":44,
						"NORMAL":45,
						"TEXCOORD_0":46
					},
					"indices":47,
					"material":11
				},
				{
					"attributes":{
						"POSITION":48,
						"NORMAL":49,
						"TEXCOORD_0":50
					},
					"indices":51,
					"material":12
				},
				{
					"attributes":{
						"POSITION":52,
						"NORMAL":53,
						"TEXCOORD_0":54
					},
					"indices":55,
					"material":13
				},
				{
					"attributes":{
						"POSITION":56,
						"NORMAL":57,
						"TEXCOORD_0":58
					},
					"indices":59,
					"material":14
				},
				{
					"attributes":{
						"POSITION":60,
						"NORMAL":61,
						"TEXCOORD_0":62
					},
					"indices":63,
					"material":15
				},
				{
					"attributes":{
						"POSITION":64,
						"NORMAL":65,
						"TEXCOORD_0":66
					},
					"indices":67,
					"material":16
				},
				{
					"attributes":{
						"POSITION":68,
						"NORMAL":69,
						"TEXCOORD_0":70
					},
					"indices":71,
					"material":17
				}
			]
		}
	],
	"accessors":[
		{
			"bufferView":0,
			"componentType":5126,
			"count":54,
			"max":[
				8.5,
				0.5,
				8.5
			],
			"min":[
				-8.5,
				0.5,
				-8.5
			],
			"type":"VEC3"
		},
		{
			"bufferView":1,
			"componentType":5126,
			"count":54,
			"type":"VEC3"
		},
		{
			"bufferView":2,
			"componentType":5126,
			"count":54,
			"type":"VEC2"
		},
		{
			"bufferView":3,
			"componentType":5123,
			"count":144,
			"type":"SCALAR"
		},
		{
			"bufferView":4,
			"componentType":5126,
			"count":112,
			"max":[
				9.5,
				2.5,
				9.5
			],
			"min":[
				-9.5,
				0.5,
				-9.5
			],
			"type":"VEC3"
		},
		{
			"bufferView":5,
			"componentType":5126,
			"count":112,
			"type":"VEC3"
		},
		{
			"bufferView":6,
			"componentType":5126,
			"count":112,
			"type":"VEC2"
		},
		{
			"bufferView":7,
			"componentType":5123,
			"count":192,
			"type":"SCALAR"
		},
		{
			"bufferView":8,
			"componentType":5126,
			"count":196,
			"max":[
				9,
				4.5,
				9
			],
			"min":[
				-9,
				-5.5,
				-9
			],
			"type":"VEC3"
		},
		{
			"bufferView":9,
			"componentType":5126,
			"count":196,
			"type":"VEC3"
		},
		{
			"bufferView":10,
			"componentType":5126,
			"count":196,
			"type":"VEC2"
		},
		{
			"bufferView":11,
			"componentType":5123,
			"count":468,
			"type":"SCALAR"
		},
		{
			"bufferView":12,
			"componentType":5126,
			"count":128,
			"max":[
				9.5,
				5,
				9.5
			],
			"min":[
				-9.5,
				2.5,
				-9.5
			],
			"type":"VEC3"
		},
		{
			"bufferView":13,
			"componentType":5126,
			"count":128,
			"type":"VEC3"
		},
		{
			"bufferView":14,
			"componentType":5126,
			"count":128,
			"type":"VEC2"
		},
		{
			"bufferView":15,
			"componentType":5123,
			"count":264,
			"type":"SCALAR"
		},
		{
			"bufferView":16,
			"componentType":5126,
			"count":168,
			"max":[
				9.5,
				5,
				9.5
			],
			"min":[
				-9.5,
				4.5,
				-9.5
			],
			"type":"VEC3"
		},
		{
			"bufferView":17,
			"componentType":5126,
			"count":168,
			"type":"VEC3"
		},
		{
			"bufferView":18,
			"componentType":5126,
			"count":168,
			"type":"VEC2"
		},
		{
			"bufferView":19,
			"componentType":5123,
			"count":240,
			"type":"SCALAR"
		},
		{
			"bufferView":20,
			"componentType":5126,
			"count":360,
			"max":[
				9.5,
				5,
				9.5
			],
			"min":[
				-9.5,
				-5.5,
				-9.5
			],
			"type":"VEC3"
		},
		{
			"bufferView":21,
			"componentType":5126,
			"count":360,
			"type":"VEC3"
		},
		{
			"bufferView":22,
			"componentType":5126,
			"count":360,
			"type":"VEC2"
		},
		{
			"bufferView":23,
			"componentType":5123,
			"count":624,
			"type":"SCALAR"
		},
		{
			"bufferView":24,
			"componentType":5126,
			"count":112,
			"max":[
				6.5,
				0.5,
				6.5
			],
			"min":[
				-6.5,
				-1,
				-6.5
			],
			"type":"VEC3"
		},
		{
			"bufferView":25,
			"componentType":5126,
			"count":112,
			"type":"VEC3"
		},
		{
			"bufferView":26,
			"componentType":5126,
			"count":112,
			"type":"VEC2"
		},
		{
			"bufferView":27,
			"componentType":5123,
			"count":336,
			"type":"SCALAR"
		},
		{
			"bufferView":28,
			"componentType":5126,
			"count":4,
			"max":[
				4,
				-2,
				4
			],
			"min":[
				-4,
				-2,
				-4
			],
			"type":"VEC3"
		},
		{
			"bufferView":29,
			"componentType":5126,
			"count":4,
			"type":"VEC3"
		},
		{
			"bufferView":30,
			"componentType":5126,
			"count":4,
			"type":"VEC2"
		},
		{
			"bufferView":31,
			"componentType":5123,
			"count":6,
			"type":"SCALAR"
		},
		{
			"bufferView":32,
			"componentType":5126,
			"count":104,
			"max":[
				10,
				5,
				10
			],
			"min":[
				-10,
				2.5,
				-10
			],
			"type":"VEC3"
		},
		{
			"bufferView":33,
			"componentType":5126,
			"count":104,
			"type":"VEC3"
		},
		{
			"bufferView":34,
			"componentType":5126,
			"count":104,
			"type":"VEC2"
		},
		{
			"bufferView":35,
			"componentType":5123,
			"count":168,
			"type":"SCALAR"
		},
		{
			"bufferView":36,
			"componentType":5126,
			"count":104,
			"max":[
				10,
				5,
				10
			],
			"min":[
				-10,
				2.5,
				-10
			],
			"type":"VEC3"
		},
		{
			"bufferView":37,
			"componentType":5126,
			"count":104,
			"type":"VEC3"
		},
		{
			"bufferView":38,
			"componentType":5126,
			"count":104,
			"type":"VEC2"
		},
		{
			"bufferView":39,
			"componentType":5123,
			"count":168,
			"type":"SCALAR"
		},
		{
			"bufferView":40,
			"componentType":5126,
			"count":16,
			"max":[
				9,
				-2.5,
				9
			],
			"min":[
				-9,
				-4,
				-9
			],
			"type":"VEC3"
		},
		{
			"bufferView":41,
			"componentType":5126,
			"count":16,
			"type":"VEC3"
		},
		{
			"bufferView":42,
			"componentType":5126,
			"count":16,
			"type":"VEC2"
		},
		{
			"bufferView":43,
			"componentType":5123,
			"count":24,
			"type":"SCALAR"
		},
		{
			"bufferView":44,
			"componentType":5126,
			"count":16,
			"max":[
				9,
				-4,
				9
			],
			"min":[
				-9,
				-5.5,
				-9
			],
			"type":"VEC3"
		},
		{
			"bufferView":45,
			"componentType":5126,
			"count":16,
			"type":"VEC3"
		},
		{
			"bufferView":46,
			"componentType":5126,
			"count":16,
			"type":"VEC2"
		},
		{
			"bufferView":47,
			"componentType":5123,
			"count":24,
			"type":"SCALAR"
		},
		{
			"bufferView":48,
			"componentType":5126,
			"count":112,
			"max":[
				9.5,
				-2.5,
				9.5
			],
			"min":[
				-9.5,
				-5.5,
				-9.5
			],
			"type":"VEC3"
		},
		{
			"bufferView":49,
			"componentType":5126,
			"count":112,
			"type":"VEC3"
		},
		{
			"bufferView":50,
			"componentType":5126,
			"count":112,
			"type":"VEC2"
		},
		{
			"bufferView":51,
			"componentType":5123,
			"count":240,
			"type":"SCALAR"
		},
		{
			"bufferView":52,
			"componentType":5126,
			"count":384,
			"max":[
				8.5,
				0,
				8.5
			],
			"min":[
				-8.5,
				-2.6666667461395264,
				-8.5
			],
			"type":"VEC3"
		},
		{
			"bufferView":53,
			"componentType":5126,
			"count":384,
			"type":"VEC3"
		},
		{
			"bufferView":54,
			"componentType":5126,
			"count":384,
			"type":"VEC2"
		},
		{
			"bufferView":55,
			"componentType":5123,
			"count":768,
			"type":"SCALAR"
		},
		{
			"bufferView":56,
			"componentType":5126,
			"count":96,
			"max":[
				10,
				5.5,
				10
			],
			"min":[
				-10,
				4.5,
				-10
			],
			"type":"VEC3"
		},
		{
			"bufferView":57,
			"componentType":5126,
			"count":96,
			"type":"VEC3"
		},
		{
			"bufferView":58,
			"componentType":5126,
			"count":96,
			"type":"VEC2"
		},
		{
			"bufferView":59,
			"componentType":5123,
			"count":144,
			"type":"SCALAR"
		},
		{
			"bufferView":60,
			"componentType":5126,
			"count":112,
			"max":[
				10,
				5.5,
				10
			],
			"min":[
				-10,
				5,
				-10
			],
			"type":"VEC3"
		},
		{
			"bufferView":61,
			"componentType":5126,
			"count":112,
			"type":"VEC3"
		},
		{
			"bufferView":62,
			"componentType":5126,
			"count":112,
			"type":"VEC2"
		},
		{
			"bufferView":63,
			"componentType":5123,
			"count":192,
			"type":"SCALAR"
		},
		{
			"bufferView":64,
			"componentType":5126,
			"count":32,
			"max":[
				6,
				4.5,
				6
			],
			"min":[
				-6,
				4,
				-6
			],
			"type":"VEC3"
		},
		{
			"bufferView":65,
			"componentType":5126,
			"count":32,
			"type":"VEC3"
		},
		{
			"bufferView":66,
			"componentType":5126,
			"count":32,
			"type":"VEC2"
		},
		{
			"bufferView":67,
			"componentType":5123,
			"count":42,
			"type":"SCALAR"
		},
		{
			"bufferView":68,
			"componentType":5126,
			"count":32,
			"max":[
				9.5,
				4,
				9.5
			],
			"min":[
				-9.5,
				3.5,
				-9.5
			],
			"type":"VEC3"
		},
		{
			"bufferView":69,
			"componentType":5126,
			"count":32,
			"type":"VEC3"
		},
		{
			"bufferView":70,
			"componentType":5126,
			"count":32,
			"type":"VEC2"
		},
		{
			"bufferView":71,
			"componentType":5123,
			"count":72,
			"type":"SCALAR"
		}
	],
	"bufferViews":[
		{
			"buffer":0,
			"byteLength":648,
			"byteOffset":0,
			"target":34962
		},
		{
			"buffer":0,
			"byteLength":648,
			"byteOffset":648,
			"target":34962
		},
		{
			"buffer":0,
			"byteLength":432,
			"byteOffset":1296,
			"target":34962
		},
		{
			"buffer":0,
			"byteLength":288,
			"byteOffset":1728,
			"target":34963
		},
		{
			"buffer":0,
			"byteLength":1344,
			"byteOffset":2016,
			"target":34962
		},
		{
			"buffer":0,
			"byteLength":1344,
			"byteOffset":3360,
			"target":34962
		},
		{
			"buffer":0,
			"byteLength":896,
			"byteOffset":4704,
			"target":34962
		},
		{
			"buffer":0,
			"byteLength":384,
			"byteOffset":5600,
			"target":34963
		},
		{
			"buffer":0,
			"byteLength":2352,
			"byteOffset":5984,
			"target":34962
		},
		{
			"buffer":0,
			"byteLength":2352,
			"byteOffset":8336,
			"target":34962
		},
		{
			"buffer":0,
			"byteLength":1568,
			"byteOffset":10688,
			"target":34962
		},
		{
			"buffer":0,
			"byteLength":936,
			"byteOffset":12256,
			"target":34963
		},
		{
			"buffer":0,
			"byteLength":1536,
			"byteOffset":13192,
			"target":34962
		},
		{
			"buffer":0,
			"byteLength":1536,
			"byteOffset":14728,
			"target":34962
		},
		{
			"buffer":0,
			"byteLength":1024,
			"byteOffset":16264,
			"target":34962
		},
		{
			"buffer":0,
			"byteLength":528,
			"byteOffset":17288,
			"target":34963
		},
		{
			"buffer":0,
			"byteLength":2016,
			"byteOffset":17816,
			"target":34962
		},
		{
			"buffer":0,
			"byteLength":2016,
			"byteOffset":19832,
			"target":34962
		},
		{
			"buffer":0,
			"byteLength":1344,
			"byteOffset":21848,
			"target":34962
		},
		{
			"buffer":0,
			"byteLength":480,
			"byteOffset":23192,
			"target":34963
		},
		{
			"buffer":0,
			"byteLength":4320,
			"byteOffset":23672,
			"target":34962
		},
		{
			"buffer":0,
			"byteLength":4320,
			"byteOffset":27992,
			"target":34962
		},
		{
			"buffer":0,
			"byteLength":2880,
			"byteOffset":32312,
			"target":34962
		},
		{
			"buffer":0,
			"byteLength":1248,
			"byteOffset":35192,
			"target":34963
		},
		{
			"buffer":0,
			"byteLength":1344,
			"byteOffset":36440,
			"target":34962
		},
		{
			"buffer":0,
			"byteLength":1344,
			"byteOffset":37784,
			"target":34962
		},
		{
			"buffer":0,
			"byteLength":896,
			"byteOffset":39128,
			"target":34962
		},
		{
			"buffer":0,
			"byteLength":672,
			"byteOffset":40024,
			"target":34963
		},
		{
			"buffer":0,
			"byteLength":48,
			"byteOffset":40696,
			"target":34962
		},
		{
			"buffer":0,
			"byteLength":48,
			"byteOffset":40744,
			"target":34962
		},
		{
			"buffer":0,
			"byteLength":32,
			"byteOffset":40792,
			"target":34962
		},
		{
			"buffer":0,
			"byteLength":12,
			"byteOffset":40824,
			"target":34963
		},
		{
			"buffer":0,
			"byteLength":1248,
			"byteOffset":40836,
			"target":34962
		},
		{
			"buffer":0,
			"byteLength":1248,
			"byteOffset":42084,
			"target":34962
		},
		{
			"buffer":0,
			"byteLength":832,
			"byteOffset":43332,
			"target":34962
		},
		{
			"buffer":0,
			"byteLength":336,
			"byteOffset":44164,
			"target":34963
		},
		{
			"buffer":0,
			"byteLength":1248,
			"byteOffset":44500,
			"target":34962
		},
		{
			"buffer":0,
			"byteLength":1248,
			"byteOffset":45748,
			"target":34962
		},
		{
			"buffer":0,
			"byteLength":832,
			"byteOffset":46996,
			"target":34962
		},
		{
			"buffer":0,
			"byteLength":336,
			"byteOffset":47828,
			"target":34963
		},
		{
			"buffer":0,
			"byteLength":192,
			"byteOffset":48164,
			"target":34962
		},
		{
			"buffer":0,
			"byteLength":192,
			"byteOffset":48356,
			"target":34962
		},
		{
			"buffer":0,
			"byteLength":128,
			"byteOffset":48548,
			"target":34962
		},
		{
			"buffer":0,
			"byteLength":48,
			"byteOffset":48676,
			"target":34963
		},
		{
			"buffer":0,
			"byteLength":192,
			"byteOffset":48724,
			"target":34962
		},
		{
			"buffer":0,
			"byteLength":192,
			"byteOffset":48916,
			"target":34962
		},
		{
			"buffer":0,
			"byteLength":128,
			"byteOffset":49108,
			"target":34962
		},
		{
			"buffer":0,
			"byteLength":48,
			"byteOffset":49236,
			"target":34963
		},
		{
			"buffer":0,
			"byteLength":1344,
			"byteOffset":49284,
			"target":34962
		},
		{
			"buffer":0,
			"byteLength":1344,
			"byteOffset":50628,
			"target":34962
		},
		{
			"buffer":0,
			"byteLength":896,
			"byteOffset":51972,
			"target":34962
		},
		{
			"buffer":0,
			"byteLength":480,
			"byteOffset":52868,
			"target":34963
		},
		{
			"buffer":0,
			"byteLength":4608,
			"byteOffset":53348,
			"target":34962
		},
		{
			"buffer":0,
			"byteLength":4608,
			"byteOffset":57956,
			"target":34962
		},
		{
			"buffer":0,
			"byteLength":3072,
			"byteOffset":62564,
			"target":34962
		},
		{
			"buffer":0,
			"byteLength":1536,
			"byteOffset":65636,
			"target":34963
		},
		{
			"buffer":0,
			"byteLength":1152,
			"byteOffset":67172,
			"target":34962
		},
		{
			"buffer":0,
			"byteLength":1152,
			"byteOffset":68324,
			"target":34962
		},
		{
			"buffer":0,
			"byteLength":768,
			"byteOffset":69476,
			"target":34962
		},
		{
			"buffer":0,
			"byteLength":288,
			"byteOffset":70244,
			"target":34963
		},
		{
			"buffer":0,
			"byteLength":1344,
			"byteOffset":70532,
			"target":34962
		},
		{
			"buffer":0,
			"byteLength":1344,
			"byteOffset":71876,
			"target":34962
		},
		{
			"buffer":0,
			"byteLength":896,
			"byteOffset":73220,
			"target":34962
		},
		{
			"buffer":0,
			"byteLength":384,
			"byteOffset":74116,
			"target":34963
		},
		{
			"buffer":0,
			"byteLength":384,
			"byteOffset":74500,
			"target":34962
		},
		{
			"buffer":0,
			"byteLength":384,
			"byteOffset":74884,
			"target":34962
		},
		{
			"buffer":0,
			"byteLength":256,
			"byteOffset":75268,
			"target":34962
		},
		{
			"buffer":0,
			"byteLength":84,
			"byteOffset":75524,
			"target":34963
		},
		{
			"buffer":0,
			"byteLength":384,
			"byteOffset":75608,
			"target":34962
		},
		{
			"buffer":0,
			"byteLength":384,
			"byteOffset":75992,
			"target":34962
		},
		{
			"buffer":0,
			"byteLength":256,
			"byteOffset":76376,
			"target":34962
		},
		{
			"buffer":0,
			"byteLength":144,
			"byteOffset":76632,
			"target":34963
		}
	],
	"buffers":[
		{
			"byteLength":76776,
			"uri":"rst_lush_flagplat.bin"
		}
	]
}
