{
	"asset":{
		"generator":"Khronos glTF Blender I/O v4.5.48",
		"version":"2.0"
	},
	"scene":0,
	"scenes":[
		{
			"name":"Scene",
			"nodes":[
				0
			]
		}
	],
	"nodes":[
		{
			"mesh":0,
			"name":"Object"
		}
	],
	"materials":[
		{
			"doubleSided":true,
			"name":"SW_THRESHGRATE",
			"pbrMetallicRoughness":{
				"baseColorFactor":[
					0.800000011920929,
					0.800000011920929,
					0.800000011920929,
					1
				],
				"metallicFactor":0,
				"roughnessFactor":0.5
			}
		},
		{
			"doubleSided":true,
			"name":"SW_IWAL01",
			"pbrMetallicRoughness":{
				"baseColorFactor":[
					0.800000011920929,
					0.800000011920929,
					0.800000011920929,
					1
				],
				"metallicFactor":0,
				"roughnessFactor":0.5
			}
		},
		{
			"doubleSided":true,
			"name":"SW_ESPEC03",
			"pbrMetallicRoughness":{
				"baseColorFactor":[
					0.800000011920929,
					0.800000011920929,
					0.800000011920929,
					1
				],
				"metallicFactor":0,
				"roughnessFactor":0.5
			}
		},
		{
			"doubleSided":true,
			"name":"SW_IWAL03",
			"pbrMetallicRoughness":{
				"baseColorFactor":[
					0.800000011920929,
					0.800000011920929,
					0.800000011920929,
					1
				],
				"metallicFactor":0,
				"roughnessFactor":0.5
			}
		},
		{
			"doubleSided":true,
			"name":"SW_EFLO01C",
			"pbrMetallicRoughness":{
				"baseColorFactor":[
					0.800000011920929,
					0.800000011920929,
					0.800000011920929,
					1
				],
				"metallicFactor":0,
				"roughnessFactor":0.5
			}
		},
		{
			"doubleSided":true,
			"name":"SW_EBOR01",
			"pbrMetallicRoughness":{
				"baseColorFactor":[
					0.800000011920929,
					0.800000011920929,
					0.800000011920929,
					1
				],
				"metallicFactor":0,
				"roughnessFactor":0.5
			}
		}
	],
	"meshes":[
		{
			"name":"Mesh",
			"primitives":[
				{
					"attributes":{
						"POSITION":0,
						"NORMAL":1,
						"TEXCOORD_0":2
					},
					"indices":3,
					"material":0
				},
				{
					"attributes":{
						"POSITION":4,
						"NORMAL":5,
						"TEXCOORD_0":6
					},
					"indices":7,
					"material":1
				},
				{
					"attributes":{
						"POSITION":8,
						"NORMAL":9,
						"TEXCOORD_0":10
					},
					"indices":11,
					"material":2
				},
				{
					"attributes":{
						"POSITION":12,
						"NORMAL":13,
						"TEXCOORD_0":14
					},
					"indices":15,
					"material":3
				},
				{
					"attributes":{
						"POSITION":16,
						"NORMAL":17,
						"TEXCOORD_0":18
					},
					"indices":19,
					"material":4
				},
				{
					"attributes":{
						"POSITION":20,
						"NORMAL":21,
						"TEXCOORD_0":22
					},
					"indices":23,
					"material":5
				}
			]
		}
	],
	"accessors":[
		{
			"bufferView":0,
			"componentType":5126,
			"count":24,
			"max":[
				6,
				2,
				6
			],
			"min":[
				-6,
				1.5,
				-6
			],
			"type":"VEC3"
		},
		{
			"bufferView":1,
			"componentType":5126,
			"count":24,
			"type":"VEC3"
		},
		{
			"bufferView":2,
			"componentType":5126,
			"count":24,
			"type":"VEC2"
		},
		{
			"bufferView":3,
			"componentType":5123,
			"count":24,
			"type":"SCALAR"
		},
		{
			"bufferView":4,
			"componentType":5126,
			"count":50,
			"max":[
				14,
				2,
				14
			],
			"min":[
				-14,
				2,
				-14
			],
			"type":"VEC3"
		},
		{
			"bufferView":5,
			"componentType":5126,
			"count":50,
			"type":"VEC3"
		},
		{
			"bufferView":6,
			"componentType":5126,
			"count":50,
			"type":"VEC2"
		},
		{
			"bufferView":7,
			"componentType":5123,
			"count":96,
			"type":"SCALAR"
		},
		{
			"bufferView":8,
			"componentType":5126,
			"count":32,
			"max":[
				16,
				2,
				16
			],
			"min":[
				-16,
				-2.7938407677293754e-15,
				-16
			],
			"type":"VEC3"
		},
		{
			"bufferView":9,
			"componentType":5126,
			"count":32,
			"type":"VEC3"
		},
		{
			"bufferView":10,
			"componentType":5126,
			"count":32,
			"type":"VEC2"
		},
		{
			"bufferView":11,
			"componentType":5123,
			"count":48,
			"type":"SCALAR"
		},
		{
			"bufferView":12,
			"componentType":5126,
			"count":304,
			"max":[
				16,
				-2.7938407677293754e-15,
				16
			],
			"min":[
				-16,
				-24,
				-16
			],
			"type":"VEC3"
		},
		{
			"bufferView":13,
			"componentType":5126,
			"count":304,
			"type":"VEC3"
		},
		{
			"bufferView":14,
			"componentType":5126,
			"count":304,
			"type":"VEC2"
		},
		{
			"bufferView":15,
			"componentType":5123,
			"count":1224,
			"type":"SCALAR"
		},
		{
			"bufferView":16,
			"componentType":5126,
			"count":800,
			"max":[
				16.25,
				-0.625,
				16.25
			],
			"min":[
				-16.25,
				-1.375,
				-16.25
			],
			"type":"VEC3"
		},
		{
			"bufferView":17,
			"componentType":5126,
			"count":800,
			"type":"VEC3"
		},
		{
			"bufferView":18,
			"componentType":5126,
			"count":800,
			"type":"VEC2"
		},
		{
			"bufferView":19,
			"componentType":5123,
			"count":1320,
			"type":"SCALAR"
		},
		{
			"bufferView":20,
			"componentType":5126,
			"count":16,
			"max":[
				6,
				0.5,
				6
			],
			"min":[
				-6,
				-24,
				-6
			],
			"type":"VEC3"
		},
		{
			"bufferView":21,
			"componentType":5126,
			"count":16,
			"type":"VEC3"
		},
		{
			"bufferView":22,
			"componentType":5126,
			"count":16,
			"type":"VEC2"
		},
		{
			"bufferView":23,
			"componentType":5123,
			"count":24,
			"type":"SCALAR"
		}
	],
	"bufferViews":[
		{
			"buffer":0,
			"byteLength":288,
			"byteOffset":0,
			"target":34962
		},
		{
			"buffer":0,
			"byteLength":288,
			"byteOffset":288,
			"target":34962
		},
		{
			"buffer":0,
			"byteLength":192,
			"byteOffset":576,
			"target":34962
		},
		{
			"buffer":0,
			"byteLength":48,
			"byteOffset":768,
			"target":34963
		},
		{
			"buffer":0,
			"byteLength":600,
			"byteOffset":816,
			"target":34962
		},
		{
			"buffer":0,
			"byteLength":600,
			"byteOffset":1416,
			"target":34962
		},
		{
			"buffer":0,
			"byteLength":400,
			"byteOffset":2016,
			"target":34962
		},
		{
			"buffer":0,
			"byteLength":192,
			"byteOffset":2416,
			"target":34963
		},
		{
			"buffer":0,
			"byteLength":384,
			"byteOffset":2608,
			"target":34962
		},
		{
			"buffer":0,
			"byteLength":384,
			"byteOffset":2992,
			"target":34962
		},
		{
			"buffer":0,
			"byteLength":256,
			"byteOffset":3376,
			"target":34962
		},
		{
			"buffer":0,
			"byteLength":96,
			"byteOffset":3632,
			"target":34963
		},
		{
			"buffer":0,
			"byteLength":3648,
			"byteOffset":3728,
			"target":34962
		},
		{
			"buffer":0,
			"byteLength":3648,
			"byteOffset":7376,
			"target":34962
		},
		{
			"buffer":0,
			"byteLength":2432,
			"byteOffset":11024,
			"target":34962
		},
		{
			"buffer":0,
			"byteLength":2448,
			"byteOffset":13456,
			"target":34963
		},
		{
			"buffer":0,
			"byteLength":9600,
			"byteOffset":15904,
			"target":34962
		},
		{
			"buffer":0,
			"byteLength":9600,
			"byteOffset":25504,
			"target":34962
		},
		{
			"buffer":0,
			"byteLength":6400,
			"byteOffset":35104,
			"target":34962
		},
		{
			"buffer":0,
			"byteLength":2640,
			"byteOffset":41504,
			"target":34963
		},
		{
			"buffer":0,
			"byteLength":192,
			"byteOffset":44144,
			"target":34962
		},
		{
			"buffer":0,
			"byteLength":192,
			"byteOffset":44336,
			"target":34962
		},
		{
			"buffer":0,
			"byteLength":128,
			"byteOffset":44528,
			"target":34962
		},
		{
			"buffer":0,
			"byteLength":48,
			"byteOffset":44656,
			"target":34963
		}
	],
	"buffers":[
		{
			"byteLength":44704,
			"uri":"rst_bitterstand.bin"
		}
	]
}
