{
	"asset":{
		"generator":"Khronos glTF Blender I/O v4.5.48",
		"version":"2.0"
	},
	"scene":0,
	"scenes":[
		{
			"name":"Scene",
			"nodes":[
				0
			]
		}
	],
	"nodes":[
		{
			"mesh":0,
			"name":"Object"
		}
	],
	"materials":[
		{
			"doubleSided":true,
			"name":"BD_EWAL15",
			"pbrMetallicRoughness":{
				"baseColorFactor":[
					0.800000011920929,
					0.800000011920929,
					0.800000011920929,
					1
				],
				"metallicFactor":0,
				"roughnessFactor":0.5
			}
		},
		{
			"doubleSided":true,
			"name":"BD_EBOR04",
			"pbrMetallicRoughness":{
				"baseColorFactor":[
					0.800000011920929,
					0.800000011920929,
					0.800000011920929,
					1
				],
				"metallicFactor":0,
				"roughnessFactor":0.5
			}
		},
		{
			"doubleSided":true,
			"name":"BD_IBOR10",
			"pbrMetallicRoughness":{
				"baseColorFactor":[
					0.800000011920929,
					0.800000011920929,
					0.800000011920929,
					1
				],
				"metallicFactor":0,
				"roughnessFactor":0.5
			}
		},
		{
			"doubleSided":true,
			"name":"BD_EWAL03C",
			"pbrMetallicRoughness":{
				"baseColorFactor":[
					0.800000011920929,
					0.800000011920929,
					0.800000011920929,
					1
				],
				"metallicFactor":0,
				"roughnessFactor":0.5
			}
		},
		{
			"doubleSided":true,
			"name":"BD_IFLO01",
			"pbrMetallicRoughness":{
				"baseColorFactor":[
					0.800000011920929,
					0.800000011920929,
					0.800000011920929,
					1
				],
				"metallicFactor":0,
				"roughnessFactor":0.5
			}
		},
		{
			"doubleSided":true,
			"name":"BD_ICEI02A",
			"pbrMetallicRoughness":{
				"baseColorFactor":[
					0.800000011920929,
					0.800000011920929,
					0.800000011920929,
					1
				],
				"metallicFactor":0,
				"roughnessFactor":0.5
			}
		},
		{
			"doubleSided":true,
			"name":"BD_ICEILIG03",
			"pbrMetallicRoughness":{
				"baseColorFactor":[
					0.800000011920929,
					0.800000011920929,
					0.800000011920929,
					1
				],
				"metallicFactor":0,
				"roughnessFactor":0.5
			}
		}
	],
	"meshes":[
		{
			"name":"Mesh",
			"primitives":[
				{
					"attributes":{
						"POSITION":0,
						"NORMAL":1,
						"TEXCOORD_0":2
					},
					"indices":3,
					"material":0
				},
				{
					"attributes":{
						"POSITION":4,
						"NORMAL":5,
						"TEXCOORD_0":6
					},
					"indices":7,
					"material":1
				},
				{
					"attributes":{
						"POSITION":8,
						"NORMAL":9,
						"TEXCOORD_0":10
					},
					"indices":11,
					"material":2
				},
				{
					"attributes":{
						"POSITION":12,
						"NORMAL":13,
						"TEXCOORD_0":14
					},
					"indices":15,
					"material":3
				},
				{
					"attributes":{
						"POSITION":16,
						"NORMAL":17,
						"TEXCOORD_0":18
					},
					"indices":19,
					"material":4
				},
				{
					"attributes":{
						"POSITION":20,
						"NORMAL":21,
						"TEXCOORD_0":22
					},
					"indices":23,
					"material":5
				},
				{
					"attributes":{
						"POSITION":24,
						"NORMAL":25,
						"TEXCOORD_0":26
					},
					"indices":27,
					"material":6
				}
			]
		}
	],
	"accessors":[
		{
			"bufferView":0,
			"componentType":5126,
			"count":80,
			"max":[
				32,
				19,
				32
			],
			"min":[
				-32,
				3,
				-32
			],
			"type":"VEC3"
		},
		{
			"bufferView":1,
			"componentType":5126,
			"count":80,
			"type":"VEC3"
		},
		{
			"bufferView":2,
			"componentType":5126,
			"count":80,
			"type":"VEC2"
		},
		{
			"bufferView":3,
			"componentType":5123,
			"count":192,
			"type":"SCALAR"
		},
		{
			"bufferView":4,
			"componentType":5126,
			"count":32,
			"max":[
				32,
				3,
				32
			],
			"min":[
				-32,
				-19,
				-32
			],
			"type":"VEC3"
		},
		{
			"bufferView":5,
			"componentType":5126,
			"count":32,
			"type":"VEC3"
		},
		{
			"bufferView":6,
			"componentType":5126,
			"count":32,
			"type":"VEC2"
		},
		{
			"bufferView":7,
			"componentType":5123,
			"count":48,
			"type":"SCALAR"
		},
		{
			"bufferView":8,
			"componentType":5126,
			"count":234,
			"max":[
				16,
				20,
				16
			],
			"min":[
				-16,
				19,
				-16
			],
			"type":"VEC3"
		},
		{
			"bufferView":9,
			"componentType":5126,
			"count":234,
			"type":"VEC3"
		},
		{
			"bufferView":10,
			"componentType":5126,
			"count":234,
			"type":"VEC2"
		},
		{
			"bufferView":11,
			"componentType":5123,
			"count":360,
			"type":"SCALAR"
		},
		{
			"bufferView":12,
			"componentType":5126,
			"count":12,
			"max":[
				32,
				-19,
				32
			],
			"min":[
				-32,
				-19,
				-32
			],
			"type":"VEC3"
		},
		{
			"bufferView":13,
			"componentType":5126,
			"count":12,
			"type":"VEC3"
		},
		{
			"bufferView":14,
			"componentType":5126,
			"count":12,
			"type":"VEC2"
		},
		{
			"bufferView":15,
			"componentType":5123,
			"count":18,
			"type":"SCALAR"
		},
		{
			"bufferView":16,
			"componentType":5126,
			"count":36,
			"max":[
				14,
				19,
				14
			],
			"min":[
				-14,
				19,
				-14
			],
			"type":"VEC3"
		},
		{
			"bufferView":17,
			"componentType":5126,
			"count":36,
			"type":"VEC3"
		},
		{
			"bufferView":18,
			"componentType":5126,
			"count":36,
			"type":"VEC2"
		},
		{
			"bufferView":19,
			"componentType":5123,
			"count":84,
			"type":"SCALAR"
		},
		{
			"bufferView":20,
			"componentType":5126,
			"count":16,
			"max":[
				10,
				19,
				10
			],
			"min":[
				-10,
				18,
				-10
			],
			"type":"VEC3"
		},
		{
			"bufferView":21,
			"componentType":5126,
			"count":16,
			"type":"VEC3"
		},
		{
			"bufferView":22,
			"componentType":5126,
			"count":16,
			"type":"VEC2"
		},
		{
			"bufferView":23,
			"componentType":5123,
			"count":24,
			"type":"SCALAR"
		},
		{
			"bufferView":24,
			"componentType":5126,
			"count":4,
			"max":[
				2,
				18,
				2
			],
			"min":[
				-2,
				18,
				-2
			],
			"type":"VEC3"
		},
		{
			"bufferView":25,
			"componentType":5126,
			"count":4,
			"type":"VEC3"
		},
		{
			"bufferView":26,
			"componentType":5126,
			"count":4,
			"type":"VEC2"
		},
		{
			"bufferView":27,
			"componentType":5123,
			"count":6,
			"type":"SCALAR"
		}
	],
	"bufferViews":[
		{
			"buffer":0,
			"byteLength":960,
			"byteOffset":0,
			"target":34962
		},
		{
			"buffer":0,
			"byteLength":960,
			"byteOffset":960,
			"target":34962
		},
		{
			"buffer":0,
			"byteLength":640,
			"byteOffset":1920,
			"target":34962
		},
		{
			"buffer":0,
			"byteLength":384,
			"byteOffset":2560,
			"target":34963
		},
		{
			"buffer":0,
			"byteLength":384,
			"byteOffset":2944,
			"target":34962
		},
		{
			"buffer":0,
			"byteLength":384,
			"byteOffset":3328,
			"target":34962
		},
		{
			"buffer":0,
			"byteLength":256,
			"byteOffset":3712,
			"target":34962
		},
		{
			"buffer":0,
			"byteLength":96,
			"byteOffset":3968,
			"target":34963
		},
		{
			"buffer":0,
			"byteLength":2808,
			"byteOffset":4064,
			"target":34962
		},
		{
			"buffer":0,
			"byteLength":2808,
			"byteOffset":6872,
			"target":34962
		},
		{
			"buffer":0,
			"byteLength":1872,
			"byteOffset":9680,
			"target":34962
		},
		{
			"buffer":0,
			"byteLength":720,
			"byteOffset":11552,
			"target":34963
		},
		{
			"buffer":0,
			"byteLength":144,
			"byteOffset":12272,
			"target":34962
		},
		{
			"buffer":0,
			"byteLength":144,
			"byteOffset":12416,
			"target":34962
		},
		{
			"buffer":0,
			"byteLength":96,
			"byteOffset":12560,
			"target":34962
		},
		{
			"buffer":0,
			"byteLength":36,
			"byteOffset":12656,
			"target":34963
		},
		{
			"buffer":0,
			"byteLength":432,
			"byteOffset":12692,
			"target":34962
		},
		{
			"buffer":0,
			"byteLength":432,
			"byteOffset":13124,
			"target":34962
		},
		{
			"buffer":0,
			"byteLength":288,
			"byteOffset":13556,
			"target":34962
		},
		{
			"buffer":0,
			"byteLength":168,
			"byteOffset":13844,
			"target":34963
		},
		{
			"buffer":0,
			"byteLength":192,
			"byteOffset":14012,
			"target":34962
		},
		{
			"buffer":0,
			"byteLength":192,
			"byteOffset":14204,
			"target":34962
		},
		{
			"buffer":0,
			"byteLength":128,
			"byteOffset":14396,
			"target":34962
		},
		{
			"buffer":0,
			"byteLength":48,
			"byteOffset":14524,
			"target":34963
		},
		{
			"buffer":0,
			"byteLength":48,
			"byteOffset":14572,
			"target":34962
		},
		{
			"buffer":0,
			"byteLength":48,
			"byteOffset":14620,
			"target":34962
		},
		{
			"buffer":0,
			"byteLength":32,
			"byteOffset":14668,
			"target":34962
		},
		{
			"buffer":0,
			"byteLength":12,
			"byteOffset":14700,
			"target":34963
		}
	],
	"buffers":[
		{
			"byteLength":14712,
			"uri":"rst_astro_stand.bin"
		}
	]
}
