{
	"asset":{
		"generator":"Khronos glTF Blender I/O v4.5.48",
		"version":"2.0"
	},
	"scene":0,
	"scenes":[
		{
			"name":"Scene",
			"nodes":[
				0,
				1
			]
		}
	],
	"nodes":[
		{
			"mesh":0,
			"name":"Object"
		},
		{
			"mesh":1,
			"name":"Object.001"
		}
	],
	"materials":[
		{
			"doubleSided":true,
			"name":"mossDirt2",
			"pbrMetallicRoughness":{
				"baseColorFactor":[
					0.800000011920929,
					0.800000011920929,
					0.800000011920929,
					1
				],
				"metallicFactor":0,
				"roughnessFactor":0.5
			}
		},
		{
			"doubleSided":true,
			"name":"grassMix5",
			"pbrMetallicRoughness":{
				"baseColorFactor":[
					0.800000011920929,
					0.800000011920929,
					0.800000011920929,
					1
				],
				"metallicFactor":0,
				"roughnessFactor":0.5
			}
		},
		{
			"doubleSided":true,
			"name":"mossRock3",
			"pbrMetallicRoughness":{
				"baseColorFactor":[
					0.800000011920929,
					0.800000011920929,
					0.800000011920929,
					1
				],
				"metallicFactor":0,
				"roughnessFactor":0.5
			}
		},
		{
			"doubleSided":true,
			"name":"mossDirt2.001",
			"pbrMetallicRoughness":{
				"baseColorFactor":[
					0.800000011920929,
					0.800000011920929,
					0.800000011920929,
					1
				],
				"metallicFactor":0,
				"roughnessFactor":0.5
			}
		},
		{
			"doubleSided":true,
			"name":"grassMix5.001",
			"pbrMetallicRoughness":{
				"baseColorFactor":[
					0.800000011920929,
					0.800000011920929,
					0.800000011920929,
					1
				],
				"metallicFactor":0,
				"roughnessFactor":0.5
			}
		},
		{
			"doubleSided":true,
			"name":"mossRock3.001",
			"pbrMetallicRoughness":{
				"baseColorFactor":[
					0.800000011920929,
					0.800000011920929,
					0.800000011920929,
					1
				],
				"metallicFactor":0,
				"roughnessFactor":0.5
			}
		}
	],
	"meshes":[
		{
			"name":"Mesh",
			"primitives":[
				{
					"attributes":{
						"POSITION":0,
						"NORMAL":1,
						"TEXCOORD_0":2
					},
					"indices":3,
					"material":0
				},
				{
					"attributes":{
						"POSITION":4,
						"NORMAL":5,
						"TEXCOORD_0":6
					},
					"indices":7,
					"material":1
				},
				{
					"attributes":{
						"POSITION":8,
						"NORMAL":9,
						"TEXCOORD_0":10
					},
					"indices":11,
					"material":2
				}
			]
		},
		{
			"name":"Mesh.001",
			"primitives":[
				{
					"attributes":{
						"POSITION":12,
						"NORMAL":13,
						"TEXCOORD_0":14
					},
					"indices":15,
					"material":3
				},
				{
					"attributes":{
						"POSITION":16,
						"NORMAL":17,
						"TEXCOORD_0":18
					},
					"indices":19,
					"material":4
				},
				{
					"attributes":{
						"POSITION":20,
						"NORMAL":21,
						"TEXCOORD_0":22
					},
					"indices":23,
					"material":5
				}
			]
		}
	],
	"accessors":[
		{
			"bufferView":0,
			"componentType":5126,
			"count":1571,
			"max":[
				153,
				100,
				77
			],
			"min":[
				-138,
				-132,
				-73
			],
			"type":"VEC3"
		},
		{
			"bufferView":1,
			"componentType":5126,
			"count":1571,
			"type":"VEC3"
		},
		{
			"bufferView":2,
			"componentType":5126,
			"count":1571,
			"type":"VEC2"
		},
		{
			"bufferView":3,
			"componentType":5123,
			"count":1590,
			"type":"SCALAR"
		},
		{
			"bufferView":4,
			"componentType":5126,
			"count":408,
			"max":[
				149,
				16,
				72
			],
			"min":[
				-136,
				-49,
				-68
			],
			"type":"VEC3"
		},
		{
			"bufferView":5,
			"componentType":5126,
			"count":408,
			"type":"VEC3"
		},
		{
			"bufferView":6,
			"componentType":5126,
			"count":408,
			"type":"VEC2"
		},
		{
			"bufferView":7,
			"componentType":5123,
			"count":408,
			"type":"SCALAR"
		},
		{
			"bufferView":8,
			"componentType":5126,
			"count":12,
			"max":[
				-9,
				-31,
				77
			],
			"min":[
				-89,
				-49,
				58
			],
			"type":"VEC3"
		},
		{
			"bufferView":9,
			"componentType":5126,
			"count":12,
			"type":"VEC3"
		},
		{
			"bufferView":10,
			"componentType":5126,
			"count":12,
			"type":"VEC2"
		},
		{
			"bufferView":11,
			"componentType":5123,
			"count":12,
			"type":"SCALAR"
		},
		{
			"bufferView":12,
			"componentType":5126,
			"count":1041,
			"max":[
				150,
				100,
				77
			],
			"min":[
				-137,
				-132,
				-68
			],
			"type":"VEC3"
		},
		{
			"bufferView":13,
			"componentType":5126,
			"count":1041,
			"type":"VEC3"
		},
		{
			"bufferView":14,
			"componentType":5126,
			"count":1041,
			"type":"VEC2"
		},
		{
			"bufferView":15,
			"componentType":5123,
			"count":1041,
			"type":"SCALAR"
		},
		{
			"bufferView":16,
			"componentType":5126,
			"count":291,
			"max":[
				149,
				16,
				72
			],
			"min":[
				-133,
				-49,
				-68
			],
			"type":"VEC3"
		},
		{
			"bufferView":17,
			"componentType":5126,
			"count":291,
			"type":"VEC3"
		},
		{
			"bufferView":18,
			"componentType":5126,
			"count":291,
			"type":"VEC2"
		},
		{
			"bufferView":19,
			"componentType":5123,
			"count":291,
			"type":"SCALAR"
		},
		{
			"bufferView":20,
			"componentType":5126,
			"count":12,
			"max":[
				-9,
				-31,
				77
			],
			"min":[
				-89,
				-49,
				58
			],
			"type":"VEC3"
		},
		{
			"bufferView":21,
			"componentType":5126,
			"count":12,
			"type":"VEC3"
		},
		{
			"bufferView":22,
			"componentType":5126,
			"count":12,
			"type":"VEC2"
		},
		{
			"bufferView":23,
			"componentType":5123,
			"count":12,
			"type":"SCALAR"
		}
	],
	"bufferViews":[
		{
			"buffer":0,
			"byteLength":18852,
			"byteOffset":0,
			"target":34962
		},
		{
			"buffer":0,
			"byteLength":18852,
			"byteOffset":18852,
			"target":34962
		},
		{
			"buffer":0,
			"byteLength":12568,
			"byteOffset":37704,
			"target":34962
		},
		{
			"buffer":0,
			"byteLength":3180,
			"byteOffset":50272,
			"target":34963
		},
		{
			"buffer":0,
			"byteLength":4896,
			"byteOffset":53452,
			"target":34962
		},
		{
			"buffer":0,
			"byteLength":4896,
			"byteOffset":58348,
			"target":34962
		},
		{
			"buffer":0,
			"byteLength":3264,
			"byteOffset":63244,
			"target":34962
		},
		{
			"buffer":0,
			"byteLength":816,
			"byteOffset":66508,
			"target":34963
		},
		{
			"buffer":0,
			"byteLength":144,
			"byteOffset":67324,
			"target":34962
		},
		{
			"buffer":0,
			"byteLength":144,
			"byteOffset":67468,
			"target":34962
		},
		{
			"buffer":0,
			"byteLength":96,
			"byteOffset":67612,
			"target":34962
		},
		{
			"buffer":0,
			"byteLength":24,
			"byteOffset":67708,
			"target":34963
		},
		{
			"buffer":0,
			"byteLength":12492,
			"byteOffset":67732,
			"target":34962
		},
		{
			"buffer":0,
			"byteLength":12492,
			"byteOffset":80224,
			"target":34962
		},
		{
			"buffer":0,
			"byteLength":8328,
			"byteOffset":92716,
			"target":34962
		},
		{
			"buffer":0,
			"byteLength":2082,
			"byteOffset":101044,
			"target":34963
		},
		{
			"buffer":0,
			"byteLength":3492,
			"byteOffset":103128,
			"target":34962
		},
		{
			"buffer":0,
			"byteLength":3492,
			"byteOffset":106620,
			"target":34962
		},
		{
			"buffer":0,
			"byteLength":2328,
			"byteOffset":110112,
			"target":34962
		},
		{
			"buffer":0,
			"byteLength":582,
			"byteOffset":112440,
			"target":34963
		},
		{
			"buffer":0,
			"byteLength":144,
			"byteOffset":113024,
			"target":34962
		},
		{
			"buffer":0,
			"byteLength":144,
			"byteOffset":113168,
			"target":34962
		},
		{
			"buffer":0,
			"byteLength":96,
			"byteOffset":113312,
			"target":34962
		},
		{
			"buffer":0,
			"byteLength":24,
			"byteOffset":113408,
			"target":34963
		}
	],
	"buffers":[
		{
			"byteLength":113432,
			"uri":"rst_lush_floatingisle8.bin"
		}
	]
}
