{
	"asset":{
		"generator":"Khronos glTF Blender I/O v4.5.48",
		"version":"2.0"
	},
	"scene":0,
	"scenes":[
		{
			"name":"Scene",
			"nodes":[
				0
			]
		}
	],
	"nodes":[
		{
			"mesh":0,
			"name":"Object"
		}
	],
	"materials":[
		{
			"doubleSided":true,
			"name":"rockchipd01",
			"pbrMetallicRoughness":{
				"baseColorFactor":[
					0.800000011920929,
					0.800000011920929,
					0.800000011920929,
					1
				],
				"metallicFactor":0,
				"roughnessFactor":0.5
			}
		},
		{
			"doubleSided":true,
			"name":"SANDREG1",
			"pbrMetallicRoughness":{
				"baseColorFactor":[
					0.800000011920929,
					0.800000011920929,
					0.800000011920929,
					1
				],
				"metallicFactor":0,
				"roughnessFactor":0.5
			}
		},
		{
			"doubleSided":true,
			"name":"be_icei03b",
			"pbrMetallicRoughness":{
				"baseColorFactor":[
					0.800000011920929,
					0.800000011920929,
					0.800000011920929,
					1
				],
				"metallicFactor":0,
				"roughnessFactor":0.5
			}
		},
		{
			"doubleSided":true,
			"name":"be_ebor03",
			"pbrMetallicRoughness":{
				"baseColorFactor":[
					0.800000011920929,
					0.800000011920929,
					0.800000011920929,
					1
				],
				"metallicFactor":0,
				"roughnessFactor":0.5
			}
		},
		{
			"doubleSided":true,
			"name":"be_elig03",
			"pbrMetallicRoughness":{
				"baseColorFactor":[
					0.800000011920929,
					0.800000011920929,
					0.800000011920929,
					1
				],
				"metallicFactor":0,
				"roughnessFactor":0.5
			}
		}
	],
	"meshes":[
		{
			"name":"Mesh",
			"primitives":[
				{
					"attributes":{
						"POSITION":0,
						"NORMAL":1,
						"TEXCOORD_0":2
					},
					"indices":3,
					"material":0
				},
				{
					"attributes":{
						"POSITION":4,
						"NORMAL":5,
						"TEXCOORD_0":6
					},
					"indices":7,
					"material":1
				},
				{
					"attributes":{
						"POSITION":8,
						"NORMAL":9,
						"TEXCOORD_0":10
					},
					"indices":11,
					"material":2
				},
				{
					"attributes":{
						"POSITION":12,
						"NORMAL":13,
						"TEXCOORD_0":14
					},
					"indices":15,
					"material":3
				},
				{
					"attributes":{
						"POSITION":16,
						"NORMAL":17,
						"TEXCOORD_0":18
					},
					"indices":19,
					"material":4
				}
			]
		}
	],
	"accessors":[
		{
			"bufferView":0,
			"componentType":5126,
			"count":3729,
			"max":[
				31,
				26,
				71
			],
			"min":[
				-365,
				-59,
				-73
			],
			"type":"VEC3"
		},
		{
			"bufferView":1,
			"componentType":5126,
			"count":3729,
			"type":"VEC3"
		},
		{
			"bufferView":2,
			"componentType":5126,
			"count":3729,
			"type":"VEC2"
		},
		{
			"bufferView":3,
			"componentType":5123,
			"count":4188,
			"type":"SCALAR"
		},
		{
			"bufferView":4,
			"componentType":5126,
			"count":1372,
			"max":[
				21,
				4,
				71
			],
			"min":[
				-356,
				-59,
				-73
			],
			"type":"VEC3"
		},
		{
			"bufferView":5,
			"componentType":5126,
			"count":1372,
			"type":"VEC3"
		},
		{
			"bufferView":6,
			"componentType":5126,
			"count":1372,
			"type":"VEC2"
		},
		{
			"bufferView":7,
			"componentType":5123,
			"count":1386,
			"type":"SCALAR"
		},
		{
			"bufferView":8,
			"componentType":5126,
			"count":343,
			"max":[
				-128.75,
				-32,
				57
			],
			"min":[
				-194.28125,
				-48.75,
				-56.5
			],
			"type":"VEC3"
		},
		{
			"bufferView":9,
			"componentType":5126,
			"count":343,
			"type":"VEC3"
		},
		{
			"bufferView":10,
			"componentType":5126,
			"count":343,
			"type":"VEC2"
		},
		{
			"bufferView":11,
			"componentType":5123,
			"count":714,
			"type":"SCALAR"
		},
		{
			"bufferView":12,
			"componentType":5126,
			"count":179,
			"max":[
				-128.75,
				-31.75,
				57
			],
			"min":[
				-194.1157989501953,
				-48.035125732421875,
				-56.5
			],
			"type":"VEC3"
		},
		{
			"bufferView":13,
			"componentType":5126,
			"count":179,
			"type":"VEC3"
		},
		{
			"bufferView":14,
			"componentType":5126,
			"count":179,
			"type":"VEC2"
		},
		{
			"bufferView":15,
			"componentType":5123,
			"count":291,
			"type":"SCALAR"
		},
		{
			"bufferView":16,
			"componentType":5126,
			"count":40,
			"max":[
				-129.05335998535156,
				-31.75,
				56.75
			],
			"min":[
				-193.92745971679688,
				-47.75,
				-56.25
			],
			"type":"VEC3"
		},
		{
			"bufferView":17,
			"componentType":5126,
			"count":40,
			"type":"VEC3"
		},
		{
			"bufferView":18,
			"componentType":5126,
			"count":40,
			"type":"VEC2"
		},
		{
			"bufferView":19,
			"componentType":5123,
			"count":60,
			"type":"SCALAR"
		}
	],
	"bufferViews":[
		{
			"buffer":0,
			"byteLength":44748,
			"byteOffset":0,
			"target":34962
		},
		{
			"buffer":0,
			"byteLength":44748,
			"byteOffset":44748,
			"target":34962
		},
		{
			"buffer":0,
			"byteLength":29832,
			"byteOffset":89496,
			"target":34962
		},
		{
			"buffer":0,
			"byteLength":8376,
			"byteOffset":119328,
			"target":34963
		},
		{
			"buffer":0,
			"byteLength":16464,
			"byteOffset":127704,
			"target":34962
		},
		{
			"buffer":0,
			"byteLength":16464,
			"byteOffset":144168,
			"target":34962
		},
		{
			"buffer":0,
			"byteLength":10976,
			"byteOffset":160632,
			"target":34962
		},
		{
			"buffer":0,
			"byteLength":2772,
			"byteOffset":171608,
			"target":34963
		},
		{
			"buffer":0,
			"byteLength":4116,
			"byteOffset":174380,
			"target":34962
		},
		{
			"buffer":0,
			"byteLength":4116,
			"byteOffset":178496,
			"target":34962
		},
		{
			"buffer":0,
			"byteLength":2744,
			"byteOffset":182612,
			"target":34962
		},
		{
			"buffer":0,
			"byteLength":1428,
			"byteOffset":185356,
			"target":34963
		},
		{
			"buffer":0,
			"byteLength":2148,
			"byteOffset":186784,
			"target":34962
		},
		{
			"buffer":0,
			"byteLength":2148,
			"byteOffset":188932,
			"target":34962
		},
		{
			"buffer":0,
			"byteLength":1432,
			"byteOffset":191080,
			"target":34962
		},
		{
			"buffer":0,
			"byteLength":582,
			"byteOffset":192512,
			"target":34963
		},
		{
			"buffer":0,
			"byteLength":480,
			"byteOffset":193096,
			"target":34962
		},
		{
			"buffer":0,
			"byteLength":480,
			"byteOffset":193576,
			"target":34962
		},
		{
			"buffer":0,
			"byteLength":320,
			"byteOffset":194056,
			"target":34962
		},
		{
			"buffer":0,
			"byteLength":120,
			"byteOffset":194376,
			"target":34963
		}
	],
	"buffers":[
		{
			"byteLength":194496,
			"uri":"rst_SEcave1_part3.bin"
		}
	]
}
