{
	"asset":{
		"generator":"Khronos glTF Blender I/O v4.5.48",
		"version":"2.0"
	},
	"scene":0,
	"scenes":[
		{
			"name":"Scene",
			"nodes":[
				0
			]
		}
	],
	"nodes":[
		{
			"mesh":0,
			"name":"Object"
		}
	],
	"materials":[
		{
			"doubleSided":true,
			"name":"BD_EWAL03C",
			"pbrMetallicRoughness":{
				"baseColorFactor":[
					0.800000011920929,
					0.800000011920929,
					0.800000011920929,
					1
				],
				"metallicFactor":0,
				"roughnessFactor":0.5
			}
		},
		{
			"doubleSided":true,
			"name":"BD_IBOR10",
			"pbrMetallicRoughness":{
				"baseColorFactor":[
					0.800000011920929,
					0.800000011920929,
					0.800000011920929,
					1
				],
				"metallicFactor":0,
				"roughnessFactor":0.5
			}
		},
		{
			"doubleSided":true,
			"name":"BD_IBOR01",
			"pbrMetallicRoughness":{
				"baseColorFactor":[
					0.800000011920929,
					0.800000011920929,
					0.800000011920929,
					1
				],
				"metallicFactor":0,
				"roughnessFactor":0.5
			}
		},
		{
			"doubleSided":true,
			"name":"BD_ITEWAL01B",
			"pbrMetallicRoughness":{
				"baseColorFactor":[
					0.800000011920929,
					0.800000011920929,
					0.800000011920929,
					1
				],
				"metallicFactor":0,
				"roughnessFactor":0.5
			}
		},
		{
			"doubleSided":true,
			"name":"BD_EFLO01",
			"pbrMetallicRoughness":{
				"baseColorFactor":[
					0.800000011920929,
					0.800000011920929,
					0.800000011920929,
					1
				],
				"metallicFactor":0,
				"roughnessFactor":0.5
			}
		},
		{
			"doubleSided":true,
			"name":"BD_ICEI01",
			"pbrMetallicRoughness":{
				"baseColorFactor":[
					0.800000011920929,
					0.800000011920929,
					0.800000011920929,
					1
				],
				"metallicFactor":0,
				"roughnessFactor":0.5
			}
		},
		{
			"doubleSided":true,
			"name":"BD_ESPE01",
			"pbrMetallicRoughness":{
				"baseColorFactor":[
					0.800000011920929,
					0.800000011920929,
					0.800000011920929,
					1
				],
				"metallicFactor":0,
				"roughnessFactor":0.5
			}
		},
		{
			"doubleSided":true,
			"name":"BD_ICOLIGOLA",
			"pbrMetallicRoughness":{
				"baseColorFactor":[
					0.800000011920929,
					0.800000011920929,
					0.800000011920929,
					1
				],
				"metallicFactor":0,
				"roughnessFactor":0.5
			}
		}
	],
	"meshes":[
		{
			"name":"Mesh",
			"primitives":[
				{
					"attributes":{
						"POSITION":0,
						"NORMAL":1,
						"TEXCOORD_0":2
					},
					"indices":3,
					"material":0
				},
				{
					"attributes":{
						"POSITION":4,
						"NORMAL":5,
						"TEXCOORD_0":6
					},
					"indices":7,
					"material":1
				},
				{
					"attributes":{
						"POSITION":8,
						"NORMAL":9,
						"TEXCOORD_0":10
					},
					"indices":11,
					"material":2
				},
				{
					"attributes":{
						"POSITION":12,
						"NORMAL":13,
						"TEXCOORD_0":14
					},
					"indices":15,
					"material":3
				},
				{
					"attributes":{
						"POSITION":16,
						"NORMAL":17,
						"TEXCOORD_0":18
					},
					"indices":19,
					"material":4
				},
				{
					"attributes":{
						"POSITION":20,
						"NORMAL":21,
						"TEXCOORD_0":22
					},
					"indices":23,
					"material":5
				},
				{
					"attributes":{
						"POSITION":24,
						"NORMAL":25,
						"TEXCOORD_0":26
					},
					"indices":27,
					"material":6
				},
				{
					"attributes":{
						"POSITION":28,
						"NORMAL":29,
						"TEXCOORD_0":30
					},
					"indices":31,
					"material":7
				}
			]
		}
	],
	"accessors":[
		{
			"bufferView":0,
			"componentType":5126,
			"count":2519,
			"max":[
				28.28125,
				59.53125,
				28.28125
			],
			"min":[
				-28.28125,
				-60.84375,
				-28.28125
			],
			"type":"VEC3"
		},
		{
			"bufferView":1,
			"componentType":5126,
			"count":2519,
			"type":"VEC3"
		},
		{
			"bufferView":2,
			"componentType":5126,
			"count":2519,
			"type":"VEC2"
		},
		{
			"bufferView":3,
			"componentType":5123,
			"count":5517,
			"type":"SCALAR"
		},
		{
			"bufferView":4,
			"componentType":5126,
			"count":1540,
			"max":[
				25.09375,
				60.84375,
				25.09375
			],
			"min":[
				-25.09375,
				-41.375,
				-25.09375
			],
			"type":"VEC3"
		},
		{
			"bufferView":5,
			"componentType":5126,
			"count":1540,
			"type":"VEC3"
		},
		{
			"bufferView":6,
			"componentType":5126,
			"count":1540,
			"type":"VEC2"
		},
		{
			"bufferView":7,
			"componentType":5123,
			"count":4020,
			"type":"SCALAR"
		},
		{
			"bufferView":8,
			"componentType":5126,
			"count":192,
			"max":[
				16.1875,
				16.46875,
				16.1875
			],
			"min":[
				-16.1875,
				-40.71875,
				-16.1875
			],
			"type":"VEC3"
		},
		{
			"bufferView":9,
			"componentType":5126,
			"count":192,
			"type":"VEC3"
		},
		{
			"bufferView":10,
			"componentType":5126,
			"count":192,
			"type":"VEC2"
		},
		{
			"bufferView":11,
			"componentType":5123,
			"count":288,
			"type":"SCALAR"
		},
		{
			"bufferView":12,
			"componentType":5126,
			"count":48,
			"max":[
				15.71875,
				16.46875,
				15.71875
			],
			"min":[
				-15.71875,
				-40.71875,
				-15.71875
			],
			"type":"VEC3"
		},
		{
			"bufferView":13,
			"componentType":5126,
			"count":48,
			"type":"VEC3"
		},
		{
			"bufferView":14,
			"componentType":5126,
			"count":48,
			"type":"VEC2"
		},
		{
			"bufferView":15,
			"componentType":5123,
			"count":96,
			"type":"SCALAR"
		},
		{
			"bufferView":16,
			"componentType":5126,
			"count":845,
			"max":[
				17.5,
				56.5625,
				17.625
			],
			"min":[
				-17.5,
				-41.375,
				-17.625
			],
			"type":"VEC3"
		},
		{
			"bufferView":17,
			"componentType":5126,
			"count":845,
			"type":"VEC3"
		},
		{
			"bufferView":18,
			"componentType":5126,
			"count":845,
			"type":"VEC2"
		},
		{
			"bufferView":19,
			"componentType":5123,
			"count":1995,
			"type":"SCALAR"
		},
		{
			"bufferView":20,
			"componentType":5126,
			"count":456,
			"max":[
				25.375,
				59,
				25.46875
			],
			"min":[
				-25.375,
				-30.5,
				-25.46875
			],
			"type":"VEC3"
		},
		{
			"bufferView":21,
			"componentType":5126,
			"count":456,
			"type":"VEC3"
		},
		{
			"bufferView":22,
			"componentType":5126,
			"count":456,
			"type":"VEC2"
		},
		{
			"bufferView":23,
			"componentType":5123,
			"count":696,
			"type":"SCALAR"
		},
		{
			"bufferView":24,
			"componentType":5126,
			"count":8,
			"max":[
				13.34375,
				59.53125,
				13.4375
			],
			"min":[
				-13.34375,
				59.53125,
				-13.4375
			],
			"type":"VEC3"
		},
		{
			"bufferView":25,
			"componentType":5126,
			"count":8,
			"type":"VEC3"
		},
		{
			"bufferView":26,
			"componentType":5126,
			"count":8,
			"type":"VEC2"
		},
		{
			"bufferView":27,
			"componentType":5123,
			"count":18,
			"type":"SCALAR"
		},
		{
			"bufferView":28,
			"componentType":5126,
			"count":64,
			"max":[
				17,
				9.1875,
				17.125
			],
			"min":[
				-17,
				-41.25,
				-17.125
			],
			"type":"VEC3"
		},
		{
			"bufferView":29,
			"componentType":5126,
			"count":64,
			"type":"VEC3"
		},
		{
			"bufferView":30,
			"componentType":5126,
			"count":64,
			"type":"VEC2"
		},
		{
			"bufferView":31,
			"componentType":5123,
			"count":96,
			"type":"SCALAR"
		}
	],
	"bufferViews":[
		{
			"buffer":0,
			"byteLength":30228,
			"byteOffset":0,
			"target":34962
		},
		{
			"buffer":0,
			"byteLength":30228,
			"byteOffset":30228,
			"target":34962
		},
		{
			"buffer":0,
			"byteLength":20152,
			"byteOffset":60456,
			"target":34962
		},
		{
			"buffer":0,
			"byteLength":11034,
			"byteOffset":80608,
			"target":34963
		},
		{
			"buffer":0,
			"byteLength":18480,
			"byteOffset":91644,
			"target":34962
		},
		{
			"buffer":0,
			"byteLength":18480,
			"byteOffset":110124,
			"target":34962
		},
		{
			"buffer":0,
			"byteLength":12320,
			"byteOffset":128604,
			"target":34962
		},
		{
			"buffer":0,
			"byteLength":8040,
			"byteOffset":140924,
			"target":34963
		},
		{
			"buffer":0,
			"byteLength":2304,
			"byteOffset":148964,
			"target":34962
		},
		{
			"buffer":0,
			"byteLength":2304,
			"byteOffset":151268,
			"target":34962
		},
		{
			"buffer":0,
			"byteLength":1536,
			"byteOffset":153572,
			"target":34962
		},
		{
			"buffer":0,
			"byteLength":576,
			"byteOffset":155108,
			"target":34963
		},
		{
			"buffer":0,
			"byteLength":576,
			"byteOffset":155684,
			"target":34962
		},
		{
			"buffer":0,
			"byteLength":576,
			"byteOffset":156260,
			"target":34962
		},
		{
			"buffer":0,
			"byteLength":384,
			"byteOffset":156836,
			"target":34962
		},
		{
			"buffer":0,
			"byteLength":192,
			"byteOffset":157220,
			"target":34963
		},
		{
			"buffer":0,
			"byteLength":10140,
			"byteOffset":157412,
			"target":34962
		},
		{
			"buffer":0,
			"byteLength":10140,
			"byteOffset":167552,
			"target":34962
		},
		{
			"buffer":0,
			"byteLength":6760,
			"byteOffset":177692,
			"target":34962
		},
		{
			"buffer":0,
			"byteLength":3990,
			"byteOffset":184452,
			"target":34963
		},
		{
			"buffer":0,
			"byteLength":5472,
			"byteOffset":188444,
			"target":34962
		},
		{
			"buffer":0,
			"byteLength":5472,
			"byteOffset":193916,
			"target":34962
		},
		{
			"buffer":0,
			"byteLength":3648,
			"byteOffset":199388,
			"target":34962
		},
		{
			"buffer":0,
			"byteLength":1392,
			"byteOffset":203036,
			"target":34963
		},
		{
			"buffer":0,
			"byteLength":96,
			"byteOffset":204428,
			"target":34962
		},
		{
			"buffer":0,
			"byteLength":96,
			"byteOffset":204524,
			"target":34962
		},
		{
			"buffer":0,
			"byteLength":64,
			"byteOffset":204620,
			"target":34962
		},
		{
			"buffer":0,
			"byteLength":36,
			"byteOffset":204684,
			"target":34963
		},
		{
			"buffer":0,
			"byteLength":768,
			"byteOffset":204720,
			"target":34962
		},
		{
			"buffer":0,
			"byteLength":768,
			"byteOffset":205488,
			"target":34962
		},
		{
			"buffer":0,
			"byteLength":512,
			"byteOffset":206256,
			"target":34962
		},
		{
			"buffer":0,
			"byteLength":192,
			"byteOffset":206768,
			"target":34963
		}
	],
	"buffers":[
		{
			"byteLength":206960,
			"uri":"rst_derm_building7.bin"
		}
	]
}
