{
	"asset":{
		"generator":"Khronos glTF Blender I/O v4.5.48",
		"version":"2.0"
	},
	"scene":0,
	"scenes":[
		{
			"name":"Scene",
			"nodes":[
				0
			]
		}
	],
	"nodes":[
		{
			"mesh":0,
			"name":"Object"
		}
	],
	"materials":[
		{
			"doubleSided":true,
			"name":"BD_EWAL03C",
			"pbrMetallicRoughness":{
				"baseColorFactor":[
					0.800000011920929,
					0.800000011920929,
					0.800000011920929,
					1
				],
				"metallicFactor":0,
				"roughnessFactor":0.5
			}
		},
		{
			"doubleSided":true,
			"name":"BD_ICEILIG02",
			"pbrMetallicRoughness":{
				"baseColorFactor":[
					0.800000011920929,
					0.800000011920929,
					0.800000011920929,
					1
				],
				"metallicFactor":0,
				"roughnessFactor":0.5
			}
		},
		{
			"doubleSided":true,
			"name":"BD_EFLO01",
			"pbrMetallicRoughness":{
				"baseColorFactor":[
					0.800000011920929,
					0.800000011920929,
					0.800000011920929,
					1
				],
				"metallicFactor":0,
				"roughnessFactor":0.5
			}
		},
		{
			"doubleSided":true,
			"name":"BD_ITEWAL01B",
			"pbrMetallicRoughness":{
				"baseColorFactor":[
					0.800000011920929,
					0.800000011920929,
					0.800000011920929,
					1
				],
				"metallicFactor":0,
				"roughnessFactor":0.5
			}
		}
	],
	"meshes":[
		{
			"name":"Mesh",
			"primitives":[
				{
					"attributes":{
						"POSITION":0,
						"NORMAL":1,
						"TEXCOORD_0":2
					},
					"indices":3,
					"material":0
				},
				{
					"attributes":{
						"POSITION":4,
						"NORMAL":5,
						"TEXCOORD_0":6
					},
					"indices":7,
					"material":1
				},
				{
					"attributes":{
						"POSITION":8,
						"NORMAL":9,
						"TEXCOORD_0":10
					},
					"indices":11,
					"material":2
				},
				{
					"attributes":{
						"POSITION":12,
						"NORMAL":13,
						"TEXCOORD_0":14
					},
					"indices":15,
					"material":3
				}
			]
		}
	],
	"accessors":[
		{
			"bufferView":0,
			"componentType":5126,
			"count":44,
			"max":[
				24.25,
				82,
				24.25
			],
			"min":[
				-24.25,
				-31.5,
				-24.25
			],
			"type":"VEC3"
		},
		{
			"bufferView":1,
			"componentType":5126,
			"count":44,
			"type":"VEC3"
		},
		{
			"bufferView":2,
			"componentType":5126,
			"count":44,
			"type":"VEC2"
		},
		{
			"bufferView":3,
			"componentType":5123,
			"count":72,
			"type":"SCALAR"
		},
		{
			"bufferView":4,
			"componentType":5126,
			"count":288,
			"max":[
				26.1875,
				67.21875,
				26.1875
			],
			"min":[
				-26.1875,
				17.96875,
				-26.1875
			],
			"type":"VEC3"
		},
		{
			"bufferView":5,
			"componentType":5126,
			"count":288,
			"type":"VEC3"
		},
		{
			"bufferView":6,
			"componentType":5126,
			"count":288,
			"type":"VEC2"
		},
		{
			"bufferView":7,
			"componentType":5123,
			"count":432,
			"type":"SCALAR"
		},
		{
			"bufferView":8,
			"componentType":5126,
			"count":1744,
			"max":[
				32.71875,
				82,
				32.71875
			],
			"min":[
				-32.71875,
				0,
				-32.71875
			],
			"type":"VEC3"
		},
		{
			"bufferView":9,
			"componentType":5126,
			"count":1744,
			"type":"VEC3"
		},
		{
			"bufferView":10,
			"componentType":5126,
			"count":1744,
			"type":"VEC2"
		},
		{
			"bufferView":11,
			"componentType":5123,
			"count":3600,
			"type":"SCALAR"
		},
		{
			"bufferView":12,
			"componentType":5126,
			"count":24,
			"max":[
				32.25,
				7.40625,
				32.25
			],
			"min":[
				-32.25,
				0.65625,
				-32.25
			],
			"type":"VEC3"
		},
		{
			"bufferView":13,
			"componentType":5126,
			"count":24,
			"type":"VEC3"
		},
		{
			"bufferView":14,
			"componentType":5126,
			"count":24,
			"type":"VEC2"
		},
		{
			"bufferView":15,
			"componentType":5123,
			"count":48,
			"type":"SCALAR"
		}
	],
	"bufferViews":[
		{
			"buffer":0,
			"byteLength":528,
			"byteOffset":0,
			"target":34962
		},
		{
			"buffer":0,
			"byteLength":528,
			"byteOffset":528,
			"target":34962
		},
		{
			"buffer":0,
			"byteLength":352,
			"byteOffset":1056,
			"target":34962
		},
		{
			"buffer":0,
			"byteLength":144,
			"byteOffset":1408,
			"target":34963
		},
		{
			"buffer":0,
			"byteLength":3456,
			"byteOffset":1552,
			"target":34962
		},
		{
			"buffer":0,
			"byteLength":3456,
			"byteOffset":5008,
			"target":34962
		},
		{
			"buffer":0,
			"byteLength":2304,
			"byteOffset":8464,
			"target":34962
		},
		{
			"buffer":0,
			"byteLength":864,
			"byteOffset":10768,
			"target":34963
		},
		{
			"buffer":0,
			"byteLength":20928,
			"byteOffset":11632,
			"target":34962
		},
		{
			"buffer":0,
			"byteLength":20928,
			"byteOffset":32560,
			"target":34962
		},
		{
			"buffer":0,
			"byteLength":13952,
			"byteOffset":53488,
			"target":34962
		},
		{
			"buffer":0,
			"byteLength":7200,
			"byteOffset":67440,
			"target":34963
		},
		{
			"buffer":0,
			"byteLength":288,
			"byteOffset":74640,
			"target":34962
		},
		{
			"buffer":0,
			"byteLength":288,
			"byteOffset":74928,
			"target":34962
		},
		{
			"buffer":0,
			"byteLength":192,
			"byteOffset":75216,
			"target":34962
		},
		{
			"buffer":0,
			"byteLength":96,
			"byteOffset":75408,
			"target":34963
		}
	],
	"buffers":[
		{
			"byteLength":75504,
			"uri":"rst_derm_building3.bin"
		}
	]
}
