{
	"asset":{
		"generator":"Khronos glTF Blender I/O v4.5.48",
		"version":"2.0"
	},
	"scene":0,
	"scenes":[
		{
			"name":"Scene",
			"nodes":[
				0,
				1,
				2
			]
		}
	],
	"nodes":[
		{
			"mesh":0,
			"name":"Object"
		},
		{
			"mesh":1,
			"name":"Object.001"
		},
		{
			"mesh":2,
			"name":"Object.002"
		}
	],
	"materials":[
		{
			"doubleSided":true,
			"name":"mossDirt2",
			"pbrMetallicRoughness":{
				"baseColorFactor":[
					0.800000011920929,
					0.800000011920929,
					0.800000011920929,
					1
				],
				"metallicFactor":0,
				"roughnessFactor":0.5
			}
		},
		{
			"doubleSided":true,
			"name":"grassMix5",
			"pbrMetallicRoughness":{
				"baseColorFactor":[
					0.800000011920929,
					0.800000011920929,
					0.800000011920929,
					1
				],
				"metallicFactor":0,
				"roughnessFactor":0.5
			}
		},
		{
			"doubleSided":true,
			"name":"mossRock3",
			"pbrMetallicRoughness":{
				"baseColorFactor":[
					0.800000011920929,
					0.800000011920929,
					0.800000011920929,
					1
				],
				"metallicFactor":0,
				"roughnessFactor":0.5
			}
		},
		{
			"doubleSided":true,
			"name":"mossDirt2.001",
			"pbrMetallicRoughness":{
				"baseColorFactor":[
					0.800000011920929,
					0.800000011920929,
					0.800000011920929,
					1
				],
				"metallicFactor":0,
				"roughnessFactor":0.5
			}
		},
		{
			"doubleSided":true,
			"name":"grassMix5.001",
			"pbrMetallicRoughness":{
				"baseColorFactor":[
					0.800000011920929,
					0.800000011920929,
					0.800000011920929,
					1
				],
				"metallicFactor":0,
				"roughnessFactor":0.5
			}
		},
		{
			"doubleSided":true,
			"name":"mossRock3.001",
			"pbrMetallicRoughness":{
				"baseColorFactor":[
					0.800000011920929,
					0.800000011920929,
					0.800000011920929,
					1
				],
				"metallicFactor":0,
				"roughnessFactor":0.5
			}
		},
		{
			"doubleSided":true,
			"name":"mossDirt2.002",
			"pbrMetallicRoughness":{
				"baseColorFactor":[
					0.800000011920929,
					0.800000011920929,
					0.800000011920929,
					1
				],
				"metallicFactor":0,
				"roughnessFactor":0.5
			}
		},
		{
			"doubleSided":true,
			"name":"grassMix5.002",
			"pbrMetallicRoughness":{
				"baseColorFactor":[
					0.800000011920929,
					0.800000011920929,
					0.800000011920929,
					1
				],
				"metallicFactor":0,
				"roughnessFactor":0.5
			}
		}
	],
	"meshes":[
		{
			"name":"Mesh",
			"primitives":[
				{
					"attributes":{
						"POSITION":0,
						"NORMAL":1,
						"TEXCOORD_0":2
					},
					"indices":3,
					"material":0
				},
				{
					"attributes":{
						"POSITION":4,
						"NORMAL":5,
						"TEXCOORD_0":6
					},
					"indices":7,
					"material":1
				},
				{
					"attributes":{
						"POSITION":8,
						"NORMAL":9,
						"TEXCOORD_0":10
					},
					"indices":11,
					"material":2
				}
			]
		},
		{
			"name":"Mesh.001",
			"primitives":[
				{
					"attributes":{
						"POSITION":12,
						"NORMAL":13,
						"TEXCOORD_0":14
					},
					"indices":15,
					"material":3
				},
				{
					"attributes":{
						"POSITION":16,
						"NORMAL":17,
						"TEXCOORD_0":18
					},
					"indices":19,
					"material":4
				},
				{
					"attributes":{
						"POSITION":20,
						"NORMAL":21,
						"TEXCOORD_0":22
					},
					"indices":23,
					"material":5
				}
			]
		},
		{
			"name":"Mesh.002",
			"primitives":[
				{
					"attributes":{
						"POSITION":24,
						"NORMAL":25,
						"TEXCOORD_0":26
					},
					"indices":27,
					"material":6
				},
				{
					"attributes":{
						"POSITION":28,
						"NORMAL":29,
						"TEXCOORD_0":30
					},
					"indices":31,
					"material":7
				}
			]
		}
	],
	"accessors":[
		{
			"bufferView":0,
			"componentType":5126,
			"count":366,
			"max":[
				17,
				-0.5,
				19
			],
			"min":[
				-16,
				-15.5,
				-19.5
			],
			"type":"VEC3"
		},
		{
			"bufferView":1,
			"componentType":5126,
			"count":366,
			"type":"VEC3"
		},
		{
			"bufferView":2,
			"componentType":5126,
			"count":366,
			"type":"VEC2"
		},
		{
			"bufferView":3,
			"componentType":5123,
			"count":366,
			"type":"SCALAR"
		},
		{
			"bufferView":4,
			"componentType":5126,
			"count":246,
			"max":[
				17,
				0.5,
				19
			],
			"min":[
				-16,
				-1,
				-19
			],
			"type":"VEC3"
		},
		{
			"bufferView":5,
			"componentType":5126,
			"count":246,
			"type":"VEC3"
		},
		{
			"bufferView":6,
			"componentType":5126,
			"count":246,
			"type":"VEC2"
		},
		{
			"bufferView":7,
			"componentType":5123,
			"count":246,
			"type":"SCALAR"
		},
		{
			"bufferView":8,
			"componentType":5126,
			"count":120,
			"max":[
				17,
				0.5,
				19
			],
			"min":[
				-16,
				-1.5,
				-19.5
			],
			"type":"VEC3"
		},
		{
			"bufferView":9,
			"componentType":5126,
			"count":120,
			"type":"VEC3"
		},
		{
			"bufferView":10,
			"componentType":5126,
			"count":120,
			"type":"VEC2"
		},
		{
			"bufferView":11,
			"componentType":5123,
			"count":120,
			"type":"SCALAR"
		},
		{
			"bufferView":12,
			"componentType":5126,
			"count":270,
			"max":[
				17,
				-0.5,
				19
			],
			"min":[
				-16,
				-15.5,
				-19.5
			],
			"type":"VEC3"
		},
		{
			"bufferView":13,
			"componentType":5126,
			"count":270,
			"type":"VEC3"
		},
		{
			"bufferView":14,
			"componentType":5126,
			"count":270,
			"type":"VEC2"
		},
		{
			"bufferView":15,
			"componentType":5123,
			"count":270,
			"type":"SCALAR"
		},
		{
			"bufferView":16,
			"componentType":5126,
			"count":95,
			"max":[
				17,
				0.5,
				19
			],
			"min":[
				-16,
				-1.5,
				-19
			],
			"type":"VEC3"
		},
		{
			"bufferView":17,
			"componentType":5126,
			"count":95,
			"type":"VEC3"
		},
		{
			"bufferView":18,
			"componentType":5126,
			"count":95,
			"type":"VEC2"
		},
		{
			"bufferView":19,
			"componentType":5123,
			"count":108,
			"type":"SCALAR"
		},
		{
			"bufferView":20,
			"componentType":5126,
			"count":78,
			"max":[
				17,
				0.5,
				19
			],
			"min":[
				-16,
				-4,
				-19.5
			],
			"type":"VEC3"
		},
		{
			"bufferView":21,
			"componentType":5126,
			"count":78,
			"type":"VEC3"
		},
		{
			"bufferView":22,
			"componentType":5126,
			"count":78,
			"type":"VEC2"
		},
		{
			"bufferView":23,
			"componentType":5123,
			"count":78,
			"type":"SCALAR"
		},
		{
			"bufferView":24,
			"componentType":5126,
			"count":209,
			"max":[
				17,
				3.4576738557312695e-17,
				19
			],
			"min":[
				-16,
				-15.5,
				-19.5
			],
			"type":"VEC3"
		},
		{
			"bufferView":25,
			"componentType":5126,
			"count":209,
			"type":"VEC3"
		},
		{
			"bufferView":26,
			"componentType":5126,
			"count":209,
			"type":"VEC2"
		},
		{
			"bufferView":27,
			"componentType":5123,
			"count":237,
			"type":"SCALAR"
		},
		{
			"bufferView":28,
			"componentType":5126,
			"count":68,
			"max":[
				17,
				3.4576738557312695e-17,
				19
			],
			"min":[
				-16,
				-1.5,
				-19.5
			],
			"type":"VEC3"
		},
		{
			"bufferView":29,
			"componentType":5126,
			"count":68,
			"type":"VEC3"
		},
		{
			"bufferView":30,
			"componentType":5126,
			"count":68,
			"type":"VEC2"
		},
		{
			"bufferView":31,
			"componentType":5123,
			"count":81,
			"type":"SCALAR"
		}
	],
	"bufferViews":[
		{
			"buffer":0,
			"byteLength":4392,
			"byteOffset":0,
			"target":34962
		},
		{
			"buffer":0,
			"byteLength":4392,
			"byteOffset":4392,
			"target":34962
		},
		{
			"buffer":0,
			"byteLength":2928,
			"byteOffset":8784,
			"target":34962
		},
		{
			"buffer":0,
			"byteLength":732,
			"byteOffset":11712,
			"target":34963
		},
		{
			"buffer":0,
			"byteLength":2952,
			"byteOffset":12444,
			"target":34962
		},
		{
			"buffer":0,
			"byteLength":2952,
			"byteOffset":15396,
			"target":34962
		},
		{
			"buffer":0,
			"byteLength":1968,
			"byteOffset":18348,
			"target":34962
		},
		{
			"buffer":0,
			"byteLength":492,
			"byteOffset":20316,
			"target":34963
		},
		{
			"buffer":0,
			"byteLength":1440,
			"byteOffset":20808,
			"target":34962
		},
		{
			"buffer":0,
			"byteLength":1440,
			"byteOffset":22248,
			"target":34962
		},
		{
			"buffer":0,
			"byteLength":960,
			"byteOffset":23688,
			"target":34962
		},
		{
			"buffer":0,
			"byteLength":240,
			"byteOffset":24648,
			"target":34963
		},
		{
			"buffer":0,
			"byteLength":3240,
			"byteOffset":24888,
			"target":34962
		},
		{
			"buffer":0,
			"byteLength":3240,
			"byteOffset":28128,
			"target":34962
		},
		{
			"buffer":0,
			"byteLength":2160,
			"byteOffset":31368,
			"target":34962
		},
		{
			"buffer":0,
			"byteLength":540,
			"byteOffset":33528,
			"target":34963
		},
		{
			"buffer":0,
			"byteLength":1140,
			"byteOffset":34068,
			"target":34962
		},
		{
			"buffer":0,
			"byteLength":1140,
			"byteOffset":35208,
			"target":34962
		},
		{
			"buffer":0,
			"byteLength":760,
			"byteOffset":36348,
			"target":34962
		},
		{
			"buffer":0,
			"byteLength":216,
			"byteOffset":37108,
			"target":34963
		},
		{
			"buffer":0,
			"byteLength":936,
			"byteOffset":37324,
			"target":34962
		},
		{
			"buffer":0,
			"byteLength":936,
			"byteOffset":38260,
			"target":34962
		},
		{
			"buffer":0,
			"byteLength":624,
			"byteOffset":39196,
			"target":34962
		},
		{
			"buffer":0,
			"byteLength":156,
			"byteOffset":39820,
			"target":34963
		},
		{
			"buffer":0,
			"byteLength":2508,
			"byteOffset":39976,
			"target":34962
		},
		{
			"buffer":0,
			"byteLength":2508,
			"byteOffset":42484,
			"target":34962
		},
		{
			"buffer":0,
			"byteLength":1672,
			"byteOffset":44992,
			"target":34962
		},
		{
			"buffer":0,
			"byteLength":474,
			"byteOffset":46664,
			"target":34963
		},
		{
			"buffer":0,
			"byteLength":816,
			"byteOffset":47140,
			"target":34962
		},
		{
			"buffer":0,
			"byteLength":816,
			"byteOffset":47956,
			"target":34962
		},
		{
			"buffer":0,
			"byteLength":544,
			"byteOffset":48772,
			"target":34962
		},
		{
			"buffer":0,
			"byteLength":162,
			"byteOffset":49316,
			"target":34963
		}
	],
	"buffers":[
		{
			"byteLength":49480,
			"uri":"rst_lush_floatingisle5.bin"
		}
	]
}
