{
	"asset":{
		"generator":"Khronos glTF Blender I/O v4.5.48",
		"version":"2.0"
	},
	"scene":0,
	"scenes":[
		{
			"name":"Scene",
			"nodes":[
				0
			]
		}
	],
	"nodes":[
		{
			"mesh":0,
			"name":"Object"
		}
	],
	"materials":[
		{
			"doubleSided":true,
			"name":"BD_EWAL03C",
			"pbrMetallicRoughness":{
				"baseColorFactor":[
					0.800000011920929,
					0.800000011920929,
					0.800000011920929,
					1
				],
				"metallicFactor":0,
				"roughnessFactor":0.5
			}
		},
		{
			"doubleSided":true,
			"name":"BD_IBOR10",
			"pbrMetallicRoughness":{
				"baseColorFactor":[
					0.800000011920929,
					0.800000011920929,
					0.800000011920929,
					1
				],
				"metallicFactor":0,
				"roughnessFactor":0.5
			}
		},
		{
			"doubleSided":true,
			"name":"BD_IBOR01",
			"pbrMetallicRoughness":{
				"baseColorFactor":[
					0.800000011920929,
					0.800000011920929,
					0.800000011920929,
					1
				],
				"metallicFactor":0,
				"roughnessFactor":0.5
			}
		},
		{
			"doubleSided":true,
			"name":"BD_ITEWAL01B",
			"pbrMetallicRoughness":{
				"baseColorFactor":[
					0.800000011920929,
					0.800000011920929,
					0.800000011920929,
					1
				],
				"metallicFactor":0,
				"roughnessFactor":0.5
			}
		},
		{
			"doubleSided":true,
			"name":"BD_EFLO01",
			"pbrMetallicRoughness":{
				"baseColorFactor":[
					0.800000011920929,
					0.800000011920929,
					0.800000011920929,
					1
				],
				"metallicFactor":0,
				"roughnessFactor":0.5
			}
		},
		{
			"doubleSided":true,
			"name":"BD_ICEI01",
			"pbrMetallicRoughness":{
				"baseColorFactor":[
					0.800000011920929,
					0.800000011920929,
					0.800000011920929,
					1
				],
				"metallicFactor":0,
				"roughnessFactor":0.5
			}
		},
		{
			"doubleSided":true,
			"name":"BD_ICOLIGOLA",
			"pbrMetallicRoughness":{
				"baseColorFactor":[
					0.800000011920929,
					0.800000011920929,
					0.800000011920929,
					1
				],
				"metallicFactor":0,
				"roughnessFactor":0.5
			}
		}
	],
	"meshes":[
		{
			"name":"Mesh",
			"primitives":[
				{
					"attributes":{
						"POSITION":0,
						"NORMAL":1,
						"TEXCOORD_0":2
					},
					"indices":3,
					"material":0
				},
				{
					"attributes":{
						"POSITION":4,
						"NORMAL":5,
						"TEXCOORD_0":6
					},
					"indices":7,
					"material":1
				},
				{
					"attributes":{
						"POSITION":8,
						"NORMAL":9,
						"TEXCOORD_0":10
					},
					"indices":11,
					"material":2
				},
				{
					"attributes":{
						"POSITION":12,
						"NORMAL":13,
						"TEXCOORD_0":14
					},
					"indices":15,
					"material":3
				},
				{
					"attributes":{
						"POSITION":16,
						"NORMAL":17,
						"TEXCOORD_0":18
					},
					"indices":19,
					"material":4
				},
				{
					"attributes":{
						"POSITION":20,
						"NORMAL":21,
						"TEXCOORD_0":22
					},
					"indices":23,
					"material":5
				},
				{
					"attributes":{
						"POSITION":24,
						"NORMAL":25,
						"TEXCOORD_0":26
					},
					"indices":27,
					"material":6
				}
			]
		}
	],
	"accessors":[
		{
			"bufferView":0,
			"componentType":5126,
			"count":1290,
			"max":[
				28.28125,
				50.46875,
				28.28125
			],
			"min":[
				-28.28125,
				-19.4375,
				-28.28125
			],
			"type":"VEC3"
		},
		{
			"bufferView":1,
			"componentType":5126,
			"count":1290,
			"type":"VEC3"
		},
		{
			"bufferView":2,
			"componentType":5126,
			"count":1290,
			"type":"VEC2"
		},
		{
			"bufferView":3,
			"componentType":5123,
			"count":2967,
			"type":"SCALAR"
		},
		{
			"bufferView":4,
			"componentType":5126,
			"count":1034,
			"max":[
				25.125,
				51.75,
				25.09375
			],
			"min":[
				-25.09375,
				0,
				-25.125
			],
			"type":"VEC3"
		},
		{
			"bufferView":5,
			"componentType":5126,
			"count":1034,
			"type":"VEC3"
		},
		{
			"bufferView":6,
			"componentType":5126,
			"count":1034,
			"type":"VEC2"
		},
		{
			"bufferView":7,
			"componentType":5123,
			"count":2364,
			"type":"SCALAR"
		},
		{
			"bufferView":8,
			"componentType":5126,
			"count":96,
			"max":[
				16.1875,
				7.40625,
				16.1875
			],
			"min":[
				-16.1875,
				0.65625,
				-16.1875
			],
			"type":"VEC3"
		},
		{
			"bufferView":9,
			"componentType":5126,
			"count":96,
			"type":"VEC3"
		},
		{
			"bufferView":10,
			"componentType":5126,
			"count":96,
			"type":"VEC2"
		},
		{
			"bufferView":11,
			"componentType":5123,
			"count":144,
			"type":"SCALAR"
		},
		{
			"bufferView":12,
			"componentType":5126,
			"count":24,
			"max":[
				15.71875,
				7.40625,
				15.71875
			],
			"min":[
				-15.71875,
				0.65625,
				-15.71875
			],
			"type":"VEC3"
		},
		{
			"bufferView":13,
			"componentType":5126,
			"count":24,
			"type":"VEC3"
		},
		{
			"bufferView":14,
			"componentType":5126,
			"count":24,
			"type":"VEC2"
		},
		{
			"bufferView":15,
			"componentType":5123,
			"count":48,
			"type":"SCALAR"
		},
		{
			"bufferView":16,
			"componentType":5126,
			"count":467,
			"max":[
				17.5,
				47.5,
				17.625
			],
			"min":[
				-17.5,
				0,
				-17.625
			],
			"type":"VEC3"
		},
		{
			"bufferView":17,
			"componentType":5126,
			"count":467,
			"type":"VEC3"
		},
		{
			"bufferView":18,
			"componentType":5126,
			"count":467,
			"type":"VEC2"
		},
		{
			"bufferView":19,
			"componentType":5123,
			"count":1131,
			"type":"SCALAR"
		},
		{
			"bufferView":20,
			"componentType":5126,
			"count":184,
			"max":[
				19.84375,
				50,
				19.9375
			],
			"min":[
				-19.84375,
				10.875,
				-19.9375
			],
			"type":"VEC3"
		},
		{
			"bufferView":21,
			"componentType":5126,
			"count":184,
			"type":"VEC3"
		},
		{
			"bufferView":22,
			"componentType":5126,
			"count":184,
			"type":"VEC2"
		},
		{
			"bufferView":23,
			"componentType":5123,
			"count":288,
			"type":"SCALAR"
		},
		{
			"bufferView":24,
			"componentType":5126,
			"count":32,
			"max":[
				17,
				0.125,
				17.125
			],
			"min":[
				-17,
				0.125,
				-17.125
			],
			"type":"VEC3"
		},
		{
			"bufferView":25,
			"componentType":5126,
			"count":32,
			"type":"VEC3"
		},
		{
			"bufferView":26,
			"componentType":5126,
			"count":32,
			"type":"VEC2"
		},
		{
			"bufferView":27,
			"componentType":5123,
			"count":48,
			"type":"SCALAR"
		}
	],
	"bufferViews":[
		{
			"buffer":0,
			"byteLength":15480,
			"byteOffset":0,
			"target":34962
		},
		{
			"buffer":0,
			"byteLength":15480,
			"byteOffset":15480,
			"target":34962
		},
		{
			"buffer":0,
			"byteLength":10320,
			"byteOffset":30960,
			"target":34962
		},
		{
			"buffer":0,
			"byteLength":5934,
			"byteOffset":41280,
			"target":34963
		},
		{
			"buffer":0,
			"byteLength":12408,
			"byteOffset":47216,
			"target":34962
		},
		{
			"buffer":0,
			"byteLength":12408,
			"byteOffset":59624,
			"target":34962
		},
		{
			"buffer":0,
			"byteLength":8272,
			"byteOffset":72032,
			"target":34962
		},
		{
			"buffer":0,
			"byteLength":4728,
			"byteOffset":80304,
			"target":34963
		},
		{
			"buffer":0,
			"byteLength":1152,
			"byteOffset":85032,
			"target":34962
		},
		{
			"buffer":0,
			"byteLength":1152,
			"byteOffset":86184,
			"target":34962
		},
		{
			"buffer":0,
			"byteLength":768,
			"byteOffset":87336,
			"target":34962
		},
		{
			"buffer":0,
			"byteLength":288,
			"byteOffset":88104,
			"target":34963
		},
		{
			"buffer":0,
			"byteLength":288,
			"byteOffset":88392,
			"target":34962
		},
		{
			"buffer":0,
			"byteLength":288,
			"byteOffset":88680,
			"target":34962
		},
		{
			"buffer":0,
			"byteLength":192,
			"byteOffset":88968,
			"target":34962
		},
		{
			"buffer":0,
			"byteLength":96,
			"byteOffset":89160,
			"target":34963
		},
		{
			"buffer":0,
			"byteLength":5604,
			"byteOffset":89256,
			"target":34962
		},
		{
			"buffer":0,
			"byteLength":5604,
			"byteOffset":94860,
			"target":34962
		},
		{
			"buffer":0,
			"byteLength":3736,
			"byteOffset":100464,
			"target":34962
		},
		{
			"buffer":0,
			"byteLength":2262,
			"byteOffset":104200,
			"target":34963
		},
		{
			"buffer":0,
			"byteLength":2208,
			"byteOffset":106464,
			"target":34962
		},
		{
			"buffer":0,
			"byteLength":2208,
			"byteOffset":108672,
			"target":34962
		},
		{
			"buffer":0,
			"byteLength":1472,
			"byteOffset":110880,
			"target":34962
		},
		{
			"buffer":0,
			"byteLength":576,
			"byteOffset":112352,
			"target":34963
		},
		{
			"buffer":0,
			"byteLength":384,
			"byteOffset":112928,
			"target":34962
		},
		{
			"buffer":0,
			"byteLength":384,
			"byteOffset":113312,
			"target":34962
		},
		{
			"buffer":0,
			"byteLength":256,
			"byteOffset":113696,
			"target":34962
		},
		{
			"buffer":0,
			"byteLength":96,
			"byteOffset":113952,
			"target":34963
		}
	],
	"buffers":[
		{
			"byteLength":114048,
			"uri":"rst_derm_building5.bin"
		}
	]
}
