{
	"asset":{
		"generator":"Khronos glTF Blender I/O v4.5.48",
		"version":"2.0"
	},
	"scene":0,
	"scenes":[
		{
			"name":"Scene",
			"nodes":[
				0
			]
		}
	],
	"nodes":[
		{
			"mesh":0,
			"name":"Object"
		}
	],
	"materials":[
		{
			"doubleSided":true,
			"name":"rockchipd02",
			"pbrMetallicRoughness":{
				"baseColorFactor":[
					0.800000011920929,
					0.800000011920929,
					0.800000011920929,
					1
				],
				"metallicFactor":0,
				"roughnessFactor":0.5
			}
		},
		{
			"doubleSided":true,
			"name":"SANDREG5",
			"pbrMetallicRoughness":{
				"baseColorFactor":[
					0.800000011920929,
					0.800000011920929,
					0.800000011920929,
					1
				],
				"metallicFactor":0,
				"roughnessFactor":0.5
			}
		}
	],
	"meshes":[
		{
			"name":"Mesh",
			"primitives":[
				{
					"attributes":{
						"POSITION":0,
						"NORMAL":1,
						"TEXCOORD_0":2
					},
					"indices":3,
					"material":0
				},
				{
					"attributes":{
						"POSITION":4,
						"NORMAL":5,
						"TEXCOORD_0":6
					},
					"indices":7,
					"material":1
				}
			]
		}
	],
	"accessors":[
		{
			"bufferView":0,
			"componentType":5126,
			"count":1103,
			"max":[
				167.5,
				36.25,
				37.5
			],
			"min":[
				-214.5,
				-36.5,
				-134.25
			],
			"type":"VEC3"
		},
		{
			"bufferView":1,
			"componentType":5126,
			"count":1103,
			"type":"VEC3"
		},
		{
			"bufferView":2,
			"componentType":5126,
			"count":1103,
			"type":"VEC2"
		},
		{
			"bufferView":3,
			"componentType":5123,
			"count":1113,
			"type":"SCALAR"
		},
		{
			"bufferView":4,
			"componentType":5126,
			"count":342,
			"max":[
				167.5,
				13.5,
				24.5
			],
			"min":[
				-210.5,
				-27,
				-130
			],
			"type":"VEC3"
		},
		{
			"bufferView":5,
			"componentType":5126,
			"count":342,
			"type":"VEC3"
		},
		{
			"bufferView":6,
			"componentType":5126,
			"count":342,
			"type":"VEC2"
		},
		{
			"bufferView":7,
			"componentType":5123,
			"count":342,
			"type":"SCALAR"
		}
	],
	"bufferViews":[
		{
			"buffer":0,
			"byteLength":13236,
			"byteOffset":0,
			"target":34962
		},
		{
			"buffer":0,
			"byteLength":13236,
			"byteOffset":13236,
			"target":34962
		},
		{
			"buffer":0,
			"byteLength":8824,
			"byteOffset":26472,
			"target":34962
		},
		{
			"buffer":0,
			"byteLength":2226,
			"byteOffset":35296,
			"target":34963
		},
		{
			"buffer":0,
			"byteLength":4104,
			"byteOffset":37524,
			"target":34962
		},
		{
			"buffer":0,
			"byteLength":4104,
			"byteOffset":41628,
			"target":34962
		},
		{
			"buffer":0,
			"byteLength":2736,
			"byteOffset":45732,
			"target":34962
		},
		{
			"buffer":0,
			"byteLength":684,
			"byteOffset":48468,
			"target":34963
		}
	],
	"buffers":[
		{
			"byteLength":49152,
			"uri":"rst_SEcave2.bin"
		}
	]
}
