{
	"asset":{
		"generator":"Khronos glTF Blender I/O v4.5.48",
		"version":"2.0"
	},
	"scene":0,
	"scenes":[
		{
			"name":"Scene",
			"nodes":[
				0,
				1,
				2
			]
		}
	],
	"nodes":[
		{
			"mesh":0,
			"name":"Object"
		},
		{
			"mesh":1,
			"name":"Object.001"
		},
		{
			"mesh":2,
			"name":"Object.002"
		}
	],
	"materials":[
		{
			"doubleSided":true,
			"name":"mossDirt2",
			"pbrMetallicRoughness":{
				"baseColorFactor":[
					0.800000011920929,
					0.800000011920929,
					0.800000011920929,
					1
				],
				"metallicFactor":0,
				"roughnessFactor":0.5
			}
		},
		{
			"doubleSided":true,
			"name":"grassMix5",
			"pbrMetallicRoughness":{
				"baseColorFactor":[
					0.800000011920929,
					0.800000011920929,
					0.800000011920929,
					1
				],
				"metallicFactor":0,
				"roughnessFactor":0.5
			}
		},
		{
			"doubleSided":true,
			"name":"mossRock3",
			"pbrMetallicRoughness":{
				"baseColorFactor":[
					0.800000011920929,
					0.800000011920929,
					0.800000011920929,
					1
				],
				"metallicFactor":0,
				"roughnessFactor":0.5
			}
		},
		{
			"doubleSided":true,
			"name":"mossDirt2.001",
			"pbrMetallicRoughness":{
				"baseColorFactor":[
					0.800000011920929,
					0.800000011920929,
					0.800000011920929,
					1
				],
				"metallicFactor":0,
				"roughnessFactor":0.5
			}
		},
		{
			"doubleSided":true,
			"name":"grassMix5.001",
			"pbrMetallicRoughness":{
				"baseColorFactor":[
					0.800000011920929,
					0.800000011920929,
					0.800000011920929,
					1
				],
				"metallicFactor":0,
				"roughnessFactor":0.5
			}
		},
		{
			"doubleSided":true,
			"name":"mossRock3.001",
			"pbrMetallicRoughness":{
				"baseColorFactor":[
					0.800000011920929,
					0.800000011920929,
					0.800000011920929,
					1
				],
				"metallicFactor":0,
				"roughnessFactor":0.5
			}
		},
		{
			"doubleSided":true,
			"name":"mossDirt2.002",
			"pbrMetallicRoughness":{
				"baseColorFactor":[
					0.800000011920929,
					0.800000011920929,
					0.800000011920929,
					1
				],
				"metallicFactor":0,
				"roughnessFactor":0.5
			}
		},
		{
			"doubleSided":true,
			"name":"grassMix5.002",
			"pbrMetallicRoughness":{
				"baseColorFactor":[
					0.800000011920929,
					0.800000011920929,
					0.800000011920929,
					1
				],
				"metallicFactor":0,
				"roughnessFactor":0.5
			}
		},
		{
			"doubleSided":true,
			"name":"mossRock3.002",
			"pbrMetallicRoughness":{
				"baseColorFactor":[
					0.800000011920929,
					0.800000011920929,
					0.800000011920929,
					1
				],
				"metallicFactor":0,
				"roughnessFactor":0.5
			}
		}
	],
	"meshes":[
		{
			"name":"Mesh",
			"primitives":[
				{
					"attributes":{
						"POSITION":0,
						"NORMAL":1,
						"TEXCOORD_0":2
					},
					"indices":3,
					"material":0
				},
				{
					"attributes":{
						"POSITION":4,
						"NORMAL":5,
						"TEXCOORD_0":6
					},
					"indices":7,
					"material":1
				},
				{
					"attributes":{
						"POSITION":8,
						"NORMAL":9,
						"TEXCOORD_0":10
					},
					"indices":11,
					"material":2
				}
			]
		},
		{
			"name":"Mesh.001",
			"primitives":[
				{
					"attributes":{
						"POSITION":12,
						"NORMAL":13,
						"TEXCOORD_0":14
					},
					"indices":15,
					"material":3
				},
				{
					"attributes":{
						"POSITION":16,
						"NORMAL":17,
						"TEXCOORD_0":18
					},
					"indices":19,
					"material":4
				},
				{
					"attributes":{
						"POSITION":20,
						"NORMAL":21,
						"TEXCOORD_0":22
					},
					"indices":23,
					"material":5
				}
			]
		},
		{
			"name":"Mesh.002",
			"primitives":[
				{
					"attributes":{
						"POSITION":24,
						"NORMAL":25,
						"TEXCOORD_0":26
					},
					"indices":27,
					"material":6
				},
				{
					"attributes":{
						"POSITION":28,
						"NORMAL":29,
						"TEXCOORD_0":30
					},
					"indices":31,
					"material":7
				},
				{
					"attributes":{
						"POSITION":32,
						"NORMAL":33,
						"TEXCOORD_0":34
					},
					"indices":35,
					"material":8
				}
			]
		}
	],
	"accessors":[
		{
			"bufferView":0,
			"componentType":5126,
			"count":486,
			"max":[
				63,
				86,
				78
			],
			"min":[
				-55,
				-105,
				-66
			],
			"type":"VEC3"
		},
		{
			"bufferView":1,
			"componentType":5126,
			"count":486,
			"type":"VEC3"
		},
		{
			"bufferView":2,
			"componentType":5126,
			"count":486,
			"type":"VEC2"
		},
		{
			"bufferView":3,
			"componentType":5123,
			"count":486,
			"type":"SCALAR"
		},
		{
			"bufferView":4,
			"componentType":5126,
			"count":96,
			"max":[
				56,
				4,
				74
			],
			"min":[
				-50,
				-2,
				-59
			],
			"type":"VEC3"
		},
		{
			"bufferView":5,
			"componentType":5126,
			"count":96,
			"type":"VEC3"
		},
		{
			"bufferView":6,
			"componentType":5126,
			"count":96,
			"type":"VEC2"
		},
		{
			"bufferView":7,
			"componentType":5123,
			"count":96,
			"type":"SCALAR"
		},
		{
			"bufferView":8,
			"componentType":5126,
			"count":48,
			"max":[
				59,
				4,
				76
			],
			"min":[
				-53,
				-3,
				-62
			],
			"type":"VEC3"
		},
		{
			"bufferView":9,
			"componentType":5126,
			"count":48,
			"type":"VEC3"
		},
		{
			"bufferView":10,
			"componentType":5126,
			"count":48,
			"type":"VEC2"
		},
		{
			"bufferView":11,
			"componentType":5123,
			"count":48,
			"type":"SCALAR"
		},
		{
			"bufferView":12,
			"componentType":5126,
			"count":282,
			"max":[
				63,
				86,
				78
			],
			"min":[
				-55,
				-105,
				-66
			],
			"type":"VEC3"
		},
		{
			"bufferView":13,
			"componentType":5126,
			"count":282,
			"type":"VEC3"
		},
		{
			"bufferView":14,
			"componentType":5126,
			"count":282,
			"type":"VEC2"
		},
		{
			"bufferView":15,
			"componentType":5123,
			"count":282,
			"type":"SCALAR"
		},
		{
			"bufferView":16,
			"componentType":5126,
			"count":72,
			"max":[
				56,
				6,
				74
			],
			"min":[
				-50,
				-2,
				-59
			],
			"type":"VEC3"
		},
		{
			"bufferView":17,
			"componentType":5126,
			"count":72,
			"type":"VEC3"
		},
		{
			"bufferView":18,
			"componentType":5126,
			"count":72,
			"type":"VEC2"
		},
		{
			"bufferView":19,
			"componentType":5123,
			"count":72,
			"type":"SCALAR"
		},
		{
			"bufferView":20,
			"componentType":5126,
			"count":18,
			"max":[
				56,
				4,
				76
			],
			"min":[
				-39,
				-3,
				-62
			],
			"type":"VEC3"
		},
		{
			"bufferView":21,
			"componentType":5126,
			"count":18,
			"type":"VEC3"
		},
		{
			"bufferView":22,
			"componentType":5126,
			"count":18,
			"type":"VEC2"
		},
		{
			"bufferView":23,
			"componentType":5123,
			"count":18,
			"type":"SCALAR"
		},
		{
			"bufferView":24,
			"componentType":5126,
			"count":192,
			"max":[
				63,
				86,
				78
			],
			"min":[
				-55,
				-105,
				-66
			],
			"type":"VEC3"
		},
		{
			"bufferView":25,
			"componentType":5126,
			"count":192,
			"type":"VEC3"
		},
		{
			"bufferView":26,
			"componentType":5126,
			"count":192,
			"type":"VEC2"
		},
		{
			"bufferView":27,
			"componentType":5123,
			"count":192,
			"type":"SCALAR"
		},
		{
			"bufferView":28,
			"componentType":5126,
			"count":48,
			"max":[
				56,
				6,
				74
			],
			"min":[
				-50,
				-8.549793021456718e-15,
				-59
			],
			"type":"VEC3"
		},
		{
			"bufferView":29,
			"componentType":5126,
			"count":48,
			"type":"VEC3"
		},
		{
			"bufferView":30,
			"componentType":5126,
			"count":48,
			"type":"VEC2"
		},
		{
			"bufferView":31,
			"componentType":5123,
			"count":48,
			"type":"SCALAR"
		},
		{
			"bufferView":32,
			"componentType":5126,
			"count":18,
			"max":[
				56,
				4,
				76
			],
			"min":[
				-39,
				-3,
				-62
			],
			"type":"VEC3"
		},
		{
			"bufferView":33,
			"componentType":5126,
			"count":18,
			"type":"VEC3"
		},
		{
			"bufferView":34,
			"componentType":5126,
			"count":18,
			"type":"VEC2"
		},
		{
			"bufferView":35,
			"componentType":5123,
			"count":18,
			"type":"SCALAR"
		}
	],
	"bufferViews":[
		{
			"buffer":0,
			"byteLength":5832,
			"byteOffset":0,
			"target":34962
		},
		{
			"buffer":0,
			"byteLength":5832,
			"byteOffset":5832,
			"target":34962
		},
		{
			"buffer":0,
			"byteLength":3888,
			"byteOffset":11664,
			"target":34962
		},
		{
			"buffer":0,
			"byteLength":972,
			"byteOffset":15552,
			"target":34963
		},
		{
			"buffer":0,
			"byteLength":1152,
			"byteOffset":16524,
			"target":34962
		},
		{
			"buffer":0,
			"byteLength":1152,
			"byteOffset":17676,
			"target":34962
		},
		{
			"buffer":0,
			"byteLength":768,
			"byteOffset":18828,
			"target":34962
		},
		{
			"buffer":0,
			"byteLength":192,
			"byteOffset":19596,
			"target":34963
		},
		{
			"buffer":0,
			"byteLength":576,
			"byteOffset":19788,
			"target":34962
		},
		{
			"buffer":0,
			"byteLength":576,
			"byteOffset":20364,
			"target":34962
		},
		{
			"buffer":0,
			"byteLength":384,
			"byteOffset":20940,
			"target":34962
		},
		{
			"buffer":0,
			"byteLength":96,
			"byteOffset":21324,
			"target":34963
		},
		{
			"buffer":0,
			"byteLength":3384,
			"byteOffset":21420,
			"target":34962
		},
		{
			"buffer":0,
			"byteLength":3384,
			"byteOffset":24804,
			"target":34962
		},
		{
			"buffer":0,
			"byteLength":2256,
			"byteOffset":28188,
			"target":34962
		},
		{
			"buffer":0,
			"byteLength":564,
			"byteOffset":30444,
			"target":34963
		},
		{
			"buffer":0,
			"byteLength":864,
			"byteOffset":31008,
			"target":34962
		},
		{
			"buffer":0,
			"byteLength":864,
			"byteOffset":31872,
			"target":34962
		},
		{
			"buffer":0,
			"byteLength":576,
			"byteOffset":32736,
			"target":34962
		},
		{
			"buffer":0,
			"byteLength":144,
			"byteOffset":33312,
			"target":34963
		},
		{
			"buffer":0,
			"byteLength":216,
			"byteOffset":33456,
			"target":34962
		},
		{
			"buffer":0,
			"byteLength":216,
			"byteOffset":33672,
			"target":34962
		},
		{
			"buffer":0,
			"byteLength":144,
			"byteOffset":33888,
			"target":34962
		},
		{
			"buffer":0,
			"byteLength":36,
			"byteOffset":34032,
			"target":34963
		},
		{
			"buffer":0,
			"byteLength":2304,
			"byteOffset":34068,
			"target":34962
		},
		{
			"buffer":0,
			"byteLength":2304,
			"byteOffset":36372,
			"target":34962
		},
		{
			"buffer":0,
			"byteLength":1536,
			"byteOffset":38676,
			"target":34962
		},
		{
			"buffer":0,
			"byteLength":384,
			"byteOffset":40212,
			"target":34963
		},
		{
			"buffer":0,
			"byteLength":576,
			"byteOffset":40596,
			"target":34962
		},
		{
			"buffer":0,
			"byteLength":576,
			"byteOffset":41172,
			"target":34962
		},
		{
			"buffer":0,
			"byteLength":384,
			"byteOffset":41748,
			"target":34962
		},
		{
			"buffer":0,
			"byteLength":96,
			"byteOffset":42132,
			"target":34963
		},
		{
			"buffer":0,
			"byteLength":216,
			"byteOffset":42228,
			"target":34962
		},
		{
			"buffer":0,
			"byteLength":216,
			"byteOffset":42444,
			"target":34962
		},
		{
			"buffer":0,
			"byteLength":144,
			"byteOffset":42660,
			"target":34962
		},
		{
			"buffer":0,
			"byteLength":36,
			"byteOffset":42804,
			"target":34963
		}
	],
	"buffers":[
		{
			"byteLength":42840,
			"uri":"rst_lush_floatingisle2.bin"
		}
	]
}
