{
	"asset":{
		"generator":"Khronos glTF Blender I/O v4.5.48",
		"version":"2.0"
	},
	"scene":0,
	"scenes":[
		{
			"name":"Scene",
			"nodes":[
				0
			]
		}
	],
	"nodes":[
		{
			"mesh":0,
			"name":"Object"
		}
	],
	"materials":[
		{
			"doubleSided":true,
			"name":"BD_EFLO01",
			"pbrMetallicRoughness":{
				"baseColorFactor":[
					0.800000011920929,
					0.800000011920929,
					0.800000011920929,
					1
				],
				"metallicFactor":0,
				"roughnessFactor":0.5
			}
		},
		{
			"doubleSided":true,
			"name":"BD_EWAL03C",
			"pbrMetallicRoughness":{
				"baseColorFactor":[
					0.800000011920929,
					0.800000011920929,
					0.800000011920929,
					1
				],
				"metallicFactor":0,
				"roughnessFactor":0.5
			}
		},
		{
			"doubleSided":true,
			"name":"BD_IFLO01",
			"pbrMetallicRoughness":{
				"baseColorFactor":[
					0.800000011920929,
					0.800000011920929,
					0.800000011920929,
					1
				],
				"metallicFactor":0,
				"roughnessFactor":0.5
			}
		},
		{
			"doubleSided":true,
			"name":"BD_IBOR04",
			"pbrMetallicRoughness":{
				"baseColorFactor":[
					0.800000011920929,
					0.800000011920929,
					0.800000011920929,
					1
				],
				"metallicFactor":0,
				"roughnessFactor":0.5
			}
		},
		{
			"doubleSided":true,
			"name":"BD_ECOL01A",
			"pbrMetallicRoughness":{
				"baseColorFactor":[
					0.800000011920929,
					0.800000011920929,
					0.800000011920929,
					1
				],
				"metallicFactor":0,
				"roughnessFactor":0.5
			}
		},
		{
			"doubleSided":true,
			"name":"BD_IBOR01",
			"pbrMetallicRoughness":{
				"baseColorFactor":[
					0.800000011920929,
					0.800000011920929,
					0.800000011920929,
					1
				],
				"metallicFactor":0,
				"roughnessFactor":0.5
			}
		},
		{
			"doubleSided":true,
			"name":"BD_IBOR03",
			"pbrMetallicRoughness":{
				"baseColorFactor":[
					0.800000011920929,
					0.800000011920929,
					0.800000011920929,
					1
				],
				"metallicFactor":0,
				"roughnessFactor":0.5
			}
		},
		{
			"doubleSided":true,
			"name":"BD_ICHUTE01",
			"pbrMetallicRoughness":{
				"baseColorFactor":[
					0.800000011920929,
					0.800000011920929,
					0.800000011920929,
					1
				],
				"metallicFactor":0,
				"roughnessFactor":0.5
			}
		},
		{
			"doubleSided":true,
			"name":"BD_EBOR03",
			"pbrMetallicRoughness":{
				"baseColorFactor":[
					0.800000011920929,
					0.800000011920929,
					0.800000011920929,
					1
				],
				"metallicFactor":0,
				"roughnessFactor":0.5
			}
		},
		{
			"doubleSided":true,
			"name":"BD_EWAL07",
			"pbrMetallicRoughness":{
				"baseColorFactor":[
					0.800000011920929,
					0.800000011920929,
					0.800000011920929,
					1
				],
				"metallicFactor":0,
				"roughnessFactor":0.5
			}
		},
		{
			"doubleSided":true,
			"name":"BD_ICEI01",
			"pbrMetallicRoughness":{
				"baseColorFactor":[
					0.800000011920929,
					0.800000011920929,
					0.800000011920929,
					1
				],
				"metallicFactor":0,
				"roughnessFactor":0.5
			}
		},
		{
			"doubleSided":true,
			"name":"BD_ICEI02A",
			"pbrMetallicRoughness":{
				"baseColorFactor":[
					0.800000011920929,
					0.800000011920929,
					0.800000011920929,
					1
				],
				"metallicFactor":0,
				"roughnessFactor":0.5
			}
		},
		{
			"doubleSided":true,
			"name":"BD_IWAL01E",
			"pbrMetallicRoughness":{
				"baseColorFactor":[
					0.800000011920929,
					0.800000011920929,
					0.800000011920929,
					1
				],
				"metallicFactor":0,
				"roughnessFactor":0.5
			}
		},
		{
			"doubleSided":true,
			"name":"BD_ITEC03",
			"pbrMetallicRoughness":{
				"baseColorFactor":[
					0.800000011920929,
					0.800000011920929,
					0.800000011920929,
					1
				],
				"metallicFactor":0,
				"roughnessFactor":0.5
			}
		},
		{
			"doubleSided":true,
			"name":"BD_IBOR8",
			"pbrMetallicRoughness":{
				"baseColorFactor":[
					0.800000011920929,
					0.800000011920929,
					0.800000011920929,
					1
				],
				"metallicFactor":0,
				"roughnessFactor":0.5
			}
		},
		{
			"doubleSided":true,
			"name":"BD_IBOR10",
			"pbrMetallicRoughness":{
				"baseColorFactor":[
					0.800000011920929,
					0.800000011920929,
					0.800000011920929,
					1
				],
				"metallicFactor":0,
				"roughnessFactor":0.5
			}
		},
		{
			"doubleSided":true,
			"name":"BD_ICEILIG03",
			"pbrMetallicRoughness":{
				"baseColorFactor":[
					0.800000011920929,
					0.800000011920929,
					0.800000011920929,
					1
				],
				"metallicFactor":0,
				"roughnessFactor":0.5
			}
		}
	],
	"meshes":[
		{
			"name":"Mesh",
			"primitives":[
				{
					"attributes":{
						"POSITION":0,
						"NORMAL":1,
						"TEXCOORD_0":2
					},
					"indices":3,
					"material":0
				},
				{
					"attributes":{
						"POSITION":4,
						"NORMAL":5,
						"TEXCOORD_0":6
					},
					"indices":7,
					"material":1
				},
				{
					"attributes":{
						"POSITION":8,
						"NORMAL":9,
						"TEXCOORD_0":10
					},
					"indices":11,
					"material":2
				},
				{
					"attributes":{
						"POSITION":12,
						"NORMAL":13,
						"TEXCOORD_0":14
					},
					"indices":15,
					"material":3
				},
				{
					"attributes":{
						"POSITION":16,
						"NORMAL":17,
						"TEXCOORD_0":18
					},
					"indices":19,
					"material":4
				},
				{
					"attributes":{
						"POSITION":20,
						"NORMAL":21,
						"TEXCOORD_0":22
					},
					"indices":23,
					"material":5
				},
				{
					"attributes":{
						"POSITION":24,
						"NORMAL":25,
						"TEXCOORD_0":26
					},
					"indices":27,
					"material":6
				},
				{
					"attributes":{
						"POSITION":28,
						"NORMAL":29,
						"TEXCOORD_0":30
					},
					"indices":31,
					"material":7
				},
				{
					"attributes":{
						"POSITION":32,
						"NORMAL":33,
						"TEXCOORD_0":34
					},
					"indices":35,
					"material":8
				},
				{
					"attributes":{
						"POSITION":36,
						"NORMAL":37,
						"TEXCOORD_0":38
					},
					"indices":39,
					"material":9
				},
				{
					"attributes":{
						"POSITION":40,
						"NORMAL":41,
						"TEXCOORD_0":42
					},
					"indices":43,
					"material":10
				},
				{
					"attributes":{
						"POSITION":44,
						"NORMAL":45,
						"TEXCOORD_0":46
					},
					"indices":47,
					"material":11
				},
				{
					"attributes":{
						"POSITION":48,
						"NORMAL":49,
						"TEXCOORD_0":50
					},
					"indices":51,
					"material":12
				},
				{
					"attributes":{
						"POSITION":52,
						"NORMAL":53,
						"TEXCOORD_0":54
					},
					"indices":55,
					"material":13
				},
				{
					"attributes":{
						"POSITION":56,
						"NORMAL":57,
						"TEXCOORD_0":58
					},
					"indices":59,
					"material":14
				},
				{
					"attributes":{
						"POSITION":60,
						"NORMAL":61,
						"TEXCOORD_0":62
					},
					"indices":63,
					"material":15
				},
				{
					"attributes":{
						"POSITION":64,
						"NORMAL":65,
						"TEXCOORD_0":66
					},
					"indices":67,
					"material":16
				}
			]
		}
	],
	"accessors":[
		{
			"bufferView":0,
			"componentType":5126,
			"count":1719,
			"max":[
				21,
				80,
				22.90625
			],
			"min":[
				-21.03125,
				-23.5,
				-22.9375
			],
			"type":"VEC3"
		},
		{
			"bufferView":1,
			"componentType":5126,
			"count":1719,
			"type":"VEC3"
		},
		{
			"bufferView":2,
			"componentType":5126,
			"count":1719,
			"type":"VEC2"
		},
		{
			"bufferView":3,
			"componentType":5123,
			"count":3486,
			"type":"SCALAR"
		},
		{
			"bufferView":4,
			"componentType":5126,
			"count":247,
			"max":[
				17.59375,
				80,
				17.59375
			],
			"min":[
				-17.59375,
				24,
				-17.59375
			],
			"type":"VEC3"
		},
		{
			"bufferView":5,
			"componentType":5126,
			"count":247,
			"type":"VEC3"
		},
		{
			"bufferView":6,
			"componentType":5126,
			"count":247,
			"type":"VEC2"
		},
		{
			"bufferView":7,
			"componentType":5123,
			"count":711,
			"type":"SCALAR"
		},
		{
			"bufferView":8,
			"componentType":5126,
			"count":186,
			"max":[
				20.4375,
				76.8125,
				22.90625
			],
			"min":[
				-20.4375,
				36.4375,
				-22.9375
			],
			"type":"VEC3"
		},
		{
			"bufferView":9,
			"componentType":5126,
			"count":186,
			"type":"VEC3"
		},
		{
			"bufferView":10,
			"componentType":5126,
			"count":186,
			"type":"VEC2"
		},
		{
			"bufferView":11,
			"componentType":5123,
			"count":561,
			"type":"SCALAR"
		},
		{
			"bufferView":12,
			"componentType":5126,
			"count":48,
			"max":[
				20.4375,
				62.9375,
				22.90625
			],
			"min":[
				-20.4375,
				35.59375,
				-22.9375
			],
			"type":"VEC3"
		},
		{
			"bufferView":13,
			"componentType":5126,
			"count":48,
			"type":"VEC3"
		},
		{
			"bufferView":14,
			"componentType":5126,
			"count":48,
			"type":"VEC2"
		},
		{
			"bufferView":15,
			"componentType":5123,
			"count":72,
			"type":"SCALAR"
		},
		{
			"bufferView":16,
			"componentType":5126,
			"count":16,
			"max":[
				20.4375,
				62.09375,
				22.90625
			],
			"min":[
				-20.4375,
				34.375,
				-22.9375
			],
			"type":"VEC3"
		},
		{
			"bufferView":17,
			"componentType":5126,
			"count":16,
			"type":"VEC3"
		},
		{
			"bufferView":18,
			"componentType":5126,
			"count":16,
			"type":"VEC2"
		},
		{
			"bufferView":19,
			"componentType":5123,
			"count":24,
			"type":"SCALAR"
		},
		{
			"bufferView":20,
			"componentType":5126,
			"count":170,
			"max":[
				13.71875,
				63.4375,
				16.34375
			],
			"min":[
				-13.71875,
				36.4375,
				-16.34375
			],
			"type":"VEC3"
		},
		{
			"bufferView":21,
			"componentType":5126,
			"count":170,
			"type":"VEC3"
		},
		{
			"bufferView":22,
			"componentType":5126,
			"count":170,
			"type":"VEC2"
		},
		{
			"bufferView":23,
			"componentType":5123,
			"count":324,
			"type":"SCALAR"
		},
		{
			"bufferView":24,
			"componentType":5126,
			"count":157,
			"max":[
				7,
				69.875,
				11.875
			],
			"min":[
				-13.03125,
				36.4375,
				-10.125
			],
			"type":"VEC3"
		},
		{
			"bufferView":25,
			"componentType":5126,
			"count":157,
			"type":"VEC3"
		},
		{
			"bufferView":26,
			"componentType":5126,
			"count":157,
			"type":"VEC2"
		},
		{
			"bufferView":27,
			"componentType":5123,
			"count":327,
			"type":"SCALAR"
		},
		{
			"bufferView":28,
			"componentType":5126,
			"count":86,
			"max":[
				9.5625,
				69.875,
				10
			],
			"min":[
				-9.5625,
				36.4375,
				-10.125
			],
			"type":"VEC3"
		},
		{
			"bufferView":29,
			"componentType":5126,
			"count":86,
			"type":"VEC3"
		},
		{
			"bufferView":30,
			"componentType":5126,
			"count":86,
			"type":"VEC2"
		},
		{
			"bufferView":31,
			"componentType":5123,
			"count":174,
			"type":"SCALAR"
		},
		{
			"bufferView":32,
			"componentType":5126,
			"count":116,
			"max":[
				16,
				69.875,
				10
			],
			"min":[
				-16,
				36.4375,
				-10.125
			],
			"type":"VEC3"
		},
		{
			"bufferView":33,
			"componentType":5126,
			"count":116,
			"type":"VEC3"
		},
		{
			"bufferView":34,
			"componentType":5126,
			"count":116,
			"type":"VEC2"
		},
		{
			"bufferView":35,
			"componentType":5123,
			"count":300,
			"type":"SCALAR"
		},
		{
			"bufferView":36,
			"componentType":5126,
			"count":495,
			"max":[
				14.59375,
				69.875,
				15.71875
			],
			"min":[
				-14.59375,
				24,
				-15.71875
			],
			"type":"VEC3"
		},
		{
			"bufferView":37,
			"componentType":5126,
			"count":495,
			"type":"VEC3"
		},
		{
			"bufferView":38,
			"componentType":5126,
			"count":495,
			"type":"VEC2"
		},
		{
			"bufferView":39,
			"componentType":5123,
			"count":849,
			"type":"SCALAR"
		},
		{
			"bufferView":40,
			"componentType":5126,
			"count":96,
			"max":[
				13.71875,
				69.875,
				16.34375
			],
			"min":[
				-13.71875,
				36.4375,
				-16.34375
			],
			"type":"VEC3"
		},
		{
			"bufferView":41,
			"componentType":5126,
			"count":96,
			"type":"VEC3"
		},
		{
			"bufferView":42,
			"componentType":5126,
			"count":96,
			"type":"VEC2"
		},
		{
			"bufferView":43,
			"componentType":5123,
			"count":144,
			"type":"SCALAR"
		},
		{
			"bufferView":44,
			"componentType":5126,
			"count":79,
			"max":[
				13,
				69.875,
				15.65625
			],
			"min":[
				-13.03125,
				43.5625,
				-15.65625
			],
			"type":"VEC3"
		},
		{
			"bufferView":45,
			"componentType":5126,
			"count":79,
			"type":"VEC3"
		},
		{
			"bufferView":46,
			"componentType":5126,
			"count":79,
			"type":"VEC2"
		},
		{
			"bufferView":47,
			"componentType":5123,
			"count":249,
			"type":"SCALAR"
		},
		{
			"bufferView":48,
			"componentType":5126,
			"count":112,
			"max":[
				13.65625,
				69.375,
				16.28125
			],
			"min":[
				-13.65625,
				37,
				-16.28125
			],
			"type":"VEC3"
		},
		{
			"bufferView":49,
			"componentType":5126,
			"count":112,
			"type":"VEC3"
		},
		{
			"bufferView":50,
			"componentType":5126,
			"count":112,
			"type":"VEC2"
		},
		{
			"bufferView":51,
			"componentType":5123,
			"count":216,
			"type":"SCALAR"
		},
		{
			"bufferView":52,
			"componentType":5126,
			"count":48,
			"max":[
				9.5625,
				69.375,
				10
			],
			"min":[
				-9.5625,
				37,
				-10.125
			],
			"type":"VEC3"
		},
		{
			"bufferView":53,
			"componentType":5126,
			"count":48,
			"type":"VEC3"
		},
		{
			"bufferView":54,
			"componentType":5126,
			"count":48,
			"type":"VEC2"
		},
		{
			"bufferView":55,
			"componentType":5123,
			"count":72,
			"type":"SCALAR"
		},
		{
			"bufferView":56,
			"componentType":5126,
			"count":108,
			"max":[
				6,
				69.875,
				6
			],
			"min":[
				-6,
				62.9375,
				-6.125
			],
			"type":"VEC3"
		},
		{
			"bufferView":57,
			"componentType":5126,
			"count":108,
			"type":"VEC3"
		},
		{
			"bufferView":58,
			"componentType":5126,
			"count":108,
			"type":"VEC2"
		},
		{
			"bufferView":59,
			"componentType":5123,
			"count":216,
			"type":"SCALAR"
		},
		{
			"bufferView":60,
			"componentType":5126,
			"count":16,
			"max":[
				6,
				43.5625,
				16.28125
			],
			"min":[
				-6,
				37,
				-16.28125
			],
			"type":"VEC3"
		},
		{
			"bufferView":61,
			"componentType":5126,
			"count":16,
			"type":"VEC3"
		},
		{
			"bufferView":62,
			"componentType":5126,
			"count":16,
			"type":"VEC2"
		},
		{
			"bufferView":63,
			"componentType":5123,
			"count":24,
			"type":"SCALAR"
		},
		{
			"bufferView":64,
			"componentType":5126,
			"count":96,
			"max":[
				1.90625,
				69.625,
				9.625
			],
			"min":[
				-1.875,
				43.3125,
				-9.6875
			],
			"type":"VEC3"
		},
		{
			"bufferView":65,
			"componentType":5126,
			"count":96,
			"type":"VEC3"
		},
		{
			"bufferView":66,
			"componentType":5126,
			"count":96,
			"type":"VEC2"
		},
		{
			"bufferView":67,
			"componentType":5123,
			"count":288,
			"type":"SCALAR"
		}
	],
	"bufferViews":[
		{
			"buffer":0,
			"byteLength":20628,
			"byteOffset":0,
			"target":34962
		},
		{
			"buffer":0,
			"byteLength":20628,
			"byteOffset":20628,
			"target":34962
		},
		{
			"buffer":0,
			"byteLength":13752,
			"byteOffset":41256,
			"target":34962
		},
		{
			"buffer":0,
			"byteLength":6972,
			"byteOffset":55008,
			"target":34963
		},
		{
			"buffer":0,
			"byteLength":2964,
			"byteOffset":61980,
			"target":34962
		},
		{
			"buffer":0,
			"byteLength":2964,
			"byteOffset":64944,
			"target":34962
		},
		{
			"buffer":0,
			"byteLength":1976,
			"byteOffset":67908,
			"target":34962
		},
		{
			"buffer":0,
			"byteLength":1422,
			"byteOffset":69884,
			"target":34963
		},
		{
			"buffer":0,
			"byteLength":2232,
			"byteOffset":71308,
			"target":34962
		},
		{
			"buffer":0,
			"byteLength":2232,
			"byteOffset":73540,
			"target":34962
		},
		{
			"buffer":0,
			"byteLength":1488,
			"byteOffset":75772,
			"target":34962
		},
		{
			"buffer":0,
			"byteLength":1122,
			"byteOffset":77260,
			"target":34963
		},
		{
			"buffer":0,
			"byteLength":576,
			"byteOffset":78384,
			"target":34962
		},
		{
			"buffer":0,
			"byteLength":576,
			"byteOffset":78960,
			"target":34962
		},
		{
			"buffer":0,
			"byteLength":384,
			"byteOffset":79536,
			"target":34962
		},
		{
			"buffer":0,
			"byteLength":144,
			"byteOffset":79920,
			"target":34963
		},
		{
			"buffer":0,
			"byteLength":192,
			"byteOffset":80064,
			"target":34962
		},
		{
			"buffer":0,
			"byteLength":192,
			"byteOffset":80256,
			"target":34962
		},
		{
			"buffer":0,
			"byteLength":128,
			"byteOffset":80448,
			"target":34962
		},
		{
			"buffer":0,
			"byteLength":48,
			"byteOffset":80576,
			"target":34963
		},
		{
			"buffer":0,
			"byteLength":2040,
			"byteOffset":80624,
			"target":34962
		},
		{
			"buffer":0,
			"byteLength":2040,
			"byteOffset":82664,
			"target":34962
		},
		{
			"buffer":0,
			"byteLength":1360,
			"byteOffset":84704,
			"target":34962
		},
		{
			"buffer":0,
			"byteLength":648,
			"byteOffset":86064,
			"target":34963
		},
		{
			"buffer":0,
			"byteLength":1884,
			"byteOffset":86712,
			"target":34962
		},
		{
			"buffer":0,
			"byteLength":1884,
			"byteOffset":88596,
			"target":34962
		},
		{
			"buffer":0,
			"byteLength":1256,
			"byteOffset":90480,
			"target":34962
		},
		{
			"buffer":0,
			"byteLength":654,
			"byteOffset":91736,
			"target":34963
		},
		{
			"buffer":0,
			"byteLength":1032,
			"byteOffset":92392,
			"target":34962
		},
		{
			"buffer":0,
			"byteLength":1032,
			"byteOffset":93424,
			"target":34962
		},
		{
			"buffer":0,
			"byteLength":688,
			"byteOffset":94456,
			"target":34962
		},
		{
			"buffer":0,
			"byteLength":348,
			"byteOffset":95144,
			"target":34963
		},
		{
			"buffer":0,
			"byteLength":1392,
			"byteOffset":95492,
			"target":34962
		},
		{
			"buffer":0,
			"byteLength":1392,
			"byteOffset":96884,
			"target":34962
		},
		{
			"buffer":0,
			"byteLength":928,
			"byteOffset":98276,
			"target":34962
		},
		{
			"buffer":0,
			"byteLength":600,
			"byteOffset":99204,
			"target":34963
		},
		{
			"buffer":0,
			"byteLength":5940,
			"byteOffset":99804,
			"target":34962
		},
		{
			"buffer":0,
			"byteLength":5940,
			"byteOffset":105744,
			"target":34962
		},
		{
			"buffer":0,
			"byteLength":3960,
			"byteOffset":111684,
			"target":34962
		},
		{
			"buffer":0,
			"byteLength":1698,
			"byteOffset":115644,
			"target":34963
		},
		{
			"buffer":0,
			"byteLength":1152,
			"byteOffset":117344,
			"target":34962
		},
		{
			"buffer":0,
			"byteLength":1152,
			"byteOffset":118496,
			"target":34962
		},
		{
			"buffer":0,
			"byteLength":768,
			"byteOffset":119648,
			"target":34962
		},
		{
			"buffer":0,
			"byteLength":288,
			"byteOffset":120416,
			"target":34963
		},
		{
			"buffer":0,
			"byteLength":948,
			"byteOffset":120704,
			"target":34962
		},
		{
			"buffer":0,
			"byteLength":948,
			"byteOffset":121652,
			"target":34962
		},
		{
			"buffer":0,
			"byteLength":632,
			"byteOffset":122600,
			"target":34962
		},
		{
			"buffer":0,
			"byteLength":498,
			"byteOffset":123232,
			"target":34963
		},
		{
			"buffer":0,
			"byteLength":1344,
			"byteOffset":123732,
			"target":34962
		},
		{
			"buffer":0,
			"byteLength":1344,
			"byteOffset":125076,
			"target":34962
		},
		{
			"buffer":0,
			"byteLength":896,
			"byteOffset":126420,
			"target":34962
		},
		{
			"buffer":0,
			"byteLength":432,
			"byteOffset":127316,
			"target":34963
		},
		{
			"buffer":0,
			"byteLength":576,
			"byteOffset":127748,
			"target":34962
		},
		{
			"buffer":0,
			"byteLength":576,
			"byteOffset":128324,
			"target":34962
		},
		{
			"buffer":0,
			"byteLength":384,
			"byteOffset":128900,
			"target":34962
		},
		{
			"buffer":0,
			"byteLength":144,
			"byteOffset":129284,
			"target":34963
		},
		{
			"buffer":0,
			"byteLength":1296,
			"byteOffset":129428,
			"target":34962
		},
		{
			"buffer":0,
			"byteLength":1296,
			"byteOffset":130724,
			"target":34962
		},
		{
			"buffer":0,
			"byteLength":864,
			"byteOffset":132020,
			"target":34962
		},
		{
			"buffer":0,
			"byteLength":432,
			"byteOffset":132884,
			"target":34963
		},
		{
			"buffer":0,
			"byteLength":192,
			"byteOffset":133316,
			"target":34962
		},
		{
			"buffer":0,
			"byteLength":192,
			"byteOffset":133508,
			"target":34962
		},
		{
			"buffer":0,
			"byteLength":128,
			"byteOffset":133700,
			"target":34962
		},
		{
			"buffer":0,
			"byteLength":48,
			"byteOffset":133828,
			"target":34963
		},
		{
			"buffer":0,
			"byteLength":1152,
			"byteOffset":133876,
			"target":34962
		},
		{
			"buffer":0,
			"byteLength":1152,
			"byteOffset":135028,
			"target":34962
		},
		{
			"buffer":0,
			"byteLength":768,
			"byteOffset":136180,
			"target":34962
		},
		{
			"buffer":0,
			"byteLength":576,
			"byteOffset":136948,
			"target":34963
		}
	],
	"buffers":[
		{
			"byteLength":137524,
			"uri":"rst_derm_building1.bin"
		}
	]
}
