{
	"asset":{
		"generator":"Khronos glTF Blender I/O v4.5.48",
		"version":"2.0"
	},
	"scene":0,
	"scenes":[
		{
			"name":"Scene",
			"nodes":[
				0
			]
		}
	],
	"nodes":[
		{
			"mesh":0,
			"name":"Object"
		}
	],
	"materials":[
		{
			"doubleSided":true,
			"name":"BD_EWAL03C",
			"pbrMetallicRoughness":{
				"baseColorFactor":[
					0.800000011920929,
					0.800000011920929,
					0.800000011920929,
					1
				],
				"metallicFactor":0,
				"roughnessFactor":0.5
			}
		},
		{
			"doubleSided":true,
			"name":"BD_EFLO01",
			"pbrMetallicRoughness":{
				"baseColorFactor":[
					0.800000011920929,
					0.800000011920929,
					0.800000011920929,
					1
				],
				"metallicFactor":0,
				"roughnessFactor":0.5
			}
		},
		{
			"doubleSided":true,
			"name":"BD_IBOR10",
			"pbrMetallicRoughness":{
				"baseColorFactor":[
					0.800000011920929,
					0.800000011920929,
					0.800000011920929,
					1
				],
				"metallicFactor":0,
				"roughnessFactor":0.5
			}
		},
		{
			"doubleSided":true,
			"name":"BD_EWAL13",
			"pbrMetallicRoughness":{
				"baseColorFactor":[
					0.800000011920929,
					0.800000011920929,
					0.800000011920929,
					1
				],
				"metallicFactor":0,
				"roughnessFactor":0.5
			}
		},
		{
			"doubleSided":true,
			"name":"BD_IBOR01",
			"pbrMetallicRoughness":{
				"baseColorFactor":[
					0.800000011920929,
					0.800000011920929,
					0.800000011920929,
					1
				],
				"metallicFactor":0,
				"roughnessFactor":0.5
			}
		},
		{
			"doubleSided":true,
			"name":"BD_ITEWAL01B",
			"pbrMetallicRoughness":{
				"baseColorFactor":[
					0.800000011920929,
					0.800000011920929,
					0.800000011920929,
					1
				],
				"metallicFactor":0,
				"roughnessFactor":0.5
			}
		},
		{
			"doubleSided":true,
			"name":"BD_ICEI01",
			"pbrMetallicRoughness":{
				"baseColorFactor":[
					0.800000011920929,
					0.800000011920929,
					0.800000011920929,
					1
				],
				"metallicFactor":0,
				"roughnessFactor":0.5
			}
		}
	],
	"meshes":[
		{
			"name":"Mesh",
			"primitives":[
				{
					"attributes":{
						"POSITION":0,
						"NORMAL":1,
						"TEXCOORD_0":2
					},
					"indices":3,
					"material":0
				},
				{
					"attributes":{
						"POSITION":4,
						"NORMAL":5,
						"TEXCOORD_0":6
					},
					"indices":7,
					"material":1
				},
				{
					"attributes":{
						"POSITION":8,
						"NORMAL":9,
						"TEXCOORD_0":10
					},
					"indices":11,
					"material":2
				},
				{
					"attributes":{
						"POSITION":12,
						"NORMAL":13,
						"TEXCOORD_0":14
					},
					"indices":15,
					"material":3
				},
				{
					"attributes":{
						"POSITION":16,
						"NORMAL":17,
						"TEXCOORD_0":18
					},
					"indices":19,
					"material":4
				},
				{
					"attributes":{
						"POSITION":20,
						"NORMAL":21,
						"TEXCOORD_0":22
					},
					"indices":23,
					"material":5
				},
				{
					"attributes":{
						"POSITION":24,
						"NORMAL":25,
						"TEXCOORD_0":26
					},
					"indices":27,
					"material":6
				}
			]
		}
	],
	"accessors":[
		{
			"bufferView":0,
			"componentType":5126,
			"count":1550,
			"max":[
				28.28125,
				50.46875,
				28.28125
			],
			"min":[
				-28.28125,
				-19.4375,
				-28.28125
			],
			"type":"VEC3"
		},
		{
			"bufferView":1,
			"componentType":5126,
			"count":1550,
			"type":"VEC3"
		},
		{
			"bufferView":2,
			"componentType":5126,
			"count":1550,
			"type":"VEC2"
		},
		{
			"bufferView":3,
			"componentType":5123,
			"count":4359,
			"type":"SCALAR"
		},
		{
			"bufferView":4,
			"componentType":5126,
			"count":1668,
			"max":[
				15.21875,
				47.5,
				15.34375
			],
			"min":[
				-15.21875,
				0,
				-15.34375
			],
			"type":"VEC3"
		},
		{
			"bufferView":5,
			"componentType":5126,
			"count":1668,
			"type":"VEC3"
		},
		{
			"bufferView":6,
			"componentType":5126,
			"count":1668,
			"type":"VEC2"
		},
		{
			"bufferView":7,
			"componentType":5123,
			"count":3633,
			"type":"SCALAR"
		},
		{
			"bufferView":8,
			"componentType":5126,
			"count":1227,
			"max":[
				25.125,
				51.75,
				25.09375
			],
			"min":[
				-25.09375,
				0,
				-25.125
			],
			"type":"VEC3"
		},
		{
			"bufferView":9,
			"componentType":5126,
			"count":1227,
			"type":"VEC3"
		},
		{
			"bufferView":10,
			"componentType":5126,
			"count":1227,
			"type":"VEC2"
		},
		{
			"bufferView":11,
			"componentType":5123,
			"count":2919,
			"type":"SCALAR"
		},
		{
			"bufferView":12,
			"componentType":5126,
			"count":137,
			"max":[
				5.15625,
				47.5,
				5.1875
			],
			"min":[
				-5.15625,
				0,
				-5.1875
			],
			"type":"VEC3"
		},
		{
			"bufferView":13,
			"componentType":5126,
			"count":137,
			"type":"VEC3"
		},
		{
			"bufferView":14,
			"componentType":5126,
			"count":137,
			"type":"VEC2"
		},
		{
			"bufferView":15,
			"componentType":5123,
			"count":219,
			"type":"SCALAR"
		},
		{
			"bufferView":16,
			"componentType":5126,
			"count":192,
			"max":[
				16.1875,
				7.40625,
				16.1875
			],
			"min":[
				-16.1875,
				0.65625,
				-16.1875
			],
			"type":"VEC3"
		},
		{
			"bufferView":17,
			"componentType":5126,
			"count":192,
			"type":"VEC3"
		},
		{
			"bufferView":18,
			"componentType":5126,
			"count":192,
			"type":"VEC2"
		},
		{
			"bufferView":19,
			"componentType":5123,
			"count":288,
			"type":"SCALAR"
		},
		{
			"bufferView":20,
			"componentType":5126,
			"count":48,
			"max":[
				15.71875,
				7.40625,
				15.71875
			],
			"min":[
				-15.71875,
				0.65625,
				-15.71875
			],
			"type":"VEC3"
		},
		{
			"bufferView":21,
			"componentType":5126,
			"count":48,
			"type":"VEC3"
		},
		{
			"bufferView":22,
			"componentType":5126,
			"count":48,
			"type":"VEC2"
		},
		{
			"bufferView":23,
			"componentType":5123,
			"count":96,
			"type":"SCALAR"
		},
		{
			"bufferView":24,
			"componentType":5126,
			"count":190,
			"max":[
				19.84375,
				50,
				19.9375
			],
			"min":[
				-19.84375,
				11,
				-19.9375
			],
			"type":"VEC3"
		},
		{
			"bufferView":25,
			"componentType":5126,
			"count":190,
			"type":"VEC3"
		},
		{
			"bufferView":26,
			"componentType":5126,
			"count":190,
			"type":"VEC2"
		},
		{
			"bufferView":27,
			"componentType":5123,
			"count":306,
			"type":"SCALAR"
		}
	],
	"bufferViews":[
		{
			"buffer":0,
			"byteLength":18600,
			"byteOffset":0,
			"target":34962
		},
		{
			"buffer":0,
			"byteLength":18600,
			"byteOffset":18600,
			"target":34962
		},
		{
			"buffer":0,
			"byteLength":12400,
			"byteOffset":37200,
			"target":34962
		},
		{
			"buffer":0,
			"byteLength":8718,
			"byteOffset":49600,
			"target":34963
		},
		{
			"buffer":0,
			"byteLength":20016,
			"byteOffset":58320,
			"target":34962
		},
		{
			"buffer":0,
			"byteLength":20016,
			"byteOffset":78336,
			"target":34962
		},
		{
			"buffer":0,
			"byteLength":13344,
			"byteOffset":98352,
			"target":34962
		},
		{
			"buffer":0,
			"byteLength":7266,
			"byteOffset":111696,
			"target":34963
		},
		{
			"buffer":0,
			"byteLength":14724,
			"byteOffset":118964,
			"target":34962
		},
		{
			"buffer":0,
			"byteLength":14724,
			"byteOffset":133688,
			"target":34962
		},
		{
			"buffer":0,
			"byteLength":9816,
			"byteOffset":148412,
			"target":34962
		},
		{
			"buffer":0,
			"byteLength":5838,
			"byteOffset":158228,
			"target":34963
		},
		{
			"buffer":0,
			"byteLength":1644,
			"byteOffset":164068,
			"target":34962
		},
		{
			"buffer":0,
			"byteLength":1644,
			"byteOffset":165712,
			"target":34962
		},
		{
			"buffer":0,
			"byteLength":1096,
			"byteOffset":167356,
			"target":34962
		},
		{
			"buffer":0,
			"byteLength":438,
			"byteOffset":168452,
			"target":34963
		},
		{
			"buffer":0,
			"byteLength":2304,
			"byteOffset":168892,
			"target":34962
		},
		{
			"buffer":0,
			"byteLength":2304,
			"byteOffset":171196,
			"target":34962
		},
		{
			"buffer":0,
			"byteLength":1536,
			"byteOffset":173500,
			"target":34962
		},
		{
			"buffer":0,
			"byteLength":576,
			"byteOffset":175036,
			"target":34963
		},
		{
			"buffer":0,
			"byteLength":576,
			"byteOffset":175612,
			"target":34962
		},
		{
			"buffer":0,
			"byteLength":576,
			"byteOffset":176188,
			"target":34962
		},
		{
			"buffer":0,
			"byteLength":384,
			"byteOffset":176764,
			"target":34962
		},
		{
			"buffer":0,
			"byteLength":192,
			"byteOffset":177148,
			"target":34963
		},
		{
			"buffer":0,
			"byteLength":2280,
			"byteOffset":177340,
			"target":34962
		},
		{
			"buffer":0,
			"byteLength":2280,
			"byteOffset":179620,
			"target":34962
		},
		{
			"buffer":0,
			"byteLength":1520,
			"byteOffset":181900,
			"target":34962
		},
		{
			"buffer":0,
			"byteLength":612,
			"byteOffset":183420,
			"target":34963
		}
	],
	"buffers":[
		{
			"byteLength":184032,
			"uri":"rst_derm_building6.bin"
		}
	]
}
