{
	"asset":{
		"generator":"Khronos glTF Blender I/O v4.5.48",
		"version":"2.0"
	},
	"scene":0,
	"scenes":[
		{
			"name":"Scene",
			"nodes":[
				0,
				1
			]
		}
	],
	"nodes":[
		{
			"mesh":0,
			"name":"Object"
		},
		{
			"mesh":1,
			"name":"Object.001"
		}
	],
	"materials":[
		{
			"doubleSided":true,
			"name":"mossDirt2",
			"pbrMetallicRoughness":{
				"baseColorFactor":[
					0.800000011920929,
					0.800000011920929,
					0.800000011920929,
					1
				],
				"metallicFactor":0,
				"roughnessFactor":0.5
			}
		},
		{
			"doubleSided":true,
			"name":"grassMix5",
			"pbrMetallicRoughness":{
				"baseColorFactor":[
					0.800000011920929,
					0.800000011920929,
					0.800000011920929,
					1
				],
				"metallicFactor":0,
				"roughnessFactor":0.5
			}
		},
		{
			"doubleSided":true,
			"name":"mossRock3",
			"pbrMetallicRoughness":{
				"baseColorFactor":[
					0.800000011920929,
					0.800000011920929,
					0.800000011920929,
					1
				],
				"metallicFactor":0,
				"roughnessFactor":0.5
			}
		},
		{
			"doubleSided":true,
			"name":"mossDirt2.001",
			"pbrMetallicRoughness":{
				"baseColorFactor":[
					0.800000011920929,
					0.800000011920929,
					0.800000011920929,
					1
				],
				"metallicFactor":0,
				"roughnessFactor":0.5
			}
		},
		{
			"doubleSided":true,
			"name":"grassMix5.001",
			"pbrMetallicRoughness":{
				"baseColorFactor":[
					0.800000011920929,
					0.800000011920929,
					0.800000011920929,
					1
				],
				"metallicFactor":0,
				"roughnessFactor":0.5
			}
		}
	],
	"meshes":[
		{
			"name":"Mesh",
			"primitives":[
				{
					"attributes":{
						"POSITION":0,
						"NORMAL":1,
						"TEXCOORD_0":2
					},
					"indices":3,
					"material":0
				},
				{
					"attributes":{
						"POSITION":4,
						"NORMAL":5,
						"TEXCOORD_0":6
					},
					"indices":7,
					"material":1
				},
				{
					"attributes":{
						"POSITION":8,
						"NORMAL":9,
						"TEXCOORD_0":10
					},
					"indices":11,
					"material":2
				}
			]
		},
		{
			"name":"Mesh.001",
			"primitives":[
				{
					"attributes":{
						"POSITION":12,
						"NORMAL":13,
						"TEXCOORD_0":14
					},
					"indices":15,
					"material":3
				},
				{
					"attributes":{
						"POSITION":16,
						"NORMAL":17,
						"TEXCOORD_0":18
					},
					"indices":19,
					"material":4
				}
			]
		}
	],
	"accessors":[
		{
			"bufferView":0,
			"componentType":5126,
			"count":294,
			"max":[
				32.5,
				0.5,
				35.5
			],
			"min":[
				-33.5,
				-37.5,
				-34
			],
			"type":"VEC3"
		},
		{
			"bufferView":1,
			"componentType":5126,
			"count":294,
			"type":"VEC3"
		},
		{
			"bufferView":2,
			"componentType":5126,
			"count":294,
			"type":"VEC2"
		},
		{
			"bufferView":3,
			"componentType":5123,
			"count":294,
			"type":"SCALAR"
		},
		{
			"bufferView":4,
			"componentType":5126,
			"count":72,
			"max":[
				30.5,
				0.5,
				32.5
			],
			"min":[
				-31.5,
				-0.5,
				-31
			],
			"type":"VEC3"
		},
		{
			"bufferView":5,
			"componentType":5126,
			"count":72,
			"type":"VEC3"
		},
		{
			"bufferView":6,
			"componentType":5126,
			"count":72,
			"type":"VEC2"
		},
		{
			"bufferView":7,
			"componentType":5123,
			"count":72,
			"type":"SCALAR"
		},
		{
			"bufferView":8,
			"componentType":5126,
			"count":84,
			"max":[
				32.5,
				0.5,
				35
			],
			"min":[
				-33.5,
				-1.5,
				-33.5
			],
			"type":"VEC3"
		},
		{
			"bufferView":9,
			"componentType":5126,
			"count":84,
			"type":"VEC3"
		},
		{
			"bufferView":10,
			"componentType":5126,
			"count":84,
			"type":"VEC2"
		},
		{
			"bufferView":11,
			"componentType":5123,
			"count":84,
			"type":"SCALAR"
		},
		{
			"bufferView":12,
			"componentType":5126,
			"count":228,
			"max":[
				32.5,
				0.5,
				35.5
			],
			"min":[
				-33.5,
				-37.5,
				-34
			],
			"type":"VEC3"
		},
		{
			"bufferView":13,
			"componentType":5126,
			"count":228,
			"type":"VEC3"
		},
		{
			"bufferView":14,
			"componentType":5126,
			"count":228,
			"type":"VEC2"
		},
		{
			"bufferView":15,
			"componentType":5123,
			"count":228,
			"type":"SCALAR"
		},
		{
			"bufferView":16,
			"componentType":5126,
			"count":36,
			"max":[
				32.5,
				0.5,
				35
			],
			"min":[
				-33.5,
				-1.5,
				-33.5
			],
			"type":"VEC3"
		},
		{
			"bufferView":17,
			"componentType":5126,
			"count":36,
			"type":"VEC3"
		},
		{
			"bufferView":18,
			"componentType":5126,
			"count":36,
			"type":"VEC2"
		},
		{
			"bufferView":19,
			"componentType":5123,
			"count":36,
			"type":"SCALAR"
		}
	],
	"bufferViews":[
		{
			"buffer":0,
			"byteLength":3528,
			"byteOffset":0,
			"target":34962
		},
		{
			"buffer":0,
			"byteLength":3528,
			"byteOffset":3528,
			"target":34962
		},
		{
			"buffer":0,
			"byteLength":2352,
			"byteOffset":7056,
			"target":34962
		},
		{
			"buffer":0,
			"byteLength":588,
			"byteOffset":9408,
			"target":34963
		},
		{
			"buffer":0,
			"byteLength":864,
			"byteOffset":9996,
			"target":34962
		},
		{
			"buffer":0,
			"byteLength":864,
			"byteOffset":10860,
			"target":34962
		},
		{
			"buffer":0,
			"byteLength":576,
			"byteOffset":11724,
			"target":34962
		},
		{
			"buffer":0,
			"byteLength":144,
			"byteOffset":12300,
			"target":34963
		},
		{
			"buffer":0,
			"byteLength":1008,
			"byteOffset":12444,
			"target":34962
		},
		{
			"buffer":0,
			"byteLength":1008,
			"byteOffset":13452,
			"target":34962
		},
		{
			"buffer":0,
			"byteLength":672,
			"byteOffset":14460,
			"target":34962
		},
		{
			"buffer":0,
			"byteLength":168,
			"byteOffset":15132,
			"target":34963
		},
		{
			"buffer":0,
			"byteLength":2736,
			"byteOffset":15300,
			"target":34962
		},
		{
			"buffer":0,
			"byteLength":2736,
			"byteOffset":18036,
			"target":34962
		},
		{
			"buffer":0,
			"byteLength":1824,
			"byteOffset":20772,
			"target":34962
		},
		{
			"buffer":0,
			"byteLength":456,
			"byteOffset":22596,
			"target":34963
		},
		{
			"buffer":0,
			"byteLength":432,
			"byteOffset":23052,
			"target":34962
		},
		{
			"buffer":0,
			"byteLength":432,
			"byteOffset":23484,
			"target":34962
		},
		{
			"buffer":0,
			"byteLength":288,
			"byteOffset":23916,
			"target":34962
		},
		{
			"buffer":0,
			"byteLength":72,
			"byteOffset":24204,
			"target":34963
		}
	],
	"buffers":[
		{
			"byteLength":24276,
			"uri":"rst_lush_floatingisle3.bin"
		}
	]
}
