{
	"asset":{
		"generator":"Khronos glTF Blender I/O v4.5.48",
		"version":"2.0"
	},
	"scene":0,
	"scenes":[
		{
			"name":"Scene",
			"nodes":[
				0,
				1,
				2
			]
		}
	],
	"nodes":[
		{
			"mesh":0,
			"name":"Object"
		},
		{
			"mesh":1,
			"name":"Object.001"
		},
		{
			"mesh":2,
			"name":"Object.002"
		}
	],
	"materials":[
		{
			"doubleSided":true,
			"name":"grassMix5",
			"pbrMetallicRoughness":{
				"baseColorFactor":[
					0.800000011920929,
					0.800000011920929,
					0.800000011920929,
					1
				],
				"metallicFactor":0,
				"roughnessFactor":0.5
			}
		},
		{
			"doubleSided":true,
			"name":"mossDirt2",
			"pbrMetallicRoughness":{
				"baseColorFactor":[
					0.800000011920929,
					0.800000011920929,
					0.800000011920929,
					1
				],
				"metallicFactor":0,
				"roughnessFactor":0.5
			}
		},
		{
			"doubleSided":true,
			"name":"mossRock3",
			"pbrMetallicRoughness":{
				"baseColorFactor":[
					0.800000011920929,
					0.800000011920929,
					0.800000011920929,
					1
				],
				"metallicFactor":0,
				"roughnessFactor":0.5
			}
		},
		{
			"doubleSided":true,
			"name":"grassMix5.001",
			"pbrMetallicRoughness":{
				"baseColorFactor":[
					0.800000011920929,
					0.800000011920929,
					0.800000011920929,
					1
				],
				"metallicFactor":0,
				"roughnessFactor":0.5
			}
		},
		{
			"doubleSided":true,
			"name":"mossDirt2.001",
			"pbrMetallicRoughness":{
				"baseColorFactor":[
					0.800000011920929,
					0.800000011920929,
					0.800000011920929,
					1
				],
				"metallicFactor":0,
				"roughnessFactor":0.5
			}
		},
		{
			"doubleSided":true,
			"name":"mossRock3.001",
			"pbrMetallicRoughness":{
				"baseColorFactor":[
					0.800000011920929,
					0.800000011920929,
					0.800000011920929,
					1
				],
				"metallicFactor":0,
				"roughnessFactor":0.5
			}
		},
		{
			"doubleSided":true,
			"name":"grassMix5.002",
			"pbrMetallicRoughness":{
				"baseColorFactor":[
					0.800000011920929,
					0.800000011920929,
					0.800000011920929,
					1
				],
				"metallicFactor":0,
				"roughnessFactor":0.5
			}
		},
		{
			"doubleSided":true,
			"name":"mossDirt2.002",
			"pbrMetallicRoughness":{
				"baseColorFactor":[
					0.800000011920929,
					0.800000011920929,
					0.800000011920929,
					1
				],
				"metallicFactor":0,
				"roughnessFactor":0.5
			}
		}
	],
	"meshes":[
		{
			"name":"Mesh",
			"primitives":[
				{
					"attributes":{
						"POSITION":0,
						"NORMAL":1,
						"TEXCOORD_0":2
					},
					"indices":3,
					"material":0
				},
				{
					"attributes":{
						"POSITION":4,
						"NORMAL":5,
						"TEXCOORD_0":6
					},
					"indices":7,
					"material":1
				},
				{
					"attributes":{
						"POSITION":8,
						"NORMAL":9,
						"TEXCOORD_0":10
					},
					"indices":11,
					"material":2
				}
			]
		},
		{
			"name":"Mesh.001",
			"primitives":[
				{
					"attributes":{
						"POSITION":12,
						"NORMAL":13,
						"TEXCOORD_0":14
					},
					"indices":15,
					"material":3
				},
				{
					"attributes":{
						"POSITION":16,
						"NORMAL":17,
						"TEXCOORD_0":18
					},
					"indices":19,
					"material":4
				},
				{
					"attributes":{
						"POSITION":20,
						"NORMAL":21,
						"TEXCOORD_0":22
					},
					"indices":23,
					"material":5
				}
			]
		},
		{
			"name":"Mesh.002",
			"primitives":[
				{
					"attributes":{
						"POSITION":24,
						"NORMAL":25,
						"TEXCOORD_0":26
					},
					"indices":27,
					"material":6
				},
				{
					"attributes":{
						"POSITION":28,
						"NORMAL":29,
						"TEXCOORD_0":30
					},
					"indices":31,
					"material":7
				}
			]
		}
	],
	"accessors":[
		{
			"bufferView":0,
			"componentType":5126,
			"count":735,
			"max":[
				236,
				40,
				225
			],
			"min":[
				-229,
				-34,
				-220
			],
			"type":"VEC3"
		},
		{
			"bufferView":1,
			"componentType":5126,
			"count":735,
			"type":"VEC3"
		},
		{
			"bufferView":2,
			"componentType":5126,
			"count":735,
			"type":"VEC2"
		},
		{
			"bufferView":3,
			"componentType":5123,
			"count":735,
			"type":"SCALAR"
		},
		{
			"bufferView":4,
			"componentType":5126,
			"count":813,
			"max":[
				238,
				39,
				226
			],
			"min":[
				-230,
				-167,
				-222
			],
			"type":"VEC3"
		},
		{
			"bufferView":5,
			"componentType":5126,
			"count":813,
			"type":"VEC3"
		},
		{
			"bufferView":6,
			"componentType":5126,
			"count":813,
			"type":"VEC2"
		},
		{
			"bufferView":7,
			"componentType":5123,
			"count":813,
			"type":"SCALAR"
		},
		{
			"bufferView":8,
			"componentType":5126,
			"count":173,
			"max":[
				238,
				-29,
				226
			],
			"min":[
				-230,
				-37,
				-222
			],
			"type":"VEC3"
		},
		{
			"bufferView":9,
			"componentType":5126,
			"count":173,
			"type":"VEC3"
		},
		{
			"bufferView":10,
			"componentType":5126,
			"count":173,
			"type":"VEC2"
		},
		{
			"bufferView":11,
			"componentType":5123,
			"count":174,
			"type":"SCALAR"
		},
		{
			"bufferView":12,
			"componentType":5126,
			"count":390,
			"max":[
				238,
				40,
				226
			],
			"min":[
				-230,
				-37,
				-222
			],
			"type":"VEC3"
		},
		{
			"bufferView":13,
			"componentType":5126,
			"count":390,
			"type":"VEC3"
		},
		{
			"bufferView":14,
			"componentType":5126,
			"count":390,
			"type":"VEC2"
		},
		{
			"bufferView":15,
			"componentType":5123,
			"count":390,
			"type":"SCALAR"
		},
		{
			"bufferView":16,
			"componentType":5126,
			"count":630,
			"max":[
				238,
				39,
				226
			],
			"min":[
				-230,
				-167,
				-222
			],
			"type":"VEC3"
		},
		{
			"bufferView":17,
			"componentType":5126,
			"count":630,
			"type":"VEC3"
		},
		{
			"bufferView":18,
			"componentType":5126,
			"count":630,
			"type":"VEC2"
		},
		{
			"bufferView":19,
			"componentType":5123,
			"count":630,
			"type":"SCALAR"
		},
		{
			"bufferView":20,
			"componentType":5126,
			"count":6,
			"max":[
				55,
				-31,
				147
			],
			"min":[
				19,
				-35,
				87
			],
			"type":"VEC3"
		},
		{
			"bufferView":21,
			"componentType":5126,
			"count":6,
			"type":"VEC3"
		},
		{
			"bufferView":22,
			"componentType":5126,
			"count":6,
			"type":"VEC2"
		},
		{
			"bufferView":23,
			"componentType":5123,
			"count":6,
			"type":"SCALAR"
		},
		{
			"bufferView":24,
			"componentType":5126,
			"count":261,
			"max":[
				238,
				39,
				226
			],
			"min":[
				-230,
				-37,
				-222
			],
			"type":"VEC3"
		},
		{
			"bufferView":25,
			"componentType":5126,
			"count":261,
			"type":"VEC3"
		},
		{
			"bufferView":26,
			"componentType":5126,
			"count":261,
			"type":"VEC2"
		},
		{
			"bufferView":27,
			"componentType":5123,
			"count":276,
			"type":"SCALAR"
		},
		{
			"bufferView":28,
			"componentType":5126,
			"count":357,
			"max":[
				238,
				39,
				226
			],
			"min":[
				-230,
				-167,
				-222
			],
			"type":"VEC3"
		},
		{
			"bufferView":29,
			"componentType":5126,
			"count":357,
			"type":"VEC3"
		},
		{
			"bufferView":30,
			"componentType":5126,
			"count":357,
			"type":"VEC2"
		},
		{
			"bufferView":31,
			"componentType":5123,
			"count":357,
			"type":"SCALAR"
		}
	],
	"bufferViews":[
		{
			"buffer":0,
			"byteLength":8820,
			"byteOffset":0,
			"target":34962
		},
		{
			"buffer":0,
			"byteLength":8820,
			"byteOffset":8820,
			"target":34962
		},
		{
			"buffer":0,
			"byteLength":5880,
			"byteOffset":17640,
			"target":34962
		},
		{
			"buffer":0,
			"byteLength":1470,
			"byteOffset":23520,
			"target":34963
		},
		{
			"buffer":0,
			"byteLength":9756,
			"byteOffset":24992,
			"target":34962
		},
		{
			"buffer":0,
			"byteLength":9756,
			"byteOffset":34748,
			"target":34962
		},
		{
			"buffer":0,
			"byteLength":6504,
			"byteOffset":44504,
			"target":34962
		},
		{
			"buffer":0,
			"byteLength":1626,
			"byteOffset":51008,
			"target":34963
		},
		{
			"buffer":0,
			"byteLength":2076,
			"byteOffset":52636,
			"target":34962
		},
		{
			"buffer":0,
			"byteLength":2076,
			"byteOffset":54712,
			"target":34962
		},
		{
			"buffer":0,
			"byteLength":1384,
			"byteOffset":56788,
			"target":34962
		},
		{
			"buffer":0,
			"byteLength":348,
			"byteOffset":58172,
			"target":34963
		},
		{
			"buffer":0,
			"byteLength":4680,
			"byteOffset":58520,
			"target":34962
		},
		{
			"buffer":0,
			"byteLength":4680,
			"byteOffset":63200,
			"target":34962
		},
		{
			"buffer":0,
			"byteLength":3120,
			"byteOffset":67880,
			"target":34962
		},
		{
			"buffer":0,
			"byteLength":780,
			"byteOffset":71000,
			"target":34963
		},
		{
			"buffer":0,
			"byteLength":7560,
			"byteOffset":71780,
			"target":34962
		},
		{
			"buffer":0,
			"byteLength":7560,
			"byteOffset":79340,
			"target":34962
		},
		{
			"buffer":0,
			"byteLength":5040,
			"byteOffset":86900,
			"target":34962
		},
		{
			"buffer":0,
			"byteLength":1260,
			"byteOffset":91940,
			"target":34963
		},
		{
			"buffer":0,
			"byteLength":72,
			"byteOffset":93200,
			"target":34962
		},
		{
			"buffer":0,
			"byteLength":72,
			"byteOffset":93272,
			"target":34962
		},
		{
			"buffer":0,
			"byteLength":48,
			"byteOffset":93344,
			"target":34962
		},
		{
			"buffer":0,
			"byteLength":12,
			"byteOffset":93392,
			"target":34963
		},
		{
			"buffer":0,
			"byteLength":3132,
			"byteOffset":93404,
			"target":34962
		},
		{
			"buffer":0,
			"byteLength":3132,
			"byteOffset":96536,
			"target":34962
		},
		{
			"buffer":0,
			"byteLength":2088,
			"byteOffset":99668,
			"target":34962
		},
		{
			"buffer":0,
			"byteLength":552,
			"byteOffset":101756,
			"target":34963
		},
		{
			"buffer":0,
			"byteLength":4284,
			"byteOffset":102308,
			"target":34962
		},
		{
			"buffer":0,
			"byteLength":4284,
			"byteOffset":106592,
			"target":34962
		},
		{
			"buffer":0,
			"byteLength":2856,
			"byteOffset":110876,
			"target":34962
		},
		{
			"buffer":0,
			"byteLength":714,
			"byteOffset":113732,
			"target":34963
		}
	],
	"buffers":[
		{
			"byteLength":114448,
			"uri":"rst_lush_floatingisle10.bin"
		}
	]
}
