{
	"asset":{
		"generator":"Khronos glTF Blender I/O v4.5.48",
		"version":"2.0"
	},
	"scene":0,
	"scenes":[
		{
			"name":"Scene",
			"nodes":[
				0
			]
		}
	],
	"nodes":[
		{
			"mesh":0,
			"name":"Object"
		}
	],
	"materials":[
		{
			"doubleSided":true,
			"name":"BE_EWAL07",
			"pbrMetallicRoughness":{
				"baseColorFactor":[
					0.800000011920929,
					0.800000011920929,
					0.800000011920929,
					1
				],
				"metallicFactor":0,
				"roughnessFactor":0.5
			}
		},
		{
			"doubleSided":true,
			"name":"BE_ITEWAL02",
			"pbrMetallicRoughness":{
				"baseColorFactor":[
					0.800000011920929,
					0.800000011920929,
					0.800000011920929,
					1
				],
				"metallicFactor":0,
				"roughnessFactor":0.5
			}
		},
		{
			"doubleSided":true,
			"name":"BE_ITEWAL01",
			"pbrMetallicRoughness":{
				"baseColorFactor":[
					0.800000011920929,
					0.800000011920929,
					0.800000011920929,
					1
				],
				"metallicFactor":0,
				"roughnessFactor":0.5
			}
		},
		{
			"doubleSided":true,
			"name":"BE_ICEI03B",
			"pbrMetallicRoughness":{
				"baseColorFactor":[
					0.800000011920929,
					0.800000011920929,
					0.800000011920929,
					1
				],
				"metallicFactor":0,
				"roughnessFactor":0.5
			}
		},
		{
			"doubleSided":true,
			"name":"BE_ICOLIGOLA",
			"pbrMetallicRoughness":{
				"baseColorFactor":[
					0.800000011920929,
					0.800000011920929,
					0.800000011920929,
					1
				],
				"metallicFactor":0,
				"roughnessFactor":0.5
			}
		}
	],
	"meshes":[
		{
			"name":"Mesh",
			"primitives":[
				{
					"attributes":{
						"POSITION":0,
						"NORMAL":1,
						"TEXCOORD_0":2
					},
					"indices":3,
					"material":0
				},
				{
					"attributes":{
						"POSITION":4,
						"NORMAL":5,
						"TEXCOORD_0":6
					},
					"indices":7,
					"material":1
				},
				{
					"attributes":{
						"POSITION":8,
						"NORMAL":9,
						"TEXCOORD_0":10
					},
					"indices":11,
					"material":2
				},
				{
					"attributes":{
						"POSITION":12,
						"NORMAL":13,
						"TEXCOORD_0":14
					},
					"indices":15,
					"material":3
				},
				{
					"attributes":{
						"POSITION":16,
						"NORMAL":17,
						"TEXCOORD_0":18
					},
					"indices":19,
					"material":4
				}
			]
		}
	],
	"accessors":[
		{
			"bufferView":0,
			"componentType":5126,
			"count":242,
			"max":[
				3.96875,
				0.75,
				4
			],
			"min":[
				-4,
				-0.5,
				-3.96875
			],
			"type":"VEC3"
		},
		{
			"bufferView":1,
			"componentType":5126,
			"count":242,
			"type":"VEC3"
		},
		{
			"bufferView":2,
			"componentType":5126,
			"count":242,
			"type":"VEC2"
		},
		{
			"bufferView":3,
			"componentType":5123,
			"count":615,
			"type":"SCALAR"
		},
		{
			"bufferView":4,
			"componentType":5126,
			"count":231,
			"max":[
				3.96875,
				0.75,
				4
			],
			"min":[
				-4,
				-1.25,
				-3.96875
			],
			"type":"VEC3"
		},
		{
			"bufferView":5,
			"componentType":5126,
			"count":231,
			"type":"VEC3"
		},
		{
			"bufferView":6,
			"componentType":5126,
			"count":231,
			"type":"VEC2"
		},
		{
			"bufferView":7,
			"componentType":5123,
			"count":405,
			"type":"SCALAR"
		},
		{
			"bufferView":8,
			"componentType":5126,
			"count":8,
			"max":[
				2.46875,
				0.125,
				2.46875
			],
			"min":[
				-2.46875,
				0.125,
				-2.46875
			],
			"type":"VEC3"
		},
		{
			"bufferView":9,
			"componentType":5126,
			"count":8,
			"type":"VEC3"
		},
		{
			"bufferView":10,
			"componentType":5126,
			"count":8,
			"type":"VEC2"
		},
		{
			"bufferView":11,
			"componentType":5123,
			"count":18,
			"type":"SCALAR"
		},
		{
			"bufferView":12,
			"componentType":5126,
			"count":24,
			"max":[
				2.09375,
				0.75,
				2.09375
			],
			"min":[
				-2.09375,
				0.25,
				-2.09375
			],
			"type":"VEC3"
		},
		{
			"bufferView":13,
			"componentType":5126,
			"count":24,
			"type":"VEC3"
		},
		{
			"bufferView":14,
			"componentType":5126,
			"count":24,
			"type":"VEC2"
		},
		{
			"bufferView":15,
			"componentType":5123,
			"count":24,
			"type":"SCALAR"
		},
		{
			"bufferView":16,
			"componentType":5126,
			"count":88,
			"max":[
				2.09375,
				0.8125,
				2.09375
			],
			"min":[
				-2.09375,
				0.75,
				-2.09375
			],
			"type":"VEC3"
		},
		{
			"bufferView":17,
			"componentType":5126,
			"count":88,
			"type":"VEC3"
		},
		{
			"bufferView":18,
			"componentType":5126,
			"count":88,
			"type":"VEC2"
		},
		{
			"bufferView":19,
			"componentType":5123,
			"count":144,
			"type":"SCALAR"
		}
	],
	"bufferViews":[
		{
			"buffer":0,
			"byteLength":2904,
			"byteOffset":0,
			"target":34962
		},
		{
			"buffer":0,
			"byteLength":2904,
			"byteOffset":2904,
			"target":34962
		},
		{
			"buffer":0,
			"byteLength":1936,
			"byteOffset":5808,
			"target":34962
		},
		{
			"buffer":0,
			"byteLength":1230,
			"byteOffset":7744,
			"target":34963
		},
		{
			"buffer":0,
			"byteLength":2772,
			"byteOffset":8976,
			"target":34962
		},
		{
			"buffer":0,
			"byteLength":2772,
			"byteOffset":11748,
			"target":34962
		},
		{
			"buffer":0,
			"byteLength":1848,
			"byteOffset":14520,
			"target":34962
		},
		{
			"buffer":0,
			"byteLength":810,
			"byteOffset":16368,
			"target":34963
		},
		{
			"buffer":0,
			"byteLength":96,
			"byteOffset":17180,
			"target":34962
		},
		{
			"buffer":0,
			"byteLength":96,
			"byteOffset":17276,
			"target":34962
		},
		{
			"buffer":0,
			"byteLength":64,
			"byteOffset":17372,
			"target":34962
		},
		{
			"buffer":0,
			"byteLength":36,
			"byteOffset":17436,
			"target":34963
		},
		{
			"buffer":0,
			"byteLength":288,
			"byteOffset":17472,
			"target":34962
		},
		{
			"buffer":0,
			"byteLength":288,
			"byteOffset":17760,
			"target":34962
		},
		{
			"buffer":0,
			"byteLength":192,
			"byteOffset":18048,
			"target":34962
		},
		{
			"buffer":0,
			"byteLength":48,
			"byteOffset":18240,
			"target":34963
		},
		{
			"buffer":0,
			"byteLength":1056,
			"byteOffset":18288,
			"target":34962
		},
		{
			"buffer":0,
			"byteLength":1056,
			"byteOffset":19344,
			"target":34962
		},
		{
			"buffer":0,
			"byteLength":704,
			"byteOffset":20400,
			"target":34962
		},
		{
			"buffer":0,
			"byteLength":288,
			"byteOffset":21104,
			"target":34963
		}
	],
	"buffers":[
		{
			"byteLength":21392,
			"uri":"rst_padbottom2.bin"
		}
	]
}
