{
	"asset":{
		"generator":"Khronos glTF Blender I/O v4.5.48",
		"version":"2.0"
	},
	"scene":0,
	"scenes":[
		{
			"name":"Scene",
			"nodes":[
				0
			]
		}
	],
	"nodes":[
		{
			"mesh":0,
			"name":"Object"
		}
	],
	"materials":[
		{
			"doubleSided":true,
			"name":"SW_IWAL03",
			"pbrMetallicRoughness":{
				"baseColorFactor":[
					0.800000011920929,
					0.800000011920929,
					0.800000011920929,
					1
				],
				"metallicFactor":0,
				"roughnessFactor":0.5
			}
		},
		{
			"doubleSided":true,
			"name":"SW_EWAL06B",
			"pbrMetallicRoughness":{
				"baseColorFactor":[
					0.800000011920929,
					0.800000011920929,
					0.800000011920929,
					1
				],
				"metallicFactor":0,
				"roughnessFactor":0.5
			}
		},
		{
			"doubleSided":true,
			"name":"SW_IFLOOR01B",
			"pbrMetallicRoughness":{
				"baseColorFactor":[
					0.800000011920929,
					0.800000011920929,
					0.800000011920929,
					1
				],
				"metallicFactor":0,
				"roughnessFactor":0.5
			}
		},
		{
			"doubleSided":true,
			"name":"SW_IPIPE02",
			"pbrMetallicRoughness":{
				"baseColorFactor":[
					0.800000011920929,
					0.800000011920929,
					0.800000011920929,
					1
				],
				"metallicFactor":0,
				"roughnessFactor":0.5
			}
		},
		{
			"doubleSided":true,
			"name":"SW_FLOORGRATE",
			"pbrMetallicRoughness":{
				"baseColorFactor":[
					0.800000011920929,
					0.800000011920929,
					0.800000011920929,
					1
				],
				"metallicFactor":0,
				"roughnessFactor":0.5
			}
		},
		{
			"doubleSided":true,
			"name":"SW_IBOR01",
			"pbrMetallicRoughness":{
				"baseColorFactor":[
					0.800000011920929,
					0.800000011920929,
					0.800000011920929,
					1
				],
				"metallicFactor":0,
				"roughnessFactor":0.5
			}
		},
		{
			"doubleSided":true,
			"name":"SW_IWAL02",
			"pbrMetallicRoughness":{
				"baseColorFactor":[
					0.800000011920929,
					0.800000011920929,
					0.800000011920929,
					1
				],
				"metallicFactor":0,
				"roughnessFactor":0.5
			}
		},
		{
			"doubleSided":true,
			"name":"SW_EDOOR02",
			"pbrMetallicRoughness":{
				"baseColorFactor":[
					0.800000011920929,
					0.800000011920929,
					0.800000011920929,
					1
				],
				"metallicFactor":0,
				"roughnessFactor":0.5
			}
		},
		{
			"doubleSided":true,
			"name":"SW_IWAL01",
			"pbrMetallicRoughness":{
				"baseColorFactor":[
					0.800000011920929,
					0.800000011920929,
					0.800000011920929,
					1
				],
				"metallicFactor":0,
				"roughnessFactor":0.5
			}
		},
		{
			"doubleSided":true,
			"name":"SW_EBOR01",
			"pbrMetallicRoughness":{
				"baseColorFactor":[
					0.800000011920929,
					0.800000011920929,
					0.800000011920929,
					1
				],
				"metallicFactor":0,
				"roughnessFactor":0.5
			}
		},
		{
			"doubleSided":true,
			"name":"SW_ESPEC02",
			"pbrMetallicRoughness":{
				"baseColorFactor":[
					0.800000011920929,
					0.800000011920929,
					0.800000011920929,
					1
				],
				"metallicFactor":0,
				"roughnessFactor":0.5
			}
		},
		{
			"doubleSided":true,
			"name":"SW_ESPEC01",
			"pbrMetallicRoughness":{
				"baseColorFactor":[
					0.800000011920929,
					0.800000011920929,
					0.800000011920929,
					1
				],
				"metallicFactor":0,
				"roughnessFactor":0.5
			}
		},
		{
			"doubleSided":true,
			"name":"SW_IPIPE01A",
			"pbrMetallicRoughness":{
				"baseColorFactor":[
					0.800000011920929,
					0.800000011920929,
					0.800000011920929,
					1
				],
				"metallicFactor":0,
				"roughnessFactor":0.5
			}
		},
		{
			"doubleSided":true,
			"name":"SW_ICOL01A",
			"pbrMetallicRoughness":{
				"baseColorFactor":[
					0.800000011920929,
					0.800000011920929,
					0.800000011920929,
					1
				],
				"metallicFactor":0,
				"roughnessFactor":0.5
			}
		},
		{
			"doubleSided":true,
			"name":"SW_THRESH01ON",
			"pbrMetallicRoughness":{
				"baseColorFactor":[
					0.800000011920929,
					0.800000011920929,
					0.800000011920929,
					1
				],
				"metallicFactor":0,
				"roughnessFactor":0.5
			}
		},
		{
			"doubleSided":true,
			"name":"SW_IFLOOR01",
			"pbrMetallicRoughness":{
				"baseColorFactor":[
					0.800000011920929,
					0.800000011920929,
					0.800000011920929,
					1
				],
				"metallicFactor":0,
				"roughnessFactor":0.5
			}
		},
		{
			"doubleSided":true,
			"name":"SW_IBORLIG01",
			"pbrMetallicRoughness":{
				"baseColorFactor":[
					0.800000011920929,
					0.800000011920929,
					0.800000011920929,
					1
				],
				"metallicFactor":0,
				"roughnessFactor":0.5
			}
		},
		{
			"doubleSided":true,
			"name":"SW_EDOOR03",
			"pbrMetallicRoughness":{
				"baseColorFactor":[
					0.800000011920929,
					0.800000011920929,
					0.800000011920929,
					1
				],
				"metallicFactor":0,
				"roughnessFactor":0.5
			}
		},
		{
			"doubleSided":true,
			"name":"SW_ICOLIGOLA",
			"pbrMetallicRoughness":{
				"baseColorFactor":[
					0.800000011920929,
					0.800000011920929,
					0.800000011920929,
					1
				],
				"metallicFactor":0,
				"roughnessFactor":0.5
			}
		}
	],
	"meshes":[
		{
			"name":"Mesh",
			"primitives":[
				{
					"attributes":{
						"POSITION":0,
						"NORMAL":1,
						"TEXCOORD_0":2
					},
					"indices":3,
					"material":0
				},
				{
					"attributes":{
						"POSITION":4,
						"NORMAL":5,
						"TEXCOORD_0":6
					},
					"indices":7,
					"material":1
				},
				{
					"attributes":{
						"POSITION":8,
						"NORMAL":9,
						"TEXCOORD_0":10
					},
					"indices":11,
					"material":2
				},
				{
					"attributes":{
						"POSITION":12,
						"NORMAL":13,
						"TEXCOORD_0":14
					},
					"indices":15,
					"material":3
				},
				{
					"attributes":{
						"POSITION":16,
						"NORMAL":17,
						"TEXCOORD_0":18
					},
					"indices":19,
					"material":4
				},
				{
					"attributes":{
						"POSITION":20,
						"NORMAL":21,
						"TEXCOORD_0":22
					},
					"indices":23,
					"material":5
				},
				{
					"attributes":{
						"POSITION":24,
						"NORMAL":25,
						"TEXCOORD_0":26
					},
					"indices":27,
					"material":6
				},
				{
					"attributes":{
						"POSITION":28,
						"NORMAL":29,
						"TEXCOORD_0":30
					},
					"indices":31,
					"material":7
				},
				{
					"attributes":{
						"POSITION":32,
						"NORMAL":33,
						"TEXCOORD_0":34
					},
					"indices":35,
					"material":8
				},
				{
					"attributes":{
						"POSITION":36,
						"NORMAL":37,
						"TEXCOORD_0":38
					},
					"indices":39,
					"material":9
				},
				{
					"attributes":{
						"POSITION":40,
						"NORMAL":41,
						"TEXCOORD_0":42
					},
					"indices":43,
					"material":10
				},
				{
					"attributes":{
						"POSITION":44,
						"NORMAL":45,
						"TEXCOORD_0":46
					},
					"indices":47,
					"material":11
				},
				{
					"attributes":{
						"POSITION":48,
						"NORMAL":49,
						"TEXCOORD_0":50
					},
					"indices":51,
					"material":12
				},
				{
					"attributes":{
						"POSITION":52,
						"NORMAL":53,
						"TEXCOORD_0":54
					},
					"indices":55,
					"material":13
				},
				{
					"attributes":{
						"POSITION":56,
						"NORMAL":57,
						"TEXCOORD_0":58
					},
					"indices":59,
					"material":14
				},
				{
					"attributes":{
						"POSITION":60,
						"NORMAL":61,
						"TEXCOORD_0":62
					},
					"indices":63,
					"material":15
				},
				{
					"attributes":{
						"POSITION":64,
						"NORMAL":65,
						"TEXCOORD_0":66
					},
					"indices":67,
					"material":16
				},
				{
					"attributes":{
						"POSITION":68,
						"NORMAL":69,
						"TEXCOORD_0":70
					},
					"indices":71,
					"material":17
				},
				{
					"attributes":{
						"POSITION":72,
						"NORMAL":73,
						"TEXCOORD_0":74
					},
					"indices":75,
					"material":18
				}
			]
		}
	],
	"accessors":[
		{
			"bufferView":0,
			"componentType":5126,
			"count":486,
			"max":[
				18,
				-19,
				20
			],
			"min":[
				-18,
				-72,
				-20
			],
			"type":"VEC3"
		},
		{
			"bufferView":1,
			"componentType":5126,
			"count":486,
			"type":"VEC3"
		},
		{
			"bufferView":2,
			"componentType":5126,
			"count":486,
			"type":"VEC2"
		},
		{
			"bufferView":3,
			"componentType":5123,
			"count":1296,
			"type":"SCALAR"
		},
		{
			"bufferView":4,
			"componentType":5126,
			"count":201,
			"max":[
				10,
				-21,
				14
			],
			"min":[
				-10,
				-37.5,
				-14
			],
			"type":"VEC3"
		},
		{
			"bufferView":5,
			"componentType":5126,
			"count":201,
			"type":"VEC3"
		},
		{
			"bufferView":6,
			"componentType":5126,
			"count":201,
			"type":"VEC2"
		},
		{
			"bufferView":7,
			"componentType":5123,
			"count":483,
			"type":"SCALAR"
		},
		{
			"bufferView":8,
			"componentType":5126,
			"count":14,
			"max":[
				10,
				-19.5,
				14
			],
			"min":[
				-10,
				-19.5,
				-14
			],
			"type":"VEC3"
		},
		{
			"bufferView":9,
			"componentType":5126,
			"count":14,
			"type":"VEC3"
		},
		{
			"bufferView":10,
			"componentType":5126,
			"count":14,
			"type":"VEC2"
		},
		{
			"bufferView":11,
			"componentType":5123,
			"count":42,
			"type":"SCALAR"
		},
		{
			"bufferView":12,
			"componentType":5126,
			"count":246,
			"max":[
				11.5,
				-25.5,
				6
			],
			"min":[
				-11.5,
				-37.5,
				-6
			],
			"type":"VEC3"
		},
		{
			"bufferView":13,
			"componentType":5126,
			"count":246,
			"type":"VEC3"
		},
		{
			"bufferView":14,
			"componentType":5126,
			"count":246,
			"type":"VEC2"
		},
		{
			"bufferView":15,
			"componentType":5123,
			"count":402,
			"type":"SCALAR"
		},
		{
			"bufferView":16,
			"componentType":5126,
			"count":88,
			"max":[
				18,
				-25,
				14
			],
			"min":[
				-18,
				-37.5,
				-14
			],
			"type":"VEC3"
		},
		{
			"bufferView":17,
			"componentType":5126,
			"count":88,
			"type":"VEC3"
		},
		{
			"bufferView":18,
			"componentType":5126,
			"count":88,
			"type":"VEC2"
		},
		{
			"bufferView":19,
			"componentType":5123,
			"count":249,
			"type":"SCALAR"
		},
		{
			"bufferView":20,
			"componentType":5126,
			"count":40,
			"max":[
				16,
				-42,
				4
			],
			"min":[
				-16,
				-50,
				-4
			],
			"type":"VEC3"
		},
		{
			"bufferView":21,
			"componentType":5126,
			"count":40,
			"type":"VEC3"
		},
		{
			"bufferView":22,
			"componentType":5126,
			"count":40,
			"type":"VEC2"
		},
		{
			"bufferView":23,
			"componentType":5123,
			"count":72,
			"type":"SCALAR"
		},
		{
			"bufferView":24,
			"componentType":5126,
			"count":360,
			"max":[
				16,
				-14,
				18
			],
			"min":[
				-16,
				-72,
				-18
			],
			"type":"VEC3"
		},
		{
			"bufferView":25,
			"componentType":5126,
			"count":360,
			"type":"VEC3"
		},
		{
			"bufferView":26,
			"componentType":5126,
			"count":360,
			"type":"VEC2"
		},
		{
			"bufferView":27,
			"componentType":5123,
			"count":768,
			"type":"SCALAR"
		},
		{
			"bufferView":28,
			"componentType":5126,
			"count":16,
			"max":[
				18,
				-23,
				6.5
			],
			"min":[
				-18,
				-25,
				-6.5
			],
			"type":"VEC3"
		},
		{
			"bufferView":29,
			"componentType":5126,
			"count":16,
			"type":"VEC3"
		},
		{
			"bufferView":30,
			"componentType":5126,
			"count":16,
			"type":"VEC2"
		},
		{
			"bufferView":31,
			"componentType":5123,
			"count":24,
			"type":"SCALAR"
		},
		{
			"bufferView":32,
			"componentType":5126,
			"count":250,
			"max":[
				18,
				-19.5,
				14
			],
			"min":[
				-18,
				-37.5,
				-14
			],
			"type":"VEC3"
		},
		{
			"bufferView":33,
			"componentType":5126,
			"count":250,
			"type":"VEC3"
		},
		{
			"bufferView":34,
			"componentType":5126,
			"count":250,
			"type":"VEC2"
		},
		{
			"bufferView":35,
			"componentType":5123,
			"count":594,
			"type":"SCALAR"
		},
		{
			"bufferView":36,
			"componentType":5126,
			"count":88,
			"max":[
				18,
				-21,
				8.5
			],
			"min":[
				-18,
				-29,
				-8.5
			],
			"type":"VEC3"
		},
		{
			"bufferView":37,
			"componentType":5126,
			"count":88,
			"type":"VEC3"
		},
		{
			"bufferView":38,
			"componentType":5126,
			"count":88,
			"type":"VEC2"
		},
		{
			"bufferView":39,
			"componentType":5123,
			"count":144,
			"type":"SCALAR"
		},
		{
			"bufferView":40,
			"componentType":5126,
			"count":84,
			"max":[
				16,
				-18,
				20
			],
			"min":[
				-16,
				-19,
				-20
			],
			"type":"VEC3"
		},
		{
			"bufferView":41,
			"componentType":5126,
			"count":84,
			"type":"VEC3"
		},
		{
			"bufferView":42,
			"componentType":5126,
			"count":84,
			"type":"VEC2"
		},
		{
			"bufferView":43,
			"componentType":5123,
			"count":150,
			"type":"SCALAR"
		},
		{
			"bufferView":44,
			"componentType":5126,
			"count":72,
			"max":[
				16,
				-14,
				20
			],
			"min":[
				-16,
				-18,
				-20
			],
			"type":"VEC3"
		},
		{
			"bufferView":45,
			"componentType":5126,
			"count":72,
			"type":"VEC3"
		},
		{
			"bufferView":46,
			"componentType":5126,
			"count":72,
			"type":"VEC2"
		},
		{
			"bufferView":47,
			"componentType":5123,
			"count":144,
			"type":"SCALAR"
		},
		{
			"bufferView":48,
			"componentType":5126,
			"count":320,
			"max":[
				10,
				-21,
				11
			],
			"min":[
				-10,
				-22,
				-11
			],
			"type":"VEC3"
		},
		{
			"bufferView":49,
			"componentType":5126,
			"count":320,
			"type":"VEC3"
		},
		{
			"bufferView":50,
			"componentType":5126,
			"count":320,
			"type":"VEC2"
		},
		{
			"bufferView":51,
			"componentType":5123,
			"count":480,
			"type":"SCALAR"
		},
		{
			"bufferView":52,
			"componentType":5126,
			"count":16,
			"max":[
				6,
				-19,
				18
			],
			"min":[
				-6,
				-72,
				-18
			],
			"type":"VEC3"
		},
		{
			"bufferView":53,
			"componentType":5126,
			"count":16,
			"type":"VEC3"
		},
		{
			"bufferView":54,
			"componentType":5126,
			"count":16,
			"type":"VEC2"
		},
		{
			"bufferView":55,
			"componentType":5123,
			"count":24,
			"type":"SCALAR"
		},
		{
			"bufferView":56,
			"componentType":5126,
			"count":8,
			"max":[
				2,
				-19,
				17
			],
			"min":[
				-2,
				-72,
				-17
			],
			"type":"VEC3"
		},
		{
			"bufferView":57,
			"componentType":5126,
			"count":8,
			"type":"VEC3"
		},
		{
			"bufferView":58,
			"componentType":5126,
			"count":8,
			"type":"VEC2"
		},
		{
			"bufferView":59,
			"componentType":5123,
			"count":12,
			"type":"SCALAR"
		},
		{
			"bufferView":60,
			"componentType":5126,
			"count":12,
			"max":[
				15.75,
				-42,
				4
			],
			"min":[
				-15.75,
				-50,
				-4
			],
			"type":"VEC3"
		},
		{
			"bufferView":61,
			"componentType":5126,
			"count":12,
			"type":"VEC3"
		},
		{
			"bufferView":62,
			"componentType":5126,
			"count":12,
			"type":"VEC2"
		},
		{
			"bufferView":63,
			"componentType":5123,
			"count":24,
			"type":"SCALAR"
		},
		{
			"bufferView":64,
			"componentType":5126,
			"count":32,
			"max":[
				2.5,
				-24,
				13
			],
			"min":[
				-2.5,
				-36,
				-13
			],
			"type":"VEC3"
		},
		{
			"bufferView":65,
			"componentType":5126,
			"count":32,
			"type":"VEC3"
		},
		{
			"bufferView":66,
			"componentType":5126,
			"count":32,
			"type":"VEC2"
		},
		{
			"bufferView":67,
			"componentType":5123,
			"count":48,
			"type":"SCALAR"
		},
		{
			"bufferView":68,
			"componentType":5126,
			"count":32,
			"max":[
				2.5,
				-24,
				13
			],
			"min":[
				-2.5,
				-36,
				-13
			],
			"type":"VEC3"
		},
		{
			"bufferView":69,
			"componentType":5126,
			"count":32,
			"type":"VEC3"
		},
		{
			"bufferView":70,
			"componentType":5126,
			"count":32,
			"type":"VEC2"
		},
		{
			"bufferView":71,
			"componentType":5123,
			"count":48,
			"type":"SCALAR"
		},
		{
			"bufferView":72,
			"componentType":5126,
			"count":16,
			"max":[
				15.75,
				-25.125,
				0.75
			],
			"min":[
				-15.75,
				-25.125,
				-0.75
			],
			"type":"VEC3"
		},
		{
			"bufferView":73,
			"componentType":5126,
			"count":16,
			"type":"VEC3"
		},
		{
			"bufferView":74,
			"componentType":5126,
			"count":16,
			"type":"VEC2"
		},
		{
			"bufferView":75,
			"componentType":5123,
			"count":24,
			"type":"SCALAR"
		}
	],
	"bufferViews":[
		{
			"buffer":0,
			"byteLength":5832,
			"byteOffset":0,
			"target":34962
		},
		{
			"buffer":0,
			"byteLength":5832,
			"byteOffset":5832,
			"target":34962
		},
		{
			"buffer":0,
			"byteLength":3888,
			"byteOffset":11664,
			"target":34962
		},
		{
			"buffer":0,
			"byteLength":2592,
			"byteOffset":15552,
			"target":34963
		},
		{
			"buffer":0,
			"byteLength":2412,
			"byteOffset":18144,
			"target":34962
		},
		{
			"buffer":0,
			"byteLength":2412,
			"byteOffset":20556,
			"target":34962
		},
		{
			"buffer":0,
			"byteLength":1608,
			"byteOffset":22968,
			"target":34962
		},
		{
			"buffer":0,
			"byteLength":966,
			"byteOffset":24576,
			"target":34963
		},
		{
			"buffer":0,
			"byteLength":168,
			"byteOffset":25544,
			"target":34962
		},
		{
			"buffer":0,
			"byteLength":168,
			"byteOffset":25712,
			"target":34962
		},
		{
			"buffer":0,
			"byteLength":112,
			"byteOffset":25880,
			"target":34962
		},
		{
			"buffer":0,
			"byteLength":84,
			"byteOffset":25992,
			"target":34963
		},
		{
			"buffer":0,
			"byteLength":2952,
			"byteOffset":26076,
			"target":34962
		},
		{
			"buffer":0,
			"byteLength":2952,
			"byteOffset":29028,
			"target":34962
		},
		{
			"buffer":0,
			"byteLength":1968,
			"byteOffset":31980,
			"target":34962
		},
		{
			"buffer":0,
			"byteLength":804,
			"byteOffset":33948,
			"target":34963
		},
		{
			"buffer":0,
			"byteLength":1056,
			"byteOffset":34752,
			"target":34962
		},
		{
			"buffer":0,
			"byteLength":1056,
			"byteOffset":35808,
			"target":34962
		},
		{
			"buffer":0,
			"byteLength":704,
			"byteOffset":36864,
			"target":34962
		},
		{
			"buffer":0,
			"byteLength":498,
			"byteOffset":37568,
			"target":34963
		},
		{
			"buffer":0,
			"byteLength":480,
			"byteOffset":38068,
			"target":34962
		},
		{
			"buffer":0,
			"byteLength":480,
			"byteOffset":38548,
			"target":34962
		},
		{
			"buffer":0,
			"byteLength":320,
			"byteOffset":39028,
			"target":34962
		},
		{
			"buffer":0,
			"byteLength":144,
			"byteOffset":39348,
			"target":34963
		},
		{
			"buffer":0,
			"byteLength":4320,
			"byteOffset":39492,
			"target":34962
		},
		{
			"buffer":0,
			"byteLength":4320,
			"byteOffset":43812,
			"target":34962
		},
		{
			"buffer":0,
			"byteLength":2880,
			"byteOffset":48132,
			"target":34962
		},
		{
			"buffer":0,
			"byteLength":1536,
			"byteOffset":51012,
			"target":34963
		},
		{
			"buffer":0,
			"byteLength":192,
			"byteOffset":52548,
			"target":34962
		},
		{
			"buffer":0,
			"byteLength":192,
			"byteOffset":52740,
			"target":34962
		},
		{
			"buffer":0,
			"byteLength":128,
			"byteOffset":52932,
			"target":34962
		},
		{
			"buffer":0,
			"byteLength":48,
			"byteOffset":53060,
			"target":34963
		},
		{
			"buffer":0,
			"byteLength":3000,
			"byteOffset":53108,
			"target":34962
		},
		{
			"buffer":0,
			"byteLength":3000,
			"byteOffset":56108,
			"target":34962
		},
		{
			"buffer":0,
			"byteLength":2000,
			"byteOffset":59108,
			"target":34962
		},
		{
			"buffer":0,
			"byteLength":1188,
			"byteOffset":61108,
			"target":34963
		},
		{
			"buffer":0,
			"byteLength":1056,
			"byteOffset":62296,
			"target":34962
		},
		{
			"buffer":0,
			"byteLength":1056,
			"byteOffset":63352,
			"target":34962
		},
		{
			"buffer":0,
			"byteLength":704,
			"byteOffset":64408,
			"target":34962
		},
		{
			"buffer":0,
			"byteLength":288,
			"byteOffset":65112,
			"target":34963
		},
		{
			"buffer":0,
			"byteLength":1008,
			"byteOffset":65400,
			"target":34962
		},
		{
			"buffer":0,
			"byteLength":1008,
			"byteOffset":66408,
			"target":34962
		},
		{
			"buffer":0,
			"byteLength":672,
			"byteOffset":67416,
			"target":34962
		},
		{
			"buffer":0,
			"byteLength":300,
			"byteOffset":68088,
			"target":34963
		},
		{
			"buffer":0,
			"byteLength":864,
			"byteOffset":68388,
			"target":34962
		},
		{
			"buffer":0,
			"byteLength":864,
			"byteOffset":69252,
			"target":34962
		},
		{
			"buffer":0,
			"byteLength":576,
			"byteOffset":70116,
			"target":34962
		},
		{
			"buffer":0,
			"byteLength":288,
			"byteOffset":70692,
			"target":34963
		},
		{
			"buffer":0,
			"byteLength":3840,
			"byteOffset":70980,
			"target":34962
		},
		{
			"buffer":0,
			"byteLength":3840,
			"byteOffset":74820,
			"target":34962
		},
		{
			"buffer":0,
			"byteLength":2560,
			"byteOffset":78660,
			"target":34962
		},
		{
			"buffer":0,
			"byteLength":960,
			"byteOffset":81220,
			"target":34963
		},
		{
			"buffer":0,
			"byteLength":192,
			"byteOffset":82180,
			"target":34962
		},
		{
			"buffer":0,
			"byteLength":192,
			"byteOffset":82372,
			"target":34962
		},
		{
			"buffer":0,
			"byteLength":128,
			"byteOffset":82564,
			"target":34962
		},
		{
			"buffer":0,
			"byteLength":48,
			"byteOffset":82692,
			"target":34963
		},
		{
			"buffer":0,
			"byteLength":96,
			"byteOffset":82740,
			"target":34962
		},
		{
			"buffer":0,
			"byteLength":96,
			"byteOffset":82836,
			"target":34962
		},
		{
			"buffer":0,
			"byteLength":64,
			"byteOffset":82932,
			"target":34962
		},
		{
			"buffer":0,
			"byteLength":24,
			"byteOffset":82996,
			"target":34963
		},
		{
			"buffer":0,
			"byteLength":144,
			"byteOffset":83020,
			"target":34962
		},
		{
			"buffer":0,
			"byteLength":144,
			"byteOffset":83164,
			"target":34962
		},
		{
			"buffer":0,
			"byteLength":96,
			"byteOffset":83308,
			"target":34962
		},
		{
			"buffer":0,
			"byteLength":48,
			"byteOffset":83404,
			"target":34963
		},
		{
			"buffer":0,
			"byteLength":384,
			"byteOffset":83452,
			"target":34962
		},
		{
			"buffer":0,
			"byteLength":384,
			"byteOffset":83836,
			"target":34962
		},
		{
			"buffer":0,
			"byteLength":256,
			"byteOffset":84220,
			"target":34962
		},
		{
			"buffer":0,
			"byteLength":96,
			"byteOffset":84476,
			"target":34963
		},
		{
			"buffer":0,
			"byteLength":384,
			"byteOffset":84572,
			"target":34962
		},
		{
			"buffer":0,
			"byteLength":384,
			"byteOffset":84956,
			"target":34962
		},
		{
			"buffer":0,
			"byteLength":256,
			"byteOffset":85340,
			"target":34962
		},
		{
			"buffer":0,
			"byteLength":96,
			"byteOffset":85596,
			"target":34963
		},
		{
			"buffer":0,
			"byteLength":192,
			"byteOffset":85692,
			"target":34962
		},
		{
			"buffer":0,
			"byteLength":192,
			"byteOffset":85884,
			"target":34962
		},
		{
			"buffer":0,
			"byteLength":128,
			"byteOffset":86076,
			"target":34962
		},
		{
			"buffer":0,
			"byteLength":48,
			"byteOffset":86204,
			"target":34963
		}
	],
	"buffers":[
		{
			"byteLength":86252,
			"uri":"rst_bitterbunker3.bin"
		}
	]
}
