{
	"asset":{
		"generator":"Khronos glTF Blender I/O v4.5.48",
		"version":"2.0"
	},
	"scene":0,
	"scenes":[
		{
			"name":"Scene",
			"nodes":[
				0,
				1,
				2
			]
		}
	],
	"nodes":[
		{
			"mesh":0,
			"name":"Object"
		},
		{
			"mesh":1,
			"name":"Object.001"
		},
		{
			"mesh":2,
			"name":"Object.002"
		}
	],
	"materials":[
		{
			"doubleSided":true,
			"name":"grassMix5",
			"pbrMetallicRoughness":{
				"baseColorFactor":[
					0.800000011920929,
					0.800000011920929,
					0.800000011920929,
					1
				],
				"metallicFactor":0,
				"roughnessFactor":0.5
			}
		},
		{
			"doubleSided":true,
			"name":"mossDirt2",
			"pbrMetallicRoughness":{
				"baseColorFactor":[
					0.800000011920929,
					0.800000011920929,
					0.800000011920929,
					1
				],
				"metallicFactor":0,
				"roughnessFactor":0.5
			}
		},
		{
			"doubleSided":true,
			"name":"mossRock3",
			"pbrMetallicRoughness":{
				"baseColorFactor":[
					0.800000011920929,
					0.800000011920929,
					0.800000011920929,
					1
				],
				"metallicFactor":0,
				"roughnessFactor":0.5
			}
		},
		{
			"doubleSided":true,
			"name":"grassMix5.001",
			"pbrMetallicRoughness":{
				"baseColorFactor":[
					0.800000011920929,
					0.800000011920929,
					0.800000011920929,
					1
				],
				"metallicFactor":0,
				"roughnessFactor":0.5
			}
		},
		{
			"doubleSided":true,
			"name":"mossDirt2.001",
			"pbrMetallicRoughness":{
				"baseColorFactor":[
					0.800000011920929,
					0.800000011920929,
					0.800000011920929,
					1
				],
				"metallicFactor":0,
				"roughnessFactor":0.5
			}
		},
		{
			"doubleSided":true,
			"name":"mossRock3.001",
			"pbrMetallicRoughness":{
				"baseColorFactor":[
					0.800000011920929,
					0.800000011920929,
					0.800000011920929,
					1
				],
				"metallicFactor":0,
				"roughnessFactor":0.5
			}
		},
		{
			"doubleSided":true,
			"name":"grassMix5.002",
			"pbrMetallicRoughness":{
				"baseColorFactor":[
					0.800000011920929,
					0.800000011920929,
					0.800000011920929,
					1
				],
				"metallicFactor":0,
				"roughnessFactor":0.5
			}
		},
		{
			"doubleSided":true,
			"name":"mossDirt2.002",
			"pbrMetallicRoughness":{
				"baseColorFactor":[
					0.800000011920929,
					0.800000011920929,
					0.800000011920929,
					1
				],
				"metallicFactor":0,
				"roughnessFactor":0.5
			}
		}
	],
	"meshes":[
		{
			"name":"Mesh",
			"primitives":[
				{
					"attributes":{
						"POSITION":0,
						"NORMAL":1,
						"TEXCOORD_0":2
					},
					"indices":3,
					"material":0
				},
				{
					"attributes":{
						"POSITION":4,
						"NORMAL":5,
						"TEXCOORD_0":6
					},
					"indices":7,
					"material":1
				},
				{
					"attributes":{
						"POSITION":8,
						"NORMAL":9,
						"TEXCOORD_0":10
					},
					"indices":11,
					"material":2
				}
			]
		},
		{
			"name":"Mesh.001",
			"primitives":[
				{
					"attributes":{
						"POSITION":12,
						"NORMAL":13,
						"TEXCOORD_0":14
					},
					"indices":15,
					"material":3
				},
				{
					"attributes":{
						"POSITION":16,
						"NORMAL":17,
						"TEXCOORD_0":18
					},
					"indices":19,
					"material":4
				},
				{
					"attributes":{
						"POSITION":20,
						"NORMAL":21,
						"TEXCOORD_0":22
					},
					"indices":23,
					"material":5
				}
			]
		},
		{
			"name":"Mesh.002",
			"primitives":[
				{
					"attributes":{
						"POSITION":24,
						"NORMAL":25,
						"TEXCOORD_0":26
					},
					"indices":27,
					"material":6
				},
				{
					"attributes":{
						"POSITION":28,
						"NORMAL":29,
						"TEXCOORD_0":30
					},
					"indices":31,
					"material":7
				}
			]
		}
	],
	"accessors":[
		{
			"bufferView":0,
			"componentType":5126,
			"count":837,
			"max":[
				149,
				31,
				127
			],
			"min":[
				-145,
				-22,
				-135
			],
			"type":"VEC3"
		},
		{
			"bufferView":1,
			"componentType":5126,
			"count":837,
			"type":"VEC3"
		},
		{
			"bufferView":2,
			"componentType":5126,
			"count":837,
			"type":"VEC2"
		},
		{
			"bufferView":3,
			"componentType":5123,
			"count":837,
			"type":"SCALAR"
		},
		{
			"bufferView":4,
			"componentType":5126,
			"count":666,
			"max":[
				151,
				29,
				133
			],
			"min":[
				-154,
				-130,
				-138
			],
			"type":"VEC3"
		},
		{
			"bufferView":5,
			"componentType":5126,
			"count":666,
			"type":"VEC3"
		},
		{
			"bufferView":6,
			"componentType":5126,
			"count":666,
			"type":"VEC2"
		},
		{
			"bufferView":7,
			"componentType":5123,
			"count":666,
			"type":"SCALAR"
		},
		{
			"bufferView":8,
			"componentType":5126,
			"count":171,
			"max":[
				151,
				31,
				127
			],
			"min":[
				-147,
				-17,
				-135
			],
			"type":"VEC3"
		},
		{
			"bufferView":9,
			"componentType":5126,
			"count":171,
			"type":"VEC3"
		},
		{
			"bufferView":10,
			"componentType":5126,
			"count":171,
			"type":"VEC2"
		},
		{
			"bufferView":11,
			"componentType":5123,
			"count":171,
			"type":"SCALAR"
		},
		{
			"bufferView":12,
			"componentType":5126,
			"count":471,
			"max":[
				151,
				31,
				127
			],
			"min":[
				-147,
				-22,
				-135
			],
			"type":"VEC3"
		},
		{
			"bufferView":13,
			"componentType":5126,
			"count":471,
			"type":"VEC3"
		},
		{
			"bufferView":14,
			"componentType":5126,
			"count":471,
			"type":"VEC2"
		},
		{
			"bufferView":15,
			"componentType":5123,
			"count":471,
			"type":"SCALAR"
		},
		{
			"bufferView":16,
			"componentType":5126,
			"count":468,
			"max":[
				151,
				29,
				133
			],
			"min":[
				-154,
				-130,
				-138
			],
			"type":"VEC3"
		},
		{
			"bufferView":17,
			"componentType":5126,
			"count":468,
			"type":"VEC3"
		},
		{
			"bufferView":18,
			"componentType":5126,
			"count":468,
			"type":"VEC2"
		},
		{
			"bufferView":19,
			"componentType":5123,
			"count":468,
			"type":"SCALAR"
		},
		{
			"bufferView":20,
			"componentType":5126,
			"count":63,
			"max":[
				139,
				31,
				75
			],
			"min":[
				-74,
				-17,
				-135
			],
			"type":"VEC3"
		},
		{
			"bufferView":21,
			"componentType":5126,
			"count":63,
			"type":"VEC3"
		},
		{
			"bufferView":22,
			"componentType":5126,
			"count":63,
			"type":"VEC2"
		},
		{
			"bufferView":23,
			"componentType":5123,
			"count":63,
			"type":"SCALAR"
		},
		{
			"bufferView":24,
			"componentType":5126,
			"count":304,
			"max":[
				151,
				29,
				127
			],
			"min":[
				-147,
				-22,
				-135
			],
			"type":"VEC3"
		},
		{
			"bufferView":25,
			"componentType":5126,
			"count":304,
			"type":"VEC3"
		},
		{
			"bufferView":26,
			"componentType":5126,
			"count":304,
			"type":"VEC2"
		},
		{
			"bufferView":27,
			"componentType":5123,
			"count":306,
			"type":"SCALAR"
		},
		{
			"bufferView":28,
			"componentType":5126,
			"count":300,
			"max":[
				151,
				29,
				127
			],
			"min":[
				-147,
				-130,
				-135
			],
			"type":"VEC3"
		},
		{
			"bufferView":29,
			"componentType":5126,
			"count":300,
			"type":"VEC3"
		},
		{
			"bufferView":30,
			"componentType":5126,
			"count":300,
			"type":"VEC2"
		},
		{
			"bufferView":31,
			"componentType":5123,
			"count":321,
			"type":"SCALAR"
		}
	],
	"bufferViews":[
		{
			"buffer":0,
			"byteLength":10044,
			"byteOffset":0,
			"target":34962
		},
		{
			"buffer":0,
			"byteLength":10044,
			"byteOffset":10044,
			"target":34962
		},
		{
			"buffer":0,
			"byteLength":6696,
			"byteOffset":20088,
			"target":34962
		},
		{
			"buffer":0,
			"byteLength":1674,
			"byteOffset":26784,
			"target":34963
		},
		{
			"buffer":0,
			"byteLength":7992,
			"byteOffset":28460,
			"target":34962
		},
		{
			"buffer":0,
			"byteLength":7992,
			"byteOffset":36452,
			"target":34962
		},
		{
			"buffer":0,
			"byteLength":5328,
			"byteOffset":44444,
			"target":34962
		},
		{
			"buffer":0,
			"byteLength":1332,
			"byteOffset":49772,
			"target":34963
		},
		{
			"buffer":0,
			"byteLength":2052,
			"byteOffset":51104,
			"target":34962
		},
		{
			"buffer":0,
			"byteLength":2052,
			"byteOffset":53156,
			"target":34962
		},
		{
			"buffer":0,
			"byteLength":1368,
			"byteOffset":55208,
			"target":34962
		},
		{
			"buffer":0,
			"byteLength":342,
			"byteOffset":56576,
			"target":34963
		},
		{
			"buffer":0,
			"byteLength":5652,
			"byteOffset":56920,
			"target":34962
		},
		{
			"buffer":0,
			"byteLength":5652,
			"byteOffset":62572,
			"target":34962
		},
		{
			"buffer":0,
			"byteLength":3768,
			"byteOffset":68224,
			"target":34962
		},
		{
			"buffer":0,
			"byteLength":942,
			"byteOffset":71992,
			"target":34963
		},
		{
			"buffer":0,
			"byteLength":5616,
			"byteOffset":72936,
			"target":34962
		},
		{
			"buffer":0,
			"byteLength":5616,
			"byteOffset":78552,
			"target":34962
		},
		{
			"buffer":0,
			"byteLength":3744,
			"byteOffset":84168,
			"target":34962
		},
		{
			"buffer":0,
			"byteLength":936,
			"byteOffset":87912,
			"target":34963
		},
		{
			"buffer":0,
			"byteLength":756,
			"byteOffset":88848,
			"target":34962
		},
		{
			"buffer":0,
			"byteLength":756,
			"byteOffset":89604,
			"target":34962
		},
		{
			"buffer":0,
			"byteLength":504,
			"byteOffset":90360,
			"target":34962
		},
		{
			"buffer":0,
			"byteLength":126,
			"byteOffset":90864,
			"target":34963
		},
		{
			"buffer":0,
			"byteLength":3648,
			"byteOffset":90992,
			"target":34962
		},
		{
			"buffer":0,
			"byteLength":3648,
			"byteOffset":94640,
			"target":34962
		},
		{
			"buffer":0,
			"byteLength":2432,
			"byteOffset":98288,
			"target":34962
		},
		{
			"buffer":0,
			"byteLength":612,
			"byteOffset":100720,
			"target":34963
		},
		{
			"buffer":0,
			"byteLength":3600,
			"byteOffset":101332,
			"target":34962
		},
		{
			"buffer":0,
			"byteLength":3600,
			"byteOffset":104932,
			"target":34962
		},
		{
			"buffer":0,
			"byteLength":2400,
			"byteOffset":108532,
			"target":34962
		},
		{
			"buffer":0,
			"byteLength":642,
			"byteOffset":110932,
			"target":34963
		}
	],
	"buffers":[
		{
			"byteLength":111576,
			"uri":"rst_lush_floatingisle4.bin"
		}
	]
}
