{
	"asset":{
		"generator":"Khronos glTF Blender I/O v4.5.48",
		"version":"2.0"
	},
	"scene":0,
	"scenes":[
		{
			"name":"Scene",
			"nodes":[
				0
			]
		}
	],
	"nodes":[
		{
			"mesh":0,
			"name":"Object"
		}
	],
	"materials":[
		{
			"doubleSided":true,
			"name":"BE_IGENERIC",
			"pbrMetallicRoughness":{
				"baseColorFactor":[
					0.800000011920929,
					0.800000011920929,
					0.800000011920929,
					1
				],
				"metallicFactor":0,
				"roughnessFactor":0.5
			}
		},
		{
			"doubleSided":true,
			"name":"BE_ICEI04",
			"pbrMetallicRoughness":{
				"baseColorFactor":[
					0.800000011920929,
					0.800000011920929,
					0.800000011920929,
					1
				],
				"metallicFactor":0,
				"roughnessFactor":0.5
			}
		},
		{
			"doubleSided":true,
			"name":"BE_ICEI03B",
			"pbrMetallicRoughness":{
				"baseColorFactor":[
					0.800000011920929,
					0.800000011920929,
					0.800000011920929,
					1
				],
				"metallicFactor":0,
				"roughnessFactor":0.5
			}
		},
		{
			"doubleSided":true,
			"name":"BE_ICOWAL02A",
			"pbrMetallicRoughness":{
				"baseColorFactor":[
					0.800000011920929,
					0.800000011920929,
					0.800000011920929,
					1
				],
				"metallicFactor":0,
				"roughnessFactor":0.5
			}
		},
		{
			"doubleSided":true,
			"name":"BE_IGENERICDARK",
			"pbrMetallicRoughness":{
				"baseColorFactor":[
					0.800000011920929,
					0.800000011920929,
					0.800000011920929,
					1
				],
				"metallicFactor":0,
				"roughnessFactor":0.5
			}
		},
		{
			"doubleSided":true,
			"name":"BE_IPRFLO01",
			"pbrMetallicRoughness":{
				"baseColorFactor":[
					0.800000011920929,
					0.800000011920929,
					0.800000011920929,
					1
				],
				"metallicFactor":0,
				"roughnessFactor":0.5
			}
		},
		{
			"doubleSided":true,
			"name":"BE_ICOLBASE01",
			"pbrMetallicRoughness":{
				"baseColorFactor":[
					0.800000011920929,
					0.800000011920929,
					0.800000011920929,
					1
				],
				"metallicFactor":0,
				"roughnessFactor":0.5
			}
		},
		{
			"doubleSided":true,
			"name":"BE_EBOR03",
			"pbrMetallicRoughness":{
				"baseColorFactor":[
					0.800000011920929,
					0.800000011920929,
					0.800000011920929,
					1
				],
				"metallicFactor":0,
				"roughnessFactor":0.5
			}
		},
		{
			"doubleSided":true,
			"name":"BE_IHAFLO01",
			"pbrMetallicRoughness":{
				"baseColorFactor":[
					0.800000011920929,
					0.800000011920929,
					0.800000011920929,
					1
				],
				"metallicFactor":0,
				"roughnessFactor":0.5
			}
		},
		{
			"doubleSided":true,
			"name":"BE_ICOLIG",
			"pbrMetallicRoughness":{
				"baseColorFactor":[
					0.800000011920929,
					0.800000011920929,
					0.800000011920929,
					1
				],
				"metallicFactor":0,
				"roughnessFactor":0.5
			}
		},
		{
			"doubleSided":true,
			"name":"BE_IPRWAL01",
			"pbrMetallicRoughness":{
				"baseColorFactor":[
					0.800000011920929,
					0.800000011920929,
					0.800000011920929,
					1
				],
				"metallicFactor":0,
				"roughnessFactor":0.5
			}
		},
		{
			"doubleSided":true,
			"name":"BE_ITEWAL03",
			"pbrMetallicRoughness":{
				"baseColorFactor":[
					0.800000011920929,
					0.800000011920929,
					0.800000011920929,
					1
				],
				"metallicFactor":0,
				"roughnessFactor":0.5
			}
		}
	],
	"meshes":[
		{
			"name":"Mesh",
			"primitives":[
				{
					"attributes":{
						"POSITION":0,
						"NORMAL":1,
						"TEXCOORD_0":2
					},
					"indices":3,
					"material":0
				},
				{
					"attributes":{
						"POSITION":4,
						"NORMAL":5,
						"TEXCOORD_0":6
					},
					"indices":7,
					"material":1
				},
				{
					"attributes":{
						"POSITION":8,
						"NORMAL":9,
						"TEXCOORD_0":10
					},
					"indices":11,
					"material":2
				},
				{
					"attributes":{
						"POSITION":12,
						"NORMAL":13,
						"TEXCOORD_0":14
					},
					"indices":15,
					"material":3
				},
				{
					"attributes":{
						"POSITION":16,
						"NORMAL":17,
						"TEXCOORD_0":18
					},
					"indices":19,
					"material":4
				},
				{
					"attributes":{
						"POSITION":20,
						"NORMAL":21,
						"TEXCOORD_0":22
					},
					"indices":23,
					"material":5
				},
				{
					"attributes":{
						"POSITION":24,
						"NORMAL":25,
						"TEXCOORD_0":26
					},
					"indices":27,
					"material":6
				},
				{
					"attributes":{
						"POSITION":28,
						"NORMAL":29,
						"TEXCOORD_0":30
					},
					"indices":31,
					"material":7
				},
				{
					"attributes":{
						"POSITION":32,
						"NORMAL":33,
						"TEXCOORD_0":34
					},
					"indices":35,
					"material":8
				},
				{
					"attributes":{
						"POSITION":36,
						"NORMAL":37,
						"TEXCOORD_0":38
					},
					"indices":39,
					"material":9
				},
				{
					"attributes":{
						"POSITION":40,
						"NORMAL":41,
						"TEXCOORD_0":42
					},
					"indices":43,
					"material":10
				},
				{
					"attributes":{
						"POSITION":44,
						"NORMAL":45,
						"TEXCOORD_0":46
					},
					"indices":47,
					"material":11
				}
			]
		}
	],
	"accessors":[
		{
			"bufferView":0,
			"componentType":5126,
			"count":1287,
			"max":[
				19.25,
				24.15625,
				16
			],
			"min":[
				-15.230310440063477,
				-31.90625,
				-16
			],
			"type":"VEC3"
		},
		{
			"bufferView":1,
			"componentType":5126,
			"count":1287,
			"type":"VEC3"
		},
		{
			"bufferView":2,
			"componentType":5126,
			"count":1287,
			"type":"VEC2"
		},
		{
			"bufferView":3,
			"componentType":5123,
			"count":2268,
			"type":"SCALAR"
		},
		{
			"bufferView":4,
			"componentType":5126,
			"count":362,
			"max":[
				9.84375,
				47.5625,
				10.34375
			],
			"min":[
				-9.84375,
				32.15625,
				-10.34375
			],
			"type":"VEC3"
		},
		{
			"bufferView":5,
			"componentType":5126,
			"count":362,
			"type":"VEC3"
		},
		{
			"bufferView":6,
			"componentType":5126,
			"count":362,
			"type":"VEC2"
		},
		{
			"bufferView":7,
			"componentType":5123,
			"count":726,
			"type":"SCALAR"
		},
		{
			"bufferView":8,
			"componentType":5126,
			"count":1554,
			"max":[
				36,
				45.5,
				20.005035400390625
			],
			"min":[
				-19,
				-52,
				-20
			],
			"type":"VEC3"
		},
		{
			"bufferView":9,
			"componentType":5126,
			"count":1554,
			"type":"VEC3"
		},
		{
			"bufferView":10,
			"componentType":5126,
			"count":1554,
			"type":"VEC2"
		},
		{
			"bufferView":11,
			"componentType":5123,
			"count":4098,
			"type":"SCALAR"
		},
		{
			"bufferView":12,
			"componentType":5126,
			"count":58,
			"max":[
				19.25,
				-30,
				14.0625
			],
			"min":[
				-13.375,
				-31.90625,
				-14.0625
			],
			"type":"VEC3"
		},
		{
			"bufferView":13,
			"componentType":5126,
			"count":58,
			"type":"VEC3"
		},
		{
			"bufferView":14,
			"componentType":5126,
			"count":58,
			"type":"VEC2"
		},
		{
			"bufferView":15,
			"componentType":5123,
			"count":96,
			"type":"SCALAR"
		},
		{
			"bufferView":16,
			"componentType":5126,
			"count":731,
			"max":[
				14.21875,
				56.96875,
				14.937638282775879
			],
			"min":[
				-14.21875,
				3.25,
				-14.933818817138672
			],
			"type":"VEC3"
		},
		{
			"bufferView":17,
			"componentType":5126,
			"count":731,
			"type":"VEC3"
		},
		{
			"bufferView":18,
			"componentType":5126,
			"count":731,
			"type":"VEC2"
		},
		{
			"bufferView":19,
			"componentType":5123,
			"count":1281,
			"type":"SCALAR"
		},
		{
			"bufferView":20,
			"componentType":5126,
			"count":206,
			"max":[
				15.21875,
				32.15625,
				16
			],
			"min":[
				-15.21875,
				30,
				-16
			],
			"type":"VEC3"
		},
		{
			"bufferView":21,
			"componentType":5126,
			"count":206,
			"type":"VEC3"
		},
		{
			"bufferView":22,
			"componentType":5126,
			"count":206,
			"type":"VEC2"
		},
		{
			"bufferView":23,
			"componentType":5123,
			"count":807,
			"type":"SCALAR"
		},
		{
			"bufferView":24,
			"componentType":5126,
			"count":65,
			"max":[
				15.21875,
				32.15625,
				16
			],
			"min":[
				-15.21875,
				30,
				-16
			],
			"type":"VEC3"
		},
		{
			"bufferView":25,
			"componentType":5126,
			"count":65,
			"type":"VEC3"
		},
		{
			"bufferView":26,
			"componentType":5126,
			"count":65,
			"type":"VEC2"
		},
		{
			"bufferView":27,
			"componentType":5123,
			"count":135,
			"type":"SCALAR"
		},
		{
			"bufferView":28,
			"componentType":5126,
			"count":177,
			"max":[
				20.25,
				33.75,
				16
			],
			"min":[
				-15.21875,
				-31.90625,
				-16
			],
			"type":"VEC3"
		},
		{
			"bufferView":29,
			"componentType":5126,
			"count":177,
			"type":"VEC3"
		},
		{
			"bufferView":30,
			"componentType":5126,
			"count":177,
			"type":"VEC2"
		},
		{
			"bufferView":31,
			"componentType":5123,
			"count":345,
			"type":"SCALAR"
		},
		{
			"bufferView":32,
			"componentType":5126,
			"count":44,
			"max":[
				11.46875,
				24.15625,
				12.0625
			],
			"min":[
				-11.46875,
				24.15625,
				-12.0625
			],
			"type":"VEC3"
		},
		{
			"bufferView":33,
			"componentType":5126,
			"count":44,
			"type":"VEC3"
		},
		{
			"bufferView":34,
			"componentType":5126,
			"count":44,
			"type":"VEC2"
		},
		{
			"bufferView":35,
			"componentType":5123,
			"count":120,
			"type":"SCALAR"
		},
		{
			"bufferView":36,
			"componentType":5126,
			"count":4,
			"max":[
				17,
				-18.1875,
				2
			],
			"min":[
				13,
				-18.1875,
				-2
			],
			"type":"VEC3"
		},
		{
			"bufferView":37,
			"componentType":5126,
			"count":4,
			"type":"VEC3"
		},
		{
			"bufferView":38,
			"componentType":5126,
			"count":4,
			"type":"VEC2"
		},
		{
			"bufferView":39,
			"componentType":5123,
			"count":6,
			"type":"SCALAR"
		},
		{
			"bufferView":40,
			"componentType":5126,
			"count":71,
			"max":[
				3,
				45.5,
				3
			],
			"min":[
				-3,
				35,
				-3
			],
			"type":"VEC3"
		},
		{
			"bufferView":41,
			"componentType":5126,
			"count":71,
			"type":"VEC3"
		},
		{
			"bufferView":42,
			"componentType":5126,
			"count":71,
			"type":"VEC2"
		},
		{
			"bufferView":43,
			"componentType":5123,
			"count":117,
			"type":"SCALAR"
		},
		{
			"bufferView":44,
			"componentType":5126,
			"count":32,
			"max":[
				3,
				43.5,
				3
			],
			"min":[
				-3,
				37,
				-3
			],
			"type":"VEC3"
		},
		{
			"bufferView":45,
			"componentType":5126,
			"count":32,
			"type":"VEC3"
		},
		{
			"bufferView":46,
			"componentType":5126,
			"count":32,
			"type":"VEC2"
		},
		{
			"bufferView":47,
			"componentType":5123,
			"count":48,
			"type":"SCALAR"
		}
	],
	"bufferViews":[
		{
			"buffer":0,
			"byteLength":15444,
			"byteOffset":0,
			"target":34962
		},
		{
			"buffer":0,
			"byteLength":15444,
			"byteOffset":15444,
			"target":34962
		},
		{
			"buffer":0,
			"byteLength":10296,
			"byteOffset":30888,
			"target":34962
		},
		{
			"buffer":0,
			"byteLength":4536,
			"byteOffset":41184,
			"target":34963
		},
		{
			"buffer":0,
			"byteLength":4344,
			"byteOffset":45720,
			"target":34962
		},
		{
			"buffer":0,
			"byteLength":4344,
			"byteOffset":50064,
			"target":34962
		},
		{
			"buffer":0,
			"byteLength":2896,
			"byteOffset":54408,
			"target":34962
		},
		{
			"buffer":0,
			"byteLength":1452,
			"byteOffset":57304,
			"target":34963
		},
		{
			"buffer":0,
			"byteLength":18648,
			"byteOffset":58756,
			"target":34962
		},
		{
			"buffer":0,
			"byteLength":18648,
			"byteOffset":77404,
			"target":34962
		},
		{
			"buffer":0,
			"byteLength":12432,
			"byteOffset":96052,
			"target":34962
		},
		{
			"buffer":0,
			"byteLength":8196,
			"byteOffset":108484,
			"target":34963
		},
		{
			"buffer":0,
			"byteLength":696,
			"byteOffset":116680,
			"target":34962
		},
		{
			"buffer":0,
			"byteLength":696,
			"byteOffset":117376,
			"target":34962
		},
		{
			"buffer":0,
			"byteLength":464,
			"byteOffset":118072,
			"target":34962
		},
		{
			"buffer":0,
			"byteLength":192,
			"byteOffset":118536,
			"target":34963
		},
		{
			"buffer":0,
			"byteLength":8772,
			"byteOffset":118728,
			"target":34962
		},
		{
			"buffer":0,
			"byteLength":8772,
			"byteOffset":127500,
			"target":34962
		},
		{
			"buffer":0,
			"byteLength":5848,
			"byteOffset":136272,
			"target":34962
		},
		{
			"buffer":0,
			"byteLength":2562,
			"byteOffset":142120,
			"target":34963
		},
		{
			"buffer":0,
			"byteLength":2472,
			"byteOffset":144684,
			"target":34962
		},
		{
			"buffer":0,
			"byteLength":2472,
			"byteOffset":147156,
			"target":34962
		},
		{
			"buffer":0,
			"byteLength":1648,
			"byteOffset":149628,
			"target":34962
		},
		{
			"buffer":0,
			"byteLength":1614,
			"byteOffset":151276,
			"target":34963
		},
		{
			"buffer":0,
			"byteLength":780,
			"byteOffset":152892,
			"target":34962
		},
		{
			"buffer":0,
			"byteLength":780,
			"byteOffset":153672,
			"target":34962
		},
		{
			"buffer":0,
			"byteLength":520,
			"byteOffset":154452,
			"target":34962
		},
		{
			"buffer":0,
			"byteLength":270,
			"byteOffset":154972,
			"target":34963
		},
		{
			"buffer":0,
			"byteLength":2124,
			"byteOffset":155244,
			"target":34962
		},
		{
			"buffer":0,
			"byteLength":2124,
			"byteOffset":157368,
			"target":34962
		},
		{
			"buffer":0,
			"byteLength":1416,
			"byteOffset":159492,
			"target":34962
		},
		{
			"buffer":0,
			"byteLength":690,
			"byteOffset":160908,
			"target":34963
		},
		{
			"buffer":0,
			"byteLength":528,
			"byteOffset":161600,
			"target":34962
		},
		{
			"buffer":0,
			"byteLength":528,
			"byteOffset":162128,
			"target":34962
		},
		{
			"buffer":0,
			"byteLength":352,
			"byteOffset":162656,
			"target":34962
		},
		{
			"buffer":0,
			"byteLength":240,
			"byteOffset":163008,
			"target":34963
		},
		{
			"buffer":0,
			"byteLength":48,
			"byteOffset":163248,
			"target":34962
		},
		{
			"buffer":0,
			"byteLength":48,
			"byteOffset":163296,
			"target":34962
		},
		{
			"buffer":0,
			"byteLength":32,
			"byteOffset":163344,
			"target":34962
		},
		{
			"buffer":0,
			"byteLength":12,
			"byteOffset":163376,
			"target":34963
		},
		{
			"buffer":0,
			"byteLength":852,
			"byteOffset":163388,
			"target":34962
		},
		{
			"buffer":0,
			"byteLength":852,
			"byteOffset":164240,
			"target":34962
		},
		{
			"buffer":0,
			"byteLength":568,
			"byteOffset":165092,
			"target":34962
		},
		{
			"buffer":0,
			"byteLength":234,
			"byteOffset":165660,
			"target":34963
		},
		{
			"buffer":0,
			"byteLength":384,
			"byteOffset":165896,
			"target":34962
		},
		{
			"buffer":0,
			"byteLength":384,
			"byteOffset":166280,
			"target":34962
		},
		{
			"buffer":0,
			"byteLength":256,
			"byteOffset":166664,
			"target":34962
		},
		{
			"buffer":0,
			"byteLength":96,
			"byteOffset":166920,
			"target":34963
		}
	],
	"buffers":[
		{
			"byteLength":167016,
			"uri":"rst_lighthouse.bin"
		}
	]
}
