{
	"asset":{
		"generator":"Khronos glTF Blender I/O v4.5.48",
		"version":"2.0"
	},
	"scene":0,
	"scenes":[
		{
			"name":"Scene",
			"nodes":[
				0
			]
		}
	],
	"nodes":[
		{
			"mesh":0,
			"name":"Object"
		}
	],
	"materials":[
		{
			"doubleSided":true,
			"name":"mossDirt4",
			"pbrMetallicRoughness":{
				"baseColorFactor":[
					0.800000011920929,
					0.800000011920929,
					0.800000011920929,
					1
				],
				"metallicFactor":0,
				"roughnessFactor":0.5
			}
		},
		{
			"doubleSided":true,
			"name":"grassMix5",
			"pbrMetallicRoughness":{
				"baseColorFactor":[
					0.800000011920929,
					0.800000011920929,
					0.800000011920929,
					1
				],
				"metallicFactor":0,
				"roughnessFactor":0.5
			}
		},
		{
			"doubleSided":true,
			"name":"mossRock3",
			"pbrMetallicRoughness":{
				"baseColorFactor":[
					0.800000011920929,
					0.800000011920929,
					0.800000011920929,
					1
				],
				"metallicFactor":0,
				"roughnessFactor":0.5
			}
		}
	],
	"meshes":[
		{
			"name":"Mesh",
			"primitives":[
				{
					"attributes":{
						"POSITION":0,
						"NORMAL":1,
						"TEXCOORD_0":2
					},
					"indices":3,
					"material":0
				},
				{
					"attributes":{
						"POSITION":4,
						"NORMAL":5,
						"TEXCOORD_0":6
					},
					"indices":7,
					"material":1
				},
				{
					"attributes":{
						"POSITION":8,
						"NORMAL":9,
						"TEXCOORD_0":10
					},
					"indices":11,
					"material":2
				}
			]
		}
	],
	"accessors":[
		{
			"bufferView":0,
			"componentType":5126,
			"count":363,
			"max":[
				113,
				32,
				86
			],
			"min":[
				-110,
				-123,
				-77
			],
			"type":"VEC3"
		},
		{
			"bufferView":1,
			"componentType":5126,
			"count":363,
			"type":"VEC3"
		},
		{
			"bufferView":2,
			"componentType":5126,
			"count":363,
			"type":"VEC2"
		},
		{
			"bufferView":3,
			"componentType":5123,
			"count":363,
			"type":"SCALAR"
		},
		{
			"bufferView":4,
			"componentType":5126,
			"count":177,
			"max":[
				108,
				58,
				83
			],
			"min":[
				-104,
				1,
				-73
			],
			"type":"VEC3"
		},
		{
			"bufferView":5,
			"componentType":5126,
			"count":177,
			"type":"VEC3"
		},
		{
			"bufferView":6,
			"componentType":5126,
			"count":177,
			"type":"VEC2"
		},
		{
			"bufferView":7,
			"componentType":5123,
			"count":177,
			"type":"SCALAR"
		},
		{
			"bufferView":8,
			"componentType":5126,
			"count":114,
			"max":[
				113,
				41,
				86
			],
			"min":[
				-110,
				-7,
				-77
			],
			"type":"VEC3"
		},
		{
			"bufferView":9,
			"componentType":5126,
			"count":114,
			"type":"VEC3"
		},
		{
			"bufferView":10,
			"componentType":5126,
			"count":114,
			"type":"VEC2"
		},
		{
			"bufferView":11,
			"componentType":5123,
			"count":114,
			"type":"SCALAR"
		}
	],
	"bufferViews":[
		{
			"buffer":0,
			"byteLength":4356,
			"byteOffset":0,
			"target":34962
		},
		{
			"buffer":0,
			"byteLength":4356,
			"byteOffset":4356,
			"target":34962
		},
		{
			"buffer":0,
			"byteLength":2904,
			"byteOffset":8712,
			"target":34962
		},
		{
			"buffer":0,
			"byteLength":726,
			"byteOffset":11616,
			"target":34963
		},
		{
			"buffer":0,
			"byteLength":2124,
			"byteOffset":12344,
			"target":34962
		},
		{
			"buffer":0,
			"byteLength":2124,
			"byteOffset":14468,
			"target":34962
		},
		{
			"buffer":0,
			"byteLength":1416,
			"byteOffset":16592,
			"target":34962
		},
		{
			"buffer":0,
			"byteLength":354,
			"byteOffset":18008,
			"target":34963
		},
		{
			"buffer":0,
			"byteLength":1368,
			"byteOffset":18364,
			"target":34962
		},
		{
			"buffer":0,
			"byteLength":1368,
			"byteOffset":19732,
			"target":34962
		},
		{
			"buffer":0,
			"byteLength":912,
			"byteOffset":21100,
			"target":34962
		},
		{
			"buffer":0,
			"byteLength":228,
			"byteOffset":22012,
			"target":34963
		}
	],
	"buffers":[
		{
			"byteLength":22240,
			"uri":"rst_lush_floatingisle7.bin"
		}
	]
}
