{
	"asset":{
		"generator":"Khronos glTF Blender I/O v4.5.48",
		"version":"2.0"
	},
	"scene":0,
	"scenes":[
		{
			"name":"Scene",
			"nodes":[
				0
			]
		}
	],
	"nodes":[
		{
			"mesh":0,
			"name":"Object"
		}
	],
	"materials":[
		{
			"doubleSided":true,
			"name":"bd_icei03",
			"pbrMetallicRoughness":{
				"baseColorFactor":[
					0.800000011920929,
					0.800000011920929,
					0.800000011920929,
					1
				],
				"metallicFactor":0,
				"roughnessFactor":0.5
			}
		}
	],
	"meshes":[
		{
			"name":"Mesh",
			"primitives":[
				{
					"attributes":{
						"POSITION":0,
						"NORMAL":1,
						"TEXCOORD_0":2
					},
					"indices":3,
					"material":0
				}
			]
		}
	],
	"accessors":[
		{
			"bufferView":0,
			"componentType":5126,
			"count":1040,
			"max":[
				53,
				26.5,
				58.5
			],
			"min":[
				-56.5,
				-7.007816636012132e-14,
				-56
			],
			"type":"VEC3"
		},
		{
			"bufferView":1,
			"componentType":5126,
			"count":1040,
			"type":"VEC3"
		},
		{
			"bufferView":2,
			"componentType":5126,
			"count":1040,
			"type":"VEC2"
		},
		{
			"bufferView":3,
			"componentType":5123,
			"count":1080,
			"type":"SCALAR"
		}
	],
	"bufferViews":[
		{
			"buffer":0,
			"byteLength":12480,
			"byteOffset":0,
			"target":34962
		},
		{
			"buffer":0,
			"byteLength":12480,
			"byteOffset":12480,
			"target":34962
		},
		{
			"buffer":0,
			"byteLength":8320,
			"byteOffset":24960,
			"target":34962
		},
		{
			"buffer":0,
			"byteLength":2160,
			"byteOffset":33280,
			"target":34963
		}
	],
	"buffers":[
		{
			"byteLength":35440,
			"uri":"rst_debris2.bin"
		}
	]
}
