{
	"asset":{
		"generator":"Khronos glTF Blender I/O v4.5.48",
		"version":"2.0"
	},
	"scene":0,
	"scenes":[
		{
			"name":"Scene",
			"nodes":[
				0
			]
		}
	],
	"nodes":[
		{
			"mesh":0,
			"name":"Object"
		}
	],
	"materials":[
		{
			"doubleSided":true,
			"name":"BE_EBOR03",
			"pbrMetallicRoughness":{
				"baseColorFactor":[
					0.800000011920929,
					0.800000011920929,
					0.800000011920929,
					1
				],
				"metallicFactor":0,
				"roughnessFactor":0.5
			}
		},
		{
			"doubleSided":true,
			"name":"BE_ICEI03B",
			"pbrMetallicRoughness":{
				"baseColorFactor":[
					0.800000011920929,
					0.800000011920929,
					0.800000011920929,
					1
				],
				"metallicFactor":0,
				"roughnessFactor":0.5
			}
		},
		{
			"doubleSided":true,
			"name":"BE_EWAL07",
			"pbrMetallicRoughness":{
				"baseColorFactor":[
					0.800000011920929,
					0.800000011920929,
					0.800000011920929,
					1
				],
				"metallicFactor":0,
				"roughnessFactor":0.5
			}
		},
		{
			"doubleSided":true,
			"name":"BE_ESPEC07",
			"pbrMetallicRoughness":{
				"baseColorFactor":[
					0.800000011920929,
					0.800000011920929,
					0.800000011920929,
					1
				],
				"metallicFactor":0,
				"roughnessFactor":0.5
			}
		},
		{
			"doubleSided":true,
			"name":"BE_EWAL01B",
			"pbrMetallicRoughness":{
				"baseColorFactor":[
					0.800000011920929,
					0.800000011920929,
					0.800000011920929,
					1
				],
				"metallicFactor":0,
				"roughnessFactor":0.5
			}
		},
		{
			"doubleSided":true,
			"name":"BE_ICOMP01A",
			"pbrMetallicRoughness":{
				"baseColorFactor":[
					0.800000011920929,
					0.800000011920929,
					0.800000011920929,
					1
				],
				"metallicFactor":0,
				"roughnessFactor":0.5
			}
		},
		{
			"doubleSided":true,
			"name":"BE_ICOLIG",
			"pbrMetallicRoughness":{
				"baseColorFactor":[
					0.800000011920929,
					0.800000011920929,
					0.800000011920929,
					1
				],
				"metallicFactor":0,
				"roughnessFactor":0.5
			}
		},
		{
			"doubleSided":true,
			"name":"BE_ITEWAL02",
			"pbrMetallicRoughness":{
				"baseColorFactor":[
					0.800000011920929,
					0.800000011920929,
					0.800000011920929,
					1
				],
				"metallicFactor":0,
				"roughnessFactor":0.5
			}
		},
		{
			"doubleSided":true,
			"name":"BE_IFUNCTEC01",
			"pbrMetallicRoughness":{
				"baseColorFactor":[
					0.800000011920929,
					0.800000011920929,
					0.800000011920929,
					1
				],
				"metallicFactor":0,
				"roughnessFactor":0.5
			}
		},
		{
			"doubleSided":true,
			"name":"BE_ICOMP01",
			"pbrMetallicRoughness":{
				"baseColorFactor":[
					0.800000011920929,
					0.800000011920929,
					0.800000011920929,
					1
				],
				"metallicFactor":0,
				"roughnessFactor":0.5
			}
		}
	],
	"meshes":[
		{
			"name":"Mesh",
			"primitives":[
				{
					"attributes":{
						"POSITION":0,
						"NORMAL":1,
						"TEXCOORD_0":2
					},
					"indices":3,
					"material":0
				},
				{
					"attributes":{
						"POSITION":4,
						"NORMAL":5,
						"TEXCOORD_0":6
					},
					"indices":7,
					"material":1
				},
				{
					"attributes":{
						"POSITION":8,
						"NORMAL":9,
						"TEXCOORD_0":10
					},
					"indices":11,
					"material":2
				},
				{
					"attributes":{
						"POSITION":12,
						"NORMAL":13,
						"TEXCOORD_0":14
					},
					"indices":15,
					"material":3
				},
				{
					"attributes":{
						"POSITION":16,
						"NORMAL":17,
						"TEXCOORD_0":18
					},
					"indices":19,
					"material":4
				},
				{
					"attributes":{
						"POSITION":20,
						"NORMAL":21,
						"TEXCOORD_0":22
					},
					"indices":23,
					"material":5
				},
				{
					"attributes":{
						"POSITION":24,
						"NORMAL":25,
						"TEXCOORD_0":26
					},
					"indices":27,
					"material":6
				},
				{
					"attributes":{
						"POSITION":28,
						"NORMAL":29,
						"TEXCOORD_0":30
					},
					"indices":31,
					"material":7
				},
				{
					"attributes":{
						"POSITION":32,
						"NORMAL":33,
						"TEXCOORD_0":34
					},
					"indices":35,
					"material":8
				},
				{
					"attributes":{
						"POSITION":36,
						"NORMAL":37,
						"TEXCOORD_0":38
					},
					"indices":39,
					"material":9
				}
			]
		}
	],
	"accessors":[
		{
			"bufferView":0,
			"componentType":5126,
			"count":84,
			"max":[
				6,
				1,
				5.1875
			],
			"min":[
				-6,
				0.25,
				-5.1875
			],
			"type":"VEC3"
		},
		{
			"bufferView":1,
			"componentType":5126,
			"count":84,
			"type":"VEC3"
		},
		{
			"bufferView":2,
			"componentType":5126,
			"count":84,
			"type":"VEC2"
		},
		{
			"bufferView":3,
			"componentType":5123,
			"count":144,
			"type":"SCALAR"
		},
		{
			"bufferView":4,
			"componentType":5126,
			"count":47,
			"max":[
				9.25,
				1,
				8.5
			],
			"min":[
				-8,
				-2.75,
				-8.5
			],
			"type":"VEC3"
		},
		{
			"bufferView":5,
			"componentType":5126,
			"count":47,
			"type":"VEC3"
		},
		{
			"bufferView":6,
			"componentType":5126,
			"count":47,
			"type":"VEC2"
		},
		{
			"bufferView":7,
			"componentType":5123,
			"count":78,
			"type":"SCALAR"
		},
		{
			"bufferView":8,
			"componentType":5126,
			"count":34,
			"max":[
				6,
				0.75,
				5.1875
			],
			"min":[
				-6,
				0.5,
				-5.1875
			],
			"type":"VEC3"
		},
		{
			"bufferView":9,
			"componentType":5126,
			"count":34,
			"type":"VEC3"
		},
		{
			"bufferView":10,
			"componentType":5126,
			"count":34,
			"type":"VEC2"
		},
		{
			"bufferView":11,
			"componentType":5123,
			"count":102,
			"type":"SCALAR"
		},
		{
			"bufferView":12,
			"componentType":5126,
			"count":30,
			"max":[
				8,
				0.25,
				6.9375
			],
			"min":[
				-8,
				-2.75,
				-6.9375
			],
			"type":"VEC3"
		},
		{
			"bufferView":13,
			"componentType":5126,
			"count":30,
			"type":"VEC3"
		},
		{
			"bufferView":14,
			"componentType":5126,
			"count":30,
			"type":"VEC2"
		},
		{
			"bufferView":15,
			"componentType":5123,
			"count":54,
			"type":"SCALAR"
		},
		{
			"bufferView":16,
			"componentType":5126,
			"count":18,
			"max":[
				8,
				0.25,
				6.9375
			],
			"min":[
				-8,
				0.25,
				-6.9375
			],
			"type":"VEC3"
		},
		{
			"bufferView":17,
			"componentType":5126,
			"count":18,
			"type":"VEC3"
		},
		{
			"bufferView":18,
			"componentType":5126,
			"count":18,
			"type":"VEC2"
		},
		{
			"bufferView":19,
			"componentType":5123,
			"count":54,
			"type":"SCALAR"
		},
		{
			"bufferView":20,
			"componentType":5126,
			"count":24,
			"max":[
				3.375,
				1,
				2.9375
			],
			"min":[
				-3.375,
				0.84375,
				-2.9375
			],
			"type":"VEC3"
		},
		{
			"bufferView":21,
			"componentType":5126,
			"count":24,
			"type":"VEC3"
		},
		{
			"bufferView":22,
			"componentType":5126,
			"count":24,
			"type":"VEC2"
		},
		{
			"bufferView":23,
			"componentType":5123,
			"count":36,
			"type":"SCALAR"
		},
		{
			"bufferView":24,
			"componentType":5126,
			"count":6,
			"max":[
				1.0625,
				0.875,
				0.9375
			],
			"min":[
				-1.0625,
				0.875,
				-0.9375
			],
			"type":"VEC3"
		},
		{
			"bufferView":25,
			"componentType":5126,
			"count":6,
			"type":"VEC3"
		},
		{
			"bufferView":26,
			"componentType":5126,
			"count":6,
			"type":"VEC2"
		},
		{
			"bufferView":27,
			"componentType":5123,
			"count":12,
			"type":"SCALAR"
		},
		{
			"bufferView":28,
			"componentType":5126,
			"count":111,
			"max":[
				9.25,
				1.25,
				8.5
			],
			"min":[
				-5.5,
				-2.75,
				-8.5
			],
			"type":"VEC3"
		},
		{
			"bufferView":29,
			"componentType":5126,
			"count":111,
			"type":"VEC3"
		},
		{
			"bufferView":30,
			"componentType":5126,
			"count":111,
			"type":"VEC2"
		},
		{
			"bufferView":31,
			"componentType":5123,
			"count":243,
			"type":"SCALAR"
		},
		{
			"bufferView":32,
			"componentType":5126,
			"count":9,
			"max":[
				6.4375,
				1.25,
				6.0625
			],
			"min":[
				-4.0625,
				0.75,
				-6.0625
			],
			"type":"VEC3"
		},
		{
			"bufferView":33,
			"componentType":5126,
			"count":9,
			"type":"VEC3"
		},
		{
			"bufferView":34,
			"componentType":5126,
			"count":9,
			"type":"VEC2"
		},
		{
			"bufferView":35,
			"componentType":5123,
			"count":9,
			"type":"SCALAR"
		},
		{
			"bufferView":36,
			"componentType":5126,
			"count":12,
			"max":[
				9.25,
				1.25,
				8.5
			],
			"min":[
				-5.5,
				1.25,
				-8.5
			],
			"type":"VEC3"
		},
		{
			"bufferView":37,
			"componentType":5126,
			"count":12,
			"type":"VEC3"
		},
		{
			"bufferView":38,
			"componentType":5126,
			"count":12,
			"type":"VEC2"
		},
		{
			"bufferView":39,
			"componentType":5123,
			"count":18,
			"type":"SCALAR"
		}
	],
	"bufferViews":[
		{
			"buffer":0,
			"byteLength":1008,
			"byteOffset":0,
			"target":34962
		},
		{
			"buffer":0,
			"byteLength":1008,
			"byteOffset":1008,
			"target":34962
		},
		{
			"buffer":0,
			"byteLength":672,
			"byteOffset":2016,
			"target":34962
		},
		{
			"buffer":0,
			"byteLength":288,
			"byteOffset":2688,
			"target":34963
		},
		{
			"buffer":0,
			"byteLength":564,
			"byteOffset":2976,
			"target":34962
		},
		{
			"buffer":0,
			"byteLength":564,
			"byteOffset":3540,
			"target":34962
		},
		{
			"buffer":0,
			"byteLength":376,
			"byteOffset":4104,
			"target":34962
		},
		{
			"buffer":0,
			"byteLength":156,
			"byteOffset":4480,
			"target":34963
		},
		{
			"buffer":0,
			"byteLength":408,
			"byteOffset":4636,
			"target":34962
		},
		{
			"buffer":0,
			"byteLength":408,
			"byteOffset":5044,
			"target":34962
		},
		{
			"buffer":0,
			"byteLength":272,
			"byteOffset":5452,
			"target":34962
		},
		{
			"buffer":0,
			"byteLength":204,
			"byteOffset":5724,
			"target":34963
		},
		{
			"buffer":0,
			"byteLength":360,
			"byteOffset":5928,
			"target":34962
		},
		{
			"buffer":0,
			"byteLength":360,
			"byteOffset":6288,
			"target":34962
		},
		{
			"buffer":0,
			"byteLength":240,
			"byteOffset":6648,
			"target":34962
		},
		{
			"buffer":0,
			"byteLength":108,
			"byteOffset":6888,
			"target":34963
		},
		{
			"buffer":0,
			"byteLength":216,
			"byteOffset":6996,
			"target":34962
		},
		{
			"buffer":0,
			"byteLength":216,
			"byteOffset":7212,
			"target":34962
		},
		{
			"buffer":0,
			"byteLength":144,
			"byteOffset":7428,
			"target":34962
		},
		{
			"buffer":0,
			"byteLength":108,
			"byteOffset":7572,
			"target":34963
		},
		{
			"buffer":0,
			"byteLength":288,
			"byteOffset":7680,
			"target":34962
		},
		{
			"buffer":0,
			"byteLength":288,
			"byteOffset":7968,
			"target":34962
		},
		{
			"buffer":0,
			"byteLength":192,
			"byteOffset":8256,
			"target":34962
		},
		{
			"buffer":0,
			"byteLength":72,
			"byteOffset":8448,
			"target":34963
		},
		{
			"buffer":0,
			"byteLength":72,
			"byteOffset":8520,
			"target":34962
		},
		{
			"buffer":0,
			"byteLength":72,
			"byteOffset":8592,
			"target":34962
		},
		{
			"buffer":0,
			"byteLength":48,
			"byteOffset":8664,
			"target":34962
		},
		{
			"buffer":0,
			"byteLength":24,
			"byteOffset":8712,
			"target":34963
		},
		{
			"buffer":0,
			"byteLength":1332,
			"byteOffset":8736,
			"target":34962
		},
		{
			"buffer":0,
			"byteLength":1332,
			"byteOffset":10068,
			"target":34962
		},
		{
			"buffer":0,
			"byteLength":888,
			"byteOffset":11400,
			"target":34962
		},
		{
			"buffer":0,
			"byteLength":486,
			"byteOffset":12288,
			"target":34963
		},
		{
			"buffer":0,
			"byteLength":108,
			"byteOffset":12776,
			"target":34962
		},
		{
			"buffer":0,
			"byteLength":108,
			"byteOffset":12884,
			"target":34962
		},
		{
			"buffer":0,
			"byteLength":72,
			"byteOffset":12992,
			"target":34962
		},
		{
			"buffer":0,
			"byteLength":18,
			"byteOffset":13064,
			"target":34963
		},
		{
			"buffer":0,
			"byteLength":144,
			"byteOffset":13084,
			"target":34962
		},
		{
			"buffer":0,
			"byteLength":144,
			"byteOffset":13228,
			"target":34962
		},
		{
			"buffer":0,
			"byteLength":96,
			"byteOffset":13372,
			"target":34962
		},
		{
			"buffer":0,
			"byteLength":36,
			"byteOffset":13468,
			"target":34963
		}
	],
	"buffers":[
		{
			"byteLength":13504,
			"uri":"rst_FaceStand.bin"
		}
	]
}
