{
	"asset":{
		"generator":"Khronos glTF Blender I/O v4.5.48",
		"version":"2.0"
	},
	"scene":0,
	"scenes":[
		{
			"name":"Scene",
			"nodes":[
				0
			]
		}
	],
	"nodes":[
		{
			"mesh":0,
			"name":"Object"
		}
	],
	"materials":[
		{
			"doubleSided":true,
			"name":"BD_EWAL03C",
			"pbrMetallicRoughness":{
				"baseColorFactor":[
					0.800000011920929,
					0.800000011920929,
					0.800000011920929,
					1
				],
				"metallicFactor":0,
				"roughnessFactor":0.5
			}
		},
		{
			"doubleSided":true,
			"name":"BD_EWAL13",
			"pbrMetallicRoughness":{
				"baseColorFactor":[
					0.800000011920929,
					0.800000011920929,
					0.800000011920929,
					1
				],
				"metallicFactor":0,
				"roughnessFactor":0.5
			}
		},
		{
			"doubleSided":true,
			"name":"BD_EFLO01",
			"pbrMetallicRoughness":{
				"baseColorFactor":[
					0.800000011920929,
					0.800000011920929,
					0.800000011920929,
					1
				],
				"metallicFactor":0,
				"roughnessFactor":0.5
			}
		},
		{
			"doubleSided":true,
			"name":"BD_IFLO03B",
			"pbrMetallicRoughness":{
				"baseColorFactor":[
					0.800000011920929,
					0.800000011920929,
					0.800000011920929,
					1
				],
				"metallicFactor":0,
				"roughnessFactor":0.5
			}
		},
		{
			"doubleSided":true,
			"name":"BD_IFLO01",
			"pbrMetallicRoughness":{
				"baseColorFactor":[
					0.800000011920929,
					0.800000011920929,
					0.800000011920929,
					1
				],
				"metallicFactor":0,
				"roughnessFactor":0.5
			}
		},
		{
			"doubleSided":true,
			"name":"BD_EBOR05",
			"pbrMetallicRoughness":{
				"baseColorFactor":[
					0.800000011920929,
					0.800000011920929,
					0.800000011920929,
					1
				],
				"metallicFactor":0,
				"roughnessFactor":0.5
			}
		},
		{
			"doubleSided":true,
			"name":"BD_EWAL14",
			"pbrMetallicRoughness":{
				"baseColorFactor":[
					0.800000011920929,
					0.800000011920929,
					0.800000011920929,
					1
				],
				"metallicFactor":0,
				"roughnessFactor":0.5
			}
		},
		{
			"doubleSided":true,
			"name":"BD_ECOL01A",
			"pbrMetallicRoughness":{
				"baseColorFactor":[
					0.800000011920929,
					0.800000011920929,
					0.800000011920929,
					1
				],
				"metallicFactor":0,
				"roughnessFactor":0.5
			}
		},
		{
			"doubleSided":true,
			"name":"BD_EWAL09",
			"pbrMetallicRoughness":{
				"baseColorFactor":[
					0.800000011920929,
					0.800000011920929,
					0.800000011920929,
					1
				],
				"metallicFactor":0,
				"roughnessFactor":0.5
			}
		},
		{
			"doubleSided":true,
			"name":"BD_THRESH02",
			"pbrMetallicRoughness":{
				"baseColorFactor":[
					0.800000011920929,
					0.800000011920929,
					0.800000011920929,
					1
				],
				"metallicFactor":0,
				"roughnessFactor":0.5
			}
		},
		{
			"doubleSided":true,
			"name":"BD_EWAL07",
			"pbrMetallicRoughness":{
				"baseColorFactor":[
					0.800000011920929,
					0.800000011920929,
					0.800000011920929,
					1
				],
				"metallicFactor":0,
				"roughnessFactor":0.5
			}
		},
		{
			"doubleSided":true,
			"name":"BD_ICOLIGOLA",
			"pbrMetallicRoughness":{
				"baseColorFactor":[
					0.800000011920929,
					0.800000011920929,
					0.800000011920929,
					1
				],
				"metallicFactor":0,
				"roughnessFactor":0.5
			}
		},
		{
			"doubleSided":true,
			"name":"BD_ICEILIG02",
			"pbrMetallicRoughness":{
				"baseColorFactor":[
					0.800000011920929,
					0.800000011920929,
					0.800000011920929,
					1
				],
				"metallicFactor":0,
				"roughnessFactor":0.5
			}
		}
	],
	"meshes":[
		{
			"name":"Mesh",
			"primitives":[
				{
					"attributes":{
						"POSITION":0,
						"NORMAL":1,
						"TEXCOORD_0":2
					},
					"indices":3,
					"material":0
				},
				{
					"attributes":{
						"POSITION":4,
						"NORMAL":5,
						"TEXCOORD_0":6
					},
					"indices":7,
					"material":1
				},
				{
					"attributes":{
						"POSITION":8,
						"NORMAL":9,
						"TEXCOORD_0":10
					},
					"indices":11,
					"material":2
				},
				{
					"attributes":{
						"POSITION":12,
						"NORMAL":13,
						"TEXCOORD_0":14
					},
					"indices":15,
					"material":3
				},
				{
					"attributes":{
						"POSITION":16,
						"NORMAL":17,
						"TEXCOORD_0":18
					},
					"indices":19,
					"material":4
				},
				{
					"attributes":{
						"POSITION":20,
						"NORMAL":21,
						"TEXCOORD_0":22
					},
					"indices":23,
					"material":5
				},
				{
					"attributes":{
						"POSITION":24,
						"NORMAL":25,
						"TEXCOORD_0":26
					},
					"indices":27,
					"material":6
				},
				{
					"attributes":{
						"POSITION":28,
						"NORMAL":29,
						"TEXCOORD_0":30
					},
					"indices":31,
					"material":7
				},
				{
					"attributes":{
						"POSITION":32,
						"NORMAL":33,
						"TEXCOORD_0":34
					},
					"indices":35,
					"material":8
				},
				{
					"attributes":{
						"POSITION":36,
						"NORMAL":37,
						"TEXCOORD_0":38
					},
					"indices":39,
					"material":9
				},
				{
					"attributes":{
						"POSITION":40,
						"NORMAL":41,
						"TEXCOORD_0":42
					},
					"indices":43,
					"material":10
				},
				{
					"attributes":{
						"POSITION":44,
						"NORMAL":45,
						"TEXCOORD_0":46
					},
					"indices":47,
					"material":11
				},
				{
					"attributes":{
						"POSITION":48,
						"NORMAL":49,
						"TEXCOORD_0":50
					},
					"indices":51,
					"material":12
				}
			]
		}
	],
	"accessors":[
		{
			"bufferView":0,
			"componentType":5126,
			"count":797,
			"max":[
				72,
				32,
				36
			],
			"min":[
				-72,
				-36,
				-36
			],
			"type":"VEC3"
		},
		{
			"bufferView":1,
			"componentType":5126,
			"count":797,
			"type":"VEC3"
		},
		{
			"bufferView":2,
			"componentType":5126,
			"count":797,
			"type":"VEC2"
		},
		{
			"bufferView":3,
			"componentType":5123,
			"count":1680,
			"type":"SCALAR"
		},
		{
			"bufferView":4,
			"componentType":5126,
			"count":16,
			"max":[
				32,
				-32,
				32
			],
			"min":[
				-32,
				-72,
				-32
			],
			"type":"VEC3"
		},
		{
			"bufferView":5,
			"componentType":5126,
			"count":16,
			"type":"VEC3"
		},
		{
			"bufferView":6,
			"componentType":5126,
			"count":16,
			"type":"VEC2"
		},
		{
			"bufferView":7,
			"componentType":5123,
			"count":24,
			"type":"SCALAR"
		},
		{
			"bufferView":8,
			"componentType":5126,
			"count":1143,
			"max":[
				71.5,
				36,
				64
			],
			"min":[
				-71.5,
				-72,
				-64
			],
			"type":"VEC3"
		},
		{
			"bufferView":9,
			"componentType":5126,
			"count":1143,
			"type":"VEC3"
		},
		{
			"bufferView":10,
			"componentType":5126,
			"count":1143,
			"type":"VEC2"
		},
		{
			"bufferView":11,
			"componentType":5123,
			"count":2505,
			"type":"SCALAR"
		},
		{
			"bufferView":12,
			"componentType":5126,
			"count":52,
			"max":[
				48,
				32,
				64
			],
			"min":[
				-48,
				-72,
				-64
			],
			"type":"VEC3"
		},
		{
			"bufferView":13,
			"componentType":5126,
			"count":52,
			"type":"VEC3"
		},
		{
			"bufferView":14,
			"componentType":5126,
			"count":52,
			"type":"VEC2"
		},
		{
			"bufferView":15,
			"componentType":5123,
			"count":96,
			"type":"SCALAR"
		},
		{
			"bufferView":16,
			"componentType":5126,
			"count":160,
			"max":[
				71,
				16,
				35
			],
			"min":[
				-71,
				-8,
				-35
			],
			"type":"VEC3"
		},
		{
			"bufferView":17,
			"componentType":5126,
			"count":160,
			"type":"VEC3"
		},
		{
			"bufferView":18,
			"componentType":5126,
			"count":160,
			"type":"VEC2"
		},
		{
			"bufferView":19,
			"componentType":5123,
			"count":375,
			"type":"SCALAR"
		},
		{
			"bufferView":20,
			"componentType":5126,
			"count":20,
			"max":[
				32,
				-8,
				24
			],
			"min":[
				-32,
				-12.5,
				-24
			],
			"type":"VEC3"
		},
		{
			"bufferView":21,
			"componentType":5126,
			"count":20,
			"type":"VEC3"
		},
		{
			"bufferView":22,
			"componentType":5126,
			"count":20,
			"type":"VEC2"
		},
		{
			"bufferView":23,
			"componentType":5123,
			"count":48,
			"type":"SCALAR"
		},
		{
			"bufferView":24,
			"componentType":5126,
			"count":60,
			"max":[
				32,
				16,
				20
			],
			"min":[
				-32,
				-8,
				-20
			],
			"type":"VEC3"
		},
		{
			"bufferView":25,
			"componentType":5126,
			"count":60,
			"type":"VEC3"
		},
		{
			"bufferView":26,
			"componentType":5126,
			"count":60,
			"type":"VEC2"
		},
		{
			"bufferView":27,
			"componentType":5123,
			"count":132,
			"type":"SCALAR"
		},
		{
			"bufferView":28,
			"componentType":5126,
			"count":24,
			"max":[
				24,
				-4,
				21.5
			],
			"min":[
				-24,
				-8,
				-21.5
			],
			"type":"VEC3"
		},
		{
			"bufferView":29,
			"componentType":5126,
			"count":24,
			"type":"VEC3"
		},
		{
			"bufferView":30,
			"componentType":5126,
			"count":24,
			"type":"VEC2"
		},
		{
			"bufferView":31,
			"componentType":5123,
			"count":36,
			"type":"SCALAR"
		},
		{
			"bufferView":32,
			"componentType":5126,
			"count":56,
			"max":[
				47,
				16,
				8
			],
			"min":[
				-47,
				0,
				-8
			],
			"type":"VEC3"
		},
		{
			"bufferView":33,
			"componentType":5126,
			"count":56,
			"type":"VEC3"
		},
		{
			"bufferView":34,
			"componentType":5126,
			"count":56,
			"type":"VEC2"
		},
		{
			"bufferView":35,
			"componentType":5123,
			"count":120,
			"type":"SCALAR"
		},
		{
			"bufferView":36,
			"componentType":5126,
			"count":96,
			"max":[
				24,
				8,
				23.25
			],
			"min":[
				-24,
				-4,
				-23.25
			],
			"type":"VEC3"
		},
		{
			"bufferView":37,
			"componentType":5126,
			"count":96,
			"type":"VEC3"
		},
		{
			"bufferView":38,
			"componentType":5126,
			"count":96,
			"type":"VEC2"
		},
		{
			"bufferView":39,
			"componentType":5123,
			"count":144,
			"type":"SCALAR"
		},
		{
			"bufferView":40,
			"componentType":5126,
			"count":1312,
			"max":[
				50,
				36,
				33.75
			],
			"min":[
				-50,
				8,
				-34
			],
			"type":"VEC3"
		},
		{
			"bufferView":41,
			"componentType":5126,
			"count":1312,
			"type":"VEC3"
		},
		{
			"bufferView":42,
			"componentType":5126,
			"count":1312,
			"type":"VEC2"
		},
		{
			"bufferView":43,
			"componentType":5123,
			"count":2286,
			"type":"SCALAR"
		},
		{
			"bufferView":44,
			"componentType":5126,
			"count":152,
			"max":[
				71,
				16.5,
				33.5
			],
			"min":[
				-71,
				-7.875,
				-33.75
			],
			"type":"VEC3"
		},
		{
			"bufferView":45,
			"componentType":5126,
			"count":152,
			"type":"VEC3"
		},
		{
			"bufferView":46,
			"componentType":5126,
			"count":152,
			"type":"VEC2"
		},
		{
			"bufferView":47,
			"componentType":5123,
			"count":288,
			"type":"SCALAR"
		},
		{
			"bufferView":48,
			"componentType":5126,
			"count":30,
			"max":[
				40.75,
				15.5,
				2.5
			],
			"min":[
				-40.75,
				15.5,
				-2.25
			],
			"type":"VEC3"
		},
		{
			"bufferView":49,
			"componentType":5126,
			"count":30,
			"type":"VEC3"
		},
		{
			"bufferView":50,
			"componentType":5126,
			"count":30,
			"type":"VEC2"
		},
		{
			"bufferView":51,
			"componentType":5123,
			"count":60,
			"type":"SCALAR"
		}
	],
	"bufferViews":[
		{
			"buffer":0,
			"byteLength":9564,
			"byteOffset":0,
			"target":34962
		},
		{
			"buffer":0,
			"byteLength":9564,
			"byteOffset":9564,
			"target":34962
		},
		{
			"buffer":0,
			"byteLength":6376,
			"byteOffset":19128,
			"target":34962
		},
		{
			"buffer":0,
			"byteLength":3360,
			"byteOffset":25504,
			"target":34963
		},
		{
			"buffer":0,
			"byteLength":192,
			"byteOffset":28864,
			"target":34962
		},
		{
			"buffer":0,
			"byteLength":192,
			"byteOffset":29056,
			"target":34962
		},
		{
			"buffer":0,
			"byteLength":128,
			"byteOffset":29248,
			"target":34962
		},
		{
			"buffer":0,
			"byteLength":48,
			"byteOffset":29376,
			"target":34963
		},
		{
			"buffer":0,
			"byteLength":13716,
			"byteOffset":29424,
			"target":34962
		},
		{
			"buffer":0,
			"byteLength":13716,
			"byteOffset":43140,
			"target":34962
		},
		{
			"buffer":0,
			"byteLength":9144,
			"byteOffset":56856,
			"target":34962
		},
		{
			"buffer":0,
			"byteLength":5010,
			"byteOffset":66000,
			"target":34963
		},
		{
			"buffer":0,
			"byteLength":624,
			"byteOffset":71012,
			"target":34962
		},
		{
			"buffer":0,
			"byteLength":624,
			"byteOffset":71636,
			"target":34962
		},
		{
			"buffer":0,
			"byteLength":416,
			"byteOffset":72260,
			"target":34962
		},
		{
			"buffer":0,
			"byteLength":192,
			"byteOffset":72676,
			"target":34963
		},
		{
			"buffer":0,
			"byteLength":1920,
			"byteOffset":72868,
			"target":34962
		},
		{
			"buffer":0,
			"byteLength":1920,
			"byteOffset":74788,
			"target":34962
		},
		{
			"buffer":0,
			"byteLength":1280,
			"byteOffset":76708,
			"target":34962
		},
		{
			"buffer":0,
			"byteLength":750,
			"byteOffset":77988,
			"target":34963
		},
		{
			"buffer":0,
			"byteLength":240,
			"byteOffset":78740,
			"target":34962
		},
		{
			"buffer":0,
			"byteLength":240,
			"byteOffset":78980,
			"target":34962
		},
		{
			"buffer":0,
			"byteLength":160,
			"byteOffset":79220,
			"target":34962
		},
		{
			"buffer":0,
			"byteLength":96,
			"byteOffset":79380,
			"target":34963
		},
		{
			"buffer":0,
			"byteLength":720,
			"byteOffset":79476,
			"target":34962
		},
		{
			"buffer":0,
			"byteLength":720,
			"byteOffset":80196,
			"target":34962
		},
		{
			"buffer":0,
			"byteLength":480,
			"byteOffset":80916,
			"target":34962
		},
		{
			"buffer":0,
			"byteLength":264,
			"byteOffset":81396,
			"target":34963
		},
		{
			"buffer":0,
			"byteLength":288,
			"byteOffset":81660,
			"target":34962
		},
		{
			"buffer":0,
			"byteLength":288,
			"byteOffset":81948,
			"target":34962
		},
		{
			"buffer":0,
			"byteLength":192,
			"byteOffset":82236,
			"target":34962
		},
		{
			"buffer":0,
			"byteLength":72,
			"byteOffset":82428,
			"target":34963
		},
		{
			"buffer":0,
			"byteLength":672,
			"byteOffset":82500,
			"target":34962
		},
		{
			"buffer":0,
			"byteLength":672,
			"byteOffset":83172,
			"target":34962
		},
		{
			"buffer":0,
			"byteLength":448,
			"byteOffset":83844,
			"target":34962
		},
		{
			"buffer":0,
			"byteLength":240,
			"byteOffset":84292,
			"target":34963
		},
		{
			"buffer":0,
			"byteLength":1152,
			"byteOffset":84532,
			"target":34962
		},
		{
			"buffer":0,
			"byteLength":1152,
			"byteOffset":85684,
			"target":34962
		},
		{
			"buffer":0,
			"byteLength":768,
			"byteOffset":86836,
			"target":34962
		},
		{
			"buffer":0,
			"byteLength":288,
			"byteOffset":87604,
			"target":34963
		},
		{
			"buffer":0,
			"byteLength":15744,
			"byteOffset":87892,
			"target":34962
		},
		{
			"buffer":0,
			"byteLength":15744,
			"byteOffset":103636,
			"target":34962
		},
		{
			"buffer":0,
			"byteLength":10496,
			"byteOffset":119380,
			"target":34962
		},
		{
			"buffer":0,
			"byteLength":4572,
			"byteOffset":129876,
			"target":34963
		},
		{
			"buffer":0,
			"byteLength":1824,
			"byteOffset":134448,
			"target":34962
		},
		{
			"buffer":0,
			"byteLength":1824,
			"byteOffset":136272,
			"target":34962
		},
		{
			"buffer":0,
			"byteLength":1216,
			"byteOffset":138096,
			"target":34962
		},
		{
			"buffer":0,
			"byteLength":576,
			"byteOffset":139312,
			"target":34963
		},
		{
			"buffer":0,
			"byteLength":360,
			"byteOffset":139888,
			"target":34962
		},
		{
			"buffer":0,
			"byteLength":360,
			"byteOffset":140248,
			"target":34962
		},
		{
			"buffer":0,
			"byteLength":240,
			"byteOffset":140608,
			"target":34962
		},
		{
			"buffer":0,
			"byteLength":120,
			"byteOffset":140848,
			"target":34963
		}
	],
	"buffers":[
		{
			"byteLength":140968,
			"uri":"rst_derm_midfield.bin"
		}
	]
}
