{
	"asset":{
		"generator":"Khronos glTF Blender I/O v4.5.48",
		"version":"2.0"
	},
	"scene":0,
	"scenes":[
		{
			"name":"Scene",
			"nodes":[
				0
			]
		}
	],
	"nodes":[
		{
			"mesh":0,
			"name":"Object"
		}
	],
	"materials":[
		{
			"doubleSided":true,
			"name":"BD_ICEI01",
			"pbrMetallicRoughness":{
				"baseColorFactor":[
					0.800000011920929,
					0.800000011920929,
					0.800000011920929,
					1
				],
				"metallicFactor":0,
				"roughnessFactor":0.5
			}
		},
		{
			"doubleSided":true,
			"name":"BD_IBOR03",
			"pbrMetallicRoughness":{
				"baseColorFactor":[
					0.800000011920929,
					0.800000011920929,
					0.800000011920929,
					1
				],
				"metallicFactor":0,
				"roughnessFactor":0.5
			}
		},
		{
			"doubleSided":true,
			"name":"BD_ICEI03",
			"pbrMetallicRoughness":{
				"baseColorFactor":[
					0.800000011920929,
					0.800000011920929,
					0.800000011920929,
					1
				],
				"metallicFactor":0,
				"roughnessFactor":0.5
			}
		},
		{
			"doubleSided":true,
			"name":"BD_EWAL03C",
			"pbrMetallicRoughness":{
				"baseColorFactor":[
					0.800000011920929,
					0.800000011920929,
					0.800000011920929,
					1
				],
				"metallicFactor":0,
				"roughnessFactor":0.5
			}
		},
		{
			"doubleSided":true,
			"name":"BD_IBOR10",
			"pbrMetallicRoughness":{
				"baseColorFactor":[
					0.800000011920929,
					0.800000011920929,
					0.800000011920929,
					1
				],
				"metallicFactor":0,
				"roughnessFactor":0.5
			}
		},
		{
			"doubleSided":true,
			"name":"BD_IFLO01",
			"pbrMetallicRoughness":{
				"baseColorFactor":[
					0.800000011920929,
					0.800000011920929,
					0.800000011920929,
					1
				],
				"metallicFactor":0,
				"roughnessFactor":0.5
			}
		},
		{
			"doubleSided":true,
			"name":"BD_ITEBOR01",
			"pbrMetallicRoughness":{
				"baseColorFactor":[
					0.800000011920929,
					0.800000011920929,
					0.800000011920929,
					1
				],
				"metallicFactor":0,
				"roughnessFactor":0.5
			}
		},
		{
			"doubleSided":true,
			"name":"BD_IBOR7",
			"pbrMetallicRoughness":{
				"baseColorFactor":[
					0.800000011920929,
					0.800000011920929,
					0.800000011920929,
					1
				],
				"metallicFactor":0,
				"roughnessFactor":0.5
			}
		},
		{
			"doubleSided":true,
			"name":"BD_EWAL15",
			"pbrMetallicRoughness":{
				"baseColorFactor":[
					0.800000011920929,
					0.800000011920929,
					0.800000011920929,
					1
				],
				"metallicFactor":0,
				"roughnessFactor":0.5
			}
		},
		{
			"doubleSided":true,
			"name":"BD_EWAL09",
			"pbrMetallicRoughness":{
				"baseColorFactor":[
					0.800000011920929,
					0.800000011920929,
					0.800000011920929,
					1
				],
				"metallicFactor":0,
				"roughnessFactor":0.5
			}
		},
		{
			"doubleSided":true,
			"name":"BD_ECOL01",
			"pbrMetallicRoughness":{
				"baseColorFactor":[
					0.800000011920929,
					0.800000011920929,
					0.800000011920929,
					1
				],
				"metallicFactor":0,
				"roughnessFactor":0.5
			}
		},
		{
			"doubleSided":true,
			"name":"BD_ICEI02A",
			"pbrMetallicRoughness":{
				"baseColorFactor":[
					0.800000011920929,
					0.800000011920929,
					0.800000011920929,
					1
				],
				"metallicFactor":0,
				"roughnessFactor":0.5
			}
		},
		{
			"doubleSided":true,
			"name":"BD_THRESH02A",
			"pbrMetallicRoughness":{
				"baseColorFactor":[
					0.800000011920929,
					0.800000011920929,
					0.800000011920929,
					1
				],
				"metallicFactor":0,
				"roughnessFactor":0.5
			}
		}
	],
	"meshes":[
		{
			"name":"Mesh",
			"primitives":[
				{
					"attributes":{
						"POSITION":0,
						"NORMAL":1,
						"TEXCOORD_0":2
					},
					"indices":3,
					"material":0
				},
				{
					"attributes":{
						"POSITION":4,
						"NORMAL":5,
						"TEXCOORD_0":6
					},
					"indices":7,
					"material":1
				},
				{
					"attributes":{
						"POSITION":8,
						"NORMAL":9,
						"TEXCOORD_0":10
					},
					"indices":11,
					"material":2
				},
				{
					"attributes":{
						"POSITION":12,
						"NORMAL":13,
						"TEXCOORD_0":14
					},
					"indices":15,
					"material":3
				},
				{
					"attributes":{
						"POSITION":16,
						"NORMAL":17,
						"TEXCOORD_0":18
					},
					"indices":19,
					"material":4
				},
				{
					"attributes":{
						"POSITION":20,
						"NORMAL":21,
						"TEXCOORD_0":22
					},
					"indices":23,
					"material":5
				},
				{
					"attributes":{
						"POSITION":24,
						"NORMAL":25,
						"TEXCOORD_0":26
					},
					"indices":27,
					"material":6
				},
				{
					"attributes":{
						"POSITION":28,
						"NORMAL":29,
						"TEXCOORD_0":30
					},
					"indices":31,
					"material":7
				},
				{
					"attributes":{
						"POSITION":32,
						"NORMAL":33,
						"TEXCOORD_0":34
					},
					"indices":35,
					"material":8
				},
				{
					"attributes":{
						"POSITION":36,
						"NORMAL":37,
						"TEXCOORD_0":38
					},
					"indices":39,
					"material":9
				},
				{
					"attributes":{
						"POSITION":40,
						"NORMAL":41,
						"TEXCOORD_0":42
					},
					"indices":43,
					"material":10
				},
				{
					"attributes":{
						"POSITION":44,
						"NORMAL":45,
						"TEXCOORD_0":46
					},
					"indices":47,
					"material":11
				},
				{
					"attributes":{
						"POSITION":48,
						"NORMAL":49,
						"TEXCOORD_0":50
					},
					"indices":51,
					"material":12
				}
			]
		}
	],
	"accessors":[
		{
			"bufferView":0,
			"componentType":5126,
			"count":47,
			"max":[
				13,
				14,
				12
			],
			"min":[
				-13,
				12,
				-13
			],
			"type":"VEC3"
		},
		{
			"bufferView":1,
			"componentType":5126,
			"count":47,
			"type":"VEC3"
		},
		{
			"bufferView":2,
			"componentType":5126,
			"count":47,
			"type":"VEC2"
		},
		{
			"bufferView":3,
			"componentType":5123,
			"count":117,
			"type":"SCALAR"
		},
		{
			"bufferView":4,
			"componentType":5126,
			"count":70,
			"max":[
				12,
				13,
				11
			],
			"min":[
				-12,
				12,
				-12
			],
			"type":"VEC3"
		},
		{
			"bufferView":5,
			"componentType":5126,
			"count":70,
			"type":"VEC3"
		},
		{
			"bufferView":6,
			"componentType":5126,
			"count":70,
			"type":"VEC2"
		},
		{
			"bufferView":7,
			"componentType":5123,
			"count":138,
			"type":"SCALAR"
		},
		{
			"bufferView":8,
			"componentType":5126,
			"count":170,
			"max":[
				14,
				1,
				16
			],
			"min":[
				-17,
				-8,
				-14
			],
			"type":"VEC3"
		},
		{
			"bufferView":9,
			"componentType":5126,
			"count":170,
			"type":"VEC3"
		},
		{
			"bufferView":10,
			"componentType":5126,
			"count":170,
			"type":"VEC2"
		},
		{
			"bufferView":11,
			"componentType":5123,
			"count":360,
			"type":"SCALAR"
		},
		{
			"bufferView":12,
			"componentType":5126,
			"count":110,
			"max":[
				12,
				13,
				19
			],
			"min":[
				-20,
				11,
				-12
			],
			"type":"VEC3"
		},
		{
			"bufferView":13,
			"componentType":5126,
			"count":110,
			"type":"VEC3"
		},
		{
			"bufferView":14,
			"componentType":5126,
			"count":110,
			"type":"VEC2"
		},
		{
			"bufferView":15,
			"componentType":5123,
			"count":222,
			"type":"SCALAR"
		},
		{
			"bufferView":16,
			"componentType":5126,
			"count":632,
			"max":[
				13,
				18,
				20
			],
			"min":[
				-21,
				1.0990647419736204e-15,
				-13
			],
			"type":"VEC3"
		},
		{
			"bufferView":17,
			"componentType":5126,
			"count":632,
			"type":"VEC3"
		},
		{
			"bufferView":18,
			"componentType":5126,
			"count":632,
			"type":"VEC2"
		},
		{
			"bufferView":19,
			"componentType":5123,
			"count":1302,
			"type":"SCALAR"
		},
		{
			"bufferView":20,
			"componentType":5126,
			"count":28,
			"max":[
				11,
				1,
				10
			],
			"min":[
				-11,
				1,
				-11
			],
			"type":"VEC3"
		},
		{
			"bufferView":21,
			"componentType":5126,
			"count":28,
			"type":"VEC3"
		},
		{
			"bufferView":22,
			"componentType":5126,
			"count":28,
			"type":"VEC2"
		},
		{
			"bufferView":23,
			"componentType":5123,
			"count":96,
			"type":"SCALAR"
		},
		{
			"bufferView":24,
			"componentType":5126,
			"count":32,
			"max":[
				12,
				3,
				11
			],
			"min":[
				-12,
				1,
				-12
			],
			"type":"VEC3"
		},
		{
			"bufferView":25,
			"componentType":5126,
			"count":32,
			"type":"VEC3"
		},
		{
			"bufferView":26,
			"componentType":5126,
			"count":32,
			"type":"VEC2"
		},
		{
			"bufferView":27,
			"componentType":5123,
			"count":60,
			"type":"SCALAR"
		},
		{
			"bufferView":28,
			"componentType":5126,
			"count":74,
			"max":[
				13,
				12,
				12
			],
			"min":[
				-13,
				1,
				-13
			],
			"type":"VEC3"
		},
		{
			"bufferView":29,
			"componentType":5126,
			"count":74,
			"type":"VEC3"
		},
		{
			"bufferView":30,
			"componentType":5126,
			"count":74,
			"type":"VEC2"
		},
		{
			"bufferView":31,
			"componentType":5123,
			"count":126,
			"type":"SCALAR"
		},
		{
			"bufferView":32,
			"componentType":5126,
			"count":53,
			"max":[
				13,
				12,
				12
			],
			"min":[
				-13,
				3,
				-13
			],
			"type":"VEC3"
		},
		{
			"bufferView":33,
			"componentType":5126,
			"count":53,
			"type":"VEC3"
		},
		{
			"bufferView":34,
			"componentType":5126,
			"count":53,
			"type":"VEC2"
		},
		{
			"bufferView":35,
			"componentType":5123,
			"count":111,
			"type":"SCALAR"
		},
		{
			"bufferView":36,
			"componentType":5126,
			"count":46,
			"max":[
				12,
				12,
				11
			],
			"min":[
				-12,
				3,
				-12
			],
			"type":"VEC3"
		},
		{
			"bufferView":37,
			"componentType":5126,
			"count":46,
			"type":"VEC3"
		},
		{
			"bufferView":38,
			"componentType":5126,
			"count":46,
			"type":"VEC2"
		},
		{
			"bufferView":39,
			"componentType":5123,
			"count":108,
			"type":"SCALAR"
		},
		{
			"bufferView":40,
			"componentType":5126,
			"count":4,
			"max":[
				2,
				12,
				-12
			],
			"min":[
				-2,
				3,
				-12
			],
			"type":"VEC3"
		},
		{
			"bufferView":41,
			"componentType":5126,
			"count":4,
			"type":"VEC3"
		},
		{
			"bufferView":42,
			"componentType":5126,
			"count":4,
			"type":"VEC2"
		},
		{
			"bufferView":43,
			"componentType":5123,
			"count":6,
			"type":"SCALAR"
		},
		{
			"bufferView":44,
			"componentType":5126,
			"count":42,
			"max":[
				2,
				4,
				2
			],
			"min":[
				-2,
				1,
				-2
			],
			"type":"VEC3"
		},
		{
			"bufferView":45,
			"componentType":5126,
			"count":42,
			"type":"VEC3"
		},
		{
			"bufferView":46,
			"componentType":5126,
			"count":42,
			"type":"VEC2"
		},
		{
			"bufferView":47,
			"componentType":5123,
			"count":78,
			"type":"SCALAR"
		},
		{
			"bufferView":48,
			"componentType":5126,
			"count":36,
			"max":[
				9,
				12.5,
				9
			],
			"min":[
				-9,
				12.5,
				-9
			],
			"type":"VEC3"
		},
		{
			"bufferView":49,
			"componentType":5126,
			"count":36,
			"type":"VEC3"
		},
		{
			"bufferView":50,
			"componentType":5126,
			"count":36,
			"type":"VEC2"
		},
		{
			"bufferView":51,
			"componentType":5123,
			"count":96,
			"type":"SCALAR"
		}
	],
	"bufferViews":[
		{
			"buffer":0,
			"byteLength":564,
			"byteOffset":0,
			"target":34962
		},
		{
			"buffer":0,
			"byteLength":564,
			"byteOffset":564,
			"target":34962
		},
		{
			"buffer":0,
			"byteLength":376,
			"byteOffset":1128,
			"target":34962
		},
		{
			"buffer":0,
			"byteLength":234,
			"byteOffset":1504,
			"target":34963
		},
		{
			"buffer":0,
			"byteLength":840,
			"byteOffset":1740,
			"target":34962
		},
		{
			"buffer":0,
			"byteLength":840,
			"byteOffset":2580,
			"target":34962
		},
		{
			"buffer":0,
			"byteLength":560,
			"byteOffset":3420,
			"target":34962
		},
		{
			"buffer":0,
			"byteLength":276,
			"byteOffset":3980,
			"target":34963
		},
		{
			"buffer":0,
			"byteLength":2040,
			"byteOffset":4256,
			"target":34962
		},
		{
			"buffer":0,
			"byteLength":2040,
			"byteOffset":6296,
			"target":34962
		},
		{
			"buffer":0,
			"byteLength":1360,
			"byteOffset":8336,
			"target":34962
		},
		{
			"buffer":0,
			"byteLength":720,
			"byteOffset":9696,
			"target":34963
		},
		{
			"buffer":0,
			"byteLength":1320,
			"byteOffset":10416,
			"target":34962
		},
		{
			"buffer":0,
			"byteLength":1320,
			"byteOffset":11736,
			"target":34962
		},
		{
			"buffer":0,
			"byteLength":880,
			"byteOffset":13056,
			"target":34962
		},
		{
			"buffer":0,
			"byteLength":444,
			"byteOffset":13936,
			"target":34963
		},
		{
			"buffer":0,
			"byteLength":7584,
			"byteOffset":14380,
			"target":34962
		},
		{
			"buffer":0,
			"byteLength":7584,
			"byteOffset":21964,
			"target":34962
		},
		{
			"buffer":0,
			"byteLength":5056,
			"byteOffset":29548,
			"target":34962
		},
		{
			"buffer":0,
			"byteLength":2604,
			"byteOffset":34604,
			"target":34963
		},
		{
			"buffer":0,
			"byteLength":336,
			"byteOffset":37208,
			"target":34962
		},
		{
			"buffer":0,
			"byteLength":336,
			"byteOffset":37544,
			"target":34962
		},
		{
			"buffer":0,
			"byteLength":224,
			"byteOffset":37880,
			"target":34962
		},
		{
			"buffer":0,
			"byteLength":192,
			"byteOffset":38104,
			"target":34963
		},
		{
			"buffer":0,
			"byteLength":384,
			"byteOffset":38296,
			"target":34962
		},
		{
			"buffer":0,
			"byteLength":384,
			"byteOffset":38680,
			"target":34962
		},
		{
			"buffer":0,
			"byteLength":256,
			"byteOffset":39064,
			"target":34962
		},
		{
			"buffer":0,
			"byteLength":120,
			"byteOffset":39320,
			"target":34963
		},
		{
			"buffer":0,
			"byteLength":888,
			"byteOffset":39440,
			"target":34962
		},
		{
			"buffer":0,
			"byteLength":888,
			"byteOffset":40328,
			"target":34962
		},
		{
			"buffer":0,
			"byteLength":592,
			"byteOffset":41216,
			"target":34962
		},
		{
			"buffer":0,
			"byteLength":252,
			"byteOffset":41808,
			"target":34963
		},
		{
			"buffer":0,
			"byteLength":636,
			"byteOffset":42060,
			"target":34962
		},
		{
			"buffer":0,
			"byteLength":636,
			"byteOffset":42696,
			"target":34962
		},
		{
			"buffer":0,
			"byteLength":424,
			"byteOffset":43332,
			"target":34962
		},
		{
			"buffer":0,
			"byteLength":222,
			"byteOffset":43756,
			"target":34963
		},
		{
			"buffer":0,
			"byteLength":552,
			"byteOffset":43980,
			"target":34962
		},
		{
			"buffer":0,
			"byteLength":552,
			"byteOffset":44532,
			"target":34962
		},
		{
			"buffer":0,
			"byteLength":368,
			"byteOffset":45084,
			"target":34962
		},
		{
			"buffer":0,
			"byteLength":216,
			"byteOffset":45452,
			"target":34963
		},
		{
			"buffer":0,
			"byteLength":48,
			"byteOffset":45668,
			"target":34962
		},
		{
			"buffer":0,
			"byteLength":48,
			"byteOffset":45716,
			"target":34962
		},
		{
			"buffer":0,
			"byteLength":32,
			"byteOffset":45764,
			"target":34962
		},
		{
			"buffer":0,
			"byteLength":12,
			"byteOffset":45796,
			"target":34963
		},
		{
			"buffer":0,
			"byteLength":504,
			"byteOffset":45808,
			"target":34962
		},
		{
			"buffer":0,
			"byteLength":504,
			"byteOffset":46312,
			"target":34962
		},
		{
			"buffer":0,
			"byteLength":336,
			"byteOffset":46816,
			"target":34962
		},
		{
			"buffer":0,
			"byteLength":156,
			"byteOffset":47152,
			"target":34963
		},
		{
			"buffer":0,
			"byteLength":432,
			"byteOffset":47308,
			"target":34962
		},
		{
			"buffer":0,
			"byteLength":432,
			"byteOffset":47740,
			"target":34962
		},
		{
			"buffer":0,
			"byteLength":288,
			"byteOffset":48172,
			"target":34962
		},
		{
			"buffer":0,
			"byteLength":192,
			"byteOffset":48460,
			"target":34963
		}
	],
	"buffers":[
		{
			"byteLength":48652,
			"uri":"rst_astro_bunker.bin"
		}
	]
}
