{
	"asset":{
		"generator":"Khronos glTF Blender I/O v4.5.48",
		"version":"2.0"
	},
	"scene":0,
	"scenes":[
		{
			"name":"Scene",
			"nodes":[
				0,
				1,
				2
			]
		}
	],
	"nodes":[
		{
			"mesh":0,
			"name":"Object"
		},
		{
			"mesh":1,
			"name":"Object.001"
		},
		{
			"mesh":2,
			"name":"Object.002"
		}
	],
	"materials":[
		{
			"doubleSided":true,
			"name":"mossDirt2",
			"pbrMetallicRoughness":{
				"baseColorFactor":[
					0.800000011920929,
					0.800000011920929,
					0.800000011920929,
					1
				],
				"metallicFactor":0,
				"roughnessFactor":0.5
			}
		},
		{
			"doubleSided":true,
			"name":"grassMix5",
			"pbrMetallicRoughness":{
				"baseColorFactor":[
					0.800000011920929,
					0.800000011920929,
					0.800000011920929,
					1
				],
				"metallicFactor":0,
				"roughnessFactor":0.5
			}
		},
		{
			"doubleSided":true,
			"name":"mossRock3",
			"pbrMetallicRoughness":{
				"baseColorFactor":[
					0.800000011920929,
					0.800000011920929,
					0.800000011920929,
					1
				],
				"metallicFactor":0,
				"roughnessFactor":0.5
			}
		},
		{
			"doubleSided":true,
			"name":"mossDirt2.001",
			"pbrMetallicRoughness":{
				"baseColorFactor":[
					0.800000011920929,
					0.800000011920929,
					0.800000011920929,
					1
				],
				"metallicFactor":0,
				"roughnessFactor":0.5
			}
		},
		{
			"doubleSided":true,
			"name":"grassMix5.001",
			"pbrMetallicRoughness":{
				"baseColorFactor":[
					0.800000011920929,
					0.800000011920929,
					0.800000011920929,
					1
				],
				"metallicFactor":0,
				"roughnessFactor":0.5
			}
		},
		{
			"doubleSided":true,
			"name":"mossRock3.001",
			"pbrMetallicRoughness":{
				"baseColorFactor":[
					0.800000011920929,
					0.800000011920929,
					0.800000011920929,
					1
				],
				"metallicFactor":0,
				"roughnessFactor":0.5
			}
		},
		{
			"doubleSided":true,
			"name":"mossDirt2.002",
			"pbrMetallicRoughness":{
				"baseColorFactor":[
					0.800000011920929,
					0.800000011920929,
					0.800000011920929,
					1
				],
				"metallicFactor":0,
				"roughnessFactor":0.5
			}
		},
		{
			"doubleSided":true,
			"name":"grassMix5.002",
			"pbrMetallicRoughness":{
				"baseColorFactor":[
					0.800000011920929,
					0.800000011920929,
					0.800000011920929,
					1
				],
				"metallicFactor":0,
				"roughnessFactor":0.5
			}
		},
		{
			"doubleSided":true,
			"name":"mossRock3.002",
			"pbrMetallicRoughness":{
				"baseColorFactor":[
					0.800000011920929,
					0.800000011920929,
					0.800000011920929,
					1
				],
				"metallicFactor":0,
				"roughnessFactor":0.5
			}
		}
	],
	"meshes":[
		{
			"name":"Mesh",
			"primitives":[
				{
					"attributes":{
						"POSITION":0,
						"NORMAL":1,
						"TEXCOORD_0":2
					},
					"indices":3,
					"material":0
				},
				{
					"attributes":{
						"POSITION":4,
						"NORMAL":5,
						"TEXCOORD_0":6
					},
					"indices":7,
					"material":1
				},
				{
					"attributes":{
						"POSITION":8,
						"NORMAL":9,
						"TEXCOORD_0":10
					},
					"indices":11,
					"material":2
				}
			]
		},
		{
			"name":"Mesh.001",
			"primitives":[
				{
					"attributes":{
						"POSITION":12,
						"NORMAL":13,
						"TEXCOORD_0":14
					},
					"indices":15,
					"material":3
				},
				{
					"attributes":{
						"POSITION":16,
						"NORMAL":17,
						"TEXCOORD_0":18
					},
					"indices":19,
					"material":4
				},
				{
					"attributes":{
						"POSITION":20,
						"NORMAL":21,
						"TEXCOORD_0":22
					},
					"indices":23,
					"material":5
				}
			]
		},
		{
			"name":"Mesh.002",
			"primitives":[
				{
					"attributes":{
						"POSITION":24,
						"NORMAL":25,
						"TEXCOORD_0":26
					},
					"indices":27,
					"material":6
				},
				{
					"attributes":{
						"POSITION":28,
						"NORMAL":29,
						"TEXCOORD_0":30
					},
					"indices":31,
					"material":7
				},
				{
					"attributes":{
						"POSITION":32,
						"NORMAL":33,
						"TEXCOORD_0":34
					},
					"indices":35,
					"material":8
				}
			]
		}
	],
	"accessors":[
		{
			"bufferView":0,
			"componentType":5126,
			"count":468,
			"max":[
				56,
				-21,
				92
			],
			"min":[
				-72,
				-115,
				-72
			],
			"type":"VEC3"
		},
		{
			"bufferView":1,
			"componentType":5126,
			"count":468,
			"type":"VEC3"
		},
		{
			"bufferView":2,
			"componentType":5126,
			"count":468,
			"type":"VEC2"
		},
		{
			"bufferView":3,
			"componentType":5123,
			"count":468,
			"type":"SCALAR"
		},
		{
			"bufferView":4,
			"componentType":5126,
			"count":228,
			"max":[
				55,
				-18,
				90
			],
			"min":[
				-70,
				-35,
				-70
			],
			"type":"VEC3"
		},
		{
			"bufferView":5,
			"componentType":5126,
			"count":228,
			"type":"VEC3"
		},
		{
			"bufferView":6,
			"componentType":5126,
			"count":228,
			"type":"VEC2"
		},
		{
			"bufferView":7,
			"componentType":5123,
			"count":228,
			"type":"SCALAR"
		},
		{
			"bufferView":8,
			"componentType":5126,
			"count":108,
			"max":[
				56,
				-18,
				92
			],
			"min":[
				-72,
				-23,
				-72
			],
			"type":"VEC3"
		},
		{
			"bufferView":9,
			"componentType":5126,
			"count":108,
			"type":"VEC3"
		},
		{
			"bufferView":10,
			"componentType":5126,
			"count":108,
			"type":"VEC2"
		},
		{
			"bufferView":11,
			"componentType":5123,
			"count":108,
			"type":"SCALAR"
		},
		{
			"bufferView":12,
			"componentType":5126,
			"count":336,
			"max":[
				56,
				-21,
				92
			],
			"min":[
				-72,
				-115,
				-72
			],
			"type":"VEC3"
		},
		{
			"bufferView":13,
			"componentType":5126,
			"count":336,
			"type":"VEC3"
		},
		{
			"bufferView":14,
			"componentType":5126,
			"count":336,
			"type":"VEC2"
		},
		{
			"bufferView":15,
			"componentType":5123,
			"count":336,
			"type":"SCALAR"
		},
		{
			"bufferView":16,
			"componentType":5126,
			"count":90,
			"max":[
				55,
				-18,
				90
			],
			"min":[
				-70,
				-32,
				-70
			],
			"type":"VEC3"
		},
		{
			"bufferView":17,
			"componentType":5126,
			"count":90,
			"type":"VEC3"
		},
		{
			"bufferView":18,
			"componentType":5126,
			"count":90,
			"type":"VEC2"
		},
		{
			"bufferView":19,
			"componentType":5123,
			"count":90,
			"type":"SCALAR"
		},
		{
			"bufferView":20,
			"componentType":5126,
			"count":108,
			"max":[
				56,
				-18,
				92
			],
			"min":[
				-72,
				-23,
				-72
			],
			"type":"VEC3"
		},
		{
			"bufferView":21,
			"componentType":5126,
			"count":108,
			"type":"VEC3"
		},
		{
			"bufferView":22,
			"componentType":5126,
			"count":108,
			"type":"VEC2"
		},
		{
			"bufferView":23,
			"componentType":5123,
			"count":108,
			"type":"SCALAR"
		},
		{
			"bufferView":24,
			"componentType":5126,
			"count":150,
			"max":[
				56,
				-21,
				92
			],
			"min":[
				-72,
				-115,
				-72
			],
			"type":"VEC3"
		},
		{
			"bufferView":25,
			"componentType":5126,
			"count":150,
			"type":"VEC3"
		},
		{
			"bufferView":26,
			"componentType":5126,
			"count":150,
			"type":"VEC2"
		},
		{
			"bufferView":27,
			"componentType":5123,
			"count":150,
			"type":"SCALAR"
		},
		{
			"bufferView":28,
			"componentType":5126,
			"count":60,
			"max":[
				55,
				-18,
				90
			],
			"min":[
				-70,
				-30,
				-70
			],
			"type":"VEC3"
		},
		{
			"bufferView":29,
			"componentType":5126,
			"count":60,
			"type":"VEC3"
		},
		{
			"bufferView":30,
			"componentType":5126,
			"count":60,
			"type":"VEC2"
		},
		{
			"bufferView":31,
			"componentType":5123,
			"count":60,
			"type":"SCALAR"
		},
		{
			"bufferView":32,
			"componentType":5126,
			"count":108,
			"max":[
				56,
				-18,
				92
			],
			"min":[
				-72,
				-23,
				-72
			],
			"type":"VEC3"
		},
		{
			"bufferView":33,
			"componentType":5126,
			"count":108,
			"type":"VEC3"
		},
		{
			"bufferView":34,
			"componentType":5126,
			"count":108,
			"type":"VEC2"
		},
		{
			"bufferView":35,
			"componentType":5123,
			"count":108,
			"type":"SCALAR"
		}
	],
	"bufferViews":[
		{
			"buffer":0,
			"byteLength":5616,
			"byteOffset":0,
			"target":34962
		},
		{
			"buffer":0,
			"byteLength":5616,
			"byteOffset":5616,
			"target":34962
		},
		{
			"buffer":0,
			"byteLength":3744,
			"byteOffset":11232,
			"target":34962
		},
		{
			"buffer":0,
			"byteLength":936,
			"byteOffset":14976,
			"target":34963
		},
		{
			"buffer":0,
			"byteLength":2736,
			"byteOffset":15912,
			"target":34962
		},
		{
			"buffer":0,
			"byteLength":2736,
			"byteOffset":18648,
			"target":34962
		},
		{
			"buffer":0,
			"byteLength":1824,
			"byteOffset":21384,
			"target":34962
		},
		{
			"buffer":0,
			"byteLength":456,
			"byteOffset":23208,
			"target":34963
		},
		{
			"buffer":0,
			"byteLength":1296,
			"byteOffset":23664,
			"target":34962
		},
		{
			"buffer":0,
			"byteLength":1296,
			"byteOffset":24960,
			"target":34962
		},
		{
			"buffer":0,
			"byteLength":864,
			"byteOffset":26256,
			"target":34962
		},
		{
			"buffer":0,
			"byteLength":216,
			"byteOffset":27120,
			"target":34963
		},
		{
			"buffer":0,
			"byteLength":4032,
			"byteOffset":27336,
			"target":34962
		},
		{
			"buffer":0,
			"byteLength":4032,
			"byteOffset":31368,
			"target":34962
		},
		{
			"buffer":0,
			"byteLength":2688,
			"byteOffset":35400,
			"target":34962
		},
		{
			"buffer":0,
			"byteLength":672,
			"byteOffset":38088,
			"target":34963
		},
		{
			"buffer":0,
			"byteLength":1080,
			"byteOffset":38760,
			"target":34962
		},
		{
			"buffer":0,
			"byteLength":1080,
			"byteOffset":39840,
			"target":34962
		},
		{
			"buffer":0,
			"byteLength":720,
			"byteOffset":40920,
			"target":34962
		},
		{
			"buffer":0,
			"byteLength":180,
			"byteOffset":41640,
			"target":34963
		},
		{
			"buffer":0,
			"byteLength":1296,
			"byteOffset":41820,
			"target":34962
		},
		{
			"buffer":0,
			"byteLength":1296,
			"byteOffset":43116,
			"target":34962
		},
		{
			"buffer":0,
			"byteLength":864,
			"byteOffset":44412,
			"target":34962
		},
		{
			"buffer":0,
			"byteLength":216,
			"byteOffset":45276,
			"target":34963
		},
		{
			"buffer":0,
			"byteLength":1800,
			"byteOffset":45492,
			"target":34962
		},
		{
			"buffer":0,
			"byteLength":1800,
			"byteOffset":47292,
			"target":34962
		},
		{
			"buffer":0,
			"byteLength":1200,
			"byteOffset":49092,
			"target":34962
		},
		{
			"buffer":0,
			"byteLength":300,
			"byteOffset":50292,
			"target":34963
		},
		{
			"buffer":0,
			"byteLength":720,
			"byteOffset":50592,
			"target":34962
		},
		{
			"buffer":0,
			"byteLength":720,
			"byteOffset":51312,
			"target":34962
		},
		{
			"buffer":0,
			"byteLength":480,
			"byteOffset":52032,
			"target":34962
		},
		{
			"buffer":0,
			"byteLength":120,
			"byteOffset":52512,
			"target":34963
		},
		{
			"buffer":0,
			"byteLength":1296,
			"byteOffset":52632,
			"target":34962
		},
		{
			"buffer":0,
			"byteLength":1296,
			"byteOffset":53928,
			"target":34962
		},
		{
			"buffer":0,
			"byteLength":864,
			"byteOffset":55224,
			"target":34962
		},
		{
			"buffer":0,
			"byteLength":216,
			"byteOffset":56088,
			"target":34963
		}
	],
	"buffers":[
		{
			"byteLength":56304,
			"uri":"rst_lush_floatingisle6.bin"
		}
	]
}
