{
	"asset":{
		"generator":"Khronos glTF Blender I/O v4.5.48",
		"version":"2.0"
	},
	"scene":0,
	"scenes":[
		{
			"name":"Scene",
			"nodes":[
				0
			]
		}
	],
	"nodes":[
		{
			"mesh":0,
			"name":"Object"
		}
	],
	"materials":[
		{
			"doubleSided":true,
			"name":"DS_EWALL06",
			"pbrMetallicRoughness":{
				"baseColorFactor":[
					0.800000011920929,
					0.800000011920929,
					0.800000011920929,
					1
				],
				"metallicFactor":0,
				"roughnessFactor":0.5
			}
		},
		{
			"doubleSided":true,
			"name":"DS_GENWALL",
			"pbrMetallicRoughness":{
				"baseColorFactor":[
					0.800000011920929,
					0.800000011920929,
					0.800000011920929,
					1
				],
				"metallicFactor":0,
				"roughnessFactor":0.5
			}
		},
		{
			"doubleSided":true,
			"name":"DS_EFLOOR1",
			"pbrMetallicRoughness":{
				"baseColorFactor":[
					0.800000011920929,
					0.800000011920929,
					0.800000011920929,
					1
				],
				"metallicFactor":0,
				"roughnessFactor":0.5
			}
		},
		{
			"doubleSided":true,
			"name":"DS_EWALL04",
			"pbrMetallicRoughness":{
				"baseColorFactor":[
					0.800000011920929,
					0.800000011920929,
					0.800000011920929,
					1
				],
				"metallicFactor":0,
				"roughnessFactor":0.5
			}
		},
		{
			"doubleSided":true,
			"name":"DS_EWALL03",
			"pbrMetallicRoughness":{
				"baseColorFactor":[
					0.800000011920929,
					0.800000011920929,
					0.800000011920929,
					1
				],
				"metallicFactor":0,
				"roughnessFactor":0.5
			}
		},
		{
			"doubleSided":true,
			"name":"DS_ILIG05",
			"pbrMetallicRoughness":{
				"baseColorFactor":[
					0.800000011920929,
					0.800000011920929,
					0.800000011920929,
					1
				],
				"metallicFactor":0,
				"roughnessFactor":0.5
			}
		},
		{
			"doubleSided":true,
			"name":"DS_EWALL05",
			"pbrMetallicRoughness":{
				"baseColorFactor":[
					0.800000011920929,
					0.800000011920929,
					0.800000011920929,
					1
				],
				"metallicFactor":0,
				"roughnessFactor":0.5
			}
		},
		{
			"doubleSided":true,
			"name":"DS_EWAL01A",
			"pbrMetallicRoughness":{
				"baseColorFactor":[
					0.800000011920929,
					0.800000011920929,
					0.800000011920929,
					1
				],
				"metallicFactor":0,
				"roughnessFactor":0.5
			}
		},
		{
			"doubleSided":true,
			"name":"DS_IFLO01",
			"pbrMetallicRoughness":{
				"baseColorFactor":[
					0.800000011920929,
					0.800000011920929,
					0.800000011920929,
					1
				],
				"metallicFactor":0,
				"roughnessFactor":0.5
			}
		},
		{
			"doubleSided":true,
			"name":"DS_ILAVLIGHT",
			"pbrMetallicRoughness":{
				"baseColorFactor":[
					0.800000011920929,
					0.800000011920929,
					0.800000011920929,
					1
				],
				"metallicFactor":0,
				"roughnessFactor":0.5
			}
		},
		{
			"doubleSided":true,
			"name":"DS_ILIG02",
			"pbrMetallicRoughness":{
				"baseColorFactor":[
					0.800000011920929,
					0.800000011920929,
					0.800000011920929,
					1
				],
				"metallicFactor":0,
				"roughnessFactor":0.5
			}
		}
	],
	"meshes":[
		{
			"name":"Mesh",
			"primitives":[
				{
					"attributes":{
						"POSITION":0,
						"NORMAL":1,
						"TEXCOORD_0":2
					},
					"indices":3,
					"material":0
				},
				{
					"attributes":{
						"POSITION":4,
						"NORMAL":5,
						"TEXCOORD_0":6
					},
					"indices":7,
					"material":1
				},
				{
					"attributes":{
						"POSITION":8,
						"NORMAL":9,
						"TEXCOORD_0":10
					},
					"indices":11,
					"material":2
				},
				{
					"attributes":{
						"POSITION":12,
						"NORMAL":13,
						"TEXCOORD_0":14
					},
					"indices":15,
					"material":3
				},
				{
					"attributes":{
						"POSITION":16,
						"NORMAL":17,
						"TEXCOORD_0":18
					},
					"indices":19,
					"material":4
				},
				{
					"attributes":{
						"POSITION":20,
						"NORMAL":21,
						"TEXCOORD_0":22
					},
					"indices":23,
					"material":5
				},
				{
					"attributes":{
						"POSITION":24,
						"NORMAL":25,
						"TEXCOORD_0":26
					},
					"indices":27,
					"material":6
				},
				{
					"attributes":{
						"POSITION":28,
						"NORMAL":29,
						"TEXCOORD_0":30
					},
					"indices":31,
					"material":7
				},
				{
					"attributes":{
						"POSITION":32,
						"NORMAL":33,
						"TEXCOORD_0":34
					},
					"indices":35,
					"material":8
				},
				{
					"attributes":{
						"POSITION":36,
						"NORMAL":37,
						"TEXCOORD_0":38
					},
					"indices":39,
					"material":9
				},
				{
					"attributes":{
						"POSITION":40,
						"NORMAL":41,
						"TEXCOORD_0":42
					},
					"indices":43,
					"material":10
				}
			]
		}
	],
	"accessors":[
		{
			"bufferView":0,
			"componentType":5126,
			"count":925,
			"max":[
				28.5,
				7,
				42.5
			],
			"min":[
				-39.5,
				-24.5,
				-26.5
			],
			"type":"VEC3"
		},
		{
			"bufferView":1,
			"componentType":5126,
			"count":925,
			"type":"VEC3"
		},
		{
			"bufferView":2,
			"componentType":5126,
			"count":925,
			"type":"VEC2"
		},
		{
			"bufferView":3,
			"componentType":5123,
			"count":2022,
			"type":"SCALAR"
		},
		{
			"bufferView":4,
			"componentType":5126,
			"count":658,
			"max":[
				28.5,
				12,
				42.5
			],
			"min":[
				-39.5,
				-24.5,
				-26.5
			],
			"type":"VEC3"
		},
		{
			"bufferView":5,
			"componentType":5126,
			"count":658,
			"type":"VEC3"
		},
		{
			"bufferView":6,
			"componentType":5126,
			"count":658,
			"type":"VEC2"
		},
		{
			"bufferView":7,
			"componentType":5123,
			"count":1242,
			"type":"SCALAR"
		},
		{
			"bufferView":8,
			"componentType":5126,
			"count":275,
			"max":[
				28.5,
				10,
				42.48418426513672
			],
			"min":[
				-39.5,
				0,
				-26.48418426513672
			],
			"type":"VEC3"
		},
		{
			"bufferView":9,
			"componentType":5126,
			"count":275,
			"type":"VEC3"
		},
		{
			"bufferView":10,
			"componentType":5126,
			"count":275,
			"type":"VEC2"
		},
		{
			"bufferView":11,
			"componentType":5123,
			"count":867,
			"type":"SCALAR"
		},
		{
			"bufferView":12,
			"componentType":5126,
			"count":204,
			"max":[
				28.5,
				12,
				42.5
			],
			"min":[
				-39.5,
				0,
				-26.5
			],
			"type":"VEC3"
		},
		{
			"bufferView":13,
			"componentType":5126,
			"count":204,
			"type":"VEC3"
		},
		{
			"bufferView":14,
			"componentType":5126,
			"count":204,
			"type":"VEC2"
		},
		{
			"bufferView":15,
			"componentType":5123,
			"count":420,
			"type":"SCALAR"
		},
		{
			"bufferView":16,
			"componentType":5126,
			"count":358,
			"max":[
				26.40625,
				7,
				40.375
			],
			"min":[
				-37.37039566040039,
				0,
				-24.375
			],
			"type":"VEC3"
		},
		{
			"bufferView":17,
			"componentType":5126,
			"count":358,
			"type":"VEC3"
		},
		{
			"bufferView":18,
			"componentType":5126,
			"count":358,
			"type":"VEC2"
		},
		{
			"bufferView":19,
			"componentType":5123,
			"count":744,
			"type":"SCALAR"
		},
		{
			"bufferView":20,
			"componentType":5126,
			"count":51,
			"max":[
				26.40625,
				6.96875,
				40.375
			],
			"min":[
				-37.34375,
				0.03125,
				-24.375
			],
			"type":"VEC3"
		},
		{
			"bufferView":21,
			"componentType":5126,
			"count":51,
			"type":"VEC3"
		},
		{
			"bufferView":22,
			"componentType":5126,
			"count":51,
			"type":"VEC2"
		},
		{
			"bufferView":23,
			"componentType":5123,
			"count":81,
			"type":"SCALAR"
		},
		{
			"bufferView":24,
			"componentType":5126,
			"count":294,
			"max":[
				15.75,
				7,
				28
			],
			"min":[
				-26.25,
				0,
				-12
			],
			"type":"VEC3"
		},
		{
			"bufferView":25,
			"componentType":5126,
			"count":294,
			"type":"VEC3"
		},
		{
			"bufferView":26,
			"componentType":5126,
			"count":294,
			"type":"VEC2"
		},
		{
			"bufferView":27,
			"componentType":5123,
			"count":597,
			"type":"SCALAR"
		},
		{
			"bufferView":28,
			"componentType":5126,
			"count":62,
			"max":[
				14,
				0,
				28.92630386352539
			],
			"min":[
				-24.5,
				-1,
				-12.820082664489746
			],
			"type":"VEC3"
		},
		{
			"bufferView":29,
			"componentType":5126,
			"count":62,
			"type":"VEC3"
		},
		{
			"bufferView":30,
			"componentType":5126,
			"count":62,
			"type":"VEC2"
		},
		{
			"bufferView":31,
			"componentType":5123,
			"count":144,
			"type":"SCALAR"
		},
		{
			"bufferView":32,
			"componentType":5126,
			"count":104,
			"max":[
				14,
				0,
				29
			],
			"min":[
				-24.5,
				0,
				-13
			],
			"type":"VEC3"
		},
		{
			"bufferView":33,
			"componentType":5126,
			"count":104,
			"type":"VEC3"
		},
		{
			"bufferView":34,
			"componentType":5126,
			"count":104,
			"type":"VEC2"
		},
		{
			"bufferView":35,
			"componentType":5123,
			"count":309,
			"type":"SCALAR"
		},
		{
			"bufferView":36,
			"componentType":5126,
			"count":40,
			"max":[
				12.9375,
				0.25,
				27.5
			],
			"min":[
				-23.4375,
				0,
				-11.5
			],
			"type":"VEC3"
		},
		{
			"bufferView":37,
			"componentType":5126,
			"count":40,
			"type":"VEC3"
		},
		{
			"bufferView":38,
			"componentType":5126,
			"count":40,
			"type":"VEC2"
		},
		{
			"bufferView":39,
			"componentType":5123,
			"count":66,
			"type":"SCALAR"
		},
		{
			"bufferView":40,
			"componentType":5126,
			"count":32,
			"max":[
				16.34375,
				5.625,
				12.75
			],
			"min":[
				-26.84375,
				0,
				3.25
			],
			"type":"VEC3"
		},
		{
			"bufferView":41,
			"componentType":5126,
			"count":32,
			"type":"VEC3"
		},
		{
			"bufferView":42,
			"componentType":5126,
			"count":32,
			"type":"VEC2"
		},
		{
			"bufferView":43,
			"componentType":5123,
			"count":60,
			"type":"SCALAR"
		}
	],
	"bufferViews":[
		{
			"buffer":0,
			"byteLength":11100,
			"byteOffset":0,
			"target":34962
		},
		{
			"buffer":0,
			"byteLength":11100,
			"byteOffset":11100,
			"target":34962
		},
		{
			"buffer":0,
			"byteLength":7400,
			"byteOffset":22200,
			"target":34962
		},
		{
			"buffer":0,
			"byteLength":4044,
			"byteOffset":29600,
			"target":34963
		},
		{
			"buffer":0,
			"byteLength":7896,
			"byteOffset":33644,
			"target":34962
		},
		{
			"buffer":0,
			"byteLength":7896,
			"byteOffset":41540,
			"target":34962
		},
		{
			"buffer":0,
			"byteLength":5264,
			"byteOffset":49436,
			"target":34962
		},
		{
			"buffer":0,
			"byteLength":2484,
			"byteOffset":54700,
			"target":34963
		},
		{
			"buffer":0,
			"byteLength":3300,
			"byteOffset":57184,
			"target":34962
		},
		{
			"buffer":0,
			"byteLength":3300,
			"byteOffset":60484,
			"target":34962
		},
		{
			"buffer":0,
			"byteLength":2200,
			"byteOffset":63784,
			"target":34962
		},
		{
			"buffer":0,
			"byteLength":1734,
			"byteOffset":65984,
			"target":34963
		},
		{
			"buffer":0,
			"byteLength":2448,
			"byteOffset":67720,
			"target":34962
		},
		{
			"buffer":0,
			"byteLength":2448,
			"byteOffset":70168,
			"target":34962
		},
		{
			"buffer":0,
			"byteLength":1632,
			"byteOffset":72616,
			"target":34962
		},
		{
			"buffer":0,
			"byteLength":840,
			"byteOffset":74248,
			"target":34963
		},
		{
			"buffer":0,
			"byteLength":4296,
			"byteOffset":75088,
			"target":34962
		},
		{
			"buffer":0,
			"byteLength":4296,
			"byteOffset":79384,
			"target":34962
		},
		{
			"buffer":0,
			"byteLength":2864,
			"byteOffset":83680,
			"target":34962
		},
		{
			"buffer":0,
			"byteLength":1488,
			"byteOffset":86544,
			"target":34963
		},
		{
			"buffer":0,
			"byteLength":612,
			"byteOffset":88032,
			"target":34962
		},
		{
			"buffer":0,
			"byteLength":612,
			"byteOffset":88644,
			"target":34962
		},
		{
			"buffer":0,
			"byteLength":408,
			"byteOffset":89256,
			"target":34962
		},
		{
			"buffer":0,
			"byteLength":162,
			"byteOffset":89664,
			"target":34963
		},
		{
			"buffer":0,
			"byteLength":3528,
			"byteOffset":89828,
			"target":34962
		},
		{
			"buffer":0,
			"byteLength":3528,
			"byteOffset":93356,
			"target":34962
		},
		{
			"buffer":0,
			"byteLength":2352,
			"byteOffset":96884,
			"target":34962
		},
		{
			"buffer":0,
			"byteLength":1194,
			"byteOffset":99236,
			"target":34963
		},
		{
			"buffer":0,
			"byteLength":744,
			"byteOffset":100432,
			"target":34962
		},
		{
			"buffer":0,
			"byteLength":744,
			"byteOffset":101176,
			"target":34962
		},
		{
			"buffer":0,
			"byteLength":496,
			"byteOffset":101920,
			"target":34962
		},
		{
			"buffer":0,
			"byteLength":288,
			"byteOffset":102416,
			"target":34963
		},
		{
			"buffer":0,
			"byteLength":1248,
			"byteOffset":102704,
			"target":34962
		},
		{
			"buffer":0,
			"byteLength":1248,
			"byteOffset":103952,
			"target":34962
		},
		{
			"buffer":0,
			"byteLength":832,
			"byteOffset":105200,
			"target":34962
		},
		{
			"buffer":0,
			"byteLength":618,
			"byteOffset":106032,
			"target":34963
		},
		{
			"buffer":0,
			"byteLength":480,
			"byteOffset":106652,
			"target":34962
		},
		{
			"buffer":0,
			"byteLength":480,
			"byteOffset":107132,
			"target":34962
		},
		{
			"buffer":0,
			"byteLength":320,
			"byteOffset":107612,
			"target":34962
		},
		{
			"buffer":0,
			"byteLength":132,
			"byteOffset":107932,
			"target":34963
		},
		{
			"buffer":0,
			"byteLength":384,
			"byteOffset":108064,
			"target":34962
		},
		{
			"buffer":0,
			"byteLength":384,
			"byteOffset":108448,
			"target":34962
		},
		{
			"buffer":0,
			"byteLength":256,
			"byteOffset":108832,
			"target":34962
		},
		{
			"buffer":0,
			"byteLength":120,
			"byteOffset":109088,
			"target":34963
		}
	],
	"buffers":[
		{
			"byteLength":109208,
			"uri":"SpinCycle_spbase2.bin"
		}
	]
}
