{
	"asset":{
		"generator":"Khronos glTF Blender I/O v4.5.48",
		"version":"2.0"
	},
	"scene":0,
	"scenes":[
		{
			"name":"Scene",
			"nodes":[
				0
			]
		}
	],
	"nodes":[
		{
			"mesh":0,
			"name":"Object"
		}
	],
	"materials":[
		{
			"doubleSided":true,
			"name":"CP_SCREEN",
			"pbrMetallicRoughness":{
				"baseColorFactor":[
					0.800000011920929,
					0.800000011920929,
					0.800000011920929,
					1
				],
				"metallicFactor":0,
				"roughnessFactor":0.5
			}
		},
		{
			"doubleSided":true,
			"name":"CP_ISTRFACE01F",
			"pbrMetallicRoughness":{
				"baseColorFactor":[
					0.800000011920929,
					0.800000011920929,
					0.800000011920929,
					1
				],
				"metallicFactor":0,
				"roughnessFactor":0.5
			}
		},
		{
			"doubleSided":true,
			"name":"CP_IFLO01D",
			"pbrMetallicRoughness":{
				"baseColorFactor":[
					0.800000011920929,
					0.800000011920929,
					0.800000011920929,
					1
				],
				"metallicFactor":0,
				"roughnessFactor":0.5
			}
		},
		{
			"doubleSided":true,
			"name":"CP_ISTAIR01",
			"pbrMetallicRoughness":{
				"baseColorFactor":[
					0.800000011920929,
					0.800000011920929,
					0.800000011920929,
					1
				],
				"metallicFactor":0,
				"roughnessFactor":0.5
			}
		},
		{
			"doubleSided":true,
			"name":"CP_ISPEC02CAP",
			"pbrMetallicRoughness":{
				"baseColorFactor":[
					0.800000011920929,
					0.800000011920929,
					0.800000011920929,
					1
				],
				"metallicFactor":0,
				"roughnessFactor":0.5
			}
		},
		{
			"doubleSided":true,
			"name":"CP_SAND",
			"pbrMetallicRoughness":{
				"baseColorFactor":[
					0.800000011920929,
					0.800000011920929,
					0.800000011920929,
					1
				],
				"metallicFactor":0,
				"roughnessFactor":0.5
			}
		},
		{
			"doubleSided":true,
			"name":"CP_ICOLDECO01",
			"pbrMetallicRoughness":{
				"baseColorFactor":[
					0.800000011920929,
					0.800000011920929,
					0.800000011920929,
					1
				],
				"metallicFactor":0,
				"roughnessFactor":0.5
			}
		},
		{
			"doubleSided":true,
			"name":"CP_ISPEC02B",
			"pbrMetallicRoughness":{
				"baseColorFactor":[
					0.800000011920929,
					0.800000011920929,
					0.800000011920929,
					1
				],
				"metallicFactor":0,
				"roughnessFactor":0.5
			}
		},
		{
			"doubleSided":true,
			"name":"CP_ISPEC01CAP",
			"pbrMetallicRoughness":{
				"baseColorFactor":[
					0.800000011920929,
					0.800000011920929,
					0.800000011920929,
					1
				],
				"metallicFactor":0,
				"roughnessFactor":0.5
			}
		}
	],
	"meshes":[
		{
			"name":"Mesh",
			"primitives":[
				{
					"attributes":{
						"POSITION":0,
						"NORMAL":1,
						"TEXCOORD_0":2
					},
					"indices":3,
					"material":0
				},
				{
					"attributes":{
						"POSITION":4,
						"NORMAL":5,
						"TEXCOORD_0":6
					},
					"indices":7,
					"material":1
				},
				{
					"attributes":{
						"POSITION":8,
						"NORMAL":9,
						"TEXCOORD_0":10
					},
					"indices":11,
					"material":2
				},
				{
					"attributes":{
						"POSITION":12,
						"NORMAL":13,
						"TEXCOORD_0":14
					},
					"indices":15,
					"material":3
				},
				{
					"attributes":{
						"POSITION":16,
						"NORMAL":17,
						"TEXCOORD_0":18
					},
					"indices":19,
					"material":4
				},
				{
					"attributes":{
						"POSITION":20,
						"NORMAL":21,
						"TEXCOORD_0":22
					},
					"indices":23,
					"material":5
				},
				{
					"attributes":{
						"POSITION":24,
						"NORMAL":25,
						"TEXCOORD_0":26
					},
					"indices":27,
					"material":6
				},
				{
					"attributes":{
						"POSITION":28,
						"NORMAL":29,
						"TEXCOORD_0":30
					},
					"indices":31,
					"material":7
				},
				{
					"attributes":{
						"POSITION":32,
						"NORMAL":33,
						"TEXCOORD_0":34
					},
					"indices":35,
					"material":8
				}
			]
		}
	],
	"accessors":[
		{
			"bufferView":0,
			"componentType":5126,
			"count":4,
			"max":[
				6.53125,
				-0.75,
				-1.46875
			],
			"min":[
				1.46875,
				-0.75,
				-6.53125
			],
			"type":"VEC3"
		},
		{
			"bufferView":1,
			"componentType":5126,
			"count":4,
			"type":"VEC3"
		},
		{
			"bufferView":2,
			"componentType":5126,
			"count":4,
			"type":"VEC2"
		},
		{
			"bufferView":3,
			"componentType":5123,
			"count":6,
			"type":"SCALAR"
		},
		{
			"bufferView":4,
			"componentType":5126,
			"count":48,
			"max":[
				8.5,
				-0.75,
				0.5
			],
			"min":[
				-0.5,
				-28.53125,
				-8.5
			],
			"type":"VEC3"
		},
		{
			"bufferView":5,
			"componentType":5126,
			"count":48,
			"type":"VEC3"
		},
		{
			"bufferView":6,
			"componentType":5126,
			"count":48,
			"type":"VEC2"
		},
		{
			"bufferView":7,
			"componentType":5123,
			"count":72,
			"type":"SCALAR"
		},
		{
			"bufferView":8,
			"componentType":5126,
			"count":12,
			"max":[
				10,
				-2,
				2
			],
			"min":[
				-2,
				-2,
				-10
			],
			"type":"VEC3"
		},
		{
			"bufferView":9,
			"componentType":5126,
			"count":12,
			"type":"VEC3"
		},
		{
			"bufferView":10,
			"componentType":5126,
			"count":12,
			"type":"VEC2"
		},
		{
			"bufferView":11,
			"componentType":5123,
			"count":36,
			"type":"SCALAR"
		},
		{
			"bufferView":12,
			"componentType":5126,
			"count":16,
			"max":[
				8,
				-1,
				7.010451247291272e-16
			],
			"min":[
				-7.010451247291272e-16,
				-2,
				-8
			],
			"type":"VEC3"
		},
		{
			"bufferView":13,
			"componentType":5126,
			"count":16,
			"type":"VEC3"
		},
		{
			"bufferView":14,
			"componentType":5126,
			"count":16,
			"type":"VEC2"
		},
		{
			"bufferView":15,
			"componentType":5123,
			"count":24,
			"type":"SCALAR"
		},
		{
			"bufferView":16,
			"componentType":5126,
			"count":64,
			"max":[
				10,
				-8,
				2
			],
			"min":[
				-2,
				-60,
				-10
			],
			"type":"VEC3"
		},
		{
			"bufferView":17,
			"componentType":5126,
			"count":64,
			"type":"VEC3"
		},
		{
			"bufferView":18,
			"componentType":5126,
			"count":64,
			"type":"VEC2"
		},
		{
			"bufferView":19,
			"componentType":5123,
			"count":120,
			"type":"SCALAR"
		},
		{
			"bufferView":20,
			"componentType":5126,
			"count":80,
			"max":[
				10,
				-4,
				2
			],
			"min":[
				-2,
				-44,
				-10
			],
			"type":"VEC3"
		},
		{
			"bufferView":21,
			"componentType":5126,
			"count":80,
			"type":"VEC3"
		},
		{
			"bufferView":22,
			"componentType":5126,
			"count":80,
			"type":"VEC2"
		},
		{
			"bufferView":23,
			"componentType":5123,
			"count":96,
			"type":"SCALAR"
		},
		{
			"bufferView":24,
			"componentType":5126,
			"count":20,
			"max":[
				10,
				-2,
				2
			],
			"min":[
				-2,
				-4,
				-10
			],
			"type":"VEC3"
		},
		{
			"bufferView":25,
			"componentType":5126,
			"count":20,
			"type":"VEC3"
		},
		{
			"bufferView":26,
			"componentType":5126,
			"count":20,
			"type":"VEC2"
		},
		{
			"bufferView":27,
			"componentType":5123,
			"count":36,
			"type":"SCALAR"
		},
		{
			"bufferView":28,
			"componentType":5126,
			"count":72,
			"max":[
				8,
				-9.5,
				0
			],
			"min":[
				0,
				-32,
				-8
			],
			"type":"VEC3"
		},
		{
			"bufferView":29,
			"componentType":5126,
			"count":72,
			"type":"VEC3"
		},
		{
			"bufferView":30,
			"componentType":5126,
			"count":72,
			"type":"VEC2"
		},
		{
			"bufferView":31,
			"componentType":5123,
			"count":216,
			"type":"SCALAR"
		},
		{
			"bufferView":32,
			"componentType":5126,
			"count":96,
			"max":[
				8.5,
				-11.96875,
				0.5
			],
			"min":[
				-0.5,
				-28.03125,
				-8.5
			],
			"type":"VEC3"
		},
		{
			"bufferView":33,
			"componentType":5126,
			"count":96,
			"type":"VEC3"
		},
		{
			"bufferView":34,
			"componentType":5126,
			"count":96,
			"type":"VEC2"
		},
		{
			"bufferView":35,
			"componentType":5123,
			"count":144,
			"type":"SCALAR"
		}
	],
	"bufferViews":[
		{
			"buffer":0,
			"byteLength":48,
			"byteOffset":0,
			"target":34962
		},
		{
			"buffer":0,
			"byteLength":48,
			"byteOffset":48,
			"target":34962
		},
		{
			"buffer":0,
			"byteLength":32,
			"byteOffset":96,
			"target":34962
		},
		{
			"buffer":0,
			"byteLength":12,
			"byteOffset":128,
			"target":34963
		},
		{
			"buffer":0,
			"byteLength":576,
			"byteOffset":140,
			"target":34962
		},
		{
			"buffer":0,
			"byteLength":576,
			"byteOffset":716,
			"target":34962
		},
		{
			"buffer":0,
			"byteLength":384,
			"byteOffset":1292,
			"target":34962
		},
		{
			"buffer":0,
			"byteLength":144,
			"byteOffset":1676,
			"target":34963
		},
		{
			"buffer":0,
			"byteLength":144,
			"byteOffset":1820,
			"target":34962
		},
		{
			"buffer":0,
			"byteLength":144,
			"byteOffset":1964,
			"target":34962
		},
		{
			"buffer":0,
			"byteLength":96,
			"byteOffset":2108,
			"target":34962
		},
		{
			"buffer":0,
			"byteLength":72,
			"byteOffset":2204,
			"target":34963
		},
		{
			"buffer":0,
			"byteLength":192,
			"byteOffset":2276,
			"target":34962
		},
		{
			"buffer":0,
			"byteLength":192,
			"byteOffset":2468,
			"target":34962
		},
		{
			"buffer":0,
			"byteLength":128,
			"byteOffset":2660,
			"target":34962
		},
		{
			"buffer":0,
			"byteLength":48,
			"byteOffset":2788,
			"target":34963
		},
		{
			"buffer":0,
			"byteLength":768,
			"byteOffset":2836,
			"target":34962
		},
		{
			"buffer":0,
			"byteLength":768,
			"byteOffset":3604,
			"target":34962
		},
		{
			"buffer":0,
			"byteLength":512,
			"byteOffset":4372,
			"target":34962
		},
		{
			"buffer":0,
			"byteLength":240,
			"byteOffset":4884,
			"target":34963
		},
		{
			"buffer":0,
			"byteLength":960,
			"byteOffset":5124,
			"target":34962
		},
		{
			"buffer":0,
			"byteLength":960,
			"byteOffset":6084,
			"target":34962
		},
		{
			"buffer":0,
			"byteLength":640,
			"byteOffset":7044,
			"target":34962
		},
		{
			"buffer":0,
			"byteLength":192,
			"byteOffset":7684,
			"target":34963
		},
		{
			"buffer":0,
			"byteLength":240,
			"byteOffset":7876,
			"target":34962
		},
		{
			"buffer":0,
			"byteLength":240,
			"byteOffset":8116,
			"target":34962
		},
		{
			"buffer":0,
			"byteLength":160,
			"byteOffset":8356,
			"target":34962
		},
		{
			"buffer":0,
			"byteLength":72,
			"byteOffset":8516,
			"target":34963
		},
		{
			"buffer":0,
			"byteLength":864,
			"byteOffset":8588,
			"target":34962
		},
		{
			"buffer":0,
			"byteLength":864,
			"byteOffset":9452,
			"target":34962
		},
		{
			"buffer":0,
			"byteLength":576,
			"byteOffset":10316,
			"target":34962
		},
		{
			"buffer":0,
			"byteLength":432,
			"byteOffset":10892,
			"target":34963
		},
		{
			"buffer":0,
			"byteLength":1152,
			"byteOffset":11324,
			"target":34962
		},
		{
			"buffer":0,
			"byteLength":1152,
			"byteOffset":12476,
			"target":34962
		},
		{
			"buffer":0,
			"byteLength":768,
			"byteOffset":13628,
			"target":34962
		},
		{
			"buffer":0,
			"byteLength":288,
			"byteOffset":14396,
			"target":34963
		}
	],
	"buffers":[
		{
			"byteLength":14684,
			"uri":"Xtra_Vestige_guntower.bin"
		}
	]
}
