{
	"asset":{
		"generator":"Khronos glTF Blender I/O v4.5.48",
		"version":"2.0"
	},
	"scene":0,
	"scenes":[
		{
			"name":"Scene",
			"nodes":[
				0
			]
		}
	],
	"nodes":[
		{
			"mesh":0,
			"name":"Object"
		}
	],
	"materials":[
		{
			"doubleSided":true,
			"name":"BD_IFLO01",
			"pbrMetallicRoughness":{
				"baseColorFactor":[
					0.800000011920929,
					0.800000011920929,
					0.800000011920929,
					1
				],
				"metallicFactor":0,
				"roughnessFactor":0.5
			}
		},
		{
			"doubleSided":true,
			"name":"BD_ESPE01",
			"pbrMetallicRoughness":{
				"baseColorFactor":[
					0.800000011920929,
					0.800000011920929,
					0.800000011920929,
					1
				],
				"metallicFactor":0,
				"roughnessFactor":0.5
			}
		},
		{
			"doubleSided":true,
			"name":"BD_EWAL03C",
			"pbrMetallicRoughness":{
				"baseColorFactor":[
					0.800000011920929,
					0.800000011920929,
					0.800000011920929,
					1
				],
				"metallicFactor":0,
				"roughnessFactor":0.5
			}
		},
		{
			"doubleSided":true,
			"name":"BD_ICHUTE02A",
			"pbrMetallicRoughness":{
				"baseColorFactor":[
					0.800000011920929,
					0.800000011920929,
					0.800000011920929,
					1
				],
				"metallicFactor":0,
				"roughnessFactor":0.5
			}
		},
		{
			"doubleSided":true,
			"name":"BD_EWAL14",
			"pbrMetallicRoughness":{
				"baseColorFactor":[
					0.800000011920929,
					0.800000011920929,
					0.800000011920929,
					1
				],
				"metallicFactor":0,
				"roughnessFactor":0.5
			}
		}
	],
	"meshes":[
		{
			"name":"Mesh",
			"primitives":[
				{
					"attributes":{
						"POSITION":0,
						"NORMAL":1,
						"TEXCOORD_0":2
					},
					"indices":3,
					"material":0
				},
				{
					"attributes":{
						"POSITION":4,
						"NORMAL":5,
						"TEXCOORD_0":6
					},
					"indices":7,
					"material":1
				},
				{
					"attributes":{
						"POSITION":8,
						"NORMAL":9,
						"TEXCOORD_0":10
					},
					"indices":11,
					"material":2
				},
				{
					"attributes":{
						"POSITION":12,
						"NORMAL":13,
						"TEXCOORD_0":14
					},
					"indices":15,
					"material":3
				},
				{
					"attributes":{
						"POSITION":16,
						"NORMAL":17,
						"TEXCOORD_0":18
					},
					"indices":19,
					"material":4
				}
			]
		}
	],
	"accessors":[
		{
			"bufferView":0,
			"componentType":5126,
			"count":46,
			"max":[
				18,
				-7,
				2
			],
			"min":[
				-2,
				-8,
				-18
			],
			"type":"VEC3"
		},
		{
			"bufferView":1,
			"componentType":5126,
			"count":46,
			"type":"VEC3"
		},
		{
			"bufferView":2,
			"componentType":5126,
			"count":46,
			"type":"VEC2"
		},
		{
			"bufferView":3,
			"componentType":5123,
			"count":66,
			"type":"SCALAR"
		},
		{
			"bufferView":4,
			"componentType":5126,
			"count":4,
			"max":[
				14,
				-7,
				-2
			],
			"min":[
				2,
				-7,
				-14
			],
			"type":"VEC3"
		},
		{
			"bufferView":5,
			"componentType":5126,
			"count":4,
			"type":"VEC3"
		},
		{
			"bufferView":6,
			"componentType":5126,
			"count":4,
			"type":"VEC2"
		},
		{
			"bufferView":7,
			"componentType":5123,
			"count":6,
			"type":"SCALAR"
		},
		{
			"bufferView":8,
			"componentType":5126,
			"count":13,
			"max":[
				34,
				-10,
				18
			],
			"min":[
				-18,
				-10,
				-34
			],
			"type":"VEC3"
		},
		{
			"bufferView":9,
			"componentType":5126,
			"count":13,
			"type":"VEC3"
		},
		{
			"bufferView":10,
			"componentType":5126,
			"count":13,
			"type":"VEC2"
		},
		{
			"bufferView":11,
			"componentType":5123,
			"count":45,
			"type":"SCALAR"
		},
		{
			"bufferView":12,
			"componentType":5126,
			"count":63,
			"max":[
				34,
				-8,
				18
			],
			"min":[
				-18,
				-8,
				-34
			],
			"type":"VEC3"
		},
		{
			"bufferView":13,
			"componentType":5126,
			"count":63,
			"type":"VEC3"
		},
		{
			"bufferView":14,
			"componentType":5126,
			"count":63,
			"type":"VEC2"
		},
		{
			"bufferView":15,
			"componentType":5123,
			"count":153,
			"type":"SCALAR"
		},
		{
			"bufferView":16,
			"componentType":5126,
			"count":40,
			"max":[
				34,
				-8,
				18
			],
			"min":[
				-18,
				-10,
				-34
			],
			"type":"VEC3"
		},
		{
			"bufferView":17,
			"componentType":5126,
			"count":40,
			"type":"VEC3"
		},
		{
			"bufferView":18,
			"componentType":5126,
			"count":40,
			"type":"VEC2"
		},
		{
			"bufferView":19,
			"componentType":5123,
			"count":66,
			"type":"SCALAR"
		}
	],
	"bufferViews":[
		{
			"buffer":0,
			"byteLength":552,
			"byteOffset":0,
			"target":34962
		},
		{
			"buffer":0,
			"byteLength":552,
			"byteOffset":552,
			"target":34962
		},
		{
			"buffer":0,
			"byteLength":368,
			"byteOffset":1104,
			"target":34962
		},
		{
			"buffer":0,
			"byteLength":132,
			"byteOffset":1472,
			"target":34963
		},
		{
			"buffer":0,
			"byteLength":48,
			"byteOffset":1604,
			"target":34962
		},
		{
			"buffer":0,
			"byteLength":48,
			"byteOffset":1652,
			"target":34962
		},
		{
			"buffer":0,
			"byteLength":32,
			"byteOffset":1700,
			"target":34962
		},
		{
			"buffer":0,
			"byteLength":12,
			"byteOffset":1732,
			"target":34963
		},
		{
			"buffer":0,
			"byteLength":156,
			"byteOffset":1744,
			"target":34962
		},
		{
			"buffer":0,
			"byteLength":156,
			"byteOffset":1900,
			"target":34962
		},
		{
			"buffer":0,
			"byteLength":104,
			"byteOffset":2056,
			"target":34962
		},
		{
			"buffer":0,
			"byteLength":90,
			"byteOffset":2160,
			"target":34963
		},
		{
			"buffer":0,
			"byteLength":756,
			"byteOffset":2252,
			"target":34962
		},
		{
			"buffer":0,
			"byteLength":756,
			"byteOffset":3008,
			"target":34962
		},
		{
			"buffer":0,
			"byteLength":504,
			"byteOffset":3764,
			"target":34962
		},
		{
			"buffer":0,
			"byteLength":306,
			"byteOffset":4268,
			"target":34963
		},
		{
			"buffer":0,
			"byteLength":480,
			"byteOffset":4576,
			"target":34962
		},
		{
			"buffer":0,
			"byteLength":480,
			"byteOffset":5056,
			"target":34962
		},
		{
			"buffer":0,
			"byteLength":320,
			"byteOffset":5536,
			"target":34962
		},
		{
			"buffer":0,
			"byteLength":132,
			"byteOffset":5856,
			"target":34963
		}
	],
	"buffers":[
		{
			"byteLength":5988,
			"uri":"Xtra_Crown_tri_flag.bin"
		}
	]
}
