{
	"asset":{
		"generator":"Khronos glTF Blender I/O v4.5.48",
		"version":"2.0"
	},
	"scene":0,
	"scenes":[
		{
			"name":"Scene",
			"nodes":[
				0
			]
		}
	],
	"nodes":[
		{
			"mesh":0,
			"name":"Object"
		}
	],
	"materials":[
		{
			"doubleSided":true,
			"name":"DS_ILIG05",
			"pbrMetallicRoughness":{
				"baseColorFactor":[
					0.800000011920929,
					0.800000011920929,
					0.800000011920929,
					1
				],
				"metallicFactor":0,
				"roughnessFactor":0.5
			}
		},
		{
			"doubleSided":true,
			"name":"DS_IWAL01",
			"pbrMetallicRoughness":{
				"baseColorFactor":[
					0.800000011920929,
					0.800000011920929,
					0.800000011920929,
					1
				],
				"metallicFactor":0,
				"roughnessFactor":0.5
			}
		},
		{
			"doubleSided":true,
			"name":"DS_EWALL07",
			"pbrMetallicRoughness":{
				"baseColorFactor":[
					0.800000011920929,
					0.800000011920929,
					0.800000011920929,
					1
				],
				"metallicFactor":0,
				"roughnessFactor":0.5
			}
		},
		{
			"doubleSided":true,
			"name":"DS_GENFLOOR",
			"pbrMetallicRoughness":{
				"baseColorFactor":[
					0.800000011920929,
					0.800000011920929,
					0.800000011920929,
					1
				],
				"metallicFactor":0,
				"roughnessFactor":0.5
			}
		},
		{
			"doubleSided":true,
			"name":"DS_TECHWALL_2",
			"pbrMetallicRoughness":{
				"baseColorFactor":[
					0.800000011920929,
					0.800000011920929,
					0.800000011920929,
					1
				],
				"metallicFactor":0,
				"roughnessFactor":0.5
			}
		},
		{
			"doubleSided":true,
			"name":"DS_GENWALL",
			"pbrMetallicRoughness":{
				"baseColorFactor":[
					0.800000011920929,
					0.800000011920929,
					0.800000011920929,
					1
				],
				"metallicFactor":0,
				"roughnessFactor":0.5
			}
		},
		{
			"doubleSided":true,
			"name":"DS_IFLO01",
			"pbrMetallicRoughness":{
				"baseColorFactor":[
					0.800000011920929,
					0.800000011920929,
					0.800000011920929,
					1
				],
				"metallicFactor":0,
				"roughnessFactor":0.5
			}
		},
		{
			"doubleSided":true,
			"name":"DS_EWAL01BASE",
			"pbrMetallicRoughness":{
				"baseColorFactor":[
					0.800000011920929,
					0.800000011920929,
					0.800000011920929,
					1
				],
				"metallicFactor":0,
				"roughnessFactor":0.5
			}
		},
		{
			"doubleSided":true,
			"name":"DS_EWAL01A",
			"pbrMetallicRoughness":{
				"baseColorFactor":[
					0.800000011920929,
					0.800000011920929,
					0.800000011920929,
					1
				],
				"metallicFactor":0,
				"roughnessFactor":0.5
			}
		},
		{
			"doubleSided":true,
			"name":"DS_IFLO02",
			"pbrMetallicRoughness":{
				"baseColorFactor":[
					0.800000011920929,
					0.800000011920929,
					0.800000011920929,
					1
				],
				"metallicFactor":0,
				"roughnessFactor":0.5
			}
		},
		{
			"doubleSided":true,
			"name":"DS_IWAL01A",
			"pbrMetallicRoughness":{
				"baseColorFactor":[
					0.800000011920929,
					0.800000011920929,
					0.800000011920929,
					1
				],
				"metallicFactor":0,
				"roughnessFactor":0.5
			}
		},
		{
			"doubleSided":true,
			"name":"DS_EWAL02",
			"pbrMetallicRoughness":{
				"baseColorFactor":[
					0.800000011920929,
					0.800000011920929,
					0.800000011920929,
					1
				],
				"metallicFactor":0,
				"roughnessFactor":0.5
			}
		},
		{
			"doubleSided":true,
			"name":"DS_EWALDECO08",
			"pbrMetallicRoughness":{
				"baseColorFactor":[
					0.800000011920929,
					0.800000011920929,
					0.800000011920929,
					1
				],
				"metallicFactor":0,
				"roughnessFactor":0.5
			}
		},
		{
			"doubleSided":true,
			"name":"DS_IBOR02A",
			"pbrMetallicRoughness":{
				"baseColorFactor":[
					0.800000011920929,
					0.800000011920929,
					0.800000011920929,
					1
				],
				"metallicFactor":0,
				"roughnessFactor":0.5
			}
		},
		{
			"doubleSided":true,
			"name":"DS_EWALL06",
			"pbrMetallicRoughness":{
				"baseColorFactor":[
					0.800000011920929,
					0.800000011920929,
					0.800000011920929,
					1
				],
				"metallicFactor":0,
				"roughnessFactor":0.5
			}
		},
		{
			"doubleSided":true,
			"name":"DS_ILIG06",
			"pbrMetallicRoughness":{
				"baseColorFactor":[
					0.800000011920929,
					0.800000011920929,
					0.800000011920929,
					1
				],
				"metallicFactor":0,
				"roughnessFactor":0.5
			}
		},
		{
			"doubleSided":true,
			"name":"DS_IFLO04",
			"pbrMetallicRoughness":{
				"baseColorFactor":[
					0.800000011920929,
					0.800000011920929,
					0.800000011920929,
					1
				],
				"metallicFactor":0,
				"roughnessFactor":0.5
			}
		},
		{
			"doubleSided":true,
			"name":"DS_IFLO03",
			"pbrMetallicRoughness":{
				"baseColorFactor":[
					0.800000011920929,
					0.800000011920929,
					0.800000011920929,
					1
				],
				"metallicFactor":0,
				"roughnessFactor":0.5
			}
		},
		{
			"doubleSided":true,
			"name":"DS_ILIG03",
			"pbrMetallicRoughness":{
				"baseColorFactor":[
					0.800000011920929,
					0.800000011920929,
					0.800000011920929,
					1
				],
				"metallicFactor":0,
				"roughnessFactor":0.5
			}
		},
		{
			"doubleSided":true,
			"name":"DS_SCREEN",
			"pbrMetallicRoughness":{
				"baseColorFactor":[
					0.800000011920929,
					0.800000011920929,
					0.800000011920929,
					1
				],
				"metallicFactor":0,
				"roughnessFactor":0.5
			}
		},
		{
			"doubleSided":true,
			"name":"DS_IWALDECO02",
			"pbrMetallicRoughness":{
				"baseColorFactor":[
					0.800000011920929,
					0.800000011920929,
					0.800000011920929,
					1
				],
				"metallicFactor":0,
				"roughnessFactor":0.5
			}
		}
	],
	"meshes":[
		{
			"name":"Mesh",
			"primitives":[
				{
					"attributes":{
						"POSITION":0,
						"NORMAL":1,
						"TEXCOORD_0":2
					},
					"indices":3,
					"material":0
				},
				{
					"attributes":{
						"POSITION":4,
						"NORMAL":5,
						"TEXCOORD_0":6
					},
					"indices":7,
					"material":1
				},
				{
					"attributes":{
						"POSITION":8,
						"NORMAL":9,
						"TEXCOORD_0":10
					},
					"indices":11,
					"material":2
				},
				{
					"attributes":{
						"POSITION":12,
						"NORMAL":13,
						"TEXCOORD_0":14
					},
					"indices":15,
					"material":3
				},
				{
					"attributes":{
						"POSITION":16,
						"NORMAL":17,
						"TEXCOORD_0":18
					},
					"indices":19,
					"material":4
				},
				{
					"attributes":{
						"POSITION":20,
						"NORMAL":21,
						"TEXCOORD_0":22
					},
					"indices":23,
					"material":5
				},
				{
					"attributes":{
						"POSITION":24,
						"NORMAL":25,
						"TEXCOORD_0":26
					},
					"indices":27,
					"material":6
				},
				{
					"attributes":{
						"POSITION":28,
						"NORMAL":29,
						"TEXCOORD_0":30
					},
					"indices":31,
					"material":7
				},
				{
					"attributes":{
						"POSITION":32,
						"NORMAL":33,
						"TEXCOORD_0":34
					},
					"indices":35,
					"material":8
				},
				{
					"attributes":{
						"POSITION":36,
						"NORMAL":37,
						"TEXCOORD_0":38
					},
					"indices":39,
					"material":9
				},
				{
					"attributes":{
						"POSITION":40,
						"NORMAL":41,
						"TEXCOORD_0":42
					},
					"indices":43,
					"material":10
				},
				{
					"attributes":{
						"POSITION":44,
						"NORMAL":45,
						"TEXCOORD_0":46
					},
					"indices":47,
					"material":11
				},
				{
					"attributes":{
						"POSITION":48,
						"NORMAL":49,
						"TEXCOORD_0":50
					},
					"indices":51,
					"material":12
				},
				{
					"attributes":{
						"POSITION":52,
						"NORMAL":53,
						"TEXCOORD_0":54
					},
					"indices":55,
					"material":13
				},
				{
					"attributes":{
						"POSITION":56,
						"NORMAL":57,
						"TEXCOORD_0":58
					},
					"indices":59,
					"material":14
				},
				{
					"attributes":{
						"POSITION":60,
						"NORMAL":61,
						"TEXCOORD_0":62
					},
					"indices":63,
					"material":15
				},
				{
					"attributes":{
						"POSITION":64,
						"NORMAL":65,
						"TEXCOORD_0":66
					},
					"indices":67,
					"material":16
				},
				{
					"attributes":{
						"POSITION":68,
						"NORMAL":69,
						"TEXCOORD_0":70
					},
					"indices":71,
					"material":17
				},
				{
					"attributes":{
						"POSITION":72,
						"NORMAL":73,
						"TEXCOORD_0":74
					},
					"indices":75,
					"material":18
				},
				{
					"attributes":{
						"POSITION":76,
						"NORMAL":77,
						"TEXCOORD_0":78
					},
					"indices":79,
					"material":19
				},
				{
					"attributes":{
						"POSITION":80,
						"NORMAL":81,
						"TEXCOORD_0":82
					},
					"indices":83,
					"material":20
				}
			]
		}
	],
	"accessors":[
		{
			"bufferView":0,
			"componentType":5126,
			"count":104,
			"max":[
				12.5,
				77,
				26.5
			],
			"min":[
				-11.5,
				49,
				-26.5
			],
			"type":"VEC3"
		},
		{
			"bufferView":1,
			"componentType":5126,
			"count":104,
			"type":"VEC3"
		},
		{
			"bufferView":2,
			"componentType":5126,
			"count":104,
			"type":"VEC2"
		},
		{
			"bufferView":3,
			"componentType":5123,
			"count":174,
			"type":"SCALAR"
		},
		{
			"bufferView":4,
			"componentType":5126,
			"count":442,
			"max":[
				14,
				80,
				28
			],
			"min":[
				-13,
				49,
				-28
			],
			"type":"VEC3"
		},
		{
			"bufferView":5,
			"componentType":5126,
			"count":442,
			"type":"VEC3"
		},
		{
			"bufferView":6,
			"componentType":5126,
			"count":442,
			"type":"VEC2"
		},
		{
			"bufferView":7,
			"componentType":5123,
			"count":870,
			"type":"SCALAR"
		},
		{
			"bufferView":8,
			"componentType":5126,
			"count":152,
			"max":[
				12,
				56,
				16
			],
			"min":[
				2,
				48,
				-16
			],
			"type":"VEC3"
		},
		{
			"bufferView":9,
			"componentType":5126,
			"count":152,
			"type":"VEC3"
		},
		{
			"bufferView":10,
			"componentType":5126,
			"count":152,
			"type":"VEC2"
		},
		{
			"bufferView":11,
			"componentType":5123,
			"count":336,
			"type":"SCALAR"
		},
		{
			"bufferView":12,
			"componentType":5126,
			"count":733,
			"max":[
				13,
				61,
				27
			],
			"min":[
				-28,
				36,
				-27
			],
			"type":"VEC3"
		},
		{
			"bufferView":13,
			"componentType":5126,
			"count":733,
			"type":"VEC3"
		},
		{
			"bufferView":14,
			"componentType":5126,
			"count":733,
			"type":"VEC2"
		},
		{
			"bufferView":15,
			"componentType":5123,
			"count":2118,
			"type":"SCALAR"
		},
		{
			"bufferView":16,
			"componentType":5126,
			"count":12,
			"max":[
				12.5,
				56,
				0.5
			],
			"min":[
				12,
				55.5,
				-0.5
			],
			"type":"VEC3"
		},
		{
			"bufferView":17,
			"componentType":5126,
			"count":12,
			"type":"VEC3"
		},
		{
			"bufferView":18,
			"componentType":5126,
			"count":12,
			"type":"VEC2"
		},
		{
			"bufferView":19,
			"componentType":5123,
			"count":18,
			"type":"SCALAR"
		},
		{
			"bufferView":20,
			"componentType":5126,
			"count":117,
			"max":[
				12,
				58,
				12
			],
			"min":[
				-28,
				43,
				-12
			],
			"type":"VEC3"
		},
		{
			"bufferView":21,
			"componentType":5126,
			"count":117,
			"type":"VEC3"
		},
		{
			"bufferView":22,
			"componentType":5126,
			"count":117,
			"type":"VEC2"
		},
		{
			"bufferView":23,
			"componentType":5123,
			"count":270,
			"type":"SCALAR"
		},
		{
			"bufferView":24,
			"componentType":5126,
			"count":54,
			"max":[
				12,
				52,
				16
			],
			"min":[
				1,
				48,
				-16
			],
			"type":"VEC3"
		},
		{
			"bufferView":25,
			"componentType":5126,
			"count":54,
			"type":"VEC3"
		},
		{
			"bufferView":26,
			"componentType":5126,
			"count":54,
			"type":"VEC2"
		},
		{
			"bufferView":27,
			"componentType":5123,
			"count":114,
			"type":"SCALAR"
		},
		{
			"bufferView":28,
			"componentType":5126,
			"count":238,
			"max":[
				12,
				66,
				26
			],
			"min":[
				-11,
				56,
				-26
			],
			"type":"VEC3"
		},
		{
			"bufferView":29,
			"componentType":5126,
			"count":238,
			"type":"VEC3"
		},
		{
			"bufferView":30,
			"componentType":5126,
			"count":238,
			"type":"VEC2"
		},
		{
			"bufferView":31,
			"componentType":5123,
			"count":570,
			"type":"SCALAR"
		},
		{
			"bufferView":32,
			"componentType":5126,
			"count":1241,
			"max":[
				12,
				96,
				26
			],
			"min":[
				-11,
				56,
				-26
			],
			"type":"VEC3"
		},
		{
			"bufferView":33,
			"componentType":5126,
			"count":1241,
			"type":"VEC3"
		},
		{
			"bufferView":34,
			"componentType":5126,
			"count":1241,
			"type":"VEC2"
		},
		{
			"bufferView":35,
			"componentType":5123,
			"count":3093,
			"type":"SCALAR"
		},
		{
			"bufferView":36,
			"componentType":5126,
			"count":189,
			"max":[
				12,
				76,
				26
			],
			"min":[
				-11,
				58,
				-26
			],
			"type":"VEC3"
		},
		{
			"bufferView":37,
			"componentType":5126,
			"count":189,
			"type":"VEC3"
		},
		{
			"bufferView":38,
			"componentType":5126,
			"count":189,
			"type":"VEC2"
		},
		{
			"bufferView":39,
			"componentType":5123,
			"count":462,
			"type":"SCALAR"
		},
		{
			"bufferView":40,
			"componentType":5126,
			"count":870,
			"max":[
				14,
				81,
				28
			],
			"min":[
				-13,
				58,
				-28
			],
			"type":"VEC3"
		},
		{
			"bufferView":41,
			"componentType":5126,
			"count":870,
			"type":"VEC3"
		},
		{
			"bufferView":42,
			"componentType":5126,
			"count":870,
			"type":"VEC2"
		},
		{
			"bufferView":43,
			"componentType":5123,
			"count":1686,
			"type":"SCALAR"
		},
		{
			"bufferView":44,
			"componentType":5126,
			"count":718,
			"max":[
				13,
				96,
				25
			],
			"min":[
				-12,
				43,
				-25
			],
			"type":"VEC3"
		},
		{
			"bufferView":45,
			"componentType":5126,
			"count":718,
			"type":"VEC3"
		},
		{
			"bufferView":46,
			"componentType":5126,
			"count":718,
			"type":"VEC2"
		},
		{
			"bufferView":47,
			"componentType":5123,
			"count":1794,
			"type":"SCALAR"
		},
		{
			"bufferView":48,
			"componentType":5126,
			"count":10,
			"max":[
				7,
				71,
				25
			],
			"min":[
				7,
				65,
				-25
			],
			"type":"VEC3"
		},
		{
			"bufferView":49,
			"componentType":5126,
			"count":10,
			"type":"VEC3"
		},
		{
			"bufferView":50,
			"componentType":5126,
			"count":10,
			"type":"VEC2"
		},
		{
			"bufferView":51,
			"componentType":5123,
			"count":18,
			"type":"SCALAR"
		},
		{
			"bufferView":52,
			"componentType":5126,
			"count":132,
			"max":[
				14,
				77.5,
				28
			],
			"min":[
				-13,
				76,
				-28
			],
			"type":"VEC3"
		},
		{
			"bufferView":53,
			"componentType":5126,
			"count":132,
			"type":"VEC3"
		},
		{
			"bufferView":54,
			"componentType":5126,
			"count":132,
			"type":"VEC2"
		},
		{
			"bufferView":55,
			"componentType":5123,
			"count":288,
			"type":"SCALAR"
		},
		{
			"bufferView":56,
			"componentType":5126,
			"count":764,
			"max":[
				11,
				81,
				25
			],
			"min":[
				-10,
				60,
				-25
			],
			"type":"VEC3"
		},
		{
			"bufferView":57,
			"componentType":5126,
			"count":764,
			"type":"VEC3"
		},
		{
			"bufferView":58,
			"componentType":5126,
			"count":764,
			"type":"VEC2"
		},
		{
			"bufferView":59,
			"componentType":5123,
			"count":1284,
			"type":"SCALAR"
		},
		{
			"bufferView":60,
			"componentType":5126,
			"count":132,
			"max":[
				10.875,
				79.5,
				24.875
			],
			"min":[
				-9.875,
				60,
				-24.875
			],
			"type":"VEC3"
		},
		{
			"bufferView":61,
			"componentType":5126,
			"count":132,
			"type":"VEC3"
		},
		{
			"bufferView":62,
			"componentType":5126,
			"count":132,
			"type":"VEC2"
		},
		{
			"bufferView":63,
			"componentType":5123,
			"count":288,
			"type":"SCALAR"
		},
		{
			"bufferView":64,
			"componentType":5126,
			"count":99,
			"max":[
				13.5,
				76,
				27.5
			],
			"min":[
				-12.5,
				76,
				-27.5
			],
			"type":"VEC3"
		},
		{
			"bufferView":65,
			"componentType":5126,
			"count":99,
			"type":"VEC3"
		},
		{
			"bufferView":66,
			"componentType":5126,
			"count":99,
			"type":"VEC2"
		},
		{
			"bufferView":67,
			"componentType":5123,
			"count":285,
			"type":"SCALAR"
		},
		{
			"bufferView":68,
			"componentType":5126,
			"count":16,
			"max":[
				-0.5,
				47.5,
				-2.25
			],
			"min":[
				-0.5,
				46.5,
				-6
			],
			"type":"VEC3"
		},
		{
			"bufferView":69,
			"componentType":5126,
			"count":16,
			"type":"VEC3"
		},
		{
			"bufferView":70,
			"componentType":5126,
			"count":16,
			"type":"VEC2"
		},
		{
			"bufferView":71,
			"componentType":5123,
			"count":36,
			"type":"SCALAR"
		},
		{
			"bufferView":72,
			"componentType":5126,
			"count":8,
			"max":[
				-9.75,
				45,
				5
			],
			"min":[
				-9.75,
				44,
				-5
			],
			"type":"VEC3"
		},
		{
			"bufferView":73,
			"componentType":5126,
			"count":8,
			"type":"VEC3"
		},
		{
			"bufferView":74,
			"componentType":5126,
			"count":8,
			"type":"VEC2"
		},
		{
			"bufferView":75,
			"componentType":5123,
			"count":12,
			"type":"SCALAR"
		},
		{
			"bufferView":76,
			"componentType":5126,
			"count":8,
			"max":[
				-11,
				46,
				1.5
			],
			"min":[
				-11,
				43,
				-1.5
			],
			"type":"VEC3"
		},
		{
			"bufferView":77,
			"componentType":5126,
			"count":8,
			"type":"VEC3"
		},
		{
			"bufferView":78,
			"componentType":5126,
			"count":8,
			"type":"VEC2"
		},
		{
			"bufferView":79,
			"componentType":5123,
			"count":18,
			"type":"SCALAR"
		},
		{
			"bufferView":80,
			"componentType":5126,
			"count":40,
			"max":[
				13,
				82,
				18
			],
			"min":[
				-12,
				81,
				-18
			],
			"type":"VEC3"
		},
		{
			"bufferView":81,
			"componentType":5126,
			"count":40,
			"type":"VEC3"
		},
		{
			"bufferView":82,
			"componentType":5126,
			"count":40,
			"type":"VEC2"
		},
		{
			"bufferView":83,
			"componentType":5123,
			"count":96,
			"type":"SCALAR"
		}
	],
	"bufferViews":[
		{
			"buffer":0,
			"byteLength":1248,
			"byteOffset":0,
			"target":34962
		},
		{
			"buffer":0,
			"byteLength":1248,
			"byteOffset":1248,
			"target":34962
		},
		{
			"buffer":0,
			"byteLength":832,
			"byteOffset":2496,
			"target":34962
		},
		{
			"buffer":0,
			"byteLength":348,
			"byteOffset":3328,
			"target":34963
		},
		{
			"buffer":0,
			"byteLength":5304,
			"byteOffset":3676,
			"target":34962
		},
		{
			"buffer":0,
			"byteLength":5304,
			"byteOffset":8980,
			"target":34962
		},
		{
			"buffer":0,
			"byteLength":3536,
			"byteOffset":14284,
			"target":34962
		},
		{
			"buffer":0,
			"byteLength":1740,
			"byteOffset":17820,
			"target":34963
		},
		{
			"buffer":0,
			"byteLength":1824,
			"byteOffset":19560,
			"target":34962
		},
		{
			"buffer":0,
			"byteLength":1824,
			"byteOffset":21384,
			"target":34962
		},
		{
			"buffer":0,
			"byteLength":1216,
			"byteOffset":23208,
			"target":34962
		},
		{
			"buffer":0,
			"byteLength":672,
			"byteOffset":24424,
			"target":34963
		},
		{
			"buffer":0,
			"byteLength":8796,
			"byteOffset":25096,
			"target":34962
		},
		{
			"buffer":0,
			"byteLength":8796,
			"byteOffset":33892,
			"target":34962
		},
		{
			"buffer":0,
			"byteLength":5864,
			"byteOffset":42688,
			"target":34962
		},
		{
			"buffer":0,
			"byteLength":4236,
			"byteOffset":48552,
			"target":34963
		},
		{
			"buffer":0,
			"byteLength":144,
			"byteOffset":52788,
			"target":34962
		},
		{
			"buffer":0,
			"byteLength":144,
			"byteOffset":52932,
			"target":34962
		},
		{
			"buffer":0,
			"byteLength":96,
			"byteOffset":53076,
			"target":34962
		},
		{
			"buffer":0,
			"byteLength":36,
			"byteOffset":53172,
			"target":34963
		},
		{
			"buffer":0,
			"byteLength":1404,
			"byteOffset":53208,
			"target":34962
		},
		{
			"buffer":0,
			"byteLength":1404,
			"byteOffset":54612,
			"target":34962
		},
		{
			"buffer":0,
			"byteLength":936,
			"byteOffset":56016,
			"target":34962
		},
		{
			"buffer":0,
			"byteLength":540,
			"byteOffset":56952,
			"target":34963
		},
		{
			"buffer":0,
			"byteLength":648,
			"byteOffset":57492,
			"target":34962
		},
		{
			"buffer":0,
			"byteLength":648,
			"byteOffset":58140,
			"target":34962
		},
		{
			"buffer":0,
			"byteLength":432,
			"byteOffset":58788,
			"target":34962
		},
		{
			"buffer":0,
			"byteLength":228,
			"byteOffset":59220,
			"target":34963
		},
		{
			"buffer":0,
			"byteLength":2856,
			"byteOffset":59448,
			"target":34962
		},
		{
			"buffer":0,
			"byteLength":2856,
			"byteOffset":62304,
			"target":34962
		},
		{
			"buffer":0,
			"byteLength":1904,
			"byteOffset":65160,
			"target":34962
		},
		{
			"buffer":0,
			"byteLength":1140,
			"byteOffset":67064,
			"target":34963
		},
		{
			"buffer":0,
			"byteLength":14892,
			"byteOffset":68204,
			"target":34962
		},
		{
			"buffer":0,
			"byteLength":14892,
			"byteOffset":83096,
			"target":34962
		},
		{
			"buffer":0,
			"byteLength":9928,
			"byteOffset":97988,
			"target":34962
		},
		{
			"buffer":0,
			"byteLength":6186,
			"byteOffset":107916,
			"target":34963
		},
		{
			"buffer":0,
			"byteLength":2268,
			"byteOffset":114104,
			"target":34962
		},
		{
			"buffer":0,
			"byteLength":2268,
			"byteOffset":116372,
			"target":34962
		},
		{
			"buffer":0,
			"byteLength":1512,
			"byteOffset":118640,
			"target":34962
		},
		{
			"buffer":0,
			"byteLength":924,
			"byteOffset":120152,
			"target":34963
		},
		{
			"buffer":0,
			"byteLength":10440,
			"byteOffset":121076,
			"target":34962
		},
		{
			"buffer":0,
			"byteLength":10440,
			"byteOffset":131516,
			"target":34962
		},
		{
			"buffer":0,
			"byteLength":6960,
			"byteOffset":141956,
			"target":34962
		},
		{
			"buffer":0,
			"byteLength":3372,
			"byteOffset":148916,
			"target":34963
		},
		{
			"buffer":0,
			"byteLength":8616,
			"byteOffset":152288,
			"target":34962
		},
		{
			"buffer":0,
			"byteLength":8616,
			"byteOffset":160904,
			"target":34962
		},
		{
			"buffer":0,
			"byteLength":5744,
			"byteOffset":169520,
			"target":34962
		},
		{
			"buffer":0,
			"byteLength":3588,
			"byteOffset":175264,
			"target":34963
		},
		{
			"buffer":0,
			"byteLength":120,
			"byteOffset":178852,
			"target":34962
		},
		{
			"buffer":0,
			"byteLength":120,
			"byteOffset":178972,
			"target":34962
		},
		{
			"buffer":0,
			"byteLength":80,
			"byteOffset":179092,
			"target":34962
		},
		{
			"buffer":0,
			"byteLength":36,
			"byteOffset":179172,
			"target":34963
		},
		{
			"buffer":0,
			"byteLength":1584,
			"byteOffset":179208,
			"target":34962
		},
		{
			"buffer":0,
			"byteLength":1584,
			"byteOffset":180792,
			"target":34962
		},
		{
			"buffer":0,
			"byteLength":1056,
			"byteOffset":182376,
			"target":34962
		},
		{
			"buffer":0,
			"byteLength":576,
			"byteOffset":183432,
			"target":34963
		},
		{
			"buffer":0,
			"byteLength":9168,
			"byteOffset":184008,
			"target":34962
		},
		{
			"buffer":0,
			"byteLength":9168,
			"byteOffset":193176,
			"target":34962
		},
		{
			"buffer":0,
			"byteLength":6112,
			"byteOffset":202344,
			"target":34962
		},
		{
			"buffer":0,
			"byteLength":2568,
			"byteOffset":208456,
			"target":34963
		},
		{
			"buffer":0,
			"byteLength":1584,
			"byteOffset":211024,
			"target":34962
		},
		{
			"buffer":0,
			"byteLength":1584,
			"byteOffset":212608,
			"target":34962
		},
		{
			"buffer":0,
			"byteLength":1056,
			"byteOffset":214192,
			"target":34962
		},
		{
			"buffer":0,
			"byteLength":576,
			"byteOffset":215248,
			"target":34963
		},
		{
			"buffer":0,
			"byteLength":1188,
			"byteOffset":215824,
			"target":34962
		},
		{
			"buffer":0,
			"byteLength":1188,
			"byteOffset":217012,
			"target":34962
		},
		{
			"buffer":0,
			"byteLength":792,
			"byteOffset":218200,
			"target":34962
		},
		{
			"buffer":0,
			"byteLength":570,
			"byteOffset":218992,
			"target":34963
		},
		{
			"buffer":0,
			"byteLength":192,
			"byteOffset":219564,
			"target":34962
		},
		{
			"buffer":0,
			"byteLength":192,
			"byteOffset":219756,
			"target":34962
		},
		{
			"buffer":0,
			"byteLength":128,
			"byteOffset":219948,
			"target":34962
		},
		{
			"buffer":0,
			"byteLength":72,
			"byteOffset":220076,
			"target":34963
		},
		{
			"buffer":0,
			"byteLength":96,
			"byteOffset":220148,
			"target":34962
		},
		{
			"buffer":0,
			"byteLength":96,
			"byteOffset":220244,
			"target":34962
		},
		{
			"buffer":0,
			"byteLength":64,
			"byteOffset":220340,
			"target":34962
		},
		{
			"buffer":0,
			"byteLength":24,
			"byteOffset":220404,
			"target":34963
		},
		{
			"buffer":0,
			"byteLength":96,
			"byteOffset":220428,
			"target":34962
		},
		{
			"buffer":0,
			"byteLength":96,
			"byteOffset":220524,
			"target":34962
		},
		{
			"buffer":0,
			"byteLength":64,
			"byteOffset":220620,
			"target":34962
		},
		{
			"buffer":0,
			"byteLength":36,
			"byteOffset":220684,
			"target":34963
		},
		{
			"buffer":0,
			"byteLength":480,
			"byteOffset":220720,
			"target":34962
		},
		{
			"buffer":0,
			"byteLength":480,
			"byteOffset":221200,
			"target":34962
		},
		{
			"buffer":0,
			"byteLength":320,
			"byteOffset":221680,
			"target":34962
		},
		{
			"buffer":0,
			"byteLength":192,
			"byteOffset":222000,
			"target":34963
		}
	],
	"buffers":[
		{
			"byteLength":222192,
			"uri":"Xtra_SR_eepbridgeh4b.bin"
		}
	]
}
