{
	"asset":{
		"generator":"Khronos glTF Blender I/O v4.5.48",
		"version":"2.0"
	},
	"scene":0,
	"scenes":[
		{
			"name":"Scene",
			"nodes":[
				0
			]
		}
	],
	"nodes":[
		{
			"mesh":0,
			"name":"Object"
		}
	],
	"materials":[
		{
			"doubleSided":true,
			"name":"CP_SCREEN",
			"pbrMetallicRoughness":{
				"baseColorFactor":[
					0.800000011920929,
					0.800000011920929,
					0.800000011920929,
					1
				],
				"metallicFactor":0,
				"roughnessFactor":0.5
			}
		},
		{
			"doubleSided":true,
			"name":"CP_ISTRFACE01F",
			"pbrMetallicRoughness":{
				"baseColorFactor":[
					0.800000011920929,
					0.800000011920929,
					0.800000011920929,
					1
				],
				"metallicFactor":0,
				"roughnessFactor":0.5
			}
		},
		{
			"doubleSided":true,
			"name":"CP_IFLO01D",
			"pbrMetallicRoughness":{
				"baseColorFactor":[
					0.800000011920929,
					0.800000011920929,
					0.800000011920929,
					1
				],
				"metallicFactor":0,
				"roughnessFactor":0.5
			}
		},
		{
			"doubleSided":true,
			"name":"CP_ISTAIR01",
			"pbrMetallicRoughness":{
				"baseColorFactor":[
					0.800000011920929,
					0.800000011920929,
					0.800000011920929,
					1
				],
				"metallicFactor":0,
				"roughnessFactor":0.5
			}
		},
		{
			"doubleSided":true,
			"name":"CP_ISPEC02CAP",
			"pbrMetallicRoughness":{
				"baseColorFactor":[
					0.800000011920929,
					0.800000011920929,
					0.800000011920929,
					1
				],
				"metallicFactor":0,
				"roughnessFactor":0.5
			}
		},
		{
			"doubleSided":true,
			"name":"CP_SAND",
			"pbrMetallicRoughness":{
				"baseColorFactor":[
					0.800000011920929,
					0.800000011920929,
					0.800000011920929,
					1
				],
				"metallicFactor":0,
				"roughnessFactor":0.5
			}
		},
		{
			"doubleSided":true,
			"name":"CP_ICOLDECO01",
			"pbrMetallicRoughness":{
				"baseColorFactor":[
					0.800000011920929,
					0.800000011920929,
					0.800000011920929,
					1
				],
				"metallicFactor":0,
				"roughnessFactor":0.5
			}
		},
		{
			"doubleSided":true,
			"name":"CP_ISPEC02B",
			"pbrMetallicRoughness":{
				"baseColorFactor":[
					0.800000011920929,
					0.800000011920929,
					0.800000011920929,
					1
				],
				"metallicFactor":0,
				"roughnessFactor":0.5
			}
		},
		{
			"doubleSided":true,
			"name":"CP_ISPEC01CAP",
			"pbrMetallicRoughness":{
				"baseColorFactor":[
					0.800000011920929,
					0.800000011920929,
					0.800000011920929,
					1
				],
				"metallicFactor":0,
				"roughnessFactor":0.5
			}
		},
		{
			"doubleSided":true,
			"name":"CP_IWAL02F",
			"pbrMetallicRoughness":{
				"baseColorFactor":[
					0.800000011920929,
					0.800000011920929,
					0.800000011920929,
					1
				],
				"metallicFactor":0,
				"roughnessFactor":0.5
			}
		}
	],
	"meshes":[
		{
			"name":"Mesh",
			"primitives":[
				{
					"attributes":{
						"POSITION":0,
						"NORMAL":1,
						"TEXCOORD_0":2
					},
					"indices":3,
					"material":0
				},
				{
					"attributes":{
						"POSITION":4,
						"NORMAL":5,
						"TEXCOORD_0":6
					},
					"indices":7,
					"material":1
				},
				{
					"attributes":{
						"POSITION":8,
						"NORMAL":9,
						"TEXCOORD_0":10
					},
					"indices":11,
					"material":2
				},
				{
					"attributes":{
						"POSITION":12,
						"NORMAL":13,
						"TEXCOORD_0":14
					},
					"indices":15,
					"material":3
				},
				{
					"attributes":{
						"POSITION":16,
						"NORMAL":17,
						"TEXCOORD_0":18
					},
					"indices":19,
					"material":4
				},
				{
					"attributes":{
						"POSITION":20,
						"NORMAL":21,
						"TEXCOORD_0":22
					},
					"indices":23,
					"material":5
				},
				{
					"attributes":{
						"POSITION":24,
						"NORMAL":25,
						"TEXCOORD_0":26
					},
					"indices":27,
					"material":6
				},
				{
					"attributes":{
						"POSITION":28,
						"NORMAL":29,
						"TEXCOORD_0":30
					},
					"indices":31,
					"material":7
				},
				{
					"attributes":{
						"POSITION":32,
						"NORMAL":33,
						"TEXCOORD_0":34
					},
					"indices":35,
					"material":8
				},
				{
					"attributes":{
						"POSITION":36,
						"NORMAL":37,
						"TEXCOORD_0":38
					},
					"indices":39,
					"material":9
				}
			]
		}
	],
	"accessors":[
		{
			"bufferView":0,
			"componentType":5126,
			"count":8,
			"max":[
				14.53125,
				17.25,
				-9.46875
			],
			"min":[
				-34.53125,
				17.25,
				-14.53125
			],
			"type":"VEC3"
		},
		{
			"bufferView":1,
			"componentType":5126,
			"count":8,
			"type":"VEC3"
		},
		{
			"bufferView":2,
			"componentType":5126,
			"count":8,
			"type":"VEC2"
		},
		{
			"bufferView":3,
			"componentType":5123,
			"count":12,
			"type":"SCALAR"
		},
		{
			"bufferView":4,
			"componentType":5126,
			"count":80,
			"max":[
				16.5,
				17.25,
				-7.5
			],
			"min":[
				-36.5,
				-10.53125,
				-16.5
			],
			"type":"VEC3"
		},
		{
			"bufferView":5,
			"componentType":5126,
			"count":80,
			"type":"VEC3"
		},
		{
			"bufferView":6,
			"componentType":5126,
			"count":80,
			"type":"VEC2"
		},
		{
			"bufferView":7,
			"componentType":5123,
			"count":120,
			"type":"SCALAR"
		},
		{
			"bufferView":8,
			"componentType":5126,
			"count":24,
			"max":[
				18,
				16,
				-6
			],
			"min":[
				-38,
				16,
				-18
			],
			"type":"VEC3"
		},
		{
			"bufferView":9,
			"componentType":5126,
			"count":24,
			"type":"VEC3"
		},
		{
			"bufferView":10,
			"componentType":5126,
			"count":24,
			"type":"VEC2"
		},
		{
			"bufferView":11,
			"componentType":5123,
			"count":72,
			"type":"SCALAR"
		},
		{
			"bufferView":12,
			"componentType":5126,
			"count":32,
			"max":[
				16,
				17,
				-8
			],
			"min":[
				-36,
				16,
				-16
			],
			"type":"VEC3"
		},
		{
			"bufferView":13,
			"componentType":5126,
			"count":32,
			"type":"VEC3"
		},
		{
			"bufferView":14,
			"componentType":5126,
			"count":32,
			"type":"VEC2"
		},
		{
			"bufferView":15,
			"componentType":5123,
			"count":48,
			"type":"SCALAR"
		},
		{
			"bufferView":16,
			"componentType":5126,
			"count":144,
			"max":[
				18,
				10,
				-6
			],
			"min":[
				-38,
				-42,
				-18
			],
			"type":"VEC3"
		},
		{
			"bufferView":17,
			"componentType":5126,
			"count":144,
			"type":"VEC3"
		},
		{
			"bufferView":18,
			"componentType":5126,
			"count":144,
			"type":"VEC2"
		},
		{
			"bufferView":19,
			"componentType":5123,
			"count":264,
			"type":"SCALAR"
		},
		{
			"bufferView":20,
			"componentType":5126,
			"count":248,
			"max":[
				18,
				14,
				-6
			],
			"min":[
				-38,
				-26,
				-18
			],
			"type":"VEC3"
		},
		{
			"bufferView":21,
			"componentType":5126,
			"count":248,
			"type":"VEC3"
		},
		{
			"bufferView":22,
			"componentType":5126,
			"count":248,
			"type":"VEC2"
		},
		{
			"bufferView":23,
			"componentType":5123,
			"count":372,
			"type":"SCALAR"
		},
		{
			"bufferView":24,
			"componentType":5126,
			"count":40,
			"max":[
				18,
				16,
				-6
			],
			"min":[
				-38,
				14,
				-18
			],
			"type":"VEC3"
		},
		{
			"bufferView":25,
			"componentType":5126,
			"count":40,
			"type":"VEC3"
		},
		{
			"bufferView":26,
			"componentType":5126,
			"count":40,
			"type":"VEC2"
		},
		{
			"bufferView":27,
			"componentType":5123,
			"count":72,
			"type":"SCALAR"
		},
		{
			"bufferView":28,
			"componentType":5126,
			"count":156,
			"max":[
				16,
				8.5,
				-8
			],
			"min":[
				-36,
				-14,
				-16
			],
			"type":"VEC3"
		},
		{
			"bufferView":29,
			"componentType":5126,
			"count":156,
			"type":"VEC3"
		},
		{
			"bufferView":30,
			"componentType":5126,
			"count":156,
			"type":"VEC2"
		},
		{
			"bufferView":31,
			"componentType":5123,
			"count":408,
			"type":"SCALAR"
		},
		{
			"bufferView":32,
			"componentType":5126,
			"count":144,
			"max":[
				16.5,
				6.03125,
				-7.5
			],
			"min":[
				-36.5,
				-10.03125,
				-16.5
			],
			"type":"VEC3"
		},
		{
			"bufferView":33,
			"componentType":5126,
			"count":144,
			"type":"VEC3"
		},
		{
			"bufferView":34,
			"componentType":5126,
			"count":144,
			"type":"VEC2"
		},
		{
			"bufferView":35,
			"componentType":5123,
			"count":216,
			"type":"SCALAR"
		},
		{
			"bufferView":36,
			"componentType":5126,
			"count":36,
			"max":[
				-6,
				5,
				-8
			],
			"min":[
				-14,
				-4,
				-16
			],
			"type":"VEC3"
		},
		{
			"bufferView":37,
			"componentType":5126,
			"count":36,
			"type":"VEC3"
		},
		{
			"bufferView":38,
			"componentType":5126,
			"count":36,
			"type":"VEC2"
		},
		{
			"bufferView":39,
			"componentType":5123,
			"count":84,
			"type":"SCALAR"
		}
	],
	"bufferViews":[
		{
			"buffer":0,
			"byteLength":96,
			"byteOffset":0,
			"target":34962
		},
		{
			"buffer":0,
			"byteLength":96,
			"byteOffset":96,
			"target":34962
		},
		{
			"buffer":0,
			"byteLength":64,
			"byteOffset":192,
			"target":34962
		},
		{
			"buffer":0,
			"byteLength":24,
			"byteOffset":256,
			"target":34963
		},
		{
			"buffer":0,
			"byteLength":960,
			"byteOffset":280,
			"target":34962
		},
		{
			"buffer":0,
			"byteLength":960,
			"byteOffset":1240,
			"target":34962
		},
		{
			"buffer":0,
			"byteLength":640,
			"byteOffset":2200,
			"target":34962
		},
		{
			"buffer":0,
			"byteLength":240,
			"byteOffset":2840,
			"target":34963
		},
		{
			"buffer":0,
			"byteLength":288,
			"byteOffset":3080,
			"target":34962
		},
		{
			"buffer":0,
			"byteLength":288,
			"byteOffset":3368,
			"target":34962
		},
		{
			"buffer":0,
			"byteLength":192,
			"byteOffset":3656,
			"target":34962
		},
		{
			"buffer":0,
			"byteLength":144,
			"byteOffset":3848,
			"target":34963
		},
		{
			"buffer":0,
			"byteLength":384,
			"byteOffset":3992,
			"target":34962
		},
		{
			"buffer":0,
			"byteLength":384,
			"byteOffset":4376,
			"target":34962
		},
		{
			"buffer":0,
			"byteLength":256,
			"byteOffset":4760,
			"target":34962
		},
		{
			"buffer":0,
			"byteLength":96,
			"byteOffset":5016,
			"target":34963
		},
		{
			"buffer":0,
			"byteLength":1728,
			"byteOffset":5112,
			"target":34962
		},
		{
			"buffer":0,
			"byteLength":1728,
			"byteOffset":6840,
			"target":34962
		},
		{
			"buffer":0,
			"byteLength":1152,
			"byteOffset":8568,
			"target":34962
		},
		{
			"buffer":0,
			"byteLength":528,
			"byteOffset":9720,
			"target":34963
		},
		{
			"buffer":0,
			"byteLength":2976,
			"byteOffset":10248,
			"target":34962
		},
		{
			"buffer":0,
			"byteLength":2976,
			"byteOffset":13224,
			"target":34962
		},
		{
			"buffer":0,
			"byteLength":1984,
			"byteOffset":16200,
			"target":34962
		},
		{
			"buffer":0,
			"byteLength":744,
			"byteOffset":18184,
			"target":34963
		},
		{
			"buffer":0,
			"byteLength":480,
			"byteOffset":18928,
			"target":34962
		},
		{
			"buffer":0,
			"byteLength":480,
			"byteOffset":19408,
			"target":34962
		},
		{
			"buffer":0,
			"byteLength":320,
			"byteOffset":19888,
			"target":34962
		},
		{
			"buffer":0,
			"byteLength":144,
			"byteOffset":20208,
			"target":34963
		},
		{
			"buffer":0,
			"byteLength":1872,
			"byteOffset":20352,
			"target":34962
		},
		{
			"buffer":0,
			"byteLength":1872,
			"byteOffset":22224,
			"target":34962
		},
		{
			"buffer":0,
			"byteLength":1248,
			"byteOffset":24096,
			"target":34962
		},
		{
			"buffer":0,
			"byteLength":816,
			"byteOffset":25344,
			"target":34963
		},
		{
			"buffer":0,
			"byteLength":1728,
			"byteOffset":26160,
			"target":34962
		},
		{
			"buffer":0,
			"byteLength":1728,
			"byteOffset":27888,
			"target":34962
		},
		{
			"buffer":0,
			"byteLength":1152,
			"byteOffset":29616,
			"target":34962
		},
		{
			"buffer":0,
			"byteLength":432,
			"byteOffset":30768,
			"target":34963
		},
		{
			"buffer":0,
			"byteLength":432,
			"byteOffset":31200,
			"target":34962
		},
		{
			"buffer":0,
			"byteLength":432,
			"byteOffset":31632,
			"target":34962
		},
		{
			"buffer":0,
			"byteLength":288,
			"byteOffset":32064,
			"target":34962
		},
		{
			"buffer":0,
			"byteLength":168,
			"byteOffset":32352,
			"target":34963
		}
	],
	"buffers":[
		{
			"byteLength":32520,
			"uri":"Xtra_Vestige_gate.bin"
		}
	]
}
