{
	"asset":{
		"generator":"Khronos glTF Blender I/O v4.5.48",
		"version":"2.0"
	},
	"scene":0,
	"scenes":[
		{
			"name":"Scene",
			"nodes":[
				0
			]
		}
	],
	"nodes":[
		{
			"mesh":0,
			"name":"Object"
		}
	],
	"materials":[
		{
			"doubleSided":true,
			"name":"BE_EWAL01B",
			"pbrMetallicRoughness":{
				"baseColorFactor":[
					0.800000011920929,
					0.800000011920929,
					0.800000011920929,
					1
				],
				"metallicFactor":0,
				"roughnessFactor":0.5
			}
		},
		{
			"doubleSided":true,
			"name":"BE_ELIG02",
			"pbrMetallicRoughness":{
				"baseColorFactor":[
					0.800000011920929,
					0.800000011920929,
					0.800000011920929,
					1
				],
				"metallicFactor":0,
				"roughnessFactor":0.5
			}
		},
		{
			"doubleSided":true,
			"name":"BE_ICEI03B",
			"pbrMetallicRoughness":{
				"baseColorFactor":[
					0.800000011920929,
					0.800000011920929,
					0.800000011920929,
					1
				],
				"metallicFactor":0,
				"roughnessFactor":0.5
			}
		},
		{
			"doubleSided":true,
			"name":"BE_ICOCEI",
			"pbrMetallicRoughness":{
				"baseColorFactor":[
					0.800000011920929,
					0.800000011920929,
					0.800000011920929,
					1
				],
				"metallicFactor":0,
				"roughnessFactor":0.5
			}
		},
		{
			"doubleSided":true,
			"name":"BE_ICEI02",
			"pbrMetallicRoughness":{
				"baseColorFactor":[
					0.800000011920929,
					0.800000011920929,
					0.800000011920929,
					1
				],
				"metallicFactor":0,
				"roughnessFactor":0.5
			}
		},
		{
			"doubleSided":true,
			"name":"BE_ITEFLO01",
			"pbrMetallicRoughness":{
				"baseColorFactor":[
					0.800000011920929,
					0.800000011920929,
					0.800000011920929,
					1
				],
				"metallicFactor":0,
				"roughnessFactor":0.5
			}
		},
		{
			"doubleSided":true,
			"name":"BE_EWAL04A",
			"pbrMetallicRoughness":{
				"baseColorFactor":[
					0.800000011920929,
					0.800000011920929,
					0.800000011920929,
					1
				],
				"metallicFactor":0,
				"roughnessFactor":0.5
			}
		},
		{
			"doubleSided":true,
			"name":"BE_ICOBOR1A",
			"pbrMetallicRoughness":{
				"baseColorFactor":[
					0.800000011920929,
					0.800000011920929,
					0.800000011920929,
					1
				],
				"metallicFactor":0,
				"roughnessFactor":0.5
			}
		},
		{
			"doubleSided":true,
			"name":"BE_EWAL07",
			"pbrMetallicRoughness":{
				"baseColorFactor":[
					0.800000011920929,
					0.800000011920929,
					0.800000011920929,
					1
				],
				"metallicFactor":0,
				"roughnessFactor":0.5
			}
		},
		{
			"doubleSided":true,
			"name":"BE_EWAL06",
			"pbrMetallicRoughness":{
				"baseColorFactor":[
					0.800000011920929,
					0.800000011920929,
					0.800000011920929,
					1
				],
				"metallicFactor":0,
				"roughnessFactor":0.5
			}
		},
		{
			"doubleSided":true,
			"name":"BE_ITEBOR01",
			"pbrMetallicRoughness":{
				"baseColorFactor":[
					0.800000011920929,
					0.800000011920929,
					0.800000011920929,
					1
				],
				"metallicFactor":0,
				"roughnessFactor":0.5
			}
		},
		{
			"doubleSided":true,
			"name":"BE_ICOLIG",
			"pbrMetallicRoughness":{
				"baseColorFactor":[
					0.800000011920929,
					0.800000011920929,
					0.800000011920929,
					1
				],
				"metallicFactor":0,
				"roughnessFactor":0.5
			}
		},
		{
			"doubleSided":true,
			"name":"BE_ICOMP01A",
			"pbrMetallicRoughness":{
				"baseColorFactor":[
					0.800000011920929,
					0.800000011920929,
					0.800000011920929,
					1
				],
				"metallicFactor":0,
				"roughnessFactor":0.5
			}
		},
		{
			"doubleSided":true,
			"name":"BE_ITEDOO01",
			"pbrMetallicRoughness":{
				"baseColorFactor":[
					0.800000011920929,
					0.800000011920929,
					0.800000011920929,
					1
				],
				"metallicFactor":0,
				"roughnessFactor":0.5
			}
		},
		{
			"doubleSided":true,
			"name":"BE_ITEWAL02A",
			"pbrMetallicRoughness":{
				"baseColorFactor":[
					0.800000011920929,
					0.800000011920929,
					0.800000011920929,
					1
				],
				"metallicFactor":0,
				"roughnessFactor":0.5
			}
		},
		{
			"doubleSided":true,
			"name":"BE_THRESH01A",
			"pbrMetallicRoughness":{
				"baseColorFactor":[
					0.800000011920929,
					0.800000011920929,
					0.800000011920929,
					1
				],
				"metallicFactor":0,
				"roughnessFactor":0.5
			}
		}
	],
	"meshes":[
		{
			"name":"Mesh",
			"primitives":[
				{
					"attributes":{
						"POSITION":0,
						"NORMAL":1,
						"TEXCOORD_0":2
					},
					"indices":3,
					"material":0
				},
				{
					"attributes":{
						"POSITION":4,
						"NORMAL":5,
						"TEXCOORD_0":6
					},
					"indices":7,
					"material":1
				},
				{
					"attributes":{
						"POSITION":8,
						"NORMAL":9,
						"TEXCOORD_0":10
					},
					"indices":11,
					"material":2
				},
				{
					"attributes":{
						"POSITION":12,
						"NORMAL":13,
						"TEXCOORD_0":14
					},
					"indices":15,
					"material":3
				},
				{
					"attributes":{
						"POSITION":16,
						"NORMAL":17,
						"TEXCOORD_0":18
					},
					"indices":19,
					"material":4
				},
				{
					"attributes":{
						"POSITION":20,
						"NORMAL":21,
						"TEXCOORD_0":22
					},
					"indices":23,
					"material":5
				},
				{
					"attributes":{
						"POSITION":24,
						"NORMAL":25,
						"TEXCOORD_0":26
					},
					"indices":27,
					"material":6
				},
				{
					"attributes":{
						"POSITION":28,
						"NORMAL":29,
						"TEXCOORD_0":30
					},
					"indices":31,
					"material":7
				},
				{
					"attributes":{
						"POSITION":32,
						"NORMAL":33,
						"TEXCOORD_0":34
					},
					"indices":35,
					"material":8
				},
				{
					"attributes":{
						"POSITION":36,
						"NORMAL":37,
						"TEXCOORD_0":38
					},
					"indices":39,
					"material":9
				},
				{
					"attributes":{
						"POSITION":40,
						"NORMAL":41,
						"TEXCOORD_0":42
					},
					"indices":43,
					"material":10
				},
				{
					"attributes":{
						"POSITION":44,
						"NORMAL":45,
						"TEXCOORD_0":46
					},
					"indices":47,
					"material":11
				},
				{
					"attributes":{
						"POSITION":48,
						"NORMAL":49,
						"TEXCOORD_0":50
					},
					"indices":51,
					"material":12
				},
				{
					"attributes":{
						"POSITION":52,
						"NORMAL":53,
						"TEXCOORD_0":54
					},
					"indices":55,
					"material":13
				},
				{
					"attributes":{
						"POSITION":56,
						"NORMAL":57,
						"TEXCOORD_0":58
					},
					"indices":59,
					"material":14
				},
				{
					"attributes":{
						"POSITION":60,
						"NORMAL":61,
						"TEXCOORD_0":62
					},
					"indices":63,
					"material":15
				}
			]
		}
	],
	"accessors":[
		{
			"bufferView":0,
			"componentType":5126,
			"count":603,
			"max":[
				14,
				3.125,
				4
			],
			"min":[
				-14,
				-10,
				-24
			],
			"type":"VEC3"
		},
		{
			"bufferView":1,
			"componentType":5126,
			"count":603,
			"type":"VEC3"
		},
		{
			"bufferView":2,
			"componentType":5126,
			"count":603,
			"type":"VEC2"
		},
		{
			"bufferView":3,
			"componentType":5123,
			"count":1449,
			"type":"SCALAR"
		},
		{
			"bufferView":4,
			"componentType":5126,
			"count":72,
			"max":[
				11.5,
				1.125,
				1.5
			],
			"min":[
				-11.5,
				0.625,
				-21.5
			],
			"type":"VEC3"
		},
		{
			"bufferView":5,
			"componentType":5126,
			"count":72,
			"type":"VEC3"
		},
		{
			"bufferView":6,
			"componentType":5126,
			"count":72,
			"type":"VEC2"
		},
		{
			"bufferView":7,
			"componentType":5123,
			"count":120,
			"type":"SCALAR"
		},
		{
			"bufferView":8,
			"componentType":5126,
			"count":451,
			"max":[
				14,
				-0.375,
				4
			],
			"min":[
				-14,
				-42.25,
				-24
			],
			"type":"VEC3"
		},
		{
			"bufferView":9,
			"componentType":5126,
			"count":451,
			"type":"VEC3"
		},
		{
			"bufferView":10,
			"componentType":5126,
			"count":451,
			"type":"VEC2"
		},
		{
			"bufferView":11,
			"componentType":5123,
			"count":897,
			"type":"SCALAR"
		},
		{
			"bufferView":12,
			"componentType":5126,
			"count":89,
			"max":[
				4,
				-8.853124618530273,
				-6
			],
			"min":[
				-4,
				-42,
				-14
			],
			"type":"VEC3"
		},
		{
			"bufferView":13,
			"componentType":5126,
			"count":89,
			"type":"VEC3"
		},
		{
			"bufferView":14,
			"componentType":5126,
			"count":89,
			"type":"VEC2"
		},
		{
			"bufferView":15,
			"componentType":5123,
			"count":165,
			"type":"SCALAR"
		},
		{
			"bufferView":16,
			"componentType":5126,
			"count":72,
			"max":[
				4,
				-10,
				-6
			],
			"min":[
				-4,
				-41,
				-14
			],
			"type":"VEC3"
		},
		{
			"bufferView":17,
			"componentType":5126,
			"count":72,
			"type":"VEC3"
		},
		{
			"bufferView":18,
			"componentType":5126,
			"count":72,
			"type":"VEC2"
		},
		{
			"bufferView":19,
			"componentType":5123,
			"count":156,
			"type":"SCALAR"
		},
		{
			"bufferView":20,
			"componentType":5126,
			"count":170,
			"max":[
				32,
				-50.03125,
				18
			],
			"min":[
				-32,
				-50.03125,
				-38
			],
			"type":"VEC3"
		},
		{
			"bufferView":21,
			"componentType":5126,
			"count":170,
			"type":"VEC3"
		},
		{
			"bufferView":22,
			"componentType":5126,
			"count":170,
			"type":"VEC2"
		},
		{
			"bufferView":23,
			"componentType":5123,
			"count":564,
			"type":"SCALAR"
		},
		{
			"bufferView":24,
			"componentType":5126,
			"count":566,
			"max":[
				32,
				-42,
				18
			],
			"min":[
				-32,
				-50.03125,
				-38
			],
			"type":"VEC3"
		},
		{
			"bufferView":25,
			"componentType":5126,
			"count":566,
			"type":"VEC3"
		},
		{
			"bufferView":26,
			"componentType":5126,
			"count":566,
			"type":"VEC2"
		},
		{
			"bufferView":27,
			"componentType":5123,
			"count":1614,
			"type":"SCALAR"
		},
		{
			"bufferView":28,
			"componentType":5126,
			"count":688,
			"max":[
				31.5,
				-42,
				17.5
			],
			"min":[
				-31.5,
				-50.03125,
				-37.5
			],
			"type":"VEC3"
		},
		{
			"bufferView":29,
			"componentType":5126,
			"count":688,
			"type":"VEC3"
		},
		{
			"bufferView":30,
			"componentType":5126,
			"count":688,
			"type":"VEC2"
		},
		{
			"bufferView":31,
			"componentType":5123,
			"count":1368,
			"type":"SCALAR"
		},
		{
			"bufferView":32,
			"componentType":5126,
			"count":438,
			"max":[
				31.436792373657227,
				-45.875,
				17.384571075439453
			],
			"min":[
				-31.381168365478516,
				-46.59375,
				-37.41563415527344
			],
			"type":"VEC3"
		},
		{
			"bufferView":33,
			"componentType":5126,
			"count":438,
			"type":"VEC3"
		},
		{
			"bufferView":34,
			"componentType":5126,
			"count":438,
			"type":"VEC2"
		},
		{
			"bufferView":35,
			"componentType":5123,
			"count":1038,
			"type":"SCALAR"
		},
		{
			"bufferView":36,
			"componentType":5126,
			"count":42,
			"max":[
				4,
				-14,
				-6
			],
			"min":[
				-4,
				-36.5,
				-14
			],
			"type":"VEC3"
		},
		{
			"bufferView":37,
			"componentType":5126,
			"count":42,
			"type":"VEC3"
		},
		{
			"bufferView":38,
			"componentType":5126,
			"count":42,
			"type":"VEC2"
		},
		{
			"bufferView":39,
			"componentType":5123,
			"count":90,
			"type":"SCALAR"
		},
		{
			"bufferView":40,
			"componentType":5126,
			"count":24,
			"max":[
				1.5,
				-14,
				-6
			],
			"min":[
				-1.5,
				-36.5,
				-14
			],
			"type":"VEC3"
		},
		{
			"bufferView":41,
			"componentType":5126,
			"count":24,
			"type":"VEC3"
		},
		{
			"bufferView":42,
			"componentType":5126,
			"count":24,
			"type":"VEC2"
		},
		{
			"bufferView":43,
			"componentType":5123,
			"count":36,
			"type":"SCALAR"
		},
		{
			"bufferView":44,
			"componentType":5126,
			"count":48,
			"max":[
				25.5,
				-42.5,
				12
			],
			"min":[
				-25.5,
				-42.5,
				-32
			],
			"type":"VEC3"
		},
		{
			"bufferView":45,
			"componentType":5126,
			"count":48,
			"type":"VEC3"
		},
		{
			"bufferView":46,
			"componentType":5126,
			"count":48,
			"type":"VEC2"
		},
		{
			"bufferView":47,
			"componentType":5123,
			"count":72,
			"type":"SCALAR"
		},
		{
			"bufferView":48,
			"componentType":5126,
			"count":197,
			"max":[
				25.5,
				-42,
				12
			],
			"min":[
				-25.5,
				-42.5,
				-32
			],
			"type":"VEC3"
		},
		{
			"bufferView":49,
			"componentType":5126,
			"count":197,
			"type":"VEC3"
		},
		{
			"bufferView":50,
			"componentType":5126,
			"count":197,
			"type":"VEC2"
		},
		{
			"bufferView":51,
			"componentType":5123,
			"count":303,
			"type":"SCALAR"
		},
		{
			"bufferView":52,
			"componentType":5126,
			"count":4,
			"max":[
				2,
				-49.75,
				-8
			],
			"min":[
				-2,
				-49.75,
				-12
			],
			"type":"VEC3"
		},
		{
			"bufferView":53,
			"componentType":5126,
			"count":4,
			"type":"VEC3"
		},
		{
			"bufferView":54,
			"componentType":5126,
			"count":4,
			"type":"VEC2"
		},
		{
			"bufferView":55,
			"componentType":5123,
			"count":6,
			"type":"SCALAR"
		},
		{
			"bufferView":56,
			"componentType":5126,
			"count":16,
			"max":[
				2,
				-49.75,
				-8
			],
			"min":[
				-2,
				-50.03125,
				-12
			],
			"type":"VEC3"
		},
		{
			"bufferView":57,
			"componentType":5126,
			"count":16,
			"type":"VEC3"
		},
		{
			"bufferView":58,
			"componentType":5126,
			"count":16,
			"type":"VEC2"
		},
		{
			"bufferView":59,
			"componentType":5123,
			"count":24,
			"type":"SCALAR"
		},
		{
			"bufferView":60,
			"componentType":5126,
			"count":40,
			"max":[
				4,
				-17.9375,
				-6
			],
			"min":[
				-4,
				-31.5625,
				-14
			],
			"type":"VEC3"
		},
		{
			"bufferView":61,
			"componentType":5126,
			"count":40,
			"type":"VEC3"
		},
		{
			"bufferView":62,
			"componentType":5126,
			"count":40,
			"type":"VEC2"
		},
		{
			"bufferView":63,
			"componentType":5123,
			"count":72,
			"type":"SCALAR"
		}
	],
	"bufferViews":[
		{
			"buffer":0,
			"byteLength":7236,
			"byteOffset":0,
			"target":34962
		},
		{
			"buffer":0,
			"byteLength":7236,
			"byteOffset":7236,
			"target":34962
		},
		{
			"buffer":0,
			"byteLength":4824,
			"byteOffset":14472,
			"target":34962
		},
		{
			"buffer":0,
			"byteLength":2898,
			"byteOffset":19296,
			"target":34963
		},
		{
			"buffer":0,
			"byteLength":864,
			"byteOffset":22196,
			"target":34962
		},
		{
			"buffer":0,
			"byteLength":864,
			"byteOffset":23060,
			"target":34962
		},
		{
			"buffer":0,
			"byteLength":576,
			"byteOffset":23924,
			"target":34962
		},
		{
			"buffer":0,
			"byteLength":240,
			"byteOffset":24500,
			"target":34963
		},
		{
			"buffer":0,
			"byteLength":5412,
			"byteOffset":24740,
			"target":34962
		},
		{
			"buffer":0,
			"byteLength":5412,
			"byteOffset":30152,
			"target":34962
		},
		{
			"buffer":0,
			"byteLength":3608,
			"byteOffset":35564,
			"target":34962
		},
		{
			"buffer":0,
			"byteLength":1794,
			"byteOffset":39172,
			"target":34963
		},
		{
			"buffer":0,
			"byteLength":1068,
			"byteOffset":40968,
			"target":34962
		},
		{
			"buffer":0,
			"byteLength":1068,
			"byteOffset":42036,
			"target":34962
		},
		{
			"buffer":0,
			"byteLength":712,
			"byteOffset":43104,
			"target":34962
		},
		{
			"buffer":0,
			"byteLength":330,
			"byteOffset":43816,
			"target":34963
		},
		{
			"buffer":0,
			"byteLength":864,
			"byteOffset":44148,
			"target":34962
		},
		{
			"buffer":0,
			"byteLength":864,
			"byteOffset":45012,
			"target":34962
		},
		{
			"buffer":0,
			"byteLength":576,
			"byteOffset":45876,
			"target":34962
		},
		{
			"buffer":0,
			"byteLength":312,
			"byteOffset":46452,
			"target":34963
		},
		{
			"buffer":0,
			"byteLength":2040,
			"byteOffset":46764,
			"target":34962
		},
		{
			"buffer":0,
			"byteLength":2040,
			"byteOffset":48804,
			"target":34962
		},
		{
			"buffer":0,
			"byteLength":1360,
			"byteOffset":50844,
			"target":34962
		},
		{
			"buffer":0,
			"byteLength":1128,
			"byteOffset":52204,
			"target":34963
		},
		{
			"buffer":0,
			"byteLength":6792,
			"byteOffset":53332,
			"target":34962
		},
		{
			"buffer":0,
			"byteLength":6792,
			"byteOffset":60124,
			"target":34962
		},
		{
			"buffer":0,
			"byteLength":4528,
			"byteOffset":66916,
			"target":34962
		},
		{
			"buffer":0,
			"byteLength":3228,
			"byteOffset":71444,
			"target":34963
		},
		{
			"buffer":0,
			"byteLength":8256,
			"byteOffset":74672,
			"target":34962
		},
		{
			"buffer":0,
			"byteLength":8256,
			"byteOffset":82928,
			"target":34962
		},
		{
			"buffer":0,
			"byteLength":5504,
			"byteOffset":91184,
			"target":34962
		},
		{
			"buffer":0,
			"byteLength":2736,
			"byteOffset":96688,
			"target":34963
		},
		{
			"buffer":0,
			"byteLength":5256,
			"byteOffset":99424,
			"target":34962
		},
		{
			"buffer":0,
			"byteLength":5256,
			"byteOffset":104680,
			"target":34962
		},
		{
			"buffer":0,
			"byteLength":3504,
			"byteOffset":109936,
			"target":34962
		},
		{
			"buffer":0,
			"byteLength":2076,
			"byteOffset":113440,
			"target":34963
		},
		{
			"buffer":0,
			"byteLength":504,
			"byteOffset":115516,
			"target":34962
		},
		{
			"buffer":0,
			"byteLength":504,
			"byteOffset":116020,
			"target":34962
		},
		{
			"buffer":0,
			"byteLength":336,
			"byteOffset":116524,
			"target":34962
		},
		{
			"buffer":0,
			"byteLength":180,
			"byteOffset":116860,
			"target":34963
		},
		{
			"buffer":0,
			"byteLength":288,
			"byteOffset":117040,
			"target":34962
		},
		{
			"buffer":0,
			"byteLength":288,
			"byteOffset":117328,
			"target":34962
		},
		{
			"buffer":0,
			"byteLength":192,
			"byteOffset":117616,
			"target":34962
		},
		{
			"buffer":0,
			"byteLength":72,
			"byteOffset":117808,
			"target":34963
		},
		{
			"buffer":0,
			"byteLength":576,
			"byteOffset":117880,
			"target":34962
		},
		{
			"buffer":0,
			"byteLength":576,
			"byteOffset":118456,
			"target":34962
		},
		{
			"buffer":0,
			"byteLength":384,
			"byteOffset":119032,
			"target":34962
		},
		{
			"buffer":0,
			"byteLength":144,
			"byteOffset":119416,
			"target":34963
		},
		{
			"buffer":0,
			"byteLength":2364,
			"byteOffset":119560,
			"target":34962
		},
		{
			"buffer":0,
			"byteLength":2364,
			"byteOffset":121924,
			"target":34962
		},
		{
			"buffer":0,
			"byteLength":1576,
			"byteOffset":124288,
			"target":34962
		},
		{
			"buffer":0,
			"byteLength":606,
			"byteOffset":125864,
			"target":34963
		},
		{
			"buffer":0,
			"byteLength":48,
			"byteOffset":126472,
			"target":34962
		},
		{
			"buffer":0,
			"byteLength":48,
			"byteOffset":126520,
			"target":34962
		},
		{
			"buffer":0,
			"byteLength":32,
			"byteOffset":126568,
			"target":34962
		},
		{
			"buffer":0,
			"byteLength":12,
			"byteOffset":126600,
			"target":34963
		},
		{
			"buffer":0,
			"byteLength":192,
			"byteOffset":126612,
			"target":34962
		},
		{
			"buffer":0,
			"byteLength":192,
			"byteOffset":126804,
			"target":34962
		},
		{
			"buffer":0,
			"byteLength":128,
			"byteOffset":126996,
			"target":34962
		},
		{
			"buffer":0,
			"byteLength":48,
			"byteOffset":127124,
			"target":34963
		},
		{
			"buffer":0,
			"byteLength":480,
			"byteOffset":127172,
			"target":34962
		},
		{
			"buffer":0,
			"byteLength":480,
			"byteOffset":127652,
			"target":34962
		},
		{
			"buffer":0,
			"byteLength":320,
			"byteOffset":128132,
			"target":34962
		},
		{
			"buffer":0,
			"byteLength":144,
			"byteOffset":128452,
			"target":34963
		}
	],
	"buffers":[
		{
			"byteLength":128596,
			"uri":"Xtra_WSol_GenBase_CK.bin"
		}
	]
}
