{
	"asset":{
		"generator":"Khronos glTF Blender I/O v4.5.48",
		"version":"2.0"
	},
	"scene":0,
	"scenes":[
		{
			"name":"Scene",
			"nodes":[
				0
			]
		}
	],
	"nodes":[
		{
			"mesh":0,
			"name":"Object"
		}
	],
	"materials":[
		{
			"doubleSided":true,
			"name":"CP_EWAL01",
			"pbrMetallicRoughness":{
				"baseColorFactor":[
					0.800000011920929,
					0.800000011920929,
					0.800000011920929,
					1
				],
				"metallicFactor":0,
				"roughnessFactor":0.5
			}
		},
		{
			"doubleSided":true,
			"name":"CP_EWAL01B",
			"pbrMetallicRoughness":{
				"baseColorFactor":[
					0.800000011920929,
					0.800000011920929,
					0.800000011920929,
					1
				],
				"metallicFactor":0,
				"roughnessFactor":0.5
			}
		},
		{
			"doubleSided":true,
			"name":"CP_ETEC01",
			"pbrMetallicRoughness":{
				"baseColorFactor":[
					0.800000011920929,
					0.800000011920929,
					0.800000011920929,
					1
				],
				"metallicFactor":0,
				"roughnessFactor":0.5
			}
		},
		{
			"doubleSided":true,
			"name":"CP_ITECWAL01",
			"pbrMetallicRoughness":{
				"baseColorFactor":[
					0.800000011920929,
					0.800000011920929,
					0.800000011920929,
					1
				],
				"metallicFactor":0,
				"roughnessFactor":0.5
			}
		},
		{
			"doubleSided":true,
			"name":"CP_IBOR01A",
			"pbrMetallicRoughness":{
				"baseColorFactor":[
					0.800000011920929,
					0.800000011920929,
					0.800000011920929,
					1
				],
				"metallicFactor":0,
				"roughnessFactor":0.5
			}
		},
		{
			"doubleSided":true,
			"name":"CP_ESPEC01",
			"pbrMetallicRoughness":{
				"baseColorFactor":[
					0.800000011920929,
					0.800000011920929,
					0.800000011920929,
					1
				],
				"metallicFactor":0,
				"roughnessFactor":0.5
			}
		}
	],
	"meshes":[
		{
			"name":"Mesh",
			"primitives":[
				{
					"attributes":{
						"POSITION":0,
						"NORMAL":1,
						"TEXCOORD_0":2
					},
					"indices":3,
					"material":0
				},
				{
					"attributes":{
						"POSITION":4,
						"NORMAL":5,
						"TEXCOORD_0":6
					},
					"indices":7,
					"material":1
				},
				{
					"attributes":{
						"POSITION":8,
						"NORMAL":9,
						"TEXCOORD_0":10
					},
					"indices":11,
					"material":2
				},
				{
					"attributes":{
						"POSITION":12,
						"NORMAL":13,
						"TEXCOORD_0":14
					},
					"indices":15,
					"material":3
				},
				{
					"attributes":{
						"POSITION":16,
						"NORMAL":17,
						"TEXCOORD_0":18
					},
					"indices":19,
					"material":4
				},
				{
					"attributes":{
						"POSITION":20,
						"NORMAL":21,
						"TEXCOORD_0":22
					},
					"indices":23,
					"material":5
				}
			]
		}
	],
	"accessors":[
		{
			"bufferView":0,
			"componentType":5126,
			"count":40,
			"max":[
				9,
				-5.25,
				-2
			],
			"min":[
				2,
				-8,
				-8.75
			],
			"type":"VEC3"
		},
		{
			"bufferView":1,
			"componentType":5126,
			"count":40,
			"type":"VEC3"
		},
		{
			"bufferView":2,
			"componentType":5126,
			"count":40,
			"type":"VEC2"
		},
		{
			"bufferView":3,
			"componentType":5123,
			"count":126,
			"type":"SCALAR"
		},
		{
			"bufferView":4,
			"componentType":5126,
			"count":56,
			"max":[
				9,
				-5.25,
				-2
			],
			"min":[
				2,
				-8,
				-8.75
			],
			"type":"VEC3"
		},
		{
			"bufferView":5,
			"componentType":5126,
			"count":56,
			"type":"VEC3"
		},
		{
			"bufferView":6,
			"componentType":5126,
			"count":56,
			"type":"VEC2"
		},
		{
			"bufferView":7,
			"componentType":5123,
			"count":72,
			"type":"SCALAR"
		},
		{
			"bufferView":8,
			"componentType":5126,
			"count":8,
			"max":[
				7.375,
				-5.25,
				-2.5
			],
			"min":[
				3.625,
				-8,
				-8.5
			],
			"type":"VEC3"
		},
		{
			"bufferView":9,
			"componentType":5126,
			"count":8,
			"type":"VEC3"
		},
		{
			"bufferView":10,
			"componentType":5126,
			"count":8,
			"type":"VEC2"
		},
		{
			"bufferView":11,
			"componentType":5123,
			"count":12,
			"type":"SCALAR"
		},
		{
			"bufferView":12,
			"componentType":5126,
			"count":4,
			"max":[
				7.375,
				-5.6875,
				-3.625
			],
			"min":[
				3.625,
				-5.6875,
				-7.40625
			],
			"type":"VEC3"
		},
		{
			"bufferView":13,
			"componentType":5126,
			"count":4,
			"type":"VEC3"
		},
		{
			"bufferView":14,
			"componentType":5126,
			"count":4,
			"type":"VEC2"
		},
		{
			"bufferView":15,
			"componentType":5123,
			"count":6,
			"type":"SCALAR"
		},
		{
			"bufferView":16,
			"componentType":5126,
			"count":16,
			"max":[
				7.375,
				-5.25,
				-3.625
			],
			"min":[
				3.625,
				-5.6875,
				-7.40625
			],
			"type":"VEC3"
		},
		{
			"bufferView":17,
			"componentType":5126,
			"count":16,
			"type":"VEC3"
		},
		{
			"bufferView":18,
			"componentType":5126,
			"count":16,
			"type":"VEC2"
		},
		{
			"bufferView":19,
			"componentType":5123,
			"count":24,
			"type":"SCALAR"
		},
		{
			"bufferView":20,
			"componentType":5126,
			"count":8,
			"max":[
				8.625,
				-5.25,
				-3.625
			],
			"min":[
				2.625,
				-8,
				-7.40625
			],
			"type":"VEC3"
		},
		{
			"bufferView":21,
			"componentType":5126,
			"count":8,
			"type":"VEC3"
		},
		{
			"bufferView":22,
			"componentType":5126,
			"count":8,
			"type":"VEC2"
		},
		{
			"bufferView":23,
			"componentType":5123,
			"count":12,
			"type":"SCALAR"
		}
	],
	"bufferViews":[
		{
			"buffer":0,
			"byteLength":480,
			"byteOffset":0,
			"target":34962
		},
		{
			"buffer":0,
			"byteLength":480,
			"byteOffset":480,
			"target":34962
		},
		{
			"buffer":0,
			"byteLength":320,
			"byteOffset":960,
			"target":34962
		},
		{
			"buffer":0,
			"byteLength":252,
			"byteOffset":1280,
			"target":34963
		},
		{
			"buffer":0,
			"byteLength":672,
			"byteOffset":1532,
			"target":34962
		},
		{
			"buffer":0,
			"byteLength":672,
			"byteOffset":2204,
			"target":34962
		},
		{
			"buffer":0,
			"byteLength":448,
			"byteOffset":2876,
			"target":34962
		},
		{
			"buffer":0,
			"byteLength":144,
			"byteOffset":3324,
			"target":34963
		},
		{
			"buffer":0,
			"byteLength":96,
			"byteOffset":3468,
			"target":34962
		},
		{
			"buffer":0,
			"byteLength":96,
			"byteOffset":3564,
			"target":34962
		},
		{
			"buffer":0,
			"byteLength":64,
			"byteOffset":3660,
			"target":34962
		},
		{
			"buffer":0,
			"byteLength":24,
			"byteOffset":3724,
			"target":34963
		},
		{
			"buffer":0,
			"byteLength":48,
			"byteOffset":3748,
			"target":34962
		},
		{
			"buffer":0,
			"byteLength":48,
			"byteOffset":3796,
			"target":34962
		},
		{
			"buffer":0,
			"byteLength":32,
			"byteOffset":3844,
			"target":34962
		},
		{
			"buffer":0,
			"byteLength":12,
			"byteOffset":3876,
			"target":34963
		},
		{
			"buffer":0,
			"byteLength":192,
			"byteOffset":3888,
			"target":34962
		},
		{
			"buffer":0,
			"byteLength":192,
			"byteOffset":4080,
			"target":34962
		},
		{
			"buffer":0,
			"byteLength":128,
			"byteOffset":4272,
			"target":34962
		},
		{
			"buffer":0,
			"byteLength":48,
			"byteOffset":4400,
			"target":34963
		},
		{
			"buffer":0,
			"byteLength":96,
			"byteOffset":4448,
			"target":34962
		},
		{
			"buffer":0,
			"byteLength":96,
			"byteOffset":4544,
			"target":34962
		},
		{
			"buffer":0,
			"byteLength":64,
			"byteOffset":4640,
			"target":34962
		},
		{
			"buffer":0,
			"byteLength":24,
			"byteOffset":4704,
			"target":34963
		}
	],
	"buffers":[
		{
			"byteLength":4728,
			"uri":"Xtra_Xerxes_Turret.bin"
		}
	]
}
