{
	"asset":{
		"generator":"Khronos glTF Blender I/O v4.5.48",
		"version":"2.0"
	},
	"scene":0,
	"scenes":[
		{
			"name":"Scene",
			"nodes":[
				0
			]
		}
	],
	"nodes":[
		{
			"mesh":0,
			"name":"Object"
		}
	],
	"materials":[
		{
			"doubleSided":true,
			"name":"BD_EWAL08",
			"pbrMetallicRoughness":{
				"baseColorFactor":[
					0.800000011920929,
					0.800000011920929,
					0.800000011920929,
					1
				],
				"metallicFactor":0,
				"roughnessFactor":0.5
			}
		},
		{
			"doubleSided":true,
			"name":"BD_EWAL09",
			"pbrMetallicRoughness":{
				"baseColorFactor":[
					0.800000011920929,
					0.800000011920929,
					0.800000011920929,
					1
				],
				"metallicFactor":0,
				"roughnessFactor":0.5
			}
		},
		{
			"doubleSided":true,
			"name":"BD_EWAL07",
			"pbrMetallicRoughness":{
				"baseColorFactor":[
					0.800000011920929,
					0.800000011920929,
					0.800000011920929,
					1
				],
				"metallicFactor":0,
				"roughnessFactor":0.5
			}
		},
		{
			"doubleSided":true,
			"name":"BD_EWAL03C",
			"pbrMetallicRoughness":{
				"baseColorFactor":[
					0.800000011920929,
					0.800000011920929,
					0.800000011920929,
					1
				],
				"metallicFactor":0,
				"roughnessFactor":0.5
			}
		},
		{
			"doubleSided":true,
			"name":"BD_EWAL05",
			"pbrMetallicRoughness":{
				"baseColorFactor":[
					0.800000011920929,
					0.800000011920929,
					0.800000011920929,
					1
				],
				"metallicFactor":0,
				"roughnessFactor":0.5
			}
		},
		{
			"doubleSided":true,
			"name":"BD_EBOR04",
			"pbrMetallicRoughness":{
				"baseColorFactor":[
					0.800000011920929,
					0.800000011920929,
					0.800000011920929,
					1
				],
				"metallicFactor":0,
				"roughnessFactor":0.5
			}
		},
		{
			"doubleSided":true,
			"name":"BD_ELIG03",
			"pbrMetallicRoughness":{
				"baseColorFactor":[
					0.800000011920929,
					0.800000011920929,
					0.800000011920929,
					1
				],
				"metallicFactor":0,
				"roughnessFactor":0.5
			}
		},
		{
			"doubleSided":true,
			"name":"BD_EWAL15",
			"pbrMetallicRoughness":{
				"baseColorFactor":[
					0.800000011920929,
					0.800000011920929,
					0.800000011920929,
					1
				],
				"metallicFactor":0,
				"roughnessFactor":0.5
			}
		},
		{
			"doubleSided":true,
			"name":"BD_ELIG02",
			"pbrMetallicRoughness":{
				"baseColorFactor":[
					0.800000011920929,
					0.800000011920929,
					0.800000011920929,
					1
				],
				"metallicFactor":0,
				"roughnessFactor":0.5
			}
		},
		{
			"doubleSided":true,
			"name":"BD_ELIG03A",
			"pbrMetallicRoughness":{
				"baseColorFactor":[
					0.800000011920929,
					0.800000011920929,
					0.800000011920929,
					1
				],
				"metallicFactor":0,
				"roughnessFactor":0.5
			}
		},
		{
			"doubleSided":true,
			"name":"BD_ICEILIG02",
			"pbrMetallicRoughness":{
				"baseColorFactor":[
					0.800000011920929,
					0.800000011920929,
					0.800000011920929,
					1
				],
				"metallicFactor":0,
				"roughnessFactor":0.5
			}
		},
		{
			"doubleSided":true,
			"name":"BD_ICEI01",
			"pbrMetallicRoughness":{
				"baseColorFactor":[
					0.800000011920929,
					0.800000011920929,
					0.800000011920929,
					1
				],
				"metallicFactor":0,
				"roughnessFactor":0.5
			}
		},
		{
			"doubleSided":true,
			"name":"BD_ICOMP01",
			"pbrMetallicRoughness":{
				"baseColorFactor":[
					0.800000011920929,
					0.800000011920929,
					0.800000011920929,
					1
				],
				"metallicFactor":0,
				"roughnessFactor":0.5
			}
		},
		{
			"doubleSided":true,
			"name":"BD_IBOR01",
			"pbrMetallicRoughness":{
				"baseColorFactor":[
					0.800000011920929,
					0.800000011920929,
					0.800000011920929,
					1
				],
				"metallicFactor":0,
				"roughnessFactor":0.5
			}
		},
		{
			"doubleSided":true,
			"name":"BD_IFUNCTEC02",
			"pbrMetallicRoughness":{
				"baseColorFactor":[
					0.800000011920929,
					0.800000011920929,
					0.800000011920929,
					1
				],
				"metallicFactor":0,
				"roughnessFactor":0.5
			}
		},
		{
			"doubleSided":true,
			"name":"BD_EWAL10",
			"pbrMetallicRoughness":{
				"baseColorFactor":[
					0.800000011920929,
					0.800000011920929,
					0.800000011920929,
					1
				],
				"metallicFactor":0,
				"roughnessFactor":0.5
			}
		},
		{
			"doubleSided":true,
			"name":"BD_ISPE04",
			"pbrMetallicRoughness":{
				"baseColorFactor":[
					0.800000011920929,
					0.800000011920929,
					0.800000011920929,
					1
				],
				"metallicFactor":0,
				"roughnessFactor":0.5
			}
		}
	],
	"meshes":[
		{
			"name":"Mesh",
			"primitives":[
				{
					"attributes":{
						"POSITION":0,
						"NORMAL":1,
						"TEXCOORD_0":2
					},
					"indices":3,
					"material":0
				},
				{
					"attributes":{
						"POSITION":4,
						"NORMAL":5,
						"TEXCOORD_0":6
					},
					"indices":7,
					"material":1
				},
				{
					"attributes":{
						"POSITION":8,
						"NORMAL":9,
						"TEXCOORD_0":10
					},
					"indices":11,
					"material":2
				},
				{
					"attributes":{
						"POSITION":12,
						"NORMAL":13,
						"TEXCOORD_0":14
					},
					"indices":15,
					"material":3
				},
				{
					"attributes":{
						"POSITION":16,
						"NORMAL":17,
						"TEXCOORD_0":18
					},
					"indices":19,
					"material":4
				},
				{
					"attributes":{
						"POSITION":20,
						"NORMAL":21,
						"TEXCOORD_0":22
					},
					"indices":23,
					"material":5
				},
				{
					"attributes":{
						"POSITION":24,
						"NORMAL":25,
						"TEXCOORD_0":26
					},
					"indices":27,
					"material":6
				},
				{
					"attributes":{
						"POSITION":28,
						"NORMAL":29,
						"TEXCOORD_0":30
					},
					"indices":31,
					"material":7
				},
				{
					"attributes":{
						"POSITION":32,
						"NORMAL":33,
						"TEXCOORD_0":34
					},
					"indices":35,
					"material":8
				},
				{
					"attributes":{
						"POSITION":36,
						"NORMAL":37,
						"TEXCOORD_0":38
					},
					"indices":39,
					"material":9
				},
				{
					"attributes":{
						"POSITION":40,
						"NORMAL":41,
						"TEXCOORD_0":42
					},
					"indices":43,
					"material":10
				},
				{
					"attributes":{
						"POSITION":44,
						"NORMAL":45,
						"TEXCOORD_0":46
					},
					"indices":47,
					"material":11
				},
				{
					"attributes":{
						"POSITION":48,
						"NORMAL":49,
						"TEXCOORD_0":50
					},
					"indices":51,
					"material":12
				},
				{
					"attributes":{
						"POSITION":52,
						"NORMAL":53,
						"TEXCOORD_0":54
					},
					"indices":55,
					"material":13
				},
				{
					"attributes":{
						"POSITION":56,
						"NORMAL":57,
						"TEXCOORD_0":58
					},
					"indices":59,
					"material":14
				},
				{
					"attributes":{
						"POSITION":60,
						"NORMAL":61,
						"TEXCOORD_0":62
					},
					"indices":63,
					"material":15
				},
				{
					"attributes":{
						"POSITION":64,
						"NORMAL":65,
						"TEXCOORD_0":66
					},
					"indices":67,
					"material":16
				}
			]
		}
	],
	"accessors":[
		{
			"bufferView":0,
			"componentType":5126,
			"count":16,
			"max":[
				8,
				-7,
				72
			],
			"min":[
				-8,
				-9,
				-72
			],
			"type":"VEC3"
		},
		{
			"bufferView":1,
			"componentType":5126,
			"count":16,
			"type":"VEC3"
		},
		{
			"bufferView":2,
			"componentType":5126,
			"count":16,
			"type":"VEC2"
		},
		{
			"bufferView":3,
			"componentType":5123,
			"count":30,
			"type":"SCALAR"
		},
		{
			"bufferView":4,
			"componentType":5126,
			"count":16,
			"max":[
				8,
				-9,
				72
			],
			"min":[
				-8,
				-11,
				-72
			],
			"type":"VEC3"
		},
		{
			"bufferView":5,
			"componentType":5126,
			"count":16,
			"type":"VEC3"
		},
		{
			"bufferView":6,
			"componentType":5126,
			"count":16,
			"type":"VEC2"
		},
		{
			"bufferView":7,
			"componentType":5123,
			"count":30,
			"type":"SCALAR"
		},
		{
			"bufferView":8,
			"componentType":5126,
			"count":24,
			"max":[
				12,
				-6,
				52
			],
			"min":[
				-12,
				-6,
				-52
			],
			"type":"VEC3"
		},
		{
			"bufferView":9,
			"componentType":5126,
			"count":24,
			"type":"VEC3"
		},
		{
			"bufferView":10,
			"componentType":5126,
			"count":24,
			"type":"VEC2"
		},
		{
			"bufferView":11,
			"componentType":5123,
			"count":36,
			"type":"SCALAR"
		},
		{
			"bufferView":12,
			"componentType":5126,
			"count":366,
			"max":[
				12,
				2,
				72
			],
			"min":[
				-12,
				-14,
				-72
			],
			"type":"VEC3"
		},
		{
			"bufferView":13,
			"componentType":5126,
			"count":366,
			"type":"VEC3"
		},
		{
			"bufferView":14,
			"componentType":5126,
			"count":366,
			"type":"VEC2"
		},
		{
			"bufferView":15,
			"componentType":5123,
			"count":612,
			"type":"SCALAR"
		},
		{
			"bufferView":16,
			"componentType":5126,
			"count":80,
			"max":[
				12,
				-6,
				65
			],
			"min":[
				-12,
				-10,
				-65
			],
			"type":"VEC3"
		},
		{
			"bufferView":17,
			"componentType":5126,
			"count":80,
			"type":"VEC3"
		},
		{
			"bufferView":18,
			"componentType":5126,
			"count":80,
			"type":"VEC2"
		},
		{
			"bufferView":19,
			"componentType":5123,
			"count":156,
			"type":"SCALAR"
		},
		{
			"bufferView":20,
			"componentType":5126,
			"count":40,
			"max":[
				7,
				18,
				26
			],
			"min":[
				-7,
				9,
				-26
			],
			"type":"VEC3"
		},
		{
			"bufferView":21,
			"componentType":5126,
			"count":40,
			"type":"VEC3"
		},
		{
			"bufferView":22,
			"componentType":5126,
			"count":40,
			"type":"VEC2"
		},
		{
			"bufferView":23,
			"componentType":5123,
			"count":72,
			"type":"SCALAR"
		},
		{
			"bufferView":24,
			"componentType":5126,
			"count":28,
			"max":[
				8,
				17.5,
				26
			],
			"min":[
				-8,
				-14,
				-26
			],
			"type":"VEC3"
		},
		{
			"bufferView":25,
			"componentType":5126,
			"count":28,
			"type":"VEC3"
		},
		{
			"bufferView":26,
			"componentType":5126,
			"count":28,
			"type":"VEC2"
		},
		{
			"bufferView":27,
			"componentType":5123,
			"count":48,
			"type":"SCALAR"
		},
		{
			"bufferView":28,
			"componentType":5126,
			"count":68,
			"max":[
				7,
				18,
				50
			],
			"min":[
				-7,
				2,
				-50
			],
			"type":"VEC3"
		},
		{
			"bufferView":29,
			"componentType":5126,
			"count":68,
			"type":"VEC3"
		},
		{
			"bufferView":30,
			"componentType":5126,
			"count":68,
			"type":"VEC2"
		},
		{
			"bufferView":31,
			"componentType":5123,
			"count":114,
			"type":"SCALAR"
		},
		{
			"bufferView":32,
			"componentType":5126,
			"count":20,
			"max":[
				7,
				14,
				48
			],
			"min":[
				-7,
				2,
				-48
			],
			"type":"VEC3"
		},
		{
			"bufferView":33,
			"componentType":5126,
			"count":20,
			"type":"VEC3"
		},
		{
			"bufferView":34,
			"componentType":5126,
			"count":20,
			"type":"VEC2"
		},
		{
			"bufferView":35,
			"componentType":5123,
			"count":42,
			"type":"SCALAR"
		},
		{
			"bufferView":36,
			"componentType":5126,
			"count":8,
			"max":[
				7,
				6,
				50
			],
			"min":[
				-7,
				2,
				-50
			],
			"type":"VEC3"
		},
		{
			"bufferView":37,
			"componentType":5126,
			"count":8,
			"type":"VEC3"
		},
		{
			"bufferView":38,
			"componentType":5126,
			"count":8,
			"type":"VEC2"
		},
		{
			"bufferView":39,
			"componentType":5123,
			"count":12,
			"type":"SCALAR"
		},
		{
			"bufferView":40,
			"componentType":5126,
			"count":16,
			"max":[
				8,
				2,
				56
			],
			"min":[
				-8,
				-6,
				-56
			],
			"type":"VEC3"
		},
		{
			"bufferView":41,
			"componentType":5126,
			"count":16,
			"type":"VEC3"
		},
		{
			"bufferView":42,
			"componentType":5126,
			"count":16,
			"type":"VEC2"
		},
		{
			"bufferView":43,
			"componentType":5123,
			"count":24,
			"type":"SCALAR"
		},
		{
			"bufferView":44,
			"componentType":5126,
			"count":544,
			"max":[
				11,
				18,
				52
			],
			"min":[
				-11,
				-2,
				-52
			],
			"type":"VEC3"
		},
		{
			"bufferView":45,
			"componentType":5126,
			"count":544,
			"type":"VEC3"
		},
		{
			"bufferView":46,
			"componentType":5126,
			"count":544,
			"type":"VEC2"
		},
		{
			"bufferView":47,
			"componentType":5123,
			"count":1176,
			"type":"SCALAR"
		},
		{
			"bufferView":48,
			"componentType":5126,
			"count":20,
			"max":[
				8,
				-2,
				9.5
			],
			"min":[
				-8,
				-6,
				-9.5
			],
			"type":"VEC3"
		},
		{
			"bufferView":49,
			"componentType":5126,
			"count":20,
			"type":"VEC3"
		},
		{
			"bufferView":50,
			"componentType":5126,
			"count":20,
			"type":"VEC2"
		},
		{
			"bufferView":51,
			"componentType":5123,
			"count":36,
			"type":"SCALAR"
		},
		{
			"bufferView":52,
			"componentType":5126,
			"count":128,
			"max":[
				10.5234375,
				14,
				26
			],
			"min":[
				-10.5234375,
				2,
				-26
			],
			"type":"VEC3"
		},
		{
			"bufferView":53,
			"componentType":5126,
			"count":128,
			"type":"VEC3"
		},
		{
			"bufferView":54,
			"componentType":5126,
			"count":128,
			"type":"VEC2"
		},
		{
			"bufferView":55,
			"componentType":5123,
			"count":192,
			"type":"SCALAR"
		},
		{
			"bufferView":56,
			"componentType":5126,
			"count":16,
			"max":[
				12,
				-6,
				64
			],
			"min":[
				-12,
				-6,
				-64
			],
			"type":"VEC3"
		},
		{
			"bufferView":57,
			"componentType":5126,
			"count":16,
			"type":"VEC3"
		},
		{
			"bufferView":58,
			"componentType":5126,
			"count":16,
			"type":"VEC2"
		},
		{
			"bufferView":59,
			"componentType":5123,
			"count":24,
			"type":"SCALAR"
		},
		{
			"bufferView":60,
			"componentType":5126,
			"count":8,
			"max":[
				4,
				18,
				2
			],
			"min":[
				-4,
				14,
				-2
			],
			"type":"VEC3"
		},
		{
			"bufferView":61,
			"componentType":5126,
			"count":8,
			"type":"VEC3"
		},
		{
			"bufferView":62,
			"componentType":5126,
			"count":8,
			"type":"VEC2"
		},
		{
			"bufferView":63,
			"componentType":5123,
			"count":12,
			"type":"SCALAR"
		},
		{
			"bufferView":64,
			"componentType":5126,
			"count":12,
			"max":[
				10.5,
				-12,
				4.5
			],
			"min":[
				-10.5,
				-14,
				-4.5
			],
			"type":"VEC3"
		},
		{
			"bufferView":65,
			"componentType":5126,
			"count":12,
			"type":"VEC3"
		},
		{
			"bufferView":66,
			"componentType":5126,
			"count":12,
			"type":"VEC2"
		},
		{
			"bufferView":67,
			"componentType":5123,
			"count":24,
			"type":"SCALAR"
		}
	],
	"bufferViews":[
		{
			"buffer":0,
			"byteLength":192,
			"byteOffset":0,
			"target":34962
		},
		{
			"buffer":0,
			"byteLength":192,
			"byteOffset":192,
			"target":34962
		},
		{
			"buffer":0,
			"byteLength":128,
			"byteOffset":384,
			"target":34962
		},
		{
			"buffer":0,
			"byteLength":60,
			"byteOffset":512,
			"target":34963
		},
		{
			"buffer":0,
			"byteLength":192,
			"byteOffset":572,
			"target":34962
		},
		{
			"buffer":0,
			"byteLength":192,
			"byteOffset":764,
			"target":34962
		},
		{
			"buffer":0,
			"byteLength":128,
			"byteOffset":956,
			"target":34962
		},
		{
			"buffer":0,
			"byteLength":60,
			"byteOffset":1084,
			"target":34963
		},
		{
			"buffer":0,
			"byteLength":288,
			"byteOffset":1144,
			"target":34962
		},
		{
			"buffer":0,
			"byteLength":288,
			"byteOffset":1432,
			"target":34962
		},
		{
			"buffer":0,
			"byteLength":192,
			"byteOffset":1720,
			"target":34962
		},
		{
			"buffer":0,
			"byteLength":72,
			"byteOffset":1912,
			"target":34963
		},
		{
			"buffer":0,
			"byteLength":4392,
			"byteOffset":1984,
			"target":34962
		},
		{
			"buffer":0,
			"byteLength":4392,
			"byteOffset":6376,
			"target":34962
		},
		{
			"buffer":0,
			"byteLength":2928,
			"byteOffset":10768,
			"target":34962
		},
		{
			"buffer":0,
			"byteLength":1224,
			"byteOffset":13696,
			"target":34963
		},
		{
			"buffer":0,
			"byteLength":960,
			"byteOffset":14920,
			"target":34962
		},
		{
			"buffer":0,
			"byteLength":960,
			"byteOffset":15880,
			"target":34962
		},
		{
			"buffer":0,
			"byteLength":640,
			"byteOffset":16840,
			"target":34962
		},
		{
			"buffer":0,
			"byteLength":312,
			"byteOffset":17480,
			"target":34963
		},
		{
			"buffer":0,
			"byteLength":480,
			"byteOffset":17792,
			"target":34962
		},
		{
			"buffer":0,
			"byteLength":480,
			"byteOffset":18272,
			"target":34962
		},
		{
			"buffer":0,
			"byteLength":320,
			"byteOffset":18752,
			"target":34962
		},
		{
			"buffer":0,
			"byteLength":144,
			"byteOffset":19072,
			"target":34963
		},
		{
			"buffer":0,
			"byteLength":336,
			"byteOffset":19216,
			"target":34962
		},
		{
			"buffer":0,
			"byteLength":336,
			"byteOffset":19552,
			"target":34962
		},
		{
			"buffer":0,
			"byteLength":224,
			"byteOffset":19888,
			"target":34962
		},
		{
			"buffer":0,
			"byteLength":96,
			"byteOffset":20112,
			"target":34963
		},
		{
			"buffer":0,
			"byteLength":816,
			"byteOffset":20208,
			"target":34962
		},
		{
			"buffer":0,
			"byteLength":816,
			"byteOffset":21024,
			"target":34962
		},
		{
			"buffer":0,
			"byteLength":544,
			"byteOffset":21840,
			"target":34962
		},
		{
			"buffer":0,
			"byteLength":228,
			"byteOffset":22384,
			"target":34963
		},
		{
			"buffer":0,
			"byteLength":240,
			"byteOffset":22612,
			"target":34962
		},
		{
			"buffer":0,
			"byteLength":240,
			"byteOffset":22852,
			"target":34962
		},
		{
			"buffer":0,
			"byteLength":160,
			"byteOffset":23092,
			"target":34962
		},
		{
			"buffer":0,
			"byteLength":84,
			"byteOffset":23252,
			"target":34963
		},
		{
			"buffer":0,
			"byteLength":96,
			"byteOffset":23336,
			"target":34962
		},
		{
			"buffer":0,
			"byteLength":96,
			"byteOffset":23432,
			"target":34962
		},
		{
			"buffer":0,
			"byteLength":64,
			"byteOffset":23528,
			"target":34962
		},
		{
			"buffer":0,
			"byteLength":24,
			"byteOffset":23592,
			"target":34963
		},
		{
			"buffer":0,
			"byteLength":192,
			"byteOffset":23616,
			"target":34962
		},
		{
			"buffer":0,
			"byteLength":192,
			"byteOffset":23808,
			"target":34962
		},
		{
			"buffer":0,
			"byteLength":128,
			"byteOffset":24000,
			"target":34962
		},
		{
			"buffer":0,
			"byteLength":48,
			"byteOffset":24128,
			"target":34963
		},
		{
			"buffer":0,
			"byteLength":6528,
			"byteOffset":24176,
			"target":34962
		},
		{
			"buffer":0,
			"byteLength":6528,
			"byteOffset":30704,
			"target":34962
		},
		{
			"buffer":0,
			"byteLength":4352,
			"byteOffset":37232,
			"target":34962
		},
		{
			"buffer":0,
			"byteLength":2352,
			"byteOffset":41584,
			"target":34963
		},
		{
			"buffer":0,
			"byteLength":240,
			"byteOffset":43936,
			"target":34962
		},
		{
			"buffer":0,
			"byteLength":240,
			"byteOffset":44176,
			"target":34962
		},
		{
			"buffer":0,
			"byteLength":160,
			"byteOffset":44416,
			"target":34962
		},
		{
			"buffer":0,
			"byteLength":72,
			"byteOffset":44576,
			"target":34963
		},
		{
			"buffer":0,
			"byteLength":1536,
			"byteOffset":44648,
			"target":34962
		},
		{
			"buffer":0,
			"byteLength":1536,
			"byteOffset":46184,
			"target":34962
		},
		{
			"buffer":0,
			"byteLength":1024,
			"byteOffset":47720,
			"target":34962
		},
		{
			"buffer":0,
			"byteLength":384,
			"byteOffset":48744,
			"target":34963
		},
		{
			"buffer":0,
			"byteLength":192,
			"byteOffset":49128,
			"target":34962
		},
		{
			"buffer":0,
			"byteLength":192,
			"byteOffset":49320,
			"target":34962
		},
		{
			"buffer":0,
			"byteLength":128,
			"byteOffset":49512,
			"target":34962
		},
		{
			"buffer":0,
			"byteLength":48,
			"byteOffset":49640,
			"target":34963
		},
		{
			"buffer":0,
			"byteLength":96,
			"byteOffset":49688,
			"target":34962
		},
		{
			"buffer":0,
			"byteLength":96,
			"byteOffset":49784,
			"target":34962
		},
		{
			"buffer":0,
			"byteLength":64,
			"byteOffset":49880,
			"target":34962
		},
		{
			"buffer":0,
			"byteLength":24,
			"byteOffset":49944,
			"target":34963
		},
		{
			"buffer":0,
			"byteLength":144,
			"byteOffset":49968,
			"target":34962
		},
		{
			"buffer":0,
			"byteLength":144,
			"byteOffset":50112,
			"target":34962
		},
		{
			"buffer":0,
			"byteLength":96,
			"byteOffset":50256,
			"target":34962
		},
		{
			"buffer":0,
			"byteLength":48,
			"byteOffset":50352,
			"target":34963
		}
	],
	"buffers":[
		{
			"byteLength":50400,
			"uri":"Xtra_Insurgence_ccb_bd_bridge1.bin"
		}
	]
}
