{
	"asset":{
		"generator":"Khronos glTF Blender I/O v4.5.48",
		"version":"2.0"
	},
	"scene":0,
	"scenes":[
		{
			"name":"Scene",
			"nodes":[
				0
			]
		}
	],
	"nodes":[
		{
			"mesh":0,
			"name":"Object"
		}
	],
	"materials":[
		{
			"doubleSided":true,
			"name":"BD_IFLO01",
			"pbrMetallicRoughness":{
				"baseColorFactor":[
					0.800000011920929,
					0.800000011920929,
					0.800000011920929,
					1
				],
				"metallicFactor":0,
				"roughnessFactor":0.5
			}
		},
		{
			"doubleSided":true,
			"name":"BD_1WAL03C",
			"pbrMetallicRoughness":{
				"baseColorFactor":[
					0.800000011920929,
					0.800000011920929,
					0.800000011920929,
					1
				],
				"metallicFactor":0,
				"roughnessFactor":0.5
			}
		},
		{
			"doubleSided":true,
			"name":"BD_ICEILIG01",
			"pbrMetallicRoughness":{
				"baseColorFactor":[
					0.800000011920929,
					0.800000011920929,
					0.800000011920929,
					1
				],
				"metallicFactor":0,
				"roughnessFactor":0.5
			}
		},
		{
			"doubleSided":true,
			"name":"BD_ETERRAIN2A",
			"pbrMetallicRoughness":{
				"baseColorFactor":[
					0.800000011920929,
					0.800000011920929,
					0.800000011920929,
					1
				],
				"metallicFactor":0,
				"roughnessFactor":0.5
			}
		},
		{
			"doubleSided":true,
			"name":"BD_EBOR05",
			"pbrMetallicRoughness":{
				"baseColorFactor":[
					0.800000011920929,
					0.800000011920929,
					0.800000011920929,
					1
				],
				"metallicFactor":0,
				"roughnessFactor":0.5
			}
		},
		{
			"doubleSided":true,
			"name":"BD_ISPE01",
			"pbrMetallicRoughness":{
				"baseColorFactor":[
					0.800000011920929,
					0.800000011920929,
					0.800000011920929,
					1
				],
				"metallicFactor":0,
				"roughnessFactor":0.5
			}
		},
		{
			"doubleSided":true,
			"name":"BD_THRESH01A",
			"pbrMetallicRoughness":{
				"baseColorFactor":[
					0.800000011920929,
					0.800000011920929,
					0.800000011920929,
					1
				],
				"metallicFactor":0,
				"roughnessFactor":0.5
			}
		},
		{
			"doubleSided":true,
			"name":"BD_EFLO01",
			"pbrMetallicRoughness":{
				"baseColorFactor":[
					0.800000011920929,
					0.800000011920929,
					0.800000011920929,
					1
				],
				"metallicFactor":0,
				"roughnessFactor":0.5
			}
		},
		{
			"doubleSided":true,
			"name":"BD_ECOMBO3B",
			"pbrMetallicRoughness":{
				"baseColorFactor":[
					0.800000011920929,
					0.800000011920929,
					0.800000011920929,
					1
				],
				"metallicFactor":0,
				"roughnessFactor":0.5
			}
		},
		{
			"doubleSided":true,
			"name":"BD_EWAL14",
			"pbrMetallicRoughness":{
				"baseColorFactor":[
					0.800000011920929,
					0.800000011920929,
					0.800000011920929,
					1
				],
				"metallicFactor":0,
				"roughnessFactor":0.5
			}
		},
		{
			"doubleSided":true,
			"name":"BD_ICEI03",
			"pbrMetallicRoughness":{
				"baseColorFactor":[
					0.800000011920929,
					0.800000011920929,
					0.800000011920929,
					1
				],
				"metallicFactor":0,
				"roughnessFactor":0.5
			}
		},
		{
			"doubleSided":true,
			"name":"BD_ICEI01",
			"pbrMetallicRoughness":{
				"baseColorFactor":[
					0.800000011920929,
					0.800000011920929,
					0.800000011920929,
					1
				],
				"metallicFactor":0,
				"roughnessFactor":0.5
			}
		},
		{
			"doubleSided":true,
			"name":"BD_ISPE04",
			"pbrMetallicRoughness":{
				"baseColorFactor":[
					0.800000011920929,
					0.800000011920929,
					0.800000011920929,
					1
				],
				"metallicFactor":0,
				"roughnessFactor":0.5
			}
		},
		{
			"doubleSided":true,
			"name":"BD_ISPE06",
			"pbrMetallicRoughness":{
				"baseColorFactor":[
					0.800000011920929,
					0.800000011920929,
					0.800000011920929,
					1
				],
				"metallicFactor":0,
				"roughnessFactor":0.5
			}
		},
		{
			"doubleSided":true,
			"name":"BD_EWAL10",
			"pbrMetallicRoughness":{
				"baseColorFactor":[
					0.800000011920929,
					0.800000011920929,
					0.800000011920929,
					1
				],
				"metallicFactor":0,
				"roughnessFactor":0.5
			}
		},
		{
			"doubleSided":true,
			"name":"BD_ESPE01",
			"pbrMetallicRoughness":{
				"baseColorFactor":[
					0.800000011920929,
					0.800000011920929,
					0.800000011920929,
					1
				],
				"metallicFactor":0,
				"roughnessFactor":0.5
			}
		},
		{
			"doubleSided":true,
			"name":"BD_ICOLIGOLA",
			"pbrMetallicRoughness":{
				"baseColorFactor":[
					0.800000011920929,
					0.800000011920929,
					0.800000011920929,
					1
				],
				"metallicFactor":0,
				"roughnessFactor":0.5
			}
		},
		{
			"doubleSided":true,
			"name":"BD_EWAL03C",
			"pbrMetallicRoughness":{
				"baseColorFactor":[
					0.800000011920929,
					0.800000011920929,
					0.800000011920929,
					1
				],
				"metallicFactor":0,
				"roughnessFactor":0.5
			}
		}
	],
	"meshes":[
		{
			"name":"Mesh",
			"primitives":[
				{
					"attributes":{
						"POSITION":0,
						"NORMAL":1,
						"TEXCOORD_0":2
					},
					"indices":3,
					"material":0
				},
				{
					"attributes":{
						"POSITION":4,
						"NORMAL":5,
						"TEXCOORD_0":6
					},
					"indices":7,
					"material":1
				},
				{
					"attributes":{
						"POSITION":8,
						"NORMAL":9,
						"TEXCOORD_0":10
					},
					"indices":11,
					"material":2
				},
				{
					"attributes":{
						"POSITION":12,
						"NORMAL":13,
						"TEXCOORD_0":14
					},
					"indices":15,
					"material":3
				},
				{
					"attributes":{
						"POSITION":16,
						"NORMAL":17,
						"TEXCOORD_0":18
					},
					"indices":19,
					"material":4
				},
				{
					"attributes":{
						"POSITION":20,
						"NORMAL":21,
						"TEXCOORD_0":22
					},
					"indices":23,
					"material":5
				},
				{
					"attributes":{
						"POSITION":24,
						"NORMAL":25,
						"TEXCOORD_0":26
					},
					"indices":27,
					"material":6
				},
				{
					"attributes":{
						"POSITION":28,
						"NORMAL":29,
						"TEXCOORD_0":30
					},
					"indices":31,
					"material":7
				},
				{
					"attributes":{
						"POSITION":32,
						"NORMAL":33,
						"TEXCOORD_0":34
					},
					"indices":35,
					"material":8
				},
				{
					"attributes":{
						"POSITION":36,
						"NORMAL":37,
						"TEXCOORD_0":38
					},
					"indices":39,
					"material":9
				},
				{
					"attributes":{
						"POSITION":40,
						"NORMAL":41,
						"TEXCOORD_0":42
					},
					"indices":43,
					"material":10
				},
				{
					"attributes":{
						"POSITION":44,
						"NORMAL":45,
						"TEXCOORD_0":46
					},
					"indices":47,
					"material":11
				},
				{
					"attributes":{
						"POSITION":48,
						"NORMAL":49,
						"TEXCOORD_0":50
					},
					"indices":51,
					"material":12
				},
				{
					"attributes":{
						"POSITION":52,
						"NORMAL":53,
						"TEXCOORD_0":54
					},
					"indices":55,
					"material":13
				},
				{
					"attributes":{
						"POSITION":56,
						"NORMAL":57,
						"TEXCOORD_0":58
					},
					"indices":59,
					"material":14
				},
				{
					"attributes":{
						"POSITION":60,
						"NORMAL":61,
						"TEXCOORD_0":62
					},
					"indices":63,
					"material":15
				},
				{
					"attributes":{
						"POSITION":64,
						"NORMAL":65,
						"TEXCOORD_0":66
					},
					"indices":67,
					"material":16
				},
				{
					"attributes":{
						"POSITION":68,
						"NORMAL":69,
						"TEXCOORD_0":70
					},
					"indices":71,
					"material":17
				}
			]
		}
	],
	"accessors":[
		{
			"bufferView":0,
			"componentType":5126,
			"count":92,
			"max":[
				17.5,
				1,
				17.5
			],
			"min":[
				-17.5,
				-41,
				-17.5
			],
			"type":"VEC3"
		},
		{
			"bufferView":1,
			"componentType":5126,
			"count":92,
			"type":"VEC3"
		},
		{
			"bufferView":2,
			"componentType":5126,
			"count":92,
			"type":"VEC2"
		},
		{
			"bufferView":3,
			"componentType":5123,
			"count":306,
			"type":"SCALAR"
		},
		{
			"bufferView":4,
			"componentType":5126,
			"count":629,
			"max":[
				21.375,
				19,
				23
			],
			"min":[
				-21.375,
				-51,
				-23
			],
			"type":"VEC3"
		},
		{
			"bufferView":5,
			"componentType":5126,
			"count":629,
			"type":"VEC3"
		},
		{
			"bufferView":6,
			"componentType":5126,
			"count":629,
			"type":"VEC2"
		},
		{
			"bufferView":7,
			"componentType":5123,
			"count":1233,
			"type":"SCALAR"
		},
		{
			"bufferView":8,
			"componentType":5126,
			"count":98,
			"max":[
				8,
				2.5,
				8
			],
			"min":[
				-8,
				-30.5,
				-8
			],
			"type":"VEC3"
		},
		{
			"bufferView":9,
			"componentType":5126,
			"count":98,
			"type":"VEC3"
		},
		{
			"bufferView":10,
			"componentType":5126,
			"count":98,
			"type":"VEC2"
		},
		{
			"bufferView":11,
			"componentType":5123,
			"count":192,
			"type":"SCALAR"
		},
		{
			"bufferView":12,
			"componentType":5126,
			"count":302,
			"max":[
				20,
				20,
				17.5
			],
			"min":[
				-20,
				-51,
				-17.5
			],
			"type":"VEC3"
		},
		{
			"bufferView":13,
			"componentType":5126,
			"count":302,
			"type":"VEC3"
		},
		{
			"bufferView":14,
			"componentType":5126,
			"count":302,
			"type":"VEC2"
		},
		{
			"bufferView":15,
			"componentType":5123,
			"count":765,
			"type":"SCALAR"
		},
		{
			"bufferView":16,
			"componentType":5126,
			"count":145,
			"max":[
				24,
				14.625,
				24
			],
			"min":[
				-24,
				-13,
				-24
			],
			"type":"VEC3"
		},
		{
			"bufferView":17,
			"componentType":5126,
			"count":145,
			"type":"VEC3"
		},
		{
			"bufferView":18,
			"componentType":5126,
			"count":145,
			"type":"VEC2"
		},
		{
			"bufferView":19,
			"componentType":5123,
			"count":243,
			"type":"SCALAR"
		},
		{
			"bufferView":20,
			"componentType":5126,
			"count":70,
			"max":[
				24,
				19,
				24
			],
			"min":[
				-24,
				0,
				-24
			],
			"type":"VEC3"
		},
		{
			"bufferView":21,
			"componentType":5126,
			"count":70,
			"type":"VEC3"
		},
		{
			"bufferView":22,
			"componentType":5126,
			"count":70,
			"type":"VEC2"
		},
		{
			"bufferView":23,
			"componentType":5123,
			"count":141,
			"type":"SCALAR"
		},
		{
			"bufferView":24,
			"componentType":5126,
			"count":88,
			"max":[
				24,
				0,
				24
			],
			"min":[
				-24,
				-2.091457489762264e-16,
				-24
			],
			"type":"VEC3"
		},
		{
			"bufferView":25,
			"componentType":5126,
			"count":88,
			"type":"VEC3"
		},
		{
			"bufferView":26,
			"componentType":5126,
			"count":88,
			"type":"VEC2"
		},
		{
			"bufferView":27,
			"componentType":5123,
			"count":192,
			"type":"SCALAR"
		},
		{
			"bufferView":28,
			"componentType":5126,
			"count":201,
			"max":[
				28,
				15.162296295166016,
				28
			],
			"min":[
				-23,
				-13,
				-28
			],
			"type":"VEC3"
		},
		{
			"bufferView":29,
			"componentType":5126,
			"count":201,
			"type":"VEC3"
		},
		{
			"bufferView":30,
			"componentType":5126,
			"count":201,
			"type":"VEC2"
		},
		{
			"bufferView":31,
			"componentType":5123,
			"count":381,
			"type":"SCALAR"
		},
		{
			"bufferView":32,
			"componentType":5126,
			"count":32,
			"max":[
				13.0625,
				15.162296295166016,
				20
			],
			"min":[
				-13.0625,
				10,
				-20
			],
			"type":"VEC3"
		},
		{
			"bufferView":33,
			"componentType":5126,
			"count":32,
			"type":"VEC3"
		},
		{
			"bufferView":34,
			"componentType":5126,
			"count":32,
			"type":"VEC2"
		},
		{
			"bufferView":35,
			"componentType":5123,
			"count":66,
			"type":"SCALAR"
		},
		{
			"bufferView":36,
			"componentType":5126,
			"count":14,
			"max":[
				-8,
				4,
				23
			],
			"min":[
				-23,
				0,
				7.65625
			],
			"type":"VEC3"
		},
		{
			"bufferView":37,
			"componentType":5126,
			"count":14,
			"type":"VEC3"
		},
		{
			"bufferView":38,
			"componentType":5126,
			"count":14,
			"type":"VEC2"
		},
		{
			"bufferView":39,
			"componentType":5123,
			"count":24,
			"type":"SCALAR"
		},
		{
			"bufferView":40,
			"componentType":5126,
			"count":30,
			"max":[
				13,
				2.5,
				13
			],
			"min":[
				-28,
				-13,
				-13
			],
			"type":"VEC3"
		},
		{
			"bufferView":41,
			"componentType":5126,
			"count":30,
			"type":"VEC3"
		},
		{
			"bufferView":42,
			"componentType":5126,
			"count":30,
			"type":"VEC2"
		},
		{
			"bufferView":43,
			"componentType":5123,
			"count":42,
			"type":"SCALAR"
		},
		{
			"bufferView":44,
			"componentType":5126,
			"count":32,
			"max":[
				6.5,
				-30.5,
				2
			],
			"min":[
				-6.5,
				-41,
				-2
			],
			"type":"VEC3"
		},
		{
			"bufferView":45,
			"componentType":5126,
			"count":32,
			"type":"VEC3"
		},
		{
			"bufferView":46,
			"componentType":5126,
			"count":32,
			"type":"VEC2"
		},
		{
			"bufferView":47,
			"componentType":5123,
			"count":48,
			"type":"SCALAR"
		},
		{
			"bufferView":48,
			"componentType":5126,
			"count":20,
			"max":[
				23,
				10.9375,
				9.03125
			],
			"min":[
				-23,
				0,
				-9.03125
			],
			"type":"VEC3"
		},
		{
			"bufferView":49,
			"componentType":5126,
			"count":20,
			"type":"VEC3"
		},
		{
			"bufferView":50,
			"componentType":5126,
			"count":20,
			"type":"VEC2"
		},
		{
			"bufferView":51,
			"componentType":5123,
			"count":48,
			"type":"SCALAR"
		},
		{
			"bufferView":52,
			"componentType":5126,
			"count":29,
			"max":[
				12.262228012084961,
				19,
				18.60536003112793
			],
			"min":[
				-12.28952693939209,
				10.907830238342285,
				-18.59375
			],
			"type":"VEC3"
		},
		{
			"bufferView":53,
			"componentType":5126,
			"count":29,
			"type":"VEC3"
		},
		{
			"bufferView":54,
			"componentType":5126,
			"count":29,
			"type":"VEC2"
		},
		{
			"bufferView":55,
			"componentType":5123,
			"count":63,
			"type":"SCALAR"
		},
		{
			"bufferView":56,
			"componentType":5126,
			"count":28,
			"max":[
				6,
				12.25,
				6
			],
			"min":[
				-6,
				11.75,
				-6
			],
			"type":"VEC3"
		},
		{
			"bufferView":57,
			"componentType":5126,
			"count":28,
			"type":"VEC3"
		},
		{
			"bufferView":58,
			"componentType":5126,
			"count":28,
			"type":"VEC2"
		},
		{
			"bufferView":59,
			"componentType":5123,
			"count":78,
			"type":"SCALAR"
		},
		{
			"bufferView":60,
			"componentType":5126,
			"count":8,
			"max":[
				4,
				11.25,
				4
			],
			"min":[
				-4,
				11.25,
				-4
			],
			"type":"VEC3"
		},
		{
			"bufferView":61,
			"componentType":5126,
			"count":8,
			"type":"VEC3"
		},
		{
			"bufferView":62,
			"componentType":5126,
			"count":8,
			"type":"VEC2"
		},
		{
			"bufferView":63,
			"componentType":5123,
			"count":18,
			"type":"SCALAR"
		},
		{
			"bufferView":64,
			"componentType":5126,
			"count":124,
			"max":[
				15.75,
				18.71875,
				15.75
			],
			"min":[
				-15.75,
				-39.125,
				-15.75
			],
			"type":"VEC3"
		},
		{
			"bufferView":65,
			"componentType":5126,
			"count":124,
			"type":"VEC3"
		},
		{
			"bufferView":66,
			"componentType":5126,
			"count":124,
			"type":"VEC2"
		},
		{
			"bufferView":67,
			"componentType":5123,
			"count":156,
			"type":"SCALAR"
		},
		{
			"bufferView":68,
			"componentType":5126,
			"count":292,
			"max":[
				16,
				18.96875,
				16
			],
			"min":[
				-16,
				-39.25,
				-16
			],
			"type":"VEC3"
		},
		{
			"bufferView":69,
			"componentType":5126,
			"count":292,
			"type":"VEC3"
		},
		{
			"bufferView":70,
			"componentType":5126,
			"count":292,
			"type":"VEC2"
		},
		{
			"bufferView":71,
			"componentType":5123,
			"count":654,
			"type":"SCALAR"
		}
	],
	"bufferViews":[
		{
			"buffer":0,
			"byteLength":1104,
			"byteOffset":0,
			"target":34962
		},
		{
			"buffer":0,
			"byteLength":1104,
			"byteOffset":1104,
			"target":34962
		},
		{
			"buffer":0,
			"byteLength":736,
			"byteOffset":2208,
			"target":34962
		},
		{
			"buffer":0,
			"byteLength":612,
			"byteOffset":2944,
			"target":34963
		},
		{
			"buffer":0,
			"byteLength":7548,
			"byteOffset":3556,
			"target":34962
		},
		{
			"buffer":0,
			"byteLength":7548,
			"byteOffset":11104,
			"target":34962
		},
		{
			"buffer":0,
			"byteLength":5032,
			"byteOffset":18652,
			"target":34962
		},
		{
			"buffer":0,
			"byteLength":2466,
			"byteOffset":23684,
			"target":34963
		},
		{
			"buffer":0,
			"byteLength":1176,
			"byteOffset":26152,
			"target":34962
		},
		{
			"buffer":0,
			"byteLength":1176,
			"byteOffset":27328,
			"target":34962
		},
		{
			"buffer":0,
			"byteLength":784,
			"byteOffset":28504,
			"target":34962
		},
		{
			"buffer":0,
			"byteLength":384,
			"byteOffset":29288,
			"target":34963
		},
		{
			"buffer":0,
			"byteLength":3624,
			"byteOffset":29672,
			"target":34962
		},
		{
			"buffer":0,
			"byteLength":3624,
			"byteOffset":33296,
			"target":34962
		},
		{
			"buffer":0,
			"byteLength":2416,
			"byteOffset":36920,
			"target":34962
		},
		{
			"buffer":0,
			"byteLength":1530,
			"byteOffset":39336,
			"target":34963
		},
		{
			"buffer":0,
			"byteLength":1740,
			"byteOffset":40868,
			"target":34962
		},
		{
			"buffer":0,
			"byteLength":1740,
			"byteOffset":42608,
			"target":34962
		},
		{
			"buffer":0,
			"byteLength":1160,
			"byteOffset":44348,
			"target":34962
		},
		{
			"buffer":0,
			"byteLength":486,
			"byteOffset":45508,
			"target":34963
		},
		{
			"buffer":0,
			"byteLength":840,
			"byteOffset":45996,
			"target":34962
		},
		{
			"buffer":0,
			"byteLength":840,
			"byteOffset":46836,
			"target":34962
		},
		{
			"buffer":0,
			"byteLength":560,
			"byteOffset":47676,
			"target":34962
		},
		{
			"buffer":0,
			"byteLength":282,
			"byteOffset":48236,
			"target":34963
		},
		{
			"buffer":0,
			"byteLength":1056,
			"byteOffset":48520,
			"target":34962
		},
		{
			"buffer":0,
			"byteLength":1056,
			"byteOffset":49576,
			"target":34962
		},
		{
			"buffer":0,
			"byteLength":704,
			"byteOffset":50632,
			"target":34962
		},
		{
			"buffer":0,
			"byteLength":384,
			"byteOffset":51336,
			"target":34963
		},
		{
			"buffer":0,
			"byteLength":2412,
			"byteOffset":51720,
			"target":34962
		},
		{
			"buffer":0,
			"byteLength":2412,
			"byteOffset":54132,
			"target":34962
		},
		{
			"buffer":0,
			"byteLength":1608,
			"byteOffset":56544,
			"target":34962
		},
		{
			"buffer":0,
			"byteLength":762,
			"byteOffset":58152,
			"target":34963
		},
		{
			"buffer":0,
			"byteLength":384,
			"byteOffset":58916,
			"target":34962
		},
		{
			"buffer":0,
			"byteLength":384,
			"byteOffset":59300,
			"target":34962
		},
		{
			"buffer":0,
			"byteLength":256,
			"byteOffset":59684,
			"target":34962
		},
		{
			"buffer":0,
			"byteLength":132,
			"byteOffset":59940,
			"target":34963
		},
		{
			"buffer":0,
			"byteLength":168,
			"byteOffset":60072,
			"target":34962
		},
		{
			"buffer":0,
			"byteLength":168,
			"byteOffset":60240,
			"target":34962
		},
		{
			"buffer":0,
			"byteLength":112,
			"byteOffset":60408,
			"target":34962
		},
		{
			"buffer":0,
			"byteLength":48,
			"byteOffset":60520,
			"target":34963
		},
		{
			"buffer":0,
			"byteLength":360,
			"byteOffset":60568,
			"target":34962
		},
		{
			"buffer":0,
			"byteLength":360,
			"byteOffset":60928,
			"target":34962
		},
		{
			"buffer":0,
			"byteLength":240,
			"byteOffset":61288,
			"target":34962
		},
		{
			"buffer":0,
			"byteLength":84,
			"byteOffset":61528,
			"target":34963
		},
		{
			"buffer":0,
			"byteLength":384,
			"byteOffset":61612,
			"target":34962
		},
		{
			"buffer":0,
			"byteLength":384,
			"byteOffset":61996,
			"target":34962
		},
		{
			"buffer":0,
			"byteLength":256,
			"byteOffset":62380,
			"target":34962
		},
		{
			"buffer":0,
			"byteLength":96,
			"byteOffset":62636,
			"target":34963
		},
		{
			"buffer":0,
			"byteLength":240,
			"byteOffset":62732,
			"target":34962
		},
		{
			"buffer":0,
			"byteLength":240,
			"byteOffset":62972,
			"target":34962
		},
		{
			"buffer":0,
			"byteLength":160,
			"byteOffset":63212,
			"target":34962
		},
		{
			"buffer":0,
			"byteLength":96,
			"byteOffset":63372,
			"target":34963
		},
		{
			"buffer":0,
			"byteLength":348,
			"byteOffset":63468,
			"target":34962
		},
		{
			"buffer":0,
			"byteLength":348,
			"byteOffset":63816,
			"target":34962
		},
		{
			"buffer":0,
			"byteLength":232,
			"byteOffset":64164,
			"target":34962
		},
		{
			"buffer":0,
			"byteLength":126,
			"byteOffset":64396,
			"target":34963
		},
		{
			"buffer":0,
			"byteLength":336,
			"byteOffset":64524,
			"target":34962
		},
		{
			"buffer":0,
			"byteLength":336,
			"byteOffset":64860,
			"target":34962
		},
		{
			"buffer":0,
			"byteLength":224,
			"byteOffset":65196,
			"target":34962
		},
		{
			"buffer":0,
			"byteLength":156,
			"byteOffset":65420,
			"target":34963
		},
		{
			"buffer":0,
			"byteLength":96,
			"byteOffset":65576,
			"target":34962
		},
		{
			"buffer":0,
			"byteLength":96,
			"byteOffset":65672,
			"target":34962
		},
		{
			"buffer":0,
			"byteLength":64,
			"byteOffset":65768,
			"target":34962
		},
		{
			"buffer":0,
			"byteLength":36,
			"byteOffset":65832,
			"target":34963
		},
		{
			"buffer":0,
			"byteLength":1488,
			"byteOffset":65868,
			"target":34962
		},
		{
			"buffer":0,
			"byteLength":1488,
			"byteOffset":67356,
			"target":34962
		},
		{
			"buffer":0,
			"byteLength":992,
			"byteOffset":68844,
			"target":34962
		},
		{
			"buffer":0,
			"byteLength":312,
			"byteOffset":69836,
			"target":34963
		},
		{
			"buffer":0,
			"byteLength":3504,
			"byteOffset":70148,
			"target":34962
		},
		{
			"buffer":0,
			"byteLength":3504,
			"byteOffset":73652,
			"target":34962
		},
		{
			"buffer":0,
			"byteLength":2336,
			"byteOffset":77156,
			"target":34962
		},
		{
			"buffer":0,
			"byteLength":1308,
			"byteOffset":79492,
			"target":34963
		}
	],
	"buffers":[
		{
			"byteLength":80800,
			"uri":"Xtra_Malignant_slremo2.bin"
		}
	]
}
