{
	"asset":{
		"generator":"Khronos glTF Blender I/O v4.5.48",
		"version":"2.0"
	},
	"scene":0,
	"scenes":[
		{
			"name":"Scene",
			"nodes":[
				0
			]
		}
	],
	"nodes":[
		{
			"mesh":0,
			"name":"Object"
		}
	],
	"materials":[
		{
			"doubleSided":true,
			"name":"BE_EPIPE01",
			"pbrMetallicRoughness":{
				"baseColorFactor":[
					0.800000011920929,
					0.800000011920929,
					0.800000011920929,
					1
				],
				"metallicFactor":0,
				"roughnessFactor":0.5
			}
		},
		{
			"doubleSided":true,
			"name":"BE_IHAWAL01",
			"pbrMetallicRoughness":{
				"baseColorFactor":[
					0.800000011920929,
					0.800000011920929,
					0.800000011920929,
					1
				],
				"metallicFactor":0,
				"roughnessFactor":0.5
			}
		},
		{
			"doubleSided":true,
			"name":"BE_EBOR02",
			"pbrMetallicRoughness":{
				"baseColorFactor":[
					0.800000011920929,
					0.800000011920929,
					0.800000011920929,
					1
				],
				"metallicFactor":0,
				"roughnessFactor":0.5
			}
		},
		{
			"doubleSided":true,
			"name":"BE_EWAL02B",
			"pbrMetallicRoughness":{
				"baseColorFactor":[
					0.800000011920929,
					0.800000011920929,
					0.800000011920929,
					1
				],
				"metallicFactor":0,
				"roughnessFactor":0.5
			}
		},
		{
			"doubleSided":true,
			"name":"BE_EWAL01B",
			"pbrMetallicRoughness":{
				"baseColorFactor":[
					0.800000011920929,
					0.800000011920929,
					0.800000011920929,
					1
				],
				"metallicFactor":0,
				"roughnessFactor":0.5
			}
		},
		{
			"doubleSided":true,
			"name":"BE_ICEI01A",
			"pbrMetallicRoughness":{
				"baseColorFactor":[
					0.800000011920929,
					0.800000011920929,
					0.800000011920929,
					1
				],
				"metallicFactor":0,
				"roughnessFactor":0.5
			}
		},
		{
			"doubleSided":true,
			"name":"BE_ICEI03B",
			"pbrMetallicRoughness":{
				"baseColorFactor":[
					0.800000011920929,
					0.800000011920929,
					0.800000011920929,
					1
				],
				"metallicFactor":0,
				"roughnessFactor":0.5
			}
		},
		{
			"doubleSided":true,
			"name":"BE_EWAL02B.001",
			"pbrMetallicRoughness":{
				"baseColorFactor":[
					0.800000011920929,
					0.800000011920929,
					0.800000011920929,
					1
				],
				"metallicFactor":0,
				"roughnessFactor":0.5
			}
		},
		{
			"doubleSided":true,
			"name":"BE_ESPEC06A",
			"pbrMetallicRoughness":{
				"baseColorFactor":[
					0.800000011920929,
					0.800000011920929,
					0.800000011920929,
					1
				],
				"metallicFactor":0,
				"roughnessFactor":0.5
			}
		},
		{
			"doubleSided":true,
			"name":"BE_EPORT02B",
			"pbrMetallicRoughness":{
				"baseColorFactor":[
					0.800000011920929,
					0.800000011920929,
					0.800000011920929,
					1
				],
				"metallicFactor":0,
				"roughnessFactor":0.5
			}
		}
	],
	"meshes":[
		{
			"name":"Mesh",
			"primitives":[
				{
					"attributes":{
						"POSITION":0,
						"NORMAL":1,
						"TEXCOORD_0":2
					},
					"indices":3,
					"material":0
				},
				{
					"attributes":{
						"POSITION":4,
						"NORMAL":5,
						"TEXCOORD_0":6
					},
					"indices":7,
					"material":1
				},
				{
					"attributes":{
						"POSITION":8,
						"NORMAL":9,
						"TEXCOORD_0":10
					},
					"indices":11,
					"material":2
				},
				{
					"attributes":{
						"POSITION":12,
						"NORMAL":13,
						"TEXCOORD_0":14
					},
					"indices":15,
					"material":3
				},
				{
					"attributes":{
						"POSITION":16,
						"NORMAL":17,
						"TEXCOORD_0":18
					},
					"indices":19,
					"material":4
				},
				{
					"attributes":{
						"POSITION":20,
						"NORMAL":21,
						"TEXCOORD_0":22
					},
					"indices":23,
					"material":5
				},
				{
					"attributes":{
						"POSITION":24,
						"NORMAL":25,
						"TEXCOORD_0":26
					},
					"indices":27,
					"material":6
				},
				{
					"attributes":{
						"POSITION":28,
						"NORMAL":29,
						"TEXCOORD_0":30
					},
					"indices":31,
					"material":7
				},
				{
					"attributes":{
						"POSITION":32,
						"NORMAL":33,
						"TEXCOORD_0":34
					},
					"indices":35,
					"material":8
				},
				{
					"attributes":{
						"POSITION":36,
						"NORMAL":37,
						"TEXCOORD_0":38
					},
					"indices":39,
					"material":9
				}
			]
		}
	],
	"accessors":[
		{
			"bufferView":0,
			"componentType":5126,
			"count":30,
			"max":[
				19,
				15,
				19
			],
			"min":[
				-19,
				15,
				-19
			],
			"type":"VEC3"
		},
		{
			"bufferView":1,
			"componentType":5126,
			"count":30,
			"type":"VEC3"
		},
		{
			"bufferView":2,
			"componentType":5126,
			"count":30,
			"type":"VEC2"
		},
		{
			"bufferView":3,
			"componentType":5123,
			"count":90,
			"type":"SCALAR"
		},
		{
			"bufferView":4,
			"componentType":5126,
			"count":30,
			"max":[
				19,
				16,
				19
			],
			"min":[
				-19,
				16,
				-19
			],
			"type":"VEC3"
		},
		{
			"bufferView":5,
			"componentType":5126,
			"count":30,
			"type":"VEC3"
		},
		{
			"bufferView":6,
			"componentType":5126,
			"count":30,
			"type":"VEC2"
		},
		{
			"bufferView":7,
			"componentType":5123,
			"count":90,
			"type":"SCALAR"
		},
		{
			"bufferView":8,
			"componentType":5126,
			"count":116,
			"max":[
				19,
				16,
				19
			],
			"min":[
				-19,
				15,
				-19
			],
			"type":"VEC3"
		},
		{
			"bufferView":9,
			"componentType":5126,
			"count":116,
			"type":"VEC3"
		},
		{
			"bufferView":10,
			"componentType":5126,
			"count":116,
			"type":"VEC2"
		},
		{
			"bufferView":11,
			"componentType":5123,
			"count":180,
			"type":"SCALAR"
		},
		{
			"bufferView":12,
			"componentType":5126,
			"count":40,
			"max":[
				17,
				35,
				17
			],
			"min":[
				-17,
				28,
				-17
			],
			"type":"VEC3"
		},
		{
			"bufferView":13,
			"componentType":5126,
			"count":40,
			"type":"VEC3"
		},
		{
			"bufferView":14,
			"componentType":5126,
			"count":40,
			"type":"VEC2"
		},
		{
			"bufferView":15,
			"componentType":5123,
			"count":72,
			"type":"SCALAR"
		},
		{
			"bufferView":16,
			"componentType":5126,
			"count":514,
			"max":[
				17,
				38,
				17
			],
			"min":[
				-17,
				-10,
				-17
			],
			"type":"VEC3"
		},
		{
			"bufferView":17,
			"componentType":5126,
			"count":514,
			"type":"VEC3"
		},
		{
			"bufferView":18,
			"componentType":5126,
			"count":514,
			"type":"VEC2"
		},
		{
			"bufferView":19,
			"componentType":5123,
			"count":942,
			"type":"SCALAR"
		},
		{
			"bufferView":20,
			"componentType":5126,
			"count":4,
			"max":[
				1.53125,
				27.5,
				1.53125
			],
			"min":[
				-1.53125,
				27.5,
				-1.53125
			],
			"type":"VEC3"
		},
		{
			"bufferView":21,
			"componentType":5126,
			"count":4,
			"type":"VEC3"
		},
		{
			"bufferView":22,
			"componentType":5126,
			"count":4,
			"type":"VEC2"
		},
		{
			"bufferView":23,
			"componentType":5123,
			"count":6,
			"type":"SCALAR"
		},
		{
			"bufferView":24,
			"componentType":5126,
			"count":16,
			"max":[
				2,
				28,
				2
			],
			"min":[
				-2,
				27.5,
				-2
			],
			"type":"VEC3"
		},
		{
			"bufferView":25,
			"componentType":5126,
			"count":16,
			"type":"VEC3"
		},
		{
			"bufferView":26,
			"componentType":5126,
			"count":16,
			"type":"VEC2"
		},
		{
			"bufferView":27,
			"componentType":5123,
			"count":24,
			"type":"SCALAR"
		},
		{
			"bufferView":28,
			"componentType":5126,
			"count":94,
			"max":[
				17,
				28,
				17
			],
			"min":[
				-17,
				3,
				-17
			],
			"type":"VEC3"
		},
		{
			"bufferView":29,
			"componentType":5126,
			"count":94,
			"type":"VEC3"
		},
		{
			"bufferView":30,
			"componentType":5126,
			"count":94,
			"type":"VEC2"
		},
		{
			"bufferView":31,
			"componentType":5123,
			"count":150,
			"type":"SCALAR"
		},
		{
			"bufferView":32,
			"componentType":5126,
			"count":14,
			"max":[
				9,
				4,
				4
			],
			"min":[
				9,
				-6,
				-4
			],
			"type":"VEC3"
		},
		{
			"bufferView":33,
			"componentType":5126,
			"count":14,
			"type":"VEC3"
		},
		{
			"bufferView":34,
			"componentType":5126,
			"count":14,
			"type":"VEC2"
		},
		{
			"bufferView":35,
			"componentType":5123,
			"count":24,
			"type":"SCALAR"
		},
		{
			"bufferView":36,
			"componentType":5126,
			"count":6,
			"max":[
				14,
				-6,
				4
			],
			"min":[
				9,
				-9,
				-4
			],
			"type":"VEC3"
		},
		{
			"bufferView":37,
			"componentType":5126,
			"count":6,
			"type":"VEC3"
		},
		{
			"bufferView":38,
			"componentType":5126,
			"count":6,
			"type":"VEC2"
		},
		{
			"bufferView":39,
			"componentType":5123,
			"count":12,
			"type":"SCALAR"
		}
	],
	"bufferViews":[
		{
			"buffer":0,
			"byteLength":360,
			"byteOffset":0,
			"target":34962
		},
		{
			"buffer":0,
			"byteLength":360,
			"byteOffset":360,
			"target":34962
		},
		{
			"buffer":0,
			"byteLength":240,
			"byteOffset":720,
			"target":34962
		},
		{
			"buffer":0,
			"byteLength":180,
			"byteOffset":960,
			"target":34963
		},
		{
			"buffer":0,
			"byteLength":360,
			"byteOffset":1140,
			"target":34962
		},
		{
			"buffer":0,
			"byteLength":360,
			"byteOffset":1500,
			"target":34962
		},
		{
			"buffer":0,
			"byteLength":240,
			"byteOffset":1860,
			"target":34962
		},
		{
			"buffer":0,
			"byteLength":180,
			"byteOffset":2100,
			"target":34963
		},
		{
			"buffer":0,
			"byteLength":1392,
			"byteOffset":2280,
			"target":34962
		},
		{
			"buffer":0,
			"byteLength":1392,
			"byteOffset":3672,
			"target":34962
		},
		{
			"buffer":0,
			"byteLength":928,
			"byteOffset":5064,
			"target":34962
		},
		{
			"buffer":0,
			"byteLength":360,
			"byteOffset":5992,
			"target":34963
		},
		{
			"buffer":0,
			"byteLength":480,
			"byteOffset":6352,
			"target":34962
		},
		{
			"buffer":0,
			"byteLength":480,
			"byteOffset":6832,
			"target":34962
		},
		{
			"buffer":0,
			"byteLength":320,
			"byteOffset":7312,
			"target":34962
		},
		{
			"buffer":0,
			"byteLength":144,
			"byteOffset":7632,
			"target":34963
		},
		{
			"buffer":0,
			"byteLength":6168,
			"byteOffset":7776,
			"target":34962
		},
		{
			"buffer":0,
			"byteLength":6168,
			"byteOffset":13944,
			"target":34962
		},
		{
			"buffer":0,
			"byteLength":4112,
			"byteOffset":20112,
			"target":34962
		},
		{
			"buffer":0,
			"byteLength":1884,
			"byteOffset":24224,
			"target":34963
		},
		{
			"buffer":0,
			"byteLength":48,
			"byteOffset":26108,
			"target":34962
		},
		{
			"buffer":0,
			"byteLength":48,
			"byteOffset":26156,
			"target":34962
		},
		{
			"buffer":0,
			"byteLength":32,
			"byteOffset":26204,
			"target":34962
		},
		{
			"buffer":0,
			"byteLength":12,
			"byteOffset":26236,
			"target":34963
		},
		{
			"buffer":0,
			"byteLength":192,
			"byteOffset":26248,
			"target":34962
		},
		{
			"buffer":0,
			"byteLength":192,
			"byteOffset":26440,
			"target":34962
		},
		{
			"buffer":0,
			"byteLength":128,
			"byteOffset":26632,
			"target":34962
		},
		{
			"buffer":0,
			"byteLength":48,
			"byteOffset":26760,
			"target":34963
		},
		{
			"buffer":0,
			"byteLength":1128,
			"byteOffset":26808,
			"target":34962
		},
		{
			"buffer":0,
			"byteLength":1128,
			"byteOffset":27936,
			"target":34962
		},
		{
			"buffer":0,
			"byteLength":752,
			"byteOffset":29064,
			"target":34962
		},
		{
			"buffer":0,
			"byteLength":300,
			"byteOffset":29816,
			"target":34963
		},
		{
			"buffer":0,
			"byteLength":168,
			"byteOffset":30116,
			"target":34962
		},
		{
			"buffer":0,
			"byteLength":168,
			"byteOffset":30284,
			"target":34962
		},
		{
			"buffer":0,
			"byteLength":112,
			"byteOffset":30452,
			"target":34962
		},
		{
			"buffer":0,
			"byteLength":48,
			"byteOffset":30564,
			"target":34963
		},
		{
			"buffer":0,
			"byteLength":72,
			"byteOffset":30612,
			"target":34962
		},
		{
			"buffer":0,
			"byteLength":72,
			"byteOffset":30684,
			"target":34962
		},
		{
			"buffer":0,
			"byteLength":48,
			"byteOffset":30756,
			"target":34962
		},
		{
			"buffer":0,
			"byteLength":24,
			"byteOffset":30804,
			"target":34963
		}
	],
	"buffers":[
		{
			"byteLength":30828,
			"uri":"Xtra_attrition_tower.bin"
		}
	]
}
