{
	"asset":{
		"generator":"Khronos glTF Blender I/O v4.5.48",
		"version":"2.0"
	},
	"scene":0,
	"scenes":[
		{
			"name":"Scene",
			"nodes":[
				0
			]
		}
	],
	"nodes":[
		{
			"mesh":0,
			"name":"Object"
		}
	],
	"materials":[
		{
			"doubleSided":true,
			"name":"BD_EWAL03C",
			"pbrMetallicRoughness":{
				"baseColorFactor":[
					0.800000011920929,
					0.800000011920929,
					0.800000011920929,
					1
				],
				"metallicFactor":0,
				"roughnessFactor":0.5
			}
		},
		{
			"doubleSided":true,
			"name":"BD_EWAL14",
			"pbrMetallicRoughness":{
				"baseColorFactor":[
					0.800000011920929,
					0.800000011920929,
					0.800000011920929,
					1
				],
				"metallicFactor":0,
				"roughnessFactor":0.5
			}
		},
		{
			"doubleSided":true,
			"name":"BD_EBOR02",
			"pbrMetallicRoughness":{
				"baseColorFactor":[
					0.800000011920929,
					0.800000011920929,
					0.800000011920929,
					1
				],
				"metallicFactor":0,
				"roughnessFactor":0.5
			}
		}
	],
	"meshes":[
		{
			"name":"Mesh",
			"primitives":[
				{
					"attributes":{
						"POSITION":0,
						"NORMAL":1,
						"TEXCOORD_0":2
					},
					"indices":3,
					"material":0
				},
				{
					"attributes":{
						"POSITION":4,
						"NORMAL":5,
						"TEXCOORD_0":6
					},
					"indices":7,
					"material":1
				},
				{
					"attributes":{
						"POSITION":8,
						"NORMAL":9,
						"TEXCOORD_0":10
					},
					"indices":11,
					"material":2
				}
			]
		}
	],
	"accessors":[
		{
			"bufferView":0,
			"componentType":5126,
			"count":40,
			"max":[
				8.5,
				8.5,
				5
			],
			"min":[
				-8.5,
				-15.5,
				-5
			],
			"type":"VEC3"
		},
		{
			"bufferView":1,
			"componentType":5126,
			"count":40,
			"type":"VEC3"
		},
		{
			"bufferView":2,
			"componentType":5126,
			"count":40,
			"type":"VEC2"
		},
		{
			"bufferView":3,
			"componentType":5123,
			"count":72,
			"type":"SCALAR"
		},
		{
			"bufferView":4,
			"componentType":5126,
			"count":376,
			"max":[
				10,
				8.5,
				10
			],
			"min":[
				-10,
				-15.5,
				-10
			],
			"type":"VEC3"
		},
		{
			"bufferView":5,
			"componentType":5126,
			"count":376,
			"type":"VEC3"
		},
		{
			"bufferView":6,
			"componentType":5126,
			"count":376,
			"type":"VEC2"
		},
		{
			"bufferView":7,
			"componentType":5123,
			"count":828,
			"type":"SCALAR"
		},
		{
			"bufferView":8,
			"componentType":5126,
			"count":56,
			"max":[
				10,
				8.5,
				10
			],
			"min":[
				-10,
				-15.5,
				-10
			],
			"type":"VEC3"
		},
		{
			"bufferView":9,
			"componentType":5126,
			"count":56,
			"type":"VEC3"
		},
		{
			"bufferView":10,
			"componentType":5126,
			"count":56,
			"type":"VEC2"
		},
		{
			"bufferView":11,
			"componentType":5123,
			"count":96,
			"type":"SCALAR"
		}
	],
	"bufferViews":[
		{
			"buffer":0,
			"byteLength":480,
			"byteOffset":0,
			"target":34962
		},
		{
			"buffer":0,
			"byteLength":480,
			"byteOffset":480,
			"target":34962
		},
		{
			"buffer":0,
			"byteLength":320,
			"byteOffset":960,
			"target":34962
		},
		{
			"buffer":0,
			"byteLength":144,
			"byteOffset":1280,
			"target":34963
		},
		{
			"buffer":0,
			"byteLength":4512,
			"byteOffset":1424,
			"target":34962
		},
		{
			"buffer":0,
			"byteLength":4512,
			"byteOffset":5936,
			"target":34962
		},
		{
			"buffer":0,
			"byteLength":3008,
			"byteOffset":10448,
			"target":34962
		},
		{
			"buffer":0,
			"byteLength":1656,
			"byteOffset":13456,
			"target":34963
		},
		{
			"buffer":0,
			"byteLength":672,
			"byteOffset":15112,
			"target":34962
		},
		{
			"buffer":0,
			"byteLength":672,
			"byteOffset":15784,
			"target":34962
		},
		{
			"buffer":0,
			"byteLength":448,
			"byteOffset":16456,
			"target":34962
		},
		{
			"buffer":0,
			"byteLength":192,
			"byteOffset":16904,
			"target":34963
		}
	],
	"buffers":[
		{
			"byteLength":17096,
			"uri":"Xtra_Torrent_kif_torrent_turret_tower.bin"
		}
	]
}
