{
	"asset":{
		"generator":"Khronos glTF Blender I/O v4.5.48",
		"version":"2.0"
	},
	"scene":0,
	"scenes":[
		{
			"name":"Scene",
			"nodes":[
				0
			]
		}
	],
	"nodes":[
		{
			"mesh":0,
			"name":"Object"
		}
	],
	"materials":[
		{
			"doubleSided":true,
			"name":"BD_IFLO01",
			"pbrMetallicRoughness":{
				"baseColorFactor":[
					0.800000011920929,
					0.800000011920929,
					0.800000011920929,
					1
				],
				"metallicFactor":0,
				"roughnessFactor":0.5
			}
		},
		{
			"doubleSided":true,
			"name":"BD_ICHUTE02A",
			"pbrMetallicRoughness":{
				"baseColorFactor":[
					0.800000011920929,
					0.800000011920929,
					0.800000011920929,
					1
				],
				"metallicFactor":0,
				"roughnessFactor":0.5
			}
		},
		{
			"doubleSided":true,
			"name":"BD_EWAL14",
			"pbrMetallicRoughness":{
				"baseColorFactor":[
					0.800000011920929,
					0.800000011920929,
					0.800000011920929,
					1
				],
				"metallicFactor":0,
				"roughnessFactor":0.5
			}
		},
		{
			"doubleSided":true,
			"name":"BD_IWAL16",
			"pbrMetallicRoughness":{
				"baseColorFactor":[
					0.800000011920929,
					0.800000011920929,
					0.800000011920929,
					1
				],
				"metallicFactor":0,
				"roughnessFactor":0.5
			}
		},
		{
			"doubleSided":true,
			"name":"BD_ELIG03",
			"pbrMetallicRoughness":{
				"baseColorFactor":[
					0.800000011920929,
					0.800000011920929,
					0.800000011920929,
					1
				],
				"metallicFactor":0,
				"roughnessFactor":0.5
			}
		}
	],
	"meshes":[
		{
			"name":"Mesh",
			"primitives":[
				{
					"attributes":{
						"POSITION":0,
						"NORMAL":1,
						"TEXCOORD_0":2
					},
					"indices":3,
					"material":0
				},
				{
					"attributes":{
						"POSITION":4,
						"NORMAL":5,
						"TEXCOORD_0":6
					},
					"indices":7,
					"material":1
				},
				{
					"attributes":{
						"POSITION":8,
						"NORMAL":9,
						"TEXCOORD_0":10
					},
					"indices":11,
					"material":2
				},
				{
					"attributes":{
						"POSITION":12,
						"NORMAL":13,
						"TEXCOORD_0":14
					},
					"indices":15,
					"material":3
				},
				{
					"attributes":{
						"POSITION":16,
						"NORMAL":17,
						"TEXCOORD_0":18
					},
					"indices":19,
					"material":4
				}
			]
		}
	],
	"accessors":[
		{
			"bufferView":0,
			"componentType":5126,
			"count":60,
			"max":[
				36,
				-8,
				7.125
			],
			"min":[
				-75,
				-9,
				-8.875
			],
			"type":"VEC3"
		},
		{
			"bufferView":1,
			"componentType":5126,
			"count":60,
			"type":"VEC3"
		},
		{
			"bufferView":2,
			"componentType":5126,
			"count":60,
			"type":"VEC2"
		},
		{
			"bufferView":3,
			"componentType":5123,
			"count":144,
			"type":"SCALAR"
		},
		{
			"bufferView":4,
			"componentType":5126,
			"count":1581,
			"max":[
				36,
				4,
				9.125
			],
			"min":[
				-75,
				-64.5,
				-10.875
			],
			"type":"VEC3"
		},
		{
			"bufferView":5,
			"componentType":5126,
			"count":1581,
			"type":"VEC3"
		},
		{
			"bufferView":6,
			"componentType":5126,
			"count":1581,
			"type":"VEC2"
		},
		{
			"bufferView":7,
			"componentType":5123,
			"count":3204,
			"type":"SCALAR"
		},
		{
			"bufferView":8,
			"componentType":5126,
			"count":112,
			"max":[
				30.25,
				4,
				9.125
			],
			"min":[
				-69.25,
				-64.5,
				-10.875
			],
			"type":"VEC3"
		},
		{
			"bufferView":9,
			"componentType":5126,
			"count":112,
			"type":"VEC3"
		},
		{
			"bufferView":10,
			"componentType":5126,
			"count":112,
			"type":"VEC2"
		},
		{
			"bufferView":11,
			"componentType":5123,
			"count":168,
			"type":"SCALAR"
		},
		{
			"bufferView":12,
			"componentType":5126,
			"count":48,
			"max":[
				30.25,
				1.5,
				8.125
			],
			"min":[
				-69.25,
				1.5,
				-9.875
			],
			"type":"VEC3"
		},
		{
			"bufferView":13,
			"componentType":5126,
			"count":48,
			"type":"VEC3"
		},
		{
			"bufferView":14,
			"componentType":5126,
			"count":48,
			"type":"VEC2"
		},
		{
			"bufferView":15,
			"componentType":5123,
			"count":72,
			"type":"SCALAR"
		},
		{
			"bufferView":16,
			"componentType":5126,
			"count":48,
			"max":[
				30.25,
				4,
				1.53125
			],
			"min":[
				-69.25,
				3,
				-3.28125
			],
			"type":"VEC3"
		},
		{
			"bufferView":17,
			"componentType":5126,
			"count":48,
			"type":"VEC3"
		},
		{
			"bufferView":18,
			"componentType":5126,
			"count":48,
			"type":"VEC2"
		},
		{
			"bufferView":19,
			"componentType":5123,
			"count":72,
			"type":"SCALAR"
		}
	],
	"bufferViews":[
		{
			"buffer":0,
			"byteLength":720,
			"byteOffset":0,
			"target":34962
		},
		{
			"buffer":0,
			"byteLength":720,
			"byteOffset":720,
			"target":34962
		},
		{
			"buffer":0,
			"byteLength":480,
			"byteOffset":1440,
			"target":34962
		},
		{
			"buffer":0,
			"byteLength":288,
			"byteOffset":1920,
			"target":34963
		},
		{
			"buffer":0,
			"byteLength":18972,
			"byteOffset":2208,
			"target":34962
		},
		{
			"buffer":0,
			"byteLength":18972,
			"byteOffset":21180,
			"target":34962
		},
		{
			"buffer":0,
			"byteLength":12648,
			"byteOffset":40152,
			"target":34962
		},
		{
			"buffer":0,
			"byteLength":6408,
			"byteOffset":52800,
			"target":34963
		},
		{
			"buffer":0,
			"byteLength":1344,
			"byteOffset":59208,
			"target":34962
		},
		{
			"buffer":0,
			"byteLength":1344,
			"byteOffset":60552,
			"target":34962
		},
		{
			"buffer":0,
			"byteLength":896,
			"byteOffset":61896,
			"target":34962
		},
		{
			"buffer":0,
			"byteLength":336,
			"byteOffset":62792,
			"target":34963
		},
		{
			"buffer":0,
			"byteLength":576,
			"byteOffset":63128,
			"target":34962
		},
		{
			"buffer":0,
			"byteLength":576,
			"byteOffset":63704,
			"target":34962
		},
		{
			"buffer":0,
			"byteLength":384,
			"byteOffset":64280,
			"target":34962
		},
		{
			"buffer":0,
			"byteLength":144,
			"byteOffset":64664,
			"target":34963
		},
		{
			"buffer":0,
			"byteLength":576,
			"byteOffset":64808,
			"target":34962
		},
		{
			"buffer":0,
			"byteLength":576,
			"byteOffset":65384,
			"target":34962
		},
		{
			"buffer":0,
			"byteLength":384,
			"byteOffset":65960,
			"target":34962
		},
		{
			"buffer":0,
			"byteLength":144,
			"byteOffset":66344,
			"target":34963
		}
	],
	"buffers":[
		{
			"byteLength":66488,
			"uri":"Xtra_Caustic_tri_bridge.bin"
		}
	]
}
