{
	"asset":{
		"generator":"Khronos glTF Blender I/O v4.5.48",
		"version":"2.0"
	},
	"scene":0,
	"scenes":[
		{
			"name":"Scene",
			"nodes":[
				0
			]
		}
	],
	"nodes":[
		{
			"mesh":0,
			"name":"Object"
		}
	],
	"materials":[
		{
			"doubleSided":true,
			"name":"BE_EWAL04A",
			"pbrMetallicRoughness":{
				"baseColorFactor":[
					0.800000011920929,
					0.800000011920929,
					0.800000011920929,
					1
				],
				"metallicFactor":0,
				"roughnessFactor":0.5
			}
		},
		{
			"doubleSided":true,
			"name":"BE_EFLO02",
			"pbrMetallicRoughness":{
				"baseColorFactor":[
					0.800000011920929,
					0.800000011920929,
					0.800000011920929,
					1
				],
				"metallicFactor":0,
				"roughnessFactor":0.5
			}
		},
		{
			"doubleSided":true,
			"name":"BE_EWAL07",
			"pbrMetallicRoughness":{
				"baseColorFactor":[
					0.800000011920929,
					0.800000011920929,
					0.800000011920929,
					1
				],
				"metallicFactor":0,
				"roughnessFactor":0.5
			}
		},
		{
			"doubleSided":true,
			"name":"BE_EBOR01E",
			"pbrMetallicRoughness":{
				"baseColorFactor":[
					0.800000011920929,
					0.800000011920929,
					0.800000011920929,
					1
				],
				"metallicFactor":0,
				"roughnessFactor":0.5
			}
		},
		{
			"doubleSided":true,
			"name":"BE_ICOLIG",
			"pbrMetallicRoughness":{
				"baseColorFactor":[
					0.800000011920929,
					0.800000011920929,
					0.800000011920929,
					1
				],
				"metallicFactor":0,
				"roughnessFactor":0.5
			}
		},
		{
			"doubleSided":true,
			"name":"BE_EBOR03",
			"pbrMetallicRoughness":{
				"baseColorFactor":[
					0.800000011920929,
					0.800000011920929,
					0.800000011920929,
					1
				],
				"metallicFactor":0,
				"roughnessFactor":0.5
			}
		}
	],
	"meshes":[
		{
			"name":"Mesh",
			"primitives":[
				{
					"attributes":{
						"POSITION":0,
						"NORMAL":1,
						"TEXCOORD_0":2
					},
					"indices":3,
					"material":0
				},
				{
					"attributes":{
						"POSITION":4,
						"NORMAL":5,
						"TEXCOORD_0":6
					},
					"indices":7,
					"material":1
				},
				{
					"attributes":{
						"POSITION":8,
						"NORMAL":9,
						"TEXCOORD_0":10
					},
					"indices":11,
					"material":2
				},
				{
					"attributes":{
						"POSITION":12,
						"NORMAL":13,
						"TEXCOORD_0":14
					},
					"indices":15,
					"material":3
				},
				{
					"attributes":{
						"POSITION":16,
						"NORMAL":17,
						"TEXCOORD_0":18
					},
					"indices":19,
					"material":4
				},
				{
					"attributes":{
						"POSITION":20,
						"NORMAL":21,
						"TEXCOORD_0":22
					},
					"indices":23,
					"material":5
				}
			]
		}
	],
	"accessors":[
		{
			"bufferView":0,
			"componentType":5126,
			"count":1404,
			"max":[
				14.25,
				2.561941940314665e-16,
				-9
			],
			"min":[
				-14.25,
				-34,
				-120
			],
			"type":"VEC3"
		},
		{
			"bufferView":1,
			"componentType":5126,
			"count":1404,
			"type":"VEC3"
		},
		{
			"bufferView":2,
			"componentType":5126,
			"count":1404,
			"type":"VEC2"
		},
		{
			"bufferView":3,
			"componentType":5123,
			"count":2700,
			"type":"SCALAR"
		},
		{
			"bufferView":4,
			"componentType":5126,
			"count":84,
			"max":[
				12,
				-8,
				-8
			],
			"min":[
				-12,
				-19,
				-120
			],
			"type":"VEC3"
		},
		{
			"bufferView":5,
			"componentType":5126,
			"count":84,
			"type":"VEC3"
		},
		{
			"bufferView":6,
			"componentType":5126,
			"count":84,
			"type":"VEC2"
		},
		{
			"bufferView":7,
			"componentType":5123,
			"count":216,
			"type":"SCALAR"
		},
		{
			"bufferView":8,
			"componentType":5126,
			"count":104,
			"max":[
				12,
				-10,
				-8
			],
			"min":[
				-12,
				-19,
				-120
			],
			"type":"VEC3"
		},
		{
			"bufferView":9,
			"componentType":5126,
			"count":104,
			"type":"VEC3"
		},
		{
			"bufferView":10,
			"componentType":5126,
			"count":104,
			"type":"VEC2"
		},
		{
			"bufferView":11,
			"componentType":5123,
			"count":390,
			"type":"SCALAR"
		},
		{
			"bufferView":12,
			"componentType":5126,
			"count":76,
			"max":[
				12,
				-8,
				-8
			],
			"min":[
				-12,
				-19,
				-120
			],
			"type":"VEC3"
		},
		{
			"bufferView":13,
			"componentType":5126,
			"count":76,
			"type":"VEC3"
		},
		{
			"bufferView":14,
			"componentType":5126,
			"count":76,
			"type":"VEC2"
		},
		{
			"bufferView":15,
			"componentType":5123,
			"count":132,
			"type":"SCALAR"
		},
		{
			"bufferView":16,
			"componentType":5126,
			"count":12,
			"max":[
				1.75,
				-10.5,
				-24
			],
			"min":[
				-1.75,
				-10.5,
				-104
			],
			"type":"VEC3"
		},
		{
			"bufferView":17,
			"componentType":5126,
			"count":12,
			"type":"VEC3"
		},
		{
			"bufferView":18,
			"componentType":5126,
			"count":12,
			"type":"VEC2"
		},
		{
			"bufferView":19,
			"componentType":5123,
			"count":18,
			"type":"SCALAR"
		},
		{
			"bufferView":20,
			"componentType":5126,
			"count":48,
			"max":[
				1.75,
				-10,
				-24
			],
			"min":[
				-1.75,
				-10.5,
				-104
			],
			"type":"VEC3"
		},
		{
			"bufferView":21,
			"componentType":5126,
			"count":48,
			"type":"VEC3"
		},
		{
			"bufferView":22,
			"componentType":5126,
			"count":48,
			"type":"VEC2"
		},
		{
			"bufferView":23,
			"componentType":5123,
			"count":72,
			"type":"SCALAR"
		}
	],
	"bufferViews":[
		{
			"buffer":0,
			"byteLength":16848,
			"byteOffset":0,
			"target":34962
		},
		{
			"buffer":0,
			"byteLength":16848,
			"byteOffset":16848,
			"target":34962
		},
		{
			"buffer":0,
			"byteLength":11232,
			"byteOffset":33696,
			"target":34962
		},
		{
			"buffer":0,
			"byteLength":5400,
			"byteOffset":44928,
			"target":34963
		},
		{
			"buffer":0,
			"byteLength":1008,
			"byteOffset":50328,
			"target":34962
		},
		{
			"buffer":0,
			"byteLength":1008,
			"byteOffset":51336,
			"target":34962
		},
		{
			"buffer":0,
			"byteLength":672,
			"byteOffset":52344,
			"target":34962
		},
		{
			"buffer":0,
			"byteLength":432,
			"byteOffset":53016,
			"target":34963
		},
		{
			"buffer":0,
			"byteLength":1248,
			"byteOffset":53448,
			"target":34962
		},
		{
			"buffer":0,
			"byteLength":1248,
			"byteOffset":54696,
			"target":34962
		},
		{
			"buffer":0,
			"byteLength":832,
			"byteOffset":55944,
			"target":34962
		},
		{
			"buffer":0,
			"byteLength":780,
			"byteOffset":56776,
			"target":34963
		},
		{
			"buffer":0,
			"byteLength":912,
			"byteOffset":57556,
			"target":34962
		},
		{
			"buffer":0,
			"byteLength":912,
			"byteOffset":58468,
			"target":34962
		},
		{
			"buffer":0,
			"byteLength":608,
			"byteOffset":59380,
			"target":34962
		},
		{
			"buffer":0,
			"byteLength":264,
			"byteOffset":59988,
			"target":34963
		},
		{
			"buffer":0,
			"byteLength":144,
			"byteOffset":60252,
			"target":34962
		},
		{
			"buffer":0,
			"byteLength":144,
			"byteOffset":60396,
			"target":34962
		},
		{
			"buffer":0,
			"byteLength":96,
			"byteOffset":60540,
			"target":34962
		},
		{
			"buffer":0,
			"byteLength":36,
			"byteOffset":60636,
			"target":34963
		},
		{
			"buffer":0,
			"byteLength":576,
			"byteOffset":60672,
			"target":34962
		},
		{
			"buffer":0,
			"byteLength":576,
			"byteOffset":61248,
			"target":34962
		},
		{
			"buffer":0,
			"byteLength":384,
			"byteOffset":61824,
			"target":34962
		},
		{
			"buffer":0,
			"byteLength":144,
			"byteOffset":62208,
			"target":34963
		}
	],
	"buffers":[
		{
			"byteLength":62352,
			"uri":"Xtra_metaltanks_bridge.bin"
		}
	]
}
