{
	"asset":{
		"generator":"Khronos glTF Blender I/O v4.5.48",
		"version":"2.0"
	},
	"scene":0,
	"scenes":[
		{
			"name":"Scene",
			"nodes":[
				0
			]
		}
	],
	"nodes":[
		{
			"mesh":0,
			"name":"Object"
		}
	],
	"materials":[
		{
			"doubleSided":true,
			"name":"CP_ISPEC02B",
			"pbrMetallicRoughness":{
				"baseColorFactor":[
					0.800000011920929,
					0.800000011920929,
					0.800000011920929,
					1
				],
				"metallicFactor":0,
				"roughnessFactor":0.5
			}
		},
		{
			"doubleSided":true,
			"name":"CP_ILIG02C",
			"pbrMetallicRoughness":{
				"baseColorFactor":[
					0.800000011920929,
					0.800000011920929,
					0.800000011920929,
					1
				],
				"metallicFactor":0,
				"roughnessFactor":0.5
			}
		},
		{
			"doubleSided":true,
			"name":"CP_ISPEC02CAP",
			"pbrMetallicRoughness":{
				"baseColorFactor":[
					0.800000011920929,
					0.800000011920929,
					0.800000011920929,
					1
				],
				"metallicFactor":0,
				"roughnessFactor":0.5
			}
		},
		{
			"doubleSided":true,
			"name":"CP_ISTAIR01",
			"pbrMetallicRoughness":{
				"baseColorFactor":[
					0.800000011920929,
					0.800000011920929,
					0.800000011920929,
					1
				],
				"metallicFactor":0,
				"roughnessFactor":0.5
			}
		},
		{
			"doubleSided":true,
			"name":"CP_SAND",
			"pbrMetallicRoughness":{
				"baseColorFactor":[
					0.800000011920929,
					0.800000011920929,
					0.800000011920929,
					1
				],
				"metallicFactor":0,
				"roughnessFactor":0.5
			}
		},
		{
			"doubleSided":true,
			"name":"CP_SCREEN",
			"pbrMetallicRoughness":{
				"baseColorFactor":[
					0.800000011920929,
					0.800000011920929,
					0.800000011920929,
					1
				],
				"metallicFactor":0,
				"roughnessFactor":0.5
			}
		},
		{
			"doubleSided":true,
			"name":"CP_ISTRFACE01F",
			"pbrMetallicRoughness":{
				"baseColorFactor":[
					0.800000011920929,
					0.800000011920929,
					0.800000011920929,
					1
				],
				"metallicFactor":0,
				"roughnessFactor":0.5
			}
		},
		{
			"doubleSided":true,
			"name":"CP_ISPEC01CAP",
			"pbrMetallicRoughness":{
				"baseColorFactor":[
					0.800000011920929,
					0.800000011920929,
					0.800000011920929,
					1
				],
				"metallicFactor":0,
				"roughnessFactor":0.5
			}
		}
	],
	"meshes":[
		{
			"name":"Mesh",
			"primitives":[
				{
					"attributes":{
						"POSITION":0,
						"NORMAL":1,
						"TEXCOORD_0":2
					},
					"indices":3,
					"material":0
				},
				{
					"attributes":{
						"POSITION":4,
						"NORMAL":5,
						"TEXCOORD_0":6
					},
					"indices":7,
					"material":1
				},
				{
					"attributes":{
						"POSITION":8,
						"NORMAL":9,
						"TEXCOORD_0":10
					},
					"indices":11,
					"material":2
				},
				{
					"attributes":{
						"POSITION":12,
						"NORMAL":13,
						"TEXCOORD_0":14
					},
					"indices":15,
					"material":3
				},
				{
					"attributes":{
						"POSITION":16,
						"NORMAL":17,
						"TEXCOORD_0":18
					},
					"indices":19,
					"material":4
				},
				{
					"attributes":{
						"POSITION":20,
						"NORMAL":21,
						"TEXCOORD_0":22
					},
					"indices":7,
					"material":5
				},
				{
					"attributes":{
						"POSITION":23,
						"NORMAL":24,
						"TEXCOORD_0":25
					},
					"indices":26,
					"material":6
				},
				{
					"attributes":{
						"POSITION":27,
						"NORMAL":28,
						"TEXCOORD_0":29
					},
					"indices":30,
					"material":7
				}
			]
		}
	],
	"accessors":[
		{
			"bufferView":0,
			"componentType":5126,
			"count":94,
			"max":[
				20,
				-13.5,
				-8
			],
			"min":[
				8,
				-67.25,
				-26
			],
			"type":"VEC3"
		},
		{
			"bufferView":1,
			"componentType":5126,
			"count":94,
			"type":"VEC3"
		},
		{
			"bufferView":2,
			"componentType":5126,
			"count":94,
			"type":"VEC2"
		},
		{
			"bufferView":3,
			"componentType":5123,
			"count":264,
			"type":"SCALAR"
		},
		{
			"bufferView":4,
			"componentType":5126,
			"count":4,
			"max":[
				18,
				-51,
				-20
			],
			"min":[
				10,
				-60,
				-20
			],
			"type":"VEC3"
		},
		{
			"bufferView":5,
			"componentType":5126,
			"count":4,
			"type":"VEC3"
		},
		{
			"bufferView":6,
			"componentType":5126,
			"count":4,
			"type":"VEC2"
		},
		{
			"bufferView":7,
			"componentType":5123,
			"count":6,
			"type":"SCALAR"
		},
		{
			"bufferView":8,
			"componentType":5126,
			"count":72,
			"max":[
				20,
				-12,
				-8
			],
			"min":[
				8,
				-60,
				-26
			],
			"type":"VEC3"
		},
		{
			"bufferView":9,
			"componentType":5126,
			"count":72,
			"type":"VEC3"
		},
		{
			"bufferView":10,
			"componentType":5126,
			"count":72,
			"type":"VEC2"
		},
		{
			"bufferView":11,
			"componentType":5123,
			"count":132,
			"type":"SCALAR"
		},
		{
			"bufferView":12,
			"componentType":5126,
			"count":16,
			"max":[
				20,
				-51,
				-20
			],
			"min":[
				8,
				-67.25,
				-26
			],
			"type":"VEC3"
		},
		{
			"bufferView":13,
			"componentType":5126,
			"count":16,
			"type":"VEC3"
		},
		{
			"bufferView":14,
			"componentType":5126,
			"count":16,
			"type":"VEC2"
		},
		{
			"bufferView":15,
			"componentType":5123,
			"count":24,
			"type":"SCALAR"
		},
		{
			"bufferView":16,
			"componentType":5126,
			"count":84,
			"max":[
				20,
				-7.875,
				-8
			],
			"min":[
				8,
				-60,
				-26
			],
			"type":"VEC3"
		},
		{
			"bufferView":17,
			"componentType":5126,
			"count":84,
			"type":"VEC3"
		},
		{
			"bufferView":18,
			"componentType":5126,
			"count":84,
			"type":"VEC2"
		},
		{
			"bufferView":19,
			"componentType":5123,
			"count":102,
			"type":"SCALAR"
		},
		{
			"bufferView":20,
			"componentType":5126,
			"count":4,
			"max":[
				16.5,
				-7.625,
				-11.5
			],
			"min":[
				11.5,
				-7.625,
				-16.5
			],
			"type":"VEC3"
		},
		{
			"bufferView":21,
			"componentType":5126,
			"count":4,
			"type":"VEC3"
		},
		{
			"bufferView":22,
			"componentType":5126,
			"count":4,
			"type":"VEC2"
		},
		{
			"bufferView":23,
			"componentType":5126,
			"count":48,
			"max":[
				18.5,
				-7.625,
				-9.5
			],
			"min":[
				9.5,
				-32.53125,
				-18.5
			],
			"type":"VEC3"
		},
		{
			"bufferView":24,
			"componentType":5126,
			"count":48,
			"type":"VEC3"
		},
		{
			"bufferView":25,
			"componentType":5126,
			"count":48,
			"type":"VEC2"
		},
		{
			"bufferView":26,
			"componentType":5123,
			"count":72,
			"type":"SCALAR"
		},
		{
			"bufferView":27,
			"componentType":5126,
			"count":96,
			"max":[
				18.5,
				-15.96875,
				-9.5
			],
			"min":[
				9.5,
				-32.03125,
				-18.5
			],
			"type":"VEC3"
		},
		{
			"bufferView":28,
			"componentType":5126,
			"count":96,
			"type":"VEC3"
		},
		{
			"bufferView":29,
			"componentType":5126,
			"count":96,
			"type":"VEC2"
		},
		{
			"bufferView":30,
			"componentType":5123,
			"count":144,
			"type":"SCALAR"
		}
	],
	"bufferViews":[
		{
			"buffer":0,
			"byteLength":1128,
			"byteOffset":0,
			"target":34962
		},
		{
			"buffer":0,
			"byteLength":1128,
			"byteOffset":1128,
			"target":34962
		},
		{
			"buffer":0,
			"byteLength":752,
			"byteOffset":2256,
			"target":34962
		},
		{
			"buffer":0,
			"byteLength":528,
			"byteOffset":3008,
			"target":34963
		},
		{
			"buffer":0,
			"byteLength":48,
			"byteOffset":3536,
			"target":34962
		},
		{
			"buffer":0,
			"byteLength":48,
			"byteOffset":3584,
			"target":34962
		},
		{
			"buffer":0,
			"byteLength":32,
			"byteOffset":3632,
			"target":34962
		},
		{
			"buffer":0,
			"byteLength":12,
			"byteOffset":3664,
			"target":34963
		},
		{
			"buffer":0,
			"byteLength":864,
			"byteOffset":3676,
			"target":34962
		},
		{
			"buffer":0,
			"byteLength":864,
			"byteOffset":4540,
			"target":34962
		},
		{
			"buffer":0,
			"byteLength":576,
			"byteOffset":5404,
			"target":34962
		},
		{
			"buffer":0,
			"byteLength":264,
			"byteOffset":5980,
			"target":34963
		},
		{
			"buffer":0,
			"byteLength":192,
			"byteOffset":6244,
			"target":34962
		},
		{
			"buffer":0,
			"byteLength":192,
			"byteOffset":6436,
			"target":34962
		},
		{
			"buffer":0,
			"byteLength":128,
			"byteOffset":6628,
			"target":34962
		},
		{
			"buffer":0,
			"byteLength":48,
			"byteOffset":6756,
			"target":34963
		},
		{
			"buffer":0,
			"byteLength":1008,
			"byteOffset":6804,
			"target":34962
		},
		{
			"buffer":0,
			"byteLength":1008,
			"byteOffset":7812,
			"target":34962
		},
		{
			"buffer":0,
			"byteLength":672,
			"byteOffset":8820,
			"target":34962
		},
		{
			"buffer":0,
			"byteLength":204,
			"byteOffset":9492,
			"target":34963
		},
		{
			"buffer":0,
			"byteLength":48,
			"byteOffset":9696,
			"target":34962
		},
		{
			"buffer":0,
			"byteLength":48,
			"byteOffset":9744,
			"target":34962
		},
		{
			"buffer":0,
			"byteLength":32,
			"byteOffset":9792,
			"target":34962
		},
		{
			"buffer":0,
			"byteLength":576,
			"byteOffset":9824,
			"target":34962
		},
		{
			"buffer":0,
			"byteLength":576,
			"byteOffset":10400,
			"target":34962
		},
		{
			"buffer":0,
			"byteLength":384,
			"byteOffset":10976,
			"target":34962
		},
		{
			"buffer":0,
			"byteLength":144,
			"byteOffset":11360,
			"target":34963
		},
		{
			"buffer":0,
			"byteLength":1152,
			"byteOffset":11504,
			"target":34962
		},
		{
			"buffer":0,
			"byteLength":1152,
			"byteOffset":12656,
			"target":34962
		},
		{
			"buffer":0,
			"byteLength":768,
			"byteOffset":13808,
			"target":34962
		},
		{
			"buffer":0,
			"byteLength":288,
			"byteOffset":14576,
			"target":34963
		}
	],
	"buffers":[
		{
			"byteLength":14864,
			"uri":"Xtra_Vestige_medtower.bin"
		}
	]
}
