{
	"asset":{
		"generator":"Khronos glTF Blender I/O v4.5.48",
		"version":"2.0"
	},
	"scene":0,
	"scenes":[
		{
			"name":"Scene",
			"nodes":[
				0
			]
		}
	],
	"nodes":[
		{
			"mesh":0,
			"name":"Object"
		}
	],
	"materials":[
		{
			"doubleSided":true,
			"name":"BE_ICEI01A",
			"pbrMetallicRoughness":{
				"baseColorFactor":[
					0.800000011920929,
					0.800000011920929,
					0.800000011920929,
					1
				],
				"metallicFactor":0,
				"roughnessFactor":0.5
			}
		},
		{
			"doubleSided":true,
			"name":"BE_EWAL06",
			"pbrMetallicRoughness":{
				"baseColorFactor":[
					0.800000011920929,
					0.800000011920929,
					0.800000011920929,
					1
				],
				"metallicFactor":0,
				"roughnessFactor":0.5
			}
		},
		{
			"doubleSided":true,
			"name":"BE_EWAL04A",
			"pbrMetallicRoughness":{
				"baseColorFactor":[
					0.800000011920929,
					0.800000011920929,
					0.800000011920929,
					1
				],
				"metallicFactor":0,
				"roughnessFactor":0.5
			}
		},
		{
			"doubleSided":true,
			"name":"BE_ITEBOR02C",
			"pbrMetallicRoughness":{
				"baseColorFactor":[
					0.800000011920929,
					0.800000011920929,
					0.800000011920929,
					1
				],
				"metallicFactor":0,
				"roughnessFactor":0.5
			}
		},
		{
			"doubleSided":true,
			"name":"BE_ICOLIG01",
			"pbrMetallicRoughness":{
				"baseColorFactor":[
					0.800000011920929,
					0.800000011920929,
					0.800000011920929,
					1
				],
				"metallicFactor":0,
				"roughnessFactor":0.5
			}
		},
		{
			"doubleSided":true,
			"name":"BE_IHAWAL04",
			"pbrMetallicRoughness":{
				"baseColorFactor":[
					0.800000011920929,
					0.800000011920929,
					0.800000011920929,
					1
				],
				"metallicFactor":0,
				"roughnessFactor":0.5
			}
		}
	],
	"meshes":[
		{
			"name":"Mesh",
			"primitives":[
				{
					"attributes":{
						"POSITION":0,
						"NORMAL":1,
						"TEXCOORD_0":2
					},
					"indices":3,
					"material":0
				},
				{
					"attributes":{
						"POSITION":4,
						"NORMAL":5,
						"TEXCOORD_0":6
					},
					"indices":7,
					"material":1
				},
				{
					"attributes":{
						"POSITION":8,
						"NORMAL":9,
						"TEXCOORD_0":10
					},
					"indices":11,
					"material":2
				},
				{
					"attributes":{
						"POSITION":12,
						"NORMAL":13,
						"TEXCOORD_0":14
					},
					"indices":15,
					"material":3
				},
				{
					"attributes":{
						"POSITION":16,
						"NORMAL":17,
						"TEXCOORD_0":18
					},
					"indices":19,
					"material":4
				},
				{
					"attributes":{
						"POSITION":20,
						"NORMAL":21,
						"TEXCOORD_0":22
					},
					"indices":23,
					"material":5
				}
			]
		}
	],
	"accessors":[
		{
			"bufferView":0,
			"componentType":5126,
			"count":167,
			"max":[
				-0.0707235187292099,
				7.625,
				83.21871948242188
			],
			"min":[
				-6.53125,
				6.687539577484131,
				-70.4057388305664
			],
			"type":"VEC3"
		},
		{
			"bufferView":1,
			"componentType":5126,
			"count":167,
			"type":"VEC3"
		},
		{
			"bufferView":2,
			"componentType":5126,
			"count":167,
			"type":"VEC2"
		},
		{
			"bufferView":3,
			"componentType":5123,
			"count":231,
			"type":"SCALAR"
		},
		{
			"bufferView":4,
			"componentType":5126,
			"count":182,
			"max":[
				13.84375,
				8.75,
				117.75
			],
			"min":[
				-20.49920082092285,
				-14.125,
				-106.375
			],
			"type":"VEC3"
		},
		{
			"bufferView":5,
			"componentType":5126,
			"count":182,
			"type":"VEC3"
		},
		{
			"bufferView":6,
			"componentType":5126,
			"count":182,
			"type":"VEC2"
		},
		{
			"bufferView":7,
			"componentType":5123,
			"count":342,
			"type":"SCALAR"
		},
		{
			"bufferView":8,
			"componentType":5126,
			"count":861,
			"max":[
				14.875,
				9.75,
				117.75
			],
			"min":[
				-21.5,
				-14.3125,
				-106.375
			],
			"type":"VEC3"
		},
		{
			"bufferView":9,
			"componentType":5126,
			"count":861,
			"type":"VEC3"
		},
		{
			"bufferView":10,
			"componentType":5126,
			"count":861,
			"type":"VEC2"
		},
		{
			"bufferView":11,
			"componentType":5123,
			"count":1785,
			"type":"SCALAR"
		},
		{
			"bufferView":12,
			"componentType":5126,
			"count":63,
			"max":[
				-0.09375,
				8.75,
				85.375
			],
			"min":[
				-6.53125,
				6.6875,
				-74
			],
			"type":"VEC3"
		},
		{
			"bufferView":13,
			"componentType":5126,
			"count":63,
			"type":"VEC3"
		},
		{
			"bufferView":14,
			"componentType":5126,
			"count":63,
			"type":"VEC2"
		},
		{
			"bufferView":15,
			"componentType":5123,
			"count":219,
			"type":"SCALAR"
		},
		{
			"bufferView":16,
			"componentType":5126,
			"count":8,
			"max":[
				11.230669021606445,
				-4.927761554718018,
				85.375
			],
			"min":[
				-17.8125,
				-8.6875,
				-74
			],
			"type":"VEC3"
		},
		{
			"bufferView":17,
			"componentType":5126,
			"count":8,
			"type":"VEC3"
		},
		{
			"bufferView":18,
			"componentType":5126,
			"count":8,
			"type":"VEC2"
		},
		{
			"bufferView":19,
			"componentType":5123,
			"count":12,
			"type":"SCALAR"
		},
		{
			"bufferView":20,
			"componentType":5126,
			"count":8,
			"max":[
				3.125,
				9.5625,
				85.375
			],
			"min":[
				-15.71875,
				7.15625,
				-74
			],
			"type":"VEC3"
		},
		{
			"bufferView":21,
			"componentType":5126,
			"count":8,
			"type":"VEC3"
		},
		{
			"bufferView":22,
			"componentType":5126,
			"count":8,
			"type":"VEC2"
		},
		{
			"bufferView":23,
			"componentType":5123,
			"count":12,
			"type":"SCALAR"
		}
	],
	"bufferViews":[
		{
			"buffer":0,
			"byteLength":2004,
			"byteOffset":0,
			"target":34962
		},
		{
			"buffer":0,
			"byteLength":2004,
			"byteOffset":2004,
			"target":34962
		},
		{
			"buffer":0,
			"byteLength":1336,
			"byteOffset":4008,
			"target":34962
		},
		{
			"buffer":0,
			"byteLength":462,
			"byteOffset":5344,
			"target":34963
		},
		{
			"buffer":0,
			"byteLength":2184,
			"byteOffset":5808,
			"target":34962
		},
		{
			"buffer":0,
			"byteLength":2184,
			"byteOffset":7992,
			"target":34962
		},
		{
			"buffer":0,
			"byteLength":1456,
			"byteOffset":10176,
			"target":34962
		},
		{
			"buffer":0,
			"byteLength":684,
			"byteOffset":11632,
			"target":34963
		},
		{
			"buffer":0,
			"byteLength":10332,
			"byteOffset":12316,
			"target":34962
		},
		{
			"buffer":0,
			"byteLength":10332,
			"byteOffset":22648,
			"target":34962
		},
		{
			"buffer":0,
			"byteLength":6888,
			"byteOffset":32980,
			"target":34962
		},
		{
			"buffer":0,
			"byteLength":3570,
			"byteOffset":39868,
			"target":34963
		},
		{
			"buffer":0,
			"byteLength":756,
			"byteOffset":43440,
			"target":34962
		},
		{
			"buffer":0,
			"byteLength":756,
			"byteOffset":44196,
			"target":34962
		},
		{
			"buffer":0,
			"byteLength":504,
			"byteOffset":44952,
			"target":34962
		},
		{
			"buffer":0,
			"byteLength":438,
			"byteOffset":45456,
			"target":34963
		},
		{
			"buffer":0,
			"byteLength":96,
			"byteOffset":45896,
			"target":34962
		},
		{
			"buffer":0,
			"byteLength":96,
			"byteOffset":45992,
			"target":34962
		},
		{
			"buffer":0,
			"byteLength":64,
			"byteOffset":46088,
			"target":34962
		},
		{
			"buffer":0,
			"byteLength":24,
			"byteOffset":46152,
			"target":34963
		},
		{
			"buffer":0,
			"byteLength":96,
			"byteOffset":46176,
			"target":34962
		},
		{
			"buffer":0,
			"byteLength":96,
			"byteOffset":46272,
			"target":34962
		},
		{
			"buffer":0,
			"byteLength":64,
			"byteOffset":46368,
			"target":34962
		},
		{
			"buffer":0,
			"byteLength":24,
			"byteOffset":46432,
			"target":34963
		}
	],
	"buffers":[
		{
			"byteLength":46456,
			"uri":"Xtra_ProjectX_tunneloflove.bin"
		}
	]
}
