{
	"asset":{
		"generator":"Khronos glTF Blender I/O v4.5.48",
		"version":"2.0"
	},
	"scene":0,
	"scenes":[
		{
			"name":"Scene",
			"nodes":[
				0
			]
		}
	],
	"nodes":[
		{
			"mesh":0,
			"name":"Object"
		}
	],
	"materials":[
		{
			"doubleSided":true,
			"name":"DS_EFLOOR1",
			"pbrMetallicRoughness":{
				"baseColorFactor":[
					0.800000011920929,
					0.800000011920929,
					0.800000011920929,
					1
				],
				"metallicFactor":0,
				"roughnessFactor":0.5
			}
		},
		{
			"doubleSided":true,
			"name":"DS_IHACEI01",
			"pbrMetallicRoughness":{
				"baseColorFactor":[
					0.800000011920929,
					0.800000011920929,
					0.800000011920929,
					1
				],
				"metallicFactor":0,
				"roughnessFactor":0.5
			}
		},
		{
			"doubleSided":true,
			"name":"DS_IHACEILIG01",
			"pbrMetallicRoughness":{
				"baseColorFactor":[
					0.800000011920929,
					0.800000011920929,
					0.800000011920929,
					1
				],
				"metallicFactor":0,
				"roughnessFactor":0.5
			}
		},
		{
			"doubleSided":true,
			"name":"DS_EWALL05",
			"pbrMetallicRoughness":{
				"baseColorFactor":[
					0.800000011920929,
					0.800000011920929,
					0.800000011920929,
					1
				],
				"metallicFactor":0,
				"roughnessFactor":0.5
			}
		},
		{
			"doubleSided":true,
			"name":"DS_ICEILIG01",
			"pbrMetallicRoughness":{
				"baseColorFactor":[
					0.800000011920929,
					0.800000011920929,
					0.800000011920929,
					1
				],
				"metallicFactor":0,
				"roughnessFactor":0.5
			}
		}
	],
	"meshes":[
		{
			"name":"Mesh",
			"primitives":[
				{
					"attributes":{
						"POSITION":0,
						"NORMAL":1,
						"TEXCOORD_0":2
					},
					"indices":3,
					"material":0
				},
				{
					"attributes":{
						"POSITION":4,
						"NORMAL":5,
						"TEXCOORD_0":6
					},
					"indices":7,
					"material":1
				},
				{
					"attributes":{
						"POSITION":8,
						"NORMAL":9,
						"TEXCOORD_0":10
					},
					"indices":11,
					"material":2
				},
				{
					"attributes":{
						"POSITION":12,
						"NORMAL":13,
						"TEXCOORD_0":14
					},
					"indices":15,
					"material":3
				},
				{
					"attributes":{
						"POSITION":16,
						"NORMAL":17,
						"TEXCOORD_0":18
					},
					"indices":19,
					"material":4
				}
			]
		}
	],
	"accessors":[
		{
			"bufferView":0,
			"componentType":5126,
			"count":58,
			"max":[
				0.96875,
				-0.09375,
				0.96875
			],
			"min":[
				-0.96875,
				-0.21875,
				-0.96875
			],
			"type":"VEC3"
		},
		{
			"bufferView":1,
			"componentType":5126,
			"count":58,
			"type":"VEC3"
		},
		{
			"bufferView":2,
			"componentType":5126,
			"count":58,
			"type":"VEC2"
		},
		{
			"bufferView":3,
			"componentType":5123,
			"count":120,
			"type":"SCALAR"
		},
		{
			"bufferView":4,
			"componentType":5126,
			"count":152,
			"max":[
				0.96875,
				-0.09375,
				0.96875
			],
			"min":[
				-0.96875,
				-0.21875,
				-0.96875
			],
			"type":"VEC3"
		},
		{
			"bufferView":5,
			"componentType":5126,
			"count":152,
			"type":"VEC3"
		},
		{
			"bufferView":6,
			"componentType":5126,
			"count":152,
			"type":"VEC2"
		},
		{
			"bufferView":7,
			"componentType":5123,
			"count":168,
			"type":"SCALAR"
		},
		{
			"bufferView":8,
			"componentType":5126,
			"count":32,
			"max":[
				0.53125,
				-0.09375,
				0.53125
			],
			"min":[
				-0.53125,
				-0.21875,
				-0.53125
			],
			"type":"VEC3"
		},
		{
			"bufferView":9,
			"componentType":5126,
			"count":32,
			"type":"VEC3"
		},
		{
			"bufferView":10,
			"componentType":5126,
			"count":32,
			"type":"VEC2"
		},
		{
			"bufferView":11,
			"componentType":5123,
			"count":48,
			"type":"SCALAR"
		},
		{
			"bufferView":12,
			"componentType":5126,
			"count":32,
			"max":[
				0.375,
				-0.03125,
				0.375
			],
			"min":[
				-0.375,
				-0.09375,
				-0.375
			],
			"type":"VEC3"
		},
		{
			"bufferView":13,
			"componentType":5126,
			"count":32,
			"type":"VEC3"
		},
		{
			"bufferView":14,
			"componentType":5126,
			"count":32,
			"type":"VEC2"
		},
		{
			"bufferView":15,
			"componentType":5123,
			"count":48,
			"type":"SCALAR"
		},
		{
			"bufferView":16,
			"componentType":5126,
			"count":24,
			"max":[
				0.3125,
				0,
				0.3125
			],
			"min":[
				-0.3125,
				-0.03125,
				-0.3125
			],
			"type":"VEC3"
		},
		{
			"bufferView":17,
			"componentType":5126,
			"count":24,
			"type":"VEC3"
		},
		{
			"bufferView":18,
			"componentType":5126,
			"count":24,
			"type":"VEC2"
		},
		{
			"bufferView":19,
			"componentType":5123,
			"count":24,
			"type":"SCALAR"
		}
	],
	"bufferViews":[
		{
			"buffer":0,
			"byteLength":696,
			"byteOffset":0,
			"target":34962
		},
		{
			"buffer":0,
			"byteLength":696,
			"byteOffset":696,
			"target":34962
		},
		{
			"buffer":0,
			"byteLength":464,
			"byteOffset":1392,
			"target":34962
		},
		{
			"buffer":0,
			"byteLength":240,
			"byteOffset":1856,
			"target":34963
		},
		{
			"buffer":0,
			"byteLength":1824,
			"byteOffset":2096,
			"target":34962
		},
		{
			"buffer":0,
			"byteLength":1824,
			"byteOffset":3920,
			"target":34962
		},
		{
			"buffer":0,
			"byteLength":1216,
			"byteOffset":5744,
			"target":34962
		},
		{
			"buffer":0,
			"byteLength":336,
			"byteOffset":6960,
			"target":34963
		},
		{
			"buffer":0,
			"byteLength":384,
			"byteOffset":7296,
			"target":34962
		},
		{
			"buffer":0,
			"byteLength":384,
			"byteOffset":7680,
			"target":34962
		},
		{
			"buffer":0,
			"byteLength":256,
			"byteOffset":8064,
			"target":34962
		},
		{
			"buffer":0,
			"byteLength":96,
			"byteOffset":8320,
			"target":34963
		},
		{
			"buffer":0,
			"byteLength":384,
			"byteOffset":8416,
			"target":34962
		},
		{
			"buffer":0,
			"byteLength":384,
			"byteOffset":8800,
			"target":34962
		},
		{
			"buffer":0,
			"byteLength":256,
			"byteOffset":9184,
			"target":34962
		},
		{
			"buffer":0,
			"byteLength":96,
			"byteOffset":9440,
			"target":34963
		},
		{
			"buffer":0,
			"byteLength":288,
			"byteOffset":9536,
			"target":34962
		},
		{
			"buffer":0,
			"byteLength":288,
			"byteOffset":9824,
			"target":34962
		},
		{
			"buffer":0,
			"byteLength":192,
			"byteOffset":10112,
			"target":34962
		},
		{
			"buffer":0,
			"byteLength":48,
			"byteOffset":10304,
			"target":34963
		}
	],
	"buffers":[
		{
			"byteLength":10352,
			"uri":"Xtra_Hellfire_dmisc_int_fstand_old.bin"
		}
	]
}
