{
	"asset":{
		"generator":"Khronos glTF Blender I/O v4.5.48",
		"version":"2.0"
	},
	"scene":0,
	"scenes":[
		{
			"name":"Scene",
			"nodes":[
				0
			]
		}
	],
	"nodes":[
		{
			"mesh":0,
			"name":"Object"
		}
	],
	"materials":[
		{
			"doubleSided":true,
			"name":"BE_EPORT01",
			"pbrMetallicRoughness":{
				"baseColorFactor":[
					0.800000011920929,
					0.800000011920929,
					0.800000011920929,
					1
				],
				"metallicFactor":0,
				"roughnessFactor":0.5
			}
		},
		{
			"doubleSided":true,
			"name":"BE_EWAL05A",
			"pbrMetallicRoughness":{
				"baseColorFactor":[
					0.800000011920929,
					0.800000011920929,
					0.800000011920929,
					1
				],
				"metallicFactor":0,
				"roughnessFactor":0.5
			}
		},
		{
			"doubleSided":true,
			"name":"BE_EWAL01B",
			"pbrMetallicRoughness":{
				"baseColorFactor":[
					0.800000011920929,
					0.800000011920929,
					0.800000011920929,
					1
				],
				"metallicFactor":0,
				"roughnessFactor":0.5
			}
		},
		{
			"doubleSided":true,
			"name":"BE_EPORT02A",
			"pbrMetallicRoughness":{
				"baseColorFactor":[
					0.800000011920929,
					0.800000011920929,
					0.800000011920929,
					1
				],
				"metallicFactor":0,
				"roughnessFactor":0.5
			}
		},
		{
			"doubleSided":true,
			"name":"BE_ITEBOR01",
			"pbrMetallicRoughness":{
				"baseColorFactor":[
					0.800000011920929,
					0.800000011920929,
					0.800000011920929,
					1
				],
				"metallicFactor":0,
				"roughnessFactor":0.5
			}
		},
		{
			"doubleSided":true,
			"name":"BE_ITEBOR02C",
			"pbrMetallicRoughness":{
				"baseColorFactor":[
					0.800000011920929,
					0.800000011920929,
					0.800000011920929,
					1
				],
				"metallicFactor":0,
				"roughnessFactor":0.5
			}
		},
		{
			"doubleSided":true,
			"name":"BE_ITEBOR02B",
			"pbrMetallicRoughness":{
				"baseColorFactor":[
					0.800000011920929,
					0.800000011920929,
					0.800000011920929,
					1
				],
				"metallicFactor":0,
				"roughnessFactor":0.5
			}
		}
	],
	"meshes":[
		{
			"name":"Mesh",
			"primitives":[
				{
					"attributes":{
						"POSITION":0,
						"NORMAL":1,
						"TEXCOORD_0":2
					},
					"indices":3,
					"material":0
				},
				{
					"attributes":{
						"POSITION":4,
						"NORMAL":5,
						"TEXCOORD_0":6
					},
					"indices":7,
					"material":1
				},
				{
					"attributes":{
						"POSITION":8,
						"NORMAL":9,
						"TEXCOORD_0":10
					},
					"indices":11,
					"material":2
				},
				{
					"attributes":{
						"POSITION":12,
						"NORMAL":13,
						"TEXCOORD_0":14
					},
					"indices":15,
					"material":3
				},
				{
					"attributes":{
						"POSITION":16,
						"NORMAL":17,
						"TEXCOORD_0":18
					},
					"indices":19,
					"material":4
				},
				{
					"attributes":{
						"POSITION":20,
						"NORMAL":21,
						"TEXCOORD_0":22
					},
					"indices":23,
					"material":5
				},
				{
					"attributes":{
						"POSITION":24,
						"NORMAL":25,
						"TEXCOORD_0":26
					},
					"indices":27,
					"material":6
				}
			]
		}
	],
	"accessors":[
		{
			"bufferView":0,
			"componentType":5126,
			"count":20,
			"max":[
				1.75,
				21.625,
				2.25
			],
			"min":[
				-1.75,
				-38,
				-1.25
			],
			"type":"VEC3"
		},
		{
			"bufferView":1,
			"componentType":5126,
			"count":20,
			"type":"VEC3"
		},
		{
			"bufferView":2,
			"componentType":5126,
			"count":20,
			"type":"VEC2"
		},
		{
			"bufferView":3,
			"componentType":5123,
			"count":30,
			"type":"SCALAR"
		},
		{
			"bufferView":4,
			"componentType":5126,
			"count":16,
			"max":[
				1.75,
				15.125,
				2.25
			],
			"min":[
				-1.75,
				9.75,
				-1.25
			],
			"type":"VEC3"
		},
		{
			"bufferView":5,
			"componentType":5126,
			"count":16,
			"type":"VEC3"
		},
		{
			"bufferView":6,
			"componentType":5126,
			"count":16,
			"type":"VEC2"
		},
		{
			"bufferView":7,
			"componentType":5123,
			"count":24,
			"type":"SCALAR"
		},
		{
			"bufferView":8,
			"componentType":5126,
			"count":28,
			"max":[
				2,
				21.625,
				2.5
			],
			"min":[
				-2,
				-38,
				-1.5
			],
			"type":"VEC3"
		},
		{
			"bufferView":9,
			"componentType":5126,
			"count":28,
			"type":"VEC3"
		},
		{
			"bufferView":10,
			"componentType":5126,
			"count":28,
			"type":"VEC2"
		},
		{
			"bufferView":11,
			"componentType":5123,
			"count":60,
			"type":"SCALAR"
		},
		{
			"bufferView":12,
			"componentType":5126,
			"count":4,
			"max":[
				2,
				22.25,
				2.5
			],
			"min":[
				-2,
				22.25,
				-1.5
			],
			"type":"VEC3"
		},
		{
			"bufferView":13,
			"componentType":5126,
			"count":4,
			"type":"VEC3"
		},
		{
			"bufferView":14,
			"componentType":5126,
			"count":4,
			"type":"VEC2"
		},
		{
			"bufferView":15,
			"componentType":5123,
			"count":6,
			"type":"SCALAR"
		},
		{
			"bufferView":16,
			"componentType":5126,
			"count":8,
			"max":[
				2,
				22.25,
				2.5
			],
			"min":[
				-2,
				21.625,
				-1.5
			],
			"type":"VEC3"
		},
		{
			"bufferView":17,
			"componentType":5126,
			"count":8,
			"type":"VEC3"
		},
		{
			"bufferView":18,
			"componentType":5126,
			"count":8,
			"type":"VEC2"
		},
		{
			"bufferView":19,
			"componentType":5123,
			"count":12,
			"type":"SCALAR"
		},
		{
			"bufferView":20,
			"componentType":5126,
			"count":6,
			"max":[
				2,
				22.25,
				-1.5
			],
			"min":[
				-2,
				21.625,
				-1.5
			],
			"type":"VEC3"
		},
		{
			"bufferView":21,
			"componentType":5126,
			"count":6,
			"type":"VEC3"
		},
		{
			"bufferView":22,
			"componentType":5126,
			"count":6,
			"type":"VEC2"
		},
		{
			"bufferView":23,
			"componentType":5123,
			"count":12,
			"type":"SCALAR"
		},
		{
			"bufferView":24,
			"componentType":5126,
			"count":6,
			"max":[
				2,
				22.25,
				2.5
			],
			"min":[
				-2,
				21.625,
				2.5
			],
			"type":"VEC3"
		},
		{
			"bufferView":25,
			"componentType":5126,
			"count":6,
			"type":"VEC3"
		},
		{
			"bufferView":26,
			"componentType":5126,
			"count":6,
			"type":"VEC2"
		},
		{
			"bufferView":27,
			"componentType":5123,
			"count":12,
			"type":"SCALAR"
		}
	],
	"bufferViews":[
		{
			"buffer":0,
			"byteLength":240,
			"byteOffset":0,
			"target":34962
		},
		{
			"buffer":0,
			"byteLength":240,
			"byteOffset":240,
			"target":34962
		},
		{
			"buffer":0,
			"byteLength":160,
			"byteOffset":480,
			"target":34962
		},
		{
			"buffer":0,
			"byteLength":60,
			"byteOffset":640,
			"target":34963
		},
		{
			"buffer":0,
			"byteLength":192,
			"byteOffset":700,
			"target":34962
		},
		{
			"buffer":0,
			"byteLength":192,
			"byteOffset":892,
			"target":34962
		},
		{
			"buffer":0,
			"byteLength":128,
			"byteOffset":1084,
			"target":34962
		},
		{
			"buffer":0,
			"byteLength":48,
			"byteOffset":1212,
			"target":34963
		},
		{
			"buffer":0,
			"byteLength":336,
			"byteOffset":1260,
			"target":34962
		},
		{
			"buffer":0,
			"byteLength":336,
			"byteOffset":1596,
			"target":34962
		},
		{
			"buffer":0,
			"byteLength":224,
			"byteOffset":1932,
			"target":34962
		},
		{
			"buffer":0,
			"byteLength":120,
			"byteOffset":2156,
			"target":34963
		},
		{
			"buffer":0,
			"byteLength":48,
			"byteOffset":2276,
			"target":34962
		},
		{
			"buffer":0,
			"byteLength":48,
			"byteOffset":2324,
			"target":34962
		},
		{
			"buffer":0,
			"byteLength":32,
			"byteOffset":2372,
			"target":34962
		},
		{
			"buffer":0,
			"byteLength":12,
			"byteOffset":2404,
			"target":34963
		},
		{
			"buffer":0,
			"byteLength":96,
			"byteOffset":2416,
			"target":34962
		},
		{
			"buffer":0,
			"byteLength":96,
			"byteOffset":2512,
			"target":34962
		},
		{
			"buffer":0,
			"byteLength":64,
			"byteOffset":2608,
			"target":34962
		},
		{
			"buffer":0,
			"byteLength":24,
			"byteOffset":2672,
			"target":34963
		},
		{
			"buffer":0,
			"byteLength":72,
			"byteOffset":2696,
			"target":34962
		},
		{
			"buffer":0,
			"byteLength":72,
			"byteOffset":2768,
			"target":34962
		},
		{
			"buffer":0,
			"byteLength":48,
			"byteOffset":2840,
			"target":34962
		},
		{
			"buffer":0,
			"byteLength":24,
			"byteOffset":2888,
			"target":34963
		},
		{
			"buffer":0,
			"byteLength":72,
			"byteOffset":2912,
			"target":34962
		},
		{
			"buffer":0,
			"byteLength":72,
			"byteOffset":2984,
			"target":34962
		},
		{
			"buffer":0,
			"byteLength":48,
			"byteOffset":3056,
			"target":34962
		},
		{
			"buffer":0,
			"byteLength":24,
			"byteOffset":3104,
			"target":34963
		}
	],
	"buffers":[
		{
			"byteLength":3128,
			"uri":"Xtra_WSol_Turret_CK.bin"
		}
	]
}
