{
	"asset":{
		"generator":"Khronos glTF Blender I/O v4.5.48",
		"version":"2.0"
	},
	"scene":0,
	"scenes":[
		{
			"name":"Scene",
			"nodes":[
				0
			]
		}
	],
	"nodes":[
		{
			"mesh":0,
			"name":"Object"
		}
	],
	"materials":[
		{
			"doubleSided":true,
			"name":"CP_IBOR01",
			"pbrMetallicRoughness":{
				"baseColorFactor":[
					0.800000011920929,
					0.800000011920929,
					0.800000011920929,
					1
				],
				"metallicFactor":0,
				"roughnessFactor":0.5
			}
		},
		{
			"doubleSided":true,
			"name":"CP_SAND",
			"pbrMetallicRoughness":{
				"baseColorFactor":[
					0.800000011920929,
					0.800000011920929,
					0.800000011920929,
					1
				],
				"metallicFactor":0,
				"roughnessFactor":0.5
			}
		},
		{
			"doubleSided":true,
			"name":"CP_IWAL02F",
			"pbrMetallicRoughness":{
				"baseColorFactor":[
					0.800000011920929,
					0.800000011920929,
					0.800000011920929,
					1
				],
				"metallicFactor":0,
				"roughnessFactor":0.5
			}
		},
		{
			"doubleSided":true,
			"name":"CP_ISTAIR01",
			"pbrMetallicRoughness":{
				"baseColorFactor":[
					0.800000011920929,
					0.800000011920929,
					0.800000011920929,
					1
				],
				"metallicFactor":0,
				"roughnessFactor":0.5
			}
		},
		{
			"doubleSided":true,
			"name":"CP_ISTRFACE01H",
			"pbrMetallicRoughness":{
				"baseColorFactor":[
					0.800000011920929,
					0.800000011920929,
					0.800000011920929,
					1
				],
				"metallicFactor":0,
				"roughnessFactor":0.5
			}
		},
		{
			"doubleSided":true,
			"name":"CP_ICOLDECO01",
			"pbrMetallicRoughness":{
				"baseColorFactor":[
					0.800000011920929,
					0.800000011920929,
					0.800000011920929,
					1
				],
				"metallicFactor":0,
				"roughnessFactor":0.5
			}
		},
		{
			"doubleSided":true,
			"name":"CP_IWAL02G",
			"pbrMetallicRoughness":{
				"baseColorFactor":[
					0.800000011920929,
					0.800000011920929,
					0.800000011920929,
					1
				],
				"metallicFactor":0,
				"roughnessFactor":0.5
			}
		},
		{
			"doubleSided":true,
			"name":"CP_ISPEC02CAP",
			"pbrMetallicRoughness":{
				"baseColorFactor":[
					0.800000011920929,
					0.800000011920929,
					0.800000011920929,
					1
				],
				"metallicFactor":0,
				"roughnessFactor":0.5
			}
		},
		{
			"doubleSided":true,
			"name":"CP_IWAL02B",
			"pbrMetallicRoughness":{
				"baseColorFactor":[
					0.800000011920929,
					0.800000011920929,
					0.800000011920929,
					1
				],
				"metallicFactor":0,
				"roughnessFactor":0.5
			}
		},
		{
			"doubleSided":true,
			"name":"CP_ICOLIGOLA",
			"pbrMetallicRoughness":{
				"baseColorFactor":[
					0.800000011920929,
					0.800000011920929,
					0.800000011920929,
					1
				],
				"metallicFactor":0,
				"roughnessFactor":0.5
			}
		},
		{
			"doubleSided":true,
			"name":"CP_ILIG02A",
			"pbrMetallicRoughness":{
				"baseColorFactor":[
					0.800000011920929,
					0.800000011920929,
					0.800000011920929,
					1
				],
				"metallicFactor":0,
				"roughnessFactor":0.5
			}
		}
	],
	"meshes":[
		{
			"name":"Mesh",
			"primitives":[
				{
					"attributes":{
						"POSITION":0,
						"NORMAL":1,
						"TEXCOORD_0":2
					},
					"indices":3,
					"material":0
				},
				{
					"attributes":{
						"POSITION":4,
						"NORMAL":5,
						"TEXCOORD_0":6
					},
					"indices":7,
					"material":1
				},
				{
					"attributes":{
						"POSITION":8,
						"NORMAL":9,
						"TEXCOORD_0":10
					},
					"indices":11,
					"material":2
				},
				{
					"attributes":{
						"POSITION":12,
						"NORMAL":13,
						"TEXCOORD_0":14
					},
					"indices":15,
					"material":3
				},
				{
					"attributes":{
						"POSITION":16,
						"NORMAL":17,
						"TEXCOORD_0":18
					},
					"indices":19,
					"material":4
				},
				{
					"attributes":{
						"POSITION":20,
						"NORMAL":21,
						"TEXCOORD_0":22
					},
					"indices":23,
					"material":5
				},
				{
					"attributes":{
						"POSITION":24,
						"NORMAL":25,
						"TEXCOORD_0":26
					},
					"indices":27,
					"material":6
				},
				{
					"attributes":{
						"POSITION":28,
						"NORMAL":29,
						"TEXCOORD_0":30
					},
					"indices":31,
					"material":7
				},
				{
					"attributes":{
						"POSITION":32,
						"NORMAL":33,
						"TEXCOORD_0":34
					},
					"indices":35,
					"material":8
				},
				{
					"attributes":{
						"POSITION":36,
						"NORMAL":37,
						"TEXCOORD_0":38
					},
					"indices":39,
					"material":9
				},
				{
					"attributes":{
						"POSITION":40,
						"NORMAL":41,
						"TEXCOORD_0":42
					},
					"indices":43,
					"material":10
				}
			]
		}
	],
	"accessors":[
		{
			"bufferView":0,
			"componentType":5126,
			"count":194,
			"max":[
				36.625,
				-9.5,
				47.4375
			],
			"min":[
				-12,
				-16.21875,
				8.5625
			],
			"type":"VEC3"
		},
		{
			"bufferView":1,
			"componentType":5126,
			"count":194,
			"type":"VEC3"
		},
		{
			"bufferView":2,
			"componentType":5126,
			"count":194,
			"type":"VEC2"
		},
		{
			"bufferView":3,
			"componentType":5123,
			"count":366,
			"type":"SCALAR"
		},
		{
			"bufferView":4,
			"componentType":5126,
			"count":250,
			"max":[
				63.5625,
				-8.0625,
				52.71875
			],
			"min":[
				-16.75,
				-24.8125,
				3.3125
			],
			"type":"VEC3"
		},
		{
			"bufferView":5,
			"componentType":5126,
			"count":250,
			"type":"VEC3"
		},
		{
			"bufferView":6,
			"componentType":5126,
			"count":250,
			"type":"VEC2"
		},
		{
			"bufferView":7,
			"componentType":5123,
			"count":564,
			"type":"SCALAR"
		},
		{
			"bufferView":8,
			"componentType":5126,
			"count":144,
			"max":[
				42,
				-12.1875,
				52.71875
			],
			"min":[
				-16.75,
				-22.8125,
				3.3125
			],
			"type":"VEC3"
		},
		{
			"bufferView":9,
			"componentType":5126,
			"count":144,
			"type":"VEC3"
		},
		{
			"bufferView":10,
			"componentType":5126,
			"count":144,
			"type":"VEC2"
		},
		{
			"bufferView":11,
			"componentType":5123,
			"count":288,
			"type":"SCALAR"
		},
		{
			"bufferView":12,
			"componentType":5126,
			"count":148,
			"max":[
				63.5625,
				-9.0625,
				47.4375
			],
			"min":[
				-12,
				-20.8125,
				8.5625
			],
			"type":"VEC3"
		},
		{
			"bufferView":13,
			"componentType":5126,
			"count":148,
			"type":"VEC3"
		},
		{
			"bufferView":14,
			"componentType":5126,
			"count":148,
			"type":"VEC2"
		},
		{
			"bufferView":15,
			"componentType":5123,
			"count":294,
			"type":"SCALAR"
		},
		{
			"bufferView":16,
			"componentType":5126,
			"count":22,
			"max":[
				37.125,
				-12.1875,
				47.9375
			],
			"min":[
				-12.5,
				-13,
				8.0625
			],
			"type":"VEC3"
		},
		{
			"bufferView":17,
			"componentType":5126,
			"count":22,
			"type":"VEC3"
		},
		{
			"bufferView":18,
			"componentType":5126,
			"count":22,
			"type":"VEC2"
		},
		{
			"bufferView":19,
			"componentType":5123,
			"count":42,
			"type":"SCALAR"
		},
		{
			"bufferView":20,
			"componentType":5126,
			"count":42,
			"max":[
				42,
				-13,
				52.71875
			],
			"min":[
				-16.75,
				-22.8125,
				3.3125
			],
			"type":"VEC3"
		},
		{
			"bufferView":21,
			"componentType":5126,
			"count":42,
			"type":"VEC3"
		},
		{
			"bufferView":22,
			"componentType":5126,
			"count":42,
			"type":"VEC2"
		},
		{
			"bufferView":23,
			"componentType":5123,
			"count":78,
			"type":"SCALAR"
		},
		{
			"bufferView":24,
			"componentType":5126,
			"count":78,
			"max":[
				63.5625,
				-9.5,
				40.53125
			],
			"min":[
				32.5625,
				-26.8125,
				15.53125
			],
			"type":"VEC3"
		},
		{
			"bufferView":25,
			"componentType":5126,
			"count":78,
			"type":"VEC3"
		},
		{
			"bufferView":26,
			"componentType":5126,
			"count":78,
			"type":"VEC2"
		},
		{
			"bufferView":27,
			"componentType":5123,
			"count":180,
			"type":"SCALAR"
		},
		{
			"bufferView":28,
			"componentType":5126,
			"count":52,
			"max":[
				63.5625,
				-9.0625,
				40.53125
			],
			"min":[
				32.5625,
				-21.25,
				15.53125
			],
			"type":"VEC3"
		},
		{
			"bufferView":29,
			"componentType":5126,
			"count":52,
			"type":"VEC3"
		},
		{
			"bufferView":30,
			"componentType":5126,
			"count":52,
			"type":"VEC2"
		},
		{
			"bufferView":31,
			"componentType":5123,
			"count":84,
			"type":"SCALAR"
		},
		{
			"bufferView":32,
			"componentType":5126,
			"count":128,
			"max":[
				23,
				-15.46875,
				38.75
			],
			"min":[
				1.25,
				-15.96875,
				17.25
			],
			"type":"VEC3"
		},
		{
			"bufferView":33,
			"componentType":5126,
			"count":128,
			"type":"VEC3"
		},
		{
			"bufferView":34,
			"componentType":5126,
			"count":128,
			"type":"VEC2"
		},
		{
			"bufferView":35,
			"componentType":5123,
			"count":192,
			"type":"SCALAR"
		},
		{
			"bufferView":36,
			"componentType":5126,
			"count":16,
			"max":[
				22.6875,
				-16.21875,
				38.46875
			],
			"min":[
				1.5625,
				-16.21875,
				17.5625
			],
			"type":"VEC3"
		},
		{
			"bufferView":37,
			"componentType":5126,
			"count":16,
			"type":"VEC3"
		},
		{
			"bufferView":38,
			"componentType":5126,
			"count":16,
			"type":"VEC2"
		},
		{
			"bufferView":39,
			"componentType":5123,
			"count":24,
			"type":"SCALAR"
		},
		{
			"bufferView":40,
			"componentType":5126,
			"count":64,
			"max":[
				23,
				-15.46875,
				38.75
			],
			"min":[
				1.25,
				-15.96875,
				17.25
			],
			"type":"VEC3"
		},
		{
			"bufferView":41,
			"componentType":5126,
			"count":64,
			"type":"VEC3"
		},
		{
			"bufferView":42,
			"componentType":5126,
			"count":64,
			"type":"VEC2"
		},
		{
			"bufferView":43,
			"componentType":5123,
			"count":96,
			"type":"SCALAR"
		}
	],
	"bufferViews":[
		{
			"buffer":0,
			"byteLength":2328,
			"byteOffset":0,
			"target":34962
		},
		{
			"buffer":0,
			"byteLength":2328,
			"byteOffset":2328,
			"target":34962
		},
		{
			"buffer":0,
			"byteLength":1552,
			"byteOffset":4656,
			"target":34962
		},
		{
			"buffer":0,
			"byteLength":732,
			"byteOffset":6208,
			"target":34963
		},
		{
			"buffer":0,
			"byteLength":3000,
			"byteOffset":6940,
			"target":34962
		},
		{
			"buffer":0,
			"byteLength":3000,
			"byteOffset":9940,
			"target":34962
		},
		{
			"buffer":0,
			"byteLength":2000,
			"byteOffset":12940,
			"target":34962
		},
		{
			"buffer":0,
			"byteLength":1128,
			"byteOffset":14940,
			"target":34963
		},
		{
			"buffer":0,
			"byteLength":1728,
			"byteOffset":16068,
			"target":34962
		},
		{
			"buffer":0,
			"byteLength":1728,
			"byteOffset":17796,
			"target":34962
		},
		{
			"buffer":0,
			"byteLength":1152,
			"byteOffset":19524,
			"target":34962
		},
		{
			"buffer":0,
			"byteLength":576,
			"byteOffset":20676,
			"target":34963
		},
		{
			"buffer":0,
			"byteLength":1776,
			"byteOffset":21252,
			"target":34962
		},
		{
			"buffer":0,
			"byteLength":1776,
			"byteOffset":23028,
			"target":34962
		},
		{
			"buffer":0,
			"byteLength":1184,
			"byteOffset":24804,
			"target":34962
		},
		{
			"buffer":0,
			"byteLength":588,
			"byteOffset":25988,
			"target":34963
		},
		{
			"buffer":0,
			"byteLength":264,
			"byteOffset":26576,
			"target":34962
		},
		{
			"buffer":0,
			"byteLength":264,
			"byteOffset":26840,
			"target":34962
		},
		{
			"buffer":0,
			"byteLength":176,
			"byteOffset":27104,
			"target":34962
		},
		{
			"buffer":0,
			"byteLength":84,
			"byteOffset":27280,
			"target":34963
		},
		{
			"buffer":0,
			"byteLength":504,
			"byteOffset":27364,
			"target":34962
		},
		{
			"buffer":0,
			"byteLength":504,
			"byteOffset":27868,
			"target":34962
		},
		{
			"buffer":0,
			"byteLength":336,
			"byteOffset":28372,
			"target":34962
		},
		{
			"buffer":0,
			"byteLength":156,
			"byteOffset":28708,
			"target":34963
		},
		{
			"buffer":0,
			"byteLength":936,
			"byteOffset":28864,
			"target":34962
		},
		{
			"buffer":0,
			"byteLength":936,
			"byteOffset":29800,
			"target":34962
		},
		{
			"buffer":0,
			"byteLength":624,
			"byteOffset":30736,
			"target":34962
		},
		{
			"buffer":0,
			"byteLength":360,
			"byteOffset":31360,
			"target":34963
		},
		{
			"buffer":0,
			"byteLength":624,
			"byteOffset":31720,
			"target":34962
		},
		{
			"buffer":0,
			"byteLength":624,
			"byteOffset":32344,
			"target":34962
		},
		{
			"buffer":0,
			"byteLength":416,
			"byteOffset":32968,
			"target":34962
		},
		{
			"buffer":0,
			"byteLength":168,
			"byteOffset":33384,
			"target":34963
		},
		{
			"buffer":0,
			"byteLength":1536,
			"byteOffset":33552,
			"target":34962
		},
		{
			"buffer":0,
			"byteLength":1536,
			"byteOffset":35088,
			"target":34962
		},
		{
			"buffer":0,
			"byteLength":1024,
			"byteOffset":36624,
			"target":34962
		},
		{
			"buffer":0,
			"byteLength":384,
			"byteOffset":37648,
			"target":34963
		},
		{
			"buffer":0,
			"byteLength":192,
			"byteOffset":38032,
			"target":34962
		},
		{
			"buffer":0,
			"byteLength":192,
			"byteOffset":38224,
			"target":34962
		},
		{
			"buffer":0,
			"byteLength":128,
			"byteOffset":38416,
			"target":34962
		},
		{
			"buffer":0,
			"byteLength":48,
			"byteOffset":38544,
			"target":34963
		},
		{
			"buffer":0,
			"byteLength":768,
			"byteOffset":38592,
			"target":34962
		},
		{
			"buffer":0,
			"byteLength":768,
			"byteOffset":39360,
			"target":34962
		},
		{
			"buffer":0,
			"byteLength":512,
			"byteOffset":40128,
			"target":34962
		},
		{
			"buffer":0,
			"byteLength":192,
			"byteOffset":40640,
			"target":34963
		}
	],
	"buffers":[
		{
			"byteLength":40832,
			"uri":"Xtra_Vestige_vpad.bin"
		}
	]
}
