{
	"asset":{
		"generator":"Khronos glTF Blender I/O v4.5.48",
		"version":"2.0"
	},
	"scene":0,
	"scenes":[
		{
			"name":"Scene",
			"nodes":[
				0
			]
		}
	],
	"nodes":[
		{
			"mesh":0,
			"name":"Object"
		}
	],
	"materials":[
		{
			"doubleSided":true,
			"name":"BD_ETERRAIN3A",
			"pbrMetallicRoughness":{
				"baseColorFactor":[
					0.800000011920929,
					0.800000011920929,
					0.800000011920929,
					1
				],
				"metallicFactor":0,
				"roughnessFactor":0.5
			}
		},
		{
			"doubleSided":true,
			"name":"BD_ETERRAIN2A",
			"pbrMetallicRoughness":{
				"baseColorFactor":[
					0.800000011920929,
					0.800000011920929,
					0.800000011920929,
					1
				],
				"metallicFactor":0,
				"roughnessFactor":0.5
			}
		},
		{
			"doubleSided":true,
			"name":"BD_EWAL03C",
			"pbrMetallicRoughness":{
				"baseColorFactor":[
					0.800000011920929,
					0.800000011920929,
					0.800000011920929,
					1
				],
				"metallicFactor":0,
				"roughnessFactor":0.5
			}
		},
		{
			"doubleSided":true,
			"name":"BD_IBOR10",
			"pbrMetallicRoughness":{
				"baseColorFactor":[
					0.800000011920929,
					0.800000011920929,
					0.800000011920929,
					1
				],
				"metallicFactor":0,
				"roughnessFactor":0.5
			}
		},
		{
			"doubleSided":true,
			"name":"BD_THRESH02A",
			"pbrMetallicRoughness":{
				"baseColorFactor":[
					0.800000011920929,
					0.800000011920929,
					0.800000011920929,
					1
				],
				"metallicFactor":0,
				"roughnessFactor":0.5
			}
		},
		{
			"doubleSided":true,
			"name":"BD_ISPE07",
			"pbrMetallicRoughness":{
				"baseColorFactor":[
					0.800000011920929,
					0.800000011920929,
					0.800000011920929,
					1
				],
				"metallicFactor":0,
				"roughnessFactor":0.5
			}
		},
		{
			"doubleSided":true,
			"name":"BD_IFLO01",
			"pbrMetallicRoughness":{
				"baseColorFactor":[
					0.800000011920929,
					0.800000011920929,
					0.800000011920929,
					1
				],
				"metallicFactor":0,
				"roughnessFactor":0.5
			}
		},
		{
			"doubleSided":true,
			"name":"BD_IBOR7",
			"pbrMetallicRoughness":{
				"baseColorFactor":[
					0.800000011920929,
					0.800000011920929,
					0.800000011920929,
					1
				],
				"metallicFactor":0,
				"roughnessFactor":0.5
			}
		},
		{
			"doubleSided":true,
			"name":"BD_EWAL15",
			"pbrMetallicRoughness":{
				"baseColorFactor":[
					0.800000011920929,
					0.800000011920929,
					0.800000011920929,
					1
				],
				"metallicFactor":0,
				"roughnessFactor":0.5
			}
		},
		{
			"doubleSided":true,
			"name":"BD_ELIG03",
			"pbrMetallicRoughness":{
				"baseColorFactor":[
					0.800000011920929,
					0.800000011920929,
					0.800000011920929,
					1
				],
				"metallicFactor":0,
				"roughnessFactor":0.5
			}
		},
		{
			"doubleSided":true,
			"name":"BD_EWAL02",
			"pbrMetallicRoughness":{
				"baseColorFactor":[
					0.800000011920929,
					0.800000011920929,
					0.800000011920929,
					1
				],
				"metallicFactor":0,
				"roughnessFactor":0.5
			}
		},
		{
			"doubleSided":true,
			"name":"BD_1WAL03C",
			"pbrMetallicRoughness":{
				"baseColorFactor":[
					0.800000011920929,
					0.800000011920929,
					0.800000011920929,
					1
				],
				"metallicFactor":0,
				"roughnessFactor":0.5
			}
		},
		{
			"doubleSided":true,
			"name":"BD_EWAL07",
			"pbrMetallicRoughness":{
				"baseColorFactor":[
					0.800000011920929,
					0.800000011920929,
					0.800000011920929,
					1
				],
				"metallicFactor":0,
				"roughnessFactor":0.5
			}
		},
		{
			"doubleSided":true,
			"name":"BD_EWAL09",
			"pbrMetallicRoughness":{
				"baseColorFactor":[
					0.800000011920929,
					0.800000011920929,
					0.800000011920929,
					1
				],
				"metallicFactor":0,
				"roughnessFactor":0.5
			}
		},
		{
			"doubleSided":true,
			"name":"BD_ECOL01A",
			"pbrMetallicRoughness":{
				"baseColorFactor":[
					0.800000011920929,
					0.800000011920929,
					0.800000011920929,
					1
				],
				"metallicFactor":0,
				"roughnessFactor":0.5
			}
		},
		{
			"doubleSided":true,
			"name":"BD_EWAL13",
			"pbrMetallicRoughness":{
				"baseColorFactor":[
					0.800000011920929,
					0.800000011920929,
					0.800000011920929,
					1
				],
				"metallicFactor":0,
				"roughnessFactor":0.5
			}
		},
		{
			"doubleSided":true,
			"name":"BD_ECOL02",
			"pbrMetallicRoughness":{
				"baseColorFactor":[
					0.800000011920929,
					0.800000011920929,
					0.800000011920929,
					1
				],
				"metallicFactor":0,
				"roughnessFactor":0.5
			}
		},
		{
			"doubleSided":true,
			"name":"BD_IFUNCTEC01A",
			"pbrMetallicRoughness":{
				"baseColorFactor":[
					0.800000011920929,
					0.800000011920929,
					0.800000011920929,
					1
				],
				"metallicFactor":0,
				"roughnessFactor":0.5
			}
		},
		{
			"doubleSided":true,
			"name":"BD_ISPE06",
			"pbrMetallicRoughness":{
				"baseColorFactor":[
					0.800000011920929,
					0.800000011920929,
					0.800000011920929,
					1
				],
				"metallicFactor":0,
				"roughnessFactor":0.5
			}
		}
	],
	"meshes":[
		{
			"name":"Mesh",
			"primitives":[
				{
					"attributes":{
						"POSITION":0,
						"NORMAL":1,
						"TEXCOORD_0":2
					},
					"indices":3,
					"material":0
				},
				{
					"attributes":{
						"POSITION":4,
						"NORMAL":5,
						"TEXCOORD_0":6
					},
					"indices":7,
					"material":1
				},
				{
					"attributes":{
						"POSITION":8,
						"NORMAL":9,
						"TEXCOORD_0":10
					},
					"indices":11,
					"material":2
				},
				{
					"attributes":{
						"POSITION":12,
						"NORMAL":13,
						"TEXCOORD_0":14
					},
					"indices":15,
					"material":3
				},
				{
					"attributes":{
						"POSITION":16,
						"NORMAL":17,
						"TEXCOORD_0":18
					},
					"indices":19,
					"material":4
				},
				{
					"attributes":{
						"POSITION":20,
						"NORMAL":21,
						"TEXCOORD_0":22
					},
					"indices":23,
					"material":5
				},
				{
					"attributes":{
						"POSITION":24,
						"NORMAL":25,
						"TEXCOORD_0":26
					},
					"indices":27,
					"material":6
				},
				{
					"attributes":{
						"POSITION":28,
						"NORMAL":29,
						"TEXCOORD_0":30
					},
					"indices":31,
					"material":7
				},
				{
					"attributes":{
						"POSITION":32,
						"NORMAL":33,
						"TEXCOORD_0":34
					},
					"indices":35,
					"material":8
				},
				{
					"attributes":{
						"POSITION":36,
						"NORMAL":37,
						"TEXCOORD_0":38
					},
					"indices":39,
					"material":9
				},
				{
					"attributes":{
						"POSITION":40,
						"NORMAL":41,
						"TEXCOORD_0":42
					},
					"indices":43,
					"material":10
				},
				{
					"attributes":{
						"POSITION":44,
						"NORMAL":45,
						"TEXCOORD_0":46
					},
					"indices":47,
					"material":11
				},
				{
					"attributes":{
						"POSITION":48,
						"NORMAL":49,
						"TEXCOORD_0":50
					},
					"indices":51,
					"material":12
				},
				{
					"attributes":{
						"POSITION":52,
						"NORMAL":53,
						"TEXCOORD_0":54
					},
					"indices":55,
					"material":13
				},
				{
					"attributes":{
						"POSITION":56,
						"NORMAL":57,
						"TEXCOORD_0":58
					},
					"indices":59,
					"material":14
				},
				{
					"attributes":{
						"POSITION":60,
						"NORMAL":61,
						"TEXCOORD_0":62
					},
					"indices":63,
					"material":15
				},
				{
					"attributes":{
						"POSITION":64,
						"NORMAL":65,
						"TEXCOORD_0":66
					},
					"indices":67,
					"material":16
				},
				{
					"attributes":{
						"POSITION":68,
						"NORMAL":69,
						"TEXCOORD_0":70
					},
					"indices":71,
					"material":17
				},
				{
					"attributes":{
						"POSITION":72,
						"NORMAL":73,
						"TEXCOORD_0":74
					},
					"indices":75,
					"material":18
				}
			]
		}
	],
	"accessors":[
		{
			"bufferView":0,
			"componentType":5126,
			"count":715,
			"max":[
				22,
				11,
				63
			],
			"min":[
				-10,
				-10,
				-92
			],
			"type":"VEC3"
		},
		{
			"bufferView":1,
			"componentType":5126,
			"count":715,
			"type":"VEC3"
		},
		{
			"bufferView":2,
			"componentType":5126,
			"count":715,
			"type":"VEC2"
		},
		{
			"bufferView":3,
			"componentType":5123,
			"count":1674,
			"type":"SCALAR"
		},
		{
			"bufferView":4,
			"componentType":5126,
			"count":294,
			"max":[
				22,
				-4.5,
				60
			],
			"min":[
				-10,
				-12,
				-92
			],
			"type":"VEC3"
		},
		{
			"bufferView":5,
			"componentType":5126,
			"count":294,
			"type":"VEC3"
		},
		{
			"bufferView":6,
			"componentType":5126,
			"count":294,
			"type":"VEC2"
		},
		{
			"bufferView":7,
			"componentType":5123,
			"count":606,
			"type":"SCALAR"
		},
		{
			"bufferView":8,
			"componentType":5126,
			"count":2102,
			"max":[
				24,
				16,
				80
			],
			"min":[
				-12,
				-12,
				-92
			],
			"type":"VEC3"
		},
		{
			"bufferView":9,
			"componentType":5126,
			"count":2102,
			"type":"VEC3"
		},
		{
			"bufferView":10,
			"componentType":5126,
			"count":2102,
			"type":"VEC2"
		},
		{
			"bufferView":11,
			"componentType":5123,
			"count":5115,
			"type":"SCALAR"
		},
		{
			"bufferView":12,
			"componentType":5126,
			"count":2701,
			"max":[
				22,
				16.5,
				64
			],
			"min":[
				-10,
				-12,
				-96
			],
			"type":"VEC3"
		},
		{
			"bufferView":13,
			"componentType":5126,
			"count":2701,
			"type":"VEC3"
		},
		{
			"bufferView":14,
			"componentType":5126,
			"count":2701,
			"type":"VEC2"
		},
		{
			"bufferView":15,
			"componentType":5123,
			"count":6294,
			"type":"SCALAR"
		},
		{
			"bufferView":16,
			"componentType":5126,
			"count":4,
			"max":[
				6.25,
				7.0625,
				59.8125
			],
			"min":[
				5.75,
				7.0625,
				-67.5
			],
			"type":"VEC3"
		},
		{
			"bufferView":17,
			"componentType":5126,
			"count":4,
			"type":"VEC3"
		},
		{
			"bufferView":18,
			"componentType":5126,
			"count":4,
			"type":"VEC2"
		},
		{
			"bufferView":19,
			"componentType":5123,
			"count":6,
			"type":"SCALAR"
		},
		{
			"bufferView":20,
			"componentType":5126,
			"count":8,
			"max":[
				19.375,
				-2.75,
				59.5
			],
			"min":[
				-7.3125,
				-2.75,
				-68
			],
			"type":"VEC3"
		},
		{
			"bufferView":21,
			"componentType":5126,
			"count":8,
			"type":"VEC3"
		},
		{
			"bufferView":22,
			"componentType":5126,
			"count":8,
			"type":"VEC2"
		},
		{
			"bufferView":23,
			"componentType":5123,
			"count":12,
			"type":"SCALAR"
		},
		{
			"bufferView":24,
			"componentType":5126,
			"count":55,
			"max":[
				19.5,
				-7,
				-69
			],
			"min":[
				-7.5,
				-8,
				-92
			],
			"type":"VEC3"
		},
		{
			"bufferView":25,
			"componentType":5126,
			"count":55,
			"type":"VEC3"
		},
		{
			"bufferView":26,
			"componentType":5126,
			"count":55,
			"type":"VEC2"
		},
		{
			"bufferView":27,
			"componentType":5123,
			"count":183,
			"type":"SCALAR"
		},
		{
			"bufferView":28,
			"componentType":5126,
			"count":8,
			"max":[
				17,
				16.5,
				61.53125
			],
			"min":[
				-5,
				-8,
				-69
			],
			"type":"VEC3"
		},
		{
			"bufferView":29,
			"componentType":5126,
			"count":8,
			"type":"VEC3"
		},
		{
			"bufferView":30,
			"componentType":5126,
			"count":8,
			"type":"VEC2"
		},
		{
			"bufferView":31,
			"componentType":5123,
			"count":12,
			"type":"SCALAR"
		},
		{
			"bufferView":32,
			"componentType":5126,
			"count":10,
			"max":[
				19.5,
				8,
				-71
			],
			"min":[
				-7.5,
				8,
				-72
			],
			"type":"VEC3"
		},
		{
			"bufferView":33,
			"componentType":5126,
			"count":10,
			"type":"VEC3"
		},
		{
			"bufferView":34,
			"componentType":5126,
			"count":10,
			"type":"VEC2"
		},
		{
			"bufferView":35,
			"componentType":5123,
			"count":24,
			"type":"SCALAR"
		},
		{
			"bufferView":36,
			"componentType":5126,
			"count":4,
			"max":[
				10,
				4.25,
				-77.75
			],
			"min":[
				2,
				4.25,
				-84
			],
			"type":"VEC3"
		},
		{
			"bufferView":37,
			"componentType":5126,
			"count":4,
			"type":"VEC3"
		},
		{
			"bufferView":38,
			"componentType":5126,
			"count":4,
			"type":"VEC2"
		},
		{
			"bufferView":39,
			"componentType":5123,
			"count":6,
			"type":"SCALAR"
		},
		{
			"bufferView":40,
			"componentType":5126,
			"count":20,
			"max":[
				10,
				6.25,
				-77.75
			],
			"min":[
				2,
				4.25,
				-84
			],
			"type":"VEC3"
		},
		{
			"bufferView":41,
			"componentType":5126,
			"count":20,
			"type":"VEC3"
		},
		{
			"bufferView":42,
			"componentType":5126,
			"count":20,
			"type":"VEC2"
		},
		{
			"bufferView":43,
			"componentType":5123,
			"count":36,
			"type":"SCALAR"
		},
		{
			"bufferView":44,
			"componentType":5126,
			"count":8,
			"max":[
				17,
				-3,
				-87.5
			],
			"min":[
				-5,
				-3,
				-90
			],
			"type":"VEC3"
		},
		{
			"bufferView":45,
			"componentType":5126,
			"count":8,
			"type":"VEC3"
		},
		{
			"bufferView":46,
			"componentType":5126,
			"count":8,
			"type":"VEC2"
		},
		{
			"bufferView":47,
			"componentType":5123,
			"count":12,
			"type":"SCALAR"
		},
		{
			"bufferView":48,
			"componentType":5126,
			"count":101,
			"max":[
				17,
				-2.375,
				-87.5
			],
			"min":[
				-5,
				-7,
				-92
			],
			"type":"VEC3"
		},
		{
			"bufferView":49,
			"componentType":5126,
			"count":101,
			"type":"VEC3"
		},
		{
			"bufferView":50,
			"componentType":5126,
			"count":101,
			"type":"VEC2"
		},
		{
			"bufferView":51,
			"componentType":5123,
			"count":246,
			"type":"SCALAR"
		},
		{
			"bufferView":52,
			"componentType":5126,
			"count":8,
			"max":[
				19.5,
				-3,
				-85.5
			],
			"min":[
				-7.5,
				-7,
				-85.5
			],
			"type":"VEC3"
		},
		{
			"bufferView":53,
			"componentType":5126,
			"count":8,
			"type":"VEC3"
		},
		{
			"bufferView":54,
			"componentType":5126,
			"count":8,
			"type":"VEC2"
		},
		{
			"bufferView":55,
			"componentType":5123,
			"count":12,
			"type":"SCALAR"
		},
		{
			"bufferView":56,
			"componentType":5126,
			"count":40,
			"max":[
				13.5,
				-3,
				-90
			],
			"min":[
				-1.5,
				-7,
				-92
			],
			"type":"VEC3"
		},
		{
			"bufferView":57,
			"componentType":5126,
			"count":40,
			"type":"VEC3"
		},
		{
			"bufferView":58,
			"componentType":5126,
			"count":40,
			"type":"VEC2"
		},
		{
			"bufferView":59,
			"componentType":5123,
			"count":129,
			"type":"SCALAR"
		},
		{
			"bufferView":60,
			"componentType":5126,
			"count":10,
			"max":[
				19.5,
				-2,
				-85.5
			],
			"min":[
				-7.5,
				-2.5,
				-92
			],
			"type":"VEC3"
		},
		{
			"bufferView":61,
			"componentType":5126,
			"count":10,
			"type":"VEC3"
		},
		{
			"bufferView":62,
			"componentType":5126,
			"count":10,
			"type":"VEC2"
		},
		{
			"bufferView":63,
			"componentType":5123,
			"count":18,
			"type":"SCALAR"
		},
		{
			"bufferView":64,
			"componentType":5126,
			"count":8,
			"max":[
				13.5,
				-3,
				-85.5
			],
			"min":[
				-1.5,
				-7,
				-87.5
			],
			"type":"VEC3"
		},
		{
			"bufferView":65,
			"componentType":5126,
			"count":8,
			"type":"VEC3"
		},
		{
			"bufferView":66,
			"componentType":5126,
			"count":8,
			"type":"VEC2"
		},
		{
			"bufferView":67,
			"componentType":5123,
			"count":12,
			"type":"SCALAR"
		},
		{
			"bufferView":68,
			"componentType":5126,
			"count":4,
			"max":[
				9,
				-2.375,
				-91
			],
			"min":[
				3,
				-6.875,
				-91
			],
			"type":"VEC3"
		},
		{
			"bufferView":69,
			"componentType":5126,
			"count":4,
			"type":"VEC3"
		},
		{
			"bufferView":70,
			"componentType":5126,
			"count":4,
			"type":"VEC2"
		},
		{
			"bufferView":71,
			"componentType":5123,
			"count":6,
			"type":"SCALAR"
		},
		{
			"bufferView":72,
			"componentType":5126,
			"count":4,
			"max":[
				9,
				15.25,
				64
			],
			"min":[
				3,
				9.25,
				64
			],
			"type":"VEC3"
		},
		{
			"bufferView":73,
			"componentType":5126,
			"count":4,
			"type":"VEC3"
		},
		{
			"bufferView":74,
			"componentType":5126,
			"count":4,
			"type":"VEC2"
		},
		{
			"bufferView":75,
			"componentType":5123,
			"count":6,
			"type":"SCALAR"
		}
	],
	"bufferViews":[
		{
			"buffer":0,
			"byteLength":8580,
			"byteOffset":0,
			"target":34962
		},
		{
			"buffer":0,
			"byteLength":8580,
			"byteOffset":8580,
			"target":34962
		},
		{
			"buffer":0,
			"byteLength":5720,
			"byteOffset":17160,
			"target":34962
		},
		{
			"buffer":0,
			"byteLength":3348,
			"byteOffset":22880,
			"target":34963
		},
		{
			"buffer":0,
			"byteLength":3528,
			"byteOffset":26228,
			"target":34962
		},
		{
			"buffer":0,
			"byteLength":3528,
			"byteOffset":29756,
			"target":34962
		},
		{
			"buffer":0,
			"byteLength":2352,
			"byteOffset":33284,
			"target":34962
		},
		{
			"buffer":0,
			"byteLength":1212,
			"byteOffset":35636,
			"target":34963
		},
		{
			"buffer":0,
			"byteLength":25224,
			"byteOffset":36848,
			"target":34962
		},
		{
			"buffer":0,
			"byteLength":25224,
			"byteOffset":62072,
			"target":34962
		},
		{
			"buffer":0,
			"byteLength":16816,
			"byteOffset":87296,
			"target":34962
		},
		{
			"buffer":0,
			"byteLength":10230,
			"byteOffset":104112,
			"target":34963
		},
		{
			"buffer":0,
			"byteLength":32412,
			"byteOffset":114344,
			"target":34962
		},
		{
			"buffer":0,
			"byteLength":32412,
			"byteOffset":146756,
			"target":34962
		},
		{
			"buffer":0,
			"byteLength":21608,
			"byteOffset":179168,
			"target":34962
		},
		{
			"buffer":0,
			"byteLength":12588,
			"byteOffset":200776,
			"target":34963
		},
		{
			"buffer":0,
			"byteLength":48,
			"byteOffset":213364,
			"target":34962
		},
		{
			"buffer":0,
			"byteLength":48,
			"byteOffset":213412,
			"target":34962
		},
		{
			"buffer":0,
			"byteLength":32,
			"byteOffset":213460,
			"target":34962
		},
		{
			"buffer":0,
			"byteLength":12,
			"byteOffset":213492,
			"target":34963
		},
		{
			"buffer":0,
			"byteLength":96,
			"byteOffset":213504,
			"target":34962
		},
		{
			"buffer":0,
			"byteLength":96,
			"byteOffset":213600,
			"target":34962
		},
		{
			"buffer":0,
			"byteLength":64,
			"byteOffset":213696,
			"target":34962
		},
		{
			"buffer":0,
			"byteLength":24,
			"byteOffset":213760,
			"target":34963
		},
		{
			"buffer":0,
			"byteLength":660,
			"byteOffset":213784,
			"target":34962
		},
		{
			"buffer":0,
			"byteLength":660,
			"byteOffset":214444,
			"target":34962
		},
		{
			"buffer":0,
			"byteLength":440,
			"byteOffset":215104,
			"target":34962
		},
		{
			"buffer":0,
			"byteLength":366,
			"byteOffset":215544,
			"target":34963
		},
		{
			"buffer":0,
			"byteLength":96,
			"byteOffset":215912,
			"target":34962
		},
		{
			"buffer":0,
			"byteLength":96,
			"byteOffset":216008,
			"target":34962
		},
		{
			"buffer":0,
			"byteLength":64,
			"byteOffset":216104,
			"target":34962
		},
		{
			"buffer":0,
			"byteLength":24,
			"byteOffset":216168,
			"target":34963
		},
		{
			"buffer":0,
			"byteLength":120,
			"byteOffset":216192,
			"target":34962
		},
		{
			"buffer":0,
			"byteLength":120,
			"byteOffset":216312,
			"target":34962
		},
		{
			"buffer":0,
			"byteLength":80,
			"byteOffset":216432,
			"target":34962
		},
		{
			"buffer":0,
			"byteLength":48,
			"byteOffset":216512,
			"target":34963
		},
		{
			"buffer":0,
			"byteLength":48,
			"byteOffset":216560,
			"target":34962
		},
		{
			"buffer":0,
			"byteLength":48,
			"byteOffset":216608,
			"target":34962
		},
		{
			"buffer":0,
			"byteLength":32,
			"byteOffset":216656,
			"target":34962
		},
		{
			"buffer":0,
			"byteLength":12,
			"byteOffset":216688,
			"target":34963
		},
		{
			"buffer":0,
			"byteLength":240,
			"byteOffset":216700,
			"target":34962
		},
		{
			"buffer":0,
			"byteLength":240,
			"byteOffset":216940,
			"target":34962
		},
		{
			"buffer":0,
			"byteLength":160,
			"byteOffset":217180,
			"target":34962
		},
		{
			"buffer":0,
			"byteLength":72,
			"byteOffset":217340,
			"target":34963
		},
		{
			"buffer":0,
			"byteLength":96,
			"byteOffset":217412,
			"target":34962
		},
		{
			"buffer":0,
			"byteLength":96,
			"byteOffset":217508,
			"target":34962
		},
		{
			"buffer":0,
			"byteLength":64,
			"byteOffset":217604,
			"target":34962
		},
		{
			"buffer":0,
			"byteLength":24,
			"byteOffset":217668,
			"target":34963
		},
		{
			"buffer":0,
			"byteLength":1212,
			"byteOffset":217692,
			"target":34962
		},
		{
			"buffer":0,
			"byteLength":1212,
			"byteOffset":218904,
			"target":34962
		},
		{
			"buffer":0,
			"byteLength":808,
			"byteOffset":220116,
			"target":34962
		},
		{
			"buffer":0,
			"byteLength":492,
			"byteOffset":220924,
			"target":34963
		},
		{
			"buffer":0,
			"byteLength":96,
			"byteOffset":221416,
			"target":34962
		},
		{
			"buffer":0,
			"byteLength":96,
			"byteOffset":221512,
			"target":34962
		},
		{
			"buffer":0,
			"byteLength":64,
			"byteOffset":221608,
			"target":34962
		},
		{
			"buffer":0,
			"byteLength":24,
			"byteOffset":221672,
			"target":34963
		},
		{
			"buffer":0,
			"byteLength":480,
			"byteOffset":221696,
			"target":34962
		},
		{
			"buffer":0,
			"byteLength":480,
			"byteOffset":222176,
			"target":34962
		},
		{
			"buffer":0,
			"byteLength":320,
			"byteOffset":222656,
			"target":34962
		},
		{
			"buffer":0,
			"byteLength":258,
			"byteOffset":222976,
			"target":34963
		},
		{
			"buffer":0,
			"byteLength":120,
			"byteOffset":223236,
			"target":34962
		},
		{
			"buffer":0,
			"byteLength":120,
			"byteOffset":223356,
			"target":34962
		},
		{
			"buffer":0,
			"byteLength":80,
			"byteOffset":223476,
			"target":34962
		},
		{
			"buffer":0,
			"byteLength":36,
			"byteOffset":223556,
			"target":34963
		},
		{
			"buffer":0,
			"byteLength":96,
			"byteOffset":223592,
			"target":34962
		},
		{
			"buffer":0,
			"byteLength":96,
			"byteOffset":223688,
			"target":34962
		},
		{
			"buffer":0,
			"byteLength":64,
			"byteOffset":223784,
			"target":34962
		},
		{
			"buffer":0,
			"byteLength":24,
			"byteOffset":223848,
			"target":34963
		},
		{
			"buffer":0,
			"byteLength":48,
			"byteOffset":223872,
			"target":34962
		},
		{
			"buffer":0,
			"byteLength":48,
			"byteOffset":223920,
			"target":34962
		},
		{
			"buffer":0,
			"byteLength":32,
			"byteOffset":223968,
			"target":34962
		},
		{
			"buffer":0,
			"byteLength":12,
			"byteOffset":224000,
			"target":34963
		},
		{
			"buffer":0,
			"byteLength":48,
			"byteOffset":224012,
			"target":34962
		},
		{
			"buffer":0,
			"byteLength":48,
			"byteOffset":224060,
			"target":34962
		},
		{
			"buffer":0,
			"byteLength":32,
			"byteOffset":224108,
			"target":34962
		},
		{
			"buffer":0,
			"byteLength":12,
			"byteOffset":224140,
			"target":34963
		}
	],
	"buffers":[
		{
			"byteLength":224152,
			"uri":"Xtra_Bastage_BT_tunnel.bin"
		}
	]
}
