{
	"asset":{
		"generator":"Khronos glTF Blender I/O v4.5.48",
		"version":"2.0"
	},
	"scene":0,
	"scenes":[
		{
			"name":"Scene",
			"nodes":[
				0
			]
		}
	],
	"nodes":[
		{
			"mesh":0,
			"name":"Object"
		}
	],
	"materials":[
		{
			"doubleSided":true,
			"name":"BD_EBOR04",
			"pbrMetallicRoughness":{
				"baseColorFactor":[
					0.800000011920929,
					0.800000011920929,
					0.800000011920929,
					1
				],
				"metallicFactor":0,
				"roughnessFactor":0.5
			}
		},
		{
			"doubleSided":true,
			"name":"BD_1WAL03C",
			"pbrMetallicRoughness":{
				"baseColorFactor":[
					0.800000011920929,
					0.800000011920929,
					0.800000011920929,
					1
				],
				"metallicFactor":0,
				"roughnessFactor":0.5
			}
		},
		{
			"doubleSided":true,
			"name":"BD_EWAL03C",
			"pbrMetallicRoughness":{
				"baseColorFactor":[
					0.800000011920929,
					0.800000011920929,
					0.800000011920929,
					1
				],
				"metallicFactor":0,
				"roughnessFactor":0.5
			}
		},
		{
			"doubleSided":true,
			"name":"BD_IWAL16",
			"pbrMetallicRoughness":{
				"baseColorFactor":[
					0.800000011920929,
					0.800000011920929,
					0.800000011920929,
					1
				],
				"metallicFactor":0,
				"roughnessFactor":0.5
			}
		},
		{
			"doubleSided":true,
			"name":"BD_IFLO01",
			"pbrMetallicRoughness":{
				"baseColorFactor":[
					0.800000011920929,
					0.800000011920929,
					0.800000011920929,
					1
				],
				"metallicFactor":0,
				"roughnessFactor":0.5
			}
		},
		{
			"doubleSided":true,
			"name":"BD_ICEI01",
			"pbrMetallicRoughness":{
				"baseColorFactor":[
					0.800000011920929,
					0.800000011920929,
					0.800000011920929,
					1
				],
				"metallicFactor":0,
				"roughnessFactor":0.5
			}
		},
		{
			"doubleSided":true,
			"name":"BD_EBOR02",
			"pbrMetallicRoughness":{
				"baseColorFactor":[
					0.800000011920929,
					0.800000011920929,
					0.800000011920929,
					1
				],
				"metallicFactor":0,
				"roughnessFactor":0.5
			}
		},
		{
			"doubleSided":true,
			"name":"BD_EFLO01",
			"pbrMetallicRoughness":{
				"baseColorFactor":[
					0.800000011920929,
					0.800000011920929,
					0.800000011920929,
					1
				],
				"metallicFactor":0,
				"roughnessFactor":0.5
			}
		},
		{
			"doubleSided":true,
			"name":"BD_ICEILIG03",
			"pbrMetallicRoughness":{
				"baseColorFactor":[
					0.800000011920929,
					0.800000011920929,
					0.800000011920929,
					1
				],
				"metallicFactor":0,
				"roughnessFactor":0.5
			}
		},
		{
			"doubleSided":true,
			"name":"BD_IBOR04",
			"pbrMetallicRoughness":{
				"baseColorFactor":[
					0.800000011920929,
					0.800000011920929,
					0.800000011920929,
					1
				],
				"metallicFactor":0,
				"roughnessFactor":0.5
			}
		},
		{
			"doubleSided":true,
			"name":"BD_IBOR05",
			"pbrMetallicRoughness":{
				"baseColorFactor":[
					0.800000011920929,
					0.800000011920929,
					0.800000011920929,
					1
				],
				"metallicFactor":0,
				"roughnessFactor":0.5
			}
		}
	],
	"meshes":[
		{
			"name":"Mesh",
			"primitives":[
				{
					"attributes":{
						"POSITION":0,
						"NORMAL":1,
						"TEXCOORD_0":2
					},
					"indices":3,
					"material":0
				},
				{
					"attributes":{
						"POSITION":4,
						"NORMAL":5,
						"TEXCOORD_0":6
					},
					"indices":7,
					"material":1
				},
				{
					"attributes":{
						"POSITION":8,
						"NORMAL":9,
						"TEXCOORD_0":10
					},
					"indices":11,
					"material":2
				},
				{
					"attributes":{
						"POSITION":12,
						"NORMAL":13,
						"TEXCOORD_0":14
					},
					"indices":15,
					"material":3
				},
				{
					"attributes":{
						"POSITION":16,
						"NORMAL":17,
						"TEXCOORD_0":18
					},
					"indices":19,
					"material":4
				},
				{
					"attributes":{
						"POSITION":20,
						"NORMAL":21,
						"TEXCOORD_0":22
					},
					"indices":23,
					"material":5
				},
				{
					"attributes":{
						"POSITION":24,
						"NORMAL":25,
						"TEXCOORD_0":26
					},
					"indices":27,
					"material":6
				},
				{
					"attributes":{
						"POSITION":28,
						"NORMAL":29,
						"TEXCOORD_0":30
					},
					"indices":31,
					"material":7
				},
				{
					"attributes":{
						"POSITION":32,
						"NORMAL":33,
						"TEXCOORD_0":34
					},
					"indices":35,
					"material":8
				},
				{
					"attributes":{
						"POSITION":36,
						"NORMAL":37,
						"TEXCOORD_0":38
					},
					"indices":39,
					"material":9
				},
				{
					"attributes":{
						"POSITION":40,
						"NORMAL":41,
						"TEXCOORD_0":42
					},
					"indices":43,
					"material":10
				}
			]
		}
	],
	"accessors":[
		{
			"bufferView":0,
			"componentType":5126,
			"count":177,
			"max":[
				10,
				2.375,
				-2
			],
			"min":[
				2,
				-3.625,
				-10
			],
			"type":"VEC3"
		},
		{
			"bufferView":1,
			"componentType":5126,
			"count":177,
			"type":"VEC3"
		},
		{
			"bufferView":2,
			"componentType":5126,
			"count":177,
			"type":"VEC2"
		},
		{
			"bufferView":3,
			"componentType":5123,
			"count":450,
			"type":"SCALAR"
		},
		{
			"bufferView":4,
			"componentType":5126,
			"count":74,
			"max":[
				10.84375,
				2.375,
				-1.5
			],
			"min":[
				1.75,
				-25.21875,
				-10.3125
			],
			"type":"VEC3"
		},
		{
			"bufferView":5,
			"componentType":5126,
			"count":74,
			"type":"VEC3"
		},
		{
			"bufferView":6,
			"componentType":5126,
			"count":74,
			"type":"VEC2"
		},
		{
			"bufferView":7,
			"componentType":5123,
			"count":162,
			"type":"SCALAR"
		},
		{
			"bufferView":8,
			"componentType":5126,
			"count":1536,
			"max":[
				10.25,
				2.375,
				-1.65625
			],
			"min":[
				1.78125,
				-25.4375,
				-10.28125
			],
			"type":"VEC3"
		},
		{
			"bufferView":9,
			"componentType":5126,
			"count":1536,
			"type":"VEC3"
		},
		{
			"bufferView":10,
			"componentType":5126,
			"count":1536,
			"type":"VEC2"
		},
		{
			"bufferView":11,
			"componentType":5123,
			"count":3036,
			"type":"SCALAR"
		},
		{
			"bufferView":12,
			"componentType":5126,
			"count":12,
			"max":[
				5.5,
				1.625,
				-3.5
			],
			"min":[
				4.75,
				-3.625,
				-8.5
			],
			"type":"VEC3"
		},
		{
			"bufferView":13,
			"componentType":5126,
			"count":12,
			"type":"VEC3"
		},
		{
			"bufferView":14,
			"componentType":5126,
			"count":12,
			"type":"VEC2"
		},
		{
			"bufferView":15,
			"componentType":5123,
			"count":30,
			"type":"SCALAR"
		},
		{
			"bufferView":16,
			"componentType":5126,
			"count":271,
			"max":[
				10.84375,
				-3.625,
				-1.5
			],
			"min":[
				1.75,
				-4.75,
				-10.3125
			],
			"type":"VEC3"
		},
		{
			"bufferView":17,
			"componentType":5126,
			"count":271,
			"type":"VEC3"
		},
		{
			"bufferView":18,
			"componentType":5126,
			"count":271,
			"type":"VEC2"
		},
		{
			"bufferView":19,
			"componentType":5123,
			"count":561,
			"type":"SCALAR"
		},
		{
			"bufferView":20,
			"componentType":5126,
			"count":572,
			"max":[
				10.84375,
				-3.625,
				-1.5
			],
			"min":[
				1.75,
				-25.21875,
				-10.3125
			],
			"type":"VEC3"
		},
		{
			"bufferView":21,
			"componentType":5126,
			"count":572,
			"type":"VEC3"
		},
		{
			"bufferView":22,
			"componentType":5126,
			"count":572,
			"type":"VEC2"
		},
		{
			"bufferView":23,
			"componentType":5123,
			"count":1596,
			"type":"SCALAR"
		},
		{
			"bufferView":24,
			"componentType":5126,
			"count":6,
			"max":[
				9.25,
				-0.625,
				-3.5
			],
			"min":[
				9,
				-0.625,
				-7
			],
			"type":"VEC3"
		},
		{
			"bufferView":25,
			"componentType":5126,
			"count":6,
			"type":"VEC3"
		},
		{
			"bufferView":26,
			"componentType":5126,
			"count":6,
			"type":"VEC2"
		},
		{
			"bufferView":27,
			"componentType":5123,
			"count":12,
			"type":"SCALAR"
		},
		{
			"bufferView":28,
			"componentType":5126,
			"count":19,
			"max":[
				9,
				2.375,
				-3.5
			],
			"min":[
				8.25,
				-0.625,
				-8.5
			],
			"type":"VEC3"
		},
		{
			"bufferView":29,
			"componentType":5126,
			"count":19,
			"type":"VEC3"
		},
		{
			"bufferView":30,
			"componentType":5126,
			"count":19,
			"type":"VEC2"
		},
		{
			"bufferView":31,
			"componentType":5123,
			"count":57,
			"type":"SCALAR"
		},
		{
			"bufferView":32,
			"componentType":5126,
			"count":10,
			"max":[
				8.4375,
				1.625,
				-3.75
			],
			"min":[
				3.75,
				1.625,
				-8.25
			],
			"type":"VEC3"
		},
		{
			"bufferView":33,
			"componentType":5126,
			"count":10,
			"type":"VEC3"
		},
		{
			"bufferView":34,
			"componentType":5126,
			"count":10,
			"type":"VEC2"
		},
		{
			"bufferView":35,
			"componentType":5123,
			"count":30,
			"type":"SCALAR"
		},
		{
			"bufferView":36,
			"componentType":5126,
			"count":576,
			"max":[
				10.125,
				-7.4375,
				-2.1875
			],
			"min":[
				2.46875,
				-22.8125,
				-9.625
			],
			"type":"VEC3"
		},
		{
			"bufferView":37,
			"componentType":5126,
			"count":576,
			"type":"VEC3"
		},
		{
			"bufferView":38,
			"componentType":5126,
			"count":576,
			"type":"VEC2"
		},
		{
			"bufferView":39,
			"componentType":5123,
			"count":1440,
			"type":"SCALAR"
		},
		{
			"bufferView":40,
			"componentType":5126,
			"count":96,
			"max":[
				10.125,
				-7.4375,
				-2.1875
			],
			"min":[
				2.46875,
				-22.8125,
				-9.625
			],
			"type":"VEC3"
		},
		{
			"bufferView":41,
			"componentType":5126,
			"count":96,
			"type":"VEC3"
		},
		{
			"bufferView":42,
			"componentType":5126,
			"count":96,
			"type":"VEC2"
		},
		{
			"bufferView":43,
			"componentType":5123,
			"count":144,
			"type":"SCALAR"
		}
	],
	"bufferViews":[
		{
			"buffer":0,
			"byteLength":2124,
			"byteOffset":0,
			"target":34962
		},
		{
			"buffer":0,
			"byteLength":2124,
			"byteOffset":2124,
			"target":34962
		},
		{
			"buffer":0,
			"byteLength":1416,
			"byteOffset":4248,
			"target":34962
		},
		{
			"buffer":0,
			"byteLength":900,
			"byteOffset":5664,
			"target":34963
		},
		{
			"buffer":0,
			"byteLength":888,
			"byteOffset":6564,
			"target":34962
		},
		{
			"buffer":0,
			"byteLength":888,
			"byteOffset":7452,
			"target":34962
		},
		{
			"buffer":0,
			"byteLength":592,
			"byteOffset":8340,
			"target":34962
		},
		{
			"buffer":0,
			"byteLength":324,
			"byteOffset":8932,
			"target":34963
		},
		{
			"buffer":0,
			"byteLength":18432,
			"byteOffset":9256,
			"target":34962
		},
		{
			"buffer":0,
			"byteLength":18432,
			"byteOffset":27688,
			"target":34962
		},
		{
			"buffer":0,
			"byteLength":12288,
			"byteOffset":46120,
			"target":34962
		},
		{
			"buffer":0,
			"byteLength":6072,
			"byteOffset":58408,
			"target":34963
		},
		{
			"buffer":0,
			"byteLength":144,
			"byteOffset":64480,
			"target":34962
		},
		{
			"buffer":0,
			"byteLength":144,
			"byteOffset":64624,
			"target":34962
		},
		{
			"buffer":0,
			"byteLength":96,
			"byteOffset":64768,
			"target":34962
		},
		{
			"buffer":0,
			"byteLength":60,
			"byteOffset":64864,
			"target":34963
		},
		{
			"buffer":0,
			"byteLength":3252,
			"byteOffset":64924,
			"target":34962
		},
		{
			"buffer":0,
			"byteLength":3252,
			"byteOffset":68176,
			"target":34962
		},
		{
			"buffer":0,
			"byteLength":2168,
			"byteOffset":71428,
			"target":34962
		},
		{
			"buffer":0,
			"byteLength":1122,
			"byteOffset":73596,
			"target":34963
		},
		{
			"buffer":0,
			"byteLength":6864,
			"byteOffset":74720,
			"target":34962
		},
		{
			"buffer":0,
			"byteLength":6864,
			"byteOffset":81584,
			"target":34962
		},
		{
			"buffer":0,
			"byteLength":4576,
			"byteOffset":88448,
			"target":34962
		},
		{
			"buffer":0,
			"byteLength":3192,
			"byteOffset":93024,
			"target":34963
		},
		{
			"buffer":0,
			"byteLength":72,
			"byteOffset":96216,
			"target":34962
		},
		{
			"buffer":0,
			"byteLength":72,
			"byteOffset":96288,
			"target":34962
		},
		{
			"buffer":0,
			"byteLength":48,
			"byteOffset":96360,
			"target":34962
		},
		{
			"buffer":0,
			"byteLength":24,
			"byteOffset":96408,
			"target":34963
		},
		{
			"buffer":0,
			"byteLength":228,
			"byteOffset":96432,
			"target":34962
		},
		{
			"buffer":0,
			"byteLength":228,
			"byteOffset":96660,
			"target":34962
		},
		{
			"buffer":0,
			"byteLength":152,
			"byteOffset":96888,
			"target":34962
		},
		{
			"buffer":0,
			"byteLength":114,
			"byteOffset":97040,
			"target":34963
		},
		{
			"buffer":0,
			"byteLength":120,
			"byteOffset":97156,
			"target":34962
		},
		{
			"buffer":0,
			"byteLength":120,
			"byteOffset":97276,
			"target":34962
		},
		{
			"buffer":0,
			"byteLength":80,
			"byteOffset":97396,
			"target":34962
		},
		{
			"buffer":0,
			"byteLength":60,
			"byteOffset":97476,
			"target":34963
		},
		{
			"buffer":0,
			"byteLength":6912,
			"byteOffset":97536,
			"target":34962
		},
		{
			"buffer":0,
			"byteLength":6912,
			"byteOffset":104448,
			"target":34962
		},
		{
			"buffer":0,
			"byteLength":4608,
			"byteOffset":111360,
			"target":34962
		},
		{
			"buffer":0,
			"byteLength":2880,
			"byteOffset":115968,
			"target":34963
		},
		{
			"buffer":0,
			"byteLength":1152,
			"byteOffset":118848,
			"target":34962
		},
		{
			"buffer":0,
			"byteLength":1152,
			"byteOffset":120000,
			"target":34962
		},
		{
			"buffer":0,
			"byteLength":768,
			"byteOffset":121152,
			"target":34962
		},
		{
			"buffer":0,
			"byteLength":288,
			"byteOffset":121920,
			"target":34963
		}
	],
	"buffers":[
		{
			"byteLength":122208,
			"uri":"Xtra_Bastage_BT_bunktower.bin"
		}
	]
}
