{
	"asset":{
		"generator":"Khronos glTF Blender I/O v4.5.48",
		"version":"2.0"
	},
	"scene":0,
	"scenes":[
		{
			"name":"Scene",
			"nodes":[
				0
			]
		}
	],
	"nodes":[
		{
			"mesh":0,
			"name":"Object"
		}
	],
	"materials":[
		{
			"doubleSided":true,
			"name":"DS_ALARM",
			"pbrMetallicRoughness":{
				"baseColorFactor":[
					0.800000011920929,
					0.800000011920929,
					0.800000011920929,
					1
				],
				"metallicFactor":0,
				"roughnessFactor":0.5
			}
		},
		{
			"doubleSided":true,
			"name":"DS_GENWALL",
			"pbrMetallicRoughness":{
				"baseColorFactor":[
					0.800000011920929,
					0.800000011920929,
					0.800000011920929,
					1
				],
				"metallicFactor":0,
				"roughnessFactor":0.5
			}
		},
		{
			"doubleSided":true,
			"name":"DS_TECHWALL_2",
			"pbrMetallicRoughness":{
				"baseColorFactor":[
					0.800000011920929,
					0.800000011920929,
					0.800000011920929,
					1
				],
				"metallicFactor":0,
				"roughnessFactor":0.5
			}
		},
		{
			"doubleSided":true,
			"name":"DS_ETECHBRDR2",
			"pbrMetallicRoughness":{
				"baseColorFactor":[
					0.800000011920929,
					0.800000011920929,
					0.800000011920929,
					1
				],
				"metallicFactor":0,
				"roughnessFactor":0.5
			}
		},
		{
			"doubleSided":true,
			"name":"DS_TECHWALL_3",
			"pbrMetallicRoughness":{
				"baseColorFactor":[
					0.800000011920929,
					0.800000011920929,
					0.800000011920929,
					1
				],
				"metallicFactor":0,
				"roughnessFactor":0.5
			}
		},
		{
			"doubleSided":true,
			"name":"DS_IHACEI01",
			"pbrMetallicRoughness":{
				"baseColorFactor":[
					0.800000011920929,
					0.800000011920929,
					0.800000011920929,
					1
				],
				"metallicFactor":0,
				"roughnessFactor":0.5
			}
		},
		{
			"doubleSided":true,
			"name":"DS_ILIG02",
			"pbrMetallicRoughness":{
				"baseColorFactor":[
					0.800000011920929,
					0.800000011920929,
					0.800000011920929,
					1
				],
				"metallicFactor":0,
				"roughnessFactor":0.5
			}
		},
		{
			"doubleSided":true,
			"name":"DS_WALLDECO_08",
			"pbrMetallicRoughness":{
				"baseColorFactor":[
					0.800000011920929,
					0.800000011920929,
					0.800000011920929,
					1
				],
				"metallicFactor":0,
				"roughnessFactor":0.5
			}
		},
		{
			"doubleSided":true,
			"name":"DS_ETECHBOR01",
			"pbrMetallicRoughness":{
				"baseColorFactor":[
					0.800000011920929,
					0.800000011920929,
					0.800000011920929,
					1
				],
				"metallicFactor":0,
				"roughnessFactor":0.5
			}
		},
		{
			"doubleSided":true,
			"name":"DS_ILIG06",
			"pbrMetallicRoughness":{
				"baseColorFactor":[
					0.800000011920929,
					0.800000011920929,
					0.800000011920929,
					1
				],
				"metallicFactor":0,
				"roughnessFactor":0.5
			}
		},
		{
			"doubleSided":true,
			"name":"DS_EFLOOR1",
			"pbrMetallicRoughness":{
				"baseColorFactor":[
					0.800000011920929,
					0.800000011920929,
					0.800000011920929,
					1
				],
				"metallicFactor":0,
				"roughnessFactor":0.5
			}
		},
		{
			"doubleSided":true,
			"name":"DS_TECHWALL_1",
			"pbrMetallicRoughness":{
				"baseColorFactor":[
					0.800000011920929,
					0.800000011920929,
					0.800000011920929,
					1
				],
				"metallicFactor":0,
				"roughnessFactor":0.5
			}
		}
	],
	"meshes":[
		{
			"name":"Mesh",
			"primitives":[
				{
					"attributes":{
						"POSITION":0,
						"NORMAL":1,
						"TEXCOORD_0":2
					},
					"indices":3,
					"material":0
				},
				{
					"attributes":{
						"POSITION":4,
						"NORMAL":5,
						"TEXCOORD_0":6
					},
					"indices":7,
					"material":1
				},
				{
					"attributes":{
						"POSITION":8,
						"NORMAL":9,
						"TEXCOORD_0":10
					},
					"indices":11,
					"material":2
				},
				{
					"attributes":{
						"POSITION":12,
						"NORMAL":13,
						"TEXCOORD_0":14
					},
					"indices":15,
					"material":3
				},
				{
					"attributes":{
						"POSITION":16,
						"NORMAL":17,
						"TEXCOORD_0":18
					},
					"indices":19,
					"material":4
				},
				{
					"attributes":{
						"POSITION":20,
						"NORMAL":21,
						"TEXCOORD_0":22
					},
					"indices":23,
					"material":5
				},
				{
					"attributes":{
						"POSITION":24,
						"NORMAL":25,
						"TEXCOORD_0":26
					},
					"indices":27,
					"material":6
				},
				{
					"attributes":{
						"POSITION":28,
						"NORMAL":29,
						"TEXCOORD_0":30
					},
					"indices":31,
					"material":7
				},
				{
					"attributes":{
						"POSITION":32,
						"NORMAL":33,
						"TEXCOORD_0":34
					},
					"indices":35,
					"material":8
				},
				{
					"attributes":{
						"POSITION":36,
						"NORMAL":37,
						"TEXCOORD_0":38
					},
					"indices":39,
					"material":9
				},
				{
					"attributes":{
						"POSITION":40,
						"NORMAL":41,
						"TEXCOORD_0":42
					},
					"indices":43,
					"material":10
				},
				{
					"attributes":{
						"POSITION":44,
						"NORMAL":45,
						"TEXCOORD_0":46
					},
					"indices":47,
					"material":11
				}
			]
		}
	],
	"accessors":[
		{
			"bufferView":0,
			"componentType":5126,
			"count":40,
			"max":[
				24.95815658569336,
				-48,
				46.5
			],
			"min":[
				-18.95815658569336,
				-68,
				-5.5
			],
			"type":"VEC3"
		},
		{
			"bufferView":1,
			"componentType":5126,
			"count":40,
			"type":"VEC3"
		},
		{
			"bufferView":2,
			"componentType":5126,
			"count":40,
			"type":"VEC2"
		},
		{
			"bufferView":3,
			"componentType":5123,
			"count":87,
			"type":"SCALAR"
		},
		{
			"bufferView":4,
			"componentType":5126,
			"count":471,
			"max":[
				28,
				-16,
				60.5
			],
			"min":[
				-22,
				-100,
				-62
			],
			"type":"VEC3"
		},
		{
			"bufferView":5,
			"componentType":5126,
			"count":471,
			"type":"VEC3"
		},
		{
			"bufferView":6,
			"componentType":5126,
			"count":471,
			"type":"VEC2"
		},
		{
			"bufferView":7,
			"componentType":5123,
			"count":1275,
			"type":"SCALAR"
		},
		{
			"bufferView":8,
			"componentType":5126,
			"count":377,
			"max":[
				26.53125,
				-20,
				58.5
			],
			"min":[
				-20.53125,
				-100,
				-40.5
			],
			"type":"VEC3"
		},
		{
			"bufferView":9,
			"componentType":5126,
			"count":377,
			"type":"VEC3"
		},
		{
			"bufferView":10,
			"componentType":5126,
			"count":377,
			"type":"VEC2"
		},
		{
			"bufferView":11,
			"componentType":5123,
			"count":867,
			"type":"SCALAR"
		},
		{
			"bufferView":12,
			"componentType":5126,
			"count":182,
			"max":[
				28,
				-16,
				60.5
			],
			"min":[
				-22,
				-72,
				-62
			],
			"type":"VEC3"
		},
		{
			"bufferView":13,
			"componentType":5126,
			"count":182,
			"type":"VEC3"
		},
		{
			"bufferView":14,
			"componentType":5126,
			"count":182,
			"type":"VEC2"
		},
		{
			"bufferView":15,
			"componentType":5123,
			"count":336,
			"type":"SCALAR"
		},
		{
			"bufferView":16,
			"componentType":5126,
			"count":348,
			"max":[
				24.95833396911621,
				-21,
				46.5
			],
			"min":[
				-18.95833396911621,
				-68,
				-60
			],
			"type":"VEC3"
		},
		{
			"bufferView":17,
			"componentType":5126,
			"count":348,
			"type":"VEC3"
		},
		{
			"bufferView":18,
			"componentType":5126,
			"count":348,
			"type":"VEC2"
		},
		{
			"bufferView":19,
			"componentType":5123,
			"count":759,
			"type":"SCALAR"
		},
		{
			"bufferView":20,
			"componentType":5126,
			"count":44,
			"max":[
				13.09375,
				-56,
				50.5
			],
			"min":[
				-7,
				-68,
				-9.5
			],
			"type":"VEC3"
		},
		{
			"bufferView":21,
			"componentType":5126,
			"count":44,
			"type":"VEC3"
		},
		{
			"bufferView":22,
			"componentType":5126,
			"count":44,
			"type":"VEC2"
		},
		{
			"bufferView":23,
			"componentType":5123,
			"count":78,
			"type":"SCALAR"
		},
		{
			"bufferView":24,
			"componentType":5126,
			"count":80,
			"max":[
				23.375,
				-54,
				59.5
			],
			"min":[
				-15,
				-100,
				-61
			],
			"type":"VEC3"
		},
		{
			"bufferView":25,
			"componentType":5126,
			"count":80,
			"type":"VEC3"
		},
		{
			"bufferView":26,
			"componentType":5126,
			"count":80,
			"type":"VEC2"
		},
		{
			"bufferView":27,
			"componentType":5123,
			"count":120,
			"type":"SCALAR"
		},
		{
			"bufferView":28,
			"componentType":5126,
			"count":74,
			"max":[
				9.125,
				-24.25,
				-9.5
			],
			"min":[
				-3.0625,
				-39.71875,
				-9.90625
			],
			"type":"VEC3"
		},
		{
			"bufferView":29,
			"componentType":5126,
			"count":74,
			"type":"VEC3"
		},
		{
			"bufferView":30,
			"componentType":5126,
			"count":74,
			"type":"VEC2"
		},
		{
			"bufferView":31,
			"componentType":5123,
			"count":258,
			"type":"SCALAR"
		},
		{
			"bufferView":32,
			"componentType":5126,
			"count":212,
			"max":[
				9.125,
				-24.25,
				-9.5
			],
			"min":[
				-3.0625,
				-39.71875,
				-9.90625
			],
			"type":"VEC3"
		},
		{
			"bufferView":33,
			"componentType":5126,
			"count":212,
			"type":"VEC3"
		},
		{
			"bufferView":34,
			"componentType":5126,
			"count":212,
			"type":"VEC2"
		},
		{
			"bufferView":35,
			"componentType":5123,
			"count":318,
			"type":"SCALAR"
		},
		{
			"bufferView":36,
			"componentType":5126,
			"count":4,
			"max":[
				6.5,
				-55,
				56
			],
			"min":[
				-0.5,
				-55.75,
				50.5
			],
			"type":"VEC3"
		},
		{
			"bufferView":37,
			"componentType":5126,
			"count":4,
			"type":"VEC3"
		},
		{
			"bufferView":38,
			"componentType":5126,
			"count":4,
			"type":"VEC2"
		},
		{
			"bufferView":39,
			"componentType":5123,
			"count":6,
			"type":"SCALAR"
		},
		{
			"bufferView":40,
			"componentType":5126,
			"count":42,
			"max":[
				24.95833396911621,
				-51,
				46.5
			],
			"min":[
				-18.95833396911621,
				-68,
				-5.5
			],
			"type":"VEC3"
		},
		{
			"bufferView":41,
			"componentType":5126,
			"count":42,
			"type":"VEC3"
		},
		{
			"bufferView":42,
			"componentType":5126,
			"count":42,
			"type":"VEC2"
		},
		{
			"bufferView":43,
			"componentType":5123,
			"count":102,
			"type":"SCALAR"
		},
		{
			"bufferView":44,
			"componentType":5126,
			"count":32,
			"max":[
				18,
				-59.75,
				-2
			],
			"min":[
				-12.5,
				-60,
				-6
			],
			"type":"VEC3"
		},
		{
			"bufferView":45,
			"componentType":5126,
			"count":32,
			"type":"VEC3"
		},
		{
			"bufferView":46,
			"componentType":5126,
			"count":32,
			"type":"VEC2"
		},
		{
			"bufferView":47,
			"componentType":5123,
			"count":54,
			"type":"SCALAR"
		}
	],
	"bufferViews":[
		{
			"buffer":0,
			"byteLength":480,
			"byteOffset":0,
			"target":34962
		},
		{
			"buffer":0,
			"byteLength":480,
			"byteOffset":480,
			"target":34962
		},
		{
			"buffer":0,
			"byteLength":320,
			"byteOffset":960,
			"target":34962
		},
		{
			"buffer":0,
			"byteLength":174,
			"byteOffset":1280,
			"target":34963
		},
		{
			"buffer":0,
			"byteLength":5652,
			"byteOffset":1456,
			"target":34962
		},
		{
			"buffer":0,
			"byteLength":5652,
			"byteOffset":7108,
			"target":34962
		},
		{
			"buffer":0,
			"byteLength":3768,
			"byteOffset":12760,
			"target":34962
		},
		{
			"buffer":0,
			"byteLength":2550,
			"byteOffset":16528,
			"target":34963
		},
		{
			"buffer":0,
			"byteLength":4524,
			"byteOffset":19080,
			"target":34962
		},
		{
			"buffer":0,
			"byteLength":4524,
			"byteOffset":23604,
			"target":34962
		},
		{
			"buffer":0,
			"byteLength":3016,
			"byteOffset":28128,
			"target":34962
		},
		{
			"buffer":0,
			"byteLength":1734,
			"byteOffset":31144,
			"target":34963
		},
		{
			"buffer":0,
			"byteLength":2184,
			"byteOffset":32880,
			"target":34962
		},
		{
			"buffer":0,
			"byteLength":2184,
			"byteOffset":35064,
			"target":34962
		},
		{
			"buffer":0,
			"byteLength":1456,
			"byteOffset":37248,
			"target":34962
		},
		{
			"buffer":0,
			"byteLength":672,
			"byteOffset":38704,
			"target":34963
		},
		{
			"buffer":0,
			"byteLength":4176,
			"byteOffset":39376,
			"target":34962
		},
		{
			"buffer":0,
			"byteLength":4176,
			"byteOffset":43552,
			"target":34962
		},
		{
			"buffer":0,
			"byteLength":2784,
			"byteOffset":47728,
			"target":34962
		},
		{
			"buffer":0,
			"byteLength":1518,
			"byteOffset":50512,
			"target":34963
		},
		{
			"buffer":0,
			"byteLength":528,
			"byteOffset":52032,
			"target":34962
		},
		{
			"buffer":0,
			"byteLength":528,
			"byteOffset":52560,
			"target":34962
		},
		{
			"buffer":0,
			"byteLength":352,
			"byteOffset":53088,
			"target":34962
		},
		{
			"buffer":0,
			"byteLength":156,
			"byteOffset":53440,
			"target":34963
		},
		{
			"buffer":0,
			"byteLength":960,
			"byteOffset":53596,
			"target":34962
		},
		{
			"buffer":0,
			"byteLength":960,
			"byteOffset":54556,
			"target":34962
		},
		{
			"buffer":0,
			"byteLength":640,
			"byteOffset":55516,
			"target":34962
		},
		{
			"buffer":0,
			"byteLength":240,
			"byteOffset":56156,
			"target":34963
		},
		{
			"buffer":0,
			"byteLength":888,
			"byteOffset":56396,
			"target":34962
		},
		{
			"buffer":0,
			"byteLength":888,
			"byteOffset":57284,
			"target":34962
		},
		{
			"buffer":0,
			"byteLength":592,
			"byteOffset":58172,
			"target":34962
		},
		{
			"buffer":0,
			"byteLength":516,
			"byteOffset":58764,
			"target":34963
		},
		{
			"buffer":0,
			"byteLength":2544,
			"byteOffset":59280,
			"target":34962
		},
		{
			"buffer":0,
			"byteLength":2544,
			"byteOffset":61824,
			"target":34962
		},
		{
			"buffer":0,
			"byteLength":1696,
			"byteOffset":64368,
			"target":34962
		},
		{
			"buffer":0,
			"byteLength":636,
			"byteOffset":66064,
			"target":34963
		},
		{
			"buffer":0,
			"byteLength":48,
			"byteOffset":66700,
			"target":34962
		},
		{
			"buffer":0,
			"byteLength":48,
			"byteOffset":66748,
			"target":34962
		},
		{
			"buffer":0,
			"byteLength":32,
			"byteOffset":66796,
			"target":34962
		},
		{
			"buffer":0,
			"byteLength":12,
			"byteOffset":66828,
			"target":34963
		},
		{
			"buffer":0,
			"byteLength":504,
			"byteOffset":66840,
			"target":34962
		},
		{
			"buffer":0,
			"byteLength":504,
			"byteOffset":67344,
			"target":34962
		},
		{
			"buffer":0,
			"byteLength":336,
			"byteOffset":67848,
			"target":34962
		},
		{
			"buffer":0,
			"byteLength":204,
			"byteOffset":68184,
			"target":34963
		},
		{
			"buffer":0,
			"byteLength":384,
			"byteOffset":68388,
			"target":34962
		},
		{
			"buffer":0,
			"byteLength":384,
			"byteOffset":68772,
			"target":34962
		},
		{
			"buffer":0,
			"byteLength":256,
			"byteOffset":69156,
			"target":34962
		},
		{
			"buffer":0,
			"byteLength":108,
			"byteOffset":69412,
			"target":34963
		}
	],
	"buffers":[
		{
			"byteLength":69520,
			"uri":"Xtra_AF_newbase.bin"
		}
	]
}
