{
	"asset":{
		"generator":"Khronos glTF Blender I/O v4.5.48",
		"version":"2.0"
	},
	"scene":0,
	"scenes":[
		{
			"name":"Scene",
			"nodes":[
				0
			]
		}
	],
	"nodes":[
		{
			"mesh":0,
			"name":"Object"
		}
	],
	"materials":[
		{
			"doubleSided":true,
			"name":"CP_EWAL01",
			"pbrMetallicRoughness":{
				"baseColorFactor":[
					0.800000011920929,
					0.800000011920929,
					0.800000011920929,
					1
				],
				"metallicFactor":0,
				"roughnessFactor":0.5
			}
		},
		{
			"doubleSided":true,
			"name":"CP_EWAL01B",
			"pbrMetallicRoughness":{
				"baseColorFactor":[
					0.800000011920929,
					0.800000011920929,
					0.800000011920929,
					1
				],
				"metallicFactor":0,
				"roughnessFactor":0.5
			}
		},
		{
			"doubleSided":true,
			"name":"CP_ETEC01",
			"pbrMetallicRoughness":{
				"baseColorFactor":[
					0.800000011920929,
					0.800000011920929,
					0.800000011920929,
					1
				],
				"metallicFactor":0,
				"roughnessFactor":0.5
			}
		},
		{
			"doubleSided":true,
			"name":"CP_ITECWAL01",
			"pbrMetallicRoughness":{
				"baseColorFactor":[
					0.800000011920929,
					0.800000011920929,
					0.800000011920929,
					1
				],
				"metallicFactor":0,
				"roughnessFactor":0.5
			}
		},
		{
			"doubleSided":true,
			"name":"CP_IBOR01A",
			"pbrMetallicRoughness":{
				"baseColorFactor":[
					0.800000011920929,
					0.800000011920929,
					0.800000011920929,
					1
				],
				"metallicFactor":0,
				"roughnessFactor":0.5
			}
		},
		{
			"doubleSided":true,
			"name":"CP_ESPEC01",
			"pbrMetallicRoughness":{
				"baseColorFactor":[
					0.800000011920929,
					0.800000011920929,
					0.800000011920929,
					1
				],
				"metallicFactor":0,
				"roughnessFactor":0.5
			}
		},
		{
			"doubleSided":true,
			"name":"CP_ESPEC02",
			"pbrMetallicRoughness":{
				"baseColorFactor":[
					0.800000011920929,
					0.800000011920929,
					0.800000011920929,
					1
				],
				"metallicFactor":0,
				"roughnessFactor":0.5
			}
		}
	],
	"meshes":[
		{
			"name":"Mesh",
			"primitives":[
				{
					"attributes":{
						"POSITION":0,
						"NORMAL":1,
						"TEXCOORD_0":2
					},
					"indices":3,
					"material":0
				},
				{
					"attributes":{
						"POSITION":4,
						"NORMAL":5,
						"TEXCOORD_0":6
					},
					"indices":7,
					"material":1
				},
				{
					"attributes":{
						"POSITION":8,
						"NORMAL":9,
						"TEXCOORD_0":10
					},
					"indices":11,
					"material":2
				},
				{
					"attributes":{
						"POSITION":12,
						"NORMAL":13,
						"TEXCOORD_0":14
					},
					"indices":15,
					"material":3
				},
				{
					"attributes":{
						"POSITION":16,
						"NORMAL":17,
						"TEXCOORD_0":18
					},
					"indices":19,
					"material":4
				},
				{
					"attributes":{
						"POSITION":20,
						"NORMAL":21,
						"TEXCOORD_0":22
					},
					"indices":23,
					"material":5
				},
				{
					"attributes":{
						"POSITION":24,
						"NORMAL":25,
						"TEXCOORD_0":26
					},
					"indices":27,
					"material":6
				}
			]
		}
	],
	"accessors":[
		{
			"bufferView":0,
			"componentType":5126,
			"count":176,
			"max":[
				9,
				41.5,
				-2
			],
			"min":[
				2,
				-8,
				-8.75
			],
			"type":"VEC3"
		},
		{
			"bufferView":1,
			"componentType":5126,
			"count":176,
			"type":"VEC3"
		},
		{
			"bufferView":2,
			"componentType":5126,
			"count":176,
			"type":"VEC2"
		},
		{
			"bufferView":3,
			"componentType":5123,
			"count":378,
			"type":"SCALAR"
		},
		{
			"bufferView":4,
			"componentType":5126,
			"count":56,
			"max":[
				9,
				-5.25,
				-2
			],
			"min":[
				2,
				-8,
				-8.75
			],
			"type":"VEC3"
		},
		{
			"bufferView":5,
			"componentType":5126,
			"count":56,
			"type":"VEC3"
		},
		{
			"bufferView":6,
			"componentType":5126,
			"count":56,
			"type":"VEC2"
		},
		{
			"bufferView":7,
			"componentType":5123,
			"count":72,
			"type":"SCALAR"
		},
		{
			"bufferView":8,
			"componentType":5126,
			"count":8,
			"max":[
				7.375,
				-5.25,
				-2.5
			],
			"min":[
				3.625,
				-8,
				-8.5
			],
			"type":"VEC3"
		},
		{
			"bufferView":9,
			"componentType":5126,
			"count":8,
			"type":"VEC3"
		},
		{
			"bufferView":10,
			"componentType":5126,
			"count":8,
			"type":"VEC2"
		},
		{
			"bufferView":11,
			"componentType":5123,
			"count":12,
			"type":"SCALAR"
		},
		{
			"bufferView":12,
			"componentType":5126,
			"count":4,
			"max":[
				7.375,
				-5.6875,
				-3.625
			],
			"min":[
				3.625,
				-5.6875,
				-7.40625
			],
			"type":"VEC3"
		},
		{
			"bufferView":13,
			"componentType":5126,
			"count":4,
			"type":"VEC3"
		},
		{
			"bufferView":14,
			"componentType":5126,
			"count":4,
			"type":"VEC2"
		},
		{
			"bufferView":15,
			"componentType":5123,
			"count":6,
			"type":"SCALAR"
		},
		{
			"bufferView":16,
			"componentType":5126,
			"count":16,
			"max":[
				7.375,
				-5.25,
				-3.625
			],
			"min":[
				3.625,
				-5.6875,
				-7.40625
			],
			"type":"VEC3"
		},
		{
			"bufferView":17,
			"componentType":5126,
			"count":16,
			"type":"VEC3"
		},
		{
			"bufferView":18,
			"componentType":5126,
			"count":16,
			"type":"VEC2"
		},
		{
			"bufferView":19,
			"componentType":5123,
			"count":24,
			"type":"SCALAR"
		},
		{
			"bufferView":20,
			"componentType":5126,
			"count":8,
			"max":[
				8.625,
				-5.25,
				-3.625
			],
			"min":[
				2.625,
				-8,
				-7.40625
			],
			"type":"VEC3"
		},
		{
			"bufferView":21,
			"componentType":5126,
			"count":8,
			"type":"VEC3"
		},
		{
			"bufferView":22,
			"componentType":5126,
			"count":8,
			"type":"VEC2"
		},
		{
			"bufferView":23,
			"componentType":5123,
			"count":12,
			"type":"SCALAR"
		},
		{
			"bufferView":24,
			"componentType":5126,
			"count":16,
			"max":[
				7.5,
				39.46875,
				-3.5
			],
			"min":[
				3.5,
				4.125,
				-7.5
			],
			"type":"VEC3"
		},
		{
			"bufferView":25,
			"componentType":5126,
			"count":16,
			"type":"VEC3"
		},
		{
			"bufferView":26,
			"componentType":5126,
			"count":16,
			"type":"VEC2"
		},
		{
			"bufferView":27,
			"componentType":5123,
			"count":24,
			"type":"SCALAR"
		}
	],
	"bufferViews":[
		{
			"buffer":0,
			"byteLength":2112,
			"byteOffset":0,
			"target":34962
		},
		{
			"buffer":0,
			"byteLength":2112,
			"byteOffset":2112,
			"target":34962
		},
		{
			"buffer":0,
			"byteLength":1408,
			"byteOffset":4224,
			"target":34962
		},
		{
			"buffer":0,
			"byteLength":756,
			"byteOffset":5632,
			"target":34963
		},
		{
			"buffer":0,
			"byteLength":672,
			"byteOffset":6388,
			"target":34962
		},
		{
			"buffer":0,
			"byteLength":672,
			"byteOffset":7060,
			"target":34962
		},
		{
			"buffer":0,
			"byteLength":448,
			"byteOffset":7732,
			"target":34962
		},
		{
			"buffer":0,
			"byteLength":144,
			"byteOffset":8180,
			"target":34963
		},
		{
			"buffer":0,
			"byteLength":96,
			"byteOffset":8324,
			"target":34962
		},
		{
			"buffer":0,
			"byteLength":96,
			"byteOffset":8420,
			"target":34962
		},
		{
			"buffer":0,
			"byteLength":64,
			"byteOffset":8516,
			"target":34962
		},
		{
			"buffer":0,
			"byteLength":24,
			"byteOffset":8580,
			"target":34963
		},
		{
			"buffer":0,
			"byteLength":48,
			"byteOffset":8604,
			"target":34962
		},
		{
			"buffer":0,
			"byteLength":48,
			"byteOffset":8652,
			"target":34962
		},
		{
			"buffer":0,
			"byteLength":32,
			"byteOffset":8700,
			"target":34962
		},
		{
			"buffer":0,
			"byteLength":12,
			"byteOffset":8732,
			"target":34963
		},
		{
			"buffer":0,
			"byteLength":192,
			"byteOffset":8744,
			"target":34962
		},
		{
			"buffer":0,
			"byteLength":192,
			"byteOffset":8936,
			"target":34962
		},
		{
			"buffer":0,
			"byteLength":128,
			"byteOffset":9128,
			"target":34962
		},
		{
			"buffer":0,
			"byteLength":48,
			"byteOffset":9256,
			"target":34963
		},
		{
			"buffer":0,
			"byteLength":96,
			"byteOffset":9304,
			"target":34962
		},
		{
			"buffer":0,
			"byteLength":96,
			"byteOffset":9400,
			"target":34962
		},
		{
			"buffer":0,
			"byteLength":64,
			"byteOffset":9496,
			"target":34962
		},
		{
			"buffer":0,
			"byteLength":24,
			"byteOffset":9560,
			"target":34963
		},
		{
			"buffer":0,
			"byteLength":192,
			"byteOffset":9584,
			"target":34962
		},
		{
			"buffer":0,
			"byteLength":192,
			"byteOffset":9776,
			"target":34962
		},
		{
			"buffer":0,
			"byteLength":128,
			"byteOffset":9968,
			"target":34962
		},
		{
			"buffer":0,
			"byteLength":48,
			"byteOffset":10096,
			"target":34963
		}
	],
	"buffers":[
		{
			"byteLength":10144,
			"uri":"Xtra_Xerxes_Turret2.bin"
		}
	]
}
