{
	"asset":{
		"generator":"Khronos glTF Blender I/O v4.5.48",
		"version":"2.0"
	},
	"scene":0,
	"scenes":[
		{
			"name":"Scene",
			"nodes":[
				0
			]
		}
	],
	"nodes":[
		{
			"mesh":0,
			"name":"Object"
		}
	],
	"materials":[
		{
			"doubleSided":true,
			"name":"BE_IFLO01",
			"pbrMetallicRoughness":{
				"baseColorFactor":[
					0.800000011920929,
					0.800000011920929,
					0.800000011920929,
					1
				],
				"metallicFactor":0,
				"roughnessFactor":0.5
			}
		},
		{
			"doubleSided":true,
			"name":"BE_IPIPE01",
			"pbrMetallicRoughness":{
				"baseColorFactor":[
					0.800000011920929,
					0.800000011920929,
					0.800000011920929,
					1
				],
				"metallicFactor":0,
				"roughnessFactor":0.5
			}
		},
		{
			"doubleSided":true,
			"name":"BE_EBOR04A",
			"pbrMetallicRoughness":{
				"baseColorFactor":[
					0.800000011920929,
					0.800000011920929,
					0.800000011920929,
					1
				],
				"metallicFactor":0,
				"roughnessFactor":0.5
			}
		},
		{
			"doubleSided":true,
			"name":"BE_THRESH01A",
			"pbrMetallicRoughness":{
				"baseColorFactor":[
					0.800000011920929,
					0.800000011920929,
					0.800000011920929,
					1
				],
				"metallicFactor":0,
				"roughnessFactor":0.5
			}
		},
		{
			"doubleSided":true,
			"name":"BE_ESPEC03",
			"pbrMetallicRoughness":{
				"baseColorFactor":[
					0.800000011920929,
					0.800000011920929,
					0.800000011920929,
					1
				],
				"metallicFactor":0,
				"roughnessFactor":0.5
			}
		},
		{
			"doubleSided":true,
			"name":"BE_EWAL01B",
			"pbrMetallicRoughness":{
				"baseColorFactor":[
					0.800000011920929,
					0.800000011920929,
					0.800000011920929,
					1
				],
				"metallicFactor":0,
				"roughnessFactor":0.5
			}
		},
		{
			"doubleSided":true,
			"name":"BE_ESPEC01",
			"pbrMetallicRoughness":{
				"baseColorFactor":[
					0.800000011920929,
					0.800000011920929,
					0.800000011920929,
					1
				],
				"metallicFactor":0,
				"roughnessFactor":0.5
			}
		},
		{
			"doubleSided":true,
			"name":"BE_ESPEC04",
			"pbrMetallicRoughness":{
				"baseColorFactor":[
					0.800000011920929,
					0.800000011920929,
					0.800000011920929,
					1
				],
				"metallicFactor":0,
				"roughnessFactor":0.5
			}
		},
		{
			"doubleSided":true,
			"name":"BE_ESPEC03B",
			"pbrMetallicRoughness":{
				"baseColorFactor":[
					0.800000011920929,
					0.800000011920929,
					0.800000011920929,
					1
				],
				"metallicFactor":0,
				"roughnessFactor":0.5
			}
		}
	],
	"meshes":[
		{
			"name":"Mesh",
			"primitives":[
				{
					"attributes":{
						"POSITION":0,
						"NORMAL":1,
						"TEXCOORD_0":2
					},
					"indices":3,
					"material":0
				},
				{
					"attributes":{
						"POSITION":4,
						"NORMAL":5,
						"TEXCOORD_0":6
					},
					"indices":7,
					"material":1
				},
				{
					"attributes":{
						"POSITION":8,
						"NORMAL":9,
						"TEXCOORD_0":10
					},
					"indices":11,
					"material":2
				},
				{
					"attributes":{
						"POSITION":12,
						"NORMAL":13,
						"TEXCOORD_0":14
					},
					"indices":15,
					"material":3
				},
				{
					"attributes":{
						"POSITION":16,
						"NORMAL":17,
						"TEXCOORD_0":18
					},
					"indices":19,
					"material":4
				},
				{
					"attributes":{
						"POSITION":20,
						"NORMAL":21,
						"TEXCOORD_0":22
					},
					"indices":23,
					"material":5
				},
				{
					"attributes":{
						"POSITION":24,
						"NORMAL":25,
						"TEXCOORD_0":26
					},
					"indices":27,
					"material":6
				},
				{
					"attributes":{
						"POSITION":28,
						"NORMAL":29,
						"TEXCOORD_0":30
					},
					"indices":31,
					"material":7
				},
				{
					"attributes":{
						"POSITION":32,
						"NORMAL":33,
						"TEXCOORD_0":34
					},
					"indices":35,
					"material":8
				}
			]
		}
	],
	"accessors":[
		{
			"bufferView":0,
			"componentType":5126,
			"count":44,
			"max":[
				44,
				-6,
				48
			],
			"min":[
				-44,
				-6,
				-40
			],
			"type":"VEC3"
		},
		{
			"bufferView":1,
			"componentType":5126,
			"count":44,
			"type":"VEC3"
		},
		{
			"bufferView":2,
			"componentType":5126,
			"count":44,
			"type":"VEC2"
		},
		{
			"bufferView":3,
			"componentType":5123,
			"count":120,
			"type":"SCALAR"
		},
		{
			"bufferView":4,
			"componentType":5126,
			"count":16,
			"max":[
				44,
				-8,
				48
			],
			"min":[
				-44,
				-8,
				-40
			],
			"type":"VEC3"
		},
		{
			"bufferView":5,
			"componentType":5126,
			"count":16,
			"type":"VEC3"
		},
		{
			"bufferView":6,
			"componentType":5126,
			"count":16,
			"type":"VEC2"
		},
		{
			"bufferView":7,
			"componentType":5123,
			"count":24,
			"type":"SCALAR"
		},
		{
			"bufferView":8,
			"componentType":5126,
			"count":24,
			"max":[
				44,
				-6,
				48
			],
			"min":[
				-44,
				-8,
				-40
			],
			"type":"VEC3"
		},
		{
			"bufferView":9,
			"componentType":5126,
			"count":24,
			"type":"VEC3"
		},
		{
			"bufferView":10,
			"componentType":5126,
			"count":24,
			"type":"VEC2"
		},
		{
			"bufferView":11,
			"componentType":5123,
			"count":48,
			"type":"SCALAR"
		},
		{
			"bufferView":12,
			"componentType":5126,
			"count":39,
			"max":[
				44,
				-6,
				48
			],
			"min":[
				-44,
				-8,
				-40
			],
			"type":"VEC3"
		},
		{
			"bufferView":13,
			"componentType":5126,
			"count":39,
			"type":"VEC3"
		},
		{
			"bufferView":14,
			"componentType":5126,
			"count":39,
			"type":"VEC2"
		},
		{
			"bufferView":15,
			"componentType":5123,
			"count":63,
			"type":"SCALAR"
		},
		{
			"bufferView":16,
			"componentType":5126,
			"count":36,
			"max":[
				8.03125,
				-6,
				11.28125
			],
			"min":[
				-7.3125,
				-8,
				-4.03125
			],
			"type":"VEC3"
		},
		{
			"bufferView":17,
			"componentType":5126,
			"count":36,
			"type":"VEC3"
		},
		{
			"bufferView":18,
			"componentType":5126,
			"count":36,
			"type":"VEC2"
		},
		{
			"bufferView":19,
			"componentType":5123,
			"count":93,
			"type":"SCALAR"
		},
		{
			"bufferView":20,
			"componentType":5126,
			"count":160,
			"max":[
				11.744375228881836,
				0.21875,
				15.213125228881836
			],
			"min":[
				-11.181875228881836,
				-6.230466842651367,
				-7.713125228881836
			],
			"type":"VEC3"
		},
		{
			"bufferView":21,
			"componentType":5126,
			"count":160,
			"type":"VEC3"
		},
		{
			"bufferView":22,
			"componentType":5126,
			"count":160,
			"type":"VEC2"
		},
		{
			"bufferView":23,
			"componentType":5123,
			"count":405,
			"type":"SCALAR"
		},
		{
			"bufferView":24,
			"componentType":5126,
			"count":16,
			"max":[
				11.744375228881836,
				0.21875,
				15.213125228881836
			],
			"min":[
				-11.181875228881836,
				-6,
				-7.713125228881836
			],
			"type":"VEC3"
		},
		{
			"bufferView":25,
			"componentType":5126,
			"count":16,
			"type":"VEC3"
		},
		{
			"bufferView":26,
			"componentType":5126,
			"count":16,
			"type":"VEC2"
		},
		{
			"bufferView":27,
			"componentType":5123,
			"count":24,
			"type":"SCALAR"
		},
		{
			"bufferView":28,
			"componentType":5126,
			"count":4,
			"max":[
				2.03125,
				1.1875,
				5.729729652404785
			],
			"min":[
				-1.7494735717773438,
				1.1875,
				2.03125
			],
			"type":"VEC3"
		},
		{
			"bufferView":29,
			"componentType":5126,
			"count":4,
			"type":"VEC3"
		},
		{
			"bufferView":30,
			"componentType":5126,
			"count":4,
			"type":"VEC2"
		},
		{
			"bufferView":31,
			"componentType":5123,
			"count":6,
			"type":"SCALAR"
		},
		{
			"bufferView":32,
			"componentType":5126,
			"count":27,
			"max":[
				2.9697265625,
				1.1875,
				6.627296447753906
			],
			"min":[
				-2.75,
				0.1875,
				1.0625
			],
			"type":"VEC3"
		},
		{
			"bufferView":33,
			"componentType":5126,
			"count":27,
			"type":"VEC3"
		},
		{
			"bufferView":34,
			"componentType":5126,
			"count":27,
			"type":"VEC2"
		},
		{
			"bufferView":35,
			"componentType":5123,
			"count":51,
			"type":"SCALAR"
		}
	],
	"bufferViews":[
		{
			"buffer":0,
			"byteLength":528,
			"byteOffset":0,
			"target":34962
		},
		{
			"buffer":0,
			"byteLength":528,
			"byteOffset":528,
			"target":34962
		},
		{
			"buffer":0,
			"byteLength":352,
			"byteOffset":1056,
			"target":34962
		},
		{
			"buffer":0,
			"byteLength":240,
			"byteOffset":1408,
			"target":34963
		},
		{
			"buffer":0,
			"byteLength":192,
			"byteOffset":1648,
			"target":34962
		},
		{
			"buffer":0,
			"byteLength":192,
			"byteOffset":1840,
			"target":34962
		},
		{
			"buffer":0,
			"byteLength":128,
			"byteOffset":2032,
			"target":34962
		},
		{
			"buffer":0,
			"byteLength":48,
			"byteOffset":2160,
			"target":34963
		},
		{
			"buffer":0,
			"byteLength":288,
			"byteOffset":2208,
			"target":34962
		},
		{
			"buffer":0,
			"byteLength":288,
			"byteOffset":2496,
			"target":34962
		},
		{
			"buffer":0,
			"byteLength":192,
			"byteOffset":2784,
			"target":34962
		},
		{
			"buffer":0,
			"byteLength":96,
			"byteOffset":2976,
			"target":34963
		},
		{
			"buffer":0,
			"byteLength":468,
			"byteOffset":3072,
			"target":34962
		},
		{
			"buffer":0,
			"byteLength":468,
			"byteOffset":3540,
			"target":34962
		},
		{
			"buffer":0,
			"byteLength":312,
			"byteOffset":4008,
			"target":34962
		},
		{
			"buffer":0,
			"byteLength":126,
			"byteOffset":4320,
			"target":34963
		},
		{
			"buffer":0,
			"byteLength":432,
			"byteOffset":4448,
			"target":34962
		},
		{
			"buffer":0,
			"byteLength":432,
			"byteOffset":4880,
			"target":34962
		},
		{
			"buffer":0,
			"byteLength":288,
			"byteOffset":5312,
			"target":34962
		},
		{
			"buffer":0,
			"byteLength":186,
			"byteOffset":5600,
			"target":34963
		},
		{
			"buffer":0,
			"byteLength":1920,
			"byteOffset":5788,
			"target":34962
		},
		{
			"buffer":0,
			"byteLength":1920,
			"byteOffset":7708,
			"target":34962
		},
		{
			"buffer":0,
			"byteLength":1280,
			"byteOffset":9628,
			"target":34962
		},
		{
			"buffer":0,
			"byteLength":810,
			"byteOffset":10908,
			"target":34963
		},
		{
			"buffer":0,
			"byteLength":192,
			"byteOffset":11720,
			"target":34962
		},
		{
			"buffer":0,
			"byteLength":192,
			"byteOffset":11912,
			"target":34962
		},
		{
			"buffer":0,
			"byteLength":128,
			"byteOffset":12104,
			"target":34962
		},
		{
			"buffer":0,
			"byteLength":48,
			"byteOffset":12232,
			"target":34963
		},
		{
			"buffer":0,
			"byteLength":48,
			"byteOffset":12280,
			"target":34962
		},
		{
			"buffer":0,
			"byteLength":48,
			"byteOffset":12328,
			"target":34962
		},
		{
			"buffer":0,
			"byteLength":32,
			"byteOffset":12376,
			"target":34962
		},
		{
			"buffer":0,
			"byteLength":12,
			"byteOffset":12408,
			"target":34963
		},
		{
			"buffer":0,
			"byteLength":324,
			"byteOffset":12420,
			"target":34962
		},
		{
			"buffer":0,
			"byteLength":324,
			"byteOffset":12744,
			"target":34962
		},
		{
			"buffer":0,
			"byteLength":216,
			"byteOffset":13068,
			"target":34962
		},
		{
			"buffer":0,
			"byteLength":102,
			"byteOffset":13284,
			"target":34963
		}
	],
	"buffers":[
		{
			"byteLength":13388,
			"uri":"Xtra_WSol_Flagstand_CK.bin"
		}
	]
}
