{
	"asset":{
		"generator":"Khronos glTF Blender I/O v4.5.48",
		"version":"2.0"
	},
	"scene":0,
	"scenes":[
		{
			"name":"Scene",
			"nodes":[
				0
			]
		}
	],
	"nodes":[
		{
			"mesh":0,
			"name":"Object"
		}
	],
	"materials":[
		{
			"doubleSided":true,
			"name":"BE_EFLO02",
			"pbrMetallicRoughness":{
				"baseColorFactor":[
					0.800000011920929,
					0.800000011920929,
					0.800000011920929,
					1
				],
				"metallicFactor":0,
				"roughnessFactor":0.5
			}
		},
		{
			"doubleSided":true,
			"name":"BE_EWAL12B",
			"pbrMetallicRoughness":{
				"baseColorFactor":[
					0.800000011920929,
					0.800000011920929,
					0.800000011920929,
					1
				],
				"metallicFactor":0,
				"roughnessFactor":0.5
			}
		},
		{
			"doubleSided":true,
			"name":"BE_EWAL01B",
			"pbrMetallicRoughness":{
				"baseColorFactor":[
					0.800000011920929,
					0.800000011920929,
					0.800000011920929,
					1
				],
				"metallicFactor":0,
				"roughnessFactor":0.5
			}
		},
		{
			"doubleSided":true,
			"name":"BE_ESPEC01",
			"pbrMetallicRoughness":{
				"baseColorFactor":[
					0.800000011920929,
					0.800000011920929,
					0.800000011920929,
					1
				],
				"metallicFactor":0,
				"roughnessFactor":0.5
			}
		},
		{
			"doubleSided":true,
			"name":"BE_ETEC",
			"pbrMetallicRoughness":{
				"baseColorFactor":[
					0.800000011920929,
					0.800000011920929,
					0.800000011920929,
					1
				],
				"metallicFactor":0,
				"roughnessFactor":0.5
			}
		},
		{
			"doubleSided":true,
			"name":"BE_ITELIG02",
			"pbrMetallicRoughness":{
				"baseColorFactor":[
					0.800000011920929,
					0.800000011920929,
					0.800000011920929,
					1
				],
				"metallicFactor":0,
				"roughnessFactor":0.5
			}
		},
		{
			"doubleSided":true,
			"name":"BE_EWAL06",
			"pbrMetallicRoughness":{
				"baseColorFactor":[
					0.800000011920929,
					0.800000011920929,
					0.800000011920929,
					1
				],
				"metallicFactor":0,
				"roughnessFactor":0.5
			}
		},
		{
			"doubleSided":true,
			"name":"BE_THRESH01A",
			"pbrMetallicRoughness":{
				"baseColorFactor":[
					0.800000011920929,
					0.800000011920929,
					0.800000011920929,
					1
				],
				"metallicFactor":0,
				"roughnessFactor":0.5
			}
		},
		{
			"doubleSided":true,
			"name":"BE_ICOLIG",
			"pbrMetallicRoughness":{
				"baseColorFactor":[
					0.800000011920929,
					0.800000011920929,
					0.800000011920929,
					1
				],
				"metallicFactor":0,
				"roughnessFactor":0.5
			}
		},
		{
			"doubleSided":true,
			"name":"BE_EWAL04A",
			"pbrMetallicRoughness":{
				"baseColorFactor":[
					0.800000011920929,
					0.800000011920929,
					0.800000011920929,
					1
				],
				"metallicFactor":0,
				"roughnessFactor":0.5
			}
		},
		{
			"doubleSided":true,
			"name":"BE_ICOWAL02A",
			"pbrMetallicRoughness":{
				"baseColorFactor":[
					0.800000011920929,
					0.800000011920929,
					0.800000011920929,
					1
				],
				"metallicFactor":0,
				"roughnessFactor":0.5
			}
		},
		{
			"doubleSided":true,
			"name":"BE_IPRFLO01",
			"pbrMetallicRoughness":{
				"baseColorFactor":[
					0.800000011920929,
					0.800000011920929,
					0.800000011920929,
					1
				],
				"metallicFactor":0,
				"roughnessFactor":0.5
			}
		}
	],
	"meshes":[
		{
			"name":"Mesh",
			"primitives":[
				{
					"attributes":{
						"POSITION":0,
						"NORMAL":1,
						"TEXCOORD_0":2
					},
					"indices":3,
					"material":0
				},
				{
					"attributes":{
						"POSITION":4,
						"NORMAL":5,
						"TEXCOORD_0":6
					},
					"indices":7,
					"material":1
				},
				{
					"attributes":{
						"POSITION":8,
						"NORMAL":9,
						"TEXCOORD_0":10
					},
					"indices":11,
					"material":2
				},
				{
					"attributes":{
						"POSITION":12,
						"NORMAL":13,
						"TEXCOORD_0":14
					},
					"indices":15,
					"material":3
				},
				{
					"attributes":{
						"POSITION":16,
						"NORMAL":17,
						"TEXCOORD_0":18
					},
					"indices":19,
					"material":4
				},
				{
					"attributes":{
						"POSITION":20,
						"NORMAL":21,
						"TEXCOORD_0":22
					},
					"indices":23,
					"material":5
				},
				{
					"attributes":{
						"POSITION":24,
						"NORMAL":25,
						"TEXCOORD_0":26
					},
					"indices":27,
					"material":6
				},
				{
					"attributes":{
						"POSITION":28,
						"NORMAL":29,
						"TEXCOORD_0":30
					},
					"indices":31,
					"material":7
				},
				{
					"attributes":{
						"POSITION":32,
						"NORMAL":33,
						"TEXCOORD_0":34
					},
					"indices":35,
					"material":8
				},
				{
					"attributes":{
						"POSITION":36,
						"NORMAL":37,
						"TEXCOORD_0":38
					},
					"indices":39,
					"material":9
				},
				{
					"attributes":{
						"POSITION":40,
						"NORMAL":41,
						"TEXCOORD_0":42
					},
					"indices":43,
					"material":10
				},
				{
					"attributes":{
						"POSITION":44,
						"NORMAL":45,
						"TEXCOORD_0":46
					},
					"indices":47,
					"material":11
				}
			]
		}
	],
	"accessors":[
		{
			"bufferView":0,
			"componentType":5126,
			"count":32,
			"max":[
				28,
				0,
				15
			],
			"min":[
				-15,
				0,
				-15
			],
			"type":"VEC3"
		},
		{
			"bufferView":1,
			"componentType":5126,
			"count":32,
			"type":"VEC3"
		},
		{
			"bufferView":2,
			"componentType":5126,
			"count":32,
			"type":"VEC2"
		},
		{
			"bufferView":3,
			"componentType":5123,
			"count":78,
			"type":"SCALAR"
		},
		{
			"bufferView":4,
			"componentType":5126,
			"count":98,
			"max":[
				28,
				9.5,
				16
			],
			"min":[
				-16,
				-2,
				-16
			],
			"type":"VEC3"
		},
		{
			"bufferView":5,
			"componentType":5126,
			"count":98,
			"type":"VEC3"
		},
		{
			"bufferView":6,
			"componentType":5126,
			"count":98,
			"type":"VEC2"
		},
		{
			"bufferView":7,
			"componentType":5123,
			"count":222,
			"type":"SCALAR"
		},
		{
			"bufferView":8,
			"componentType":5126,
			"count":530,
			"max":[
				30,
				17.5,
				16
			],
			"min":[
				-16.25,
				-2,
				-16
			],
			"type":"VEC3"
		},
		{
			"bufferView":9,
			"componentType":5126,
			"count":530,
			"type":"VEC3"
		},
		{
			"bufferView":10,
			"componentType":5126,
			"count":530,
			"type":"VEC2"
		},
		{
			"bufferView":11,
			"componentType":5123,
			"count":1068,
			"type":"SCALAR"
		},
		{
			"bufferView":12,
			"componentType":5126,
			"count":42,
			"max":[
				28,
				14,
				12
			],
			"min":[
				6,
				0,
				-12
			],
			"type":"VEC3"
		},
		{
			"bufferView":13,
			"componentType":5126,
			"count":42,
			"type":"VEC3"
		},
		{
			"bufferView":14,
			"componentType":5126,
			"count":42,
			"type":"VEC2"
		},
		{
			"bufferView":15,
			"componentType":5123,
			"count":72,
			"type":"SCALAR"
		},
		{
			"bufferView":16,
			"componentType":5126,
			"count":24,
			"max":[
				28,
				14,
				12
			],
			"min":[
				12,
				-2,
				-12
			],
			"type":"VEC3"
		},
		{
			"bufferView":17,
			"componentType":5126,
			"count":24,
			"type":"VEC3"
		},
		{
			"bufferView":18,
			"componentType":5126,
			"count":24,
			"type":"VEC2"
		},
		{
			"bufferView":19,
			"componentType":5123,
			"count":48,
			"type":"SCALAR"
		},
		{
			"bufferView":20,
			"componentType":5126,
			"count":32,
			"max":[
				23.375,
				15.5,
				12
			],
			"min":[
				-16,
				8.5,
				-12
			],
			"type":"VEC3"
		},
		{
			"bufferView":21,
			"componentType":5126,
			"count":32,
			"type":"VEC3"
		},
		{
			"bufferView":22,
			"componentType":5126,
			"count":32,
			"type":"VEC2"
		},
		{
			"bufferView":23,
			"componentType":5123,
			"count":54,
			"type":"SCALAR"
		},
		{
			"bufferView":24,
			"componentType":5126,
			"count":108,
			"max":[
				30,
				18.5,
				15
			],
			"min":[
				-15,
				-2,
				-15
			],
			"type":"VEC3"
		},
		{
			"bufferView":25,
			"componentType":5126,
			"count":108,
			"type":"VEC3"
		},
		{
			"bufferView":26,
			"componentType":5126,
			"count":108,
			"type":"VEC2"
		},
		{
			"bufferView":27,
			"componentType":5123,
			"count":234,
			"type":"SCALAR"
		},
		{
			"bufferView":28,
			"componentType":5126,
			"count":44,
			"max":[
				12,
				8.75,
				8
			],
			"min":[
				-3,
				7.75,
				-8
			],
			"type":"VEC3"
		},
		{
			"bufferView":29,
			"componentType":5126,
			"count":44,
			"type":"VEC3"
		},
		{
			"bufferView":30,
			"componentType":5126,
			"count":44,
			"type":"VEC2"
		},
		{
			"bufferView":31,
			"componentType":5123,
			"count":90,
			"type":"SCALAR"
		},
		{
			"bufferView":32,
			"componentType":5126,
			"count":8,
			"max":[
				11.375,
				6.75,
				11
			],
			"min":[
				11.375,
				5,
				-11
			],
			"type":"VEC3"
		},
		{
			"bufferView":33,
			"componentType":5126,
			"count":8,
			"type":"VEC3"
		},
		{
			"bufferView":34,
			"componentType":5126,
			"count":8,
			"type":"VEC2"
		},
		{
			"bufferView":35,
			"componentType":5123,
			"count":12,
			"type":"SCALAR"
		},
		{
			"bufferView":36,
			"componentType":5126,
			"count":18,
			"max":[
				16,
				18.5,
				1.375
			],
			"min":[
				8.59375,
				17.5,
				-3.1875
			],
			"type":"VEC3"
		},
		{
			"bufferView":37,
			"componentType":5126,
			"count":18,
			"type":"VEC3"
		},
		{
			"bufferView":38,
			"componentType":5126,
			"count":18,
			"type":"VEC2"
		},
		{
			"bufferView":39,
			"componentType":5123,
			"count":24,
			"type":"SCALAR"
		},
		{
			"bufferView":40,
			"componentType":5126,
			"count":20,
			"max":[
				16,
				18.5,
				5
			],
			"min":[
				6,
				17.5,
				-5
			],
			"type":"VEC3"
		},
		{
			"bufferView":41,
			"componentType":5126,
			"count":20,
			"type":"VEC3"
		},
		{
			"bufferView":42,
			"componentType":5126,
			"count":20,
			"type":"VEC2"
		},
		{
			"bufferView":43,
			"componentType":5123,
			"count":30,
			"type":"SCALAR"
		},
		{
			"bufferView":44,
			"componentType":5126,
			"count":16,
			"max":[
				14.727272987365723,
				18.5,
				3.1875
			],
			"min":[
				7.75,
				18.5,
				-3.1875
			],
			"type":"VEC3"
		},
		{
			"bufferView":45,
			"componentType":5126,
			"count":16,
			"type":"VEC3"
		},
		{
			"bufferView":46,
			"componentType":5126,
			"count":16,
			"type":"VEC2"
		},
		{
			"bufferView":47,
			"componentType":5123,
			"count":30,
			"type":"SCALAR"
		}
	],
	"bufferViews":[
		{
			"buffer":0,
			"byteLength":384,
			"byteOffset":0,
			"target":34962
		},
		{
			"buffer":0,
			"byteLength":384,
			"byteOffset":384,
			"target":34962
		},
		{
			"buffer":0,
			"byteLength":256,
			"byteOffset":768,
			"target":34962
		},
		{
			"buffer":0,
			"byteLength":156,
			"byteOffset":1024,
			"target":34963
		},
		{
			"buffer":0,
			"byteLength":1176,
			"byteOffset":1180,
			"target":34962
		},
		{
			"buffer":0,
			"byteLength":1176,
			"byteOffset":2356,
			"target":34962
		},
		{
			"buffer":0,
			"byteLength":784,
			"byteOffset":3532,
			"target":34962
		},
		{
			"buffer":0,
			"byteLength":444,
			"byteOffset":4316,
			"target":34963
		},
		{
			"buffer":0,
			"byteLength":6360,
			"byteOffset":4760,
			"target":34962
		},
		{
			"buffer":0,
			"byteLength":6360,
			"byteOffset":11120,
			"target":34962
		},
		{
			"buffer":0,
			"byteLength":4240,
			"byteOffset":17480,
			"target":34962
		},
		{
			"buffer":0,
			"byteLength":2136,
			"byteOffset":21720,
			"target":34963
		},
		{
			"buffer":0,
			"byteLength":504,
			"byteOffset":23856,
			"target":34962
		},
		{
			"buffer":0,
			"byteLength":504,
			"byteOffset":24360,
			"target":34962
		},
		{
			"buffer":0,
			"byteLength":336,
			"byteOffset":24864,
			"target":34962
		},
		{
			"buffer":0,
			"byteLength":144,
			"byteOffset":25200,
			"target":34963
		},
		{
			"buffer":0,
			"byteLength":288,
			"byteOffset":25344,
			"target":34962
		},
		{
			"buffer":0,
			"byteLength":288,
			"byteOffset":25632,
			"target":34962
		},
		{
			"buffer":0,
			"byteLength":192,
			"byteOffset":25920,
			"target":34962
		},
		{
			"buffer":0,
			"byteLength":96,
			"byteOffset":26112,
			"target":34963
		},
		{
			"buffer":0,
			"byteLength":384,
			"byteOffset":26208,
			"target":34962
		},
		{
			"buffer":0,
			"byteLength":384,
			"byteOffset":26592,
			"target":34962
		},
		{
			"buffer":0,
			"byteLength":256,
			"byteOffset":26976,
			"target":34962
		},
		{
			"buffer":0,
			"byteLength":108,
			"byteOffset":27232,
			"target":34963
		},
		{
			"buffer":0,
			"byteLength":1296,
			"byteOffset":27340,
			"target":34962
		},
		{
			"buffer":0,
			"byteLength":1296,
			"byteOffset":28636,
			"target":34962
		},
		{
			"buffer":0,
			"byteLength":864,
			"byteOffset":29932,
			"target":34962
		},
		{
			"buffer":0,
			"byteLength":468,
			"byteOffset":30796,
			"target":34963
		},
		{
			"buffer":0,
			"byteLength":528,
			"byteOffset":31264,
			"target":34962
		},
		{
			"buffer":0,
			"byteLength":528,
			"byteOffset":31792,
			"target":34962
		},
		{
			"buffer":0,
			"byteLength":352,
			"byteOffset":32320,
			"target":34962
		},
		{
			"buffer":0,
			"byteLength":180,
			"byteOffset":32672,
			"target":34963
		},
		{
			"buffer":0,
			"byteLength":96,
			"byteOffset":32852,
			"target":34962
		},
		{
			"buffer":0,
			"byteLength":96,
			"byteOffset":32948,
			"target":34962
		},
		{
			"buffer":0,
			"byteLength":64,
			"byteOffset":33044,
			"target":34962
		},
		{
			"buffer":0,
			"byteLength":24,
			"byteOffset":33108,
			"target":34963
		},
		{
			"buffer":0,
			"byteLength":216,
			"byteOffset":33132,
			"target":34962
		},
		{
			"buffer":0,
			"byteLength":216,
			"byteOffset":33348,
			"target":34962
		},
		{
			"buffer":0,
			"byteLength":144,
			"byteOffset":33564,
			"target":34962
		},
		{
			"buffer":0,
			"byteLength":48,
			"byteOffset":33708,
			"target":34963
		},
		{
			"buffer":0,
			"byteLength":240,
			"byteOffset":33756,
			"target":34962
		},
		{
			"buffer":0,
			"byteLength":240,
			"byteOffset":33996,
			"target":34962
		},
		{
			"buffer":0,
			"byteLength":160,
			"byteOffset":34236,
			"target":34962
		},
		{
			"buffer":0,
			"byteLength":60,
			"byteOffset":34396,
			"target":34963
		},
		{
			"buffer":0,
			"byteLength":192,
			"byteOffset":34456,
			"target":34962
		},
		{
			"buffer":0,
			"byteLength":192,
			"byteOffset":34648,
			"target":34962
		},
		{
			"buffer":0,
			"byteLength":128,
			"byteOffset":34840,
			"target":34962
		},
		{
			"buffer":0,
			"byteLength":60,
			"byteOffset":34968,
			"target":34963
		}
	],
	"buffers":[
		{
			"byteLength":35028,
			"uri":"Xtra_imperium_bunker01.bin"
		}
	]
}
