{
	"asset":{
		"generator":"Khronos glTF Blender I/O v4.5.48",
		"version":"2.0"
	},
	"scene":0,
	"scenes":[
		{
			"name":"Scene",
			"nodes":[
				0
			]
		}
	],
	"nodes":[
		{
			"mesh":0,
			"name":"Object"
		}
	],
	"materials":[
		{
			"doubleSided":true,
			"name":"BD_ICHUTE02A",
			"pbrMetallicRoughness":{
				"baseColorFactor":[
					0.800000011920929,
					0.800000011920929,
					0.800000011920929,
					1
				],
				"metallicFactor":0,
				"roughnessFactor":0.5
			}
		},
		{
			"doubleSided":true,
			"name":"BD_IWAL16",
			"pbrMetallicRoughness":{
				"baseColorFactor":[
					0.800000011920929,
					0.800000011920929,
					0.800000011920929,
					1
				],
				"metallicFactor":0,
				"roughnessFactor":0.5
			}
		},
		{
			"doubleSided":true,
			"name":"BD_ICHUTE01",
			"pbrMetallicRoughness":{
				"baseColorFactor":[
					0.800000011920929,
					0.800000011920929,
					0.800000011920929,
					1
				],
				"metallicFactor":0,
				"roughnessFactor":0.5
			}
		},
		{
			"doubleSided":true,
			"name":"BD_EWAL03C",
			"pbrMetallicRoughness":{
				"baseColorFactor":[
					0.800000011920929,
					0.800000011920929,
					0.800000011920929,
					1
				],
				"metallicFactor":0,
				"roughnessFactor":0.5
			}
		},
		{
			"doubleSided":true,
			"name":"BD_ELIG03",
			"pbrMetallicRoughness":{
				"baseColorFactor":[
					0.800000011920929,
					0.800000011920929,
					0.800000011920929,
					1
				],
				"metallicFactor":0,
				"roughnessFactor":0.5
			}
		},
		{
			"doubleSided":true,
			"name":"BD_EWAL14",
			"pbrMetallicRoughness":{
				"baseColorFactor":[
					0.800000011920929,
					0.800000011920929,
					0.800000011920929,
					1
				],
				"metallicFactor":0,
				"roughnessFactor":0.5
			}
		}
	],
	"meshes":[
		{
			"name":"Mesh",
			"primitives":[
				{
					"attributes":{
						"POSITION":0,
						"NORMAL":1,
						"TEXCOORD_0":2
					},
					"indices":3,
					"material":0
				},
				{
					"attributes":{
						"POSITION":4,
						"NORMAL":5,
						"TEXCOORD_0":6
					},
					"indices":7,
					"material":1
				},
				{
					"attributes":{
						"POSITION":8,
						"NORMAL":9,
						"TEXCOORD_0":10
					},
					"indices":11,
					"material":2
				},
				{
					"attributes":{
						"POSITION":12,
						"NORMAL":13,
						"TEXCOORD_0":14
					},
					"indices":15,
					"material":3
				},
				{
					"attributes":{
						"POSITION":16,
						"NORMAL":17,
						"TEXCOORD_0":18
					},
					"indices":19,
					"material":4
				},
				{
					"attributes":{
						"POSITION":20,
						"NORMAL":21,
						"TEXCOORD_0":22
					},
					"indices":23,
					"material":5
				}
			]
		}
	],
	"accessors":[
		{
			"bufferView":0,
			"componentType":5126,
			"count":36,
			"max":[
				0.5,
				-3.5164473056793213,
				8.25
			],
			"min":[
				-0.5,
				-26,
				2.75
			],
			"type":"VEC3"
		},
		{
			"bufferView":1,
			"componentType":5126,
			"count":36,
			"type":"VEC3"
		},
		{
			"bufferView":2,
			"componentType":5126,
			"count":36,
			"type":"VEC2"
		},
		{
			"bufferView":3,
			"componentType":5123,
			"count":66,
			"type":"SCALAR"
		},
		{
			"bufferView":4,
			"componentType":5126,
			"count":8,
			"max":[
				3.0625,
				-6,
				8.25
			],
			"min":[
				-3.0625,
				-16,
				-7.40625
			],
			"type":"VEC3"
		},
		{
			"bufferView":5,
			"componentType":5126,
			"count":8,
			"type":"VEC3"
		},
		{
			"bufferView":6,
			"componentType":5126,
			"count":8,
			"type":"VEC2"
		},
		{
			"bufferView":7,
			"componentType":5123,
			"count":12,
			"type":"SCALAR"
		},
		{
			"bufferView":8,
			"componentType":5126,
			"count":79,
			"max":[
				7.40625,
				-6.990697860717773,
				8.25
			],
			"min":[
				-7.40625,
				-26,
				-7.40625
			],
			"type":"VEC3"
		},
		{
			"bufferView":9,
			"componentType":5126,
			"count":79,
			"type":"VEC3"
		},
		{
			"bufferView":10,
			"componentType":5126,
			"count":79,
			"type":"VEC2"
		},
		{
			"bufferView":11,
			"componentType":5123,
			"count":129,
			"type":"SCALAR"
		},
		{
			"bufferView":12,
			"componentType":5126,
			"count":96,
			"max":[
				7.40625,
				-3.5,
				7.40625
			],
			"min":[
				-7.40625,
				-27.5,
				-7.40625
			],
			"type":"VEC3"
		},
		{
			"bufferView":13,
			"componentType":5126,
			"count":96,
			"type":"VEC3"
		},
		{
			"bufferView":14,
			"componentType":5126,
			"count":96,
			"type":"VEC2"
		},
		{
			"bufferView":15,
			"componentType":5123,
			"count":198,
			"type":"SCALAR"
		},
		{
			"bufferView":16,
			"componentType":5126,
			"count":48,
			"max":[
				2.78125,
				-3.5,
				2.78125
			],
			"min":[
				-2.78125,
				-27.5,
				-2.78125
			],
			"type":"VEC3"
		},
		{
			"bufferView":17,
			"componentType":5126,
			"count":48,
			"type":"VEC3"
		},
		{
			"bufferView":18,
			"componentType":5126,
			"count":48,
			"type":"VEC2"
		},
		{
			"bufferView":19,
			"componentType":5123,
			"count":72,
			"type":"SCALAR"
		},
		{
			"bufferView":20,
			"componentType":5126,
			"count":24,
			"max":[
				2.78125,
				-3.5,
				2.78125
			],
			"min":[
				-2.78125,
				-4.5,
				-2.78125
			],
			"type":"VEC3"
		},
		{
			"bufferView":21,
			"componentType":5126,
			"count":24,
			"type":"VEC3"
		},
		{
			"bufferView":22,
			"componentType":5126,
			"count":24,
			"type":"VEC2"
		},
		{
			"bufferView":23,
			"componentType":5123,
			"count":48,
			"type":"SCALAR"
		}
	],
	"bufferViews":[
		{
			"buffer":0,
			"byteLength":432,
			"byteOffset":0,
			"target":34962
		},
		{
			"buffer":0,
			"byteLength":432,
			"byteOffset":432,
			"target":34962
		},
		{
			"buffer":0,
			"byteLength":288,
			"byteOffset":864,
			"target":34962
		},
		{
			"buffer":0,
			"byteLength":132,
			"byteOffset":1152,
			"target":34963
		},
		{
			"buffer":0,
			"byteLength":96,
			"byteOffset":1284,
			"target":34962
		},
		{
			"buffer":0,
			"byteLength":96,
			"byteOffset":1380,
			"target":34962
		},
		{
			"buffer":0,
			"byteLength":64,
			"byteOffset":1476,
			"target":34962
		},
		{
			"buffer":0,
			"byteLength":24,
			"byteOffset":1540,
			"target":34963
		},
		{
			"buffer":0,
			"byteLength":948,
			"byteOffset":1564,
			"target":34962
		},
		{
			"buffer":0,
			"byteLength":948,
			"byteOffset":2512,
			"target":34962
		},
		{
			"buffer":0,
			"byteLength":632,
			"byteOffset":3460,
			"target":34962
		},
		{
			"buffer":0,
			"byteLength":258,
			"byteOffset":4092,
			"target":34963
		},
		{
			"buffer":0,
			"byteLength":1152,
			"byteOffset":4352,
			"target":34962
		},
		{
			"buffer":0,
			"byteLength":1152,
			"byteOffset":5504,
			"target":34962
		},
		{
			"buffer":0,
			"byteLength":768,
			"byteOffset":6656,
			"target":34962
		},
		{
			"buffer":0,
			"byteLength":396,
			"byteOffset":7424,
			"target":34963
		},
		{
			"buffer":0,
			"byteLength":576,
			"byteOffset":7820,
			"target":34962
		},
		{
			"buffer":0,
			"byteLength":576,
			"byteOffset":8396,
			"target":34962
		},
		{
			"buffer":0,
			"byteLength":384,
			"byteOffset":8972,
			"target":34962
		},
		{
			"buffer":0,
			"byteLength":144,
			"byteOffset":9356,
			"target":34963
		},
		{
			"buffer":0,
			"byteLength":288,
			"byteOffset":9500,
			"target":34962
		},
		{
			"buffer":0,
			"byteLength":288,
			"byteOffset":9788,
			"target":34962
		},
		{
			"buffer":0,
			"byteLength":192,
			"byteOffset":10076,
			"target":34962
		},
		{
			"buffer":0,
			"byteLength":96,
			"byteOffset":10268,
			"target":34963
		}
	],
	"buffers":[
		{
			"byteLength":10364,
			"uri":"Xtra_Crown_tri_turret.bin"
		}
	]
}
