{
	"asset":{
		"generator":"Khronos glTF Blender I/O v4.5.48",
		"version":"2.0"
	},
	"scene":0,
	"scenes":[
		{
			"name":"Scene",
			"nodes":[
				0
			]
		}
	],
	"nodes":[
		{
			"mesh":0,
			"name":"Object"
		}
	],
	"materials":[
		{
			"doubleSided":true,
			"name":"BE_EWAL06",
			"pbrMetallicRoughness":{
				"baseColorFactor":[
					0.800000011920929,
					0.800000011920929,
					0.800000011920929,
					1
				],
				"metallicFactor":0,
				"roughnessFactor":0.5
			}
		}
	],
	"meshes":[
		{
			"name":"Mesh",
			"primitives":[
				{
					"attributes":{
						"POSITION":0,
						"NORMAL":1,
						"TEXCOORD_0":2
					},
					"indices":3,
					"material":0
				}
			]
		}
	],
	"accessors":[
		{
			"bufferView":0,
			"componentType":5126,
			"count":10,
			"max":[
				12,
				-2,
				58
			],
			"min":[
				-9.420554326178927e-16,
				-14,
				-70
			],
			"type":"VEC3"
		},
		{
			"bufferView":1,
			"componentType":5126,
			"count":10,
			"type":"VEC3"
		},
		{
			"bufferView":2,
			"componentType":5126,
			"count":10,
			"type":"VEC2"
		},
		{
			"bufferView":3,
			"componentType":5123,
			"count":12,
			"type":"SCALAR"
		}
	],
	"bufferViews":[
		{
			"buffer":0,
			"byteLength":120,
			"byteOffset":0,
			"target":34962
		},
		{
			"buffer":0,
			"byteLength":120,
			"byteOffset":120,
			"target":34962
		},
		{
			"buffer":0,
			"byteLength":80,
			"byteOffset":240,
			"target":34962
		},
		{
			"buffer":0,
			"byteLength":24,
			"byteOffset":320,
			"target":34963
		}
	],
	"buffers":[
		{
			"byteLength":344,
			"uri":"Xtra_t_base0.bin"
		}
	]
}
