{
	"asset":{
		"generator":"Khronos glTF Blender I/O v4.5.48",
		"version":"2.0"
	},
	"scene":0,
	"scenes":[
		{
			"name":"Scene",
			"nodes":[
				0
			]
		}
	],
	"nodes":[
		{
			"mesh":0,
			"name":"Object"
		}
	],
	"materials":[
		{
			"doubleSided":true,
			"name":"SW_THRESHGRATE",
			"pbrMetallicRoughness":{
				"baseColorFactor":[
					0.800000011920929,
					0.800000011920929,
					0.800000011920929,
					1
				],
				"metallicFactor":0,
				"roughnessFactor":0.5
			}
		},
		{
			"doubleSided":true,
			"name":"SW_IBOR01",
			"pbrMetallicRoughness":{
				"baseColorFactor":[
					0.800000011920929,
					0.800000011920929,
					0.800000011920929,
					1
				],
				"metallicFactor":0,
				"roughnessFactor":0.5
			}
		},
		{
			"doubleSided":true,
			"name":"SW_IWAL01",
			"pbrMetallicRoughness":{
				"baseColorFactor":[
					0.800000011920929,
					0.800000011920929,
					0.800000011920929,
					1
				],
				"metallicFactor":0,
				"roughnessFactor":0.5
			}
		},
		{
			"doubleSided":true,
			"name":"SW_IWAL03",
			"pbrMetallicRoughness":{
				"baseColorFactor":[
					0.800000011920929,
					0.800000011920929,
					0.800000011920929,
					1
				],
				"metallicFactor":0,
				"roughnessFactor":0.5
			}
		},
		{
			"doubleSided":true,
			"name":"SW_EBOR01",
			"pbrMetallicRoughness":{
				"baseColorFactor":[
					0.800000011920929,
					0.800000011920929,
					0.800000011920929,
					1
				],
				"metallicFactor":0,
				"roughnessFactor":0.5
			}
		},
		{
			"doubleSided":true,
			"name":"SW_ESPEC03",
			"pbrMetallicRoughness":{
				"baseColorFactor":[
					0.800000011920929,
					0.800000011920929,
					0.800000011920929,
					1
				],
				"metallicFactor":0,
				"roughnessFactor":0.5
			}
		},
		{
			"doubleSided":true,
			"name":"SW_EFLO01C",
			"pbrMetallicRoughness":{
				"baseColorFactor":[
					0.800000011920929,
					0.800000011920929,
					0.800000011920929,
					1
				],
				"metallicFactor":0,
				"roughnessFactor":0.5
			}
		},
		{
			"doubleSided":true,
			"name":"SW_IFLOOR01",
			"pbrMetallicRoughness":{
				"baseColorFactor":[
					0.800000011920929,
					0.800000011920929,
					0.800000011920929,
					1
				],
				"metallicFactor":0,
				"roughnessFactor":0.5
			}
		}
	],
	"meshes":[
		{
			"name":"Mesh",
			"primitives":[
				{
					"attributes":{
						"POSITION":0,
						"NORMAL":1,
						"TEXCOORD_0":2
					},
					"indices":3,
					"material":0
				},
				{
					"attributes":{
						"POSITION":4,
						"NORMAL":5,
						"TEXCOORD_0":6
					},
					"indices":7,
					"material":1
				},
				{
					"attributes":{
						"POSITION":8,
						"NORMAL":9,
						"TEXCOORD_0":10
					},
					"indices":11,
					"material":2
				},
				{
					"attributes":{
						"POSITION":12,
						"NORMAL":13,
						"TEXCOORD_0":14
					},
					"indices":15,
					"material":3
				},
				{
					"attributes":{
						"POSITION":16,
						"NORMAL":17,
						"TEXCOORD_0":18
					},
					"indices":19,
					"material":4
				},
				{
					"attributes":{
						"POSITION":20,
						"NORMAL":21,
						"TEXCOORD_0":22
					},
					"indices":23,
					"material":5
				},
				{
					"attributes":{
						"POSITION":24,
						"NORMAL":25,
						"TEXCOORD_0":26
					},
					"indices":27,
					"material":6
				},
				{
					"attributes":{
						"POSITION":28,
						"NORMAL":29,
						"TEXCOORD_0":30
					},
					"indices":31,
					"material":7
				}
			]
		}
	],
	"accessors":[
		{
			"bufferView":0,
			"componentType":5126,
			"count":24,
			"max":[
				6,
				2,
				6
			],
			"min":[
				-6,
				1.5,
				-6
			],
			"type":"VEC3"
		},
		{
			"bufferView":1,
			"componentType":5126,
			"count":24,
			"type":"VEC3"
		},
		{
			"bufferView":2,
			"componentType":5126,
			"count":24,
			"type":"VEC2"
		},
		{
			"bufferView":3,
			"componentType":5123,
			"count":24,
			"type":"SCALAR"
		},
		{
			"bufferView":4,
			"componentType":5126,
			"count":32,
			"max":[
				6,
				2,
				6
			],
			"min":[
				-6,
				1.5,
				-6
			],
			"type":"VEC3"
		},
		{
			"bufferView":5,
			"componentType":5126,
			"count":32,
			"type":"VEC3"
		},
		{
			"bufferView":6,
			"componentType":5126,
			"count":32,
			"type":"VEC2"
		},
		{
			"bufferView":7,
			"componentType":5123,
			"count":48,
			"type":"SCALAR"
		},
		{
			"bufferView":8,
			"componentType":5126,
			"count":34,
			"max":[
				14,
				2,
				14
			],
			"min":[
				-14,
				2,
				-14
			],
			"type":"VEC3"
		},
		{
			"bufferView":9,
			"componentType":5126,
			"count":34,
			"type":"VEC3"
		},
		{
			"bufferView":10,
			"componentType":5126,
			"count":34,
			"type":"VEC2"
		},
		{
			"bufferView":11,
			"componentType":5123,
			"count":72,
			"type":"SCALAR"
		},
		{
			"bufferView":12,
			"componentType":5126,
			"count":304,
			"max":[
				16,
				0,
				16
			],
			"min":[
				-16,
				-24,
				-16
			],
			"type":"VEC3"
		},
		{
			"bufferView":13,
			"componentType":5126,
			"count":304,
			"type":"VEC3"
		},
		{
			"bufferView":14,
			"componentType":5126,
			"count":304,
			"type":"VEC2"
		},
		{
			"bufferView":15,
			"componentType":5123,
			"count":1224,
			"type":"SCALAR"
		},
		{
			"bufferView":16,
			"componentType":5126,
			"count":32,
			"max":[
				8,
				2,
				8
			],
			"min":[
				-8,
				1.5,
				-8
			],
			"type":"VEC3"
		},
		{
			"bufferView":17,
			"componentType":5126,
			"count":32,
			"type":"VEC3"
		},
		{
			"bufferView":18,
			"componentType":5126,
			"count":32,
			"type":"VEC2"
		},
		{
			"bufferView":19,
			"componentType":5123,
			"count":48,
			"type":"SCALAR"
		},
		{
			"bufferView":20,
			"componentType":5126,
			"count":32,
			"max":[
				16,
				2,
				16
			],
			"min":[
				-16,
				-1.2556348647461968e-15,
				-16
			],
			"type":"VEC3"
		},
		{
			"bufferView":21,
			"componentType":5126,
			"count":32,
			"type":"VEC3"
		},
		{
			"bufferView":22,
			"componentType":5126,
			"count":32,
			"type":"VEC2"
		},
		{
			"bufferView":23,
			"componentType":5123,
			"count":48,
			"type":"SCALAR"
		},
		{
			"bufferView":24,
			"componentType":5126,
			"count":800,
			"max":[
				16.25,
				-0.625,
				16.25
			],
			"min":[
				-16.25,
				-1.375,
				-16.25
			],
			"type":"VEC3"
		},
		{
			"bufferView":25,
			"componentType":5126,
			"count":800,
			"type":"VEC3"
		},
		{
			"bufferView":26,
			"componentType":5126,
			"count":800,
			"type":"VEC2"
		},
		{
			"bufferView":27,
			"componentType":5123,
			"count":1320,
			"type":"SCALAR"
		},
		{
			"bufferView":28,
			"componentType":5126,
			"count":16,
			"max":[
				8,
				1.5,
				8
			],
			"min":[
				-8,
				1.5,
				-8
			],
			"type":"VEC3"
		},
		{
			"bufferView":29,
			"componentType":5126,
			"count":16,
			"type":"VEC3"
		},
		{
			"bufferView":30,
			"componentType":5126,
			"count":16,
			"type":"VEC2"
		},
		{
			"bufferView":31,
			"componentType":5123,
			"count":48,
			"type":"SCALAR"
		}
	],
	"bufferViews":[
		{
			"buffer":0,
			"byteLength":288,
			"byteOffset":0,
			"target":34962
		},
		{
			"buffer":0,
			"byteLength":288,
			"byteOffset":288,
			"target":34962
		},
		{
			"buffer":0,
			"byteLength":192,
			"byteOffset":576,
			"target":34962
		},
		{
			"buffer":0,
			"byteLength":48,
			"byteOffset":768,
			"target":34963
		},
		{
			"buffer":0,
			"byteLength":384,
			"byteOffset":816,
			"target":34962
		},
		{
			"buffer":0,
			"byteLength":384,
			"byteOffset":1200,
			"target":34962
		},
		{
			"buffer":0,
			"byteLength":256,
			"byteOffset":1584,
			"target":34962
		},
		{
			"buffer":0,
			"byteLength":96,
			"byteOffset":1840,
			"target":34963
		},
		{
			"buffer":0,
			"byteLength":408,
			"byteOffset":1936,
			"target":34962
		},
		{
			"buffer":0,
			"byteLength":408,
			"byteOffset":2344,
			"target":34962
		},
		{
			"buffer":0,
			"byteLength":272,
			"byteOffset":2752,
			"target":34962
		},
		{
			"buffer":0,
			"byteLength":144,
			"byteOffset":3024,
			"target":34963
		},
		{
			"buffer":0,
			"byteLength":3648,
			"byteOffset":3168,
			"target":34962
		},
		{
			"buffer":0,
			"byteLength":3648,
			"byteOffset":6816,
			"target":34962
		},
		{
			"buffer":0,
			"byteLength":2432,
			"byteOffset":10464,
			"target":34962
		},
		{
			"buffer":0,
			"byteLength":2448,
			"byteOffset":12896,
			"target":34963
		},
		{
			"buffer":0,
			"byteLength":384,
			"byteOffset":15344,
			"target":34962
		},
		{
			"buffer":0,
			"byteLength":384,
			"byteOffset":15728,
			"target":34962
		},
		{
			"buffer":0,
			"byteLength":256,
			"byteOffset":16112,
			"target":34962
		},
		{
			"buffer":0,
			"byteLength":96,
			"byteOffset":16368,
			"target":34963
		},
		{
			"buffer":0,
			"byteLength":384,
			"byteOffset":16464,
			"target":34962
		},
		{
			"buffer":0,
			"byteLength":384,
			"byteOffset":16848,
			"target":34962
		},
		{
			"buffer":0,
			"byteLength":256,
			"byteOffset":17232,
			"target":34962
		},
		{
			"buffer":0,
			"byteLength":96,
			"byteOffset":17488,
			"target":34963
		},
		{
			"buffer":0,
			"byteLength":9600,
			"byteOffset":17584,
			"target":34962
		},
		{
			"buffer":0,
			"byteLength":9600,
			"byteOffset":27184,
			"target":34962
		},
		{
			"buffer":0,
			"byteLength":6400,
			"byteOffset":36784,
			"target":34962
		},
		{
			"buffer":0,
			"byteLength":2640,
			"byteOffset":43184,
			"target":34963
		},
		{
			"buffer":0,
			"byteLength":192,
			"byteOffset":45824,
			"target":34962
		},
		{
			"buffer":0,
			"byteLength":192,
			"byteOffset":46016,
			"target":34962
		},
		{
			"buffer":0,
			"byteLength":128,
			"byteOffset":46208,
			"target":34962
		},
		{
			"buffer":0,
			"byteLength":96,
			"byteOffset":46336,
			"target":34963
		}
	],
	"buffers":[
		{
			"byteLength":46432,
			"uri":"Xtra_rst_transitstand.bin"
		}
	]
}
