{
	"asset":{
		"generator":"Khronos glTF Blender I/O v4.5.48",
		"version":"2.0"
	},
	"scene":0,
	"scenes":[
		{
			"name":"Scene",
			"nodes":[
				0
			]
		}
	],
	"nodes":[
		{
			"mesh":0,
			"name":"Object"
		}
	],
	"materials":[
		{
			"doubleSided":true,
			"name":"BE_EWAL04A",
			"pbrMetallicRoughness":{
				"baseColorFactor":[
					0.800000011920929,
					0.800000011920929,
					0.800000011920929,
					1
				],
				"metallicFactor":0,
				"roughnessFactor":0.5
			}
		},
		{
			"doubleSided":true,
			"name":"BE_EWAL07",
			"pbrMetallicRoughness":{
				"baseColorFactor":[
					0.800000011920929,
					0.800000011920929,
					0.800000011920929,
					1
				],
				"metallicFactor":0,
				"roughnessFactor":0.5
			}
		},
		{
			"doubleSided":true,
			"name":"BE_ITEFLO02",
			"pbrMetallicRoughness":{
				"baseColorFactor":[
					0.800000011920929,
					0.800000011920929,
					0.800000011920929,
					1
				],
				"metallicFactor":0,
				"roughnessFactor":0.5
			}
		},
		{
			"doubleSided":true,
			"name":"BE_EWAL01B",
			"pbrMetallicRoughness":{
				"baseColorFactor":[
					0.800000011920929,
					0.800000011920929,
					0.800000011920929,
					1
				],
				"metallicFactor":0,
				"roughnessFactor":0.5
			}
		},
		{
			"doubleSided":true,
			"name":"BE_ITEFLO01",
			"pbrMetallicRoughness":{
				"baseColorFactor":[
					0.800000011920929,
					0.800000011920929,
					0.800000011920929,
					1
				],
				"metallicFactor":0,
				"roughnessFactor":0.5
			}
		},
		{
			"doubleSided":true,
			"name":"BE_ICEI03B",
			"pbrMetallicRoughness":{
				"baseColorFactor":[
					0.800000011920929,
					0.800000011920929,
					0.800000011920929,
					1
				],
				"metallicFactor":0,
				"roughnessFactor":0.5
			}
		},
		{
			"doubleSided":true,
			"name":"BE_ELIG03",
			"pbrMetallicRoughness":{
				"baseColorFactor":[
					0.800000011920929,
					0.800000011920929,
					0.800000011920929,
					1
				],
				"metallicFactor":0,
				"roughnessFactor":0.5
			}
		},
		{
			"doubleSided":true,
			"name":"BE_EFLO01",
			"pbrMetallicRoughness":{
				"baseColorFactor":[
					0.800000011920929,
					0.800000011920929,
					0.800000011920929,
					1
				],
				"metallicFactor":0,
				"roughnessFactor":0.5
			}
		},
		{
			"doubleSided":true,
			"name":"BE_ICEI02",
			"pbrMetallicRoughness":{
				"baseColorFactor":[
					0.800000011920929,
					0.800000011920929,
					0.800000011920929,
					1
				],
				"metallicFactor":0,
				"roughnessFactor":0.5
			}
		},
		{
			"doubleSided":true,
			"name":"BE_EDOO02",
			"pbrMetallicRoughness":{
				"baseColorFactor":[
					0.800000011920929,
					0.800000011920929,
					0.800000011920929,
					1
				],
				"metallicFactor":0,
				"roughnessFactor":0.5
			}
		},
		{
			"doubleSided":true,
			"name":"BE_EBOR01B",
			"pbrMetallicRoughness":{
				"baseColorFactor":[
					0.800000011920929,
					0.800000011920929,
					0.800000011920929,
					1
				],
				"metallicFactor":0,
				"roughnessFactor":0.5
			}
		},
		{
			"doubleSided":true,
			"name":"BE_ICOMP01",
			"pbrMetallicRoughness":{
				"baseColorFactor":[
					0.800000011920929,
					0.800000011920929,
					0.800000011920929,
					1
				],
				"metallicFactor":0,
				"roughnessFactor":0.5
			}
		},
		{
			"doubleSided":true,
			"name":"BE_ESPEC08",
			"pbrMetallicRoughness":{
				"baseColorFactor":[
					0.800000011920929,
					0.800000011920929,
					0.800000011920929,
					1
				],
				"metallicFactor":0,
				"roughnessFactor":0.5
			}
		}
	],
	"meshes":[
		{
			"name":"Mesh",
			"primitives":[
				{
					"attributes":{
						"POSITION":0,
						"NORMAL":1,
						"TEXCOORD_0":2
					},
					"indices":3,
					"material":0
				},
				{
					"attributes":{
						"POSITION":4,
						"NORMAL":5,
						"TEXCOORD_0":6
					},
					"indices":7,
					"material":1
				},
				{
					"attributes":{
						"POSITION":8,
						"NORMAL":9,
						"TEXCOORD_0":10
					},
					"indices":11,
					"material":2
				},
				{
					"attributes":{
						"POSITION":12,
						"NORMAL":13,
						"TEXCOORD_0":14
					},
					"indices":15,
					"material":3
				},
				{
					"attributes":{
						"POSITION":16,
						"NORMAL":17,
						"TEXCOORD_0":18
					},
					"indices":19,
					"material":4
				},
				{
					"attributes":{
						"POSITION":20,
						"NORMAL":21,
						"TEXCOORD_0":22
					},
					"indices":23,
					"material":5
				},
				{
					"attributes":{
						"POSITION":24,
						"NORMAL":25,
						"TEXCOORD_0":26
					},
					"indices":27,
					"material":6
				},
				{
					"attributes":{
						"POSITION":28,
						"NORMAL":29,
						"TEXCOORD_0":30
					},
					"indices":31,
					"material":7
				},
				{
					"attributes":{
						"POSITION":32,
						"NORMAL":33,
						"TEXCOORD_0":34
					},
					"indices":35,
					"material":8
				},
				{
					"attributes":{
						"POSITION":36,
						"NORMAL":37,
						"TEXCOORD_0":38
					},
					"indices":39,
					"material":9
				},
				{
					"attributes":{
						"POSITION":40,
						"NORMAL":41,
						"TEXCOORD_0":42
					},
					"indices":43,
					"material":10
				},
				{
					"attributes":{
						"POSITION":44,
						"NORMAL":45,
						"TEXCOORD_0":46
					},
					"indices":47,
					"material":11
				},
				{
					"attributes":{
						"POSITION":48,
						"NORMAL":49,
						"TEXCOORD_0":50
					},
					"indices":51,
					"material":12
				}
			]
		}
	],
	"accessors":[
		{
			"bufferView":0,
			"componentType":5126,
			"count":587,
			"max":[
				29,
				8,
				32.03125
			],
			"min":[
				-29,
				-17,
				-32
			],
			"type":"VEC3"
		},
		{
			"bufferView":1,
			"componentType":5126,
			"count":587,
			"type":"VEC3"
		},
		{
			"bufferView":2,
			"componentType":5126,
			"count":587,
			"type":"VEC2"
		},
		{
			"bufferView":3,
			"componentType":5123,
			"count":1545,
			"type":"SCALAR"
		},
		{
			"bufferView":4,
			"componentType":5126,
			"count":461,
			"max":[
				37.5,
				18,
				44
			],
			"min":[
				-37.5,
				-17,
				-40
			],
			"type":"VEC3"
		},
		{
			"bufferView":5,
			"componentType":5126,
			"count":461,
			"type":"VEC3"
		},
		{
			"bufferView":6,
			"componentType":5126,
			"count":461,
			"type":"VEC2"
		},
		{
			"bufferView":7,
			"componentType":5123,
			"count":1029,
			"type":"SCALAR"
		},
		{
			"bufferView":8,
			"componentType":5126,
			"count":246,
			"max":[
				29,
				8,
				26.640625
			],
			"min":[
				-29,
				-10,
				-32
			],
			"type":"VEC3"
		},
		{
			"bufferView":9,
			"componentType":5126,
			"count":246,
			"type":"VEC3"
		},
		{
			"bufferView":10,
			"componentType":5126,
			"count":246,
			"type":"VEC2"
		},
		{
			"bufferView":11,
			"componentType":5123,
			"count":795,
			"type":"SCALAR"
		},
		{
			"bufferView":12,
			"componentType":5126,
			"count":14,
			"max":[
				32,
				-12.307692527770996,
				32.03125
			],
			"min":[
				-32,
				-16,
				29.543270111083984
			],
			"type":"VEC3"
		},
		{
			"bufferView":13,
			"componentType":5126,
			"count":14,
			"type":"VEC3"
		},
		{
			"bufferView":14,
			"componentType":5126,
			"count":14,
			"type":"VEC2"
		},
		{
			"bufferView":15,
			"componentType":5123,
			"count":24,
			"type":"SCALAR"
		},
		{
			"bufferView":16,
			"componentType":5126,
			"count":197,
			"max":[
				29,
				-0.5,
				31.34375
			],
			"min":[
				-29,
				-16,
				-32
			],
			"type":"VEC3"
		},
		{
			"bufferView":17,
			"componentType":5126,
			"count":197,
			"type":"VEC3"
		},
		{
			"bufferView":18,
			"componentType":5126,
			"count":197,
			"type":"VEC2"
		},
		{
			"bufferView":19,
			"componentType":5123,
			"count":606,
			"type":"SCALAR"
		},
		{
			"bufferView":20,
			"componentType":5126,
			"count":85,
			"max":[
				32,
				-3,
				44
			],
			"min":[
				-37.5,
				-16,
				-20
			],
			"type":"VEC3"
		},
		{
			"bufferView":21,
			"componentType":5126,
			"count":85,
			"type":"VEC3"
		},
		{
			"bufferView":22,
			"componentType":5126,
			"count":85,
			"type":"VEC2"
		},
		{
			"bufferView":23,
			"componentType":5123,
			"count":147,
			"type":"SCALAR"
		},
		{
			"bufferView":24,
			"componentType":5126,
			"count":47,
			"max":[
				28,
				8.5,
				19.75
			],
			"min":[
				-27,
				-9.75,
				-30
			],
			"type":"VEC3"
		},
		{
			"bufferView":25,
			"componentType":5126,
			"count":47,
			"type":"VEC3"
		},
		{
			"bufferView":26,
			"componentType":5126,
			"count":47,
			"type":"VEC2"
		},
		{
			"bufferView":27,
			"componentType":5123,
			"count":87,
			"type":"SCALAR"
		},
		{
			"bufferView":28,
			"componentType":5126,
			"count":128,
			"max":[
				8,
				-8,
				18
			],
			"min":[
				-8,
				-15,
				-7
			],
			"type":"VEC3"
		},
		{
			"bufferView":29,
			"componentType":5126,
			"count":128,
			"type":"VEC3"
		},
		{
			"bufferView":30,
			"componentType":5126,
			"count":128,
			"type":"VEC2"
		},
		{
			"bufferView":31,
			"componentType":5123,
			"count":192,
			"type":"SCALAR"
		},
		{
			"bufferView":32,
			"componentType":5126,
			"count":60,
			"max":[
				37.5,
				4,
				21.34375
			],
			"min":[
				-37.5,
				0,
				-40
			],
			"type":"VEC3"
		},
		{
			"bufferView":33,
			"componentType":5126,
			"count":60,
			"type":"VEC3"
		},
		{
			"bufferView":34,
			"componentType":5126,
			"count":60,
			"type":"VEC2"
		},
		{
			"bufferView":35,
			"componentType":5123,
			"count":138,
			"type":"SCALAR"
		},
		{
			"bufferView":36,
			"componentType":5126,
			"count":4,
			"max":[
				8,
				16,
				16
			],
			"min":[
				-8,
				8,
				10.65625
			],
			"type":"VEC3"
		},
		{
			"bufferView":37,
			"componentType":5126,
			"count":4,
			"type":"VEC3"
		},
		{
			"bufferView":38,
			"componentType":5126,
			"count":4,
			"type":"VEC2"
		},
		{
			"bufferView":39,
			"componentType":5123,
			"count":6,
			"type":"SCALAR"
		},
		{
			"bufferView":40,
			"componentType":5126,
			"count":51,
			"max":[
				37.5,
				0,
				44
			],
			"min":[
				-37.5,
				-16,
				-40
			],
			"type":"VEC3"
		},
		{
			"bufferView":41,
			"componentType":5126,
			"count":51,
			"type":"VEC3"
		},
		{
			"bufferView":42,
			"componentType":5126,
			"count":51,
			"type":"VEC2"
		},
		{
			"bufferView":43,
			"componentType":5123,
			"count":81,
			"type":"SCALAR"
		},
		{
			"bufferView":44,
			"componentType":5126,
			"count":39,
			"max":[
				19,
				-5,
				-22.5
			],
			"min":[
				-19,
				-15,
				-26
			],
			"type":"VEC3"
		},
		{
			"bufferView":45,
			"componentType":5126,
			"count":39,
			"type":"VEC3"
		},
		{
			"bufferView":46,
			"componentType":5126,
			"count":39,
			"type":"VEC2"
		},
		{
			"bufferView":47,
			"componentType":5123,
			"count":78,
			"type":"SCALAR"
		},
		{
			"bufferView":48,
			"componentType":5126,
			"count":8,
			"max":[
				8.25,
				-6,
				-6.25
			],
			"min":[
				-8.25,
				-7.5,
				-11.75
			],
			"type":"VEC3"
		},
		{
			"bufferView":49,
			"componentType":5126,
			"count":8,
			"type":"VEC3"
		},
		{
			"bufferView":50,
			"componentType":5126,
			"count":8,
			"type":"VEC2"
		},
		{
			"bufferView":51,
			"componentType":5123,
			"count":12,
			"type":"SCALAR"
		}
	],
	"bufferViews":[
		{
			"buffer":0,
			"byteLength":7044,
			"byteOffset":0,
			"target":34962
		},
		{
			"buffer":0,
			"byteLength":7044,
			"byteOffset":7044,
			"target":34962
		},
		{
			"buffer":0,
			"byteLength":4696,
			"byteOffset":14088,
			"target":34962
		},
		{
			"buffer":0,
			"byteLength":3090,
			"byteOffset":18784,
			"target":34963
		},
		{
			"buffer":0,
			"byteLength":5532,
			"byteOffset":21876,
			"target":34962
		},
		{
			"buffer":0,
			"byteLength":5532,
			"byteOffset":27408,
			"target":34962
		},
		{
			"buffer":0,
			"byteLength":3688,
			"byteOffset":32940,
			"target":34962
		},
		{
			"buffer":0,
			"byteLength":2058,
			"byteOffset":36628,
			"target":34963
		},
		{
			"buffer":0,
			"byteLength":2952,
			"byteOffset":38688,
			"target":34962
		},
		{
			"buffer":0,
			"byteLength":2952,
			"byteOffset":41640,
			"target":34962
		},
		{
			"buffer":0,
			"byteLength":1968,
			"byteOffset":44592,
			"target":34962
		},
		{
			"buffer":0,
			"byteLength":1590,
			"byteOffset":46560,
			"target":34963
		},
		{
			"buffer":0,
			"byteLength":168,
			"byteOffset":48152,
			"target":34962
		},
		{
			"buffer":0,
			"byteLength":168,
			"byteOffset":48320,
			"target":34962
		},
		{
			"buffer":0,
			"byteLength":112,
			"byteOffset":48488,
			"target":34962
		},
		{
			"buffer":0,
			"byteLength":48,
			"byteOffset":48600,
			"target":34963
		},
		{
			"buffer":0,
			"byteLength":2364,
			"byteOffset":48648,
			"target":34962
		},
		{
			"buffer":0,
			"byteLength":2364,
			"byteOffset":51012,
			"target":34962
		},
		{
			"buffer":0,
			"byteLength":1576,
			"byteOffset":53376,
			"target":34962
		},
		{
			"buffer":0,
			"byteLength":1212,
			"byteOffset":54952,
			"target":34963
		},
		{
			"buffer":0,
			"byteLength":1020,
			"byteOffset":56164,
			"target":34962
		},
		{
			"buffer":0,
			"byteLength":1020,
			"byteOffset":57184,
			"target":34962
		},
		{
			"buffer":0,
			"byteLength":680,
			"byteOffset":58204,
			"target":34962
		},
		{
			"buffer":0,
			"byteLength":294,
			"byteOffset":58884,
			"target":34963
		},
		{
			"buffer":0,
			"byteLength":564,
			"byteOffset":59180,
			"target":34962
		},
		{
			"buffer":0,
			"byteLength":564,
			"byteOffset":59744,
			"target":34962
		},
		{
			"buffer":0,
			"byteLength":376,
			"byteOffset":60308,
			"target":34962
		},
		{
			"buffer":0,
			"byteLength":174,
			"byteOffset":60684,
			"target":34963
		},
		{
			"buffer":0,
			"byteLength":1536,
			"byteOffset":60860,
			"target":34962
		},
		{
			"buffer":0,
			"byteLength":1536,
			"byteOffset":62396,
			"target":34962
		},
		{
			"buffer":0,
			"byteLength":1024,
			"byteOffset":63932,
			"target":34962
		},
		{
			"buffer":0,
			"byteLength":384,
			"byteOffset":64956,
			"target":34963
		},
		{
			"buffer":0,
			"byteLength":720,
			"byteOffset":65340,
			"target":34962
		},
		{
			"buffer":0,
			"byteLength":720,
			"byteOffset":66060,
			"target":34962
		},
		{
			"buffer":0,
			"byteLength":480,
			"byteOffset":66780,
			"target":34962
		},
		{
			"buffer":0,
			"byteLength":276,
			"byteOffset":67260,
			"target":34963
		},
		{
			"buffer":0,
			"byteLength":48,
			"byteOffset":67536,
			"target":34962
		},
		{
			"buffer":0,
			"byteLength":48,
			"byteOffset":67584,
			"target":34962
		},
		{
			"buffer":0,
			"byteLength":32,
			"byteOffset":67632,
			"target":34962
		},
		{
			"buffer":0,
			"byteLength":12,
			"byteOffset":67664,
			"target":34963
		},
		{
			"buffer":0,
			"byteLength":612,
			"byteOffset":67676,
			"target":34962
		},
		{
			"buffer":0,
			"byteLength":612,
			"byteOffset":68288,
			"target":34962
		},
		{
			"buffer":0,
			"byteLength":408,
			"byteOffset":68900,
			"target":34962
		},
		{
			"buffer":0,
			"byteLength":162,
			"byteOffset":69308,
			"target":34963
		},
		{
			"buffer":0,
			"byteLength":468,
			"byteOffset":69472,
			"target":34962
		},
		{
			"buffer":0,
			"byteLength":468,
			"byteOffset":69940,
			"target":34962
		},
		{
			"buffer":0,
			"byteLength":312,
			"byteOffset":70408,
			"target":34962
		},
		{
			"buffer":0,
			"byteLength":156,
			"byteOffset":70720,
			"target":34963
		},
		{
			"buffer":0,
			"byteLength":96,
			"byteOffset":70876,
			"target":34962
		},
		{
			"buffer":0,
			"byteLength":96,
			"byteOffset":70972,
			"target":34962
		},
		{
			"buffer":0,
			"byteLength":64,
			"byteOffset":71068,
			"target":34962
		},
		{
			"buffer":0,
			"byteLength":24,
			"byteOffset":71132,
			"target":34963
		}
	],
	"buffers":[
		{
			"byteLength":71156,
			"uri":"Xtra_HM_Base_CK.bin"
		}
	]
}
