{
	"asset":{
		"generator":"Khronos glTF Blender I/O v4.5.48",
		"version":"2.0"
	},
	"scene":0,
	"scenes":[
		{
			"name":"Scene",
			"nodes":[
				0
			]
		}
	],
	"nodes":[
		{
			"mesh":0,
			"name":"Object"
		}
	],
	"materials":[
		{
			"doubleSided":true,
			"name":"BD_ITEBOR01",
			"pbrMetallicRoughness":{
				"baseColorFactor":[
					0.800000011920929,
					0.800000011920929,
					0.800000011920929,
					1
				],
				"metallicFactor":0,
				"roughnessFactor":0.5
			}
		},
		{
			"doubleSided":true,
			"name":"BD_1WAL03C",
			"pbrMetallicRoughness":{
				"baseColorFactor":[
					0.800000011920929,
					0.800000011920929,
					0.800000011920929,
					1
				],
				"metallicFactor":0,
				"roughnessFactor":0.5
			}
		},
		{
			"doubleSided":true,
			"name":"BD_ICEI02A",
			"pbrMetallicRoughness":{
				"baseColorFactor":[
					0.800000011920929,
					0.800000011920929,
					0.800000011920929,
					1
				],
				"metallicFactor":0,
				"roughnessFactor":0.5
			}
		},
		{
			"doubleSided":true,
			"name":"BD_IBOR04",
			"pbrMetallicRoughness":{
				"baseColorFactor":[
					0.800000011920929,
					0.800000011920929,
					0.800000011920929,
					1
				],
				"metallicFactor":0,
				"roughnessFactor":0.5
			}
		},
		{
			"doubleSided":true,
			"name":"BD_ICOLIGOLA",
			"pbrMetallicRoughness":{
				"baseColorFactor":[
					0.800000011920929,
					0.800000011920929,
					0.800000011920929,
					1
				],
				"metallicFactor":0,
				"roughnessFactor":0.5
			}
		},
		{
			"doubleSided":true,
			"name":"BD_EWAL07",
			"pbrMetallicRoughness":{
				"baseColorFactor":[
					0.800000011920929,
					0.800000011920929,
					0.800000011920929,
					1
				],
				"metallicFactor":0,
				"roughnessFactor":0.5
			}
		},
		{
			"doubleSided":true,
			"name":"BD_IWAL01B",
			"pbrMetallicRoughness":{
				"baseColorFactor":[
					0.800000011920929,
					0.800000011920929,
					0.800000011920929,
					1
				],
				"metallicFactor":0,
				"roughnessFactor":0.5
			}
		},
		{
			"doubleSided":true,
			"name":"BD_IBOR02",
			"pbrMetallicRoughness":{
				"baseColorFactor":[
					0.800000011920929,
					0.800000011920929,
					0.800000011920929,
					1
				],
				"metallicFactor":0,
				"roughnessFactor":0.5
			}
		},
		{
			"doubleSided":true,
			"name":"BD_IFLO03B",
			"pbrMetallicRoughness":{
				"baseColorFactor":[
					0.800000011920929,
					0.800000011920929,
					0.800000011920929,
					1
				],
				"metallicFactor":0,
				"roughnessFactor":0.5
			}
		},
		{
			"doubleSided":true,
			"name":"BD_ISPE01",
			"pbrMetallicRoughness":{
				"baseColorFactor":[
					0.800000011920929,
					0.800000011920929,
					0.800000011920929,
					1
				],
				"metallicFactor":0,
				"roughnessFactor":0.5
			}
		},
		{
			"doubleSided":true,
			"name":"BD_ISPE04",
			"pbrMetallicRoughness":{
				"baseColorFactor":[
					0.800000011920929,
					0.800000011920929,
					0.800000011920929,
					1
				],
				"metallicFactor":0,
				"roughnessFactor":0.5
			}
		},
		{
			"doubleSided":true,
			"name":"BD_IFLO01",
			"pbrMetallicRoughness":{
				"baseColorFactor":[
					0.800000011920929,
					0.800000011920929,
					0.800000011920929,
					1
				],
				"metallicFactor":0,
				"roughnessFactor":0.5
			}
		},
		{
			"doubleSided":true,
			"name":"BD_ETERRAIN4A",
			"pbrMetallicRoughness":{
				"baseColorFactor":[
					0.800000011920929,
					0.800000011920929,
					0.800000011920929,
					1
				],
				"metallicFactor":0,
				"roughnessFactor":0.5
			}
		},
		{
			"doubleSided":true,
			"name":"BD_EWAL09",
			"pbrMetallicRoughness":{
				"baseColorFactor":[
					0.800000011920929,
					0.800000011920929,
					0.800000011920929,
					1
				],
				"metallicFactor":0,
				"roughnessFactor":0.5
			}
		},
		{
			"doubleSided":true,
			"name":"BD_ICEI03",
			"pbrMetallicRoughness":{
				"baseColorFactor":[
					0.800000011920929,
					0.800000011920929,
					0.800000011920929,
					1
				],
				"metallicFactor":0,
				"roughnessFactor":0.5
			}
		},
		{
			"doubleSided":true,
			"name":"BD_IFUNCTEC02",
			"pbrMetallicRoughness":{
				"baseColorFactor":[
					0.800000011920929,
					0.800000011920929,
					0.800000011920929,
					1
				],
				"metallicFactor":0,
				"roughnessFactor":0.5
			}
		}
	],
	"meshes":[
		{
			"name":"Mesh",
			"primitives":[
				{
					"attributes":{
						"POSITION":0,
						"NORMAL":1,
						"TEXCOORD_0":2
					},
					"indices":3,
					"material":0
				},
				{
					"attributes":{
						"POSITION":4,
						"NORMAL":5,
						"TEXCOORD_0":6
					},
					"indices":7,
					"material":1
				},
				{
					"attributes":{
						"POSITION":8,
						"NORMAL":9,
						"TEXCOORD_0":10
					},
					"indices":11,
					"material":2
				},
				{
					"attributes":{
						"POSITION":12,
						"NORMAL":13,
						"TEXCOORD_0":14
					},
					"indices":15,
					"material":3
				},
				{
					"attributes":{
						"POSITION":16,
						"NORMAL":17,
						"TEXCOORD_0":18
					},
					"indices":19,
					"material":4
				},
				{
					"attributes":{
						"POSITION":20,
						"NORMAL":21,
						"TEXCOORD_0":22
					},
					"indices":23,
					"material":5
				},
				{
					"attributes":{
						"POSITION":24,
						"NORMAL":25,
						"TEXCOORD_0":26
					},
					"indices":27,
					"material":6
				},
				{
					"attributes":{
						"POSITION":28,
						"NORMAL":29,
						"TEXCOORD_0":30
					},
					"indices":31,
					"material":7
				},
				{
					"attributes":{
						"POSITION":32,
						"NORMAL":33,
						"TEXCOORD_0":34
					},
					"indices":35,
					"material":8
				},
				{
					"attributes":{
						"POSITION":36,
						"NORMAL":37,
						"TEXCOORD_0":38
					},
					"indices":39,
					"material":9
				},
				{
					"attributes":{
						"POSITION":40,
						"NORMAL":41,
						"TEXCOORD_0":42
					},
					"indices":43,
					"material":10
				},
				{
					"attributes":{
						"POSITION":44,
						"NORMAL":45,
						"TEXCOORD_0":46
					},
					"indices":47,
					"material":11
				},
				{
					"attributes":{
						"POSITION":48,
						"NORMAL":49,
						"TEXCOORD_0":50
					},
					"indices":51,
					"material":12
				},
				{
					"attributes":{
						"POSITION":52,
						"NORMAL":53,
						"TEXCOORD_0":54
					},
					"indices":55,
					"material":13
				},
				{
					"attributes":{
						"POSITION":56,
						"NORMAL":57,
						"TEXCOORD_0":58
					},
					"indices":59,
					"material":14
				},
				{
					"attributes":{
						"POSITION":60,
						"NORMAL":61,
						"TEXCOORD_0":62
					},
					"indices":63,
					"material":15
				}
			]
		}
	],
	"accessors":[
		{
			"bufferView":0,
			"componentType":5126,
			"count":472,
			"max":[
				28,
				19,
				52
			],
			"min":[
				-28,
				-13,
				-52
			],
			"type":"VEC3"
		},
		{
			"bufferView":1,
			"componentType":5126,
			"count":472,
			"type":"VEC3"
		},
		{
			"bufferView":2,
			"componentType":5126,
			"count":472,
			"type":"VEC2"
		},
		{
			"bufferView":3,
			"componentType":5123,
			"count":876,
			"type":"SCALAR"
		},
		{
			"bufferView":4,
			"componentType":5126,
			"count":147,
			"max":[
				28,
				15.5,
				34
			],
			"min":[
				-28,
				-14,
				-34
			],
			"type":"VEC3"
		},
		{
			"bufferView":5,
			"componentType":5126,
			"count":147,
			"type":"VEC3"
		},
		{
			"bufferView":6,
			"componentType":5126,
			"count":147,
			"type":"VEC2"
		},
		{
			"bufferView":7,
			"componentType":5123,
			"count":270,
			"type":"SCALAR"
		},
		{
			"bufferView":8,
			"componentType":5126,
			"count":80,
			"max":[
				23,
				15,
				15
			],
			"min":[
				-23,
				1,
				-15
			],
			"type":"VEC3"
		},
		{
			"bufferView":9,
			"componentType":5126,
			"count":80,
			"type":"VEC3"
		},
		{
			"bufferView":10,
			"componentType":5126,
			"count":80,
			"type":"VEC2"
		},
		{
			"bufferView":11,
			"componentType":5123,
			"count":162,
			"type":"SCALAR"
		},
		{
			"bufferView":12,
			"componentType":5126,
			"count":60,
			"max":[
				7,
				-5,
				7
			],
			"min":[
				-7,
				-6,
				-7
			],
			"type":"VEC3"
		},
		{
			"bufferView":13,
			"componentType":5126,
			"count":60,
			"type":"VEC3"
		},
		{
			"bufferView":14,
			"componentType":5126,
			"count":60,
			"type":"VEC2"
		},
		{
			"bufferView":15,
			"componentType":5123,
			"count":108,
			"type":"SCALAR"
		},
		{
			"bufferView":16,
			"componentType":5126,
			"count":80,
			"max":[
				23,
				15.5,
				16.5
			],
			"min":[
				-23,
				-5.5,
				-16.5
			],
			"type":"VEC3"
		},
		{
			"bufferView":17,
			"componentType":5126,
			"count":80,
			"type":"VEC3"
		},
		{
			"bufferView":18,
			"componentType":5126,
			"count":80,
			"type":"VEC2"
		},
		{
			"bufferView":19,
			"componentType":5123,
			"count":108,
			"type":"SCALAR"
		},
		{
			"bufferView":20,
			"componentType":5126,
			"count":92,
			"max":[
				15,
				-6,
				15
			],
			"min":[
				-15,
				-13,
				-15
			],
			"type":"VEC3"
		},
		{
			"bufferView":21,
			"componentType":5126,
			"count":92,
			"type":"VEC3"
		},
		{
			"bufferView":22,
			"componentType":5126,
			"count":92,
			"type":"VEC2"
		},
		{
			"bufferView":23,
			"componentType":5123,
			"count":216,
			"type":"SCALAR"
		},
		{
			"bufferView":24,
			"componentType":5126,
			"count":307,
			"max":[
				23,
				15,
				15
			],
			"min":[
				-23,
				-13,
				-15
			],
			"type":"VEC3"
		},
		{
			"bufferView":25,
			"componentType":5126,
			"count":307,
			"type":"VEC3"
		},
		{
			"bufferView":26,
			"componentType":5126,
			"count":307,
			"type":"VEC2"
		},
		{
			"bufferView":27,
			"componentType":5123,
			"count":672,
			"type":"SCALAR"
		},
		{
			"bufferView":28,
			"componentType":5126,
			"count":28,
			"max":[
				8,
				19,
				8
			],
			"min":[
				-8,
				19,
				-8
			],
			"type":"VEC3"
		},
		{
			"bufferView":29,
			"componentType":5126,
			"count":28,
			"type":"VEC3"
		},
		{
			"bufferView":30,
			"componentType":5126,
			"count":28,
			"type":"VEC2"
		},
		{
			"bufferView":31,
			"componentType":5123,
			"count":60,
			"type":"SCALAR"
		},
		{
			"bufferView":32,
			"componentType":5126,
			"count":24,
			"max":[
				24,
				19,
				17
			],
			"min":[
				-24,
				15,
				-17
			],
			"type":"VEC3"
		},
		{
			"bufferView":33,
			"componentType":5126,
			"count":24,
			"type":"VEC3"
		},
		{
			"bufferView":34,
			"componentType":5126,
			"count":24,
			"type":"VEC2"
		},
		{
			"bufferView":35,
			"componentType":5123,
			"count":30,
			"type":"SCALAR"
		},
		{
			"bufferView":36,
			"componentType":5126,
			"count":10,
			"max":[
				17,
				19,
				8
			],
			"min":[
				-17,
				16,
				-8
			],
			"type":"VEC3"
		},
		{
			"bufferView":37,
			"componentType":5126,
			"count":10,
			"type":"VEC3"
		},
		{
			"bufferView":38,
			"componentType":5126,
			"count":10,
			"type":"VEC2"
		},
		{
			"bufferView":39,
			"componentType":5123,
			"count":18,
			"type":"SCALAR"
		},
		{
			"bufferView":40,
			"componentType":5126,
			"count":12,
			"max":[
				8,
				19,
				17
			],
			"min":[
				-8,
				16,
				-17
			],
			"type":"VEC3"
		},
		{
			"bufferView":41,
			"componentType":5126,
			"count":12,
			"type":"VEC3"
		},
		{
			"bufferView":42,
			"componentType":5126,
			"count":12,
			"type":"VEC2"
		},
		{
			"bufferView":43,
			"componentType":5123,
			"count":24,
			"type":"SCALAR"
		},
		{
			"bufferView":44,
			"componentType":5126,
			"count":191,
			"max":[
				27,
				9,
				34
			],
			"min":[
				-27,
				-13,
				-34
			],
			"type":"VEC3"
		},
		{
			"bufferView":45,
			"componentType":5126,
			"count":191,
			"type":"VEC3"
		},
		{
			"bufferView":46,
			"componentType":5126,
			"count":191,
			"type":"VEC2"
		},
		{
			"bufferView":47,
			"componentType":5123,
			"count":462,
			"type":"SCALAR"
		},
		{
			"bufferView":48,
			"componentType":5126,
			"count":24,
			"max":[
				28,
				9,
				34
			],
			"min":[
				-28,
				-1,
				-34
			],
			"type":"VEC3"
		},
		{
			"bufferView":49,
			"componentType":5126,
			"count":24,
			"type":"VEC3"
		},
		{
			"bufferView":50,
			"componentType":5126,
			"count":24,
			"type":"VEC2"
		},
		{
			"bufferView":51,
			"componentType":5123,
			"count":36,
			"type":"SCALAR"
		},
		{
			"bufferView":52,
			"componentType":5126,
			"count":76,
			"max":[
				24,
				15,
				16
			],
			"min":[
				-24,
				-13,
				-16
			],
			"type":"VEC3"
		},
		{
			"bufferView":53,
			"componentType":5126,
			"count":76,
			"type":"VEC3"
		},
		{
			"bufferView":54,
			"componentType":5126,
			"count":76,
			"type":"VEC2"
		},
		{
			"bufferView":55,
			"componentType":5123,
			"count":132,
			"type":"SCALAR"
		},
		{
			"bufferView":56,
			"componentType":5126,
			"count":36,
			"max":[
				7,
				6,
				7
			],
			"min":[
				-7,
				6,
				-7
			],
			"type":"VEC3"
		},
		{
			"bufferView":57,
			"componentType":5126,
			"count":36,
			"type":"VEC3"
		},
		{
			"bufferView":58,
			"componentType":5126,
			"count":36,
			"type":"VEC2"
		},
		{
			"bufferView":59,
			"componentType":5123,
			"count":84,
			"type":"SCALAR"
		},
		{
			"bufferView":60,
			"componentType":5126,
			"count":36,
			"max":[
				7,
				6,
				7
			],
			"min":[
				-7,
				-5,
				-7
			],
			"type":"VEC3"
		},
		{
			"bufferView":61,
			"componentType":5126,
			"count":36,
			"type":"VEC3"
		},
		{
			"bufferView":62,
			"componentType":5126,
			"count":36,
			"type":"VEC2"
		},
		{
			"bufferView":63,
			"componentType":5123,
			"count":96,
			"type":"SCALAR"
		}
	],
	"bufferViews":[
		{
			"buffer":0,
			"byteLength":5664,
			"byteOffset":0,
			"target":34962
		},
		{
			"buffer":0,
			"byteLength":5664,
			"byteOffset":5664,
			"target":34962
		},
		{
			"buffer":0,
			"byteLength":3776,
			"byteOffset":11328,
			"target":34962
		},
		{
			"buffer":0,
			"byteLength":1752,
			"byteOffset":15104,
			"target":34963
		},
		{
			"buffer":0,
			"byteLength":1764,
			"byteOffset":16856,
			"target":34962
		},
		{
			"buffer":0,
			"byteLength":1764,
			"byteOffset":18620,
			"target":34962
		},
		{
			"buffer":0,
			"byteLength":1176,
			"byteOffset":20384,
			"target":34962
		},
		{
			"buffer":0,
			"byteLength":540,
			"byteOffset":21560,
			"target":34963
		},
		{
			"buffer":0,
			"byteLength":960,
			"byteOffset":22100,
			"target":34962
		},
		{
			"buffer":0,
			"byteLength":960,
			"byteOffset":23060,
			"target":34962
		},
		{
			"buffer":0,
			"byteLength":640,
			"byteOffset":24020,
			"target":34962
		},
		{
			"buffer":0,
			"byteLength":324,
			"byteOffset":24660,
			"target":34963
		},
		{
			"buffer":0,
			"byteLength":720,
			"byteOffset":24984,
			"target":34962
		},
		{
			"buffer":0,
			"byteLength":720,
			"byteOffset":25704,
			"target":34962
		},
		{
			"buffer":0,
			"byteLength":480,
			"byteOffset":26424,
			"target":34962
		},
		{
			"buffer":0,
			"byteLength":216,
			"byteOffset":26904,
			"target":34963
		},
		{
			"buffer":0,
			"byteLength":960,
			"byteOffset":27120,
			"target":34962
		},
		{
			"buffer":0,
			"byteLength":960,
			"byteOffset":28080,
			"target":34962
		},
		{
			"buffer":0,
			"byteLength":640,
			"byteOffset":29040,
			"target":34962
		},
		{
			"buffer":0,
			"byteLength":216,
			"byteOffset":29680,
			"target":34963
		},
		{
			"buffer":0,
			"byteLength":1104,
			"byteOffset":29896,
			"target":34962
		},
		{
			"buffer":0,
			"byteLength":1104,
			"byteOffset":31000,
			"target":34962
		},
		{
			"buffer":0,
			"byteLength":736,
			"byteOffset":32104,
			"target":34962
		},
		{
			"buffer":0,
			"byteLength":432,
			"byteOffset":32840,
			"target":34963
		},
		{
			"buffer":0,
			"byteLength":3684,
			"byteOffset":33272,
			"target":34962
		},
		{
			"buffer":0,
			"byteLength":3684,
			"byteOffset":36956,
			"target":34962
		},
		{
			"buffer":0,
			"byteLength":2456,
			"byteOffset":40640,
			"target":34962
		},
		{
			"buffer":0,
			"byteLength":1344,
			"byteOffset":43096,
			"target":34963
		},
		{
			"buffer":0,
			"byteLength":336,
			"byteOffset":44440,
			"target":34962
		},
		{
			"buffer":0,
			"byteLength":336,
			"byteOffset":44776,
			"target":34962
		},
		{
			"buffer":0,
			"byteLength":224,
			"byteOffset":45112,
			"target":34962
		},
		{
			"buffer":0,
			"byteLength":120,
			"byteOffset":45336,
			"target":34963
		},
		{
			"buffer":0,
			"byteLength":288,
			"byteOffset":45456,
			"target":34962
		},
		{
			"buffer":0,
			"byteLength":288,
			"byteOffset":45744,
			"target":34962
		},
		{
			"buffer":0,
			"byteLength":192,
			"byteOffset":46032,
			"target":34962
		},
		{
			"buffer":0,
			"byteLength":60,
			"byteOffset":46224,
			"target":34963
		},
		{
			"buffer":0,
			"byteLength":120,
			"byteOffset":46284,
			"target":34962
		},
		{
			"buffer":0,
			"byteLength":120,
			"byteOffset":46404,
			"target":34962
		},
		{
			"buffer":0,
			"byteLength":80,
			"byteOffset":46524,
			"target":34962
		},
		{
			"buffer":0,
			"byteLength":36,
			"byteOffset":46604,
			"target":34963
		},
		{
			"buffer":0,
			"byteLength":144,
			"byteOffset":46640,
			"target":34962
		},
		{
			"buffer":0,
			"byteLength":144,
			"byteOffset":46784,
			"target":34962
		},
		{
			"buffer":0,
			"byteLength":96,
			"byteOffset":46928,
			"target":34962
		},
		{
			"buffer":0,
			"byteLength":48,
			"byteOffset":47024,
			"target":34963
		},
		{
			"buffer":0,
			"byteLength":2292,
			"byteOffset":47072,
			"target":34962
		},
		{
			"buffer":0,
			"byteLength":2292,
			"byteOffset":49364,
			"target":34962
		},
		{
			"buffer":0,
			"byteLength":1528,
			"byteOffset":51656,
			"target":34962
		},
		{
			"buffer":0,
			"byteLength":924,
			"byteOffset":53184,
			"target":34963
		},
		{
			"buffer":0,
			"byteLength":288,
			"byteOffset":54108,
			"target":34962
		},
		{
			"buffer":0,
			"byteLength":288,
			"byteOffset":54396,
			"target":34962
		},
		{
			"buffer":0,
			"byteLength":192,
			"byteOffset":54684,
			"target":34962
		},
		{
			"buffer":0,
			"byteLength":72,
			"byteOffset":54876,
			"target":34963
		},
		{
			"buffer":0,
			"byteLength":912,
			"byteOffset":54948,
			"target":34962
		},
		{
			"buffer":0,
			"byteLength":912,
			"byteOffset":55860,
			"target":34962
		},
		{
			"buffer":0,
			"byteLength":608,
			"byteOffset":56772,
			"target":34962
		},
		{
			"buffer":0,
			"byteLength":264,
			"byteOffset":57380,
			"target":34963
		},
		{
			"buffer":0,
			"byteLength":432,
			"byteOffset":57644,
			"target":34962
		},
		{
			"buffer":0,
			"byteLength":432,
			"byteOffset":58076,
			"target":34962
		},
		{
			"buffer":0,
			"byteLength":288,
			"byteOffset":58508,
			"target":34962
		},
		{
			"buffer":0,
			"byteLength":168,
			"byteOffset":58796,
			"target":34963
		},
		{
			"buffer":0,
			"byteLength":432,
			"byteOffset":58964,
			"target":34962
		},
		{
			"buffer":0,
			"byteLength":432,
			"byteOffset":59396,
			"target":34962
		},
		{
			"buffer":0,
			"byteLength":288,
			"byteOffset":59828,
			"target":34962
		},
		{
			"buffer":0,
			"byteLength":192,
			"byteOffset":60116,
			"target":34963
		}
	],
	"buffers":[
		{
			"byteLength":60308,
			"uri":"Xtra_Malignant_salgenroom2.bin"
		}
	]
}
