{
	"asset":{
		"generator":"Khronos glTF Blender I/O v4.5.48",
		"version":"2.0"
	},
	"scene":0,
	"scenes":[
		{
			"name":"Scene",
			"nodes":[
				0
			]
		}
	],
	"nodes":[
		{
			"mesh":0,
			"name":"Object"
		}
	],
	"materials":[
		{
			"doubleSided":true,
			"name":"CP_SCREEN",
			"pbrMetallicRoughness":{
				"baseColorFactor":[
					0.800000011920929,
					0.800000011920929,
					0.800000011920929,
					1
				],
				"metallicFactor":0,
				"roughnessFactor":0.5
			}
		},
		{
			"doubleSided":true,
			"name":"CP_ISTRFACE01H",
			"pbrMetallicRoughness":{
				"baseColorFactor":[
					0.800000011920929,
					0.800000011920929,
					0.800000011920929,
					1
				],
				"metallicFactor":0,
				"roughnessFactor":0.5
			}
		},
		{
			"doubleSided":true,
			"name":"CP_IFLO01D",
			"pbrMetallicRoughness":{
				"baseColorFactor":[
					0.800000011920929,
					0.800000011920929,
					0.800000011920929,
					1
				],
				"metallicFactor":0,
				"roughnessFactor":0.5
			}
		},
		{
			"doubleSided":true,
			"name":"CP_ISTAIR01",
			"pbrMetallicRoughness":{
				"baseColorFactor":[
					0.800000011920929,
					0.800000011920929,
					0.800000011920929,
					1
				],
				"metallicFactor":0,
				"roughnessFactor":0.5
			}
		},
		{
			"doubleSided":true,
			"name":"CP_ISPEC02CAP",
			"pbrMetallicRoughness":{
				"baseColorFactor":[
					0.800000011920929,
					0.800000011920929,
					0.800000011920929,
					1
				],
				"metallicFactor":0,
				"roughnessFactor":0.5
			}
		},
		{
			"doubleSided":true,
			"name":"CP_SAND",
			"pbrMetallicRoughness":{
				"baseColorFactor":[
					0.800000011920929,
					0.800000011920929,
					0.800000011920929,
					1
				],
				"metallicFactor":0,
				"roughnessFactor":0.5
			}
		},
		{
			"doubleSided":true,
			"name":"CP_ICOLDECO01",
			"pbrMetallicRoughness":{
				"baseColorFactor":[
					0.800000011920929,
					0.800000011920929,
					0.800000011920929,
					1
				],
				"metallicFactor":0,
				"roughnessFactor":0.5
			}
		},
		{
			"doubleSided":true,
			"name":"CP_ISPEC02B",
			"pbrMetallicRoughness":{
				"baseColorFactor":[
					0.800000011920929,
					0.800000011920929,
					0.800000011920929,
					1
				],
				"metallicFactor":0,
				"roughnessFactor":0.5
			}
		},
		{
			"doubleSided":true,
			"name":"CP_ILIG02C",
			"pbrMetallicRoughness":{
				"baseColorFactor":[
					0.800000011920929,
					0.800000011920929,
					0.800000011920929,
					1
				],
				"metallicFactor":0,
				"roughnessFactor":0.5
			}
		},
		{
			"doubleSided":true,
			"name":"CP_ISPEC01CAP",
			"pbrMetallicRoughness":{
				"baseColorFactor":[
					0.800000011920929,
					0.800000011920929,
					0.800000011920929,
					1
				],
				"metallicFactor":0,
				"roughnessFactor":0.5
			}
		},
		{
			"doubleSided":true,
			"name":"CP_IWAL02F",
			"pbrMetallicRoughness":{
				"baseColorFactor":[
					0.800000011920929,
					0.800000011920929,
					0.800000011920929,
					1
				],
				"metallicFactor":0,
				"roughnessFactor":0.5
			}
		},
		{
			"doubleSided":true,
			"name":"CP_IWAL02B",
			"pbrMetallicRoughness":{
				"baseColorFactor":[
					0.800000011920929,
					0.800000011920929,
					0.800000011920929,
					1
				],
				"metallicFactor":0,
				"roughnessFactor":0.5
			}
		},
		{
			"doubleSided":true,
			"name":"CP_ICOLIGOLA",
			"pbrMetallicRoughness":{
				"baseColorFactor":[
					0.800000011920929,
					0.800000011920929,
					0.800000011920929,
					1
				],
				"metallicFactor":0,
				"roughnessFactor":0.5
			}
		},
		{
			"doubleSided":true,
			"name":"CP_IBOR01",
			"pbrMetallicRoughness":{
				"baseColorFactor":[
					0.800000011920929,
					0.800000011920929,
					0.800000011920929,
					1
				],
				"metallicFactor":0,
				"roughnessFactor":0.5
			}
		},
		{
			"doubleSided":true,
			"name":"CP_ILIG02A",
			"pbrMetallicRoughness":{
				"baseColorFactor":[
					0.800000011920929,
					0.800000011920929,
					0.800000011920929,
					1
				],
				"metallicFactor":0,
				"roughnessFactor":0.5
			}
		},
		{
			"doubleSided":true,
			"name":"CP_ILIG05A",
			"pbrMetallicRoughness":{
				"baseColorFactor":[
					0.800000011920929,
					0.800000011920929,
					0.800000011920929,
					1
				],
				"metallicFactor":0,
				"roughnessFactor":0.5
			}
		}
	],
	"meshes":[
		{
			"name":"Mesh",
			"primitives":[
				{
					"attributes":{
						"POSITION":0,
						"NORMAL":1,
						"TEXCOORD_0":2
					},
					"indices":3,
					"material":0
				},
				{
					"attributes":{
						"POSITION":4,
						"NORMAL":5,
						"TEXCOORD_0":6
					},
					"indices":7,
					"material":1
				},
				{
					"attributes":{
						"POSITION":8,
						"NORMAL":9,
						"TEXCOORD_0":10
					},
					"indices":11,
					"material":2
				},
				{
					"attributes":{
						"POSITION":12,
						"NORMAL":13,
						"TEXCOORD_0":14
					},
					"indices":15,
					"material":3
				},
				{
					"attributes":{
						"POSITION":16,
						"NORMAL":17,
						"TEXCOORD_0":18
					},
					"indices":19,
					"material":4
				},
				{
					"attributes":{
						"POSITION":20,
						"NORMAL":21,
						"TEXCOORD_0":22
					},
					"indices":23,
					"material":5
				},
				{
					"attributes":{
						"POSITION":24,
						"NORMAL":25,
						"TEXCOORD_0":26
					},
					"indices":27,
					"material":6
				},
				{
					"attributes":{
						"POSITION":28,
						"NORMAL":29,
						"TEXCOORD_0":30
					},
					"indices":31,
					"material":7
				},
				{
					"attributes":{
						"POSITION":32,
						"NORMAL":33,
						"TEXCOORD_0":34
					},
					"indices":35,
					"material":8
				},
				{
					"attributes":{
						"POSITION":36,
						"NORMAL":37,
						"TEXCOORD_0":38
					},
					"indices":39,
					"material":9
				},
				{
					"attributes":{
						"POSITION":40,
						"NORMAL":41,
						"TEXCOORD_0":42
					},
					"indices":43,
					"material":10
				},
				{
					"attributes":{
						"POSITION":44,
						"NORMAL":45,
						"TEXCOORD_0":46
					},
					"indices":47,
					"material":11
				},
				{
					"attributes":{
						"POSITION":48,
						"NORMAL":49,
						"TEXCOORD_0":50
					},
					"indices":3,
					"material":12
				},
				{
					"attributes":{
						"POSITION":51,
						"NORMAL":52,
						"TEXCOORD_0":53
					},
					"indices":54,
					"material":13
				},
				{
					"attributes":{
						"POSITION":55,
						"NORMAL":56,
						"TEXCOORD_0":57
					},
					"indices":58,
					"material":14
				},
				{
					"attributes":{
						"POSITION":59,
						"NORMAL":60,
						"TEXCOORD_0":61
					},
					"indices":62,
					"material":15
				}
			]
		}
	],
	"accessors":[
		{
			"bufferView":0,
			"componentType":5126,
			"count":8,
			"max":[
				14.53125,
				17.25,
				-9.46875
			],
			"min":[
				-34.53125,
				17.25,
				-14.53125
			],
			"type":"VEC3"
		},
		{
			"bufferView":1,
			"componentType":5126,
			"count":8,
			"type":"VEC3"
		},
		{
			"bufferView":2,
			"componentType":5126,
			"count":8,
			"type":"VEC2"
		},
		{
			"bufferView":3,
			"componentType":5123,
			"count":12,
			"type":"SCALAR"
		},
		{
			"bufferView":4,
			"componentType":5126,
			"count":64,
			"max":[
				14.53125,
				17.25,
				-7.5
			],
			"min":[
				-34.53125,
				-10.53125,
				-16.5
			],
			"type":"VEC3"
		},
		{
			"bufferView":5,
			"componentType":5126,
			"count":64,
			"type":"VEC3"
		},
		{
			"bufferView":6,
			"componentType":5126,
			"count":64,
			"type":"VEC2"
		},
		{
			"bufferView":7,
			"componentType":5123,
			"count":96,
			"type":"SCALAR"
		},
		{
			"bufferView":8,
			"componentType":5126,
			"count":24,
			"max":[
				18,
				16,
				-6
			],
			"min":[
				-38,
				16,
				-18
			],
			"type":"VEC3"
		},
		{
			"bufferView":9,
			"componentType":5126,
			"count":24,
			"type":"VEC3"
		},
		{
			"bufferView":10,
			"componentType":5126,
			"count":24,
			"type":"VEC2"
		},
		{
			"bufferView":11,
			"componentType":5123,
			"count":72,
			"type":"SCALAR"
		},
		{
			"bufferView":12,
			"componentType":5126,
			"count":112,
			"max":[
				18,
				17,
				-8
			],
			"min":[
				-38,
				-45.25,
				-24
			],
			"type":"VEC3"
		},
		{
			"bufferView":13,
			"componentType":5126,
			"count":112,
			"type":"VEC3"
		},
		{
			"bufferView":14,
			"componentType":5126,
			"count":112,
			"type":"VEC2"
		},
		{
			"bufferView":15,
			"componentType":5123,
			"count":192,
			"type":"SCALAR"
		},
		{
			"bufferView":16,
			"componentType":5126,
			"count":236,
			"max":[
				40,
				10,
				-6
			],
			"min":[
				-60,
				-38,
				-24
			],
			"type":"VEC3"
		},
		{
			"bufferView":17,
			"componentType":5126,
			"count":236,
			"type":"VEC3"
		},
		{
			"bufferView":18,
			"componentType":5126,
			"count":236,
			"type":"VEC2"
		},
		{
			"bufferView":19,
			"componentType":5123,
			"count":396,
			"type":"SCALAR"
		},
		{
			"bufferView":20,
			"componentType":5126,
			"count":282,
			"max":[
				21.53125,
				14,
				-6
			],
			"min":[
				-41.53125,
				-38,
				-24
			],
			"type":"VEC3"
		},
		{
			"bufferView":21,
			"componentType":5126,
			"count":282,
			"type":"VEC3"
		},
		{
			"bufferView":22,
			"componentType":5126,
			"count":282,
			"type":"VEC2"
		},
		{
			"bufferView":23,
			"componentType":5123,
			"count":426,
			"type":"SCALAR"
		},
		{
			"bufferView":24,
			"componentType":5126,
			"count":40,
			"max":[
				18,
				16,
				-6
			],
			"min":[
				-38,
				14,
				-18
			],
			"type":"VEC3"
		},
		{
			"bufferView":25,
			"componentType":5126,
			"count":40,
			"type":"VEC3"
		},
		{
			"bufferView":26,
			"componentType":5126,
			"count":40,
			"type":"VEC2"
		},
		{
			"bufferView":27,
			"componentType":5123,
			"count":72,
			"type":"SCALAR"
		},
		{
			"bufferView":28,
			"componentType":5126,
			"count":330,
			"max":[
				40,
				8.5,
				-6
			],
			"min":[
				-60,
				-45.25,
				-24
			],
			"type":"VEC3"
		},
		{
			"bufferView":29,
			"componentType":5126,
			"count":330,
			"type":"VEC3"
		},
		{
			"bufferView":30,
			"componentType":5126,
			"count":330,
			"type":"VEC2"
		},
		{
			"bufferView":31,
			"componentType":5123,
			"count":858,
			"type":"SCALAR"
		},
		{
			"bufferView":32,
			"componentType":5126,
			"count":8,
			"max":[
				16,
				-29,
				-18
			],
			"min":[
				-36,
				-38,
				-18
			],
			"type":"VEC3"
		},
		{
			"bufferView":33,
			"componentType":5126,
			"count":8,
			"type":"VEC3"
		},
		{
			"bufferView":34,
			"componentType":5126,
			"count":8,
			"type":"VEC2"
		},
		{
			"bufferView":35,
			"componentType":5123,
			"count":12,
			"type":"SCALAR"
		},
		{
			"bufferView":36,
			"componentType":5126,
			"count":96,
			"max":[
				14,
				6.03125,
				-7.5
			],
			"min":[
				-34,
				-10.03125,
				-16.5
			],
			"type":"VEC3"
		},
		{
			"bufferView":37,
			"componentType":5126,
			"count":96,
			"type":"VEC3"
		},
		{
			"bufferView":38,
			"componentType":5126,
			"count":96,
			"type":"VEC2"
		},
		{
			"bufferView":39,
			"componentType":5123,
			"count":144,
			"type":"SCALAR"
		},
		{
			"bufferView":40,
			"componentType":5126,
			"count":36,
			"max":[
				-6,
				5,
				-8
			],
			"min":[
				-14,
				-4,
				-16
			],
			"type":"VEC3"
		},
		{
			"bufferView":41,
			"componentType":5126,
			"count":36,
			"type":"VEC3"
		},
		{
			"bufferView":42,
			"componentType":5126,
			"count":36,
			"type":"VEC2"
		},
		{
			"bufferView":43,
			"componentType":5123,
			"count":84,
			"type":"SCALAR"
		},
		{
			"bufferView":44,
			"componentType":5126,
			"count":64,
			"max":[
				2.03125,
				-4.40625,
				-11
			],
			"min":[
				-21.96875,
				-4.90625,
				-13
			],
			"type":"VEC3"
		},
		{
			"bufferView":45,
			"componentType":5126,
			"count":64,
			"type":"VEC3"
		},
		{
			"bufferView":46,
			"componentType":5126,
			"count":64,
			"type":"VEC2"
		},
		{
			"bufferView":47,
			"componentType":5123,
			"count":96,
			"type":"SCALAR"
		},
		{
			"bufferView":48,
			"componentType":5126,
			"count":8,
			"max":[
				1.71875,
				-5.15625,
				-11.28125
			],
			"min":[
				-21.65625,
				-5.15625,
				-12.6875
			],
			"type":"VEC3"
		},
		{
			"bufferView":49,
			"componentType":5126,
			"count":8,
			"type":"VEC3"
		},
		{
			"bufferView":50,
			"componentType":5126,
			"count":8,
			"type":"VEC2"
		},
		{
			"bufferView":51,
			"componentType":5126,
			"count":48,
			"max":[
				1.84375,
				-4.90625,
				-11.1875
			],
			"min":[
				-21.78125,
				-5.15625,
				-12.78125
			],
			"type":"VEC3"
		},
		{
			"bufferView":52,
			"componentType":5126,
			"count":48,
			"type":"VEC3"
		},
		{
			"bufferView":53,
			"componentType":5126,
			"count":48,
			"type":"VEC2"
		},
		{
			"bufferView":54,
			"componentType":5123,
			"count":96,
			"type":"SCALAR"
		},
		{
			"bufferView":55,
			"componentType":5126,
			"count":32,
			"max":[
				2.03125,
				-4.40625,
				-11
			],
			"min":[
				-21.96875,
				-4.90625,
				-13
			],
			"type":"VEC3"
		},
		{
			"bufferView":56,
			"componentType":5126,
			"count":32,
			"type":"VEC3"
		},
		{
			"bufferView":57,
			"componentType":5126,
			"count":32,
			"type":"VEC2"
		},
		{
			"bufferView":58,
			"componentType":5123,
			"count":48,
			"type":"SCALAR"
		},
		{
			"bufferView":59,
			"componentType":5126,
			"count":16,
			"max":[
				21.75,
				-7.75,
				-9
			],
			"min":[
				-41.75,
				-7.75,
				-15
			],
			"type":"VEC3"
		},
		{
			"bufferView":60,
			"componentType":5126,
			"count":16,
			"type":"VEC3"
		},
		{
			"bufferView":61,
			"componentType":5126,
			"count":16,
			"type":"VEC2"
		},
		{
			"bufferView":62,
			"componentType":5123,
			"count":24,
			"type":"SCALAR"
		}
	],
	"bufferViews":[
		{
			"buffer":0,
			"byteLength":96,
			"byteOffset":0,
			"target":34962
		},
		{
			"buffer":0,
			"byteLength":96,
			"byteOffset":96,
			"target":34962
		},
		{
			"buffer":0,
			"byteLength":64,
			"byteOffset":192,
			"target":34962
		},
		{
			"buffer":0,
			"byteLength":24,
			"byteOffset":256,
			"target":34963
		},
		{
			"buffer":0,
			"byteLength":768,
			"byteOffset":280,
			"target":34962
		},
		{
			"buffer":0,
			"byteLength":768,
			"byteOffset":1048,
			"target":34962
		},
		{
			"buffer":0,
			"byteLength":512,
			"byteOffset":1816,
			"target":34962
		},
		{
			"buffer":0,
			"byteLength":192,
			"byteOffset":2328,
			"target":34963
		},
		{
			"buffer":0,
			"byteLength":288,
			"byteOffset":2520,
			"target":34962
		},
		{
			"buffer":0,
			"byteLength":288,
			"byteOffset":2808,
			"target":34962
		},
		{
			"buffer":0,
			"byteLength":192,
			"byteOffset":3096,
			"target":34962
		},
		{
			"buffer":0,
			"byteLength":144,
			"byteOffset":3288,
			"target":34963
		},
		{
			"buffer":0,
			"byteLength":1344,
			"byteOffset":3432,
			"target":34962
		},
		{
			"buffer":0,
			"byteLength":1344,
			"byteOffset":4776,
			"target":34962
		},
		{
			"buffer":0,
			"byteLength":896,
			"byteOffset":6120,
			"target":34962
		},
		{
			"buffer":0,
			"byteLength":384,
			"byteOffset":7016,
			"target":34963
		},
		{
			"buffer":0,
			"byteLength":2832,
			"byteOffset":7400,
			"target":34962
		},
		{
			"buffer":0,
			"byteLength":2832,
			"byteOffset":10232,
			"target":34962
		},
		{
			"buffer":0,
			"byteLength":1888,
			"byteOffset":13064,
			"target":34962
		},
		{
			"buffer":0,
			"byteLength":792,
			"byteOffset":14952,
			"target":34963
		},
		{
			"buffer":0,
			"byteLength":3384,
			"byteOffset":15744,
			"target":34962
		},
		{
			"buffer":0,
			"byteLength":3384,
			"byteOffset":19128,
			"target":34962
		},
		{
			"buffer":0,
			"byteLength":2256,
			"byteOffset":22512,
			"target":34962
		},
		{
			"buffer":0,
			"byteLength":852,
			"byteOffset":24768,
			"target":34963
		},
		{
			"buffer":0,
			"byteLength":480,
			"byteOffset":25620,
			"target":34962
		},
		{
			"buffer":0,
			"byteLength":480,
			"byteOffset":26100,
			"target":34962
		},
		{
			"buffer":0,
			"byteLength":320,
			"byteOffset":26580,
			"target":34962
		},
		{
			"buffer":0,
			"byteLength":144,
			"byteOffset":26900,
			"target":34963
		},
		{
			"buffer":0,
			"byteLength":3960,
			"byteOffset":27044,
			"target":34962
		},
		{
			"buffer":0,
			"byteLength":3960,
			"byteOffset":31004,
			"target":34962
		},
		{
			"buffer":0,
			"byteLength":2640,
			"byteOffset":34964,
			"target":34962
		},
		{
			"buffer":0,
			"byteLength":1716,
			"byteOffset":37604,
			"target":34963
		},
		{
			"buffer":0,
			"byteLength":96,
			"byteOffset":39320,
			"target":34962
		},
		{
			"buffer":0,
			"byteLength":96,
			"byteOffset":39416,
			"target":34962
		},
		{
			"buffer":0,
			"byteLength":64,
			"byteOffset":39512,
			"target":34962
		},
		{
			"buffer":0,
			"byteLength":24,
			"byteOffset":39576,
			"target":34963
		},
		{
			"buffer":0,
			"byteLength":1152,
			"byteOffset":39600,
			"target":34962
		},
		{
			"buffer":0,
			"byteLength":1152,
			"byteOffset":40752,
			"target":34962
		},
		{
			"buffer":0,
			"byteLength":768,
			"byteOffset":41904,
			"target":34962
		},
		{
			"buffer":0,
			"byteLength":288,
			"byteOffset":42672,
			"target":34963
		},
		{
			"buffer":0,
			"byteLength":432,
			"byteOffset":42960,
			"target":34962
		},
		{
			"buffer":0,
			"byteLength":432,
			"byteOffset":43392,
			"target":34962
		},
		{
			"buffer":0,
			"byteLength":288,
			"byteOffset":43824,
			"target":34962
		},
		{
			"buffer":0,
			"byteLength":168,
			"byteOffset":44112,
			"target":34963
		},
		{
			"buffer":0,
			"byteLength":768,
			"byteOffset":44280,
			"target":34962
		},
		{
			"buffer":0,
			"byteLength":768,
			"byteOffset":45048,
			"target":34962
		},
		{
			"buffer":0,
			"byteLength":512,
			"byteOffset":45816,
			"target":34962
		},
		{
			"buffer":0,
			"byteLength":192,
			"byteOffset":46328,
			"target":34963
		},
		{
			"buffer":0,
			"byteLength":96,
			"byteOffset":46520,
			"target":34962
		},
		{
			"buffer":0,
			"byteLength":96,
			"byteOffset":46616,
			"target":34962
		},
		{
			"buffer":0,
			"byteLength":64,
			"byteOffset":46712,
			"target":34962
		},
		{
			"buffer":0,
			"byteLength":576,
			"byteOffset":46776,
			"target":34962
		},
		{
			"buffer":0,
			"byteLength":576,
			"byteOffset":47352,
			"target":34962
		},
		{
			"buffer":0,
			"byteLength":384,
			"byteOffset":47928,
			"target":34962
		},
		{
			"buffer":0,
			"byteLength":192,
			"byteOffset":48312,
			"target":34963
		},
		{
			"buffer":0,
			"byteLength":384,
			"byteOffset":48504,
			"target":34962
		},
		{
			"buffer":0,
			"byteLength":384,
			"byteOffset":48888,
			"target":34962
		},
		{
			"buffer":0,
			"byteLength":256,
			"byteOffset":49272,
			"target":34962
		},
		{
			"buffer":0,
			"byteLength":96,
			"byteOffset":49528,
			"target":34963
		},
		{
			"buffer":0,
			"byteLength":192,
			"byteOffset":49624,
			"target":34962
		},
		{
			"buffer":0,
			"byteLength":192,
			"byteOffset":49816,
			"target":34962
		},
		{
			"buffer":0,
			"byteLength":128,
			"byteOffset":50008,
			"target":34962
		},
		{
			"buffer":0,
			"byteLength":48,
			"byteOffset":50136,
			"target":34963
		}
	],
	"buffers":[
		{
			"byteLength":50184,
			"uri":"Xtra_Vestige_attackgate.bin"
		}
	]
}
