{
	"asset":{
		"generator":"Khronos glTF Blender I/O v4.5.48",
		"version":"2.0"
	},
	"scene":0,
	"scenes":[
		{
			"name":"Scene",
			"nodes":[
				0
			]
		}
	],
	"nodes":[
		{
			"mesh":0,
			"name":"Object"
		}
	],
	"materials":[
		{
			"doubleSided":true,
			"name":"BE_ITECEI02",
			"pbrMetallicRoughness":{
				"baseColorFactor":[
					0.800000011920929,
					0.800000011920929,
					0.800000011920929,
					1
				],
				"metallicFactor":0,
				"roughnessFactor":0.5
			}
		},
		{
			"doubleSided":true,
			"name":"BE_ICEI01B",
			"pbrMetallicRoughness":{
				"baseColorFactor":[
					0.800000011920929,
					0.800000011920929,
					0.800000011920929,
					1
				],
				"metallicFactor":0,
				"roughnessFactor":0.5
			}
		},
		{
			"doubleSided":true,
			"name":"BE_ICEI02",
			"pbrMetallicRoughness":{
				"baseColorFactor":[
					0.800000011920929,
					0.800000011920929,
					0.800000011920929,
					1
				],
				"metallicFactor":0,
				"roughnessFactor":0.5
			}
		},
		{
			"doubleSided":true,
			"name":"BE_EWAL07",
			"pbrMetallicRoughness":{
				"baseColorFactor":[
					0.800000011920929,
					0.800000011920929,
					0.800000011920929,
					1
				],
				"metallicFactor":0,
				"roughnessFactor":0.5
			}
		},
		{
			"doubleSided":true,
			"name":"BE_ICEI03B",
			"pbrMetallicRoughness":{
				"baseColorFactor":[
					0.800000011920929,
					0.800000011920929,
					0.800000011920929,
					1
				],
				"metallicFactor":0,
				"roughnessFactor":0.5
			}
		},
		{
			"doubleSided":true,
			"name":"BE_ICEI01A",
			"pbrMetallicRoughness":{
				"baseColorFactor":[
					0.800000011920929,
					0.800000011920929,
					0.800000011920929,
					1
				],
				"metallicFactor":0,
				"roughnessFactor":0.5
			}
		},
		{
			"doubleSided":true,
			"name":"BE_EDOO02",
			"pbrMetallicRoughness":{
				"baseColorFactor":[
					0.800000011920929,
					0.800000011920929,
					0.800000011920929,
					1
				],
				"metallicFactor":0,
				"roughnessFactor":0.5
			}
		}
	],
	"meshes":[
		{
			"name":"Mesh",
			"primitives":[
				{
					"attributes":{
						"POSITION":0,
						"NORMAL":1,
						"TEXCOORD_0":2
					},
					"indices":3,
					"material":0
				},
				{
					"attributes":{
						"POSITION":4,
						"NORMAL":5,
						"TEXCOORD_0":6
					},
					"indices":7,
					"material":1
				},
				{
					"attributes":{
						"POSITION":8,
						"NORMAL":9,
						"TEXCOORD_0":10
					},
					"indices":11,
					"material":2
				},
				{
					"attributes":{
						"POSITION":12,
						"NORMAL":13,
						"TEXCOORD_0":14
					},
					"indices":15,
					"material":3
				},
				{
					"attributes":{
						"POSITION":16,
						"NORMAL":17,
						"TEXCOORD_0":18
					},
					"indices":19,
					"material":4
				},
				{
					"attributes":{
						"POSITION":20,
						"NORMAL":21,
						"TEXCOORD_0":22
					},
					"indices":23,
					"material":5
				},
				{
					"attributes":{
						"POSITION":24,
						"NORMAL":25,
						"TEXCOORD_0":26
					},
					"indices":27,
					"material":6
				}
			]
		}
	],
	"accessors":[
		{
			"bufferView":0,
			"componentType":5126,
			"count":128,
			"max":[
				14,
				10,
				8
			],
			"min":[
				-10,
				-10,
				-20
			],
			"type":"VEC3"
		},
		{
			"bufferView":1,
			"componentType":5126,
			"count":128,
			"type":"VEC3"
		},
		{
			"bufferView":2,
			"componentType":5126,
			"count":128,
			"type":"VEC2"
		},
		{
			"bufferView":3,
			"componentType":5123,
			"count":462,
			"type":"SCALAR"
		},
		{
			"bufferView":4,
			"componentType":5126,
			"count":46,
			"max":[
				12,
				2,
				4
			],
			"min":[
				-8,
				-8,
				-20
			],
			"type":"VEC3"
		},
		{
			"bufferView":5,
			"componentType":5126,
			"count":46,
			"type":"VEC3"
		},
		{
			"bufferView":6,
			"componentType":5126,
			"count":46,
			"type":"VEC2"
		},
		{
			"bufferView":7,
			"componentType":5123,
			"count":159,
			"type":"SCALAR"
		},
		{
			"bufferView":8,
			"componentType":5126,
			"count":107,
			"max":[
				12,
				12,
				-8
			],
			"min":[
				-8,
				-10,
				-20
			],
			"type":"VEC3"
		},
		{
			"bufferView":9,
			"componentType":5126,
			"count":107,
			"type":"VEC3"
		},
		{
			"bufferView":10,
			"componentType":5126,
			"count":107,
			"type":"VEC2"
		},
		{
			"bufferView":11,
			"componentType":5123,
			"count":177,
			"type":"SCALAR"
		},
		{
			"bufferView":12,
			"componentType":5126,
			"count":630,
			"max":[
				14,
				13,
				10
			],
			"min":[
				-10,
				-10,
				-20
			],
			"type":"VEC3"
		},
		{
			"bufferView":13,
			"componentType":5126,
			"count":630,
			"type":"VEC3"
		},
		{
			"bufferView":14,
			"componentType":5126,
			"count":630,
			"type":"VEC2"
		},
		{
			"bufferView":15,
			"componentType":5123,
			"count":1506,
			"type":"SCALAR"
		},
		{
			"bufferView":16,
			"componentType":5126,
			"count":202,
			"max":[
				12,
				13,
				10
			],
			"min":[
				-8,
				-10,
				-20
			],
			"type":"VEC3"
		},
		{
			"bufferView":17,
			"componentType":5126,
			"count":202,
			"type":"VEC3"
		},
		{
			"bufferView":18,
			"componentType":5126,
			"count":202,
			"type":"VEC2"
		},
		{
			"bufferView":19,
			"componentType":5123,
			"count":360,
			"type":"SCALAR"
		},
		{
			"bufferView":20,
			"componentType":5126,
			"count":16,
			"max":[
				4.8125,
				9.6875,
				-5.21875
			],
			"min":[
				-0.78125,
				-0.25,
				-10.8125
			],
			"type":"VEC3"
		},
		{
			"bufferView":21,
			"componentType":5126,
			"count":16,
			"type":"VEC3"
		},
		{
			"bufferView":22,
			"componentType":5126,
			"count":16,
			"type":"VEC2"
		},
		{
			"bufferView":23,
			"componentType":5123,
			"count":36,
			"type":"SCALAR"
		},
		{
			"bufferView":24,
			"componentType":5126,
			"count":4,
			"max":[
				6,
				8,
				10
			],
			"min":[
				-2,
				2,
				10
			],
			"type":"VEC3"
		},
		{
			"bufferView":25,
			"componentType":5126,
			"count":4,
			"type":"VEC3"
		},
		{
			"bufferView":26,
			"componentType":5126,
			"count":4,
			"type":"VEC2"
		},
		{
			"bufferView":27,
			"componentType":5123,
			"count":6,
			"type":"SCALAR"
		}
	],
	"bufferViews":[
		{
			"buffer":0,
			"byteLength":1536,
			"byteOffset":0,
			"target":34962
		},
		{
			"buffer":0,
			"byteLength":1536,
			"byteOffset":1536,
			"target":34962
		},
		{
			"buffer":0,
			"byteLength":1024,
			"byteOffset":3072,
			"target":34962
		},
		{
			"buffer":0,
			"byteLength":924,
			"byteOffset":4096,
			"target":34963
		},
		{
			"buffer":0,
			"byteLength":552,
			"byteOffset":5020,
			"target":34962
		},
		{
			"buffer":0,
			"byteLength":552,
			"byteOffset":5572,
			"target":34962
		},
		{
			"buffer":0,
			"byteLength":368,
			"byteOffset":6124,
			"target":34962
		},
		{
			"buffer":0,
			"byteLength":318,
			"byteOffset":6492,
			"target":34963
		},
		{
			"buffer":0,
			"byteLength":1284,
			"byteOffset":6812,
			"target":34962
		},
		{
			"buffer":0,
			"byteLength":1284,
			"byteOffset":8096,
			"target":34962
		},
		{
			"buffer":0,
			"byteLength":856,
			"byteOffset":9380,
			"target":34962
		},
		{
			"buffer":0,
			"byteLength":354,
			"byteOffset":10236,
			"target":34963
		},
		{
			"buffer":0,
			"byteLength":7560,
			"byteOffset":10592,
			"target":34962
		},
		{
			"buffer":0,
			"byteLength":7560,
			"byteOffset":18152,
			"target":34962
		},
		{
			"buffer":0,
			"byteLength":5040,
			"byteOffset":25712,
			"target":34962
		},
		{
			"buffer":0,
			"byteLength":3012,
			"byteOffset":30752,
			"target":34963
		},
		{
			"buffer":0,
			"byteLength":2424,
			"byteOffset":33764,
			"target":34962
		},
		{
			"buffer":0,
			"byteLength":2424,
			"byteOffset":36188,
			"target":34962
		},
		{
			"buffer":0,
			"byteLength":1616,
			"byteOffset":38612,
			"target":34962
		},
		{
			"buffer":0,
			"byteLength":720,
			"byteOffset":40228,
			"target":34963
		},
		{
			"buffer":0,
			"byteLength":192,
			"byteOffset":40948,
			"target":34962
		},
		{
			"buffer":0,
			"byteLength":192,
			"byteOffset":41140,
			"target":34962
		},
		{
			"buffer":0,
			"byteLength":128,
			"byteOffset":41332,
			"target":34962
		},
		{
			"buffer":0,
			"byteLength":72,
			"byteOffset":41460,
			"target":34963
		},
		{
			"buffer":0,
			"byteLength":48,
			"byteOffset":41532,
			"target":34962
		},
		{
			"buffer":0,
			"byteLength":48,
			"byteOffset":41580,
			"target":34962
		},
		{
			"buffer":0,
			"byteLength":32,
			"byteOffset":41628,
			"target":34962
		},
		{
			"buffer":0,
			"byteLength":12,
			"byteOffset":41660,
			"target":34963
		}
	],
	"buffers":[
		{
			"byteLength":41672,
			"uri":"Xtra_HM_BunkerA.bin"
		}
	]
}
