{
	"asset":{
		"generator":"Khronos glTF Blender I/O v4.5.48",
		"version":"2.0"
	},
	"scene":0,
	"scenes":[
		{
			"name":"Scene",
			"nodes":[
				0
			]
		}
	],
	"nodes":[
		{
			"mesh":0,
			"name":"Object"
		}
	],
	"materials":[
		{
			"doubleSided":true,
			"name":"CP_IWAL02F",
			"pbrMetallicRoughness":{
				"baseColorFactor":[
					0.800000011920929,
					0.800000011920929,
					0.800000011920929,
					1
				],
				"metallicFactor":0,
				"roughnessFactor":0.5
			}
		},
		{
			"doubleSided":true,
			"name":"CP_ECOMBO1A",
			"pbrMetallicRoughness":{
				"baseColorFactor":[
					0.800000011920929,
					0.800000011920929,
					0.800000011920929,
					1
				],
				"metallicFactor":0,
				"roughnessFactor":0.5
			}
		},
		{
			"doubleSided":true,
			"name":"CP_ISPEC02CAP",
			"pbrMetallicRoughness":{
				"baseColorFactor":[
					0.800000011920929,
					0.800000011920929,
					0.800000011920929,
					1
				],
				"metallicFactor":0,
				"roughnessFactor":0.5
			}
		},
		{
			"doubleSided":true,
			"name":"CP_ILIG02B",
			"pbrMetallicRoughness":{
				"baseColorFactor":[
					0.800000011920929,
					0.800000011920929,
					0.800000011920929,
					1
				],
				"metallicFactor":0,
				"roughnessFactor":0.5
			}
		},
		{
			"doubleSided":true,
			"name":"CP_EWAL01",
			"pbrMetallicRoughness":{
				"baseColorFactor":[
					0.800000011920929,
					0.800000011920929,
					0.800000011920929,
					1
				],
				"metallicFactor":0,
				"roughnessFactor":0.5
			}
		},
		{
			"doubleSided":true,
			"name":"CP_IWAL02B",
			"pbrMetallicRoughness":{
				"baseColorFactor":[
					0.800000011920929,
					0.800000011920929,
					0.800000011920929,
					1
				],
				"metallicFactor":0,
				"roughnessFactor":0.5
			}
		},
		{
			"doubleSided":true,
			"name":"CP_IWAL02D",
			"pbrMetallicRoughness":{
				"baseColorFactor":[
					0.800000011920929,
					0.800000011920929,
					0.800000011920929,
					1
				],
				"metallicFactor":0,
				"roughnessFactor":0.5
			}
		},
		{
			"doubleSided":true,
			"name":"CP_IBOR03",
			"pbrMetallicRoughness":{
				"baseColorFactor":[
					0.800000011920929,
					0.800000011920929,
					0.800000011920929,
					1
				],
				"metallicFactor":0,
				"roughnessFactor":0.5
			}
		}
	],
	"meshes":[
		{
			"name":"Mesh",
			"primitives":[
				{
					"attributes":{
						"POSITION":0,
						"NORMAL":1,
						"TEXCOORD_0":2
					},
					"indices":3,
					"material":0
				},
				{
					"attributes":{
						"POSITION":4,
						"NORMAL":5,
						"TEXCOORD_0":6
					},
					"indices":7,
					"material":1
				},
				{
					"attributes":{
						"POSITION":8,
						"NORMAL":9,
						"TEXCOORD_0":10
					},
					"indices":11,
					"material":2
				},
				{
					"attributes":{
						"POSITION":12,
						"NORMAL":13,
						"TEXCOORD_0":14
					},
					"indices":15,
					"material":3
				},
				{
					"attributes":{
						"POSITION":16,
						"NORMAL":17,
						"TEXCOORD_0":18
					},
					"indices":19,
					"material":4
				},
				{
					"attributes":{
						"POSITION":20,
						"NORMAL":21,
						"TEXCOORD_0":22
					},
					"indices":23,
					"material":5
				},
				{
					"attributes":{
						"POSITION":24,
						"NORMAL":25,
						"TEXCOORD_0":26
					},
					"indices":27,
					"material":6
				},
				{
					"attributes":{
						"POSITION":28,
						"NORMAL":29,
						"TEXCOORD_0":30
					},
					"indices":31,
					"material":7
				}
			]
		}
	],
	"accessors":[
		{
			"bufferView":0,
			"componentType":5126,
			"count":585,
			"max":[
				8.004194259643555,
				122,
				8.004194259643555
			],
			"min":[
				-8.004194259643555,
				-24,
				-8.004194259643555
			],
			"type":"VEC3"
		},
		{
			"bufferView":1,
			"componentType":5126,
			"count":585,
			"type":"VEC3"
		},
		{
			"bufferView":2,
			"componentType":5126,
			"count":585,
			"type":"VEC2"
		},
		{
			"bufferView":3,
			"componentType":5123,
			"count":1602,
			"type":"SCALAR"
		},
		{
			"bufferView":4,
			"componentType":5126,
			"count":4,
			"max":[
				8,
				-32,
				8
			],
			"min":[
				-8,
				-32,
				-8
			],
			"type":"VEC3"
		},
		{
			"bufferView":5,
			"componentType":5126,
			"count":4,
			"type":"VEC3"
		},
		{
			"bufferView":6,
			"componentType":5126,
			"count":4,
			"type":"VEC2"
		},
		{
			"bufferView":7,
			"componentType":5123,
			"count":6,
			"type":"SCALAR"
		},
		{
			"bufferView":8,
			"componentType":5126,
			"count":134,
			"max":[
				8,
				-24,
				8
			],
			"min":[
				-8,
				-32,
				-8
			],
			"type":"VEC3"
		},
		{
			"bufferView":9,
			"componentType":5126,
			"count":134,
			"type":"VEC3"
		},
		{
			"bufferView":10,
			"componentType":5126,
			"count":134,
			"type":"VEC2"
		},
		{
			"bufferView":11,
			"componentType":5123,
			"count":450,
			"type":"SCALAR"
		},
		{
			"bufferView":12,
			"componentType":5126,
			"count":48,
			"max":[
				8,
				-24,
				7.5
			],
			"min":[
				-8,
				-24,
				-7.5
			],
			"type":"VEC3"
		},
		{
			"bufferView":13,
			"componentType":5126,
			"count":48,
			"type":"VEC3"
		},
		{
			"bufferView":14,
			"componentType":5126,
			"count":48,
			"type":"VEC2"
		},
		{
			"bufferView":15,
			"componentType":5123,
			"count":162,
			"type":"SCALAR"
		},
		{
			"bufferView":16,
			"componentType":5126,
			"count":1018,
			"max":[
				18,
				-15.75,
				4.75
			],
			"min":[
				-18,
				-28,
				-4.75
			],
			"type":"VEC3"
		},
		{
			"bufferView":17,
			"componentType":5126,
			"count":1018,
			"type":"VEC3"
		},
		{
			"bufferView":18,
			"componentType":5126,
			"count":1018,
			"type":"VEC2"
		},
		{
			"bufferView":19,
			"componentType":5123,
			"count":2184,
			"type":"SCALAR"
		},
		{
			"bufferView":20,
			"componentType":5126,
			"count":96,
			"max":[
				18,
				-24.25,
				4.75
			],
			"min":[
				8,
				-28,
				-4.75
			],
			"type":"VEC3"
		},
		{
			"bufferView":21,
			"componentType":5126,
			"count":96,
			"type":"VEC3"
		},
		{
			"bufferView":22,
			"componentType":5126,
			"count":96,
			"type":"VEC2"
		},
		{
			"bufferView":23,
			"componentType":5123,
			"count":192,
			"type":"SCALAR"
		},
		{
			"bufferView":24,
			"componentType":5126,
			"count":98,
			"max":[
				-8,
				-24.25,
				4.75
			],
			"min":[
				-18,
				-28,
				-4.75
			],
			"type":"VEC3"
		},
		{
			"bufferView":25,
			"componentType":5126,
			"count":98,
			"type":"VEC3"
		},
		{
			"bufferView":26,
			"componentType":5126,
			"count":98,
			"type":"VEC2"
		},
		{
			"bufferView":27,
			"componentType":5123,
			"count":198,
			"type":"SCALAR"
		},
		{
			"bufferView":28,
			"componentType":5126,
			"count":80,
			"max":[
				6.75,
				-6,
				6.75
			],
			"min":[
				-6.75,
				-24,
				-6.75
			],
			"type":"VEC3"
		},
		{
			"bufferView":29,
			"componentType":5126,
			"count":80,
			"type":"VEC3"
		},
		{
			"bufferView":30,
			"componentType":5126,
			"count":80,
			"type":"VEC2"
		},
		{
			"bufferView":31,
			"componentType":5123,
			"count":120,
			"type":"SCALAR"
		}
	],
	"bufferViews":[
		{
			"buffer":0,
			"byteLength":7020,
			"byteOffset":0,
			"target":34962
		},
		{
			"buffer":0,
			"byteLength":7020,
			"byteOffset":7020,
			"target":34962
		},
		{
			"buffer":0,
			"byteLength":4680,
			"byteOffset":14040,
			"target":34962
		},
		{
			"buffer":0,
			"byteLength":3204,
			"byteOffset":18720,
			"target":34963
		},
		{
			"buffer":0,
			"byteLength":48,
			"byteOffset":21924,
			"target":34962
		},
		{
			"buffer":0,
			"byteLength":48,
			"byteOffset":21972,
			"target":34962
		},
		{
			"buffer":0,
			"byteLength":32,
			"byteOffset":22020,
			"target":34962
		},
		{
			"buffer":0,
			"byteLength":12,
			"byteOffset":22052,
			"target":34963
		},
		{
			"buffer":0,
			"byteLength":1608,
			"byteOffset":22064,
			"target":34962
		},
		{
			"buffer":0,
			"byteLength":1608,
			"byteOffset":23672,
			"target":34962
		},
		{
			"buffer":0,
			"byteLength":1072,
			"byteOffset":25280,
			"target":34962
		},
		{
			"buffer":0,
			"byteLength":900,
			"byteOffset":26352,
			"target":34963
		},
		{
			"buffer":0,
			"byteLength":576,
			"byteOffset":27252,
			"target":34962
		},
		{
			"buffer":0,
			"byteLength":576,
			"byteOffset":27828,
			"target":34962
		},
		{
			"buffer":0,
			"byteLength":384,
			"byteOffset":28404,
			"target":34962
		},
		{
			"buffer":0,
			"byteLength":324,
			"byteOffset":28788,
			"target":34963
		},
		{
			"buffer":0,
			"byteLength":12216,
			"byteOffset":29112,
			"target":34962
		},
		{
			"buffer":0,
			"byteLength":12216,
			"byteOffset":41328,
			"target":34962
		},
		{
			"buffer":0,
			"byteLength":8144,
			"byteOffset":53544,
			"target":34962
		},
		{
			"buffer":0,
			"byteLength":4368,
			"byteOffset":61688,
			"target":34963
		},
		{
			"buffer":0,
			"byteLength":1152,
			"byteOffset":66056,
			"target":34962
		},
		{
			"buffer":0,
			"byteLength":1152,
			"byteOffset":67208,
			"target":34962
		},
		{
			"buffer":0,
			"byteLength":768,
			"byteOffset":68360,
			"target":34962
		},
		{
			"buffer":0,
			"byteLength":384,
			"byteOffset":69128,
			"target":34963
		},
		{
			"buffer":0,
			"byteLength":1176,
			"byteOffset":69512,
			"target":34962
		},
		{
			"buffer":0,
			"byteLength":1176,
			"byteOffset":70688,
			"target":34962
		},
		{
			"buffer":0,
			"byteLength":784,
			"byteOffset":71864,
			"target":34962
		},
		{
			"buffer":0,
			"byteLength":396,
			"byteOffset":72648,
			"target":34963
		},
		{
			"buffer":0,
			"byteLength":960,
			"byteOffset":73044,
			"target":34962
		},
		{
			"buffer":0,
			"byteLength":960,
			"byteOffset":74004,
			"target":34962
		},
		{
			"buffer":0,
			"byteLength":640,
			"byteOffset":74964,
			"target":34962
		},
		{
			"buffer":0,
			"byteLength":240,
			"byteOffset":75604,
			"target":34963
		}
	],
	"buffers":[
		{
			"byteLength":75844,
			"uri":"Xtra_GraveStone_obtower.bin"
		}
	]
}
