{
	"asset":{
		"generator":"Khronos glTF Blender I/O v4.5.48",
		"version":"2.0"
	},
	"scene":0,
	"scenes":[
		{
			"name":"Scene",
			"nodes":[
				0
			]
		}
	],
	"nodes":[
		{
			"mesh":0,
			"name":"Object"
		}
	],
	"materials":[
		{
			"doubleSided":true,
			"name":"BD_IFLO02",
			"pbrMetallicRoughness":{
				"baseColorFactor":[
					0.800000011920929,
					0.800000011920929,
					0.800000011920929,
					1
				],
				"metallicFactor":0,
				"roughnessFactor":0.5
			}
		},
		{
			"doubleSided":true,
			"name":"BD_EFLO01",
			"pbrMetallicRoughness":{
				"baseColorFactor":[
					0.800000011920929,
					0.800000011920929,
					0.800000011920929,
					1
				],
				"metallicFactor":0,
				"roughnessFactor":0.5
			}
		},
		{
			"doubleSided":true,
			"name":"BD_IBOR6",
			"pbrMetallicRoughness":{
				"baseColorFactor":[
					0.800000011920929,
					0.800000011920929,
					0.800000011920929,
					1
				],
				"metallicFactor":0,
				"roughnessFactor":0.5
			}
		},
		{
			"doubleSided":true,
			"name":"BD_EBOR01",
			"pbrMetallicRoughness":{
				"baseColorFactor":[
					0.800000011920929,
					0.800000011920929,
					0.800000011920929,
					1
				],
				"metallicFactor":0,
				"roughnessFactor":0.5
			}
		}
	],
	"meshes":[
		{
			"name":"Mesh",
			"primitives":[
				{
					"attributes":{
						"POSITION":0,
						"NORMAL":1,
						"TEXCOORD_0":2
					},
					"indices":3,
					"material":0
				},
				{
					"attributes":{
						"POSITION":4,
						"NORMAL":5,
						"TEXCOORD_0":6
					},
					"indices":7,
					"material":1
				},
				{
					"attributes":{
						"POSITION":8,
						"NORMAL":9,
						"TEXCOORD_0":10
					},
					"indices":11,
					"material":2
				},
				{
					"attributes":{
						"POSITION":12,
						"NORMAL":13,
						"TEXCOORD_0":14
					},
					"indices":15,
					"material":3
				}
			]
		}
	],
	"accessors":[
		{
			"bufferView":0,
			"componentType":5126,
			"count":8,
			"max":[
				0,
				0,
				4
			],
			"min":[
				-8,
				-2,
				-4
			],
			"type":"VEC3"
		},
		{
			"bufferView":1,
			"componentType":5126,
			"count":8,
			"type":"VEC3"
		},
		{
			"bufferView":2,
			"componentType":5126,
			"count":8,
			"type":"VEC2"
		},
		{
			"bufferView":3,
			"componentType":5123,
			"count":12,
			"type":"SCALAR"
		},
		{
			"bufferView":4,
			"componentType":5126,
			"count":136,
			"max":[
				12,
				0,
				16
			],
			"min":[
				-20,
				-2.375,
				-4
			],
			"type":"VEC3"
		},
		{
			"bufferView":5,
			"componentType":5126,
			"count":136,
			"type":"VEC3"
		},
		{
			"bufferView":6,
			"componentType":5126,
			"count":136,
			"type":"VEC2"
		},
		{
			"bufferView":7,
			"componentType":5123,
			"count":204,
			"type":"SCALAR"
		},
		{
			"bufferView":8,
			"componentType":5126,
			"count":176,
			"max":[
				63.875,
				-0.75,
				14
			],
			"min":[
				-64.125,
				-1.25,
				-2.125
			],
			"type":"VEC3"
		},
		{
			"bufferView":9,
			"componentType":5126,
			"count":176,
			"type":"VEC3"
		},
		{
			"bufferView":10,
			"componentType":5126,
			"count":176,
			"type":"VEC2"
		},
		{
			"bufferView":11,
			"componentType":5123,
			"count":264,
			"type":"SCALAR"
		},
		{
			"bufferView":12,
			"componentType":5126,
			"count":195,
			"max":[
				1,
				0,
				5
			],
			"min":[
				-9,
				-2,
				-3
			],
			"type":"VEC3"
		},
		{
			"bufferView":13,
			"componentType":5126,
			"count":195,
			"type":"VEC3"
		},
		{
			"bufferView":14,
			"componentType":5126,
			"count":195,
			"type":"VEC2"
		},
		{
			"bufferView":15,
			"componentType":5123,
			"count":444,
			"type":"SCALAR"
		}
	],
	"bufferViews":[
		{
			"buffer":0,
			"byteLength":96,
			"byteOffset":0,
			"target":34962
		},
		{
			"buffer":0,
			"byteLength":96,
			"byteOffset":96,
			"target":34962
		},
		{
			"buffer":0,
			"byteLength":64,
			"byteOffset":192,
			"target":34962
		},
		{
			"buffer":0,
			"byteLength":24,
			"byteOffset":256,
			"target":34963
		},
		{
			"buffer":0,
			"byteLength":1632,
			"byteOffset":280,
			"target":34962
		},
		{
			"buffer":0,
			"byteLength":1632,
			"byteOffset":1912,
			"target":34962
		},
		{
			"buffer":0,
			"byteLength":1088,
			"byteOffset":3544,
			"target":34962
		},
		{
			"buffer":0,
			"byteLength":408,
			"byteOffset":4632,
			"target":34963
		},
		{
			"buffer":0,
			"byteLength":2112,
			"byteOffset":5040,
			"target":34962
		},
		{
			"buffer":0,
			"byteLength":2112,
			"byteOffset":7152,
			"target":34962
		},
		{
			"buffer":0,
			"byteLength":1408,
			"byteOffset":9264,
			"target":34962
		},
		{
			"buffer":0,
			"byteLength":528,
			"byteOffset":10672,
			"target":34963
		},
		{
			"buffer":0,
			"byteLength":2340,
			"byteOffset":11200,
			"target":34962
		},
		{
			"buffer":0,
			"byteLength":2340,
			"byteOffset":13540,
			"target":34962
		},
		{
			"buffer":0,
			"byteLength":1560,
			"byteOffset":15880,
			"target":34962
		},
		{
			"buffer":0,
			"byteLength":888,
			"byteOffset":17440,
			"target":34963
		}
	],
	"buffers":[
		{
			"byteLength":18328,
			"uri":"Xtra_Malignant_salturretsus1.bin"
		}
	]
}
