{
	"asset":{
		"generator":"Khronos glTF Blender I/O v4.5.48",
		"version":"2.0"
	},
	"scene":0,
	"scenes":[
		{
			"name":"Scene",
			"nodes":[
				0
			]
		}
	],
	"nodes":[
		{
			"mesh":0,
			"name":"Object"
		}
	],
	"materials":[
		{
			"doubleSided":true,
			"name":"DS_TECHWALL_1",
			"pbrMetallicRoughness":{
				"baseColorFactor":[
					0.800000011920929,
					0.800000011920929,
					0.800000011920929,
					1
				],
				"metallicFactor":0,
				"roughnessFactor":0.5
			}
		},
		{
			"doubleSided":true,
			"name":"DS_GENWALL",
			"pbrMetallicRoughness":{
				"baseColorFactor":[
					0.800000011920929,
					0.800000011920929,
					0.800000011920929,
					1
				],
				"metallicFactor":0,
				"roughnessFactor":0.5
			}
		},
		{
			"doubleSided":true,
			"name":"DS_TECHWALL_3",
			"pbrMetallicRoughness":{
				"baseColorFactor":[
					0.800000011920929,
					0.800000011920929,
					0.800000011920929,
					1
				],
				"metallicFactor":0,
				"roughnessFactor":0.5
			}
		},
		{
			"doubleSided":true,
			"name":"DS_ETECHBOR01",
			"pbrMetallicRoughness":{
				"baseColorFactor":[
					0.800000011920929,
					0.800000011920929,
					0.800000011920929,
					1
				],
				"metallicFactor":0,
				"roughnessFactor":0.5
			}
		},
		{
			"doubleSided":true,
			"name":"DS_ILIG06",
			"pbrMetallicRoughness":{
				"baseColorFactor":[
					0.800000011920929,
					0.800000011920929,
					0.800000011920929,
					1
				],
				"metallicFactor":0,
				"roughnessFactor":0.5
			}
		},
		{
			"doubleSided":true,
			"name":"DS_EWALL03",
			"pbrMetallicRoughness":{
				"baseColorFactor":[
					0.800000011920929,
					0.800000011920929,
					0.800000011920929,
					1
				],
				"metallicFactor":0,
				"roughnessFactor":0.5
			}
		},
		{
			"doubleSided":true,
			"name":"DS_EWALL06",
			"pbrMetallicRoughness":{
				"baseColorFactor":[
					0.800000011920929,
					0.800000011920929,
					0.800000011920929,
					1
				],
				"metallicFactor":0,
				"roughnessFactor":0.5
			}
		},
		{
			"doubleSided":true,
			"name":"DS_ILIG02",
			"pbrMetallicRoughness":{
				"baseColorFactor":[
					0.800000011920929,
					0.800000011920929,
					0.800000011920929,
					1
				],
				"metallicFactor":0,
				"roughnessFactor":0.5
			}
		},
		{
			"doubleSided":true,
			"name":"DS_EWALL04",
			"pbrMetallicRoughness":{
				"baseColorFactor":[
					0.800000011920929,
					0.800000011920929,
					0.800000011920929,
					1
				],
				"metallicFactor":0,
				"roughnessFactor":0.5
			}
		},
		{
			"doubleSided":true,
			"name":"DS_WALLDECO_07",
			"pbrMetallicRoughness":{
				"baseColorFactor":[
					0.800000011920929,
					0.800000011920929,
					0.800000011920929,
					1
				],
				"metallicFactor":0,
				"roughnessFactor":0.5
			}
		}
	],
	"meshes":[
		{
			"name":"Mesh",
			"primitives":[
				{
					"attributes":{
						"POSITION":0,
						"NORMAL":1,
						"TEXCOORD_0":2
					},
					"indices":3,
					"material":0
				},
				{
					"attributes":{
						"POSITION":4,
						"NORMAL":5,
						"TEXCOORD_0":6
					},
					"indices":7,
					"material":1
				},
				{
					"attributes":{
						"POSITION":8,
						"NORMAL":9,
						"TEXCOORD_0":10
					},
					"indices":11,
					"material":2
				},
				{
					"attributes":{
						"POSITION":12,
						"NORMAL":13,
						"TEXCOORD_0":14
					},
					"indices":15,
					"material":3
				},
				{
					"attributes":{
						"POSITION":16,
						"NORMAL":17,
						"TEXCOORD_0":18
					},
					"indices":19,
					"material":4
				},
				{
					"attributes":{
						"POSITION":20,
						"NORMAL":21,
						"TEXCOORD_0":22
					},
					"indices":23,
					"material":5
				},
				{
					"attributes":{
						"POSITION":24,
						"NORMAL":25,
						"TEXCOORD_0":26
					},
					"indices":27,
					"material":6
				},
				{
					"attributes":{
						"POSITION":28,
						"NORMAL":29,
						"TEXCOORD_0":30
					},
					"indices":31,
					"material":7
				},
				{
					"attributes":{
						"POSITION":32,
						"NORMAL":33,
						"TEXCOORD_0":34
					},
					"indices":35,
					"material":8
				},
				{
					"attributes":{
						"POSITION":36,
						"NORMAL":37,
						"TEXCOORD_0":38
					},
					"indices":39,
					"material":9
				}
			]
		}
	],
	"accessors":[
		{
			"bufferView":0,
			"componentType":5126,
			"count":113,
			"max":[
				13,
				12,
				24
			],
			"min":[
				-13,
				-20,
				-16
			],
			"type":"VEC3"
		},
		{
			"bufferView":1,
			"componentType":5126,
			"count":113,
			"type":"VEC3"
		},
		{
			"bufferView":2,
			"componentType":5126,
			"count":113,
			"type":"VEC2"
		},
		{
			"bufferView":3,
			"componentType":5123,
			"count":252,
			"type":"SCALAR"
		},
		{
			"bufferView":4,
			"componentType":5126,
			"count":184,
			"max":[
				12,
				12,
				26
			],
			"min":[
				-12,
				-24,
				-16
			],
			"type":"VEC3"
		},
		{
			"bufferView":5,
			"componentType":5126,
			"count":184,
			"type":"VEC3"
		},
		{
			"bufferView":6,
			"componentType":5126,
			"count":184,
			"type":"VEC2"
		},
		{
			"bufferView":7,
			"componentType":5123,
			"count":474,
			"type":"SCALAR"
		},
		{
			"bufferView":8,
			"componentType":5126,
			"count":108,
			"max":[
				13,
				10,
				20
			],
			"min":[
				-13,
				-20,
				-16
			],
			"type":"VEC3"
		},
		{
			"bufferView":9,
			"componentType":5126,
			"count":108,
			"type":"VEC3"
		},
		{
			"bufferView":10,
			"componentType":5126,
			"count":108,
			"type":"VEC2"
		},
		{
			"bufferView":11,
			"componentType":5123,
			"count":210,
			"type":"SCALAR"
		},
		{
			"bufferView":12,
			"componentType":5126,
			"count":128,
			"max":[
				10,
				12,
				26
			],
			"min":[
				-10,
				-22,
				8
			],
			"type":"VEC3"
		},
		{
			"bufferView":13,
			"componentType":5126,
			"count":128,
			"type":"VEC3"
		},
		{
			"bufferView":14,
			"componentType":5126,
			"count":128,
			"type":"VEC2"
		},
		{
			"bufferView":15,
			"componentType":5123,
			"count":216,
			"type":"SCALAR"
		},
		{
			"bufferView":16,
			"componentType":5126,
			"count":24,
			"max":[
				10,
				10,
				16
			],
			"min":[
				-10,
				-15,
				-16
			],
			"type":"VEC3"
		},
		{
			"bufferView":17,
			"componentType":5126,
			"count":24,
			"type":"VEC3"
		},
		{
			"bufferView":18,
			"componentType":5126,
			"count":24,
			"type":"VEC2"
		},
		{
			"bufferView":19,
			"componentType":5123,
			"count":36,
			"type":"SCALAR"
		},
		{
			"bufferView":20,
			"componentType":5126,
			"count":26,
			"max":[
				13,
				14,
				16
			],
			"min":[
				-13,
				4,
				-16
			],
			"type":"VEC3"
		},
		{
			"bufferView":21,
			"componentType":5126,
			"count":26,
			"type":"VEC3"
		},
		{
			"bufferView":22,
			"componentType":5126,
			"count":26,
			"type":"VEC2"
		},
		{
			"bufferView":23,
			"componentType":5123,
			"count":42,
			"type":"SCALAR"
		},
		{
			"bufferView":24,
			"componentType":5126,
			"count":22,
			"max":[
				12,
				15,
				8
			],
			"min":[
				-12,
				12,
				-16
			],
			"type":"VEC3"
		},
		{
			"bufferView":25,
			"componentType":5126,
			"count":22,
			"type":"VEC3"
		},
		{
			"bufferView":26,
			"componentType":5126,
			"count":22,
			"type":"VEC2"
		},
		{
			"bufferView":27,
			"componentType":5123,
			"count":36,
			"type":"SCALAR"
		},
		{
			"bufferView":28,
			"componentType":5126,
			"count":38,
			"max":[
				11,
				13,
				25
			],
			"min":[
				-11,
				-10,
				0
			],
			"type":"VEC3"
		},
		{
			"bufferView":29,
			"componentType":5126,
			"count":38,
			"type":"VEC3"
		},
		{
			"bufferView":30,
			"componentType":5126,
			"count":38,
			"type":"VEC2"
		},
		{
			"bufferView":31,
			"componentType":5123,
			"count":60,
			"type":"SCALAR"
		},
		{
			"bufferView":32,
			"componentType":5126,
			"count":22,
			"max":[
				13,
				-14,
				16
			],
			"min":[
				-13,
				-24,
				-16
			],
			"type":"VEC3"
		},
		{
			"bufferView":33,
			"componentType":5126,
			"count":22,
			"type":"VEC3"
		},
		{
			"bufferView":34,
			"componentType":5126,
			"count":22,
			"type":"VEC2"
		},
		{
			"bufferView":35,
			"componentType":5123,
			"count":30,
			"type":"SCALAR"
		},
		{
			"bufferView":36,
			"componentType":5126,
			"count":4,
			"max":[
				4,
				-1,
				25
			],
			"min":[
				-4,
				-9,
				25
			],
			"type":"VEC3"
		},
		{
			"bufferView":37,
			"componentType":5126,
			"count":4,
			"type":"VEC3"
		},
		{
			"bufferView":38,
			"componentType":5126,
			"count":4,
			"type":"VEC2"
		},
		{
			"bufferView":39,
			"componentType":5123,
			"count":6,
			"type":"SCALAR"
		}
	],
	"bufferViews":[
		{
			"buffer":0,
			"byteLength":1356,
			"byteOffset":0,
			"target":34962
		},
		{
			"buffer":0,
			"byteLength":1356,
			"byteOffset":1356,
			"target":34962
		},
		{
			"buffer":0,
			"byteLength":904,
			"byteOffset":2712,
			"target":34962
		},
		{
			"buffer":0,
			"byteLength":504,
			"byteOffset":3616,
			"target":34963
		},
		{
			"buffer":0,
			"byteLength":2208,
			"byteOffset":4120,
			"target":34962
		},
		{
			"buffer":0,
			"byteLength":2208,
			"byteOffset":6328,
			"target":34962
		},
		{
			"buffer":0,
			"byteLength":1472,
			"byteOffset":8536,
			"target":34962
		},
		{
			"buffer":0,
			"byteLength":948,
			"byteOffset":10008,
			"target":34963
		},
		{
			"buffer":0,
			"byteLength":1296,
			"byteOffset":10956,
			"target":34962
		},
		{
			"buffer":0,
			"byteLength":1296,
			"byteOffset":12252,
			"target":34962
		},
		{
			"buffer":0,
			"byteLength":864,
			"byteOffset":13548,
			"target":34962
		},
		{
			"buffer":0,
			"byteLength":420,
			"byteOffset":14412,
			"target":34963
		},
		{
			"buffer":0,
			"byteLength":1536,
			"byteOffset":14832,
			"target":34962
		},
		{
			"buffer":0,
			"byteLength":1536,
			"byteOffset":16368,
			"target":34962
		},
		{
			"buffer":0,
			"byteLength":1024,
			"byteOffset":17904,
			"target":34962
		},
		{
			"buffer":0,
			"byteLength":432,
			"byteOffset":18928,
			"target":34963
		},
		{
			"buffer":0,
			"byteLength":288,
			"byteOffset":19360,
			"target":34962
		},
		{
			"buffer":0,
			"byteLength":288,
			"byteOffset":19648,
			"target":34962
		},
		{
			"buffer":0,
			"byteLength":192,
			"byteOffset":19936,
			"target":34962
		},
		{
			"buffer":0,
			"byteLength":72,
			"byteOffset":20128,
			"target":34963
		},
		{
			"buffer":0,
			"byteLength":312,
			"byteOffset":20200,
			"target":34962
		},
		{
			"buffer":0,
			"byteLength":312,
			"byteOffset":20512,
			"target":34962
		},
		{
			"buffer":0,
			"byteLength":208,
			"byteOffset":20824,
			"target":34962
		},
		{
			"buffer":0,
			"byteLength":84,
			"byteOffset":21032,
			"target":34963
		},
		{
			"buffer":0,
			"byteLength":264,
			"byteOffset":21116,
			"target":34962
		},
		{
			"buffer":0,
			"byteLength":264,
			"byteOffset":21380,
			"target":34962
		},
		{
			"buffer":0,
			"byteLength":176,
			"byteOffset":21644,
			"target":34962
		},
		{
			"buffer":0,
			"byteLength":72,
			"byteOffset":21820,
			"target":34963
		},
		{
			"buffer":0,
			"byteLength":456,
			"byteOffset":21892,
			"target":34962
		},
		{
			"buffer":0,
			"byteLength":456,
			"byteOffset":22348,
			"target":34962
		},
		{
			"buffer":0,
			"byteLength":304,
			"byteOffset":22804,
			"target":34962
		},
		{
			"buffer":0,
			"byteLength":120,
			"byteOffset":23108,
			"target":34963
		},
		{
			"buffer":0,
			"byteLength":264,
			"byteOffset":23228,
			"target":34962
		},
		{
			"buffer":0,
			"byteLength":264,
			"byteOffset":23492,
			"target":34962
		},
		{
			"buffer":0,
			"byteLength":176,
			"byteOffset":23756,
			"target":34962
		},
		{
			"buffer":0,
			"byteLength":60,
			"byteOffset":23932,
			"target":34963
		},
		{
			"buffer":0,
			"byteLength":48,
			"byteOffset":23992,
			"target":34962
		},
		{
			"buffer":0,
			"byteLength":48,
			"byteOffset":24040,
			"target":34962
		},
		{
			"buffer":0,
			"byteLength":32,
			"byteOffset":24088,
			"target":34962
		},
		{
			"buffer":0,
			"byteLength":12,
			"byteOffset":24120,
			"target":34963
		}
	],
	"buffers":[
		{
			"byteLength":24132,
			"uri":"Xtra_Hellfire_dwall_ccb1.bin"
		}
	]
}
