{
	"asset":{
		"generator":"Khronos glTF Blender I/O v4.5.48",
		"version":"2.0"
	},
	"scene":0,
	"scenes":[
		{
			"name":"Scene",
			"nodes":[
				0
			]
		}
	],
	"nodes":[
		{
			"mesh":0,
			"name":"Object"
		}
	],
	"materials":[
		{
			"doubleSided":true,
			"name":"DS_TECHWALL_3",
			"pbrMetallicRoughness":{
				"baseColorFactor":[
					0.800000011920929,
					0.800000011920929,
					0.800000011920929,
					1
				],
				"metallicFactor":0,
				"roughnessFactor":0.5
			}
		},
		{
			"doubleSided":true,
			"name":"DS_ICEILIG01",
			"pbrMetallicRoughness":{
				"baseColorFactor":[
					0.800000011920929,
					0.800000011920929,
					0.800000011920929,
					1
				],
				"metallicFactor":0,
				"roughnessFactor":0.5
			}
		},
		{
			"doubleSided":true,
			"name":"DS_EWALL06",
			"pbrMetallicRoughness":{
				"baseColorFactor":[
					0.800000011920929,
					0.800000011920929,
					0.800000011920929,
					1
				],
				"metallicFactor":0,
				"roughnessFactor":0.5
			}
		},
		{
			"doubleSided":true,
			"name":"DS_IWAL01",
			"pbrMetallicRoughness":{
				"baseColorFactor":[
					0.800000011920929,
					0.800000011920929,
					0.800000011920929,
					1
				],
				"metallicFactor":0,
				"roughnessFactor":0.5
			}
		},
		{
			"doubleSided":true,
			"name":"DS_EWALL05",
			"pbrMetallicRoughness":{
				"baseColorFactor":[
					0.800000011920929,
					0.800000011920929,
					0.800000011920929,
					1
				],
				"metallicFactor":0,
				"roughnessFactor":0.5
			}
		},
		{
			"doubleSided":true,
			"name":"DS_GENWALL",
			"pbrMetallicRoughness":{
				"baseColorFactor":[
					0.800000011920929,
					0.800000011920929,
					0.800000011920929,
					1
				],
				"metallicFactor":0,
				"roughnessFactor":0.5
			}
		}
	],
	"meshes":[
		{
			"name":"Mesh",
			"primitives":[
				{
					"attributes":{
						"POSITION":0,
						"NORMAL":1,
						"TEXCOORD_0":2
					},
					"indices":3,
					"material":0
				},
				{
					"attributes":{
						"POSITION":4,
						"NORMAL":5,
						"TEXCOORD_0":6
					},
					"indices":7,
					"material":1
				},
				{
					"attributes":{
						"POSITION":8,
						"NORMAL":9,
						"TEXCOORD_0":10
					},
					"indices":11,
					"material":2
				},
				{
					"attributes":{
						"POSITION":12,
						"NORMAL":13,
						"TEXCOORD_0":14
					},
					"indices":15,
					"material":3
				},
				{
					"attributes":{
						"POSITION":16,
						"NORMAL":17,
						"TEXCOORD_0":18
					},
					"indices":19,
					"material":4
				},
				{
					"attributes":{
						"POSITION":20,
						"NORMAL":21,
						"TEXCOORD_0":22
					},
					"indices":23,
					"material":5
				}
			]
		}
	],
	"accessors":[
		{
			"bufferView":0,
			"componentType":5126,
			"count":164,
			"max":[
				6,
				-22,
				6
			],
			"min":[
				-6,
				-27,
				-6
			],
			"type":"VEC3"
		},
		{
			"bufferView":1,
			"componentType":5126,
			"count":164,
			"type":"VEC3"
		},
		{
			"bufferView":2,
			"componentType":5126,
			"count":164,
			"type":"VEC2"
		},
		{
			"bufferView":3,
			"componentType":5123,
			"count":354,
			"type":"SCALAR"
		},
		{
			"bufferView":4,
			"componentType":5126,
			"count":8,
			"max":[
				3.5,
				-23,
				3.5
			],
			"min":[
				-3.5,
				-23,
				-3.5
			],
			"type":"VEC3"
		},
		{
			"bufferView":5,
			"componentType":5126,
			"count":8,
			"type":"VEC3"
		},
		{
			"bufferView":6,
			"componentType":5126,
			"count":8,
			"type":"VEC2"
		},
		{
			"bufferView":7,
			"componentType":5123,
			"count":18,
			"type":"SCALAR"
		},
		{
			"bufferView":8,
			"componentType":5126,
			"count":44,
			"max":[
				6,
				-22,
				6
			],
			"min":[
				-6,
				-22,
				-6
			],
			"type":"VEC3"
		},
		{
			"bufferView":9,
			"componentType":5126,
			"count":44,
			"type":"VEC3"
		},
		{
			"bufferView":10,
			"componentType":5126,
			"count":44,
			"type":"VEC2"
		},
		{
			"bufferView":11,
			"componentType":5123,
			"count":96,
			"type":"SCALAR"
		},
		{
			"bufferView":12,
			"componentType":5126,
			"count":64,
			"max":[
				62,
				-20,
				62
			],
			"min":[
				-62,
				-23.5,
				-62
			],
			"type":"VEC3"
		},
		{
			"bufferView":13,
			"componentType":5126,
			"count":64,
			"type":"VEC3"
		},
		{
			"bufferView":14,
			"componentType":5126,
			"count":64,
			"type":"VEC2"
		},
		{
			"bufferView":15,
			"componentType":5123,
			"count":96,
			"type":"SCALAR"
		},
		{
			"bufferView":16,
			"componentType":5126,
			"count":32,
			"max":[
				5.5,
				-22,
				5.5
			],
			"min":[
				-5.5,
				-23,
				-5.5
			],
			"type":"VEC3"
		},
		{
			"bufferView":17,
			"componentType":5126,
			"count":32,
			"type":"VEC3"
		},
		{
			"bufferView":18,
			"componentType":5126,
			"count":32,
			"type":"VEC2"
		},
		{
			"bufferView":19,
			"componentType":5123,
			"count":48,
			"type":"SCALAR"
		},
		{
			"bufferView":20,
			"componentType":5126,
			"count":312,
			"max":[
				68,
				-19.5,
				68
			],
			"min":[
				-68,
				-24,
				-68
			],
			"type":"VEC3"
		},
		{
			"bufferView":21,
			"componentType":5126,
			"count":312,
			"type":"VEC3"
		},
		{
			"bufferView":22,
			"componentType":5126,
			"count":312,
			"type":"VEC2"
		},
		{
			"bufferView":23,
			"componentType":5123,
			"count":528,
			"type":"SCALAR"
		}
	],
	"bufferViews":[
		{
			"buffer":0,
			"byteLength":1968,
			"byteOffset":0,
			"target":34962
		},
		{
			"buffer":0,
			"byteLength":1968,
			"byteOffset":1968,
			"target":34962
		},
		{
			"buffer":0,
			"byteLength":1312,
			"byteOffset":3936,
			"target":34962
		},
		{
			"buffer":0,
			"byteLength":708,
			"byteOffset":5248,
			"target":34963
		},
		{
			"buffer":0,
			"byteLength":96,
			"byteOffset":5956,
			"target":34962
		},
		{
			"buffer":0,
			"byteLength":96,
			"byteOffset":6052,
			"target":34962
		},
		{
			"buffer":0,
			"byteLength":64,
			"byteOffset":6148,
			"target":34962
		},
		{
			"buffer":0,
			"byteLength":36,
			"byteOffset":6212,
			"target":34963
		},
		{
			"buffer":0,
			"byteLength":528,
			"byteOffset":6248,
			"target":34962
		},
		{
			"buffer":0,
			"byteLength":528,
			"byteOffset":6776,
			"target":34962
		},
		{
			"buffer":0,
			"byteLength":352,
			"byteOffset":7304,
			"target":34962
		},
		{
			"buffer":0,
			"byteLength":192,
			"byteOffset":7656,
			"target":34963
		},
		{
			"buffer":0,
			"byteLength":768,
			"byteOffset":7848,
			"target":34962
		},
		{
			"buffer":0,
			"byteLength":768,
			"byteOffset":8616,
			"target":34962
		},
		{
			"buffer":0,
			"byteLength":512,
			"byteOffset":9384,
			"target":34962
		},
		{
			"buffer":0,
			"byteLength":192,
			"byteOffset":9896,
			"target":34963
		},
		{
			"buffer":0,
			"byteLength":384,
			"byteOffset":10088,
			"target":34962
		},
		{
			"buffer":0,
			"byteLength":384,
			"byteOffset":10472,
			"target":34962
		},
		{
			"buffer":0,
			"byteLength":256,
			"byteOffset":10856,
			"target":34962
		},
		{
			"buffer":0,
			"byteLength":96,
			"byteOffset":11112,
			"target":34963
		},
		{
			"buffer":0,
			"byteLength":3744,
			"byteOffset":11208,
			"target":34962
		},
		{
			"buffer":0,
			"byteLength":3744,
			"byteOffset":14952,
			"target":34962
		},
		{
			"buffer":0,
			"byteLength":2496,
			"byteOffset":18696,
			"target":34962
		},
		{
			"buffer":0,
			"byteLength":1056,
			"byteOffset":21192,
			"target":34963
		}
	],
	"buffers":[
		{
			"byteLength":22248,
			"uri":"Xtra_dmisc_-nefflagstand1_x2.bin"
		}
	]
}
