{
	"asset":{
		"generator":"Khronos glTF Blender I/O v4.5.48",
		"version":"2.0"
	},
	"scene":0,
	"scenes":[
		{
			"name":"Scene",
			"nodes":[
				0
			]
		}
	],
	"nodes":[
		{
			"mesh":0,
			"name":"Object"
		}
	],
	"materials":[
		{
			"doubleSided":true,
			"name":"BD_IFLO01",
			"pbrMetallicRoughness":{
				"baseColorFactor":[
					0.800000011920929,
					0.800000011920929,
					0.800000011920929,
					1
				],
				"metallicFactor":0,
				"roughnessFactor":0.5
			}
		},
		{
			"doubleSided":true,
			"name":"BD_EWAL03C",
			"pbrMetallicRoughness":{
				"baseColorFactor":[
					0.800000011920929,
					0.800000011920929,
					0.800000011920929,
					1
				],
				"metallicFactor":0,
				"roughnessFactor":0.5
			}
		},
		{
			"doubleSided":true,
			"name":"BD_IWAL01E",
			"pbrMetallicRoughness":{
				"baseColorFactor":[
					0.800000011920929,
					0.800000011920929,
					0.800000011920929,
					1
				],
				"metallicFactor":0,
				"roughnessFactor":0.5
			}
		},
		{
			"doubleSided":true,
			"name":"BD_IBOR10",
			"pbrMetallicRoughness":{
				"baseColorFactor":[
					0.800000011920929,
					0.800000011920929,
					0.800000011920929,
					1
				],
				"metallicFactor":0,
				"roughnessFactor":0.5
			}
		},
		{
			"doubleSided":true,
			"name":"BD_ICEILIG03",
			"pbrMetallicRoughness":{
				"baseColorFactor":[
					0.800000011920929,
					0.800000011920929,
					0.800000011920929,
					1
				],
				"metallicFactor":0,
				"roughnessFactor":0.5
			}
		},
		{
			"doubleSided":true,
			"name":"BD_EBOR04",
			"pbrMetallicRoughness":{
				"baseColorFactor":[
					0.800000011920929,
					0.800000011920929,
					0.800000011920929,
					1
				],
				"metallicFactor":0,
				"roughnessFactor":0.5
			}
		},
		{
			"doubleSided":true,
			"name":"BD_THRESH01A",
			"pbrMetallicRoughness":{
				"baseColorFactor":[
					0.800000011920929,
					0.800000011920929,
					0.800000011920929,
					1
				],
				"metallicFactor":0,
				"roughnessFactor":0.5
			}
		}
	],
	"meshes":[
		{
			"name":"Mesh",
			"primitives":[
				{
					"attributes":{
						"POSITION":0,
						"NORMAL":1,
						"TEXCOORD_0":2
					},
					"indices":3,
					"material":0
				},
				{
					"attributes":{
						"POSITION":4,
						"NORMAL":5,
						"TEXCOORD_0":6
					},
					"indices":7,
					"material":1
				},
				{
					"attributes":{
						"POSITION":8,
						"NORMAL":9,
						"TEXCOORD_0":10
					},
					"indices":11,
					"material":2
				},
				{
					"attributes":{
						"POSITION":12,
						"NORMAL":13,
						"TEXCOORD_0":14
					},
					"indices":15,
					"material":3
				},
				{
					"attributes":{
						"POSITION":16,
						"NORMAL":17,
						"TEXCOORD_0":18
					},
					"indices":19,
					"material":4
				},
				{
					"attributes":{
						"POSITION":20,
						"NORMAL":21,
						"TEXCOORD_0":22
					},
					"indices":23,
					"material":5
				},
				{
					"attributes":{
						"POSITION":24,
						"NORMAL":25,
						"TEXCOORD_0":26
					},
					"indices":27,
					"material":6
				}
			]
		}
	],
	"accessors":[
		{
			"bufferView":0,
			"componentType":5126,
			"count":130,
			"max":[
				10,
				25,
				12
			],
			"min":[
				-10,
				0,
				-12
			],
			"type":"VEC3"
		},
		{
			"bufferView":1,
			"componentType":5126,
			"count":130,
			"type":"VEC3"
		},
		{
			"bufferView":2,
			"componentType":5126,
			"count":130,
			"type":"VEC2"
		},
		{
			"bufferView":3,
			"componentType":5123,
			"count":396,
			"type":"SCALAR"
		},
		{
			"bufferView":4,
			"componentType":5126,
			"count":276,
			"max":[
				8,
				32.5,
				12
			],
			"min":[
				-8,
				-6,
				-10
			],
			"type":"VEC3"
		},
		{
			"bufferView":5,
			"componentType":5126,
			"count":276,
			"type":"VEC3"
		},
		{
			"bufferView":6,
			"componentType":5126,
			"count":276,
			"type":"VEC2"
		},
		{
			"bufferView":7,
			"componentType":5123,
			"count":714,
			"type":"SCALAR"
		},
		{
			"bufferView":8,
			"componentType":5126,
			"count":242,
			"max":[
				6,
				32,
				8
			],
			"min":[
				-6,
				0,
				-8
			],
			"type":"VEC3"
		},
		{
			"bufferView":9,
			"componentType":5126,
			"count":242,
			"type":"VEC3"
		},
		{
			"bufferView":10,
			"componentType":5126,
			"count":242,
			"type":"VEC2"
		},
		{
			"bufferView":11,
			"componentType":5123,
			"count":510,
			"type":"SCALAR"
		},
		{
			"bufferView":12,
			"componentType":5126,
			"count":466,
			"max":[
				10,
				32.5,
				10
			],
			"min":[
				-10,
				0,
				-12
			],
			"type":"VEC3"
		},
		{
			"bufferView":13,
			"componentType":5126,
			"count":466,
			"type":"VEC3"
		},
		{
			"bufferView":14,
			"componentType":5126,
			"count":466,
			"type":"VEC2"
		},
		{
			"bufferView":15,
			"componentType":5123,
			"count":918,
			"type":"SCALAR"
		},
		{
			"bufferView":16,
			"componentType":5126,
			"count":8,
			"max":[
				5.75,
				13.125,
				7.75
			],
			"min":[
				-5.75,
				11.875,
				7
			],
			"type":"VEC3"
		},
		{
			"bufferView":17,
			"componentType":5126,
			"count":8,
			"type":"VEC3"
		},
		{
			"bufferView":18,
			"componentType":5126,
			"count":8,
			"type":"VEC2"
		},
		{
			"bufferView":19,
			"componentType":5123,
			"count":12,
			"type":"SCALAR"
		},
		{
			"bufferView":20,
			"componentType":5126,
			"count":28,
			"max":[
				8,
				32.5,
				10
			],
			"min":[
				-8,
				32,
				-10
			],
			"type":"VEC3"
		},
		{
			"bufferView":21,
			"componentType":5126,
			"count":28,
			"type":"VEC3"
		},
		{
			"bufferView":22,
			"componentType":5126,
			"count":28,
			"type":"VEC2"
		},
		{
			"bufferView":23,
			"componentType":5123,
			"count":48,
			"type":"SCALAR"
		},
		{
			"bufferView":24,
			"componentType":5126,
			"count":8,
			"max":[
				4.75,
				14,
				-5.25
			],
			"min":[
				-4.75,
				9,
				-6.75
			],
			"type":"VEC3"
		},
		{
			"bufferView":25,
			"componentType":5126,
			"count":8,
			"type":"VEC3"
		},
		{
			"bufferView":26,
			"componentType":5126,
			"count":8,
			"type":"VEC2"
		},
		{
			"bufferView":27,
			"componentType":5123,
			"count":12,
			"type":"SCALAR"
		}
	],
	"bufferViews":[
		{
			"buffer":0,
			"byteLength":1560,
			"byteOffset":0,
			"target":34962
		},
		{
			"buffer":0,
			"byteLength":1560,
			"byteOffset":1560,
			"target":34962
		},
		{
			"buffer":0,
			"byteLength":1040,
			"byteOffset":3120,
			"target":34962
		},
		{
			"buffer":0,
			"byteLength":792,
			"byteOffset":4160,
			"target":34963
		},
		{
			"buffer":0,
			"byteLength":3312,
			"byteOffset":4952,
			"target":34962
		},
		{
			"buffer":0,
			"byteLength":3312,
			"byteOffset":8264,
			"target":34962
		},
		{
			"buffer":0,
			"byteLength":2208,
			"byteOffset":11576,
			"target":34962
		},
		{
			"buffer":0,
			"byteLength":1428,
			"byteOffset":13784,
			"target":34963
		},
		{
			"buffer":0,
			"byteLength":2904,
			"byteOffset":15212,
			"target":34962
		},
		{
			"buffer":0,
			"byteLength":2904,
			"byteOffset":18116,
			"target":34962
		},
		{
			"buffer":0,
			"byteLength":1936,
			"byteOffset":21020,
			"target":34962
		},
		{
			"buffer":0,
			"byteLength":1020,
			"byteOffset":22956,
			"target":34963
		},
		{
			"buffer":0,
			"byteLength":5592,
			"byteOffset":23976,
			"target":34962
		},
		{
			"buffer":0,
			"byteLength":5592,
			"byteOffset":29568,
			"target":34962
		},
		{
			"buffer":0,
			"byteLength":3728,
			"byteOffset":35160,
			"target":34962
		},
		{
			"buffer":0,
			"byteLength":1836,
			"byteOffset":38888,
			"target":34963
		},
		{
			"buffer":0,
			"byteLength":96,
			"byteOffset":40724,
			"target":34962
		},
		{
			"buffer":0,
			"byteLength":96,
			"byteOffset":40820,
			"target":34962
		},
		{
			"buffer":0,
			"byteLength":64,
			"byteOffset":40916,
			"target":34962
		},
		{
			"buffer":0,
			"byteLength":24,
			"byteOffset":40980,
			"target":34963
		},
		{
			"buffer":0,
			"byteLength":336,
			"byteOffset":41004,
			"target":34962
		},
		{
			"buffer":0,
			"byteLength":336,
			"byteOffset":41340,
			"target":34962
		},
		{
			"buffer":0,
			"byteLength":224,
			"byteOffset":41676,
			"target":34962
		},
		{
			"buffer":0,
			"byteLength":96,
			"byteOffset":41900,
			"target":34963
		},
		{
			"buffer":0,
			"byteLength":96,
			"byteOffset":41996,
			"target":34962
		},
		{
			"buffer":0,
			"byteLength":96,
			"byteOffset":42092,
			"target":34962
		},
		{
			"buffer":0,
			"byteLength":64,
			"byteOffset":42188,
			"target":34962
		},
		{
			"buffer":0,
			"byteLength":24,
			"byteOffset":42252,
			"target":34963
		}
	],
	"buffers":[
		{
			"byteLength":42276,
			"uri":"anthem_cardiactower.bin"
		}
	]
}
