{
	"asset":{
		"generator":"Khronos glTF Blender I/O v4.5.48",
		"version":"2.0"
	},
	"scene":0,
	"scenes":[
		{
			"name":"Scene",
			"nodes":[
				0
			]
		}
	],
	"nodes":[
		{
			"mesh":0,
			"name":"Object"
		}
	],
	"materials":[
		{
			"doubleSided":true,
			"name":"BD_IFLO01",
			"pbrMetallicRoughness":{
				"baseColorFactor":[
					0.800000011920929,
					0.800000011920929,
					0.800000011920929,
					1
				],
				"metallicFactor":0,
				"roughnessFactor":0.5
			}
		},
		{
			"doubleSided":true,
			"name":"BD_IWAL01E",
			"pbrMetallicRoughness":{
				"baseColorFactor":[
					0.800000011920929,
					0.800000011920929,
					0.800000011920929,
					1
				],
				"metallicFactor":0,
				"roughnessFactor":0.5
			}
		},
		{
			"doubleSided":true,
			"name":"BD_EBOR04",
			"pbrMetallicRoughness":{
				"baseColorFactor":[
					0.800000011920929,
					0.800000011920929,
					0.800000011920929,
					1
				],
				"metallicFactor":0,
				"roughnessFactor":0.5
			}
		},
		{
			"doubleSided":true,
			"name":"BD_IBOR10",
			"pbrMetallicRoughness":{
				"baseColorFactor":[
					0.800000011920929,
					0.800000011920929,
					0.800000011920929,
					1
				],
				"metallicFactor":0,
				"roughnessFactor":0.5
			}
		},
		{
			"doubleSided":true,
			"name":"BD_ILIG01A",
			"pbrMetallicRoughness":{
				"baseColorFactor":[
					0.800000011920929,
					0.800000011920929,
					0.800000011920929,
					1
				],
				"metallicFactor":0,
				"roughnessFactor":0.5
			}
		},
		{
			"doubleSided":true,
			"name":"BD_EWAL03C",
			"pbrMetallicRoughness":{
				"baseColorFactor":[
					0.800000011920929,
					0.800000011920929,
					0.800000011920929,
					1
				],
				"metallicFactor":0,
				"roughnessFactor":0.5
			}
		},
		{
			"doubleSided":true,
			"name":"BD_ICEILIG03",
			"pbrMetallicRoughness":{
				"baseColorFactor":[
					0.800000011920929,
					0.800000011920929,
					0.800000011920929,
					1
				],
				"metallicFactor":0,
				"roughnessFactor":0.5
			}
		},
		{
			"doubleSided":true,
			"name":"BD_THRESH01A",
			"pbrMetallicRoughness":{
				"baseColorFactor":[
					0.800000011920929,
					0.800000011920929,
					0.800000011920929,
					1
				],
				"metallicFactor":0,
				"roughnessFactor":0.5
			}
		}
	],
	"meshes":[
		{
			"name":"Mesh",
			"primitives":[
				{
					"attributes":{
						"POSITION":0,
						"NORMAL":1,
						"TEXCOORD_0":2
					},
					"indices":3,
					"material":0
				},
				{
					"attributes":{
						"POSITION":4,
						"NORMAL":5,
						"TEXCOORD_0":6
					},
					"indices":7,
					"material":1
				},
				{
					"attributes":{
						"POSITION":8,
						"NORMAL":9,
						"TEXCOORD_0":10
					},
					"indices":11,
					"material":2
				},
				{
					"attributes":{
						"POSITION":12,
						"NORMAL":13,
						"TEXCOORD_0":14
					},
					"indices":15,
					"material":3
				},
				{
					"attributes":{
						"POSITION":16,
						"NORMAL":17,
						"TEXCOORD_0":18
					},
					"indices":19,
					"material":4
				},
				{
					"attributes":{
						"POSITION":20,
						"NORMAL":21,
						"TEXCOORD_0":22
					},
					"indices":23,
					"material":5
				},
				{
					"attributes":{
						"POSITION":24,
						"NORMAL":25,
						"TEXCOORD_0":26
					},
					"indices":27,
					"material":6
				},
				{
					"attributes":{
						"POSITION":28,
						"NORMAL":29,
						"TEXCOORD_0":30
					},
					"indices":31,
					"material":7
				}
			]
		}
	],
	"accessors":[
		{
			"bufferView":0,
			"componentType":5126,
			"count":372,
			"max":[
				42,
				1.2657000513793012e-15,
				42
			],
			"min":[
				-37,
				-9,
				-42
			],
			"type":"VEC3"
		},
		{
			"bufferView":1,
			"componentType":5126,
			"count":372,
			"type":"VEC3"
		},
		{
			"bufferView":2,
			"componentType":5126,
			"count":372,
			"type":"VEC2"
		},
		{
			"bufferView":3,
			"componentType":5123,
			"count":918,
			"type":"SCALAR"
		},
		{
			"bufferView":4,
			"componentType":5126,
			"count":160,
			"max":[
				34,
				14,
				34
			],
			"min":[
				-19,
				-7.5,
				-34
			],
			"type":"VEC3"
		},
		{
			"bufferView":5,
			"componentType":5126,
			"count":160,
			"type":"VEC3"
		},
		{
			"bufferView":6,
			"componentType":5126,
			"count":160,
			"type":"VEC2"
		},
		{
			"bufferView":7,
			"componentType":5123,
			"count":378,
			"type":"SCALAR"
		},
		{
			"bufferView":8,
			"componentType":5126,
			"count":132,
			"max":[
				34,
				14.5,
				34
			],
			"min":[
				-20,
				-0.5,
				-34
			],
			"type":"VEC3"
		},
		{
			"bufferView":9,
			"componentType":5126,
			"count":132,
			"type":"VEC3"
		},
		{
			"bufferView":10,
			"componentType":5126,
			"count":132,
			"type":"VEC2"
		},
		{
			"bufferView":11,
			"componentType":5123,
			"count":318,
			"type":"SCALAR"
		},
		{
			"bufferView":12,
			"componentType":5126,
			"count":729,
			"max":[
				34,
				15,
				34
			],
			"min":[
				-20,
				-7.5,
				-34
			],
			"type":"VEC3"
		},
		{
			"bufferView":13,
			"componentType":5126,
			"count":729,
			"type":"VEC3"
		},
		{
			"bufferView":14,
			"componentType":5126,
			"count":729,
			"type":"VEC2"
		},
		{
			"bufferView":15,
			"componentType":5123,
			"count":1392,
			"type":"SCALAR"
		},
		{
			"bufferView":16,
			"componentType":5126,
			"count":24,
			"max":[
				19,
				14,
				19
			],
			"min":[
				-19,
				7,
				-19
			],
			"type":"VEC3"
		},
		{
			"bufferView":17,
			"componentType":5126,
			"count":24,
			"type":"VEC3"
		},
		{
			"bufferView":18,
			"componentType":5126,
			"count":24,
			"type":"VEC2"
		},
		{
			"bufferView":19,
			"componentType":5123,
			"count":48,
			"type":"SCALAR"
		},
		{
			"bufferView":20,
			"componentType":5126,
			"count":358,
			"max":[
				42,
				7,
				42
			],
			"min":[
				-37,
				-12,
				-42
			],
			"type":"VEC3"
		},
		{
			"bufferView":21,
			"componentType":5126,
			"count":358,
			"type":"VEC3"
		},
		{
			"bufferView":22,
			"componentType":5126,
			"count":358,
			"type":"VEC2"
		},
		{
			"bufferView":23,
			"componentType":5123,
			"count":762,
			"type":"SCALAR"
		},
		{
			"bufferView":24,
			"componentType":5126,
			"count":16,
			"max":[
				13.25,
				3.875,
				13.25
			],
			"min":[
				-13.25,
				2.625,
				-13.25
			],
			"type":"VEC3"
		},
		{
			"bufferView":25,
			"componentType":5126,
			"count":16,
			"type":"VEC3"
		},
		{
			"bufferView":26,
			"componentType":5126,
			"count":16,
			"type":"VEC2"
		},
		{
			"bufferView":27,
			"componentType":5123,
			"count":24,
			"type":"SCALAR"
		},
		{
			"bufferView":28,
			"componentType":5126,
			"count":16,
			"max":[
				13,
				3.1031676709459893e-16,
				13
			],
			"min":[
				-13,
				-3.5,
				-13
			],
			"type":"VEC3"
		},
		{
			"bufferView":29,
			"componentType":5126,
			"count":16,
			"type":"VEC3"
		},
		{
			"bufferView":30,
			"componentType":5126,
			"count":16,
			"type":"VEC2"
		},
		{
			"bufferView":31,
			"componentType":5123,
			"count":24,
			"type":"SCALAR"
		}
	],
	"bufferViews":[
		{
			"buffer":0,
			"byteLength":4464,
			"byteOffset":0,
			"target":34962
		},
		{
			"buffer":0,
			"byteLength":4464,
			"byteOffset":4464,
			"target":34962
		},
		{
			"buffer":0,
			"byteLength":2976,
			"byteOffset":8928,
			"target":34962
		},
		{
			"buffer":0,
			"byteLength":1836,
			"byteOffset":11904,
			"target":34963
		},
		{
			"buffer":0,
			"byteLength":1920,
			"byteOffset":13740,
			"target":34962
		},
		{
			"buffer":0,
			"byteLength":1920,
			"byteOffset":15660,
			"target":34962
		},
		{
			"buffer":0,
			"byteLength":1280,
			"byteOffset":17580,
			"target":34962
		},
		{
			"buffer":0,
			"byteLength":756,
			"byteOffset":18860,
			"target":34963
		},
		{
			"buffer":0,
			"byteLength":1584,
			"byteOffset":19616,
			"target":34962
		},
		{
			"buffer":0,
			"byteLength":1584,
			"byteOffset":21200,
			"target":34962
		},
		{
			"buffer":0,
			"byteLength":1056,
			"byteOffset":22784,
			"target":34962
		},
		{
			"buffer":0,
			"byteLength":636,
			"byteOffset":23840,
			"target":34963
		},
		{
			"buffer":0,
			"byteLength":8748,
			"byteOffset":24476,
			"target":34962
		},
		{
			"buffer":0,
			"byteLength":8748,
			"byteOffset":33224,
			"target":34962
		},
		{
			"buffer":0,
			"byteLength":5832,
			"byteOffset":41972,
			"target":34962
		},
		{
			"buffer":0,
			"byteLength":2784,
			"byteOffset":47804,
			"target":34963
		},
		{
			"buffer":0,
			"byteLength":288,
			"byteOffset":50588,
			"target":34962
		},
		{
			"buffer":0,
			"byteLength":288,
			"byteOffset":50876,
			"target":34962
		},
		{
			"buffer":0,
			"byteLength":192,
			"byteOffset":51164,
			"target":34962
		},
		{
			"buffer":0,
			"byteLength":96,
			"byteOffset":51356,
			"target":34963
		},
		{
			"buffer":0,
			"byteLength":4296,
			"byteOffset":51452,
			"target":34962
		},
		{
			"buffer":0,
			"byteLength":4296,
			"byteOffset":55748,
			"target":34962
		},
		{
			"buffer":0,
			"byteLength":2864,
			"byteOffset":60044,
			"target":34962
		},
		{
			"buffer":0,
			"byteLength":1524,
			"byteOffset":62908,
			"target":34963
		},
		{
			"buffer":0,
			"byteLength":192,
			"byteOffset":64432,
			"target":34962
		},
		{
			"buffer":0,
			"byteLength":192,
			"byteOffset":64624,
			"target":34962
		},
		{
			"buffer":0,
			"byteLength":128,
			"byteOffset":64816,
			"target":34962
		},
		{
			"buffer":0,
			"byteLength":48,
			"byteOffset":64944,
			"target":34963
		},
		{
			"buffer":0,
			"byteLength":192,
			"byteOffset":64992,
			"target":34962
		},
		{
			"buffer":0,
			"byteLength":192,
			"byteOffset":65184,
			"target":34962
		},
		{
			"buffer":0,
			"byteLength":128,
			"byteOffset":65376,
			"target":34962
		},
		{
			"buffer":0,
			"byteLength":48,
			"byteOffset":65504,
			"target":34963
		}
	],
	"buffers":[
		{
			"byteLength":65552,
			"uri":"anthem_cardiacbase.bin"
		}
	]
}
