{
	"asset":{
		"generator":"Khronos glTF Blender I/O v4.5.48",
		"version":"2.0"
	},
	"scene":0,
	"scenes":[
		{
			"name":"Scene",
			"nodes":[
				0
			]
		}
	],
	"nodes":[
		{
			"mesh":0,
			"name":"Object"
		}
	],
	"materials":[
		{
			"doubleSided":true,
			"name":"BD_IBOR10",
			"pbrMetallicRoughness":{
				"baseColorFactor":[
					0.800000011920929,
					0.800000011920929,
					0.800000011920929,
					1
				],
				"metallicFactor":0,
				"roughnessFactor":0.5
			}
		},
		{
			"doubleSided":true,
			"name":"BD_ICEILIG03",
			"pbrMetallicRoughness":{
				"baseColorFactor":[
					0.800000011920929,
					0.800000011920929,
					0.800000011920929,
					1
				],
				"metallicFactor":0,
				"roughnessFactor":0.5
			}
		},
		{
			"doubleSided":true,
			"name":"BD_IFLO01",
			"pbrMetallicRoughness":{
				"baseColorFactor":[
					0.800000011920929,
					0.800000011920929,
					0.800000011920929,
					1
				],
				"metallicFactor":0,
				"roughnessFactor":0.5
			}
		},
		{
			"doubleSided":true,
			"name":"BD_EBOR04",
			"pbrMetallicRoughness":{
				"baseColorFactor":[
					0.800000011920929,
					0.800000011920929,
					0.800000011920929,
					1
				],
				"metallicFactor":0,
				"roughnessFactor":0.5
			}
		}
	],
	"meshes":[
		{
			"name":"Mesh",
			"primitives":[
				{
					"attributes":{
						"POSITION":0,
						"NORMAL":1,
						"TEXCOORD_0":2
					},
					"indices":3,
					"material":0
				},
				{
					"attributes":{
						"POSITION":4,
						"NORMAL":5,
						"TEXCOORD_0":6
					},
					"indices":7,
					"material":1
				},
				{
					"attributes":{
						"POSITION":8,
						"NORMAL":9,
						"TEXCOORD_0":10
					},
					"indices":11,
					"material":2
				},
				{
					"attributes":{
						"POSITION":12,
						"NORMAL":13,
						"TEXCOORD_0":14
					},
					"indices":15,
					"material":3
				}
			]
		}
	],
	"accessors":[
		{
			"bufferView":0,
			"componentType":5126,
			"count":360,
			"max":[
				7.25,
				0,
				7.25
			],
			"min":[
				-7.25,
				-7.75,
				-7.25
			],
			"type":"VEC3"
		},
		{
			"bufferView":1,
			"componentType":5126,
			"count":360,
			"type":"VEC3"
		},
		{
			"bufferView":2,
			"componentType":5126,
			"count":360,
			"type":"VEC2"
		},
		{
			"bufferView":3,
			"componentType":5123,
			"count":648,
			"type":"SCALAR"
		},
		{
			"bufferView":4,
			"componentType":5126,
			"count":16,
			"max":[
				5.875,
				-3.25,
				5.875
			],
			"min":[
				-5.875,
				-4.5,
				-5.875
			],
			"type":"VEC3"
		},
		{
			"bufferView":5,
			"componentType":5126,
			"count":16,
			"type":"VEC3"
		},
		{
			"bufferView":6,
			"componentType":5126,
			"count":16,
			"type":"VEC2"
		},
		{
			"bufferView":7,
			"componentType":5123,
			"count":24,
			"type":"SCALAR"
		},
		{
			"bufferView":8,
			"componentType":5126,
			"count":32,
			"max":[
				7.25,
				0.5,
				7.25
			],
			"min":[
				-7.25,
				0,
				-7.25
			],
			"type":"VEC3"
		},
		{
			"bufferView":9,
			"componentType":5126,
			"count":32,
			"type":"VEC3"
		},
		{
			"bufferView":10,
			"componentType":5126,
			"count":32,
			"type":"VEC2"
		},
		{
			"bufferView":11,
			"componentType":5123,
			"count":42,
			"type":"SCALAR"
		},
		{
			"bufferView":12,
			"componentType":5126,
			"count":200,
			"max":[
				7.25,
				0.5,
				7.25
			],
			"min":[
				-7.25,
				-28.75,
				-7.25
			],
			"type":"VEC3"
		},
		{
			"bufferView":13,
			"componentType":5126,
			"count":200,
			"type":"VEC3"
		},
		{
			"bufferView":14,
			"componentType":5126,
			"count":200,
			"type":"VEC2"
		},
		{
			"bufferView":15,
			"componentType":5123,
			"count":480,
			"type":"SCALAR"
		}
	],
	"bufferViews":[
		{
			"buffer":0,
			"byteLength":4320,
			"byteOffset":0,
			"target":34962
		},
		{
			"buffer":0,
			"byteLength":4320,
			"byteOffset":4320,
			"target":34962
		},
		{
			"buffer":0,
			"byteLength":2880,
			"byteOffset":8640,
			"target":34962
		},
		{
			"buffer":0,
			"byteLength":1296,
			"byteOffset":11520,
			"target":34963
		},
		{
			"buffer":0,
			"byteLength":192,
			"byteOffset":12816,
			"target":34962
		},
		{
			"buffer":0,
			"byteLength":192,
			"byteOffset":13008,
			"target":34962
		},
		{
			"buffer":0,
			"byteLength":128,
			"byteOffset":13200,
			"target":34962
		},
		{
			"buffer":0,
			"byteLength":48,
			"byteOffset":13328,
			"target":34963
		},
		{
			"buffer":0,
			"byteLength":384,
			"byteOffset":13376,
			"target":34962
		},
		{
			"buffer":0,
			"byteLength":384,
			"byteOffset":13760,
			"target":34962
		},
		{
			"buffer":0,
			"byteLength":256,
			"byteOffset":14144,
			"target":34962
		},
		{
			"buffer":0,
			"byteLength":84,
			"byteOffset":14400,
			"target":34963
		},
		{
			"buffer":0,
			"byteLength":2400,
			"byteOffset":14484,
			"target":34962
		},
		{
			"buffer":0,
			"byteLength":2400,
			"byteOffset":16884,
			"target":34962
		},
		{
			"buffer":0,
			"byteLength":1600,
			"byteOffset":19284,
			"target":34962
		},
		{
			"buffer":0,
			"byteLength":960,
			"byteOffset":20884,
			"target":34963
		}
	],
	"buffers":[
		{
			"byteLength":21844,
			"uri":"anthem_cardiacstand.bin"
		}
	]
}
