{
	"asset":{
		"generator":"Khronos glTF Blender I/O v4.5.48",
		"version":"2.0"
	},
	"scene":0,
	"scenes":[
		{
			"name":"Scene",
			"nodes":[
				0
			]
		}
	],
	"nodes":[
		{
			"mesh":0,
			"name":"Object"
		}
	],
	"materials":[
		{
			"doubleSided":true,
			"name":"E8CLANGFLOOR",
			"pbrMetallicRoughness":{
				"baseColorFactor":[
					0.800000011920929,
					0.800000011920929,
					0.800000011920929,
					1
				],
				"metallicFactor":0,
				"roughnessFactor":0.5
			}
		},
		{
			"doubleSided":true,
			"name":"DS_NEFBLUE1",
			"pbrMetallicRoughness":{
				"baseColorFactor":[
					0.800000011920929,
					0.800000011920929,
					0.800000011920929,
					1
				],
				"metallicFactor":0,
				"roughnessFactor":0.5
			}
		},
		{
			"doubleSided":true,
			"name":"CRUDEWARN",
			"pbrMetallicRoughness":{
				"baseColorFactor":[
					0.800000011920929,
					0.800000011920929,
					0.800000011920929,
					1
				],
				"metallicFactor":0,
				"roughnessFactor":0.5
			}
		},
		{
			"doubleSided":true,
			"name":"DS_NEFBLUE",
			"pbrMetallicRoughness":{
				"baseColorFactor":[
					0.800000011920929,
					0.800000011920929,
					0.800000011920929,
					1
				],
				"metallicFactor":0,
				"roughnessFactor":0.5
			}
		},
		{
			"doubleSided":true,
			"name":"DS_NEFFLOOR1",
			"pbrMetallicRoughness":{
				"baseColorFactor":[
					0.800000011920929,
					0.800000011920929,
					0.800000011920929,
					1
				],
				"metallicFactor":0,
				"roughnessFactor":0.5
			}
		},
		{
			"doubleSided":true,
			"name":"BE_ICEI01A",
			"pbrMetallicRoughness":{
				"baseColorFactor":[
					0.800000011920929,
					0.800000011920929,
					0.800000011920929,
					1
				],
				"metallicFactor":0,
				"roughnessFactor":0.5
			}
		},
		{
			"doubleSided":true,
			"name":"DS_ILIG04",
			"pbrMetallicRoughness":{
				"baseColorFactor":[
					0.800000011920929,
					0.800000011920929,
					0.800000011920929,
					1
				],
				"metallicFactor":0,
				"roughnessFactor":0.5
			}
		},
		{
			"doubleSided":true,
			"name":"DOX_BLUELITE1",
			"pbrMetallicRoughness":{
				"baseColorFactor":[
					0.800000011920929,
					0.800000011920929,
					0.800000011920929,
					1
				],
				"metallicFactor":0,
				"roughnessFactor":0.5
			}
		},
		{
			"doubleSided":true,
			"name":"E6STRIMLIGHT",
			"pbrMetallicRoughness":{
				"baseColorFactor":[
					0.800000011920929,
					0.800000011920929,
					0.800000011920929,
					1
				],
				"metallicFactor":0,
				"roughnessFactor":0.5
			}
		},
		{
			"doubleSided":true,
			"name":"NYCTO-COMPUTER",
			"pbrMetallicRoughness":{
				"baseColorFactor":[
					0.800000011920929,
					0.800000011920929,
					0.800000011920929,
					1
				],
				"metallicFactor":0,
				"roughnessFactor":0.5
			}
		},
		{
			"doubleSided":true,
			"name":"BE_EDOO02",
			"pbrMetallicRoughness":{
				"baseColorFactor":[
					0.800000011920929,
					0.800000011920929,
					0.800000011920929,
					1
				],
				"metallicFactor":0,
				"roughnessFactor":0.5
			}
		},
		{
			"doubleSided":true,
			"name":"E8TINYLIGHT_000",
			"pbrMetallicRoughness":{
				"baseColorFactor":[
					0.800000011920929,
					0.800000011920929,
					0.800000011920929,
					1
				],
				"metallicFactor":0,
				"roughnessFactor":0.5
			}
		},
		{
			"doubleSided":true,
			"name":"BD_ISPE07",
			"pbrMetallicRoughness":{
				"baseColorFactor":[
					0.800000011920929,
					0.800000011920929,
					0.800000011920929,
					1
				],
				"metallicFactor":0,
				"roughnessFactor":0.5
			}
		},
		{
			"doubleSided":true,
			"name":"NYCTO-COMP3",
			"pbrMetallicRoughness":{
				"baseColorFactor":[
					0.800000011920929,
					0.800000011920929,
					0.800000011920929,
					1
				],
				"metallicFactor":0,
				"roughnessFactor":0.5
			}
		}
	],
	"meshes":[
		{
			"name":"Mesh",
			"primitives":[
				{
					"attributes":{
						"POSITION":0,
						"NORMAL":1,
						"TEXCOORD_0":2
					},
					"indices":3,
					"material":0
				},
				{
					"attributes":{
						"POSITION":4,
						"NORMAL":5,
						"TEXCOORD_0":6
					},
					"indices":7,
					"material":1
				},
				{
					"attributes":{
						"POSITION":8,
						"NORMAL":9,
						"TEXCOORD_0":10
					},
					"indices":11,
					"material":2
				},
				{
					"attributes":{
						"POSITION":12,
						"NORMAL":13,
						"TEXCOORD_0":14
					},
					"indices":15,
					"material":3
				},
				{
					"attributes":{
						"POSITION":16,
						"NORMAL":17,
						"TEXCOORD_0":18
					},
					"indices":19,
					"material":4
				},
				{
					"attributes":{
						"POSITION":20,
						"NORMAL":21,
						"TEXCOORD_0":22
					},
					"indices":23,
					"material":5
				},
				{
					"attributes":{
						"POSITION":24,
						"NORMAL":25,
						"TEXCOORD_0":26
					},
					"indices":27,
					"material":6
				},
				{
					"attributes":{
						"POSITION":28,
						"NORMAL":29,
						"TEXCOORD_0":30
					},
					"indices":31,
					"material":7
				},
				{
					"attributes":{
						"POSITION":32,
						"NORMAL":33,
						"TEXCOORD_0":34
					},
					"indices":35,
					"material":8
				},
				{
					"attributes":{
						"POSITION":36,
						"NORMAL":37,
						"TEXCOORD_0":38
					},
					"indices":39,
					"material":9
				},
				{
					"attributes":{
						"POSITION":40,
						"NORMAL":41,
						"TEXCOORD_0":42
					},
					"indices":43,
					"material":10
				},
				{
					"attributes":{
						"POSITION":44,
						"NORMAL":45,
						"TEXCOORD_0":46
					},
					"indices":47,
					"material":11
				},
				{
					"attributes":{
						"POSITION":48,
						"NORMAL":49,
						"TEXCOORD_0":50
					},
					"indices":51,
					"material":12
				},
				{
					"attributes":{
						"POSITION":52,
						"NORMAL":53,
						"TEXCOORD_0":54
					},
					"indices":55,
					"material":13
				}
			]
		}
	],
	"accessors":[
		{
			"bufferView":0,
			"componentType":5126,
			"count":68,
			"max":[
				28,
				2,
				13
			],
			"min":[
				-28,
				-34,
				-13
			],
			"type":"VEC3"
		},
		{
			"bufferView":1,
			"componentType":5126,
			"count":68,
			"type":"VEC3"
		},
		{
			"bufferView":2,
			"componentType":5126,
			"count":68,
			"type":"VEC2"
		},
		{
			"bufferView":3,
			"componentType":5123,
			"count":126,
			"type":"SCALAR"
		},
		{
			"bufferView":4,
			"componentType":5126,
			"count":841,
			"max":[
				38,
				2,
				23
			],
			"min":[
				-38,
				-35,
				-23
			],
			"type":"VEC3"
		},
		{
			"bufferView":5,
			"componentType":5126,
			"count":841,
			"type":"VEC3"
		},
		{
			"bufferView":6,
			"componentType":5126,
			"count":841,
			"type":"VEC2"
		},
		{
			"bufferView":7,
			"componentType":5123,
			"count":1722,
			"type":"SCALAR"
		},
		{
			"bufferView":8,
			"componentType":5126,
			"count":56,
			"max":[
				8,
				1,
				23
			],
			"min":[
				-8,
				-9,
				-23
			],
			"type":"VEC3"
		},
		{
			"bufferView":9,
			"componentType":5126,
			"count":56,
			"type":"VEC3"
		},
		{
			"bufferView":10,
			"componentType":5126,
			"count":56,
			"type":"VEC2"
		},
		{
			"bufferView":11,
			"componentType":5123,
			"count":84,
			"type":"SCALAR"
		},
		{
			"bufferView":12,
			"componentType":5126,
			"count":1676,
			"max":[
				42,
				5,
				28
			],
			"min":[
				-42,
				-42,
				-28
			],
			"type":"VEC3"
		},
		{
			"bufferView":13,
			"componentType":5126,
			"count":1676,
			"type":"VEC3"
		},
		{
			"bufferView":14,
			"componentType":5126,
			"count":1676,
			"type":"VEC2"
		},
		{
			"bufferView":15,
			"componentType":5123,
			"count":3090,
			"type":"SCALAR"
		},
		{
			"bufferView":16,
			"componentType":5126,
			"count":412,
			"max":[
				42,
				-7,
				23
			],
			"min":[
				-42,
				-35,
				-23
			],
			"type":"VEC3"
		},
		{
			"bufferView":17,
			"componentType":5126,
			"count":412,
			"type":"VEC3"
		},
		{
			"bufferView":18,
			"componentType":5126,
			"count":412,
			"type":"VEC2"
		},
		{
			"bufferView":19,
			"componentType":5123,
			"count":798,
			"type":"SCALAR"
		},
		{
			"bufferView":20,
			"componentType":5126,
			"count":18,
			"max":[
				3,
				-26,
				3
			],
			"min":[
				-3,
				-30,
				-3
			],
			"type":"VEC3"
		},
		{
			"bufferView":21,
			"componentType":5126,
			"count":18,
			"type":"VEC3"
		},
		{
			"bufferView":22,
			"componentType":5126,
			"count":18,
			"type":"VEC2"
		},
		{
			"bufferView":23,
			"componentType":5123,
			"count":24,
			"type":"SCALAR"
		},
		{
			"bufferView":24,
			"componentType":5126,
			"count":64,
			"max":[
				8,
				-33,
				8
			],
			"min":[
				-8,
				-34,
				-8
			],
			"type":"VEC3"
		},
		{
			"bufferView":25,
			"componentType":5126,
			"count":64,
			"type":"VEC3"
		},
		{
			"bufferView":26,
			"componentType":5126,
			"count":64,
			"type":"VEC2"
		},
		{
			"bufferView":27,
			"componentType":5123,
			"count":96,
			"type":"SCALAR"
		},
		{
			"bufferView":28,
			"componentType":5126,
			"count":48,
			"max":[
				20.5,
				-1.5,
				21
			],
			"min":[
				-20.5,
				-29.5,
				-21
			],
			"type":"VEC3"
		},
		{
			"bufferView":29,
			"componentType":5126,
			"count":48,
			"type":"VEC3"
		},
		{
			"bufferView":30,
			"componentType":5126,
			"count":48,
			"type":"VEC2"
		},
		{
			"bufferView":31,
			"componentType":5123,
			"count":72,
			"type":"SCALAR"
		},
		{
			"bufferView":32,
			"componentType":5126,
			"count":272,
			"max":[
				21,
				-1,
				23
			],
			"min":[
				-21,
				-34.16666793823242,
				-23
			],
			"type":"VEC3"
		},
		{
			"bufferView":33,
			"componentType":5126,
			"count":272,
			"type":"VEC3"
		},
		{
			"bufferView":34,
			"componentType":5126,
			"count":272,
			"type":"VEC2"
		},
		{
			"bufferView":35,
			"componentType":5123,
			"count":408,
			"type":"SCALAR"
		},
		{
			"bufferView":36,
			"componentType":5126,
			"count":8,
			"max":[
				4,
				-9.5,
				-16
			],
			"min":[
				-4,
				-34,
				-22.5
			],
			"type":"VEC3"
		},
		{
			"bufferView":37,
			"componentType":5126,
			"count":8,
			"type":"VEC3"
		},
		{
			"bufferView":38,
			"componentType":5126,
			"count":8,
			"type":"VEC2"
		},
		{
			"bufferView":39,
			"componentType":5123,
			"count":12,
			"type":"SCALAR"
		},
		{
			"bufferView":40,
			"componentType":5126,
			"count":4,
			"max":[
				4,
				-9.5,
				16
			],
			"min":[
				-4,
				-13.5,
				16
			],
			"type":"VEC3"
		},
		{
			"bufferView":41,
			"componentType":5126,
			"count":4,
			"type":"VEC3"
		},
		{
			"bufferView":42,
			"componentType":5126,
			"count":4,
			"type":"VEC2"
		},
		{
			"bufferView":43,
			"componentType":5123,
			"count":6,
			"type":"SCALAR"
		},
		{
			"bufferView":44,
			"componentType":5126,
			"count":8,
			"max":[
				8.5,
				-18.5,
				1
			],
			"min":[
				-8.5,
				-20.5,
				-1
			],
			"type":"VEC3"
		},
		{
			"bufferView":45,
			"componentType":5126,
			"count":8,
			"type":"VEC3"
		},
		{
			"bufferView":46,
			"componentType":5126,
			"count":8,
			"type":"VEC2"
		},
		{
			"bufferView":47,
			"componentType":5123,
			"count":12,
			"type":"SCALAR"
		},
		{
			"bufferView":48,
			"componentType":5126,
			"count":24,
			"max":[
				22.5,
				-15.5,
				15
			],
			"min":[
				-22.5,
				-23.5,
				-15
			],
			"type":"VEC3"
		},
		{
			"bufferView":49,
			"componentType":5126,
			"count":24,
			"type":"VEC3"
		},
		{
			"bufferView":50,
			"componentType":5126,
			"count":24,
			"type":"VEC2"
		},
		{
			"bufferView":51,
			"componentType":5123,
			"count":36,
			"type":"SCALAR"
		},
		{
			"bufferView":52,
			"componentType":5126,
			"count":4,
			"max":[
				4,
				-30,
				22.5
			],
			"min":[
				-4,
				-34,
				22.5
			],
			"type":"VEC3"
		},
		{
			"bufferView":53,
			"componentType":5126,
			"count":4,
			"type":"VEC3"
		},
		{
			"bufferView":54,
			"componentType":5126,
			"count":4,
			"type":"VEC2"
		},
		{
			"bufferView":55,
			"componentType":5123,
			"count":6,
			"type":"SCALAR"
		}
	],
	"bufferViews":[
		{
			"buffer":0,
			"byteLength":816,
			"byteOffset":0,
			"target":34962
		},
		{
			"buffer":0,
			"byteLength":816,
			"byteOffset":816,
			"target":34962
		},
		{
			"buffer":0,
			"byteLength":544,
			"byteOffset":1632,
			"target":34962
		},
		{
			"buffer":0,
			"byteLength":252,
			"byteOffset":2176,
			"target":34963
		},
		{
			"buffer":0,
			"byteLength":10092,
			"byteOffset":2428,
			"target":34962
		},
		{
			"buffer":0,
			"byteLength":10092,
			"byteOffset":12520,
			"target":34962
		},
		{
			"buffer":0,
			"byteLength":6728,
			"byteOffset":22612,
			"target":34962
		},
		{
			"buffer":0,
			"byteLength":3444,
			"byteOffset":29340,
			"target":34963
		},
		{
			"buffer":0,
			"byteLength":672,
			"byteOffset":32784,
			"target":34962
		},
		{
			"buffer":0,
			"byteLength":672,
			"byteOffset":33456,
			"target":34962
		},
		{
			"buffer":0,
			"byteLength":448,
			"byteOffset":34128,
			"target":34962
		},
		{
			"buffer":0,
			"byteLength":168,
			"byteOffset":34576,
			"target":34963
		},
		{
			"buffer":0,
			"byteLength":20112,
			"byteOffset":34744,
			"target":34962
		},
		{
			"buffer":0,
			"byteLength":20112,
			"byteOffset":54856,
			"target":34962
		},
		{
			"buffer":0,
			"byteLength":13408,
			"byteOffset":74968,
			"target":34962
		},
		{
			"buffer":0,
			"byteLength":6180,
			"byteOffset":88376,
			"target":34963
		},
		{
			"buffer":0,
			"byteLength":4944,
			"byteOffset":94556,
			"target":34962
		},
		{
			"buffer":0,
			"byteLength":4944,
			"byteOffset":99500,
			"target":34962
		},
		{
			"buffer":0,
			"byteLength":3296,
			"byteOffset":104444,
			"target":34962
		},
		{
			"buffer":0,
			"byteLength":1596,
			"byteOffset":107740,
			"target":34963
		},
		{
			"buffer":0,
			"byteLength":216,
			"byteOffset":109336,
			"target":34962
		},
		{
			"buffer":0,
			"byteLength":216,
			"byteOffset":109552,
			"target":34962
		},
		{
			"buffer":0,
			"byteLength":144,
			"byteOffset":109768,
			"target":34962
		},
		{
			"buffer":0,
			"byteLength":48,
			"byteOffset":109912,
			"target":34963
		},
		{
			"buffer":0,
			"byteLength":768,
			"byteOffset":109960,
			"target":34962
		},
		{
			"buffer":0,
			"byteLength":768,
			"byteOffset":110728,
			"target":34962
		},
		{
			"buffer":0,
			"byteLength":512,
			"byteOffset":111496,
			"target":34962
		},
		{
			"buffer":0,
			"byteLength":192,
			"byteOffset":112008,
			"target":34963
		},
		{
			"buffer":0,
			"byteLength":576,
			"byteOffset":112200,
			"target":34962
		},
		{
			"buffer":0,
			"byteLength":576,
			"byteOffset":112776,
			"target":34962
		},
		{
			"buffer":0,
			"byteLength":384,
			"byteOffset":113352,
			"target":34962
		},
		{
			"buffer":0,
			"byteLength":144,
			"byteOffset":113736,
			"target":34963
		},
		{
			"buffer":0,
			"byteLength":3264,
			"byteOffset":113880,
			"target":34962
		},
		{
			"buffer":0,
			"byteLength":3264,
			"byteOffset":117144,
			"target":34962
		},
		{
			"buffer":0,
			"byteLength":2176,
			"byteOffset":120408,
			"target":34962
		},
		{
			"buffer":0,
			"byteLength":816,
			"byteOffset":122584,
			"target":34963
		},
		{
			"buffer":0,
			"byteLength":96,
			"byteOffset":123400,
			"target":34962
		},
		{
			"buffer":0,
			"byteLength":96,
			"byteOffset":123496,
			"target":34962
		},
		{
			"buffer":0,
			"byteLength":64,
			"byteOffset":123592,
			"target":34962
		},
		{
			"buffer":0,
			"byteLength":24,
			"byteOffset":123656,
			"target":34963
		},
		{
			"buffer":0,
			"byteLength":48,
			"byteOffset":123680,
			"target":34962
		},
		{
			"buffer":0,
			"byteLength":48,
			"byteOffset":123728,
			"target":34962
		},
		{
			"buffer":0,
			"byteLength":32,
			"byteOffset":123776,
			"target":34962
		},
		{
			"buffer":0,
			"byteLength":12,
			"byteOffset":123808,
			"target":34963
		},
		{
			"buffer":0,
			"byteLength":96,
			"byteOffset":123820,
			"target":34962
		},
		{
			"buffer":0,
			"byteLength":96,
			"byteOffset":123916,
			"target":34962
		},
		{
			"buffer":0,
			"byteLength":64,
			"byteOffset":124012,
			"target":34962
		},
		{
			"buffer":0,
			"byteLength":24,
			"byteOffset":124076,
			"target":34963
		},
		{
			"buffer":0,
			"byteLength":288,
			"byteOffset":124100,
			"target":34962
		},
		{
			"buffer":0,
			"byteLength":288,
			"byteOffset":124388,
			"target":34962
		},
		{
			"buffer":0,
			"byteLength":192,
			"byteOffset":124676,
			"target":34962
		},
		{
			"buffer":0,
			"byteLength":72,
			"byteOffset":124868,
			"target":34963
		},
		{
			"buffer":0,
			"byteLength":48,
			"byteOffset":124940,
			"target":34962
		},
		{
			"buffer":0,
			"byteLength":48,
			"byteOffset":124988,
			"target":34962
		},
		{
			"buffer":0,
			"byteLength":32,
			"byteOffset":125036,
			"target":34962
		},
		{
			"buffer":0,
			"byteLength":12,
			"byteOffset":125068,
			"target":34963
		}
	],
	"buffers":[
		{
			"byteLength":125080,
			"uri":"flingsilo03b.bin"
		}
	]
}
