{
	"asset":{
		"generator":"Khronos glTF Blender I/O v4.5.48",
		"version":"2.0"
	},
	"scene":0,
	"scenes":[
		{
			"name":"Scene",
			"nodes":[
				0
			]
		}
	],
	"nodes":[
		{
			"mesh":0,
			"name":"Object"
		}
	],
	"materials":[
		{
			"doubleSided":true,
			"name":"RIL.DARKROCK",
			"pbrMetallicRoughness":{
				"baseColorFactor":[
					0.800000011920929,
					0.800000011920929,
					0.800000011920929,
					1
				],
				"metallicFactor":0,
				"roughnessFactor":0.5
			}
		}
	],
	"meshes":[
		{
			"name":"Mesh",
			"primitives":[
				{
					"attributes":{
						"POSITION":0,
						"NORMAL":1,
						"TEXCOORD_0":2
					},
					"indices":3,
					"material":0
				}
			]
		}
	],
	"accessors":[
		{
			"bufferView":0,
			"componentType":5126,
			"count":126,
			"max":[
				7,
				2,
				4
			],
			"min":[
				-7,
				-3,
				-10
			],
			"type":"VEC3"
		},
		{
			"bufferView":1,
			"componentType":5126,
			"count":126,
			"type":"VEC3"
		},
		{
			"bufferView":2,
			"componentType":5126,
			"count":126,
			"type":"VEC2"
		},
		{
			"bufferView":3,
			"componentType":5123,
			"count":180,
			"type":"SCALAR"
		}
	],
	"bufferViews":[
		{
			"buffer":0,
			"byteLength":1512,
			"byteOffset":0,
			"target":34962
		},
		{
			"buffer":0,
			"byteLength":1512,
			"byteOffset":1512,
			"target":34962
		},
		{
			"buffer":0,
			"byteLength":1008,
			"byteOffset":3024,
			"target":34962
		},
		{
			"buffer":0,
			"byteLength":360,
			"byteOffset":4032,
			"target":34963
		}
	],
	"buffers":[
		{
			"byteLength":4392,
			"uri":"flingrockvent01.bin"
		}
	]
}
