{
	"asset":{
		"generator":"Khronos glTF Blender I/O v4.5.48",
		"version":"2.0"
	},
	"scene":0,
	"scenes":[
		{
			"name":"Scene",
			"nodes":[
				0
			]
		}
	],
	"nodes":[
		{
			"mesh":0,
			"name":"Object"
		}
	],
	"materials":[
		{
			"doubleSided":true,
			"name":"DS_NEFBLUE1",
			"pbrMetallicRoughness":{
				"baseColorFactor":[
					0.800000011920929,
					0.800000011920929,
					0.800000011920929,
					1
				],
				"metallicFactor":0,
				"roughnessFactor":0.5
			}
		},
		{
			"doubleSided":true,
			"name":"DS_NEFBLUE",
			"pbrMetallicRoughness":{
				"baseColorFactor":[
					0.800000011920929,
					0.800000011920929,
					0.800000011920929,
					1
				],
				"metallicFactor":0,
				"roughnessFactor":0.5
			}
		},
		{
			"doubleSided":true,
			"name":"BE_THRESH02",
			"pbrMetallicRoughness":{
				"baseColorFactor":[
					0.800000011920929,
					0.800000011920929,
					0.800000011920929,
					1
				],
				"metallicFactor":0,
				"roughnessFactor":0.5
			}
		}
	],
	"meshes":[
		{
			"name":"Mesh",
			"primitives":[
				{
					"attributes":{
						"POSITION":0,
						"NORMAL":1,
						"TEXCOORD_0":2
					},
					"indices":3,
					"material":0
				},
				{
					"attributes":{
						"POSITION":4,
						"NORMAL":5,
						"TEXCOORD_0":6
					},
					"indices":7,
					"material":1
				},
				{
					"attributes":{
						"POSITION":8,
						"NORMAL":9,
						"TEXCOORD_0":10
					},
					"indices":11,
					"material":2
				}
			]
		}
	],
	"accessors":[
		{
			"bufferView":0,
			"componentType":5126,
			"count":20,
			"max":[
				8,
				4,
				8
			],
			"min":[
				-8,
				1,
				-8
			],
			"type":"VEC3"
		},
		{
			"bufferView":1,
			"componentType":5126,
			"count":20,
			"type":"VEC3"
		},
		{
			"bufferView":2,
			"componentType":5126,
			"count":20,
			"type":"VEC2"
		},
		{
			"bufferView":3,
			"componentType":5123,
			"count":30,
			"type":"SCALAR"
		},
		{
			"bufferView":4,
			"componentType":5126,
			"count":96,
			"max":[
				14,
				6,
				14
			],
			"min":[
				-14,
				-8,
				-14
			],
			"type":"VEC3"
		},
		{
			"bufferView":5,
			"componentType":5126,
			"count":96,
			"type":"VEC3"
		},
		{
			"bufferView":6,
			"componentType":5126,
			"count":96,
			"type":"VEC2"
		},
		{
			"bufferView":7,
			"componentType":5123,
			"count":144,
			"type":"SCALAR"
		},
		{
			"bufferView":8,
			"componentType":5126,
			"count":35,
			"max":[
				10,
				5,
				10
			],
			"min":[
				-10,
				-8,
				-10
			],
			"type":"VEC3"
		},
		{
			"bufferView":9,
			"componentType":5126,
			"count":35,
			"type":"VEC3"
		},
		{
			"bufferView":10,
			"componentType":5126,
			"count":35,
			"type":"VEC2"
		},
		{
			"bufferView":11,
			"componentType":5123,
			"count":51,
			"type":"SCALAR"
		}
	],
	"bufferViews":[
		{
			"buffer":0,
			"byteLength":240,
			"byteOffset":0,
			"target":34962
		},
		{
			"buffer":0,
			"byteLength":240,
			"byteOffset":240,
			"target":34962
		},
		{
			"buffer":0,
			"byteLength":160,
			"byteOffset":480,
			"target":34962
		},
		{
			"buffer":0,
			"byteLength":60,
			"byteOffset":640,
			"target":34963
		},
		{
			"buffer":0,
			"byteLength":1152,
			"byteOffset":700,
			"target":34962
		},
		{
			"buffer":0,
			"byteLength":1152,
			"byteOffset":1852,
			"target":34962
		},
		{
			"buffer":0,
			"byteLength":768,
			"byteOffset":3004,
			"target":34962
		},
		{
			"buffer":0,
			"byteLength":288,
			"byteOffset":3772,
			"target":34963
		},
		{
			"buffer":0,
			"byteLength":420,
			"byteOffset":4060,
			"target":34962
		},
		{
			"buffer":0,
			"byteLength":420,
			"byteOffset":4480,
			"target":34962
		},
		{
			"buffer":0,
			"byteLength":280,
			"byteOffset":4900,
			"target":34962
		},
		{
			"buffer":0,
			"byteLength":102,
			"byteOffset":5180,
			"target":34963
		}
	],
	"buffers":[
		{
			"byteLength":5284,
			"uri":"flingtanktrap01.bin"
		}
	]
}
