{
	"asset":{
		"generator":"Khronos glTF Blender I/O v4.5.48",
		"version":"2.0"
	},
	"scene":0,
	"scenes":[
		{
			"name":"Scene",
			"nodes":[
				0
			]
		}
	],
	"nodes":[
		{
			"mesh":0,
			"name":"Object"
		}
	],
	"materials":[
		{
			"doubleSided":true,
			"name":"DS_NEFBLUE1",
			"pbrMetallicRoughness":{
				"baseColorFactor":[
					0.800000011920929,
					0.800000011920929,
					0.800000011920929,
					1
				],
				"metallicFactor":0,
				"roughnessFactor":0.5
			}
		},
		{
			"doubleSided":true,
			"name":"E8CLANGFLOOR",
			"pbrMetallicRoughness":{
				"baseColorFactor":[
					0.800000011920929,
					0.800000011920929,
					0.800000011920929,
					1
				],
				"metallicFactor":0,
				"roughnessFactor":0.5
			}
		},
		{
			"doubleSided":true,
			"name":"DS_NEFBLUE",
			"pbrMetallicRoughness":{
				"baseColorFactor":[
					0.800000011920929,
					0.800000011920929,
					0.800000011920929,
					1
				],
				"metallicFactor":0,
				"roughnessFactor":0.5
			}
		},
		{
			"doubleSided":true,
			"name":"DS_ILIG02",
			"pbrMetallicRoughness":{
				"baseColorFactor":[
					0.800000011920929,
					0.800000011920929,
					0.800000011920929,
					1
				],
				"metallicFactor":0,
				"roughnessFactor":0.5
			}
		},
		{
			"doubleSided":true,
			"name":"CRUDEWARN",
			"pbrMetallicRoughness":{
				"baseColorFactor":[
					0.800000011920929,
					0.800000011920929,
					0.800000011920929,
					1
				],
				"metallicFactor":0,
				"roughnessFactor":0.5
			}
		},
		{
			"doubleSided":true,
			"name":"E6STRIMLIGHT",
			"pbrMetallicRoughness":{
				"baseColorFactor":[
					0.800000011920929,
					0.800000011920929,
					0.800000011920929,
					1
				],
				"metallicFactor":0,
				"roughnessFactor":0.5
			}
		},
		{
			"doubleSided":true,
			"name":"DS_NEFFLOOR1",
			"pbrMetallicRoughness":{
				"baseColorFactor":[
					0.800000011920929,
					0.800000011920929,
					0.800000011920929,
					1
				],
				"metallicFactor":0,
				"roughnessFactor":0.5
			}
		},
		{
			"doubleSided":true,
			"name":"DOX_BLUELITE1",
			"pbrMetallicRoughness":{
				"baseColorFactor":[
					0.800000011920929,
					0.800000011920929,
					0.800000011920929,
					1
				],
				"metallicFactor":0,
				"roughnessFactor":0.5
			}
		}
	],
	"meshes":[
		{
			"name":"Mesh",
			"primitives":[
				{
					"attributes":{
						"POSITION":0,
						"NORMAL":1,
						"TEXCOORD_0":2
					},
					"indices":3,
					"material":0
				},
				{
					"attributes":{
						"POSITION":4,
						"NORMAL":5,
						"TEXCOORD_0":6
					},
					"indices":7,
					"material":1
				},
				{
					"attributes":{
						"POSITION":8,
						"NORMAL":9,
						"TEXCOORD_0":10
					},
					"indices":11,
					"material":2
				},
				{
					"attributes":{
						"POSITION":12,
						"NORMAL":13,
						"TEXCOORD_0":14
					},
					"indices":15,
					"material":3
				},
				{
					"attributes":{
						"POSITION":16,
						"NORMAL":17,
						"TEXCOORD_0":18
					},
					"indices":19,
					"material":4
				},
				{
					"attributes":{
						"POSITION":20,
						"NORMAL":21,
						"TEXCOORD_0":22
					},
					"indices":23,
					"material":5
				},
				{
					"attributes":{
						"POSITION":24,
						"NORMAL":25,
						"TEXCOORD_0":26
					},
					"indices":27,
					"material":6
				},
				{
					"attributes":{
						"POSITION":28,
						"NORMAL":29,
						"TEXCOORD_0":30
					},
					"indices":31,
					"material":7
				}
			]
		}
	],
	"accessors":[
		{
			"bufferView":0,
			"componentType":5126,
			"count":636,
			"max":[
				21,
				40,
				28
			],
			"min":[
				-21,
				19,
				-24
			],
			"type":"VEC3"
		},
		{
			"bufferView":1,
			"componentType":5126,
			"count":636,
			"type":"VEC3"
		},
		{
			"bufferView":2,
			"componentType":5126,
			"count":636,
			"type":"VEC2"
		},
		{
			"bufferView":3,
			"componentType":5123,
			"count":1269,
			"type":"SCALAR"
		},
		{
			"bufferView":4,
			"componentType":5126,
			"count":93,
			"max":[
				20,
				22,
				28
			],
			"min":[
				-20,
				19,
				-23
			],
			"type":"VEC3"
		},
		{
			"bufferView":5,
			"componentType":5126,
			"count":93,
			"type":"VEC3"
		},
		{
			"bufferView":6,
			"componentType":5126,
			"count":93,
			"type":"VEC2"
		},
		{
			"bufferView":7,
			"componentType":5123,
			"count":195,
			"type":"SCALAR"
		},
		{
			"bufferView":8,
			"componentType":5126,
			"count":670,
			"max":[
				36,
				48,
				25
			],
			"min":[
				-36,
				8.5,
				-31
			],
			"type":"VEC3"
		},
		{
			"bufferView":9,
			"componentType":5126,
			"count":670,
			"type":"VEC3"
		},
		{
			"bufferView":10,
			"componentType":5126,
			"count":670,
			"type":"VEC2"
		},
		{
			"bufferView":11,
			"componentType":5123,
			"count":1374,
			"type":"SCALAR"
		},
		{
			"bufferView":12,
			"componentType":5126,
			"count":40,
			"max":[
				6,
				34,
				21
			],
			"min":[
				-6,
				24.5,
				19
			],
			"type":"VEC3"
		},
		{
			"bufferView":13,
			"componentType":5126,
			"count":40,
			"type":"VEC3"
		},
		{
			"bufferView":14,
			"componentType":5126,
			"count":40,
			"type":"VEC2"
		},
		{
			"bufferView":15,
			"componentType":5123,
			"count":60,
			"type":"SCALAR"
		},
		{
			"bufferView":16,
			"componentType":5126,
			"count":26,
			"max":[
				8,
				35,
				21
			],
			"min":[
				-8,
				24.5,
				21
			],
			"type":"VEC3"
		},
		{
			"bufferView":17,
			"componentType":5126,
			"count":26,
			"type":"VEC3"
		},
		{
			"bufferView":18,
			"componentType":5126,
			"count":26,
			"type":"VEC2"
		},
		{
			"bufferView":19,
			"componentType":5123,
			"count":66,
			"type":"SCALAR"
		},
		{
			"bufferView":20,
			"componentType":5126,
			"count":108,
			"max":[
				21,
				39.5,
				13
			],
			"min":[
				-21,
				23,
				-24
			],
			"type":"VEC3"
		},
		{
			"bufferView":21,
			"componentType":5126,
			"count":108,
			"type":"VEC3"
		},
		{
			"bufferView":22,
			"componentType":5126,
			"count":108,
			"type":"VEC2"
		},
		{
			"bufferView":23,
			"componentType":5123,
			"count":168,
			"type":"SCALAR"
		},
		{
			"bufferView":24,
			"componentType":5126,
			"count":16,
			"max":[
				28,
				22,
				5
			],
			"min":[
				-28,
				22,
				-9
			],
			"type":"VEC3"
		},
		{
			"bufferView":25,
			"componentType":5126,
			"count":16,
			"type":"VEC3"
		},
		{
			"bufferView":26,
			"componentType":5126,
			"count":16,
			"type":"VEC2"
		},
		{
			"bufferView":27,
			"componentType":5123,
			"count":24,
			"type":"SCALAR"
		},
		{
			"bufferView":28,
			"componentType":5126,
			"count":12,
			"max":[
				1,
				39,
				11
			],
			"min":[
				-1,
				38.5,
				-14.5
			],
			"type":"VEC3"
		},
		{
			"bufferView":29,
			"componentType":5126,
			"count":12,
			"type":"VEC3"
		},
		{
			"bufferView":30,
			"componentType":5126,
			"count":12,
			"type":"VEC2"
		},
		{
			"bufferView":31,
			"componentType":5123,
			"count":18,
			"type":"SCALAR"
		}
	],
	"bufferViews":[
		{
			"buffer":0,
			"byteLength":7632,
			"byteOffset":0,
			"target":34962
		},
		{
			"buffer":0,
			"byteLength":7632,
			"byteOffset":7632,
			"target":34962
		},
		{
			"buffer":0,
			"byteLength":5088,
			"byteOffset":15264,
			"target":34962
		},
		{
			"buffer":0,
			"byteLength":2538,
			"byteOffset":20352,
			"target":34963
		},
		{
			"buffer":0,
			"byteLength":1116,
			"byteOffset":22892,
			"target":34962
		},
		{
			"buffer":0,
			"byteLength":1116,
			"byteOffset":24008,
			"target":34962
		},
		{
			"buffer":0,
			"byteLength":744,
			"byteOffset":25124,
			"target":34962
		},
		{
			"buffer":0,
			"byteLength":390,
			"byteOffset":25868,
			"target":34963
		},
		{
			"buffer":0,
			"byteLength":8040,
			"byteOffset":26260,
			"target":34962
		},
		{
			"buffer":0,
			"byteLength":8040,
			"byteOffset":34300,
			"target":34962
		},
		{
			"buffer":0,
			"byteLength":5360,
			"byteOffset":42340,
			"target":34962
		},
		{
			"buffer":0,
			"byteLength":2748,
			"byteOffset":47700,
			"target":34963
		},
		{
			"buffer":0,
			"byteLength":480,
			"byteOffset":50448,
			"target":34962
		},
		{
			"buffer":0,
			"byteLength":480,
			"byteOffset":50928,
			"target":34962
		},
		{
			"buffer":0,
			"byteLength":320,
			"byteOffset":51408,
			"target":34962
		},
		{
			"buffer":0,
			"byteLength":120,
			"byteOffset":51728,
			"target":34963
		},
		{
			"buffer":0,
			"byteLength":312,
			"byteOffset":51848,
			"target":34962
		},
		{
			"buffer":0,
			"byteLength":312,
			"byteOffset":52160,
			"target":34962
		},
		{
			"buffer":0,
			"byteLength":208,
			"byteOffset":52472,
			"target":34962
		},
		{
			"buffer":0,
			"byteLength":132,
			"byteOffset":52680,
			"target":34963
		},
		{
			"buffer":0,
			"byteLength":1296,
			"byteOffset":52812,
			"target":34962
		},
		{
			"buffer":0,
			"byteLength":1296,
			"byteOffset":54108,
			"target":34962
		},
		{
			"buffer":0,
			"byteLength":864,
			"byteOffset":55404,
			"target":34962
		},
		{
			"buffer":0,
			"byteLength":336,
			"byteOffset":56268,
			"target":34963
		},
		{
			"buffer":0,
			"byteLength":192,
			"byteOffset":56604,
			"target":34962
		},
		{
			"buffer":0,
			"byteLength":192,
			"byteOffset":56796,
			"target":34962
		},
		{
			"buffer":0,
			"byteLength":128,
			"byteOffset":56988,
			"target":34962
		},
		{
			"buffer":0,
			"byteLength":48,
			"byteOffset":57116,
			"target":34963
		},
		{
			"buffer":0,
			"byteLength":144,
			"byteOffset":57164,
			"target":34962
		},
		{
			"buffer":0,
			"byteLength":144,
			"byteOffset":57308,
			"target":34962
		},
		{
			"buffer":0,
			"byteLength":96,
			"byteOffset":57452,
			"target":34962
		},
		{
			"buffer":0,
			"byteLength":36,
			"byteOffset":57548,
			"target":34963
		}
	],
	"buffers":[
		{
			"byteLength":57584,
			"uri":"flingvpad01b.bin"
		}
	]
}
