{
	"asset":{
		"generator":"Khronos glTF Blender I/O v4.5.48",
		"version":"2.0"
	},
	"scene":0,
	"scenes":[
		{
			"name":"Scene",
			"nodes":[
				0
			]
		}
	],
	"nodes":[
		{
			"mesh":0,
			"name":"Object"
		}
	],
	"materials":[
		{
			"doubleSided":true,
			"name":"BE_IPRFLO01",
			"pbrMetallicRoughness":{
				"baseColorFactor":[
					0.800000011920929,
					0.800000011920929,
					0.800000011920929,
					1
				],
				"metallicFactor":0,
				"roughnessFactor":0.5
			}
		},
		{
			"doubleSided":true,
			"name":"BE_EWAL01B",
			"pbrMetallicRoughness":{
				"baseColorFactor":[
					0.800000011920929,
					0.800000011920929,
					0.800000011920929,
					1
				],
				"metallicFactor":0,
				"roughnessFactor":0.5
			}
		},
		{
			"doubleSided":true,
			"name":"BE_EWAL04A",
			"pbrMetallicRoughness":{
				"baseColorFactor":[
					0.800000011920929,
					0.800000011920929,
					0.800000011920929,
					1
				],
				"metallicFactor":0,
				"roughnessFactor":0.5
			}
		},
		{
			"doubleSided":true,
			"name":"BE_EWAL06",
			"pbrMetallicRoughness":{
				"baseColorFactor":[
					0.800000011920929,
					0.800000011920929,
					0.800000011920929,
					1
				],
				"metallicFactor":0,
				"roughnessFactor":0.5
			}
		},
		{
			"doubleSided":true,
			"name":"BE_EBOR03",
			"pbrMetallicRoughness":{
				"baseColorFactor":[
					0.800000011920929,
					0.800000011920929,
					0.800000011920929,
					1
				],
				"metallicFactor":0,
				"roughnessFactor":0.5
			}
		},
		{
			"doubleSided":true,
			"name":"BE_EBOR01E",
			"pbrMetallicRoughness":{
				"baseColorFactor":[
					0.800000011920929,
					0.800000011920929,
					0.800000011920929,
					1
				],
				"metallicFactor":0,
				"roughnessFactor":0.5
			}
		},
		{
			"doubleSided":true,
			"name":"BE_ITEWAL04",
			"pbrMetallicRoughness":{
				"baseColorFactor":[
					0.800000011920929,
					0.800000011920929,
					0.800000011920929,
					1
				],
				"metallicFactor":0,
				"roughnessFactor":0.5
			}
		},
		{
			"doubleSided":true,
			"name":"BE_ICEI03B",
			"pbrMetallicRoughness":{
				"baseColorFactor":[
					0.800000011920929,
					0.800000011920929,
					0.800000011920929,
					1
				],
				"metallicFactor":0,
				"roughnessFactor":0.5
			}
		},
		{
			"doubleSided":true,
			"name":"BE_IGENERICDARK",
			"pbrMetallicRoughness":{
				"baseColorFactor":[
					0.800000011920929,
					0.800000011920929,
					0.800000011920929,
					1
				],
				"metallicFactor":0,
				"roughnessFactor":0.5
			}
		},
		{
			"doubleSided":true,
			"name":"BE_ICOLTOP",
			"pbrMetallicRoughness":{
				"baseColorFactor":[
					0.800000011920929,
					0.800000011920929,
					0.800000011920929,
					1
				],
				"metallicFactor":0,
				"roughnessFactor":0.5
			}
		},
		{
			"doubleSided":true,
			"name":"BE_ESPEC01",
			"pbrMetallicRoughness":{
				"baseColorFactor":[
					0.800000011920929,
					0.800000011920929,
					0.800000011920929,
					1
				],
				"metallicFactor":0,
				"roughnessFactor":0.5
			}
		},
		{
			"doubleSided":true,
			"name":"BE_ETEC",
			"pbrMetallicRoughness":{
				"baseColorFactor":[
					0.800000011920929,
					0.800000011920929,
					0.800000011920929,
					1
				],
				"metallicFactor":0,
				"roughnessFactor":0.5
			}
		},
		{
			"doubleSided":true,
			"name":"BE_ICOCEI",
			"pbrMetallicRoughness":{
				"baseColorFactor":[
					0.800000011920929,
					0.800000011920929,
					0.800000011920929,
					1
				],
				"metallicFactor":0,
				"roughnessFactor":0.5
			}
		},
		{
			"doubleSided":true,
			"name":"BE_ITEWAL02",
			"pbrMetallicRoughness":{
				"baseColorFactor":[
					0.800000011920929,
					0.800000011920929,
					0.800000011920929,
					1
				],
				"metallicFactor":0,
				"roughnessFactor":0.5
			}
		},
		{
			"doubleSided":true,
			"name":"BE_IGENERIC",
			"pbrMetallicRoughness":{
				"baseColorFactor":[
					0.800000011920929,
					0.800000011920929,
					0.800000011920929,
					1
				],
				"metallicFactor":0,
				"roughnessFactor":0.5
			}
		},
		{
			"doubleSided":true,
			"name":"BE_IHAWAL04A",
			"pbrMetallicRoughness":{
				"baseColorFactor":[
					0.800000011920929,
					0.800000011920929,
					0.800000011920929,
					1
				],
				"metallicFactor":0,
				"roughnessFactor":0.5
			}
		},
		{
			"doubleSided":true,
			"name":"BE_IHAWAL04",
			"pbrMetallicRoughness":{
				"baseColorFactor":[
					0.800000011920929,
					0.800000011920929,
					0.800000011920929,
					1
				],
				"metallicFactor":0,
				"roughnessFactor":0.5
			}
		},
		{
			"doubleSided":true,
			"name":"BE_ITEBOR01",
			"pbrMetallicRoughness":{
				"baseColorFactor":[
					0.800000011920929,
					0.800000011920929,
					0.800000011920929,
					1
				],
				"metallicFactor":0,
				"roughnessFactor":0.5
			}
		},
		{
			"doubleSided":true,
			"name":"BE_ICOBOR1",
			"pbrMetallicRoughness":{
				"baseColorFactor":[
					0.800000011920929,
					0.800000011920929,
					0.800000011920929,
					1
				],
				"metallicFactor":0,
				"roughnessFactor":0.5
			}
		},
		{
			"doubleSided":true,
			"name":"BE_ESPEC07",
			"pbrMetallicRoughness":{
				"baseColorFactor":[
					0.800000011920929,
					0.800000011920929,
					0.800000011920929,
					1
				],
				"metallicFactor":0,
				"roughnessFactor":0.5
			}
		},
		{
			"doubleSided":true,
			"name":"BE_EDOO01",
			"pbrMetallicRoughness":{
				"baseColorFactor":[
					0.800000011920929,
					0.800000011920929,
					0.800000011920929,
					1
				],
				"metallicFactor":0,
				"roughnessFactor":0.5
			}
		}
	],
	"meshes":[
		{
			"name":"Mesh",
			"primitives":[
				{
					"attributes":{
						"POSITION":0,
						"NORMAL":1,
						"TEXCOORD_0":2
					},
					"indices":3,
					"material":0
				},
				{
					"attributes":{
						"POSITION":4,
						"NORMAL":5,
						"TEXCOORD_0":6
					},
					"indices":7,
					"material":1
				},
				{
					"attributes":{
						"POSITION":8,
						"NORMAL":9,
						"TEXCOORD_0":10
					},
					"indices":11,
					"material":2
				},
				{
					"attributes":{
						"POSITION":12,
						"NORMAL":13,
						"TEXCOORD_0":14
					},
					"indices":15,
					"material":3
				},
				{
					"attributes":{
						"POSITION":16,
						"NORMAL":17,
						"TEXCOORD_0":18
					},
					"indices":19,
					"material":4
				},
				{
					"attributes":{
						"POSITION":20,
						"NORMAL":21,
						"TEXCOORD_0":22
					},
					"indices":23,
					"material":5
				},
				{
					"attributes":{
						"POSITION":24,
						"NORMAL":25,
						"TEXCOORD_0":26
					},
					"indices":27,
					"material":6
				},
				{
					"attributes":{
						"POSITION":28,
						"NORMAL":29,
						"TEXCOORD_0":30
					},
					"indices":31,
					"material":7
				},
				{
					"attributes":{
						"POSITION":32,
						"NORMAL":33,
						"TEXCOORD_0":34
					},
					"indices":35,
					"material":8
				},
				{
					"attributes":{
						"POSITION":36,
						"NORMAL":37,
						"TEXCOORD_0":38
					},
					"indices":39,
					"material":9
				},
				{
					"attributes":{
						"POSITION":40,
						"NORMAL":41,
						"TEXCOORD_0":42
					},
					"indices":43,
					"material":10
				},
				{
					"attributes":{
						"POSITION":44,
						"NORMAL":45,
						"TEXCOORD_0":46
					},
					"indices":47,
					"material":11
				},
				{
					"attributes":{
						"POSITION":48,
						"NORMAL":49,
						"TEXCOORD_0":50
					},
					"indices":51,
					"material":12
				},
				{
					"attributes":{
						"POSITION":52,
						"NORMAL":53,
						"TEXCOORD_0":54
					},
					"indices":55,
					"material":13
				},
				{
					"attributes":{
						"POSITION":56,
						"NORMAL":57,
						"TEXCOORD_0":58
					},
					"indices":59,
					"material":14
				},
				{
					"attributes":{
						"POSITION":60,
						"NORMAL":61,
						"TEXCOORD_0":62
					},
					"indices":63,
					"material":15
				},
				{
					"attributes":{
						"POSITION":64,
						"NORMAL":65,
						"TEXCOORD_0":66
					},
					"indices":67,
					"material":16
				},
				{
					"attributes":{
						"POSITION":68,
						"NORMAL":69,
						"TEXCOORD_0":70
					},
					"indices":71,
					"material":17
				},
				{
					"attributes":{
						"POSITION":72,
						"NORMAL":73,
						"TEXCOORD_0":74
					},
					"indices":75,
					"material":18
				},
				{
					"attributes":{
						"POSITION":76,
						"NORMAL":77,
						"TEXCOORD_0":78
					},
					"indices":79,
					"material":19
				},
				{
					"attributes":{
						"POSITION":80,
						"NORMAL":81,
						"TEXCOORD_0":82
					},
					"indices":83,
					"material":20
				}
			]
		}
	],
	"accessors":[
		{
			"bufferView":0,
			"componentType":5126,
			"count":348,
			"max":[
				96,
				8,
				14.5
			],
			"min":[
				-96,
				-8,
				-14.5
			],
			"type":"VEC3"
		},
		{
			"bufferView":1,
			"componentType":5126,
			"count":348,
			"type":"VEC3"
		},
		{
			"bufferView":2,
			"componentType":5126,
			"count":348,
			"type":"VEC2"
		},
		{
			"bufferView":3,
			"componentType":5123,
			"count":984,
			"type":"SCALAR"
		},
		{
			"bufferView":4,
			"componentType":5126,
			"count":1319,
			"max":[
				96,
				46,
				16
			],
			"min":[
				-96,
				-120,
				-16
			],
			"type":"VEC3"
		},
		{
			"bufferView":5,
			"componentType":5126,
			"count":1319,
			"type":"VEC3"
		},
		{
			"bufferView":6,
			"componentType":5126,
			"count":1319,
			"type":"VEC2"
		},
		{
			"bufferView":7,
			"componentType":5123,
			"count":2970,
			"type":"SCALAR"
		},
		{
			"bufferView":8,
			"componentType":5126,
			"count":1301,
			"max":[
				96,
				10,
				16
			],
			"min":[
				-96,
				-10,
				-16
			],
			"type":"VEC3"
		},
		{
			"bufferView":9,
			"componentType":5126,
			"count":1301,
			"type":"VEC3"
		},
		{
			"bufferView":10,
			"componentType":5126,
			"count":1301,
			"type":"VEC2"
		},
		{
			"bufferView":11,
			"componentType":5123,
			"count":2853,
			"type":"SCALAR"
		},
		{
			"bufferView":12,
			"componentType":5126,
			"count":72,
			"max":[
				64,
				6,
				14.5
			],
			"min":[
				-64,
				6,
				-14.5
			],
			"type":"VEC3"
		},
		{
			"bufferView":13,
			"componentType":5126,
			"count":72,
			"type":"VEC3"
		},
		{
			"bufferView":14,
			"componentType":5126,
			"count":72,
			"type":"VEC2"
		},
		{
			"bufferView":15,
			"componentType":5123,
			"count":216,
			"type":"SCALAR"
		},
		{
			"bufferView":16,
			"componentType":5126,
			"count":36,
			"max":[
				48,
				0,
				14.5
			],
			"min":[
				-48,
				-8,
				-14.5
			],
			"type":"VEC3"
		},
		{
			"bufferView":17,
			"componentType":5126,
			"count":36,
			"type":"VEC3"
		},
		{
			"bufferView":18,
			"componentType":5126,
			"count":36,
			"type":"VEC2"
		},
		{
			"bufferView":19,
			"componentType":5123,
			"count":60,
			"type":"SCALAR"
		},
		{
			"bufferView":20,
			"componentType":5126,
			"count":475,
			"max":[
				96,
				10,
				15
			],
			"min":[
				-96,
				-8,
				-15
			],
			"type":"VEC3"
		},
		{
			"bufferView":21,
			"componentType":5126,
			"count":475,
			"type":"VEC3"
		},
		{
			"bufferView":22,
			"componentType":5126,
			"count":475,
			"type":"VEC2"
		},
		{
			"bufferView":23,
			"componentType":5123,
			"count":777,
			"type":"SCALAR"
		},
		{
			"bufferView":24,
			"componentType":5126,
			"count":200,
			"max":[
				34.25,
				24.125,
				1.75
			],
			"min":[
				-34.25,
				23.375,
				-1.75
			],
			"type":"VEC3"
		},
		{
			"bufferView":25,
			"componentType":5126,
			"count":200,
			"type":"VEC3"
		},
		{
			"bufferView":26,
			"componentType":5126,
			"count":200,
			"type":"VEC2"
		},
		{
			"bufferView":27,
			"componentType":5123,
			"count":384,
			"type":"SCALAR"
		},
		{
			"bufferView":28,
			"componentType":5126,
			"count":218,
			"max":[
				63.5,
				24.125,
				5.5
			],
			"min":[
				-63.5,
				-7.75,
				-5.5
			],
			"type":"VEC3"
		},
		{
			"bufferView":29,
			"componentType":5126,
			"count":218,
			"type":"VEC3"
		},
		{
			"bufferView":30,
			"componentType":5126,
			"count":218,
			"type":"VEC2"
		},
		{
			"bufferView":31,
			"componentType":5123,
			"count":498,
			"type":"SCALAR"
		},
		{
			"bufferView":32,
			"componentType":5126,
			"count":152,
			"max":[
				61.5,
				42.875,
				1.75
			],
			"min":[
				-61.5,
				14.5,
				-1.75
			],
			"type":"VEC3"
		},
		{
			"bufferView":33,
			"componentType":5126,
			"count":152,
			"type":"VEC3"
		},
		{
			"bufferView":34,
			"componentType":5126,
			"count":152,
			"type":"VEC2"
		},
		{
			"bufferView":35,
			"componentType":5123,
			"count":336,
			"type":"SCALAR"
		},
		{
			"bufferView":36,
			"componentType":5126,
			"count":48,
			"max":[
				61.5,
				15,
				1.5
			],
			"min":[
				-61.5,
				14,
				-1.5
			],
			"type":"VEC3"
		},
		{
			"bufferView":37,
			"componentType":5126,
			"count":48,
			"type":"VEC3"
		},
		{
			"bufferView":38,
			"componentType":5126,
			"count":48,
			"type":"VEC2"
		},
		{
			"bufferView":39,
			"componentType":5123,
			"count":96,
			"type":"SCALAR"
		},
		{
			"bufferView":40,
			"componentType":5126,
			"count":24,
			"max":[
				15,
				46,
				2
			],
			"min":[
				-15,
				38,
				-2
			],
			"type":"VEC3"
		},
		{
			"bufferView":41,
			"componentType":5126,
			"count":24,
			"type":"VEC3"
		},
		{
			"bufferView":42,
			"componentType":5126,
			"count":24,
			"type":"VEC2"
		},
		{
			"bufferView":43,
			"componentType":5123,
			"count":48,
			"type":"SCALAR"
		},
		{
			"bufferView":44,
			"componentType":5126,
			"count":32,
			"max":[
				15,
				46,
				2
			],
			"min":[
				-15,
				38,
				-2
			],
			"type":"VEC3"
		},
		{
			"bufferView":45,
			"componentType":5126,
			"count":32,
			"type":"VEC3"
		},
		{
			"bufferView":46,
			"componentType":5126,
			"count":32,
			"type":"VEC2"
		},
		{
			"bufferView":47,
			"componentType":5123,
			"count":108,
			"type":"SCALAR"
		},
		{
			"bufferView":48,
			"componentType":5126,
			"count":12,
			"max":[
				15,
				46,
				2
			],
			"min":[
				-15,
				46,
				-2
			],
			"type":"VEC3"
		},
		{
			"bufferView":49,
			"componentType":5126,
			"count":12,
			"type":"VEC3"
		},
		{
			"bufferView":50,
			"componentType":5126,
			"count":12,
			"type":"VEC2"
		},
		{
			"bufferView":51,
			"componentType":5123,
			"count":24,
			"type":"SCALAR"
		},
		{
			"bufferView":52,
			"componentType":5126,
			"count":98,
			"max":[
				63.5,
				14,
				5
			],
			"min":[
				-63.5,
				4,
				-5
			],
			"type":"VEC3"
		},
		{
			"bufferView":53,
			"componentType":5126,
			"count":98,
			"type":"VEC3"
		},
		{
			"bufferView":54,
			"componentType":5126,
			"count":98,
			"type":"VEC2"
		},
		{
			"bufferView":55,
			"componentType":5123,
			"count":162,
			"type":"SCALAR"
		},
		{
			"bufferView":56,
			"componentType":5126,
			"count":36,
			"max":[
				8,
				14,
				5
			],
			"min":[
				-8,
				14,
				-5
			],
			"type":"VEC3"
		},
		{
			"bufferView":57,
			"componentType":5126,
			"count":36,
			"type":"VEC3"
		},
		{
			"bufferView":58,
			"componentType":5126,
			"count":36,
			"type":"VEC2"
		},
		{
			"bufferView":59,
			"componentType":5123,
			"count":102,
			"type":"SCALAR"
		},
		{
			"bufferView":60,
			"componentType":5126,
			"count":38,
			"max":[
				8,
				14,
				5
			],
			"min":[
				-8,
				8,
				-5
			],
			"type":"VEC3"
		},
		{
			"bufferView":61,
			"componentType":5126,
			"count":38,
			"type":"VEC3"
		},
		{
			"bufferView":62,
			"componentType":5126,
			"count":38,
			"type":"VEC2"
		},
		{
			"bufferView":63,
			"componentType":5123,
			"count":66,
			"type":"SCALAR"
		},
		{
			"bufferView":64,
			"componentType":5126,
			"count":16,
			"max":[
				6,
				14,
				5
			],
			"min":[
				-6,
				8,
				-5
			],
			"type":"VEC3"
		},
		{
			"bufferView":65,
			"componentType":5126,
			"count":16,
			"type":"VEC3"
		},
		{
			"bufferView":66,
			"componentType":5126,
			"count":16,
			"type":"VEC2"
		},
		{
			"bufferView":67,
			"componentType":5123,
			"count":24,
			"type":"SCALAR"
		},
		{
			"bufferView":68,
			"componentType":5126,
			"count":104,
			"max":[
				9,
				-7,
				5.5
			],
			"min":[
				-9,
				-11,
				-5.5
			],
			"type":"VEC3"
		},
		{
			"bufferView":69,
			"componentType":5126,
			"count":104,
			"type":"VEC3"
		},
		{
			"bufferView":70,
			"componentType":5126,
			"count":104,
			"type":"VEC2"
		},
		{
			"bufferView":71,
			"componentType":5123,
			"count":216,
			"type":"SCALAR"
		},
		{
			"bufferView":72,
			"componentType":5126,
			"count":84,
			"max":[
				8.5,
				15,
				5
			],
			"min":[
				-8.5,
				-11,
				-5
			],
			"type":"VEC3"
		},
		{
			"bufferView":73,
			"componentType":5126,
			"count":84,
			"type":"VEC3"
		},
		{
			"bufferView":74,
			"componentType":5126,
			"count":84,
			"type":"VEC2"
		},
		{
			"bufferView":75,
			"componentType":5123,
			"count":132,
			"type":"SCALAR"
		},
		{
			"bufferView":76,
			"componentType":5126,
			"count":8,
			"max":[
				11,
				45,
				1
			],
			"min":[
				-11,
				41,
				-1
			],
			"type":"VEC3"
		},
		{
			"bufferView":77,
			"componentType":5126,
			"count":8,
			"type":"VEC3"
		},
		{
			"bufferView":78,
			"componentType":5126,
			"count":8,
			"type":"VEC2"
		},
		{
			"bufferView":79,
			"componentType":5123,
			"count":12,
			"type":"SCALAR"
		},
		{
			"bufferView":80,
			"componentType":5126,
			"count":26,
			"max":[
				48,
				0,
				14
			],
			"min":[
				-48,
				-8,
				-14
			],
			"type":"VEC3"
		},
		{
			"bufferView":81,
			"componentType":5126,
			"count":26,
			"type":"VEC3"
		},
		{
			"bufferView":82,
			"componentType":5126,
			"count":26,
			"type":"VEC2"
		},
		{
			"bufferView":83,
			"componentType":5123,
			"count":54,
			"type":"SCALAR"
		}
	],
	"bufferViews":[
		{
			"buffer":0,
			"byteLength":4176,
			"byteOffset":0,
			"target":34962
		},
		{
			"buffer":0,
			"byteLength":4176,
			"byteOffset":4176,
			"target":34962
		},
		{
			"buffer":0,
			"byteLength":2784,
			"byteOffset":8352,
			"target":34962
		},
		{
			"buffer":0,
			"byteLength":1968,
			"byteOffset":11136,
			"target":34963
		},
		{
			"buffer":0,
			"byteLength":15828,
			"byteOffset":13104,
			"target":34962
		},
		{
			"buffer":0,
			"byteLength":15828,
			"byteOffset":28932,
			"target":34962
		},
		{
			"buffer":0,
			"byteLength":10552,
			"byteOffset":44760,
			"target":34962
		},
		{
			"buffer":0,
			"byteLength":5940,
			"byteOffset":55312,
			"target":34963
		},
		{
			"buffer":0,
			"byteLength":15612,
			"byteOffset":61252,
			"target":34962
		},
		{
			"buffer":0,
			"byteLength":15612,
			"byteOffset":76864,
			"target":34962
		},
		{
			"buffer":0,
			"byteLength":10408,
			"byteOffset":92476,
			"target":34962
		},
		{
			"buffer":0,
			"byteLength":5706,
			"byteOffset":102884,
			"target":34963
		},
		{
			"buffer":0,
			"byteLength":864,
			"byteOffset":108592,
			"target":34962
		},
		{
			"buffer":0,
			"byteLength":864,
			"byteOffset":109456,
			"target":34962
		},
		{
			"buffer":0,
			"byteLength":576,
			"byteOffset":110320,
			"target":34962
		},
		{
			"buffer":0,
			"byteLength":432,
			"byteOffset":110896,
			"target":34963
		},
		{
			"buffer":0,
			"byteLength":432,
			"byteOffset":111328,
			"target":34962
		},
		{
			"buffer":0,
			"byteLength":432,
			"byteOffset":111760,
			"target":34962
		},
		{
			"buffer":0,
			"byteLength":288,
			"byteOffset":112192,
			"target":34962
		},
		{
			"buffer":0,
			"byteLength":120,
			"byteOffset":112480,
			"target":34963
		},
		{
			"buffer":0,
			"byteLength":5700,
			"byteOffset":112600,
			"target":34962
		},
		{
			"buffer":0,
			"byteLength":5700,
			"byteOffset":118300,
			"target":34962
		},
		{
			"buffer":0,
			"byteLength":3800,
			"byteOffset":124000,
			"target":34962
		},
		{
			"buffer":0,
			"byteLength":1554,
			"byteOffset":127800,
			"target":34963
		},
		{
			"buffer":0,
			"byteLength":2400,
			"byteOffset":129356,
			"target":34962
		},
		{
			"buffer":0,
			"byteLength":2400,
			"byteOffset":131756,
			"target":34962
		},
		{
			"buffer":0,
			"byteLength":1600,
			"byteOffset":134156,
			"target":34962
		},
		{
			"buffer":0,
			"byteLength":768,
			"byteOffset":135756,
			"target":34963
		},
		{
			"buffer":0,
			"byteLength":2616,
			"byteOffset":136524,
			"target":34962
		},
		{
			"buffer":0,
			"byteLength":2616,
			"byteOffset":139140,
			"target":34962
		},
		{
			"buffer":0,
			"byteLength":1744,
			"byteOffset":141756,
			"target":34962
		},
		{
			"buffer":0,
			"byteLength":996,
			"byteOffset":143500,
			"target":34963
		},
		{
			"buffer":0,
			"byteLength":1824,
			"byteOffset":144496,
			"target":34962
		},
		{
			"buffer":0,
			"byteLength":1824,
			"byteOffset":146320,
			"target":34962
		},
		{
			"buffer":0,
			"byteLength":1216,
			"byteOffset":148144,
			"target":34962
		},
		{
			"buffer":0,
			"byteLength":672,
			"byteOffset":149360,
			"target":34963
		},
		{
			"buffer":0,
			"byteLength":576,
			"byteOffset":150032,
			"target":34962
		},
		{
			"buffer":0,
			"byteLength":576,
			"byteOffset":150608,
			"target":34962
		},
		{
			"buffer":0,
			"byteLength":384,
			"byteOffset":151184,
			"target":34962
		},
		{
			"buffer":0,
			"byteLength":192,
			"byteOffset":151568,
			"target":34963
		},
		{
			"buffer":0,
			"byteLength":288,
			"byteOffset":151760,
			"target":34962
		},
		{
			"buffer":0,
			"byteLength":288,
			"byteOffset":152048,
			"target":34962
		},
		{
			"buffer":0,
			"byteLength":192,
			"byteOffset":152336,
			"target":34962
		},
		{
			"buffer":0,
			"byteLength":96,
			"byteOffset":152528,
			"target":34963
		},
		{
			"buffer":0,
			"byteLength":384,
			"byteOffset":152624,
			"target":34962
		},
		{
			"buffer":0,
			"byteLength":384,
			"byteOffset":153008,
			"target":34962
		},
		{
			"buffer":0,
			"byteLength":256,
			"byteOffset":153392,
			"target":34962
		},
		{
			"buffer":0,
			"byteLength":216,
			"byteOffset":153648,
			"target":34963
		},
		{
			"buffer":0,
			"byteLength":144,
			"byteOffset":153864,
			"target":34962
		},
		{
			"buffer":0,
			"byteLength":144,
			"byteOffset":154008,
			"target":34962
		},
		{
			"buffer":0,
			"byteLength":96,
			"byteOffset":154152,
			"target":34962
		},
		{
			"buffer":0,
			"byteLength":48,
			"byteOffset":154248,
			"target":34963
		},
		{
			"buffer":0,
			"byteLength":1176,
			"byteOffset":154296,
			"target":34962
		},
		{
			"buffer":0,
			"byteLength":1176,
			"byteOffset":155472,
			"target":34962
		},
		{
			"buffer":0,
			"byteLength":784,
			"byteOffset":156648,
			"target":34962
		},
		{
			"buffer":0,
			"byteLength":324,
			"byteOffset":157432,
			"target":34963
		},
		{
			"buffer":0,
			"byteLength":432,
			"byteOffset":157756,
			"target":34962
		},
		{
			"buffer":0,
			"byteLength":432,
			"byteOffset":158188,
			"target":34962
		},
		{
			"buffer":0,
			"byteLength":288,
			"byteOffset":158620,
			"target":34962
		},
		{
			"buffer":0,
			"byteLength":204,
			"byteOffset":158908,
			"target":34963
		},
		{
			"buffer":0,
			"byteLength":456,
			"byteOffset":159112,
			"target":34962
		},
		{
			"buffer":0,
			"byteLength":456,
			"byteOffset":159568,
			"target":34962
		},
		{
			"buffer":0,
			"byteLength":304,
			"byteOffset":160024,
			"target":34962
		},
		{
			"buffer":0,
			"byteLength":132,
			"byteOffset":160328,
			"target":34963
		},
		{
			"buffer":0,
			"byteLength":192,
			"byteOffset":160460,
			"target":34962
		},
		{
			"buffer":0,
			"byteLength":192,
			"byteOffset":160652,
			"target":34962
		},
		{
			"buffer":0,
			"byteLength":128,
			"byteOffset":160844,
			"target":34962
		},
		{
			"buffer":0,
			"byteLength":48,
			"byteOffset":160972,
			"target":34963
		},
		{
			"buffer":0,
			"byteLength":1248,
			"byteOffset":161020,
			"target":34962
		},
		{
			"buffer":0,
			"byteLength":1248,
			"byteOffset":162268,
			"target":34962
		},
		{
			"buffer":0,
			"byteLength":832,
			"byteOffset":163516,
			"target":34962
		},
		{
			"buffer":0,
			"byteLength":432,
			"byteOffset":164348,
			"target":34963
		},
		{
			"buffer":0,
			"byteLength":1008,
			"byteOffset":164780,
			"target":34962
		},
		{
			"buffer":0,
			"byteLength":1008,
			"byteOffset":165788,
			"target":34962
		},
		{
			"buffer":0,
			"byteLength":672,
			"byteOffset":166796,
			"target":34962
		},
		{
			"buffer":0,
			"byteLength":264,
			"byteOffset":167468,
			"target":34963
		},
		{
			"buffer":0,
			"byteLength":96,
			"byteOffset":167732,
			"target":34962
		},
		{
			"buffer":0,
			"byteLength":96,
			"byteOffset":167828,
			"target":34962
		},
		{
			"buffer":0,
			"byteLength":64,
			"byteOffset":167924,
			"target":34962
		},
		{
			"buffer":0,
			"byteLength":24,
			"byteOffset":167988,
			"target":34963
		},
		{
			"buffer":0,
			"byteLength":312,
			"byteOffset":168012,
			"target":34962
		},
		{
			"buffer":0,
			"byteLength":312,
			"byteOffset":168324,
			"target":34962
		},
		{
			"buffer":0,
			"byteLength":208,
			"byteOffset":168636,
			"target":34962
		},
		{
			"buffer":0,
			"byteLength":108,
			"byteOffset":168844,
			"target":34963
		}
	],
	"buffers":[
		{
			"byteLength":168952,
			"uri":"rst_dogma_bridge2.bin"
		}
	]
}
