{
	"asset":{
		"generator":"Khronos glTF Blender I/O v4.5.48",
		"version":"2.0"
	},
	"scene":0,
	"scenes":[
		{
			"name":"Scene",
			"nodes":[
				0
			]
		}
	],
	"nodes":[
		{
			"mesh":0,
			"name":"Object"
		}
	],
	"materials":[
		{
			"doubleSided":true,
			"name":"BE_EWAL01B",
			"pbrMetallicRoughness":{
				"baseColorFactor":[
					0.800000011920929,
					0.800000011920929,
					0.800000011920929,
					1
				],
				"metallicFactor":0,
				"roughnessFactor":0.5
			}
		}
	],
	"meshes":[
		{
			"name":"Mesh",
			"primitives":[
				{
					"attributes":{
						"POSITION":0,
						"NORMAL":1,
						"TEXCOORD_0":2
					},
					"indices":3,
					"material":0
				}
			]
		}
	],
	"accessors":[
		{
			"bufferView":0,
			"componentType":5126,
			"count":2553,
			"max":[
				96,
				46,
				16
			],
			"min":[
				-96,
				-24,
				-16
			],
			"type":"VEC3"
		},
		{
			"bufferView":1,
			"componentType":5126,
			"count":2553,
			"type":"VEC3"
		},
		{
			"bufferView":2,
			"componentType":5126,
			"count":2553,
			"type":"VEC2"
		},
		{
			"bufferView":3,
			"componentType":5123,
			"count":5250,
			"type":"SCALAR"
		}
	],
	"bufferViews":[
		{
			"buffer":0,
			"byteLength":30636,
			"byteOffset":0,
			"target":34962
		},
		{
			"buffer":0,
			"byteLength":30636,
			"byteOffset":30636,
			"target":34962
		},
		{
			"buffer":0,
			"byteLength":20424,
			"byteOffset":61272,
			"target":34962
		},
		{
			"buffer":0,
			"byteLength":10500,
			"byteOffset":81696,
			"target":34963
		}
	],
	"buffers":[
		{
			"byteLength":92196,
			"uri":"rst_dogma_bridge.bin"
		}
	]
}
