{
	"asset":{
		"generator":"Khronos glTF Blender I/O v4.5.48",
		"version":"2.0"
	},
	"scene":0,
	"scenes":[
		{
			"name":"Scene",
			"nodes":[
				0
			]
		}
	],
	"nodes":[
		{
			"mesh":0,
			"name":"Object"
		}
	],
	"materials":[
		{
			"doubleSided":true,
			"name":"BE_IGENERICDARK",
			"pbrMetallicRoughness":{
				"baseColorFactor":[
					0.800000011920929,
					0.800000011920929,
					0.800000011920929,
					1
				],
				"metallicFactor":0,
				"roughnessFactor":0.5
			}
		},
		{
			"doubleSided":true,
			"name":"BE_EWAL01B",
			"pbrMetallicRoughness":{
				"baseColorFactor":[
					0.800000011920929,
					0.800000011920929,
					0.800000011920929,
					1
				],
				"metallicFactor":0,
				"roughnessFactor":0.5
			}
		},
		{
			"doubleSided":true,
			"name":"BE_EWAL03A",
			"pbrMetallicRoughness":{
				"baseColorFactor":[
					0.800000011920929,
					0.800000011920929,
					0.800000011920929,
					1
				],
				"metallicFactor":0,
				"roughnessFactor":0.5
			}
		},
		{
			"doubleSided":true,
			"name":"BE_EWALL10",
			"pbrMetallicRoughness":{
				"baseColorFactor":[
					0.800000011920929,
					0.800000011920929,
					0.800000011920929,
					1
				],
				"metallicFactor":0,
				"roughnessFactor":0.5
			}
		},
		{
			"doubleSided":true,
			"name":"BE_EWAL02B",
			"pbrMetallicRoughness":{
				"baseColorFactor":[
					0.800000011920929,
					0.800000011920929,
					0.800000011920929,
					1
				],
				"metallicFactor":0,
				"roughnessFactor":0.5
			}
		},
		{
			"doubleSided":true,
			"name":"BE_EWAL05",
			"pbrMetallicRoughness":{
				"baseColorFactor":[
					0.800000011920929,
					0.800000011920929,
					0.800000011920929,
					1
				],
				"metallicFactor":0,
				"roughnessFactor":0.5
			}
		},
		{
			"doubleSided":true,
			"name":"BE_IHALIG",
			"pbrMetallicRoughness":{
				"baseColorFactor":[
					0.800000011920929,
					0.800000011920929,
					0.800000011920929,
					1
				],
				"metallicFactor":0,
				"roughnessFactor":0.5
			}
		},
		{
			"doubleSided":true,
			"name":"BE_ESPEC01",
			"pbrMetallicRoughness":{
				"baseColorFactor":[
					0.800000011920929,
					0.800000011920929,
					0.800000011920929,
					1
				],
				"metallicFactor":0,
				"roughnessFactor":0.5
			}
		},
		{
			"doubleSided":true,
			"name":"BE_EFLO01",
			"pbrMetallicRoughness":{
				"baseColorFactor":[
					0.800000011920929,
					0.800000011920929,
					0.800000011920929,
					1
				],
				"metallicFactor":0,
				"roughnessFactor":0.5
			}
		}
	],
	"meshes":[
		{
			"name":"Mesh",
			"primitives":[
				{
					"attributes":{
						"POSITION":0,
						"NORMAL":1,
						"TEXCOORD_0":2
					},
					"indices":3,
					"material":0
				},
				{
					"attributes":{
						"POSITION":4,
						"NORMAL":5,
						"TEXCOORD_0":6
					},
					"indices":7,
					"material":1
				},
				{
					"attributes":{
						"POSITION":8,
						"NORMAL":9,
						"TEXCOORD_0":10
					},
					"indices":11,
					"material":2
				},
				{
					"attributes":{
						"POSITION":12,
						"NORMAL":13,
						"TEXCOORD_0":14
					},
					"indices":15,
					"material":3
				},
				{
					"attributes":{
						"POSITION":16,
						"NORMAL":17,
						"TEXCOORD_0":18
					},
					"indices":19,
					"material":4
				},
				{
					"attributes":{
						"POSITION":20,
						"NORMAL":21,
						"TEXCOORD_0":22
					},
					"indices":23,
					"material":5
				},
				{
					"attributes":{
						"POSITION":24,
						"NORMAL":25,
						"TEXCOORD_0":26
					},
					"indices":27,
					"material":6
				},
				{
					"attributes":{
						"POSITION":28,
						"NORMAL":29,
						"TEXCOORD_0":30
					},
					"indices":27,
					"material":7
				},
				{
					"attributes":{
						"POSITION":31,
						"NORMAL":32,
						"TEXCOORD_0":33
					},
					"indices":34,
					"material":8
				}
			]
		}
	],
	"accessors":[
		{
			"bufferView":0,
			"componentType":5126,
			"count":333,
			"max":[
				29.484375,
				28,
				-34.40625
			],
			"min":[
				-28.984375,
				0,
				-53
			],
			"type":"VEC3"
		},
		{
			"bufferView":1,
			"componentType":5126,
			"count":333,
			"type":"VEC3"
		},
		{
			"bufferView":2,
			"componentType":5126,
			"count":333,
			"type":"VEC2"
		},
		{
			"bufferView":3,
			"componentType":5123,
			"count":621,
			"type":"SCALAR"
		},
		{
			"bufferView":4,
			"componentType":5126,
			"count":534,
			"max":[
				33,
				44,
				-30.875
			],
			"min":[
				-32.5,
				0,
				-54
			],
			"type":"VEC3"
		},
		{
			"bufferView":5,
			"componentType":5126,
			"count":534,
			"type":"VEC3"
		},
		{
			"bufferView":6,
			"componentType":5126,
			"count":534,
			"type":"VEC2"
		},
		{
			"bufferView":7,
			"componentType":5123,
			"count":1128,
			"type":"SCALAR"
		},
		{
			"bufferView":8,
			"componentType":5126,
			"count":269,
			"max":[
				29.625,
				28,
				-33.66977310180664
			],
			"min":[
				-29.71200942993164,
				-8,
				-53
			],
			"type":"VEC3"
		},
		{
			"bufferView":9,
			"componentType":5126,
			"count":269,
			"type":"VEC3"
		},
		{
			"bufferView":10,
			"componentType":5126,
			"count":269,
			"type":"VEC2"
		},
		{
			"bufferView":11,
			"componentType":5123,
			"count":408,
			"type":"SCALAR"
		},
		{
			"bufferView":12,
			"componentType":5126,
			"count":390,
			"max":[
				33.71875,
				44,
				-30.15625
			],
			"min":[
				-33.21875,
				0,
				-54.5
			],
			"type":"VEC3"
		},
		{
			"bufferView":13,
			"componentType":5126,
			"count":390,
			"type":"VEC3"
		},
		{
			"bufferView":14,
			"componentType":5126,
			"count":390,
			"type":"VEC2"
		},
		{
			"bufferView":15,
			"componentType":5123,
			"count":867,
			"type":"SCALAR"
		},
		{
			"bufferView":16,
			"componentType":5126,
			"count":269,
			"max":[
				33,
				38.5,
				-30.875
			],
			"min":[
				-29.71200942993164,
				14,
				-54
			],
			"type":"VEC3"
		},
		{
			"bufferView":17,
			"componentType":5126,
			"count":269,
			"type":"VEC3"
		},
		{
			"bufferView":18,
			"componentType":5126,
			"count":269,
			"type":"VEC2"
		},
		{
			"bufferView":19,
			"componentType":5123,
			"count":573,
			"type":"SCALAR"
		},
		{
			"bufferView":20,
			"componentType":5126,
			"count":265,
			"max":[
				33.71875,
				0,
				-30.15625
			],
			"min":[
				-33.21875,
				-8,
				-54.5
			],
			"type":"VEC3"
		},
		{
			"bufferView":21,
			"componentType":5126,
			"count":265,
			"type":"VEC3"
		},
		{
			"bufferView":22,
			"componentType":5126,
			"count":265,
			"type":"VEC2"
		},
		{
			"bufferView":23,
			"componentType":5123,
			"count":459,
			"type":"SCALAR"
		},
		{
			"bufferView":24,
			"componentType":5126,
			"count":4,
			"max":[
				-11.21875,
				10.5,
				-46.53125
			],
			"min":[
				-14.734375,
				9.032608985900879,
				-50.046875
			],
			"type":"VEC3"
		},
		{
			"bufferView":25,
			"componentType":5126,
			"count":4,
			"type":"VEC3"
		},
		{
			"bufferView":26,
			"componentType":5126,
			"count":4,
			"type":"VEC2"
		},
		{
			"bufferView":27,
			"componentType":5123,
			"count":6,
			"type":"SCALAR"
		},
		{
			"bufferView":28,
			"componentType":5126,
			"count":4,
			"max":[
				-11.21875,
				18.5,
				-46.53125
			],
			"min":[
				-14.03125,
				10.5,
				-49.34375
			],
			"type":"VEC3"
		},
		{
			"bufferView":29,
			"componentType":5126,
			"count":4,
			"type":"VEC3"
		},
		{
			"bufferView":30,
			"componentType":5126,
			"count":4,
			"type":"VEC2"
		},
		{
			"bufferView":31,
			"componentType":5126,
			"count":8,
			"max":[
				-11.21875,
				19.967391967773438,
				-46.53125
			],
			"min":[
				-14.734375,
				9.032608985900879,
				-50.046875
			],
			"type":"VEC3"
		},
		{
			"bufferView":32,
			"componentType":5126,
			"count":8,
			"type":"VEC3"
		},
		{
			"bufferView":33,
			"componentType":5126,
			"count":8,
			"type":"VEC2"
		},
		{
			"bufferView":34,
			"componentType":5123,
			"count":12,
			"type":"SCALAR"
		}
	],
	"bufferViews":[
		{
			"buffer":0,
			"byteLength":3996,
			"byteOffset":0,
			"target":34962
		},
		{
			"buffer":0,
			"byteLength":3996,
			"byteOffset":3996,
			"target":34962
		},
		{
			"buffer":0,
			"byteLength":2664,
			"byteOffset":7992,
			"target":34962
		},
		{
			"buffer":0,
			"byteLength":1242,
			"byteOffset":10656,
			"target":34963
		},
		{
			"buffer":0,
			"byteLength":6408,
			"byteOffset":11900,
			"target":34962
		},
		{
			"buffer":0,
			"byteLength":6408,
			"byteOffset":18308,
			"target":34962
		},
		{
			"buffer":0,
			"byteLength":4272,
			"byteOffset":24716,
			"target":34962
		},
		{
			"buffer":0,
			"byteLength":2256,
			"byteOffset":28988,
			"target":34963
		},
		{
			"buffer":0,
			"byteLength":3228,
			"byteOffset":31244,
			"target":34962
		},
		{
			"buffer":0,
			"byteLength":3228,
			"byteOffset":34472,
			"target":34962
		},
		{
			"buffer":0,
			"byteLength":2152,
			"byteOffset":37700,
			"target":34962
		},
		{
			"buffer":0,
			"byteLength":816,
			"byteOffset":39852,
			"target":34963
		},
		{
			"buffer":0,
			"byteLength":4680,
			"byteOffset":40668,
			"target":34962
		},
		{
			"buffer":0,
			"byteLength":4680,
			"byteOffset":45348,
			"target":34962
		},
		{
			"buffer":0,
			"byteLength":3120,
			"byteOffset":50028,
			"target":34962
		},
		{
			"buffer":0,
			"byteLength":1734,
			"byteOffset":53148,
			"target":34963
		},
		{
			"buffer":0,
			"byteLength":3228,
			"byteOffset":54884,
			"target":34962
		},
		{
			"buffer":0,
			"byteLength":3228,
			"byteOffset":58112,
			"target":34962
		},
		{
			"buffer":0,
			"byteLength":2152,
			"byteOffset":61340,
			"target":34962
		},
		{
			"buffer":0,
			"byteLength":1146,
			"byteOffset":63492,
			"target":34963
		},
		{
			"buffer":0,
			"byteLength":3180,
			"byteOffset":64640,
			"target":34962
		},
		{
			"buffer":0,
			"byteLength":3180,
			"byteOffset":67820,
			"target":34962
		},
		{
			"buffer":0,
			"byteLength":2120,
			"byteOffset":71000,
			"target":34962
		},
		{
			"buffer":0,
			"byteLength":918,
			"byteOffset":73120,
			"target":34963
		},
		{
			"buffer":0,
			"byteLength":48,
			"byteOffset":74040,
			"target":34962
		},
		{
			"buffer":0,
			"byteLength":48,
			"byteOffset":74088,
			"target":34962
		},
		{
			"buffer":0,
			"byteLength":32,
			"byteOffset":74136,
			"target":34962
		},
		{
			"buffer":0,
			"byteLength":12,
			"byteOffset":74168,
			"target":34963
		},
		{
			"buffer":0,
			"byteLength":48,
			"byteOffset":74180,
			"target":34962
		},
		{
			"buffer":0,
			"byteLength":48,
			"byteOffset":74228,
			"target":34962
		},
		{
			"buffer":0,
			"byteLength":32,
			"byteOffset":74276,
			"target":34962
		},
		{
			"buffer":0,
			"byteLength":96,
			"byteOffset":74308,
			"target":34962
		},
		{
			"buffer":0,
			"byteLength":96,
			"byteOffset":74404,
			"target":34962
		},
		{
			"buffer":0,
			"byteLength":64,
			"byteOffset":74500,
			"target":34962
		},
		{
			"buffer":0,
			"byteLength":24,
			"byteOffset":74564,
			"target":34963
		}
	],
	"buffers":[
		{
			"byteLength":74588,
			"uri":"bmiscpan_ruinf.bin"
		}
	]
}
