{
	"asset":{
		"generator":"Khronos glTF Blender I/O v4.5.48",
		"version":"2.0"
	},
	"scene":0,
	"scenes":[
		{
			"name":"Scene",
			"nodes":[
				0
			]
		}
	],
	"nodes":[
		{
			"mesh":0,
			"name":"Object"
		}
	],
	"materials":[
		{
			"doubleSided":true,
			"name":"BE_EWAL01B",
			"pbrMetallicRoughness":{
				"baseColorFactor":[
					0.800000011920929,
					0.800000011920929,
					0.800000011920929,
					1
				],
				"metallicFactor":0,
				"roughnessFactor":0.5
			}
		},
		{
			"doubleSided":true,
			"name":"BE_EWAL03A",
			"pbrMetallicRoughness":{
				"baseColorFactor":[
					0.800000011920929,
					0.800000011920929,
					0.800000011920929,
					1
				],
				"metallicFactor":0,
				"roughnessFactor":0.5
			}
		},
		{
			"doubleSided":true,
			"name":"BE_EWAL05",
			"pbrMetallicRoughness":{
				"baseColorFactor":[
					0.800000011920929,
					0.800000011920929,
					0.800000011920929,
					1
				],
				"metallicFactor":0,
				"roughnessFactor":0.5
			}
		},
		{
			"doubleSided":true,
			"name":"BE_EWALL10",
			"pbrMetallicRoughness":{
				"baseColorFactor":[
					0.800000011920929,
					0.800000011920929,
					0.800000011920929,
					1
				],
				"metallicFactor":0,
				"roughnessFactor":0.5
			}
		}
	],
	"meshes":[
		{
			"name":"Mesh",
			"primitives":[
				{
					"attributes":{
						"POSITION":0,
						"NORMAL":1,
						"TEXCOORD_0":2
					},
					"indices":3,
					"material":0
				},
				{
					"attributes":{
						"POSITION":4,
						"NORMAL":5,
						"TEXCOORD_0":6
					},
					"indices":7,
					"material":1
				},
				{
					"attributes":{
						"POSITION":8,
						"NORMAL":9,
						"TEXCOORD_0":10
					},
					"indices":11,
					"material":2
				},
				{
					"attributes":{
						"POSITION":12,
						"NORMAL":13,
						"TEXCOORD_0":14
					},
					"indices":15,
					"material":3
				}
			]
		}
	],
	"accessors":[
		{
			"bufferView":0,
			"componentType":5126,
			"count":22,
			"max":[
				9,
				2,
				4
			],
			"min":[
				-6.34375,
				-1,
				-4
			],
			"type":"VEC3"
		},
		{
			"bufferView":1,
			"componentType":5126,
			"count":22,
			"type":"VEC3"
		},
		{
			"bufferView":2,
			"componentType":5126,
			"count":22,
			"type":"VEC2"
		},
		{
			"bufferView":3,
			"componentType":5123,
			"count":36,
			"type":"SCALAR"
		},
		{
			"bufferView":4,
			"componentType":5126,
			"count":6,
			"max":[
				-5.671875,
				-1.9206858326015208e-14,
				2
			],
			"min":[
				-6.34375,
				-1,
				-2
			],
			"type":"VEC3"
		},
		{
			"bufferView":5,
			"componentType":5126,
			"count":6,
			"type":"VEC3"
		},
		{
			"bufferView":6,
			"componentType":5126,
			"count":6,
			"type":"VEC2"
		},
		{
			"bufferView":7,
			"componentType":5123,
			"count":6,
			"type":"SCALAR"
		},
		{
			"bufferView":8,
			"componentType":5126,
			"count":52,
			"max":[
				9,
				2,
				4
			],
			"min":[
				-7,
				-2,
				-4
			],
			"type":"VEC3"
		},
		{
			"bufferView":9,
			"componentType":5126,
			"count":52,
			"type":"VEC3"
		},
		{
			"bufferView":10,
			"componentType":5126,
			"count":52,
			"type":"VEC2"
		},
		{
			"bufferView":11,
			"componentType":5123,
			"count":108,
			"type":"SCALAR"
		},
		{
			"bufferView":12,
			"componentType":5126,
			"count":20,
			"max":[
				-4.34375,
				2,
				4
			],
			"min":[
				-7,
				-2,
				-4
			],
			"type":"VEC3"
		},
		{
			"bufferView":13,
			"componentType":5126,
			"count":20,
			"type":"VEC3"
		},
		{
			"bufferView":14,
			"componentType":5126,
			"count":20,
			"type":"VEC2"
		},
		{
			"bufferView":15,
			"componentType":5123,
			"count":42,
			"type":"SCALAR"
		}
	],
	"bufferViews":[
		{
			"buffer":0,
			"byteLength":264,
			"byteOffset":0,
			"target":34962
		},
		{
			"buffer":0,
			"byteLength":264,
			"byteOffset":264,
			"target":34962
		},
		{
			"buffer":0,
			"byteLength":176,
			"byteOffset":528,
			"target":34962
		},
		{
			"buffer":0,
			"byteLength":72,
			"byteOffset":704,
			"target":34963
		},
		{
			"buffer":0,
			"byteLength":72,
			"byteOffset":776,
			"target":34962
		},
		{
			"buffer":0,
			"byteLength":72,
			"byteOffset":848,
			"target":34962
		},
		{
			"buffer":0,
			"byteLength":48,
			"byteOffset":920,
			"target":34962
		},
		{
			"buffer":0,
			"byteLength":12,
			"byteOffset":968,
			"target":34963
		},
		{
			"buffer":0,
			"byteLength":624,
			"byteOffset":980,
			"target":34962
		},
		{
			"buffer":0,
			"byteLength":624,
			"byteOffset":1604,
			"target":34962
		},
		{
			"buffer":0,
			"byteLength":416,
			"byteOffset":2228,
			"target":34962
		},
		{
			"buffer":0,
			"byteLength":216,
			"byteOffset":2644,
			"target":34963
		},
		{
			"buffer":0,
			"byteLength":240,
			"byteOffset":2860,
			"target":34962
		},
		{
			"buffer":0,
			"byteLength":240,
			"byteOffset":3100,
			"target":34962
		},
		{
			"buffer":0,
			"byteLength":160,
			"byteOffset":3340,
			"target":34962
		},
		{
			"buffer":0,
			"byteLength":84,
			"byteOffset":3500,
			"target":34963
		}
	],
	"buffers":[
		{
			"byteLength":3584,
			"uri":"bmiscpan_ruinh.bin"
		}
	]
}
