{
	"asset":{
		"generator":"Khronos glTF Blender I/O v4.5.48",
		"version":"2.0"
	},
	"scene":0,
	"scenes":[
		{
			"name":"Scene",
			"nodes":[
				0
			]
		}
	],
	"nodes":[
		{
			"mesh":0,
			"name":"Object"
		}
	],
	"materials":[
		{
			"doubleSided":true,
			"name":"BE_ICEI03B",
			"pbrMetallicRoughness":{
				"baseColorFactor":[
					0.800000011920929,
					0.800000011920929,
					0.800000011920929,
					1
				],
				"metallicFactor":0,
				"roughnessFactor":0.5
			}
		},
		{
			"doubleSided":true,
			"name":"BE_EWAL01B",
			"pbrMetallicRoughness":{
				"baseColorFactor":[
					0.800000011920929,
					0.800000011920929,
					0.800000011920929,
					1
				],
				"metallicFactor":0,
				"roughnessFactor":0.5
			}
		},
		{
			"doubleSided":true,
			"name":"BE_EWAL04A",
			"pbrMetallicRoughness":{
				"baseColorFactor":[
					0.800000011920929,
					0.800000011920929,
					0.800000011920929,
					1
				],
				"metallicFactor":0,
				"roughnessFactor":0.5
			}
		},
		{
			"doubleSided":true,
			"name":"BE_EWAL12B",
			"pbrMetallicRoughness":{
				"baseColorFactor":[
					0.800000011920929,
					0.800000011920929,
					0.800000011920929,
					1
				],
				"metallicFactor":0,
				"roughnessFactor":0.5
			}
		},
		{
			"doubleSided":true,
			"name":"BE_EWAL06",
			"pbrMetallicRoughness":{
				"baseColorFactor":[
					0.800000011920929,
					0.800000011920929,
					0.800000011920929,
					1
				],
				"metallicFactor":0,
				"roughnessFactor":0.5
			}
		},
		{
			"doubleSided":true,
			"name":"BE_EWAL02B",
			"pbrMetallicRoughness":{
				"baseColorFactor":[
					0.800000011920929,
					0.800000011920929,
					0.800000011920929,
					1
				],
				"metallicFactor":0,
				"roughnessFactor":0.5
			}
		},
		{
			"doubleSided":true,
			"name":"BE_ESPEC01",
			"pbrMetallicRoughness":{
				"baseColorFactor":[
					0.800000011920929,
					0.800000011920929,
					0.800000011920929,
					1
				],
				"metallicFactor":0,
				"roughnessFactor":0.5
			}
		},
		{
			"doubleSided":true,
			"name":"BE_IGENERICDARK",
			"pbrMetallicRoughness":{
				"baseColorFactor":[
					0.800000011920929,
					0.800000011920929,
					0.800000011920929,
					1
				],
				"metallicFactor":0,
				"roughnessFactor":0.5
			}
		},
		{
			"doubleSided":true,
			"name":"BE_IHALIG",
			"pbrMetallicRoughness":{
				"baseColorFactor":[
					0.800000011920929,
					0.800000011920929,
					0.800000011920929,
					1
				],
				"metallicFactor":0,
				"roughnessFactor":0.5
			}
		}
	],
	"meshes":[
		{
			"name":"Mesh",
			"primitives":[
				{
					"attributes":{
						"POSITION":0,
						"NORMAL":1,
						"TEXCOORD_0":2
					},
					"indices":3,
					"material":0
				},
				{
					"attributes":{
						"POSITION":4,
						"NORMAL":5,
						"TEXCOORD_0":6
					},
					"indices":7,
					"material":1
				},
				{
					"attributes":{
						"POSITION":8,
						"NORMAL":9,
						"TEXCOORD_0":10
					},
					"indices":11,
					"material":2
				},
				{
					"attributes":{
						"POSITION":12,
						"NORMAL":13,
						"TEXCOORD_0":14
					},
					"indices":15,
					"material":3
				},
				{
					"attributes":{
						"POSITION":16,
						"NORMAL":17,
						"TEXCOORD_0":18
					},
					"indices":19,
					"material":4
				},
				{
					"attributes":{
						"POSITION":20,
						"NORMAL":21,
						"TEXCOORD_0":22
					},
					"indices":23,
					"material":5
				},
				{
					"attributes":{
						"POSITION":24,
						"NORMAL":25,
						"TEXCOORD_0":26
					},
					"indices":27,
					"material":6
				},
				{
					"attributes":{
						"POSITION":28,
						"NORMAL":29,
						"TEXCOORD_0":30
					},
					"indices":31,
					"material":7
				},
				{
					"attributes":{
						"POSITION":32,
						"NORMAL":33,
						"TEXCOORD_0":34
					},
					"indices":35,
					"material":8
				}
			]
		}
	],
	"accessors":[
		{
			"bufferView":0,
			"componentType":5126,
			"count":40,
			"max":[
				16,
				0,
				88
			],
			"min":[
				-16,
				-8,
				-88
			],
			"type":"VEC3"
		},
		{
			"bufferView":1,
			"componentType":5126,
			"count":40,
			"type":"VEC3"
		},
		{
			"bufferView":2,
			"componentType":5126,
			"count":40,
			"type":"VEC2"
		},
		{
			"bufferView":3,
			"componentType":5123,
			"count":72,
			"type":"SCALAR"
		},
		{
			"bufferView":4,
			"componentType":5126,
			"count":292,
			"max":[
				22,
				-4,
				88
			],
			"min":[
				-22,
				-60,
				-88
			],
			"type":"VEC3"
		},
		{
			"bufferView":5,
			"componentType":5126,
			"count":292,
			"type":"VEC3"
		},
		{
			"bufferView":6,
			"componentType":5126,
			"count":292,
			"type":"VEC2"
		},
		{
			"bufferView":7,
			"componentType":5123,
			"count":582,
			"type":"SCALAR"
		},
		{
			"bufferView":8,
			"componentType":5126,
			"count":30,
			"max":[
				16,
				2,
				88
			],
			"min":[
				-16,
				-4,
				-88
			],
			"type":"VEC3"
		},
		{
			"bufferView":9,
			"componentType":5126,
			"count":30,
			"type":"VEC3"
		},
		{
			"bufferView":10,
			"componentType":5126,
			"count":30,
			"type":"VEC2"
		},
		{
			"bufferView":11,
			"componentType":5123,
			"count":60,
			"type":"SCALAR"
		},
		{
			"bufferView":12,
			"componentType":5126,
			"count":132,
			"max":[
				22,
				2,
				88
			],
			"min":[
				-22,
				-8,
				-88
			],
			"type":"VEC3"
		},
		{
			"bufferView":13,
			"componentType":5126,
			"count":132,
			"type":"VEC3"
		},
		{
			"bufferView":14,
			"componentType":5126,
			"count":132,
			"type":"VEC2"
		},
		{
			"bufferView":15,
			"componentType":5123,
			"count":240,
			"type":"SCALAR"
		},
		{
			"bufferView":16,
			"componentType":5126,
			"count":76,
			"max":[
				20,
				14,
				88
			],
			"min":[
				-20,
				-28,
				-88
			],
			"type":"VEC3"
		},
		{
			"bufferView":17,
			"componentType":5126,
			"count":76,
			"type":"VEC3"
		},
		{
			"bufferView":18,
			"componentType":5126,
			"count":76,
			"type":"VEC2"
		},
		{
			"bufferView":19,
			"componentType":5123,
			"count":114,
			"type":"SCALAR"
		},
		{
			"bufferView":20,
			"componentType":5126,
			"count":146,
			"max":[
				20,
				-4,
				88
			],
			"min":[
				-20,
				-8,
				-88
			],
			"type":"VEC3"
		},
		{
			"bufferView":21,
			"componentType":5126,
			"count":146,
			"type":"VEC3"
		},
		{
			"bufferView":22,
			"componentType":5126,
			"count":146,
			"type":"VEC2"
		},
		{
			"bufferView":23,
			"componentType":5123,
			"count":288,
			"type":"SCALAR"
		},
		{
			"bufferView":24,
			"componentType":5126,
			"count":64,
			"max":[
				21,
				12,
				34
			],
			"min":[
				-21,
				4,
				-34
			],
			"type":"VEC3"
		},
		{
			"bufferView":25,
			"componentType":5126,
			"count":64,
			"type":"VEC3"
		},
		{
			"bufferView":26,
			"componentType":5126,
			"count":64,
			"type":"VEC2"
		},
		{
			"bufferView":27,
			"componentType":5123,
			"count":96,
			"type":"SCALAR"
		},
		{
			"bufferView":28,
			"componentType":5126,
			"count":72,
			"max":[
				22,
				4,
				35
			],
			"min":[
				-22,
				2,
				-35
			],
			"type":"VEC3"
		},
		{
			"bufferView":29,
			"componentType":5126,
			"count":72,
			"type":"VEC3"
		},
		{
			"bufferView":30,
			"componentType":5126,
			"count":72,
			"type":"VEC2"
		},
		{
			"bufferView":31,
			"componentType":5123,
			"count":120,
			"type":"SCALAR"
		},
		{
			"bufferView":32,
			"componentType":5126,
			"count":64,
			"max":[
				21,
				14,
				34
			],
			"min":[
				-21,
				12,
				-34
			],
			"type":"VEC3"
		},
		{
			"bufferView":33,
			"componentType":5126,
			"count":64,
			"type":"VEC3"
		},
		{
			"bufferView":34,
			"componentType":5126,
			"count":64,
			"type":"VEC2"
		},
		{
			"bufferView":35,
			"componentType":5123,
			"count":96,
			"type":"SCALAR"
		}
	],
	"bufferViews":[
		{
			"buffer":0,
			"byteLength":480,
			"byteOffset":0,
			"target":34962
		},
		{
			"buffer":0,
			"byteLength":480,
			"byteOffset":480,
			"target":34962
		},
		{
			"buffer":0,
			"byteLength":320,
			"byteOffset":960,
			"target":34962
		},
		{
			"buffer":0,
			"byteLength":144,
			"byteOffset":1280,
			"target":34963
		},
		{
			"buffer":0,
			"byteLength":3504,
			"byteOffset":1424,
			"target":34962
		},
		{
			"buffer":0,
			"byteLength":3504,
			"byteOffset":4928,
			"target":34962
		},
		{
			"buffer":0,
			"byteLength":2336,
			"byteOffset":8432,
			"target":34962
		},
		{
			"buffer":0,
			"byteLength":1164,
			"byteOffset":10768,
			"target":34963
		},
		{
			"buffer":0,
			"byteLength":360,
			"byteOffset":11932,
			"target":34962
		},
		{
			"buffer":0,
			"byteLength":360,
			"byteOffset":12292,
			"target":34962
		},
		{
			"buffer":0,
			"byteLength":240,
			"byteOffset":12652,
			"target":34962
		},
		{
			"buffer":0,
			"byteLength":120,
			"byteOffset":12892,
			"target":34963
		},
		{
			"buffer":0,
			"byteLength":1584,
			"byteOffset":13012,
			"target":34962
		},
		{
			"buffer":0,
			"byteLength":1584,
			"byteOffset":14596,
			"target":34962
		},
		{
			"buffer":0,
			"byteLength":1056,
			"byteOffset":16180,
			"target":34962
		},
		{
			"buffer":0,
			"byteLength":480,
			"byteOffset":17236,
			"target":34963
		},
		{
			"buffer":0,
			"byteLength":912,
			"byteOffset":17716,
			"target":34962
		},
		{
			"buffer":0,
			"byteLength":912,
			"byteOffset":18628,
			"target":34962
		},
		{
			"buffer":0,
			"byteLength":608,
			"byteOffset":19540,
			"target":34962
		},
		{
			"buffer":0,
			"byteLength":228,
			"byteOffset":20148,
			"target":34963
		},
		{
			"buffer":0,
			"byteLength":1752,
			"byteOffset":20376,
			"target":34962
		},
		{
			"buffer":0,
			"byteLength":1752,
			"byteOffset":22128,
			"target":34962
		},
		{
			"buffer":0,
			"byteLength":1168,
			"byteOffset":23880,
			"target":34962
		},
		{
			"buffer":0,
			"byteLength":576,
			"byteOffset":25048,
			"target":34963
		},
		{
			"buffer":0,
			"byteLength":768,
			"byteOffset":25624,
			"target":34962
		},
		{
			"buffer":0,
			"byteLength":768,
			"byteOffset":26392,
			"target":34962
		},
		{
			"buffer":0,
			"byteLength":512,
			"byteOffset":27160,
			"target":34962
		},
		{
			"buffer":0,
			"byteLength":192,
			"byteOffset":27672,
			"target":34963
		},
		{
			"buffer":0,
			"byteLength":864,
			"byteOffset":27864,
			"target":34962
		},
		{
			"buffer":0,
			"byteLength":864,
			"byteOffset":28728,
			"target":34962
		},
		{
			"buffer":0,
			"byteLength":576,
			"byteOffset":29592,
			"target":34962
		},
		{
			"buffer":0,
			"byteLength":240,
			"byteOffset":30168,
			"target":34963
		},
		{
			"buffer":0,
			"byteLength":768,
			"byteOffset":30408,
			"target":34962
		},
		{
			"buffer":0,
			"byteLength":768,
			"byteOffset":31176,
			"target":34962
		},
		{
			"buffer":0,
			"byteLength":512,
			"byteOffset":31944,
			"target":34962
		},
		{
			"buffer":0,
			"byteLength":192,
			"byteOffset":32456,
			"target":34963
		}
	],
	"buffers":[
		{
			"byteLength":32648,
			"uri":"bmiscpan_bridge0.bin"
		}
	]
}
