{
	"asset":{
		"generator":"Khronos glTF Blender I/O v4.5.48",
		"version":"2.0"
	},
	"scene":0,
	"scenes":[
		{
			"name":"Scene",
			"nodes":[
				0
			]
		}
	],
	"nodes":[
		{
			"mesh":0,
			"name":"Object"
		}
	],
	"materials":[
		{
			"doubleSided":true,
			"name":"BE_EWAL06",
			"pbrMetallicRoughness":{
				"baseColorFactor":[
					0.800000011920929,
					0.800000011920929,
					0.800000011920929,
					1
				],
				"metallicFactor":0,
				"roughnessFactor":0.5
			}
		},
		{
			"doubleSided":true,
			"name":"BE_IHALIG",
			"pbrMetallicRoughness":{
				"baseColorFactor":[
					0.800000011920929,
					0.800000011920929,
					0.800000011920929,
					1
				],
				"metallicFactor":0,
				"roughnessFactor":0.5
			}
		},
		{
			"doubleSided":true,
			"name":"BE_EWAL09B",
			"pbrMetallicRoughness":{
				"baseColorFactor":[
					0.800000011920929,
					0.800000011920929,
					0.800000011920929,
					1
				],
				"metallicFactor":0,
				"roughnessFactor":0.5
			}
		},
		{
			"doubleSided":true,
			"name":"BE_IPRWAL01",
			"pbrMetallicRoughness":{
				"baseColorFactor":[
					0.800000011920929,
					0.800000011920929,
					0.800000011920929,
					1
				],
				"metallicFactor":0,
				"roughnessFactor":0.5
			}
		},
		{
			"doubleSided":true,
			"name":"BE_ICOMP01A",
			"pbrMetallicRoughness":{
				"baseColorFactor":[
					0.800000011920929,
					0.800000011920929,
					0.800000011920929,
					1
				],
				"metallicFactor":0,
				"roughnessFactor":0.5
			}
		},
		{
			"doubleSided":true,
			"name":"BE_EWAL02B",
			"pbrMetallicRoughness":{
				"baseColorFactor":[
					0.800000011920929,
					0.800000011920929,
					0.800000011920929,
					1
				],
				"metallicFactor":0,
				"roughnessFactor":0.5
			}
		},
		{
			"doubleSided":true,
			"name":"BE_ICEI03B",
			"pbrMetallicRoughness":{
				"baseColorFactor":[
					0.800000011920929,
					0.800000011920929,
					0.800000011920929,
					1
				],
				"metallicFactor":0,
				"roughnessFactor":0.5
			}
		},
		{
			"doubleSided":true,
			"name":"BE_ITEBOR01",
			"pbrMetallicRoughness":{
				"baseColorFactor":[
					0.800000011920929,
					0.800000011920929,
					0.800000011920929,
					1
				],
				"metallicFactor":0,
				"roughnessFactor":0.5
			}
		},
		{
			"doubleSided":true,
			"name":"BE_EWAL01B",
			"pbrMetallicRoughness":{
				"baseColorFactor":[
					0.800000011920929,
					0.800000011920929,
					0.800000011920929,
					1
				],
				"metallicFactor":0,
				"roughnessFactor":0.5
			}
		},
		{
			"doubleSided":true,
			"name":"BE_IHAWAL05A",
			"pbrMetallicRoughness":{
				"baseColorFactor":[
					0.800000011920929,
					0.800000011920929,
					0.800000011920929,
					1
				],
				"metallicFactor":0,
				"roughnessFactor":0.5
			}
		},
		{
			"doubleSided":true,
			"name":"BE_EWAL05A",
			"pbrMetallicRoughness":{
				"baseColorFactor":[
					0.800000011920929,
					0.800000011920929,
					0.800000011920929,
					1
				],
				"metallicFactor":0,
				"roughnessFactor":0.5
			}
		}
	],
	"meshes":[
		{
			"name":"Mesh",
			"primitives":[
				{
					"attributes":{
						"POSITION":0,
						"NORMAL":1,
						"TEXCOORD_0":2
					},
					"indices":3,
					"material":0
				},
				{
					"attributes":{
						"POSITION":4,
						"NORMAL":5,
						"TEXCOORD_0":6
					},
					"indices":7,
					"material":1
				},
				{
					"attributes":{
						"POSITION":8,
						"NORMAL":9,
						"TEXCOORD_0":10
					},
					"indices":11,
					"material":2
				},
				{
					"attributes":{
						"POSITION":12,
						"NORMAL":13,
						"TEXCOORD_0":14
					},
					"indices":15,
					"material":3
				},
				{
					"attributes":{
						"POSITION":16,
						"NORMAL":17,
						"TEXCOORD_0":18
					},
					"indices":19,
					"material":4
				},
				{
					"attributes":{
						"POSITION":20,
						"NORMAL":21,
						"TEXCOORD_0":22
					},
					"indices":23,
					"material":5
				},
				{
					"attributes":{
						"POSITION":24,
						"NORMAL":25,
						"TEXCOORD_0":26
					},
					"indices":27,
					"material":6
				},
				{
					"attributes":{
						"POSITION":28,
						"NORMAL":29,
						"TEXCOORD_0":30
					},
					"indices":31,
					"material":7
				},
				{
					"attributes":{
						"POSITION":32,
						"NORMAL":33,
						"TEXCOORD_0":34
					},
					"indices":35,
					"material":8
				},
				{
					"attributes":{
						"POSITION":36,
						"NORMAL":37,
						"TEXCOORD_0":38
					},
					"indices":39,
					"material":9
				},
				{
					"attributes":{
						"POSITION":40,
						"NORMAL":41,
						"TEXCOORD_0":42
					},
					"indices":43,
					"material":10
				}
			]
		}
	],
	"accessors":[
		{
			"bufferView":0,
			"componentType":5126,
			"count":102,
			"max":[
				8,
				30,
				8
			],
			"min":[
				-8,
				2,
				-8
			],
			"type":"VEC3"
		},
		{
			"bufferView":1,
			"componentType":5126,
			"count":102,
			"type":"VEC3"
		},
		{
			"bufferView":2,
			"componentType":5126,
			"count":102,
			"type":"VEC2"
		},
		{
			"bufferView":3,
			"componentType":5123,
			"count":204,
			"type":"SCALAR"
		},
		{
			"bufferView":4,
			"componentType":5126,
			"count":16,
			"max":[
				2,
				20,
				2
			],
			"min":[
				-2,
				18,
				-2
			],
			"type":"VEC3"
		},
		{
			"bufferView":5,
			"componentType":5126,
			"count":16,
			"type":"VEC3"
		},
		{
			"bufferView":6,
			"componentType":5126,
			"count":16,
			"type":"VEC2"
		},
		{
			"bufferView":7,
			"componentType":5123,
			"count":24,
			"type":"SCALAR"
		},
		{
			"bufferView":8,
			"componentType":5126,
			"count":52,
			"max":[
				8,
				30,
				8
			],
			"min":[
				-8,
				18,
				-8
			],
			"type":"VEC3"
		},
		{
			"bufferView":9,
			"componentType":5126,
			"count":52,
			"type":"VEC3"
		},
		{
			"bufferView":10,
			"componentType":5126,
			"count":52,
			"type":"VEC2"
		},
		{
			"bufferView":11,
			"componentType":5123,
			"count":96,
			"type":"SCALAR"
		},
		{
			"bufferView":12,
			"componentType":5126,
			"count":68,
			"max":[
				8,
				10,
				8
			],
			"min":[
				-8,
				2,
				-8
			],
			"type":"VEC3"
		},
		{
			"bufferView":13,
			"componentType":5126,
			"count":68,
			"type":"VEC3"
		},
		{
			"bufferView":14,
			"componentType":5126,
			"count":68,
			"type":"VEC2"
		},
		{
			"bufferView":15,
			"componentType":5123,
			"count":120,
			"type":"SCALAR"
		},
		{
			"bufferView":16,
			"componentType":5126,
			"count":16,
			"max":[
				6,
				16,
				6
			],
			"min":[
				-6,
				10,
				-6
			],
			"type":"VEC3"
		},
		{
			"bufferView":17,
			"componentType":5126,
			"count":16,
			"type":"VEC3"
		},
		{
			"bufferView":18,
			"componentType":5126,
			"count":16,
			"type":"VEC2"
		},
		{
			"bufferView":19,
			"componentType":5123,
			"count":24,
			"type":"SCALAR"
		},
		{
			"bufferView":20,
			"componentType":5126,
			"count":180,
			"max":[
				11,
				18,
				11
			],
			"min":[
				-11,
				-15,
				-11
			],
			"type":"VEC3"
		},
		{
			"bufferView":21,
			"componentType":5126,
			"count":180,
			"type":"VEC3"
		},
		{
			"bufferView":22,
			"componentType":5126,
			"count":180,
			"type":"VEC2"
		},
		{
			"bufferView":23,
			"componentType":5123,
			"count":300,
			"type":"SCALAR"
		},
		{
			"bufferView":24,
			"componentType":5126,
			"count":28,
			"max":[
				10,
				10,
				6
			],
			"min":[
				-10,
				4,
				-10
			],
			"type":"VEC3"
		},
		{
			"bufferView":25,
			"componentType":5126,
			"count":28,
			"type":"VEC3"
		},
		{
			"bufferView":26,
			"componentType":5126,
			"count":28,
			"type":"VEC2"
		},
		{
			"bufferView":27,
			"componentType":5123,
			"count":60,
			"type":"SCALAR"
		},
		{
			"bufferView":28,
			"componentType":5126,
			"count":64,
			"max":[
				10,
				20,
				10
			],
			"min":[
				-10,
				18,
				-10
			],
			"type":"VEC3"
		},
		{
			"bufferView":29,
			"componentType":5126,
			"count":64,
			"type":"VEC3"
		},
		{
			"bufferView":30,
			"componentType":5126,
			"count":64,
			"type":"VEC2"
		},
		{
			"bufferView":31,
			"componentType":5123,
			"count":96,
			"type":"SCALAR"
		},
		{
			"bufferView":32,
			"componentType":5126,
			"count":164,
			"max":[
				10,
				28,
				10
			],
			"min":[
				-10,
				-8,
				-10
			],
			"type":"VEC3"
		},
		{
			"bufferView":33,
			"componentType":5126,
			"count":164,
			"type":"VEC3"
		},
		{
			"bufferView":34,
			"componentType":5126,
			"count":164,
			"type":"VEC2"
		},
		{
			"bufferView":35,
			"componentType":5123,
			"count":276,
			"type":"SCALAR"
		},
		{
			"bufferView":36,
			"componentType":5126,
			"count":40,
			"max":[
				8.8125,
				28,
				8.8125
			],
			"min":[
				-8.8125,
				20,
				-8.8125
			],
			"type":"VEC3"
		},
		{
			"bufferView":37,
			"componentType":5126,
			"count":40,
			"type":"VEC3"
		},
		{
			"bufferView":38,
			"componentType":5126,
			"count":40,
			"type":"VEC2"
		},
		{
			"bufferView":39,
			"componentType":5123,
			"count":72,
			"type":"SCALAR"
		},
		{
			"bufferView":40,
			"componentType":5126,
			"count":128,
			"max":[
				11,
				-8,
				11
			],
			"min":[
				-11,
				-15,
				-11
			],
			"type":"VEC3"
		},
		{
			"bufferView":41,
			"componentType":5126,
			"count":128,
			"type":"VEC3"
		},
		{
			"bufferView":42,
			"componentType":5126,
			"count":128,
			"type":"VEC2"
		},
		{
			"bufferView":43,
			"componentType":5123,
			"count":192,
			"type":"SCALAR"
		}
	],
	"bufferViews":[
		{
			"buffer":0,
			"byteLength":1224,
			"byteOffset":0,
			"target":34962
		},
		{
			"buffer":0,
			"byteLength":1224,
			"byteOffset":1224,
			"target":34962
		},
		{
			"buffer":0,
			"byteLength":816,
			"byteOffset":2448,
			"target":34962
		},
		{
			"buffer":0,
			"byteLength":408,
			"byteOffset":3264,
			"target":34963
		},
		{
			"buffer":0,
			"byteLength":192,
			"byteOffset":3672,
			"target":34962
		},
		{
			"buffer":0,
			"byteLength":192,
			"byteOffset":3864,
			"target":34962
		},
		{
			"buffer":0,
			"byteLength":128,
			"byteOffset":4056,
			"target":34962
		},
		{
			"buffer":0,
			"byteLength":48,
			"byteOffset":4184,
			"target":34963
		},
		{
			"buffer":0,
			"byteLength":624,
			"byteOffset":4232,
			"target":34962
		},
		{
			"buffer":0,
			"byteLength":624,
			"byteOffset":4856,
			"target":34962
		},
		{
			"buffer":0,
			"byteLength":416,
			"byteOffset":5480,
			"target":34962
		},
		{
			"buffer":0,
			"byteLength":192,
			"byteOffset":5896,
			"target":34963
		},
		{
			"buffer":0,
			"byteLength":816,
			"byteOffset":6088,
			"target":34962
		},
		{
			"buffer":0,
			"byteLength":816,
			"byteOffset":6904,
			"target":34962
		},
		{
			"buffer":0,
			"byteLength":544,
			"byteOffset":7720,
			"target":34962
		},
		{
			"buffer":0,
			"byteLength":240,
			"byteOffset":8264,
			"target":34963
		},
		{
			"buffer":0,
			"byteLength":192,
			"byteOffset":8504,
			"target":34962
		},
		{
			"buffer":0,
			"byteLength":192,
			"byteOffset":8696,
			"target":34962
		},
		{
			"buffer":0,
			"byteLength":128,
			"byteOffset":8888,
			"target":34962
		},
		{
			"buffer":0,
			"byteLength":48,
			"byteOffset":9016,
			"target":34963
		},
		{
			"buffer":0,
			"byteLength":2160,
			"byteOffset":9064,
			"target":34962
		},
		{
			"buffer":0,
			"byteLength":2160,
			"byteOffset":11224,
			"target":34962
		},
		{
			"buffer":0,
			"byteLength":1440,
			"byteOffset":13384,
			"target":34962
		},
		{
			"buffer":0,
			"byteLength":600,
			"byteOffset":14824,
			"target":34963
		},
		{
			"buffer":0,
			"byteLength":336,
			"byteOffset":15424,
			"target":34962
		},
		{
			"buffer":0,
			"byteLength":336,
			"byteOffset":15760,
			"target":34962
		},
		{
			"buffer":0,
			"byteLength":224,
			"byteOffset":16096,
			"target":34962
		},
		{
			"buffer":0,
			"byteLength":120,
			"byteOffset":16320,
			"target":34963
		},
		{
			"buffer":0,
			"byteLength":768,
			"byteOffset":16440,
			"target":34962
		},
		{
			"buffer":0,
			"byteLength":768,
			"byteOffset":17208,
			"target":34962
		},
		{
			"buffer":0,
			"byteLength":512,
			"byteOffset":17976,
			"target":34962
		},
		{
			"buffer":0,
			"byteLength":192,
			"byteOffset":18488,
			"target":34963
		},
		{
			"buffer":0,
			"byteLength":1968,
			"byteOffset":18680,
			"target":34962
		},
		{
			"buffer":0,
			"byteLength":1968,
			"byteOffset":20648,
			"target":34962
		},
		{
			"buffer":0,
			"byteLength":1312,
			"byteOffset":22616,
			"target":34962
		},
		{
			"buffer":0,
			"byteLength":552,
			"byteOffset":23928,
			"target":34963
		},
		{
			"buffer":0,
			"byteLength":480,
			"byteOffset":24480,
			"target":34962
		},
		{
			"buffer":0,
			"byteLength":480,
			"byteOffset":24960,
			"target":34962
		},
		{
			"buffer":0,
			"byteLength":320,
			"byteOffset":25440,
			"target":34962
		},
		{
			"buffer":0,
			"byteLength":144,
			"byteOffset":25760,
			"target":34963
		},
		{
			"buffer":0,
			"byteLength":1536,
			"byteOffset":25904,
			"target":34962
		},
		{
			"buffer":0,
			"byteLength":1536,
			"byteOffset":27440,
			"target":34962
		},
		{
			"buffer":0,
			"byteLength":1024,
			"byteOffset":28976,
			"target":34962
		},
		{
			"buffer":0,
			"byteLength":384,
			"byteOffset":30000,
			"target":34963
		}
	],
	"buffers":[
		{
			"byteLength":30384,
			"uri":"bmiscpan_tower2.bin"
		}
	]
}
