{
	"asset":{
		"generator":"Khronos glTF Blender I/O v4.5.48",
		"version":"2.0"
	},
	"scene":0,
	"scenes":[
		{
			"name":"Scene",
			"nodes":[
				0
			]
		}
	],
	"nodes":[
		{
			"mesh":0,
			"name":"Object"
		}
	],
	"materials":[
		{
			"doubleSided":true,
			"name":"BE_EWAL01B",
			"pbrMetallicRoughness":{
				"baseColorFactor":[
					0.800000011920929,
					0.800000011920929,
					0.800000011920929,
					1
				],
				"metallicFactor":0,
				"roughnessFactor":0.5
			}
		},
		{
			"doubleSided":true,
			"name":"BE_EWAL03A",
			"pbrMetallicRoughness":{
				"baseColorFactor":[
					0.800000011920929,
					0.800000011920929,
					0.800000011920929,
					1
				],
				"metallicFactor":0,
				"roughnessFactor":0.5
			}
		},
		{
			"doubleSided":true,
			"name":"BE_EWALL10",
			"pbrMetallicRoughness":{
				"baseColorFactor":[
					0.800000011920929,
					0.800000011920929,
					0.800000011920929,
					1
				],
				"metallicFactor":0,
				"roughnessFactor":0.5
			}
		},
		{
			"doubleSided":true,
			"name":"BE_EWAL02B",
			"pbrMetallicRoughness":{
				"baseColorFactor":[
					0.800000011920929,
					0.800000011920929,
					0.800000011920929,
					1
				],
				"metallicFactor":0,
				"roughnessFactor":0.5
			}
		},
		{
			"doubleSided":true,
			"name":"BE_EWAL05",
			"pbrMetallicRoughness":{
				"baseColorFactor":[
					0.800000011920929,
					0.800000011920929,
					0.800000011920929,
					1
				],
				"metallicFactor":0,
				"roughnessFactor":0.5
			}
		},
		{
			"doubleSided":true,
			"name":"BE_ITEFLO02",
			"pbrMetallicRoughness":{
				"baseColorFactor":[
					0.800000011920929,
					0.800000011920929,
					0.800000011920929,
					1
				],
				"metallicFactor":0,
				"roughnessFactor":0.5
			}
		},
		{
			"doubleSided":true,
			"name":"BE_IGENERICDARK",
			"pbrMetallicRoughness":{
				"baseColorFactor":[
					0.800000011920929,
					0.800000011920929,
					0.800000011920929,
					1
				],
				"metallicFactor":0,
				"roughnessFactor":0.5
			}
		},
		{
			"doubleSided":true,
			"name":"BE_IHALIG",
			"pbrMetallicRoughness":{
				"baseColorFactor":[
					0.800000011920929,
					0.800000011920929,
					0.800000011920929,
					1
				],
				"metallicFactor":0,
				"roughnessFactor":0.5
			}
		},
		{
			"doubleSided":true,
			"name":"BE_ESPEC01",
			"pbrMetallicRoughness":{
				"baseColorFactor":[
					0.800000011920929,
					0.800000011920929,
					0.800000011920929,
					1
				],
				"metallicFactor":0,
				"roughnessFactor":0.5
			}
		},
		{
			"doubleSided":true,
			"name":"BE_EFLO01",
			"pbrMetallicRoughness":{
				"baseColorFactor":[
					0.800000011920929,
					0.800000011920929,
					0.800000011920929,
					1
				],
				"metallicFactor":0,
				"roughnessFactor":0.5
			}
		}
	],
	"meshes":[
		{
			"name":"Mesh",
			"primitives":[
				{
					"attributes":{
						"POSITION":0,
						"NORMAL":1,
						"TEXCOORD_0":2
					},
					"indices":3,
					"material":0
				},
				{
					"attributes":{
						"POSITION":4,
						"NORMAL":5,
						"TEXCOORD_0":6
					},
					"indices":7,
					"material":1
				},
				{
					"attributes":{
						"POSITION":8,
						"NORMAL":9,
						"TEXCOORD_0":10
					},
					"indices":11,
					"material":2
				},
				{
					"attributes":{
						"POSITION":12,
						"NORMAL":13,
						"TEXCOORD_0":14
					},
					"indices":15,
					"material":3
				},
				{
					"attributes":{
						"POSITION":16,
						"NORMAL":17,
						"TEXCOORD_0":18
					},
					"indices":19,
					"material":4
				},
				{
					"attributes":{
						"POSITION":20,
						"NORMAL":21,
						"TEXCOORD_0":22
					},
					"indices":23,
					"material":5
				},
				{
					"attributes":{
						"POSITION":24,
						"NORMAL":25,
						"TEXCOORD_0":26
					},
					"indices":27,
					"material":6
				},
				{
					"attributes":{
						"POSITION":28,
						"NORMAL":29,
						"TEXCOORD_0":30
					},
					"indices":31,
					"material":7
				},
				{
					"attributes":{
						"POSITION":32,
						"NORMAL":33,
						"TEXCOORD_0":34
					},
					"indices":35,
					"material":8
				},
				{
					"attributes":{
						"POSITION":36,
						"NORMAL":37,
						"TEXCOORD_0":38
					},
					"indices":39,
					"material":9
				}
			]
		}
	],
	"accessors":[
		{
			"bufferView":0,
			"componentType":5126,
			"count":389,
			"max":[
				-26,
				44,
				29
			],
			"min":[
				-47,
				-8,
				-4
			],
			"type":"VEC3"
		},
		{
			"bufferView":1,
			"componentType":5126,
			"count":389,
			"type":"VEC3"
		},
		{
			"bufferView":2,
			"componentType":5126,
			"count":389,
			"type":"VEC2"
		},
		{
			"bufferView":3,
			"componentType":5123,
			"count":816,
			"type":"SCALAR"
		},
		{
			"bufferView":4,
			"componentType":5126,
			"count":52,
			"max":[
				-26,
				32,
				29
			],
			"min":[
				-47,
				-8,
				-4
			],
			"type":"VEC3"
		},
		{
			"bufferView":5,
			"componentType":5126,
			"count":52,
			"type":"VEC3"
		},
		{
			"bufferView":6,
			"componentType":5126,
			"count":52,
			"type":"VEC2"
		},
		{
			"bufferView":7,
			"componentType":5123,
			"count":99,
			"type":"SCALAR"
		},
		{
			"bufferView":8,
			"componentType":5126,
			"count":184,
			"max":[
				-18,
				44,
				38
			],
			"min":[
				-47,
				-4,
				-10
			],
			"type":"VEC3"
		},
		{
			"bufferView":9,
			"componentType":5126,
			"count":184,
			"type":"VEC3"
		},
		{
			"bufferView":10,
			"componentType":5126,
			"count":184,
			"type":"VEC2"
		},
		{
			"bufferView":11,
			"componentType":5123,
			"count":387,
			"type":"SCALAR"
		},
		{
			"bufferView":12,
			"componentType":5126,
			"count":245,
			"max":[
				-26,
				38.5,
				28
			],
			"min":[
				-47,
				6.5,
				0
			],
			"type":"VEC3"
		},
		{
			"bufferView":13,
			"componentType":5126,
			"count":245,
			"type":"VEC3"
		},
		{
			"bufferView":14,
			"componentType":5126,
			"count":245,
			"type":"VEC2"
		},
		{
			"bufferView":15,
			"componentType":5123,
			"count":453,
			"type":"SCALAR"
		},
		{
			"bufferView":16,
			"componentType":5126,
			"count":54,
			"max":[
				-18,
				0,
				38
			],
			"min":[
				-46,
				-8,
				-10
			],
			"type":"VEC3"
		},
		{
			"bufferView":17,
			"componentType":5126,
			"count":54,
			"type":"VEC3"
		},
		{
			"bufferView":18,
			"componentType":5126,
			"count":54,
			"type":"VEC2"
		},
		{
			"bufferView":19,
			"componentType":5123,
			"count":90,
			"type":"SCALAR"
		},
		{
			"bufferView":20,
			"componentType":5126,
			"count":39,
			"max":[
				-28,
				5.720629179881826e-16,
				28
			],
			"min":[
				-44,
				0,
				0
			],
			"type":"VEC3"
		},
		{
			"bufferView":21,
			"componentType":5126,
			"count":39,
			"type":"VEC3"
		},
		{
			"bufferView":22,
			"componentType":5126,
			"count":39,
			"type":"VEC2"
		},
		{
			"bufferView":23,
			"componentType":5123,
			"count":129,
			"type":"SCALAR"
		},
		{
			"bufferView":24,
			"componentType":5126,
			"count":75,
			"max":[
				-30,
				24,
				28
			],
			"min":[
				-42,
				0,
				0
			],
			"type":"VEC3"
		},
		{
			"bufferView":25,
			"componentType":5126,
			"count":75,
			"type":"VEC3"
		},
		{
			"bufferView":26,
			"componentType":5126,
			"count":75,
			"type":"VEC2"
		},
		{
			"bufferView":27,
			"componentType":5123,
			"count":135,
			"type":"SCALAR"
		},
		{
			"bufferView":28,
			"componentType":5126,
			"count":4,
			"max":[
				-43,
				6.5,
				16
			],
			"min":[
				-44,
				5,
				12
			],
			"type":"VEC3"
		},
		{
			"bufferView":29,
			"componentType":5126,
			"count":4,
			"type":"VEC3"
		},
		{
			"bufferView":30,
			"componentType":5126,
			"count":4,
			"type":"VEC2"
		},
		{
			"bufferView":31,
			"componentType":5123,
			"count":6,
			"type":"SCALAR"
		},
		{
			"bufferView":32,
			"componentType":5126,
			"count":4,
			"max":[
				-43,
				14.5,
				16
			],
			"min":[
				-43,
				6.5,
				12
			],
			"type":"VEC3"
		},
		{
			"bufferView":33,
			"componentType":5126,
			"count":4,
			"type":"VEC3"
		},
		{
			"bufferView":34,
			"componentType":5126,
			"count":4,
			"type":"VEC2"
		},
		{
			"bufferView":35,
			"componentType":5123,
			"count":6,
			"type":"SCALAR"
		},
		{
			"bufferView":36,
			"componentType":5126,
			"count":8,
			"max":[
				-43,
				16,
				16
			],
			"min":[
				-44,
				5,
				12
			],
			"type":"VEC3"
		},
		{
			"bufferView":37,
			"componentType":5126,
			"count":8,
			"type":"VEC3"
		},
		{
			"bufferView":38,
			"componentType":5126,
			"count":8,
			"type":"VEC2"
		},
		{
			"bufferView":39,
			"componentType":5123,
			"count":12,
			"type":"SCALAR"
		}
	],
	"bufferViews":[
		{
			"buffer":0,
			"byteLength":4668,
			"byteOffset":0,
			"target":34962
		},
		{
			"buffer":0,
			"byteLength":4668,
			"byteOffset":4668,
			"target":34962
		},
		{
			"buffer":0,
			"byteLength":3112,
			"byteOffset":9336,
			"target":34962
		},
		{
			"buffer":0,
			"byteLength":1632,
			"byteOffset":12448,
			"target":34963
		},
		{
			"buffer":0,
			"byteLength":624,
			"byteOffset":14080,
			"target":34962
		},
		{
			"buffer":0,
			"byteLength":624,
			"byteOffset":14704,
			"target":34962
		},
		{
			"buffer":0,
			"byteLength":416,
			"byteOffset":15328,
			"target":34962
		},
		{
			"buffer":0,
			"byteLength":198,
			"byteOffset":15744,
			"target":34963
		},
		{
			"buffer":0,
			"byteLength":2208,
			"byteOffset":15944,
			"target":34962
		},
		{
			"buffer":0,
			"byteLength":2208,
			"byteOffset":18152,
			"target":34962
		},
		{
			"buffer":0,
			"byteLength":1472,
			"byteOffset":20360,
			"target":34962
		},
		{
			"buffer":0,
			"byteLength":774,
			"byteOffset":21832,
			"target":34963
		},
		{
			"buffer":0,
			"byteLength":2940,
			"byteOffset":22608,
			"target":34962
		},
		{
			"buffer":0,
			"byteLength":2940,
			"byteOffset":25548,
			"target":34962
		},
		{
			"buffer":0,
			"byteLength":1960,
			"byteOffset":28488,
			"target":34962
		},
		{
			"buffer":0,
			"byteLength":906,
			"byteOffset":30448,
			"target":34963
		},
		{
			"buffer":0,
			"byteLength":648,
			"byteOffset":31356,
			"target":34962
		},
		{
			"buffer":0,
			"byteLength":648,
			"byteOffset":32004,
			"target":34962
		},
		{
			"buffer":0,
			"byteLength":432,
			"byteOffset":32652,
			"target":34962
		},
		{
			"buffer":0,
			"byteLength":180,
			"byteOffset":33084,
			"target":34963
		},
		{
			"buffer":0,
			"byteLength":468,
			"byteOffset":33264,
			"target":34962
		},
		{
			"buffer":0,
			"byteLength":468,
			"byteOffset":33732,
			"target":34962
		},
		{
			"buffer":0,
			"byteLength":312,
			"byteOffset":34200,
			"target":34962
		},
		{
			"buffer":0,
			"byteLength":258,
			"byteOffset":34512,
			"target":34963
		},
		{
			"buffer":0,
			"byteLength":900,
			"byteOffset":34772,
			"target":34962
		},
		{
			"buffer":0,
			"byteLength":900,
			"byteOffset":35672,
			"target":34962
		},
		{
			"buffer":0,
			"byteLength":600,
			"byteOffset":36572,
			"target":34962
		},
		{
			"buffer":0,
			"byteLength":270,
			"byteOffset":37172,
			"target":34963
		},
		{
			"buffer":0,
			"byteLength":48,
			"byteOffset":37444,
			"target":34962
		},
		{
			"buffer":0,
			"byteLength":48,
			"byteOffset":37492,
			"target":34962
		},
		{
			"buffer":0,
			"byteLength":32,
			"byteOffset":37540,
			"target":34962
		},
		{
			"buffer":0,
			"byteLength":12,
			"byteOffset":37572,
			"target":34963
		},
		{
			"buffer":0,
			"byteLength":48,
			"byteOffset":37584,
			"target":34962
		},
		{
			"buffer":0,
			"byteLength":48,
			"byteOffset":37632,
			"target":34962
		},
		{
			"buffer":0,
			"byteLength":32,
			"byteOffset":37680,
			"target":34962
		},
		{
			"buffer":0,
			"byteLength":12,
			"byteOffset":37712,
			"target":34963
		},
		{
			"buffer":0,
			"byteLength":96,
			"byteOffset":37724,
			"target":34962
		},
		{
			"buffer":0,
			"byteLength":96,
			"byteOffset":37820,
			"target":34962
		},
		{
			"buffer":0,
			"byteLength":64,
			"byteOffset":37916,
			"target":34962
		},
		{
			"buffer":0,
			"byteLength":24,
			"byteOffset":37980,
			"target":34963
		}
	],
	"buffers":[
		{
			"byteLength":38004,
			"uri":"bmiscpan_ruini.bin"
		}
	]
}
