{
	"asset":{
		"generator":"Khronos glTF Blender I/O v4.5.48",
		"version":"2.0"
	},
	"scene":0,
	"scenes":[
		{
			"name":"Scene",
			"nodes":[
				0
			]
		}
	],
	"nodes":[
		{
			"mesh":0,
			"name":"Object"
		}
	],
	"materials":[
		{
			"doubleSided":true,
			"name":"DS_IWAL01",
			"pbrMetallicRoughness":{
				"baseColorFactor":[
					0.800000011920929,
					0.800000011920929,
					0.800000011920929,
					1
				],
				"metallicFactor":0,
				"roughnessFactor":0.5
			}
		},
		{
			"doubleSided":true,
			"name":"DS_EWALL06",
			"pbrMetallicRoughness":{
				"baseColorFactor":[
					0.800000011920929,
					0.800000011920929,
					0.800000011920929,
					1
				],
				"metallicFactor":0,
				"roughnessFactor":0.5
			}
		},
		{
			"doubleSided":true,
			"name":"DS_EFLOOR1",
			"pbrMetallicRoughness":{
				"baseColorFactor":[
					0.800000011920929,
					0.800000011920929,
					0.800000011920929,
					1
				],
				"metallicFactor":0,
				"roughnessFactor":0.5
			}
		},
		{
			"doubleSided":true,
			"name":"DS_IHACEI01",
			"pbrMetallicRoughness":{
				"baseColorFactor":[
					0.800000011920929,
					0.800000011920929,
					0.800000011920929,
					1
				],
				"metallicFactor":0,
				"roughnessFactor":0.5
			}
		},
		{
			"doubleSided":true,
			"name":"DS_IFLO04",
			"pbrMetallicRoughness":{
				"baseColorFactor":[
					0.800000011920929,
					0.800000011920929,
					0.800000011920929,
					1
				],
				"metallicFactor":0,
				"roughnessFactor":0.5
			}
		},
		{
			"doubleSided":true,
			"name":"DS_GENWALL",
			"pbrMetallicRoughness":{
				"baseColorFactor":[
					0.800000011920929,
					0.800000011920929,
					0.800000011920929,
					1
				],
				"metallicFactor":0,
				"roughnessFactor":0.5
			}
		},
		{
			"doubleSided":true,
			"name":"DS_TECHBORDER1",
			"pbrMetallicRoughness":{
				"baseColorFactor":[
					0.800000011920929,
					0.800000011920929,
					0.800000011920929,
					1
				],
				"metallicFactor":0,
				"roughnessFactor":0.5
			}
		},
		{
			"doubleSided":true,
			"name":"DS_TECHWALL_1",
			"pbrMetallicRoughness":{
				"baseColorFactor":[
					0.800000011920929,
					0.800000011920929,
					0.800000011920929,
					1
				],
				"metallicFactor":0,
				"roughnessFactor":0.5
			}
		},
		{
			"doubleSided":true,
			"name":"DS_EWALL07",
			"pbrMetallicRoughness":{
				"baseColorFactor":[
					0.800000011920929,
					0.800000011920929,
					0.800000011920929,
					1
				],
				"metallicFactor":0,
				"roughnessFactor":0.5
			}
		},
		{
			"doubleSided":true,
			"name":"DS_TECHBORDER2",
			"pbrMetallicRoughness":{
				"baseColorFactor":[
					0.800000011920929,
					0.800000011920929,
					0.800000011920929,
					1
				],
				"metallicFactor":0,
				"roughnessFactor":0.5
			}
		},
		{
			"doubleSided":true,
			"name":"DS_ILIG02",
			"pbrMetallicRoughness":{
				"baseColorFactor":[
					0.800000011920929,
					0.800000011920929,
					0.800000011920929,
					1
				],
				"metallicFactor":0,
				"roughnessFactor":0.5
			}
		},
		{
			"doubleSided":true,
			"name":"DS_FLOORGRATE1",
			"pbrMetallicRoughness":{
				"baseColorFactor":[
					0.800000011920929,
					0.800000011920929,
					0.800000011920929,
					1
				],
				"metallicFactor":0,
				"roughnessFactor":0.5
			}
		},
		{
			"doubleSided":true,
			"name":"DS_ICEILIG01",
			"pbrMetallicRoughness":{
				"baseColorFactor":[
					0.800000011920929,
					0.800000011920929,
					0.800000011920929,
					1
				],
				"metallicFactor":0,
				"roughnessFactor":0.5
			}
		}
	],
	"meshes":[
		{
			"name":"Mesh",
			"primitives":[
				{
					"attributes":{
						"POSITION":0,
						"NORMAL":1,
						"TEXCOORD_0":2
					},
					"indices":3,
					"material":0
				},
				{
					"attributes":{
						"POSITION":4,
						"NORMAL":5,
						"TEXCOORD_0":6
					},
					"indices":7,
					"material":1
				},
				{
					"attributes":{
						"POSITION":8,
						"NORMAL":9,
						"TEXCOORD_0":10
					},
					"indices":11,
					"material":2
				},
				{
					"attributes":{
						"POSITION":12,
						"NORMAL":13,
						"TEXCOORD_0":14
					},
					"indices":15,
					"material":3
				},
				{
					"attributes":{
						"POSITION":16,
						"NORMAL":17,
						"TEXCOORD_0":18
					},
					"indices":19,
					"material":4
				},
				{
					"attributes":{
						"POSITION":20,
						"NORMAL":21,
						"TEXCOORD_0":22
					},
					"indices":23,
					"material":5
				},
				{
					"attributes":{
						"POSITION":24,
						"NORMAL":25,
						"TEXCOORD_0":26
					},
					"indices":27,
					"material":6
				},
				{
					"attributes":{
						"POSITION":28,
						"NORMAL":29,
						"TEXCOORD_0":30
					},
					"indices":31,
					"material":7
				},
				{
					"attributes":{
						"POSITION":32,
						"NORMAL":33,
						"TEXCOORD_0":34
					},
					"indices":35,
					"material":8
				},
				{
					"attributes":{
						"POSITION":36,
						"NORMAL":37,
						"TEXCOORD_0":38
					},
					"indices":39,
					"material":9
				},
				{
					"attributes":{
						"POSITION":40,
						"NORMAL":41,
						"TEXCOORD_0":42
					},
					"indices":43,
					"material":10
				},
				{
					"attributes":{
						"POSITION":44,
						"NORMAL":45,
						"TEXCOORD_0":46
					},
					"indices":47,
					"material":11
				},
				{
					"attributes":{
						"POSITION":48,
						"NORMAL":49,
						"TEXCOORD_0":50
					},
					"indices":51,
					"material":12
				}
			]
		}
	],
	"accessors":[
		{
			"bufferView":0,
			"componentType":5126,
			"count":20,
			"max":[
				13,
				-1,
				17.5
			],
			"min":[
				-13,
				-3,
				-4
			],
			"type":"VEC3"
		},
		{
			"bufferView":1,
			"componentType":5126,
			"count":20,
			"type":"VEC3"
		},
		{
			"bufferView":2,
			"componentType":5126,
			"count":20,
			"type":"VEC2"
		},
		{
			"bufferView":3,
			"componentType":5123,
			"count":30,
			"type":"SCALAR"
		},
		{
			"bufferView":4,
			"componentType":5126,
			"count":98,
			"max":[
				13,
				8.5,
				13.5
			],
			"min":[
				-13,
				-3,
				-12
			],
			"type":"VEC3"
		},
		{
			"bufferView":5,
			"componentType":5126,
			"count":98,
			"type":"VEC3"
		},
		{
			"bufferView":6,
			"componentType":5126,
			"count":98,
			"type":"VEC2"
		},
		{
			"bufferView":7,
			"componentType":5123,
			"count":228,
			"type":"SCALAR"
		},
		{
			"bufferView":8,
			"componentType":5126,
			"count":34,
			"max":[
				13,
				6,
				17.5
			],
			"min":[
				-13,
				-3,
				-8
			],
			"type":"VEC3"
		},
		{
			"bufferView":9,
			"componentType":5126,
			"count":34,
			"type":"VEC3"
		},
		{
			"bufferView":10,
			"componentType":5126,
			"count":34,
			"type":"VEC2"
		},
		{
			"bufferView":11,
			"componentType":5123,
			"count":78,
			"type":"SCALAR"
		},
		{
			"bufferView":12,
			"componentType":5126,
			"count":24,
			"max":[
				10,
				5.5,
				15.5
			],
			"min":[
				-10,
				-1,
				-4
			],
			"type":"VEC3"
		},
		{
			"bufferView":13,
			"componentType":5126,
			"count":24,
			"type":"VEC3"
		},
		{
			"bufferView":14,
			"componentType":5126,
			"count":24,
			"type":"VEC2"
		},
		{
			"bufferView":15,
			"componentType":5123,
			"count":36,
			"type":"SCALAR"
		},
		{
			"bufferView":16,
			"componentType":5126,
			"count":16,
			"max":[
				5,
				10,
				4
			],
			"min":[
				-5,
				10,
				-4
			],
			"type":"VEC3"
		},
		{
			"bufferView":17,
			"componentType":5126,
			"count":16,
			"type":"VEC3"
		},
		{
			"bufferView":18,
			"componentType":5126,
			"count":16,
			"type":"VEC2"
		},
		{
			"bufferView":19,
			"componentType":5123,
			"count":24,
			"type":"SCALAR"
		},
		{
			"bufferView":20,
			"componentType":5126,
			"count":40,
			"max":[
				7.5,
				10,
				4
			],
			"min":[
				-7.5,
				6,
				-4
			],
			"type":"VEC3"
		},
		{
			"bufferView":21,
			"componentType":5126,
			"count":40,
			"type":"VEC3"
		},
		{
			"bufferView":22,
			"componentType":5126,
			"count":40,
			"type":"VEC2"
		},
		{
			"bufferView":23,
			"componentType":5123,
			"count":60,
			"type":"SCALAR"
		},
		{
			"bufferView":24,
			"componentType":5126,
			"count":16,
			"max":[
				2.5,
				9,
				1.5
			],
			"min":[
				-2.5,
				6,
				-1.5
			],
			"type":"VEC3"
		},
		{
			"bufferView":25,
			"componentType":5126,
			"count":16,
			"type":"VEC3"
		},
		{
			"bufferView":26,
			"componentType":5126,
			"count":16,
			"type":"VEC2"
		},
		{
			"bufferView":27,
			"componentType":5123,
			"count":24,
			"type":"SCALAR"
		},
		{
			"bufferView":28,
			"componentType":5126,
			"count":106,
			"max":[
				13,
				10,
				13.5
			],
			"min":[
				-13,
				-3,
				-12
			],
			"type":"VEC3"
		},
		{
			"bufferView":29,
			"componentType":5126,
			"count":106,
			"type":"VEC3"
		},
		{
			"bufferView":30,
			"componentType":5126,
			"count":106,
			"type":"VEC2"
		},
		{
			"bufferView":31,
			"componentType":5123,
			"count":198,
			"type":"SCALAR"
		},
		{
			"bufferView":32,
			"componentType":5126,
			"count":10,
			"max":[
				7.666666507720947,
				6,
				-4
			],
			"min":[
				-7.666666507720947,
				0,
				-6.666666507720947
			],
			"type":"VEC3"
		},
		{
			"bufferView":33,
			"componentType":5126,
			"count":10,
			"type":"VEC3"
		},
		{
			"bufferView":34,
			"componentType":5126,
			"count":10,
			"type":"VEC2"
		},
		{
			"bufferView":35,
			"componentType":5123,
			"count":12,
			"type":"SCALAR"
		},
		{
			"bufferView":36,
			"componentType":5126,
			"count":16,
			"max":[
				3.5,
				6,
				2.5
			],
			"min":[
				-3.5,
				5.5,
				-2.5
			],
			"type":"VEC3"
		},
		{
			"bufferView":37,
			"componentType":5126,
			"count":16,
			"type":"VEC3"
		},
		{
			"bufferView":38,
			"componentType":5126,
			"count":16,
			"type":"VEC2"
		},
		{
			"bufferView":39,
			"componentType":5123,
			"count":24,
			"type":"SCALAR"
		},
		{
			"bufferView":40,
			"componentType":5126,
			"count":34,
			"max":[
				8,
				8.5,
				13.5
			],
			"min":[
				-8,
				0,
				-4
			],
			"type":"VEC3"
		},
		{
			"bufferView":41,
			"componentType":5126,
			"count":34,
			"type":"VEC3"
		},
		{
			"bufferView":42,
			"componentType":5126,
			"count":34,
			"type":"VEC2"
		},
		{
			"bufferView":43,
			"componentType":5123,
			"count":54,
			"type":"SCALAR"
		},
		{
			"bufferView":44,
			"componentType":5126,
			"count":12,
			"max":[
				7,
				2,
				12.5
			],
			"min":[
				-7,
				1,
				6.5
			],
			"type":"VEC3"
		},
		{
			"bufferView":45,
			"componentType":5126,
			"count":12,
			"type":"VEC3"
		},
		{
			"bufferView":46,
			"componentType":5126,
			"count":12,
			"type":"VEC2"
		},
		{
			"bufferView":47,
			"componentType":5123,
			"count":18,
			"type":"SCALAR"
		},
		{
			"bufferView":48,
			"componentType":5126,
			"count":6,
			"max":[
				3,
				8.5,
				8.5
			],
			"min":[
				-3,
				2,
				8.5
			],
			"type":"VEC3"
		},
		{
			"bufferView":49,
			"componentType":5126,
			"count":6,
			"type":"VEC3"
		},
		{
			"bufferView":50,
			"componentType":5126,
			"count":6,
			"type":"VEC2"
		},
		{
			"bufferView":51,
			"componentType":5123,
			"count":12,
			"type":"SCALAR"
		}
	],
	"bufferViews":[
		{
			"buffer":0,
			"byteLength":240,
			"byteOffset":0,
			"target":34962
		},
		{
			"buffer":0,
			"byteLength":240,
			"byteOffset":240,
			"target":34962
		},
		{
			"buffer":0,
			"byteLength":160,
			"byteOffset":480,
			"target":34962
		},
		{
			"buffer":0,
			"byteLength":60,
			"byteOffset":640,
			"target":34963
		},
		{
			"buffer":0,
			"byteLength":1176,
			"byteOffset":700,
			"target":34962
		},
		{
			"buffer":0,
			"byteLength":1176,
			"byteOffset":1876,
			"target":34962
		},
		{
			"buffer":0,
			"byteLength":784,
			"byteOffset":3052,
			"target":34962
		},
		{
			"buffer":0,
			"byteLength":456,
			"byteOffset":3836,
			"target":34963
		},
		{
			"buffer":0,
			"byteLength":408,
			"byteOffset":4292,
			"target":34962
		},
		{
			"buffer":0,
			"byteLength":408,
			"byteOffset":4700,
			"target":34962
		},
		{
			"buffer":0,
			"byteLength":272,
			"byteOffset":5108,
			"target":34962
		},
		{
			"buffer":0,
			"byteLength":156,
			"byteOffset":5380,
			"target":34963
		},
		{
			"buffer":0,
			"byteLength":288,
			"byteOffset":5536,
			"target":34962
		},
		{
			"buffer":0,
			"byteLength":288,
			"byteOffset":5824,
			"target":34962
		},
		{
			"buffer":0,
			"byteLength":192,
			"byteOffset":6112,
			"target":34962
		},
		{
			"buffer":0,
			"byteLength":72,
			"byteOffset":6304,
			"target":34963
		},
		{
			"buffer":0,
			"byteLength":192,
			"byteOffset":6376,
			"target":34962
		},
		{
			"buffer":0,
			"byteLength":192,
			"byteOffset":6568,
			"target":34962
		},
		{
			"buffer":0,
			"byteLength":128,
			"byteOffset":6760,
			"target":34962
		},
		{
			"buffer":0,
			"byteLength":48,
			"byteOffset":6888,
			"target":34963
		},
		{
			"buffer":0,
			"byteLength":480,
			"byteOffset":6936,
			"target":34962
		},
		{
			"buffer":0,
			"byteLength":480,
			"byteOffset":7416,
			"target":34962
		},
		{
			"buffer":0,
			"byteLength":320,
			"byteOffset":7896,
			"target":34962
		},
		{
			"buffer":0,
			"byteLength":120,
			"byteOffset":8216,
			"target":34963
		},
		{
			"buffer":0,
			"byteLength":192,
			"byteOffset":8336,
			"target":34962
		},
		{
			"buffer":0,
			"byteLength":192,
			"byteOffset":8528,
			"target":34962
		},
		{
			"buffer":0,
			"byteLength":128,
			"byteOffset":8720,
			"target":34962
		},
		{
			"buffer":0,
			"byteLength":48,
			"byteOffset":8848,
			"target":34963
		},
		{
			"buffer":0,
			"byteLength":1272,
			"byteOffset":8896,
			"target":34962
		},
		{
			"buffer":0,
			"byteLength":1272,
			"byteOffset":10168,
			"target":34962
		},
		{
			"buffer":0,
			"byteLength":848,
			"byteOffset":11440,
			"target":34962
		},
		{
			"buffer":0,
			"byteLength":396,
			"byteOffset":12288,
			"target":34963
		},
		{
			"buffer":0,
			"byteLength":120,
			"byteOffset":12684,
			"target":34962
		},
		{
			"buffer":0,
			"byteLength":120,
			"byteOffset":12804,
			"target":34962
		},
		{
			"buffer":0,
			"byteLength":80,
			"byteOffset":12924,
			"target":34962
		},
		{
			"buffer":0,
			"byteLength":24,
			"byteOffset":13004,
			"target":34963
		},
		{
			"buffer":0,
			"byteLength":192,
			"byteOffset":13028,
			"target":34962
		},
		{
			"buffer":0,
			"byteLength":192,
			"byteOffset":13220,
			"target":34962
		},
		{
			"buffer":0,
			"byteLength":128,
			"byteOffset":13412,
			"target":34962
		},
		{
			"buffer":0,
			"byteLength":48,
			"byteOffset":13540,
			"target":34963
		},
		{
			"buffer":0,
			"byteLength":408,
			"byteOffset":13588,
			"target":34962
		},
		{
			"buffer":0,
			"byteLength":408,
			"byteOffset":13996,
			"target":34962
		},
		{
			"buffer":0,
			"byteLength":272,
			"byteOffset":14404,
			"target":34962
		},
		{
			"buffer":0,
			"byteLength":108,
			"byteOffset":14676,
			"target":34963
		},
		{
			"buffer":0,
			"byteLength":144,
			"byteOffset":14784,
			"target":34962
		},
		{
			"buffer":0,
			"byteLength":144,
			"byteOffset":14928,
			"target":34962
		},
		{
			"buffer":0,
			"byteLength":96,
			"byteOffset":15072,
			"target":34962
		},
		{
			"buffer":0,
			"byteLength":36,
			"byteOffset":15168,
			"target":34963
		},
		{
			"buffer":0,
			"byteLength":72,
			"byteOffset":15204,
			"target":34962
		},
		{
			"buffer":0,
			"byteLength":72,
			"byteOffset":15276,
			"target":34962
		},
		{
			"buffer":0,
			"byteLength":48,
			"byteOffset":15348,
			"target":34962
		},
		{
			"buffer":0,
			"byteLength":24,
			"byteOffset":15396,
			"target":34963
		}
	],
	"buffers":[
		{
			"byteLength":15420,
			"uri":"btf_genbunk.bin"
		}
	]
}
