{
	"asset":{
		"generator":"Khronos glTF Blender I/O v4.5.48",
		"version":"2.0"
	},
	"scene":0,
	"scenes":[
		{
			"name":"Scene",
			"nodes":[
				0
			]
		}
	],
	"nodes":[
		{
			"mesh":0,
			"name":"Object"
		}
	],
	"materials":[
		{
			"doubleSided":true,
			"name":"DS_EFLOOR1",
			"pbrMetallicRoughness":{
				"baseColorFactor":[
					0.800000011920929,
					0.800000011920929,
					0.800000011920929,
					1
				],
				"metallicFactor":0,
				"roughnessFactor":0.5
			}
		},
		{
			"doubleSided":true,
			"name":"DS_GENWALL",
			"pbrMetallicRoughness":{
				"baseColorFactor":[
					0.800000011920929,
					0.800000011920929,
					0.800000011920929,
					1
				],
				"metallicFactor":0,
				"roughnessFactor":0.5
			}
		},
		{
			"doubleSided":true,
			"name":"DS_EWALL06",
			"pbrMetallicRoughness":{
				"baseColorFactor":[
					0.800000011920929,
					0.800000011920929,
					0.800000011920929,
					1
				],
				"metallicFactor":0,
				"roughnessFactor":0.5
			}
		},
		{
			"doubleSided":true,
			"name":"DS_IFLO04",
			"pbrMetallicRoughness":{
				"baseColorFactor":[
					0.800000011920929,
					0.800000011920929,
					0.800000011920929,
					1
				],
				"metallicFactor":0,
				"roughnessFactor":0.5
			}
		},
		{
			"doubleSided":true,
			"name":"DS_ILIG04",
			"pbrMetallicRoughness":{
				"baseColorFactor":[
					0.800000011920929,
					0.800000011920929,
					0.800000011920929,
					1
				],
				"metallicFactor":0,
				"roughnessFactor":0.5
			}
		},
		{
			"doubleSided":true,
			"name":"DS_TECHWALL_1",
			"pbrMetallicRoughness":{
				"baseColorFactor":[
					0.800000011920929,
					0.800000011920929,
					0.800000011920929,
					1
				],
				"metallicFactor":0,
				"roughnessFactor":0.5
			}
		},
		{
			"doubleSided":true,
			"name":"DS_ILIG06",
			"pbrMetallicRoughness":{
				"baseColorFactor":[
					0.800000011920929,
					0.800000011920929,
					0.800000011920929,
					1
				],
				"metallicFactor":0,
				"roughnessFactor":0.5
			}
		},
		{
			"doubleSided":true,
			"name":"DS_TECHWALL_3",
			"pbrMetallicRoughness":{
				"baseColorFactor":[
					0.800000011920929,
					0.800000011920929,
					0.800000011920929,
					1
				],
				"metallicFactor":0,
				"roughnessFactor":0.5
			}
		},
		{
			"doubleSided":true,
			"name":"DS_EWALL07",
			"pbrMetallicRoughness":{
				"baseColorFactor":[
					0.800000011920929,
					0.800000011920929,
					0.800000011920929,
					1
				],
				"metallicFactor":0,
				"roughnessFactor":0.5
			}
		},
		{
			"doubleSided":true,
			"name":"DS_EWALL05",
			"pbrMetallicRoughness":{
				"baseColorFactor":[
					0.800000011920929,
					0.800000011920929,
					0.800000011920929,
					1
				],
				"metallicFactor":0,
				"roughnessFactor":0.5
			}
		},
		{
			"doubleSided":true,
			"name":"DS_ILIG03",
			"pbrMetallicRoughness":{
				"baseColorFactor":[
					0.800000011920929,
					0.800000011920929,
					0.800000011920929,
					1
				],
				"metallicFactor":0,
				"roughnessFactor":0.5
			}
		},
		{
			"doubleSided":true,
			"name":"DS_ILIG02",
			"pbrMetallicRoughness":{
				"baseColorFactor":[
					0.800000011920929,
					0.800000011920929,
					0.800000011920929,
					1
				],
				"metallicFactor":0,
				"roughnessFactor":0.5
			}
		},
		{
			"doubleSided":true,
			"name":"DS_FLOORGRATE1",
			"pbrMetallicRoughness":{
				"baseColorFactor":[
					0.800000011920929,
					0.800000011920929,
					0.800000011920929,
					1
				],
				"metallicFactor":0,
				"roughnessFactor":0.5
			}
		},
		{
			"doubleSided":true,
			"name":"DS_IBOR04",
			"pbrMetallicRoughness":{
				"baseColorFactor":[
					0.800000011920929,
					0.800000011920929,
					0.800000011920929,
					1
				],
				"metallicFactor":0,
				"roughnessFactor":0.5
			}
		},
		{
			"doubleSided":true,
			"name":"DS_ALARM",
			"pbrMetallicRoughness":{
				"baseColorFactor":[
					0.800000011920929,
					0.800000011920929,
					0.800000011920929,
					1
				],
				"metallicFactor":0,
				"roughnessFactor":0.5
			}
		}
	],
	"meshes":[
		{
			"name":"Mesh",
			"primitives":[
				{
					"attributes":{
						"POSITION":0,
						"NORMAL":1,
						"TEXCOORD_0":2
					},
					"indices":3,
					"material":0
				},
				{
					"attributes":{
						"POSITION":4,
						"NORMAL":5,
						"TEXCOORD_0":6
					},
					"indices":7,
					"material":1
				},
				{
					"attributes":{
						"POSITION":8,
						"NORMAL":9,
						"TEXCOORD_0":10
					},
					"indices":11,
					"material":2
				},
				{
					"attributes":{
						"POSITION":12,
						"NORMAL":13,
						"TEXCOORD_0":14
					},
					"indices":15,
					"material":3
				},
				{
					"attributes":{
						"POSITION":16,
						"NORMAL":17,
						"TEXCOORD_0":18
					},
					"indices":19,
					"material":4
				},
				{
					"attributes":{
						"POSITION":20,
						"NORMAL":21,
						"TEXCOORD_0":22
					},
					"indices":23,
					"material":5
				},
				{
					"attributes":{
						"POSITION":24,
						"NORMAL":25,
						"TEXCOORD_0":26
					},
					"indices":27,
					"material":6
				},
				{
					"attributes":{
						"POSITION":28,
						"NORMAL":29,
						"TEXCOORD_0":30
					},
					"indices":31,
					"material":7
				},
				{
					"attributes":{
						"POSITION":32,
						"NORMAL":33,
						"TEXCOORD_0":34
					},
					"indices":35,
					"material":8
				},
				{
					"attributes":{
						"POSITION":36,
						"NORMAL":37,
						"TEXCOORD_0":38
					},
					"indices":39,
					"material":9
				},
				{
					"attributes":{
						"POSITION":40,
						"NORMAL":41,
						"TEXCOORD_0":42
					},
					"indices":43,
					"material":10
				},
				{
					"attributes":{
						"POSITION":44,
						"NORMAL":45,
						"TEXCOORD_0":46
					},
					"indices":47,
					"material":11
				},
				{
					"attributes":{
						"POSITION":48,
						"NORMAL":49,
						"TEXCOORD_0":50
					},
					"indices":51,
					"material":12
				},
				{
					"attributes":{
						"POSITION":52,
						"NORMAL":53,
						"TEXCOORD_0":54
					},
					"indices":55,
					"material":13
				},
				{
					"attributes":{
						"POSITION":56,
						"NORMAL":57,
						"TEXCOORD_0":58
					},
					"indices":59,
					"material":14
				}
			]
		}
	],
	"accessors":[
		{
			"bufferView":0,
			"componentType":5126,
			"count":313,
			"max":[
				64,
				51,
				72
			],
			"min":[
				-64,
				-12,
				-72
			],
			"type":"VEC3"
		},
		{
			"bufferView":1,
			"componentType":5126,
			"count":313,
			"type":"VEC3"
		},
		{
			"bufferView":2,
			"componentType":5126,
			"count":313,
			"type":"VEC2"
		},
		{
			"bufferView":3,
			"componentType":5123,
			"count":702,
			"type":"SCALAR"
		},
		{
			"bufferView":4,
			"componentType":5126,
			"count":396,
			"max":[
				64,
				27,
				72
			],
			"min":[
				-64,
				-16,
				-72
			],
			"type":"VEC3"
		},
		{
			"bufferView":5,
			"componentType":5126,
			"count":396,
			"type":"VEC3"
		},
		{
			"bufferView":6,
			"componentType":5126,
			"count":396,
			"type":"VEC2"
		},
		{
			"bufferView":7,
			"componentType":5123,
			"count":768,
			"type":"SCALAR"
		},
		{
			"bufferView":8,
			"componentType":5126,
			"count":961,
			"max":[
				64,
				51,
				72
			],
			"min":[
				-64,
				-22,
				-72
			],
			"type":"VEC3"
		},
		{
			"bufferView":9,
			"componentType":5126,
			"count":961,
			"type":"VEC3"
		},
		{
			"bufferView":10,
			"componentType":5126,
			"count":961,
			"type":"VEC2"
		},
		{
			"bufferView":11,
			"componentType":5123,
			"count":1497,
			"type":"SCALAR"
		},
		{
			"bufferView":12,
			"componentType":5126,
			"count":140,
			"max":[
				42,
				29,
				56
			],
			"min":[
				-42,
				24,
				-56
			],
			"type":"VEC3"
		},
		{
			"bufferView":13,
			"componentType":5126,
			"count":140,
			"type":"VEC3"
		},
		{
			"bufferView":14,
			"componentType":5126,
			"count":140,
			"type":"VEC2"
		},
		{
			"bufferView":15,
			"componentType":5123,
			"count":264,
			"type":"SCALAR"
		},
		{
			"bufferView":16,
			"componentType":5126,
			"count":80,
			"max":[
				42,
				27,
				56
			],
			"min":[
				-42,
				-2.5,
				-56
			],
			"type":"VEC3"
		},
		{
			"bufferView":17,
			"componentType":5126,
			"count":80,
			"type":"VEC3"
		},
		{
			"bufferView":18,
			"componentType":5126,
			"count":80,
			"type":"VEC2"
		},
		{
			"bufferView":19,
			"componentType":5123,
			"count":120,
			"type":"SCALAR"
		},
		{
			"bufferView":20,
			"componentType":5126,
			"count":354,
			"max":[
				50,
				0,
				58
			],
			"min":[
				-50,
				-22,
				-58
			],
			"type":"VEC3"
		},
		{
			"bufferView":21,
			"componentType":5126,
			"count":354,
			"type":"VEC3"
		},
		{
			"bufferView":22,
			"componentType":5126,
			"count":354,
			"type":"VEC2"
		},
		{
			"bufferView":23,
			"componentType":5123,
			"count":528,
			"type":"SCALAR"
		},
		{
			"bufferView":24,
			"componentType":5126,
			"count":144,
			"max":[
				48,
				43,
				56
			],
			"min":[
				-48,
				-12,
				-56
			],
			"type":"VEC3"
		},
		{
			"bufferView":25,
			"componentType":5126,
			"count":144,
			"type":"VEC3"
		},
		{
			"bufferView":26,
			"componentType":5126,
			"count":144,
			"type":"VEC2"
		},
		{
			"bufferView":27,
			"componentType":5123,
			"count":216,
			"type":"SCALAR"
		},
		{
			"bufferView":28,
			"componentType":5126,
			"count":56,
			"max":[
				16,
				0,
				24
			],
			"min":[
				-16,
				-16,
				-24
			],
			"type":"VEC3"
		},
		{
			"bufferView":29,
			"componentType":5126,
			"count":56,
			"type":"VEC3"
		},
		{
			"bufferView":30,
			"componentType":5126,
			"count":56,
			"type":"VEC2"
		},
		{
			"bufferView":31,
			"componentType":5123,
			"count":108,
			"type":"SCALAR"
		},
		{
			"bufferView":32,
			"componentType":5126,
			"count":205,
			"max":[
				14,
				-2,
				22
			],
			"min":[
				-14,
				-12,
				-22
			],
			"type":"VEC3"
		},
		{
			"bufferView":33,
			"componentType":5126,
			"count":205,
			"type":"VEC3"
		},
		{
			"bufferView":34,
			"componentType":5126,
			"count":205,
			"type":"VEC2"
		},
		{
			"bufferView":35,
			"componentType":5123,
			"count":405,
			"type":"SCALAR"
		},
		{
			"bufferView":36,
			"componentType":5126,
			"count":24,
			"max":[
				18,
				-2,
				4
			],
			"min":[
				-18,
				-12,
				-4
			],
			"type":"VEC3"
		},
		{
			"bufferView":37,
			"componentType":5126,
			"count":24,
			"type":"VEC3"
		},
		{
			"bufferView":38,
			"componentType":5126,
			"count":24,
			"type":"VEC2"
		},
		{
			"bufferView":39,
			"componentType":5123,
			"count":48,
			"type":"SCALAR"
		},
		{
			"bufferView":40,
			"componentType":5126,
			"count":24,
			"max":[
				14,
				-5,
				22
			],
			"min":[
				-14,
				-5,
				-22
			],
			"type":"VEC3"
		},
		{
			"bufferView":41,
			"componentType":5126,
			"count":24,
			"type":"VEC3"
		},
		{
			"bufferView":42,
			"componentType":5126,
			"count":24,
			"type":"VEC2"
		},
		{
			"bufferView":43,
			"componentType":5123,
			"count":36,
			"type":"SCALAR"
		},
		{
			"bufferView":44,
			"componentType":5126,
			"count":52,
			"max":[
				5,
				29,
				16
			],
			"min":[
				-5,
				-2.5,
				-16
			],
			"type":"VEC3"
		},
		{
			"bufferView":45,
			"componentType":5126,
			"count":52,
			"type":"VEC3"
		},
		{
			"bufferView":46,
			"componentType":5126,
			"count":52,
			"type":"VEC2"
		},
		{
			"bufferView":47,
			"componentType":5123,
			"count":78,
			"type":"SCALAR"
		},
		{
			"bufferView":48,
			"componentType":5126,
			"count":16,
			"max":[
				16.714284896850586,
				45.85714340209961,
				42
			],
			"min":[
				-16.714284896850586,
				45,
				-42
			],
			"type":"VEC3"
		},
		{
			"bufferView":49,
			"componentType":5126,
			"count":16,
			"type":"VEC3"
		},
		{
			"bufferView":50,
			"componentType":5126,
			"count":16,
			"type":"VEC2"
		},
		{
			"bufferView":51,
			"componentType":5123,
			"count":24,
			"type":"SCALAR"
		},
		{
			"bufferView":52,
			"componentType":5126,
			"count":24,
			"max":[
				12.5,
				-2,
				1
			],
			"min":[
				-12.5,
				-2.5,
				-1
			],
			"type":"VEC3"
		},
		{
			"bufferView":53,
			"componentType":5126,
			"count":24,
			"type":"VEC3"
		},
		{
			"bufferView":54,
			"componentType":5126,
			"count":24,
			"type":"VEC2"
		},
		{
			"bufferView":55,
			"componentType":5123,
			"count":24,
			"type":"SCALAR"
		},
		{
			"bufferView":56,
			"componentType":5126,
			"count":16,
			"max":[
				12.5,
				-2,
				1
			],
			"min":[
				-12.5,
				-2.5,
				-1
			],
			"type":"VEC3"
		},
		{
			"bufferView":57,
			"componentType":5126,
			"count":16,
			"type":"VEC3"
		},
		{
			"bufferView":58,
			"componentType":5126,
			"count":16,
			"type":"VEC2"
		},
		{
			"bufferView":59,
			"componentType":5123,
			"count":24,
			"type":"SCALAR"
		}
	],
	"bufferViews":[
		{
			"buffer":0,
			"byteLength":3756,
			"byteOffset":0,
			"target":34962
		},
		{
			"buffer":0,
			"byteLength":3756,
			"byteOffset":3756,
			"target":34962
		},
		{
			"buffer":0,
			"byteLength":2504,
			"byteOffset":7512,
			"target":34962
		},
		{
			"buffer":0,
			"byteLength":1404,
			"byteOffset":10016,
			"target":34963
		},
		{
			"buffer":0,
			"byteLength":4752,
			"byteOffset":11420,
			"target":34962
		},
		{
			"buffer":0,
			"byteLength":4752,
			"byteOffset":16172,
			"target":34962
		},
		{
			"buffer":0,
			"byteLength":3168,
			"byteOffset":20924,
			"target":34962
		},
		{
			"buffer":0,
			"byteLength":1536,
			"byteOffset":24092,
			"target":34963
		},
		{
			"buffer":0,
			"byteLength":11532,
			"byteOffset":25628,
			"target":34962
		},
		{
			"buffer":0,
			"byteLength":11532,
			"byteOffset":37160,
			"target":34962
		},
		{
			"buffer":0,
			"byteLength":7688,
			"byteOffset":48692,
			"target":34962
		},
		{
			"buffer":0,
			"byteLength":2994,
			"byteOffset":56380,
			"target":34963
		},
		{
			"buffer":0,
			"byteLength":1680,
			"byteOffset":59376,
			"target":34962
		},
		{
			"buffer":0,
			"byteLength":1680,
			"byteOffset":61056,
			"target":34962
		},
		{
			"buffer":0,
			"byteLength":1120,
			"byteOffset":62736,
			"target":34962
		},
		{
			"buffer":0,
			"byteLength":528,
			"byteOffset":63856,
			"target":34963
		},
		{
			"buffer":0,
			"byteLength":960,
			"byteOffset":64384,
			"target":34962
		},
		{
			"buffer":0,
			"byteLength":960,
			"byteOffset":65344,
			"target":34962
		},
		{
			"buffer":0,
			"byteLength":640,
			"byteOffset":66304,
			"target":34962
		},
		{
			"buffer":0,
			"byteLength":240,
			"byteOffset":66944,
			"target":34963
		},
		{
			"buffer":0,
			"byteLength":4248,
			"byteOffset":67184,
			"target":34962
		},
		{
			"buffer":0,
			"byteLength":4248,
			"byteOffset":71432,
			"target":34962
		},
		{
			"buffer":0,
			"byteLength":2832,
			"byteOffset":75680,
			"target":34962
		},
		{
			"buffer":0,
			"byteLength":1056,
			"byteOffset":78512,
			"target":34963
		},
		{
			"buffer":0,
			"byteLength":1728,
			"byteOffset":79568,
			"target":34962
		},
		{
			"buffer":0,
			"byteLength":1728,
			"byteOffset":81296,
			"target":34962
		},
		{
			"buffer":0,
			"byteLength":1152,
			"byteOffset":83024,
			"target":34962
		},
		{
			"buffer":0,
			"byteLength":432,
			"byteOffset":84176,
			"target":34963
		},
		{
			"buffer":0,
			"byteLength":672,
			"byteOffset":84608,
			"target":34962
		},
		{
			"buffer":0,
			"byteLength":672,
			"byteOffset":85280,
			"target":34962
		},
		{
			"buffer":0,
			"byteLength":448,
			"byteOffset":85952,
			"target":34962
		},
		{
			"buffer":0,
			"byteLength":216,
			"byteOffset":86400,
			"target":34963
		},
		{
			"buffer":0,
			"byteLength":2460,
			"byteOffset":86616,
			"target":34962
		},
		{
			"buffer":0,
			"byteLength":2460,
			"byteOffset":89076,
			"target":34962
		},
		{
			"buffer":0,
			"byteLength":1640,
			"byteOffset":91536,
			"target":34962
		},
		{
			"buffer":0,
			"byteLength":810,
			"byteOffset":93176,
			"target":34963
		},
		{
			"buffer":0,
			"byteLength":288,
			"byteOffset":93988,
			"target":34962
		},
		{
			"buffer":0,
			"byteLength":288,
			"byteOffset":94276,
			"target":34962
		},
		{
			"buffer":0,
			"byteLength":192,
			"byteOffset":94564,
			"target":34962
		},
		{
			"buffer":0,
			"byteLength":96,
			"byteOffset":94756,
			"target":34963
		},
		{
			"buffer":0,
			"byteLength":288,
			"byteOffset":94852,
			"target":34962
		},
		{
			"buffer":0,
			"byteLength":288,
			"byteOffset":95140,
			"target":34962
		},
		{
			"buffer":0,
			"byteLength":192,
			"byteOffset":95428,
			"target":34962
		},
		{
			"buffer":0,
			"byteLength":72,
			"byteOffset":95620,
			"target":34963
		},
		{
			"buffer":0,
			"byteLength":624,
			"byteOffset":95692,
			"target":34962
		},
		{
			"buffer":0,
			"byteLength":624,
			"byteOffset":96316,
			"target":34962
		},
		{
			"buffer":0,
			"byteLength":416,
			"byteOffset":96940,
			"target":34962
		},
		{
			"buffer":0,
			"byteLength":156,
			"byteOffset":97356,
			"target":34963
		},
		{
			"buffer":0,
			"byteLength":192,
			"byteOffset":97512,
			"target":34962
		},
		{
			"buffer":0,
			"byteLength":192,
			"byteOffset":97704,
			"target":34962
		},
		{
			"buffer":0,
			"byteLength":128,
			"byteOffset":97896,
			"target":34962
		},
		{
			"buffer":0,
			"byteLength":48,
			"byteOffset":98024,
			"target":34963
		},
		{
			"buffer":0,
			"byteLength":288,
			"byteOffset":98072,
			"target":34962
		},
		{
			"buffer":0,
			"byteLength":288,
			"byteOffset":98360,
			"target":34962
		},
		{
			"buffer":0,
			"byteLength":192,
			"byteOffset":98648,
			"target":34962
		},
		{
			"buffer":0,
			"byteLength":48,
			"byteOffset":98840,
			"target":34963
		},
		{
			"buffer":0,
			"byteLength":192,
			"byteOffset":98888,
			"target":34962
		},
		{
			"buffer":0,
			"byteLength":192,
			"byteOffset":99080,
			"target":34962
		},
		{
			"buffer":0,
			"byteLength":128,
			"byteOffset":99272,
			"target":34962
		},
		{
			"buffer":0,
			"byteLength":48,
			"byteOffset":99400,
			"target":34963
		}
	],
	"buffers":[
		{
			"byteLength":99448,
			"uri":"btf_base1.bin"
		}
	]
}
