{
	"asset":{
		"generator":"Khronos glTF Blender I/O v4.5.48",
		"version":"2.0"
	},
	"scene":0,
	"scenes":[
		{
			"name":"Scene",
			"nodes":[
				0
			]
		}
	],
	"nodes":[
		{
			"mesh":0,
			"name":"Object"
		}
	],
	"materials":[
		{
			"doubleSided":true,
			"name":"DS_EWALL06",
			"pbrMetallicRoughness":{
				"baseColorFactor":[
					0.800000011920929,
					0.800000011920929,
					0.800000011920929,
					1
				],
				"metallicFactor":0,
				"roughnessFactor":0.5
			}
		},
		{
			"doubleSided":true,
			"name":"DS_ILIG02",
			"pbrMetallicRoughness":{
				"baseColorFactor":[
					0.800000011920929,
					0.800000011920929,
					0.800000011920929,
					1
				],
				"metallicFactor":0,
				"roughnessFactor":0.5
			}
		},
		{
			"doubleSided":true,
			"name":"DS_EFLOOR1",
			"pbrMetallicRoughness":{
				"baseColorFactor":[
					0.800000011920929,
					0.800000011920929,
					0.800000011920929,
					1
				],
				"metallicFactor":0,
				"roughnessFactor":0.5
			}
		},
		{
			"doubleSided":true,
			"name":"DS_ILIG06",
			"pbrMetallicRoughness":{
				"baseColorFactor":[
					0.800000011920929,
					0.800000011920929,
					0.800000011920929,
					1
				],
				"metallicFactor":0,
				"roughnessFactor":0.5
			}
		}
	],
	"meshes":[
		{
			"name":"Mesh",
			"primitives":[
				{
					"attributes":{
						"POSITION":0,
						"NORMAL":1,
						"TEXCOORD_0":2
					},
					"indices":3,
					"material":0
				},
				{
					"attributes":{
						"POSITION":4,
						"NORMAL":5,
						"TEXCOORD_0":6
					},
					"indices":7,
					"material":1
				},
				{
					"attributes":{
						"POSITION":8,
						"NORMAL":9,
						"TEXCOORD_0":10
					},
					"indices":11,
					"material":2
				},
				{
					"attributes":{
						"POSITION":12,
						"NORMAL":13,
						"TEXCOORD_0":14
					},
					"indices":15,
					"material":3
				}
			]
		}
	],
	"accessors":[
		{
			"bufferView":0,
			"componentType":5126,
			"count":328,
			"max":[
				12,
				29,
				4
			],
			"min":[
				-12,
				-56,
				-4
			],
			"type":"VEC3"
		},
		{
			"bufferView":1,
			"componentType":5126,
			"count":328,
			"type":"VEC3"
		},
		{
			"bufferView":2,
			"componentType":5126,
			"count":328,
			"type":"VEC2"
		},
		{
			"bufferView":3,
			"componentType":5123,
			"count":504,
			"type":"SCALAR"
		},
		{
			"bufferView":4,
			"componentType":5126,
			"count":24,
			"max":[
				6,
				0,
				4
			],
			"min":[
				-6,
				-1,
				-4
			],
			"type":"VEC3"
		},
		{
			"bufferView":5,
			"componentType":5126,
			"count":24,
			"type":"VEC3"
		},
		{
			"bufferView":6,
			"componentType":5126,
			"count":24,
			"type":"VEC2"
		},
		{
			"bufferView":7,
			"componentType":5123,
			"count":36,
			"type":"SCALAR"
		},
		{
			"bufferView":8,
			"componentType":5126,
			"count":8,
			"max":[
				5.5,
				29,
				0.5
			],
			"min":[
				-5.5,
				29,
				-0.5
			],
			"type":"VEC3"
		},
		{
			"bufferView":9,
			"componentType":5126,
			"count":8,
			"type":"VEC3"
		},
		{
			"bufferView":10,
			"componentType":5126,
			"count":8,
			"type":"VEC2"
		},
		{
			"bufferView":11,
			"componentType":5123,
			"count":12,
			"type":"SCALAR"
		},
		{
			"bufferView":12,
			"componentType":5126,
			"count":32,
			"max":[
				6,
				25,
				1
			],
			"min":[
				-6,
				24,
				-1
			],
			"type":"VEC3"
		},
		{
			"bufferView":13,
			"componentType":5126,
			"count":32,
			"type":"VEC3"
		},
		{
			"bufferView":14,
			"componentType":5126,
			"count":32,
			"type":"VEC2"
		},
		{
			"bufferView":15,
			"componentType":5123,
			"count":48,
			"type":"SCALAR"
		}
	],
	"bufferViews":[
		{
			"buffer":0,
			"byteLength":3936,
			"byteOffset":0,
			"target":34962
		},
		{
			"buffer":0,
			"byteLength":3936,
			"byteOffset":3936,
			"target":34962
		},
		{
			"buffer":0,
			"byteLength":2624,
			"byteOffset":7872,
			"target":34962
		},
		{
			"buffer":0,
			"byteLength":1008,
			"byteOffset":10496,
			"target":34963
		},
		{
			"buffer":0,
			"byteLength":288,
			"byteOffset":11504,
			"target":34962
		},
		{
			"buffer":0,
			"byteLength":288,
			"byteOffset":11792,
			"target":34962
		},
		{
			"buffer":0,
			"byteLength":192,
			"byteOffset":12080,
			"target":34962
		},
		{
			"buffer":0,
			"byteLength":72,
			"byteOffset":12272,
			"target":34963
		},
		{
			"buffer":0,
			"byteLength":96,
			"byteOffset":12344,
			"target":34962
		},
		{
			"buffer":0,
			"byteLength":96,
			"byteOffset":12440,
			"target":34962
		},
		{
			"buffer":0,
			"byteLength":64,
			"byteOffset":12536,
			"target":34962
		},
		{
			"buffer":0,
			"byteLength":24,
			"byteOffset":12600,
			"target":34963
		},
		{
			"buffer":0,
			"byteLength":384,
			"byteOffset":12624,
			"target":34962
		},
		{
			"buffer":0,
			"byteLength":384,
			"byteOffset":13008,
			"target":34962
		},
		{
			"buffer":0,
			"byteLength":256,
			"byteOffset":13392,
			"target":34962
		},
		{
			"buffer":0,
			"byteLength":96,
			"byteOffset":13648,
			"target":34963
		}
	],
	"buffers":[
		{
			"byteLength":13744,
			"uri":"btf_bridge2.bin"
		}
	]
}
