{
	"asset":{
		"generator":"Khronos glTF Blender I/O v4.5.48",
		"version":"2.0"
	},
	"scene":0,
	"scenes":[
		{
			"name":"Scene",
			"nodes":[
				0
			]
		}
	],
	"nodes":[
		{
			"mesh":0,
			"name":"Object"
		}
	],
	"materials":[
		{
			"doubleSided":true,
			"name":"DS_EFLOOR1",
			"pbrMetallicRoughness":{
				"baseColorFactor":[
					0.800000011920929,
					0.800000011920929,
					0.800000011920929,
					1
				],
				"metallicFactor":0,
				"roughnessFactor":0.5
			}
		},
		{
			"doubleSided":true,
			"name":"DS_GENWALL",
			"pbrMetallicRoughness":{
				"baseColorFactor":[
					0.800000011920929,
					0.800000011920929,
					0.800000011920929,
					1
				],
				"metallicFactor":0,
				"roughnessFactor":0.5
			}
		},
		{
			"doubleSided":true,
			"name":"DS_EWALL06",
			"pbrMetallicRoughness":{
				"baseColorFactor":[
					0.800000011920929,
					0.800000011920929,
					0.800000011920929,
					1
				],
				"metallicFactor":0,
				"roughnessFactor":0.5
			}
		},
		{
			"doubleSided":true,
			"name":"DS_IFLO04",
			"pbrMetallicRoughness":{
				"baseColorFactor":[
					0.800000011920929,
					0.800000011920929,
					0.800000011920929,
					1
				],
				"metallicFactor":0,
				"roughnessFactor":0.5
			}
		},
		{
			"doubleSided":true,
			"name":"DS_ILIG04",
			"pbrMetallicRoughness":{
				"baseColorFactor":[
					0.800000011920929,
					0.800000011920929,
					0.800000011920929,
					1
				],
				"metallicFactor":0,
				"roughnessFactor":0.5
			}
		},
		{
			"doubleSided":true,
			"name":"DS_TECHWALL_1",
			"pbrMetallicRoughness":{
				"baseColorFactor":[
					0.800000011920929,
					0.800000011920929,
					0.800000011920929,
					1
				],
				"metallicFactor":0,
				"roughnessFactor":0.5
			}
		},
		{
			"doubleSided":true,
			"name":"DS_ILIG06",
			"pbrMetallicRoughness":{
				"baseColorFactor":[
					0.800000011920929,
					0.800000011920929,
					0.800000011920929,
					1
				],
				"metallicFactor":0,
				"roughnessFactor":0.5
			}
		}
	],
	"meshes":[
		{
			"name":"Mesh",
			"primitives":[
				{
					"attributes":{
						"POSITION":0,
						"NORMAL":1,
						"TEXCOORD_0":2
					},
					"indices":3,
					"material":0
				},
				{
					"attributes":{
						"POSITION":4,
						"NORMAL":5,
						"TEXCOORD_0":6
					},
					"indices":7,
					"material":1
				},
				{
					"attributes":{
						"POSITION":8,
						"NORMAL":9,
						"TEXCOORD_0":10
					},
					"indices":11,
					"material":2
				},
				{
					"attributes":{
						"POSITION":12,
						"NORMAL":13,
						"TEXCOORD_0":14
					},
					"indices":15,
					"material":3
				},
				{
					"attributes":{
						"POSITION":16,
						"NORMAL":17,
						"TEXCOORD_0":18
					},
					"indices":19,
					"material":4
				},
				{
					"attributes":{
						"POSITION":20,
						"NORMAL":21,
						"TEXCOORD_0":22
					},
					"indices":23,
					"material":5
				},
				{
					"attributes":{
						"POSITION":24,
						"NORMAL":25,
						"TEXCOORD_0":26
					},
					"indices":27,
					"material":6
				}
			]
		}
	],
	"accessors":[
		{
			"bufferView":0,
			"componentType":5126,
			"count":80,
			"max":[
				64,
				51,
				8
			],
			"min":[
				-64,
				0,
				-32
			],
			"type":"VEC3"
		},
		{
			"bufferView":1,
			"componentType":5126,
			"count":80,
			"type":"VEC3"
		},
		{
			"bufferView":2,
			"componentType":5126,
			"count":80,
			"type":"VEC2"
		},
		{
			"bufferView":3,
			"componentType":5123,
			"count":150,
			"type":"SCALAR"
		},
		{
			"bufferView":4,
			"componentType":5126,
			"count":106,
			"max":[
				64,
				25,
				16
			],
			"min":[
				-64,
				-2,
				-32
			],
			"type":"VEC3"
		},
		{
			"bufferView":5,
			"componentType":5126,
			"count":106,
			"type":"VEC3"
		},
		{
			"bufferView":6,
			"componentType":5126,
			"count":106,
			"type":"VEC2"
		},
		{
			"bufferView":7,
			"componentType":5123,
			"count":204,
			"type":"SCALAR"
		},
		{
			"bufferView":8,
			"componentType":5126,
			"count":344,
			"max":[
				64,
				51,
				16
			],
			"min":[
				-64,
				-16,
				-32
			],
			"type":"VEC3"
		},
		{
			"bufferView":9,
			"componentType":5126,
			"count":344,
			"type":"VEC3"
		},
		{
			"bufferView":10,
			"componentType":5126,
			"count":344,
			"type":"VEC2"
		},
		{
			"bufferView":11,
			"componentType":5123,
			"count":534,
			"type":"SCALAR"
		},
		{
			"bufferView":12,
			"componentType":5126,
			"count":52,
			"max":[
				42,
				27,
				16
			],
			"min":[
				-42,
				27,
				-16
			],
			"type":"VEC3"
		},
		{
			"bufferView":13,
			"componentType":5126,
			"count":52,
			"type":"VEC3"
		},
		{
			"bufferView":14,
			"componentType":5126,
			"count":52,
			"type":"VEC2"
		},
		{
			"bufferView":15,
			"componentType":5123,
			"count":102,
			"type":"SCALAR"
		},
		{
			"bufferView":16,
			"componentType":5126,
			"count":28,
			"max":[
				42,
				27,
				16
			],
			"min":[
				-42,
				25,
				-16
			],
			"type":"VEC3"
		},
		{
			"bufferView":17,
			"componentType":5126,
			"count":28,
			"type":"VEC3"
		},
		{
			"bufferView":18,
			"componentType":5126,
			"count":28,
			"type":"VEC2"
		},
		{
			"bufferView":19,
			"componentType":5123,
			"count":42,
			"type":"SCALAR"
		},
		{
			"bufferView":20,
			"componentType":5126,
			"count":96,
			"max":[
				50,
				-4,
				2
			],
			"min":[
				-50,
				-16,
				-18
			],
			"type":"VEC3"
		},
		{
			"bufferView":21,
			"componentType":5126,
			"count":96,
			"type":"VEC3"
		},
		{
			"bufferView":22,
			"componentType":5126,
			"count":96,
			"type":"VEC2"
		},
		{
			"bufferView":23,
			"componentType":5123,
			"count":144,
			"type":"SCALAR"
		},
		{
			"bufferView":24,
			"componentType":5126,
			"count":40,
			"max":[
				48,
				43,
				2
			],
			"min":[
				-48,
				-4,
				-16
			],
			"type":"VEC3"
		},
		{
			"bufferView":25,
			"componentType":5126,
			"count":40,
			"type":"VEC3"
		},
		{
			"bufferView":26,
			"componentType":5126,
			"count":40,
			"type":"VEC2"
		},
		{
			"bufferView":27,
			"componentType":5123,
			"count":60,
			"type":"SCALAR"
		}
	],
	"bufferViews":[
		{
			"buffer":0,
			"byteLength":960,
			"byteOffset":0,
			"target":34962
		},
		{
			"buffer":0,
			"byteLength":960,
			"byteOffset":960,
			"target":34962
		},
		{
			"buffer":0,
			"byteLength":640,
			"byteOffset":1920,
			"target":34962
		},
		{
			"buffer":0,
			"byteLength":300,
			"byteOffset":2560,
			"target":34963
		},
		{
			"buffer":0,
			"byteLength":1272,
			"byteOffset":2860,
			"target":34962
		},
		{
			"buffer":0,
			"byteLength":1272,
			"byteOffset":4132,
			"target":34962
		},
		{
			"buffer":0,
			"byteLength":848,
			"byteOffset":5404,
			"target":34962
		},
		{
			"buffer":0,
			"byteLength":408,
			"byteOffset":6252,
			"target":34963
		},
		{
			"buffer":0,
			"byteLength":4128,
			"byteOffset":6660,
			"target":34962
		},
		{
			"buffer":0,
			"byteLength":4128,
			"byteOffset":10788,
			"target":34962
		},
		{
			"buffer":0,
			"byteLength":2752,
			"byteOffset":14916,
			"target":34962
		},
		{
			"buffer":0,
			"byteLength":1068,
			"byteOffset":17668,
			"target":34963
		},
		{
			"buffer":0,
			"byteLength":624,
			"byteOffset":18736,
			"target":34962
		},
		{
			"buffer":0,
			"byteLength":624,
			"byteOffset":19360,
			"target":34962
		},
		{
			"buffer":0,
			"byteLength":416,
			"byteOffset":19984,
			"target":34962
		},
		{
			"buffer":0,
			"byteLength":204,
			"byteOffset":20400,
			"target":34963
		},
		{
			"buffer":0,
			"byteLength":336,
			"byteOffset":20604,
			"target":34962
		},
		{
			"buffer":0,
			"byteLength":336,
			"byteOffset":20940,
			"target":34962
		},
		{
			"buffer":0,
			"byteLength":224,
			"byteOffset":21276,
			"target":34962
		},
		{
			"buffer":0,
			"byteLength":84,
			"byteOffset":21500,
			"target":34963
		},
		{
			"buffer":0,
			"byteLength":1152,
			"byteOffset":21584,
			"target":34962
		},
		{
			"buffer":0,
			"byteLength":1152,
			"byteOffset":22736,
			"target":34962
		},
		{
			"buffer":0,
			"byteLength":768,
			"byteOffset":23888,
			"target":34962
		},
		{
			"buffer":0,
			"byteLength":288,
			"byteOffset":24656,
			"target":34963
		},
		{
			"buffer":0,
			"byteLength":480,
			"byteOffset":24944,
			"target":34962
		},
		{
			"buffer":0,
			"byteLength":480,
			"byteOffset":25424,
			"target":34962
		},
		{
			"buffer":0,
			"byteLength":320,
			"byteOffset":25904,
			"target":34962
		},
		{
			"buffer":0,
			"byteLength":120,
			"byteOffset":26224,
			"target":34963
		}
	],
	"buffers":[
		{
			"byteLength":26344,
			"uri":"btf_bridge1.bin"
		}
	]
}
