{
	"asset":{
		"generator":"Khronos glTF Blender I/O v4.5.48",
		"version":"2.0"
	},
	"scene":0,
	"scenes":[
		{
			"name":"Scene",
			"nodes":[
				0,
				1
			]
		}
	],
	"nodes":[
		{
			"mesh":0,
			"name":"Object"
		},
		{
			"mesh":1,
			"name":"Object.001"
		}
	],
	"materials":[
		{
			"doubleSided":true,
			"name":"BE_EWAL06",
			"pbrMetallicRoughness":{
				"baseColorFactor":[
					0.800000011920929,
					0.800000011920929,
					0.800000011920929,
					1
				],
				"metallicFactor":0,
				"roughnessFactor":0.5
			}
		},
		{
			"doubleSided":true,
			"name":"BE_IGENERIC",
			"pbrMetallicRoughness":{
				"baseColorFactor":[
					0.800000011920929,
					0.800000011920929,
					0.800000011920929,
					1
				],
				"metallicFactor":0,
				"roughnessFactor":0.5
			}
		},
		{
			"doubleSided":true,
			"name":"BE_IHAWAL04A",
			"pbrMetallicRoughness":{
				"baseColorFactor":[
					0.800000011920929,
					0.800000011920929,
					0.800000011920929,
					1
				],
				"metallicFactor":0,
				"roughnessFactor":0.5
			}
		},
		{
			"doubleSided":true,
			"name":"BE_EWAL01B",
			"pbrMetallicRoughness":{
				"baseColorFactor":[
					0.800000011920929,
					0.800000011920929,
					0.800000011920929,
					1
				],
				"metallicFactor":0,
				"roughnessFactor":0.5
			}
		},
		{
			"doubleSided":true,
			"name":"BE_IHALIG",
			"pbrMetallicRoughness":{
				"baseColorFactor":[
					0.800000011920929,
					0.800000011920929,
					0.800000011920929,
					1
				],
				"metallicFactor":0,
				"roughnessFactor":0.5
			}
		},
		{
			"doubleSided":true,
			"name":"BE_EWAL06.001",
			"pbrMetallicRoughness":{
				"baseColorFactor":[
					0.800000011920929,
					0.800000011920929,
					0.800000011920929,
					1
				],
				"metallicFactor":0,
				"roughnessFactor":0.5
			}
		},
		{
			"doubleSided":true,
			"name":"BE_IGENERIC.001",
			"pbrMetallicRoughness":{
				"baseColorFactor":[
					0.800000011920929,
					0.800000011920929,
					0.800000011920929,
					1
				],
				"metallicFactor":0,
				"roughnessFactor":0.5
			}
		},
		{
			"doubleSided":true,
			"name":"BE_IHALIG.001",
			"pbrMetallicRoughness":{
				"baseColorFactor":[
					0.800000011920929,
					0.800000011920929,
					0.800000011920929,
					1
				],
				"metallicFactor":0,
				"roughnessFactor":0.5
			}
		},
		{
			"doubleSided":true,
			"name":"BE_IHAWAL04A.001",
			"pbrMetallicRoughness":{
				"baseColorFactor":[
					0.800000011920929,
					0.800000011920929,
					0.800000011920929,
					1
				],
				"metallicFactor":0,
				"roughnessFactor":0.5
			}
		},
		{
			"doubleSided":true,
			"name":"BE_EWAL01B.001",
			"pbrMetallicRoughness":{
				"baseColorFactor":[
					0.800000011920929,
					0.800000011920929,
					0.800000011920929,
					1
				],
				"metallicFactor":0,
				"roughnessFactor":0.5
			}
		}
	],
	"meshes":[
		{
			"name":"Mesh",
			"primitives":[
				{
					"attributes":{
						"POSITION":0,
						"NORMAL":1,
						"TEXCOORD_0":2
					},
					"indices":3,
					"material":0
				},
				{
					"attributes":{
						"POSITION":4,
						"NORMAL":5,
						"TEXCOORD_0":6
					},
					"indices":7,
					"material":1
				},
				{
					"attributes":{
						"POSITION":8,
						"NORMAL":9,
						"TEXCOORD_0":10
					},
					"indices":11,
					"material":2
				},
				{
					"attributes":{
						"POSITION":12,
						"NORMAL":13,
						"TEXCOORD_0":14
					},
					"indices":15,
					"material":3
				},
				{
					"attributes":{
						"POSITION":16,
						"NORMAL":17,
						"TEXCOORD_0":18
					},
					"indices":19,
					"material":4
				}
			]
		},
		{
			"name":"Mesh.001",
			"primitives":[
				{
					"attributes":{
						"POSITION":20,
						"NORMAL":21,
						"TEXCOORD_0":22
					},
					"indices":23,
					"material":5
				},
				{
					"attributes":{
						"POSITION":24,
						"NORMAL":25,
						"TEXCOORD_0":26
					},
					"indices":7,
					"material":6
				},
				{
					"attributes":{
						"POSITION":27,
						"NORMAL":28,
						"TEXCOORD_0":29
					},
					"indices":30,
					"material":7
				},
				{
					"attributes":{
						"POSITION":31,
						"NORMAL":32,
						"TEXCOORD_0":33
					},
					"indices":34,
					"material":8
				},
				{
					"attributes":{
						"POSITION":35,
						"NORMAL":36,
						"TEXCOORD_0":37
					},
					"indices":38,
					"material":9
				}
			]
		}
	],
	"accessors":[
		{
			"bufferView":0,
			"componentType":5126,
			"count":32,
			"max":[
				6,
				3,
				6
			],
			"min":[
				-6,
				-14,
				-6
			],
			"type":"VEC3"
		},
		{
			"bufferView":1,
			"componentType":5126,
			"count":32,
			"type":"VEC3"
		},
		{
			"bufferView":2,
			"componentType":5126,
			"count":32,
			"type":"VEC2"
		},
		{
			"bufferView":3,
			"componentType":5123,
			"count":90,
			"type":"SCALAR"
		},
		{
			"bufferView":4,
			"componentType":5126,
			"count":4,
			"max":[
				8,
				-16,
				8
			],
			"min":[
				-8,
				-16,
				-8
			],
			"type":"VEC3"
		},
		{
			"bufferView":5,
			"componentType":5126,
			"count":4,
			"type":"VEC3"
		},
		{
			"bufferView":6,
			"componentType":5126,
			"count":4,
			"type":"VEC2"
		},
		{
			"bufferView":7,
			"componentType":5123,
			"count":6,
			"type":"SCALAR"
		},
		{
			"bufferView":8,
			"componentType":5126,
			"count":84,
			"max":[
				6,
				3,
				6
			],
			"min":[
				-6,
				-14,
				-6
			],
			"type":"VEC3"
		},
		{
			"bufferView":9,
			"componentType":5126,
			"count":84,
			"type":"VEC3"
		},
		{
			"bufferView":10,
			"componentType":5126,
			"count":84,
			"type":"VEC2"
		},
		{
			"bufferView":11,
			"componentType":5123,
			"count":156,
			"type":"SCALAR"
		},
		{
			"bufferView":12,
			"componentType":5126,
			"count":68,
			"max":[
				8,
				2,
				8
			],
			"min":[
				-8,
				-16,
				-8
			],
			"type":"VEC3"
		},
		{
			"bufferView":13,
			"componentType":5126,
			"count":68,
			"type":"VEC3"
		},
		{
			"bufferView":14,
			"componentType":5126,
			"count":68,
			"type":"VEC2"
		},
		{
			"bufferView":15,
			"componentType":5123,
			"count":192,
			"type":"SCALAR"
		},
		{
			"bufferView":16,
			"componentType":5126,
			"count":16,
			"max":[
				1.75,
				3,
				1.75
			],
			"min":[
				-1.75,
				2,
				-1.75
			],
			"type":"VEC3"
		},
		{
			"bufferView":17,
			"componentType":5126,
			"count":16,
			"type":"VEC3"
		},
		{
			"bufferView":18,
			"componentType":5126,
			"count":16,
			"type":"VEC2"
		},
		{
			"bufferView":19,
			"componentType":5123,
			"count":24,
			"type":"SCALAR"
		},
		{
			"bufferView":20,
			"componentType":5126,
			"count":20,
			"max":[
				6,
				3,
				6
			],
			"min":[
				-6,
				2,
				-6
			],
			"type":"VEC3"
		},
		{
			"bufferView":21,
			"componentType":5126,
			"count":20,
			"type":"VEC3"
		},
		{
			"bufferView":22,
			"componentType":5126,
			"count":20,
			"type":"VEC2"
		},
		{
			"bufferView":23,
			"componentType":5123,
			"count":54,
			"type":"SCALAR"
		},
		{
			"bufferView":24,
			"componentType":5126,
			"count":4,
			"max":[
				8,
				-16,
				8
			],
			"min":[
				-8,
				-16,
				-8
			],
			"type":"VEC3"
		},
		{
			"bufferView":25,
			"componentType":5126,
			"count":4,
			"type":"VEC3"
		},
		{
			"bufferView":26,
			"componentType":5126,
			"count":4,
			"type":"VEC2"
		},
		{
			"bufferView":27,
			"componentType":5126,
			"count":16,
			"max":[
				1.75,
				3,
				1.75
			],
			"min":[
				-1.75,
				2,
				-1.75
			],
			"type":"VEC3"
		},
		{
			"bufferView":28,
			"componentType":5126,
			"count":16,
			"type":"VEC3"
		},
		{
			"bufferView":29,
			"componentType":5126,
			"count":16,
			"type":"VEC2"
		},
		{
			"bufferView":30,
			"componentType":5123,
			"count":24,
			"type":"SCALAR"
		},
		{
			"bufferView":31,
			"componentType":5126,
			"count":16,
			"max":[
				3.75,
				3,
				3.75
			],
			"min":[
				-3.75,
				2,
				-3.75
			],
			"type":"VEC3"
		},
		{
			"bufferView":32,
			"componentType":5126,
			"count":16,
			"type":"VEC3"
		},
		{
			"bufferView":33,
			"componentType":5126,
			"count":16,
			"type":"VEC2"
		},
		{
			"bufferView":34,
			"componentType":5123,
			"count":24,
			"type":"SCALAR"
		},
		{
			"bufferView":35,
			"componentType":5126,
			"count":32,
			"max":[
				8,
				2,
				8
			],
			"min":[
				-8,
				-16,
				-8
			],
			"type":"VEC3"
		},
		{
			"bufferView":36,
			"componentType":5126,
			"count":32,
			"type":"VEC3"
		},
		{
			"bufferView":37,
			"componentType":5126,
			"count":32,
			"type":"VEC2"
		},
		{
			"bufferView":38,
			"componentType":5123,
			"count":48,
			"type":"SCALAR"
		}
	],
	"bufferViews":[
		{
			"buffer":0,
			"byteLength":384,
			"byteOffset":0,
			"target":34962
		},
		{
			"buffer":0,
			"byteLength":384,
			"byteOffset":384,
			"target":34962
		},
		{
			"buffer":0,
			"byteLength":256,
			"byteOffset":768,
			"target":34962
		},
		{
			"buffer":0,
			"byteLength":180,
			"byteOffset":1024,
			"target":34963
		},
		{
			"buffer":0,
			"byteLength":48,
			"byteOffset":1204,
			"target":34962
		},
		{
			"buffer":0,
			"byteLength":48,
			"byteOffset":1252,
			"target":34962
		},
		{
			"buffer":0,
			"byteLength":32,
			"byteOffset":1300,
			"target":34962
		},
		{
			"buffer":0,
			"byteLength":12,
			"byteOffset":1332,
			"target":34963
		},
		{
			"buffer":0,
			"byteLength":1008,
			"byteOffset":1344,
			"target":34962
		},
		{
			"buffer":0,
			"byteLength":1008,
			"byteOffset":2352,
			"target":34962
		},
		{
			"buffer":0,
			"byteLength":672,
			"byteOffset":3360,
			"target":34962
		},
		{
			"buffer":0,
			"byteLength":312,
			"byteOffset":4032,
			"target":34963
		},
		{
			"buffer":0,
			"byteLength":816,
			"byteOffset":4344,
			"target":34962
		},
		{
			"buffer":0,
			"byteLength":816,
			"byteOffset":5160,
			"target":34962
		},
		{
			"buffer":0,
			"byteLength":544,
			"byteOffset":5976,
			"target":34962
		},
		{
			"buffer":0,
			"byteLength":384,
			"byteOffset":6520,
			"target":34963
		},
		{
			"buffer":0,
			"byteLength":192,
			"byteOffset":6904,
			"target":34962
		},
		{
			"buffer":0,
			"byteLength":192,
			"byteOffset":7096,
			"target":34962
		},
		{
			"buffer":0,
			"byteLength":128,
			"byteOffset":7288,
			"target":34962
		},
		{
			"buffer":0,
			"byteLength":48,
			"byteOffset":7416,
			"target":34963
		},
		{
			"buffer":0,
			"byteLength":240,
			"byteOffset":7464,
			"target":34962
		},
		{
			"buffer":0,
			"byteLength":240,
			"byteOffset":7704,
			"target":34962
		},
		{
			"buffer":0,
			"byteLength":160,
			"byteOffset":7944,
			"target":34962
		},
		{
			"buffer":0,
			"byteLength":108,
			"byteOffset":8104,
			"target":34963
		},
		{
			"buffer":0,
			"byteLength":48,
			"byteOffset":8212,
			"target":34962
		},
		{
			"buffer":0,
			"byteLength":48,
			"byteOffset":8260,
			"target":34962
		},
		{
			"buffer":0,
			"byteLength":32,
			"byteOffset":8308,
			"target":34962
		},
		{
			"buffer":0,
			"byteLength":192,
			"byteOffset":8340,
			"target":34962
		},
		{
			"buffer":0,
			"byteLength":192,
			"byteOffset":8532,
			"target":34962
		},
		{
			"buffer":0,
			"byteLength":128,
			"byteOffset":8724,
			"target":34962
		},
		{
			"buffer":0,
			"byteLength":48,
			"byteOffset":8852,
			"target":34963
		},
		{
			"buffer":0,
			"byteLength":192,
			"byteOffset":8900,
			"target":34962
		},
		{
			"buffer":0,
			"byteLength":192,
			"byteOffset":9092,
			"target":34962
		},
		{
			"buffer":0,
			"byteLength":128,
			"byteOffset":9284,
			"target":34962
		},
		{
			"buffer":0,
			"byteLength":48,
			"byteOffset":9412,
			"target":34963
		},
		{
			"buffer":0,
			"byteLength":384,
			"byteOffset":9460,
			"target":34962
		},
		{
			"buffer":0,
			"byteLength":384,
			"byteOffset":9844,
			"target":34962
		},
		{
			"buffer":0,
			"byteLength":256,
			"byteOffset":10228,
			"target":34962
		},
		{
			"buffer":0,
			"byteLength":96,
			"byteOffset":10484,
			"target":34963
		}
	],
	"buffers":[
		{
			"byteLength":10580,
			"uri":"tri_powerpit.bin"
		}
	]
}
