{
	"asset":{
		"generator":"Khronos glTF Blender I/O v4.5.48",
		"version":"2.0"
	},
	"scene":0,
	"scenes":[
		{
			"name":"Scene",
			"nodes":[
				0
			]
		}
	],
	"nodes":[
		{
			"mesh":0,
			"name":"Object"
		}
	],
	"materials":[
		{
			"doubleSided":true,
			"name":"BE_EWAL01B",
			"pbrMetallicRoughness":{
				"baseColorFactor":[
					0.800000011920929,
					0.800000011920929,
					0.800000011920929,
					1
				],
				"metallicFactor":0,
				"roughnessFactor":0.5
			}
		},
		{
			"doubleSided":true,
			"name":"BE_ICEI03B",
			"pbrMetallicRoughness":{
				"baseColorFactor":[
					0.800000011920929,
					0.800000011920929,
					0.800000011920929,
					1
				],
				"metallicFactor":0,
				"roughnessFactor":0.5
			}
		},
		{
			"doubleSided":true,
			"name":"BE_EWAL12B",
			"pbrMetallicRoughness":{
				"baseColorFactor":[
					0.800000011920929,
					0.800000011920929,
					0.800000011920929,
					1
				],
				"metallicFactor":0,
				"roughnessFactor":0.5
			}
		},
		{
			"doubleSided":true,
			"name":"BE_EWAL06",
			"pbrMetallicRoughness":{
				"baseColorFactor":[
					0.800000011920929,
					0.800000011920929,
					0.800000011920929,
					1
				],
				"metallicFactor":0,
				"roughnessFactor":0.5
			}
		},
		{
			"doubleSided":true,
			"name":"BE_EWAL02B",
			"pbrMetallicRoughness":{
				"baseColorFactor":[
					0.800000011920929,
					0.800000011920929,
					0.800000011920929,
					1
				],
				"metallicFactor":0,
				"roughnessFactor":0.5
			}
		},
		{
			"doubleSided":true,
			"name":"BE_ITEFLO02",
			"pbrMetallicRoughness":{
				"baseColorFactor":[
					0.800000011920929,
					0.800000011920929,
					0.800000011920929,
					1
				],
				"metallicFactor":0,
				"roughnessFactor":0.5
			}
		},
		{
			"doubleSided":true,
			"name":"BE_EWAL09B",
			"pbrMetallicRoughness":{
				"baseColorFactor":[
					0.800000011920929,
					0.800000011920929,
					0.800000011920929,
					1
				],
				"metallicFactor":0,
				"roughnessFactor":0.5
			}
		},
		{
			"doubleSided":true,
			"name":"BE_EPIPE01",
			"pbrMetallicRoughness":{
				"baseColorFactor":[
					0.800000011920929,
					0.800000011920929,
					0.800000011920929,
					1
				],
				"metallicFactor":0,
				"roughnessFactor":0.5
			}
		},
		{
			"doubleSided":true,
			"name":"BE_THRESH02A",
			"pbrMetallicRoughness":{
				"baseColorFactor":[
					0.800000011920929,
					0.800000011920929,
					0.800000011920929,
					1
				],
				"metallicFactor":0,
				"roughnessFactor":0.5
			}
		},
		{
			"doubleSided":true,
			"name":"BE_IHALIG",
			"pbrMetallicRoughness":{
				"baseColorFactor":[
					0.800000011920929,
					0.800000011920929,
					0.800000011920929,
					1
				],
				"metallicFactor":0,
				"roughnessFactor":0.5
			}
		}
	],
	"meshes":[
		{
			"name":"Mesh",
			"primitives":[
				{
					"attributes":{
						"POSITION":0,
						"NORMAL":1,
						"TEXCOORD_0":2
					},
					"indices":3,
					"material":0
				},
				{
					"attributes":{
						"POSITION":4,
						"NORMAL":5,
						"TEXCOORD_0":6
					},
					"indices":7,
					"material":1
				},
				{
					"attributes":{
						"POSITION":8,
						"NORMAL":9,
						"TEXCOORD_0":10
					},
					"indices":11,
					"material":2
				},
				{
					"attributes":{
						"POSITION":12,
						"NORMAL":13,
						"TEXCOORD_0":14
					},
					"indices":15,
					"material":3
				},
				{
					"attributes":{
						"POSITION":16,
						"NORMAL":17,
						"TEXCOORD_0":18
					},
					"indices":19,
					"material":4
				},
				{
					"attributes":{
						"POSITION":20,
						"NORMAL":21,
						"TEXCOORD_0":22
					},
					"indices":23,
					"material":5
				},
				{
					"attributes":{
						"POSITION":24,
						"NORMAL":25,
						"TEXCOORD_0":26
					},
					"indices":27,
					"material":6
				},
				{
					"attributes":{
						"POSITION":28,
						"NORMAL":29,
						"TEXCOORD_0":30
					},
					"indices":31,
					"material":7
				},
				{
					"attributes":{
						"POSITION":32,
						"NORMAL":33,
						"TEXCOORD_0":34
					},
					"indices":35,
					"material":8
				},
				{
					"attributes":{
						"POSITION":36,
						"NORMAL":37,
						"TEXCOORD_0":38
					},
					"indices":39,
					"material":9
				}
			]
		}
	],
	"accessors":[
		{
			"bufferView":0,
			"componentType":5126,
			"count":125,
			"max":[
				38,
				41,
				4
			],
			"min":[
				-38,
				-18,
				-36
			],
			"type":"VEC3"
		},
		{
			"bufferView":1,
			"componentType":5126,
			"count":125,
			"type":"VEC3"
		},
		{
			"bufferView":2,
			"componentType":5126,
			"count":125,
			"type":"VEC2"
		},
		{
			"bufferView":3,
			"componentType":5123,
			"count":285,
			"type":"SCALAR"
		},
		{
			"bufferView":4,
			"componentType":5126,
			"count":99,
			"max":[
				39,
				41,
				4.5
			],
			"min":[
				-39,
				16,
				-37
			],
			"type":"VEC3"
		},
		{
			"bufferView":5,
			"componentType":5126,
			"count":99,
			"type":"VEC3"
		},
		{
			"bufferView":6,
			"componentType":5126,
			"count":99,
			"type":"VEC2"
		},
		{
			"bufferView":7,
			"componentType":5123,
			"count":183,
			"type":"SCALAR"
		},
		{
			"bufferView":8,
			"componentType":5126,
			"count":54,
			"max":[
				38,
				34,
				2
			],
			"min":[
				-38,
				-18,
				-36
			],
			"type":"VEC3"
		},
		{
			"bufferView":9,
			"componentType":5126,
			"count":54,
			"type":"VEC3"
		},
		{
			"bufferView":10,
			"componentType":5126,
			"count":54,
			"type":"VEC2"
		},
		{
			"bufferView":11,
			"componentType":5123,
			"count":102,
			"type":"SCALAR"
		},
		{
			"bufferView":12,
			"componentType":5126,
			"count":40,
			"max":[
				34,
				45,
				2
			],
			"min":[
				-34,
				28,
				-16
			],
			"type":"VEC3"
		},
		{
			"bufferView":13,
			"componentType":5126,
			"count":40,
			"type":"VEC3"
		},
		{
			"bufferView":14,
			"componentType":5126,
			"count":40,
			"type":"VEC2"
		},
		{
			"bufferView":15,
			"componentType":5123,
			"count":72,
			"type":"SCALAR"
		},
		{
			"bufferView":16,
			"componentType":5126,
			"count":72,
			"max":[
				39,
				35,
				-4
			],
			"min":[
				-34,
				28,
				-37
			],
			"type":"VEC3"
		},
		{
			"bufferView":17,
			"componentType":5126,
			"count":72,
			"type":"VEC3"
		},
		{
			"bufferView":18,
			"componentType":5126,
			"count":72,
			"type":"VEC2"
		},
		{
			"bufferView":19,
			"componentType":5123,
			"count":138,
			"type":"SCALAR"
		},
		{
			"bufferView":20,
			"componentType":5126,
			"count":24,
			"max":[
				34,
				31,
				-4
			],
			"min":[
				-34,
				28,
				-36
			],
			"type":"VEC3"
		},
		{
			"bufferView":21,
			"componentType":5126,
			"count":24,
			"type":"VEC3"
		},
		{
			"bufferView":22,
			"componentType":5126,
			"count":24,
			"type":"VEC2"
		},
		{
			"bufferView":23,
			"componentType":5123,
			"count":66,
			"type":"SCALAR"
		},
		{
			"bufferView":24,
			"componentType":5126,
			"count":63,
			"max":[
				36,
				45,
				4
			],
			"min":[
				-36,
				34,
				-4
			],
			"type":"VEC3"
		},
		{
			"bufferView":25,
			"componentType":5126,
			"count":63,
			"type":"VEC3"
		},
		{
			"bufferView":26,
			"componentType":5126,
			"count":63,
			"type":"VEC2"
		},
		{
			"bufferView":27,
			"componentType":5123,
			"count":117,
			"type":"SCALAR"
		},
		{
			"bufferView":28,
			"componentType":5126,
			"count":43,
			"max":[
				39,
				35,
				-4
			],
			"min":[
				-39,
				34,
				-37
			],
			"type":"VEC3"
		},
		{
			"bufferView":29,
			"componentType":5126,
			"count":43,
			"type":"VEC3"
		},
		{
			"bufferView":30,
			"componentType":5126,
			"count":43,
			"type":"VEC2"
		},
		{
			"bufferView":31,
			"componentType":5123,
			"count":81,
			"type":"SCALAR"
		},
		{
			"bufferView":32,
			"componentType":5126,
			"count":32,
			"max":[
				36.5,
				40,
				4.5
			],
			"min":[
				-36.5,
				17,
				-4.5
			],
			"type":"VEC3"
		},
		{
			"bufferView":33,
			"componentType":5126,
			"count":32,
			"type":"VEC3"
		},
		{
			"bufferView":34,
			"componentType":5126,
			"count":32,
			"type":"VEC2"
		},
		{
			"bufferView":35,
			"componentType":5123,
			"count":48,
			"type":"SCALAR"
		},
		{
			"bufferView":36,
			"componentType":5126,
			"count":56,
			"max":[
				36.5,
				41,
				4.5
			],
			"min":[
				-36.5,
				16,
				-4.5
			],
			"type":"VEC3"
		},
		{
			"bufferView":37,
			"componentType":5126,
			"count":56,
			"type":"VEC3"
		},
		{
			"bufferView":38,
			"componentType":5126,
			"count":56,
			"type":"VEC2"
		},
		{
			"bufferView":39,
			"componentType":5123,
			"count":84,
			"type":"SCALAR"
		}
	],
	"bufferViews":[
		{
			"buffer":0,
			"byteLength":1500,
			"byteOffset":0,
			"target":34962
		},
		{
			"buffer":0,
			"byteLength":1500,
			"byteOffset":1500,
			"target":34962
		},
		{
			"buffer":0,
			"byteLength":1000,
			"byteOffset":3000,
			"target":34962
		},
		{
			"buffer":0,
			"byteLength":570,
			"byteOffset":4000,
			"target":34963
		},
		{
			"buffer":0,
			"byteLength":1188,
			"byteOffset":4572,
			"target":34962
		},
		{
			"buffer":0,
			"byteLength":1188,
			"byteOffset":5760,
			"target":34962
		},
		{
			"buffer":0,
			"byteLength":792,
			"byteOffset":6948,
			"target":34962
		},
		{
			"buffer":0,
			"byteLength":366,
			"byteOffset":7740,
			"target":34963
		},
		{
			"buffer":0,
			"byteLength":648,
			"byteOffset":8108,
			"target":34962
		},
		{
			"buffer":0,
			"byteLength":648,
			"byteOffset":8756,
			"target":34962
		},
		{
			"buffer":0,
			"byteLength":432,
			"byteOffset":9404,
			"target":34962
		},
		{
			"buffer":0,
			"byteLength":204,
			"byteOffset":9836,
			"target":34963
		},
		{
			"buffer":0,
			"byteLength":480,
			"byteOffset":10040,
			"target":34962
		},
		{
			"buffer":0,
			"byteLength":480,
			"byteOffset":10520,
			"target":34962
		},
		{
			"buffer":0,
			"byteLength":320,
			"byteOffset":11000,
			"target":34962
		},
		{
			"buffer":0,
			"byteLength":144,
			"byteOffset":11320,
			"target":34963
		},
		{
			"buffer":0,
			"byteLength":864,
			"byteOffset":11464,
			"target":34962
		},
		{
			"buffer":0,
			"byteLength":864,
			"byteOffset":12328,
			"target":34962
		},
		{
			"buffer":0,
			"byteLength":576,
			"byteOffset":13192,
			"target":34962
		},
		{
			"buffer":0,
			"byteLength":276,
			"byteOffset":13768,
			"target":34963
		},
		{
			"buffer":0,
			"byteLength":288,
			"byteOffset":14044,
			"target":34962
		},
		{
			"buffer":0,
			"byteLength":288,
			"byteOffset":14332,
			"target":34962
		},
		{
			"buffer":0,
			"byteLength":192,
			"byteOffset":14620,
			"target":34962
		},
		{
			"buffer":0,
			"byteLength":132,
			"byteOffset":14812,
			"target":34963
		},
		{
			"buffer":0,
			"byteLength":756,
			"byteOffset":14944,
			"target":34962
		},
		{
			"buffer":0,
			"byteLength":756,
			"byteOffset":15700,
			"target":34962
		},
		{
			"buffer":0,
			"byteLength":504,
			"byteOffset":16456,
			"target":34962
		},
		{
			"buffer":0,
			"byteLength":234,
			"byteOffset":16960,
			"target":34963
		},
		{
			"buffer":0,
			"byteLength":516,
			"byteOffset":17196,
			"target":34962
		},
		{
			"buffer":0,
			"byteLength":516,
			"byteOffset":17712,
			"target":34962
		},
		{
			"buffer":0,
			"byteLength":344,
			"byteOffset":18228,
			"target":34962
		},
		{
			"buffer":0,
			"byteLength":162,
			"byteOffset":18572,
			"target":34963
		},
		{
			"buffer":0,
			"byteLength":384,
			"byteOffset":18736,
			"target":34962
		},
		{
			"buffer":0,
			"byteLength":384,
			"byteOffset":19120,
			"target":34962
		},
		{
			"buffer":0,
			"byteLength":256,
			"byteOffset":19504,
			"target":34962
		},
		{
			"buffer":0,
			"byteLength":96,
			"byteOffset":19760,
			"target":34963
		},
		{
			"buffer":0,
			"byteLength":672,
			"byteOffset":19856,
			"target":34962
		},
		{
			"buffer":0,
			"byteLength":672,
			"byteOffset":20528,
			"target":34962
		},
		{
			"buffer":0,
			"byteLength":448,
			"byteOffset":21200,
			"target":34962
		},
		{
			"buffer":0,
			"byteLength":168,
			"byteOffset":21648,
			"target":34963
		}
	],
	"buffers":[
		{
			"byteLength":21816,
			"uri":"tri_wall4.bin"
		}
	]
}
