{
	"asset":{
		"generator":"Khronos glTF Blender I/O v4.5.48",
		"version":"2.0"
	},
	"scene":0,
	"scenes":[
		{
			"name":"Scene",
			"nodes":[
				0
			]
		}
	],
	"nodes":[
		{
			"mesh":0,
			"name":"Object"
		}
	],
	"materials":[
		{
			"doubleSided":true,
			"name":"BE_ICEI03B",
			"pbrMetallicRoughness":{
				"baseColorFactor":[
					0.800000011920929,
					0.800000011920929,
					0.800000011920929,
					1
				],
				"metallicFactor":0,
				"roughnessFactor":0.5
			}
		},
		{
			"doubleSided":true,
			"name":"BE_EWAL01B",
			"pbrMetallicRoughness":{
				"baseColorFactor":[
					0.800000011920929,
					0.800000011920929,
					0.800000011920929,
					1
				],
				"metallicFactor":0,
				"roughnessFactor":0.5
			}
		},
		{
			"doubleSided":true,
			"name":"BE_ESPEC01",
			"pbrMetallicRoughness":{
				"baseColorFactor":[
					0.800000011920929,
					0.800000011920929,
					0.800000011920929,
					1
				],
				"metallicFactor":0,
				"roughnessFactor":0.5
			}
		},
		{
			"doubleSided":true,
			"name":"BE_EWAL05A",
			"pbrMetallicRoughness":{
				"baseColorFactor":[
					0.800000011920929,
					0.800000011920929,
					0.800000011920929,
					1
				],
				"metallicFactor":0,
				"roughnessFactor":0.5
			}
		},
		{
			"doubleSided":true,
			"name":"BE_EWAL02B",
			"pbrMetallicRoughness":{
				"baseColorFactor":[
					0.800000011920929,
					0.800000011920929,
					0.800000011920929,
					1
				],
				"metallicFactor":0,
				"roughnessFactor":0.5
			}
		},
		{
			"doubleSided":true,
			"name":"BE_EWAL06",
			"pbrMetallicRoughness":{
				"baseColorFactor":[
					0.800000011920929,
					0.800000011920929,
					0.800000011920929,
					1
				],
				"metallicFactor":0,
				"roughnessFactor":0.5
			}
		},
		{
			"doubleSided":true,
			"name":"BE_IHALIG",
			"pbrMetallicRoughness":{
				"baseColorFactor":[
					0.800000011920929,
					0.800000011920929,
					0.800000011920929,
					1
				],
				"metallicFactor":0,
				"roughnessFactor":0.5
			}
		}
	],
	"meshes":[
		{
			"name":"Mesh",
			"primitives":[
				{
					"attributes":{
						"POSITION":0,
						"NORMAL":1,
						"TEXCOORD_0":2
					},
					"indices":3,
					"material":0
				},
				{
					"attributes":{
						"POSITION":4,
						"NORMAL":5,
						"TEXCOORD_0":6
					},
					"indices":7,
					"material":1
				},
				{
					"attributes":{
						"POSITION":8,
						"NORMAL":9,
						"TEXCOORD_0":10
					},
					"indices":11,
					"material":2
				},
				{
					"attributes":{
						"POSITION":12,
						"NORMAL":13,
						"TEXCOORD_0":14
					},
					"indices":15,
					"material":3
				},
				{
					"attributes":{
						"POSITION":16,
						"NORMAL":17,
						"TEXCOORD_0":18
					},
					"indices":19,
					"material":4
				},
				{
					"attributes":{
						"POSITION":20,
						"NORMAL":21,
						"TEXCOORD_0":22
					},
					"indices":23,
					"material":5
				},
				{
					"attributes":{
						"POSITION":24,
						"NORMAL":25,
						"TEXCOORD_0":26
					},
					"indices":27,
					"material":6
				}
			]
		}
	],
	"accessors":[
		{
			"bufferView":0,
			"componentType":5126,
			"count":476,
			"max":[
				43,
				40,
				12
			],
			"min":[
				-44,
				-32,
				-41
			],
			"type":"VEC3"
		},
		{
			"bufferView":1,
			"componentType":5126,
			"count":476,
			"type":"VEC3"
		},
		{
			"bufferView":2,
			"componentType":5126,
			"count":476,
			"type":"VEC2"
		},
		{
			"bufferView":3,
			"componentType":5123,
			"count":996,
			"type":"SCALAR"
		},
		{
			"bufferView":4,
			"componentType":5126,
			"count":100,
			"max":[
				7,
				36,
				6
			],
			"min":[
				-7,
				-32,
				-8.5
			],
			"type":"VEC3"
		},
		{
			"bufferView":5,
			"componentType":5126,
			"count":100,
			"type":"VEC3"
		},
		{
			"bufferView":6,
			"componentType":5126,
			"count":100,
			"type":"VEC2"
		},
		{
			"bufferView":7,
			"componentType":5123,
			"count":174,
			"type":"SCALAR"
		},
		{
			"bufferView":8,
			"componentType":5126,
			"count":12,
			"max":[
				2,
				35,
				-4.5
			],
			"min":[
				-2,
				-32,
				-8.5
			],
			"type":"VEC3"
		},
		{
			"bufferView":9,
			"componentType":5126,
			"count":12,
			"type":"VEC3"
		},
		{
			"bufferView":10,
			"componentType":5126,
			"count":12,
			"type":"VEC2"
		},
		{
			"bufferView":11,
			"componentType":5123,
			"count":18,
			"type":"SCALAR"
		},
		{
			"bufferView":12,
			"componentType":5126,
			"count":22,
			"max":[
				6,
				15,
				6
			],
			"min":[
				-6,
				-32,
				-6
			],
			"type":"VEC3"
		},
		{
			"bufferView":13,
			"componentType":5126,
			"count":22,
			"type":"VEC3"
		},
		{
			"bufferView":14,
			"componentType":5126,
			"count":22,
			"type":"VEC2"
		},
		{
			"bufferView":15,
			"componentType":5123,
			"count":36,
			"type":"SCALAR"
		},
		{
			"bufferView":16,
			"componentType":5126,
			"count":14,
			"max":[
				16,
				7,
				12
			],
			"min":[
				-16,
				5,
				2
			],
			"type":"VEC3"
		},
		{
			"bufferView":17,
			"componentType":5126,
			"count":14,
			"type":"VEC3"
		},
		{
			"bufferView":18,
			"componentType":5126,
			"count":14,
			"type":"VEC2"
		},
		{
			"bufferView":19,
			"componentType":5123,
			"count":24,
			"type":"SCALAR"
		},
		{
			"bufferView":20,
			"componentType":5126,
			"count":10,
			"max":[
				14,
				7,
				10
			],
			"min":[
				-14,
				7,
				2
			],
			"type":"VEC3"
		},
		{
			"bufferView":21,
			"componentType":5126,
			"count":10,
			"type":"VEC3"
		},
		{
			"bufferView":22,
			"componentType":5126,
			"count":10,
			"type":"VEC2"
		},
		{
			"bufferView":23,
			"componentType":5123,
			"count":24,
			"type":"SCALAR"
		},
		{
			"bufferView":24,
			"componentType":5126,
			"count":8,
			"max":[
				7,
				13.5,
				6
			],
			"min":[
				-7,
				13,
				2
			],
			"type":"VEC3"
		},
		{
			"bufferView":25,
			"componentType":5126,
			"count":8,
			"type":"VEC3"
		},
		{
			"bufferView":26,
			"componentType":5126,
			"count":8,
			"type":"VEC2"
		},
		{
			"bufferView":27,
			"componentType":5123,
			"count":12,
			"type":"SCALAR"
		}
	],
	"bufferViews":[
		{
			"buffer":0,
			"byteLength":5712,
			"byteOffset":0,
			"target":34962
		},
		{
			"buffer":0,
			"byteLength":5712,
			"byteOffset":5712,
			"target":34962
		},
		{
			"buffer":0,
			"byteLength":3808,
			"byteOffset":11424,
			"target":34962
		},
		{
			"buffer":0,
			"byteLength":1992,
			"byteOffset":15232,
			"target":34963
		},
		{
			"buffer":0,
			"byteLength":1200,
			"byteOffset":17224,
			"target":34962
		},
		{
			"buffer":0,
			"byteLength":1200,
			"byteOffset":18424,
			"target":34962
		},
		{
			"buffer":0,
			"byteLength":800,
			"byteOffset":19624,
			"target":34962
		},
		{
			"buffer":0,
			"byteLength":348,
			"byteOffset":20424,
			"target":34963
		},
		{
			"buffer":0,
			"byteLength":144,
			"byteOffset":20772,
			"target":34962
		},
		{
			"buffer":0,
			"byteLength":144,
			"byteOffset":20916,
			"target":34962
		},
		{
			"buffer":0,
			"byteLength":96,
			"byteOffset":21060,
			"target":34962
		},
		{
			"buffer":0,
			"byteLength":36,
			"byteOffset":21156,
			"target":34963
		},
		{
			"buffer":0,
			"byteLength":264,
			"byteOffset":21192,
			"target":34962
		},
		{
			"buffer":0,
			"byteLength":264,
			"byteOffset":21456,
			"target":34962
		},
		{
			"buffer":0,
			"byteLength":176,
			"byteOffset":21720,
			"target":34962
		},
		{
			"buffer":0,
			"byteLength":72,
			"byteOffset":21896,
			"target":34963
		},
		{
			"buffer":0,
			"byteLength":168,
			"byteOffset":21968,
			"target":34962
		},
		{
			"buffer":0,
			"byteLength":168,
			"byteOffset":22136,
			"target":34962
		},
		{
			"buffer":0,
			"byteLength":112,
			"byteOffset":22304,
			"target":34962
		},
		{
			"buffer":0,
			"byteLength":48,
			"byteOffset":22416,
			"target":34963
		},
		{
			"buffer":0,
			"byteLength":120,
			"byteOffset":22464,
			"target":34962
		},
		{
			"buffer":0,
			"byteLength":120,
			"byteOffset":22584,
			"target":34962
		},
		{
			"buffer":0,
			"byteLength":80,
			"byteOffset":22704,
			"target":34962
		},
		{
			"buffer":0,
			"byteLength":48,
			"byteOffset":22784,
			"target":34963
		},
		{
			"buffer":0,
			"byteLength":96,
			"byteOffset":22832,
			"target":34962
		},
		{
			"buffer":0,
			"byteLength":96,
			"byteOffset":22928,
			"target":34962
		},
		{
			"buffer":0,
			"byteLength":64,
			"byteOffset":23024,
			"target":34962
		},
		{
			"buffer":0,
			"byteLength":24,
			"byteOffset":23088,
			"target":34963
		}
	],
	"buffers":[
		{
			"byteLength":23112,
			"uri":"tri_wall3.bin"
		}
	]
}
