{
	"asset":{
		"generator":"Khronos glTF Blender I/O v4.5.48",
		"version":"2.0"
	},
	"scene":0,
	"scenes":[
		{
			"name":"Scene",
			"nodes":[
				0
			]
		}
	],
	"nodes":[
		{
			"mesh":0,
			"name":"Object"
		}
	],
	"materials":[
		{
			"doubleSided":true,
			"name":"BE_EWAL01B",
			"pbrMetallicRoughness":{
				"baseColorFactor":[
					0.800000011920929,
					0.800000011920929,
					0.800000011920929,
					1
				],
				"metallicFactor":0,
				"roughnessFactor":0.5
			}
		},
		{
			"doubleSided":true,
			"name":"BE_EPIPE01",
			"pbrMetallicRoughness":{
				"baseColorFactor":[
					0.800000011920929,
					0.800000011920929,
					0.800000011920929,
					1
				],
				"metallicFactor":0,
				"roughnessFactor":0.5
			}
		},
		{
			"doubleSided":true,
			"name":"BE_IHALIG",
			"pbrMetallicRoughness":{
				"baseColorFactor":[
					0.800000011920929,
					0.800000011920929,
					0.800000011920929,
					1
				],
				"metallicFactor":0,
				"roughnessFactor":0.5
			}
		},
		{
			"doubleSided":true,
			"name":"BE_EWAL09B",
			"pbrMetallicRoughness":{
				"baseColorFactor":[
					0.800000011920929,
					0.800000011920929,
					0.800000011920929,
					1
				],
				"metallicFactor":0,
				"roughnessFactor":0.5
			}
		},
		{
			"doubleSided":true,
			"name":"BE_EWAL06",
			"pbrMetallicRoughness":{
				"baseColorFactor":[
					0.800000011920929,
					0.800000011920929,
					0.800000011920929,
					1
				],
				"metallicFactor":0,
				"roughnessFactor":0.5
			}
		},
		{
			"doubleSided":true,
			"name":"BE_ICEI03B",
			"pbrMetallicRoughness":{
				"baseColorFactor":[
					0.800000011920929,
					0.800000011920929,
					0.800000011920929,
					1
				],
				"metallicFactor":0,
				"roughnessFactor":0.5
			}
		},
		{
			"doubleSided":true,
			"name":"BE_THRESH02A",
			"pbrMetallicRoughness":{
				"baseColorFactor":[
					0.800000011920929,
					0.800000011920929,
					0.800000011920929,
					1
				],
				"metallicFactor":0,
				"roughnessFactor":0.5
			}
		}
	],
	"meshes":[
		{
			"name":"Mesh",
			"primitives":[
				{
					"attributes":{
						"POSITION":0,
						"NORMAL":1,
						"TEXCOORD_0":2
					},
					"indices":3,
					"material":0
				},
				{
					"attributes":{
						"POSITION":4,
						"NORMAL":5,
						"TEXCOORD_0":6
					},
					"indices":7,
					"material":1
				},
				{
					"attributes":{
						"POSITION":8,
						"NORMAL":9,
						"TEXCOORD_0":10
					},
					"indices":11,
					"material":2
				},
				{
					"attributes":{
						"POSITION":12,
						"NORMAL":13,
						"TEXCOORD_0":14
					},
					"indices":15,
					"material":3
				},
				{
					"attributes":{
						"POSITION":16,
						"NORMAL":17,
						"TEXCOORD_0":18
					},
					"indices":19,
					"material":4
				},
				{
					"attributes":{
						"POSITION":20,
						"NORMAL":21,
						"TEXCOORD_0":22
					},
					"indices":23,
					"material":5
				},
				{
					"attributes":{
						"POSITION":24,
						"NORMAL":25,
						"TEXCOORD_0":26
					},
					"indices":27,
					"material":6
				}
			]
		}
	],
	"accessors":[
		{
			"bufferView":0,
			"componentType":5126,
			"count":792,
			"max":[
				121,
				42,
				18
			],
			"min":[
				-121,
				-48,
				-21
			],
			"type":"VEC3"
		},
		{
			"bufferView":1,
			"componentType":5126,
			"count":792,
			"type":"VEC3"
		},
		{
			"bufferView":2,
			"componentType":5126,
			"count":792,
			"type":"VEC2"
		},
		{
			"bufferView":3,
			"componentType":5123,
			"count":1746,
			"type":"SCALAR"
		},
		{
			"bufferView":4,
			"componentType":5126,
			"count":64,
			"max":[
				121,
				42,
				5
			],
			"min":[
				-121,
				27,
				-21
			],
			"type":"VEC3"
		},
		{
			"bufferView":5,
			"componentType":5126,
			"count":64,
			"type":"VEC3"
		},
		{
			"bufferView":6,
			"componentType":5126,
			"count":64,
			"type":"VEC2"
		},
		{
			"bufferView":7,
			"componentType":5123,
			"count":96,
			"type":"SCALAR"
		},
		{
			"bufferView":8,
			"componentType":5126,
			"count":72,
			"max":[
				118,
				40,
				18
			],
			"min":[
				-118,
				11,
				-12
			],
			"type":"VEC3"
		},
		{
			"bufferView":9,
			"componentType":5126,
			"count":72,
			"type":"VEC3"
		},
		{
			"bufferView":10,
			"componentType":5126,
			"count":72,
			"type":"VEC2"
		},
		{
			"bufferView":11,
			"componentType":5123,
			"count":108,
			"type":"SCALAR"
		},
		{
			"bufferView":12,
			"componentType":5126,
			"count":32,
			"max":[
				88,
				38,
				-4
			],
			"min":[
				-88,
				34,
				-12
			],
			"type":"VEC3"
		},
		{
			"bufferView":13,
			"componentType":5126,
			"count":32,
			"type":"VEC3"
		},
		{
			"bufferView":14,
			"componentType":5126,
			"count":32,
			"type":"VEC2"
		},
		{
			"bufferView":15,
			"componentType":5123,
			"count":48,
			"type":"SCALAR"
		},
		{
			"bufferView":16,
			"componentType":5126,
			"count":8,
			"max":[
				86,
				38,
				-6
			],
			"min":[
				-86,
				38,
				-10
			],
			"type":"VEC3"
		},
		{
			"bufferView":17,
			"componentType":5126,
			"count":8,
			"type":"VEC3"
		},
		{
			"bufferView":18,
			"componentType":5126,
			"count":8,
			"type":"VEC2"
		},
		{
			"bufferView":19,
			"componentType":5123,
			"count":12,
			"type":"SCALAR"
		},
		{
			"bufferView":20,
			"componentType":5126,
			"count":64,
			"max":[
				118,
				24,
				4.5
			],
			"min":[
				-118,
				11,
				-12
			],
			"type":"VEC3"
		},
		{
			"bufferView":21,
			"componentType":5126,
			"count":64,
			"type":"VEC3"
		},
		{
			"bufferView":22,
			"componentType":5126,
			"count":64,
			"type":"VEC2"
		},
		{
			"bufferView":23,
			"componentType":5123,
			"count":96,
			"type":"SCALAR"
		},
		{
			"bufferView":24,
			"componentType":5126,
			"count":32,
			"max":[
				118,
				23,
				4.5
			],
			"min":[
				-118,
				12,
				-11.5
			],
			"type":"VEC3"
		},
		{
			"bufferView":25,
			"componentType":5126,
			"count":32,
			"type":"VEC3"
		},
		{
			"bufferView":26,
			"componentType":5126,
			"count":32,
			"type":"VEC2"
		},
		{
			"bufferView":27,
			"componentType":5123,
			"count":48,
			"type":"SCALAR"
		}
	],
	"bufferViews":[
		{
			"buffer":0,
			"byteLength":9504,
			"byteOffset":0,
			"target":34962
		},
		{
			"buffer":0,
			"byteLength":9504,
			"byteOffset":9504,
			"target":34962
		},
		{
			"buffer":0,
			"byteLength":6336,
			"byteOffset":19008,
			"target":34962
		},
		{
			"buffer":0,
			"byteLength":3492,
			"byteOffset":25344,
			"target":34963
		},
		{
			"buffer":0,
			"byteLength":768,
			"byteOffset":28836,
			"target":34962
		},
		{
			"buffer":0,
			"byteLength":768,
			"byteOffset":29604,
			"target":34962
		},
		{
			"buffer":0,
			"byteLength":512,
			"byteOffset":30372,
			"target":34962
		},
		{
			"buffer":0,
			"byteLength":192,
			"byteOffset":30884,
			"target":34963
		},
		{
			"buffer":0,
			"byteLength":864,
			"byteOffset":31076,
			"target":34962
		},
		{
			"buffer":0,
			"byteLength":864,
			"byteOffset":31940,
			"target":34962
		},
		{
			"buffer":0,
			"byteLength":576,
			"byteOffset":32804,
			"target":34962
		},
		{
			"buffer":0,
			"byteLength":216,
			"byteOffset":33380,
			"target":34963
		},
		{
			"buffer":0,
			"byteLength":384,
			"byteOffset":33596,
			"target":34962
		},
		{
			"buffer":0,
			"byteLength":384,
			"byteOffset":33980,
			"target":34962
		},
		{
			"buffer":0,
			"byteLength":256,
			"byteOffset":34364,
			"target":34962
		},
		{
			"buffer":0,
			"byteLength":96,
			"byteOffset":34620,
			"target":34963
		},
		{
			"buffer":0,
			"byteLength":96,
			"byteOffset":34716,
			"target":34962
		},
		{
			"buffer":0,
			"byteLength":96,
			"byteOffset":34812,
			"target":34962
		},
		{
			"buffer":0,
			"byteLength":64,
			"byteOffset":34908,
			"target":34962
		},
		{
			"buffer":0,
			"byteLength":24,
			"byteOffset":34972,
			"target":34963
		},
		{
			"buffer":0,
			"byteLength":768,
			"byteOffset":34996,
			"target":34962
		},
		{
			"buffer":0,
			"byteLength":768,
			"byteOffset":35764,
			"target":34962
		},
		{
			"buffer":0,
			"byteLength":512,
			"byteOffset":36532,
			"target":34962
		},
		{
			"buffer":0,
			"byteLength":192,
			"byteOffset":37044,
			"target":34963
		},
		{
			"buffer":0,
			"byteLength":384,
			"byteOffset":37236,
			"target":34962
		},
		{
			"buffer":0,
			"byteLength":384,
			"byteOffset":37620,
			"target":34962
		},
		{
			"buffer":0,
			"byteLength":256,
			"byteOffset":38004,
			"target":34962
		},
		{
			"buffer":0,
			"byteLength":96,
			"byteOffset":38260,
			"target":34963
		}
	],
	"buffers":[
		{
			"byteLength":38356,
			"uri":"tri_gate.bin"
		}
	]
}
