{
	"asset":{
		"generator":"Khronos glTF Blender I/O v4.5.48",
		"version":"2.0"
	},
	"scene":0,
	"scenes":[
		{
			"name":"Scene",
			"nodes":[
				0
			]
		}
	],
	"nodes":[
		{
			"mesh":0,
			"name":"Object"
		}
	],
	"materials":[
		{
			"doubleSided":true,
			"name":"BE_IGENERICDARK",
			"pbrMetallicRoughness":{
				"baseColorFactor":[
					0.800000011920929,
					0.800000011920929,
					0.800000011920929,
					1
				],
				"metallicFactor":0,
				"roughnessFactor":0.5
			}
		},
		{
			"doubleSided":true,
			"name":"BE_EBOR04A",
			"pbrMetallicRoughness":{
				"baseColorFactor":[
					0.800000011920929,
					0.800000011920929,
					0.800000011920929,
					1
				],
				"metallicFactor":0,
				"roughnessFactor":0.5
			}
		},
		{
			"doubleSided":true,
			"name":"BE_EPIPE01",
			"pbrMetallicRoughness":{
				"baseColorFactor":[
					0.800000011920929,
					0.800000011920929,
					0.800000011920929,
					1
				],
				"metallicFactor":0,
				"roughnessFactor":0.5
			}
		},
		{
			"doubleSided":true,
			"name":"BE_EWAL07",
			"pbrMetallicRoughness":{
				"baseColorFactor":[
					0.800000011920929,
					0.800000011920929,
					0.800000011920929,
					1
				],
				"metallicFactor":0,
				"roughnessFactor":0.5
			}
		},
		{
			"doubleSided":true,
			"name":"BE_EWAL01B",
			"pbrMetallicRoughness":{
				"baseColorFactor":[
					0.800000011920929,
					0.800000011920929,
					0.800000011920929,
					1
				],
				"metallicFactor":0,
				"roughnessFactor":0.5
			}
		},
		{
			"doubleSided":true,
			"name":"BE_EWAL03A",
			"pbrMetallicRoughness":{
				"baseColorFactor":[
					0.800000011920929,
					0.800000011920929,
					0.800000011920929,
					1
				],
				"metallicFactor":0,
				"roughnessFactor":0.5
			}
		},
		{
			"doubleSided":true,
			"name":"BE_IFLO01",
			"pbrMetallicRoughness":{
				"baseColorFactor":[
					0.800000011920929,
					0.800000011920929,
					0.800000011920929,
					1
				],
				"metallicFactor":0,
				"roughnessFactor":0.5
			}
		},
		{
			"doubleSided":true,
			"name":"BE_EWAL06",
			"pbrMetallicRoughness":{
				"baseColorFactor":[
					0.800000011920929,
					0.800000011920929,
					0.800000011920929,
					1
				],
				"metallicFactor":0,
				"roughnessFactor":0.5
			}
		},
		{
			"doubleSided":true,
			"name":"BE_ESPEC01",
			"pbrMetallicRoughness":{
				"baseColorFactor":[
					0.800000011920929,
					0.800000011920929,
					0.800000011920929,
					1
				],
				"metallicFactor":0,
				"roughnessFactor":0.5
			}
		},
		{
			"doubleSided":true,
			"name":"BE_EPORT01E",
			"pbrMetallicRoughness":{
				"baseColorFactor":[
					0.800000011920929,
					0.800000011920929,
					0.800000011920929,
					1
				],
				"metallicFactor":0,
				"roughnessFactor":0.5
			}
		},
		{
			"doubleSided":true,
			"name":"BE_ELIG03",
			"pbrMetallicRoughness":{
				"baseColorFactor":[
					0.800000011920929,
					0.800000011920929,
					0.800000011920929,
					1
				],
				"metallicFactor":0,
				"roughnessFactor":0.5
			}
		},
		{
			"doubleSided":true,
			"name":"BE_EWALL10",
			"pbrMetallicRoughness":{
				"baseColorFactor":[
					0.800000011920929,
					0.800000011920929,
					0.800000011920929,
					1
				],
				"metallicFactor":0,
				"roughnessFactor":0.5
			}
		},
		{
			"doubleSided":true,
			"name":"BE_EPORT01",
			"pbrMetallicRoughness":{
				"baseColorFactor":[
					0.800000011920929,
					0.800000011920929,
					0.800000011920929,
					1
				],
				"metallicFactor":0,
				"roughnessFactor":0.5
			}
		}
	],
	"meshes":[
		{
			"name":"Mesh",
			"primitives":[
				{
					"attributes":{
						"POSITION":0,
						"NORMAL":1,
						"TEXCOORD_0":2
					},
					"indices":3,
					"material":0
				},
				{
					"attributes":{
						"POSITION":4,
						"NORMAL":5,
						"TEXCOORD_0":6
					},
					"indices":7,
					"material":1
				},
				{
					"attributes":{
						"POSITION":8,
						"NORMAL":9,
						"TEXCOORD_0":10
					},
					"indices":11,
					"material":2
				},
				{
					"attributes":{
						"POSITION":12,
						"NORMAL":13,
						"TEXCOORD_0":14
					},
					"indices":15,
					"material":3
				},
				{
					"attributes":{
						"POSITION":16,
						"NORMAL":17,
						"TEXCOORD_0":18
					},
					"indices":19,
					"material":4
				},
				{
					"attributes":{
						"POSITION":20,
						"NORMAL":21,
						"TEXCOORD_0":22
					},
					"indices":23,
					"material":5
				},
				{
					"attributes":{
						"POSITION":24,
						"NORMAL":25,
						"TEXCOORD_0":26
					},
					"indices":27,
					"material":6
				},
				{
					"attributes":{
						"POSITION":28,
						"NORMAL":29,
						"TEXCOORD_0":30
					},
					"indices":31,
					"material":7
				},
				{
					"attributes":{
						"POSITION":32,
						"NORMAL":33,
						"TEXCOORD_0":34
					},
					"indices":35,
					"material":8
				},
				{
					"attributes":{
						"POSITION":36,
						"NORMAL":37,
						"TEXCOORD_0":38
					},
					"indices":39,
					"material":9
				},
				{
					"attributes":{
						"POSITION":40,
						"NORMAL":41,
						"TEXCOORD_0":42
					},
					"indices":43,
					"material":10
				},
				{
					"attributes":{
						"POSITION":44,
						"NORMAL":45,
						"TEXCOORD_0":46
					},
					"indices":47,
					"material":11
				},
				{
					"attributes":{
						"POSITION":48,
						"NORMAL":49,
						"TEXCOORD_0":50
					},
					"indices":51,
					"material":12
				}
			]
		}
	],
	"accessors":[
		{
			"bufferView":0,
			"componentType":5126,
			"count":19,
			"max":[
				2,
				2,
				0
			],
			"min":[
				-18,
				2,
				-14
			],
			"type":"VEC3"
		},
		{
			"bufferView":1,
			"componentType":5126,
			"count":19,
			"type":"VEC3"
		},
		{
			"bufferView":2,
			"componentType":5126,
			"count":19,
			"type":"VEC2"
		},
		{
			"bufferView":3,
			"componentType":5123,
			"count":57,
			"type":"SCALAR"
		},
		{
			"bufferView":4,
			"componentType":5126,
			"count":109,
			"max":[
				2,
				2,
				0
			],
			"min":[
				-18,
				0,
				-14
			],
			"type":"VEC3"
		},
		{
			"bufferView":5,
			"componentType":5126,
			"count":109,
			"type":"VEC3"
		},
		{
			"bufferView":6,
			"componentType":5126,
			"count":109,
			"type":"VEC2"
		},
		{
			"bufferView":7,
			"componentType":5123,
			"count":183,
			"type":"SCALAR"
		},
		{
			"bufferView":8,
			"componentType":5126,
			"count":78,
			"max":[
				2,
				18,
				0
			],
			"min":[
				-18,
				0,
				-44
			],
			"type":"VEC3"
		},
		{
			"bufferView":9,
			"componentType":5126,
			"count":78,
			"type":"VEC3"
		},
		{
			"bufferView":10,
			"componentType":5126,
			"count":78,
			"type":"VEC2"
		},
		{
			"bufferView":11,
			"componentType":5123,
			"count":222,
			"type":"SCALAR"
		},
		{
			"bufferView":12,
			"componentType":5126,
			"count":16,
			"max":[
				0,
				4,
				-4
			],
			"min":[
				-16,
				4,
				-12
			],
			"type":"VEC3"
		},
		{
			"bufferView":13,
			"componentType":5126,
			"count":16,
			"type":"VEC3"
		},
		{
			"bufferView":14,
			"componentType":5126,
			"count":16,
			"type":"VEC2"
		},
		{
			"bufferView":15,
			"componentType":5123,
			"count":36,
			"type":"SCALAR"
		},
		{
			"bufferView":16,
			"componentType":5126,
			"count":150,
			"max":[
				0,
				30.5,
				-4
			],
			"min":[
				-16,
				2,
				-44
			],
			"type":"VEC3"
		},
		{
			"bufferView":17,
			"componentType":5126,
			"count":150,
			"type":"VEC3"
		},
		{
			"bufferView":18,
			"componentType":5126,
			"count":150,
			"type":"VEC2"
		},
		{
			"bufferView":19,
			"componentType":5123,
			"count":288,
			"type":"SCALAR"
		},
		{
			"bufferView":20,
			"componentType":5126,
			"count":36,
			"max":[
				-3,
				27.5,
				-10.5
			],
			"min":[
				-13,
				3.5,
				-44
			],
			"type":"VEC3"
		},
		{
			"bufferView":21,
			"componentType":5126,
			"count":36,
			"type":"VEC3"
		},
		{
			"bufferView":22,
			"componentType":5126,
			"count":36,
			"type":"VEC2"
		},
		{
			"bufferView":23,
			"componentType":5123,
			"count":60,
			"type":"SCALAR"
		},
		{
			"bufferView":24,
			"componentType":5126,
			"count":20,
			"max":[
				-3,
				29,
				-12
			],
			"min":[
				-13,
				12,
				-43
			],
			"type":"VEC3"
		},
		{
			"bufferView":25,
			"componentType":5126,
			"count":20,
			"type":"VEC3"
		},
		{
			"bufferView":26,
			"componentType":5126,
			"count":20,
			"type":"VEC2"
		},
		{
			"bufferView":27,
			"componentType":5123,
			"count":30,
			"type":"SCALAR"
		},
		{
			"bufferView":28,
			"componentType":5126,
			"count":12,
			"max":[
				-4,
				20,
				-4
			],
			"min":[
				-12,
				2,
				-44
			],
			"type":"VEC3"
		},
		{
			"bufferView":29,
			"componentType":5126,
			"count":12,
			"type":"VEC3"
		},
		{
			"bufferView":30,
			"componentType":5126,
			"count":12,
			"type":"VEC2"
		},
		{
			"bufferView":31,
			"componentType":5123,
			"count":18,
			"type":"SCALAR"
		},
		{
			"bufferView":32,
			"componentType":5126,
			"count":8,
			"max":[
				0,
				12,
				-11
			],
			"min":[
				-16,
				8,
				-12
			],
			"type":"VEC3"
		},
		{
			"bufferView":33,
			"componentType":5126,
			"count":8,
			"type":"VEC3"
		},
		{
			"bufferView":34,
			"componentType":5126,
			"count":8,
			"type":"VEC2"
		},
		{
			"bufferView":35,
			"componentType":5123,
			"count":12,
			"type":"SCALAR"
		},
		{
			"bufferView":36,
			"componentType":5126,
			"count":8,
			"max":[
				0,
				8,
				-10.5
			],
			"min":[
				-16,
				4,
				-11
			],
			"type":"VEC3"
		},
		{
			"bufferView":37,
			"componentType":5126,
			"count":8,
			"type":"VEC3"
		},
		{
			"bufferView":38,
			"componentType":5126,
			"count":8,
			"type":"VEC2"
		},
		{
			"bufferView":39,
			"componentType":5123,
			"count":12,
			"type":"SCALAR"
		},
		{
			"bufferView":40,
			"componentType":5126,
			"count":16,
			"max":[
				-2.5,
				19.5,
				-12
			],
			"min":[
				-13.5,
				3.5,
				-44
			],
			"type":"VEC3"
		},
		{
			"bufferView":41,
			"componentType":5126,
			"count":16,
			"type":"VEC3"
		},
		{
			"bufferView":42,
			"componentType":5126,
			"count":16,
			"type":"VEC2"
		},
		{
			"bufferView":43,
			"componentType":5123,
			"count":24,
			"type":"SCALAR"
		},
		{
			"bufferView":44,
			"componentType":5126,
			"count":52,
			"max":[
				0.5,
				8.5,
				-36
			],
			"min":[
				-16.5,
				0.5,
				-43
			],
			"type":"VEC3"
		},
		{
			"bufferView":45,
			"componentType":5126,
			"count":52,
			"type":"VEC3"
		},
		{
			"bufferView":46,
			"componentType":5126,
			"count":52,
			"type":"VEC2"
		},
		{
			"bufferView":47,
			"componentType":5123,
			"count":96,
			"type":"SCALAR"
		},
		{
			"bufferView":48,
			"componentType":5126,
			"count":4,
			"max":[
				-6,
				18,
				-42
			],
			"min":[
				-10,
				8.5,
				-44
			],
			"type":"VEC3"
		},
		{
			"bufferView":49,
			"componentType":5126,
			"count":4,
			"type":"VEC3"
		},
		{
			"bufferView":50,
			"componentType":5126,
			"count":4,
			"type":"VEC2"
		},
		{
			"bufferView":51,
			"componentType":5123,
			"count":6,
			"type":"SCALAR"
		}
	],
	"bufferViews":[
		{
			"buffer":0,
			"byteLength":228,
			"byteOffset":0,
			"target":34962
		},
		{
			"buffer":0,
			"byteLength":228,
			"byteOffset":228,
			"target":34962
		},
		{
			"buffer":0,
			"byteLength":152,
			"byteOffset":456,
			"target":34962
		},
		{
			"buffer":0,
			"byteLength":114,
			"byteOffset":608,
			"target":34963
		},
		{
			"buffer":0,
			"byteLength":1308,
			"byteOffset":724,
			"target":34962
		},
		{
			"buffer":0,
			"byteLength":1308,
			"byteOffset":2032,
			"target":34962
		},
		{
			"buffer":0,
			"byteLength":872,
			"byteOffset":3340,
			"target":34962
		},
		{
			"buffer":0,
			"byteLength":366,
			"byteOffset":4212,
			"target":34963
		},
		{
			"buffer":0,
			"byteLength":936,
			"byteOffset":4580,
			"target":34962
		},
		{
			"buffer":0,
			"byteLength":936,
			"byteOffset":5516,
			"target":34962
		},
		{
			"buffer":0,
			"byteLength":624,
			"byteOffset":6452,
			"target":34962
		},
		{
			"buffer":0,
			"byteLength":444,
			"byteOffset":7076,
			"target":34963
		},
		{
			"buffer":0,
			"byteLength":192,
			"byteOffset":7520,
			"target":34962
		},
		{
			"buffer":0,
			"byteLength":192,
			"byteOffset":7712,
			"target":34962
		},
		{
			"buffer":0,
			"byteLength":128,
			"byteOffset":7904,
			"target":34962
		},
		{
			"buffer":0,
			"byteLength":72,
			"byteOffset":8032,
			"target":34963
		},
		{
			"buffer":0,
			"byteLength":1800,
			"byteOffset":8104,
			"target":34962
		},
		{
			"buffer":0,
			"byteLength":1800,
			"byteOffset":9904,
			"target":34962
		},
		{
			"buffer":0,
			"byteLength":1200,
			"byteOffset":11704,
			"target":34962
		},
		{
			"buffer":0,
			"byteLength":576,
			"byteOffset":12904,
			"target":34963
		},
		{
			"buffer":0,
			"byteLength":432,
			"byteOffset":13480,
			"target":34962
		},
		{
			"buffer":0,
			"byteLength":432,
			"byteOffset":13912,
			"target":34962
		},
		{
			"buffer":0,
			"byteLength":288,
			"byteOffset":14344,
			"target":34962
		},
		{
			"buffer":0,
			"byteLength":120,
			"byteOffset":14632,
			"target":34963
		},
		{
			"buffer":0,
			"byteLength":240,
			"byteOffset":14752,
			"target":34962
		},
		{
			"buffer":0,
			"byteLength":240,
			"byteOffset":14992,
			"target":34962
		},
		{
			"buffer":0,
			"byteLength":160,
			"byteOffset":15232,
			"target":34962
		},
		{
			"buffer":0,
			"byteLength":60,
			"byteOffset":15392,
			"target":34963
		},
		{
			"buffer":0,
			"byteLength":144,
			"byteOffset":15452,
			"target":34962
		},
		{
			"buffer":0,
			"byteLength":144,
			"byteOffset":15596,
			"target":34962
		},
		{
			"buffer":0,
			"byteLength":96,
			"byteOffset":15740,
			"target":34962
		},
		{
			"buffer":0,
			"byteLength":36,
			"byteOffset":15836,
			"target":34963
		},
		{
			"buffer":0,
			"byteLength":96,
			"byteOffset":15872,
			"target":34962
		},
		{
			"buffer":0,
			"byteLength":96,
			"byteOffset":15968,
			"target":34962
		},
		{
			"buffer":0,
			"byteLength":64,
			"byteOffset":16064,
			"target":34962
		},
		{
			"buffer":0,
			"byteLength":24,
			"byteOffset":16128,
			"target":34963
		},
		{
			"buffer":0,
			"byteLength":96,
			"byteOffset":16152,
			"target":34962
		},
		{
			"buffer":0,
			"byteLength":96,
			"byteOffset":16248,
			"target":34962
		},
		{
			"buffer":0,
			"byteLength":64,
			"byteOffset":16344,
			"target":34962
		},
		{
			"buffer":0,
			"byteLength":24,
			"byteOffset":16408,
			"target":34963
		},
		{
			"buffer":0,
			"byteLength":192,
			"byteOffset":16432,
			"target":34962
		},
		{
			"buffer":0,
			"byteLength":192,
			"byteOffset":16624,
			"target":34962
		},
		{
			"buffer":0,
			"byteLength":128,
			"byteOffset":16816,
			"target":34962
		},
		{
			"buffer":0,
			"byteLength":48,
			"byteOffset":16944,
			"target":34963
		},
		{
			"buffer":0,
			"byteLength":624,
			"byteOffset":16992,
			"target":34962
		},
		{
			"buffer":0,
			"byteLength":624,
			"byteOffset":17616,
			"target":34962
		},
		{
			"buffer":0,
			"byteLength":416,
			"byteOffset":18240,
			"target":34962
		},
		{
			"buffer":0,
			"byteLength":192,
			"byteOffset":18656,
			"target":34963
		},
		{
			"buffer":0,
			"byteLength":48,
			"byteOffset":18848,
			"target":34962
		},
		{
			"buffer":0,
			"byteLength":48,
			"byteOffset":18896,
			"target":34962
		},
		{
			"buffer":0,
			"byteLength":32,
			"byteOffset":18944,
			"target":34962
		},
		{
			"buffer":0,
			"byteLength":12,
			"byteOffset":18976,
			"target":34963
		}
	],
	"buffers":[
		{
			"byteLength":18988,
			"uri":"cannon2.bin"
		}
	]
}
