{
	"asset":{
		"generator":"Khronos glTF Blender I/O v4.5.48",
		"version":"2.0"
	},
	"scene":0,
	"scenes":[
		{
			"name":"Scene",
			"nodes":[
				0
			]
		}
	],
	"nodes":[
		{
			"mesh":0,
			"name":"Object"
		}
	],
	"materials":[
		{
			"doubleSided":true,
			"name":"BE_THRESH01A",
			"pbrMetallicRoughness":{
				"baseColorFactor":[
					0.800000011920929,
					0.800000011920929,
					0.800000011920929,
					1
				],
				"metallicFactor":0,
				"roughnessFactor":0.5
			}
		},
		{
			"doubleSided":true,
			"name":"BE_EPIPE01",
			"pbrMetallicRoughness":{
				"baseColorFactor":[
					0.800000011920929,
					0.800000011920929,
					0.800000011920929,
					1
				],
				"metallicFactor":0,
				"roughnessFactor":0.5
			}
		},
		{
			"doubleSided":true,
			"name":"BE_ICHUTE01",
			"pbrMetallicRoughness":{
				"baseColorFactor":[
					0.800000011920929,
					0.800000011920929,
					0.800000011920929,
					1
				],
				"metallicFactor":0,
				"roughnessFactor":0.5
			}
		},
		{
			"doubleSided":true,
			"name":"BE_EWAL01B",
			"pbrMetallicRoughness":{
				"baseColorFactor":[
					0.800000011920929,
					0.800000011920929,
					0.800000011920929,
					1
				],
				"metallicFactor":0,
				"roughnessFactor":0.5
			}
		},
		{
			"doubleSided":true,
			"name":"BE_ITEWAL04",
			"pbrMetallicRoughness":{
				"baseColorFactor":[
					0.800000011920929,
					0.800000011920929,
					0.800000011920929,
					1
				],
				"metallicFactor":0,
				"roughnessFactor":0.5
			}
		},
		{
			"doubleSided":true,
			"name":"BE_ELIG03",
			"pbrMetallicRoughness":{
				"baseColorFactor":[
					0.800000011920929,
					0.800000011920929,
					0.800000011920929,
					1
				],
				"metallicFactor":0,
				"roughnessFactor":0.5
			}
		},
		{
			"doubleSided":true,
			"name":"BE_EPORT01E",
			"pbrMetallicRoughness":{
				"baseColorFactor":[
					0.800000011920929,
					0.800000011920929,
					0.800000011920929,
					1
				],
				"metallicFactor":0,
				"roughnessFactor":0.5
			}
		},
		{
			"doubleSided":true,
			"name":"BE_ESPEC01",
			"pbrMetallicRoughness":{
				"baseColorFactor":[
					0.800000011920929,
					0.800000011920929,
					0.800000011920929,
					1
				],
				"metallicFactor":0,
				"roughnessFactor":0.5
			}
		},
		{
			"doubleSided":true,
			"name":"BE_ESPEC02",
			"pbrMetallicRoughness":{
				"baseColorFactor":[
					0.800000011920929,
					0.800000011920929,
					0.800000011920929,
					1
				],
				"metallicFactor":0,
				"roughnessFactor":0.5
			}
		}
	],
	"meshes":[
		{
			"name":"Mesh",
			"primitives":[
				{
					"attributes":{
						"POSITION":0,
						"NORMAL":1,
						"TEXCOORD_0":2
					},
					"indices":3,
					"material":0
				},
				{
					"attributes":{
						"POSITION":4,
						"NORMAL":5,
						"TEXCOORD_0":6
					},
					"indices":7,
					"material":1
				},
				{
					"attributes":{
						"POSITION":8,
						"NORMAL":9,
						"TEXCOORD_0":10
					},
					"indices":11,
					"material":2
				},
				{
					"attributes":{
						"POSITION":12,
						"NORMAL":13,
						"TEXCOORD_0":14
					},
					"indices":15,
					"material":3
				},
				{
					"attributes":{
						"POSITION":16,
						"NORMAL":17,
						"TEXCOORD_0":18
					},
					"indices":19,
					"material":4
				},
				{
					"attributes":{
						"POSITION":20,
						"NORMAL":21,
						"TEXCOORD_0":22
					},
					"indices":23,
					"material":5
				},
				{
					"attributes":{
						"POSITION":24,
						"NORMAL":25,
						"TEXCOORD_0":26
					},
					"indices":27,
					"material":6
				},
				{
					"attributes":{
						"POSITION":28,
						"NORMAL":29,
						"TEXCOORD_0":30
					},
					"indices":31,
					"material":7
				},
				{
					"attributes":{
						"POSITION":32,
						"NORMAL":33,
						"TEXCOORD_0":34
					},
					"indices":35,
					"material":8
				}
			]
		}
	],
	"accessors":[
		{
			"bufferView":0,
			"componentType":5126,
			"count":244,
			"max":[
				112,
				44,
				48
			],
			"min":[
				-112,
				0,
				-48
			],
			"type":"VEC3"
		},
		{
			"bufferView":1,
			"componentType":5126,
			"count":244,
			"type":"VEC3"
		},
		{
			"bufferView":2,
			"componentType":5126,
			"count":244,
			"type":"VEC2"
		},
		{
			"bufferView":3,
			"componentType":5123,
			"count":372,
			"type":"SCALAR"
		},
		{
			"bufferView":4,
			"componentType":5126,
			"count":76,
			"max":[
				112,
				0,
				56
			],
			"min":[
				-112,
				-1.1669526327510397e-14,
				-56
			],
			"type":"VEC3"
		},
		{
			"bufferView":5,
			"componentType":5126,
			"count":76,
			"type":"VEC3"
		},
		{
			"bufferView":6,
			"componentType":5126,
			"count":76,
			"type":"VEC2"
		},
		{
			"bufferView":7,
			"componentType":5123,
			"count":198,
			"type":"SCALAR"
		},
		{
			"bufferView":8,
			"componentType":5126,
			"count":120,
			"max":[
				112,
				44,
				46
			],
			"min":[
				-112,
				0,
				-46
			],
			"type":"VEC3"
		},
		{
			"bufferView":9,
			"componentType":5126,
			"count":120,
			"type":"VEC3"
		},
		{
			"bufferView":10,
			"componentType":5126,
			"count":120,
			"type":"VEC2"
		},
		{
			"bufferView":11,
			"componentType":5123,
			"count":180,
			"type":"SCALAR"
		},
		{
			"bufferView":12,
			"componentType":5126,
			"count":126,
			"max":[
				112,
				44,
				56
			],
			"min":[
				-112,
				-1.1669526327510397e-14,
				-56
			],
			"type":"VEC3"
		},
		{
			"bufferView":13,
			"componentType":5126,
			"count":126,
			"type":"VEC3"
		},
		{
			"bufferView":14,
			"componentType":5126,
			"count":126,
			"type":"VEC2"
		},
		{
			"bufferView":15,
			"componentType":5123,
			"count":300,
			"type":"SCALAR"
		},
		{
			"bufferView":16,
			"componentType":5126,
			"count":60,
			"max":[
				112,
				44,
				16
			],
			"min":[
				-112,
				0,
				-16
			],
			"type":"VEC3"
		},
		{
			"bufferView":17,
			"componentType":5126,
			"count":60,
			"type":"VEC3"
		},
		{
			"bufferView":18,
			"componentType":5126,
			"count":60,
			"type":"VEC2"
		},
		{
			"bufferView":19,
			"componentType":5123,
			"count":90,
			"type":"SCALAR"
		},
		{
			"bufferView":20,
			"componentType":5126,
			"count":16,
			"max":[
				16,
				32,
				52
			],
			"min":[
				-16,
				32,
				-52
			],
			"type":"VEC3"
		},
		{
			"bufferView":21,
			"componentType":5126,
			"count":16,
			"type":"VEC3"
		},
		{
			"bufferView":22,
			"componentType":5126,
			"count":16,
			"type":"VEC2"
		},
		{
			"bufferView":23,
			"componentType":5123,
			"count":24,
			"type":"SCALAR"
		},
		{
			"bufferView":24,
			"componentType":5126,
			"count":16,
			"max":[
				16,
				16,
				56
			],
			"min":[
				-16,
				0,
				-56
			],
			"type":"VEC3"
		},
		{
			"bufferView":25,
			"componentType":5126,
			"count":16,
			"type":"VEC3"
		},
		{
			"bufferView":26,
			"componentType":5126,
			"count":16,
			"type":"VEC2"
		},
		{
			"bufferView":27,
			"componentType":5123,
			"count":24,
			"type":"SCALAR"
		},
		{
			"bufferView":28,
			"componentType":5126,
			"count":20,
			"max":[
				16,
				32,
				56
			],
			"min":[
				-16,
				16,
				-56
			],
			"type":"VEC3"
		},
		{
			"bufferView":29,
			"componentType":5126,
			"count":20,
			"type":"VEC3"
		},
		{
			"bufferView":30,
			"componentType":5126,
			"count":20,
			"type":"VEC2"
		},
		{
			"bufferView":31,
			"componentType":5123,
			"count":36,
			"type":"SCALAR"
		},
		{
			"bufferView":32,
			"componentType":5126,
			"count":8,
			"max":[
				8,
				28,
				52
			],
			"min":[
				-8,
				0,
				-52
			],
			"type":"VEC3"
		},
		{
			"bufferView":33,
			"componentType":5126,
			"count":8,
			"type":"VEC3"
		},
		{
			"bufferView":34,
			"componentType":5126,
			"count":8,
			"type":"VEC2"
		},
		{
			"bufferView":35,
			"componentType":5123,
			"count":12,
			"type":"SCALAR"
		}
	],
	"bufferViews":[
		{
			"buffer":0,
			"byteLength":2928,
			"byteOffset":0,
			"target":34962
		},
		{
			"buffer":0,
			"byteLength":2928,
			"byteOffset":2928,
			"target":34962
		},
		{
			"buffer":0,
			"byteLength":1952,
			"byteOffset":5856,
			"target":34962
		},
		{
			"buffer":0,
			"byteLength":744,
			"byteOffset":7808,
			"target":34963
		},
		{
			"buffer":0,
			"byteLength":912,
			"byteOffset":8552,
			"target":34962
		},
		{
			"buffer":0,
			"byteLength":912,
			"byteOffset":9464,
			"target":34962
		},
		{
			"buffer":0,
			"byteLength":608,
			"byteOffset":10376,
			"target":34962
		},
		{
			"buffer":0,
			"byteLength":396,
			"byteOffset":10984,
			"target":34963
		},
		{
			"buffer":0,
			"byteLength":1440,
			"byteOffset":11380,
			"target":34962
		},
		{
			"buffer":0,
			"byteLength":1440,
			"byteOffset":12820,
			"target":34962
		},
		{
			"buffer":0,
			"byteLength":960,
			"byteOffset":14260,
			"target":34962
		},
		{
			"buffer":0,
			"byteLength":360,
			"byteOffset":15220,
			"target":34963
		},
		{
			"buffer":0,
			"byteLength":1512,
			"byteOffset":15580,
			"target":34962
		},
		{
			"buffer":0,
			"byteLength":1512,
			"byteOffset":17092,
			"target":34962
		},
		{
			"buffer":0,
			"byteLength":1008,
			"byteOffset":18604,
			"target":34962
		},
		{
			"buffer":0,
			"byteLength":600,
			"byteOffset":19612,
			"target":34963
		},
		{
			"buffer":0,
			"byteLength":720,
			"byteOffset":20212,
			"target":34962
		},
		{
			"buffer":0,
			"byteLength":720,
			"byteOffset":20932,
			"target":34962
		},
		{
			"buffer":0,
			"byteLength":480,
			"byteOffset":21652,
			"target":34962
		},
		{
			"buffer":0,
			"byteLength":180,
			"byteOffset":22132,
			"target":34963
		},
		{
			"buffer":0,
			"byteLength":192,
			"byteOffset":22312,
			"target":34962
		},
		{
			"buffer":0,
			"byteLength":192,
			"byteOffset":22504,
			"target":34962
		},
		{
			"buffer":0,
			"byteLength":128,
			"byteOffset":22696,
			"target":34962
		},
		{
			"buffer":0,
			"byteLength":48,
			"byteOffset":22824,
			"target":34963
		},
		{
			"buffer":0,
			"byteLength":192,
			"byteOffset":22872,
			"target":34962
		},
		{
			"buffer":0,
			"byteLength":192,
			"byteOffset":23064,
			"target":34962
		},
		{
			"buffer":0,
			"byteLength":128,
			"byteOffset":23256,
			"target":34962
		},
		{
			"buffer":0,
			"byteLength":48,
			"byteOffset":23384,
			"target":34963
		},
		{
			"buffer":0,
			"byteLength":240,
			"byteOffset":23432,
			"target":34962
		},
		{
			"buffer":0,
			"byteLength":240,
			"byteOffset":23672,
			"target":34962
		},
		{
			"buffer":0,
			"byteLength":160,
			"byteOffset":23912,
			"target":34962
		},
		{
			"buffer":0,
			"byteLength":72,
			"byteOffset":24072,
			"target":34963
		},
		{
			"buffer":0,
			"byteLength":96,
			"byteOffset":24144,
			"target":34962
		},
		{
			"buffer":0,
			"byteLength":96,
			"byteOffset":24240,
			"target":34962
		},
		{
			"buffer":0,
			"byteLength":64,
			"byteOffset":24336,
			"target":34962
		},
		{
			"buffer":0,
			"byteLength":24,
			"byteOffset":24400,
			"target":34963
		}
	],
	"buffers":[
		{
			"byteLength":24424,
			"uri":"nef_ramp1.bin"
		}
	]
}
