{
	"asset":{
		"generator":"Khronos glTF Blender I/O v4.5.48",
		"version":"2.0"
	},
	"scene":0,
	"scenes":[
		{
			"name":"Scene",
			"nodes":[
				0
			]
		}
	],
	"nodes":[
		{
			"mesh":0,
			"name":"Object"
		}
	],
	"materials":[
		{
			"doubleSided":true,
			"name":"BE_THRESH01A",
			"pbrMetallicRoughness":{
				"baseColorFactor":[
					0.800000011920929,
					0.800000011920929,
					0.800000011920929,
					1
				],
				"metallicFactor":0,
				"roughnessFactor":0.5
			}
		},
		{
			"doubleSided":true,
			"name":"BE_ICHUTE01",
			"pbrMetallicRoughness":{
				"baseColorFactor":[
					0.800000011920929,
					0.800000011920929,
					0.800000011920929,
					1
				],
				"metallicFactor":0,
				"roughnessFactor":0.5
			}
		},
		{
			"doubleSided":true,
			"name":"BE_ITELIG01",
			"pbrMetallicRoughness":{
				"baseColorFactor":[
					0.800000011920929,
					0.800000011920929,
					0.800000011920929,
					1
				],
				"metallicFactor":0,
				"roughnessFactor":0.5
			}
		},
		{
			"doubleSided":true,
			"name":"BE_IGENERIC",
			"pbrMetallicRoughness":{
				"baseColorFactor":[
					0.800000011920929,
					0.800000011920929,
					0.800000011920929,
					1
				],
				"metallicFactor":0,
				"roughnessFactor":0.5
			}
		},
		{
			"doubleSided":true,
			"name":"BE_ITEWAL04",
			"pbrMetallicRoughness":{
				"baseColorFactor":[
					0.800000011920929,
					0.800000011920929,
					0.800000011920929,
					1
				],
				"metallicFactor":0,
				"roughnessFactor":0.5
			}
		},
		{
			"doubleSided":true,
			"name":"BE_ICEI03B",
			"pbrMetallicRoughness":{
				"baseColorFactor":[
					0.800000011920929,
					0.800000011920929,
					0.800000011920929,
					1
				],
				"metallicFactor":0,
				"roughnessFactor":0.5
			}
		},
		{
			"doubleSided":true,
			"name":"BE_ICEI02",
			"pbrMetallicRoughness":{
				"baseColorFactor":[
					0.800000011920929,
					0.800000011920929,
					0.800000011920929,
					1
				],
				"metallicFactor":0,
				"roughnessFactor":0.5
			}
		},
		{
			"doubleSided":true,
			"name":"BE_IGENERICDARK",
			"pbrMetallicRoughness":{
				"baseColorFactor":[
					0.800000011920929,
					0.800000011920929,
					0.800000011920929,
					1
				],
				"metallicFactor":0,
				"roughnessFactor":0.5
			}
		}
	],
	"meshes":[
		{
			"name":"Mesh",
			"primitives":[
				{
					"attributes":{
						"POSITION":0,
						"NORMAL":1,
						"TEXCOORD_0":2
					},
					"indices":3,
					"material":0
				},
				{
					"attributes":{
						"POSITION":4,
						"NORMAL":5,
						"TEXCOORD_0":6
					},
					"indices":7,
					"material":1
				},
				{
					"attributes":{
						"POSITION":8,
						"NORMAL":9,
						"TEXCOORD_0":10
					},
					"indices":11,
					"material":2
				},
				{
					"attributes":{
						"POSITION":12,
						"NORMAL":13,
						"TEXCOORD_0":14
					},
					"indices":15,
					"material":3
				},
				{
					"attributes":{
						"POSITION":16,
						"NORMAL":17,
						"TEXCOORD_0":18
					},
					"indices":19,
					"material":4
				},
				{
					"attributes":{
						"POSITION":20,
						"NORMAL":21,
						"TEXCOORD_0":22
					},
					"indices":23,
					"material":5
				},
				{
					"attributes":{
						"POSITION":24,
						"NORMAL":25,
						"TEXCOORD_0":26
					},
					"indices":27,
					"material":6
				},
				{
					"attributes":{
						"POSITION":28,
						"NORMAL":29,
						"TEXCOORD_0":30
					},
					"indices":31,
					"material":7
				}
			]
		}
	],
	"accessors":[
		{
			"bufferView":0,
			"componentType":5126,
			"count":225,
			"max":[
				104,
				48,
				48
			],
			"min":[
				-104,
				0,
				-48
			],
			"type":"VEC3"
		},
		{
			"bufferView":1,
			"componentType":5126,
			"count":225,
			"type":"VEC3"
		},
		{
			"bufferView":2,
			"componentType":5126,
			"count":225,
			"type":"VEC2"
		},
		{
			"bufferView":3,
			"componentType":5123,
			"count":339,
			"type":"SCALAR"
		},
		{
			"bufferView":4,
			"componentType":5126,
			"count":112,
			"max":[
				104,
				48,
				46
			],
			"min":[
				-104,
				0,
				-46
			],
			"type":"VEC3"
		},
		{
			"bufferView":5,
			"componentType":5126,
			"count":112,
			"type":"VEC3"
		},
		{
			"bufferView":6,
			"componentType":5126,
			"count":112,
			"type":"VEC2"
		},
		{
			"bufferView":7,
			"componentType":5123,
			"count":168,
			"type":"SCALAR"
		},
		{
			"bufferView":8,
			"componentType":5126,
			"count":4,
			"max":[
				16,
				0,
				16
			],
			"min":[
				-16,
				0,
				-16
			],
			"type":"VEC3"
		},
		{
			"bufferView":9,
			"componentType":5126,
			"count":4,
			"type":"VEC3"
		},
		{
			"bufferView":10,
			"componentType":5126,
			"count":4,
			"type":"VEC2"
		},
		{
			"bufferView":11,
			"componentType":5123,
			"count":6,
			"type":"SCALAR"
		},
		{
			"bufferView":12,
			"componentType":5126,
			"count":74,
			"max":[
				120,
				48,
				64
			],
			"min":[
				-120,
				-8,
				-64
			],
			"type":"VEC3"
		},
		{
			"bufferView":13,
			"componentType":5126,
			"count":74,
			"type":"VEC3"
		},
		{
			"bufferView":14,
			"componentType":5126,
			"count":74,
			"type":"VEC2"
		},
		{
			"bufferView":15,
			"componentType":5123,
			"count":150,
			"type":"SCALAR"
		},
		{
			"bufferView":16,
			"componentType":5126,
			"count":56,
			"max":[
				104,
				48,
				16
			],
			"min":[
				-104,
				0,
				-16
			],
			"type":"VEC3"
		},
		{
			"bufferView":17,
			"componentType":5126,
			"count":56,
			"type":"VEC3"
		},
		{
			"bufferView":18,
			"componentType":5126,
			"count":56,
			"type":"VEC2"
		},
		{
			"bufferView":19,
			"componentType":5123,
			"count":84,
			"type":"SCALAR"
		},
		{
			"bufferView":20,
			"componentType":5126,
			"count":56,
			"max":[
				104,
				48,
				48
			],
			"min":[
				-104,
				0,
				-48
			],
			"type":"VEC3"
		},
		{
			"bufferView":21,
			"componentType":5126,
			"count":56,
			"type":"VEC3"
		},
		{
			"bufferView":22,
			"componentType":5126,
			"count":56,
			"type":"VEC2"
		},
		{
			"bufferView":23,
			"componentType":5123,
			"count":147,
			"type":"SCALAR"
		},
		{
			"bufferView":24,
			"componentType":5126,
			"count":32,
			"max":[
				120,
				44,
				64
			],
			"min":[
				-120,
				-4,
				-64
			],
			"type":"VEC3"
		},
		{
			"bufferView":25,
			"componentType":5126,
			"count":32,
			"type":"VEC3"
		},
		{
			"bufferView":26,
			"componentType":5126,
			"count":32,
			"type":"VEC2"
		},
		{
			"bufferView":27,
			"componentType":5123,
			"count":48,
			"type":"SCALAR"
		},
		{
			"bufferView":28,
			"componentType":5126,
			"count":16,
			"max":[
				120,
				40,
				64
			],
			"min":[
				-120,
				0,
				-64
			],
			"type":"VEC3"
		},
		{
			"bufferView":29,
			"componentType":5126,
			"count":16,
			"type":"VEC3"
		},
		{
			"bufferView":30,
			"componentType":5126,
			"count":16,
			"type":"VEC2"
		},
		{
			"bufferView":31,
			"componentType":5123,
			"count":24,
			"type":"SCALAR"
		}
	],
	"bufferViews":[
		{
			"buffer":0,
			"byteLength":2700,
			"byteOffset":0,
			"target":34962
		},
		{
			"buffer":0,
			"byteLength":2700,
			"byteOffset":2700,
			"target":34962
		},
		{
			"buffer":0,
			"byteLength":1800,
			"byteOffset":5400,
			"target":34962
		},
		{
			"buffer":0,
			"byteLength":678,
			"byteOffset":7200,
			"target":34963
		},
		{
			"buffer":0,
			"byteLength":1344,
			"byteOffset":7880,
			"target":34962
		},
		{
			"buffer":0,
			"byteLength":1344,
			"byteOffset":9224,
			"target":34962
		},
		{
			"buffer":0,
			"byteLength":896,
			"byteOffset":10568,
			"target":34962
		},
		{
			"buffer":0,
			"byteLength":336,
			"byteOffset":11464,
			"target":34963
		},
		{
			"buffer":0,
			"byteLength":48,
			"byteOffset":11800,
			"target":34962
		},
		{
			"buffer":0,
			"byteLength":48,
			"byteOffset":11848,
			"target":34962
		},
		{
			"buffer":0,
			"byteLength":32,
			"byteOffset":11896,
			"target":34962
		},
		{
			"buffer":0,
			"byteLength":12,
			"byteOffset":11928,
			"target":34963
		},
		{
			"buffer":0,
			"byteLength":888,
			"byteOffset":11940,
			"target":34962
		},
		{
			"buffer":0,
			"byteLength":888,
			"byteOffset":12828,
			"target":34962
		},
		{
			"buffer":0,
			"byteLength":592,
			"byteOffset":13716,
			"target":34962
		},
		{
			"buffer":0,
			"byteLength":300,
			"byteOffset":14308,
			"target":34963
		},
		{
			"buffer":0,
			"byteLength":672,
			"byteOffset":14608,
			"target":34962
		},
		{
			"buffer":0,
			"byteLength":672,
			"byteOffset":15280,
			"target":34962
		},
		{
			"buffer":0,
			"byteLength":448,
			"byteOffset":15952,
			"target":34962
		},
		{
			"buffer":0,
			"byteLength":168,
			"byteOffset":16400,
			"target":34963
		},
		{
			"buffer":0,
			"byteLength":672,
			"byteOffset":16568,
			"target":34962
		},
		{
			"buffer":0,
			"byteLength":672,
			"byteOffset":17240,
			"target":34962
		},
		{
			"buffer":0,
			"byteLength":448,
			"byteOffset":17912,
			"target":34962
		},
		{
			"buffer":0,
			"byteLength":294,
			"byteOffset":18360,
			"target":34963
		},
		{
			"buffer":0,
			"byteLength":384,
			"byteOffset":18656,
			"target":34962
		},
		{
			"buffer":0,
			"byteLength":384,
			"byteOffset":19040,
			"target":34962
		},
		{
			"buffer":0,
			"byteLength":256,
			"byteOffset":19424,
			"target":34962
		},
		{
			"buffer":0,
			"byteLength":96,
			"byteOffset":19680,
			"target":34963
		},
		{
			"buffer":0,
			"byteLength":192,
			"byteOffset":19776,
			"target":34962
		},
		{
			"buffer":0,
			"byteLength":192,
			"byteOffset":19968,
			"target":34962
		},
		{
			"buffer":0,
			"byteLength":128,
			"byteOffset":20160,
			"target":34962
		},
		{
			"buffer":0,
			"byteLength":48,
			"byteOffset":20288,
			"target":34963
		}
	],
	"buffers":[
		{
			"byteLength":20336,
			"uri":"nef_bowl2.bin"
		}
	]
}
