{
	"asset":{
		"generator":"Khronos glTF Blender I/O v4.5.48",
		"version":"2.0"
	},
	"scene":0,
	"scenes":[
		{
			"name":"Scene",
			"nodes":[
				0
			]
		}
	],
	"nodes":[
		{
			"mesh":0,
			"name":"Object"
		}
	],
	"materials":[
		{
			"doubleSided":true,
			"name":"BE_IGENERIC",
			"pbrMetallicRoughness":{
				"baseColorFactor":[
					0.800000011920929,
					0.800000011920929,
					0.800000011920929,
					1
				],
				"metallicFactor":0,
				"roughnessFactor":0.5
			}
		},
		{
			"doubleSided":true,
			"name":"BE_IGENERICDARK",
			"pbrMetallicRoughness":{
				"baseColorFactor":[
					0.800000011920929,
					0.800000011920929,
					0.800000011920929,
					1
				],
				"metallicFactor":0,
				"roughnessFactor":0.5
			}
		},
		{
			"doubleSided":true,
			"name":"BE_ICEI02",
			"pbrMetallicRoughness":{
				"baseColorFactor":[
					0.800000011920929,
					0.800000011920929,
					0.800000011920929,
					1
				],
				"metallicFactor":0,
				"roughnessFactor":0.5
			}
		},
		{
			"doubleSided":true,
			"name":"BE_ICEI01C",
			"pbrMetallicRoughness":{
				"baseColorFactor":[
					0.800000011920929,
					0.800000011920929,
					0.800000011920929,
					1
				],
				"metallicFactor":0,
				"roughnessFactor":0.5
			}
		},
		{
			"doubleSided":true,
			"name":"BE_ICEI03B",
			"pbrMetallicRoughness":{
				"baseColorFactor":[
					0.800000011920929,
					0.800000011920929,
					0.800000011920929,
					1
				],
				"metallicFactor":0,
				"roughnessFactor":0.5
			}
		},
		{
			"doubleSided":true,
			"name":"BE_THRESH01A",
			"pbrMetallicRoughness":{
				"baseColorFactor":[
					0.800000011920929,
					0.800000011920929,
					0.800000011920929,
					1
				],
				"metallicFactor":0,
				"roughnessFactor":0.5
			}
		},
		{
			"doubleSided":true,
			"name":"BE_ICHUTE01",
			"pbrMetallicRoughness":{
				"baseColorFactor":[
					0.800000011920929,
					0.800000011920929,
					0.800000011920929,
					1
				],
				"metallicFactor":0,
				"roughnessFactor":0.5
			}
		},
		{
			"doubleSided":true,
			"name":"BE_ICOLIG01",
			"pbrMetallicRoughness":{
				"baseColorFactor":[
					0.800000011920929,
					0.800000011920929,
					0.800000011920929,
					1
				],
				"metallicFactor":0,
				"roughnessFactor":0.5
			}
		},
		{
			"doubleSided":true,
			"name":"BE_EWAL01B",
			"pbrMetallicRoughness":{
				"baseColorFactor":[
					0.800000011920929,
					0.800000011920929,
					0.800000011920929,
					1
				],
				"metallicFactor":0,
				"roughnessFactor":0.5
			}
		},
		{
			"doubleSided":true,
			"name":"BE_IHALIG",
			"pbrMetallicRoughness":{
				"baseColorFactor":[
					0.800000011920929,
					0.800000011920929,
					0.800000011920929,
					1
				],
				"metallicFactor":0,
				"roughnessFactor":0.5
			}
		},
		{
			"doubleSided":true,
			"name":"BE_ELIG03",
			"pbrMetallicRoughness":{
				"baseColorFactor":[
					0.800000011920929,
					0.800000011920929,
					0.800000011920929,
					1
				],
				"metallicFactor":0,
				"roughnessFactor":0.5
			}
		},
		{
			"doubleSided":true,
			"name":"BE_ITELIG01",
			"pbrMetallicRoughness":{
				"baseColorFactor":[
					0.800000011920929,
					0.800000011920929,
					0.800000011920929,
					1
				],
				"metallicFactor":0,
				"roughnessFactor":0.5
			}
		}
	],
	"meshes":[
		{
			"name":"Mesh",
			"primitives":[
				{
					"attributes":{
						"POSITION":0,
						"NORMAL":1,
						"TEXCOORD_0":2
					},
					"indices":3,
					"material":0
				},
				{
					"attributes":{
						"POSITION":4,
						"NORMAL":5,
						"TEXCOORD_0":6
					},
					"indices":7,
					"material":1
				},
				{
					"attributes":{
						"POSITION":8,
						"NORMAL":9,
						"TEXCOORD_0":10
					},
					"indices":11,
					"material":2
				},
				{
					"attributes":{
						"POSITION":12,
						"NORMAL":13,
						"TEXCOORD_0":14
					},
					"indices":15,
					"material":3
				},
				{
					"attributes":{
						"POSITION":16,
						"NORMAL":17,
						"TEXCOORD_0":18
					},
					"indices":19,
					"material":4
				},
				{
					"attributes":{
						"POSITION":20,
						"NORMAL":21,
						"TEXCOORD_0":22
					},
					"indices":23,
					"material":5
				},
				{
					"attributes":{
						"POSITION":24,
						"NORMAL":25,
						"TEXCOORD_0":26
					},
					"indices":27,
					"material":6
				},
				{
					"attributes":{
						"POSITION":28,
						"NORMAL":29,
						"TEXCOORD_0":30
					},
					"indices":31,
					"material":7
				},
				{
					"attributes":{
						"POSITION":32,
						"NORMAL":33,
						"TEXCOORD_0":34
					},
					"indices":35,
					"material":8
				},
				{
					"attributes":{
						"POSITION":36,
						"NORMAL":37,
						"TEXCOORD_0":38
					},
					"indices":39,
					"material":9
				},
				{
					"attributes":{
						"POSITION":40,
						"NORMAL":41,
						"TEXCOORD_0":42
					},
					"indices":43,
					"material":10
				},
				{
					"attributes":{
						"POSITION":44,
						"NORMAL":45,
						"TEXCOORD_0":46
					},
					"indices":47,
					"material":11
				}
			]
		}
	],
	"accessors":[
		{
			"bufferView":0,
			"componentType":5126,
			"count":334,
			"max":[
				152,
				48,
				152
			],
			"min":[
				-152,
				-8,
				-152
			],
			"type":"VEC3"
		},
		{
			"bufferView":1,
			"componentType":5126,
			"count":334,
			"type":"VEC3"
		},
		{
			"bufferView":2,
			"componentType":5126,
			"count":334,
			"type":"VEC2"
		},
		{
			"bufferView":3,
			"componentType":5123,
			"count":639,
			"type":"SCALAR"
		},
		{
			"bufferView":4,
			"componentType":5126,
			"count":104,
			"max":[
				152,
				40,
				152
			],
			"min":[
				-152,
				0,
				-152
			],
			"type":"VEC3"
		},
		{
			"bufferView":5,
			"componentType":5126,
			"count":104,
			"type":"VEC3"
		},
		{
			"bufferView":6,
			"componentType":5126,
			"count":104,
			"type":"VEC2"
		},
		{
			"bufferView":7,
			"componentType":5123,
			"count":192,
			"type":"SCALAR"
		},
		{
			"bufferView":8,
			"componentType":5126,
			"count":208,
			"max":[
				152,
				44,
				152
			],
			"min":[
				-152,
				-4,
				-152
			],
			"type":"VEC3"
		},
		{
			"bufferView":9,
			"componentType":5126,
			"count":208,
			"type":"VEC3"
		},
		{
			"bufferView":10,
			"componentType":5126,
			"count":208,
			"type":"VEC2"
		},
		{
			"bufferView":11,
			"componentType":5123,
			"count":312,
			"type":"SCALAR"
		},
		{
			"bufferView":12,
			"componentType":5126,
			"count":172,
			"max":[
				144,
				48,
				144
			],
			"min":[
				-144,
				0,
				-144
			],
			"type":"VEC3"
		},
		{
			"bufferView":13,
			"componentType":5126,
			"count":172,
			"type":"VEC3"
		},
		{
			"bufferView":14,
			"componentType":5126,
			"count":172,
			"type":"VEC2"
		},
		{
			"bufferView":15,
			"componentType":5123,
			"count":312,
			"type":"SCALAR"
		},
		{
			"bufferView":16,
			"componentType":5126,
			"count":476,
			"max":[
				144,
				48,
				144
			],
			"min":[
				-144,
				24,
				-144
			],
			"type":"VEC3"
		},
		{
			"bufferView":17,
			"componentType":5126,
			"count":476,
			"type":"VEC3"
		},
		{
			"bufferView":18,
			"componentType":5126,
			"count":476,
			"type":"VEC2"
		},
		{
			"bufferView":19,
			"componentType":5123,
			"count":1308,
			"type":"SCALAR"
		},
		{
			"bufferView":20,
			"componentType":5126,
			"count":457,
			"max":[
				136,
				48,
				136
			],
			"min":[
				-136,
				0,
				-136
			],
			"type":"VEC3"
		},
		{
			"bufferView":21,
			"componentType":5126,
			"count":457,
			"type":"VEC3"
		},
		{
			"bufferView":22,
			"componentType":5126,
			"count":457,
			"type":"VEC2"
		},
		{
			"bufferView":23,
			"componentType":5123,
			"count":699,
			"type":"SCALAR"
		},
		{
			"bufferView":24,
			"componentType":5126,
			"count":224,
			"max":[
				136,
				48,
				136
			],
			"min":[
				-136,
				0,
				-136
			],
			"type":"VEC3"
		},
		{
			"bufferView":25,
			"componentType":5126,
			"count":224,
			"type":"VEC3"
		},
		{
			"bufferView":26,
			"componentType":5126,
			"count":224,
			"type":"VEC2"
		},
		{
			"bufferView":27,
			"componentType":5123,
			"count":336,
			"type":"SCALAR"
		},
		{
			"bufferView":28,
			"componentType":5126,
			"count":432,
			"max":[
				51,
				28,
				51
			],
			"min":[
				-51,
				24,
				-51
			],
			"type":"VEC3"
		},
		{
			"bufferView":29,
			"componentType":5126,
			"count":432,
			"type":"VEC3"
		},
		{
			"bufferView":30,
			"componentType":5126,
			"count":432,
			"type":"VEC2"
		},
		{
			"bufferView":31,
			"componentType":5123,
			"count":720,
			"type":"SCALAR"
		},
		{
			"bufferView":32,
			"componentType":5126,
			"count":332,
			"max":[
				136,
				48,
				136
			],
			"min":[
				-136,
				0,
				-136
			],
			"type":"VEC3"
		},
		{
			"bufferView":33,
			"componentType":5126,
			"count":332,
			"type":"VEC3"
		},
		{
			"bufferView":34,
			"componentType":5126,
			"count":332,
			"type":"VEC2"
		},
		{
			"bufferView":35,
			"componentType":5123,
			"count":720,
			"type":"SCALAR"
		},
		{
			"bufferView":36,
			"componentType":5126,
			"count":32,
			"max":[
				88,
				40,
				88
			],
			"min":[
				-88,
				32,
				-88
			],
			"type":"VEC3"
		},
		{
			"bufferView":37,
			"componentType":5126,
			"count":32,
			"type":"VEC3"
		},
		{
			"bufferView":38,
			"componentType":5126,
			"count":32,
			"type":"VEC2"
		},
		{
			"bufferView":39,
			"componentType":5123,
			"count":48,
			"type":"SCALAR"
		},
		{
			"bufferView":40,
			"componentType":5126,
			"count":16,
			"max":[
				16,
				0,
				16
			],
			"min":[
				-16,
				-0.5,
				-16
			],
			"type":"VEC3"
		},
		{
			"bufferView":41,
			"componentType":5126,
			"count":16,
			"type":"VEC3"
		},
		{
			"bufferView":42,
			"componentType":5126,
			"count":16,
			"type":"VEC2"
		},
		{
			"bufferView":43,
			"componentType":5123,
			"count":24,
			"type":"SCALAR"
		},
		{
			"bufferView":44,
			"componentType":5126,
			"count":4,
			"max":[
				16,
				-0.5,
				16
			],
			"min":[
				-16,
				-0.5,
				-16
			],
			"type":"VEC3"
		},
		{
			"bufferView":45,
			"componentType":5126,
			"count":4,
			"type":"VEC3"
		},
		{
			"bufferView":46,
			"componentType":5126,
			"count":4,
			"type":"VEC2"
		},
		{
			"bufferView":47,
			"componentType":5123,
			"count":6,
			"type":"SCALAR"
		}
	],
	"bufferViews":[
		{
			"buffer":0,
			"byteLength":4008,
			"byteOffset":0,
			"target":34962
		},
		{
			"buffer":0,
			"byteLength":4008,
			"byteOffset":4008,
			"target":34962
		},
		{
			"buffer":0,
			"byteLength":2672,
			"byteOffset":8016,
			"target":34962
		},
		{
			"buffer":0,
			"byteLength":1278,
			"byteOffset":10688,
			"target":34963
		},
		{
			"buffer":0,
			"byteLength":1248,
			"byteOffset":11968,
			"target":34962
		},
		{
			"buffer":0,
			"byteLength":1248,
			"byteOffset":13216,
			"target":34962
		},
		{
			"buffer":0,
			"byteLength":832,
			"byteOffset":14464,
			"target":34962
		},
		{
			"buffer":0,
			"byteLength":384,
			"byteOffset":15296,
			"target":34963
		},
		{
			"buffer":0,
			"byteLength":2496,
			"byteOffset":15680,
			"target":34962
		},
		{
			"buffer":0,
			"byteLength":2496,
			"byteOffset":18176,
			"target":34962
		},
		{
			"buffer":0,
			"byteLength":1664,
			"byteOffset":20672,
			"target":34962
		},
		{
			"buffer":0,
			"byteLength":624,
			"byteOffset":22336,
			"target":34963
		},
		{
			"buffer":0,
			"byteLength":2064,
			"byteOffset":22960,
			"target":34962
		},
		{
			"buffer":0,
			"byteLength":2064,
			"byteOffset":25024,
			"target":34962
		},
		{
			"buffer":0,
			"byteLength":1376,
			"byteOffset":27088,
			"target":34962
		},
		{
			"buffer":0,
			"byteLength":624,
			"byteOffset":28464,
			"target":34963
		},
		{
			"buffer":0,
			"byteLength":5712,
			"byteOffset":29088,
			"target":34962
		},
		{
			"buffer":0,
			"byteLength":5712,
			"byteOffset":34800,
			"target":34962
		},
		{
			"buffer":0,
			"byteLength":3808,
			"byteOffset":40512,
			"target":34962
		},
		{
			"buffer":0,
			"byteLength":2616,
			"byteOffset":44320,
			"target":34963
		},
		{
			"buffer":0,
			"byteLength":5484,
			"byteOffset":46936,
			"target":34962
		},
		{
			"buffer":0,
			"byteLength":5484,
			"byteOffset":52420,
			"target":34962
		},
		{
			"buffer":0,
			"byteLength":3656,
			"byteOffset":57904,
			"target":34962
		},
		{
			"buffer":0,
			"byteLength":1398,
			"byteOffset":61560,
			"target":34963
		},
		{
			"buffer":0,
			"byteLength":2688,
			"byteOffset":62960,
			"target":34962
		},
		{
			"buffer":0,
			"byteLength":2688,
			"byteOffset":65648,
			"target":34962
		},
		{
			"buffer":0,
			"byteLength":1792,
			"byteOffset":68336,
			"target":34962
		},
		{
			"buffer":0,
			"byteLength":672,
			"byteOffset":70128,
			"target":34963
		},
		{
			"buffer":0,
			"byteLength":5184,
			"byteOffset":70800,
			"target":34962
		},
		{
			"buffer":0,
			"byteLength":5184,
			"byteOffset":75984,
			"target":34962
		},
		{
			"buffer":0,
			"byteLength":3456,
			"byteOffset":81168,
			"target":34962
		},
		{
			"buffer":0,
			"byteLength":1440,
			"byteOffset":84624,
			"target":34963
		},
		{
			"buffer":0,
			"byteLength":3984,
			"byteOffset":86064,
			"target":34962
		},
		{
			"buffer":0,
			"byteLength":3984,
			"byteOffset":90048,
			"target":34962
		},
		{
			"buffer":0,
			"byteLength":2656,
			"byteOffset":94032,
			"target":34962
		},
		{
			"buffer":0,
			"byteLength":1440,
			"byteOffset":96688,
			"target":34963
		},
		{
			"buffer":0,
			"byteLength":384,
			"byteOffset":98128,
			"target":34962
		},
		{
			"buffer":0,
			"byteLength":384,
			"byteOffset":98512,
			"target":34962
		},
		{
			"buffer":0,
			"byteLength":256,
			"byteOffset":98896,
			"target":34962
		},
		{
			"buffer":0,
			"byteLength":96,
			"byteOffset":99152,
			"target":34963
		},
		{
			"buffer":0,
			"byteLength":192,
			"byteOffset":99248,
			"target":34962
		},
		{
			"buffer":0,
			"byteLength":192,
			"byteOffset":99440,
			"target":34962
		},
		{
			"buffer":0,
			"byteLength":128,
			"byteOffset":99632,
			"target":34962
		},
		{
			"buffer":0,
			"byteLength":48,
			"byteOffset":99760,
			"target":34963
		},
		{
			"buffer":0,
			"byteLength":48,
			"byteOffset":99808,
			"target":34962
		},
		{
			"buffer":0,
			"byteLength":48,
			"byteOffset":99856,
			"target":34962
		},
		{
			"buffer":0,
			"byteLength":32,
			"byteOffset":99904,
			"target":34962
		},
		{
			"buffer":0,
			"byteLength":12,
			"byteOffset":99936,
			"target":34963
		}
	],
	"buffers":[
		{
			"byteLength":99948,
			"uri":"nef_bowl3.bin"
		}
	]
}
