{
	"asset":{
		"generator":"Khronos glTF Blender I/O v4.5.48",
		"version":"2.0"
	},
	"scene":0,
	"scenes":[
		{
			"name":"Scene",
			"nodes":[
				0
			]
		}
	],
	"nodes":[
		{
			"mesh":0,
			"name":"Object"
		}
	],
	"materials":[
		{
			"doubleSided":true,
			"name":"DS_GENWALL",
			"pbrMetallicRoughness":{
				"baseColorFactor":[
					0.800000011920929,
					0.800000011920929,
					0.800000011920929,
					1
				],
				"metallicFactor":0,
				"roughnessFactor":0.5
			}
		},
		{
			"doubleSided":true,
			"name":"DS_EWALL06",
			"pbrMetallicRoughness":{
				"baseColorFactor":[
					0.800000011920929,
					0.800000011920929,
					0.800000011920929,
					1
				],
				"metallicFactor":0,
				"roughnessFactor":0.5
			}
		},
		{
			"doubleSided":true,
			"name":"DS_ELIG03",
			"pbrMetallicRoughness":{
				"baseColorFactor":[
					0.800000011920929,
					0.800000011920929,
					0.800000011920929,
					1
				],
				"metallicFactor":0,
				"roughnessFactor":0.5
			}
		},
		{
			"doubleSided":true,
			"name":"DS_IWAL01A",
			"pbrMetallicRoughness":{
				"baseColorFactor":[
					0.800000011920929,
					0.800000011920929,
					0.800000011920929,
					1
				],
				"metallicFactor":0,
				"roughnessFactor":0.5
			}
		},
		{
			"doubleSided":true,
			"name":"DS_IWALDECO06",
			"pbrMetallicRoughness":{
				"baseColorFactor":[
					0.800000011920929,
					0.800000011920929,
					0.800000011920929,
					1
				],
				"metallicFactor":0,
				"roughnessFactor":0.5
			}
		}
	],
	"meshes":[
		{
			"name":"Mesh",
			"primitives":[
				{
					"attributes":{
						"POSITION":0,
						"NORMAL":1,
						"TEXCOORD_0":2
					},
					"indices":3,
					"material":0
				},
				{
					"attributes":{
						"POSITION":4,
						"NORMAL":5,
						"TEXCOORD_0":6
					},
					"indices":7,
					"material":1
				},
				{
					"attributes":{
						"POSITION":8,
						"NORMAL":9,
						"TEXCOORD_0":10
					},
					"indices":11,
					"material":2
				},
				{
					"attributes":{
						"POSITION":12,
						"NORMAL":13,
						"TEXCOORD_0":14
					},
					"indices":15,
					"material":3
				},
				{
					"attributes":{
						"POSITION":16,
						"NORMAL":17,
						"TEXCOORD_0":18
					},
					"indices":19,
					"material":4
				}
			]
		}
	],
	"accessors":[
		{
			"bufferView":0,
			"componentType":5126,
			"count":56,
			"max":[
				9,
				-0.25,
				9
			],
			"min":[
				-9,
				-0.5,
				-9
			],
			"type":"VEC3"
		},
		{
			"bufferView":1,
			"componentType":5126,
			"count":56,
			"type":"VEC3"
		},
		{
			"bufferView":2,
			"componentType":5126,
			"count":56,
			"type":"VEC2"
		},
		{
			"bufferView":3,
			"componentType":5123,
			"count":114,
			"type":"SCALAR"
		},
		{
			"bufferView":4,
			"componentType":5126,
			"count":116,
			"max":[
				10,
				0,
				10
			],
			"min":[
				-10,
				-3,
				-10
			],
			"type":"VEC3"
		},
		{
			"bufferView":5,
			"componentType":5126,
			"count":116,
			"type":"VEC3"
		},
		{
			"bufferView":6,
			"componentType":5126,
			"count":116,
			"type":"VEC2"
		},
		{
			"bufferView":7,
			"componentType":5123,
			"count":192,
			"type":"SCALAR"
		},
		{
			"bufferView":8,
			"componentType":5126,
			"count":64,
			"max":[
				9.5,
				0,
				9.5
			],
			"min":[
				-9.5,
				-3.5,
				-9.5
			],
			"type":"VEC3"
		},
		{
			"bufferView":9,
			"componentType":5126,
			"count":64,
			"type":"VEC3"
		},
		{
			"bufferView":10,
			"componentType":5126,
			"count":64,
			"type":"VEC2"
		},
		{
			"bufferView":11,
			"componentType":5123,
			"count":96,
			"type":"SCALAR"
		},
		{
			"bufferView":12,
			"componentType":5126,
			"count":72,
			"max":[
				10,
				-3.5,
				10
			],
			"min":[
				-10,
				-24,
				-10
			],
			"type":"VEC3"
		},
		{
			"bufferView":13,
			"componentType":5126,
			"count":72,
			"type":"VEC3"
		},
		{
			"bufferView":14,
			"componentType":5126,
			"count":72,
			"type":"VEC2"
		},
		{
			"bufferView":15,
			"componentType":5123,
			"count":120,
			"type":"SCALAR"
		},
		{
			"bufferView":16,
			"componentType":5126,
			"count":16,
			"max":[
				10,
				-4,
				10
			],
			"min":[
				-10,
				-12,
				-10
			],
			"type":"VEC3"
		},
		{
			"bufferView":17,
			"componentType":5126,
			"count":16,
			"type":"VEC3"
		},
		{
			"bufferView":18,
			"componentType":5126,
			"count":16,
			"type":"VEC2"
		},
		{
			"bufferView":19,
			"componentType":5123,
			"count":24,
			"type":"SCALAR"
		}
	],
	"bufferViews":[
		{
			"buffer":0,
			"byteLength":672,
			"byteOffset":0,
			"target":34962
		},
		{
			"buffer":0,
			"byteLength":672,
			"byteOffset":672,
			"target":34962
		},
		{
			"buffer":0,
			"byteLength":448,
			"byteOffset":1344,
			"target":34962
		},
		{
			"buffer":0,
			"byteLength":228,
			"byteOffset":1792,
			"target":34963
		},
		{
			"buffer":0,
			"byteLength":1392,
			"byteOffset":2020,
			"target":34962
		},
		{
			"buffer":0,
			"byteLength":1392,
			"byteOffset":3412,
			"target":34962
		},
		{
			"buffer":0,
			"byteLength":928,
			"byteOffset":4804,
			"target":34962
		},
		{
			"buffer":0,
			"byteLength":384,
			"byteOffset":5732,
			"target":34963
		},
		{
			"buffer":0,
			"byteLength":768,
			"byteOffset":6116,
			"target":34962
		},
		{
			"buffer":0,
			"byteLength":768,
			"byteOffset":6884,
			"target":34962
		},
		{
			"buffer":0,
			"byteLength":512,
			"byteOffset":7652,
			"target":34962
		},
		{
			"buffer":0,
			"byteLength":192,
			"byteOffset":8164,
			"target":34963
		},
		{
			"buffer":0,
			"byteLength":864,
			"byteOffset":8356,
			"target":34962
		},
		{
			"buffer":0,
			"byteLength":864,
			"byteOffset":9220,
			"target":34962
		},
		{
			"buffer":0,
			"byteLength":576,
			"byteOffset":10084,
			"target":34962
		},
		{
			"buffer":0,
			"byteLength":240,
			"byteOffset":10660,
			"target":34963
		},
		{
			"buffer":0,
			"byteLength":192,
			"byteOffset":10900,
			"target":34962
		},
		{
			"buffer":0,
			"byteLength":192,
			"byteOffset":11092,
			"target":34962
		},
		{
			"buffer":0,
			"byteLength":128,
			"byteOffset":11284,
			"target":34962
		},
		{
			"buffer":0,
			"byteLength":48,
			"byteOffset":11412,
			"target":34963
		}
	],
	"buffers":[
		{
			"byteLength":11460,
			"uri":"anthem_pitstand.bin"
		}
	]
}
