{
	"asset":{
		"generator":"Khronos glTF Blender I/O v4.5.48",
		"version":"2.0"
	},
	"scene":0,
	"scenes":[
		{
			"name":"Scene",
			"nodes":[
				0
			]
		}
	],
	"nodes":[
		{
			"mesh":0,
			"name":"Object"
		}
	],
	"materials":[
		{
			"doubleSided":true,
			"name":"DS_GENFLOOR",
			"pbrMetallicRoughness":{
				"baseColorFactor":[
					0.800000011920929,
					0.800000011920929,
					0.800000011920929,
					1
				],
				"metallicFactor":0,
				"roughnessFactor":0.5
			}
		},
		{
			"doubleSided":true,
			"name":"DS_EWALL06",
			"pbrMetallicRoughness":{
				"baseColorFactor":[
					0.800000011920929,
					0.800000011920929,
					0.800000011920929,
					1
				],
				"metallicFactor":0,
				"roughnessFactor":0.5
			}
		},
		{
			"doubleSided":true,
			"name":"DS_IFLO01",
			"pbrMetallicRoughness":{
				"baseColorFactor":[
					0.800000011920929,
					0.800000011920929,
					0.800000011920929,
					1
				],
				"metallicFactor":0,
				"roughnessFactor":0.5
			}
		},
		{
			"doubleSided":true,
			"name":"DS_ELIG03",
			"pbrMetallicRoughness":{
				"baseColorFactor":[
					0.800000011920929,
					0.800000011920929,
					0.800000011920929,
					1
				],
				"metallicFactor":0,
				"roughnessFactor":0.5
			}
		},
		{
			"doubleSided":true,
			"name":"DS_EWALL07",
			"pbrMetallicRoughness":{
				"baseColorFactor":[
					0.800000011920929,
					0.800000011920929,
					0.800000011920929,
					1
				],
				"metallicFactor":0,
				"roughnessFactor":0.5
			}
		},
		{
			"doubleSided":true,
			"name":"DS_IWAL01A",
			"pbrMetallicRoughness":{
				"baseColorFactor":[
					0.800000011920929,
					0.800000011920929,
					0.800000011920929,
					1
				],
				"metallicFactor":0,
				"roughnessFactor":0.5
			}
		},
		{
			"doubleSided":true,
			"name":"DS_ILIG06",
			"pbrMetallicRoughness":{
				"baseColorFactor":[
					0.800000011920929,
					0.800000011920929,
					0.800000011920929,
					1
				],
				"metallicFactor":0,
				"roughnessFactor":0.5
			}
		}
	],
	"meshes":[
		{
			"name":"Mesh",
			"primitives":[
				{
					"attributes":{
						"POSITION":0,
						"NORMAL":1,
						"TEXCOORD_0":2
					},
					"indices":3,
					"material":0
				},
				{
					"attributes":{
						"POSITION":4,
						"NORMAL":5,
						"TEXCOORD_0":6
					},
					"indices":7,
					"material":1
				},
				{
					"attributes":{
						"POSITION":8,
						"NORMAL":9,
						"TEXCOORD_0":10
					},
					"indices":11,
					"material":2
				},
				{
					"attributes":{
						"POSITION":12,
						"NORMAL":13,
						"TEXCOORD_0":14
					},
					"indices":15,
					"material":3
				},
				{
					"attributes":{
						"POSITION":16,
						"NORMAL":17,
						"TEXCOORD_0":18
					},
					"indices":19,
					"material":4
				},
				{
					"attributes":{
						"POSITION":20,
						"NORMAL":21,
						"TEXCOORD_0":22
					},
					"indices":23,
					"material":5
				},
				{
					"attributes":{
						"POSITION":24,
						"NORMAL":25,
						"TEXCOORD_0":26
					},
					"indices":27,
					"material":6
				}
			]
		}
	],
	"accessors":[
		{
			"bufferView":0,
			"componentType":5126,
			"count":1362,
			"max":[
				24,
				-7.5,
				26
			],
			"min":[
				-24,
				-56.5,
				-26
			],
			"type":"VEC3"
		},
		{
			"bufferView":1,
			"componentType":5126,
			"count":1362,
			"type":"VEC3"
		},
		{
			"bufferView":2,
			"componentType":5126,
			"count":1362,
			"type":"VEC2"
		},
		{
			"bufferView":3,
			"componentType":5123,
			"count":3216,
			"type":"SCALAR"
		},
		{
			"bufferView":4,
			"componentType":5126,
			"count":304,
			"max":[
				26,
				-5.5,
				58
			],
			"min":[
				-26,
				-58,
				-58
			],
			"type":"VEC3"
		},
		{
			"bufferView":5,
			"componentType":5126,
			"count":304,
			"type":"VEC3"
		},
		{
			"bufferView":6,
			"componentType":5126,
			"count":304,
			"type":"VEC2"
		},
		{
			"bufferView":7,
			"componentType":5123,
			"count":702,
			"type":"SCALAR"
		},
		{
			"bufferView":8,
			"componentType":5126,
			"count":135,
			"max":[
				26,
				-20,
				58
			],
			"min":[
				-26,
				-56,
				-58
			],
			"type":"VEC3"
		},
		{
			"bufferView":9,
			"componentType":5126,
			"count":135,
			"type":"VEC3"
		},
		{
			"bufferView":10,
			"componentType":5126,
			"count":135,
			"type":"VEC2"
		},
		{
			"bufferView":11,
			"componentType":5123,
			"count":426,
			"type":"SCALAR"
		},
		{
			"bufferView":12,
			"componentType":5126,
			"count":216,
			"max":[
				25.5,
				-20.75,
				25.5
			],
			"min":[
				-25.5,
				-58.5,
				-25.5
			],
			"type":"VEC3"
		},
		{
			"bufferView":13,
			"componentType":5126,
			"count":216,
			"type":"VEC3"
		},
		{
			"bufferView":14,
			"componentType":5126,
			"count":216,
			"type":"VEC2"
		},
		{
			"bufferView":15,
			"componentType":5123,
			"count":372,
			"type":"SCALAR"
		},
		{
			"bufferView":16,
			"componentType":5126,
			"count":46,
			"max":[
				22,
				-26,
				22
			],
			"min":[
				-22,
				-40,
				-22
			],
			"type":"VEC3"
		},
		{
			"bufferView":17,
			"componentType":5126,
			"count":46,
			"type":"VEC3"
		},
		{
			"bufferView":18,
			"componentType":5126,
			"count":46,
			"type":"VEC2"
		},
		{
			"bufferView":19,
			"componentType":5123,
			"count":96,
			"type":"SCALAR"
		},
		{
			"bufferView":20,
			"componentType":5126,
			"count":72,
			"max":[
				26,
				-57.5,
				58
			],
			"min":[
				-26,
				-91,
				-58
			],
			"type":"VEC3"
		},
		{
			"bufferView":21,
			"componentType":5126,
			"count":72,
			"type":"VEC3"
		},
		{
			"bufferView":22,
			"componentType":5126,
			"count":72,
			"type":"VEC2"
		},
		{
			"bufferView":23,
			"componentType":5123,
			"count":108,
			"type":"SCALAR"
		},
		{
			"bufferView":24,
			"componentType":5126,
			"count":28,
			"max":[
				16.75,
				-7.75,
				16.75
			],
			"min":[
				-16.78125,
				-42.25,
				-16.78125
			],
			"type":"VEC3"
		},
		{
			"bufferView":25,
			"componentType":5126,
			"count":28,
			"type":"VEC3"
		},
		{
			"bufferView":26,
			"componentType":5126,
			"count":28,
			"type":"VEC2"
		},
		{
			"bufferView":27,
			"componentType":5123,
			"count":42,
			"type":"SCALAR"
		}
	],
	"bufferViews":[
		{
			"buffer":0,
			"byteLength":16344,
			"byteOffset":0,
			"target":34962
		},
		{
			"buffer":0,
			"byteLength":16344,
			"byteOffset":16344,
			"target":34962
		},
		{
			"buffer":0,
			"byteLength":10896,
			"byteOffset":32688,
			"target":34962
		},
		{
			"buffer":0,
			"byteLength":6432,
			"byteOffset":43584,
			"target":34963
		},
		{
			"buffer":0,
			"byteLength":3648,
			"byteOffset":50016,
			"target":34962
		},
		{
			"buffer":0,
			"byteLength":3648,
			"byteOffset":53664,
			"target":34962
		},
		{
			"buffer":0,
			"byteLength":2432,
			"byteOffset":57312,
			"target":34962
		},
		{
			"buffer":0,
			"byteLength":1404,
			"byteOffset":59744,
			"target":34963
		},
		{
			"buffer":0,
			"byteLength":1620,
			"byteOffset":61148,
			"target":34962
		},
		{
			"buffer":0,
			"byteLength":1620,
			"byteOffset":62768,
			"target":34962
		},
		{
			"buffer":0,
			"byteLength":1080,
			"byteOffset":64388,
			"target":34962
		},
		{
			"buffer":0,
			"byteLength":852,
			"byteOffset":65468,
			"target":34963
		},
		{
			"buffer":0,
			"byteLength":2592,
			"byteOffset":66320,
			"target":34962
		},
		{
			"buffer":0,
			"byteLength":2592,
			"byteOffset":68912,
			"target":34962
		},
		{
			"buffer":0,
			"byteLength":1728,
			"byteOffset":71504,
			"target":34962
		},
		{
			"buffer":0,
			"byteLength":744,
			"byteOffset":73232,
			"target":34963
		},
		{
			"buffer":0,
			"byteLength":552,
			"byteOffset":73976,
			"target":34962
		},
		{
			"buffer":0,
			"byteLength":552,
			"byteOffset":74528,
			"target":34962
		},
		{
			"buffer":0,
			"byteLength":368,
			"byteOffset":75080,
			"target":34962
		},
		{
			"buffer":0,
			"byteLength":192,
			"byteOffset":75448,
			"target":34963
		},
		{
			"buffer":0,
			"byteLength":864,
			"byteOffset":75640,
			"target":34962
		},
		{
			"buffer":0,
			"byteLength":864,
			"byteOffset":76504,
			"target":34962
		},
		{
			"buffer":0,
			"byteLength":576,
			"byteOffset":77368,
			"target":34962
		},
		{
			"buffer":0,
			"byteLength":216,
			"byteOffset":77944,
			"target":34963
		},
		{
			"buffer":0,
			"byteLength":336,
			"byteOffset":78160,
			"target":34962
		},
		{
			"buffer":0,
			"byteLength":336,
			"byteOffset":78496,
			"target":34962
		},
		{
			"buffer":0,
			"byteLength":224,
			"byteOffset":78832,
			"target":34962
		},
		{
			"buffer":0,
			"byteLength":84,
			"byteOffset":79056,
			"target":34963
		}
	],
	"buffers":[
		{
			"byteLength":79140,
			"uri":"anthem_pitbase.bin"
		}
	]
}
