{
	"asset":{
		"generator":"Khronos glTF Blender I/O v4.5.48",
		"version":"2.0"
	},
	"scene":0,
	"scenes":[
		{
			"name":"Scene",
			"nodes":[
				0
			]
		}
	],
	"nodes":[
		{
			"mesh":0,
			"name":"Object"
		}
	],
	"materials":[
		{
			"doubleSided":true,
			"name":"BD_ICEI03",
			"pbrMetallicRoughness":{
				"baseColorFactor":[
					0.800000011920929,
					0.800000011920929,
					0.800000011920929,
					1
				],
				"metallicFactor":0,
				"roughnessFactor":0.5
			}
		},
		{
			"doubleSided":true,
			"name":"BD_ICEILIG03",
			"pbrMetallicRoughness":{
				"baseColorFactor":[
					0.800000011920929,
					0.800000011920929,
					0.800000011920929,
					1
				],
				"metallicFactor":0,
				"roughnessFactor":0.5
			}
		},
		{
			"doubleSided":true,
			"name":"BD_IFLO01",
			"pbrMetallicRoughness":{
				"baseColorFactor":[
					0.800000011920929,
					0.800000011920929,
					0.800000011920929,
					1
				],
				"metallicFactor":0,
				"roughnessFactor":0.5
			}
		},
		{
			"doubleSided":true,
			"name":"BD_IWAL01E",
			"pbrMetallicRoughness":{
				"baseColorFactor":[
					0.800000011920929,
					0.800000011920929,
					0.800000011920929,
					1
				],
				"metallicFactor":0,
				"roughnessFactor":0.5
			}
		},
		{
			"doubleSided":true,
			"name":"BD_IFLO03B",
			"pbrMetallicRoughness":{
				"baseColorFactor":[
					0.800000011920929,
					0.800000011920929,
					0.800000011920929,
					1
				],
				"metallicFactor":0,
				"roughnessFactor":0.5
			}
		},
		{
			"doubleSided":true,
			"name":"BD_EWAL03C",
			"pbrMetallicRoughness":{
				"baseColorFactor":[
					0.800000011920929,
					0.800000011920929,
					0.800000011920929,
					1
				],
				"metallicFactor":0,
				"roughnessFactor":0.5
			}
		},
		{
			"doubleSided":true,
			"name":"BD_THRESH02A",
			"pbrMetallicRoughness":{
				"baseColorFactor":[
					0.800000011920929,
					0.800000011920929,
					0.800000011920929,
					1
				],
				"metallicFactor":0,
				"roughnessFactor":0.5
			}
		},
		{
			"doubleSided":true,
			"name":"BD_IDOO03",
			"pbrMetallicRoughness":{
				"baseColorFactor":[
					0.800000011920929,
					0.800000011920929,
					0.800000011920929,
					1
				],
				"metallicFactor":0,
				"roughnessFactor":0.5
			}
		},
		{
			"doubleSided":true,
			"name":"BD_ICEILIG02",
			"pbrMetallicRoughness":{
				"baseColorFactor":[
					0.800000011920929,
					0.800000011920929,
					0.800000011920929,
					1
				],
				"metallicFactor":0,
				"roughnessFactor":0.5
			}
		},
		{
			"doubleSided":true,
			"name":"BD_ETERRAIN5A",
			"pbrMetallicRoughness":{
				"baseColorFactor":[
					0.800000011920929,
					0.800000011920929,
					0.800000011920929,
					1
				],
				"metallicFactor":0,
				"roughnessFactor":0.5
			}
		},
		{
			"doubleSided":true,
			"name":"BD_SCREEN",
			"pbrMetallicRoughness":{
				"baseColorFactor":[
					0.800000011920929,
					0.800000011920929,
					0.800000011920929,
					1
				],
				"metallicFactor":0,
				"roughnessFactor":0.5
			}
		},
		{
			"doubleSided":true,
			"name":"BD_ELIG03",
			"pbrMetallicRoughness":{
				"baseColorFactor":[
					0.800000011920929,
					0.800000011920929,
					0.800000011920929,
					1
				],
				"metallicFactor":0,
				"roughnessFactor":0.5
			}
		}
	],
	"meshes":[
		{
			"name":"Mesh",
			"primitives":[
				{
					"attributes":{
						"POSITION":0,
						"NORMAL":1,
						"TEXCOORD_0":2
					},
					"indices":3,
					"material":0
				},
				{
					"attributes":{
						"POSITION":4,
						"NORMAL":5,
						"TEXCOORD_0":6
					},
					"indices":7,
					"material":1
				},
				{
					"attributes":{
						"POSITION":8,
						"NORMAL":9,
						"TEXCOORD_0":10
					},
					"indices":11,
					"material":2
				},
				{
					"attributes":{
						"POSITION":12,
						"NORMAL":13,
						"TEXCOORD_0":14
					},
					"indices":15,
					"material":3
				},
				{
					"attributes":{
						"POSITION":16,
						"NORMAL":17,
						"TEXCOORD_0":18
					},
					"indices":19,
					"material":4
				},
				{
					"attributes":{
						"POSITION":20,
						"NORMAL":21,
						"TEXCOORD_0":22
					},
					"indices":23,
					"material":5
				},
				{
					"attributes":{
						"POSITION":24,
						"NORMAL":25,
						"TEXCOORD_0":26
					},
					"indices":27,
					"material":6
				},
				{
					"attributes":{
						"POSITION":28,
						"NORMAL":29,
						"TEXCOORD_0":30
					},
					"indices":31,
					"material":7
				},
				{
					"attributes":{
						"POSITION":32,
						"NORMAL":33,
						"TEXCOORD_0":34
					},
					"indices":35,
					"material":8
				},
				{
					"attributes":{
						"POSITION":36,
						"NORMAL":37,
						"TEXCOORD_0":38
					},
					"indices":39,
					"material":9
				},
				{
					"attributes":{
						"POSITION":40,
						"NORMAL":41,
						"TEXCOORD_0":42
					},
					"indices":43,
					"material":10
				},
				{
					"attributes":{
						"POSITION":44,
						"NORMAL":45,
						"TEXCOORD_0":46
					},
					"indices":47,
					"material":11
				}
			]
		}
	],
	"accessors":[
		{
			"bufferView":0,
			"componentType":5126,
			"count":3031,
			"max":[
				88,
				5.5,
				136
			],
			"min":[
				-88,
				-239.5,
				-136
			],
			"type":"VEC3"
		},
		{
			"bufferView":1,
			"componentType":5126,
			"count":3031,
			"type":"VEC3"
		},
		{
			"bufferView":2,
			"componentType":5126,
			"count":3031,
			"type":"VEC2"
		},
		{
			"bufferView":3,
			"componentType":5123,
			"count":5757,
			"type":"SCALAR"
		},
		{
			"bufferView":4,
			"componentType":5126,
			"count":16,
			"max":[
				23.25,
				4.25,
				99.75
			],
			"min":[
				-23.25,
				-20.75,
				-99.75
			],
			"type":"VEC3"
		},
		{
			"bufferView":5,
			"componentType":5126,
			"count":16,
			"type":"VEC3"
		},
		{
			"bufferView":6,
			"componentType":5126,
			"count":16,
			"type":"VEC2"
		},
		{
			"bufferView":7,
			"componentType":5123,
			"count":24,
			"type":"SCALAR"
		},
		{
			"bufferView":8,
			"componentType":5126,
			"count":764,
			"max":[
				88,
				40,
				203.5
			],
			"min":[
				-88,
				-1.737773959257225e-15,
				-203.5
			],
			"type":"VEC3"
		},
		{
			"bufferView":9,
			"componentType":5126,
			"count":764,
			"type":"VEC3"
		},
		{
			"bufferView":10,
			"componentType":5126,
			"count":764,
			"type":"VEC2"
		},
		{
			"bufferView":11,
			"componentType":5123,
			"count":2148,
			"type":"SCALAR"
		},
		{
			"bufferView":12,
			"componentType":5126,
			"count":3637,
			"max":[
				88,
				40,
				203.5
			],
			"min":[
				-88,
				-20,
				-203.5
			],
			"type":"VEC3"
		},
		{
			"bufferView":13,
			"componentType":5126,
			"count":3637,
			"type":"VEC3"
		},
		{
			"bufferView":14,
			"componentType":5126,
			"count":3637,
			"type":"VEC2"
		},
		{
			"bufferView":15,
			"componentType":5123,
			"count":8424,
			"type":"SCALAR"
		},
		{
			"bufferView":16,
			"componentType":5126,
			"count":464,
			"max":[
				87.5,
				-6,
				167.75
			],
			"min":[
				-87.5,
				-24.625,
				-167.75
			],
			"type":"VEC3"
		},
		{
			"bufferView":17,
			"componentType":5126,
			"count":464,
			"type":"VEC3"
		},
		{
			"bufferView":18,
			"componentType":5126,
			"count":464,
			"type":"VEC2"
		},
		{
			"bufferView":19,
			"componentType":5123,
			"count":1212,
			"type":"SCALAR"
		},
		{
			"bufferView":20,
			"componentType":5126,
			"count":242,
			"max":[
				76,
				40,
				223.5
			],
			"min":[
				-76,
				-20,
				-223.5
			],
			"type":"VEC3"
		},
		{
			"bufferView":21,
			"componentType":5126,
			"count":242,
			"type":"VEC3"
		},
		{
			"bufferView":22,
			"componentType":5126,
			"count":242,
			"type":"VEC2"
		},
		{
			"bufferView":23,
			"componentType":5123,
			"count":618,
			"type":"SCALAR"
		},
		{
			"bufferView":24,
			"componentType":5126,
			"count":328,
			"max":[
				64.25,
				-1.5,
				167.75
			],
			"min":[
				-64.25,
				-20,
				-167.75
			],
			"type":"VEC3"
		},
		{
			"bufferView":25,
			"componentType":5126,
			"count":328,
			"type":"VEC3"
		},
		{
			"bufferView":26,
			"componentType":5126,
			"count":328,
			"type":"VEC2"
		},
		{
			"bufferView":27,
			"componentType":5123,
			"count":504,
			"type":"SCALAR"
		},
		{
			"bufferView":28,
			"componentType":5126,
			"count":230,
			"max":[
				64,
				-1.5,
				167.75
			],
			"min":[
				-64,
				-20,
				-167.75
			],
			"type":"VEC3"
		},
		{
			"bufferView":29,
			"componentType":5126,
			"count":230,
			"type":"VEC3"
		},
		{
			"bufferView":30,
			"componentType":5126,
			"count":230,
			"type":"VEC2"
		},
		{
			"bufferView":31,
			"componentType":5123,
			"count":408,
			"type":"SCALAR"
		},
		{
			"bufferView":32,
			"componentType":5126,
			"count":56,
			"max":[
				58,
				-1,
				153
			],
			"min":[
				-58,
				-1,
				-153
			],
			"type":"VEC3"
		},
		{
			"bufferView":33,
			"componentType":5126,
			"count":56,
			"type":"VEC3"
		},
		{
			"bufferView":34,
			"componentType":5126,
			"count":56,
			"type":"VEC2"
		},
		{
			"bufferView":35,
			"componentType":5123,
			"count":84,
			"type":"SCALAR"
		},
		{
			"bufferView":36,
			"componentType":5126,
			"count":279,
			"max":[
				7.25,
				-26.5,
				7.25
			],
			"min":[
				-7.25,
				-27.5,
				-7.25
			],
			"type":"VEC3"
		},
		{
			"bufferView":37,
			"componentType":5126,
			"count":279,
			"type":"VEC3"
		},
		{
			"bufferView":38,
			"componentType":5126,
			"count":279,
			"type":"VEC2"
		},
		{
			"bufferView":39,
			"componentType":5123,
			"count":648,
			"type":"SCALAR"
		},
		{
			"bufferView":40,
			"componentType":5126,
			"count":16,
			"max":[
				7.5,
				4,
				97.5
			],
			"min":[
				-7.5,
				-5.399481667188482e-17,
				-97.5
			],
			"type":"VEC3"
		},
		{
			"bufferView":41,
			"componentType":5126,
			"count":16,
			"type":"VEC3"
		},
		{
			"bufferView":42,
			"componentType":5126,
			"count":16,
			"type":"VEC2"
		},
		{
			"bufferView":43,
			"componentType":5123,
			"count":24,
			"type":"SCALAR"
		},
		{
			"bufferView":44,
			"componentType":5126,
			"count":8,
			"max":[
				2,
				13.875,
				101.5
			],
			"min":[
				-2,
				13.875,
				-101.5
			],
			"type":"VEC3"
		},
		{
			"bufferView":45,
			"componentType":5126,
			"count":8,
			"type":"VEC3"
		},
		{
			"bufferView":46,
			"componentType":5126,
			"count":8,
			"type":"VEC2"
		},
		{
			"bufferView":47,
			"componentType":5123,
			"count":12,
			"type":"SCALAR"
		}
	],
	"bufferViews":[
		{
			"buffer":0,
			"byteLength":36372,
			"byteOffset":0,
			"target":34962
		},
		{
			"buffer":0,
			"byteLength":36372,
			"byteOffset":36372,
			"target":34962
		},
		{
			"buffer":0,
			"byteLength":24248,
			"byteOffset":72744,
			"target":34962
		},
		{
			"buffer":0,
			"byteLength":11514,
			"byteOffset":96992,
			"target":34963
		},
		{
			"buffer":0,
			"byteLength":192,
			"byteOffset":108508,
			"target":34962
		},
		{
			"buffer":0,
			"byteLength":192,
			"byteOffset":108700,
			"target":34962
		},
		{
			"buffer":0,
			"byteLength":128,
			"byteOffset":108892,
			"target":34962
		},
		{
			"buffer":0,
			"byteLength":48,
			"byteOffset":109020,
			"target":34963
		},
		{
			"buffer":0,
			"byteLength":9168,
			"byteOffset":109068,
			"target":34962
		},
		{
			"buffer":0,
			"byteLength":9168,
			"byteOffset":118236,
			"target":34962
		},
		{
			"buffer":0,
			"byteLength":6112,
			"byteOffset":127404,
			"target":34962
		},
		{
			"buffer":0,
			"byteLength":4296,
			"byteOffset":133516,
			"target":34963
		},
		{
			"buffer":0,
			"byteLength":43644,
			"byteOffset":137812,
			"target":34962
		},
		{
			"buffer":0,
			"byteLength":43644,
			"byteOffset":181456,
			"target":34962
		},
		{
			"buffer":0,
			"byteLength":29096,
			"byteOffset":225100,
			"target":34962
		},
		{
			"buffer":0,
			"byteLength":16848,
			"byteOffset":254196,
			"target":34963
		},
		{
			"buffer":0,
			"byteLength":5568,
			"byteOffset":271044,
			"target":34962
		},
		{
			"buffer":0,
			"byteLength":5568,
			"byteOffset":276612,
			"target":34962
		},
		{
			"buffer":0,
			"byteLength":3712,
			"byteOffset":282180,
			"target":34962
		},
		{
			"buffer":0,
			"byteLength":2424,
			"byteOffset":285892,
			"target":34963
		},
		{
			"buffer":0,
			"byteLength":2904,
			"byteOffset":288316,
			"target":34962
		},
		{
			"buffer":0,
			"byteLength":2904,
			"byteOffset":291220,
			"target":34962
		},
		{
			"buffer":0,
			"byteLength":1936,
			"byteOffset":294124,
			"target":34962
		},
		{
			"buffer":0,
			"byteLength":1236,
			"byteOffset":296060,
			"target":34963
		},
		{
			"buffer":0,
			"byteLength":3936,
			"byteOffset":297296,
			"target":34962
		},
		{
			"buffer":0,
			"byteLength":3936,
			"byteOffset":301232,
			"target":34962
		},
		{
			"buffer":0,
			"byteLength":2624,
			"byteOffset":305168,
			"target":34962
		},
		{
			"buffer":0,
			"byteLength":1008,
			"byteOffset":307792,
			"target":34963
		},
		{
			"buffer":0,
			"byteLength":2760,
			"byteOffset":308800,
			"target":34962
		},
		{
			"buffer":0,
			"byteLength":2760,
			"byteOffset":311560,
			"target":34962
		},
		{
			"buffer":0,
			"byteLength":1840,
			"byteOffset":314320,
			"target":34962
		},
		{
			"buffer":0,
			"byteLength":816,
			"byteOffset":316160,
			"target":34963
		},
		{
			"buffer":0,
			"byteLength":672,
			"byteOffset":316976,
			"target":34962
		},
		{
			"buffer":0,
			"byteLength":672,
			"byteOffset":317648,
			"target":34962
		},
		{
			"buffer":0,
			"byteLength":448,
			"byteOffset":318320,
			"target":34962
		},
		{
			"buffer":0,
			"byteLength":168,
			"byteOffset":318768,
			"target":34963
		},
		{
			"buffer":0,
			"byteLength":3348,
			"byteOffset":318936,
			"target":34962
		},
		{
			"buffer":0,
			"byteLength":3348,
			"byteOffset":322284,
			"target":34962
		},
		{
			"buffer":0,
			"byteLength":2232,
			"byteOffset":325632,
			"target":34962
		},
		{
			"buffer":0,
			"byteLength":1296,
			"byteOffset":327864,
			"target":34963
		},
		{
			"buffer":0,
			"byteLength":192,
			"byteOffset":329160,
			"target":34962
		},
		{
			"buffer":0,
			"byteLength":192,
			"byteOffset":329352,
			"target":34962
		},
		{
			"buffer":0,
			"byteLength":128,
			"byteOffset":329544,
			"target":34962
		},
		{
			"buffer":0,
			"byteLength":48,
			"byteOffset":329672,
			"target":34963
		},
		{
			"buffer":0,
			"byteLength":96,
			"byteOffset":329720,
			"target":34962
		},
		{
			"buffer":0,
			"byteLength":96,
			"byteOffset":329816,
			"target":34962
		},
		{
			"buffer":0,
			"byteLength":64,
			"byteOffset":329912,
			"target":34962
		},
		{
			"buffer":0,
			"byteLength":24,
			"byteOffset":329976,
			"target":34963
		}
	],
	"buffers":[
		{
			"byteLength":330000,
			"uri":"centaur.bin"
		}
	]
}
