{
	"asset":{
		"generator":"Khronos glTF Blender I/O v4.5.48",
		"version":"2.0"
	},
	"scene":0,
	"scenes":[
		{
			"name":"Scene",
			"nodes":[
				0
			]
		}
	],
	"nodes":[
		{
			"mesh":0,
			"name":"Object"
		}
	],
	"materials":[
		{
			"doubleSided":true,
			"name":"BE_IFLO01A",
			"pbrMetallicRoughness":{
				"baseColorFactor":[
					0.800000011920929,
					0.800000011920929,
					0.800000011920929,
					1
				],
				"metallicFactor":0,
				"roughnessFactor":0.5
			}
		},
		{
			"doubleSided":true,
			"name":"BE_EWAL04A",
			"pbrMetallicRoughness":{
				"baseColorFactor":[
					0.800000011920929,
					0.800000011920929,
					0.800000011920929,
					1
				],
				"metallicFactor":0,
				"roughnessFactor":0.5
			}
		},
		{
			"doubleSided":true,
			"name":"BE_EWAL01B",
			"pbrMetallicRoughness":{
				"baseColorFactor":[
					0.800000011920929,
					0.800000011920929,
					0.800000011920929,
					1
				],
				"metallicFactor":0,
				"roughnessFactor":0.5
			}
		},
		{
			"doubleSided":true,
			"name":"BE_EFLO01",
			"pbrMetallicRoughness":{
				"baseColorFactor":[
					0.800000011920929,
					0.800000011920929,
					0.800000011920929,
					1
				],
				"metallicFactor":0,
				"roughnessFactor":0.5
			}
		}
	],
	"meshes":[
		{
			"name":"Mesh",
			"primitives":[
				{
					"attributes":{
						"POSITION":0,
						"NORMAL":1,
						"TEXCOORD_0":2
					},
					"indices":3,
					"material":0
				},
				{
					"attributes":{
						"POSITION":4,
						"NORMAL":5,
						"TEXCOORD_0":6
					},
					"indices":7,
					"material":1
				},
				{
					"attributes":{
						"POSITION":8,
						"NORMAL":9,
						"TEXCOORD_0":10
					},
					"indices":11,
					"material":2
				},
				{
					"attributes":{
						"POSITION":12,
						"NORMAL":13,
						"TEXCOORD_0":14
					},
					"indices":15,
					"material":3
				}
			]
		}
	],
	"accessors":[
		{
			"bufferView":0,
			"componentType":5126,
			"count":44,
			"max":[
				4,
				1,
				4
			],
			"min":[
				-4,
				1,
				-4
			],
			"type":"VEC3"
		},
		{
			"bufferView":1,
			"componentType":5126,
			"count":44,
			"type":"VEC3"
		},
		{
			"bufferView":2,
			"componentType":5126,
			"count":44,
			"type":"VEC2"
		},
		{
			"bufferView":3,
			"componentType":5123,
			"count":162,
			"type":"SCALAR"
		},
		{
			"bufferView":4,
			"componentType":5126,
			"count":4,
			"max":[
				4,
				0,
				4
			],
			"min":[
				-4,
				0,
				-4
			],
			"type":"VEC3"
		},
		{
			"bufferView":5,
			"componentType":5126,
			"count":4,
			"type":"VEC3"
		},
		{
			"bufferView":6,
			"componentType":5126,
			"count":4,
			"type":"VEC2"
		},
		{
			"bufferView":7,
			"componentType":5123,
			"count":6,
			"type":"SCALAR"
		},
		{
			"bufferView":8,
			"componentType":5126,
			"count":380,
			"max":[
				6,
				2.25,
				6
			],
			"min":[
				-6,
				-23.75,
				-6
			],
			"type":"VEC3"
		},
		{
			"bufferView":9,
			"componentType":5126,
			"count":380,
			"type":"VEC3"
		},
		{
			"bufferView":10,
			"componentType":5126,
			"count":380,
			"type":"VEC2"
		},
		{
			"bufferView":11,
			"componentType":5123,
			"count":732,
			"type":"SCALAR"
		},
		{
			"bufferView":12,
			"componentType":5126,
			"count":96,
			"max":[
				6,
				2.25,
				6
			],
			"min":[
				-6,
				1.25,
				-6
			],
			"type":"VEC3"
		},
		{
			"bufferView":13,
			"componentType":5126,
			"count":96,
			"type":"VEC3"
		},
		{
			"bufferView":14,
			"componentType":5126,
			"count":96,
			"type":"VEC2"
		},
		{
			"bufferView":15,
			"componentType":5123,
			"count":144,
			"type":"SCALAR"
		}
	],
	"bufferViews":[
		{
			"buffer":0,
			"byteLength":528,
			"byteOffset":0,
			"target":34962
		},
		{
			"buffer":0,
			"byteLength":528,
			"byteOffset":528,
			"target":34962
		},
		{
			"buffer":0,
			"byteLength":352,
			"byteOffset":1056,
			"target":34962
		},
		{
			"buffer":0,
			"byteLength":324,
			"byteOffset":1408,
			"target":34963
		},
		{
			"buffer":0,
			"byteLength":48,
			"byteOffset":1732,
			"target":34962
		},
		{
			"buffer":0,
			"byteLength":48,
			"byteOffset":1780,
			"target":34962
		},
		{
			"buffer":0,
			"byteLength":32,
			"byteOffset":1828,
			"target":34962
		},
		{
			"buffer":0,
			"byteLength":12,
			"byteOffset":1860,
			"target":34963
		},
		{
			"buffer":0,
			"byteLength":4560,
			"byteOffset":1872,
			"target":34962
		},
		{
			"buffer":0,
			"byteLength":4560,
			"byteOffset":6432,
			"target":34962
		},
		{
			"buffer":0,
			"byteLength":3040,
			"byteOffset":10992,
			"target":34962
		},
		{
			"buffer":0,
			"byteLength":1464,
			"byteOffset":14032,
			"target":34963
		},
		{
			"buffer":0,
			"byteLength":1152,
			"byteOffset":15496,
			"target":34962
		},
		{
			"buffer":0,
			"byteLength":1152,
			"byteOffset":16648,
			"target":34962
		},
		{
			"buffer":0,
			"byteLength":768,
			"byteOffset":17800,
			"target":34962
		},
		{
			"buffer":0,
			"byteLength":288,
			"byteOffset":18568,
			"target":34963
		}
	],
	"buffers":[
		{
			"byteLength":18856,
			"uri":"damnationstand.bin"
		}
	]
}
