{
	"asset":{
		"generator":"Khronos glTF Blender I/O v4.5.48",
		"version":"2.0"
	},
	"scene":0,
	"scenes":[
		{
			"name":"Scene",
			"nodes":[
				0
			]
		}
	],
	"nodes":[
		{
			"mesh":0,
			"name":"Object"
		}
	],
	"materials":[
		{
			"doubleSided":true,
			"name":"RST_GRY_DIAMND",
			"pbrMetallicRoughness":{
				"baseColorFactor":[
					0.800000011920929,
					0.800000011920929,
					0.800000011920929,
					1
				],
				"metallicFactor":0,
				"roughnessFactor":0.5
			}
		},
		{
			"doubleSided":true,
			"name":"RST_BLK_TRIM6",
			"pbrMetallicRoughness":{
				"baseColorFactor":[
					0.800000011920929,
					0.800000011920929,
					0.800000011920929,
					1
				],
				"metallicFactor":0,
				"roughnessFactor":0.5
			}
		},
		{
			"doubleSided":true,
			"name":"RST_BLU_TRIM2",
			"pbrMetallicRoughness":{
				"baseColorFactor":[
					0.800000011920929,
					0.800000011920929,
					0.800000011920929,
					1
				],
				"metallicFactor":0,
				"roughnessFactor":0.5
			}
		},
		{
			"doubleSided":true,
			"name":"RST_BLK_BIGFLR",
			"pbrMetallicRoughness":{
				"baseColorFactor":[
					0.800000011920929,
					0.800000011920929,
					0.800000011920929,
					1
				],
				"metallicFactor":0,
				"roughnessFactor":0.5
			}
		},
		{
			"doubleSided":true,
			"name":"RST_BLK_TRAPE",
			"pbrMetallicRoughness":{
				"baseColorFactor":[
					0.800000011920929,
					0.800000011920929,
					0.800000011920929,
					1
				],
				"metallicFactor":0,
				"roughnessFactor":0.5
			}
		},
		{
			"doubleSided":true,
			"name":"RST_BLU_PLN",
			"pbrMetallicRoughness":{
				"baseColorFactor":[
					0.800000011920929,
					0.800000011920929,
					0.800000011920929,
					1
				],
				"metallicFactor":0,
				"roughnessFactor":0.5
			}
		},
		{
			"doubleSided":true,
			"name":"RST_BLK_GRID",
			"pbrMetallicRoughness":{
				"baseColorFactor":[
					0.800000011920929,
					0.800000011920929,
					0.800000011920929,
					1
				],
				"metallicFactor":0,
				"roughnessFactor":0.5
			}
		},
		{
			"doubleSided":true,
			"name":"RST_BLU_PLT3",
			"pbrMetallicRoughness":{
				"baseColorFactor":[
					0.800000011920929,
					0.800000011920929,
					0.800000011920929,
					1
				],
				"metallicFactor":0,
				"roughnessFactor":0.5
			}
		},
		{
			"doubleSided":true,
			"name":"RST_BLU_TRIM7",
			"pbrMetallicRoughness":{
				"baseColorFactor":[
					0.800000011920929,
					0.800000011920929,
					0.800000011920929,
					1
				],
				"metallicFactor":0,
				"roughnessFactor":0.5
			}
		},
		{
			"doubleSided":true,
			"name":"RST_BLK_RIB",
			"pbrMetallicRoughness":{
				"baseColorFactor":[
					0.800000011920929,
					0.800000011920929,
					0.800000011920929,
					1
				],
				"metallicFactor":0,
				"roughnessFactor":0.5
			}
		},
		{
			"doubleSided":true,
			"name":"RST_GRY_PLT1",
			"pbrMetallicRoughness":{
				"baseColorFactor":[
					0.800000011920929,
					0.800000011920929,
					0.800000011920929,
					1
				],
				"metallicFactor":0,
				"roughnessFactor":0.5
			}
		},
		{
			"doubleSided":true,
			"name":"RST_BLU_RIB",
			"pbrMetallicRoughness":{
				"baseColorFactor":[
					0.800000011920929,
					0.800000011920929,
					0.800000011920929,
					1
				],
				"metallicFactor":0,
				"roughnessFactor":0.5
			}
		},
		{
			"doubleSided":true,
			"name":"RST_GRY_PLN",
			"pbrMetallicRoughness":{
				"baseColorFactor":[
					0.800000011920929,
					0.800000011920929,
					0.800000011920929,
					1
				],
				"metallicFactor":0,
				"roughnessFactor":0.5
			}
		},
		{
			"doubleSided":true,
			"name":"RST_GRY_LINES",
			"pbrMetallicRoughness":{
				"baseColorFactor":[
					0.800000011920929,
					0.800000011920929,
					0.800000011920929,
					1
				],
				"metallicFactor":0,
				"roughnessFactor":0.5
			}
		},
		{
			"doubleSided":true,
			"name":"RST_BLU_TALLCOL",
			"pbrMetallicRoughness":{
				"baseColorFactor":[
					0.800000011920929,
					0.800000011920929,
					0.800000011920929,
					1
				],
				"metallicFactor":0,
				"roughnessFactor":0.5
			}
		},
		{
			"doubleSided":true,
			"name":"RST_BLU_DARKINS",
			"pbrMetallicRoughness":{
				"baseColorFactor":[
					0.800000011920929,
					0.800000011920929,
					0.800000011920929,
					1
				],
				"metallicFactor":0,
				"roughnessFactor":0.5
			}
		},
		{
			"doubleSided":true,
			"name":"RST_GRY_LITES",
			"pbrMetallicRoughness":{
				"baseColorFactor":[
					0.800000011920929,
					0.800000011920929,
					0.800000011920929,
					1
				],
				"metallicFactor":0,
				"roughnessFactor":0.5
			}
		},
		{
			"doubleSided":true,
			"name":"RST_BLU_COL",
			"pbrMetallicRoughness":{
				"baseColorFactor":[
					0.800000011920929,
					0.800000011920929,
					0.800000011920929,
					1
				],
				"metallicFactor":0,
				"roughnessFactor":0.5
			}
		}
	],
	"meshes":[
		{
			"name":"Mesh",
			"primitives":[
				{
					"attributes":{
						"POSITION":0,
						"NORMAL":1,
						"TEXCOORD_0":2
					},
					"indices":3,
					"material":0
				},
				{
					"attributes":{
						"POSITION":4,
						"NORMAL":5,
						"TEXCOORD_0":6
					},
					"indices":7,
					"material":1
				},
				{
					"attributes":{
						"POSITION":8,
						"NORMAL":9,
						"TEXCOORD_0":10
					},
					"indices":11,
					"material":2
				},
				{
					"attributes":{
						"POSITION":12,
						"NORMAL":13,
						"TEXCOORD_0":14
					},
					"indices":15,
					"material":3
				},
				{
					"attributes":{
						"POSITION":16,
						"NORMAL":17,
						"TEXCOORD_0":18
					},
					"indices":19,
					"material":4
				},
				{
					"attributes":{
						"POSITION":20,
						"NORMAL":21,
						"TEXCOORD_0":22
					},
					"indices":23,
					"material":5
				},
				{
					"attributes":{
						"POSITION":24,
						"NORMAL":25,
						"TEXCOORD_0":26
					},
					"indices":27,
					"material":6
				},
				{
					"attributes":{
						"POSITION":28,
						"NORMAL":29,
						"TEXCOORD_0":30
					},
					"indices":31,
					"material":7
				},
				{
					"attributes":{
						"POSITION":32,
						"NORMAL":33,
						"TEXCOORD_0":34
					},
					"indices":35,
					"material":8
				},
				{
					"attributes":{
						"POSITION":36,
						"NORMAL":37,
						"TEXCOORD_0":38
					},
					"indices":39,
					"material":9
				},
				{
					"attributes":{
						"POSITION":40,
						"NORMAL":41,
						"TEXCOORD_0":42
					},
					"indices":43,
					"material":10
				},
				{
					"attributes":{
						"POSITION":44,
						"NORMAL":45,
						"TEXCOORD_0":46
					},
					"indices":47,
					"material":11
				},
				{
					"attributes":{
						"POSITION":48,
						"NORMAL":49,
						"TEXCOORD_0":50
					},
					"indices":51,
					"material":12
				},
				{
					"attributes":{
						"POSITION":52,
						"NORMAL":53,
						"TEXCOORD_0":54
					},
					"indices":55,
					"material":13
				},
				{
					"attributes":{
						"POSITION":56,
						"NORMAL":57,
						"TEXCOORD_0":58
					},
					"indices":59,
					"material":14
				},
				{
					"attributes":{
						"POSITION":60,
						"NORMAL":61,
						"TEXCOORD_0":62
					},
					"indices":63,
					"material":15
				},
				{
					"attributes":{
						"POSITION":64,
						"NORMAL":65,
						"TEXCOORD_0":66
					},
					"indices":67,
					"material":16
				},
				{
					"attributes":{
						"POSITION":68,
						"NORMAL":69,
						"TEXCOORD_0":70
					},
					"indices":71,
					"material":17
				}
			]
		}
	],
	"accessors":[
		{
			"bufferView":0,
			"componentType":5126,
			"count":40,
			"max":[
				3,
				-6,
				20
			],
			"min":[
				-13,
				-20,
				-44
			],
			"type":"VEC3"
		},
		{
			"bufferView":1,
			"componentType":5126,
			"count":40,
			"type":"VEC3"
		},
		{
			"bufferView":2,
			"componentType":5126,
			"count":40,
			"type":"VEC2"
		},
		{
			"bufferView":3,
			"componentType":5123,
			"count":78,
			"type":"SCALAR"
		},
		{
			"bufferView":4,
			"componentType":5126,
			"count":36,
			"max":[
				-2,
				-6,
				-9
			],
			"min":[
				-8,
				-8,
				-15
			],
			"type":"VEC3"
		},
		{
			"bufferView":5,
			"componentType":5126,
			"count":36,
			"type":"VEC3"
		},
		{
			"bufferView":6,
			"componentType":5126,
			"count":36,
			"type":"VEC2"
		},
		{
			"bufferView":7,
			"componentType":5123,
			"count":60,
			"type":"SCALAR"
		},
		{
			"bufferView":8,
			"componentType":5126,
			"count":24,
			"max":[
				-2,
				-6.5,
				-9
			],
			"min":[
				-8,
				-7.5,
				-15
			],
			"type":"VEC3"
		},
		{
			"bufferView":9,
			"componentType":5126,
			"count":24,
			"type":"VEC3"
		},
		{
			"bufferView":10,
			"componentType":5126,
			"count":24,
			"type":"VEC2"
		},
		{
			"bufferView":11,
			"componentType":5123,
			"count":48,
			"type":"SCALAR"
		},
		{
			"bufferView":12,
			"componentType":5126,
			"count":582,
			"max":[
				7,
				2,
				24
			],
			"min":[
				-17,
				-39,
				-48
			],
			"type":"VEC3"
		},
		{
			"bufferView":13,
			"componentType":5126,
			"count":582,
			"type":"VEC3"
		},
		{
			"bufferView":14,
			"componentType":5126,
			"count":582,
			"type":"VEC2"
		},
		{
			"bufferView":15,
			"componentType":5123,
			"count":1320,
			"type":"SCALAR"
		},
		{
			"bufferView":16,
			"componentType":5126,
			"count":114,
			"max":[
				-2,
				-8,
				10
			],
			"min":[
				-8,
				-34,
				-34
			],
			"type":"VEC3"
		},
		{
			"bufferView":17,
			"componentType":5126,
			"count":114,
			"type":"VEC3"
		},
		{
			"bufferView":18,
			"componentType":5126,
			"count":114,
			"type":"VEC2"
		},
		{
			"bufferView":19,
			"componentType":5123,
			"count":312,
			"type":"SCALAR"
		},
		{
			"bufferView":20,
			"componentType":5126,
			"count":274,
			"max":[
				7,
				2,
				24
			],
			"min":[
				-17,
				-29,
				-48
			],
			"type":"VEC3"
		},
		{
			"bufferView":21,
			"componentType":5126,
			"count":274,
			"type":"VEC3"
		},
		{
			"bufferView":22,
			"componentType":5126,
			"count":274,
			"type":"VEC2"
		},
		{
			"bufferView":23,
			"componentType":5123,
			"count":522,
			"type":"SCALAR"
		},
		{
			"bufferView":24,
			"componentType":5126,
			"count":50,
			"max":[
				-2,
				-14,
				10
			],
			"min":[
				-8,
				-34.5,
				-34
			],
			"type":"VEC3"
		},
		{
			"bufferView":25,
			"componentType":5126,
			"count":50,
			"type":"VEC3"
		},
		{
			"bufferView":26,
			"componentType":5126,
			"count":50,
			"type":"VEC2"
		},
		{
			"bufferView":27,
			"componentType":5123,
			"count":90,
			"type":"SCALAR"
		},
		{
			"bufferView":28,
			"componentType":5126,
			"count":16,
			"max":[
				1,
				-11.5,
				4
			],
			"min":[
				-11,
				-26,
				-28
			],
			"type":"VEC3"
		},
		{
			"bufferView":29,
			"componentType":5126,
			"count":16,
			"type":"VEC3"
		},
		{
			"bufferView":30,
			"componentType":5126,
			"count":16,
			"type":"VEC2"
		},
		{
			"bufferView":31,
			"componentType":5123,
			"count":24,
			"type":"SCALAR"
		},
		{
			"bufferView":32,
			"componentType":5126,
			"count":72,
			"max":[
				7,
				-39,
				24
			],
			"min":[
				-17,
				-41,
				-48
			],
			"type":"VEC3"
		},
		{
			"bufferView":33,
			"componentType":5126,
			"count":72,
			"type":"VEC3"
		},
		{
			"bufferView":34,
			"componentType":5126,
			"count":72,
			"type":"VEC2"
		},
		{
			"bufferView":35,
			"componentType":5123,
			"count":168,
			"type":"SCALAR"
		},
		{
			"bufferView":36,
			"componentType":5126,
			"count":128,
			"max":[
				7,
				-2,
				4
			],
			"min":[
				-17,
				-6,
				-28
			],
			"type":"VEC3"
		},
		{
			"bufferView":37,
			"componentType":5126,
			"count":128,
			"type":"VEC3"
		},
		{
			"bufferView":38,
			"componentType":5126,
			"count":128,
			"type":"VEC2"
		},
		{
			"bufferView":39,
			"componentType":5123,
			"count":240,
			"type":"SCALAR"
		},
		{
			"bufferView":40,
			"componentType":5126,
			"count":76,
			"max":[
				7,
				-2,
				24
			],
			"min":[
				-17,
				-39,
				-48
			],
			"type":"VEC3"
		},
		{
			"bufferView":41,
			"componentType":5126,
			"count":76,
			"type":"VEC3"
		},
		{
			"bufferView":42,
			"componentType":5126,
			"count":76,
			"type":"VEC2"
		},
		{
			"bufferView":43,
			"componentType":5123,
			"count":132,
			"type":"SCALAR"
		},
		{
			"bufferView":44,
			"componentType":5126,
			"count":68,
			"max":[
				7,
				2,
				4
			],
			"min":[
				-17,
				-2,
				-28
			],
			"type":"VEC3"
		},
		{
			"bufferView":45,
			"componentType":5126,
			"count":68,
			"type":"VEC3"
		},
		{
			"bufferView":46,
			"componentType":5126,
			"count":68,
			"type":"VEC2"
		},
		{
			"bufferView":47,
			"componentType":5123,
			"count":156,
			"type":"SCALAR"
		},
		{
			"bufferView":48,
			"componentType":5126,
			"count":44,
			"max":[
				0,
				-8,
				0
			],
			"min":[
				-10,
				-25,
				-24
			],
			"type":"VEC3"
		},
		{
			"bufferView":49,
			"componentType":5126,
			"count":44,
			"type":"VEC3"
		},
		{
			"bufferView":50,
			"componentType":5126,
			"count":44,
			"type":"VEC2"
		},
		{
			"bufferView":51,
			"componentType":5123,
			"count":156,
			"type":"SCALAR"
		},
		{
			"bufferView":52,
			"componentType":5126,
			"count":24,
			"max":[
				2,
				-2,
				-1
			],
			"min":[
				-12,
				-2,
				-23
			],
			"type":"VEC3"
		},
		{
			"bufferView":53,
			"componentType":5126,
			"count":24,
			"type":"VEC3"
		},
		{
			"bufferView":54,
			"componentType":5126,
			"count":24,
			"type":"VEC2"
		},
		{
			"bufferView":55,
			"componentType":5123,
			"count":78,
			"type":"SCALAR"
		},
		{
			"bufferView":56,
			"componentType":5126,
			"count":20,
			"max":[
				-2,
				-8,
				-8
			],
			"min":[
				-8,
				-14,
				-16
			],
			"type":"VEC3"
		},
		{
			"bufferView":57,
			"componentType":5126,
			"count":20,
			"type":"VEC3"
		},
		{
			"bufferView":58,
			"componentType":5126,
			"count":20,
			"type":"VEC2"
		},
		{
			"bufferView":59,
			"componentType":5123,
			"count":36,
			"type":"SCALAR"
		},
		{
			"bufferView":60,
			"componentType":5126,
			"count":8,
			"max":[
				-3,
				-23,
				24
			],
			"min":[
				-7,
				-27,
				-48
			],
			"type":"VEC3"
		},
		{
			"bufferView":61,
			"componentType":5126,
			"count":8,
			"type":"VEC3"
		},
		{
			"bufferView":62,
			"componentType":5126,
			"count":8,
			"type":"VEC2"
		},
		{
			"bufferView":63,
			"componentType":5123,
			"count":12,
			"type":"SCALAR"
		},
		{
			"bufferView":64,
			"componentType":5126,
			"count":112,
			"max":[
				-2,
				-2,
				9
			],
			"min":[
				-8,
				-14.5,
				-32
			],
			"type":"VEC3"
		},
		{
			"bufferView":65,
			"componentType":5126,
			"count":112,
			"type":"VEC3"
		},
		{
			"bufferView":66,
			"componentType":5126,
			"count":112,
			"type":"VEC2"
		},
		{
			"bufferView":67,
			"componentType":5123,
			"count":192,
			"type":"SCALAR"
		},
		{
			"bufferView":68,
			"componentType":5126,
			"count":36,
			"max":[
				1,
				-9.5,
				-8
			],
			"min":[
				-11,
				-17.5,
				-16
			],
			"type":"VEC3"
		},
		{
			"bufferView":69,
			"componentType":5126,
			"count":36,
			"type":"VEC3"
		},
		{
			"bufferView":70,
			"componentType":5126,
			"count":36,
			"type":"VEC2"
		},
		{
			"bufferView":71,
			"componentType":5123,
			"count":60,
			"type":"SCALAR"
		}
	],
	"bufferViews":[
		{
			"buffer":0,
			"byteLength":480,
			"byteOffset":0,
			"target":34962
		},
		{
			"buffer":0,
			"byteLength":480,
			"byteOffset":480,
			"target":34962
		},
		{
			"buffer":0,
			"byteLength":320,
			"byteOffset":960,
			"target":34962
		},
		{
			"buffer":0,
			"byteLength":156,
			"byteOffset":1280,
			"target":34963
		},
		{
			"buffer":0,
			"byteLength":432,
			"byteOffset":1436,
			"target":34962
		},
		{
			"buffer":0,
			"byteLength":432,
			"byteOffset":1868,
			"target":34962
		},
		{
			"buffer":0,
			"byteLength":288,
			"byteOffset":2300,
			"target":34962
		},
		{
			"buffer":0,
			"byteLength":120,
			"byteOffset":2588,
			"target":34963
		},
		{
			"buffer":0,
			"byteLength":288,
			"byteOffset":2708,
			"target":34962
		},
		{
			"buffer":0,
			"byteLength":288,
			"byteOffset":2996,
			"target":34962
		},
		{
			"buffer":0,
			"byteLength":192,
			"byteOffset":3284,
			"target":34962
		},
		{
			"buffer":0,
			"byteLength":96,
			"byteOffset":3476,
			"target":34963
		},
		{
			"buffer":0,
			"byteLength":6984,
			"byteOffset":3572,
			"target":34962
		},
		{
			"buffer":0,
			"byteLength":6984,
			"byteOffset":10556,
			"target":34962
		},
		{
			"buffer":0,
			"byteLength":4656,
			"byteOffset":17540,
			"target":34962
		},
		{
			"buffer":0,
			"byteLength":2640,
			"byteOffset":22196,
			"target":34963
		},
		{
			"buffer":0,
			"byteLength":1368,
			"byteOffset":24836,
			"target":34962
		},
		{
			"buffer":0,
			"byteLength":1368,
			"byteOffset":26204,
			"target":34962
		},
		{
			"buffer":0,
			"byteLength":912,
			"byteOffset":27572,
			"target":34962
		},
		{
			"buffer":0,
			"byteLength":624,
			"byteOffset":28484,
			"target":34963
		},
		{
			"buffer":0,
			"byteLength":3288,
			"byteOffset":29108,
			"target":34962
		},
		{
			"buffer":0,
			"byteLength":3288,
			"byteOffset":32396,
			"target":34962
		},
		{
			"buffer":0,
			"byteLength":2192,
			"byteOffset":35684,
			"target":34962
		},
		{
			"buffer":0,
			"byteLength":1044,
			"byteOffset":37876,
			"target":34963
		},
		{
			"buffer":0,
			"byteLength":600,
			"byteOffset":38920,
			"target":34962
		},
		{
			"buffer":0,
			"byteLength":600,
			"byteOffset":39520,
			"target":34962
		},
		{
			"buffer":0,
			"byteLength":400,
			"byteOffset":40120,
			"target":34962
		},
		{
			"buffer":0,
			"byteLength":180,
			"byteOffset":40520,
			"target":34963
		},
		{
			"buffer":0,
			"byteLength":192,
			"byteOffset":40700,
			"target":34962
		},
		{
			"buffer":0,
			"byteLength":192,
			"byteOffset":40892,
			"target":34962
		},
		{
			"buffer":0,
			"byteLength":128,
			"byteOffset":41084,
			"target":34962
		},
		{
			"buffer":0,
			"byteLength":48,
			"byteOffset":41212,
			"target":34963
		},
		{
			"buffer":0,
			"byteLength":864,
			"byteOffset":41260,
			"target":34962
		},
		{
			"buffer":0,
			"byteLength":864,
			"byteOffset":42124,
			"target":34962
		},
		{
			"buffer":0,
			"byteLength":576,
			"byteOffset":42988,
			"target":34962
		},
		{
			"buffer":0,
			"byteLength":336,
			"byteOffset":43564,
			"target":34963
		},
		{
			"buffer":0,
			"byteLength":1536,
			"byteOffset":43900,
			"target":34962
		},
		{
			"buffer":0,
			"byteLength":1536,
			"byteOffset":45436,
			"target":34962
		},
		{
			"buffer":0,
			"byteLength":1024,
			"byteOffset":46972,
			"target":34962
		},
		{
			"buffer":0,
			"byteLength":480,
			"byteOffset":47996,
			"target":34963
		},
		{
			"buffer":0,
			"byteLength":912,
			"byteOffset":48476,
			"target":34962
		},
		{
			"buffer":0,
			"byteLength":912,
			"byteOffset":49388,
			"target":34962
		},
		{
			"buffer":0,
			"byteLength":608,
			"byteOffset":50300,
			"target":34962
		},
		{
			"buffer":0,
			"byteLength":264,
			"byteOffset":50908,
			"target":34963
		},
		{
			"buffer":0,
			"byteLength":816,
			"byteOffset":51172,
			"target":34962
		},
		{
			"buffer":0,
			"byteLength":816,
			"byteOffset":51988,
			"target":34962
		},
		{
			"buffer":0,
			"byteLength":544,
			"byteOffset":52804,
			"target":34962
		},
		{
			"buffer":0,
			"byteLength":312,
			"byteOffset":53348,
			"target":34963
		},
		{
			"buffer":0,
			"byteLength":528,
			"byteOffset":53660,
			"target":34962
		},
		{
			"buffer":0,
			"byteLength":528,
			"byteOffset":54188,
			"target":34962
		},
		{
			"buffer":0,
			"byteLength":352,
			"byteOffset":54716,
			"target":34962
		},
		{
			"buffer":0,
			"byteLength":312,
			"byteOffset":55068,
			"target":34963
		},
		{
			"buffer":0,
			"byteLength":288,
			"byteOffset":55380,
			"target":34962
		},
		{
			"buffer":0,
			"byteLength":288,
			"byteOffset":55668,
			"target":34962
		},
		{
			"buffer":0,
			"byteLength":192,
			"byteOffset":55956,
			"target":34962
		},
		{
			"buffer":0,
			"byteLength":156,
			"byteOffset":56148,
			"target":34963
		},
		{
			"buffer":0,
			"byteLength":240,
			"byteOffset":56304,
			"target":34962
		},
		{
			"buffer":0,
			"byteLength":240,
			"byteOffset":56544,
			"target":34962
		},
		{
			"buffer":0,
			"byteLength":160,
			"byteOffset":56784,
			"target":34962
		},
		{
			"buffer":0,
			"byteLength":72,
			"byteOffset":56944,
			"target":34963
		},
		{
			"buffer":0,
			"byteLength":96,
			"byteOffset":57016,
			"target":34962
		},
		{
			"buffer":0,
			"byteLength":96,
			"byteOffset":57112,
			"target":34962
		},
		{
			"buffer":0,
			"byteLength":64,
			"byteOffset":57208,
			"target":34962
		},
		{
			"buffer":0,
			"byteLength":24,
			"byteOffset":57272,
			"target":34963
		},
		{
			"buffer":0,
			"byteLength":1344,
			"byteOffset":57296,
			"target":34962
		},
		{
			"buffer":0,
			"byteLength":1344,
			"byteOffset":58640,
			"target":34962
		},
		{
			"buffer":0,
			"byteLength":896,
			"byteOffset":59984,
			"target":34962
		},
		{
			"buffer":0,
			"byteLength":384,
			"byteOffset":60880,
			"target":34963
		},
		{
			"buffer":0,
			"byteLength":432,
			"byteOffset":61264,
			"target":34962
		},
		{
			"buffer":0,
			"byteLength":432,
			"byteOffset":61696,
			"target":34962
		},
		{
			"buffer":0,
			"byteLength":288,
			"byteOffset":62128,
			"target":34962
		},
		{
			"buffer":0,
			"byteLength":120,
			"byteOffset":62416,
			"target":34963
		}
	],
	"buffers":[
		{
			"byteLength":62536,
			"uri":"flingtower02.bin"
		}
	]
}
