{
	"asset":{
		"generator":"Khronos glTF Blender I/O v4.5.48",
		"version":"2.0"
	},
	"scene":0,
	"scenes":[
		{
			"name":"Scene",
			"nodes":[
				0
			]
		}
	],
	"nodes":[
		{
			"mesh":0,
			"name":"Object"
		}
	],
	"materials":[
		{
			"doubleSided":true,
			"name":"SW_FLOORGRATE",
			"pbrMetallicRoughness":{
				"baseColorFactor":[
					0.800000011920929,
					0.800000011920929,
					0.800000011920929,
					1
				],
				"metallicFactor":0,
				"roughnessFactor":0.5
			}
		},
		{
			"doubleSided":true,
			"name":"SW_ICEI01",
			"pbrMetallicRoughness":{
				"baseColorFactor":[
					0.800000011920929,
					0.800000011920929,
					0.800000011920929,
					1
				],
				"metallicFactor":0,
				"roughnessFactor":0.5
			}
		},
		{
			"doubleSided":true,
			"name":"SW_IWAL03",
			"pbrMetallicRoughness":{
				"baseColorFactor":[
					0.800000011920929,
					0.800000011920929,
					0.800000011920929,
					1
				],
				"metallicFactor":0,
				"roughnessFactor":0.5
			}
		},
		{
			"doubleSided":true,
			"name":"SW_IWAL01",
			"pbrMetallicRoughness":{
				"baseColorFactor":[
					0.800000011920929,
					0.800000011920929,
					0.800000011920929,
					1
				],
				"metallicFactor":0,
				"roughnessFactor":0.5
			}
		},
		{
			"doubleSided":true,
			"name":"SW_EWAL02",
			"pbrMetallicRoughness":{
				"baseColorFactor":[
					0.800000011920929,
					0.800000011920929,
					0.800000011920929,
					1
				],
				"metallicFactor":0,
				"roughnessFactor":0.5
			}
		}
	],
	"meshes":[
		{
			"name":"Mesh",
			"primitives":[
				{
					"attributes":{
						"POSITION":0,
						"NORMAL":1,
						"TEXCOORD_0":2
					},
					"indices":3,
					"material":0
				},
				{
					"attributes":{
						"POSITION":4,
						"NORMAL":5,
						"TEXCOORD_0":6
					},
					"indices":7,
					"material":1
				},
				{
					"attributes":{
						"POSITION":8,
						"NORMAL":9,
						"TEXCOORD_0":10
					},
					"indices":11,
					"material":2
				},
				{
					"attributes":{
						"POSITION":12,
						"NORMAL":13,
						"TEXCOORD_0":14
					},
					"indices":15,
					"material":3
				},
				{
					"attributes":{
						"POSITION":16,
						"NORMAL":17,
						"TEXCOORD_0":18
					},
					"indices":19,
					"material":4
				}
			]
		}
	],
	"accessors":[
		{
			"bufferView":0,
			"componentType":5126,
			"count":64,
			"max":[
				3,
				-6,
				10
			],
			"min":[
				-13,
				-34,
				-34
			],
			"type":"VEC3"
		},
		{
			"bufferView":1,
			"componentType":5126,
			"count":64,
			"type":"VEC3"
		},
		{
			"bufferView":2,
			"componentType":5126,
			"count":64,
			"type":"VEC2"
		},
		{
			"bufferView":3,
			"componentType":5123,
			"count":114,
			"type":"SCALAR"
		},
		{
			"bufferView":4,
			"componentType":5126,
			"count":74,
			"max":[
				3,
				-2,
				20
			],
			"min":[
				-13,
				-28,
				-44
			],
			"type":"VEC3"
		},
		{
			"bufferView":5,
			"componentType":5126,
			"count":74,
			"type":"VEC3"
		},
		{
			"bufferView":6,
			"componentType":5126,
			"count":74,
			"type":"VEC2"
		},
		{
			"bufferView":7,
			"componentType":5123,
			"count":120,
			"type":"SCALAR"
		},
		{
			"bufferView":8,
			"componentType":5126,
			"count":464,
			"max":[
				7,
				2,
				24
			],
			"min":[
				-17,
				-41,
				-48
			],
			"type":"VEC3"
		},
		{
			"bufferView":9,
			"componentType":5126,
			"count":464,
			"type":"VEC3"
		},
		{
			"bufferView":10,
			"componentType":5126,
			"count":464,
			"type":"VEC2"
		},
		{
			"bufferView":11,
			"componentType":5123,
			"count":1080,
			"type":"SCALAR"
		},
		{
			"bufferView":12,
			"componentType":5126,
			"count":230,
			"max":[
				7,
				-2,
				10
			],
			"min":[
				-17,
				-34,
				-34
			],
			"type":"VEC3"
		},
		{
			"bufferView":13,
			"componentType":5126,
			"count":230,
			"type":"VEC3"
		},
		{
			"bufferView":14,
			"componentType":5126,
			"count":230,
			"type":"VEC2"
		},
		{
			"bufferView":15,
			"componentType":5123,
			"count":408,
			"type":"SCALAR"
		},
		{
			"bufferView":16,
			"componentType":5126,
			"count":32,
			"max":[
				0,
				-8,
				0
			],
			"min":[
				-10,
				-26,
				-24
			],
			"type":"VEC3"
		},
		{
			"bufferView":17,
			"componentType":5126,
			"count":32,
			"type":"VEC3"
		},
		{
			"bufferView":18,
			"componentType":5126,
			"count":32,
			"type":"VEC2"
		},
		{
			"bufferView":19,
			"componentType":5123,
			"count":60,
			"type":"SCALAR"
		}
	],
	"bufferViews":[
		{
			"buffer":0,
			"byteLength":768,
			"byteOffset":0,
			"target":34962
		},
		{
			"buffer":0,
			"byteLength":768,
			"byteOffset":768,
			"target":34962
		},
		{
			"buffer":0,
			"byteLength":512,
			"byteOffset":1536,
			"target":34962
		},
		{
			"buffer":0,
			"byteLength":228,
			"byteOffset":2048,
			"target":34963
		},
		{
			"buffer":0,
			"byteLength":888,
			"byteOffset":2276,
			"target":34962
		},
		{
			"buffer":0,
			"byteLength":888,
			"byteOffset":3164,
			"target":34962
		},
		{
			"buffer":0,
			"byteLength":592,
			"byteOffset":4052,
			"target":34962
		},
		{
			"buffer":0,
			"byteLength":240,
			"byteOffset":4644,
			"target":34963
		},
		{
			"buffer":0,
			"byteLength":5568,
			"byteOffset":4884,
			"target":34962
		},
		{
			"buffer":0,
			"byteLength":5568,
			"byteOffset":10452,
			"target":34962
		},
		{
			"buffer":0,
			"byteLength":3712,
			"byteOffset":16020,
			"target":34962
		},
		{
			"buffer":0,
			"byteLength":2160,
			"byteOffset":19732,
			"target":34963
		},
		{
			"buffer":0,
			"byteLength":2760,
			"byteOffset":21892,
			"target":34962
		},
		{
			"buffer":0,
			"byteLength":2760,
			"byteOffset":24652,
			"target":34962
		},
		{
			"buffer":0,
			"byteLength":1840,
			"byteOffset":27412,
			"target":34962
		},
		{
			"buffer":0,
			"byteLength":816,
			"byteOffset":29252,
			"target":34963
		},
		{
			"buffer":0,
			"byteLength":384,
			"byteOffset":30068,
			"target":34962
		},
		{
			"buffer":0,
			"byteLength":384,
			"byteOffset":30452,
			"target":34962
		},
		{
			"buffer":0,
			"byteLength":256,
			"byteOffset":30836,
			"target":34962
		},
		{
			"buffer":0,
			"byteLength":120,
			"byteOffset":31092,
			"target":34963
		}
	],
	"buffers":[
		{
			"byteLength":31212,
			"uri":"flingtower01.bin"
		}
	]
}
