{
	"asset":{
		"generator":"Khronos glTF Blender I/O v4.5.48",
		"version":"2.0"
	},
	"scene":0,
	"scenes":[
		{
			"name":"Scene",
			"nodes":[
				0
			]
		}
	],
	"nodes":[
		{
			"mesh":0,
			"name":"Object"
		}
	],
	"materials":[
		{
			"doubleSided":true,
			"name":"BD_EWAL03C",
			"pbrMetallicRoughness":{
				"baseColorFactor":[
					0.800000011920929,
					0.800000011920929,
					0.800000011920929,
					1
				],
				"metallicFactor":0,
				"roughnessFactor":0.5
			}
		},
		{
			"doubleSided":true,
			"name":"BD_EWAL15",
			"pbrMetallicRoughness":{
				"baseColorFactor":[
					0.800000011920929,
					0.800000011920929,
					0.800000011920929,
					1
				],
				"metallicFactor":0,
				"roughnessFactor":0.5
			}
		},
		{
			"doubleSided":true,
			"name":"BD_IBOR10",
			"pbrMetallicRoughness":{
				"baseColorFactor":[
					0.800000011920929,
					0.800000011920929,
					0.800000011920929,
					1
				],
				"metallicFactor":0,
				"roughnessFactor":0.5
			}
		},
		{
			"doubleSided":true,
			"name":"BD_ICEI01",
			"pbrMetallicRoughness":{
				"baseColorFactor":[
					0.800000011920929,
					0.800000011920929,
					0.800000011920929,
					1
				],
				"metallicFactor":0,
				"roughnessFactor":0.5
			}
		},
		{
			"doubleSided":true,
			"name":"BD_IFUNCTEC01A",
			"pbrMetallicRoughness":{
				"baseColorFactor":[
					0.800000011920929,
					0.800000011920929,
					0.800000011920929,
					1
				],
				"metallicFactor":0,
				"roughnessFactor":0.5
			}
		},
		{
			"doubleSided":true,
			"name":"BD_EBOR03",
			"pbrMetallicRoughness":{
				"baseColorFactor":[
					0.800000011920929,
					0.800000011920929,
					0.800000011920929,
					1
				],
				"metallicFactor":0,
				"roughnessFactor":0.5
			}
		},
		{
			"doubleSided":true,
			"name":"BD_IFLO01",
			"pbrMetallicRoughness":{
				"baseColorFactor":[
					0.800000011920929,
					0.800000011920929,
					0.800000011920929,
					1
				],
				"metallicFactor":0,
				"roughnessFactor":0.5
			}
		},
		{
			"doubleSided":true,
			"name":"BD_EWAL02",
			"pbrMetallicRoughness":{
				"baseColorFactor":[
					0.800000011920929,
					0.800000011920929,
					0.800000011920929,
					1
				],
				"metallicFactor":0,
				"roughnessFactor":0.5
			}
		},
		{
			"doubleSided":true,
			"name":"BD_EBOR04",
			"pbrMetallicRoughness":{
				"baseColorFactor":[
					0.800000011920929,
					0.800000011920929,
					0.800000011920929,
					1
				],
				"metallicFactor":0,
				"roughnessFactor":0.5
			}
		},
		{
			"doubleSided":true,
			"name":"BD_ICEI03",
			"pbrMetallicRoughness":{
				"baseColorFactor":[
					0.800000011920929,
					0.800000011920929,
					0.800000011920929,
					1
				],
				"metallicFactor":0,
				"roughnessFactor":0.5
			}
		},
		{
			"doubleSided":true,
			"name":"BD_ICHUTE01",
			"pbrMetallicRoughness":{
				"baseColorFactor":[
					0.800000011920929,
					0.800000011920929,
					0.800000011920929,
					1
				],
				"metallicFactor":0,
				"roughnessFactor":0.5
			}
		},
		{
			"doubleSided":true,
			"name":"BD_EWAL06A",
			"pbrMetallicRoughness":{
				"baseColorFactor":[
					0.800000011920929,
					0.800000011920929,
					0.800000011920929,
					1
				],
				"metallicFactor":0,
				"roughnessFactor":0.5
			}
		},
		{
			"doubleSided":true,
			"name":"BD_IBOR01",
			"pbrMetallicRoughness":{
				"baseColorFactor":[
					0.800000011920929,
					0.800000011920929,
					0.800000011920929,
					1
				],
				"metallicFactor":0,
				"roughnessFactor":0.5
			}
		},
		{
			"doubleSided":true,
			"name":"BD_IBOR04",
			"pbrMetallicRoughness":{
				"baseColorFactor":[
					0.800000011920929,
					0.800000011920929,
					0.800000011920929,
					1
				],
				"metallicFactor":0,
				"roughnessFactor":0.5
			}
		},
		{
			"doubleSided":true,
			"name":"BD_IBOR7",
			"pbrMetallicRoughness":{
				"baseColorFactor":[
					0.800000011920929,
					0.800000011920929,
					0.800000011920929,
					1
				],
				"metallicFactor":0,
				"roughnessFactor":0.5
			}
		},
		{
			"doubleSided":true,
			"name":"BD_ITEBOR01",
			"pbrMetallicRoughness":{
				"baseColorFactor":[
					0.800000011920929,
					0.800000011920929,
					0.800000011920929,
					1
				],
				"metallicFactor":0,
				"roughnessFactor":0.5
			}
		},
		{
			"doubleSided":true,
			"name":"BD_THRESH02A",
			"pbrMetallicRoughness":{
				"baseColorFactor":[
					0.800000011920929,
					0.800000011920929,
					0.800000011920929,
					1
				],
				"metallicFactor":0,
				"roughnessFactor":0.5
			}
		},
		{
			"doubleSided":true,
			"name":"BD_THRESH02",
			"pbrMetallicRoughness":{
				"baseColorFactor":[
					0.800000011920929,
					0.800000011920929,
					0.800000011920929,
					1
				],
				"metallicFactor":0,
				"roughnessFactor":0.5
			}
		},
		{
			"doubleSided":true,
			"name":"BD_ICEILIG03",
			"pbrMetallicRoughness":{
				"baseColorFactor":[
					0.800000011920929,
					0.800000011920929,
					0.800000011920929,
					1
				],
				"metallicFactor":0,
				"roughnessFactor":0.5
			}
		}
	],
	"meshes":[
		{
			"name":"Mesh",
			"primitives":[
				{
					"attributes":{
						"POSITION":0,
						"NORMAL":1,
						"TEXCOORD_0":2
					},
					"indices":3,
					"material":0
				},
				{
					"attributes":{
						"POSITION":4,
						"NORMAL":5,
						"TEXCOORD_0":6
					},
					"indices":7,
					"material":1
				},
				{
					"attributes":{
						"POSITION":8,
						"NORMAL":9,
						"TEXCOORD_0":10
					},
					"indices":11,
					"material":2
				},
				{
					"attributes":{
						"POSITION":12,
						"NORMAL":13,
						"TEXCOORD_0":14
					},
					"indices":15,
					"material":3
				},
				{
					"attributes":{
						"POSITION":16,
						"NORMAL":17,
						"TEXCOORD_0":18
					},
					"indices":19,
					"material":4
				},
				{
					"attributes":{
						"POSITION":20,
						"NORMAL":21,
						"TEXCOORD_0":22
					},
					"indices":23,
					"material":5
				},
				{
					"attributes":{
						"POSITION":24,
						"NORMAL":25,
						"TEXCOORD_0":26
					},
					"indices":27,
					"material":6
				},
				{
					"attributes":{
						"POSITION":28,
						"NORMAL":29,
						"TEXCOORD_0":30
					},
					"indices":31,
					"material":7
				},
				{
					"attributes":{
						"POSITION":32,
						"NORMAL":33,
						"TEXCOORD_0":34
					},
					"indices":35,
					"material":8
				},
				{
					"attributes":{
						"POSITION":36,
						"NORMAL":37,
						"TEXCOORD_0":38
					},
					"indices":39,
					"material":9
				},
				{
					"attributes":{
						"POSITION":40,
						"NORMAL":41,
						"TEXCOORD_0":42
					},
					"indices":43,
					"material":10
				},
				{
					"attributes":{
						"POSITION":44,
						"NORMAL":45,
						"TEXCOORD_0":46
					},
					"indices":47,
					"material":11
				},
				{
					"attributes":{
						"POSITION":48,
						"NORMAL":49,
						"TEXCOORD_0":50
					},
					"indices":51,
					"material":12
				},
				{
					"attributes":{
						"POSITION":52,
						"NORMAL":53,
						"TEXCOORD_0":54
					},
					"indices":55,
					"material":13
				},
				{
					"attributes":{
						"POSITION":56,
						"NORMAL":57,
						"TEXCOORD_0":58
					},
					"indices":59,
					"material":14
				},
				{
					"attributes":{
						"POSITION":60,
						"NORMAL":61,
						"TEXCOORD_0":62
					},
					"indices":63,
					"material":15
				},
				{
					"attributes":{
						"POSITION":64,
						"NORMAL":65,
						"TEXCOORD_0":66
					},
					"indices":67,
					"material":16
				},
				{
					"attributes":{
						"POSITION":68,
						"NORMAL":69,
						"TEXCOORD_0":70
					},
					"indices":71,
					"material":17
				},
				{
					"attributes":{
						"POSITION":72,
						"NORMAL":73,
						"TEXCOORD_0":74
					},
					"indices":75,
					"material":18
				}
			]
		}
	],
	"accessors":[
		{
			"bufferView":0,
			"componentType":5126,
			"count":944,
			"max":[
				14,
				62,
				24.5
			],
			"min":[
				-14.5,
				-10,
				-32.5
			],
			"type":"VEC3"
		},
		{
			"bufferView":1,
			"componentType":5126,
			"count":944,
			"type":"VEC3"
		},
		{
			"bufferView":2,
			"componentType":5126,
			"count":944,
			"type":"VEC2"
		},
		{
			"bufferView":3,
			"componentType":5123,
			"count":2208,
			"type":"SCALAR"
		},
		{
			"bufferView":4,
			"componentType":5126,
			"count":52,
			"max":[
				7.5,
				21,
				20
			],
			"min":[
				-8,
				-24,
				-16
			],
			"type":"VEC3"
		},
		{
			"bufferView":5,
			"componentType":5126,
			"count":52,
			"type":"VEC3"
		},
		{
			"bufferView":6,
			"componentType":5126,
			"count":52,
			"type":"VEC2"
		},
		{
			"bufferView":7,
			"componentType":5123,
			"count":84,
			"type":"SCALAR"
		},
		{
			"bufferView":8,
			"componentType":5126,
			"count":650,
			"max":[
				13.5,
				62,
				26.5
			],
			"min":[
				-14,
				-29,
				-15
			],
			"type":"VEC3"
		},
		{
			"bufferView":9,
			"componentType":5126,
			"count":650,
			"type":"VEC3"
		},
		{
			"bufferView":10,
			"componentType":5126,
			"count":650,
			"type":"VEC2"
		},
		{
			"bufferView":11,
			"componentType":5123,
			"count":1224,
			"type":"SCALAR"
		},
		{
			"bufferView":12,
			"componentType":5126,
			"count":136,
			"max":[
				13,
				42,
				20
			],
			"min":[
				-13.5,
				-26,
				-31.5
			],
			"type":"VEC3"
		},
		{
			"bufferView":13,
			"componentType":5126,
			"count":136,
			"type":"VEC3"
		},
		{
			"bufferView":14,
			"componentType":5126,
			"count":136,
			"type":"VEC2"
		},
		{
			"bufferView":15,
			"componentType":5123,
			"count":210,
			"type":"SCALAR"
		},
		{
			"bufferView":16,
			"componentType":5126,
			"count":34,
			"max":[
				6,
				-8,
				18.5
			],
			"min":[
				-6.5,
				-9,
				-14.5
			],
			"type":"VEC3"
		},
		{
			"bufferView":17,
			"componentType":5126,
			"count":34,
			"type":"VEC3"
		},
		{
			"bufferView":18,
			"componentType":5126,
			"count":34,
			"type":"VEC2"
		},
		{
			"bufferView":19,
			"componentType":5123,
			"count":54,
			"type":"SCALAR"
		},
		{
			"bufferView":20,
			"componentType":5126,
			"count":182,
			"max":[
				7,
				60,
				25
			],
			"min":[
				-7.5,
				0,
				-5
			],
			"type":"VEC3"
		},
		{
			"bufferView":21,
			"componentType":5126,
			"count":182,
			"type":"VEC3"
		},
		{
			"bufferView":22,
			"componentType":5126,
			"count":182,
			"type":"VEC2"
		},
		{
			"bufferView":23,
			"componentType":5123,
			"count":342,
			"type":"SCALAR"
		},
		{
			"bufferView":24,
			"componentType":5126,
			"count":78,
			"max":[
				13,
				44,
				19
			],
			"min":[
				-13.5,
				12,
				-31.5
			],
			"type":"VEC3"
		},
		{
			"bufferView":25,
			"componentType":5126,
			"count":78,
			"type":"VEC3"
		},
		{
			"bufferView":26,
			"componentType":5126,
			"count":78,
			"type":"VEC2"
		},
		{
			"bufferView":27,
			"componentType":5123,
			"count":216,
			"type":"SCALAR"
		},
		{
			"bufferView":28,
			"componentType":5126,
			"count":70,
			"max":[
				5,
				54,
				19
			],
			"min":[
				-5.5,
				12,
				-4.5
			],
			"type":"VEC3"
		},
		{
			"bufferView":29,
			"componentType":5126,
			"count":70,
			"type":"VEC3"
		},
		{
			"bufferView":30,
			"componentType":5126,
			"count":70,
			"type":"VEC2"
		},
		{
			"bufferView":31,
			"componentType":5123,
			"count":210,
			"type":"SCALAR"
		},
		{
			"bufferView":32,
			"componentType":5126,
			"count":94,
			"max":[
				6,
				58,
				24.5
			],
			"min":[
				-6.5,
				12,
				-15
			],
			"type":"VEC3"
		},
		{
			"bufferView":33,
			"componentType":5126,
			"count":94,
			"type":"VEC3"
		},
		{
			"bufferView":34,
			"componentType":5126,
			"count":94,
			"type":"VEC2"
		},
		{
			"bufferView":35,
			"componentType":5123,
			"count":156,
			"type":"SCALAR"
		},
		{
			"bufferView":36,
			"componentType":5126,
			"count":234,
			"max":[
				8,
				55.5,
				19.5
			],
			"min":[
				-8.5,
				12,
				-6.5
			],
			"type":"VEC3"
		},
		{
			"bufferView":37,
			"componentType":5126,
			"count":234,
			"type":"VEC3"
		},
		{
			"bufferView":38,
			"componentType":5126,
			"count":234,
			"type":"VEC2"
		},
		{
			"bufferView":39,
			"componentType":5123,
			"count":486,
			"type":"SCALAR"
		},
		{
			"bufferView":40,
			"componentType":5126,
			"count":44,
			"max":[
				5,
				54,
				18.5
			],
			"min":[
				-5.5,
				12,
				5.5
			],
			"type":"VEC3"
		},
		{
			"bufferView":41,
			"componentType":5126,
			"count":44,
			"type":"VEC3"
		},
		{
			"bufferView":42,
			"componentType":5126,
			"count":44,
			"type":"VEC2"
		},
		{
			"bufferView":43,
			"componentType":5123,
			"count":84,
			"type":"SCALAR"
		},
		{
			"bufferView":44,
			"componentType":5126,
			"count":8,
			"max":[
				6,
				42,
				24.5
			],
			"min":[
				-6.5,
				38,
				20.5
			],
			"type":"VEC3"
		},
		{
			"bufferView":45,
			"componentType":5126,
			"count":8,
			"type":"VEC3"
		},
		{
			"bufferView":46,
			"componentType":5126,
			"count":8,
			"type":"VEC2"
		},
		{
			"bufferView":47,
			"componentType":5123,
			"count":18,
			"type":"SCALAR"
		},
		{
			"bufferView":48,
			"componentType":5126,
			"count":32,
			"max":[
				4.5,
				22,
				4
			],
			"min":[
				-5,
				21,
				-3
			],
			"type":"VEC3"
		},
		{
			"bufferView":49,
			"componentType":5126,
			"count":32,
			"type":"VEC3"
		},
		{
			"bufferView":50,
			"componentType":5126,
			"count":32,
			"type":"VEC2"
		},
		{
			"bufferView":51,
			"componentType":5123,
			"count":48,
			"type":"SCALAR"
		},
		{
			"bufferView":52,
			"componentType":5126,
			"count":66,
			"max":[
				5,
				59,
				23.5
			],
			"min":[
				-5.5,
				54,
				13.5
			],
			"type":"VEC3"
		},
		{
			"bufferView":53,
			"componentType":5126,
			"count":66,
			"type":"VEC3"
		},
		{
			"bufferView":54,
			"componentType":5126,
			"count":66,
			"type":"VEC2"
		},
		{
			"bufferView":55,
			"componentType":5123,
			"count":108,
			"type":"SCALAR"
		},
		{
			"bufferView":56,
			"componentType":5126,
			"count":56,
			"max":[
				8,
				43,
				11.5
			],
			"min":[
				-8.5,
				27,
				-4
			],
			"type":"VEC3"
		},
		{
			"bufferView":57,
			"componentType":5126,
			"count":56,
			"type":"VEC3"
		},
		{
			"bufferView":58,
			"componentType":5126,
			"count":56,
			"type":"VEC2"
		},
		{
			"bufferView":59,
			"componentType":5123,
			"count":84,
			"type":"SCALAR"
		},
		{
			"bufferView":60,
			"componentType":5126,
			"count":100,
			"max":[
				14,
				45,
				-12.5
			],
			"min":[
				-14.5,
				37,
				-32.5
			],
			"type":"VEC3"
		},
		{
			"bufferView":61,
			"componentType":5126,
			"count":100,
			"type":"VEC3"
		},
		{
			"bufferView":62,
			"componentType":5126,
			"count":100,
			"type":"VEC2"
		},
		{
			"bufferView":63,
			"componentType":5123,
			"count":168,
			"type":"SCALAR"
		},
		{
			"bufferView":64,
			"componentType":5126,
			"count":36,
			"max":[
				3,
				21.5,
				9.5
			],
			"min":[
				-3,
				21.5,
				-1.5
			],
			"type":"VEC3"
		},
		{
			"bufferView":65,
			"componentType":5126,
			"count":36,
			"type":"VEC3"
		},
		{
			"bufferView":66,
			"componentType":5126,
			"count":36,
			"type":"VEC2"
		},
		{
			"bufferView":67,
			"componentType":5123,
			"count":96,
			"type":"SCALAR"
		},
		{
			"bufferView":68,
			"componentType":5126,
			"count":24,
			"max":[
				4,
				38,
				-18.5
			],
			"min":[
				-4,
				37,
				-26.5
			],
			"type":"VEC3"
		},
		{
			"bufferView":69,
			"componentType":5126,
			"count":24,
			"type":"VEC3"
		},
		{
			"bufferView":70,
			"componentType":5126,
			"count":24,
			"type":"VEC2"
		},
		{
			"bufferView":71,
			"componentType":5123,
			"count":24,
			"type":"SCALAR"
		},
		{
			"bufferView":72,
			"componentType":5126,
			"count":4,
			"max":[
				2,
				37,
				-20.5
			],
			"min":[
				-2,
				37,
				-24.5
			],
			"type":"VEC3"
		},
		{
			"bufferView":73,
			"componentType":5126,
			"count":4,
			"type":"VEC3"
		},
		{
			"bufferView":74,
			"componentType":5126,
			"count":4,
			"type":"VEC2"
		},
		{
			"bufferView":75,
			"componentType":5123,
			"count":6,
			"type":"SCALAR"
		}
	],
	"bufferViews":[
		{
			"buffer":0,
			"byteLength":11328,
			"byteOffset":0,
			"target":34962
		},
		{
			"buffer":0,
			"byteLength":11328,
			"byteOffset":11328,
			"target":34962
		},
		{
			"buffer":0,
			"byteLength":7552,
			"byteOffset":22656,
			"target":34962
		},
		{
			"buffer":0,
			"byteLength":4416,
			"byteOffset":30208,
			"target":34963
		},
		{
			"buffer":0,
			"byteLength":624,
			"byteOffset":34624,
			"target":34962
		},
		{
			"buffer":0,
			"byteLength":624,
			"byteOffset":35248,
			"target":34962
		},
		{
			"buffer":0,
			"byteLength":416,
			"byteOffset":35872,
			"target":34962
		},
		{
			"buffer":0,
			"byteLength":168,
			"byteOffset":36288,
			"target":34963
		},
		{
			"buffer":0,
			"byteLength":7800,
			"byteOffset":36456,
			"target":34962
		},
		{
			"buffer":0,
			"byteLength":7800,
			"byteOffset":44256,
			"target":34962
		},
		{
			"buffer":0,
			"byteLength":5200,
			"byteOffset":52056,
			"target":34962
		},
		{
			"buffer":0,
			"byteLength":2448,
			"byteOffset":57256,
			"target":34963
		},
		{
			"buffer":0,
			"byteLength":1632,
			"byteOffset":59704,
			"target":34962
		},
		{
			"buffer":0,
			"byteLength":1632,
			"byteOffset":61336,
			"target":34962
		},
		{
			"buffer":0,
			"byteLength":1088,
			"byteOffset":62968,
			"target":34962
		},
		{
			"buffer":0,
			"byteLength":420,
			"byteOffset":64056,
			"target":34963
		},
		{
			"buffer":0,
			"byteLength":408,
			"byteOffset":64476,
			"target":34962
		},
		{
			"buffer":0,
			"byteLength":408,
			"byteOffset":64884,
			"target":34962
		},
		{
			"buffer":0,
			"byteLength":272,
			"byteOffset":65292,
			"target":34962
		},
		{
			"buffer":0,
			"byteLength":108,
			"byteOffset":65564,
			"target":34963
		},
		{
			"buffer":0,
			"byteLength":2184,
			"byteOffset":65672,
			"target":34962
		},
		{
			"buffer":0,
			"byteLength":2184,
			"byteOffset":67856,
			"target":34962
		},
		{
			"buffer":0,
			"byteLength":1456,
			"byteOffset":70040,
			"target":34962
		},
		{
			"buffer":0,
			"byteLength":684,
			"byteOffset":71496,
			"target":34963
		},
		{
			"buffer":0,
			"byteLength":936,
			"byteOffset":72180,
			"target":34962
		},
		{
			"buffer":0,
			"byteLength":936,
			"byteOffset":73116,
			"target":34962
		},
		{
			"buffer":0,
			"byteLength":624,
			"byteOffset":74052,
			"target":34962
		},
		{
			"buffer":0,
			"byteLength":432,
			"byteOffset":74676,
			"target":34963
		},
		{
			"buffer":0,
			"byteLength":840,
			"byteOffset":75108,
			"target":34962
		},
		{
			"buffer":0,
			"byteLength":840,
			"byteOffset":75948,
			"target":34962
		},
		{
			"buffer":0,
			"byteLength":560,
			"byteOffset":76788,
			"target":34962
		},
		{
			"buffer":0,
			"byteLength":420,
			"byteOffset":77348,
			"target":34963
		},
		{
			"buffer":0,
			"byteLength":1128,
			"byteOffset":77768,
			"target":34962
		},
		{
			"buffer":0,
			"byteLength":1128,
			"byteOffset":78896,
			"target":34962
		},
		{
			"buffer":0,
			"byteLength":752,
			"byteOffset":80024,
			"target":34962
		},
		{
			"buffer":0,
			"byteLength":312,
			"byteOffset":80776,
			"target":34963
		},
		{
			"buffer":0,
			"byteLength":2808,
			"byteOffset":81088,
			"target":34962
		},
		{
			"buffer":0,
			"byteLength":2808,
			"byteOffset":83896,
			"target":34962
		},
		{
			"buffer":0,
			"byteLength":1872,
			"byteOffset":86704,
			"target":34962
		},
		{
			"buffer":0,
			"byteLength":972,
			"byteOffset":88576,
			"target":34963
		},
		{
			"buffer":0,
			"byteLength":528,
			"byteOffset":89548,
			"target":34962
		},
		{
			"buffer":0,
			"byteLength":528,
			"byteOffset":90076,
			"target":34962
		},
		{
			"buffer":0,
			"byteLength":352,
			"byteOffset":90604,
			"target":34962
		},
		{
			"buffer":0,
			"byteLength":168,
			"byteOffset":90956,
			"target":34963
		},
		{
			"buffer":0,
			"byteLength":96,
			"byteOffset":91124,
			"target":34962
		},
		{
			"buffer":0,
			"byteLength":96,
			"byteOffset":91220,
			"target":34962
		},
		{
			"buffer":0,
			"byteLength":64,
			"byteOffset":91316,
			"target":34962
		},
		{
			"buffer":0,
			"byteLength":36,
			"byteOffset":91380,
			"target":34963
		},
		{
			"buffer":0,
			"byteLength":384,
			"byteOffset":91416,
			"target":34962
		},
		{
			"buffer":0,
			"byteLength":384,
			"byteOffset":91800,
			"target":34962
		},
		{
			"buffer":0,
			"byteLength":256,
			"byteOffset":92184,
			"target":34962
		},
		{
			"buffer":0,
			"byteLength":96,
			"byteOffset":92440,
			"target":34963
		},
		{
			"buffer":0,
			"byteLength":792,
			"byteOffset":92536,
			"target":34962
		},
		{
			"buffer":0,
			"byteLength":792,
			"byteOffset":93328,
			"target":34962
		},
		{
			"buffer":0,
			"byteLength":528,
			"byteOffset":94120,
			"target":34962
		},
		{
			"buffer":0,
			"byteLength":216,
			"byteOffset":94648,
			"target":34963
		},
		{
			"buffer":0,
			"byteLength":672,
			"byteOffset":94864,
			"target":34962
		},
		{
			"buffer":0,
			"byteLength":672,
			"byteOffset":95536,
			"target":34962
		},
		{
			"buffer":0,
			"byteLength":448,
			"byteOffset":96208,
			"target":34962
		},
		{
			"buffer":0,
			"byteLength":168,
			"byteOffset":96656,
			"target":34963
		},
		{
			"buffer":0,
			"byteLength":1200,
			"byteOffset":96824,
			"target":34962
		},
		{
			"buffer":0,
			"byteLength":1200,
			"byteOffset":98024,
			"target":34962
		},
		{
			"buffer":0,
			"byteLength":800,
			"byteOffset":99224,
			"target":34962
		},
		{
			"buffer":0,
			"byteLength":336,
			"byteOffset":100024,
			"target":34963
		},
		{
			"buffer":0,
			"byteLength":432,
			"byteOffset":100360,
			"target":34962
		},
		{
			"buffer":0,
			"byteLength":432,
			"byteOffset":100792,
			"target":34962
		},
		{
			"buffer":0,
			"byteLength":288,
			"byteOffset":101224,
			"target":34962
		},
		{
			"buffer":0,
			"byteLength":192,
			"byteOffset":101512,
			"target":34963
		},
		{
			"buffer":0,
			"byteLength":288,
			"byteOffset":101704,
			"target":34962
		},
		{
			"buffer":0,
			"byteLength":288,
			"byteOffset":101992,
			"target":34962
		},
		{
			"buffer":0,
			"byteLength":192,
			"byteOffset":102280,
			"target":34962
		},
		{
			"buffer":0,
			"byteLength":48,
			"byteOffset":102472,
			"target":34963
		},
		{
			"buffer":0,
			"byteLength":48,
			"byteOffset":102520,
			"target":34962
		},
		{
			"buffer":0,
			"byteLength":48,
			"byteOffset":102568,
			"target":34962
		},
		{
			"buffer":0,
			"byteLength":32,
			"byteOffset":102616,
			"target":34962
		},
		{
			"buffer":0,
			"byteLength":12,
			"byteOffset":102648,
			"target":34963
		}
	],
	"buffers":[
		{
			"byteLength":102660,
			"uri":"rst_derm_snipenest.bin"
		}
	]
}
