{
	"asset":{
		"generator":"Khronos glTF Blender I/O v4.5.48",
		"version":"2.0"
	},
	"scene":0,
	"scenes":[
		{
			"name":"Scene",
			"nodes":[
				0
			]
		}
	],
	"nodes":[
		{
			"mesh":0,
			"name":"Object"
		}
	],
	"materials":[
		{
			"doubleSided":true,
			"name":"BD_EWAL03C",
			"pbrMetallicRoughness":{
				"baseColorFactor":[
					0.800000011920929,
					0.800000011920929,
					0.800000011920929,
					1
				],
				"metallicFactor":0,
				"roughnessFactor":0.5
			}
		},
		{
			"doubleSided":true,
			"name":"BD_THRESH02",
			"pbrMetallicRoughness":{
				"baseColorFactor":[
					0.800000011920929,
					0.800000011920929,
					0.800000011920929,
					1
				],
				"metallicFactor":0,
				"roughnessFactor":0.5
			}
		},
		{
			"doubleSided":true,
			"name":"BD_EWAL07",
			"pbrMetallicRoughness":{
				"baseColorFactor":[
					0.800000011920929,
					0.800000011920929,
					0.800000011920929,
					1
				],
				"metallicFactor":0,
				"roughnessFactor":0.5
			}
		},
		{
			"doubleSided":true,
			"name":"BD_IFLO01",
			"pbrMetallicRoughness":{
				"baseColorFactor":[
					0.800000011920929,
					0.800000011920929,
					0.800000011920929,
					1
				],
				"metallicFactor":0,
				"roughnessFactor":0.5
			}
		},
		{
			"doubleSided":true,
			"name":"BD_EWAL04",
			"pbrMetallicRoughness":{
				"baseColorFactor":[
					0.800000011920929,
					0.800000011920929,
					0.800000011920929,
					1
				],
				"metallicFactor":0,
				"roughnessFactor":0.5
			}
		},
		{
			"doubleSided":true,
			"name":"BD_IBOR10",
			"pbrMetallicRoughness":{
				"baseColorFactor":[
					0.800000011920929,
					0.800000011920929,
					0.800000011920929,
					1
				],
				"metallicFactor":0,
				"roughnessFactor":0.5
			}
		},
		{
			"doubleSided":true,
			"name":"BD_ICEI03",
			"pbrMetallicRoughness":{
				"baseColorFactor":[
					0.800000011920929,
					0.800000011920929,
					0.800000011920929,
					1
				],
				"metallicFactor":0,
				"roughnessFactor":0.5
			}
		},
		{
			"doubleSided":true,
			"name":"BD_THRESH02A",
			"pbrMetallicRoughness":{
				"baseColorFactor":[
					0.800000011920929,
					0.800000011920929,
					0.800000011920929,
					1
				],
				"metallicFactor":0,
				"roughnessFactor":0.5
			}
		},
		{
			"doubleSided":true,
			"name":"BD_IBOR05",
			"pbrMetallicRoughness":{
				"baseColorFactor":[
					0.800000011920929,
					0.800000011920929,
					0.800000011920929,
					1
				],
				"metallicFactor":0,
				"roughnessFactor":0.5
			}
		},
		{
			"doubleSided":true,
			"name":"BD_ITEC03",
			"pbrMetallicRoughness":{
				"baseColorFactor":[
					0.800000011920929,
					0.800000011920929,
					0.800000011920929,
					1
				],
				"metallicFactor":0,
				"roughnessFactor":0.5
			}
		}
	],
	"meshes":[
		{
			"name":"Mesh",
			"primitives":[
				{
					"attributes":{
						"POSITION":0,
						"NORMAL":1,
						"TEXCOORD_0":2
					},
					"indices":3,
					"material":0
				},
				{
					"attributes":{
						"POSITION":4,
						"NORMAL":5,
						"TEXCOORD_0":6
					},
					"indices":7,
					"material":1
				},
				{
					"attributes":{
						"POSITION":8,
						"NORMAL":9,
						"TEXCOORD_0":10
					},
					"indices":11,
					"material":2
				},
				{
					"attributes":{
						"POSITION":12,
						"NORMAL":13,
						"TEXCOORD_0":14
					},
					"indices":15,
					"material":3
				},
				{
					"attributes":{
						"POSITION":16,
						"NORMAL":17,
						"TEXCOORD_0":18
					},
					"indices":19,
					"material":4
				},
				{
					"attributes":{
						"POSITION":20,
						"NORMAL":21,
						"TEXCOORD_0":22
					},
					"indices":23,
					"material":5
				},
				{
					"attributes":{
						"POSITION":24,
						"NORMAL":25,
						"TEXCOORD_0":26
					},
					"indices":27,
					"material":6
				},
				{
					"attributes":{
						"POSITION":28,
						"NORMAL":29,
						"TEXCOORD_0":30
					},
					"indices":31,
					"material":7
				},
				{
					"attributes":{
						"POSITION":32,
						"NORMAL":33,
						"TEXCOORD_0":34
					},
					"indices":35,
					"material":8
				},
				{
					"attributes":{
						"POSITION":36,
						"NORMAL":37,
						"TEXCOORD_0":38
					},
					"indices":39,
					"material":9
				}
			]
		}
	],
	"accessors":[
		{
			"bufferView":0,
			"componentType":5126,
			"count":218,
			"max":[
				3,
				-5,
				3
			],
			"min":[
				-3,
				-7.5,
				-3
			],
			"type":"VEC3"
		},
		{
			"bufferView":1,
			"componentType":5126,
			"count":218,
			"type":"VEC3"
		},
		{
			"bufferView":2,
			"componentType":5126,
			"count":218,
			"type":"VEC2"
		},
		{
			"bufferView":3,
			"componentType":5123,
			"count":402,
			"type":"SCALAR"
		},
		{
			"bufferView":4,
			"componentType":5126,
			"count":68,
			"max":[
				3,
				-5,
				3
			],
			"min":[
				-3,
				-6,
				-3
			],
			"type":"VEC3"
		},
		{
			"bufferView":5,
			"componentType":5126,
			"count":68,
			"type":"VEC3"
		},
		{
			"bufferView":6,
			"componentType":5126,
			"count":68,
			"type":"VEC2"
		},
		{
			"bufferView":7,
			"componentType":5123,
			"count":144,
			"type":"SCALAR"
		},
		{
			"bufferView":8,
			"componentType":5126,
			"count":24,
			"max":[
				2.5,
				-6,
				2
			],
			"min":[
				-2.5,
				-6,
				-2
			],
			"type":"VEC3"
		},
		{
			"bufferView":9,
			"componentType":5126,
			"count":24,
			"type":"VEC3"
		},
		{
			"bufferView":10,
			"componentType":5126,
			"count":24,
			"type":"VEC2"
		},
		{
			"bufferView":11,
			"componentType":5123,
			"count":72,
			"type":"SCALAR"
		},
		{
			"bufferView":12,
			"componentType":5126,
			"count":4,
			"max":[
				2,
				-5.5,
				2
			],
			"min":[
				-2,
				-5.5,
				-2
			],
			"type":"VEC3"
		},
		{
			"bufferView":13,
			"componentType":5126,
			"count":4,
			"type":"VEC3"
		},
		{
			"bufferView":14,
			"componentType":5126,
			"count":4,
			"type":"VEC2"
		},
		{
			"bufferView":15,
			"componentType":5123,
			"count":6,
			"type":"SCALAR"
		},
		{
			"bufferView":16,
			"componentType":5126,
			"count":20,
			"max":[
				2.5,
				-5.5,
				2
			],
			"min":[
				-2.5,
				-6,
				-2
			],
			"type":"VEC3"
		},
		{
			"bufferView":17,
			"componentType":5126,
			"count":20,
			"type":"VEC3"
		},
		{
			"bufferView":18,
			"componentType":5126,
			"count":20,
			"type":"VEC2"
		},
		{
			"bufferView":19,
			"componentType":5123,
			"count":48,
			"type":"SCALAR"
		},
		{
			"bufferView":20,
			"componentType":5126,
			"count":48,
			"max":[
				0.5,
				-6.5,
				3
			],
			"min":[
				-0.5,
				-9.5,
				-3
			],
			"type":"VEC3"
		},
		{
			"bufferView":21,
			"componentType":5126,
			"count":48,
			"type":"VEC3"
		},
		{
			"bufferView":22,
			"componentType":5126,
			"count":48,
			"type":"VEC2"
		},
		{
			"bufferView":23,
			"componentType":5123,
			"count":72,
			"type":"SCALAR"
		},
		{
			"bufferView":24,
			"componentType":5126,
			"count":84,
			"max":[
				1.5,
				-8,
				3.5
			],
			"min":[
				-1.5,
				-10.5,
				-3.5
			],
			"type":"VEC3"
		},
		{
			"bufferView":25,
			"componentType":5126,
			"count":84,
			"type":"VEC3"
		},
		{
			"bufferView":26,
			"componentType":5126,
			"count":84,
			"type":"VEC2"
		},
		{
			"bufferView":27,
			"componentType":5123,
			"count":144,
			"type":"SCALAR"
		},
		{
			"bufferView":28,
			"componentType":5126,
			"count":12,
			"max":[
				1.5,
				-9,
				3.5
			],
			"min":[
				-1.5,
				-10.5,
				-3.5
			],
			"type":"VEC3"
		},
		{
			"bufferView":29,
			"componentType":5126,
			"count":12,
			"type":"VEC3"
		},
		{
			"bufferView":30,
			"componentType":5126,
			"count":12,
			"type":"VEC2"
		},
		{
			"bufferView":31,
			"componentType":5123,
			"count":18,
			"type":"SCALAR"
		},
		{
			"bufferView":32,
			"componentType":5126,
			"count":36,
			"max":[
				1.5,
				-8,
				3.5
			],
			"min":[
				-1.5,
				-10.5,
				-3.5
			],
			"type":"VEC3"
		},
		{
			"bufferView":33,
			"componentType":5126,
			"count":36,
			"type":"VEC3"
		},
		{
			"bufferView":34,
			"componentType":5126,
			"count":36,
			"type":"VEC2"
		},
		{
			"bufferView":35,
			"componentType":5123,
			"count":72,
			"type":"SCALAR"
		},
		{
			"bufferView":36,
			"componentType":5126,
			"count":10,
			"max":[
				1.5,
				-6,
				0.5
			],
			"min":[
				-1.5,
				-7,
				-0.5
			],
			"type":"VEC3"
		},
		{
			"bufferView":37,
			"componentType":5126,
			"count":10,
			"type":"VEC3"
		},
		{
			"bufferView":38,
			"componentType":5126,
			"count":10,
			"type":"VEC2"
		},
		{
			"bufferView":39,
			"componentType":5123,
			"count":18,
			"type":"SCALAR"
		}
	],
	"bufferViews":[
		{
			"buffer":0,
			"byteLength":2616,
			"byteOffset":0,
			"target":34962
		},
		{
			"buffer":0,
			"byteLength":2616,
			"byteOffset":2616,
			"target":34962
		},
		{
			"buffer":0,
			"byteLength":1744,
			"byteOffset":5232,
			"target":34962
		},
		{
			"buffer":0,
			"byteLength":804,
			"byteOffset":6976,
			"target":34963
		},
		{
			"buffer":0,
			"byteLength":816,
			"byteOffset":7780,
			"target":34962
		},
		{
			"buffer":0,
			"byteLength":816,
			"byteOffset":8596,
			"target":34962
		},
		{
			"buffer":0,
			"byteLength":544,
			"byteOffset":9412,
			"target":34962
		},
		{
			"buffer":0,
			"byteLength":288,
			"byteOffset":9956,
			"target":34963
		},
		{
			"buffer":0,
			"byteLength":288,
			"byteOffset":10244,
			"target":34962
		},
		{
			"buffer":0,
			"byteLength":288,
			"byteOffset":10532,
			"target":34962
		},
		{
			"buffer":0,
			"byteLength":192,
			"byteOffset":10820,
			"target":34962
		},
		{
			"buffer":0,
			"byteLength":144,
			"byteOffset":11012,
			"target":34963
		},
		{
			"buffer":0,
			"byteLength":48,
			"byteOffset":11156,
			"target":34962
		},
		{
			"buffer":0,
			"byteLength":48,
			"byteOffset":11204,
			"target":34962
		},
		{
			"buffer":0,
			"byteLength":32,
			"byteOffset":11252,
			"target":34962
		},
		{
			"buffer":0,
			"byteLength":12,
			"byteOffset":11284,
			"target":34963
		},
		{
			"buffer":0,
			"byteLength":240,
			"byteOffset":11296,
			"target":34962
		},
		{
			"buffer":0,
			"byteLength":240,
			"byteOffset":11536,
			"target":34962
		},
		{
			"buffer":0,
			"byteLength":160,
			"byteOffset":11776,
			"target":34962
		},
		{
			"buffer":0,
			"byteLength":96,
			"byteOffset":11936,
			"target":34963
		},
		{
			"buffer":0,
			"byteLength":576,
			"byteOffset":12032,
			"target":34962
		},
		{
			"buffer":0,
			"byteLength":576,
			"byteOffset":12608,
			"target":34962
		},
		{
			"buffer":0,
			"byteLength":384,
			"byteOffset":13184,
			"target":34962
		},
		{
			"buffer":0,
			"byteLength":144,
			"byteOffset":13568,
			"target":34963
		},
		{
			"buffer":0,
			"byteLength":1008,
			"byteOffset":13712,
			"target":34962
		},
		{
			"buffer":0,
			"byteLength":1008,
			"byteOffset":14720,
			"target":34962
		},
		{
			"buffer":0,
			"byteLength":672,
			"byteOffset":15728,
			"target":34962
		},
		{
			"buffer":0,
			"byteLength":288,
			"byteOffset":16400,
			"target":34963
		},
		{
			"buffer":0,
			"byteLength":144,
			"byteOffset":16688,
			"target":34962
		},
		{
			"buffer":0,
			"byteLength":144,
			"byteOffset":16832,
			"target":34962
		},
		{
			"buffer":0,
			"byteLength":96,
			"byteOffset":16976,
			"target":34962
		},
		{
			"buffer":0,
			"byteLength":36,
			"byteOffset":17072,
			"target":34963
		},
		{
			"buffer":0,
			"byteLength":432,
			"byteOffset":17108,
			"target":34962
		},
		{
			"buffer":0,
			"byteLength":432,
			"byteOffset":17540,
			"target":34962
		},
		{
			"buffer":0,
			"byteLength":288,
			"byteOffset":17972,
			"target":34962
		},
		{
			"buffer":0,
			"byteLength":144,
			"byteOffset":18260,
			"target":34963
		},
		{
			"buffer":0,
			"byteLength":120,
			"byteOffset":18404,
			"target":34962
		},
		{
			"buffer":0,
			"byteLength":120,
			"byteOffset":18524,
			"target":34962
		},
		{
			"buffer":0,
			"byteLength":80,
			"byteOffset":18644,
			"target":34962
		},
		{
			"buffer":0,
			"byteLength":36,
			"byteOffset":18724,
			"target":34963
		}
	],
	"buffers":[
		{
			"byteLength":18760,
			"uri":"rst_derm_turretbase.bin"
		}
	]
}
