{
	"asset":{
		"generator":"Khronos glTF Blender I/O v4.5.48",
		"version":"2.0"
	},
	"scene":0,
	"scenes":[
		{
			"name":"Scene",
			"nodes":[
				0
			]
		}
	],
	"nodes":[
		{
			"mesh":0,
			"name":"Object"
		}
	],
	"materials":[
		{
			"doubleSided":true,
			"name":"BD_IBOR03",
			"pbrMetallicRoughness":{
				"baseColorFactor":[
					0.800000011920929,
					0.800000011920929,
					0.800000011920929,
					1
				],
				"metallicFactor":0,
				"roughnessFactor":0.5
			}
		},
		{
			"doubleSided":true,
			"name":"BD_IBOR04",
			"pbrMetallicRoughness":{
				"baseColorFactor":[
					0.800000011920929,
					0.800000011920929,
					0.800000011920929,
					1
				],
				"metallicFactor":0,
				"roughnessFactor":0.5
			}
		},
		{
			"doubleSided":true,
			"name":"BD_EWAL13A",
			"pbrMetallicRoughness":{
				"baseColorFactor":[
					0.800000011920929,
					0.800000011920929,
					0.800000011920929,
					1
				],
				"metallicFactor":0,
				"roughnessFactor":0.5
			}
		},
		{
			"doubleSided":true,
			"name":"BD_ECOL01A",
			"pbrMetallicRoughness":{
				"baseColorFactor":[
					0.800000011920929,
					0.800000011920929,
					0.800000011920929,
					1
				],
				"metallicFactor":0,
				"roughnessFactor":0.5
			}
		},
		{
			"doubleSided":true,
			"name":"BD_IFLO01",
			"pbrMetallicRoughness":{
				"baseColorFactor":[
					0.800000011920929,
					0.800000011920929,
					0.800000011920929,
					1
				],
				"metallicFactor":0,
				"roughnessFactor":0.5
			}
		},
		{
			"doubleSided":true,
			"name":"BD_IBOR10",
			"pbrMetallicRoughness":{
				"baseColorFactor":[
					0.800000011920929,
					0.800000011920929,
					0.800000011920929,
					1
				],
				"metallicFactor":0,
				"roughnessFactor":0.5
			}
		},
		{
			"doubleSided":true,
			"name":"BD_IBOR9",
			"pbrMetallicRoughness":{
				"baseColorFactor":[
					0.800000011920929,
					0.800000011920929,
					0.800000011920929,
					1
				],
				"metallicFactor":0,
				"roughnessFactor":0.5
			}
		},
		{
			"doubleSided":true,
			"name":"BD_EWAL15",
			"pbrMetallicRoughness":{
				"baseColorFactor":[
					0.800000011920929,
					0.800000011920929,
					0.800000011920929,
					1
				],
				"metallicFactor":0,
				"roughnessFactor":0.5
			}
		},
		{
			"doubleSided":true,
			"name":"BD_EBOR01",
			"pbrMetallicRoughness":{
				"baseColorFactor":[
					0.800000011920929,
					0.800000011920929,
					0.800000011920929,
					1
				],
				"metallicFactor":0,
				"roughnessFactor":0.5
			}
		},
		{
			"doubleSided":true,
			"name":"BD_EWAL03C",
			"pbrMetallicRoughness":{
				"baseColorFactor":[
					0.800000011920929,
					0.800000011920929,
					0.800000011920929,
					1
				],
				"metallicFactor":0,
				"roughnessFactor":0.5
			}
		},
		{
			"doubleSided":true,
			"name":"BD_IBOR05",
			"pbrMetallicRoughness":{
				"baseColorFactor":[
					0.800000011920929,
					0.800000011920929,
					0.800000011920929,
					1
				],
				"metallicFactor":0,
				"roughnessFactor":0.5
			}
		},
		{
			"doubleSided":true,
			"name":"BD_EFLO01",
			"pbrMetallicRoughness":{
				"baseColorFactor":[
					0.800000011920929,
					0.800000011920929,
					0.800000011920929,
					1
				],
				"metallicFactor":0,
				"roughnessFactor":0.5
			}
		},
		{
			"doubleSided":true,
			"name":"BD_ICEI01",
			"pbrMetallicRoughness":{
				"baseColorFactor":[
					0.800000011920929,
					0.800000011920929,
					0.800000011920929,
					1
				],
				"metallicFactor":0,
				"roughnessFactor":0.5
			}
		}
	],
	"meshes":[
		{
			"name":"Mesh",
			"primitives":[
				{
					"attributes":{
						"POSITION":0,
						"NORMAL":1,
						"TEXCOORD_0":2
					},
					"indices":3,
					"material":0
				},
				{
					"attributes":{
						"POSITION":4,
						"NORMAL":5,
						"TEXCOORD_0":6
					},
					"indices":7,
					"material":1
				},
				{
					"attributes":{
						"POSITION":8,
						"NORMAL":9,
						"TEXCOORD_0":10
					},
					"indices":11,
					"material":2
				},
				{
					"attributes":{
						"POSITION":12,
						"NORMAL":13,
						"TEXCOORD_0":14
					},
					"indices":15,
					"material":3
				},
				{
					"attributes":{
						"POSITION":16,
						"NORMAL":17,
						"TEXCOORD_0":18
					},
					"indices":19,
					"material":4
				},
				{
					"attributes":{
						"POSITION":20,
						"NORMAL":21,
						"TEXCOORD_0":22
					},
					"indices":23,
					"material":5
				},
				{
					"attributes":{
						"POSITION":24,
						"NORMAL":25,
						"TEXCOORD_0":26
					},
					"indices":27,
					"material":6
				},
				{
					"attributes":{
						"POSITION":28,
						"NORMAL":29,
						"TEXCOORD_0":30
					},
					"indices":31,
					"material":7
				},
				{
					"attributes":{
						"POSITION":32,
						"NORMAL":33,
						"TEXCOORD_0":34
					},
					"indices":35,
					"material":8
				},
				{
					"attributes":{
						"POSITION":36,
						"NORMAL":37,
						"TEXCOORD_0":38
					},
					"indices":39,
					"material":9
				},
				{
					"attributes":{
						"POSITION":40,
						"NORMAL":41,
						"TEXCOORD_0":42
					},
					"indices":43,
					"material":10
				},
				{
					"attributes":{
						"POSITION":44,
						"NORMAL":45,
						"TEXCOORD_0":46
					},
					"indices":47,
					"material":11
				},
				{
					"attributes":{
						"POSITION":48,
						"NORMAL":49,
						"TEXCOORD_0":50
					},
					"indices":51,
					"material":12
				}
			]
		}
	],
	"accessors":[
		{
			"bufferView":0,
			"componentType":5126,
			"count":34,
			"max":[
				16,
				0,
				-14
			],
			"min":[
				-16,
				-8,
				-60
			],
			"type":"VEC3"
		},
		{
			"bufferView":1,
			"componentType":5126,
			"count":34,
			"type":"VEC3"
		},
		{
			"bufferView":2,
			"componentType":5126,
			"count":34,
			"type":"VEC2"
		},
		{
			"bufferView":3,
			"componentType":5123,
			"count":78,
			"type":"SCALAR"
		},
		{
			"bufferView":4,
			"componentType":5126,
			"count":24,
			"max":[
				4,
				4,
				-6
			],
			"min":[
				-4,
				2,
				-12
			],
			"type":"VEC3"
		},
		{
			"bufferView":5,
			"componentType":5126,
			"count":24,
			"type":"VEC3"
		},
		{
			"bufferView":6,
			"componentType":5126,
			"count":24,
			"type":"VEC2"
		},
		{
			"bufferView":7,
			"componentType":5123,
			"count":42,
			"type":"SCALAR"
		},
		{
			"bufferView":8,
			"componentType":5126,
			"count":20,
			"max":[
				4,
				4,
				-8
			],
			"min":[
				-4,
				0,
				-12
			],
			"type":"VEC3"
		},
		{
			"bufferView":9,
			"componentType":5126,
			"count":20,
			"type":"VEC3"
		},
		{
			"bufferView":10,
			"componentType":5126,
			"count":20,
			"type":"VEC2"
		},
		{
			"bufferView":11,
			"componentType":5123,
			"count":30,
			"type":"SCALAR"
		},
		{
			"bufferView":12,
			"componentType":5126,
			"count":12,
			"max":[
				3,
				4,
				-6
			],
			"min":[
				-3,
				2,
				-11
			],
			"type":"VEC3"
		},
		{
			"bufferView":13,
			"componentType":5126,
			"count":12,
			"type":"VEC3"
		},
		{
			"bufferView":14,
			"componentType":5126,
			"count":12,
			"type":"VEC2"
		},
		{
			"bufferView":15,
			"componentType":5123,
			"count":18,
			"type":"SCALAR"
		},
		{
			"bufferView":16,
			"componentType":5126,
			"count":62,
			"max":[
				15,
				2,
				-1
			],
			"min":[
				-15,
				-8,
				-60
			],
			"type":"VEC3"
		},
		{
			"bufferView":17,
			"componentType":5126,
			"count":62,
			"type":"VEC3"
		},
		{
			"bufferView":18,
			"componentType":5126,
			"count":62,
			"type":"VEC2"
		},
		{
			"bufferView":19,
			"componentType":5123,
			"count":138,
			"type":"SCALAR"
		},
		{
			"bufferView":20,
			"componentType":5126,
			"count":168,
			"max":[
				20,
				4,
				-2
			],
			"min":[
				-20,
				-8,
				-60
			],
			"type":"VEC3"
		},
		{
			"bufferView":21,
			"componentType":5126,
			"count":168,
			"type":"VEC3"
		},
		{
			"bufferView":22,
			"componentType":5126,
			"count":168,
			"type":"VEC2"
		},
		{
			"bufferView":23,
			"componentType":5123,
			"count":222,
			"type":"SCALAR"
		},
		{
			"bufferView":24,
			"componentType":5126,
			"count":46,
			"max":[
				16,
				6,
				0
			],
			"min":[
				-16,
				0,
				-14
			],
			"type":"VEC3"
		},
		{
			"bufferView":25,
			"componentType":5126,
			"count":46,
			"type":"VEC3"
		},
		{
			"bufferView":26,
			"componentType":5126,
			"count":46,
			"type":"VEC2"
		},
		{
			"bufferView":27,
			"componentType":5123,
			"count":72,
			"type":"SCALAR"
		},
		{
			"bufferView":28,
			"componentType":5126,
			"count":34,
			"max":[
				16,
				6,
				0
			],
			"min":[
				-16,
				0,
				-14
			],
			"type":"VEC3"
		},
		{
			"bufferView":29,
			"componentType":5126,
			"count":34,
			"type":"VEC3"
		},
		{
			"bufferView":30,
			"componentType":5126,
			"count":34,
			"type":"VEC2"
		},
		{
			"bufferView":31,
			"componentType":5123,
			"count":84,
			"type":"SCALAR"
		},
		{
			"bufferView":32,
			"componentType":5126,
			"count":22,
			"max":[
				15,
				5,
				-1
			],
			"min":[
				-15,
				0,
				-14
			],
			"type":"VEC3"
		},
		{
			"bufferView":33,
			"componentType":5126,
			"count":22,
			"type":"VEC3"
		},
		{
			"bufferView":34,
			"componentType":5126,
			"count":22,
			"type":"VEC2"
		},
		{
			"bufferView":35,
			"componentType":5123,
			"count":42,
			"type":"SCALAR"
		},
		{
			"bufferView":36,
			"componentType":5126,
			"count":8,
			"max":[
				7,
				6,
				-1
			],
			"min":[
				-7,
				1,
				-1
			],
			"type":"VEC3"
		},
		{
			"bufferView":37,
			"componentType":5126,
			"count":8,
			"type":"VEC3"
		},
		{
			"bufferView":38,
			"componentType":5126,
			"count":8,
			"type":"VEC2"
		},
		{
			"bufferView":39,
			"componentType":5123,
			"count":12,
			"type":"SCALAR"
		},
		{
			"bufferView":40,
			"componentType":5126,
			"count":6,
			"max":[
				4,
				6,
				-1
			],
			"min":[
				-4,
				2,
				-1
			],
			"type":"VEC3"
		},
		{
			"bufferView":41,
			"componentType":5126,
			"count":6,
			"type":"VEC3"
		},
		{
			"bufferView":42,
			"componentType":5126,
			"count":6,
			"type":"VEC2"
		},
		{
			"bufferView":43,
			"componentType":5123,
			"count":12,
			"type":"SCALAR"
		},
		{
			"bufferView":44,
			"componentType":5126,
			"count":192,
			"max":[
				24,
				0,
				8
			],
			"min":[
				-24,
				-8,
				-44
			],
			"type":"VEC3"
		},
		{
			"bufferView":45,
			"componentType":5126,
			"count":192,
			"type":"VEC3"
		},
		{
			"bufferView":46,
			"componentType":5126,
			"count":192,
			"type":"VEC2"
		},
		{
			"bufferView":47,
			"componentType":5123,
			"count":294,
			"type":"SCALAR"
		},
		{
			"bufferView":48,
			"componentType":5126,
			"count":140,
			"max":[
				20,
				0,
				-2
			],
			"min":[
				-20,
				-8,
				-40
			],
			"type":"VEC3"
		},
		{
			"bufferView":49,
			"componentType":5126,
			"count":140,
			"type":"VEC3"
		},
		{
			"bufferView":50,
			"componentType":5126,
			"count":140,
			"type":"VEC2"
		},
		{
			"bufferView":51,
			"componentType":5123,
			"count":252,
			"type":"SCALAR"
		}
	],
	"bufferViews":[
		{
			"buffer":0,
			"byteLength":408,
			"byteOffset":0,
			"target":34962
		},
		{
			"buffer":0,
			"byteLength":408,
			"byteOffset":408,
			"target":34962
		},
		{
			"buffer":0,
			"byteLength":272,
			"byteOffset":816,
			"target":34962
		},
		{
			"buffer":0,
			"byteLength":156,
			"byteOffset":1088,
			"target":34963
		},
		{
			"buffer":0,
			"byteLength":288,
			"byteOffset":1244,
			"target":34962
		},
		{
			"buffer":0,
			"byteLength":288,
			"byteOffset":1532,
			"target":34962
		},
		{
			"buffer":0,
			"byteLength":192,
			"byteOffset":1820,
			"target":34962
		},
		{
			"buffer":0,
			"byteLength":84,
			"byteOffset":2012,
			"target":34963
		},
		{
			"buffer":0,
			"byteLength":240,
			"byteOffset":2096,
			"target":34962
		},
		{
			"buffer":0,
			"byteLength":240,
			"byteOffset":2336,
			"target":34962
		},
		{
			"buffer":0,
			"byteLength":160,
			"byteOffset":2576,
			"target":34962
		},
		{
			"buffer":0,
			"byteLength":60,
			"byteOffset":2736,
			"target":34963
		},
		{
			"buffer":0,
			"byteLength":144,
			"byteOffset":2796,
			"target":34962
		},
		{
			"buffer":0,
			"byteLength":144,
			"byteOffset":2940,
			"target":34962
		},
		{
			"buffer":0,
			"byteLength":96,
			"byteOffset":3084,
			"target":34962
		},
		{
			"buffer":0,
			"byteLength":36,
			"byteOffset":3180,
			"target":34963
		},
		{
			"buffer":0,
			"byteLength":744,
			"byteOffset":3216,
			"target":34962
		},
		{
			"buffer":0,
			"byteLength":744,
			"byteOffset":3960,
			"target":34962
		},
		{
			"buffer":0,
			"byteLength":496,
			"byteOffset":4704,
			"target":34962
		},
		{
			"buffer":0,
			"byteLength":276,
			"byteOffset":5200,
			"target":34963
		},
		{
			"buffer":0,
			"byteLength":2016,
			"byteOffset":5476,
			"target":34962
		},
		{
			"buffer":0,
			"byteLength":2016,
			"byteOffset":7492,
			"target":34962
		},
		{
			"buffer":0,
			"byteLength":1344,
			"byteOffset":9508,
			"target":34962
		},
		{
			"buffer":0,
			"byteLength":444,
			"byteOffset":10852,
			"target":34963
		},
		{
			"buffer":0,
			"byteLength":552,
			"byteOffset":11296,
			"target":34962
		},
		{
			"buffer":0,
			"byteLength":552,
			"byteOffset":11848,
			"target":34962
		},
		{
			"buffer":0,
			"byteLength":368,
			"byteOffset":12400,
			"target":34962
		},
		{
			"buffer":0,
			"byteLength":144,
			"byteOffset":12768,
			"target":34963
		},
		{
			"buffer":0,
			"byteLength":408,
			"byteOffset":12912,
			"target":34962
		},
		{
			"buffer":0,
			"byteLength":408,
			"byteOffset":13320,
			"target":34962
		},
		{
			"buffer":0,
			"byteLength":272,
			"byteOffset":13728,
			"target":34962
		},
		{
			"buffer":0,
			"byteLength":168,
			"byteOffset":14000,
			"target":34963
		},
		{
			"buffer":0,
			"byteLength":264,
			"byteOffset":14168,
			"target":34962
		},
		{
			"buffer":0,
			"byteLength":264,
			"byteOffset":14432,
			"target":34962
		},
		{
			"buffer":0,
			"byteLength":176,
			"byteOffset":14696,
			"target":34962
		},
		{
			"buffer":0,
			"byteLength":84,
			"byteOffset":14872,
			"target":34963
		},
		{
			"buffer":0,
			"byteLength":96,
			"byteOffset":14956,
			"target":34962
		},
		{
			"buffer":0,
			"byteLength":96,
			"byteOffset":15052,
			"target":34962
		},
		{
			"buffer":0,
			"byteLength":64,
			"byteOffset":15148,
			"target":34962
		},
		{
			"buffer":0,
			"byteLength":24,
			"byteOffset":15212,
			"target":34963
		},
		{
			"buffer":0,
			"byteLength":72,
			"byteOffset":15236,
			"target":34962
		},
		{
			"buffer":0,
			"byteLength":72,
			"byteOffset":15308,
			"target":34962
		},
		{
			"buffer":0,
			"byteLength":48,
			"byteOffset":15380,
			"target":34962
		},
		{
			"buffer":0,
			"byteLength":24,
			"byteOffset":15428,
			"target":34963
		},
		{
			"buffer":0,
			"byteLength":2304,
			"byteOffset":15452,
			"target":34962
		},
		{
			"buffer":0,
			"byteLength":2304,
			"byteOffset":17756,
			"target":34962
		},
		{
			"buffer":0,
			"byteLength":1536,
			"byteOffset":20060,
			"target":34962
		},
		{
			"buffer":0,
			"byteLength":588,
			"byteOffset":21596,
			"target":34963
		},
		{
			"buffer":0,
			"byteLength":1680,
			"byteOffset":22184,
			"target":34962
		},
		{
			"buffer":0,
			"byteLength":1680,
			"byteOffset":23864,
			"target":34962
		},
		{
			"buffer":0,
			"byteLength":1120,
			"byteOffset":25544,
			"target":34962
		},
		{
			"buffer":0,
			"byteLength":504,
			"byteOffset":26664,
			"target":34963
		}
	],
	"buffers":[
		{
			"byteLength":27168,
			"uri":"rst_derm_vechpad.bin"
		}
	]
}
