{
	"asset":{
		"generator":"Khronos glTF Blender I/O v4.5.48",
		"version":"2.0"
	},
	"scene":0,
	"scenes":[
		{
			"name":"Scene",
			"nodes":[
				0
			]
		}
	],
	"nodes":[
		{
			"mesh":0,
			"name":"Object"
		}
	],
	"materials":[
		{
			"doubleSided":true,
			"name":"BD_THRESH02",
			"pbrMetallicRoughness":{
				"baseColorFactor":[
					0.800000011920929,
					0.800000011920929,
					0.800000011920929,
					1
				],
				"metallicFactor":0,
				"roughnessFactor":0.5
			}
		},
		{
			"doubleSided":true,
			"name":"BD_IBOR03",
			"pbrMetallicRoughness":{
				"baseColorFactor":[
					0.800000011920929,
					0.800000011920929,
					0.800000011920929,
					1
				],
				"metallicFactor":0,
				"roughnessFactor":0.5
			}
		},
		{
			"doubleSided":true,
			"name":"BD_EBOR04",
			"pbrMetallicRoughness":{
				"baseColorFactor":[
					0.800000011920929,
					0.800000011920929,
					0.800000011920929,
					1
				],
				"metallicFactor":0,
				"roughnessFactor":0.5
			}
		},
		{
			"doubleSided":true,
			"name":"BD_EFLO01",
			"pbrMetallicRoughness":{
				"baseColorFactor":[
					0.800000011920929,
					0.800000011920929,
					0.800000011920929,
					1
				],
				"metallicFactor":0,
				"roughnessFactor":0.5
			}
		},
		{
			"doubleSided":true,
			"name":"BD_IBOR10",
			"pbrMetallicRoughness":{
				"baseColorFactor":[
					0.800000011920929,
					0.800000011920929,
					0.800000011920929,
					1
				],
				"metallicFactor":0,
				"roughnessFactor":0.5
			}
		},
		{
			"doubleSided":true,
			"name":"BD_ICEI03",
			"pbrMetallicRoughness":{
				"baseColorFactor":[
					0.800000011920929,
					0.800000011920929,
					0.800000011920929,
					1
				],
				"metallicFactor":0,
				"roughnessFactor":0.5
			}
		},
		{
			"doubleSided":true,
			"name":"BD_IBOR04",
			"pbrMetallicRoughness":{
				"baseColorFactor":[
					0.800000011920929,
					0.800000011920929,
					0.800000011920929,
					1
				],
				"metallicFactor":0,
				"roughnessFactor":0.5
			}
		},
		{
			"doubleSided":true,
			"name":"BD_ESPE02",
			"pbrMetallicRoughness":{
				"baseColorFactor":[
					0.800000011920929,
					0.800000011920929,
					0.800000011920929,
					1
				],
				"metallicFactor":0,
				"roughnessFactor":0.5
			}
		},
		{
			"doubleSided":true,
			"name":"BD_EWAL15",
			"pbrMetallicRoughness":{
				"baseColorFactor":[
					0.800000011920929,
					0.800000011920929,
					0.800000011920929,
					1
				],
				"metallicFactor":0,
				"roughnessFactor":0.5
			}
		},
		{
			"doubleSided":true,
			"name":"BD_IBOR8",
			"pbrMetallicRoughness":{
				"baseColorFactor":[
					0.800000011920929,
					0.800000011920929,
					0.800000011920929,
					1
				],
				"metallicFactor":0,
				"roughnessFactor":0.5
			}
		},
		{
			"doubleSided":true,
			"name":"BD_ICOL02",
			"pbrMetallicRoughness":{
				"baseColorFactor":[
					0.800000011920929,
					0.800000011920929,
					0.800000011920929,
					1
				],
				"metallicFactor":0,
				"roughnessFactor":0.5
			}
		},
		{
			"doubleSided":true,
			"name":"BD_ESPE03",
			"pbrMetallicRoughness":{
				"baseColorFactor":[
					0.800000011920929,
					0.800000011920929,
					0.800000011920929,
					1
				],
				"metallicFactor":0,
				"roughnessFactor":0.5
			}
		},
		{
			"doubleSided":true,
			"name":"BD_EWAL02",
			"pbrMetallicRoughness":{
				"baseColorFactor":[
					0.800000011920929,
					0.800000011920929,
					0.800000011920929,
					1
				],
				"metallicFactor":0,
				"roughnessFactor":0.5
			}
		}
	],
	"meshes":[
		{
			"name":"Mesh",
			"primitives":[
				{
					"attributes":{
						"POSITION":0,
						"NORMAL":1,
						"TEXCOORD_0":2
					},
					"indices":3,
					"material":0
				},
				{
					"attributes":{
						"POSITION":4,
						"NORMAL":5,
						"TEXCOORD_0":6
					},
					"indices":7,
					"material":1
				},
				{
					"attributes":{
						"POSITION":8,
						"NORMAL":9,
						"TEXCOORD_0":10
					},
					"indices":11,
					"material":2
				},
				{
					"attributes":{
						"POSITION":12,
						"NORMAL":13,
						"TEXCOORD_0":14
					},
					"indices":15,
					"material":3
				},
				{
					"attributes":{
						"POSITION":16,
						"NORMAL":17,
						"TEXCOORD_0":18
					},
					"indices":19,
					"material":4
				},
				{
					"attributes":{
						"POSITION":20,
						"NORMAL":21,
						"TEXCOORD_0":22
					},
					"indices":23,
					"material":5
				},
				{
					"attributes":{
						"POSITION":24,
						"NORMAL":25,
						"TEXCOORD_0":26
					},
					"indices":27,
					"material":6
				},
				{
					"attributes":{
						"POSITION":28,
						"NORMAL":29,
						"TEXCOORD_0":30
					},
					"indices":31,
					"material":7
				},
				{
					"attributes":{
						"POSITION":32,
						"NORMAL":33,
						"TEXCOORD_0":34
					},
					"indices":35,
					"material":8
				},
				{
					"attributes":{
						"POSITION":36,
						"NORMAL":37,
						"TEXCOORD_0":38
					},
					"indices":39,
					"material":9
				},
				{
					"attributes":{
						"POSITION":40,
						"NORMAL":41,
						"TEXCOORD_0":42
					},
					"indices":43,
					"material":10
				},
				{
					"attributes":{
						"POSITION":44,
						"NORMAL":45,
						"TEXCOORD_0":46
					},
					"indices":47,
					"material":11
				},
				{
					"attributes":{
						"POSITION":48,
						"NORMAL":49,
						"TEXCOORD_0":50
					},
					"indices":51,
					"material":12
				}
			]
		}
	],
	"accessors":[
		{
			"bufferView":0,
			"componentType":5126,
			"count":32,
			"max":[
				12,
				2,
				12
			],
			"min":[
				-12,
				0,
				-12
			],
			"type":"VEC3"
		},
		{
			"bufferView":1,
			"componentType":5126,
			"count":32,
			"type":"VEC3"
		},
		{
			"bufferView":2,
			"componentType":5126,
			"count":32,
			"type":"VEC2"
		},
		{
			"bufferView":3,
			"componentType":5123,
			"count":48,
			"type":"SCALAR"
		},
		{
			"bufferView":4,
			"componentType":5126,
			"count":208,
			"max":[
				13,
				49,
				13
			],
			"min":[
				-13,
				0,
				-13
			],
			"type":"VEC3"
		},
		{
			"bufferView":5,
			"componentType":5126,
			"count":208,
			"type":"VEC3"
		},
		{
			"bufferView":6,
			"componentType":5126,
			"count":208,
			"type":"VEC2"
		},
		{
			"bufferView":7,
			"componentType":5123,
			"count":396,
			"type":"SCALAR"
		},
		{
			"bufferView":8,
			"componentType":5126,
			"count":248,
			"max":[
				8,
				100,
				8
			],
			"min":[
				-8,
				28,
				-8
			],
			"type":"VEC3"
		},
		{
			"bufferView":9,
			"componentType":5126,
			"count":248,
			"type":"VEC3"
		},
		{
			"bufferView":10,
			"componentType":5126,
			"count":248,
			"type":"VEC2"
		},
		{
			"bufferView":11,
			"componentType":5123,
			"count":624,
			"type":"SCALAR"
		},
		{
			"bufferView":12,
			"componentType":5126,
			"count":16,
			"max":[
				3,
				100,
				3
			],
			"min":[
				-3,
				100,
				-3
			],
			"type":"VEC3"
		},
		{
			"bufferView":13,
			"componentType":5126,
			"count":16,
			"type":"VEC3"
		},
		{
			"bufferView":14,
			"componentType":5126,
			"count":16,
			"type":"VEC2"
		},
		{
			"bufferView":15,
			"componentType":5123,
			"count":24,
			"type":"SCALAR"
		},
		{
			"bufferView":16,
			"componentType":5126,
			"count":244,
			"max":[
				13,
				53,
				13
			],
			"min":[
				-13,
				0,
				-13
			],
			"type":"VEC3"
		},
		{
			"bufferView":17,
			"componentType":5126,
			"count":244,
			"type":"VEC3"
		},
		{
			"bufferView":18,
			"componentType":5126,
			"count":244,
			"type":"VEC2"
		},
		{
			"bufferView":19,
			"componentType":5123,
			"count":444,
			"type":"SCALAR"
		},
		{
			"bufferView":20,
			"componentType":5126,
			"count":216,
			"max":[
				12,
				52,
				12
			],
			"min":[
				-12,
				21.5,
				-12
			],
			"type":"VEC3"
		},
		{
			"bufferView":21,
			"componentType":5126,
			"count":216,
			"type":"VEC3"
		},
		{
			"bufferView":22,
			"componentType":5126,
			"count":216,
			"type":"VEC2"
		},
		{
			"bufferView":23,
			"componentType":5123,
			"count":408,
			"type":"SCALAR"
		},
		{
			"bufferView":24,
			"componentType":5126,
			"count":48,
			"max":[
				4,
				99,
				4
			],
			"min":[
				-4,
				52,
				-4
			],
			"type":"VEC3"
		},
		{
			"bufferView":25,
			"componentType":5126,
			"count":48,
			"type":"VEC3"
		},
		{
			"bufferView":26,
			"componentType":5126,
			"count":48,
			"type":"VEC2"
		},
		{
			"bufferView":27,
			"componentType":5123,
			"count":72,
			"type":"SCALAR"
		},
		{
			"bufferView":28,
			"componentType":5126,
			"count":4,
			"max":[
				0.5,
				99,
				0.5
			],
			"min":[
				-0.5,
				99,
				-0.5
			],
			"type":"VEC3"
		},
		{
			"bufferView":29,
			"componentType":5126,
			"count":4,
			"type":"VEC3"
		},
		{
			"bufferView":30,
			"componentType":5126,
			"count":4,
			"type":"VEC2"
		},
		{
			"bufferView":31,
			"componentType":5123,
			"count":6,
			"type":"SCALAR"
		},
		{
			"bufferView":32,
			"componentType":5126,
			"count":32,
			"max":[
				12,
				20.5,
				12
			],
			"min":[
				-12,
				2,
				-12
			],
			"type":"VEC3"
		},
		{
			"bufferView":33,
			"componentType":5126,
			"count":32,
			"type":"VEC3"
		},
		{
			"bufferView":34,
			"componentType":5126,
			"count":32,
			"type":"VEC2"
		},
		{
			"bufferView":35,
			"componentType":5123,
			"count":48,
			"type":"SCALAR"
		},
		{
			"bufferView":36,
			"componentType":5126,
			"count":96,
			"max":[
				11.46875,
				51,
				11.46875
			],
			"min":[
				-11.46875,
				21.5,
				-11.46875
			],
			"type":"VEC3"
		},
		{
			"bufferView":37,
			"componentType":5126,
			"count":96,
			"type":"VEC3"
		},
		{
			"bufferView":38,
			"componentType":5126,
			"count":96,
			"type":"VEC2"
		},
		{
			"bufferView":39,
			"componentType":5123,
			"count":144,
			"type":"SCALAR"
		},
		{
			"bufferView":40,
			"componentType":5126,
			"count":32,
			"max":[
				12,
				27,
				12
			],
			"min":[
				-12,
				21.5,
				-12
			],
			"type":"VEC3"
		},
		{
			"bufferView":41,
			"componentType":5126,
			"count":32,
			"type":"VEC3"
		},
		{
			"bufferView":42,
			"componentType":5126,
			"count":32,
			"type":"VEC2"
		},
		{
			"bufferView":43,
			"componentType":5123,
			"count":48,
			"type":"SCALAR"
		},
		{
			"bufferView":44,
			"componentType":5126,
			"count":64,
			"max":[
				5,
				96,
				5
			],
			"min":[
				-5,
				52,
				-5
			],
			"type":"VEC3"
		},
		{
			"bufferView":45,
			"componentType":5126,
			"count":64,
			"type":"VEC3"
		},
		{
			"bufferView":46,
			"componentType":5126,
			"count":64,
			"type":"VEC2"
		},
		{
			"bufferView":47,
			"componentType":5123,
			"count":96,
			"type":"SCALAR"
		},
		{
			"bufferView":48,
			"componentType":5126,
			"count":32,
			"max":[
				5,
				92,
				5
			],
			"min":[
				-5,
				56,
				-5
			],
			"type":"VEC3"
		},
		{
			"bufferView":49,
			"componentType":5126,
			"count":32,
			"type":"VEC3"
		},
		{
			"bufferView":50,
			"componentType":5126,
			"count":32,
			"type":"VEC2"
		},
		{
			"bufferView":51,
			"componentType":5123,
			"count":48,
			"type":"SCALAR"
		}
	],
	"bufferViews":[
		{
			"buffer":0,
			"byteLength":384,
			"byteOffset":0,
			"target":34962
		},
		{
			"buffer":0,
			"byteLength":384,
			"byteOffset":384,
			"target":34962
		},
		{
			"buffer":0,
			"byteLength":256,
			"byteOffset":768,
			"target":34962
		},
		{
			"buffer":0,
			"byteLength":96,
			"byteOffset":1024,
			"target":34963
		},
		{
			"buffer":0,
			"byteLength":2496,
			"byteOffset":1120,
			"target":34962
		},
		{
			"buffer":0,
			"byteLength":2496,
			"byteOffset":3616,
			"target":34962
		},
		{
			"buffer":0,
			"byteLength":1664,
			"byteOffset":6112,
			"target":34962
		},
		{
			"buffer":0,
			"byteLength":792,
			"byteOffset":7776,
			"target":34963
		},
		{
			"buffer":0,
			"byteLength":2976,
			"byteOffset":8568,
			"target":34962
		},
		{
			"buffer":0,
			"byteLength":2976,
			"byteOffset":11544,
			"target":34962
		},
		{
			"buffer":0,
			"byteLength":1984,
			"byteOffset":14520,
			"target":34962
		},
		{
			"buffer":0,
			"byteLength":1248,
			"byteOffset":16504,
			"target":34963
		},
		{
			"buffer":0,
			"byteLength":192,
			"byteOffset":17752,
			"target":34962
		},
		{
			"buffer":0,
			"byteLength":192,
			"byteOffset":17944,
			"target":34962
		},
		{
			"buffer":0,
			"byteLength":128,
			"byteOffset":18136,
			"target":34962
		},
		{
			"buffer":0,
			"byteLength":48,
			"byteOffset":18264,
			"target":34963
		},
		{
			"buffer":0,
			"byteLength":2928,
			"byteOffset":18312,
			"target":34962
		},
		{
			"buffer":0,
			"byteLength":2928,
			"byteOffset":21240,
			"target":34962
		},
		{
			"buffer":0,
			"byteLength":1952,
			"byteOffset":24168,
			"target":34962
		},
		{
			"buffer":0,
			"byteLength":888,
			"byteOffset":26120,
			"target":34963
		},
		{
			"buffer":0,
			"byteLength":2592,
			"byteOffset":27008,
			"target":34962
		},
		{
			"buffer":0,
			"byteLength":2592,
			"byteOffset":29600,
			"target":34962
		},
		{
			"buffer":0,
			"byteLength":1728,
			"byteOffset":32192,
			"target":34962
		},
		{
			"buffer":0,
			"byteLength":816,
			"byteOffset":33920,
			"target":34963
		},
		{
			"buffer":0,
			"byteLength":576,
			"byteOffset":34736,
			"target":34962
		},
		{
			"buffer":0,
			"byteLength":576,
			"byteOffset":35312,
			"target":34962
		},
		{
			"buffer":0,
			"byteLength":384,
			"byteOffset":35888,
			"target":34962
		},
		{
			"buffer":0,
			"byteLength":144,
			"byteOffset":36272,
			"target":34963
		},
		{
			"buffer":0,
			"byteLength":48,
			"byteOffset":36416,
			"target":34962
		},
		{
			"buffer":0,
			"byteLength":48,
			"byteOffset":36464,
			"target":34962
		},
		{
			"buffer":0,
			"byteLength":32,
			"byteOffset":36512,
			"target":34962
		},
		{
			"buffer":0,
			"byteLength":12,
			"byteOffset":36544,
			"target":34963
		},
		{
			"buffer":0,
			"byteLength":384,
			"byteOffset":36556,
			"target":34962
		},
		{
			"buffer":0,
			"byteLength":384,
			"byteOffset":36940,
			"target":34962
		},
		{
			"buffer":0,
			"byteLength":256,
			"byteOffset":37324,
			"target":34962
		},
		{
			"buffer":0,
			"byteLength":96,
			"byteOffset":37580,
			"target":34963
		},
		{
			"buffer":0,
			"byteLength":1152,
			"byteOffset":37676,
			"target":34962
		},
		{
			"buffer":0,
			"byteLength":1152,
			"byteOffset":38828,
			"target":34962
		},
		{
			"buffer":0,
			"byteLength":768,
			"byteOffset":39980,
			"target":34962
		},
		{
			"buffer":0,
			"byteLength":288,
			"byteOffset":40748,
			"target":34963
		},
		{
			"buffer":0,
			"byteLength":384,
			"byteOffset":41036,
			"target":34962
		},
		{
			"buffer":0,
			"byteLength":384,
			"byteOffset":41420,
			"target":34962
		},
		{
			"buffer":0,
			"byteLength":256,
			"byteOffset":41804,
			"target":34962
		},
		{
			"buffer":0,
			"byteLength":96,
			"byteOffset":42060,
			"target":34963
		},
		{
			"buffer":0,
			"byteLength":768,
			"byteOffset":42156,
			"target":34962
		},
		{
			"buffer":0,
			"byteLength":768,
			"byteOffset":42924,
			"target":34962
		},
		{
			"buffer":0,
			"byteLength":512,
			"byteOffset":43692,
			"target":34962
		},
		{
			"buffer":0,
			"byteLength":192,
			"byteOffset":44204,
			"target":34963
		},
		{
			"buffer":0,
			"byteLength":384,
			"byteOffset":44396,
			"target":34962
		},
		{
			"buffer":0,
			"byteLength":384,
			"byteOffset":44780,
			"target":34962
		},
		{
			"buffer":0,
			"byteLength":256,
			"byteOffset":45164,
			"target":34962
		},
		{
			"buffer":0,
			"byteLength":96,
			"byteOffset":45420,
			"target":34963
		}
	],
	"buffers":[
		{
			"byteLength":45516,
			"uri":"rst_derm_pillar.bin"
		}
	]
}
