{
	"asset":{
		"generator":"Khronos glTF Blender I/O v4.5.48",
		"version":"2.0"
	},
	"scene":0,
	"scenes":[
		{
			"name":"Scene",
			"nodes":[
				0
			]
		}
	],
	"nodes":[
		{
			"mesh":0,
			"name":"Object"
		}
	],
	"materials":[
		{
			"doubleSided":true,
			"name":"BD_ICEI03",
			"pbrMetallicRoughness":{
				"baseColorFactor":[
					0.800000011920929,
					0.800000011920929,
					0.800000011920929,
					1
				],
				"metallicFactor":0,
				"roughnessFactor":0.5
			}
		},
		{
			"doubleSided":true,
			"name":"BD_THRESH02",
			"pbrMetallicRoughness":{
				"baseColorFactor":[
					0.800000011920929,
					0.800000011920929,
					0.800000011920929,
					1
				],
				"metallicFactor":0,
				"roughnessFactor":0.5
			}
		},
		{
			"doubleSided":true,
			"name":"BD_EWAL03C",
			"pbrMetallicRoughness":{
				"baseColorFactor":[
					0.800000011920929,
					0.800000011920929,
					0.800000011920929,
					1
				],
				"metallicFactor":0,
				"roughnessFactor":0.5
			}
		},
		{
			"doubleSided":true,
			"name":"BD_EBOR04",
			"pbrMetallicRoughness":{
				"baseColorFactor":[
					0.800000011920929,
					0.800000011920929,
					0.800000011920929,
					1
				],
				"metallicFactor":0,
				"roughnessFactor":0.5
			}
		},
		{
			"doubleSided":true,
			"name":"BD_EFLO01",
			"pbrMetallicRoughness":{
				"baseColorFactor":[
					0.800000011920929,
					0.800000011920929,
					0.800000011920929,
					1
				],
				"metallicFactor":0,
				"roughnessFactor":0.5
			}
		},
		{
			"doubleSided":true,
			"name":"BD_IBOR10",
			"pbrMetallicRoughness":{
				"baseColorFactor":[
					0.800000011920929,
					0.800000011920929,
					0.800000011920929,
					1
				],
				"metallicFactor":0,
				"roughnessFactor":0.5
			}
		},
		{
			"doubleSided":true,
			"name":"BD_ITEBOR01",
			"pbrMetallicRoughness":{
				"baseColorFactor":[
					0.800000011920929,
					0.800000011920929,
					0.800000011920929,
					1
				],
				"metallicFactor":0,
				"roughnessFactor":0.5
			}
		},
		{
			"doubleSided":true,
			"name":"BD_ICEILIG01",
			"pbrMetallicRoughness":{
				"baseColorFactor":[
					0.800000011920929,
					0.800000011920929,
					0.800000011920929,
					1
				],
				"metallicFactor":0,
				"roughnessFactor":0.5
			}
		},
		{
			"doubleSided":true,
			"name":"BD_IBOR04",
			"pbrMetallicRoughness":{
				"baseColorFactor":[
					0.800000011920929,
					0.800000011920929,
					0.800000011920929,
					1
				],
				"metallicFactor":0,
				"roughnessFactor":0.5
			}
		},
		{
			"doubleSided":true,
			"name":"BD_EWAL13",
			"pbrMetallicRoughness":{
				"baseColorFactor":[
					0.800000011920929,
					0.800000011920929,
					0.800000011920929,
					1
				],
				"metallicFactor":0,
				"roughnessFactor":0.5
			}
		},
		{
			"doubleSided":true,
			"name":"BD_THRESH02A",
			"pbrMetallicRoughness":{
				"baseColorFactor":[
					0.800000011920929,
					0.800000011920929,
					0.800000011920929,
					1
				],
				"metallicFactor":0,
				"roughnessFactor":0.5
			}
		},
		{
			"doubleSided":true,
			"name":"BD_EBOR03",
			"pbrMetallicRoughness":{
				"baseColorFactor":[
					0.800000011920929,
					0.800000011920929,
					0.800000011920929,
					1
				],
				"metallicFactor":0,
				"roughnessFactor":0.5
			}
		},
		{
			"doubleSided":true,
			"name":"BD_ELIG02A",
			"pbrMetallicRoughness":{
				"baseColorFactor":[
					0.800000011920929,
					0.800000011920929,
					0.800000011920929,
					1
				],
				"metallicFactor":0,
				"roughnessFactor":0.5
			}
		}
	],
	"meshes":[
		{
			"name":"Mesh",
			"primitives":[
				{
					"attributes":{
						"POSITION":0,
						"NORMAL":1,
						"TEXCOORD_0":2
					},
					"indices":3,
					"material":0
				},
				{
					"attributes":{
						"POSITION":4,
						"NORMAL":5,
						"TEXCOORD_0":6
					},
					"indices":7,
					"material":1
				},
				{
					"attributes":{
						"POSITION":8,
						"NORMAL":9,
						"TEXCOORD_0":10
					},
					"indices":11,
					"material":2
				},
				{
					"attributes":{
						"POSITION":12,
						"NORMAL":13,
						"TEXCOORD_0":14
					},
					"indices":15,
					"material":3
				},
				{
					"attributes":{
						"POSITION":16,
						"NORMAL":17,
						"TEXCOORD_0":18
					},
					"indices":19,
					"material":4
				},
				{
					"attributes":{
						"POSITION":20,
						"NORMAL":21,
						"TEXCOORD_0":22
					},
					"indices":23,
					"material":5
				},
				{
					"attributes":{
						"POSITION":24,
						"NORMAL":25,
						"TEXCOORD_0":26
					},
					"indices":27,
					"material":6
				},
				{
					"attributes":{
						"POSITION":28,
						"NORMAL":29,
						"TEXCOORD_0":30
					},
					"indices":31,
					"material":7
				},
				{
					"attributes":{
						"POSITION":32,
						"NORMAL":33,
						"TEXCOORD_0":34
					},
					"indices":35,
					"material":8
				},
				{
					"attributes":{
						"POSITION":36,
						"NORMAL":37,
						"TEXCOORD_0":38
					},
					"indices":39,
					"material":9
				},
				{
					"attributes":{
						"POSITION":40,
						"NORMAL":41,
						"TEXCOORD_0":42
					},
					"indices":43,
					"material":10
				},
				{
					"attributes":{
						"POSITION":44,
						"NORMAL":45,
						"TEXCOORD_0":46
					},
					"indices":47,
					"material":11
				},
				{
					"attributes":{
						"POSITION":48,
						"NORMAL":49,
						"TEXCOORD_0":50
					},
					"indices":51,
					"material":12
				}
			]
		}
	],
	"accessors":[
		{
			"bufferView":0,
			"componentType":5126,
			"count":252,
			"max":[
				10,
				5,
				10
			],
			"min":[
				-10,
				-3,
				-10
			],
			"type":"VEC3"
		},
		{
			"bufferView":1,
			"componentType":5126,
			"count":252,
			"type":"VEC3"
		},
		{
			"bufferView":2,
			"componentType":5126,
			"count":252,
			"type":"VEC2"
		},
		{
			"bufferView":3,
			"componentType":5123,
			"count":564,
			"type":"SCALAR"
		},
		{
			"bufferView":4,
			"componentType":5126,
			"count":104,
			"max":[
				9,
				5,
				9
			],
			"min":[
				-9,
				0.5,
				-9
			],
			"type":"VEC3"
		},
		{
			"bufferView":5,
			"componentType":5126,
			"count":104,
			"type":"VEC3"
		},
		{
			"bufferView":6,
			"componentType":5126,
			"count":104,
			"type":"VEC2"
		},
		{
			"bufferView":7,
			"componentType":5123,
			"count":192,
			"type":"SCALAR"
		},
		{
			"bufferView":8,
			"componentType":5126,
			"count":464,
			"max":[
				9.5,
				5,
				9.5
			],
			"min":[
				-9.5,
				-5.5,
				-9.5
			],
			"type":"VEC3"
		},
		{
			"bufferView":9,
			"componentType":5126,
			"count":464,
			"type":"VEC3"
		},
		{
			"bufferView":10,
			"componentType":5126,
			"count":464,
			"type":"VEC2"
		},
		{
			"bufferView":11,
			"componentType":5123,
			"count":864,
			"type":"SCALAR"
		},
		{
			"bufferView":12,
			"componentType":5126,
			"count":136,
			"max":[
				9.5,
				5,
				9.5
			],
			"min":[
				-9.5,
				0.5,
				-9.5
			],
			"type":"VEC3"
		},
		{
			"bufferView":13,
			"componentType":5126,
			"count":136,
			"type":"VEC3"
		},
		{
			"bufferView":14,
			"componentType":5126,
			"count":136,
			"type":"VEC2"
		},
		{
			"bufferView":15,
			"componentType":5123,
			"count":288,
			"type":"SCALAR"
		},
		{
			"bufferView":16,
			"componentType":5126,
			"count":44,
			"max":[
				9,
				4.5,
				9
			],
			"min":[
				-9,
				4.5,
				-9
			],
			"type":"VEC3"
		},
		{
			"bufferView":17,
			"componentType":5126,
			"count":44,
			"type":"VEC3"
		},
		{
			"bufferView":18,
			"componentType":5126,
			"count":44,
			"type":"VEC2"
		},
		{
			"bufferView":19,
			"componentType":5123,
			"count":168,
			"type":"SCALAR"
		},
		{
			"bufferView":20,
			"componentType":5126,
			"count":608,
			"max":[
				10,
				6,
				10
			],
			"min":[
				-10,
				-2.6666667461395264,
				-10
			],
			"type":"VEC3"
		},
		{
			"bufferView":21,
			"componentType":5126,
			"count":608,
			"type":"VEC3"
		},
		{
			"bufferView":22,
			"componentType":5126,
			"count":608,
			"type":"VEC2"
		},
		{
			"bufferView":23,
			"componentType":5123,
			"count":1152,
			"type":"SCALAR"
		},
		{
			"bufferView":24,
			"componentType":5126,
			"count":112,
			"max":[
				6.5,
				0.5,
				6.5
			],
			"min":[
				-6.5,
				-1,
				-6.5
			],
			"type":"VEC3"
		},
		{
			"bufferView":25,
			"componentType":5126,
			"count":112,
			"type":"VEC3"
		},
		{
			"bufferView":26,
			"componentType":5126,
			"count":112,
			"type":"VEC2"
		},
		{
			"bufferView":27,
			"componentType":5123,
			"count":336,
			"type":"SCALAR"
		},
		{
			"bufferView":28,
			"componentType":5126,
			"count":4,
			"max":[
				4,
				-2,
				4
			],
			"min":[
				-4,
				-2,
				-4
			],
			"type":"VEC3"
		},
		{
			"bufferView":29,
			"componentType":5126,
			"count":4,
			"type":"VEC3"
		},
		{
			"bufferView":30,
			"componentType":5126,
			"count":4,
			"type":"VEC2"
		},
		{
			"bufferView":31,
			"componentType":5123,
			"count":6,
			"type":"SCALAR"
		},
		{
			"bufferView":32,
			"componentType":5126,
			"count":104,
			"max":[
				10,
				5,
				10
			],
			"min":[
				-10,
				2.5,
				-10
			],
			"type":"VEC3"
		},
		{
			"bufferView":33,
			"componentType":5126,
			"count":104,
			"type":"VEC3"
		},
		{
			"bufferView":34,
			"componentType":5126,
			"count":104,
			"type":"VEC2"
		},
		{
			"bufferView":35,
			"componentType":5123,
			"count":168,
			"type":"SCALAR"
		},
		{
			"bufferView":36,
			"componentType":5126,
			"count":16,
			"max":[
				9,
				-2.5,
				9
			],
			"min":[
				-9,
				-4,
				-9
			],
			"type":"VEC3"
		},
		{
			"bufferView":37,
			"componentType":5126,
			"count":16,
			"type":"VEC3"
		},
		{
			"bufferView":38,
			"componentType":5126,
			"count":16,
			"type":"VEC2"
		},
		{
			"bufferView":39,
			"componentType":5123,
			"count":24,
			"type":"SCALAR"
		},
		{
			"bufferView":40,
			"componentType":5126,
			"count":16,
			"max":[
				9,
				-4,
				9
			],
			"min":[
				-9,
				-5.5,
				-9
			],
			"type":"VEC3"
		},
		{
			"bufferView":41,
			"componentType":5126,
			"count":16,
			"type":"VEC3"
		},
		{
			"bufferView":42,
			"componentType":5126,
			"count":16,
			"type":"VEC2"
		},
		{
			"bufferView":43,
			"componentType":5123,
			"count":24,
			"type":"SCALAR"
		},
		{
			"bufferView":44,
			"componentType":5126,
			"count":40,
			"max":[
				3.5,
				5,
				3.5
			],
			"min":[
				-3.5,
				4.5,
				-3.5
			],
			"type":"VEC3"
		},
		{
			"bufferView":45,
			"componentType":5126,
			"count":40,
			"type":"VEC3"
		},
		{
			"bufferView":46,
			"componentType":5126,
			"count":40,
			"type":"VEC2"
		},
		{
			"bufferView":47,
			"componentType":5123,
			"count":72,
			"type":"SCALAR"
		},
		{
			"bufferView":48,
			"componentType":5126,
			"count":8,
			"max":[
				2.5,
				5,
				2.5
			],
			"min":[
				-2.5,
				5,
				-2.5
			],
			"type":"VEC3"
		},
		{
			"bufferView":49,
			"componentType":5126,
			"count":8,
			"type":"VEC3"
		},
		{
			"bufferView":50,
			"componentType":5126,
			"count":8,
			"type":"VEC2"
		},
		{
			"bufferView":51,
			"componentType":5123,
			"count":18,
			"type":"SCALAR"
		}
	],
	"bufferViews":[
		{
			"buffer":0,
			"byteLength":3024,
			"byteOffset":0,
			"target":34962
		},
		{
			"buffer":0,
			"byteLength":3024,
			"byteOffset":3024,
			"target":34962
		},
		{
			"buffer":0,
			"byteLength":2016,
			"byteOffset":6048,
			"target":34962
		},
		{
			"buffer":0,
			"byteLength":1128,
			"byteOffset":8064,
			"target":34963
		},
		{
			"buffer":0,
			"byteLength":1248,
			"byteOffset":9192,
			"target":34962
		},
		{
			"buffer":0,
			"byteLength":1248,
			"byteOffset":10440,
			"target":34962
		},
		{
			"buffer":0,
			"byteLength":832,
			"byteOffset":11688,
			"target":34962
		},
		{
			"buffer":0,
			"byteLength":384,
			"byteOffset":12520,
			"target":34963
		},
		{
			"buffer":0,
			"byteLength":5568,
			"byteOffset":12904,
			"target":34962
		},
		{
			"buffer":0,
			"byteLength":5568,
			"byteOffset":18472,
			"target":34962
		},
		{
			"buffer":0,
			"byteLength":3712,
			"byteOffset":24040,
			"target":34962
		},
		{
			"buffer":0,
			"byteLength":1728,
			"byteOffset":27752,
			"target":34963
		},
		{
			"buffer":0,
			"byteLength":1632,
			"byteOffset":29480,
			"target":34962
		},
		{
			"buffer":0,
			"byteLength":1632,
			"byteOffset":31112,
			"target":34962
		},
		{
			"buffer":0,
			"byteLength":1088,
			"byteOffset":32744,
			"target":34962
		},
		{
			"buffer":0,
			"byteLength":576,
			"byteOffset":33832,
			"target":34963
		},
		{
			"buffer":0,
			"byteLength":528,
			"byteOffset":34408,
			"target":34962
		},
		{
			"buffer":0,
			"byteLength":528,
			"byteOffset":34936,
			"target":34962
		},
		{
			"buffer":0,
			"byteLength":352,
			"byteOffset":35464,
			"target":34962
		},
		{
			"buffer":0,
			"byteLength":336,
			"byteOffset":35816,
			"target":34963
		},
		{
			"buffer":0,
			"byteLength":7296,
			"byteOffset":36152,
			"target":34962
		},
		{
			"buffer":0,
			"byteLength":7296,
			"byteOffset":43448,
			"target":34962
		},
		{
			"buffer":0,
			"byteLength":4864,
			"byteOffset":50744,
			"target":34962
		},
		{
			"buffer":0,
			"byteLength":2304,
			"byteOffset":55608,
			"target":34963
		},
		{
			"buffer":0,
			"byteLength":1344,
			"byteOffset":57912,
			"target":34962
		},
		{
			"buffer":0,
			"byteLength":1344,
			"byteOffset":59256,
			"target":34962
		},
		{
			"buffer":0,
			"byteLength":896,
			"byteOffset":60600,
			"target":34962
		},
		{
			"buffer":0,
			"byteLength":672,
			"byteOffset":61496,
			"target":34963
		},
		{
			"buffer":0,
			"byteLength":48,
			"byteOffset":62168,
			"target":34962
		},
		{
			"buffer":0,
			"byteLength":48,
			"byteOffset":62216,
			"target":34962
		},
		{
			"buffer":0,
			"byteLength":32,
			"byteOffset":62264,
			"target":34962
		},
		{
			"buffer":0,
			"byteLength":12,
			"byteOffset":62296,
			"target":34963
		},
		{
			"buffer":0,
			"byteLength":1248,
			"byteOffset":62308,
			"target":34962
		},
		{
			"buffer":0,
			"byteLength":1248,
			"byteOffset":63556,
			"target":34962
		},
		{
			"buffer":0,
			"byteLength":832,
			"byteOffset":64804,
			"target":34962
		},
		{
			"buffer":0,
			"byteLength":336,
			"byteOffset":65636,
			"target":34963
		},
		{
			"buffer":0,
			"byteLength":192,
			"byteOffset":65972,
			"target":34962
		},
		{
			"buffer":0,
			"byteLength":192,
			"byteOffset":66164,
			"target":34962
		},
		{
			"buffer":0,
			"byteLength":128,
			"byteOffset":66356,
			"target":34962
		},
		{
			"buffer":0,
			"byteLength":48,
			"byteOffset":66484,
			"target":34963
		},
		{
			"buffer":0,
			"byteLength":192,
			"byteOffset":66532,
			"target":34962
		},
		{
			"buffer":0,
			"byteLength":192,
			"byteOffset":66724,
			"target":34962
		},
		{
			"buffer":0,
			"byteLength":128,
			"byteOffset":66916,
			"target":34962
		},
		{
			"buffer":0,
			"byteLength":48,
			"byteOffset":67044,
			"target":34963
		},
		{
			"buffer":0,
			"byteLength":480,
			"byteOffset":67092,
			"target":34962
		},
		{
			"buffer":0,
			"byteLength":480,
			"byteOffset":67572,
			"target":34962
		},
		{
			"buffer":0,
			"byteLength":320,
			"byteOffset":68052,
			"target":34962
		},
		{
			"buffer":0,
			"byteLength":144,
			"byteOffset":68372,
			"target":34963
		},
		{
			"buffer":0,
			"byteLength":96,
			"byteOffset":68516,
			"target":34962
		},
		{
			"buffer":0,
			"byteLength":96,
			"byteOffset":68612,
			"target":34962
		},
		{
			"buffer":0,
			"byteLength":64,
			"byteOffset":68708,
			"target":34962
		},
		{
			"buffer":0,
			"byteLength":36,
			"byteOffset":68772,
			"target":34963
		}
	],
	"buffers":[
		{
			"byteLength":68808,
			"uri":"rst_derm_plat.bin"
		}
	]
}
