{
	"asset":{
		"generator":"Khronos glTF Blender I/O v4.5.48",
		"version":"2.0"
	},
	"scene":0,
	"scenes":[
		{
			"name":"Scene",
			"nodes":[
				0
			]
		}
	],
	"nodes":[
		{
			"mesh":0,
			"name":"Object"
		}
	],
	"materials":[
		{
			"doubleSided":true,
			"name":"BE_IPIPE01",
			"pbrMetallicRoughness":{
				"baseColorFactor":[
					0.800000011920929,
					0.800000011920929,
					0.800000011920929,
					1
				],
				"metallicFactor":0,
				"roughnessFactor":0.5
			}
		},
		{
			"doubleSided":true,
			"name":"BE_IFLO01",
			"pbrMetallicRoughness":{
				"baseColorFactor":[
					0.800000011920929,
					0.800000011920929,
					0.800000011920929,
					1
				],
				"metallicFactor":0,
				"roughnessFactor":0.5
			}
		},
		{
			"doubleSided":true,
			"name":"BE_EWAL04A",
			"pbrMetallicRoughness":{
				"baseColorFactor":[
					0.800000011920929,
					0.800000011920929,
					0.800000011920929,
					1
				],
				"metallicFactor":0,
				"roughnessFactor":0.5
			}
		},
		{
			"doubleSided":true,
			"name":"BE_EWAL03A",
			"pbrMetallicRoughness":{
				"baseColorFactor":[
					0.800000011920929,
					0.800000011920929,
					0.800000011920929,
					1
				],
				"metallicFactor":0,
				"roughnessFactor":0.5
			}
		},
		{
			"doubleSided":true,
			"name":"BE_EWAL01B",
			"pbrMetallicRoughness":{
				"baseColorFactor":[
					0.800000011920929,
					0.800000011920929,
					0.800000011920929,
					1
				],
				"metallicFactor":0,
				"roughnessFactor":0.5
			}
		},
		{
			"doubleSided":true,
			"name":"BE_ITEBOR02",
			"pbrMetallicRoughness":{
				"baseColorFactor":[
					0.800000011920929,
					0.800000011920929,
					0.800000011920929,
					1
				],
				"metallicFactor":0,
				"roughnessFactor":0.5
			}
		},
		{
			"doubleSided":true,
			"name":"BE_ICEI01A",
			"pbrMetallicRoughness":{
				"baseColorFactor":[
					0.800000011920929,
					0.800000011920929,
					0.800000011920929,
					1
				],
				"metallicFactor":0,
				"roughnessFactor":0.5
			}
		}
	],
	"meshes":[
		{
			"name":"Mesh",
			"primitives":[
				{
					"attributes":{
						"POSITION":0,
						"NORMAL":1,
						"TEXCOORD_0":2
					},
					"indices":3,
					"material":0
				},
				{
					"attributes":{
						"POSITION":4,
						"NORMAL":5,
						"TEXCOORD_0":6
					},
					"indices":7,
					"material":1
				},
				{
					"attributes":{
						"POSITION":8,
						"NORMAL":9,
						"TEXCOORD_0":10
					},
					"indices":11,
					"material":2
				},
				{
					"attributes":{
						"POSITION":12,
						"NORMAL":13,
						"TEXCOORD_0":14
					},
					"indices":15,
					"material":3
				},
				{
					"attributes":{
						"POSITION":16,
						"NORMAL":17,
						"TEXCOORD_0":18
					},
					"indices":19,
					"material":4
				},
				{
					"attributes":{
						"POSITION":20,
						"NORMAL":21,
						"TEXCOORD_0":22
					},
					"indices":23,
					"material":5
				},
				{
					"attributes":{
						"POSITION":24,
						"NORMAL":25,
						"TEXCOORD_0":26
					},
					"indices":27,
					"material":6
				}
			]
		}
	],
	"accessors":[
		{
			"bufferView":0,
			"componentType":5126,
			"count":411,
			"max":[
				7.5,
				14,
				20.5
			],
			"min":[
				-7.5,
				-8,
				-8
			],
			"type":"VEC3"
		},
		{
			"bufferView":1,
			"componentType":5126,
			"count":411,
			"type":"VEC3"
		},
		{
			"bufferView":2,
			"componentType":5126,
			"count":411,
			"type":"VEC2"
		},
		{
			"bufferView":3,
			"componentType":5123,
			"count":846,
			"type":"SCALAR"
		},
		{
			"bufferView":4,
			"componentType":5126,
			"count":112,
			"max":[
				24,
				13.5,
				25.5
			],
			"min":[
				-24,
				-4,
				-27.5
			],
			"type":"VEC3"
		},
		{
			"bufferView":5,
			"componentType":5126,
			"count":112,
			"type":"VEC3"
		},
		{
			"bufferView":6,
			"componentType":5126,
			"count":112,
			"type":"VEC2"
		},
		{
			"bufferView":7,
			"componentType":5123,
			"count":252,
			"type":"SCALAR"
		},
		{
			"bufferView":8,
			"componentType":5126,
			"count":120,
			"max":[
				16,
				6,
				6
			],
			"min":[
				-16,
				-4,
				-21.5
			],
			"type":"VEC3"
		},
		{
			"bufferView":9,
			"componentType":5126,
			"count":120,
			"type":"VEC3"
		},
		{
			"bufferView":10,
			"componentType":5126,
			"count":120,
			"type":"VEC2"
		},
		{
			"bufferView":11,
			"componentType":5123,
			"count":222,
			"type":"SCALAR"
		},
		{
			"bufferView":12,
			"componentType":5126,
			"count":24,
			"max":[
				14,
				5,
				6
			],
			"min":[
				-14,
				0,
				-20
			],
			"type":"VEC3"
		},
		{
			"bufferView":13,
			"componentType":5126,
			"count":24,
			"type":"VEC3"
		},
		{
			"bufferView":14,
			"componentType":5126,
			"count":24,
			"type":"VEC2"
		},
		{
			"bufferView":15,
			"componentType":5123,
			"count":36,
			"type":"SCALAR"
		},
		{
			"bufferView":16,
			"componentType":5126,
			"count":48,
			"max":[
				24,
				8,
				10
			],
			"min":[
				-24,
				-4,
				-27.5
			],
			"type":"VEC3"
		},
		{
			"bufferView":17,
			"componentType":5126,
			"count":48,
			"type":"VEC3"
		},
		{
			"bufferView":18,
			"componentType":5126,
			"count":48,
			"type":"VEC2"
		},
		{
			"bufferView":19,
			"componentType":5123,
			"count":78,
			"type":"SCALAR"
		},
		{
			"bufferView":20,
			"componentType":5126,
			"count":20,
			"max":[
				16,
				6,
				6
			],
			"min":[
				-16,
				5.5,
				-21.5
			],
			"type":"VEC3"
		},
		{
			"bufferView":21,
			"componentType":5126,
			"count":20,
			"type":"VEC3"
		},
		{
			"bufferView":22,
			"componentType":5126,
			"count":20,
			"type":"VEC2"
		},
		{
			"bufferView":23,
			"componentType":5123,
			"count":30,
			"type":"SCALAR"
		},
		{
			"bufferView":24,
			"componentType":5126,
			"count":8,
			"max":[
				0.5,
				4.875,
				-4.5
			],
			"min":[
				-0.5,
				4.875,
				-5.5
			],
			"type":"VEC3"
		},
		{
			"bufferView":25,
			"componentType":5126,
			"count":8,
			"type":"VEC3"
		},
		{
			"bufferView":26,
			"componentType":5126,
			"count":8,
			"type":"VEC2"
		},
		{
			"bufferView":27,
			"componentType":5123,
			"count":18,
			"type":"SCALAR"
		}
	],
	"bufferViews":[
		{
			"buffer":0,
			"byteLength":4932,
			"byteOffset":0,
			"target":34962
		},
		{
			"buffer":0,
			"byteLength":4932,
			"byteOffset":4932,
			"target":34962
		},
		{
			"buffer":0,
			"byteLength":3288,
			"byteOffset":9864,
			"target":34962
		},
		{
			"buffer":0,
			"byteLength":1692,
			"byteOffset":13152,
			"target":34963
		},
		{
			"buffer":0,
			"byteLength":1344,
			"byteOffset":14844,
			"target":34962
		},
		{
			"buffer":0,
			"byteLength":1344,
			"byteOffset":16188,
			"target":34962
		},
		{
			"buffer":0,
			"byteLength":896,
			"byteOffset":17532,
			"target":34962
		},
		{
			"buffer":0,
			"byteLength":504,
			"byteOffset":18428,
			"target":34963
		},
		{
			"buffer":0,
			"byteLength":1440,
			"byteOffset":18932,
			"target":34962
		},
		{
			"buffer":0,
			"byteLength":1440,
			"byteOffset":20372,
			"target":34962
		},
		{
			"buffer":0,
			"byteLength":960,
			"byteOffset":21812,
			"target":34962
		},
		{
			"buffer":0,
			"byteLength":444,
			"byteOffset":22772,
			"target":34963
		},
		{
			"buffer":0,
			"byteLength":288,
			"byteOffset":23216,
			"target":34962
		},
		{
			"buffer":0,
			"byteLength":288,
			"byteOffset":23504,
			"target":34962
		},
		{
			"buffer":0,
			"byteLength":192,
			"byteOffset":23792,
			"target":34962
		},
		{
			"buffer":0,
			"byteLength":72,
			"byteOffset":23984,
			"target":34963
		},
		{
			"buffer":0,
			"byteLength":576,
			"byteOffset":24056,
			"target":34962
		},
		{
			"buffer":0,
			"byteLength":576,
			"byteOffset":24632,
			"target":34962
		},
		{
			"buffer":0,
			"byteLength":384,
			"byteOffset":25208,
			"target":34962
		},
		{
			"buffer":0,
			"byteLength":156,
			"byteOffset":25592,
			"target":34963
		},
		{
			"buffer":0,
			"byteLength":240,
			"byteOffset":25748,
			"target":34962
		},
		{
			"buffer":0,
			"byteLength":240,
			"byteOffset":25988,
			"target":34962
		},
		{
			"buffer":0,
			"byteLength":160,
			"byteOffset":26228,
			"target":34962
		},
		{
			"buffer":0,
			"byteLength":60,
			"byteOffset":26388,
			"target":34963
		},
		{
			"buffer":0,
			"byteLength":96,
			"byteOffset":26448,
			"target":34962
		},
		{
			"buffer":0,
			"byteLength":96,
			"byteOffset":26544,
			"target":34962
		},
		{
			"buffer":0,
			"byteLength":64,
			"byteOffset":26640,
			"target":34962
		},
		{
			"buffer":0,
			"byteLength":36,
			"byteOffset":26704,
			"target":34963
		}
	],
	"buffers":[
		{
			"byteLength":26740,
			"uri":"s5_anthem_pipebase.bin"
		}
	]
}
