{
	"asset":{
		"generator":"Khronos glTF Blender I/O v4.5.48",
		"version":"2.0"
	},
	"scene":0,
	"scenes":[
		{
			"name":"Scene",
			"nodes":[
				0
			]
		}
	],
	"nodes":[
		{
			"mesh":0,
			"name":"Object"
		}
	],
	"materials":[
		{
			"doubleSided":true,
			"name":"BE_EWAL01B",
			"pbrMetallicRoughness":{
				"baseColorFactor":[
					0.800000011920929,
					0.800000011920929,
					0.800000011920929,
					1
				],
				"metallicFactor":0,
				"roughnessFactor":0.5
			}
		},
		{
			"doubleSided":true,
			"name":"BE_EWAL02B",
			"pbrMetallicRoughness":{
				"baseColorFactor":[
					0.800000011920929,
					0.800000011920929,
					0.800000011920929,
					1
				],
				"metallicFactor":0,
				"roughnessFactor":0.5
			}
		},
		{
			"doubleSided":true,
			"name":"BE_EWALL10",
			"pbrMetallicRoughness":{
				"baseColorFactor":[
					0.800000011920929,
					0.800000011920929,
					0.800000011920929,
					1
				],
				"metallicFactor":0,
				"roughnessFactor":0.5
			}
		},
		{
			"doubleSided":true,
			"name":"BE_EWAL05",
			"pbrMetallicRoughness":{
				"baseColorFactor":[
					0.800000011920929,
					0.800000011920929,
					0.800000011920929,
					1
				],
				"metallicFactor":0,
				"roughnessFactor":0.5
			}
		}
	],
	"meshes":[
		{
			"name":"Mesh",
			"primitives":[
				{
					"attributes":{
						"POSITION":0,
						"NORMAL":1,
						"TEXCOORD_0":2
					},
					"indices":3,
					"material":0
				},
				{
					"attributes":{
						"POSITION":4,
						"NORMAL":5,
						"TEXCOORD_0":6
					},
					"indices":7,
					"material":1
				},
				{
					"attributes":{
						"POSITION":8,
						"NORMAL":9,
						"TEXCOORD_0":10
					},
					"indices":11,
					"material":2
				},
				{
					"attributes":{
						"POSITION":12,
						"NORMAL":13,
						"TEXCOORD_0":14
					},
					"indices":15,
					"material":3
				}
			]
		}
	],
	"accessors":[
		{
			"bufferView":0,
			"componentType":5126,
			"count":84,
			"max":[
				-29.5,
				22,
				67
			],
			"min":[
				-33.5,
				0,
				57
			],
			"type":"VEC3"
		},
		{
			"bufferView":1,
			"componentType":5126,
			"count":84,
			"type":"VEC3"
		},
		{
			"bufferView":2,
			"componentType":5126,
			"count":84,
			"type":"VEC2"
		},
		{
			"bufferView":3,
			"componentType":5123,
			"count":138,
			"type":"SCALAR"
		},
		{
			"bufferView":4,
			"componentType":5126,
			"count":86,
			"max":[
				-29.5,
				31,
				67
			],
			"min":[
				-33.5,
				14,
				57
			],
			"type":"VEC3"
		},
		{
			"bufferView":5,
			"componentType":5126,
			"count":86,
			"type":"VEC3"
		},
		{
			"bufferView":6,
			"componentType":5126,
			"count":86,
			"type":"VEC2"
		},
		{
			"bufferView":7,
			"componentType":5123,
			"count":180,
			"type":"SCALAR"
		},
		{
			"bufferView":8,
			"componentType":5126,
			"count":48,
			"max":[
				-29,
				31,
				67.5
			],
			"min":[
				-34,
				0,
				57
			],
			"type":"VEC3"
		},
		{
			"bufferView":9,
			"componentType":5126,
			"count":48,
			"type":"VEC3"
		},
		{
			"bufferView":10,
			"componentType":5126,
			"count":48,
			"type":"VEC2"
		},
		{
			"bufferView":11,
			"componentType":5123,
			"count":102,
			"type":"SCALAR"
		},
		{
			"bufferView":12,
			"componentType":5126,
			"count":38,
			"max":[
				-29,
				0,
				67.5
			],
			"min":[
				-34,
				-8,
				60.5
			],
			"type":"VEC3"
		},
		{
			"bufferView":13,
			"componentType":5126,
			"count":38,
			"type":"VEC3"
		},
		{
			"bufferView":14,
			"componentType":5126,
			"count":38,
			"type":"VEC2"
		},
		{
			"bufferView":15,
			"componentType":5123,
			"count":66,
			"type":"SCALAR"
		}
	],
	"bufferViews":[
		{
			"buffer":0,
			"byteLength":1008,
			"byteOffset":0,
			"target":34962
		},
		{
			"buffer":0,
			"byteLength":1008,
			"byteOffset":1008,
			"target":34962
		},
		{
			"buffer":0,
			"byteLength":672,
			"byteOffset":2016,
			"target":34962
		},
		{
			"buffer":0,
			"byteLength":276,
			"byteOffset":2688,
			"target":34963
		},
		{
			"buffer":0,
			"byteLength":1032,
			"byteOffset":2964,
			"target":34962
		},
		{
			"buffer":0,
			"byteLength":1032,
			"byteOffset":3996,
			"target":34962
		},
		{
			"buffer":0,
			"byteLength":688,
			"byteOffset":5028,
			"target":34962
		},
		{
			"buffer":0,
			"byteLength":360,
			"byteOffset":5716,
			"target":34963
		},
		{
			"buffer":0,
			"byteLength":576,
			"byteOffset":6076,
			"target":34962
		},
		{
			"buffer":0,
			"byteLength":576,
			"byteOffset":6652,
			"target":34962
		},
		{
			"buffer":0,
			"byteLength":384,
			"byteOffset":7228,
			"target":34962
		},
		{
			"buffer":0,
			"byteLength":204,
			"byteOffset":7612,
			"target":34963
		},
		{
			"buffer":0,
			"byteLength":456,
			"byteOffset":7816,
			"target":34962
		},
		{
			"buffer":0,
			"byteLength":456,
			"byteOffset":8272,
			"target":34962
		},
		{
			"buffer":0,
			"byteLength":304,
			"byteOffset":8728,
			"target":34962
		},
		{
			"buffer":0,
			"byteLength":132,
			"byteOffset":9032,
			"target":34963
		}
	],
	"buffers":[
		{
			"byteLength":9164,
			"uri":"bmiscpan_ruinb_x2.bin"
		}
	]
}
