{
	"asset":{
		"generator":"Khronos glTF Blender I/O v4.5.48",
		"version":"2.0"
	},
	"scene":0,
	"scenes":[
		{
			"name":"Scene",
			"nodes":[
				0
			]
		}
	],
	"nodes":[
		{
			"mesh":0,
			"name":"Object"
		}
	],
	"materials":[
		{
			"doubleSided":true,
			"name":"BE_EWAL01B",
			"pbrMetallicRoughness":{
				"baseColorFactor":[
					0.800000011920929,
					0.800000011920929,
					0.800000011920929,
					1
				],
				"metallicFactor":0,
				"roughnessFactor":0.5
			}
		},
		{
			"doubleSided":true,
			"name":"BE_EWAL02B",
			"pbrMetallicRoughness":{
				"baseColorFactor":[
					0.800000011920929,
					0.800000011920929,
					0.800000011920929,
					1
				],
				"metallicFactor":0,
				"roughnessFactor":0.5
			}
		},
		{
			"doubleSided":true,
			"name":"BE_EWAL03A",
			"pbrMetallicRoughness":{
				"baseColorFactor":[
					0.800000011920929,
					0.800000011920929,
					0.800000011920929,
					1
				],
				"metallicFactor":0,
				"roughnessFactor":0.5
			}
		},
		{
			"doubleSided":true,
			"name":"BE_EWALL10",
			"pbrMetallicRoughness":{
				"baseColorFactor":[
					0.800000011920929,
					0.800000011920929,
					0.800000011920929,
					1
				],
				"metallicFactor":0,
				"roughnessFactor":0.5
			}
		},
		{
			"doubleSided":true,
			"name":"BE_EWAL05",
			"pbrMetallicRoughness":{
				"baseColorFactor":[
					0.800000011920929,
					0.800000011920929,
					0.800000011920929,
					1
				],
				"metallicFactor":0,
				"roughnessFactor":0.5
			}
		},
		{
			"doubleSided":true,
			"name":"BE_ITEFLO02",
			"pbrMetallicRoughness":{
				"baseColorFactor":[
					0.800000011920929,
					0.800000011920929,
					0.800000011920929,
					1
				],
				"metallicFactor":0,
				"roughnessFactor":0.5
			}
		},
		{
			"doubleSided":true,
			"name":"BE_IHALIG",
			"pbrMetallicRoughness":{
				"baseColorFactor":[
					0.800000011920929,
					0.800000011920929,
					0.800000011920929,
					1
				],
				"metallicFactor":0,
				"roughnessFactor":0.5
			}
		},
		{
			"doubleSided":true,
			"name":"BE_ESPEC01",
			"pbrMetallicRoughness":{
				"baseColorFactor":[
					0.800000011920929,
					0.800000011920929,
					0.800000011920929,
					1
				],
				"metallicFactor":0,
				"roughnessFactor":0.5
			}
		},
		{
			"doubleSided":true,
			"name":"BE_EFLO01",
			"pbrMetallicRoughness":{
				"baseColorFactor":[
					0.800000011920929,
					0.800000011920929,
					0.800000011920929,
					1
				],
				"metallicFactor":0,
				"roughnessFactor":0.5
			}
		}
	],
	"meshes":[
		{
			"name":"Mesh",
			"primitives":[
				{
					"attributes":{
						"POSITION":0,
						"NORMAL":1,
						"TEXCOORD_0":2
					},
					"indices":3,
					"material":0
				},
				{
					"attributes":{
						"POSITION":4,
						"NORMAL":5,
						"TEXCOORD_0":6
					},
					"indices":7,
					"material":1
				},
				{
					"attributes":{
						"POSITION":8,
						"NORMAL":9,
						"TEXCOORD_0":10
					},
					"indices":11,
					"material":2
				},
				{
					"attributes":{
						"POSITION":12,
						"NORMAL":13,
						"TEXCOORD_0":14
					},
					"indices":15,
					"material":3
				},
				{
					"attributes":{
						"POSITION":16,
						"NORMAL":17,
						"TEXCOORD_0":18
					},
					"indices":19,
					"material":4
				},
				{
					"attributes":{
						"POSITION":20,
						"NORMAL":21,
						"TEXCOORD_0":22
					},
					"indices":23,
					"material":5
				},
				{
					"attributes":{
						"POSITION":24,
						"NORMAL":25,
						"TEXCOORD_0":26
					},
					"indices":27,
					"material":6
				},
				{
					"attributes":{
						"POSITION":28,
						"NORMAL":29,
						"TEXCOORD_0":30
					},
					"indices":31,
					"material":7
				},
				{
					"attributes":{
						"POSITION":32,
						"NORMAL":33,
						"TEXCOORD_0":34
					},
					"indices":35,
					"material":8
				}
			]
		}
	],
	"accessors":[
		{
			"bufferView":0,
			"componentType":5126,
			"count":343,
			"max":[
				-30,
				35,
				30
			],
			"min":[
				-46.5,
				0,
				-22
			],
			"type":"VEC3"
		},
		{
			"bufferView":1,
			"componentType":5126,
			"count":343,
			"type":"VEC3"
		},
		{
			"bufferView":2,
			"componentType":5126,
			"count":343,
			"type":"VEC2"
		},
		{
			"bufferView":3,
			"componentType":5123,
			"count":642,
			"type":"SCALAR"
		},
		{
			"bufferView":4,
			"componentType":5126,
			"count":178,
			"max":[
				-30,
				34.1875,
				28
			],
			"min":[
				-46.5,
				4.5,
				0
			],
			"type":"VEC3"
		},
		{
			"bufferView":5,
			"componentType":5126,
			"count":178,
			"type":"VEC3"
		},
		{
			"bufferView":6,
			"componentType":5126,
			"count":178,
			"type":"VEC2"
		},
		{
			"bufferView":7,
			"componentType":5123,
			"count":318,
			"type":"SCALAR"
		},
		{
			"bufferView":8,
			"componentType":5126,
			"count":7,
			"max":[
				-31,
				35,
				8
			],
			"min":[
				-44.5,
				29,
				0
			],
			"type":"VEC3"
		},
		{
			"bufferView":9,
			"componentType":5126,
			"count":7,
			"type":"VEC3"
		},
		{
			"bufferView":10,
			"componentType":5126,
			"count":7,
			"type":"VEC2"
		},
		{
			"bufferView":11,
			"componentType":5123,
			"count":9,
			"type":"SCALAR"
		},
		{
			"bufferView":12,
			"componentType":5126,
			"count":215,
			"max":[
				-20,
				35,
				30.5
			],
			"min":[
				-47,
				-4,
				-22
			],
			"type":"VEC3"
		},
		{
			"bufferView":13,
			"componentType":5126,
			"count":215,
			"type":"VEC3"
		},
		{
			"bufferView":14,
			"componentType":5126,
			"count":215,
			"type":"VEC2"
		},
		{
			"bufferView":15,
			"componentType":5123,
			"count":471,
			"type":"SCALAR"
		},
		{
			"bufferView":16,
			"componentType":5126,
			"count":188,
			"max":[
				-20,
				2.6360859105613863e-16,
				30.5
			],
			"min":[
				-47,
				-8,
				-22
			],
			"type":"VEC3"
		},
		{
			"bufferView":17,
			"componentType":5126,
			"count":188,
			"type":"VEC3"
		},
		{
			"bufferView":18,
			"componentType":5126,
			"count":188,
			"type":"VEC2"
		},
		{
			"bufferView":19,
			"componentType":5123,
			"count":312,
			"type":"SCALAR"
		},
		{
			"bufferView":20,
			"componentType":5126,
			"count":22,
			"max":[
				-30,
				0,
				24
			],
			"min":[
				-43.5,
				0,
				4
			],
			"type":"VEC3"
		},
		{
			"bufferView":21,
			"componentType":5126,
			"count":22,
			"type":"VEC3"
		},
		{
			"bufferView":22,
			"componentType":5126,
			"count":22,
			"type":"VEC2"
		},
		{
			"bufferView":23,
			"componentType":5123,
			"count":60,
			"type":"SCALAR"
		},
		{
			"bufferView":24,
			"componentType":5126,
			"count":8,
			"max":[
				-36,
				11.5,
				24
			],
			"min":[
				-40,
				10,
				4
			],
			"type":"VEC3"
		},
		{
			"bufferView":25,
			"componentType":5126,
			"count":8,
			"type":"VEC3"
		},
		{
			"bufferView":26,
			"componentType":5126,
			"count":8,
			"type":"VEC2"
		},
		{
			"bufferView":27,
			"componentType":5123,
			"count":12,
			"type":"SCALAR"
		},
		{
			"bufferView":28,
			"componentType":5126,
			"count":8,
			"max":[
				-36,
				19.5,
				23
			],
			"min":[
				-40,
				11.5,
				5
			],
			"type":"VEC3"
		},
		{
			"bufferView":29,
			"componentType":5126,
			"count":8,
			"type":"VEC3"
		},
		{
			"bufferView":30,
			"componentType":5126,
			"count":8,
			"type":"VEC2"
		},
		{
			"bufferView":31,
			"componentType":5123,
			"count":12,
			"type":"SCALAR"
		},
		{
			"bufferView":32,
			"componentType":5126,
			"count":17,
			"max":[
				-36,
				21,
				24
			],
			"min":[
				-40,
				10,
				4
			],
			"type":"VEC3"
		},
		{
			"bufferView":33,
			"componentType":5126,
			"count":17,
			"type":"VEC3"
		},
		{
			"bufferView":34,
			"componentType":5126,
			"count":17,
			"type":"VEC2"
		},
		{
			"bufferView":35,
			"componentType":5123,
			"count":27,
			"type":"SCALAR"
		}
	],
	"bufferViews":[
		{
			"buffer":0,
			"byteLength":4116,
			"byteOffset":0,
			"target":34962
		},
		{
			"buffer":0,
			"byteLength":4116,
			"byteOffset":4116,
			"target":34962
		},
		{
			"buffer":0,
			"byteLength":2744,
			"byteOffset":8232,
			"target":34962
		},
		{
			"buffer":0,
			"byteLength":1284,
			"byteOffset":10976,
			"target":34963
		},
		{
			"buffer":0,
			"byteLength":2136,
			"byteOffset":12260,
			"target":34962
		},
		{
			"buffer":0,
			"byteLength":2136,
			"byteOffset":14396,
			"target":34962
		},
		{
			"buffer":0,
			"byteLength":1424,
			"byteOffset":16532,
			"target":34962
		},
		{
			"buffer":0,
			"byteLength":636,
			"byteOffset":17956,
			"target":34963
		},
		{
			"buffer":0,
			"byteLength":84,
			"byteOffset":18592,
			"target":34962
		},
		{
			"buffer":0,
			"byteLength":84,
			"byteOffset":18676,
			"target":34962
		},
		{
			"buffer":0,
			"byteLength":56,
			"byteOffset":18760,
			"target":34962
		},
		{
			"buffer":0,
			"byteLength":18,
			"byteOffset":18816,
			"target":34963
		},
		{
			"buffer":0,
			"byteLength":2580,
			"byteOffset":18836,
			"target":34962
		},
		{
			"buffer":0,
			"byteLength":2580,
			"byteOffset":21416,
			"target":34962
		},
		{
			"buffer":0,
			"byteLength":1720,
			"byteOffset":23996,
			"target":34962
		},
		{
			"buffer":0,
			"byteLength":942,
			"byteOffset":25716,
			"target":34963
		},
		{
			"buffer":0,
			"byteLength":2256,
			"byteOffset":26660,
			"target":34962
		},
		{
			"buffer":0,
			"byteLength":2256,
			"byteOffset":28916,
			"target":34962
		},
		{
			"buffer":0,
			"byteLength":1504,
			"byteOffset":31172,
			"target":34962
		},
		{
			"buffer":0,
			"byteLength":624,
			"byteOffset":32676,
			"target":34963
		},
		{
			"buffer":0,
			"byteLength":264,
			"byteOffset":33300,
			"target":34962
		},
		{
			"buffer":0,
			"byteLength":264,
			"byteOffset":33564,
			"target":34962
		},
		{
			"buffer":0,
			"byteLength":176,
			"byteOffset":33828,
			"target":34962
		},
		{
			"buffer":0,
			"byteLength":120,
			"byteOffset":34004,
			"target":34963
		},
		{
			"buffer":0,
			"byteLength":96,
			"byteOffset":34124,
			"target":34962
		},
		{
			"buffer":0,
			"byteLength":96,
			"byteOffset":34220,
			"target":34962
		},
		{
			"buffer":0,
			"byteLength":64,
			"byteOffset":34316,
			"target":34962
		},
		{
			"buffer":0,
			"byteLength":24,
			"byteOffset":34380,
			"target":34963
		},
		{
			"buffer":0,
			"byteLength":96,
			"byteOffset":34404,
			"target":34962
		},
		{
			"buffer":0,
			"byteLength":96,
			"byteOffset":34500,
			"target":34962
		},
		{
			"buffer":0,
			"byteLength":64,
			"byteOffset":34596,
			"target":34962
		},
		{
			"buffer":0,
			"byteLength":24,
			"byteOffset":34660,
			"target":34963
		},
		{
			"buffer":0,
			"byteLength":204,
			"byteOffset":34684,
			"target":34962
		},
		{
			"buffer":0,
			"byteLength":204,
			"byteOffset":34888,
			"target":34962
		},
		{
			"buffer":0,
			"byteLength":136,
			"byteOffset":35092,
			"target":34962
		},
		{
			"buffer":0,
			"byteLength":54,
			"byteOffset":35228,
			"target":34963
		}
	],
	"buffers":[
		{
			"byteLength":35284,
			"uri":"bmiscpan_ruinc_x2.bin"
		}
	]
}
