{
	"asset":{
		"generator":"Khronos glTF Blender I/O v4.5.48",
		"version":"2.0"
	},
	"scene":0,
	"scenes":[
		{
			"name":"Scene",
			"nodes":[
				0
			]
		}
	],
	"nodes":[
		{
			"mesh":0,
			"name":"Object"
		}
	],
	"materials":[
		{
			"doubleSided":true,
			"name":"BE_EFLO01",
			"pbrMetallicRoughness":{
				"baseColorFactor":[
					0.800000011920929,
					0.800000011920929,
					0.800000011920929,
					1
				],
				"metallicFactor":0,
				"roughnessFactor":0.5
			}
		},
		{
			"doubleSided":true,
			"name":"BE_IHALIG",
			"pbrMetallicRoughness":{
				"baseColorFactor":[
					0.800000011920929,
					0.800000011920929,
					0.800000011920929,
					1
				],
				"metallicFactor":0,
				"roughnessFactor":0.5
			}
		},
		{
			"doubleSided":true,
			"name":"BE_EWAL09B",
			"pbrMetallicRoughness":{
				"baseColorFactor":[
					0.800000011920929,
					0.800000011920929,
					0.800000011920929,
					1
				],
				"metallicFactor":0,
				"roughnessFactor":0.5
			}
		},
		{
			"doubleSided":true,
			"name":"BE_EWAL06",
			"pbrMetallicRoughness":{
				"baseColorFactor":[
					0.800000011920929,
					0.800000011920929,
					0.800000011920929,
					1
				],
				"metallicFactor":0,
				"roughnessFactor":0.5
			}
		},
		{
			"doubleSided":true,
			"name":"BE_ITEBOR02A",
			"pbrMetallicRoughness":{
				"baseColorFactor":[
					0.800000011920929,
					0.800000011920929,
					0.800000011920929,
					1
				],
				"metallicFactor":0,
				"roughnessFactor":0.5
			}
		},
		{
			"doubleSided":true,
			"name":"BE_ICEI03B",
			"pbrMetallicRoughness":{
				"baseColorFactor":[
					0.800000011920929,
					0.800000011920929,
					0.800000011920929,
					1
				],
				"metallicFactor":0,
				"roughnessFactor":0.5
			}
		},
		{
			"doubleSided":true,
			"name":"BE_EWAL01B",
			"pbrMetallicRoughness":{
				"baseColorFactor":[
					0.800000011920929,
					0.800000011920929,
					0.800000011920929,
					1
				],
				"metallicFactor":0,
				"roughnessFactor":0.5
			}
		},
		{
			"doubleSided":true,
			"name":"BE_ITEFLO01",
			"pbrMetallicRoughness":{
				"baseColorFactor":[
					0.800000011920929,
					0.800000011920929,
					0.800000011920929,
					1
				],
				"metallicFactor":0,
				"roughnessFactor":0.5
			}
		},
		{
			"doubleSided":true,
			"name":"BE_EBOR01B",
			"pbrMetallicRoughness":{
				"baseColorFactor":[
					0.800000011920929,
					0.800000011920929,
					0.800000011920929,
					1
				],
				"metallicFactor":0,
				"roughnessFactor":0.5
			}
		},
		{
			"doubleSided":true,
			"name":"BE_IHAWAL04A",
			"pbrMetallicRoughness":{
				"baseColorFactor":[
					0.800000011920929,
					0.800000011920929,
					0.800000011920929,
					1
				],
				"metallicFactor":0,
				"roughnessFactor":0.5
			}
		},
		{
			"doubleSided":true,
			"name":"BE_ITEBOR04",
			"pbrMetallicRoughness":{
				"baseColorFactor":[
					0.800000011920929,
					0.800000011920929,
					0.800000011920929,
					1
				],
				"metallicFactor":0,
				"roughnessFactor":0.5
			}
		},
		{
			"doubleSided":true,
			"name":"BE_IHAWAL05A",
			"pbrMetallicRoughness":{
				"baseColorFactor":[
					0.800000011920929,
					0.800000011920929,
					0.800000011920929,
					1
				],
				"metallicFactor":0,
				"roughnessFactor":0.5
			}
		},
		{
			"doubleSided":true,
			"name":"BE_ICEI01B",
			"pbrMetallicRoughness":{
				"baseColorFactor":[
					0.800000011920929,
					0.800000011920929,
					0.800000011920929,
					1
				],
				"metallicFactor":0,
				"roughnessFactor":0.5
			}
		},
		{
			"doubleSided":true,
			"name":"BE_IHASPE01",
			"pbrMetallicRoughness":{
				"baseColorFactor":[
					0.800000011920929,
					0.800000011920929,
					0.800000011920929,
					1
				],
				"metallicFactor":0,
				"roughnessFactor":0.5
			}
		},
		{
			"doubleSided":true,
			"name":"BE_EWAL02B",
			"pbrMetallicRoughness":{
				"baseColorFactor":[
					0.800000011920929,
					0.800000011920929,
					0.800000011920929,
					1
				],
				"metallicFactor":0,
				"roughnessFactor":0.5
			}
		},
		{
			"doubleSided":true,
			"name":"BE_ITEWAL04",
			"pbrMetallicRoughness":{
				"baseColorFactor":[
					0.800000011920929,
					0.800000011920929,
					0.800000011920929,
					1
				],
				"metallicFactor":0,
				"roughnessFactor":0.5
			}
		}
	],
	"meshes":[
		{
			"name":"Mesh",
			"primitives":[
				{
					"attributes":{
						"POSITION":0,
						"NORMAL":1,
						"TEXCOORD_0":2
					},
					"indices":3,
					"material":0
				},
				{
					"attributes":{
						"POSITION":4,
						"NORMAL":5,
						"TEXCOORD_0":6
					},
					"indices":7,
					"material":1
				},
				{
					"attributes":{
						"POSITION":8,
						"NORMAL":9,
						"TEXCOORD_0":10
					},
					"indices":11,
					"material":2
				},
				{
					"attributes":{
						"POSITION":12,
						"NORMAL":13,
						"TEXCOORD_0":14
					},
					"indices":15,
					"material":3
				},
				{
					"attributes":{
						"POSITION":16,
						"NORMAL":17,
						"TEXCOORD_0":18
					},
					"indices":19,
					"material":4
				},
				{
					"attributes":{
						"POSITION":20,
						"NORMAL":21,
						"TEXCOORD_0":22
					},
					"indices":23,
					"material":5
				},
				{
					"attributes":{
						"POSITION":24,
						"NORMAL":25,
						"TEXCOORD_0":26
					},
					"indices":27,
					"material":6
				},
				{
					"attributes":{
						"POSITION":28,
						"NORMAL":29,
						"TEXCOORD_0":30
					},
					"indices":31,
					"material":7
				},
				{
					"attributes":{
						"POSITION":32,
						"NORMAL":33,
						"TEXCOORD_0":34
					},
					"indices":35,
					"material":8
				},
				{
					"attributes":{
						"POSITION":36,
						"NORMAL":37,
						"TEXCOORD_0":38
					},
					"indices":39,
					"material":9
				},
				{
					"attributes":{
						"POSITION":40,
						"NORMAL":41,
						"TEXCOORD_0":42
					},
					"indices":43,
					"material":10
				},
				{
					"attributes":{
						"POSITION":44,
						"NORMAL":45,
						"TEXCOORD_0":46
					},
					"indices":47,
					"material":11
				},
				{
					"attributes":{
						"POSITION":48,
						"NORMAL":49,
						"TEXCOORD_0":50
					},
					"indices":51,
					"material":12
				},
				{
					"attributes":{
						"POSITION":52,
						"NORMAL":53,
						"TEXCOORD_0":54
					},
					"indices":55,
					"material":13
				},
				{
					"attributes":{
						"POSITION":56,
						"NORMAL":57,
						"TEXCOORD_0":58
					},
					"indices":59,
					"material":14
				},
				{
					"attributes":{
						"POSITION":60,
						"NORMAL":61,
						"TEXCOORD_0":62
					},
					"indices":63,
					"material":15
				}
			]
		}
	],
	"accessors":[
		{
			"bufferView":0,
			"componentType":5126,
			"count":55,
			"max":[
				23,
				20,
				6
			],
			"min":[
				-10,
				-4,
				-40.0625
			],
			"type":"VEC3"
		},
		{
			"bufferView":1,
			"componentType":5126,
			"count":55,
			"type":"VEC3"
		},
		{
			"bufferView":2,
			"componentType":5126,
			"count":55,
			"type":"VEC2"
		},
		{
			"bufferView":3,
			"componentType":5123,
			"count":141,
			"type":"SCALAR"
		},
		{
			"bufferView":4,
			"componentType":5126,
			"count":32,
			"max":[
				6,
				20,
				2
			],
			"min":[
				-6,
				6.5,
				-28
			],
			"type":"VEC3"
		},
		{
			"bufferView":5,
			"componentType":5126,
			"count":32,
			"type":"VEC3"
		},
		{
			"bufferView":6,
			"componentType":5126,
			"count":32,
			"type":"VEC2"
		},
		{
			"bufferView":7,
			"componentType":5123,
			"count":48,
			"type":"SCALAR"
		},
		{
			"bufferView":8,
			"componentType":5126,
			"count":52,
			"max":[
				8,
				30,
				8
			],
			"min":[
				-8,
				18,
				-8
			],
			"type":"VEC3"
		},
		{
			"bufferView":9,
			"componentType":5126,
			"count":52,
			"type":"VEC3"
		},
		{
			"bufferView":10,
			"componentType":5126,
			"count":52,
			"type":"VEC2"
		},
		{
			"bufferView":11,
			"componentType":5123,
			"count":96,
			"type":"SCALAR"
		},
		{
			"bufferView":12,
			"componentType":5126,
			"count":266,
			"max":[
				23,
				30,
				10
			],
			"min":[
				-23,
				10.5,
				-40
			],
			"type":"VEC3"
		},
		{
			"bufferView":13,
			"componentType":5126,
			"count":266,
			"type":"VEC3"
		},
		{
			"bufferView":14,
			"componentType":5126,
			"count":266,
			"type":"VEC2"
		},
		{
			"bufferView":15,
			"componentType":5123,
			"count":546,
			"type":"SCALAR"
		},
		{
			"bufferView":16,
			"componentType":5126,
			"count":4,
			"max":[
				4,
				16,
				7
			],
			"min":[
				-4,
				16,
				6
			],
			"type":"VEC3"
		},
		{
			"bufferView":17,
			"componentType":5126,
			"count":4,
			"type":"VEC3"
		},
		{
			"bufferView":18,
			"componentType":5126,
			"count":4,
			"type":"VEC2"
		},
		{
			"bufferView":19,
			"componentType":5123,
			"count":6,
			"type":"SCALAR"
		},
		{
			"bufferView":20,
			"componentType":5126,
			"count":328,
			"max":[
				23,
				28,
				14
			],
			"min":[
				-23,
				-6,
				-44
			],
			"type":"VEC3"
		},
		{
			"bufferView":21,
			"componentType":5126,
			"count":328,
			"type":"VEC3"
		},
		{
			"bufferView":22,
			"componentType":5126,
			"count":328,
			"type":"VEC2"
		},
		{
			"bufferView":23,
			"componentType":5123,
			"count":714,
			"type":"SCALAR"
		},
		{
			"bufferView":24,
			"componentType":5126,
			"count":207,
			"max":[
				27,
				28,
				14
			],
			"min":[
				-27,
				-4,
				-44
			],
			"type":"VEC3"
		},
		{
			"bufferView":25,
			"componentType":5126,
			"count":207,
			"type":"VEC3"
		},
		{
			"bufferView":26,
			"componentType":5126,
			"count":207,
			"type":"VEC2"
		},
		{
			"bufferView":27,
			"componentType":5123,
			"count":387,
			"type":"SCALAR"
		},
		{
			"bufferView":28,
			"componentType":5126,
			"count":116,
			"max":[
				26,
				10,
				7
			],
			"min":[
				-26,
				-4,
				-40
			],
			"type":"VEC3"
		},
		{
			"bufferView":29,
			"componentType":5126,
			"count":116,
			"type":"VEC3"
		},
		{
			"bufferView":30,
			"componentType":5126,
			"count":116,
			"type":"VEC2"
		},
		{
			"bufferView":31,
			"componentType":5123,
			"count":279,
			"type":"SCALAR"
		},
		{
			"bufferView":32,
			"componentType":5126,
			"count":160,
			"max":[
				26,
				16,
				-21.9375
			],
			"min":[
				-26,
				-4,
				-43.0625
			],
			"type":"VEC3"
		},
		{
			"bufferView":33,
			"componentType":5126,
			"count":160,
			"type":"VEC3"
		},
		{
			"bufferView":34,
			"componentType":5126,
			"count":160,
			"type":"VEC2"
		},
		{
			"bufferView":35,
			"componentType":5123,
			"count":336,
			"type":"SCALAR"
		},
		{
			"bufferView":36,
			"componentType":5126,
			"count":60,
			"max":[
				6,
				16,
				6
			],
			"min":[
				-6,
				4.5,
				-28
			],
			"type":"VEC3"
		},
		{
			"bufferView":37,
			"componentType":5126,
			"count":60,
			"type":"VEC3"
		},
		{
			"bufferView":38,
			"componentType":5126,
			"count":60,
			"type":"VEC2"
		},
		{
			"bufferView":39,
			"componentType":5123,
			"count":144,
			"type":"SCALAR"
		},
		{
			"bufferView":40,
			"componentType":5126,
			"count":16,
			"max":[
				6,
				16,
				7
			],
			"min":[
				-6,
				7,
				-14
			],
			"type":"VEC3"
		},
		{
			"bufferView":41,
			"componentType":5126,
			"count":16,
			"type":"VEC3"
		},
		{
			"bufferView":42,
			"componentType":5126,
			"count":16,
			"type":"VEC2"
		},
		{
			"bufferView":43,
			"componentType":5123,
			"count":24,
			"type":"SCALAR"
		},
		{
			"bufferView":44,
			"componentType":5126,
			"count":363,
			"max":[
				27,
				16,
				-24.9375
			],
			"min":[
				-27,
				-4,
				-40.0625
			],
			"type":"VEC3"
		},
		{
			"bufferView":45,
			"componentType":5126,
			"count":363,
			"type":"VEC3"
		},
		{
			"bufferView":46,
			"componentType":5126,
			"count":363,
			"type":"VEC2"
		},
		{
			"bufferView":47,
			"componentType":5123,
			"count":759,
			"type":"SCALAR"
		},
		{
			"bufferView":48,
			"componentType":5126,
			"count":69,
			"max":[
				23,
				16,
				-8
			],
			"min":[
				-23,
				10.5,
				-37
			],
			"type":"VEC3"
		},
		{
			"bufferView":49,
			"componentType":5126,
			"count":69,
			"type":"VEC3"
		},
		{
			"bufferView":50,
			"componentType":5126,
			"count":69,
			"type":"VEC2"
		},
		{
			"bufferView":51,
			"componentType":5123,
			"count":141,
			"type":"SCALAR"
		},
		{
			"bufferView":52,
			"componentType":5126,
			"count":4,
			"max":[
				2,
				15,
				-30
			],
			"min":[
				-2,
				15,
				-34
			],
			"type":"VEC3"
		},
		{
			"bufferView":53,
			"componentType":5126,
			"count":4,
			"type":"VEC3"
		},
		{
			"bufferView":54,
			"componentType":5126,
			"count":4,
			"type":"VEC2"
		},
		{
			"bufferView":55,
			"componentType":5123,
			"count":6,
			"type":"SCALAR"
		},
		{
			"bufferView":56,
			"componentType":5126,
			"count":28,
			"max":[
				10.5625,
				15.16778564453125,
				10.5625
			],
			"min":[
				-10.5625,
				8.25,
				-40.5625
			],
			"type":"VEC3"
		},
		{
			"bufferView":57,
			"componentType":5126,
			"count":28,
			"type":"VEC3"
		},
		{
			"bufferView":58,
			"componentType":5126,
			"count":28,
			"type":"VEC2"
		},
		{
			"bufferView":59,
			"componentType":5123,
			"count":48,
			"type":"SCALAR"
		},
		{
			"bufferView":60,
			"componentType":5126,
			"count":8,
			"max":[
				4,
				16,
				7
			],
			"min":[
				-4,
				10,
				6
			],
			"type":"VEC3"
		},
		{
			"bufferView":61,
			"componentType":5126,
			"count":8,
			"type":"VEC3"
		},
		{
			"bufferView":62,
			"componentType":5126,
			"count":8,
			"type":"VEC2"
		},
		{
			"bufferView":63,
			"componentType":5123,
			"count":12,
			"type":"SCALAR"
		}
	],
	"bufferViews":[
		{
			"buffer":0,
			"byteLength":660,
			"byteOffset":0,
			"target":34962
		},
		{
			"buffer":0,
			"byteLength":660,
			"byteOffset":660,
			"target":34962
		},
		{
			"buffer":0,
			"byteLength":440,
			"byteOffset":1320,
			"target":34962
		},
		{
			"buffer":0,
			"byteLength":282,
			"byteOffset":1760,
			"target":34963
		},
		{
			"buffer":0,
			"byteLength":384,
			"byteOffset":2044,
			"target":34962
		},
		{
			"buffer":0,
			"byteLength":384,
			"byteOffset":2428,
			"target":34962
		},
		{
			"buffer":0,
			"byteLength":256,
			"byteOffset":2812,
			"target":34962
		},
		{
			"buffer":0,
			"byteLength":96,
			"byteOffset":3068,
			"target":34963
		},
		{
			"buffer":0,
			"byteLength":624,
			"byteOffset":3164,
			"target":34962
		},
		{
			"buffer":0,
			"byteLength":624,
			"byteOffset":3788,
			"target":34962
		},
		{
			"buffer":0,
			"byteLength":416,
			"byteOffset":4412,
			"target":34962
		},
		{
			"buffer":0,
			"byteLength":192,
			"byteOffset":4828,
			"target":34963
		},
		{
			"buffer":0,
			"byteLength":3192,
			"byteOffset":5020,
			"target":34962
		},
		{
			"buffer":0,
			"byteLength":3192,
			"byteOffset":8212,
			"target":34962
		},
		{
			"buffer":0,
			"byteLength":2128,
			"byteOffset":11404,
			"target":34962
		},
		{
			"buffer":0,
			"byteLength":1092,
			"byteOffset":13532,
			"target":34963
		},
		{
			"buffer":0,
			"byteLength":48,
			"byteOffset":14624,
			"target":34962
		},
		{
			"buffer":0,
			"byteLength":48,
			"byteOffset":14672,
			"target":34962
		},
		{
			"buffer":0,
			"byteLength":32,
			"byteOffset":14720,
			"target":34962
		},
		{
			"buffer":0,
			"byteLength":12,
			"byteOffset":14752,
			"target":34963
		},
		{
			"buffer":0,
			"byteLength":3936,
			"byteOffset":14764,
			"target":34962
		},
		{
			"buffer":0,
			"byteLength":3936,
			"byteOffset":18700,
			"target":34962
		},
		{
			"buffer":0,
			"byteLength":2624,
			"byteOffset":22636,
			"target":34962
		},
		{
			"buffer":0,
			"byteLength":1428,
			"byteOffset":25260,
			"target":34963
		},
		{
			"buffer":0,
			"byteLength":2484,
			"byteOffset":26688,
			"target":34962
		},
		{
			"buffer":0,
			"byteLength":2484,
			"byteOffset":29172,
			"target":34962
		},
		{
			"buffer":0,
			"byteLength":1656,
			"byteOffset":31656,
			"target":34962
		},
		{
			"buffer":0,
			"byteLength":774,
			"byteOffset":33312,
			"target":34963
		},
		{
			"buffer":0,
			"byteLength":1392,
			"byteOffset":34088,
			"target":34962
		},
		{
			"buffer":0,
			"byteLength":1392,
			"byteOffset":35480,
			"target":34962
		},
		{
			"buffer":0,
			"byteLength":928,
			"byteOffset":36872,
			"target":34962
		},
		{
			"buffer":0,
			"byteLength":558,
			"byteOffset":37800,
			"target":34963
		},
		{
			"buffer":0,
			"byteLength":1920,
			"byteOffset":38360,
			"target":34962
		},
		{
			"buffer":0,
			"byteLength":1920,
			"byteOffset":40280,
			"target":34962
		},
		{
			"buffer":0,
			"byteLength":1280,
			"byteOffset":42200,
			"target":34962
		},
		{
			"buffer":0,
			"byteLength":672,
			"byteOffset":43480,
			"target":34963
		},
		{
			"buffer":0,
			"byteLength":720,
			"byteOffset":44152,
			"target":34962
		},
		{
			"buffer":0,
			"byteLength":720,
			"byteOffset":44872,
			"target":34962
		},
		{
			"buffer":0,
			"byteLength":480,
			"byteOffset":45592,
			"target":34962
		},
		{
			"buffer":0,
			"byteLength":288,
			"byteOffset":46072,
			"target":34963
		},
		{
			"buffer":0,
			"byteLength":192,
			"byteOffset":46360,
			"target":34962
		},
		{
			"buffer":0,
			"byteLength":192,
			"byteOffset":46552,
			"target":34962
		},
		{
			"buffer":0,
			"byteLength":128,
			"byteOffset":46744,
			"target":34962
		},
		{
			"buffer":0,
			"byteLength":48,
			"byteOffset":46872,
			"target":34963
		},
		{
			"buffer":0,
			"byteLength":4356,
			"byteOffset":46920,
			"target":34962
		},
		{
			"buffer":0,
			"byteLength":4356,
			"byteOffset":51276,
			"target":34962
		},
		{
			"buffer":0,
			"byteLength":2904,
			"byteOffset":55632,
			"target":34962
		},
		{
			"buffer":0,
			"byteLength":1518,
			"byteOffset":58536,
			"target":34963
		},
		{
			"buffer":0,
			"byteLength":828,
			"byteOffset":60056,
			"target":34962
		},
		{
			"buffer":0,
			"byteLength":828,
			"byteOffset":60884,
			"target":34962
		},
		{
			"buffer":0,
			"byteLength":552,
			"byteOffset":61712,
			"target":34962
		},
		{
			"buffer":0,
			"byteLength":282,
			"byteOffset":62264,
			"target":34963
		},
		{
			"buffer":0,
			"byteLength":48,
			"byteOffset":62548,
			"target":34962
		},
		{
			"buffer":0,
			"byteLength":48,
			"byteOffset":62596,
			"target":34962
		},
		{
			"buffer":0,
			"byteLength":32,
			"byteOffset":62644,
			"target":34962
		},
		{
			"buffer":0,
			"byteLength":12,
			"byteOffset":62676,
			"target":34963
		},
		{
			"buffer":0,
			"byteLength":336,
			"byteOffset":62688,
			"target":34962
		},
		{
			"buffer":0,
			"byteLength":336,
			"byteOffset":63024,
			"target":34962
		},
		{
			"buffer":0,
			"byteLength":224,
			"byteOffset":63360,
			"target":34962
		},
		{
			"buffer":0,
			"byteLength":96,
			"byteOffset":63584,
			"target":34963
		},
		{
			"buffer":0,
			"byteLength":96,
			"byteOffset":63680,
			"target":34962
		},
		{
			"buffer":0,
			"byteLength":96,
			"byteOffset":63776,
			"target":34962
		},
		{
			"buffer":0,
			"byteLength":64,
			"byteOffset":63872,
			"target":34962
		},
		{
			"buffer":0,
			"byteLength":24,
			"byteOffset":63936,
			"target":34963
		}
	],
	"buffers":[
		{
			"byteLength":63960,
			"uri":"bmiscpan_bunker1_x.bin"
		}
	]
}
