{
	"asset":{
		"generator":"Khronos glTF Blender I/O v4.5.48",
		"version":"2.0"
	},
	"scene":0,
	"scenes":[
		{
			"name":"Scene",
			"nodes":[
				0
			]
		}
	],
	"nodes":[
		{
			"mesh":0,
			"name":"Object"
		}
	],
	"materials":[
		{
			"doubleSided":true,
			"name":"BE_EFLO02",
			"pbrMetallicRoughness":{
				"baseColorFactor":[
					0.800000011920929,
					0.800000011920929,
					0.800000011920929,
					1
				],
				"metallicFactor":0,
				"roughnessFactor":0.5
			}
		},
		{
			"doubleSided":true,
			"name":"BE_EWAL04A",
			"pbrMetallicRoughness":{
				"baseColorFactor":[
					0.800000011920929,
					0.800000011920929,
					0.800000011920929,
					1
				],
				"metallicFactor":0,
				"roughnessFactor":0.5
			}
		},
		{
			"doubleSided":true,
			"name":"BE_EWAL12B",
			"pbrMetallicRoughness":{
				"baseColorFactor":[
					0.800000011920929,
					0.800000011920929,
					0.800000011920929,
					1
				],
				"metallicFactor":0,
				"roughnessFactor":0.5
			}
		},
		{
			"doubleSided":true,
			"name":"BE_EWAL01B",
			"pbrMetallicRoughness":{
				"baseColorFactor":[
					0.800000011920929,
					0.800000011920929,
					0.800000011920929,
					1
				],
				"metallicFactor":0,
				"roughnessFactor":0.5
			}
		},
		{
			"doubleSided":true,
			"name":"BE_ITEBOR02",
			"pbrMetallicRoughness":{
				"baseColorFactor":[
					0.800000011920929,
					0.800000011920929,
					0.800000011920929,
					1
				],
				"metallicFactor":0,
				"roughnessFactor":0.5
			}
		},
		{
			"doubleSided":true,
			"name":"BE_ICEI01A",
			"pbrMetallicRoughness":{
				"baseColorFactor":[
					0.800000011920929,
					0.800000011920929,
					0.800000011920929,
					1
				],
				"metallicFactor":0,
				"roughnessFactor":0.5
			}
		},
		{
			"doubleSided":true,
			"name":"BE_EPORT01E",
			"pbrMetallicRoughness":{
				"baseColorFactor":[
					0.800000011920929,
					0.800000011920929,
					0.800000011920929,
					1
				],
				"metallicFactor":0,
				"roughnessFactor":0.5
			}
		},
		{
			"doubleSided":true,
			"name":"BE_ESPEC01",
			"pbrMetallicRoughness":{
				"baseColorFactor":[
					0.800000011920929,
					0.800000011920929,
					0.800000011920929,
					1
				],
				"metallicFactor":0,
				"roughnessFactor":0.5
			}
		},
		{
			"doubleSided":true,
			"name":"BE_EWAL06",
			"pbrMetallicRoughness":{
				"baseColorFactor":[
					0.800000011920929,
					0.800000011920929,
					0.800000011920929,
					1
				],
				"metallicFactor":0,
				"roughnessFactor":0.5
			}
		},
		{
			"doubleSided":true,
			"name":"BE_IGENERICDARK",
			"pbrMetallicRoughness":{
				"baseColorFactor":[
					0.800000011920929,
					0.800000011920929,
					0.800000011920929,
					1
				],
				"metallicFactor":0,
				"roughnessFactor":0.5
			}
		}
	],
	"meshes":[
		{
			"name":"Mesh",
			"primitives":[
				{
					"attributes":{
						"POSITION":0,
						"NORMAL":1,
						"TEXCOORD_0":2
					},
					"indices":3,
					"material":0
				},
				{
					"attributes":{
						"POSITION":4,
						"NORMAL":5,
						"TEXCOORD_0":6
					},
					"indices":7,
					"material":1
				},
				{
					"attributes":{
						"POSITION":8,
						"NORMAL":9,
						"TEXCOORD_0":10
					},
					"indices":11,
					"material":2
				},
				{
					"attributes":{
						"POSITION":12,
						"NORMAL":13,
						"TEXCOORD_0":14
					},
					"indices":15,
					"material":3
				},
				{
					"attributes":{
						"POSITION":16,
						"NORMAL":17,
						"TEXCOORD_0":18
					},
					"indices":19,
					"material":4
				},
				{
					"attributes":{
						"POSITION":20,
						"NORMAL":21,
						"TEXCOORD_0":22
					},
					"indices":23,
					"material":5
				},
				{
					"attributes":{
						"POSITION":24,
						"NORMAL":25,
						"TEXCOORD_0":26
					},
					"indices":27,
					"material":6
				},
				{
					"attributes":{
						"POSITION":28,
						"NORMAL":29,
						"TEXCOORD_0":30
					},
					"indices":31,
					"material":7
				},
				{
					"attributes":{
						"POSITION":32,
						"NORMAL":33,
						"TEXCOORD_0":34
					},
					"indices":35,
					"material":8
				},
				{
					"attributes":{
						"POSITION":36,
						"NORMAL":37,
						"TEXCOORD_0":38
					},
					"indices":39,
					"material":9
				}
			]
		}
	],
	"accessors":[
		{
			"bufferView":0,
			"componentType":5126,
			"count":20,
			"max":[
				24,
				-10,
				16
			],
			"min":[
				0,
				-10,
				-8
			],
			"type":"VEC3"
		},
		{
			"bufferView":1,
			"componentType":5126,
			"count":20,
			"type":"VEC3"
		},
		{
			"bufferView":2,
			"componentType":5126,
			"count":20,
			"type":"VEC2"
		},
		{
			"bufferView":3,
			"componentType":5123,
			"count":72,
			"type":"SCALAR"
		},
		{
			"bufferView":4,
			"componentType":5126,
			"count":32,
			"max":[
				26,
				-9,
				18
			],
			"min":[
				-2,
				-9,
				-10
			],
			"type":"VEC3"
		},
		{
			"bufferView":5,
			"componentType":5126,
			"count":32,
			"type":"VEC3"
		},
		{
			"bufferView":6,
			"componentType":5126,
			"count":32,
			"type":"VEC2"
		},
		{
			"bufferView":7,
			"componentType":5123,
			"count":96,
			"type":"SCALAR"
		},
		{
			"bufferView":8,
			"componentType":5126,
			"count":56,
			"max":[
				26,
				-9,
				18
			],
			"min":[
				-2,
				-16,
				-10
			],
			"type":"VEC3"
		},
		{
			"bufferView":9,
			"componentType":5126,
			"count":56,
			"type":"VEC3"
		},
		{
			"bufferView":10,
			"componentType":5126,
			"count":56,
			"type":"VEC2"
		},
		{
			"bufferView":11,
			"componentType":5123,
			"count":96,
			"type":"SCALAR"
		},
		{
			"bufferView":12,
			"componentType":5126,
			"count":268,
			"max":[
				26.75,
				-0.5,
				18.75
			],
			"min":[
				-2.75,
				-72,
				-10.75
			],
			"type":"VEC3"
		},
		{
			"bufferView":13,
			"componentType":5126,
			"count":268,
			"type":"VEC3"
		},
		{
			"bufferView":14,
			"componentType":5126,
			"count":268,
			"type":"VEC2"
		},
		{
			"bufferView":15,
			"componentType":5123,
			"count":522,
			"type":"SCALAR"
		},
		{
			"bufferView":16,
			"componentType":5126,
			"count":32,
			"max":[
				24,
				-9,
				16
			],
			"min":[
				0,
				-10,
				-8
			],
			"type":"VEC3"
		},
		{
			"bufferView":17,
			"componentType":5126,
			"count":32,
			"type":"VEC3"
		},
		{
			"bufferView":18,
			"componentType":5126,
			"count":32,
			"type":"VEC2"
		},
		{
			"bufferView":19,
			"componentType":5123,
			"count":48,
			"type":"SCALAR"
		},
		{
			"bufferView":20,
			"componentType":5126,
			"count":4,
			"max":[
				16,
				-12,
				8
			],
			"min":[
				8,
				-12,
				0
			],
			"type":"VEC3"
		},
		{
			"bufferView":21,
			"componentType":5126,
			"count":4,
			"type":"VEC3"
		},
		{
			"bufferView":22,
			"componentType":5126,
			"count":4,
			"type":"VEC2"
		},
		{
			"bufferView":23,
			"componentType":5123,
			"count":6,
			"type":"SCALAR"
		},
		{
			"bufferView":24,
			"componentType":5126,
			"count":16,
			"max":[
				26.75,
				-9.5,
				18.75
			],
			"min":[
				-2.75,
				-14.75,
				-10.75
			],
			"type":"VEC3"
		},
		{
			"bufferView":25,
			"componentType":5126,
			"count":16,
			"type":"VEC3"
		},
		{
			"bufferView":26,
			"componentType":5126,
			"count":16,
			"type":"VEC2"
		},
		{
			"bufferView":27,
			"componentType":5123,
			"count":24,
			"type":"SCALAR"
		},
		{
			"bufferView":28,
			"componentType":5126,
			"count":16,
			"max":[
				26.75,
				-0.5,
				18.75
			],
			"min":[
				-2.75,
				-9.5,
				-10.75
			],
			"type":"VEC3"
		},
		{
			"bufferView":29,
			"componentType":5126,
			"count":16,
			"type":"VEC3"
		},
		{
			"bufferView":30,
			"componentType":5126,
			"count":16,
			"type":"VEC2"
		},
		{
			"bufferView":31,
			"componentType":5123,
			"count":24,
			"type":"SCALAR"
		},
		{
			"bufferView":32,
			"componentType":5126,
			"count":28,
			"max":[
				20,
				-10,
				12
			],
			"min":[
				4,
				-12,
				-4
			],
			"type":"VEC3"
		},
		{
			"bufferView":33,
			"componentType":5126,
			"count":28,
			"type":"VEC3"
		},
		{
			"bufferView":34,
			"componentType":5126,
			"count":28,
			"type":"VEC2"
		},
		{
			"bufferView":35,
			"componentType":5123,
			"count":36,
			"type":"SCALAR"
		},
		{
			"bufferView":36,
			"componentType":5126,
			"count":88,
			"max":[
				26,
				-16,
				18
			],
			"min":[
				-2,
				-24,
				-10
			],
			"type":"VEC3"
		},
		{
			"bufferView":37,
			"componentType":5126,
			"count":88,
			"type":"VEC3"
		},
		{
			"bufferView":38,
			"componentType":5126,
			"count":88,
			"type":"VEC2"
		},
		{
			"bufferView":39,
			"componentType":5123,
			"count":120,
			"type":"SCALAR"
		}
	],
	"bufferViews":[
		{
			"buffer":0,
			"byteLength":240,
			"byteOffset":0,
			"target":34962
		},
		{
			"buffer":0,
			"byteLength":240,
			"byteOffset":240,
			"target":34962
		},
		{
			"buffer":0,
			"byteLength":160,
			"byteOffset":480,
			"target":34962
		},
		{
			"buffer":0,
			"byteLength":144,
			"byteOffset":640,
			"target":34963
		},
		{
			"buffer":0,
			"byteLength":384,
			"byteOffset":784,
			"target":34962
		},
		{
			"buffer":0,
			"byteLength":384,
			"byteOffset":1168,
			"target":34962
		},
		{
			"buffer":0,
			"byteLength":256,
			"byteOffset":1552,
			"target":34962
		},
		{
			"buffer":0,
			"byteLength":192,
			"byteOffset":1808,
			"target":34963
		},
		{
			"buffer":0,
			"byteLength":672,
			"byteOffset":2000,
			"target":34962
		},
		{
			"buffer":0,
			"byteLength":672,
			"byteOffset":2672,
			"target":34962
		},
		{
			"buffer":0,
			"byteLength":448,
			"byteOffset":3344,
			"target":34962
		},
		{
			"buffer":0,
			"byteLength":192,
			"byteOffset":3792,
			"target":34963
		},
		{
			"buffer":0,
			"byteLength":3216,
			"byteOffset":3984,
			"target":34962
		},
		{
			"buffer":0,
			"byteLength":3216,
			"byteOffset":7200,
			"target":34962
		},
		{
			"buffer":0,
			"byteLength":2144,
			"byteOffset":10416,
			"target":34962
		},
		{
			"buffer":0,
			"byteLength":1044,
			"byteOffset":12560,
			"target":34963
		},
		{
			"buffer":0,
			"byteLength":384,
			"byteOffset":13604,
			"target":34962
		},
		{
			"buffer":0,
			"byteLength":384,
			"byteOffset":13988,
			"target":34962
		},
		{
			"buffer":0,
			"byteLength":256,
			"byteOffset":14372,
			"target":34962
		},
		{
			"buffer":0,
			"byteLength":96,
			"byteOffset":14628,
			"target":34963
		},
		{
			"buffer":0,
			"byteLength":48,
			"byteOffset":14724,
			"target":34962
		},
		{
			"buffer":0,
			"byteLength":48,
			"byteOffset":14772,
			"target":34962
		},
		{
			"buffer":0,
			"byteLength":32,
			"byteOffset":14820,
			"target":34962
		},
		{
			"buffer":0,
			"byteLength":12,
			"byteOffset":14852,
			"target":34963
		},
		{
			"buffer":0,
			"byteLength":192,
			"byteOffset":14864,
			"target":34962
		},
		{
			"buffer":0,
			"byteLength":192,
			"byteOffset":15056,
			"target":34962
		},
		{
			"buffer":0,
			"byteLength":128,
			"byteOffset":15248,
			"target":34962
		},
		{
			"buffer":0,
			"byteLength":48,
			"byteOffset":15376,
			"target":34963
		},
		{
			"buffer":0,
			"byteLength":192,
			"byteOffset":15424,
			"target":34962
		},
		{
			"buffer":0,
			"byteLength":192,
			"byteOffset":15616,
			"target":34962
		},
		{
			"buffer":0,
			"byteLength":128,
			"byteOffset":15808,
			"target":34962
		},
		{
			"buffer":0,
			"byteLength":48,
			"byteOffset":15936,
			"target":34963
		},
		{
			"buffer":0,
			"byteLength":336,
			"byteOffset":15984,
			"target":34962
		},
		{
			"buffer":0,
			"byteLength":336,
			"byteOffset":16320,
			"target":34962
		},
		{
			"buffer":0,
			"byteLength":224,
			"byteOffset":16656,
			"target":34962
		},
		{
			"buffer":0,
			"byteLength":72,
			"byteOffset":16880,
			"target":34963
		},
		{
			"buffer":0,
			"byteLength":1056,
			"byteOffset":16952,
			"target":34962
		},
		{
			"buffer":0,
			"byteLength":1056,
			"byteOffset":18008,
			"target":34962
		},
		{
			"buffer":0,
			"byteLength":704,
			"byteOffset":19064,
			"target":34962
		},
		{
			"buffer":0,
			"byteLength":240,
			"byteOffset":19768,
			"target":34963
		}
	],
	"buffers":[
		{
			"byteLength":20008,
			"uri":"bmisc_-nef_flagstand1_x.bin"
		}
	]
}
