{
	"asset":{
		"generator":"Khronos glTF Blender I/O v4.5.48",
		"version":"2.0"
	},
	"scene":0,
	"scenes":[
		{
			"name":"Scene",
			"nodes":[
				0
			]
		}
	],
	"nodes":[
		{
			"mesh":0,
			"name":"Object"
		}
	],
	"materials":[
		{
			"doubleSided":true,
			"name":"BE_IHAWAL04A",
			"pbrMetallicRoughness":{
				"baseColorFactor":[
					0.800000011920929,
					0.800000011920929,
					0.800000011920929,
					1
				],
				"metallicFactor":0,
				"roughnessFactor":0.5
			}
		},
		{
			"doubleSided":true,
			"name":"BE_ELIG02",
			"pbrMetallicRoughness":{
				"baseColorFactor":[
					0.800000011920929,
					0.800000011920929,
					0.800000011920929,
					1
				],
				"metallicFactor":0,
				"roughnessFactor":0.5
			}
		},
		{
			"doubleSided":true,
			"name":"BE_EWAL03A",
			"pbrMetallicRoughness":{
				"baseColorFactor":[
					0.800000011920929,
					0.800000011920929,
					0.800000011920929,
					1
				],
				"metallicFactor":0,
				"roughnessFactor":0.5
			}
		}
	],
	"meshes":[
		{
			"name":"Mesh",
			"primitives":[
				{
					"attributes":{
						"POSITION":0,
						"NORMAL":1,
						"TEXCOORD_0":2
					},
					"indices":3,
					"material":0
				},
				{
					"attributes":{
						"POSITION":4,
						"NORMAL":5,
						"TEXCOORD_0":6
					},
					"indices":7,
					"material":1
				},
				{
					"attributes":{
						"POSITION":8,
						"NORMAL":9,
						"TEXCOORD_0":10
					},
					"indices":11,
					"material":2
				}
			]
		}
	],
	"accessors":[
		{
			"bufferView":0,
			"componentType":5126,
			"count":228,
			"max":[
				10.5,
				2,
				10.5
			],
			"min":[
				-10.5,
				0,
				-10.5
			],
			"type":"VEC3"
		},
		{
			"bufferView":1,
			"componentType":5126,
			"count":228,
			"type":"VEC3"
		},
		{
			"bufferView":2,
			"componentType":5126,
			"count":228,
			"type":"VEC2"
		},
		{
			"bufferView":3,
			"componentType":5123,
			"count":342,
			"type":"SCALAR"
		},
		{
			"bufferView":4,
			"componentType":5126,
			"count":56,
			"max":[
				8,
				1,
				8
			],
			"min":[
				-8,
				0.5,
				-8
			],
			"type":"VEC3"
		},
		{
			"bufferView":5,
			"componentType":5126,
			"count":56,
			"type":"VEC3"
		},
		{
			"bufferView":6,
			"componentType":5126,
			"count":56,
			"type":"VEC2"
		},
		{
			"bufferView":7,
			"componentType":5123,
			"count":96,
			"type":"SCALAR"
		},
		{
			"bufferView":8,
			"componentType":5126,
			"count":56,
			"max":[
				8,
				2,
				8
			],
			"min":[
				-8,
				1,
				-8
			],
			"type":"VEC3"
		},
		{
			"bufferView":9,
			"componentType":5126,
			"count":56,
			"type":"VEC3"
		},
		{
			"bufferView":10,
			"componentType":5126,
			"count":56,
			"type":"VEC2"
		},
		{
			"bufferView":11,
			"componentType":5123,
			"count":90,
			"type":"SCALAR"
		}
	],
	"bufferViews":[
		{
			"buffer":0,
			"byteLength":2736,
			"byteOffset":0,
			"target":34962
		},
		{
			"buffer":0,
			"byteLength":2736,
			"byteOffset":2736,
			"target":34962
		},
		{
			"buffer":0,
			"byteLength":1824,
			"byteOffset":5472,
			"target":34962
		},
		{
			"buffer":0,
			"byteLength":684,
			"byteOffset":7296,
			"target":34963
		},
		{
			"buffer":0,
			"byteLength":672,
			"byteOffset":7980,
			"target":34962
		},
		{
			"buffer":0,
			"byteLength":672,
			"byteOffset":8652,
			"target":34962
		},
		{
			"buffer":0,
			"byteLength":448,
			"byteOffset":9324,
			"target":34962
		},
		{
			"buffer":0,
			"byteLength":192,
			"byteOffset":9772,
			"target":34963
		},
		{
			"buffer":0,
			"byteLength":672,
			"byteOffset":9964,
			"target":34962
		},
		{
			"buffer":0,
			"byteLength":672,
			"byteOffset":10636,
			"target":34962
		},
		{
			"buffer":0,
			"byteLength":448,
			"byteOffset":11308,
			"target":34962
		},
		{
			"buffer":0,
			"byteLength":180,
			"byteOffset":11756,
			"target":34963
		}
	],
	"buffers":[
		{
			"byteLength":11936,
			"uri":"dox_bb_droptop_x2.bin"
		}
	]
}
