{
	"asset":{
		"generator":"Khronos glTF Blender I/O v4.5.48",
		"version":"2.0"
	},
	"scene":0,
	"scenes":[
		{
			"name":"Scene",
			"nodes":[
				0,
				1
			]
		}
	],
	"nodes":[
		{
			"mesh":0,
			"name":"Object"
		},
		{
			"mesh":1,
			"name":"Object.001"
		}
	],
	"materials":[
		{
			"doubleSided":true,
			"name":"DOX_GRSTEEL3",
			"pbrMetallicRoughness":{
				"baseColorFactor":[
					0.800000011920929,
					0.800000011920929,
					0.800000011920929,
					1
				],
				"metallicFactor":0,
				"roughnessFactor":0.5
			}
		},
		{
			"doubleSided":true,
			"name":"BE_IHAWAL04A",
			"pbrMetallicRoughness":{
				"baseColorFactor":[
					0.800000011920929,
					0.800000011920929,
					0.800000011920929,
					1
				],
				"metallicFactor":0,
				"roughnessFactor":0.5
			}
		},
		{
			"doubleSided":true,
			"name":"BE_IHAWAL05B",
			"pbrMetallicRoughness":{
				"baseColorFactor":[
					0.800000011920929,
					0.800000011920929,
					0.800000011920929,
					1
				],
				"metallicFactor":0,
				"roughnessFactor":0.5
			}
		},
		{
			"doubleSided":true,
			"name":"DOX_GRSTEEL4",
			"pbrMetallicRoughness":{
				"baseColorFactor":[
					0.800000011920929,
					0.800000011920929,
					0.800000011920929,
					1
				],
				"metallicFactor":0,
				"roughnessFactor":0.5
			}
		},
		{
			"doubleSided":true,
			"name":"BE_EWAL06",
			"pbrMetallicRoughness":{
				"baseColorFactor":[
					0.800000011920929,
					0.800000011920929,
					0.800000011920929,
					1
				],
				"metallicFactor":0,
				"roughnessFactor":0.5
			}
		},
		{
			"doubleSided":true,
			"name":"BE_ITEWAL01",
			"pbrMetallicRoughness":{
				"baseColorFactor":[
					0.800000011920929,
					0.800000011920929,
					0.800000011920929,
					1
				],
				"metallicFactor":0,
				"roughnessFactor":0.5
			}
		},
		{
			"doubleSided":true,
			"name":"BE_ITELIG01",
			"pbrMetallicRoughness":{
				"baseColorFactor":[
					0.800000011920929,
					0.800000011920929,
					0.800000011920929,
					1
				],
				"metallicFactor":0,
				"roughnessFactor":0.5
			}
		},
		{
			"doubleSided":true,
			"name":"BE_IPRWAL01",
			"pbrMetallicRoughness":{
				"baseColorFactor":[
					0.800000011920929,
					0.800000011920929,
					0.800000011920929,
					1
				],
				"metallicFactor":0,
				"roughnessFactor":0.5
			}
		},
		{
			"doubleSided":true,
			"name":"BE_ELIG03",
			"pbrMetallicRoughness":{
				"baseColorFactor":[
					0.800000011920929,
					0.800000011920929,
					0.800000011920929,
					1
				],
				"metallicFactor":0,
				"roughnessFactor":0.5
			}
		},
		{
			"doubleSided":true,
			"name":"DOX_GRSTEEL3.001",
			"pbrMetallicRoughness":{
				"baseColorFactor":[
					0.800000011920929,
					0.800000011920929,
					0.800000011920929,
					1
				],
				"metallicFactor":0,
				"roughnessFactor":0.5
			}
		},
		{
			"doubleSided":true,
			"name":"BE_IHAWAL04A.001",
			"pbrMetallicRoughness":{
				"baseColorFactor":[
					0.800000011920929,
					0.800000011920929,
					0.800000011920929,
					1
				],
				"metallicFactor":0,
				"roughnessFactor":0.5
			}
		},
		{
			"doubleSided":true,
			"name":"BE_IHAWAL05B.001",
			"pbrMetallicRoughness":{
				"baseColorFactor":[
					0.800000011920929,
					0.800000011920929,
					0.800000011920929,
					1
				],
				"metallicFactor":0,
				"roughnessFactor":0.5
			}
		},
		{
			"doubleSided":true,
			"name":"DOX_GRSTEEL4.001",
			"pbrMetallicRoughness":{
				"baseColorFactor":[
					0.800000011920929,
					0.800000011920929,
					0.800000011920929,
					1
				],
				"metallicFactor":0,
				"roughnessFactor":0.5
			}
		},
		{
			"doubleSided":true,
			"name":"BE_EWAL06.001",
			"pbrMetallicRoughness":{
				"baseColorFactor":[
					0.800000011920929,
					0.800000011920929,
					0.800000011920929,
					1
				],
				"metallicFactor":0,
				"roughnessFactor":0.5
			}
		},
		{
			"doubleSided":true,
			"name":"BE_ITEWAL01.001",
			"pbrMetallicRoughness":{
				"baseColorFactor":[
					0.800000011920929,
					0.800000011920929,
					0.800000011920929,
					1
				],
				"metallicFactor":0,
				"roughnessFactor":0.5
			}
		},
		{
			"doubleSided":true,
			"name":"BE_ITELIG01.001",
			"pbrMetallicRoughness":{
				"baseColorFactor":[
					0.800000011920929,
					0.800000011920929,
					0.800000011920929,
					1
				],
				"metallicFactor":0,
				"roughnessFactor":0.5
			}
		},
		{
			"doubleSided":true,
			"name":"BE_ELIG03.001",
			"pbrMetallicRoughness":{
				"baseColorFactor":[
					0.800000011920929,
					0.800000011920929,
					0.800000011920929,
					1
				],
				"metallicFactor":0,
				"roughnessFactor":0.5
			}
		}
	],
	"meshes":[
		{
			"name":"Mesh",
			"primitives":[
				{
					"attributes":{
						"POSITION":0,
						"NORMAL":1,
						"TEXCOORD_0":2
					},
					"indices":3,
					"material":0
				},
				{
					"attributes":{
						"POSITION":4,
						"NORMAL":5,
						"TEXCOORD_0":6
					},
					"indices":7,
					"material":1
				},
				{
					"attributes":{
						"POSITION":8,
						"NORMAL":9,
						"TEXCOORD_0":10
					},
					"indices":11,
					"material":2
				},
				{
					"attributes":{
						"POSITION":12,
						"NORMAL":13,
						"TEXCOORD_0":14
					},
					"indices":15,
					"material":3
				},
				{
					"attributes":{
						"POSITION":16,
						"NORMAL":17,
						"TEXCOORD_0":18
					},
					"indices":19,
					"material":4
				},
				{
					"attributes":{
						"POSITION":20,
						"NORMAL":21,
						"TEXCOORD_0":22
					},
					"indices":23,
					"material":5
				},
				{
					"attributes":{
						"POSITION":24,
						"NORMAL":25,
						"TEXCOORD_0":26
					},
					"indices":27,
					"material":6
				},
				{
					"attributes":{
						"POSITION":28,
						"NORMAL":29,
						"TEXCOORD_0":30
					},
					"indices":31,
					"material":7
				},
				{
					"attributes":{
						"POSITION":32,
						"NORMAL":33,
						"TEXCOORD_0":34
					},
					"indices":35,
					"material":8
				}
			]
		},
		{
			"name":"Mesh.001",
			"primitives":[
				{
					"attributes":{
						"POSITION":36,
						"NORMAL":37,
						"TEXCOORD_0":38
					},
					"indices":39,
					"material":9
				},
				{
					"attributes":{
						"POSITION":40,
						"NORMAL":41,
						"TEXCOORD_0":42
					},
					"indices":43,
					"material":10
				},
				{
					"attributes":{
						"POSITION":44,
						"NORMAL":45,
						"TEXCOORD_0":46
					},
					"indices":47,
					"material":11
				},
				{
					"attributes":{
						"POSITION":48,
						"NORMAL":49,
						"TEXCOORD_0":50
					},
					"indices":51,
					"material":12
				},
				{
					"attributes":{
						"POSITION":52,
						"NORMAL":53,
						"TEXCOORD_0":54
					},
					"indices":55,
					"material":13
				},
				{
					"attributes":{
						"POSITION":56,
						"NORMAL":57,
						"TEXCOORD_0":58
					},
					"indices":59,
					"material":14
				},
				{
					"attributes":{
						"POSITION":60,
						"NORMAL":61,
						"TEXCOORD_0":62
					},
					"indices":63,
					"material":15
				},
				{
					"attributes":{
						"POSITION":64,
						"NORMAL":65,
						"TEXCOORD_0":66
					},
					"indices":35,
					"material":16
				}
			]
		}
	],
	"accessors":[
		{
			"bufferView":0,
			"componentType":5126,
			"count":56,
			"max":[
				5.5,
				2,
				4.5
			],
			"min":[
				-6,
				1.25,
				-4.5
			],
			"type":"VEC3"
		},
		{
			"bufferView":1,
			"componentType":5126,
			"count":56,
			"type":"VEC3"
		},
		{
			"bufferView":2,
			"componentType":5126,
			"count":56,
			"type":"VEC2"
		},
		{
			"bufferView":3,
			"componentType":5123,
			"count":96,
			"type":"SCALAR"
		},
		{
			"bufferView":4,
			"componentType":5126,
			"count":40,
			"max":[
				5.5,
				1,
				4.5
			],
			"min":[
				-5.25,
				0.5,
				-4.5
			],
			"type":"VEC3"
		},
		{
			"bufferView":5,
			"componentType":5126,
			"count":40,
			"type":"VEC3"
		},
		{
			"bufferView":6,
			"componentType":5126,
			"count":40,
			"type":"VEC2"
		},
		{
			"bufferView":7,
			"componentType":5123,
			"count":72,
			"type":"SCALAR"
		},
		{
			"bufferView":8,
			"componentType":5126,
			"count":108,
			"max":[
				5.5,
				2,
				4.5
			],
			"min":[
				-5.25,
				0.5,
				-4.5
			],
			"type":"VEC3"
		},
		{
			"bufferView":9,
			"componentType":5126,
			"count":108,
			"type":"VEC3"
		},
		{
			"bufferView":10,
			"componentType":5126,
			"count":108,
			"type":"VEC2"
		},
		{
			"bufferView":11,
			"componentType":5123,
			"count":174,
			"type":"SCALAR"
		},
		{
			"bufferView":12,
			"componentType":5126,
			"count":56,
			"max":[
				-4.25,
				2.25,
				2.25
			],
			"min":[
				-5.75,
				0.5,
				-2.5
			],
			"type":"VEC3"
		},
		{
			"bufferView":13,
			"componentType":5126,
			"count":56,
			"type":"VEC3"
		},
		{
			"bufferView":14,
			"componentType":5126,
			"count":56,
			"type":"VEC2"
		},
		{
			"bufferView":15,
			"componentType":5123,
			"count":132,
			"type":"SCALAR"
		},
		{
			"bufferView":16,
			"componentType":5126,
			"count":16,
			"max":[
				4,
				1.75,
				3
			],
			"min":[
				-3.75,
				1.75,
				-3
			],
			"type":"VEC3"
		},
		{
			"bufferView":17,
			"componentType":5126,
			"count":16,
			"type":"VEC3"
		},
		{
			"bufferView":18,
			"componentType":5126,
			"count":16,
			"type":"VEC2"
		},
		{
			"bufferView":19,
			"componentType":5123,
			"count":30,
			"type":"SCALAR"
		},
		{
			"bufferView":20,
			"componentType":5126,
			"count":20,
			"max":[
				4,
				1,
				3
			],
			"min":[
				-3.75,
				1,
				-3
			],
			"type":"VEC3"
		},
		{
			"bufferView":21,
			"componentType":5126,
			"count":20,
			"type":"VEC3"
		},
		{
			"bufferView":22,
			"componentType":5126,
			"count":20,
			"type":"VEC2"
		},
		{
			"bufferView":23,
			"componentType":5123,
			"count":48,
			"type":"SCALAR"
		},
		{
			"bufferView":24,
			"componentType":5126,
			"count":40,
			"max":[
				2,
				1,
				3
			],
			"min":[
				-2,
				0,
				-3
			],
			"type":"VEC3"
		},
		{
			"bufferView":25,
			"componentType":5126,
			"count":40,
			"type":"VEC3"
		},
		{
			"bufferView":26,
			"componentType":5126,
			"count":40,
			"type":"VEC2"
		},
		{
			"bufferView":27,
			"componentType":5123,
			"count":60,
			"type":"SCALAR"
		},
		{
			"bufferView":28,
			"componentType":5126,
			"count":32,
			"max":[
				2,
				1,
				2
			],
			"min":[
				-2,
				0.5,
				-2
			],
			"type":"VEC3"
		},
		{
			"bufferView":29,
			"componentType":5126,
			"count":32,
			"type":"VEC3"
		},
		{
			"bufferView":30,
			"componentType":5126,
			"count":32,
			"type":"VEC2"
		},
		{
			"bufferView":31,
			"componentType":5123,
			"count":48,
			"type":"SCALAR"
		},
		{
			"bufferView":32,
			"componentType":5126,
			"count":4,
			"max":[
				-6,
				1.75,
				0.5
			],
			"min":[
				-6,
				1.25,
				-0.5
			],
			"type":"VEC3"
		},
		{
			"bufferView":33,
			"componentType":5126,
			"count":4,
			"type":"VEC3"
		},
		{
			"bufferView":34,
			"componentType":5126,
			"count":4,
			"type":"VEC2"
		},
		{
			"bufferView":35,
			"componentType":5123,
			"count":6,
			"type":"SCALAR"
		},
		{
			"bufferView":36,
			"componentType":5126,
			"count":60,
			"max":[
				5.5,
				2,
				4.5
			],
			"min":[
				-6,
				1.25,
				-4.5
			],
			"type":"VEC3"
		},
		{
			"bufferView":37,
			"componentType":5126,
			"count":60,
			"type":"VEC3"
		},
		{
			"bufferView":38,
			"componentType":5126,
			"count":60,
			"type":"VEC2"
		},
		{
			"bufferView":39,
			"componentType":5123,
			"count":108,
			"type":"SCALAR"
		},
		{
			"bufferView":40,
			"componentType":5126,
			"count":46,
			"max":[
				5.5,
				1,
				4.5
			],
			"min":[
				-5.25,
				0.5,
				-4.5
			],
			"type":"VEC3"
		},
		{
			"bufferView":41,
			"componentType":5126,
			"count":46,
			"type":"VEC3"
		},
		{
			"bufferView":42,
			"componentType":5126,
			"count":46,
			"type":"VEC2"
		},
		{
			"bufferView":43,
			"componentType":5123,
			"count":90,
			"type":"SCALAR"
		},
		{
			"bufferView":44,
			"componentType":5126,
			"count":36,
			"max":[
				5.5,
				2,
				4.5
			],
			"min":[
				-5.25,
				1,
				-4.5
			],
			"type":"VEC3"
		},
		{
			"bufferView":45,
			"componentType":5126,
			"count":36,
			"type":"VEC3"
		},
		{
			"bufferView":46,
			"componentType":5126,
			"count":36,
			"type":"VEC2"
		},
		{
			"bufferView":47,
			"componentType":5123,
			"count":54,
			"type":"SCALAR"
		},
		{
			"bufferView":48,
			"componentType":5126,
			"count":56,
			"max":[
				-4.25,
				2.25,
				2.25
			],
			"min":[
				-5.75,
				0.5,
				-2.5
			],
			"type":"VEC3"
		},
		{
			"bufferView":49,
			"componentType":5126,
			"count":56,
			"type":"VEC3"
		},
		{
			"bufferView":50,
			"componentType":5126,
			"count":56,
			"type":"VEC2"
		},
		{
			"bufferView":51,
			"componentType":5123,
			"count":132,
			"type":"SCALAR"
		},
		{
			"bufferView":52,
			"componentType":5126,
			"count":16,
			"max":[
				4,
				2,
				3
			],
			"min":[
				-3.75,
				2,
				-3
			],
			"type":"VEC3"
		},
		{
			"bufferView":53,
			"componentType":5126,
			"count":16,
			"type":"VEC3"
		},
		{
			"bufferView":54,
			"componentType":5126,
			"count":16,
			"type":"VEC2"
		},
		{
			"bufferView":55,
			"componentType":5123,
			"count":30,
			"type":"SCALAR"
		},
		{
			"bufferView":56,
			"componentType":5126,
			"count":17,
			"max":[
				4,
				0.5,
				3
			],
			"min":[
				-3.75,
				0.5,
				-3
			],
			"type":"VEC3"
		},
		{
			"bufferView":57,
			"componentType":5126,
			"count":17,
			"type":"VEC3"
		},
		{
			"bufferView":58,
			"componentType":5126,
			"count":17,
			"type":"VEC2"
		},
		{
			"bufferView":59,
			"componentType":5123,
			"count":39,
			"type":"SCALAR"
		},
		{
			"bufferView":60,
			"componentType":5126,
			"count":40,
			"max":[
				2,
				0.5,
				3
			],
			"min":[
				-2,
				0,
				-3
			],
			"type":"VEC3"
		},
		{
			"bufferView":61,
			"componentType":5126,
			"count":40,
			"type":"VEC3"
		},
		{
			"bufferView":62,
			"componentType":5126,
			"count":40,
			"type":"VEC2"
		},
		{
			"bufferView":63,
			"componentType":5123,
			"count":63,
			"type":"SCALAR"
		},
		{
			"bufferView":64,
			"componentType":5126,
			"count":4,
			"max":[
				-6,
				1.75,
				0.5
			],
			"min":[
				-6,
				1.25,
				-0.5
			],
			"type":"VEC3"
		},
		{
			"bufferView":65,
			"componentType":5126,
			"count":4,
			"type":"VEC3"
		},
		{
			"bufferView":66,
			"componentType":5126,
			"count":4,
			"type":"VEC2"
		}
	],
	"bufferViews":[
		{
			"buffer":0,
			"byteLength":672,
			"byteOffset":0,
			"target":34962
		},
		{
			"buffer":0,
			"byteLength":672,
			"byteOffset":672,
			"target":34962
		},
		{
			"buffer":0,
			"byteLength":448,
			"byteOffset":1344,
			"target":34962
		},
		{
			"buffer":0,
			"byteLength":192,
			"byteOffset":1792,
			"target":34963
		},
		{
			"buffer":0,
			"byteLength":480,
			"byteOffset":1984,
			"target":34962
		},
		{
			"buffer":0,
			"byteLength":480,
			"byteOffset":2464,
			"target":34962
		},
		{
			"buffer":0,
			"byteLength":320,
			"byteOffset":2944,
			"target":34962
		},
		{
			"buffer":0,
			"byteLength":144,
			"byteOffset":3264,
			"target":34963
		},
		{
			"buffer":0,
			"byteLength":1296,
			"byteOffset":3408,
			"target":34962
		},
		{
			"buffer":0,
			"byteLength":1296,
			"byteOffset":4704,
			"target":34962
		},
		{
			"buffer":0,
			"byteLength":864,
			"byteOffset":6000,
			"target":34962
		},
		{
			"buffer":0,
			"byteLength":348,
			"byteOffset":6864,
			"target":34963
		},
		{
			"buffer":0,
			"byteLength":672,
			"byteOffset":7212,
			"target":34962
		},
		{
			"buffer":0,
			"byteLength":672,
			"byteOffset":7884,
			"target":34962
		},
		{
			"buffer":0,
			"byteLength":448,
			"byteOffset":8556,
			"target":34962
		},
		{
			"buffer":0,
			"byteLength":264,
			"byteOffset":9004,
			"target":34963
		},
		{
			"buffer":0,
			"byteLength":192,
			"byteOffset":9268,
			"target":34962
		},
		{
			"buffer":0,
			"byteLength":192,
			"byteOffset":9460,
			"target":34962
		},
		{
			"buffer":0,
			"byteLength":128,
			"byteOffset":9652,
			"target":34962
		},
		{
			"buffer":0,
			"byteLength":60,
			"byteOffset":9780,
			"target":34963
		},
		{
			"buffer":0,
			"byteLength":240,
			"byteOffset":9840,
			"target":34962
		},
		{
			"buffer":0,
			"byteLength":240,
			"byteOffset":10080,
			"target":34962
		},
		{
			"buffer":0,
			"byteLength":160,
			"byteOffset":10320,
			"target":34962
		},
		{
			"buffer":0,
			"byteLength":96,
			"byteOffset":10480,
			"target":34963
		},
		{
			"buffer":0,
			"byteLength":480,
			"byteOffset":10576,
			"target":34962
		},
		{
			"buffer":0,
			"byteLength":480,
			"byteOffset":11056,
			"target":34962
		},
		{
			"buffer":0,
			"byteLength":320,
			"byteOffset":11536,
			"target":34962
		},
		{
			"buffer":0,
			"byteLength":120,
			"byteOffset":11856,
			"target":34963
		},
		{
			"buffer":0,
			"byteLength":384,
			"byteOffset":11976,
			"target":34962
		},
		{
			"buffer":0,
			"byteLength":384,
			"byteOffset":12360,
			"target":34962
		},
		{
			"buffer":0,
			"byteLength":256,
			"byteOffset":12744,
			"target":34962
		},
		{
			"buffer":0,
			"byteLength":96,
			"byteOffset":13000,
			"target":34963
		},
		{
			"buffer":0,
			"byteLength":48,
			"byteOffset":13096,
			"target":34962
		},
		{
			"buffer":0,
			"byteLength":48,
			"byteOffset":13144,
			"target":34962
		},
		{
			"buffer":0,
			"byteLength":32,
			"byteOffset":13192,
			"target":34962
		},
		{
			"buffer":0,
			"byteLength":12,
			"byteOffset":13224,
			"target":34963
		},
		{
			"buffer":0,
			"byteLength":720,
			"byteOffset":13236,
			"target":34962
		},
		{
			"buffer":0,
			"byteLength":720,
			"byteOffset":13956,
			"target":34962
		},
		{
			"buffer":0,
			"byteLength":480,
			"byteOffset":14676,
			"target":34962
		},
		{
			"buffer":0,
			"byteLength":216,
			"byteOffset":15156,
			"target":34963
		},
		{
			"buffer":0,
			"byteLength":552,
			"byteOffset":15372,
			"target":34962
		},
		{
			"buffer":0,
			"byteLength":552,
			"byteOffset":15924,
			"target":34962
		},
		{
			"buffer":0,
			"byteLength":368,
			"byteOffset":16476,
			"target":34962
		},
		{
			"buffer":0,
			"byteLength":180,
			"byteOffset":16844,
			"target":34963
		},
		{
			"buffer":0,
			"byteLength":432,
			"byteOffset":17024,
			"target":34962
		},
		{
			"buffer":0,
			"byteLength":432,
			"byteOffset":17456,
			"target":34962
		},
		{
			"buffer":0,
			"byteLength":288,
			"byteOffset":17888,
			"target":34962
		},
		{
			"buffer":0,
			"byteLength":108,
			"byteOffset":18176,
			"target":34963
		},
		{
			"buffer":0,
			"byteLength":672,
			"byteOffset":18284,
			"target":34962
		},
		{
			"buffer":0,
			"byteLength":672,
			"byteOffset":18956,
			"target":34962
		},
		{
			"buffer":0,
			"byteLength":448,
			"byteOffset":19628,
			"target":34962
		},
		{
			"buffer":0,
			"byteLength":264,
			"byteOffset":20076,
			"target":34963
		},
		{
			"buffer":0,
			"byteLength":192,
			"byteOffset":20340,
			"target":34962
		},
		{
			"buffer":0,
			"byteLength":192,
			"byteOffset":20532,
			"target":34962
		},
		{
			"buffer":0,
			"byteLength":128,
			"byteOffset":20724,
			"target":34962
		},
		{
			"buffer":0,
			"byteLength":60,
			"byteOffset":20852,
			"target":34963
		},
		{
			"buffer":0,
			"byteLength":204,
			"byteOffset":20912,
			"target":34962
		},
		{
			"buffer":0,
			"byteLength":204,
			"byteOffset":21116,
			"target":34962
		},
		{
			"buffer":0,
			"byteLength":136,
			"byteOffset":21320,
			"target":34962
		},
		{
			"buffer":0,
			"byteLength":78,
			"byteOffset":21456,
			"target":34963
		},
		{
			"buffer":0,
			"byteLength":480,
			"byteOffset":21536,
			"target":34962
		},
		{
			"buffer":0,
			"byteLength":480,
			"byteOffset":22016,
			"target":34962
		},
		{
			"buffer":0,
			"byteLength":320,
			"byteOffset":22496,
			"target":34962
		},
		{
			"buffer":0,
			"byteLength":126,
			"byteOffset":22816,
			"target":34963
		},
		{
			"buffer":0,
			"byteLength":48,
			"byteOffset":22944,
			"target":34962
		},
		{
			"buffer":0,
			"byteLength":48,
			"byteOffset":22992,
			"target":34962
		},
		{
			"buffer":0,
			"byteLength":32,
			"byteOffset":23040,
			"target":34962
		}
	],
	"buffers":[
		{
			"byteLength":23072,
			"uri":"dox_bb_platform_x2.bin"
		}
	]
}
