{
	"asset":{
		"generator":"Khronos glTF Blender I/O v4.5.48",
		"version":"2.0"
	},
	"scene":0,
	"scenes":[
		{
			"name":"Scene",
			"nodes":[
				0,
				1
			]
		}
	],
	"nodes":[
		{
			"mesh":0,
			"name":"Object"
		},
		{
			"mesh":1,
			"name":"Object.001"
		}
	],
	"materials":[
		{
			"doubleSided":true,
			"name":"BB_SAND",
			"pbrMetallicRoughness":{
				"baseColorFactor":[
					0.800000011920929,
					0.800000011920929,
					0.800000011920929,
					1
				],
				"metallicFactor":0,
				"roughnessFactor":0.5
			}
		},
		{
			"doubleSided":true,
			"name":"BB_SAND.001",
			"pbrMetallicRoughness":{
				"baseColorFactor":[
					0.800000011920929,
					0.800000011920929,
					0.800000011920929,
					1
				],
				"metallicFactor":0,
				"roughnessFactor":0.5
			}
		}
	],
	"meshes":[
		{
			"name":"Mesh",
			"primitives":[
				{
					"attributes":{
						"POSITION":0,
						"NORMAL":1,
						"TEXCOORD_0":2
					},
					"indices":3,
					"material":0
				}
			]
		},
		{
			"name":"Mesh.001",
			"primitives":[
				{
					"attributes":{
						"POSITION":4,
						"NORMAL":5,
						"TEXCOORD_0":6
					},
					"indices":7,
					"material":1
				}
			]
		}
	],
	"accessors":[
		{
			"bufferView":0,
			"componentType":5126,
			"count":885,
			"max":[
				6.90625,
				7.40625,
				5.34375
			],
			"min":[
				-6.71875,
				0.03125,
				-5.34375
			],
			"type":"VEC3"
		},
		{
			"bufferView":1,
			"componentType":5126,
			"count":885,
			"type":"VEC3"
		},
		{
			"bufferView":2,
			"componentType":5126,
			"count":885,
			"type":"VEC2"
		},
		{
			"bufferView":3,
			"componentType":5123,
			"count":1899,
			"type":"SCALAR"
		},
		{
			"bufferView":4,
			"componentType":5126,
			"count":590,
			"max":[
				6.90625,
				7.40625,
				5.34375
			],
			"min":[
				-6.71875,
				0.03125,
				-5.34375
			],
			"type":"VEC3"
		},
		{
			"bufferView":5,
			"componentType":5126,
			"count":590,
			"type":"VEC3"
		},
		{
			"bufferView":6,
			"componentType":5126,
			"count":590,
			"type":"VEC2"
		},
		{
			"bufferView":7,
			"componentType":5123,
			"count":1323,
			"type":"SCALAR"
		}
	],
	"bufferViews":[
		{
			"buffer":0,
			"byteLength":10620,
			"byteOffset":0,
			"target":34962
		},
		{
			"buffer":0,
			"byteLength":10620,
			"byteOffset":10620,
			"target":34962
		},
		{
			"buffer":0,
			"byteLength":7080,
			"byteOffset":21240,
			"target":34962
		},
		{
			"buffer":0,
			"byteLength":3798,
			"byteOffset":28320,
			"target":34963
		},
		{
			"buffer":0,
			"byteLength":7080,
			"byteOffset":32120,
			"target":34962
		},
		{
			"buffer":0,
			"byteLength":7080,
			"byteOffset":39200,
			"target":34962
		},
		{
			"buffer":0,
			"byteLength":4720,
			"byteOffset":46280,
			"target":34962
		},
		{
			"buffer":0,
			"byteLength":2646,
			"byteOffset":51000,
			"target":34963
		}
	],
	"buffers":[
		{
			"byteLength":53648,
			"uri":"dox_bb_sandcastle_x2.bin"
		}
	]
}
