{
	"asset":{
		"generator":"Khronos glTF Blender I/O v4.5.48",
		"version":"2.0"
	},
	"scene":0,
	"scenes":[
		{
			"name":"Scene",
			"nodes":[
				0
			]
		}
	],
	"nodes":[
		{
			"mesh":0,
			"name":"Object"
		}
	],
	"materials":[
		{
			"doubleSided":true,
			"name":"BB_RED",
			"pbrMetallicRoughness":{
				"baseColorFactor":[
					0.800000011920929,
					0.800000011920929,
					0.800000011920929,
					1
				],
				"metallicFactor":0,
				"roughnessFactor":0.5
			}
		},
		{
			"doubleSided":true,
			"name":"BB_RED2",
			"pbrMetallicRoughness":{
				"baseColorFactor":[
					0.800000011920929,
					0.800000011920929,
					0.800000011920929,
					1
				],
				"metallicFactor":0,
				"roughnessFactor":0.5
			}
		}
	],
	"meshes":[
		{
			"name":"Mesh",
			"primitives":[
				{
					"attributes":{
						"POSITION":0,
						"NORMAL":1,
						"TEXCOORD_0":2
					},
					"indices":3,
					"material":0
				},
				{
					"attributes":{
						"POSITION":4,
						"NORMAL":5,
						"TEXCOORD_0":6
					},
					"indices":7,
					"material":1
				}
			]
		}
	],
	"accessors":[
		{
			"bufferView":0,
			"componentType":5126,
			"count":164,
			"max":[
				0.5,
				4.84375,
				0.1875
			],
			"min":[
				-0.5,
				1.59375,
				-0.0625
			],
			"type":"VEC3"
		},
		{
			"bufferView":1,
			"componentType":5126,
			"count":164,
			"type":"VEC3"
		},
		{
			"bufferView":2,
			"componentType":5126,
			"count":164,
			"type":"VEC2"
		},
		{
			"bufferView":3,
			"componentType":5123,
			"count":348,
			"type":"SCALAR"
		},
		{
			"bufferView":4,
			"componentType":5126,
			"count":120,
			"max":[
				0.5,
				4.84375,
				0.1875
			],
			"min":[
				-0.5,
				1.59375,
				-0.0625
			],
			"type":"VEC3"
		},
		{
			"bufferView":5,
			"componentType":5126,
			"count":120,
			"type":"VEC3"
		},
		{
			"bufferView":6,
			"componentType":5126,
			"count":120,
			"type":"VEC2"
		},
		{
			"bufferView":7,
			"componentType":5123,
			"count":228,
			"type":"SCALAR"
		}
	],
	"bufferViews":[
		{
			"buffer":0,
			"byteLength":1968,
			"byteOffset":0,
			"target":34962
		},
		{
			"buffer":0,
			"byteLength":1968,
			"byteOffset":1968,
			"target":34962
		},
		{
			"buffer":0,
			"byteLength":1312,
			"byteOffset":3936,
			"target":34962
		},
		{
			"buffer":0,
			"byteLength":696,
			"byteOffset":5248,
			"target":34963
		},
		{
			"buffer":0,
			"byteLength":1440,
			"byteOffset":5944,
			"target":34962
		},
		{
			"buffer":0,
			"byteLength":1440,
			"byteOffset":7384,
			"target":34962
		},
		{
			"buffer":0,
			"byteLength":960,
			"byteOffset":8824,
			"target":34962
		},
		{
			"buffer":0,
			"byteLength":456,
			"byteOffset":9784,
			"target":34963
		}
	],
	"buffers":[
		{
			"byteLength":10240,
			"uri":"dox_bb_spade_x2.bin"
		}
	]
}
