{
	"asset":{
		"generator":"Khronos glTF Blender I/O v4.5.48",
		"version":"2.0"
	},
	"scene":0,
	"scenes":[
		{
			"name":"Scene",
			"nodes":[
				0
			]
		}
	],
	"nodes":[
		{
			"mesh":0,
			"name":"Object"
		}
	],
	"materials":[
		{
			"doubleSided":true,
			"name":"DS_EWALL06",
			"pbrMetallicRoughness":{
				"baseColorFactor":[
					0.800000011920929,
					0.800000011920929,
					0.800000011920929,
					1
				],
				"metallicFactor":0,
				"roughnessFactor":0.5
			}
		},
		{
			"doubleSided":true,
			"name":"DS_IHACEILIG01",
			"pbrMetallicRoughness":{
				"baseColorFactor":[
					0.800000011920929,
					0.800000011920929,
					0.800000011920929,
					1
				],
				"metallicFactor":0,
				"roughnessFactor":0.5
			}
		},
		{
			"doubleSided":true,
			"name":"DS_GENFLOOR",
			"pbrMetallicRoughness":{
				"baseColorFactor":[
					0.800000011920929,
					0.800000011920929,
					0.800000011920929,
					1
				],
				"metallicFactor":0,
				"roughnessFactor":0.5
			}
		},
		{
			"doubleSided":true,
			"name":"GRID_1",
			"pbrMetallicRoughness":{
				"baseColorFactor":[
					0.800000011920929,
					0.800000011920929,
					0.800000011920929,
					1
				],
				"metallicFactor":0,
				"roughnessFactor":0.5
			}
		},
		{
			"doubleSided":true,
			"name":"GRID_RUSTY_1",
			"pbrMetallicRoughness":{
				"baseColorFactor":[
					0.800000011920929,
					0.800000011920929,
					0.800000011920929,
					1
				],
				"metallicFactor":0,
				"roughnessFactor":0.5
			}
		}
	],
	"meshes":[
		{
			"name":"Mesh",
			"primitives":[
				{
					"attributes":{
						"POSITION":0,
						"NORMAL":1,
						"TEXCOORD_0":2
					},
					"indices":3,
					"material":0
				},
				{
					"attributes":{
						"POSITION":4,
						"NORMAL":5,
						"TEXCOORD_0":6
					},
					"indices":7,
					"material":1
				},
				{
					"attributes":{
						"POSITION":8,
						"NORMAL":9,
						"TEXCOORD_0":10
					},
					"indices":11,
					"material":2
				},
				{
					"attributes":{
						"POSITION":12,
						"NORMAL":13,
						"TEXCOORD_0":14
					},
					"indices":15,
					"material":3
				},
				{
					"attributes":{
						"POSITION":16,
						"NORMAL":17,
						"TEXCOORD_0":18
					},
					"indices":19,
					"material":4
				}
			]
		}
	],
	"accessors":[
		{
			"bufferView":0,
			"componentType":5126,
			"count":1128,
			"max":[
				114,
				-7,
				19
			],
			"min":[
				-56,
				-25,
				-3
			],
			"type":"VEC3"
		},
		{
			"bufferView":1,
			"componentType":5126,
			"count":1128,
			"type":"VEC3"
		},
		{
			"bufferView":2,
			"componentType":5126,
			"count":1128,
			"type":"VEC2"
		},
		{
			"bufferView":3,
			"componentType":5123,
			"count":2088,
			"type":"SCALAR"
		},
		{
			"bufferView":4,
			"componentType":5126,
			"count":48,
			"max":[
				113,
				-7,
				17.5
			],
			"min":[
				-55,
				-22.5,
				-1.5
			],
			"type":"VEC3"
		},
		{
			"bufferView":5,
			"componentType":5126,
			"count":48,
			"type":"VEC3"
		},
		{
			"bufferView":6,
			"componentType":5126,
			"count":48,
			"type":"VEC2"
		},
		{
			"bufferView":7,
			"componentType":5123,
			"count":72,
			"type":"SCALAR"
		},
		{
			"bufferView":8,
			"componentType":5126,
			"count":382,
			"max":[
				120,
				-8,
				18
			],
			"min":[
				-64,
				-24,
				-2
			],
			"type":"VEC3"
		},
		{
			"bufferView":9,
			"componentType":5126,
			"count":382,
			"type":"VEC3"
		},
		{
			"bufferView":10,
			"componentType":5126,
			"count":382,
			"type":"VEC2"
		},
		{
			"bufferView":11,
			"componentType":5123,
			"count":1008,
			"type":"SCALAR"
		},
		{
			"bufferView":12,
			"componentType":5126,
			"count":16,
			"max":[
				120,
				-8,
				12
			],
			"min":[
				-64,
				-23,
				4
			],
			"type":"VEC3"
		},
		{
			"bufferView":13,
			"componentType":5126,
			"count":16,
			"type":"VEC3"
		},
		{
			"bufferView":14,
			"componentType":5126,
			"count":16,
			"type":"VEC2"
		},
		{
			"bufferView":15,
			"componentType":5123,
			"count":24,
			"type":"SCALAR"
		},
		{
			"bufferView":16,
			"componentType":5126,
			"count":4,
			"max":[
				-4,
				-18,
				12
			],
			"min":[
				-12,
				-20,
				4
			],
			"type":"VEC3"
		},
		{
			"bufferView":17,
			"componentType":5126,
			"count":4,
			"type":"VEC3"
		},
		{
			"bufferView":18,
			"componentType":5126,
			"count":4,
			"type":"VEC2"
		},
		{
			"bufferView":19,
			"componentType":5123,
			"count":6,
			"type":"SCALAR"
		}
	],
	"bufferViews":[
		{
			"buffer":0,
			"byteLength":13536,
			"byteOffset":0,
			"target":34962
		},
		{
			"buffer":0,
			"byteLength":13536,
			"byteOffset":13536,
			"target":34962
		},
		{
			"buffer":0,
			"byteLength":9024,
			"byteOffset":27072,
			"target":34962
		},
		{
			"buffer":0,
			"byteLength":4176,
			"byteOffset":36096,
			"target":34963
		},
		{
			"buffer":0,
			"byteLength":576,
			"byteOffset":40272,
			"target":34962
		},
		{
			"buffer":0,
			"byteLength":576,
			"byteOffset":40848,
			"target":34962
		},
		{
			"buffer":0,
			"byteLength":384,
			"byteOffset":41424,
			"target":34962
		},
		{
			"buffer":0,
			"byteLength":144,
			"byteOffset":41808,
			"target":34963
		},
		{
			"buffer":0,
			"byteLength":4584,
			"byteOffset":41952,
			"target":34962
		},
		{
			"buffer":0,
			"byteLength":4584,
			"byteOffset":46536,
			"target":34962
		},
		{
			"buffer":0,
			"byteLength":3056,
			"byteOffset":51120,
			"target":34962
		},
		{
			"buffer":0,
			"byteLength":2016,
			"byteOffset":54176,
			"target":34963
		},
		{
			"buffer":0,
			"byteLength":192,
			"byteOffset":56192,
			"target":34962
		},
		{
			"buffer":0,
			"byteLength":192,
			"byteOffset":56384,
			"target":34962
		},
		{
			"buffer":0,
			"byteLength":128,
			"byteOffset":56576,
			"target":34962
		},
		{
			"buffer":0,
			"byteLength":48,
			"byteOffset":56704,
			"target":34963
		},
		{
			"buffer":0,
			"byteLength":48,
			"byteOffset":56752,
			"target":34962
		},
		{
			"buffer":0,
			"byteLength":48,
			"byteOffset":56800,
			"target":34962
		},
		{
			"buffer":0,
			"byteLength":32,
			"byteOffset":56848,
			"target":34962
		},
		{
			"buffer":0,
			"byteLength":12,
			"byteOffset":56880,
			"target":34963
		}
	],
	"buffers":[
		{
			"byteLength":56892,
			"uri":"epicrates_bridge.bin"
		}
	]
}
