{
	"asset":{
		"generator":"Khronos glTF Blender I/O v4.5.48",
		"version":"2.0"
	},
	"scene":0,
	"scenes":[
		{
			"name":"Scene",
			"nodes":[
				0
			]
		}
	],
	"nodes":[
		{
			"mesh":0,
			"name":"Object"
		}
	],
	"materials":[
		{
			"doubleSided":true,
			"name":"BD_ICOL02",
			"pbrMetallicRoughness":{
				"baseColorFactor":[
					0.800000011920929,
					0.800000011920929,
					0.800000011920929,
					1
				],
				"metallicFactor":0,
				"roughnessFactor":0.5
			}
		},
		{
			"doubleSided":true,
			"name":"BD_ICEI03",
			"pbrMetallicRoughness":{
				"baseColorFactor":[
					0.800000011920929,
					0.800000011920929,
					0.800000011920929,
					1
				],
				"metallicFactor":0,
				"roughnessFactor":0.5
			}
		},
		{
			"doubleSided":true,
			"name":"BD_THRESH02",
			"pbrMetallicRoughness":{
				"baseColorFactor":[
					0.800000011920929,
					0.800000011920929,
					0.800000011920929,
					1
				],
				"metallicFactor":0,
				"roughnessFactor":0.5
			}
		},
		{
			"doubleSided":true,
			"name":"BD_IBOR6",
			"pbrMetallicRoughness":{
				"baseColorFactor":[
					0.800000011920929,
					0.800000011920929,
					0.800000011920929,
					1
				],
				"metallicFactor":0,
				"roughnessFactor":0.5
			}
		},
		{
			"doubleSided":true,
			"name":"BD_ICEILIG01",
			"pbrMetallicRoughness":{
				"baseColorFactor":[
					0.800000011920929,
					0.800000011920929,
					0.800000011920929,
					1
				],
				"metallicFactor":0,
				"roughnessFactor":0.5
			}
		},
		{
			"doubleSided":true,
			"name":"BD_ICEILIG03",
			"pbrMetallicRoughness":{
				"baseColorFactor":[
					0.800000011920929,
					0.800000011920929,
					0.800000011920929,
					1
				],
				"metallicFactor":0,
				"roughnessFactor":0.5
			}
		},
		{
			"doubleSided":true,
			"name":"BD_IBOR05",
			"pbrMetallicRoughness":{
				"baseColorFactor":[
					0.800000011920929,
					0.800000011920929,
					0.800000011920929,
					1
				],
				"metallicFactor":0,
				"roughnessFactor":0.5
			}
		}
	],
	"meshes":[
		{
			"name":"Mesh",
			"primitives":[
				{
					"attributes":{
						"POSITION":0,
						"NORMAL":1,
						"TEXCOORD_0":2
					},
					"indices":3,
					"material":0
				},
				{
					"attributes":{
						"POSITION":4,
						"NORMAL":5,
						"TEXCOORD_0":6
					},
					"indices":7,
					"material":1
				},
				{
					"attributes":{
						"POSITION":8,
						"NORMAL":9,
						"TEXCOORD_0":10
					},
					"indices":11,
					"material":2
				},
				{
					"attributes":{
						"POSITION":12,
						"NORMAL":13,
						"TEXCOORD_0":14
					},
					"indices":15,
					"material":3
				},
				{
					"attributes":{
						"POSITION":16,
						"NORMAL":17,
						"TEXCOORD_0":18
					},
					"indices":19,
					"material":4
				},
				{
					"attributes":{
						"POSITION":20,
						"NORMAL":21,
						"TEXCOORD_0":22
					},
					"indices":23,
					"material":5
				},
				{
					"attributes":{
						"POSITION":24,
						"NORMAL":25,
						"TEXCOORD_0":26
					},
					"indices":27,
					"material":6
				}
			]
		}
	],
	"accessors":[
		{
			"bufferView":0,
			"componentType":5126,
			"count":149,
			"max":[
				5,
				2,
				5
			],
			"min":[
				-5,
				-19,
				-5
			],
			"type":"VEC3"
		},
		{
			"bufferView":1,
			"componentType":5126,
			"count":149,
			"type":"VEC3"
		},
		{
			"bufferView":2,
			"componentType":5126,
			"count":149,
			"type":"VEC2"
		},
		{
			"bufferView":3,
			"componentType":5123,
			"count":348,
			"type":"SCALAR"
		},
		{
			"bufferView":4,
			"componentType":5126,
			"count":63,
			"max":[
				5,
				-4,
				4.5
			],
			"min":[
				-5,
				-9,
				-4.5
			],
			"type":"VEC3"
		},
		{
			"bufferView":5,
			"componentType":5126,
			"count":63,
			"type":"VEC3"
		},
		{
			"bufferView":6,
			"componentType":5126,
			"count":63,
			"type":"VEC2"
		},
		{
			"bufferView":7,
			"componentType":5123,
			"count":132,
			"type":"SCALAR"
		},
		{
			"bufferView":8,
			"componentType":5126,
			"count":64,
			"max":[
				2,
				-5,
				5
			],
			"min":[
				-2,
				-7,
				-5
			],
			"type":"VEC3"
		},
		{
			"bufferView":9,
			"componentType":5126,
			"count":64,
			"type":"VEC3"
		},
		{
			"bufferView":10,
			"componentType":5126,
			"count":64,
			"type":"VEC2"
		},
		{
			"bufferView":11,
			"componentType":5123,
			"count":96,
			"type":"SCALAR"
		},
		{
			"bufferView":12,
			"componentType":5126,
			"count":4,
			"max":[
				4.5,
				-9,
				4.5
			],
			"min":[
				-4.5,
				-9,
				-4.5
			],
			"type":"VEC3"
		},
		{
			"bufferView":13,
			"componentType":5126,
			"count":4,
			"type":"VEC3"
		},
		{
			"bufferView":14,
			"componentType":5126,
			"count":4,
			"type":"VEC2"
		},
		{
			"bufferView":15,
			"componentType":5123,
			"count":6,
			"type":"SCALAR"
		},
		{
			"bufferView":16,
			"componentType":5126,
			"count":4,
			"max":[
				5,
				-3,
				3.5
			],
			"min":[
				-5,
				-3,
				-3.5
			],
			"type":"VEC3"
		},
		{
			"bufferView":17,
			"componentType":5126,
			"count":4,
			"type":"VEC3"
		},
		{
			"bufferView":18,
			"componentType":5126,
			"count":4,
			"type":"VEC2"
		},
		{
			"bufferView":19,
			"componentType":5123,
			"count":6,
			"type":"SCALAR"
		},
		{
			"bufferView":20,
			"componentType":5126,
			"count":16,
			"max":[
				5,
				-3,
				4.5
			],
			"min":[
				-5,
				-9,
				-4.5
			],
			"type":"VEC3"
		},
		{
			"bufferView":21,
			"componentType":5126,
			"count":16,
			"type":"VEC3"
		},
		{
			"bufferView":22,
			"componentType":5126,
			"count":16,
			"type":"VEC2"
		},
		{
			"bufferView":23,
			"componentType":5123,
			"count":24,
			"type":"SCALAR"
		},
		{
			"bufferView":24,
			"componentType":5126,
			"count":8,
			"max":[
				1,
				2,
				1
			],
			"min":[
				-1,
				-19,
				-1
			],
			"type":"VEC3"
		},
		{
			"bufferView":25,
			"componentType":5126,
			"count":8,
			"type":"VEC3"
		},
		{
			"bufferView":26,
			"componentType":5126,
			"count":8,
			"type":"VEC2"
		},
		{
			"bufferView":27,
			"componentType":5123,
			"count":12,
			"type":"SCALAR"
		}
	],
	"bufferViews":[
		{
			"buffer":0,
			"byteLength":1788,
			"byteOffset":0,
			"target":34962
		},
		{
			"buffer":0,
			"byteLength":1788,
			"byteOffset":1788,
			"target":34962
		},
		{
			"buffer":0,
			"byteLength":1192,
			"byteOffset":3576,
			"target":34962
		},
		{
			"buffer":0,
			"byteLength":696,
			"byteOffset":4768,
			"target":34963
		},
		{
			"buffer":0,
			"byteLength":756,
			"byteOffset":5464,
			"target":34962
		},
		{
			"buffer":0,
			"byteLength":756,
			"byteOffset":6220,
			"target":34962
		},
		{
			"buffer":0,
			"byteLength":504,
			"byteOffset":6976,
			"target":34962
		},
		{
			"buffer":0,
			"byteLength":264,
			"byteOffset":7480,
			"target":34963
		},
		{
			"buffer":0,
			"byteLength":768,
			"byteOffset":7744,
			"target":34962
		},
		{
			"buffer":0,
			"byteLength":768,
			"byteOffset":8512,
			"target":34962
		},
		{
			"buffer":0,
			"byteLength":512,
			"byteOffset":9280,
			"target":34962
		},
		{
			"buffer":0,
			"byteLength":192,
			"byteOffset":9792,
			"target":34963
		},
		{
			"buffer":0,
			"byteLength":48,
			"byteOffset":9984,
			"target":34962
		},
		{
			"buffer":0,
			"byteLength":48,
			"byteOffset":10032,
			"target":34962
		},
		{
			"buffer":0,
			"byteLength":32,
			"byteOffset":10080,
			"target":34962
		},
		{
			"buffer":0,
			"byteLength":12,
			"byteOffset":10112,
			"target":34963
		},
		{
			"buffer":0,
			"byteLength":48,
			"byteOffset":10124,
			"target":34962
		},
		{
			"buffer":0,
			"byteLength":48,
			"byteOffset":10172,
			"target":34962
		},
		{
			"buffer":0,
			"byteLength":32,
			"byteOffset":10220,
			"target":34962
		},
		{
			"buffer":0,
			"byteLength":12,
			"byteOffset":10252,
			"target":34963
		},
		{
			"buffer":0,
			"byteLength":192,
			"byteOffset":10264,
			"target":34962
		},
		{
			"buffer":0,
			"byteLength":192,
			"byteOffset":10456,
			"target":34962
		},
		{
			"buffer":0,
			"byteLength":128,
			"byteOffset":10648,
			"target":34962
		},
		{
			"buffer":0,
			"byteLength":48,
			"byteOffset":10776,
			"target":34963
		},
		{
			"buffer":0,
			"byteLength":96,
			"byteOffset":10824,
			"target":34962
		},
		{
			"buffer":0,
			"byteLength":96,
			"byteOffset":10920,
			"target":34962
		},
		{
			"buffer":0,
			"byteLength":64,
			"byteOffset":11016,
			"target":34962
		},
		{
			"buffer":0,
			"byteLength":24,
			"byteOffset":11080,
			"target":34963
		}
	],
	"buffers":[
		{
			"byteLength":11104,
			"uri":"Euro_slinvstat.bin"
		}
	]
}
