{
	"asset":{
		"generator":"Khronos glTF Blender I/O v4.5.48",
		"version":"2.0"
	},
	"scene":0,
	"scenes":[
		{
			"name":"Scene",
			"nodes":[
				0
			]
		}
	],
	"nodes":[
		{
			"mesh":0,
			"name":"Object"
		}
	],
	"materials":[
		{
			"doubleSided":true,
			"name":"BD_ICOLIGOLA",
			"pbrMetallicRoughness":{
				"baseColorFactor":[
					0.800000011920929,
					0.800000011920929,
					0.800000011920929,
					1
				],
				"metallicFactor":0,
				"roughnessFactor":0.5
			}
		},
		{
			"doubleSided":true,
			"name":"BD_ITEBOR01",
			"pbrMetallicRoughness":{
				"baseColorFactor":[
					0.800000011920929,
					0.800000011920929,
					0.800000011920929,
					1
				],
				"metallicFactor":0,
				"roughnessFactor":0.5
			}
		}
	],
	"meshes":[
		{
			"name":"Mesh",
			"primitives":[
				{
					"attributes":{
						"POSITION":0,
						"NORMAL":1,
						"TEXCOORD_0":2
					},
					"indices":3,
					"material":0
				},
				{
					"attributes":{
						"POSITION":4,
						"NORMAL":5,
						"TEXCOORD_0":6
					},
					"indices":7,
					"material":1
				}
			]
		}
	],
	"accessors":[
		{
			"bufferView":0,
			"componentType":5126,
			"count":16,
			"max":[
				1,
				1.5,
				1
			],
			"min":[
				-1,
				-0.5,
				-1
			],
			"type":"VEC3"
		},
		{
			"bufferView":1,
			"componentType":5126,
			"count":16,
			"type":"VEC3"
		},
		{
			"bufferView":2,
			"componentType":5126,
			"count":16,
			"type":"VEC2"
		},
		{
			"bufferView":3,
			"componentType":5123,
			"count":18,
			"type":"SCALAR"
		},
		{
			"bufferView":4,
			"componentType":5126,
			"count":104,
			"max":[
				3,
				0,
				3
			],
			"min":[
				-3,
				-5,
				-3
			],
			"type":"VEC3"
		},
		{
			"bufferView":5,
			"componentType":5126,
			"count":104,
			"type":"VEC3"
		},
		{
			"bufferView":6,
			"componentType":5126,
			"count":104,
			"type":"VEC2"
		},
		{
			"bufferView":7,
			"componentType":5123,
			"count":180,
			"type":"SCALAR"
		}
	],
	"bufferViews":[
		{
			"buffer":0,
			"byteLength":192,
			"byteOffset":0,
			"target":34962
		},
		{
			"buffer":0,
			"byteLength":192,
			"byteOffset":192,
			"target":34962
		},
		{
			"buffer":0,
			"byteLength":128,
			"byteOffset":384,
			"target":34962
		},
		{
			"buffer":0,
			"byteLength":36,
			"byteOffset":512,
			"target":34963
		},
		{
			"buffer":0,
			"byteLength":1248,
			"byteOffset":548,
			"target":34962
		},
		{
			"buffer":0,
			"byteLength":1248,
			"byteOffset":1796,
			"target":34962
		},
		{
			"buffer":0,
			"byteLength":832,
			"byteOffset":3044,
			"target":34962
		},
		{
			"buffer":0,
			"byteLength":360,
			"byteOffset":3876,
			"target":34963
		}
	],
	"buffers":[
		{
			"byteLength":4236,
			"uri":"Euro_salproj1.bin"
		}
	]
}
