{
	"asset":{
		"generator":"Khronos glTF Blender I/O v4.5.48",
		"version":"2.0"
	},
	"scene":0,
	"scenes":[
		{
			"name":"Scene",
			"nodes":[
				0
			]
		}
	],
	"nodes":[
		{
			"mesh":0,
			"name":"Object"
		}
	],
	"materials":[
		{
			"doubleSided":true,
			"name":"IR_BLOCKS",
			"pbrMetallicRoughness":{
				"baseColorFactor":[
					0.800000011920929,
					0.800000011920929,
					0.800000011920929,
					1
				],
				"metallicFactor":0,
				"roughnessFactor":0.5
			}
		},
		{
			"doubleSided":true,
			"name":"IR_TRIM1",
			"pbrMetallicRoughness":{
				"baseColorFactor":[
					0.800000011920929,
					0.800000011920929,
					0.800000011920929,
					1
				],
				"metallicFactor":0,
				"roughnessFactor":0.5
			}
		},
		{
			"doubleSided":true,
			"name":"IR_RELIEF",
			"pbrMetallicRoughness":{
				"baseColorFactor":[
					0.800000011920929,
					0.800000011920929,
					0.800000011920929,
					1
				],
				"metallicFactor":0,
				"roughnessFactor":0.5
			}
		},
		{
			"doubleSided":true,
			"name":"IR_WALL",
			"pbrMetallicRoughness":{
				"baseColorFactor":[
					0.800000011920929,
					0.800000011920929,
					0.800000011920929,
					1
				],
				"metallicFactor":0,
				"roughnessFactor":0.5
			}
		},
		{
			"doubleSided":true,
			"name":"IR_PLAIN",
			"pbrMetallicRoughness":{
				"baseColorFactor":[
					0.800000011920929,
					0.800000011920929,
					0.800000011920929,
					1
				],
				"metallicFactor":0,
				"roughnessFactor":0.5
			}
		}
	],
	"meshes":[
		{
			"name":"Mesh",
			"primitives":[
				{
					"attributes":{
						"POSITION":0,
						"NORMAL":1,
						"TEXCOORD_0":2
					},
					"indices":3,
					"material":0
				},
				{
					"attributes":{
						"POSITION":4,
						"NORMAL":5,
						"TEXCOORD_0":6
					},
					"indices":7,
					"material":1
				},
				{
					"attributes":{
						"POSITION":8,
						"NORMAL":9,
						"TEXCOORD_0":10
					},
					"indices":11,
					"material":2
				},
				{
					"attributes":{
						"POSITION":12,
						"NORMAL":13,
						"TEXCOORD_0":14
					},
					"indices":15,
					"material":3
				},
				{
					"attributes":{
						"POSITION":16,
						"NORMAL":17,
						"TEXCOORD_0":18
					},
					"indices":19,
					"material":4
				}
			]
		}
	],
	"accessors":[
		{
			"bufferView":0,
			"componentType":5126,
			"count":28,
			"max":[
				2.5,
				2.5,
				2.5
			],
			"min":[
				-2.5,
				-2,
				-2.5
			],
			"type":"VEC3"
		},
		{
			"bufferView":1,
			"componentType":5126,
			"count":28,
			"type":"VEC3"
		},
		{
			"bufferView":2,
			"componentType":5126,
			"count":28,
			"type":"VEC2"
		},
		{
			"bufferView":3,
			"componentType":5123,
			"count":60,
			"type":"SCALAR"
		},
		{
			"bufferView":4,
			"componentType":5126,
			"count":144,
			"max":[
				2.5,
				2.5,
				2.5
			],
			"min":[
				-2.5,
				-2.5,
				-2.5
			],
			"type":"VEC3"
		},
		{
			"bufferView":5,
			"componentType":5126,
			"count":144,
			"type":"VEC3"
		},
		{
			"bufferView":6,
			"componentType":5126,
			"count":144,
			"type":"VEC2"
		},
		{
			"bufferView":7,
			"componentType":5123,
			"count":252,
			"type":"SCALAR"
		},
		{
			"bufferView":8,
			"componentType":5126,
			"count":4,
			"max":[
				2,
				-2.5,
				2
			],
			"min":[
				-2,
				-2.5,
				-2
			],
			"type":"VEC3"
		},
		{
			"bufferView":9,
			"componentType":5126,
			"count":4,
			"type":"VEC3"
		},
		{
			"bufferView":10,
			"componentType":5126,
			"count":4,
			"type":"VEC2"
		},
		{
			"bufferView":11,
			"componentType":5123,
			"count":6,
			"type":"SCALAR"
		},
		{
			"bufferView":12,
			"componentType":5126,
			"count":41,
			"max":[
				1.5,
				11.5,
				1.5
			],
			"min":[
				-1.5,
				2.5,
				-1.5
			],
			"type":"VEC3"
		},
		{
			"bufferView":13,
			"componentType":5126,
			"count":41,
			"type":"VEC3"
		},
		{
			"bufferView":14,
			"componentType":5126,
			"count":41,
			"type":"VEC2"
		},
		{
			"bufferView":15,
			"componentType":5123,
			"count":78,
			"type":"SCALAR"
		},
		{
			"bufferView":16,
			"componentType":5126,
			"count":41,
			"max":[
				1.5,
				11.5,
				1.5
			],
			"min":[
				-1.5,
				9,
				-1.5
			],
			"type":"VEC3"
		},
		{
			"bufferView":17,
			"componentType":5126,
			"count":41,
			"type":"VEC3"
		},
		{
			"bufferView":18,
			"componentType":5126,
			"count":41,
			"type":"VEC2"
		},
		{
			"bufferView":19,
			"componentType":5123,
			"count":54,
			"type":"SCALAR"
		}
	],
	"bufferViews":[
		{
			"buffer":0,
			"byteLength":336,
			"byteOffset":0,
			"target":34962
		},
		{
			"buffer":0,
			"byteLength":336,
			"byteOffset":336,
			"target":34962
		},
		{
			"buffer":0,
			"byteLength":224,
			"byteOffset":672,
			"target":34962
		},
		{
			"buffer":0,
			"byteLength":120,
			"byteOffset":896,
			"target":34963
		},
		{
			"buffer":0,
			"byteLength":1728,
			"byteOffset":1016,
			"target":34962
		},
		{
			"buffer":0,
			"byteLength":1728,
			"byteOffset":2744,
			"target":34962
		},
		{
			"buffer":0,
			"byteLength":1152,
			"byteOffset":4472,
			"target":34962
		},
		{
			"buffer":0,
			"byteLength":504,
			"byteOffset":5624,
			"target":34963
		},
		{
			"buffer":0,
			"byteLength":48,
			"byteOffset":6128,
			"target":34962
		},
		{
			"buffer":0,
			"byteLength":48,
			"byteOffset":6176,
			"target":34962
		},
		{
			"buffer":0,
			"byteLength":32,
			"byteOffset":6224,
			"target":34962
		},
		{
			"buffer":0,
			"byteLength":12,
			"byteOffset":6256,
			"target":34963
		},
		{
			"buffer":0,
			"byteLength":492,
			"byteOffset":6268,
			"target":34962
		},
		{
			"buffer":0,
			"byteLength":492,
			"byteOffset":6760,
			"target":34962
		},
		{
			"buffer":0,
			"byteLength":328,
			"byteOffset":7252,
			"target":34962
		},
		{
			"buffer":0,
			"byteLength":156,
			"byteOffset":7580,
			"target":34963
		},
		{
			"buffer":0,
			"byteLength":492,
			"byteOffset":7736,
			"target":34962
		},
		{
			"buffer":0,
			"byteLength":492,
			"byteOffset":8228,
			"target":34962
		},
		{
			"buffer":0,
			"byteLength":328,
			"byteOffset":8720,
			"target":34962
		},
		{
			"buffer":0,
			"byteLength":108,
			"byteOffset":9048,
			"target":34963
		}
	],
	"buffers":[
		{
			"byteLength":9156,
			"uri":"irisruins1.bin"
		}
	]
}
