{
	"asset":{
		"generator":"Khronos glTF Blender I/O v4.5.48",
		"version":"2.0"
	},
	"scene":0,
	"scenes":[
		{
			"name":"Scene",
			"nodes":[
				0
			]
		}
	],
	"nodes":[
		{
			"mesh":0,
			"name":"Object"
		}
	],
	"materials":[
		{
			"doubleSided":true,
			"name":"BE_IGENERICDARK",
			"pbrMetallicRoughness":{
				"baseColorFactor":[
					0.800000011920929,
					0.800000011920929,
					0.800000011920929,
					1
				],
				"metallicFactor":0,
				"roughnessFactor":0.5
			}
		},
		{
			"doubleSided":true,
			"name":"BE_EWAL06",
			"pbrMetallicRoughness":{
				"baseColorFactor":[
					0.800000011920929,
					0.800000011920929,
					0.800000011920929,
					1
				],
				"metallicFactor":0,
				"roughnessFactor":0.5
			}
		},
		{
			"doubleSided":true,
			"name":"BE_ELIG02",
			"pbrMetallicRoughness":{
				"baseColorFactor":[
					0.800000011920929,
					0.800000011920929,
					0.800000011920929,
					1
				],
				"metallicFactor":0,
				"roughnessFactor":0.5
			}
		},
		{
			"doubleSided":true,
			"name":"BE_EFLO02",
			"pbrMetallicRoughness":{
				"baseColorFactor":[
					0.800000011920929,
					0.800000011920929,
					0.800000011920929,
					1
				],
				"metallicFactor":0,
				"roughnessFactor":0.5
			}
		},
		{
			"doubleSided":true,
			"name":"BE_EWAL07",
			"pbrMetallicRoughness":{
				"baseColorFactor":[
					0.800000011920929,
					0.800000011920929,
					0.800000011920929,
					1
				],
				"metallicFactor":0,
				"roughnessFactor":0.5
			}
		},
		{
			"doubleSided":true,
			"name":"BE_EDOO02",
			"pbrMetallicRoughness":{
				"baseColorFactor":[
					0.800000011920929,
					0.800000011920929,
					0.800000011920929,
					1
				],
				"metallicFactor":0,
				"roughnessFactor":0.5
			}
		},
		{
			"doubleSided":true,
			"name":"BE_ITEBOR02A",
			"pbrMetallicRoughness":{
				"baseColorFactor":[
					0.800000011920929,
					0.800000011920929,
					0.800000011920929,
					1
				],
				"metallicFactor":0,
				"roughnessFactor":0.5
			}
		},
		{
			"doubleSided":true,
			"name":"BE_ICOLIGOLA",
			"pbrMetallicRoughness":{
				"baseColorFactor":[
					0.800000011920929,
					0.800000011920929,
					0.800000011920929,
					1
				],
				"metallicFactor":0,
				"roughnessFactor":0.5
			}
		},
		{
			"doubleSided":true,
			"name":"BE_IPRFLO01",
			"pbrMetallicRoughness":{
				"baseColorFactor":[
					0.800000011920929,
					0.800000011920929,
					0.800000011920929,
					1
				],
				"metallicFactor":0,
				"roughnessFactor":0.5
			}
		},
		{
			"doubleSided":true,
			"name":"BE_ESPEC09",
			"pbrMetallicRoughness":{
				"baseColorFactor":[
					0.800000011920929,
					0.800000011920929,
					0.800000011920929,
					1
				],
				"metallicFactor":0,
				"roughnessFactor":0.5
			}
		},
		{
			"doubleSided":true,
			"name":"BE_IHAFLO01",
			"pbrMetallicRoughness":{
				"baseColorFactor":[
					0.800000011920929,
					0.800000011920929,
					0.800000011920929,
					1
				],
				"metallicFactor":0,
				"roughnessFactor":0.5
			}
		}
	],
	"meshes":[
		{
			"name":"Mesh",
			"primitives":[
				{
					"attributes":{
						"POSITION":0,
						"NORMAL":1,
						"TEXCOORD_0":2
					},
					"indices":3,
					"material":0
				},
				{
					"attributes":{
						"POSITION":4,
						"NORMAL":5,
						"TEXCOORD_0":6
					},
					"indices":7,
					"material":1
				},
				{
					"attributes":{
						"POSITION":8,
						"NORMAL":9,
						"TEXCOORD_0":10
					},
					"indices":11,
					"material":2
				},
				{
					"attributes":{
						"POSITION":12,
						"NORMAL":13,
						"TEXCOORD_0":14
					},
					"indices":15,
					"material":3
				},
				{
					"attributes":{
						"POSITION":16,
						"NORMAL":17,
						"TEXCOORD_0":18
					},
					"indices":19,
					"material":4
				},
				{
					"attributes":{
						"POSITION":20,
						"NORMAL":21,
						"TEXCOORD_0":22
					},
					"indices":23,
					"material":5
				},
				{
					"attributes":{
						"POSITION":24,
						"NORMAL":25,
						"TEXCOORD_0":26
					},
					"indices":27,
					"material":6
				},
				{
					"attributes":{
						"POSITION":28,
						"NORMAL":29,
						"TEXCOORD_0":30
					},
					"indices":31,
					"material":7
				},
				{
					"attributes":{
						"POSITION":32,
						"NORMAL":33,
						"TEXCOORD_0":34
					},
					"indices":35,
					"material":8
				},
				{
					"attributes":{
						"POSITION":36,
						"NORMAL":37,
						"TEXCOORD_0":38
					},
					"indices":39,
					"material":9
				},
				{
					"attributes":{
						"POSITION":40,
						"NORMAL":41,
						"TEXCOORD_0":42
					},
					"indices":43,
					"material":10
				}
			]
		}
	],
	"accessors":[
		{
			"bufferView":0,
			"componentType":5126,
			"count":552,
			"max":[
				4.5,
				32,
				55
			],
			"min":[
				-4.5,
				-15.25,
				-55
			],
			"type":"VEC3"
		},
		{
			"bufferView":1,
			"componentType":5126,
			"count":552,
			"type":"VEC3"
		},
		{
			"bufferView":2,
			"componentType":5126,
			"count":552,
			"type":"VEC2"
		},
		{
			"bufferView":3,
			"componentType":5123,
			"count":996,
			"type":"SCALAR"
		},
		{
			"bufferView":4,
			"componentType":5126,
			"count":168,
			"max":[
				3.5,
				13.75,
				34
			],
			"min":[
				-3.5,
				-13.75,
				-34
			],
			"type":"VEC3"
		},
		{
			"bufferView":5,
			"componentType":5126,
			"count":168,
			"type":"VEC3"
		},
		{
			"bufferView":6,
			"componentType":5126,
			"count":168,
			"type":"VEC2"
		},
		{
			"bufferView":7,
			"componentType":5123,
			"count":336,
			"type":"SCALAR"
		},
		{
			"bufferView":8,
			"componentType":5126,
			"count":208,
			"max":[
				3.5,
				15.25,
				34
			],
			"min":[
				-3.5,
				-15.25,
				-34
			],
			"type":"VEC3"
		},
		{
			"bufferView":9,
			"componentType":5126,
			"count":208,
			"type":"VEC3"
		},
		{
			"bufferView":10,
			"componentType":5126,
			"count":208,
			"type":"VEC2"
		},
		{
			"bufferView":11,
			"componentType":5123,
			"count":312,
			"type":"SCALAR"
		},
		{
			"bufferView":12,
			"componentType":5126,
			"count":48,
			"max":[
				4.5,
				24.625,
				55
			],
			"min":[
				-4.5,
				0,
				-55
			],
			"type":"VEC3"
		},
		{
			"bufferView":13,
			"componentType":5126,
			"count":48,
			"type":"VEC3"
		},
		{
			"bufferView":14,
			"componentType":5126,
			"count":48,
			"type":"VEC2"
		},
		{
			"bufferView":15,
			"componentType":5123,
			"count":108,
			"type":"SCALAR"
		},
		{
			"bufferView":16,
			"componentType":5126,
			"count":134,
			"max":[
				4.5,
				33,
				55
			],
			"min":[
				-4.5,
				0,
				-55
			],
			"type":"VEC3"
		},
		{
			"bufferView":17,
			"componentType":5126,
			"count":134,
			"type":"VEC3"
		},
		{
			"bufferView":18,
			"componentType":5126,
			"count":134,
			"type":"VEC2"
		},
		{
			"bufferView":19,
			"componentType":5123,
			"count":246,
			"type":"SCALAR"
		},
		{
			"bufferView":20,
			"componentType":5126,
			"count":16,
			"max":[
				4.5,
				31,
				6
			],
			"min":[
				-4.5,
				24.625,
				-6
			],
			"type":"VEC3"
		},
		{
			"bufferView":21,
			"componentType":5126,
			"count":16,
			"type":"VEC3"
		},
		{
			"bufferView":22,
			"componentType":5126,
			"count":16,
			"type":"VEC2"
		},
		{
			"bufferView":23,
			"componentType":5123,
			"count":42,
			"type":"SCALAR"
		},
		{
			"bufferView":24,
			"componentType":5126,
			"count":184,
			"max":[
				1.5,
				14.25,
				14.25
			],
			"min":[
				-1.5,
				-14.25,
				-14.25
			],
			"type":"VEC3"
		},
		{
			"bufferView":25,
			"componentType":5126,
			"count":184,
			"type":"VEC3"
		},
		{
			"bufferView":26,
			"componentType":5126,
			"count":184,
			"type":"VEC2"
		},
		{
			"bufferView":27,
			"componentType":5123,
			"count":324,
			"type":"SCALAR"
		},
		{
			"bufferView":28,
			"componentType":5126,
			"count":70,
			"max":[
				1.5,
				10,
				14.25
			],
			"min":[
				-1.5,
				-10,
				-14.25
			],
			"type":"VEC3"
		},
		{
			"bufferView":29,
			"componentType":5126,
			"count":70,
			"type":"VEC3"
		},
		{
			"bufferView":30,
			"componentType":5126,
			"count":70,
			"type":"VEC2"
		},
		{
			"bufferView":31,
			"componentType":5123,
			"count":144,
			"type":"SCALAR"
		},
		{
			"bufferView":32,
			"componentType":5126,
			"count":32,
			"max":[
				0.03125,
				0.03125,
				13.75
			],
			"min":[
				-0.03125,
				-0.03125,
				-13.75
			],
			"type":"VEC3"
		},
		{
			"bufferView":33,
			"componentType":5126,
			"count":32,
			"type":"VEC3"
		},
		{
			"bufferView":34,
			"componentType":5126,
			"count":32,
			"type":"VEC2"
		},
		{
			"bufferView":35,
			"componentType":5123,
			"count":48,
			"type":"SCALAR"
		},
		{
			"bufferView":36,
			"componentType":5126,
			"count":56,
			"max":[
				0.5,
				0.03125,
				2
			],
			"min":[
				-0.5,
				-0.03125,
				-2
			],
			"type":"VEC3"
		},
		{
			"bufferView":37,
			"componentType":5126,
			"count":56,
			"type":"VEC3"
		},
		{
			"bufferView":38,
			"componentType":5126,
			"count":56,
			"type":"VEC2"
		},
		{
			"bufferView":39,
			"componentType":5123,
			"count":84,
			"type":"SCALAR"
		},
		{
			"bufferView":40,
			"componentType":5126,
			"count":16,
			"max":[
				0.5,
				0.03125,
				0.5
			],
			"min":[
				-0.5,
				-0.03125,
				-0.5
			],
			"type":"VEC3"
		},
		{
			"bufferView":41,
			"componentType":5126,
			"count":16,
			"type":"VEC3"
		},
		{
			"bufferView":42,
			"componentType":5126,
			"count":16,
			"type":"VEC2"
		},
		{
			"bufferView":43,
			"componentType":5123,
			"count":36,
			"type":"SCALAR"
		}
	],
	"bufferViews":[
		{
			"buffer":0,
			"byteLength":6624,
			"byteOffset":0,
			"target":34962
		},
		{
			"buffer":0,
			"byteLength":6624,
			"byteOffset":6624,
			"target":34962
		},
		{
			"buffer":0,
			"byteLength":4416,
			"byteOffset":13248,
			"target":34962
		},
		{
			"buffer":0,
			"byteLength":1992,
			"byteOffset":17664,
			"target":34963
		},
		{
			"buffer":0,
			"byteLength":2016,
			"byteOffset":19656,
			"target":34962
		},
		{
			"buffer":0,
			"byteLength":2016,
			"byteOffset":21672,
			"target":34962
		},
		{
			"buffer":0,
			"byteLength":1344,
			"byteOffset":23688,
			"target":34962
		},
		{
			"buffer":0,
			"byteLength":672,
			"byteOffset":25032,
			"target":34963
		},
		{
			"buffer":0,
			"byteLength":2496,
			"byteOffset":25704,
			"target":34962
		},
		{
			"buffer":0,
			"byteLength":2496,
			"byteOffset":28200,
			"target":34962
		},
		{
			"buffer":0,
			"byteLength":1664,
			"byteOffset":30696,
			"target":34962
		},
		{
			"buffer":0,
			"byteLength":624,
			"byteOffset":32360,
			"target":34963
		},
		{
			"buffer":0,
			"byteLength":576,
			"byteOffset":32984,
			"target":34962
		},
		{
			"buffer":0,
			"byteLength":576,
			"byteOffset":33560,
			"target":34962
		},
		{
			"buffer":0,
			"byteLength":384,
			"byteOffset":34136,
			"target":34962
		},
		{
			"buffer":0,
			"byteLength":216,
			"byteOffset":34520,
			"target":34963
		},
		{
			"buffer":0,
			"byteLength":1608,
			"byteOffset":34736,
			"target":34962
		},
		{
			"buffer":0,
			"byteLength":1608,
			"byteOffset":36344,
			"target":34962
		},
		{
			"buffer":0,
			"byteLength":1072,
			"byteOffset":37952,
			"target":34962
		},
		{
			"buffer":0,
			"byteLength":492,
			"byteOffset":39024,
			"target":34963
		},
		{
			"buffer":0,
			"byteLength":192,
			"byteOffset":39516,
			"target":34962
		},
		{
			"buffer":0,
			"byteLength":192,
			"byteOffset":39708,
			"target":34962
		},
		{
			"buffer":0,
			"byteLength":128,
			"byteOffset":39900,
			"target":34962
		},
		{
			"buffer":0,
			"byteLength":84,
			"byteOffset":40028,
			"target":34963
		},
		{
			"buffer":0,
			"byteLength":2208,
			"byteOffset":40112,
			"target":34962
		},
		{
			"buffer":0,
			"byteLength":2208,
			"byteOffset":42320,
			"target":34962
		},
		{
			"buffer":0,
			"byteLength":1472,
			"byteOffset":44528,
			"target":34962
		},
		{
			"buffer":0,
			"byteLength":648,
			"byteOffset":46000,
			"target":34963
		},
		{
			"buffer":0,
			"byteLength":840,
			"byteOffset":46648,
			"target":34962
		},
		{
			"buffer":0,
			"byteLength":840,
			"byteOffset":47488,
			"target":34962
		},
		{
			"buffer":0,
			"byteLength":560,
			"byteOffset":48328,
			"target":34962
		},
		{
			"buffer":0,
			"byteLength":288,
			"byteOffset":48888,
			"target":34963
		},
		{
			"buffer":0,
			"byteLength":384,
			"byteOffset":49176,
			"target":34962
		},
		{
			"buffer":0,
			"byteLength":384,
			"byteOffset":49560,
			"target":34962
		},
		{
			"buffer":0,
			"byteLength":256,
			"byteOffset":49944,
			"target":34962
		},
		{
			"buffer":0,
			"byteLength":96,
			"byteOffset":50200,
			"target":34963
		},
		{
			"buffer":0,
			"byteLength":672,
			"byteOffset":50296,
			"target":34962
		},
		{
			"buffer":0,
			"byteLength":672,
			"byteOffset":50968,
			"target":34962
		},
		{
			"buffer":0,
			"byteLength":448,
			"byteOffset":51640,
			"target":34962
		},
		{
			"buffer":0,
			"byteLength":168,
			"byteOffset":52088,
			"target":34963
		},
		{
			"buffer":0,
			"byteLength":192,
			"byteOffset":52256,
			"target":34962
		},
		{
			"buffer":0,
			"byteLength":192,
			"byteOffset":52448,
			"target":34962
		},
		{
			"buffer":0,
			"byteLength":128,
			"byteOffset":52640,
			"target":34962
		},
		{
			"buffer":0,
			"byteLength":72,
			"byteOffset":52768,
			"target":34963
		}
	],
	"buffers":[
		{
			"byteLength":52840,
			"uri":"irisbase.bin"
		}
	]
}
