{
	"asset":{
		"generator":"Khronos glTF Blender I/O v4.5.48",
		"version":"2.0"
	},
	"scene":0,
	"scenes":[
		{
			"name":"Scene",
			"nodes":[
				0
			]
		}
	],
	"nodes":[
		{
			"mesh":0,
			"name":"Object"
		}
	],
	"materials":[
		{
			"doubleSided":true,
			"name":"BE_ITEWAL03",
			"pbrMetallicRoughness":{
				"baseColorFactor":[
					0.800000011920929,
					0.800000011920929,
					0.800000011920929,
					1
				],
				"metallicFactor":0,
				"roughnessFactor":0.5
			}
		},
		{
			"doubleSided":true,
			"name":"BE_ICOLIG",
			"pbrMetallicRoughness":{
				"baseColorFactor":[
					0.800000011920929,
					0.800000011920929,
					0.800000011920929,
					1
				],
				"metallicFactor":0,
				"roughnessFactor":0.5
			}
		},
		{
			"doubleSided":true,
			"name":"BE_ICEI03B",
			"pbrMetallicRoughness":{
				"baseColorFactor":[
					0.800000011920929,
					0.800000011920929,
					0.800000011920929,
					1
				],
				"metallicFactor":0,
				"roughnessFactor":0.5
			}
		},
		{
			"doubleSided":true,
			"name":"BE_IGENERICDARK",
			"pbrMetallicRoughness":{
				"baseColorFactor":[
					0.800000011920929,
					0.800000011920929,
					0.800000011920929,
					1
				],
				"metallicFactor":0,
				"roughnessFactor":0.5
			}
		},
		{
			"doubleSided":true,
			"name":"BE_ITELIG01",
			"pbrMetallicRoughness":{
				"baseColorFactor":[
					0.800000011920929,
					0.800000011920929,
					0.800000011920929,
					1
				],
				"metallicFactor":0,
				"roughnessFactor":0.5
			}
		},
		{
			"doubleSided":true,
			"name":"BE_ITELIG02",
			"pbrMetallicRoughness":{
				"baseColorFactor":[
					0.800000011920929,
					0.800000011920929,
					0.800000011920929,
					1
				],
				"metallicFactor":0,
				"roughnessFactor":0.5
			}
		},
		{
			"doubleSided":true,
			"name":"BE_ICEI01A",
			"pbrMetallicRoughness":{
				"baseColorFactor":[
					0.800000011920929,
					0.800000011920929,
					0.800000011920929,
					1
				],
				"metallicFactor":0,
				"roughnessFactor":0.5
			}
		}
	],
	"meshes":[
		{
			"name":"Mesh",
			"primitives":[
				{
					"attributes":{
						"POSITION":0,
						"NORMAL":1,
						"TEXCOORD_0":2
					},
					"indices":3,
					"material":0
				},
				{
					"attributes":{
						"POSITION":4,
						"NORMAL":5,
						"TEXCOORD_0":6
					},
					"indices":7,
					"material":1
				},
				{
					"attributes":{
						"POSITION":8,
						"NORMAL":9,
						"TEXCOORD_0":10
					},
					"indices":11,
					"material":2
				},
				{
					"attributes":{
						"POSITION":12,
						"NORMAL":13,
						"TEXCOORD_0":14
					},
					"indices":15,
					"material":3
				},
				{
					"attributes":{
						"POSITION":16,
						"NORMAL":17,
						"TEXCOORD_0":18
					},
					"indices":19,
					"material":4
				},
				{
					"attributes":{
						"POSITION":20,
						"NORMAL":21,
						"TEXCOORD_0":22
					},
					"indices":23,
					"material":5
				},
				{
					"attributes":{
						"POSITION":24,
						"NORMAL":25,
						"TEXCOORD_0":26
					},
					"indices":27,
					"material":6
				}
			]
		}
	],
	"accessors":[
		{
			"bufferView":0,
			"componentType":5126,
			"count":256,
			"max":[
				4,
				0,
				4
			],
			"min":[
				-4,
				-7,
				-4
			],
			"type":"VEC3"
		},
		{
			"bufferView":1,
			"componentType":5126,
			"count":256,
			"type":"VEC3"
		},
		{
			"bufferView":2,
			"componentType":5126,
			"count":256,
			"type":"VEC2"
		},
		{
			"bufferView":3,
			"componentType":5123,
			"count":372,
			"type":"SCALAR"
		},
		{
			"bufferView":4,
			"componentType":5126,
			"count":32,
			"max":[
				4,
				-2.5,
				4
			],
			"min":[
				-4,
				-4.5,
				-4
			],
			"type":"VEC3"
		},
		{
			"bufferView":5,
			"componentType":5126,
			"count":32,
			"type":"VEC3"
		},
		{
			"bufferView":6,
			"componentType":5126,
			"count":32,
			"type":"VEC2"
		},
		{
			"bufferView":7,
			"componentType":5123,
			"count":48,
			"type":"SCALAR"
		},
		{
			"bufferView":8,
			"componentType":5126,
			"count":136,
			"max":[
				4,
				0.5,
				4
			],
			"min":[
				-4,
				-7,
				-4
			],
			"type":"VEC3"
		},
		{
			"bufferView":9,
			"componentType":5126,
			"count":136,
			"type":"VEC3"
		},
		{
			"bufferView":10,
			"componentType":5126,
			"count":136,
			"type":"VEC2"
		},
		{
			"bufferView":11,
			"componentType":5123,
			"count":168,
			"type":"SCALAR"
		},
		{
			"bufferView":12,
			"componentType":5126,
			"count":228,
			"max":[
				3,
				0.5,
				3
			],
			"min":[
				-3,
				-8,
				-3
			],
			"type":"VEC3"
		},
		{
			"bufferView":13,
			"componentType":5126,
			"count":228,
			"type":"VEC3"
		},
		{
			"bufferView":14,
			"componentType":5126,
			"count":228,
			"type":"VEC2"
		},
		{
			"bufferView":15,
			"componentType":5123,
			"count":426,
			"type":"SCALAR"
		},
		{
			"bufferView":16,
			"componentType":5126,
			"count":16,
			"max":[
				1.5,
				-8,
				1.5
			],
			"min":[
				-1.5,
				-8,
				-1.5
			],
			"type":"VEC3"
		},
		{
			"bufferView":17,
			"componentType":5126,
			"count":16,
			"type":"VEC3"
		},
		{
			"bufferView":18,
			"componentType":5126,
			"count":16,
			"type":"VEC2"
		},
		{
			"bufferView":19,
			"componentType":5123,
			"count":42,
			"type":"SCALAR"
		},
		{
			"bufferView":20,
			"componentType":5126,
			"count":124,
			"max":[
				1.5,
				-1.96875,
				1.5
			],
			"min":[
				-1.5,
				-8,
				-1.5
			],
			"type":"VEC3"
		},
		{
			"bufferView":21,
			"componentType":5126,
			"count":124,
			"type":"VEC3"
		},
		{
			"bufferView":22,
			"componentType":5126,
			"count":124,
			"type":"VEC2"
		},
		{
			"bufferView":23,
			"componentType":5123,
			"count":198,
			"type":"SCALAR"
		},
		{
			"bufferView":24,
			"componentType":5126,
			"count":36,
			"max":[
				1.5,
				-0.96875,
				1.5
			],
			"min":[
				-1.5,
				-1.96875,
				-1.5
			],
			"type":"VEC3"
		},
		{
			"bufferView":25,
			"componentType":5126,
			"count":36,
			"type":"VEC3"
		},
		{
			"bufferView":26,
			"componentType":5126,
			"count":36,
			"type":"VEC2"
		},
		{
			"bufferView":27,
			"componentType":5123,
			"count":36,
			"type":"SCALAR"
		}
	],
	"bufferViews":[
		{
			"buffer":0,
			"byteLength":3072,
			"byteOffset":0,
			"target":34962
		},
		{
			"buffer":0,
			"byteLength":3072,
			"byteOffset":3072,
			"target":34962
		},
		{
			"buffer":0,
			"byteLength":2048,
			"byteOffset":6144,
			"target":34962
		},
		{
			"buffer":0,
			"byteLength":744,
			"byteOffset":8192,
			"target":34963
		},
		{
			"buffer":0,
			"byteLength":384,
			"byteOffset":8936,
			"target":34962
		},
		{
			"buffer":0,
			"byteLength":384,
			"byteOffset":9320,
			"target":34962
		},
		{
			"buffer":0,
			"byteLength":256,
			"byteOffset":9704,
			"target":34962
		},
		{
			"buffer":0,
			"byteLength":96,
			"byteOffset":9960,
			"target":34963
		},
		{
			"buffer":0,
			"byteLength":1632,
			"byteOffset":10056,
			"target":34962
		},
		{
			"buffer":0,
			"byteLength":1632,
			"byteOffset":11688,
			"target":34962
		},
		{
			"buffer":0,
			"byteLength":1088,
			"byteOffset":13320,
			"target":34962
		},
		{
			"buffer":0,
			"byteLength":336,
			"byteOffset":14408,
			"target":34963
		},
		{
			"buffer":0,
			"byteLength":2736,
			"byteOffset":14744,
			"target":34962
		},
		{
			"buffer":0,
			"byteLength":2736,
			"byteOffset":17480,
			"target":34962
		},
		{
			"buffer":0,
			"byteLength":1824,
			"byteOffset":20216,
			"target":34962
		},
		{
			"buffer":0,
			"byteLength":852,
			"byteOffset":22040,
			"target":34963
		},
		{
			"buffer":0,
			"byteLength":192,
			"byteOffset":22892,
			"target":34962
		},
		{
			"buffer":0,
			"byteLength":192,
			"byteOffset":23084,
			"target":34962
		},
		{
			"buffer":0,
			"byteLength":128,
			"byteOffset":23276,
			"target":34962
		},
		{
			"buffer":0,
			"byteLength":84,
			"byteOffset":23404,
			"target":34963
		},
		{
			"buffer":0,
			"byteLength":1488,
			"byteOffset":23488,
			"target":34962
		},
		{
			"buffer":0,
			"byteLength":1488,
			"byteOffset":24976,
			"target":34962
		},
		{
			"buffer":0,
			"byteLength":992,
			"byteOffset":26464,
			"target":34962
		},
		{
			"buffer":0,
			"byteLength":396,
			"byteOffset":27456,
			"target":34963
		},
		{
			"buffer":0,
			"byteLength":432,
			"byteOffset":27852,
			"target":34962
		},
		{
			"buffer":0,
			"byteLength":432,
			"byteOffset":28284,
			"target":34962
		},
		{
			"buffer":0,
			"byteLength":288,
			"byteOffset":28716,
			"target":34962
		},
		{
			"buffer":0,
			"byteLength":72,
			"byteOffset":29004,
			"target":34963
		}
	],
	"buffers":[
		{
			"byteLength":29076,
			"uri":"iristurbase.bin"
		}
	]
}
