{
	"asset":{
		"generator":"Khronos glTF Blender I/O v4.5.48",
		"version":"2.0"
	},
	"scene":0,
	"scenes":[
		{
			"name":"Scene",
			"nodes":[
				0
			]
		}
	],
	"nodes":[
		{
			"mesh":0,
			"name":"Object"
		}
	],
	"materials":[
		{
			"doubleSided":true,
			"name":"IR_BLOCKS",
			"pbrMetallicRoughness":{
				"baseColorFactor":[
					0.800000011920929,
					0.800000011920929,
					0.800000011920929,
					1
				],
				"metallicFactor":0,
				"roughnessFactor":0.5
			}
		},
		{
			"doubleSided":true,
			"name":"IR_TRIM1",
			"pbrMetallicRoughness":{
				"baseColorFactor":[
					0.800000011920929,
					0.800000011920929,
					0.800000011920929,
					1
				],
				"metallicFactor":0,
				"roughnessFactor":0.5
			}
		},
		{
			"doubleSided":true,
			"name":"IR_TRIM2",
			"pbrMetallicRoughness":{
				"baseColorFactor":[
					0.800000011920929,
					0.800000011920929,
					0.800000011920929,
					1
				],
				"metallicFactor":0,
				"roughnessFactor":0.5
			}
		},
		{
			"doubleSided":true,
			"name":"IR_WALL",
			"pbrMetallicRoughness":{
				"baseColorFactor":[
					0.800000011920929,
					0.800000011920929,
					0.800000011920929,
					1
				],
				"metallicFactor":0,
				"roughnessFactor":0.5
			}
		}
	],
	"meshes":[
		{
			"name":"Mesh",
			"primitives":[
				{
					"attributes":{
						"POSITION":0,
						"NORMAL":1,
						"TEXCOORD_0":2
					},
					"indices":3,
					"material":0
				},
				{
					"attributes":{
						"POSITION":4,
						"NORMAL":5,
						"TEXCOORD_0":6
					},
					"indices":7,
					"material":1
				},
				{
					"attributes":{
						"POSITION":8,
						"NORMAL":9,
						"TEXCOORD_0":10
					},
					"indices":11,
					"material":2
				},
				{
					"attributes":{
						"POSITION":12,
						"NORMAL":13,
						"TEXCOORD_0":14
					},
					"indices":15,
					"material":3
				}
			]
		}
	],
	"accessors":[
		{
			"bufferView":0,
			"componentType":5126,
			"count":16,
			"max":[
				2.75,
				2,
				2.75
			],
			"min":[
				-2,
				-2,
				-2.75
			],
			"type":"VEC3"
		},
		{
			"bufferView":1,
			"componentType":5126,
			"count":16,
			"type":"VEC3"
		},
		{
			"bufferView":2,
			"componentType":5126,
			"count":16,
			"type":"VEC2"
		},
		{
			"bufferView":3,
			"componentType":5123,
			"count":24,
			"type":"SCALAR"
		},
		{
			"bufferView":4,
			"componentType":5126,
			"count":56,
			"max":[
				2.75,
				2.75,
				2.75
			],
			"min":[
				-2,
				-2,
				-2.75
			],
			"type":"VEC3"
		},
		{
			"bufferView":5,
			"componentType":5126,
			"count":56,
			"type":"VEC3"
		},
		{
			"bufferView":6,
			"componentType":5126,
			"count":56,
			"type":"VEC2"
		},
		{
			"bufferView":7,
			"componentType":5123,
			"count":96,
			"type":"SCALAR"
		},
		{
			"bufferView":8,
			"componentType":5126,
			"count":24,
			"max":[
				2.75,
				-2,
				1.75
			],
			"min":[
				-2,
				-4,
				-1.75
			],
			"type":"VEC3"
		},
		{
			"bufferView":9,
			"componentType":5126,
			"count":24,
			"type":"VEC3"
		},
		{
			"bufferView":10,
			"componentType":5126,
			"count":24,
			"type":"VEC2"
		},
		{
			"bufferView":11,
			"componentType":5123,
			"count":48,
			"type":"SCALAR"
		},
		{
			"bufferView":12,
			"componentType":5126,
			"count":8,
			"max":[
				2.75,
				2.75,
				2.75
			],
			"min":[
				-2,
				-4,
				-2.75
			],
			"type":"VEC3"
		},
		{
			"bufferView":13,
			"componentType":5126,
			"count":8,
			"type":"VEC3"
		},
		{
			"bufferView":14,
			"componentType":5126,
			"count":8,
			"type":"VEC2"
		},
		{
			"bufferView":15,
			"componentType":5123,
			"count":12,
			"type":"SCALAR"
		}
	],
	"bufferViews":[
		{
			"buffer":0,
			"byteLength":192,
			"byteOffset":0,
			"target":34962
		},
		{
			"buffer":0,
			"byteLength":192,
			"byteOffset":192,
			"target":34962
		},
		{
			"buffer":0,
			"byteLength":128,
			"byteOffset":384,
			"target":34962
		},
		{
			"buffer":0,
			"byteLength":48,
			"byteOffset":512,
			"target":34963
		},
		{
			"buffer":0,
			"byteLength":672,
			"byteOffset":560,
			"target":34962
		},
		{
			"buffer":0,
			"byteLength":672,
			"byteOffset":1232,
			"target":34962
		},
		{
			"buffer":0,
			"byteLength":448,
			"byteOffset":1904,
			"target":34962
		},
		{
			"buffer":0,
			"byteLength":192,
			"byteOffset":2352,
			"target":34963
		},
		{
			"buffer":0,
			"byteLength":288,
			"byteOffset":2544,
			"target":34962
		},
		{
			"buffer":0,
			"byteLength":288,
			"byteOffset":2832,
			"target":34962
		},
		{
			"buffer":0,
			"byteLength":192,
			"byteOffset":3120,
			"target":34962
		},
		{
			"buffer":0,
			"byteLength":96,
			"byteOffset":3312,
			"target":34963
		},
		{
			"buffer":0,
			"byteLength":96,
			"byteOffset":3408,
			"target":34962
		},
		{
			"buffer":0,
			"byteLength":96,
			"byteOffset":3504,
			"target":34962
		},
		{
			"buffer":0,
			"byteLength":64,
			"byteOffset":3600,
			"target":34962
		},
		{
			"buffer":0,
			"byteLength":24,
			"byteOffset":3664,
			"target":34963
		}
	],
	"buffers":[
		{
			"byteLength":3688,
			"uri":"irisruin2.bin"
		}
	]
}
