{
	"asset":{
		"generator":"Khronos glTF Blender I/O v4.5.48",
		"version":"2.0"
	},
	"scene":0,
	"scenes":[
		{
			"name":"Scene",
			"nodes":[
				0
			]
		}
	],
	"nodes":[
		{
			"mesh":0,
			"name":"Object"
		}
	],
	"materials":[
		{
			"doubleSided":true,
			"name":"DS_GENWALL",
			"pbrMetallicRoughness":{
				"baseColorFactor":[
					0.800000011920929,
					0.800000011920929,
					0.800000011920929,
					1
				],
				"metallicFactor":0,
				"roughnessFactor":0.5
			}
		},
		{
			"doubleSided":true,
			"name":"DS_IBOR02A",
			"pbrMetallicRoughness":{
				"baseColorFactor":[
					0.800000011920929,
					0.800000011920929,
					0.800000011920929,
					1
				],
				"metallicFactor":0,
				"roughnessFactor":0.5
			}
		},
		{
			"doubleSided":true,
			"name":"DS_IWALDECO04",
			"pbrMetallicRoughness":{
				"baseColorFactor":[
					0.800000011920929,
					0.800000011920929,
					0.800000011920929,
					1
				],
				"metallicFactor":0,
				"roughnessFactor":0.5
			}
		},
		{
			"doubleSided":true,
			"name":"DS_EWALL04",
			"pbrMetallicRoughness":{
				"baseColorFactor":[
					0.800000011920929,
					0.800000011920929,
					0.800000011920929,
					1
				],
				"metallicFactor":0,
				"roughnessFactor":0.5
			}
		},
		{
			"doubleSided":true,
			"name":"DS_ILIG03",
			"pbrMetallicRoughness":{
				"baseColorFactor":[
					0.800000011920929,
					0.800000011920929,
					0.800000011920929,
					1
				],
				"metallicFactor":0,
				"roughnessFactor":0.5
			}
		},
		{
			"doubleSided":true,
			"name":"DS_IWALDECO02A",
			"pbrMetallicRoughness":{
				"baseColorFactor":[
					0.800000011920929,
					0.800000011920929,
					0.800000011920929,
					1
				],
				"metallicFactor":0,
				"roughnessFactor":0.5
			}
		},
		{
			"doubleSided":true,
			"name":"DS_IWALDECO02",
			"pbrMetallicRoughness":{
				"baseColorFactor":[
					0.800000011920929,
					0.800000011920929,
					0.800000011920929,
					1
				],
				"metallicFactor":0,
				"roughnessFactor":0.5
			}
		},
		{
			"doubleSided":true,
			"name":"DS_EWALL06",
			"pbrMetallicRoughness":{
				"baseColorFactor":[
					0.800000011920929,
					0.800000011920929,
					0.800000011920929,
					1
				],
				"metallicFactor":0,
				"roughnessFactor":0.5
			}
		},
		{
			"doubleSided":true,
			"name":"DS_EWALL07",
			"pbrMetallicRoughness":{
				"baseColorFactor":[
					0.800000011920929,
					0.800000011920929,
					0.800000011920929,
					1
				],
				"metallicFactor":0,
				"roughnessFactor":0.5
			}
		}
	],
	"meshes":[
		{
			"name":"Mesh",
			"primitives":[
				{
					"attributes":{
						"POSITION":0,
						"NORMAL":1,
						"TEXCOORD_0":2
					},
					"indices":3,
					"material":0
				},
				{
					"attributes":{
						"POSITION":4,
						"NORMAL":5,
						"TEXCOORD_0":6
					},
					"indices":7,
					"material":1
				},
				{
					"attributes":{
						"POSITION":8,
						"NORMAL":9,
						"TEXCOORD_0":10
					},
					"indices":11,
					"material":2
				},
				{
					"attributes":{
						"POSITION":12,
						"NORMAL":13,
						"TEXCOORD_0":14
					},
					"indices":15,
					"material":3
				},
				{
					"attributes":{
						"POSITION":16,
						"NORMAL":17,
						"TEXCOORD_0":18
					},
					"indices":19,
					"material":4
				},
				{
					"attributes":{
						"POSITION":20,
						"NORMAL":21,
						"TEXCOORD_0":22
					},
					"indices":23,
					"material":5
				},
				{
					"attributes":{
						"POSITION":24,
						"NORMAL":25,
						"TEXCOORD_0":26
					},
					"indices":27,
					"material":6
				},
				{
					"attributes":{
						"POSITION":28,
						"NORMAL":29,
						"TEXCOORD_0":30
					},
					"indices":31,
					"material":7
				},
				{
					"attributes":{
						"POSITION":32,
						"NORMAL":33,
						"TEXCOORD_0":34
					},
					"indices":35,
					"material":8
				}
			]
		}
	],
	"accessors":[
		{
			"bufferView":0,
			"componentType":5126,
			"count":376,
			"max":[
				16,
				5,
				16
			],
			"min":[
				-16,
				-0.5,
				-16
			],
			"type":"VEC3"
		},
		{
			"bufferView":1,
			"componentType":5126,
			"count":376,
			"type":"VEC3"
		},
		{
			"bufferView":2,
			"componentType":5126,
			"count":376,
			"type":"VEC2"
		},
		{
			"bufferView":3,
			"componentType":5123,
			"count":690,
			"type":"SCALAR"
		},
		{
			"bufferView":4,
			"componentType":5126,
			"count":80,
			"max":[
				7,
				15.5,
				7
			],
			"min":[
				-7,
				14,
				-7
			],
			"type":"VEC3"
		},
		{
			"bufferView":5,
			"componentType":5126,
			"count":80,
			"type":"VEC3"
		},
		{
			"bufferView":6,
			"componentType":5126,
			"count":80,
			"type":"VEC2"
		},
		{
			"bufferView":7,
			"componentType":5123,
			"count":120,
			"type":"SCALAR"
		},
		{
			"bufferView":8,
			"componentType":5126,
			"count":136,
			"max":[
				7,
				13.5,
				7
			],
			"min":[
				-7,
				4.5,
				-7
			],
			"type":"VEC3"
		},
		{
			"bufferView":9,
			"componentType":5126,
			"count":136,
			"type":"VEC3"
		},
		{
			"bufferView":10,
			"componentType":5126,
			"count":136,
			"type":"VEC2"
		},
		{
			"bufferView":11,
			"componentType":5123,
			"count":240,
			"type":"SCALAR"
		},
		{
			"bufferView":12,
			"componentType":5126,
			"count":132,
			"max":[
				7,
				15.5,
				7
			],
			"min":[
				-7,
				12,
				-7
			],
			"type":"VEC3"
		},
		{
			"bufferView":13,
			"componentType":5126,
			"count":132,
			"type":"VEC3"
		},
		{
			"bufferView":14,
			"componentType":5126,
			"count":132,
			"type":"VEC2"
		},
		{
			"bufferView":15,
			"componentType":5123,
			"count":240,
			"type":"SCALAR"
		},
		{
			"bufferView":16,
			"componentType":5126,
			"count":32,
			"max":[
				7,
				14,
				7
			],
			"min":[
				-7,
				4,
				-7
			],
			"type":"VEC3"
		},
		{
			"bufferView":17,
			"componentType":5126,
			"count":32,
			"type":"VEC3"
		},
		{
			"bufferView":18,
			"componentType":5126,
			"count":32,
			"type":"VEC2"
		},
		{
			"bufferView":19,
			"componentType":5123,
			"count":48,
			"type":"SCALAR"
		},
		{
			"bufferView":20,
			"componentType":5126,
			"count":40,
			"max":[
				7,
				14,
				7
			],
			"min":[
				-7,
				9,
				-7
			],
			"type":"VEC3"
		},
		{
			"bufferView":21,
			"componentType":5126,
			"count":40,
			"type":"VEC3"
		},
		{
			"bufferView":22,
			"componentType":5126,
			"count":40,
			"type":"VEC2"
		},
		{
			"bufferView":23,
			"componentType":5123,
			"count":72,
			"type":"SCALAR"
		},
		{
			"bufferView":24,
			"componentType":5126,
			"count":40,
			"max":[
				7,
				9,
				7
			],
			"min":[
				-7,
				-6,
				-7
			],
			"type":"VEC3"
		},
		{
			"bufferView":25,
			"componentType":5126,
			"count":40,
			"type":"VEC3"
		},
		{
			"bufferView":26,
			"componentType":5126,
			"count":40,
			"type":"VEC2"
		},
		{
			"bufferView":27,
			"componentType":5123,
			"count":72,
			"type":"SCALAR"
		},
		{
			"bufferView":28,
			"componentType":5126,
			"count":448,
			"max":[
				16,
				5,
				16
			],
			"min":[
				-16,
				-6,
				-16
			],
			"type":"VEC3"
		},
		{
			"bufferView":29,
			"componentType":5126,
			"count":448,
			"type":"VEC3"
		},
		{
			"bufferView":30,
			"componentType":5126,
			"count":448,
			"type":"VEC2"
		},
		{
			"bufferView":31,
			"componentType":5123,
			"count":1056,
			"type":"SCALAR"
		},
		{
			"bufferView":32,
			"componentType":5126,
			"count":32,
			"max":[
				16,
				4.5,
				16
			],
			"min":[
				-16,
				-6,
				-16
			],
			"type":"VEC3"
		},
		{
			"bufferView":33,
			"componentType":5126,
			"count":32,
			"type":"VEC3"
		},
		{
			"bufferView":34,
			"componentType":5126,
			"count":32,
			"type":"VEC2"
		},
		{
			"bufferView":35,
			"componentType":5123,
			"count":48,
			"type":"SCALAR"
		}
	],
	"bufferViews":[
		{
			"buffer":0,
			"byteLength":4512,
			"byteOffset":0,
			"target":34962
		},
		{
			"buffer":0,
			"byteLength":4512,
			"byteOffset":4512,
			"target":34962
		},
		{
			"buffer":0,
			"byteLength":3008,
			"byteOffset":9024,
			"target":34962
		},
		{
			"buffer":0,
			"byteLength":1380,
			"byteOffset":12032,
			"target":34963
		},
		{
			"buffer":0,
			"byteLength":960,
			"byteOffset":13412,
			"target":34962
		},
		{
			"buffer":0,
			"byteLength":960,
			"byteOffset":14372,
			"target":34962
		},
		{
			"buffer":0,
			"byteLength":640,
			"byteOffset":15332,
			"target":34962
		},
		{
			"buffer":0,
			"byteLength":240,
			"byteOffset":15972,
			"target":34963
		},
		{
			"buffer":0,
			"byteLength":1632,
			"byteOffset":16212,
			"target":34962
		},
		{
			"buffer":0,
			"byteLength":1632,
			"byteOffset":17844,
			"target":34962
		},
		{
			"buffer":0,
			"byteLength":1088,
			"byteOffset":19476,
			"target":34962
		},
		{
			"buffer":0,
			"byteLength":480,
			"byteOffset":20564,
			"target":34963
		},
		{
			"buffer":0,
			"byteLength":1584,
			"byteOffset":21044,
			"target":34962
		},
		{
			"buffer":0,
			"byteLength":1584,
			"byteOffset":22628,
			"target":34962
		},
		{
			"buffer":0,
			"byteLength":1056,
			"byteOffset":24212,
			"target":34962
		},
		{
			"buffer":0,
			"byteLength":480,
			"byteOffset":25268,
			"target":34963
		},
		{
			"buffer":0,
			"byteLength":384,
			"byteOffset":25748,
			"target":34962
		},
		{
			"buffer":0,
			"byteLength":384,
			"byteOffset":26132,
			"target":34962
		},
		{
			"buffer":0,
			"byteLength":256,
			"byteOffset":26516,
			"target":34962
		},
		{
			"buffer":0,
			"byteLength":96,
			"byteOffset":26772,
			"target":34963
		},
		{
			"buffer":0,
			"byteLength":480,
			"byteOffset":26868,
			"target":34962
		},
		{
			"buffer":0,
			"byteLength":480,
			"byteOffset":27348,
			"target":34962
		},
		{
			"buffer":0,
			"byteLength":320,
			"byteOffset":27828,
			"target":34962
		},
		{
			"buffer":0,
			"byteLength":144,
			"byteOffset":28148,
			"target":34963
		},
		{
			"buffer":0,
			"byteLength":480,
			"byteOffset":28292,
			"target":34962
		},
		{
			"buffer":0,
			"byteLength":480,
			"byteOffset":28772,
			"target":34962
		},
		{
			"buffer":0,
			"byteLength":320,
			"byteOffset":29252,
			"target":34962
		},
		{
			"buffer":0,
			"byteLength":144,
			"byteOffset":29572,
			"target":34963
		},
		{
			"buffer":0,
			"byteLength":5376,
			"byteOffset":29716,
			"target":34962
		},
		{
			"buffer":0,
			"byteLength":5376,
			"byteOffset":35092,
			"target":34962
		},
		{
			"buffer":0,
			"byteLength":3584,
			"byteOffset":40468,
			"target":34962
		},
		{
			"buffer":0,
			"byteLength":2112,
			"byteOffset":44052,
			"target":34963
		},
		{
			"buffer":0,
			"byteLength":384,
			"byteOffset":46164,
			"target":34962
		},
		{
			"buffer":0,
			"byteLength":384,
			"byteOffset":46548,
			"target":34962
		},
		{
			"buffer":0,
			"byteLength":256,
			"byteOffset":46932,
			"target":34962
		},
		{
			"buffer":0,
			"byteLength":96,
			"byteOffset":47188,
			"target":34963
		}
	],
	"buffers":[
		{
			"byteLength":47284,
			"uri":"kif_cinereousfs.bin"
		}
	]
}
