{
	"asset":{
		"generator":"Khronos glTF Blender I/O v4.5.48",
		"version":"2.0"
	},
	"scene":0,
	"scenes":[
		{
			"name":"Scene",
			"nodes":[
				0
			]
		}
	],
	"nodes":[
		{
			"mesh":0,
			"name":"Object"
		}
	],
	"materials":[
		{
			"doubleSided":true,
			"name":"DS_GENWALL",
			"pbrMetallicRoughness":{
				"baseColorFactor":[
					0.800000011920929,
					0.800000011920929,
					0.800000011920929,
					1
				],
				"metallicFactor":0,
				"roughnessFactor":0.5
			}
		},
		{
			"doubleSided":true,
			"name":"DS_GENFLOOR",
			"pbrMetallicRoughness":{
				"baseColorFactor":[
					0.800000011920929,
					0.800000011920929,
					0.800000011920929,
					1
				],
				"metallicFactor":0,
				"roughnessFactor":0.5
			}
		},
		{
			"doubleSided":true,
			"name":"DS_EWALL07",
			"pbrMetallicRoughness":{
				"baseColorFactor":[
					0.800000011920929,
					0.800000011920929,
					0.800000011920929,
					1
				],
				"metallicFactor":0,
				"roughnessFactor":0.5
			}
		},
		{
			"doubleSided":true,
			"name":"DS_ILIG01",
			"pbrMetallicRoughness":{
				"baseColorFactor":[
					0.800000011920929,
					0.800000011920929,
					0.800000011920929,
					1
				],
				"metallicFactor":0,
				"roughnessFactor":0.5
			}
		},
		{
			"doubleSided":true,
			"name":"DS_EWALDECO01",
			"pbrMetallicRoughness":{
				"baseColorFactor":[
					0.800000011920929,
					0.800000011920929,
					0.800000011920929,
					1
				],
				"metallicFactor":0,
				"roughnessFactor":0.5
			}
		},
		{
			"doubleSided":true,
			"name":"DS_EFLOOR1",
			"pbrMetallicRoughness":{
				"baseColorFactor":[
					0.800000011920929,
					0.800000011920929,
					0.800000011920929,
					1
				],
				"metallicFactor":0,
				"roughnessFactor":0.5
			}
		},
		{
			"doubleSided":true,
			"name":"DS_IBOR02",
			"pbrMetallicRoughness":{
				"baseColorFactor":[
					0.800000011920929,
					0.800000011920929,
					0.800000011920929,
					1
				],
				"metallicFactor":0,
				"roughnessFactor":0.5
			}
		},
		{
			"doubleSided":true,
			"name":"DS_TECHBORDER2",
			"pbrMetallicRoughness":{
				"baseColorFactor":[
					0.800000011920929,
					0.800000011920929,
					0.800000011920929,
					1
				],
				"metallicFactor":0,
				"roughnessFactor":0.5
			}
		},
		{
			"doubleSided":true,
			"name":"DS_TECHBORDER1",
			"pbrMetallicRoughness":{
				"baseColorFactor":[
					0.800000011920929,
					0.800000011920929,
					0.800000011920929,
					1
				],
				"metallicFactor":0,
				"roughnessFactor":0.5
			}
		}
	],
	"meshes":[
		{
			"name":"Mesh",
			"primitives":[
				{
					"attributes":{
						"POSITION":0,
						"NORMAL":1,
						"TEXCOORD_0":2
					},
					"indices":3,
					"material":0
				},
				{
					"attributes":{
						"POSITION":4,
						"NORMAL":5,
						"TEXCOORD_0":6
					},
					"indices":7,
					"material":1
				},
				{
					"attributes":{
						"POSITION":8,
						"NORMAL":9,
						"TEXCOORD_0":10
					},
					"indices":11,
					"material":2
				},
				{
					"attributes":{
						"POSITION":12,
						"NORMAL":13,
						"TEXCOORD_0":14
					},
					"indices":15,
					"material":3
				},
				{
					"attributes":{
						"POSITION":16,
						"NORMAL":17,
						"TEXCOORD_0":18
					},
					"indices":19,
					"material":4
				},
				{
					"attributes":{
						"POSITION":20,
						"NORMAL":21,
						"TEXCOORD_0":22
					},
					"indices":23,
					"material":5
				},
				{
					"attributes":{
						"POSITION":24,
						"NORMAL":25,
						"TEXCOORD_0":26
					},
					"indices":27,
					"material":6
				},
				{
					"attributes":{
						"POSITION":28,
						"NORMAL":29,
						"TEXCOORD_0":30
					},
					"indices":31,
					"material":7
				},
				{
					"attributes":{
						"POSITION":32,
						"NORMAL":33,
						"TEXCOORD_0":34
					},
					"indices":35,
					"material":8
				}
			]
		}
	],
	"accessors":[
		{
			"bufferView":0,
			"componentType":5126,
			"count":244,
			"max":[
				16,
				0.5,
				12
			],
			"min":[
				-16,
				-3.5,
				-40
			],
			"type":"VEC3"
		},
		{
			"bufferView":1,
			"componentType":5126,
			"count":244,
			"type":"VEC3"
		},
		{
			"bufferView":2,
			"componentType":5126,
			"count":244,
			"type":"VEC2"
		},
		{
			"bufferView":3,
			"componentType":5123,
			"count":780,
			"type":"SCALAR"
		},
		{
			"bufferView":4,
			"componentType":5126,
			"count":192,
			"max":[
				16,
				-0.5,
				12
			],
			"min":[
				-16,
				-4,
				-40
			],
			"type":"VEC3"
		},
		{
			"bufferView":5,
			"componentType":5126,
			"count":192,
			"type":"VEC3"
		},
		{
			"bufferView":6,
			"componentType":5126,
			"count":192,
			"type":"VEC2"
		},
		{
			"bufferView":7,
			"componentType":5123,
			"count":324,
			"type":"SCALAR"
		},
		{
			"bufferView":8,
			"componentType":5126,
			"count":123,
			"max":[
				16,
				-0.5,
				0
			],
			"min":[
				-16,
				-4,
				-28
			],
			"type":"VEC3"
		},
		{
			"bufferView":9,
			"componentType":5126,
			"count":123,
			"type":"VEC3"
		},
		{
			"bufferView":10,
			"componentType":5126,
			"count":123,
			"type":"VEC2"
		},
		{
			"bufferView":11,
			"componentType":5123,
			"count":333,
			"type":"SCALAR"
		},
		{
			"bufferView":12,
			"componentType":5126,
			"count":48,
			"max":[
				15.5,
				12,
				-2
			],
			"min":[
				-15.5,
				12,
				-26
			],
			"type":"VEC3"
		},
		{
			"bufferView":13,
			"componentType":5126,
			"count":48,
			"type":"VEC3"
		},
		{
			"bufferView":14,
			"componentType":5126,
			"count":48,
			"type":"VEC2"
		},
		{
			"bufferView":15,
			"componentType":5123,
			"count":72,
			"type":"SCALAR"
		},
		{
			"bufferView":16,
			"componentType":5126,
			"count":197,
			"max":[
				15.5,
				12,
				-2
			],
			"min":[
				-15.5,
				-0.5,
				-26
			],
			"type":"VEC3"
		},
		{
			"bufferView":17,
			"componentType":5126,
			"count":197,
			"type":"VEC3"
		},
		{
			"bufferView":18,
			"componentType":5126,
			"count":197,
			"type":"VEC2"
		},
		{
			"bufferView":19,
			"componentType":5123,
			"count":303,
			"type":"SCALAR"
		},
		{
			"bufferView":20,
			"componentType":5126,
			"count":4,
			"max":[
				4,
				2,
				-12
			],
			"min":[
				-4,
				2,
				-16
			],
			"type":"VEC3"
		},
		{
			"bufferView":21,
			"componentType":5126,
			"count":4,
			"type":"VEC3"
		},
		{
			"bufferView":22,
			"componentType":5126,
			"count":4,
			"type":"VEC2"
		},
		{
			"bufferView":23,
			"componentType":5123,
			"count":6,
			"type":"SCALAR"
		},
		{
			"bufferView":24,
			"componentType":5126,
			"count":16,
			"max":[
				4.5,
				2,
				-11
			],
			"min":[
				-4.5,
				0.5,
				-17
			],
			"type":"VEC3"
		},
		{
			"bufferView":25,
			"componentType":5126,
			"count":16,
			"type":"VEC3"
		},
		{
			"bufferView":26,
			"componentType":5126,
			"count":16,
			"type":"VEC2"
		},
		{
			"bufferView":27,
			"componentType":5123,
			"count":24,
			"type":"SCALAR"
		},
		{
			"bufferView":28,
			"componentType":5126,
			"count":20,
			"max":[
				5.5,
				0,
				-9
			],
			"min":[
				-5.5,
				-0.5,
				-19
			],
			"type":"VEC3"
		},
		{
			"bufferView":29,
			"componentType":5126,
			"count":20,
			"type":"VEC3"
		},
		{
			"bufferView":30,
			"componentType":5126,
			"count":20,
			"type":"VEC2"
		},
		{
			"bufferView":31,
			"componentType":5123,
			"count":36,
			"type":"SCALAR"
		},
		{
			"bufferView":32,
			"componentType":5126,
			"count":20,
			"max":[
				5,
				0.5,
				-10
			],
			"min":[
				-5,
				0,
				-18
			],
			"type":"VEC3"
		},
		{
			"bufferView":33,
			"componentType":5126,
			"count":20,
			"type":"VEC3"
		},
		{
			"bufferView":34,
			"componentType":5126,
			"count":20,
			"type":"VEC2"
		},
		{
			"bufferView":35,
			"componentType":5123,
			"count":36,
			"type":"SCALAR"
		}
	],
	"bufferViews":[
		{
			"buffer":0,
			"byteLength":2928,
			"byteOffset":0,
			"target":34962
		},
		{
			"buffer":0,
			"byteLength":2928,
			"byteOffset":2928,
			"target":34962
		},
		{
			"buffer":0,
			"byteLength":1952,
			"byteOffset":5856,
			"target":34962
		},
		{
			"buffer":0,
			"byteLength":1560,
			"byteOffset":7808,
			"target":34963
		},
		{
			"buffer":0,
			"byteLength":2304,
			"byteOffset":9368,
			"target":34962
		},
		{
			"buffer":0,
			"byteLength":2304,
			"byteOffset":11672,
			"target":34962
		},
		{
			"buffer":0,
			"byteLength":1536,
			"byteOffset":13976,
			"target":34962
		},
		{
			"buffer":0,
			"byteLength":648,
			"byteOffset":15512,
			"target":34963
		},
		{
			"buffer":0,
			"byteLength":1476,
			"byteOffset":16160,
			"target":34962
		},
		{
			"buffer":0,
			"byteLength":1476,
			"byteOffset":17636,
			"target":34962
		},
		{
			"buffer":0,
			"byteLength":984,
			"byteOffset":19112,
			"target":34962
		},
		{
			"buffer":0,
			"byteLength":666,
			"byteOffset":20096,
			"target":34963
		},
		{
			"buffer":0,
			"byteLength":576,
			"byteOffset":20764,
			"target":34962
		},
		{
			"buffer":0,
			"byteLength":576,
			"byteOffset":21340,
			"target":34962
		},
		{
			"buffer":0,
			"byteLength":384,
			"byteOffset":21916,
			"target":34962
		},
		{
			"buffer":0,
			"byteLength":144,
			"byteOffset":22300,
			"target":34963
		},
		{
			"buffer":0,
			"byteLength":2364,
			"byteOffset":22444,
			"target":34962
		},
		{
			"buffer":0,
			"byteLength":2364,
			"byteOffset":24808,
			"target":34962
		},
		{
			"buffer":0,
			"byteLength":1576,
			"byteOffset":27172,
			"target":34962
		},
		{
			"buffer":0,
			"byteLength":606,
			"byteOffset":28748,
			"target":34963
		},
		{
			"buffer":0,
			"byteLength":48,
			"byteOffset":29356,
			"target":34962
		},
		{
			"buffer":0,
			"byteLength":48,
			"byteOffset":29404,
			"target":34962
		},
		{
			"buffer":0,
			"byteLength":32,
			"byteOffset":29452,
			"target":34962
		},
		{
			"buffer":0,
			"byteLength":12,
			"byteOffset":29484,
			"target":34963
		},
		{
			"buffer":0,
			"byteLength":192,
			"byteOffset":29496,
			"target":34962
		},
		{
			"buffer":0,
			"byteLength":192,
			"byteOffset":29688,
			"target":34962
		},
		{
			"buffer":0,
			"byteLength":128,
			"byteOffset":29880,
			"target":34962
		},
		{
			"buffer":0,
			"byteLength":48,
			"byteOffset":30008,
			"target":34963
		},
		{
			"buffer":0,
			"byteLength":240,
			"byteOffset":30056,
			"target":34962
		},
		{
			"buffer":0,
			"byteLength":240,
			"byteOffset":30296,
			"target":34962
		},
		{
			"buffer":0,
			"byteLength":160,
			"byteOffset":30536,
			"target":34962
		},
		{
			"buffer":0,
			"byteLength":72,
			"byteOffset":30696,
			"target":34963
		},
		{
			"buffer":0,
			"byteLength":240,
			"byteOffset":30768,
			"target":34962
		},
		{
			"buffer":0,
			"byteLength":240,
			"byteOffset":31008,
			"target":34962
		},
		{
			"buffer":0,
			"byteLength":160,
			"byteOffset":31248,
			"target":34962
		},
		{
			"buffer":0,
			"byteLength":72,
			"byteOffset":31408,
			"target":34963
		}
	],
	"buffers":[
		{
			"byteLength":31480,
			"uri":"kif_cinereousplat1.bin"
		}
	]
}
