{
	"asset":{
		"generator":"Khronos glTF Blender I/O v4.5.48",
		"version":"2.0"
	},
	"scene":0,
	"scenes":[
		{
			"name":"Scene",
			"nodes":[
				0
			]
		}
	],
	"nodes":[
		{
			"mesh":0,
			"name":"Object"
		}
	],
	"materials":[
		{
			"doubleSided":true,
			"name":"DS_TECHWALL_3",
			"pbrMetallicRoughness":{
				"baseColorFactor":[
					0.800000011920929,
					0.800000011920929,
					0.800000011920929,
					1
				],
				"metallicFactor":0,
				"roughnessFactor":0.5
			}
		},
		{
			"doubleSided":true,
			"name":"DS_TECHWALL_2",
			"pbrMetallicRoughness":{
				"baseColorFactor":[
					0.800000011920929,
					0.800000011920929,
					0.800000011920929,
					1
				],
				"metallicFactor":0,
				"roughnessFactor":0.5
			}
		},
		{
			"doubleSided":true,
			"name":"DS_EWALL06",
			"pbrMetallicRoughness":{
				"baseColorFactor":[
					0.800000011920929,
					0.800000011920929,
					0.800000011920929,
					1
				],
				"metallicFactor":0,
				"roughnessFactor":0.5
			}
		},
		{
			"doubleSided":true,
			"name":"DS_IHACEILIG01",
			"pbrMetallicRoughness":{
				"baseColorFactor":[
					0.800000011920929,
					0.800000011920929,
					0.800000011920929,
					1
				],
				"metallicFactor":0,
				"roughnessFactor":0.5
			}
		},
		{
			"doubleSided":true,
			"name":"DS_EWALL05",
			"pbrMetallicRoughness":{
				"baseColorFactor":[
					0.800000011920929,
					0.800000011920929,
					0.800000011920929,
					1
				],
				"metallicFactor":0,
				"roughnessFactor":0.5
			}
		},
		{
			"doubleSided":true,
			"name":"DS_GENWALL",
			"pbrMetallicRoughness":{
				"baseColorFactor":[
					0.800000011920929,
					0.800000011920929,
					0.800000011920929,
					1
				],
				"metallicFactor":0,
				"roughnessFactor":0.5
			}
		},
		{
			"doubleSided":true,
			"name":"DS_EFLOOR1",
			"pbrMetallicRoughness":{
				"baseColorFactor":[
					0.800000011920929,
					0.800000011920929,
					0.800000011920929,
					1
				],
				"metallicFactor":0,
				"roughnessFactor":0.5
			}
		},
		{
			"doubleSided":true,
			"name":"DS_ICEILIG01",
			"pbrMetallicRoughness":{
				"baseColorFactor":[
					0.800000011920929,
					0.800000011920929,
					0.800000011920929,
					1
				],
				"metallicFactor":0,
				"roughnessFactor":0.5
			}
		}
	],
	"meshes":[
		{
			"name":"Mesh",
			"primitives":[
				{
					"attributes":{
						"POSITION":0,
						"NORMAL":1,
						"TEXCOORD_0":2
					},
					"indices":3,
					"material":0
				},
				{
					"attributes":{
						"POSITION":4,
						"NORMAL":5,
						"TEXCOORD_0":6
					},
					"indices":7,
					"material":1
				},
				{
					"attributes":{
						"POSITION":8,
						"NORMAL":9,
						"TEXCOORD_0":10
					},
					"indices":11,
					"material":2
				},
				{
					"attributes":{
						"POSITION":12,
						"NORMAL":13,
						"TEXCOORD_0":14
					},
					"indices":15,
					"material":3
				},
				{
					"attributes":{
						"POSITION":16,
						"NORMAL":17,
						"TEXCOORD_0":18
					},
					"indices":19,
					"material":4
				},
				{
					"attributes":{
						"POSITION":20,
						"NORMAL":21,
						"TEXCOORD_0":22
					},
					"indices":23,
					"material":5
				},
				{
					"attributes":{
						"POSITION":24,
						"NORMAL":25,
						"TEXCOORD_0":26
					},
					"indices":27,
					"material":6
				},
				{
					"attributes":{
						"POSITION":28,
						"NORMAL":29,
						"TEXCOORD_0":30
					},
					"indices":31,
					"material":7
				}
			]
		}
	],
	"accessors":[
		{
			"bufferView":0,
			"componentType":5126,
			"count":88,
			"max":[
				4.5,
				9,
				5.5
			],
			"min":[
				-8.5,
				1.5,
				-6
			],
			"type":"VEC3"
		},
		{
			"bufferView":1,
			"componentType":5126,
			"count":88,
			"type":"VEC3"
		},
		{
			"bufferView":2,
			"componentType":5126,
			"count":88,
			"type":"VEC2"
		},
		{
			"bufferView":3,
			"componentType":5123,
			"count":150,
			"type":"SCALAR"
		},
		{
			"bufferView":4,
			"componentType":5126,
			"count":144,
			"max":[
				12,
				9.25,
				3.5
			],
			"min":[
				-8.5,
				0,
				-3.5
			],
			"type":"VEC3"
		},
		{
			"bufferView":5,
			"componentType":5126,
			"count":144,
			"type":"VEC3"
		},
		{
			"bufferView":6,
			"componentType":5126,
			"count":144,
			"type":"VEC2"
		},
		{
			"bufferView":7,
			"componentType":5123,
			"count":387,
			"type":"SCALAR"
		},
		{
			"bufferView":8,
			"componentType":5126,
			"count":3,
			"max":[
				3,
				3,
				2.5
			],
			"min":[
				2,
				2.5,
				2.5
			],
			"type":"VEC3"
		},
		{
			"bufferView":9,
			"componentType":5126,
			"count":3,
			"type":"VEC3"
		},
		{
			"bufferView":10,
			"componentType":5126,
			"count":3,
			"type":"VEC2"
		},
		{
			"bufferView":11,
			"componentType":5123,
			"count":3,
			"type":"SCALAR"
		},
		{
			"bufferView":12,
			"componentType":5126,
			"count":8,
			"max":[
				2,
				8,
				5
			],
			"min":[
				-4,
				8,
				-5
			],
			"type":"VEC3"
		},
		{
			"bufferView":13,
			"componentType":5126,
			"count":8,
			"type":"VEC3"
		},
		{
			"bufferView":14,
			"componentType":5126,
			"count":8,
			"type":"VEC2"
		},
		{
			"bufferView":15,
			"componentType":5123,
			"count":18,
			"type":"SCALAR"
		},
		{
			"bufferView":16,
			"componentType":5126,
			"count":32,
			"max":[
				8.25,
				9,
				5.5
			],
			"min":[
				-4.5,
				0,
				-6
			],
			"type":"VEC3"
		},
		{
			"bufferView":17,
			"componentType":5126,
			"count":32,
			"type":"VEC3"
		},
		{
			"bufferView":18,
			"componentType":5126,
			"count":32,
			"type":"VEC2"
		},
		{
			"bufferView":19,
			"componentType":5123,
			"count":54,
			"type":"SCALAR"
		},
		{
			"bufferView":20,
			"componentType":5126,
			"count":68,
			"max":[
				12,
				9.25,
				3.5
			],
			"min":[
				-3,
				0,
				-3.5
			],
			"type":"VEC3"
		},
		{
			"bufferView":21,
			"componentType":5126,
			"count":68,
			"type":"VEC3"
		},
		{
			"bufferView":22,
			"componentType":5126,
			"count":68,
			"type":"VEC2"
		},
		{
			"bufferView":23,
			"componentType":5123,
			"count":108,
			"type":"SCALAR"
		},
		{
			"bufferView":24,
			"componentType":5126,
			"count":8,
			"max":[
				2,
				2,
				2.5
			],
			"min":[
				-8.5,
				1,
				-2.5
			],
			"type":"VEC3"
		},
		{
			"bufferView":25,
			"componentType":5126,
			"count":8,
			"type":"VEC3"
		},
		{
			"bufferView":26,
			"componentType":5126,
			"count":8,
			"type":"VEC2"
		},
		{
			"bufferView":27,
			"componentType":5123,
			"count":12,
			"type":"SCALAR"
		},
		{
			"bufferView":28,
			"componentType":5126,
			"count":24,
			"max":[
				7.5,
				2.75,
				2.5
			],
			"min":[
				2,
				1.5,
				-2.5
			],
			"type":"VEC3"
		},
		{
			"bufferView":29,
			"componentType":5126,
			"count":24,
			"type":"VEC3"
		},
		{
			"bufferView":30,
			"componentType":5126,
			"count":24,
			"type":"VEC2"
		},
		{
			"bufferView":31,
			"componentType":5123,
			"count":48,
			"type":"SCALAR"
		}
	],
	"bufferViews":[
		{
			"buffer":0,
			"byteLength":1056,
			"byteOffset":0,
			"target":34962
		},
		{
			"buffer":0,
			"byteLength":1056,
			"byteOffset":1056,
			"target":34962
		},
		{
			"buffer":0,
			"byteLength":704,
			"byteOffset":2112,
			"target":34962
		},
		{
			"buffer":0,
			"byteLength":300,
			"byteOffset":2816,
			"target":34963
		},
		{
			"buffer":0,
			"byteLength":1728,
			"byteOffset":3116,
			"target":34962
		},
		{
			"buffer":0,
			"byteLength":1728,
			"byteOffset":4844,
			"target":34962
		},
		{
			"buffer":0,
			"byteLength":1152,
			"byteOffset":6572,
			"target":34962
		},
		{
			"buffer":0,
			"byteLength":774,
			"byteOffset":7724,
			"target":34963
		},
		{
			"buffer":0,
			"byteLength":36,
			"byteOffset":8500,
			"target":34962
		},
		{
			"buffer":0,
			"byteLength":36,
			"byteOffset":8536,
			"target":34962
		},
		{
			"buffer":0,
			"byteLength":24,
			"byteOffset":8572,
			"target":34962
		},
		{
			"buffer":0,
			"byteLength":6,
			"byteOffset":8596,
			"target":34963
		},
		{
			"buffer":0,
			"byteLength":96,
			"byteOffset":8604,
			"target":34962
		},
		{
			"buffer":0,
			"byteLength":96,
			"byteOffset":8700,
			"target":34962
		},
		{
			"buffer":0,
			"byteLength":64,
			"byteOffset":8796,
			"target":34962
		},
		{
			"buffer":0,
			"byteLength":36,
			"byteOffset":8860,
			"target":34963
		},
		{
			"buffer":0,
			"byteLength":384,
			"byteOffset":8896,
			"target":34962
		},
		{
			"buffer":0,
			"byteLength":384,
			"byteOffset":9280,
			"target":34962
		},
		{
			"buffer":0,
			"byteLength":256,
			"byteOffset":9664,
			"target":34962
		},
		{
			"buffer":0,
			"byteLength":108,
			"byteOffset":9920,
			"target":34963
		},
		{
			"buffer":0,
			"byteLength":816,
			"byteOffset":10028,
			"target":34962
		},
		{
			"buffer":0,
			"byteLength":816,
			"byteOffset":10844,
			"target":34962
		},
		{
			"buffer":0,
			"byteLength":544,
			"byteOffset":11660,
			"target":34962
		},
		{
			"buffer":0,
			"byteLength":216,
			"byteOffset":12204,
			"target":34963
		},
		{
			"buffer":0,
			"byteLength":96,
			"byteOffset":12420,
			"target":34962
		},
		{
			"buffer":0,
			"byteLength":96,
			"byteOffset":12516,
			"target":34962
		},
		{
			"buffer":0,
			"byteLength":64,
			"byteOffset":12612,
			"target":34962
		},
		{
			"buffer":0,
			"byteLength":24,
			"byteOffset":12676,
			"target":34963
		},
		{
			"buffer":0,
			"byteLength":288,
			"byteOffset":12700,
			"target":34962
		},
		{
			"buffer":0,
			"byteLength":288,
			"byteOffset":12988,
			"target":34962
		},
		{
			"buffer":0,
			"byteLength":192,
			"byteOffset":13276,
			"target":34962
		},
		{
			"buffer":0,
			"byteLength":96,
			"byteOffset":13468,
			"target":34963
		}
	],
	"buffers":[
		{
			"byteLength":13564,
			"uri":"kif_cinereousinv.bin"
		}
	]
}
