{
	"asset":{
		"generator":"Khronos glTF Blender I/O v4.5.48",
		"version":"2.0"
	},
	"scene":0,
	"scenes":[
		{
			"name":"Scene",
			"nodes":[
				0
			]
		}
	],
	"nodes":[
		{
			"mesh":0,
			"name":"Object"
		}
	],
	"materials":[
		{
			"doubleSided":true,
			"name":"DS_ETECHBOR01",
			"pbrMetallicRoughness":{
				"baseColorFactor":[
					0.800000011920929,
					0.800000011920929,
					0.800000011920929,
					1
				],
				"metallicFactor":0,
				"roughnessFactor":0.5
			}
		},
		{
			"doubleSided":true,
			"name":"DS_TECHWALL_3",
			"pbrMetallicRoughness":{
				"baseColorFactor":[
					0.800000011920929,
					0.800000011920929,
					0.800000011920929,
					1
				],
				"metallicFactor":0,
				"roughnessFactor":0.5
			}
		},
		{
			"doubleSided":true,
			"name":"DS_TECHWALL_1",
			"pbrMetallicRoughness":{
				"baseColorFactor":[
					0.800000011920929,
					0.800000011920929,
					0.800000011920929,
					1
				],
				"metallicFactor":0,
				"roughnessFactor":0.5
			}
		},
		{
			"doubleSided":true,
			"name":"DS_EWALL06",
			"pbrMetallicRoughness":{
				"baseColorFactor":[
					0.800000011920929,
					0.800000011920929,
					0.800000011920929,
					1
				],
				"metallicFactor":0,
				"roughnessFactor":0.5
			}
		},
		{
			"doubleSided":true,
			"name":"DS_TECHBORDER1",
			"pbrMetallicRoughness":{
				"baseColorFactor":[
					0.800000011920929,
					0.800000011920929,
					0.800000011920929,
					1
				],
				"metallicFactor":0,
				"roughnessFactor":0.5
			}
		},
		{
			"doubleSided":true,
			"name":"DS_TECHBORDER2",
			"pbrMetallicRoughness":{
				"baseColorFactor":[
					0.800000011920929,
					0.800000011920929,
					0.800000011920929,
					1
				],
				"metallicFactor":0,
				"roughnessFactor":0.5
			}
		},
		{
			"doubleSided":true,
			"name":"GREYLITETRIM2",
			"pbrMetallicRoughness":{
				"baseColorFactor":[
					0.800000011920929,
					0.800000011920929,
					0.800000011920929,
					1
				],
				"metallicFactor":0,
				"roughnessFactor":0.5
			}
		},
		{
			"doubleSided":true,
			"name":"DS_NEFFLOOR3",
			"pbrMetallicRoughness":{
				"baseColorFactor":[
					0.800000011920929,
					0.800000011920929,
					0.800000011920929,
					1
				],
				"metallicFactor":0,
				"roughnessFactor":0.5
			}
		},
		{
			"doubleSided":true,
			"name":"DS_IWALDECO01",
			"pbrMetallicRoughness":{
				"baseColorFactor":[
					0.800000011920929,
					0.800000011920929,
					0.800000011920929,
					1
				],
				"metallicFactor":0,
				"roughnessFactor":0.5
			}
		},
		{
			"doubleSided":true,
			"name":"NYCTO-PIPE",
			"pbrMetallicRoughness":{
				"baseColorFactor":[
					0.800000011920929,
					0.800000011920929,
					0.800000011920929,
					1
				],
				"metallicFactor":0,
				"roughnessFactor":0.5
			}
		},
		{
			"doubleSided":true,
			"name":"DS_ICEI01",
			"pbrMetallicRoughness":{
				"baseColorFactor":[
					0.800000011920929,
					0.800000011920929,
					0.800000011920929,
					1
				],
				"metallicFactor":0,
				"roughnessFactor":0.5
			}
		},
		{
			"doubleSided":true,
			"name":"TTRIM2",
			"pbrMetallicRoughness":{
				"baseColorFactor":[
					0.800000011920929,
					0.800000011920929,
					0.800000011920929,
					1
				],
				"metallicFactor":0,
				"roughnessFactor":0.5
			}
		},
		{
			"doubleSided":true,
			"name":"DS_ILIG05",
			"pbrMetallicRoughness":{
				"baseColorFactor":[
					0.800000011920929,
					0.800000011920929,
					0.800000011920929,
					1
				],
				"metallicFactor":0,
				"roughnessFactor":0.5
			}
		},
		{
			"doubleSided":true,
			"name":"GREYLITE2",
			"pbrMetallicRoughness":{
				"baseColorFactor":[
					0.800000011920929,
					0.800000011920929,
					0.800000011920929,
					1
				],
				"metallicFactor":0,
				"roughnessFactor":0.5
			}
		},
		{
			"doubleSided":true,
			"name":"DS_GENWALL",
			"pbrMetallicRoughness":{
				"baseColorFactor":[
					0.800000011920929,
					0.800000011920929,
					0.800000011920929,
					1
				],
				"metallicFactor":0,
				"roughnessFactor":0.5
			}
		},
		{
			"doubleSided":true,
			"name":"NYCTO-PLASMA",
			"pbrMetallicRoughness":{
				"baseColorFactor":[
					0.800000011920929,
					0.800000011920929,
					0.800000011920929,
					1
				],
				"metallicFactor":0,
				"roughnessFactor":0.5
			}
		}
	],
	"meshes":[
		{
			"name":"Mesh",
			"primitives":[
				{
					"attributes":{
						"POSITION":0,
						"NORMAL":1,
						"TEXCOORD_0":2
					},
					"indices":3,
					"material":0
				},
				{
					"attributes":{
						"POSITION":4,
						"NORMAL":5,
						"TEXCOORD_0":6
					},
					"indices":7,
					"material":1
				},
				{
					"attributes":{
						"POSITION":8,
						"NORMAL":9,
						"TEXCOORD_0":10
					},
					"indices":11,
					"material":2
				},
				{
					"attributes":{
						"POSITION":12,
						"NORMAL":13,
						"TEXCOORD_0":14
					},
					"indices":15,
					"material":3
				},
				{
					"attributes":{
						"POSITION":16,
						"NORMAL":17,
						"TEXCOORD_0":18
					},
					"indices":19,
					"material":4
				},
				{
					"attributes":{
						"POSITION":20,
						"NORMAL":21,
						"TEXCOORD_0":22
					},
					"indices":23,
					"material":5
				},
				{
					"attributes":{
						"POSITION":24,
						"NORMAL":25,
						"TEXCOORD_0":26
					},
					"indices":27,
					"material":6
				},
				{
					"attributes":{
						"POSITION":28,
						"NORMAL":29,
						"TEXCOORD_0":30
					},
					"indices":31,
					"material":7
				},
				{
					"attributes":{
						"POSITION":32,
						"NORMAL":33,
						"TEXCOORD_0":34
					},
					"indices":35,
					"material":8
				},
				{
					"attributes":{
						"POSITION":36,
						"NORMAL":37,
						"TEXCOORD_0":38
					},
					"indices":39,
					"material":9
				},
				{
					"attributes":{
						"POSITION":40,
						"NORMAL":41,
						"TEXCOORD_0":42
					},
					"indices":43,
					"material":10
				},
				{
					"attributes":{
						"POSITION":44,
						"NORMAL":45,
						"TEXCOORD_0":46
					},
					"indices":47,
					"material":11
				},
				{
					"attributes":{
						"POSITION":48,
						"NORMAL":49,
						"TEXCOORD_0":50
					},
					"indices":51,
					"material":12
				},
				{
					"attributes":{
						"POSITION":52,
						"NORMAL":53,
						"TEXCOORD_0":54
					},
					"indices":55,
					"material":13
				},
				{
					"attributes":{
						"POSITION":56,
						"NORMAL":57,
						"TEXCOORD_0":58
					},
					"indices":59,
					"material":14
				},
				{
					"attributes":{
						"POSITION":60,
						"NORMAL":61,
						"TEXCOORD_0":62
					},
					"indices":63,
					"material":15
				}
			]
		}
	],
	"accessors":[
		{
			"bufferView":0,
			"componentType":5126,
			"count":12,
			"max":[
				11,
				4,
				11
			],
			"min":[
				-11,
				2.6879680020696923e-16,
				-11
			],
			"type":"VEC3"
		},
		{
			"bufferView":1,
			"componentType":5126,
			"count":12,
			"type":"VEC3"
		},
		{
			"bufferView":2,
			"componentType":5126,
			"count":12,
			"type":"VEC2"
		},
		{
			"bufferView":3,
			"componentType":5123,
			"count":12,
			"type":"SCALAR"
		},
		{
			"bufferView":4,
			"componentType":5126,
			"count":160,
			"max":[
				11,
				4,
				11
			],
			"min":[
				-11,
				-9.5,
				-11
			],
			"type":"VEC3"
		},
		{
			"bufferView":5,
			"componentType":5126,
			"count":160,
			"type":"VEC3"
		},
		{
			"bufferView":6,
			"componentType":5126,
			"count":160,
			"type":"VEC2"
		},
		{
			"bufferView":7,
			"componentType":5123,
			"count":288,
			"type":"SCALAR"
		},
		{
			"bufferView":8,
			"componentType":5126,
			"count":136,
			"max":[
				0.75,
				-1.25,
				0.75
			],
			"min":[
				-0.75,
				-9.25,
				-0.75
			],
			"type":"VEC3"
		},
		{
			"bufferView":9,
			"componentType":5126,
			"count":136,
			"type":"VEC3"
		},
		{
			"bufferView":10,
			"componentType":5126,
			"count":136,
			"type":"VEC2"
		},
		{
			"bufferView":11,
			"componentType":5123,
			"count":324,
			"type":"SCALAR"
		},
		{
			"bufferView":12,
			"componentType":5126,
			"count":116,
			"max":[
				12,
				-6,
				12
			],
			"min":[
				-12,
				-16,
				-12
			],
			"type":"VEC3"
		},
		{
			"bufferView":13,
			"componentType":5126,
			"count":116,
			"type":"VEC3"
		},
		{
			"bufferView":14,
			"componentType":5126,
			"count":116,
			"type":"VEC2"
		},
		{
			"bufferView":15,
			"componentType":5123,
			"count":252,
			"type":"SCALAR"
		},
		{
			"bufferView":16,
			"componentType":5126,
			"count":16,
			"max":[
				7.5,
				-4.5,
				7.5
			],
			"min":[
				-7.5,
				-4.5,
				-7.5
			],
			"type":"VEC3"
		},
		{
			"bufferView":17,
			"componentType":5126,
			"count":16,
			"type":"VEC3"
		},
		{
			"bufferView":18,
			"componentType":5126,
			"count":16,
			"type":"VEC2"
		},
		{
			"bufferView":19,
			"componentType":5123,
			"count":24,
			"type":"SCALAR"
		},
		{
			"bufferView":20,
			"componentType":5126,
			"count":16,
			"max":[
				7.5,
				-6,
				7.5
			],
			"min":[
				-7.5,
				-6,
				-7.5
			],
			"type":"VEC3"
		},
		{
			"bufferView":21,
			"componentType":5126,
			"count":16,
			"type":"VEC3"
		},
		{
			"bufferView":22,
			"componentType":5126,
			"count":16,
			"type":"VEC2"
		},
		{
			"bufferView":23,
			"componentType":5123,
			"count":24,
			"type":"SCALAR"
		},
		{
			"bufferView":24,
			"componentType":5126,
			"count":104,
			"max":[
				7.5,
				-4.5,
				7.5
			],
			"min":[
				-7.5,
				-6,
				-7.5
			],
			"type":"VEC3"
		},
		{
			"bufferView":25,
			"componentType":5126,
			"count":104,
			"type":"VEC3"
		},
		{
			"bufferView":26,
			"componentType":5126,
			"count":104,
			"type":"VEC2"
		},
		{
			"bufferView":27,
			"componentType":5123,
			"count":240,
			"type":"SCALAR"
		},
		{
			"bufferView":28,
			"componentType":5126,
			"count":56,
			"max":[
				3.5,
				-5,
				3.5
			],
			"min":[
				-3.5,
				-5.5,
				-3.5
			],
			"type":"VEC3"
		},
		{
			"bufferView":29,
			"componentType":5126,
			"count":56,
			"type":"VEC3"
		},
		{
			"bufferView":30,
			"componentType":5126,
			"count":56,
			"type":"VEC2"
		},
		{
			"bufferView":31,
			"componentType":5123,
			"count":96,
			"type":"SCALAR"
		},
		{
			"bufferView":32,
			"componentType":5126,
			"count":32,
			"max":[
				2,
				-3,
				2
			],
			"min":[
				-2,
				-7.5,
				-2
			],
			"type":"VEC3"
		},
		{
			"bufferView":33,
			"componentType":5126,
			"count":32,
			"type":"VEC3"
		},
		{
			"bufferView":34,
			"componentType":5126,
			"count":32,
			"type":"VEC2"
		},
		{
			"bufferView":35,
			"componentType":5123,
			"count":48,
			"type":"SCALAR"
		},
		{
			"bufferView":36,
			"componentType":5126,
			"count":80,
			"max":[
				2,
				-3,
				2
			],
			"min":[
				-2,
				-7.5,
				-2
			],
			"type":"VEC3"
		},
		{
			"bufferView":37,
			"componentType":5126,
			"count":80,
			"type":"VEC3"
		},
		{
			"bufferView":38,
			"componentType":5126,
			"count":80,
			"type":"VEC2"
		},
		{
			"bufferView":39,
			"componentType":5123,
			"count":144,
			"type":"SCALAR"
		},
		{
			"bufferView":40,
			"componentType":5126,
			"count":80,
			"max":[
				2,
				-3,
				2
			],
			"min":[
				-2,
				-7.5,
				-2
			],
			"type":"VEC3"
		},
		{
			"bufferView":41,
			"componentType":5126,
			"count":80,
			"type":"VEC3"
		},
		{
			"bufferView":42,
			"componentType":5126,
			"count":80,
			"type":"VEC2"
		},
		{
			"bufferView":43,
			"componentType":5123,
			"count":312,
			"type":"SCALAR"
		},
		{
			"bufferView":44,
			"componentType":5126,
			"count":64,
			"max":[
				1,
				-3,
				1
			],
			"min":[
				-1,
				-7.5,
				-1
			],
			"type":"VEC3"
		},
		{
			"bufferView":45,
			"componentType":5126,
			"count":64,
			"type":"VEC3"
		},
		{
			"bufferView":46,
			"componentType":5126,
			"count":64,
			"type":"VEC2"
		},
		{
			"bufferView":47,
			"componentType":5123,
			"count":96,
			"type":"SCALAR"
		},
		{
			"bufferView":48,
			"componentType":5126,
			"count":96,
			"max":[
				2,
				-3,
				2
			],
			"min":[
				-2,
				-7.5,
				-2
			],
			"type":"VEC3"
		},
		{
			"bufferView":49,
			"componentType":5126,
			"count":96,
			"type":"VEC3"
		},
		{
			"bufferView":50,
			"componentType":5126,
			"count":96,
			"type":"VEC2"
		},
		{
			"bufferView":51,
			"componentType":5123,
			"count":144,
			"type":"SCALAR"
		},
		{
			"bufferView":52,
			"componentType":5126,
			"count":32,
			"max":[
				0.5,
				-2.5,
				0.5
			],
			"min":[
				-0.5,
				-8,
				-0.5
			],
			"type":"VEC3"
		},
		{
			"bufferView":53,
			"componentType":5126,
			"count":32,
			"type":"VEC3"
		},
		{
			"bufferView":54,
			"componentType":5126,
			"count":32,
			"type":"VEC2"
		},
		{
			"bufferView":55,
			"componentType":5123,
			"count":48,
			"type":"SCALAR"
		},
		{
			"bufferView":56,
			"componentType":5126,
			"count":112,
			"max":[
				2,
				-3.5,
				2
			],
			"min":[
				-2,
				-7,
				-2
			],
			"type":"VEC3"
		},
		{
			"bufferView":57,
			"componentType":5126,
			"count":112,
			"type":"VEC3"
		},
		{
			"bufferView":58,
			"componentType":5126,
			"count":112,
			"type":"VEC2"
		},
		{
			"bufferView":59,
			"componentType":5123,
			"count":192,
			"type":"SCALAR"
		},
		{
			"bufferView":60,
			"componentType":5126,
			"count":32,
			"max":[
				1,
				-3.5,
				1
			],
			"min":[
				-1,
				-7,
				-1
			],
			"type":"VEC3"
		},
		{
			"bufferView":61,
			"componentType":5126,
			"count":32,
			"type":"VEC3"
		},
		{
			"bufferView":62,
			"componentType":5126,
			"count":32,
			"type":"VEC2"
		},
		{
			"bufferView":63,
			"componentType":5123,
			"count":48,
			"type":"SCALAR"
		}
	],
	"bufferViews":[
		{
			"buffer":0,
			"byteLength":144,
			"byteOffset":0,
			"target":34962
		},
		{
			"buffer":0,
			"byteLength":144,
			"byteOffset":144,
			"target":34962
		},
		{
			"buffer":0,
			"byteLength":96,
			"byteOffset":288,
			"target":34962
		},
		{
			"buffer":0,
			"byteLength":24,
			"byteOffset":384,
			"target":34963
		},
		{
			"buffer":0,
			"byteLength":1920,
			"byteOffset":408,
			"target":34962
		},
		{
			"buffer":0,
			"byteLength":1920,
			"byteOffset":2328,
			"target":34962
		},
		{
			"buffer":0,
			"byteLength":1280,
			"byteOffset":4248,
			"target":34962
		},
		{
			"buffer":0,
			"byteLength":576,
			"byteOffset":5528,
			"target":34963
		},
		{
			"buffer":0,
			"byteLength":1632,
			"byteOffset":6104,
			"target":34962
		},
		{
			"buffer":0,
			"byteLength":1632,
			"byteOffset":7736,
			"target":34962
		},
		{
			"buffer":0,
			"byteLength":1088,
			"byteOffset":9368,
			"target":34962
		},
		{
			"buffer":0,
			"byteLength":648,
			"byteOffset":10456,
			"target":34963
		},
		{
			"buffer":0,
			"byteLength":1392,
			"byteOffset":11104,
			"target":34962
		},
		{
			"buffer":0,
			"byteLength":1392,
			"byteOffset":12496,
			"target":34962
		},
		{
			"buffer":0,
			"byteLength":928,
			"byteOffset":13888,
			"target":34962
		},
		{
			"buffer":0,
			"byteLength":504,
			"byteOffset":14816,
			"target":34963
		},
		{
			"buffer":0,
			"byteLength":192,
			"byteOffset":15320,
			"target":34962
		},
		{
			"buffer":0,
			"byteLength":192,
			"byteOffset":15512,
			"target":34962
		},
		{
			"buffer":0,
			"byteLength":128,
			"byteOffset":15704,
			"target":34962
		},
		{
			"buffer":0,
			"byteLength":48,
			"byteOffset":15832,
			"target":34963
		},
		{
			"buffer":0,
			"byteLength":192,
			"byteOffset":15880,
			"target":34962
		},
		{
			"buffer":0,
			"byteLength":192,
			"byteOffset":16072,
			"target":34962
		},
		{
			"buffer":0,
			"byteLength":128,
			"byteOffset":16264,
			"target":34962
		},
		{
			"buffer":0,
			"byteLength":48,
			"byteOffset":16392,
			"target":34963
		},
		{
			"buffer":0,
			"byteLength":1248,
			"byteOffset":16440,
			"target":34962
		},
		{
			"buffer":0,
			"byteLength":1248,
			"byteOffset":17688,
			"target":34962
		},
		{
			"buffer":0,
			"byteLength":832,
			"byteOffset":18936,
			"target":34962
		},
		{
			"buffer":0,
			"byteLength":480,
			"byteOffset":19768,
			"target":34963
		},
		{
			"buffer":0,
			"byteLength":672,
			"byteOffset":20248,
			"target":34962
		},
		{
			"buffer":0,
			"byteLength":672,
			"byteOffset":20920,
			"target":34962
		},
		{
			"buffer":0,
			"byteLength":448,
			"byteOffset":21592,
			"target":34962
		},
		{
			"buffer":0,
			"byteLength":192,
			"byteOffset":22040,
			"target":34963
		},
		{
			"buffer":0,
			"byteLength":384,
			"byteOffset":22232,
			"target":34962
		},
		{
			"buffer":0,
			"byteLength":384,
			"byteOffset":22616,
			"target":34962
		},
		{
			"buffer":0,
			"byteLength":256,
			"byteOffset":23000,
			"target":34962
		},
		{
			"buffer":0,
			"byteLength":96,
			"byteOffset":23256,
			"target":34963
		},
		{
			"buffer":0,
			"byteLength":960,
			"byteOffset":23352,
			"target":34962
		},
		{
			"buffer":0,
			"byteLength":960,
			"byteOffset":24312,
			"target":34962
		},
		{
			"buffer":0,
			"byteLength":640,
			"byteOffset":25272,
			"target":34962
		},
		{
			"buffer":0,
			"byteLength":288,
			"byteOffset":25912,
			"target":34963
		},
		{
			"buffer":0,
			"byteLength":960,
			"byteOffset":26200,
			"target":34962
		},
		{
			"buffer":0,
			"byteLength":960,
			"byteOffset":27160,
			"target":34962
		},
		{
			"buffer":0,
			"byteLength":640,
			"byteOffset":28120,
			"target":34962
		},
		{
			"buffer":0,
			"byteLength":624,
			"byteOffset":28760,
			"target":34963
		},
		{
			"buffer":0,
			"byteLength":768,
			"byteOffset":29384,
			"target":34962
		},
		{
			"buffer":0,
			"byteLength":768,
			"byteOffset":30152,
			"target":34962
		},
		{
			"buffer":0,
			"byteLength":512,
			"byteOffset":30920,
			"target":34962
		},
		{
			"buffer":0,
			"byteLength":192,
			"byteOffset":31432,
			"target":34963
		},
		{
			"buffer":0,
			"byteLength":1152,
			"byteOffset":31624,
			"target":34962
		},
		{
			"buffer":0,
			"byteLength":1152,
			"byteOffset":32776,
			"target":34962
		},
		{
			"buffer":0,
			"byteLength":768,
			"byteOffset":33928,
			"target":34962
		},
		{
			"buffer":0,
			"byteLength":288,
			"byteOffset":34696,
			"target":34963
		},
		{
			"buffer":0,
			"byteLength":384,
			"byteOffset":34984,
			"target":34962
		},
		{
			"buffer":0,
			"byteLength":384,
			"byteOffset":35368,
			"target":34962
		},
		{
			"buffer":0,
			"byteLength":256,
			"byteOffset":35752,
			"target":34962
		},
		{
			"buffer":0,
			"byteLength":96,
			"byteOffset":36008,
			"target":34963
		},
		{
			"buffer":0,
			"byteLength":1344,
			"byteOffset":36104,
			"target":34962
		},
		{
			"buffer":0,
			"byteLength":1344,
			"byteOffset":37448,
			"target":34962
		},
		{
			"buffer":0,
			"byteLength":896,
			"byteOffset":38792,
			"target":34962
		},
		{
			"buffer":0,
			"byteLength":384,
			"byteOffset":39688,
			"target":34963
		},
		{
			"buffer":0,
			"byteLength":384,
			"byteOffset":40072,
			"target":34962
		},
		{
			"buffer":0,
			"byteLength":384,
			"byteOffset":40456,
			"target":34962
		},
		{
			"buffer":0,
			"byteLength":256,
			"byteOffset":40840,
			"target":34962
		},
		{
			"buffer":0,
			"byteLength":96,
			"byteOffset":41096,
			"target":34963
		}
	],
	"buffers":[
		{
			"byteLength":41192,
			"uri":"nycto-ec6.bin"
		}
	]
}
