{
	"asset":{
		"generator":"Khronos glTF Blender I/O v4.5.48",
		"version":"2.0"
	},
	"scene":0,
	"scenes":[
		{
			"name":"Scene",
			"nodes":[
				0,
				1
			]
		}
	],
	"nodes":[
		{
			"mesh":0,
			"name":"Object"
		},
		{
			"mesh":1,
			"name":"Object.001"
		}
	],
	"materials":[
		{
			"doubleSided":true,
			"name":"NYCTO-PIPE",
			"pbrMetallicRoughness":{
				"baseColorFactor":[
					0.800000011920929,
					0.800000011920929,
					0.800000011920929,
					1
				],
				"metallicFactor":0,
				"roughnessFactor":0.5
			}
		},
		{
			"doubleSided":true,
			"name":"NYCTO-MWALL",
			"pbrMetallicRoughness":{
				"baseColorFactor":[
					0.800000011920929,
					0.800000011920929,
					0.800000011920929,
					1
				],
				"metallicFactor":0,
				"roughnessFactor":0.5
			}
		},
		{
			"doubleSided":true,
			"name":"NYCTO-MWALL2",
			"pbrMetallicRoughness":{
				"baseColorFactor":[
					0.800000011920929,
					0.800000011920929,
					0.800000011920929,
					1
				],
				"metallicFactor":0,
				"roughnessFactor":0.5
			}
		},
		{
			"doubleSided":true,
			"name":"DS_TECHWALL_1",
			"pbrMetallicRoughness":{
				"baseColorFactor":[
					0.800000011920929,
					0.800000011920929,
					0.800000011920929,
					1
				],
				"metallicFactor":0,
				"roughnessFactor":0.5
			}
		},
		{
			"doubleSided":true,
			"name":"NYCTO-TRIM",
			"pbrMetallicRoughness":{
				"baseColorFactor":[
					0.800000011920929,
					0.800000011920929,
					0.800000011920929,
					1
				],
				"metallicFactor":0,
				"roughnessFactor":0.5
			}
		},
		{
			"doubleSided":true,
			"name":"DS_ICEI01",
			"pbrMetallicRoughness":{
				"baseColorFactor":[
					0.800000011920929,
					0.800000011920929,
					0.800000011920929,
					1
				],
				"metallicFactor":0,
				"roughnessFactor":0.5
			}
		},
		{
			"doubleSided":true,
			"name":"DS_NEFFLOOR3",
			"pbrMetallicRoughness":{
				"baseColorFactor":[
					0.800000011920929,
					0.800000011920929,
					0.800000011920929,
					1
				],
				"metallicFactor":0,
				"roughnessFactor":0.5
			}
		},
		{
			"doubleSided":true,
			"name":"NYCTO-PIPE.001",
			"pbrMetallicRoughness":{
				"baseColorFactor":[
					0.800000011920929,
					0.800000011920929,
					0.800000011920929,
					1
				],
				"metallicFactor":0,
				"roughnessFactor":0.5
			}
		},
		{
			"doubleSided":true,
			"name":"NYCTO-MWALL.001",
			"pbrMetallicRoughness":{
				"baseColorFactor":[
					0.800000011920929,
					0.800000011920929,
					0.800000011920929,
					1
				],
				"metallicFactor":0,
				"roughnessFactor":0.5
			}
		},
		{
			"doubleSided":true,
			"name":"NYCTO-MWALL2.001",
			"pbrMetallicRoughness":{
				"baseColorFactor":[
					0.800000011920929,
					0.800000011920929,
					0.800000011920929,
					1
				],
				"metallicFactor":0,
				"roughnessFactor":0.5
			}
		},
		{
			"doubleSided":true,
			"name":"DS_TECHWALL_1.001",
			"pbrMetallicRoughness":{
				"baseColorFactor":[
					0.800000011920929,
					0.800000011920929,
					0.800000011920929,
					1
				],
				"metallicFactor":0,
				"roughnessFactor":0.5
			}
		},
		{
			"doubleSided":true,
			"name":"NYCTO-TRIM.001",
			"pbrMetallicRoughness":{
				"baseColorFactor":[
					0.800000011920929,
					0.800000011920929,
					0.800000011920929,
					1
				],
				"metallicFactor":0,
				"roughnessFactor":0.5
			}
		},
		{
			"doubleSided":true,
			"name":"DS_ICEI01.001",
			"pbrMetallicRoughness":{
				"baseColorFactor":[
					0.800000011920929,
					0.800000011920929,
					0.800000011920929,
					1
				],
				"metallicFactor":0,
				"roughnessFactor":0.5
			}
		}
	],
	"meshes":[
		{
			"name":"Mesh",
			"primitives":[
				{
					"attributes":{
						"POSITION":0,
						"NORMAL":1,
						"TEXCOORD_0":2
					},
					"indices":3,
					"material":0
				},
				{
					"attributes":{
						"POSITION":4,
						"NORMAL":5,
						"TEXCOORD_0":6
					},
					"indices":7,
					"material":1
				},
				{
					"attributes":{
						"POSITION":8,
						"NORMAL":9,
						"TEXCOORD_0":10
					},
					"indices":11,
					"material":2
				},
				{
					"attributes":{
						"POSITION":12,
						"NORMAL":13,
						"TEXCOORD_0":14
					},
					"indices":15,
					"material":3
				},
				{
					"attributes":{
						"POSITION":16,
						"NORMAL":17,
						"TEXCOORD_0":18
					},
					"indices":19,
					"material":4
				},
				{
					"attributes":{
						"POSITION":20,
						"NORMAL":21,
						"TEXCOORD_0":22
					},
					"indices":23,
					"material":5
				},
				{
					"attributes":{
						"POSITION":24,
						"NORMAL":25,
						"TEXCOORD_0":26
					},
					"indices":27,
					"material":6
				}
			]
		},
		{
			"name":"Mesh.001",
			"primitives":[
				{
					"attributes":{
						"POSITION":28,
						"NORMAL":29,
						"TEXCOORD_0":30
					},
					"indices":31,
					"material":7
				},
				{
					"attributes":{
						"POSITION":32,
						"NORMAL":33,
						"TEXCOORD_0":34
					},
					"indices":35,
					"material":8
				},
				{
					"attributes":{
						"POSITION":36,
						"NORMAL":37,
						"TEXCOORD_0":38
					},
					"indices":39,
					"material":9
				},
				{
					"attributes":{
						"POSITION":40,
						"NORMAL":41,
						"TEXCOORD_0":42
					},
					"indices":43,
					"material":10
				},
				{
					"attributes":{
						"POSITION":44,
						"NORMAL":45,
						"TEXCOORD_0":46
					},
					"indices":47,
					"material":11
				},
				{
					"attributes":{
						"POSITION":48,
						"NORMAL":49,
						"TEXCOORD_0":50
					},
					"indices":51,
					"material":12
				}
			]
		}
	],
	"accessors":[
		{
			"bufferView":0,
			"componentType":5126,
			"count":96,
			"max":[
				0.1875,
				0.9375,
				1.875
			],
			"min":[
				-0.1875,
				-2.25,
				1.3125
			],
			"type":"VEC3"
		},
		{
			"bufferView":1,
			"componentType":5126,
			"count":96,
			"type":"VEC3"
		},
		{
			"bufferView":2,
			"componentType":5126,
			"count":96,
			"type":"VEC2"
		},
		{
			"bufferView":3,
			"componentType":5123,
			"count":144,
			"type":"SCALAR"
		},
		{
			"bufferView":4,
			"componentType":5126,
			"count":59,
			"max":[
				1.25,
				2,
				1.1875
			],
			"min":[
				-1.25,
				-2.25,
				-1.25
			],
			"type":"VEC3"
		},
		{
			"bufferView":5,
			"componentType":5126,
			"count":59,
			"type":"VEC3"
		},
		{
			"bufferView":6,
			"componentType":5126,
			"count":59,
			"type":"VEC2"
		},
		{
			"bufferView":7,
			"componentType":5123,
			"count":105,
			"type":"SCALAR"
		},
		{
			"bufferView":8,
			"componentType":5126,
			"count":16,
			"max":[
				0.875,
				2,
				-0.875
			],
			"min":[
				-0.875,
				-2.25,
				-1.25
			],
			"type":"VEC3"
		},
		{
			"bufferView":9,
			"componentType":5126,
			"count":16,
			"type":"VEC3"
		},
		{
			"bufferView":10,
			"componentType":5126,
			"count":16,
			"type":"VEC2"
		},
		{
			"bufferView":11,
			"componentType":5123,
			"count":24,
			"type":"SCALAR"
		},
		{
			"bufferView":12,
			"componentType":5126,
			"count":174,
			"max":[
				2,
				2.5,
				2
			],
			"min":[
				-2,
				2,
				-2
			],
			"type":"VEC3"
		},
		{
			"bufferView":13,
			"componentType":5126,
			"count":174,
			"type":"VEC3"
		},
		{
			"bufferView":14,
			"componentType":5126,
			"count":174,
			"type":"VEC2"
		},
		{
			"bufferView":15,
			"componentType":5123,
			"count":405,
			"type":"SCALAR"
		},
		{
			"bufferView":16,
			"componentType":5126,
			"count":32,
			"max":[
				1.5,
				2.375,
				1.5
			],
			"min":[
				-1.5,
				2.25,
				-1.5
			],
			"type":"VEC3"
		},
		{
			"bufferView":17,
			"componentType":5126,
			"count":32,
			"type":"VEC3"
		},
		{
			"bufferView":18,
			"componentType":5126,
			"count":32,
			"type":"VEC2"
		},
		{
			"bufferView":19,
			"componentType":5123,
			"count":48,
			"type":"SCALAR"
		},
		{
			"bufferView":20,
			"componentType":5126,
			"count":8,
			"max":[
				2,
				2.5,
				2
			],
			"min":[
				-2,
				2.5,
				-2
			],
			"type":"VEC3"
		},
		{
			"bufferView":21,
			"componentType":5126,
			"count":8,
			"type":"VEC3"
		},
		{
			"bufferView":22,
			"componentType":5126,
			"count":8,
			"type":"VEC2"
		},
		{
			"bufferView":23,
			"componentType":5123,
			"count":18,
			"type":"SCALAR"
		},
		{
			"bufferView":24,
			"componentType":5126,
			"count":48,
			"max":[
				0.25,
				1,
				1.3125
			],
			"min":[
				-0.25,
				0.5,
				1.1875
			],
			"type":"VEC3"
		},
		{
			"bufferView":25,
			"componentType":5126,
			"count":48,
			"type":"VEC3"
		},
		{
			"bufferView":26,
			"componentType":5126,
			"count":48,
			"type":"VEC2"
		},
		{
			"bufferView":27,
			"componentType":5123,
			"count":108,
			"type":"SCALAR"
		},
		{
			"bufferView":28,
			"componentType":5126,
			"count":46,
			"max":[
				0.1875,
				0.9375,
				1.875
			],
			"min":[
				-0.1875,
				-2.25,
				1.25
			],
			"type":"VEC3"
		},
		{
			"bufferView":29,
			"componentType":5126,
			"count":46,
			"type":"VEC3"
		},
		{
			"bufferView":30,
			"componentType":5126,
			"count":46,
			"type":"VEC2"
		},
		{
			"bufferView":31,
			"componentType":5123,
			"count":72,
			"type":"SCALAR"
		},
		{
			"bufferView":32,
			"componentType":5126,
			"count":28,
			"max":[
				1.25,
				2,
				1.25
			],
			"min":[
				-1.25,
				-2.25,
				-1.25
			],
			"type":"VEC3"
		},
		{
			"bufferView":33,
			"componentType":5126,
			"count":28,
			"type":"VEC3"
		},
		{
			"bufferView":34,
			"componentType":5126,
			"count":28,
			"type":"VEC2"
		},
		{
			"bufferView":35,
			"componentType":5123,
			"count":48,
			"type":"SCALAR"
		},
		{
			"bufferView":36,
			"componentType":5126,
			"count":12,
			"max":[
				1.25,
				2,
				-0.5
			],
			"min":[
				-1.25,
				-2.25,
				-1.25
			],
			"type":"VEC3"
		},
		{
			"bufferView":37,
			"componentType":5126,
			"count":12,
			"type":"VEC3"
		},
		{
			"bufferView":38,
			"componentType":5126,
			"count":12,
			"type":"VEC2"
		},
		{
			"bufferView":39,
			"componentType":5123,
			"count":18,
			"type":"SCALAR"
		},
		{
			"bufferView":40,
			"componentType":5126,
			"count":64,
			"max":[
				2,
				2.5,
				2
			],
			"min":[
				-2,
				2,
				-2
			],
			"type":"VEC3"
		},
		{
			"bufferView":41,
			"componentType":5126,
			"count":64,
			"type":"VEC3"
		},
		{
			"bufferView":42,
			"componentType":5126,
			"count":64,
			"type":"VEC2"
		},
		{
			"bufferView":43,
			"componentType":5123,
			"count":96,
			"type":"SCALAR"
		},
		{
			"bufferView":44,
			"componentType":5126,
			"count":32,
			"max":[
				1.75,
				2.375,
				1.75
			],
			"min":[
				-1.75,
				2.25,
				-1.75
			],
			"type":"VEC3"
		},
		{
			"bufferView":45,
			"componentType":5126,
			"count":32,
			"type":"VEC3"
		},
		{
			"bufferView":46,
			"componentType":5126,
			"count":32,
			"type":"VEC2"
		},
		{
			"bufferView":47,
			"componentType":5123,
			"count":48,
			"type":"SCALAR"
		},
		{
			"bufferView":48,
			"componentType":5126,
			"count":8,
			"max":[
				2,
				2.5,
				2
			],
			"min":[
				-2,
				2.5,
				-2
			],
			"type":"VEC3"
		},
		{
			"bufferView":49,
			"componentType":5126,
			"count":8,
			"type":"VEC3"
		},
		{
			"bufferView":50,
			"componentType":5126,
			"count":8,
			"type":"VEC2"
		},
		{
			"bufferView":51,
			"componentType":5123,
			"count":18,
			"type":"SCALAR"
		}
	],
	"bufferViews":[
		{
			"buffer":0,
			"byteLength":1152,
			"byteOffset":0,
			"target":34962
		},
		{
			"buffer":0,
			"byteLength":1152,
			"byteOffset":1152,
			"target":34962
		},
		{
			"buffer":0,
			"byteLength":768,
			"byteOffset":2304,
			"target":34962
		},
		{
			"buffer":0,
			"byteLength":288,
			"byteOffset":3072,
			"target":34963
		},
		{
			"buffer":0,
			"byteLength":708,
			"byteOffset":3360,
			"target":34962
		},
		{
			"buffer":0,
			"byteLength":708,
			"byteOffset":4068,
			"target":34962
		},
		{
			"buffer":0,
			"byteLength":472,
			"byteOffset":4776,
			"target":34962
		},
		{
			"buffer":0,
			"byteLength":210,
			"byteOffset":5248,
			"target":34963
		},
		{
			"buffer":0,
			"byteLength":192,
			"byteOffset":5460,
			"target":34962
		},
		{
			"buffer":0,
			"byteLength":192,
			"byteOffset":5652,
			"target":34962
		},
		{
			"buffer":0,
			"byteLength":128,
			"byteOffset":5844,
			"target":34962
		},
		{
			"buffer":0,
			"byteLength":48,
			"byteOffset":5972,
			"target":34963
		},
		{
			"buffer":0,
			"byteLength":2088,
			"byteOffset":6020,
			"target":34962
		},
		{
			"buffer":0,
			"byteLength":2088,
			"byteOffset":8108,
			"target":34962
		},
		{
			"buffer":0,
			"byteLength":1392,
			"byteOffset":10196,
			"target":34962
		},
		{
			"buffer":0,
			"byteLength":810,
			"byteOffset":11588,
			"target":34963
		},
		{
			"buffer":0,
			"byteLength":384,
			"byteOffset":12400,
			"target":34962
		},
		{
			"buffer":0,
			"byteLength":384,
			"byteOffset":12784,
			"target":34962
		},
		{
			"buffer":0,
			"byteLength":256,
			"byteOffset":13168,
			"target":34962
		},
		{
			"buffer":0,
			"byteLength":96,
			"byteOffset":13424,
			"target":34963
		},
		{
			"buffer":0,
			"byteLength":96,
			"byteOffset":13520,
			"target":34962
		},
		{
			"buffer":0,
			"byteLength":96,
			"byteOffset":13616,
			"target":34962
		},
		{
			"buffer":0,
			"byteLength":64,
			"byteOffset":13712,
			"target":34962
		},
		{
			"buffer":0,
			"byteLength":36,
			"byteOffset":13776,
			"target":34963
		},
		{
			"buffer":0,
			"byteLength":576,
			"byteOffset":13812,
			"target":34962
		},
		{
			"buffer":0,
			"byteLength":576,
			"byteOffset":14388,
			"target":34962
		},
		{
			"buffer":0,
			"byteLength":384,
			"byteOffset":14964,
			"target":34962
		},
		{
			"buffer":0,
			"byteLength":216,
			"byteOffset":15348,
			"target":34963
		},
		{
			"buffer":0,
			"byteLength":552,
			"byteOffset":15564,
			"target":34962
		},
		{
			"buffer":0,
			"byteLength":552,
			"byteOffset":16116,
			"target":34962
		},
		{
			"buffer":0,
			"byteLength":368,
			"byteOffset":16668,
			"target":34962
		},
		{
			"buffer":0,
			"byteLength":144,
			"byteOffset":17036,
			"target":34963
		},
		{
			"buffer":0,
			"byteLength":336,
			"byteOffset":17180,
			"target":34962
		},
		{
			"buffer":0,
			"byteLength":336,
			"byteOffset":17516,
			"target":34962
		},
		{
			"buffer":0,
			"byteLength":224,
			"byteOffset":17852,
			"target":34962
		},
		{
			"buffer":0,
			"byteLength":96,
			"byteOffset":18076,
			"target":34963
		},
		{
			"buffer":0,
			"byteLength":144,
			"byteOffset":18172,
			"target":34962
		},
		{
			"buffer":0,
			"byteLength":144,
			"byteOffset":18316,
			"target":34962
		},
		{
			"buffer":0,
			"byteLength":96,
			"byteOffset":18460,
			"target":34962
		},
		{
			"buffer":0,
			"byteLength":36,
			"byteOffset":18556,
			"target":34963
		},
		{
			"buffer":0,
			"byteLength":768,
			"byteOffset":18592,
			"target":34962
		},
		{
			"buffer":0,
			"byteLength":768,
			"byteOffset":19360,
			"target":34962
		},
		{
			"buffer":0,
			"byteLength":512,
			"byteOffset":20128,
			"target":34962
		},
		{
			"buffer":0,
			"byteLength":192,
			"byteOffset":20640,
			"target":34963
		},
		{
			"buffer":0,
			"byteLength":384,
			"byteOffset":20832,
			"target":34962
		},
		{
			"buffer":0,
			"byteLength":384,
			"byteOffset":21216,
			"target":34962
		},
		{
			"buffer":0,
			"byteLength":256,
			"byteOffset":21600,
			"target":34962
		},
		{
			"buffer":0,
			"byteLength":96,
			"byteOffset":21856,
			"target":34963
		},
		{
			"buffer":0,
			"byteLength":96,
			"byteOffset":21952,
			"target":34962
		},
		{
			"buffer":0,
			"byteLength":96,
			"byteOffset":22048,
			"target":34962
		},
		{
			"buffer":0,
			"byteLength":64,
			"byteOffset":22144,
			"target":34962
		},
		{
			"buffer":0,
			"byteLength":36,
			"byteOffset":22208,
			"target":34963
		}
	],
	"buffers":[
		{
			"byteLength":22244,
			"uri":"nycto-stand1.bin"
		}
	]
}
