{
	"asset":{
		"generator":"Khronos glTF Blender I/O v4.5.48",
		"version":"2.0"
	},
	"scene":0,
	"scenes":[
		{
			"name":"Scene",
			"nodes":[
				0,
				1
			]
		}
	],
	"nodes":[
		{
			"mesh":0,
			"name":"Object"
		},
		{
			"mesh":1,
			"name":"Object.001"
		}
	],
	"materials":[
		{
			"doubleSided":true,
			"name":"NYCTO-PIPE",
			"pbrMetallicRoughness":{
				"baseColorFactor":[
					0.800000011920929,
					0.800000011920929,
					0.800000011920929,
					1
				],
				"metallicFactor":0,
				"roughnessFactor":0.5
			}
		},
		{
			"doubleSided":true,
			"name":"DS_EWALL06",
			"pbrMetallicRoughness":{
				"baseColorFactor":[
					0.800000011920929,
					0.800000011920929,
					0.800000011920929,
					1
				],
				"metallicFactor":0,
				"roughnessFactor":0.5
			}
		},
		{
			"doubleSided":true,
			"name":"NYCTO-COMPUTER",
			"pbrMetallicRoughness":{
				"baseColorFactor":[
					0.800000011920929,
					0.800000011920929,
					0.800000011920929,
					1
				],
				"metallicFactor":0,
				"roughnessFactor":0.5
			}
		},
		{
			"doubleSided":true,
			"name":"DS_ICEI01",
			"pbrMetallicRoughness":{
				"baseColorFactor":[
					0.800000011920929,
					0.800000011920929,
					0.800000011920929,
					1
				],
				"metallicFactor":0,
				"roughnessFactor":0.5
			}
		},
		{
			"doubleSided":true,
			"name":"RADWARN",
			"pbrMetallicRoughness":{
				"baseColorFactor":[
					0.800000011920929,
					0.800000011920929,
					0.800000011920929,
					1
				],
				"metallicFactor":0,
				"roughnessFactor":0.5
			}
		},
		{
			"doubleSided":true,
			"name":"GREYLITE2",
			"pbrMetallicRoughness":{
				"baseColorFactor":[
					0.800000011920929,
					0.800000011920929,
					0.800000011920929,
					1
				],
				"metallicFactor":0,
				"roughnessFactor":0.5
			}
		},
		{
			"doubleSided":true,
			"name":"DS_OBSIDIAN",
			"pbrMetallicRoughness":{
				"baseColorFactor":[
					0.800000011920929,
					0.800000011920929,
					0.800000011920929,
					1
				],
				"metallicFactor":0,
				"roughnessFactor":0.5
			}
		},
		{
			"doubleSided":true,
			"name":"DS_NEFFLOOR3",
			"pbrMetallicRoughness":{
				"baseColorFactor":[
					0.800000011920929,
					0.800000011920929,
					0.800000011920929,
					1
				],
				"metallicFactor":0,
				"roughnessFactor":0.5
			}
		},
		{
			"doubleSided":true,
			"name":"DS_EWALL06.001",
			"pbrMetallicRoughness":{
				"baseColorFactor":[
					0.800000011920929,
					0.800000011920929,
					0.800000011920929,
					1
				],
				"metallicFactor":0,
				"roughnessFactor":0.5
			}
		},
		{
			"doubleSided":true,
			"name":"NYCTO-PIPE.001",
			"pbrMetallicRoughness":{
				"baseColorFactor":[
					0.800000011920929,
					0.800000011920929,
					0.800000011920929,
					1
				],
				"metallicFactor":0,
				"roughnessFactor":0.5
			}
		},
		{
			"doubleSided":true,
			"name":"NYCTO-COMPUTER.001",
			"pbrMetallicRoughness":{
				"baseColorFactor":[
					0.800000011920929,
					0.800000011920929,
					0.800000011920929,
					1
				],
				"metallicFactor":0,
				"roughnessFactor":0.5
			}
		},
		{
			"doubleSided":true,
			"name":"DS_ICEI01.001",
			"pbrMetallicRoughness":{
				"baseColorFactor":[
					0.800000011920929,
					0.800000011920929,
					0.800000011920929,
					1
				],
				"metallicFactor":0,
				"roughnessFactor":0.5
			}
		},
		{
			"doubleSided":true,
			"name":"RADWARN.001",
			"pbrMetallicRoughness":{
				"baseColorFactor":[
					0.800000011920929,
					0.800000011920929,
					0.800000011920929,
					1
				],
				"metallicFactor":0,
				"roughnessFactor":0.5
			}
		},
		{
			"doubleSided":true,
			"name":"GREYLITE2.001",
			"pbrMetallicRoughness":{
				"baseColorFactor":[
					0.800000011920929,
					0.800000011920929,
					0.800000011920929,
					1
				],
				"metallicFactor":0,
				"roughnessFactor":0.5
			}
		},
		{
			"doubleSided":true,
			"name":"DS_OBSIDIAN.001",
			"pbrMetallicRoughness":{
				"baseColorFactor":[
					0.800000011920929,
					0.800000011920929,
					0.800000011920929,
					1
				],
				"metallicFactor":0,
				"roughnessFactor":0.5
			}
		},
		{
			"doubleSided":true,
			"name":"DS_NEFFLOOR3.001",
			"pbrMetallicRoughness":{
				"baseColorFactor":[
					0.800000011920929,
					0.800000011920929,
					0.800000011920929,
					1
				],
				"metallicFactor":0,
				"roughnessFactor":0.5
			}
		}
	],
	"meshes":[
		{
			"name":"Mesh",
			"primitives":[
				{
					"attributes":{
						"POSITION":0,
						"NORMAL":1,
						"TEXCOORD_0":2
					},
					"indices":3,
					"material":0
				},
				{
					"attributes":{
						"POSITION":4,
						"NORMAL":5,
						"TEXCOORD_0":6
					},
					"indices":7,
					"material":1
				},
				{
					"attributes":{
						"POSITION":8,
						"NORMAL":9,
						"TEXCOORD_0":10
					},
					"indices":11,
					"material":2
				},
				{
					"attributes":{
						"POSITION":12,
						"NORMAL":13,
						"TEXCOORD_0":14
					},
					"indices":15,
					"material":3
				},
				{
					"attributes":{
						"POSITION":16,
						"NORMAL":17,
						"TEXCOORD_0":18
					},
					"indices":19,
					"material":4
				},
				{
					"attributes":{
						"POSITION":20,
						"NORMAL":21,
						"TEXCOORD_0":22
					},
					"indices":23,
					"material":5
				},
				{
					"attributes":{
						"POSITION":24,
						"NORMAL":25,
						"TEXCOORD_0":26
					},
					"indices":27,
					"material":6
				},
				{
					"attributes":{
						"POSITION":28,
						"NORMAL":29,
						"TEXCOORD_0":30
					},
					"indices":31,
					"material":7
				}
			]
		},
		{
			"name":"Mesh.001",
			"primitives":[
				{
					"attributes":{
						"POSITION":32,
						"NORMAL":33,
						"TEXCOORD_0":34
					},
					"indices":35,
					"material":8
				},
				{
					"attributes":{
						"POSITION":36,
						"NORMAL":37,
						"TEXCOORD_0":38
					},
					"indices":39,
					"material":9
				},
				{
					"attributes":{
						"POSITION":40,
						"NORMAL":41,
						"TEXCOORD_0":42
					},
					"indices":43,
					"material":10
				},
				{
					"attributes":{
						"POSITION":44,
						"NORMAL":45,
						"TEXCOORD_0":46
					},
					"indices":47,
					"material":11
				},
				{
					"attributes":{
						"POSITION":48,
						"NORMAL":49,
						"TEXCOORD_0":50
					},
					"indices":51,
					"material":12
				},
				{
					"attributes":{
						"POSITION":52,
						"NORMAL":53,
						"TEXCOORD_0":54
					},
					"indices":55,
					"material":13
				},
				{
					"attributes":{
						"POSITION":56,
						"NORMAL":57,
						"TEXCOORD_0":58
					},
					"indices":59,
					"material":14
				},
				{
					"attributes":{
						"POSITION":60,
						"NORMAL":61,
						"TEXCOORD_0":62
					},
					"indices":63,
					"material":15
				}
			]
		}
	],
	"accessors":[
		{
			"bufferView":0,
			"componentType":5126,
			"count":420,
			"max":[
				5.625,
				1.875,
				4.0625
			],
			"min":[
				0.875,
				-12,
				-2.5
			],
			"type":"VEC3"
		},
		{
			"bufferView":1,
			"componentType":5126,
			"count":420,
			"type":"VEC3"
		},
		{
			"bufferView":2,
			"componentType":5126,
			"count":420,
			"type":"VEC2"
		},
		{
			"bufferView":3,
			"componentType":5123,
			"count":684,
			"type":"SCALAR"
		},
		{
			"bufferView":4,
			"componentType":5126,
			"count":72,
			"max":[
				4.1875,
				-6,
				4.3125
			],
			"min":[
				2.3125,
				-12,
				-2.9375
			],
			"type":"VEC3"
		},
		{
			"bufferView":5,
			"componentType":5126,
			"count":72,
			"type":"VEC3"
		},
		{
			"bufferView":6,
			"componentType":5126,
			"count":72,
			"type":"VEC2"
		},
		{
			"bufferView":7,
			"componentType":5123,
			"count":120,
			"type":"SCALAR"
		},
		{
			"bufferView":8,
			"componentType":5126,
			"count":14,
			"max":[
				4,
				-3,
				4.0625
			],
			"min":[
				2.5,
				-4,
				3.625
			],
			"type":"VEC3"
		},
		{
			"bufferView":9,
			"componentType":5126,
			"count":14,
			"type":"VEC3"
		},
		{
			"bufferView":10,
			"componentType":5126,
			"count":14,
			"type":"VEC2"
		},
		{
			"bufferView":11,
			"componentType":5123,
			"count":30,
			"type":"SCALAR"
		},
		{
			"bufferView":12,
			"componentType":5126,
			"count":8,
			"max":[
				4,
				-3,
				3.625
			],
			"min":[
				2.5,
				-4,
				2.625
			],
			"type":"VEC3"
		},
		{
			"bufferView":13,
			"componentType":5126,
			"count":8,
			"type":"VEC3"
		},
		{
			"bufferView":14,
			"componentType":5126,
			"count":8,
			"type":"VEC2"
		},
		{
			"bufferView":15,
			"componentType":5123,
			"count":12,
			"type":"SCALAR"
		},
		{
			"bufferView":16,
			"componentType":5126,
			"count":14,
			"max":[
				4,
				-3,
				2.625
			],
			"min":[
				2.5,
				-4,
				2.1875
			],
			"type":"VEC3"
		},
		{
			"bufferView":17,
			"componentType":5126,
			"count":14,
			"type":"VEC3"
		},
		{
			"bufferView":18,
			"componentType":5126,
			"count":14,
			"type":"VEC2"
		},
		{
			"bufferView":19,
			"componentType":5123,
			"count":30,
			"type":"SCALAR"
		},
		{
			"bufferView":20,
			"componentType":5126,
			"count":60,
			"max":[
				4,
				-5.75,
				4.0625
			],
			"min":[
				2.5,
				-6,
				-2.6875
			],
			"type":"VEC3"
		},
		{
			"bufferView":21,
			"componentType":5126,
			"count":60,
			"type":"VEC3"
		},
		{
			"bufferView":22,
			"componentType":5126,
			"count":60,
			"type":"VEC2"
		},
		{
			"bufferView":23,
			"componentType":5123,
			"count":108,
			"type":"SCALAR"
		},
		{
			"bufferView":24,
			"componentType":5126,
			"count":36,
			"max":[
				4,
				-5.75,
				4.0625
			],
			"min":[
				2.5,
				-5.75,
				-2.6875
			],
			"type":"VEC3"
		},
		{
			"bufferView":25,
			"componentType":5126,
			"count":36,
			"type":"VEC3"
		},
		{
			"bufferView":26,
			"componentType":5126,
			"count":36,
			"type":"VEC2"
		},
		{
			"bufferView":27,
			"componentType":5123,
			"count":108,
			"type":"SCALAR"
		},
		{
			"bufferView":28,
			"componentType":5126,
			"count":96,
			"max":[
				4.125,
				-3.25,
				3.3125
			],
			"min":[
				2.375,
				-3.75,
				2.8125
			],
			"type":"VEC3"
		},
		{
			"bufferView":29,
			"componentType":5126,
			"count":96,
			"type":"VEC3"
		},
		{
			"bufferView":30,
			"componentType":5126,
			"count":96,
			"type":"VEC2"
		},
		{
			"bufferView":31,
			"componentType":5123,
			"count":216,
			"type":"SCALAR"
		},
		{
			"bufferView":32,
			"componentType":5126,
			"count":72,
			"max":[
				4.1875,
				-6,
				4.3125
			],
			"min":[
				2.3125,
				-12,
				-2.9375
			],
			"type":"VEC3"
		},
		{
			"bufferView":33,
			"componentType":5126,
			"count":72,
			"type":"VEC3"
		},
		{
			"bufferView":34,
			"componentType":5126,
			"count":72,
			"type":"VEC2"
		},
		{
			"bufferView":35,
			"componentType":5123,
			"count":120,
			"type":"SCALAR"
		},
		{
			"bufferView":36,
			"componentType":5126,
			"count":280,
			"max":[
				5.625,
				1.875,
				4.0625
			],
			"min":[
				0.875,
				-12,
				-2.5
			],
			"type":"VEC3"
		},
		{
			"bufferView":37,
			"componentType":5126,
			"count":280,
			"type":"VEC3"
		},
		{
			"bufferView":38,
			"componentType":5126,
			"count":280,
			"type":"VEC2"
		},
		{
			"bufferView":39,
			"componentType":5123,
			"count":480,
			"type":"SCALAR"
		},
		{
			"bufferView":40,
			"componentType":5126,
			"count":14,
			"max":[
				4,
				-3,
				4.0625
			],
			"min":[
				2.5,
				-4,
				3.625
			],
			"type":"VEC3"
		},
		{
			"bufferView":41,
			"componentType":5126,
			"count":14,
			"type":"VEC3"
		},
		{
			"bufferView":42,
			"componentType":5126,
			"count":14,
			"type":"VEC2"
		},
		{
			"bufferView":43,
			"componentType":5123,
			"count":30,
			"type":"SCALAR"
		},
		{
			"bufferView":44,
			"componentType":5126,
			"count":8,
			"max":[
				4,
				-3,
				3.625
			],
			"min":[
				2.5,
				-4,
				2.625
			],
			"type":"VEC3"
		},
		{
			"bufferView":45,
			"componentType":5126,
			"count":8,
			"type":"VEC3"
		},
		{
			"bufferView":46,
			"componentType":5126,
			"count":8,
			"type":"VEC2"
		},
		{
			"bufferView":47,
			"componentType":5123,
			"count":12,
			"type":"SCALAR"
		},
		{
			"bufferView":48,
			"componentType":5126,
			"count":14,
			"max":[
				4,
				-3,
				2.625
			],
			"min":[
				2.5,
				-4,
				2.1875
			],
			"type":"VEC3"
		},
		{
			"bufferView":49,
			"componentType":5126,
			"count":14,
			"type":"VEC3"
		},
		{
			"bufferView":50,
			"componentType":5126,
			"count":14,
			"type":"VEC2"
		},
		{
			"bufferView":51,
			"componentType":5123,
			"count":30,
			"type":"SCALAR"
		},
		{
			"bufferView":52,
			"componentType":5126,
			"count":60,
			"max":[
				4,
				-5.75,
				4.0625
			],
			"min":[
				2.5,
				-6,
				-2.6875
			],
			"type":"VEC3"
		},
		{
			"bufferView":53,
			"componentType":5126,
			"count":60,
			"type":"VEC3"
		},
		{
			"bufferView":54,
			"componentType":5126,
			"count":60,
			"type":"VEC2"
		},
		{
			"bufferView":55,
			"componentType":5123,
			"count":108,
			"type":"SCALAR"
		},
		{
			"bufferView":56,
			"componentType":5126,
			"count":36,
			"max":[
				4,
				-5.75,
				4.0625
			],
			"min":[
				2.5,
				-5.75,
				-2.6875
			],
			"type":"VEC3"
		},
		{
			"bufferView":57,
			"componentType":5126,
			"count":36,
			"type":"VEC3"
		},
		{
			"bufferView":58,
			"componentType":5126,
			"count":36,
			"type":"VEC2"
		},
		{
			"bufferView":59,
			"componentType":5123,
			"count":108,
			"type":"SCALAR"
		},
		{
			"bufferView":60,
			"componentType":5126,
			"count":78,
			"max":[
				4.125,
				-3.25,
				3.3125
			],
			"min":[
				2.375,
				-3.75,
				2.8125
			],
			"type":"VEC3"
		},
		{
			"bufferView":61,
			"componentType":5126,
			"count":78,
			"type":"VEC3"
		},
		{
			"bufferView":62,
			"componentType":5126,
			"count":78,
			"type":"VEC2"
		},
		{
			"bufferView":63,
			"componentType":5123,
			"count":150,
			"type":"SCALAR"
		}
	],
	"bufferViews":[
		{
			"buffer":0,
			"byteLength":5040,
			"byteOffset":0,
			"target":34962
		},
		{
			"buffer":0,
			"byteLength":5040,
			"byteOffset":5040,
			"target":34962
		},
		{
			"buffer":0,
			"byteLength":3360,
			"byteOffset":10080,
			"target":34962
		},
		{
			"buffer":0,
			"byteLength":1368,
			"byteOffset":13440,
			"target":34963
		},
		{
			"buffer":0,
			"byteLength":864,
			"byteOffset":14808,
			"target":34962
		},
		{
			"buffer":0,
			"byteLength":864,
			"byteOffset":15672,
			"target":34962
		},
		{
			"buffer":0,
			"byteLength":576,
			"byteOffset":16536,
			"target":34962
		},
		{
			"buffer":0,
			"byteLength":240,
			"byteOffset":17112,
			"target":34963
		},
		{
			"buffer":0,
			"byteLength":168,
			"byteOffset":17352,
			"target":34962
		},
		{
			"buffer":0,
			"byteLength":168,
			"byteOffset":17520,
			"target":34962
		},
		{
			"buffer":0,
			"byteLength":112,
			"byteOffset":17688,
			"target":34962
		},
		{
			"buffer":0,
			"byteLength":60,
			"byteOffset":17800,
			"target":34963
		},
		{
			"buffer":0,
			"byteLength":96,
			"byteOffset":17860,
			"target":34962
		},
		{
			"buffer":0,
			"byteLength":96,
			"byteOffset":17956,
			"target":34962
		},
		{
			"buffer":0,
			"byteLength":64,
			"byteOffset":18052,
			"target":34962
		},
		{
			"buffer":0,
			"byteLength":24,
			"byteOffset":18116,
			"target":34963
		},
		{
			"buffer":0,
			"byteLength":168,
			"byteOffset":18140,
			"target":34962
		},
		{
			"buffer":0,
			"byteLength":168,
			"byteOffset":18308,
			"target":34962
		},
		{
			"buffer":0,
			"byteLength":112,
			"byteOffset":18476,
			"target":34962
		},
		{
			"buffer":0,
			"byteLength":60,
			"byteOffset":18588,
			"target":34963
		},
		{
			"buffer":0,
			"byteLength":720,
			"byteOffset":18648,
			"target":34962
		},
		{
			"buffer":0,
			"byteLength":720,
			"byteOffset":19368,
			"target":34962
		},
		{
			"buffer":0,
			"byteLength":480,
			"byteOffset":20088,
			"target":34962
		},
		{
			"buffer":0,
			"byteLength":216,
			"byteOffset":20568,
			"target":34963
		},
		{
			"buffer":0,
			"byteLength":432,
			"byteOffset":20784,
			"target":34962
		},
		{
			"buffer":0,
			"byteLength":432,
			"byteOffset":21216,
			"target":34962
		},
		{
			"buffer":0,
			"byteLength":288,
			"byteOffset":21648,
			"target":34962
		},
		{
			"buffer":0,
			"byteLength":216,
			"byteOffset":21936,
			"target":34963
		},
		{
			"buffer":0,
			"byteLength":1152,
			"byteOffset":22152,
			"target":34962
		},
		{
			"buffer":0,
			"byteLength":1152,
			"byteOffset":23304,
			"target":34962
		},
		{
			"buffer":0,
			"byteLength":768,
			"byteOffset":24456,
			"target":34962
		},
		{
			"buffer":0,
			"byteLength":432,
			"byteOffset":25224,
			"target":34963
		},
		{
			"buffer":0,
			"byteLength":864,
			"byteOffset":25656,
			"target":34962
		},
		{
			"buffer":0,
			"byteLength":864,
			"byteOffset":26520,
			"target":34962
		},
		{
			"buffer":0,
			"byteLength":576,
			"byteOffset":27384,
			"target":34962
		},
		{
			"buffer":0,
			"byteLength":240,
			"byteOffset":27960,
			"target":34963
		},
		{
			"buffer":0,
			"byteLength":3360,
			"byteOffset":28200,
			"target":34962
		},
		{
			"buffer":0,
			"byteLength":3360,
			"byteOffset":31560,
			"target":34962
		},
		{
			"buffer":0,
			"byteLength":2240,
			"byteOffset":34920,
			"target":34962
		},
		{
			"buffer":0,
			"byteLength":960,
			"byteOffset":37160,
			"target":34963
		},
		{
			"buffer":0,
			"byteLength":168,
			"byteOffset":38120,
			"target":34962
		},
		{
			"buffer":0,
			"byteLength":168,
			"byteOffset":38288,
			"target":34962
		},
		{
			"buffer":0,
			"byteLength":112,
			"byteOffset":38456,
			"target":34962
		},
		{
			"buffer":0,
			"byteLength":60,
			"byteOffset":38568,
			"target":34963
		},
		{
			"buffer":0,
			"byteLength":96,
			"byteOffset":38628,
			"target":34962
		},
		{
			"buffer":0,
			"byteLength":96,
			"byteOffset":38724,
			"target":34962
		},
		{
			"buffer":0,
			"byteLength":64,
			"byteOffset":38820,
			"target":34962
		},
		{
			"buffer":0,
			"byteLength":24,
			"byteOffset":38884,
			"target":34963
		},
		{
			"buffer":0,
			"byteLength":168,
			"byteOffset":38908,
			"target":34962
		},
		{
			"buffer":0,
			"byteLength":168,
			"byteOffset":39076,
			"target":34962
		},
		{
			"buffer":0,
			"byteLength":112,
			"byteOffset":39244,
			"target":34962
		},
		{
			"buffer":0,
			"byteLength":60,
			"byteOffset":39356,
			"target":34963
		},
		{
			"buffer":0,
			"byteLength":720,
			"byteOffset":39416,
			"target":34962
		},
		{
			"buffer":0,
			"byteLength":720,
			"byteOffset":40136,
			"target":34962
		},
		{
			"buffer":0,
			"byteLength":480,
			"byteOffset":40856,
			"target":34962
		},
		{
			"buffer":0,
			"byteLength":216,
			"byteOffset":41336,
			"target":34963
		},
		{
			"buffer":0,
			"byteLength":432,
			"byteOffset":41552,
			"target":34962
		},
		{
			"buffer":0,
			"byteLength":432,
			"byteOffset":41984,
			"target":34962
		},
		{
			"buffer":0,
			"byteLength":288,
			"byteOffset":42416,
			"target":34962
		},
		{
			"buffer":0,
			"byteLength":216,
			"byteOffset":42704,
			"target":34963
		},
		{
			"buffer":0,
			"byteLength":936,
			"byteOffset":42920,
			"target":34962
		},
		{
			"buffer":0,
			"byteLength":936,
			"byteOffset":43856,
			"target":34962
		},
		{
			"buffer":0,
			"byteLength":624,
			"byteOffset":44792,
			"target":34962
		},
		{
			"buffer":0,
			"byteLength":300,
			"byteOffset":45416,
			"target":34963
		}
	],
	"buffers":[
		{
			"byteLength":45716,
			"uri":"nycto-ec4.bin"
		}
	]
}
