{
	"asset":{
		"generator":"Khronos glTF Blender I/O v4.5.48",
		"version":"2.0"
	},
	"scene":0,
	"scenes":[
		{
			"name":"Scene",
			"nodes":[
				0
			]
		}
	],
	"nodes":[
		{
			"mesh":0,
			"name":"Object"
		}
	],
	"materials":[
		{
			"doubleSided":true,
			"name":"DS_TECHWALL_3",
			"pbrMetallicRoughness":{
				"baseColorFactor":[
					0.800000011920929,
					0.800000011920929,
					0.800000011920929,
					1
				],
				"metallicFactor":0,
				"roughnessFactor":0.5
			}
		},
		{
			"doubleSided":true,
			"name":"NYCTO-PIPE",
			"pbrMetallicRoughness":{
				"baseColorFactor":[
					0.800000011920929,
					0.800000011920929,
					0.800000011920929,
					1
				],
				"metallicFactor":0,
				"roughnessFactor":0.5
			}
		},
		{
			"doubleSided":true,
			"name":"GREYLITETRIM2",
			"pbrMetallicRoughness":{
				"baseColorFactor":[
					0.800000011920929,
					0.800000011920929,
					0.800000011920929,
					1
				],
				"metallicFactor":0,
				"roughnessFactor":0.5
			}
		},
		{
			"doubleSided":true,
			"name":"DS_TECHWALL_1",
			"pbrMetallicRoughness":{
				"baseColorFactor":[
					0.800000011920929,
					0.800000011920929,
					0.800000011920929,
					1
				],
				"metallicFactor":0,
				"roughnessFactor":0.5
			}
		},
		{
			"doubleSided":true,
			"name":"DS_ILIG06",
			"pbrMetallicRoughness":{
				"baseColorFactor":[
					0.800000011920929,
					0.800000011920929,
					0.800000011920929,
					1
				],
				"metallicFactor":0,
				"roughnessFactor":0.5
			}
		},
		{
			"doubleSided":true,
			"name":"DS_EFLOOR1",
			"pbrMetallicRoughness":{
				"baseColorFactor":[
					0.800000011920929,
					0.800000011920929,
					0.800000011920929,
					1
				],
				"metallicFactor":0,
				"roughnessFactor":0.5
			}
		},
		{
			"doubleSided":true,
			"name":"GREYLITE2",
			"pbrMetallicRoughness":{
				"baseColorFactor":[
					0.800000011920929,
					0.800000011920929,
					0.800000011920929,
					1
				],
				"metallicFactor":0,
				"roughnessFactor":0.5
			}
		},
		{
			"doubleSided":true,
			"name":"DS_TECHBORDER1",
			"pbrMetallicRoughness":{
				"baseColorFactor":[
					0.800000011920929,
					0.800000011920929,
					0.800000011920929,
					1
				],
				"metallicFactor":0,
				"roughnessFactor":0.5
			}
		},
		{
			"doubleSided":true,
			"name":"TTRIM2",
			"pbrMetallicRoughness":{
				"baseColorFactor":[
					0.800000011920929,
					0.800000011920929,
					0.800000011920929,
					1
				],
				"metallicFactor":0,
				"roughnessFactor":0.5
			}
		},
		{
			"doubleSided":true,
			"name":"NYCTO-MWALL",
			"pbrMetallicRoughness":{
				"baseColorFactor":[
					0.800000011920929,
					0.800000011920929,
					0.800000011920929,
					1
				],
				"metallicFactor":0,
				"roughnessFactor":0.5
			}
		},
		{
			"doubleSided":true,
			"name":"NYCTO-MWALL4",
			"pbrMetallicRoughness":{
				"baseColorFactor":[
					0.800000011920929,
					0.800000011920929,
					0.800000011920929,
					1
				],
				"metallicFactor":0,
				"roughnessFactor":0.5
			}
		},
		{
			"doubleSided":true,
			"name":"NYCTO-MWALL3",
			"pbrMetallicRoughness":{
				"baseColorFactor":[
					0.800000011920929,
					0.800000011920929,
					0.800000011920929,
					1
				],
				"metallicFactor":0,
				"roughnessFactor":0.5
			}
		},
		{
			"doubleSided":true,
			"name":"NYCTO-MWALL2",
			"pbrMetallicRoughness":{
				"baseColorFactor":[
					0.800000011920929,
					0.800000011920929,
					0.800000011920929,
					1
				],
				"metallicFactor":0,
				"roughnessFactor":0.5
			}
		},
		{
			"doubleSided":true,
			"name":"DS_ICEI01",
			"pbrMetallicRoughness":{
				"baseColorFactor":[
					0.800000011920929,
					0.800000011920929,
					0.800000011920929,
					1
				],
				"metallicFactor":0,
				"roughnessFactor":0.5
			}
		},
		{
			"doubleSided":true,
			"name":"GTEXT2",
			"pbrMetallicRoughness":{
				"baseColorFactor":[
					0.800000011920929,
					0.800000011920929,
					0.800000011920929,
					1
				],
				"metallicFactor":0,
				"roughnessFactor":0.5
			}
		},
		{
			"doubleSided":true,
			"name":"GTEXT2A",
			"pbrMetallicRoughness":{
				"baseColorFactor":[
					0.800000011920929,
					0.800000011920929,
					0.800000011920929,
					1
				],
				"metallicFactor":0,
				"roughnessFactor":0.5
			}
		},
		{
			"doubleSided":true,
			"name":"NYCTO-PLATES",
			"pbrMetallicRoughness":{
				"baseColorFactor":[
					0.800000011920929,
					0.800000011920929,
					0.800000011920929,
					1
				],
				"metallicFactor":0,
				"roughnessFactor":0.5
			}
		},
		{
			"doubleSided":true,
			"name":"NYCTO-TRIM",
			"pbrMetallicRoughness":{
				"baseColorFactor":[
					0.800000011920929,
					0.800000011920929,
					0.800000011920929,
					1
				],
				"metallicFactor":0,
				"roughnessFactor":0.5
			}
		},
		{
			"doubleSided":true,
			"name":"NYCTO-PLASMA",
			"pbrMetallicRoughness":{
				"baseColorFactor":[
					0.800000011920929,
					0.800000011920929,
					0.800000011920929,
					1
				],
				"metallicFactor":0,
				"roughnessFactor":0.5
			}
		}
	],
	"meshes":[
		{
			"name":"Mesh",
			"primitives":[
				{
					"attributes":{
						"POSITION":0,
						"NORMAL":1,
						"TEXCOORD_0":2
					},
					"indices":3,
					"material":0
				},
				{
					"attributes":{
						"POSITION":4,
						"NORMAL":5,
						"TEXCOORD_0":6
					},
					"indices":7,
					"material":1
				},
				{
					"attributes":{
						"POSITION":8,
						"NORMAL":9,
						"TEXCOORD_0":10
					},
					"indices":11,
					"material":2
				},
				{
					"attributes":{
						"POSITION":12,
						"NORMAL":13,
						"TEXCOORD_0":14
					},
					"indices":15,
					"material":3
				},
				{
					"attributes":{
						"POSITION":16,
						"NORMAL":17,
						"TEXCOORD_0":18
					},
					"indices":19,
					"material":4
				},
				{
					"attributes":{
						"POSITION":20,
						"NORMAL":21,
						"TEXCOORD_0":22
					},
					"indices":23,
					"material":5
				},
				{
					"attributes":{
						"POSITION":24,
						"NORMAL":25,
						"TEXCOORD_0":26
					},
					"indices":27,
					"material":6
				},
				{
					"attributes":{
						"POSITION":28,
						"NORMAL":29,
						"TEXCOORD_0":30
					},
					"indices":31,
					"material":7
				},
				{
					"attributes":{
						"POSITION":32,
						"NORMAL":33,
						"TEXCOORD_0":34
					},
					"indices":35,
					"material":8
				},
				{
					"attributes":{
						"POSITION":36,
						"NORMAL":37,
						"TEXCOORD_0":38
					},
					"indices":39,
					"material":9
				},
				{
					"attributes":{
						"POSITION":40,
						"NORMAL":41,
						"TEXCOORD_0":42
					},
					"indices":43,
					"material":10
				},
				{
					"attributes":{
						"POSITION":44,
						"NORMAL":45,
						"TEXCOORD_0":46
					},
					"indices":47,
					"material":11
				},
				{
					"attributes":{
						"POSITION":48,
						"NORMAL":49,
						"TEXCOORD_0":50
					},
					"indices":51,
					"material":12
				},
				{
					"attributes":{
						"POSITION":52,
						"NORMAL":53,
						"TEXCOORD_0":54
					},
					"indices":55,
					"material":13
				},
				{
					"attributes":{
						"POSITION":56,
						"NORMAL":57,
						"TEXCOORD_0":58
					},
					"indices":59,
					"material":14
				},
				{
					"attributes":{
						"POSITION":60,
						"NORMAL":61,
						"TEXCOORD_0":62
					},
					"indices":63,
					"material":15
				},
				{
					"attributes":{
						"POSITION":64,
						"NORMAL":65,
						"TEXCOORD_0":66
					},
					"indices":67,
					"material":16
				},
				{
					"attributes":{
						"POSITION":68,
						"NORMAL":69,
						"TEXCOORD_0":70
					},
					"indices":71,
					"material":17
				},
				{
					"attributes":{
						"POSITION":72,
						"NORMAL":73,
						"TEXCOORD_0":74
					},
					"indices":75,
					"material":18
				}
			]
		}
	],
	"accessors":[
		{
			"bufferView":0,
			"componentType":5126,
			"count":172,
			"max":[
				4.75,
				13.25,
				4.75
			],
			"min":[
				-4.75,
				6,
				-4.75
			],
			"type":"VEC3"
		},
		{
			"bufferView":1,
			"componentType":5126,
			"count":172,
			"type":"VEC3"
		},
		{
			"bufferView":2,
			"componentType":5126,
			"count":172,
			"type":"VEC2"
		},
		{
			"bufferView":3,
			"componentType":5123,
			"count":336,
			"type":"SCALAR"
		},
		{
			"bufferView":4,
			"componentType":5126,
			"count":27,
			"max":[
				3.75,
				11,
				3.75
			],
			"min":[
				-3.75,
				6,
				-3.75
			],
			"type":"VEC3"
		},
		{
			"bufferView":5,
			"componentType":5126,
			"count":27,
			"type":"VEC3"
		},
		{
			"bufferView":6,
			"componentType":5126,
			"count":27,
			"type":"VEC2"
		},
		{
			"bufferView":7,
			"componentType":5123,
			"count":57,
			"type":"SCALAR"
		},
		{
			"bufferView":8,
			"componentType":5126,
			"count":72,
			"max":[
				4.25,
				11,
				4.25
			],
			"min":[
				-4.25,
				6,
				-4.25
			],
			"type":"VEC3"
		},
		{
			"bufferView":9,
			"componentType":5126,
			"count":72,
			"type":"VEC3"
		},
		{
			"bufferView":10,
			"componentType":5126,
			"count":72,
			"type":"VEC2"
		},
		{
			"bufferView":11,
			"componentType":5123,
			"count":120,
			"type":"SCALAR"
		},
		{
			"bufferView":12,
			"componentType":5126,
			"count":106,
			"max":[
				6.25,
				10,
				6.25
			],
			"min":[
				-6.25,
				8,
				-6.25
			],
			"type":"VEC3"
		},
		{
			"bufferView":13,
			"componentType":5126,
			"count":106,
			"type":"VEC3"
		},
		{
			"bufferView":14,
			"componentType":5126,
			"count":106,
			"type":"VEC2"
		},
		{
			"bufferView":15,
			"componentType":5123,
			"count":228,
			"type":"SCALAR"
		},
		{
			"bufferView":16,
			"componentType":5126,
			"count":16,
			"max":[
				3.75,
				11,
				3.75
			],
			"min":[
				-3.75,
				6,
				-3.75
			],
			"type":"VEC3"
		},
		{
			"bufferView":17,
			"componentType":5126,
			"count":16,
			"type":"VEC3"
		},
		{
			"bufferView":18,
			"componentType":5126,
			"count":16,
			"type":"VEC2"
		},
		{
			"bufferView":19,
			"componentType":5123,
			"count":24,
			"type":"SCALAR"
		},
		{
			"bufferView":20,
			"componentType":5126,
			"count":22,
			"max":[
				3.75,
				6,
				3.75
			],
			"min":[
				-3.75,
				6,
				-3.75
			],
			"type":"VEC3"
		},
		{
			"bufferView":21,
			"componentType":5126,
			"count":22,
			"type":"VEC3"
		},
		{
			"bufferView":22,
			"componentType":5126,
			"count":22,
			"type":"VEC2"
		},
		{
			"bufferView":23,
			"componentType":5123,
			"count":87,
			"type":"SCALAR"
		},
		{
			"bufferView":24,
			"componentType":5126,
			"count":96,
			"max":[
				4.75,
				11.25,
				4.75
			],
			"min":[
				-4.75,
				10,
				-4.75
			],
			"type":"VEC3"
		},
		{
			"bufferView":25,
			"componentType":5126,
			"count":96,
			"type":"VEC3"
		},
		{
			"bufferView":26,
			"componentType":5126,
			"count":96,
			"type":"VEC2"
		},
		{
			"bufferView":27,
			"componentType":5123,
			"count":144,
			"type":"SCALAR"
		},
		{
			"bufferView":28,
			"componentType":5126,
			"count":48,
			"max":[
				4.25,
				11.25,
				4.25
			],
			"min":[
				-4.25,
				11,
				-4.25
			],
			"type":"VEC3"
		},
		{
			"bufferView":29,
			"componentType":5126,
			"count":48,
			"type":"VEC3"
		},
		{
			"bufferView":30,
			"componentType":5126,
			"count":48,
			"type":"VEC2"
		},
		{
			"bufferView":31,
			"componentType":5123,
			"count":96,
			"type":"SCALAR"
		},
		{
			"bufferView":32,
			"componentType":5126,
			"count":32,
			"max":[
				1.5,
				10,
				1.5
			],
			"min":[
				-1.5,
				9.75,
				-1.5
			],
			"type":"VEC3"
		},
		{
			"bufferView":33,
			"componentType":5126,
			"count":32,
			"type":"VEC3"
		},
		{
			"bufferView":34,
			"componentType":5126,
			"count":32,
			"type":"VEC2"
		},
		{
			"bufferView":35,
			"componentType":5123,
			"count":48,
			"type":"SCALAR"
		},
		{
			"bufferView":36,
			"componentType":5126,
			"count":32,
			"max":[
				1.5,
				9.75,
				1.5
			],
			"min":[
				-1.5,
				6.25,
				-1.5
			],
			"type":"VEC3"
		},
		{
			"bufferView":37,
			"componentType":5126,
			"count":32,
			"type":"VEC3"
		},
		{
			"bufferView":38,
			"componentType":5126,
			"count":32,
			"type":"VEC2"
		},
		{
			"bufferView":39,
			"componentType":5123,
			"count":48,
			"type":"SCALAR"
		},
		{
			"bufferView":40,
			"componentType":5126,
			"count":8,
			"max":[
				0.875,
				8,
				0.875
			],
			"min":[
				-0.875,
				6.25,
				-0.875
			],
			"type":"VEC3"
		},
		{
			"bufferView":41,
			"componentType":5126,
			"count":8,
			"type":"VEC3"
		},
		{
			"bufferView":42,
			"componentType":5126,
			"count":8,
			"type":"VEC2"
		},
		{
			"bufferView":43,
			"componentType":5123,
			"count":12,
			"type":"SCALAR"
		},
		{
			"bufferView":44,
			"componentType":5126,
			"count":8,
			"max":[
				0.875,
				8,
				0.875
			],
			"min":[
				-0.875,
				6.25,
				-0.875
			],
			"type":"VEC3"
		},
		{
			"bufferView":45,
			"componentType":5126,
			"count":8,
			"type":"VEC3"
		},
		{
			"bufferView":46,
			"componentType":5126,
			"count":8,
			"type":"VEC2"
		},
		{
			"bufferView":47,
			"componentType":5123,
			"count":12,
			"type":"SCALAR"
		},
		{
			"bufferView":48,
			"componentType":5126,
			"count":16,
			"max":[
				1.5,
				9.75,
				1.5
			],
			"min":[
				-1.5,
				8,
				-1.5
			],
			"type":"VEC3"
		},
		{
			"bufferView":49,
			"componentType":5126,
			"count":16,
			"type":"VEC3"
		},
		{
			"bufferView":50,
			"componentType":5126,
			"count":16,
			"type":"VEC2"
		},
		{
			"bufferView":51,
			"componentType":5123,
			"count":24,
			"type":"SCALAR"
		},
		{
			"bufferView":52,
			"componentType":5126,
			"count":20,
			"max":[
				1.5,
				12,
				1.5
			],
			"min":[
				-1.5,
				12,
				-1.5
			],
			"type":"VEC3"
		},
		{
			"bufferView":53,
			"componentType":5126,
			"count":20,
			"type":"VEC3"
		},
		{
			"bufferView":54,
			"componentType":5126,
			"count":20,
			"type":"VEC2"
		},
		{
			"bufferView":55,
			"componentType":5123,
			"count":48,
			"type":"SCALAR"
		},
		{
			"bufferView":56,
			"componentType":5126,
			"count":56,
			"max":[
				1.5,
				12,
				1.5
			],
			"min":[
				-1.5,
				10,
				-1.5
			],
			"type":"VEC3"
		},
		{
			"bufferView":57,
			"componentType":5126,
			"count":56,
			"type":"VEC3"
		},
		{
			"bufferView":58,
			"componentType":5126,
			"count":56,
			"type":"VEC2"
		},
		{
			"bufferView":59,
			"componentType":5123,
			"count":168,
			"type":"SCALAR"
		},
		{
			"bufferView":60,
			"componentType":5126,
			"count":32,
			"max":[
				1.5,
				12,
				1.5
			],
			"min":[
				-1.5,
				10,
				-1.5
			],
			"type":"VEC3"
		},
		{
			"bufferView":61,
			"componentType":5126,
			"count":32,
			"type":"VEC3"
		},
		{
			"bufferView":62,
			"componentType":5126,
			"count":32,
			"type":"VEC2"
		},
		{
			"bufferView":63,
			"componentType":5123,
			"count":72,
			"type":"SCALAR"
		},
		{
			"bufferView":64,
			"componentType":5126,
			"count":12,
			"max":[
				1.5,
				13.25,
				1.5
			],
			"min":[
				-1.5,
				12,
				-1.5
			],
			"type":"VEC3"
		},
		{
			"bufferView":65,
			"componentType":5126,
			"count":12,
			"type":"VEC3"
		},
		{
			"bufferView":66,
			"componentType":5126,
			"count":12,
			"type":"VEC2"
		},
		{
			"bufferView":67,
			"componentType":5123,
			"count":12,
			"type":"SCALAR"
		},
		{
			"bufferView":68,
			"componentType":5126,
			"count":16,
			"max":[
				0.25,
				13.25,
				0.25
			],
			"min":[
				-0.25,
				12,
				-0.25
			],
			"type":"VEC3"
		},
		{
			"bufferView":69,
			"componentType":5126,
			"count":16,
			"type":"VEC3"
		},
		{
			"bufferView":70,
			"componentType":5126,
			"count":16,
			"type":"VEC2"
		},
		{
			"bufferView":71,
			"componentType":5123,
			"count":24,
			"type":"SCALAR"
		},
		{
			"bufferView":72,
			"componentType":5126,
			"count":12,
			"max":[
				0.25,
				13.75,
				0.25
			],
			"min":[
				-0.25,
				13.25,
				-0.25
			],
			"type":"VEC3"
		},
		{
			"bufferView":73,
			"componentType":5126,
			"count":12,
			"type":"VEC3"
		},
		{
			"bufferView":74,
			"componentType":5126,
			"count":12,
			"type":"VEC2"
		},
		{
			"bufferView":75,
			"componentType":5123,
			"count":12,
			"type":"SCALAR"
		}
	],
	"bufferViews":[
		{
			"buffer":0,
			"byteLength":2064,
			"byteOffset":0,
			"target":34962
		},
		{
			"buffer":0,
			"byteLength":2064,
			"byteOffset":2064,
			"target":34962
		},
		{
			"buffer":0,
			"byteLength":1376,
			"byteOffset":4128,
			"target":34962
		},
		{
			"buffer":0,
			"byteLength":672,
			"byteOffset":5504,
			"target":34963
		},
		{
			"buffer":0,
			"byteLength":324,
			"byteOffset":6176,
			"target":34962
		},
		{
			"buffer":0,
			"byteLength":324,
			"byteOffset":6500,
			"target":34962
		},
		{
			"buffer":0,
			"byteLength":216,
			"byteOffset":6824,
			"target":34962
		},
		{
			"buffer":0,
			"byteLength":114,
			"byteOffset":7040,
			"target":34963
		},
		{
			"buffer":0,
			"byteLength":864,
			"byteOffset":7156,
			"target":34962
		},
		{
			"buffer":0,
			"byteLength":864,
			"byteOffset":8020,
			"target":34962
		},
		{
			"buffer":0,
			"byteLength":576,
			"byteOffset":8884,
			"target":34962
		},
		{
			"buffer":0,
			"byteLength":240,
			"byteOffset":9460,
			"target":34963
		},
		{
			"buffer":0,
			"byteLength":1272,
			"byteOffset":9700,
			"target":34962
		},
		{
			"buffer":0,
			"byteLength":1272,
			"byteOffset":10972,
			"target":34962
		},
		{
			"buffer":0,
			"byteLength":848,
			"byteOffset":12244,
			"target":34962
		},
		{
			"buffer":0,
			"byteLength":456,
			"byteOffset":13092,
			"target":34963
		},
		{
			"buffer":0,
			"byteLength":192,
			"byteOffset":13548,
			"target":34962
		},
		{
			"buffer":0,
			"byteLength":192,
			"byteOffset":13740,
			"target":34962
		},
		{
			"buffer":0,
			"byteLength":128,
			"byteOffset":13932,
			"target":34962
		},
		{
			"buffer":0,
			"byteLength":48,
			"byteOffset":14060,
			"target":34963
		},
		{
			"buffer":0,
			"byteLength":264,
			"byteOffset":14108,
			"target":34962
		},
		{
			"buffer":0,
			"byteLength":264,
			"byteOffset":14372,
			"target":34962
		},
		{
			"buffer":0,
			"byteLength":176,
			"byteOffset":14636,
			"target":34962
		},
		{
			"buffer":0,
			"byteLength":174,
			"byteOffset":14812,
			"target":34963
		},
		{
			"buffer":0,
			"byteLength":1152,
			"byteOffset":14988,
			"target":34962
		},
		{
			"buffer":0,
			"byteLength":1152,
			"byteOffset":16140,
			"target":34962
		},
		{
			"buffer":0,
			"byteLength":768,
			"byteOffset":17292,
			"target":34962
		},
		{
			"buffer":0,
			"byteLength":288,
			"byteOffset":18060,
			"target":34963
		},
		{
			"buffer":0,
			"byteLength":576,
			"byteOffset":18348,
			"target":34962
		},
		{
			"buffer":0,
			"byteLength":576,
			"byteOffset":18924,
			"target":34962
		},
		{
			"buffer":0,
			"byteLength":384,
			"byteOffset":19500,
			"target":34962
		},
		{
			"buffer":0,
			"byteLength":192,
			"byteOffset":19884,
			"target":34963
		},
		{
			"buffer":0,
			"byteLength":384,
			"byteOffset":20076,
			"target":34962
		},
		{
			"buffer":0,
			"byteLength":384,
			"byteOffset":20460,
			"target":34962
		},
		{
			"buffer":0,
			"byteLength":256,
			"byteOffset":20844,
			"target":34962
		},
		{
			"buffer":0,
			"byteLength":96,
			"byteOffset":21100,
			"target":34963
		},
		{
			"buffer":0,
			"byteLength":384,
			"byteOffset":21196,
			"target":34962
		},
		{
			"buffer":0,
			"byteLength":384,
			"byteOffset":21580,
			"target":34962
		},
		{
			"buffer":0,
			"byteLength":256,
			"byteOffset":21964,
			"target":34962
		},
		{
			"buffer":0,
			"byteLength":96,
			"byteOffset":22220,
			"target":34963
		},
		{
			"buffer":0,
			"byteLength":96,
			"byteOffset":22316,
			"target":34962
		},
		{
			"buffer":0,
			"byteLength":96,
			"byteOffset":22412,
			"target":34962
		},
		{
			"buffer":0,
			"byteLength":64,
			"byteOffset":22508,
			"target":34962
		},
		{
			"buffer":0,
			"byteLength":24,
			"byteOffset":22572,
			"target":34963
		},
		{
			"buffer":0,
			"byteLength":96,
			"byteOffset":22596,
			"target":34962
		},
		{
			"buffer":0,
			"byteLength":96,
			"byteOffset":22692,
			"target":34962
		},
		{
			"buffer":0,
			"byteLength":64,
			"byteOffset":22788,
			"target":34962
		},
		{
			"buffer":0,
			"byteLength":24,
			"byteOffset":22852,
			"target":34963
		},
		{
			"buffer":0,
			"byteLength":192,
			"byteOffset":22876,
			"target":34962
		},
		{
			"buffer":0,
			"byteLength":192,
			"byteOffset":23068,
			"target":34962
		},
		{
			"buffer":0,
			"byteLength":128,
			"byteOffset":23260,
			"target":34962
		},
		{
			"buffer":0,
			"byteLength":48,
			"byteOffset":23388,
			"target":34963
		},
		{
			"buffer":0,
			"byteLength":240,
			"byteOffset":23436,
			"target":34962
		},
		{
			"buffer":0,
			"byteLength":240,
			"byteOffset":23676,
			"target":34962
		},
		{
			"buffer":0,
			"byteLength":160,
			"byteOffset":23916,
			"target":34962
		},
		{
			"buffer":0,
			"byteLength":96,
			"byteOffset":24076,
			"target":34963
		},
		{
			"buffer":0,
			"byteLength":672,
			"byteOffset":24172,
			"target":34962
		},
		{
			"buffer":0,
			"byteLength":672,
			"byteOffset":24844,
			"target":34962
		},
		{
			"buffer":0,
			"byteLength":448,
			"byteOffset":25516,
			"target":34962
		},
		{
			"buffer":0,
			"byteLength":336,
			"byteOffset":25964,
			"target":34963
		},
		{
			"buffer":0,
			"byteLength":384,
			"byteOffset":26300,
			"target":34962
		},
		{
			"buffer":0,
			"byteLength":384,
			"byteOffset":26684,
			"target":34962
		},
		{
			"buffer":0,
			"byteLength":256,
			"byteOffset":27068,
			"target":34962
		},
		{
			"buffer":0,
			"byteLength":144,
			"byteOffset":27324,
			"target":34963
		},
		{
			"buffer":0,
			"byteLength":144,
			"byteOffset":27468,
			"target":34962
		},
		{
			"buffer":0,
			"byteLength":144,
			"byteOffset":27612,
			"target":34962
		},
		{
			"buffer":0,
			"byteLength":96,
			"byteOffset":27756,
			"target":34962
		},
		{
			"buffer":0,
			"byteLength":24,
			"byteOffset":27852,
			"target":34963
		},
		{
			"buffer":0,
			"byteLength":192,
			"byteOffset":27876,
			"target":34962
		},
		{
			"buffer":0,
			"byteLength":192,
			"byteOffset":28068,
			"target":34962
		},
		{
			"buffer":0,
			"byteLength":128,
			"byteOffset":28260,
			"target":34962
		},
		{
			"buffer":0,
			"byteLength":48,
			"byteOffset":28388,
			"target":34963
		},
		{
			"buffer":0,
			"byteLength":144,
			"byteOffset":28436,
			"target":34962
		},
		{
			"buffer":0,
			"byteLength":144,
			"byteOffset":28580,
			"target":34962
		},
		{
			"buffer":0,
			"byteLength":96,
			"byteOffset":28724,
			"target":34962
		},
		{
			"buffer":0,
			"byteLength":24,
			"byteOffset":28820,
			"target":34963
		}
	],
	"buffers":[
		{
			"byteLength":28844,
			"uri":"nycto-ec2.bin"
		}
	]
}
