{
	"asset":{
		"generator":"Khronos glTF Blender I/O v4.5.48",
		"version":"2.0"
	},
	"scene":0,
	"scenes":[
		{
			"name":"Scene",
			"nodes":[
				0
			]
		}
	],
	"nodes":[
		{
			"mesh":0,
			"name":"Object"
		}
	],
	"materials":[
		{
			"doubleSided":true,
			"name":"BE_ICEI03B",
			"pbrMetallicRoughness":{
				"baseColorFactor":[
					0.800000011920929,
					0.800000011920929,
					0.800000011920929,
					1
				],
				"metallicFactor":0,
				"roughnessFactor":0.5
			}
		},
		{
			"doubleSided":true,
			"name":"BE_IGENERICDARK",
			"pbrMetallicRoughness":{
				"baseColorFactor":[
					0.800000011920929,
					0.800000011920929,
					0.800000011920929,
					1
				],
				"metallicFactor":0,
				"roughnessFactor":0.5
			}
		},
		{
			"doubleSided":true,
			"name":"BE_ELIG03",
			"pbrMetallicRoughness":{
				"baseColorFactor":[
					0.800000011920929,
					0.800000011920929,
					0.800000011920929,
					1
				],
				"metallicFactor":0,
				"roughnessFactor":0.5
			}
		},
		{
			"doubleSided":true,
			"name":"BE_EWAL06",
			"pbrMetallicRoughness":{
				"baseColorFactor":[
					0.800000011920929,
					0.800000011920929,
					0.800000011920929,
					1
				],
				"metallicFactor":0,
				"roughnessFactor":0.5
			}
		},
		{
			"doubleSided":true,
			"name":"BE_ITELIG02",
			"pbrMetallicRoughness":{
				"baseColorFactor":[
					0.800000011920929,
					0.800000011920929,
					0.800000011920929,
					1
				],
				"metallicFactor":0,
				"roughnessFactor":0.5
			}
		},
		{
			"doubleSided":true,
			"name":"BE_EWAL02B",
			"pbrMetallicRoughness":{
				"baseColorFactor":[
					0.800000011920929,
					0.800000011920929,
					0.800000011920929,
					1
				],
				"metallicFactor":0,
				"roughnessFactor":0.5
			}
		},
		{
			"doubleSided":true,
			"name":"BE_EWAL01B",
			"pbrMetallicRoughness":{
				"baseColorFactor":[
					0.800000011920929,
					0.800000011920929,
					0.800000011920929,
					1
				],
				"metallicFactor":0,
				"roughnessFactor":0.5
			}
		},
		{
			"doubleSided":true,
			"name":"BE_THRESH01A",
			"pbrMetallicRoughness":{
				"baseColorFactor":[
					0.800000011920929,
					0.800000011920929,
					0.800000011920929,
					1
				],
				"metallicFactor":0,
				"roughnessFactor":0.5
			}
		},
		{
			"doubleSided":true,
			"name":"BE_ITEWAL01",
			"pbrMetallicRoughness":{
				"baseColorFactor":[
					0.800000011920929,
					0.800000011920929,
					0.800000011920929,
					1
				],
				"metallicFactor":0,
				"roughnessFactor":0.5
			}
		},
		{
			"doubleSided":true,
			"name":"BE_IHALIG",
			"pbrMetallicRoughness":{
				"baseColorFactor":[
					0.800000011920929,
					0.800000011920929,
					0.800000011920929,
					1
				],
				"metallicFactor":0,
				"roughnessFactor":0.5
			}
		},
		{
			"doubleSided":true,
			"name":"BE_IPRFLO01",
			"pbrMetallicRoughness":{
				"baseColorFactor":[
					0.800000011920929,
					0.800000011920929,
					0.800000011920929,
					1
				],
				"metallicFactor":0,
				"roughnessFactor":0.5
			}
		},
		{
			"doubleSided":true,
			"name":"BE_ESPEC01",
			"pbrMetallicRoughness":{
				"baseColorFactor":[
					0.800000011920929,
					0.800000011920929,
					0.800000011920929,
					1
				],
				"metallicFactor":0,
				"roughnessFactor":0.5
			}
		}
	],
	"meshes":[
		{
			"name":"Mesh",
			"primitives":[
				{
					"attributes":{
						"POSITION":0,
						"NORMAL":1,
						"TEXCOORD_0":2
					},
					"indices":3,
					"material":0
				},
				{
					"attributes":{
						"POSITION":4,
						"NORMAL":5,
						"TEXCOORD_0":6
					},
					"indices":7,
					"material":1
				},
				{
					"attributes":{
						"POSITION":8,
						"NORMAL":9,
						"TEXCOORD_0":10
					},
					"indices":11,
					"material":2
				},
				{
					"attributes":{
						"POSITION":12,
						"NORMAL":13,
						"TEXCOORD_0":14
					},
					"indices":15,
					"material":3
				},
				{
					"attributes":{
						"POSITION":16,
						"NORMAL":17,
						"TEXCOORD_0":18
					},
					"indices":19,
					"material":4
				},
				{
					"attributes":{
						"POSITION":20,
						"NORMAL":21,
						"TEXCOORD_0":22
					},
					"indices":23,
					"material":5
				},
				{
					"attributes":{
						"POSITION":24,
						"NORMAL":25,
						"TEXCOORD_0":26
					},
					"indices":27,
					"material":6
				},
				{
					"attributes":{
						"POSITION":28,
						"NORMAL":29,
						"TEXCOORD_0":30
					},
					"indices":31,
					"material":7
				},
				{
					"attributes":{
						"POSITION":32,
						"NORMAL":33,
						"TEXCOORD_0":34
					},
					"indices":35,
					"material":8
				},
				{
					"attributes":{
						"POSITION":36,
						"NORMAL":37,
						"TEXCOORD_0":38
					},
					"indices":39,
					"material":9
				},
				{
					"attributes":{
						"POSITION":40,
						"NORMAL":41,
						"TEXCOORD_0":42
					},
					"indices":43,
					"material":10
				},
				{
					"attributes":{
						"POSITION":44,
						"NORMAL":45,
						"TEXCOORD_0":46
					},
					"indices":47,
					"material":11
				}
			]
		}
	],
	"accessors":[
		{
			"bufferView":0,
			"componentType":5126,
			"count":501,
			"max":[
				2.5,
				18,
				5.5
			],
			"min":[
				-21.5,
				6,
				-22.5
			],
			"type":"VEC3"
		},
		{
			"bufferView":1,
			"componentType":5126,
			"count":501,
			"type":"VEC3"
		},
		{
			"bufferView":2,
			"componentType":5126,
			"count":501,
			"type":"VEC2"
		},
		{
			"bufferView":3,
			"componentType":5123,
			"count":966,
			"type":"SCALAR"
		},
		{
			"bufferView":4,
			"componentType":5126,
			"count":14,
			"max":[
				-6.5,
				8.5,
				3.5
			],
			"min":[
				-12.5,
				8,
				-22.5
			],
			"type":"VEC3"
		},
		{
			"bufferView":5,
			"componentType":5126,
			"count":14,
			"type":"VEC3"
		},
		{
			"bufferView":6,
			"componentType":5126,
			"count":14,
			"type":"VEC2"
		},
		{
			"bufferView":7,
			"componentType":5123,
			"count":24,
			"type":"SCALAR"
		},
		{
			"bufferView":8,
			"componentType":5126,
			"count":16,
			"max":[
				-1.5,
				9,
				5.5
			],
			"min":[
				-17.5,
				8.5,
				-22.5
			],
			"type":"VEC3"
		},
		{
			"bufferView":9,
			"componentType":5126,
			"count":16,
			"type":"VEC3"
		},
		{
			"bufferView":10,
			"componentType":5126,
			"count":16,
			"type":"VEC2"
		},
		{
			"bufferView":11,
			"componentType":5123,
			"count":24,
			"type":"SCALAR"
		},
		{
			"bufferView":12,
			"componentType":5126,
			"count":24,
			"max":[
				-3.5,
				18,
				5.5
			],
			"min":[
				-15.5,
				9,
				-22.5
			],
			"type":"VEC3"
		},
		{
			"bufferView":13,
			"componentType":5126,
			"count":24,
			"type":"VEC3"
		},
		{
			"bufferView":14,
			"componentType":5126,
			"count":24,
			"type":"VEC2"
		},
		{
			"bufferView":15,
			"componentType":5123,
			"count":54,
			"type":"SCALAR"
		},
		{
			"bufferView":16,
			"componentType":5126,
			"count":32,
			"max":[
				-7.5,
				16,
				3.5
			],
			"min":[
				-11.5,
				6,
				-20.5
			],
			"type":"VEC3"
		},
		{
			"bufferView":17,
			"componentType":5126,
			"count":32,
			"type":"VEC3"
		},
		{
			"bufferView":18,
			"componentType":5126,
			"count":32,
			"type":"VEC2"
		},
		{
			"bufferView":19,
			"componentType":5123,
			"count":48,
			"type":"SCALAR"
		},
		{
			"bufferView":20,
			"componentType":5126,
			"count":176,
			"max":[
				1.5,
				16,
				4.5
			],
			"min":[
				-20.5,
				6,
				-21.5
			],
			"type":"VEC3"
		},
		{
			"bufferView":21,
			"componentType":5126,
			"count":176,
			"type":"VEC3"
		},
		{
			"bufferView":22,
			"componentType":5126,
			"count":176,
			"type":"VEC2"
		},
		{
			"bufferView":23,
			"componentType":5123,
			"count":288,
			"type":"SCALAR"
		},
		{
			"bufferView":24,
			"componentType":5126,
			"count":148,
			"max":[
				1.5,
				14,
				4.5
			],
			"min":[
				-20.5,
				-18,
				-21.5
			],
			"type":"VEC3"
		},
		{
			"bufferView":25,
			"componentType":5126,
			"count":148,
			"type":"VEC3"
		},
		{
			"bufferView":26,
			"componentType":5126,
			"count":148,
			"type":"VEC2"
		},
		{
			"bufferView":27,
			"componentType":5123,
			"count":252,
			"type":"SCALAR"
		},
		{
			"bufferView":28,
			"componentType":5126,
			"count":32,
			"max":[
				-7.5,
				6,
				4.5
			],
			"min":[
				-11.5,
				-18,
				-21.5
			],
			"type":"VEC3"
		},
		{
			"bufferView":29,
			"componentType":5126,
			"count":32,
			"type":"VEC3"
		},
		{
			"bufferView":30,
			"componentType":5126,
			"count":32,
			"type":"VEC2"
		},
		{
			"bufferView":31,
			"componentType":5123,
			"count":48,
			"type":"SCALAR"
		},
		{
			"bufferView":32,
			"componentType":5126,
			"count":16,
			"max":[
				-7.5,
				6,
				2.5
			],
			"min":[
				-11.5,
				-18,
				-19.5
			],
			"type":"VEC3"
		},
		{
			"bufferView":33,
			"componentType":5126,
			"count":16,
			"type":"VEC3"
		},
		{
			"bufferView":34,
			"componentType":5126,
			"count":16,
			"type":"VEC2"
		},
		{
			"bufferView":35,
			"componentType":5123,
			"count":24,
			"type":"SCALAR"
		},
		{
			"bufferView":36,
			"componentType":5126,
			"count":16,
			"max":[
				2.5,
				18,
				3
			],
			"min":[
				-21.5,
				16,
				-20
			],
			"type":"VEC3"
		},
		{
			"bufferView":37,
			"componentType":5126,
			"count":16,
			"type":"VEC3"
		},
		{
			"bufferView":38,
			"componentType":5126,
			"count":16,
			"type":"VEC2"
		},
		{
			"bufferView":39,
			"componentType":5123,
			"count":24,
			"type":"SCALAR"
		},
		{
			"bufferView":40,
			"componentType":5126,
			"count":16,
			"max":[
				0.75,
				14,
				1.5
			],
			"min":[
				-19.75,
				8,
				-18.5
			],
			"type":"VEC3"
		},
		{
			"bufferView":41,
			"componentType":5126,
			"count":16,
			"type":"VEC3"
		},
		{
			"bufferView":42,
			"componentType":5126,
			"count":16,
			"type":"VEC2"
		},
		{
			"bufferView":43,
			"componentType":5123,
			"count":24,
			"type":"SCALAR"
		},
		{
			"bufferView":44,
			"componentType":5126,
			"count":16,
			"max":[
				1.5,
				6,
				2.5
			],
			"min":[
				-20.5,
				-18,
				-19.5
			],
			"type":"VEC3"
		},
		{
			"bufferView":45,
			"componentType":5126,
			"count":16,
			"type":"VEC3"
		},
		{
			"bufferView":46,
			"componentType":5126,
			"count":16,
			"type":"VEC2"
		},
		{
			"bufferView":47,
			"componentType":5123,
			"count":24,
			"type":"SCALAR"
		}
	],
	"bufferViews":[
		{
			"buffer":0,
			"byteLength":6012,
			"byteOffset":0,
			"target":34962
		},
		{
			"buffer":0,
			"byteLength":6012,
			"byteOffset":6012,
			"target":34962
		},
		{
			"buffer":0,
			"byteLength":4008,
			"byteOffset":12024,
			"target":34962
		},
		{
			"buffer":0,
			"byteLength":1932,
			"byteOffset":16032,
			"target":34963
		},
		{
			"buffer":0,
			"byteLength":168,
			"byteOffset":17964,
			"target":34962
		},
		{
			"buffer":0,
			"byteLength":168,
			"byteOffset":18132,
			"target":34962
		},
		{
			"buffer":0,
			"byteLength":112,
			"byteOffset":18300,
			"target":34962
		},
		{
			"buffer":0,
			"byteLength":48,
			"byteOffset":18412,
			"target":34963
		},
		{
			"buffer":0,
			"byteLength":192,
			"byteOffset":18460,
			"target":34962
		},
		{
			"buffer":0,
			"byteLength":192,
			"byteOffset":18652,
			"target":34962
		},
		{
			"buffer":0,
			"byteLength":128,
			"byteOffset":18844,
			"target":34962
		},
		{
			"buffer":0,
			"byteLength":48,
			"byteOffset":18972,
			"target":34963
		},
		{
			"buffer":0,
			"byteLength":288,
			"byteOffset":19020,
			"target":34962
		},
		{
			"buffer":0,
			"byteLength":288,
			"byteOffset":19308,
			"target":34962
		},
		{
			"buffer":0,
			"byteLength":192,
			"byteOffset":19596,
			"target":34962
		},
		{
			"buffer":0,
			"byteLength":108,
			"byteOffset":19788,
			"target":34963
		},
		{
			"buffer":0,
			"byteLength":384,
			"byteOffset":19896,
			"target":34962
		},
		{
			"buffer":0,
			"byteLength":384,
			"byteOffset":20280,
			"target":34962
		},
		{
			"buffer":0,
			"byteLength":256,
			"byteOffset":20664,
			"target":34962
		},
		{
			"buffer":0,
			"byteLength":96,
			"byteOffset":20920,
			"target":34963
		},
		{
			"buffer":0,
			"byteLength":2112,
			"byteOffset":21016,
			"target":34962
		},
		{
			"buffer":0,
			"byteLength":2112,
			"byteOffset":23128,
			"target":34962
		},
		{
			"buffer":0,
			"byteLength":1408,
			"byteOffset":25240,
			"target":34962
		},
		{
			"buffer":0,
			"byteLength":576,
			"byteOffset":26648,
			"target":34963
		},
		{
			"buffer":0,
			"byteLength":1776,
			"byteOffset":27224,
			"target":34962
		},
		{
			"buffer":0,
			"byteLength":1776,
			"byteOffset":29000,
			"target":34962
		},
		{
			"buffer":0,
			"byteLength":1184,
			"byteOffset":30776,
			"target":34962
		},
		{
			"buffer":0,
			"byteLength":504,
			"byteOffset":31960,
			"target":34963
		},
		{
			"buffer":0,
			"byteLength":384,
			"byteOffset":32464,
			"target":34962
		},
		{
			"buffer":0,
			"byteLength":384,
			"byteOffset":32848,
			"target":34962
		},
		{
			"buffer":0,
			"byteLength":256,
			"byteOffset":33232,
			"target":34962
		},
		{
			"buffer":0,
			"byteLength":96,
			"byteOffset":33488,
			"target":34963
		},
		{
			"buffer":0,
			"byteLength":192,
			"byteOffset":33584,
			"target":34962
		},
		{
			"buffer":0,
			"byteLength":192,
			"byteOffset":33776,
			"target":34962
		},
		{
			"buffer":0,
			"byteLength":128,
			"byteOffset":33968,
			"target":34962
		},
		{
			"buffer":0,
			"byteLength":48,
			"byteOffset":34096,
			"target":34963
		},
		{
			"buffer":0,
			"byteLength":192,
			"byteOffset":34144,
			"target":34962
		},
		{
			"buffer":0,
			"byteLength":192,
			"byteOffset":34336,
			"target":34962
		},
		{
			"buffer":0,
			"byteLength":128,
			"byteOffset":34528,
			"target":34962
		},
		{
			"buffer":0,
			"byteLength":48,
			"byteOffset":34656,
			"target":34963
		},
		{
			"buffer":0,
			"byteLength":192,
			"byteOffset":34704,
			"target":34962
		},
		{
			"buffer":0,
			"byteLength":192,
			"byteOffset":34896,
			"target":34962
		},
		{
			"buffer":0,
			"byteLength":128,
			"byteOffset":35088,
			"target":34962
		},
		{
			"buffer":0,
			"byteLength":48,
			"byteOffset":35216,
			"target":34963
		},
		{
			"buffer":0,
			"byteLength":192,
			"byteOffset":35264,
			"target":34962
		},
		{
			"buffer":0,
			"byteLength":192,
			"byteOffset":35456,
			"target":34962
		},
		{
			"buffer":0,
			"byteLength":128,
			"byteOffset":35648,
			"target":34962
		},
		{
			"buffer":0,
			"byteLength":48,
			"byteOffset":35776,
			"target":34963
		}
	],
	"buffers":[
		{
			"byteLength":35824,
			"uri":"rilke_whitedwarf_bridge2_x2.bin"
		}
	]
}
