{
	"asset":{
		"generator":"Khronos glTF Blender I/O v4.5.48",
		"version":"2.0"
	},
	"scene":0,
	"scenes":[
		{
			"name":"Scene",
			"nodes":[
				0
			]
		}
	],
	"nodes":[
		{
			"mesh":0,
			"name":"Object"
		}
	],
	"materials":[
		{
			"doubleSided":true,
			"name":"E8CRETE03CC",
			"pbrMetallicRoughness":{
				"baseColorFactor":[
					0.800000011920929,
					0.800000011920929,
					0.800000011920929,
					1
				],
				"metallicFactor":0,
				"roughnessFactor":0.5
			}
		},
		{
			"doubleSided":true,
			"name":"E8_BASE1",
			"pbrMetallicRoughness":{
				"baseColorFactor":[
					0.800000011920929,
					0.800000011920929,
					0.800000011920929,
					1
				],
				"metallicFactor":0,
				"roughnessFactor":0.5
			}
		},
		{
			"doubleSided":true,
			"name":"E8_BTRIM01",
			"pbrMetallicRoughness":{
				"baseColorFactor":[
					0.800000011920929,
					0.800000011920929,
					0.800000011920929,
					1
				],
				"metallicFactor":0,
				"roughnessFactor":0.5
			}
		},
		{
			"doubleSided":true,
			"name":"E8BGRATE01",
			"pbrMetallicRoughness":{
				"baseColorFactor":[
					0.800000011920929,
					0.800000011920929,
					0.800000011920929,
					1
				],
				"metallicFactor":0,
				"roughnessFactor":0.5
			}
		},
		{
			"doubleSided":true,
			"name":"E8WARNING2",
			"pbrMetallicRoughness":{
				"baseColorFactor":[
					0.800000011920929,
					0.800000011920929,
					0.800000011920929,
					1
				],
				"metallicFactor":0,
				"roughnessFactor":0.5
			}
		},
		{
			"doubleSided":true,
			"name":"E8_BASE1B",
			"pbrMetallicRoughness":{
				"baseColorFactor":[
					0.800000011920929,
					0.800000011920929,
					0.800000011920929,
					1
				],
				"metallicFactor":0,
				"roughnessFactor":0.5
			}
		},
		{
			"doubleSided":true,
			"name":"E8_BTRIM05",
			"pbrMetallicRoughness":{
				"baseColorFactor":[
					0.800000011920929,
					0.800000011920929,
					0.800000011920929,
					1
				],
				"metallicFactor":0,
				"roughnessFactor":0.5
			}
		},
		{
			"doubleSided":true,
			"name":"E8MTLTRIM1B",
			"pbrMetallicRoughness":{
				"baseColorFactor":[
					0.800000011920929,
					0.800000011920929,
					0.800000011920929,
					1
				],
				"metallicFactor":0,
				"roughnessFactor":0.5
			}
		},
		{
			"doubleSided":true,
			"name":"E8TINYLIGHT_000",
			"pbrMetallicRoughness":{
				"baseColorFactor":[
					0.800000011920929,
					0.800000011920929,
					0.800000011920929,
					1
				],
				"metallicFactor":0,
				"roughnessFactor":0.5
			}
		},
		{
			"doubleSided":true,
			"name":"E8TMTLLIGHT2",
			"pbrMetallicRoughness":{
				"baseColorFactor":[
					0.800000011920929,
					0.800000011920929,
					0.800000011920929,
					1
				],
				"metallicFactor":0,
				"roughnessFactor":0.5
			}
		}
	],
	"meshes":[
		{
			"name":"Mesh",
			"primitives":[
				{
					"attributes":{
						"POSITION":0,
						"NORMAL":1,
						"TEXCOORD_0":2
					},
					"indices":3,
					"material":0
				},
				{
					"attributes":{
						"POSITION":4,
						"NORMAL":5,
						"TEXCOORD_0":6
					},
					"indices":7,
					"material":1
				},
				{
					"attributes":{
						"POSITION":8,
						"NORMAL":9,
						"TEXCOORD_0":10
					},
					"indices":11,
					"material":2
				},
				{
					"attributes":{
						"POSITION":12,
						"NORMAL":13,
						"TEXCOORD_0":14
					},
					"indices":15,
					"material":3
				},
				{
					"attributes":{
						"POSITION":16,
						"NORMAL":17,
						"TEXCOORD_0":18
					},
					"indices":19,
					"material":4
				},
				{
					"attributes":{
						"POSITION":20,
						"NORMAL":21,
						"TEXCOORD_0":22
					},
					"indices":23,
					"material":5
				},
				{
					"attributes":{
						"POSITION":24,
						"NORMAL":25,
						"TEXCOORD_0":26
					},
					"indices":27,
					"material":6
				},
				{
					"attributes":{
						"POSITION":28,
						"NORMAL":29,
						"TEXCOORD_0":30
					},
					"indices":31,
					"material":7
				},
				{
					"attributes":{
						"POSITION":32,
						"NORMAL":33,
						"TEXCOORD_0":34
					},
					"indices":35,
					"material":8
				},
				{
					"attributes":{
						"POSITION":36,
						"NORMAL":37,
						"TEXCOORD_0":38
					},
					"indices":39,
					"material":9
				}
			]
		}
	],
	"accessors":[
		{
			"bufferView":0,
			"componentType":5126,
			"count":80,
			"max":[
				6,
				4,
				6
			],
			"min":[
				-10,
				0,
				-8
			],
			"type":"VEC3"
		},
		{
			"bufferView":1,
			"componentType":5126,
			"count":80,
			"type":"VEC3"
		},
		{
			"bufferView":2,
			"componentType":5126,
			"count":80,
			"type":"VEC2"
		},
		{
			"bufferView":3,
			"componentType":5123,
			"count":120,
			"type":"SCALAR"
		},
		{
			"bufferView":4,
			"componentType":5126,
			"count":104,
			"max":[
				6,
				10.5,
				6.5
			],
			"min":[
				-10,
				4,
				-8
			],
			"type":"VEC3"
		},
		{
			"bufferView":5,
			"componentType":5126,
			"count":104,
			"type":"VEC3"
		},
		{
			"bufferView":6,
			"componentType":5126,
			"count":104,
			"type":"VEC2"
		},
		{
			"bufferView":7,
			"componentType":5123,
			"count":204,
			"type":"SCALAR"
		},
		{
			"bufferView":8,
			"componentType":5126,
			"count":8,
			"max":[
				2,
				7,
				6
			],
			"min":[
				-6,
				4,
				0
			],
			"type":"VEC3"
		},
		{
			"bufferView":9,
			"componentType":5126,
			"count":8,
			"type":"VEC3"
		},
		{
			"bufferView":10,
			"componentType":5126,
			"count":8,
			"type":"VEC2"
		},
		{
			"bufferView":11,
			"componentType":5123,
			"count":12,
			"type":"SCALAR"
		},
		{
			"bufferView":12,
			"componentType":5126,
			"count":20,
			"max":[
				6,
				8,
				6
			],
			"min":[
				-10,
				4,
				-2
			],
			"type":"VEC3"
		},
		{
			"bufferView":13,
			"componentType":5126,
			"count":20,
			"type":"VEC3"
		},
		{
			"bufferView":14,
			"componentType":5126,
			"count":20,
			"type":"VEC2"
		},
		{
			"bufferView":15,
			"componentType":5123,
			"count":36,
			"type":"SCALAR"
		},
		{
			"bufferView":16,
			"componentType":5126,
			"count":26,
			"max":[
				5,
				9,
				5
			],
			"min":[
				-9,
				4,
				-8
			],
			"type":"VEC3"
		},
		{
			"bufferView":17,
			"componentType":5126,
			"count":26,
			"type":"VEC3"
		},
		{
			"bufferView":18,
			"componentType":5126,
			"count":26,
			"type":"VEC2"
		},
		{
			"bufferView":19,
			"componentType":5123,
			"count":42,
			"type":"SCALAR"
		},
		{
			"bufferView":20,
			"componentType":5126,
			"count":54,
			"max":[
				6,
				9,
				6
			],
			"min":[
				-10,
				6.5,
				-6
			],
			"type":"VEC3"
		},
		{
			"bufferView":21,
			"componentType":5126,
			"count":54,
			"type":"VEC3"
		},
		{
			"bufferView":22,
			"componentType":5126,
			"count":54,
			"type":"VEC2"
		},
		{
			"bufferView":23,
			"componentType":5123,
			"count":78,
			"type":"SCALAR"
		},
		{
			"bufferView":24,
			"componentType":5126,
			"count":28,
			"max":[
				2,
				10.5,
				6.5
			],
			"min":[
				-6,
				7,
				-2.5
			],
			"type":"VEC3"
		},
		{
			"bufferView":25,
			"componentType":5126,
			"count":28,
			"type":"VEC3"
		},
		{
			"bufferView":26,
			"componentType":5126,
			"count":28,
			"type":"VEC2"
		},
		{
			"bufferView":27,
			"componentType":5123,
			"count":42,
			"type":"SCALAR"
		},
		{
			"bufferView":28,
			"componentType":5126,
			"count":4,
			"max":[
				2,
				7,
				0
			],
			"min":[
				-6,
				4,
				0
			],
			"type":"VEC3"
		},
		{
			"bufferView":29,
			"componentType":5126,
			"count":4,
			"type":"VEC3"
		},
		{
			"bufferView":30,
			"componentType":5126,
			"count":4,
			"type":"VEC2"
		},
		{
			"bufferView":31,
			"componentType":5123,
			"count":6,
			"type":"SCALAR"
		},
		{
			"bufferView":32,
			"componentType":5126,
			"count":8,
			"max":[
				2,
				8.5,
				6.5
			],
			"min":[
				-6,
				7,
				6
			],
			"type":"VEC3"
		},
		{
			"bufferView":33,
			"componentType":5126,
			"count":8,
			"type":"VEC3"
		},
		{
			"bufferView":34,
			"componentType":5126,
			"count":8,
			"type":"VEC2"
		},
		{
			"bufferView":35,
			"componentType":5123,
			"count":12,
			"type":"SCALAR"
		},
		{
			"bufferView":36,
			"componentType":5126,
			"count":20,
			"max":[
				2,
				9.5,
				5
			],
			"min":[
				-6,
				6.5,
				-6
			],
			"type":"VEC3"
		},
		{
			"bufferView":37,
			"componentType":5126,
			"count":20,
			"type":"VEC3"
		},
		{
			"bufferView":38,
			"componentType":5126,
			"count":20,
			"type":"VEC2"
		},
		{
			"bufferView":39,
			"componentType":5123,
			"count":30,
			"type":"SCALAR"
		}
	],
	"bufferViews":[
		{
			"buffer":0,
			"byteLength":960,
			"byteOffset":0,
			"target":34962
		},
		{
			"buffer":0,
			"byteLength":960,
			"byteOffset":960,
			"target":34962
		},
		{
			"buffer":0,
			"byteLength":640,
			"byteOffset":1920,
			"target":34962
		},
		{
			"buffer":0,
			"byteLength":240,
			"byteOffset":2560,
			"target":34963
		},
		{
			"buffer":0,
			"byteLength":1248,
			"byteOffset":2800,
			"target":34962
		},
		{
			"buffer":0,
			"byteLength":1248,
			"byteOffset":4048,
			"target":34962
		},
		{
			"buffer":0,
			"byteLength":832,
			"byteOffset":5296,
			"target":34962
		},
		{
			"buffer":0,
			"byteLength":408,
			"byteOffset":6128,
			"target":34963
		},
		{
			"buffer":0,
			"byteLength":96,
			"byteOffset":6536,
			"target":34962
		},
		{
			"buffer":0,
			"byteLength":96,
			"byteOffset":6632,
			"target":34962
		},
		{
			"buffer":0,
			"byteLength":64,
			"byteOffset":6728,
			"target":34962
		},
		{
			"buffer":0,
			"byteLength":24,
			"byteOffset":6792,
			"target":34963
		},
		{
			"buffer":0,
			"byteLength":240,
			"byteOffset":6816,
			"target":34962
		},
		{
			"buffer":0,
			"byteLength":240,
			"byteOffset":7056,
			"target":34962
		},
		{
			"buffer":0,
			"byteLength":160,
			"byteOffset":7296,
			"target":34962
		},
		{
			"buffer":0,
			"byteLength":72,
			"byteOffset":7456,
			"target":34963
		},
		{
			"buffer":0,
			"byteLength":312,
			"byteOffset":7528,
			"target":34962
		},
		{
			"buffer":0,
			"byteLength":312,
			"byteOffset":7840,
			"target":34962
		},
		{
			"buffer":0,
			"byteLength":208,
			"byteOffset":8152,
			"target":34962
		},
		{
			"buffer":0,
			"byteLength":84,
			"byteOffset":8360,
			"target":34963
		},
		{
			"buffer":0,
			"byteLength":648,
			"byteOffset":8444,
			"target":34962
		},
		{
			"buffer":0,
			"byteLength":648,
			"byteOffset":9092,
			"target":34962
		},
		{
			"buffer":0,
			"byteLength":432,
			"byteOffset":9740,
			"target":34962
		},
		{
			"buffer":0,
			"byteLength":156,
			"byteOffset":10172,
			"target":34963
		},
		{
			"buffer":0,
			"byteLength":336,
			"byteOffset":10328,
			"target":34962
		},
		{
			"buffer":0,
			"byteLength":336,
			"byteOffset":10664,
			"target":34962
		},
		{
			"buffer":0,
			"byteLength":224,
			"byteOffset":11000,
			"target":34962
		},
		{
			"buffer":0,
			"byteLength":84,
			"byteOffset":11224,
			"target":34963
		},
		{
			"buffer":0,
			"byteLength":48,
			"byteOffset":11308,
			"target":34962
		},
		{
			"buffer":0,
			"byteLength":48,
			"byteOffset":11356,
			"target":34962
		},
		{
			"buffer":0,
			"byteLength":32,
			"byteOffset":11404,
			"target":34962
		},
		{
			"buffer":0,
			"byteLength":12,
			"byteOffset":11436,
			"target":34963
		},
		{
			"buffer":0,
			"byteLength":96,
			"byteOffset":11448,
			"target":34962
		},
		{
			"buffer":0,
			"byteLength":96,
			"byteOffset":11544,
			"target":34962
		},
		{
			"buffer":0,
			"byteLength":64,
			"byteOffset":11640,
			"target":34962
		},
		{
			"buffer":0,
			"byteLength":24,
			"byteOffset":11704,
			"target":34963
		},
		{
			"buffer":0,
			"byteLength":240,
			"byteOffset":11728,
			"target":34962
		},
		{
			"buffer":0,
			"byteLength":240,
			"byteOffset":11968,
			"target":34962
		},
		{
			"buffer":0,
			"byteLength":160,
			"byteOffset":12208,
			"target":34962
		},
		{
			"buffer":0,
			"byteLength":60,
			"byteOffset":12368,
			"target":34963
		}
	],
	"buffers":[
		{
			"byteLength":12428,
			"uri":"rilke_ctm1_platform1_x2.bin"
		}
	]
}
