{
	"asset":{
		"generator":"Khronos glTF Blender I/O v4.5.48",
		"version":"2.0"
	},
	"scene":0,
	"scenes":[
		{
			"name":"Scene",
			"nodes":[
				0
			]
		}
	],
	"nodes":[
		{
			"mesh":0,
			"name":"Object"
		}
	],
	"materials":[
		{
			"doubleSided":true,
			"name":"E8LIGHTTRIM_B",
			"pbrMetallicRoughness":{
				"baseColorFactor":[
					0.800000011920929,
					0.800000011920929,
					0.800000011920929,
					1
				],
				"metallicFactor":0,
				"roughnessFactor":0.5
			}
		},
		{
			"doubleSided":true,
			"name":"E8BOLTTRIM",
			"pbrMetallicRoughness":{
				"baseColorFactor":[
					0.800000011920929,
					0.800000011920929,
					0.800000011920929,
					1
				],
				"metallicFactor":0,
				"roughnessFactor":0.5
			}
		},
		{
			"doubleSided":true,
			"name":"E8CRETE03CC",
			"pbrMetallicRoughness":{
				"baseColorFactor":[
					0.800000011920929,
					0.800000011920929,
					0.800000011920929,
					1
				],
				"metallicFactor":0,
				"roughnessFactor":0.5
			}
		},
		{
			"doubleSided":true,
			"name":"E8_BTRIM01",
			"pbrMetallicRoughness":{
				"baseColorFactor":[
					0.800000011920929,
					0.800000011920929,
					0.800000011920929,
					1
				],
				"metallicFactor":0,
				"roughnessFactor":0.5
			}
		},
		{
			"doubleSided":true,
			"name":"E8BEAM02",
			"pbrMetallicRoughness":{
				"baseColorFactor":[
					0.800000011920929,
					0.800000011920929,
					0.800000011920929,
					1
				],
				"metallicFactor":0,
				"roughnessFactor":0.5
			}
		},
		{
			"doubleSided":true,
			"name":"E8BGRATE01",
			"pbrMetallicRoughness":{
				"baseColorFactor":[
					0.800000011920929,
					0.800000011920929,
					0.800000011920929,
					1
				],
				"metallicFactor":0,
				"roughnessFactor":0.5
			}
		},
		{
			"doubleSided":true,
			"name":"E8WARNING2",
			"pbrMetallicRoughness":{
				"baseColorFactor":[
					0.800000011920929,
					0.800000011920929,
					0.800000011920929,
					1
				],
				"metallicFactor":0,
				"roughnessFactor":0.5
			}
		},
		{
			"doubleSided":true,
			"name":"E8_BASE1B",
			"pbrMetallicRoughness":{
				"baseColorFactor":[
					0.800000011920929,
					0.800000011920929,
					0.800000011920929,
					1
				],
				"metallicFactor":0,
				"roughnessFactor":0.5
			}
		},
		{
			"doubleSided":true,
			"name":"E8_BTRIM05",
			"pbrMetallicRoughness":{
				"baseColorFactor":[
					0.800000011920929,
					0.800000011920929,
					0.800000011920929,
					1
				],
				"metallicFactor":0,
				"roughnessFactor":0.5
			}
		},
		{
			"doubleSided":true,
			"name":"E8_BASE1",
			"pbrMetallicRoughness":{
				"baseColorFactor":[
					0.800000011920929,
					0.800000011920929,
					0.800000011920929,
					1
				],
				"metallicFactor":0,
				"roughnessFactor":0.5
			}
		},
		{
			"doubleSided":true,
			"name":"E8MTLTRIM1B",
			"pbrMetallicRoughness":{
				"baseColorFactor":[
					0.800000011920929,
					0.800000011920929,
					0.800000011920929,
					1
				],
				"metallicFactor":0,
				"roughnessFactor":0.5
			}
		},
		{
			"doubleSided":true,
			"name":"E8TMTLLIGHT2",
			"pbrMetallicRoughness":{
				"baseColorFactor":[
					0.800000011920929,
					0.800000011920929,
					0.800000011920929,
					1
				],
				"metallicFactor":0,
				"roughnessFactor":0.5
			}
		},
		{
			"doubleSided":true,
			"name":"E8CRETE01",
			"pbrMetallicRoughness":{
				"baseColorFactor":[
					0.800000011920929,
					0.800000011920929,
					0.800000011920929,
					1
				],
				"metallicFactor":0,
				"roughnessFactor":0.5
			}
		},
		{
			"doubleSided":true,
			"name":"E8CLANGFLOOR",
			"pbrMetallicRoughness":{
				"baseColorFactor":[
					0.800000011920929,
					0.800000011920929,
					0.800000011920929,
					1
				],
				"metallicFactor":0,
				"roughnessFactor":0.5
			}
		},
		{
			"doubleSided":true,
			"name":"E8WARNING2STEP",
			"pbrMetallicRoughness":{
				"baseColorFactor":[
					0.800000011920929,
					0.800000011920929,
					0.800000011920929,
					1
				],
				"metallicFactor":0,
				"roughnessFactor":0.5
			}
		},
		{
			"doubleSided":true,
			"name":"E8TINYLIGHT_000",
			"pbrMetallicRoughness":{
				"baseColorFactor":[
					0.800000011920929,
					0.800000011920929,
					0.800000011920929,
					1
				],
				"metallicFactor":0,
				"roughnessFactor":0.5
			}
		}
	],
	"meshes":[
		{
			"name":"Mesh",
			"primitives":[
				{
					"attributes":{
						"POSITION":0,
						"NORMAL":1,
						"TEXCOORD_0":2
					},
					"indices":3,
					"material":0
				},
				{
					"attributes":{
						"POSITION":4,
						"NORMAL":5,
						"TEXCOORD_0":6
					},
					"indices":7,
					"material":1
				},
				{
					"attributes":{
						"POSITION":8,
						"NORMAL":9,
						"TEXCOORD_0":10
					},
					"indices":11,
					"material":2
				},
				{
					"attributes":{
						"POSITION":12,
						"NORMAL":13,
						"TEXCOORD_0":14
					},
					"indices":15,
					"material":3
				},
				{
					"attributes":{
						"POSITION":16,
						"NORMAL":17,
						"TEXCOORD_0":18
					},
					"indices":19,
					"material":4
				},
				{
					"attributes":{
						"POSITION":20,
						"NORMAL":21,
						"TEXCOORD_0":22
					},
					"indices":23,
					"material":5
				},
				{
					"attributes":{
						"POSITION":24,
						"NORMAL":25,
						"TEXCOORD_0":26
					},
					"indices":27,
					"material":6
				},
				{
					"attributes":{
						"POSITION":28,
						"NORMAL":29,
						"TEXCOORD_0":30
					},
					"indices":31,
					"material":7
				},
				{
					"attributes":{
						"POSITION":32,
						"NORMAL":33,
						"TEXCOORD_0":34
					},
					"indices":35,
					"material":8
				},
				{
					"attributes":{
						"POSITION":36,
						"NORMAL":37,
						"TEXCOORD_0":38
					},
					"indices":39,
					"material":9
				},
				{
					"attributes":{
						"POSITION":40,
						"NORMAL":41,
						"TEXCOORD_0":42
					},
					"indices":43,
					"material":10
				},
				{
					"attributes":{
						"POSITION":44,
						"NORMAL":45,
						"TEXCOORD_0":46
					},
					"indices":47,
					"material":11
				},
				{
					"attributes":{
						"POSITION":48,
						"NORMAL":49,
						"TEXCOORD_0":50
					},
					"indices":51,
					"material":12
				},
				{
					"attributes":{
						"POSITION":52,
						"NORMAL":53,
						"TEXCOORD_0":54
					},
					"indices":55,
					"material":13
				},
				{
					"attributes":{
						"POSITION":56,
						"NORMAL":57,
						"TEXCOORD_0":58
					},
					"indices":59,
					"material":14
				},
				{
					"attributes":{
						"POSITION":60,
						"NORMAL":61,
						"TEXCOORD_0":62
					},
					"indices":63,
					"material":15
				}
			]
		}
	],
	"accessors":[
		{
			"bufferView":0,
			"componentType":5126,
			"count":8,
			"max":[
				16,
				-9.75,
				40
			],
			"min":[
				-12,
				-9.75,
				7
			],
			"type":"VEC3"
		},
		{
			"bufferView":1,
			"componentType":5126,
			"count":8,
			"type":"VEC3"
		},
		{
			"bufferView":2,
			"componentType":5126,
			"count":8,
			"type":"VEC2"
		},
		{
			"bufferView":3,
			"componentType":5123,
			"count":12,
			"type":"SCALAR"
		},
		{
			"bufferView":4,
			"componentType":5126,
			"count":36,
			"max":[
				16,
				-9.75,
				40
			],
			"min":[
				-12,
				-10,
				6
			],
			"type":"VEC3"
		},
		{
			"bufferView":5,
			"componentType":5126,
			"count":36,
			"type":"VEC3"
		},
		{
			"bufferView":6,
			"componentType":5126,
			"count":36,
			"type":"VEC2"
		},
		{
			"bufferView":7,
			"componentType":5123,
			"count":72,
			"type":"SCALAR"
		},
		{
			"bufferView":8,
			"componentType":5126,
			"count":73,
			"max":[
				20,
				-8,
				48
			],
			"min":[
				-16,
				-12,
				40
			],
			"type":"VEC3"
		},
		{
			"bufferView":9,
			"componentType":5126,
			"count":73,
			"type":"VEC3"
		},
		{
			"bufferView":10,
			"componentType":5126,
			"count":73,
			"type":"VEC2"
		},
		{
			"bufferView":11,
			"componentType":5123,
			"count":135,
			"type":"SCALAR"
		},
		{
			"bufferView":12,
			"componentType":5126,
			"count":14,
			"max":[
				16,
				-5,
				48
			],
			"min":[
				-12,
				-8,
				42
			],
			"type":"VEC3"
		},
		{
			"bufferView":13,
			"componentType":5126,
			"count":14,
			"type":"VEC3"
		},
		{
			"bufferView":14,
			"componentType":5126,
			"count":14,
			"type":"VEC2"
		},
		{
			"bufferView":15,
			"componentType":5123,
			"count":30,
			"type":"SCALAR"
		},
		{
			"bufferView":16,
			"componentType":5126,
			"count":41,
			"max":[
				20,
				-4,
				46
			],
			"min":[
				-16,
				-8,
				40
			],
			"type":"VEC3"
		},
		{
			"bufferView":17,
			"componentType":5126,
			"count":41,
			"type":"VEC3"
		},
		{
			"bufferView":18,
			"componentType":5126,
			"count":41,
			"type":"VEC2"
		},
		{
			"bufferView":19,
			"componentType":5123,
			"count":87,
			"type":"SCALAR"
		},
		{
			"bufferView":20,
			"componentType":5126,
			"count":20,
			"max":[
				20,
				-4,
				48
			],
			"min":[
				-16,
				-8,
				40
			],
			"type":"VEC3"
		},
		{
			"bufferView":21,
			"componentType":5126,
			"count":20,
			"type":"VEC3"
		},
		{
			"bufferView":22,
			"componentType":5126,
			"count":20,
			"type":"VEC2"
		},
		{
			"bufferView":23,
			"componentType":5123,
			"count":36,
			"type":"SCALAR"
		},
		{
			"bufferView":24,
			"componentType":5126,
			"count":34,
			"max":[
				19,
				-3,
				47
			],
			"min":[
				-15,
				-5.5,
				41
			],
			"type":"VEC3"
		},
		{
			"bufferView":25,
			"componentType":5126,
			"count":34,
			"type":"VEC3"
		},
		{
			"bufferView":26,
			"componentType":5126,
			"count":34,
			"type":"VEC2"
		},
		{
			"bufferView":27,
			"componentType":5123,
			"count":78,
			"type":"SCALAR"
		},
		{
			"bufferView":28,
			"componentType":5126,
			"count":58,
			"max":[
				20,
				-3,
				48
			],
			"min":[
				-16,
				-4,
				39.5
			],
			"type":"VEC3"
		},
		{
			"bufferView":29,
			"componentType":5126,
			"count":58,
			"type":"VEC3"
		},
		{
			"bufferView":30,
			"componentType":5126,
			"count":58,
			"type":"VEC2"
		},
		{
			"bufferView":31,
			"componentType":5123,
			"count":90,
			"type":"SCALAR"
		},
		{
			"bufferView":32,
			"componentType":5126,
			"count":66,
			"max":[
				16,
				-1.5,
				48.5
			],
			"min":[
				-12,
				-9.75,
				6
			],
			"type":"VEC3"
		},
		{
			"bufferView":33,
			"componentType":5126,
			"count":66,
			"type":"VEC3"
		},
		{
			"bufferView":34,
			"componentType":5126,
			"count":66,
			"type":"VEC2"
		},
		{
			"bufferView":35,
			"componentType":5123,
			"count":114,
			"type":"SCALAR"
		},
		{
			"bufferView":36,
			"componentType":5126,
			"count":92,
			"max":[
				16,
				-1.5,
				48.5
			],
			"min":[
				-12,
				-5,
				39.5
			],
			"type":"VEC3"
		},
		{
			"bufferView":37,
			"componentType":5126,
			"count":92,
			"type":"VEC3"
		},
		{
			"bufferView":38,
			"componentType":5126,
			"count":92,
			"type":"VEC2"
		},
		{
			"bufferView":39,
			"componentType":5123,
			"count":210,
			"type":"SCALAR"
		},
		{
			"bufferView":40,
			"componentType":5126,
			"count":20,
			"max":[
				20,
				-5.5,
				42
			],
			"min":[
				-16,
				-12,
				4
			],
			"type":"VEC3"
		},
		{
			"bufferView":41,
			"componentType":5126,
			"count":20,
			"type":"VEC3"
		},
		{
			"bufferView":42,
			"componentType":5126,
			"count":20,
			"type":"VEC2"
		},
		{
			"bufferView":43,
			"componentType":5123,
			"count":30,
			"type":"SCALAR"
		},
		{
			"bufferView":44,
			"componentType":5126,
			"count":28,
			"max":[
				16,
				-2.5,
				47
			],
			"min":[
				-12,
				-5.5,
				39.5
			],
			"type":"VEC3"
		},
		{
			"bufferView":45,
			"componentType":5126,
			"count":28,
			"type":"VEC3"
		},
		{
			"bufferView":46,
			"componentType":5126,
			"count":28,
			"type":"VEC2"
		},
		{
			"bufferView":47,
			"componentType":5123,
			"count":42,
			"type":"SCALAR"
		},
		{
			"bufferView":48,
			"componentType":5126,
			"count":16,
			"max":[
				20,
				-10,
				42
			],
			"min":[
				-16,
				-11,
				4
			],
			"type":"VEC3"
		},
		{
			"bufferView":49,
			"componentType":5126,
			"count":16,
			"type":"VEC3"
		},
		{
			"bufferView":50,
			"componentType":5126,
			"count":16,
			"type":"VEC2"
		},
		{
			"bufferView":51,
			"componentType":5123,
			"count":30,
			"type":"SCALAR"
		},
		{
			"bufferView":52,
			"componentType":5126,
			"count":34,
			"max":[
				15,
				-10,
				42
			],
			"min":[
				-11,
				-11,
				7
			],
			"type":"VEC3"
		},
		{
			"bufferView":53,
			"componentType":5126,
			"count":34,
			"type":"VEC3"
		},
		{
			"bufferView":54,
			"componentType":5126,
			"count":34,
			"type":"VEC2"
		},
		{
			"bufferView":55,
			"componentType":5123,
			"count":96,
			"type":"SCALAR"
		},
		{
			"bufferView":56,
			"componentType":5126,
			"count":32,
			"max":[
				14,
				-10,
				39
			],
			"min":[
				-10,
				-11,
				8
			],
			"type":"VEC3"
		},
		{
			"bufferView":57,
			"componentType":5126,
			"count":32,
			"type":"VEC3"
		},
		{
			"bufferView":58,
			"componentType":5126,
			"count":32,
			"type":"VEC2"
		},
		{
			"bufferView":59,
			"componentType":5123,
			"count":48,
			"type":"SCALAR"
		},
		{
			"bufferView":60,
			"componentType":5126,
			"count":16,
			"max":[
				16,
				-3.5,
				48.5
			],
			"min":[
				-12,
				-5,
				48
			],
			"type":"VEC3"
		},
		{
			"bufferView":61,
			"componentType":5126,
			"count":16,
			"type":"VEC3"
		},
		{
			"bufferView":62,
			"componentType":5126,
			"count":16,
			"type":"VEC2"
		},
		{
			"bufferView":63,
			"componentType":5123,
			"count":24,
			"type":"SCALAR"
		}
	],
	"bufferViews":[
		{
			"buffer":0,
			"byteLength":96,
			"byteOffset":0,
			"target":34962
		},
		{
			"buffer":0,
			"byteLength":96,
			"byteOffset":96,
			"target":34962
		},
		{
			"buffer":0,
			"byteLength":64,
			"byteOffset":192,
			"target":34962
		},
		{
			"buffer":0,
			"byteLength":24,
			"byteOffset":256,
			"target":34963
		},
		{
			"buffer":0,
			"byteLength":432,
			"byteOffset":280,
			"target":34962
		},
		{
			"buffer":0,
			"byteLength":432,
			"byteOffset":712,
			"target":34962
		},
		{
			"buffer":0,
			"byteLength":288,
			"byteOffset":1144,
			"target":34962
		},
		{
			"buffer":0,
			"byteLength":144,
			"byteOffset":1432,
			"target":34963
		},
		{
			"buffer":0,
			"byteLength":876,
			"byteOffset":1576,
			"target":34962
		},
		{
			"buffer":0,
			"byteLength":876,
			"byteOffset":2452,
			"target":34962
		},
		{
			"buffer":0,
			"byteLength":584,
			"byteOffset":3328,
			"target":34962
		},
		{
			"buffer":0,
			"byteLength":270,
			"byteOffset":3912,
			"target":34963
		},
		{
			"buffer":0,
			"byteLength":168,
			"byteOffset":4184,
			"target":34962
		},
		{
			"buffer":0,
			"byteLength":168,
			"byteOffset":4352,
			"target":34962
		},
		{
			"buffer":0,
			"byteLength":112,
			"byteOffset":4520,
			"target":34962
		},
		{
			"buffer":0,
			"byteLength":60,
			"byteOffset":4632,
			"target":34963
		},
		{
			"buffer":0,
			"byteLength":492,
			"byteOffset":4692,
			"target":34962
		},
		{
			"buffer":0,
			"byteLength":492,
			"byteOffset":5184,
			"target":34962
		},
		{
			"buffer":0,
			"byteLength":328,
			"byteOffset":5676,
			"target":34962
		},
		{
			"buffer":0,
			"byteLength":174,
			"byteOffset":6004,
			"target":34963
		},
		{
			"buffer":0,
			"byteLength":240,
			"byteOffset":6180,
			"target":34962
		},
		{
			"buffer":0,
			"byteLength":240,
			"byteOffset":6420,
			"target":34962
		},
		{
			"buffer":0,
			"byteLength":160,
			"byteOffset":6660,
			"target":34962
		},
		{
			"buffer":0,
			"byteLength":72,
			"byteOffset":6820,
			"target":34963
		},
		{
			"buffer":0,
			"byteLength":408,
			"byteOffset":6892,
			"target":34962
		},
		{
			"buffer":0,
			"byteLength":408,
			"byteOffset":7300,
			"target":34962
		},
		{
			"buffer":0,
			"byteLength":272,
			"byteOffset":7708,
			"target":34962
		},
		{
			"buffer":0,
			"byteLength":156,
			"byteOffset":7980,
			"target":34963
		},
		{
			"buffer":0,
			"byteLength":696,
			"byteOffset":8136,
			"target":34962
		},
		{
			"buffer":0,
			"byteLength":696,
			"byteOffset":8832,
			"target":34962
		},
		{
			"buffer":0,
			"byteLength":464,
			"byteOffset":9528,
			"target":34962
		},
		{
			"buffer":0,
			"byteLength":180,
			"byteOffset":9992,
			"target":34963
		},
		{
			"buffer":0,
			"byteLength":792,
			"byteOffset":10172,
			"target":34962
		},
		{
			"buffer":0,
			"byteLength":792,
			"byteOffset":10964,
			"target":34962
		},
		{
			"buffer":0,
			"byteLength":528,
			"byteOffset":11756,
			"target":34962
		},
		{
			"buffer":0,
			"byteLength":228,
			"byteOffset":12284,
			"target":34963
		},
		{
			"buffer":0,
			"byteLength":1104,
			"byteOffset":12512,
			"target":34962
		},
		{
			"buffer":0,
			"byteLength":1104,
			"byteOffset":13616,
			"target":34962
		},
		{
			"buffer":0,
			"byteLength":736,
			"byteOffset":14720,
			"target":34962
		},
		{
			"buffer":0,
			"byteLength":420,
			"byteOffset":15456,
			"target":34963
		},
		{
			"buffer":0,
			"byteLength":240,
			"byteOffset":15876,
			"target":34962
		},
		{
			"buffer":0,
			"byteLength":240,
			"byteOffset":16116,
			"target":34962
		},
		{
			"buffer":0,
			"byteLength":160,
			"byteOffset":16356,
			"target":34962
		},
		{
			"buffer":0,
			"byteLength":60,
			"byteOffset":16516,
			"target":34963
		},
		{
			"buffer":0,
			"byteLength":336,
			"byteOffset":16576,
			"target":34962
		},
		{
			"buffer":0,
			"byteLength":336,
			"byteOffset":16912,
			"target":34962
		},
		{
			"buffer":0,
			"byteLength":224,
			"byteOffset":17248,
			"target":34962
		},
		{
			"buffer":0,
			"byteLength":84,
			"byteOffset":17472,
			"target":34963
		},
		{
			"buffer":0,
			"byteLength":192,
			"byteOffset":17556,
			"target":34962
		},
		{
			"buffer":0,
			"byteLength":192,
			"byteOffset":17748,
			"target":34962
		},
		{
			"buffer":0,
			"byteLength":128,
			"byteOffset":17940,
			"target":34962
		},
		{
			"buffer":0,
			"byteLength":60,
			"byteOffset":18068,
			"target":34963
		},
		{
			"buffer":0,
			"byteLength":408,
			"byteOffset":18128,
			"target":34962
		},
		{
			"buffer":0,
			"byteLength":408,
			"byteOffset":18536,
			"target":34962
		},
		{
			"buffer":0,
			"byteLength":272,
			"byteOffset":18944,
			"target":34962
		},
		{
			"buffer":0,
			"byteLength":192,
			"byteOffset":19216,
			"target":34963
		},
		{
			"buffer":0,
			"byteLength":384,
			"byteOffset":19408,
			"target":34962
		},
		{
			"buffer":0,
			"byteLength":384,
			"byteOffset":19792,
			"target":34962
		},
		{
			"buffer":0,
			"byteLength":256,
			"byteOffset":20176,
			"target":34962
		},
		{
			"buffer":0,
			"byteLength":96,
			"byteOffset":20432,
			"target":34963
		},
		{
			"buffer":0,
			"byteLength":192,
			"byteOffset":20528,
			"target":34962
		},
		{
			"buffer":0,
			"byteLength":192,
			"byteOffset":20720,
			"target":34962
		},
		{
			"buffer":0,
			"byteLength":128,
			"byteOffset":20912,
			"target":34962
		},
		{
			"buffer":0,
			"byteLength":48,
			"byteOffset":21040,
			"target":34963
		}
	],
	"buffers":[
		{
			"byteLength":21088,
			"uri":"rilke_ctm1_vpad_x2.bin"
		}
	]
}
