{
	"asset":{
		"generator":"Khronos glTF Blender I/O v4.5.48",
		"version":"2.0"
	},
	"scene":0,
	"scenes":[
		{
			"name":"Scene",
			"nodes":[
				0
			]
		}
	],
	"nodes":[
		{
			"mesh":0,
			"name":"Object"
		}
	],
	"materials":[
		{
			"doubleSided":true,
			"name":"DS_ILIG01",
			"pbrMetallicRoughness":{
				"baseColorFactor":[
					0.800000011920929,
					0.800000011920929,
					0.800000011920929,
					1
				],
				"metallicFactor":0,
				"roughnessFactor":0.5
			}
		},
		{
			"doubleSided":true,
			"name":"DS_EWALL07",
			"pbrMetallicRoughness":{
				"baseColorFactor":[
					0.800000011920929,
					0.800000011920929,
					0.800000011920929,
					1
				],
				"metallicFactor":0,
				"roughnessFactor":0.5
			}
		},
		{
			"doubleSided":true,
			"name":"DS_TECHWALL_2",
			"pbrMetallicRoughness":{
				"baseColorFactor":[
					0.800000011920929,
					0.800000011920929,
					0.800000011920929,
					1
				],
				"metallicFactor":0,
				"roughnessFactor":0.5
			}
		},
		{
			"doubleSided":true,
			"name":"DS_EWALL06",
			"pbrMetallicRoughness":{
				"baseColorFactor":[
					0.800000011920929,
					0.800000011920929,
					0.800000011920929,
					1
				],
				"metallicFactor":0,
				"roughnessFactor":0.5
			}
		},
		{
			"doubleSided":true,
			"name":"DS_ILAVLIGHT",
			"pbrMetallicRoughness":{
				"baseColorFactor":[
					0.800000011920929,
					0.800000011920929,
					0.800000011920929,
					1
				],
				"metallicFactor":0,
				"roughnessFactor":0.5
			}
		},
		{
			"doubleSided":true,
			"name":"DS_GENWALL",
			"pbrMetallicRoughness":{
				"baseColorFactor":[
					0.800000011920929,
					0.800000011920929,
					0.800000011920929,
					1
				],
				"metallicFactor":0,
				"roughnessFactor":0.5
			}
		}
	],
	"meshes":[
		{
			"name":"Mesh",
			"primitives":[
				{
					"attributes":{
						"POSITION":0,
						"NORMAL":1,
						"TEXCOORD_0":2
					},
					"indices":3,
					"material":0
				},
				{
					"attributes":{
						"POSITION":4,
						"NORMAL":5,
						"TEXCOORD_0":6
					},
					"indices":7,
					"material":1
				},
				{
					"attributes":{
						"POSITION":8,
						"NORMAL":9,
						"TEXCOORD_0":10
					},
					"indices":11,
					"material":2
				},
				{
					"attributes":{
						"POSITION":12,
						"NORMAL":13,
						"TEXCOORD_0":14
					},
					"indices":15,
					"material":3
				},
				{
					"attributes":{
						"POSITION":16,
						"NORMAL":17,
						"TEXCOORD_0":18
					},
					"indices":19,
					"material":4
				},
				{
					"attributes":{
						"POSITION":20,
						"NORMAL":21,
						"TEXCOORD_0":22
					},
					"indices":23,
					"material":5
				}
			]
		}
	],
	"accessors":[
		{
			"bufferView":0,
			"componentType":5126,
			"count":30,
			"max":[
				7.5,
				-12,
				10
			],
			"min":[
				0.5,
				-17,
				1
			],
			"type":"VEC3"
		},
		{
			"bufferView":1,
			"componentType":5126,
			"count":30,
			"type":"VEC3"
		},
		{
			"bufferView":2,
			"componentType":5126,
			"count":30,
			"type":"VEC2"
		},
		{
			"bufferView":3,
			"componentType":5123,
			"count":48,
			"type":"SCALAR"
		},
		{
			"bufferView":4,
			"componentType":5126,
			"count":141,
			"max":[
				7.5,
				-12,
				9.5
			],
			"min":[
				0.5,
				-17,
				1.480297330873836e-15
			],
			"type":"VEC3"
		},
		{
			"bufferView":5,
			"componentType":5126,
			"count":141,
			"type":"VEC3"
		},
		{
			"bufferView":6,
			"componentType":5126,
			"count":141,
			"type":"VEC2"
		},
		{
			"bufferView":7,
			"componentType":5123,
			"count":372,
			"type":"SCALAR"
		},
		{
			"bufferView":8,
			"componentType":5126,
			"count":60,
			"max":[
				8,
				-12,
				10
			],
			"min":[
				0,
				-17,
				0
			],
			"type":"VEC3"
		},
		{
			"bufferView":9,
			"componentType":5126,
			"count":60,
			"type":"VEC3"
		},
		{
			"bufferView":10,
			"componentType":5126,
			"count":60,
			"type":"VEC2"
		},
		{
			"bufferView":11,
			"componentType":5123,
			"count":156,
			"type":"SCALAR"
		},
		{
			"bufferView":12,
			"componentType":5126,
			"count":148,
			"max":[
				9,
				-11,
				9
			],
			"min":[
				-1,
				-17,
				0
			],
			"type":"VEC3"
		},
		{
			"bufferView":13,
			"componentType":5126,
			"count":148,
			"type":"VEC3"
		},
		{
			"bufferView":14,
			"componentType":5126,
			"count":148,
			"type":"VEC2"
		},
		{
			"bufferView":15,
			"componentType":5123,
			"count":258,
			"type":"SCALAR"
		},
		{
			"bufferView":16,
			"componentType":5126,
			"count":34,
			"max":[
				8,
				-12,
				1.5
			],
			"min":[
				0,
				-17,
				0
			],
			"type":"VEC3"
		},
		{
			"bufferView":17,
			"componentType":5126,
			"count":34,
			"type":"VEC3"
		},
		{
			"bufferView":18,
			"componentType":5126,
			"count":34,
			"type":"VEC2"
		},
		{
			"bufferView":19,
			"componentType":5123,
			"count":54,
			"type":"SCALAR"
		},
		{
			"bufferView":20,
			"componentType":5126,
			"count":48,
			"max":[
				7,
				-11,
				8
			],
			"min":[
				1,
				-12,
				3
			],
			"type":"VEC3"
		},
		{
			"bufferView":21,
			"componentType":5126,
			"count":48,
			"type":"VEC3"
		},
		{
			"bufferView":22,
			"componentType":5126,
			"count":48,
			"type":"VEC2"
		},
		{
			"bufferView":23,
			"componentType":5123,
			"count":72,
			"type":"SCALAR"
		}
	],
	"bufferViews":[
		{
			"buffer":0,
			"byteLength":360,
			"byteOffset":0,
			"target":34962
		},
		{
			"buffer":0,
			"byteLength":360,
			"byteOffset":360,
			"target":34962
		},
		{
			"buffer":0,
			"byteLength":240,
			"byteOffset":720,
			"target":34962
		},
		{
			"buffer":0,
			"byteLength":96,
			"byteOffset":960,
			"target":34963
		},
		{
			"buffer":0,
			"byteLength":1692,
			"byteOffset":1056,
			"target":34962
		},
		{
			"buffer":0,
			"byteLength":1692,
			"byteOffset":2748,
			"target":34962
		},
		{
			"buffer":0,
			"byteLength":1128,
			"byteOffset":4440,
			"target":34962
		},
		{
			"buffer":0,
			"byteLength":744,
			"byteOffset":5568,
			"target":34963
		},
		{
			"buffer":0,
			"byteLength":720,
			"byteOffset":6312,
			"target":34962
		},
		{
			"buffer":0,
			"byteLength":720,
			"byteOffset":7032,
			"target":34962
		},
		{
			"buffer":0,
			"byteLength":480,
			"byteOffset":7752,
			"target":34962
		},
		{
			"buffer":0,
			"byteLength":312,
			"byteOffset":8232,
			"target":34963
		},
		{
			"buffer":0,
			"byteLength":1776,
			"byteOffset":8544,
			"target":34962
		},
		{
			"buffer":0,
			"byteLength":1776,
			"byteOffset":10320,
			"target":34962
		},
		{
			"buffer":0,
			"byteLength":1184,
			"byteOffset":12096,
			"target":34962
		},
		{
			"buffer":0,
			"byteLength":516,
			"byteOffset":13280,
			"target":34963
		},
		{
			"buffer":0,
			"byteLength":408,
			"byteOffset":13796,
			"target":34962
		},
		{
			"buffer":0,
			"byteLength":408,
			"byteOffset":14204,
			"target":34962
		},
		{
			"buffer":0,
			"byteLength":272,
			"byteOffset":14612,
			"target":34962
		},
		{
			"buffer":0,
			"byteLength":108,
			"byteOffset":14884,
			"target":34963
		},
		{
			"buffer":0,
			"byteLength":576,
			"byteOffset":14992,
			"target":34962
		},
		{
			"buffer":0,
			"byteLength":576,
			"byteOffset":15568,
			"target":34962
		},
		{
			"buffer":0,
			"byteLength":384,
			"byteOffset":16144,
			"target":34962
		},
		{
			"buffer":0,
			"byteLength":144,
			"byteOffset":16528,
			"target":34963
		}
	],
	"buffers":[
		{
			"byteLength":16672,
			"uri":"Vpad_Bunker.bin"
		}
	]
}
