{
	"asset":{
		"generator":"Khronos glTF Blender I/O v4.5.48",
		"version":"2.0"
	},
	"scene":0,
	"scenes":[
		{
			"name":"Scene",
			"nodes":[
				0
			]
		}
	],
	"nodes":[
		{
			"mesh":0,
			"name":"Object"
		}
	],
	"materials":[
		{
			"doubleSided":true,
			"name":"DS_TECHWALL_3",
			"pbrMetallicRoughness":{
				"baseColorFactor":[
					0.800000011920929,
					0.800000011920929,
					0.800000011920929,
					1
				],
				"metallicFactor":0,
				"roughnessFactor":0.5
			}
		},
		{
			"doubleSided":true,
			"name":"DS_IWAL01",
			"pbrMetallicRoughness":{
				"baseColorFactor":[
					0.800000011920929,
					0.800000011920929,
					0.800000011920929,
					1
				],
				"metallicFactor":0,
				"roughnessFactor":0.5
			}
		},
		{
			"doubleSided":true,
			"name":"DS_EWALL07",
			"pbrMetallicRoughness":{
				"baseColorFactor":[
					0.800000011920929,
					0.800000011920929,
					0.800000011920929,
					1
				],
				"metallicFactor":0,
				"roughnessFactor":0.5
			}
		},
		{
			"doubleSided":true,
			"name":"DS_ILIG04",
			"pbrMetallicRoughness":{
				"baseColorFactor":[
					0.800000011920929,
					0.800000011920929,
					0.800000011920929,
					1
				],
				"metallicFactor":0,
				"roughnessFactor":0.5
			}
		},
		{
			"doubleSided":true,
			"name":"DS_ILIG02",
			"pbrMetallicRoughness":{
				"baseColorFactor":[
					0.800000011920929,
					0.800000011920929,
					0.800000011920929,
					1
				],
				"metallicFactor":0,
				"roughnessFactor":0.5
			}
		},
		{
			"doubleSided":true,
			"name":"DS_TECHWALL_1",
			"pbrMetallicRoughness":{
				"baseColorFactor":[
					0.800000011920929,
					0.800000011920929,
					0.800000011920929,
					1
				],
				"metallicFactor":0,
				"roughnessFactor":0.5
			}
		},
		{
			"doubleSided":true,
			"name":"DS_GENFLOOR",
			"pbrMetallicRoughness":{
				"baseColorFactor":[
					0.800000011920929,
					0.800000011920929,
					0.800000011920929,
					1
				],
				"metallicFactor":0,
				"roughnessFactor":0.5
			}
		},
		{
			"doubleSided":true,
			"name":"DS_EWALL06",
			"pbrMetallicRoughness":{
				"baseColorFactor":[
					0.800000011920929,
					0.800000011920929,
					0.800000011920929,
					1
				],
				"metallicFactor":0,
				"roughnessFactor":0.5
			}
		},
		{
			"doubleSided":true,
			"name":"DS_IWAL01A",
			"pbrMetallicRoughness":{
				"baseColorFactor":[
					0.800000011920929,
					0.800000011920929,
					0.800000011920929,
					1
				],
				"metallicFactor":0,
				"roughnessFactor":0.5
			}
		},
		{
			"doubleSided":true,
			"name":"DS_GENWALL",
			"pbrMetallicRoughness":{
				"baseColorFactor":[
					0.800000011920929,
					0.800000011920929,
					0.800000011920929,
					1
				],
				"metallicFactor":0,
				"roughnessFactor":0.5
			}
		}
	],
	"meshes":[
		{
			"name":"Mesh",
			"primitives":[
				{
					"attributes":{
						"POSITION":0,
						"NORMAL":1,
						"TEXCOORD_0":2
					},
					"indices":3,
					"material":0
				},
				{
					"attributes":{
						"POSITION":4,
						"NORMAL":5,
						"TEXCOORD_0":6
					},
					"indices":7,
					"material":1
				},
				{
					"attributes":{
						"POSITION":8,
						"NORMAL":9,
						"TEXCOORD_0":10
					},
					"indices":11,
					"material":2
				},
				{
					"attributes":{
						"POSITION":12,
						"NORMAL":13,
						"TEXCOORD_0":14
					},
					"indices":15,
					"material":3
				},
				{
					"attributes":{
						"POSITION":16,
						"NORMAL":17,
						"TEXCOORD_0":18
					},
					"indices":19,
					"material":4
				},
				{
					"attributes":{
						"POSITION":20,
						"NORMAL":21,
						"TEXCOORD_0":22
					},
					"indices":23,
					"material":5
				},
				{
					"attributes":{
						"POSITION":24,
						"NORMAL":25,
						"TEXCOORD_0":26
					},
					"indices":27,
					"material":6
				},
				{
					"attributes":{
						"POSITION":28,
						"NORMAL":29,
						"TEXCOORD_0":30
					},
					"indices":31,
					"material":7
				},
				{
					"attributes":{
						"POSITION":32,
						"NORMAL":33,
						"TEXCOORD_0":34
					},
					"indices":35,
					"material":8
				},
				{
					"attributes":{
						"POSITION":36,
						"NORMAL":37,
						"TEXCOORD_0":38
					},
					"indices":39,
					"material":9
				}
			]
		}
	],
	"accessors":[
		{
			"bufferView":0,
			"componentType":5126,
			"count":154,
			"max":[
				11,
				3.9375,
				10
			],
			"min":[
				-1,
				-10,
				-3.25
			],
			"type":"VEC3"
		},
		{
			"bufferView":1,
			"componentType":5126,
			"count":154,
			"type":"VEC3"
		},
		{
			"bufferView":2,
			"componentType":5126,
			"count":154,
			"type":"VEC2"
		},
		{
			"bufferView":3,
			"componentType":5123,
			"count":384,
			"type":"SCALAR"
		},
		{
			"bufferView":4,
			"componentType":5126,
			"count":130,
			"max":[
				25,
				-0.5625,
				25
			],
			"min":[
				-15,
				-10.25,
				-15
			],
			"type":"VEC3"
		},
		{
			"bufferView":5,
			"componentType":5126,
			"count":130,
			"type":"VEC3"
		},
		{
			"bufferView":6,
			"componentType":5126,
			"count":130,
			"type":"VEC2"
		},
		{
			"bufferView":7,
			"componentType":5123,
			"count":252,
			"type":"SCALAR"
		},
		{
			"bufferView":8,
			"componentType":5126,
			"count":210,
			"max":[
				18,
				-1,
				18
			],
			"min":[
				-8,
				-10,
				-8
			],
			"type":"VEC3"
		},
		{
			"bufferView":9,
			"componentType":5126,
			"count":210,
			"type":"VEC3"
		},
		{
			"bufferView":10,
			"componentType":5126,
			"count":210,
			"type":"VEC2"
		},
		{
			"bufferView":11,
			"componentType":5123,
			"count":426,
			"type":"SCALAR"
		},
		{
			"bufferView":12,
			"componentType":5126,
			"count":28,
			"max":[
				10.4375,
				-0.5625,
				8.9375
			],
			"min":[
				-0.4375,
				-1,
				0.625
			],
			"type":"VEC3"
		},
		{
			"bufferView":13,
			"componentType":5126,
			"count":28,
			"type":"VEC3"
		},
		{
			"bufferView":14,
			"componentType":5126,
			"count":28,
			"type":"VEC2"
		},
		{
			"bufferView":15,
			"componentType":5123,
			"count":60,
			"type":"SCALAR"
		},
		{
			"bufferView":16,
			"componentType":5126,
			"count":16,
			"max":[
				8.25,
				-2.5,
				6.375
			],
			"min":[
				1.75,
				-10,
				0
			],
			"type":"VEC3"
		},
		{
			"bufferView":17,
			"componentType":5126,
			"count":16,
			"type":"VEC3"
		},
		{
			"bufferView":18,
			"componentType":5126,
			"count":16,
			"type":"VEC2"
		},
		{
			"bufferView":19,
			"componentType":5123,
			"count":24,
			"type":"SCALAR"
		},
		{
			"bufferView":20,
			"componentType":5126,
			"count":32,
			"max":[
				18,
				-10,
				12
			],
			"min":[
				-8,
				-10,
				-6.96875
			],
			"type":"VEC3"
		},
		{
			"bufferView":21,
			"componentType":5126,
			"count":32,
			"type":"VEC3"
		},
		{
			"bufferView":22,
			"componentType":5126,
			"count":32,
			"type":"VEC2"
		},
		{
			"bufferView":23,
			"componentType":5123,
			"count":96,
			"type":"SCALAR"
		},
		{
			"bufferView":24,
			"componentType":5126,
			"count":28,
			"max":[
				20,
				-4.75,
				20
			],
			"min":[
				-10,
				-5.5,
				-10
			],
			"type":"VEC3"
		},
		{
			"bufferView":25,
			"componentType":5126,
			"count":28,
			"type":"VEC3"
		},
		{
			"bufferView":26,
			"componentType":5126,
			"count":28,
			"type":"VEC2"
		},
		{
			"bufferView":27,
			"componentType":5123,
			"count":54,
			"type":"SCALAR"
		},
		{
			"bufferView":28,
			"componentType":5126,
			"count":34,
			"max":[
				24,
				-5.5,
				24
			],
			"min":[
				-14,
				-10,
				-14
			],
			"type":"VEC3"
		},
		{
			"bufferView":29,
			"componentType":5126,
			"count":34,
			"type":"VEC3"
		},
		{
			"bufferView":30,
			"componentType":5126,
			"count":34,
			"type":"VEC2"
		},
		{
			"bufferView":31,
			"componentType":5123,
			"count":54,
			"type":"SCALAR"
		},
		{
			"bufferView":32,
			"componentType":5126,
			"count":34,
			"max":[
				18,
				-5.5,
				18
			],
			"min":[
				-8,
				-10,
				-8
			],
			"type":"VEC3"
		},
		{
			"bufferView":33,
			"componentType":5126,
			"count":34,
			"type":"VEC3"
		},
		{
			"bufferView":34,
			"componentType":5126,
			"count":34,
			"type":"VEC2"
		},
		{
			"bufferView":35,
			"componentType":5123,
			"count":78,
			"type":"SCALAR"
		},
		{
			"bufferView":36,
			"componentType":5126,
			"count":16,
			"max":[
				8,
				-1,
				8
			],
			"min":[
				2,
				-2.5,
				2
			],
			"type":"VEC3"
		},
		{
			"bufferView":37,
			"componentType":5126,
			"count":16,
			"type":"VEC3"
		},
		{
			"bufferView":38,
			"componentType":5126,
			"count":16,
			"type":"VEC2"
		},
		{
			"bufferView":39,
			"componentType":5123,
			"count":24,
			"type":"SCALAR"
		}
	],
	"bufferViews":[
		{
			"buffer":0,
			"byteLength":1848,
			"byteOffset":0,
			"target":34962
		},
		{
			"buffer":0,
			"byteLength":1848,
			"byteOffset":1848,
			"target":34962
		},
		{
			"buffer":0,
			"byteLength":1232,
			"byteOffset":3696,
			"target":34962
		},
		{
			"buffer":0,
			"byteLength":768,
			"byteOffset":4928,
			"target":34963
		},
		{
			"buffer":0,
			"byteLength":1560,
			"byteOffset":5696,
			"target":34962
		},
		{
			"buffer":0,
			"byteLength":1560,
			"byteOffset":7256,
			"target":34962
		},
		{
			"buffer":0,
			"byteLength":1040,
			"byteOffset":8816,
			"target":34962
		},
		{
			"buffer":0,
			"byteLength":504,
			"byteOffset":9856,
			"target":34963
		},
		{
			"buffer":0,
			"byteLength":2520,
			"byteOffset":10360,
			"target":34962
		},
		{
			"buffer":0,
			"byteLength":2520,
			"byteOffset":12880,
			"target":34962
		},
		{
			"buffer":0,
			"byteLength":1680,
			"byteOffset":15400,
			"target":34962
		},
		{
			"buffer":0,
			"byteLength":852,
			"byteOffset":17080,
			"target":34963
		},
		{
			"buffer":0,
			"byteLength":336,
			"byteOffset":17932,
			"target":34962
		},
		{
			"buffer":0,
			"byteLength":336,
			"byteOffset":18268,
			"target":34962
		},
		{
			"buffer":0,
			"byteLength":224,
			"byteOffset":18604,
			"target":34962
		},
		{
			"buffer":0,
			"byteLength":120,
			"byteOffset":18828,
			"target":34963
		},
		{
			"buffer":0,
			"byteLength":192,
			"byteOffset":18948,
			"target":34962
		},
		{
			"buffer":0,
			"byteLength":192,
			"byteOffset":19140,
			"target":34962
		},
		{
			"buffer":0,
			"byteLength":128,
			"byteOffset":19332,
			"target":34962
		},
		{
			"buffer":0,
			"byteLength":48,
			"byteOffset":19460,
			"target":34963
		},
		{
			"buffer":0,
			"byteLength":384,
			"byteOffset":19508,
			"target":34962
		},
		{
			"buffer":0,
			"byteLength":384,
			"byteOffset":19892,
			"target":34962
		},
		{
			"buffer":0,
			"byteLength":256,
			"byteOffset":20276,
			"target":34962
		},
		{
			"buffer":0,
			"byteLength":192,
			"byteOffset":20532,
			"target":34963
		},
		{
			"buffer":0,
			"byteLength":336,
			"byteOffset":20724,
			"target":34962
		},
		{
			"buffer":0,
			"byteLength":336,
			"byteOffset":21060,
			"target":34962
		},
		{
			"buffer":0,
			"byteLength":224,
			"byteOffset":21396,
			"target":34962
		},
		{
			"buffer":0,
			"byteLength":108,
			"byteOffset":21620,
			"target":34963
		},
		{
			"buffer":0,
			"byteLength":408,
			"byteOffset":21728,
			"target":34962
		},
		{
			"buffer":0,
			"byteLength":408,
			"byteOffset":22136,
			"target":34962
		},
		{
			"buffer":0,
			"byteLength":272,
			"byteOffset":22544,
			"target":34962
		},
		{
			"buffer":0,
			"byteLength":108,
			"byteOffset":22816,
			"target":34963
		},
		{
			"buffer":0,
			"byteLength":408,
			"byteOffset":22924,
			"target":34962
		},
		{
			"buffer":0,
			"byteLength":408,
			"byteOffset":23332,
			"target":34962
		},
		{
			"buffer":0,
			"byteLength":272,
			"byteOffset":23740,
			"target":34962
		},
		{
			"buffer":0,
			"byteLength":156,
			"byteOffset":24012,
			"target":34963
		},
		{
			"buffer":0,
			"byteLength":192,
			"byteOffset":24168,
			"target":34962
		},
		{
			"buffer":0,
			"byteLength":192,
			"byteOffset":24360,
			"target":34962
		},
		{
			"buffer":0,
			"byteLength":128,
			"byteOffset":24552,
			"target":34962
		},
		{
			"buffer":0,
			"byteLength":48,
			"byteOffset":24680,
			"target":34963
		}
	],
	"buffers":[
		{
			"byteLength":24728,
			"uri":"ccbase1.bin"
		}
	]
}
