{
	"asset":{
		"generator":"Khronos glTF Blender I/O v4.5.48",
		"version":"2.0"
	},
	"scene":0,
	"scenes":[
		{
			"name":"Scene",
			"nodes":[
				0
			]
		}
	],
	"nodes":[
		{
			"mesh":0,
			"name":"Object"
		}
	],
	"materials":[
		{
			"doubleSided":true,
			"name":"DS_IWAL01",
			"pbrMetallicRoughness":{
				"baseColorFactor":[
					0.800000011920929,
					0.800000011920929,
					0.800000011920929,
					1
				],
				"metallicFactor":0,
				"roughnessFactor":0.5
			}
		},
		{
			"doubleSided":true,
			"name":"DS_IFLO01",
			"pbrMetallicRoughness":{
				"baseColorFactor":[
					0.800000011920929,
					0.800000011920929,
					0.800000011920929,
					1
				],
				"metallicFactor":0,
				"roughnessFactor":0.5
			}
		},
		{
			"doubleSided":true,
			"name":"DS_ILIG03",
			"pbrMetallicRoughness":{
				"baseColorFactor":[
					0.800000011920929,
					0.800000011920929,
					0.800000011920929,
					1
				],
				"metallicFactor":0,
				"roughnessFactor":0.5
			}
		},
		{
			"doubleSided":true,
			"name":"DS_IWAL01A",
			"pbrMetallicRoughness":{
				"baseColorFactor":[
					0.800000011920929,
					0.800000011920929,
					0.800000011920929,
					1
				],
				"metallicFactor":0,
				"roughnessFactor":0.5
			}
		},
		{
			"doubleSided":true,
			"name":"DS_TECHWALL_2",
			"pbrMetallicRoughness":{
				"baseColorFactor":[
					0.800000011920929,
					0.800000011920929,
					0.800000011920929,
					1
				],
				"metallicFactor":0,
				"roughnessFactor":0.5
			}
		},
		{
			"doubleSided":true,
			"name":"DS_EWALL03",
			"pbrMetallicRoughness":{
				"baseColorFactor":[
					0.800000011920929,
					0.800000011920929,
					0.800000011920929,
					1
				],
				"metallicFactor":0,
				"roughnessFactor":0.5
			}
		},
		{
			"doubleSided":true,
			"name":"DS_ICHUTE01",
			"pbrMetallicRoughness":{
				"baseColorFactor":[
					0.800000011920929,
					0.800000011920929,
					0.800000011920929,
					1
				],
				"metallicFactor":0,
				"roughnessFactor":0.5
			}
		},
		{
			"doubleSided":true,
			"name":"DS_IHACEI01",
			"pbrMetallicRoughness":{
				"baseColorFactor":[
					0.800000011920929,
					0.800000011920929,
					0.800000011920929,
					1
				],
				"metallicFactor":0,
				"roughnessFactor":0.5
			}
		},
		{
			"doubleSided":true,
			"name":"DS_EWALL06",
			"pbrMetallicRoughness":{
				"baseColorFactor":[
					0.800000011920929,
					0.800000011920929,
					0.800000011920929,
					1
				],
				"metallicFactor":0,
				"roughnessFactor":0.5
			}
		},
		{
			"doubleSided":true,
			"name":"DS_ILIG04",
			"pbrMetallicRoughness":{
				"baseColorFactor":[
					0.800000011920929,
					0.800000011920929,
					0.800000011920929,
					1
				],
				"metallicFactor":0,
				"roughnessFactor":0.5
			}
		},
		{
			"doubleSided":true,
			"name":"DS_EWAL01BASE",
			"pbrMetallicRoughness":{
				"baseColorFactor":[
					0.800000011920929,
					0.800000011920929,
					0.800000011920929,
					1
				],
				"metallicFactor":0,
				"roughnessFactor":0.5
			}
		},
		{
			"doubleSided":true,
			"name":"DS_GENFLOOR",
			"pbrMetallicRoughness":{
				"baseColorFactor":[
					0.800000011920929,
					0.800000011920929,
					0.800000011920929,
					1
				],
				"metallicFactor":0,
				"roughnessFactor":0.5
			}
		},
		{
			"doubleSided":true,
			"name":"DS_ILIG02",
			"pbrMetallicRoughness":{
				"baseColorFactor":[
					0.800000011920929,
					0.800000011920929,
					0.800000011920929,
					1
				],
				"metallicFactor":0,
				"roughnessFactor":0.5
			}
		}
	],
	"meshes":[
		{
			"name":"Mesh",
			"primitives":[
				{
					"attributes":{
						"POSITION":0,
						"NORMAL":1,
						"TEXCOORD_0":2
					},
					"indices":3,
					"material":0
				},
				{
					"attributes":{
						"POSITION":4,
						"NORMAL":5,
						"TEXCOORD_0":6
					},
					"indices":7,
					"material":1
				},
				{
					"attributes":{
						"POSITION":8,
						"NORMAL":9,
						"TEXCOORD_0":10
					},
					"indices":11,
					"material":2
				},
				{
					"attributes":{
						"POSITION":12,
						"NORMAL":13,
						"TEXCOORD_0":14
					},
					"indices":15,
					"material":3
				},
				{
					"attributes":{
						"POSITION":16,
						"NORMAL":17,
						"TEXCOORD_0":18
					},
					"indices":19,
					"material":4
				},
				{
					"attributes":{
						"POSITION":20,
						"NORMAL":21,
						"TEXCOORD_0":22
					},
					"indices":23,
					"material":5
				},
				{
					"attributes":{
						"POSITION":24,
						"NORMAL":25,
						"TEXCOORD_0":26
					},
					"indices":27,
					"material":6
				},
				{
					"attributes":{
						"POSITION":28,
						"NORMAL":29,
						"TEXCOORD_0":30
					},
					"indices":31,
					"material":7
				},
				{
					"attributes":{
						"POSITION":32,
						"NORMAL":33,
						"TEXCOORD_0":34
					},
					"indices":35,
					"material":8
				},
				{
					"attributes":{
						"POSITION":36,
						"NORMAL":37,
						"TEXCOORD_0":38
					},
					"indices":39,
					"material":9
				},
				{
					"attributes":{
						"POSITION":40,
						"NORMAL":41,
						"TEXCOORD_0":42
					},
					"indices":43,
					"material":10
				},
				{
					"attributes":{
						"POSITION":44,
						"NORMAL":45,
						"TEXCOORD_0":46
					},
					"indices":47,
					"material":11
				},
				{
					"attributes":{
						"POSITION":48,
						"NORMAL":49,
						"TEXCOORD_0":50
					},
					"indices":51,
					"material":12
				}
			]
		}
	],
	"accessors":[
		{
			"bufferView":0,
			"componentType":5126,
			"count":193,
			"max":[
				10.84375,
				-3.75,
				27.125
			],
			"min":[
				-21.011940002441406,
				-16.426410675048828,
				3
			],
			"type":"VEC3"
		},
		{
			"bufferView":1,
			"componentType":5126,
			"count":193,
			"type":"VEC3"
		},
		{
			"bufferView":2,
			"componentType":5126,
			"count":193,
			"type":"VEC2"
		},
		{
			"bufferView":3,
			"componentType":5123,
			"count":513,
			"type":"SCALAR"
		},
		{
			"bufferView":4,
			"componentType":5126,
			"count":177,
			"max":[
				3.3125,
				-11.21875,
				17.75
			],
			"min":[
				-20.875,
				-19,
				3
			],
			"type":"VEC3"
		},
		{
			"bufferView":5,
			"componentType":5126,
			"count":177,
			"type":"VEC3"
		},
		{
			"bufferView":6,
			"componentType":5126,
			"count":177,
			"type":"VEC2"
		},
		{
			"bufferView":7,
			"componentType":5123,
			"count":327,
			"type":"SCALAR"
		},
		{
			"bufferView":8,
			"componentType":5126,
			"count":136,
			"max":[
				3,
				-5.65625,
				17.4375
			],
			"min":[
				-20.5625,
				-13.03125,
				3.3125
			],
			"type":"VEC3"
		},
		{
			"bufferView":9,
			"componentType":5126,
			"count":136,
			"type":"VEC3"
		},
		{
			"bufferView":10,
			"componentType":5126,
			"count":136,
			"type":"VEC2"
		},
		{
			"bufferView":11,
			"componentType":5123,
			"count":204,
			"type":"SCALAR"
		},
		{
			"bufferView":12,
			"componentType":5126,
			"count":18,
			"max":[
				9.3125,
				-10.125,
				26.75
			],
			"min":[
				-9.5,
				-19,
				10
			],
			"type":"VEC3"
		},
		{
			"bufferView":13,
			"componentType":5126,
			"count":18,
			"type":"VEC3"
		},
		{
			"bufferView":14,
			"componentType":5126,
			"count":18,
			"type":"VEC2"
		},
		{
			"bufferView":15,
			"componentType":5123,
			"count":36,
			"type":"SCALAR"
		},
		{
			"bufferView":16,
			"componentType":5126,
			"count":117,
			"max":[
				10.3125,
				-4.75,
				26.75
			],
			"min":[
				-23.3125,
				-11.21875,
				2
			],
			"type":"VEC3"
		},
		{
			"bufferView":17,
			"componentType":5126,
			"count":117,
			"type":"VEC3"
		},
		{
			"bufferView":18,
			"componentType":5126,
			"count":117,
			"type":"VEC2"
		},
		{
			"bufferView":19,
			"componentType":5123,
			"count":315,
			"type":"SCALAR"
		},
		{
			"bufferView":20,
			"componentType":5126,
			"count":96,
			"max":[
				9.3125,
				-4.75,
				26.75
			],
			"min":[
				-16.4375,
				-19,
				8.8125
			],
			"type":"VEC3"
		},
		{
			"bufferView":21,
			"componentType":5126,
			"count":96,
			"type":"VEC3"
		},
		{
			"bufferView":22,
			"componentType":5126,
			"count":96,
			"type":"VEC2"
		},
		{
			"bufferView":23,
			"componentType":5123,
			"count":240,
			"type":"SCALAR"
		},
		{
			"bufferView":24,
			"componentType":5126,
			"count":25,
			"max":[
				12,
				-3.75,
				27.125
			],
			"min":[
				-23.53125,
				-10.125,
				3.15625
			],
			"type":"VEC3"
		},
		{
			"bufferView":25,
			"componentType":5126,
			"count":25,
			"type":"VEC3"
		},
		{
			"bufferView":26,
			"componentType":5126,
			"count":25,
			"type":"VEC2"
		},
		{
			"bufferView":27,
			"componentType":5123,
			"count":51,
			"type":"SCALAR"
		},
		{
			"bufferView":28,
			"componentType":5126,
			"count":95,
			"max":[
				9.3125,
				-10.125,
				27.125
			],
			"min":[
				-20.875,
				-19.375,
				3
			],
			"type":"VEC3"
		},
		{
			"bufferView":29,
			"componentType":5126,
			"count":95,
			"type":"VEC3"
		},
		{
			"bufferView":30,
			"componentType":5126,
			"count":95,
			"type":"VEC2"
		},
		{
			"bufferView":31,
			"componentType":5123,
			"count":249,
			"type":"SCALAR"
		},
		{
			"bufferView":32,
			"componentType":5126,
			"count":288,
			"max":[
				12,
				-3.75,
				27.125
			],
			"min":[
				-25,
				-19.375,
				2
			],
			"type":"VEC3"
		},
		{
			"bufferView":33,
			"componentType":5126,
			"count":288,
			"type":"VEC3"
		},
		{
			"bufferView":34,
			"componentType":5126,
			"count":288,
			"type":"VEC2"
		},
		{
			"bufferView":35,
			"componentType":5123,
			"count":552,
			"type":"SCALAR"
		},
		{
			"bufferView":36,
			"componentType":5126,
			"count":20,
			"max":[
				10.3125,
				-8.0625,
				26.75
			],
			"min":[
				-23.3125,
				-8.5,
				3.6875
			],
			"type":"VEC3"
		},
		{
			"bufferView":37,
			"componentType":5126,
			"count":20,
			"type":"VEC3"
		},
		{
			"bufferView":38,
			"componentType":5126,
			"count":20,
			"type":"VEC2"
		},
		{
			"bufferView":39,
			"componentType":5123,
			"count":36,
			"type":"SCALAR"
		},
		{
			"bufferView":40,
			"componentType":5126,
			"count":144,
			"max":[
				-2.25,
				-4.75,
				9.625
			],
			"min":[
				-10.75,
				-10,
				8
			],
			"type":"VEC3"
		},
		{
			"bufferView":41,
			"componentType":5126,
			"count":144,
			"type":"VEC3"
		},
		{
			"bufferView":42,
			"componentType":5126,
			"count":144,
			"type":"VEC2"
		},
		{
			"bufferView":43,
			"componentType":5123,
			"count":312,
			"type":"SCALAR"
		},
		{
			"bufferView":44,
			"componentType":5126,
			"count":14,
			"max":[
				-2.25,
				-10,
				9.625
			],
			"min":[
				-10.75,
				-10,
				8
			],
			"type":"VEC3"
		},
		{
			"bufferView":45,
			"componentType":5126,
			"count":14,
			"type":"VEC3"
		},
		{
			"bufferView":46,
			"componentType":5126,
			"count":14,
			"type":"VEC2"
		},
		{
			"bufferView":47,
			"componentType":5123,
			"count":30,
			"type":"SCALAR"
		},
		{
			"bufferView":48,
			"componentType":5126,
			"count":6,
			"max":[
				-9.5,
				-10.25,
				19.3125
			],
			"min":[
				-20.875,
				-11.21875,
				17.75
			],
			"type":"VEC3"
		},
		{
			"bufferView":49,
			"componentType":5126,
			"count":6,
			"type":"VEC3"
		},
		{
			"bufferView":50,
			"componentType":5126,
			"count":6,
			"type":"VEC2"
		},
		{
			"bufferView":51,
			"componentType":5123,
			"count":12,
			"type":"SCALAR"
		}
	],
	"bufferViews":[
		{
			"buffer":0,
			"byteLength":2316,
			"byteOffset":0,
			"target":34962
		},
		{
			"buffer":0,
			"byteLength":2316,
			"byteOffset":2316,
			"target":34962
		},
		{
			"buffer":0,
			"byteLength":1544,
			"byteOffset":4632,
			"target":34962
		},
		{
			"buffer":0,
			"byteLength":1026,
			"byteOffset":6176,
			"target":34963
		},
		{
			"buffer":0,
			"byteLength":2124,
			"byteOffset":7204,
			"target":34962
		},
		{
			"buffer":0,
			"byteLength":2124,
			"byteOffset":9328,
			"target":34962
		},
		{
			"buffer":0,
			"byteLength":1416,
			"byteOffset":11452,
			"target":34962
		},
		{
			"buffer":0,
			"byteLength":654,
			"byteOffset":12868,
			"target":34963
		},
		{
			"buffer":0,
			"byteLength":1632,
			"byteOffset":13524,
			"target":34962
		},
		{
			"buffer":0,
			"byteLength":1632,
			"byteOffset":15156,
			"target":34962
		},
		{
			"buffer":0,
			"byteLength":1088,
			"byteOffset":16788,
			"target":34962
		},
		{
			"buffer":0,
			"byteLength":408,
			"byteOffset":17876,
			"target":34963
		},
		{
			"buffer":0,
			"byteLength":216,
			"byteOffset":18284,
			"target":34962
		},
		{
			"buffer":0,
			"byteLength":216,
			"byteOffset":18500,
			"target":34962
		},
		{
			"buffer":0,
			"byteLength":144,
			"byteOffset":18716,
			"target":34962
		},
		{
			"buffer":0,
			"byteLength":72,
			"byteOffset":18860,
			"target":34963
		},
		{
			"buffer":0,
			"byteLength":1404,
			"byteOffset":18932,
			"target":34962
		},
		{
			"buffer":0,
			"byteLength":1404,
			"byteOffset":20336,
			"target":34962
		},
		{
			"buffer":0,
			"byteLength":936,
			"byteOffset":21740,
			"target":34962
		},
		{
			"buffer":0,
			"byteLength":630,
			"byteOffset":22676,
			"target":34963
		},
		{
			"buffer":0,
			"byteLength":1152,
			"byteOffset":23308,
			"target":34962
		},
		{
			"buffer":0,
			"byteLength":1152,
			"byteOffset":24460,
			"target":34962
		},
		{
			"buffer":0,
			"byteLength":768,
			"byteOffset":25612,
			"target":34962
		},
		{
			"buffer":0,
			"byteLength":480,
			"byteOffset":26380,
			"target":34963
		},
		{
			"buffer":0,
			"byteLength":300,
			"byteOffset":26860,
			"target":34962
		},
		{
			"buffer":0,
			"byteLength":300,
			"byteOffset":27160,
			"target":34962
		},
		{
			"buffer":0,
			"byteLength":200,
			"byteOffset":27460,
			"target":34962
		},
		{
			"buffer":0,
			"byteLength":102,
			"byteOffset":27660,
			"target":34963
		},
		{
			"buffer":0,
			"byteLength":1140,
			"byteOffset":27764,
			"target":34962
		},
		{
			"buffer":0,
			"byteLength":1140,
			"byteOffset":28904,
			"target":34962
		},
		{
			"buffer":0,
			"byteLength":760,
			"byteOffset":30044,
			"target":34962
		},
		{
			"buffer":0,
			"byteLength":498,
			"byteOffset":30804,
			"target":34963
		},
		{
			"buffer":0,
			"byteLength":3456,
			"byteOffset":31304,
			"target":34962
		},
		{
			"buffer":0,
			"byteLength":3456,
			"byteOffset":34760,
			"target":34962
		},
		{
			"buffer":0,
			"byteLength":2304,
			"byteOffset":38216,
			"target":34962
		},
		{
			"buffer":0,
			"byteLength":1104,
			"byteOffset":40520,
			"target":34963
		},
		{
			"buffer":0,
			"byteLength":240,
			"byteOffset":41624,
			"target":34962
		},
		{
			"buffer":0,
			"byteLength":240,
			"byteOffset":41864,
			"target":34962
		},
		{
			"buffer":0,
			"byteLength":160,
			"byteOffset":42104,
			"target":34962
		},
		{
			"buffer":0,
			"byteLength":72,
			"byteOffset":42264,
			"target":34963
		},
		{
			"buffer":0,
			"byteLength":1728,
			"byteOffset":42336,
			"target":34962
		},
		{
			"buffer":0,
			"byteLength":1728,
			"byteOffset":44064,
			"target":34962
		},
		{
			"buffer":0,
			"byteLength":1152,
			"byteOffset":45792,
			"target":34962
		},
		{
			"buffer":0,
			"byteLength":624,
			"byteOffset":46944,
			"target":34963
		},
		{
			"buffer":0,
			"byteLength":168,
			"byteOffset":47568,
			"target":34962
		},
		{
			"buffer":0,
			"byteLength":168,
			"byteOffset":47736,
			"target":34962
		},
		{
			"buffer":0,
			"byteLength":112,
			"byteOffset":47904,
			"target":34962
		},
		{
			"buffer":0,
			"byteLength":60,
			"byteOffset":48016,
			"target":34963
		},
		{
			"buffer":0,
			"byteLength":72,
			"byteOffset":48076,
			"target":34962
		},
		{
			"buffer":0,
			"byteLength":72,
			"byteOffset":48148,
			"target":34962
		},
		{
			"buffer":0,
			"byteLength":48,
			"byteOffset":48220,
			"target":34962
		},
		{
			"buffer":0,
			"byteLength":24,
			"byteOffset":48268,
			"target":34963
		}
	],
	"buffers":[
		{
			"byteLength":48292,
			"uri":"ccbase2.bin"
		}
	]
}
