{
	"asset":{
		"generator":"Khronos glTF Blender I/O v4.5.48",
		"version":"2.0"
	},
	"scene":0,
	"scenes":[
		{
			"name":"Scene",
			"nodes":[
				0
			]
		}
	],
	"nodes":[
		{
			"mesh":0,
			"name":"Object"
		}
	],
	"materials":[
		{
			"doubleSided":true,
			"name":"DS_EWALL06",
			"pbrMetallicRoughness":{
				"baseColorFactor":[
					0.800000011920929,
					0.800000011920929,
					0.800000011920929,
					1
				],
				"metallicFactor":0,
				"roughnessFactor":0.5
			}
		},
		{
			"doubleSided":true,
			"name":"DS_GENWALL",
			"pbrMetallicRoughness":{
				"baseColorFactor":[
					0.800000011920929,
					0.800000011920929,
					0.800000011920929,
					1
				],
				"metallicFactor":0,
				"roughnessFactor":0.5
			}
		},
		{
			"doubleSided":true,
			"name":"DS_IWAL01A",
			"pbrMetallicRoughness":{
				"baseColorFactor":[
					0.800000011920929,
					0.800000011920929,
					0.800000011920929,
					1
				],
				"metallicFactor":0,
				"roughnessFactor":0.5
			}
		}
	],
	"meshes":[
		{
			"name":"Mesh",
			"primitives":[
				{
					"attributes":{
						"POSITION":0,
						"NORMAL":1,
						"TEXCOORD_0":2
					},
					"indices":3,
					"material":0
				},
				{
					"attributes":{
						"POSITION":4,
						"NORMAL":5,
						"TEXCOORD_0":6
					},
					"indices":7,
					"material":1
				},
				{
					"attributes":{
						"POSITION":8,
						"NORMAL":9,
						"TEXCOORD_0":10
					},
					"indices":11,
					"material":2
				}
			]
		}
	],
	"accessors":[
		{
			"bufferView":0,
			"componentType":5126,
			"count":507,
			"max":[
				28.09375,
				-5.09375,
				28.0625
			],
			"min":[
				-28.125,
				-8,
				-28.114456176757812
			],
			"type":"VEC3"
		},
		{
			"bufferView":1,
			"componentType":5126,
			"count":507,
			"type":"VEC3"
		},
		{
			"bufferView":2,
			"componentType":5126,
			"count":507,
			"type":"VEC2"
		},
		{
			"bufferView":3,
			"componentType":5123,
			"count":1209,
			"type":"SCALAR"
		},
		{
			"bufferView":4,
			"componentType":5126,
			"count":226,
			"max":[
				28.09375,
				-5.09375,
				34.625
			],
			"min":[
				-28.125,
				-8,
				-28.114456176757812
			],
			"type":"VEC3"
		},
		{
			"bufferView":5,
			"componentType":5126,
			"count":226,
			"type":"VEC3"
		},
		{
			"bufferView":6,
			"componentType":5126,
			"count":226,
			"type":"VEC2"
		},
		{
			"bufferView":7,
			"componentType":5123,
			"count":477,
			"type":"SCALAR"
		},
		{
			"bufferView":8,
			"componentType":5126,
			"count":24,
			"max":[
				23.46206283569336,
				-6.90625,
				21.647193908691406
			],
			"min":[
				-23.4375,
				-6.90625,
				-23.61846923828125
			],
			"type":"VEC3"
		},
		{
			"bufferView":9,
			"componentType":5126,
			"count":24,
			"type":"VEC3"
		},
		{
			"bufferView":10,
			"componentType":5126,
			"count":24,
			"type":"VEC2"
		},
		{
			"bufferView":11,
			"componentType":5123,
			"count":78,
			"type":"SCALAR"
		}
	],
	"bufferViews":[
		{
			"buffer":0,
			"byteLength":6084,
			"byteOffset":0,
			"target":34962
		},
		{
			"buffer":0,
			"byteLength":6084,
			"byteOffset":6084,
			"target":34962
		},
		{
			"buffer":0,
			"byteLength":4056,
			"byteOffset":12168,
			"target":34962
		},
		{
			"buffer":0,
			"byteLength":2418,
			"byteOffset":16224,
			"target":34963
		},
		{
			"buffer":0,
			"byteLength":2712,
			"byteOffset":18644,
			"target":34962
		},
		{
			"buffer":0,
			"byteLength":2712,
			"byteOffset":21356,
			"target":34962
		},
		{
			"buffer":0,
			"byteLength":1808,
			"byteOffset":24068,
			"target":34962
		},
		{
			"buffer":0,
			"byteLength":954,
			"byteOffset":25876,
			"target":34963
		},
		{
			"buffer":0,
			"byteLength":288,
			"byteOffset":26832,
			"target":34962
		},
		{
			"buffer":0,
			"byteLength":288,
			"byteOffset":27120,
			"target":34962
		},
		{
			"buffer":0,
			"byteLength":192,
			"byteOffset":27408,
			"target":34962
		},
		{
			"buffer":0,
			"byteLength":156,
			"byteOffset":27600,
			"target":34963
		}
	],
	"buffers":[
		{
			"byteLength":27756,
			"uri":"ccflagstand.bin"
		}
	]
}
