{
	"asset":{
		"generator":"Khronos glTF Blender I/O v4.5.48",
		"version":"2.0"
	},
	"scene":0,
	"scenes":[
		{
			"name":"Scene",
			"nodes":[
				0
			]
		}
	],
	"nodes":[
		{
			"mesh":0,
			"name":"Object"
		}
	],
	"materials":[
		{
			"doubleSided":true,
			"name":"DS_GENWALL",
			"pbrMetallicRoughness":{
				"baseColorFactor":[
					0.800000011920929,
					0.800000011920929,
					0.800000011920929,
					1
				],
				"metallicFactor":0,
				"roughnessFactor":0.5
			}
		},
		{
			"doubleSided":true,
			"name":"DS_IFLO04",
			"pbrMetallicRoughness":{
				"baseColorFactor":[
					0.800000011920929,
					0.800000011920929,
					0.800000011920929,
					1
				],
				"metallicFactor":0,
				"roughnessFactor":0.5
			}
		},
		{
			"doubleSided":true,
			"name":"DS_IFLO01",
			"pbrMetallicRoughness":{
				"baseColorFactor":[
					0.800000011920929,
					0.800000011920929,
					0.800000011920929,
					1
				],
				"metallicFactor":0,
				"roughnessFactor":0.5
			}
		},
		{
			"doubleSided":true,
			"name":"DS_ILIG02",
			"pbrMetallicRoughness":{
				"baseColorFactor":[
					0.800000011920929,
					0.800000011920929,
					0.800000011920929,
					1
				],
				"metallicFactor":0,
				"roughnessFactor":0.5
			}
		},
		{
			"doubleSided":true,
			"name":"DS_ILIG04",
			"pbrMetallicRoughness":{
				"baseColorFactor":[
					0.800000011920929,
					0.800000011920929,
					0.800000011920929,
					1
				],
				"metallicFactor":0,
				"roughnessFactor":0.5
			}
		},
		{
			"doubleSided":true,
			"name":"DS_ALARM",
			"pbrMetallicRoughness":{
				"baseColorFactor":[
					0.800000011920929,
					0.800000011920929,
					0.800000011920929,
					1
				],
				"metallicFactor":0,
				"roughnessFactor":0.5
			}
		}
	],
	"meshes":[
		{
			"name":"Mesh",
			"primitives":[
				{
					"attributes":{
						"POSITION":0,
						"NORMAL":1,
						"TEXCOORD_0":2
					},
					"indices":3,
					"material":0
				},
				{
					"attributes":{
						"POSITION":4,
						"NORMAL":5,
						"TEXCOORD_0":6
					},
					"indices":7,
					"material":1
				},
				{
					"attributes":{
						"POSITION":8,
						"NORMAL":9,
						"TEXCOORD_0":10
					},
					"indices":11,
					"material":2
				},
				{
					"attributes":{
						"POSITION":12,
						"NORMAL":13,
						"TEXCOORD_0":14
					},
					"indices":15,
					"material":3
				},
				{
					"attributes":{
						"POSITION":16,
						"NORMAL":17,
						"TEXCOORD_0":18
					},
					"indices":19,
					"material":4
				},
				{
					"attributes":{
						"POSITION":20,
						"NORMAL":21,
						"TEXCOORD_0":22
					},
					"indices":23,
					"material":5
				}
			]
		}
	],
	"accessors":[
		{
			"bufferView":0,
			"componentType":5126,
			"count":102,
			"max":[
				-6,
				33,
				-6
			],
			"min":[
				-10,
				-5,
				-10
			],
			"type":"VEC3"
		},
		{
			"bufferView":1,
			"componentType":5126,
			"count":102,
			"type":"VEC3"
		},
		{
			"bufferView":2,
			"componentType":5126,
			"count":102,
			"type":"VEC2"
		},
		{
			"bufferView":3,
			"componentType":5123,
			"count":270,
			"type":"SCALAR"
		},
		{
			"bufferView":4,
			"componentType":5126,
			"count":12,
			"max":[
				-1.625,
				16,
				-1.625
			],
			"min":[
				-14.375,
				16,
				-14.375
			],
			"type":"VEC3"
		},
		{
			"bufferView":5,
			"componentType":5126,
			"count":12,
			"type":"VEC3"
		},
		{
			"bufferView":6,
			"componentType":5126,
			"count":12,
			"type":"VEC2"
		},
		{
			"bufferView":7,
			"componentType":5123,
			"count":36,
			"type":"SCALAR"
		},
		{
			"bufferView":8,
			"componentType":5126,
			"count":104,
			"max":[
				2.220446049250313e-15,
				23,
				2.220446049250313e-15
			],
			"min":[
				-16,
				-8,
				-16
			],
			"type":"VEC3"
		},
		{
			"bufferView":9,
			"componentType":5126,
			"count":104,
			"type":"VEC3"
		},
		{
			"bufferView":10,
			"componentType":5126,
			"count":104,
			"type":"VEC2"
		},
		{
			"bufferView":11,
			"componentType":5123,
			"count":192,
			"type":"SCALAR"
		},
		{
			"bufferView":12,
			"componentType":5126,
			"count":40,
			"max":[
				-6,
				27.75,
				-6
			],
			"min":[
				-10,
				13.25,
				-10
			],
			"type":"VEC3"
		},
		{
			"bufferView":13,
			"componentType":5126,
			"count":40,
			"type":"VEC3"
		},
		{
			"bufferView":14,
			"componentType":5126,
			"count":40,
			"type":"VEC2"
		},
		{
			"bufferView":15,
			"componentType":5123,
			"count":72,
			"type":"SCALAR"
		},
		{
			"bufferView":16,
			"componentType":5126,
			"count":16,
			"max":[
				-5.25,
				-2.4375,
				-5.25
			],
			"min":[
				-10.75,
				-5,
				-10.75
			],
			"type":"VEC3"
		},
		{
			"bufferView":17,
			"componentType":5126,
			"count":16,
			"type":"VEC3"
		},
		{
			"bufferView":18,
			"componentType":5126,
			"count":16,
			"type":"VEC2"
		},
		{
			"bufferView":19,
			"componentType":5123,
			"count":24,
			"type":"SCALAR"
		},
		{
			"bufferView":20,
			"componentType":5126,
			"count":20,
			"max":[
				-7.75,
				34.5,
				-8.375
			],
			"min":[
				-8.25,
				33,
				-8.875
			],
			"type":"VEC3"
		},
		{
			"bufferView":21,
			"componentType":5126,
			"count":20,
			"type":"VEC3"
		},
		{
			"bufferView":22,
			"componentType":5126,
			"count":20,
			"type":"VEC2"
		},
		{
			"bufferView":23,
			"componentType":5123,
			"count":30,
			"type":"SCALAR"
		}
	],
	"bufferViews":[
		{
			"buffer":0,
			"byteLength":1224,
			"byteOffset":0,
			"target":34962
		},
		{
			"buffer":0,
			"byteLength":1224,
			"byteOffset":1224,
			"target":34962
		},
		{
			"buffer":0,
			"byteLength":816,
			"byteOffset":2448,
			"target":34962
		},
		{
			"buffer":0,
			"byteLength":540,
			"byteOffset":3264,
			"target":34963
		},
		{
			"buffer":0,
			"byteLength":144,
			"byteOffset":3804,
			"target":34962
		},
		{
			"buffer":0,
			"byteLength":144,
			"byteOffset":3948,
			"target":34962
		},
		{
			"buffer":0,
			"byteLength":96,
			"byteOffset":4092,
			"target":34962
		},
		{
			"buffer":0,
			"byteLength":72,
			"byteOffset":4188,
			"target":34963
		},
		{
			"buffer":0,
			"byteLength":1248,
			"byteOffset":4260,
			"target":34962
		},
		{
			"buffer":0,
			"byteLength":1248,
			"byteOffset":5508,
			"target":34962
		},
		{
			"buffer":0,
			"byteLength":832,
			"byteOffset":6756,
			"target":34962
		},
		{
			"buffer":0,
			"byteLength":384,
			"byteOffset":7588,
			"target":34963
		},
		{
			"buffer":0,
			"byteLength":480,
			"byteOffset":7972,
			"target":34962
		},
		{
			"buffer":0,
			"byteLength":480,
			"byteOffset":8452,
			"target":34962
		},
		{
			"buffer":0,
			"byteLength":320,
			"byteOffset":8932,
			"target":34962
		},
		{
			"buffer":0,
			"byteLength":144,
			"byteOffset":9252,
			"target":34963
		},
		{
			"buffer":0,
			"byteLength":192,
			"byteOffset":9396,
			"target":34962
		},
		{
			"buffer":0,
			"byteLength":192,
			"byteOffset":9588,
			"target":34962
		},
		{
			"buffer":0,
			"byteLength":128,
			"byteOffset":9780,
			"target":34962
		},
		{
			"buffer":0,
			"byteLength":48,
			"byteOffset":9908,
			"target":34963
		},
		{
			"buffer":0,
			"byteLength":240,
			"byteOffset":9956,
			"target":34962
		},
		{
			"buffer":0,
			"byteLength":240,
			"byteOffset":10196,
			"target":34962
		},
		{
			"buffer":0,
			"byteLength":160,
			"byteOffset":10436,
			"target":34962
		},
		{
			"buffer":0,
			"byteLength":60,
			"byteOffset":10596,
			"target":34963
		}
	],
	"buffers":[
		{
			"byteLength":10656,
			"uri":"cctower.bin"
		}
	]
}
