{
	"asset":{
		"generator":"Khronos glTF Blender I/O v4.5.48",
		"version":"2.0"
	},
	"scene":0,
	"scenes":[
		{
			"name":"Scene",
			"nodes":[
				0
			]
		}
	],
	"nodes":[
		{
			"mesh":0,
			"name":"Object"
		}
	],
	"materials":[
		{
			"doubleSided":true,
			"name":"DS_EWALL07",
			"pbrMetallicRoughness":{
				"baseColorFactor":[
					0.800000011920929,
					0.800000011920929,
					0.800000011920929,
					1
				],
				"metallicFactor":0,
				"roughnessFactor":0.5
			}
		},
		{
			"doubleSided":true,
			"name":"DS_TECHWALL_3",
			"pbrMetallicRoughness":{
				"baseColorFactor":[
					0.800000011920929,
					0.800000011920929,
					0.800000011920929,
					1
				],
				"metallicFactor":0,
				"roughnessFactor":0.5
			}
		},
		{
			"doubleSided":true,
			"name":"DS_EWALL06",
			"pbrMetallicRoughness":{
				"baseColorFactor":[
					0.800000011920929,
					0.800000011920929,
					0.800000011920929,
					1
				],
				"metallicFactor":0,
				"roughnessFactor":0.5
			}
		},
		{
			"doubleSided":true,
			"name":"DS_ELIG01",
			"pbrMetallicRoughness":{
				"baseColorFactor":[
					0.800000011920929,
					0.800000011920929,
					0.800000011920929,
					1
				],
				"metallicFactor":0,
				"roughnessFactor":0.5
			}
		},
		{
			"doubleSided":true,
			"name":"DS_GENWALL",
			"pbrMetallicRoughness":{
				"baseColorFactor":[
					0.800000011920929,
					0.800000011920929,
					0.800000011920929,
					1
				],
				"metallicFactor":0,
				"roughnessFactor":0.5
			}
		},
		{
			"doubleSided":true,
			"name":"DS_TECHWALL_2",
			"pbrMetallicRoughness":{
				"baseColorFactor":[
					0.800000011920929,
					0.800000011920929,
					0.800000011920929,
					1
				],
				"metallicFactor":0,
				"roughnessFactor":0.5
			}
		},
		{
			"doubleSided":true,
			"name":"DS_IWAL01",
			"pbrMetallicRoughness":{
				"baseColorFactor":[
					0.800000011920929,
					0.800000011920929,
					0.800000011920929,
					1
				],
				"metallicFactor":0,
				"roughnessFactor":0.5
			}
		},
		{
			"doubleSided":true,
			"name":"DS_GENFLOOR",
			"pbrMetallicRoughness":{
				"baseColorFactor":[
					0.800000011920929,
					0.800000011920929,
					0.800000011920929,
					1
				],
				"metallicFactor":0,
				"roughnessFactor":0.5
			}
		},
		{
			"doubleSided":true,
			"name":"DS_JET01",
			"pbrMetallicRoughness":{
				"baseColorFactor":[
					0.800000011920929,
					0.800000011920929,
					0.800000011920929,
					1
				],
				"metallicFactor":0,
				"roughnessFactor":0.5
			}
		},
		{
			"doubleSided":true,
			"name":"DS_ILIG05",
			"pbrMetallicRoughness":{
				"baseColorFactor":[
					0.800000011920929,
					0.800000011920929,
					0.800000011920929,
					1
				],
				"metallicFactor":0,
				"roughnessFactor":0.5
			}
		},
		{
			"doubleSided":true,
			"name":"DS_IFLO04",
			"pbrMetallicRoughness":{
				"baseColorFactor":[
					0.800000011920929,
					0.800000011920929,
					0.800000011920929,
					1
				],
				"metallicFactor":0,
				"roughnessFactor":0.5
			}
		},
		{
			"doubleSided":true,
			"name":"DS_ICEILIG01",
			"pbrMetallicRoughness":{
				"baseColorFactor":[
					0.800000011920929,
					0.800000011920929,
					0.800000011920929,
					1
				],
				"metallicFactor":0,
				"roughnessFactor":0.5
			}
		},
		{
			"doubleSided":true,
			"name":"DS_EWALL05",
			"pbrMetallicRoughness":{
				"baseColorFactor":[
					0.800000011920929,
					0.800000011920929,
					0.800000011920929,
					1
				],
				"metallicFactor":0,
				"roughnessFactor":0.5
			}
		},
		{
			"doubleSided":true,
			"name":"DS_IHACEILIG01",
			"pbrMetallicRoughness":{
				"baseColorFactor":[
					0.800000011920929,
					0.800000011920929,
					0.800000011920929,
					1
				],
				"metallicFactor":0,
				"roughnessFactor":0.5
			}
		},
		{
			"doubleSided":true,
			"name":"DS_TECHBORDER2",
			"pbrMetallicRoughness":{
				"baseColorFactor":[
					0.800000011920929,
					0.800000011920929,
					0.800000011920929,
					1
				],
				"metallicFactor":0,
				"roughnessFactor":0.5
			}
		},
		{
			"doubleSided":true,
			"name":"DS_ALARM",
			"pbrMetallicRoughness":{
				"baseColorFactor":[
					0.800000011920929,
					0.800000011920929,
					0.800000011920929,
					1
				],
				"metallicFactor":0,
				"roughnessFactor":0.5
			}
		}
	],
	"meshes":[
		{
			"name":"Mesh",
			"primitives":[
				{
					"attributes":{
						"POSITION":0,
						"NORMAL":1,
						"TEXCOORD_0":2
					},
					"indices":3,
					"material":0
				},
				{
					"attributes":{
						"POSITION":4,
						"NORMAL":5,
						"TEXCOORD_0":6
					},
					"indices":7,
					"material":1
				},
				{
					"attributes":{
						"POSITION":8,
						"NORMAL":9,
						"TEXCOORD_0":10
					},
					"indices":11,
					"material":2
				},
				{
					"attributes":{
						"POSITION":12,
						"NORMAL":13,
						"TEXCOORD_0":14
					},
					"indices":15,
					"material":3
				},
				{
					"attributes":{
						"POSITION":16,
						"NORMAL":17,
						"TEXCOORD_0":18
					},
					"indices":19,
					"material":4
				},
				{
					"attributes":{
						"POSITION":20,
						"NORMAL":21,
						"TEXCOORD_0":22
					},
					"indices":23,
					"material":5
				},
				{
					"attributes":{
						"POSITION":24,
						"NORMAL":25,
						"TEXCOORD_0":26
					},
					"indices":27,
					"material":6
				},
				{
					"attributes":{
						"POSITION":28,
						"NORMAL":29,
						"TEXCOORD_0":30
					},
					"indices":31,
					"material":7
				},
				{
					"attributes":{
						"POSITION":32,
						"NORMAL":33,
						"TEXCOORD_0":34
					},
					"indices":35,
					"material":8
				},
				{
					"attributes":{
						"POSITION":36,
						"NORMAL":37,
						"TEXCOORD_0":38
					},
					"indices":39,
					"material":9
				},
				{
					"attributes":{
						"POSITION":40,
						"NORMAL":41,
						"TEXCOORD_0":42
					},
					"indices":43,
					"material":10
				},
				{
					"attributes":{
						"POSITION":44,
						"NORMAL":45,
						"TEXCOORD_0":46
					},
					"indices":47,
					"material":11
				},
				{
					"attributes":{
						"POSITION":48,
						"NORMAL":49,
						"TEXCOORD_0":50
					},
					"indices":51,
					"material":12
				},
				{
					"attributes":{
						"POSITION":52,
						"NORMAL":53,
						"TEXCOORD_0":54
					},
					"indices":55,
					"material":13
				},
				{
					"attributes":{
						"POSITION":56,
						"NORMAL":57,
						"TEXCOORD_0":58
					},
					"indices":59,
					"material":14
				},
				{
					"attributes":{
						"POSITION":60,
						"NORMAL":61,
						"TEXCOORD_0":62
					},
					"indices":63,
					"material":15
				}
			]
		}
	],
	"accessors":[
		{
			"bufferView":0,
			"componentType":5126,
			"count":347,
			"max":[
				13.875,
				27.5625,
				20.8125
			],
			"min":[
				-34.84375,
				-7.09375,
				-50.90625
			],
			"type":"VEC3"
		},
		{
			"bufferView":1,
			"componentType":5126,
			"count":347,
			"type":"VEC3"
		},
		{
			"bufferView":2,
			"componentType":5126,
			"count":347,
			"type":"VEC2"
		},
		{
			"bufferView":3,
			"componentType":5123,
			"count":702,
			"type":"SCALAR"
		},
		{
			"bufferView":4,
			"componentType":5126,
			"count":364,
			"max":[
				28.84375,
				15.40625,
				20.8125
			],
			"min":[
				-34.84375,
				-7.09375,
				-52.8125
			],
			"type":"VEC3"
		},
		{
			"bufferView":5,
			"componentType":5126,
			"count":364,
			"type":"VEC3"
		},
		{
			"bufferView":6,
			"componentType":5126,
			"count":364,
			"type":"VEC2"
		},
		{
			"bufferView":7,
			"componentType":5123,
			"count":687,
			"type":"SCALAR"
		},
		{
			"bufferView":8,
			"componentType":5126,
			"count":131,
			"max":[
				34,
				10.6875,
				26
			],
			"min":[
				-40,
				-8,
				-58
			],
			"type":"VEC3"
		},
		{
			"bufferView":9,
			"componentType":5126,
			"count":131,
			"type":"VEC3"
		},
		{
			"bufferView":10,
			"componentType":5126,
			"count":131,
			"type":"VEC2"
		},
		{
			"bufferView":11,
			"componentType":5123,
			"count":297,
			"type":"SCALAR"
		},
		{
			"bufferView":12,
			"componentType":5126,
			"count":20,
			"max":[
				0.28125,
				10.6875,
				-30.625
			],
			"min":[
				-6.28125,
				10,
				-37.25
			],
			"type":"VEC3"
		},
		{
			"bufferView":13,
			"componentType":5126,
			"count":20,
			"type":"VEC3"
		},
		{
			"bufferView":14,
			"componentType":5126,
			"count":20,
			"type":"VEC2"
		},
		{
			"bufferView":15,
			"componentType":5123,
			"count":36,
			"type":"SCALAR"
		},
		{
			"bufferView":16,
			"componentType":5126,
			"count":102,
			"max":[
				-0.1875,
				2.3125,
				-20.71875
			],
			"min":[
				-5.8125,
				0.71875,
				-22.84375
			],
			"type":"VEC3"
		},
		{
			"bufferView":17,
			"componentType":5126,
			"count":102,
			"type":"VEC3"
		},
		{
			"bufferView":18,
			"componentType":5126,
			"count":102,
			"type":"VEC2"
		},
		{
			"bufferView":19,
			"componentType":5123,
			"count":201,
			"type":"SCALAR"
		},
		{
			"bufferView":20,
			"componentType":5126,
			"count":288,
			"max":[
				12.9375,
				12.1875,
				-20.71875
			],
			"min":[
				-18.9375,
				0.25,
				-46.1875
			],
			"type":"VEC3"
		},
		{
			"bufferView":21,
			"componentType":5126,
			"count":288,
			"type":"VEC3"
		},
		{
			"bufferView":22,
			"componentType":5126,
			"count":288,
			"type":"VEC2"
		},
		{
			"bufferView":23,
			"componentType":5123,
			"count":621,
			"type":"SCALAR"
		},
		{
			"bufferView":24,
			"componentType":5126,
			"count":61,
			"max":[
				28.84375,
				2.625,
				20.8125
			],
			"min":[
				-34.84375,
				0.71875,
				-52.8125
			],
			"type":"VEC3"
		},
		{
			"bufferView":25,
			"componentType":5126,
			"count":61,
			"type":"VEC3"
		},
		{
			"bufferView":26,
			"componentType":5126,
			"count":61,
			"type":"VEC2"
		},
		{
			"bufferView":27,
			"componentType":5123,
			"count":99,
			"type":"SCALAR"
		},
		{
			"bufferView":28,
			"componentType":5126,
			"count":158,
			"max":[
				28.25,
				26.65625,
				20.21875
			],
			"min":[
				-34.25,
				-4.34375,
				-52.125
			],
			"type":"VEC3"
		},
		{
			"bufferView":29,
			"componentType":5126,
			"count":158,
			"type":"VEC3"
		},
		{
			"bufferView":30,
			"componentType":5126,
			"count":158,
			"type":"VEC2"
		},
		{
			"bufferView":31,
			"componentType":5123,
			"count":336,
			"type":"SCALAR"
		},
		{
			"bufferView":32,
			"componentType":5126,
			"count":26,
			"max":[
				12.9375,
				0.71875,
				-21.65625
			],
			"min":[
				-18.9375,
				-6.15625,
				-46.1875
			],
			"type":"VEC3"
		},
		{
			"bufferView":33,
			"componentType":5126,
			"count":26,
			"type":"VEC3"
		},
		{
			"bufferView":34,
			"componentType":5126,
			"count":26,
			"type":"VEC2"
		},
		{
			"bufferView":35,
			"componentType":5123,
			"count":48,
			"type":"SCALAR"
		},
		{
			"bufferView":36,
			"componentType":5126,
			"count":40,
			"max":[
				26.96875,
				1.46875,
				18.90625
			],
			"min":[
				-32.96875,
				0.71875,
				-50.90625
			],
			"type":"VEC3"
		},
		{
			"bufferView":37,
			"componentType":5126,
			"count":40,
			"type":"VEC3"
		},
		{
			"bufferView":38,
			"componentType":5126,
			"count":40,
			"type":"VEC2"
		},
		{
			"bufferView":39,
			"componentType":5123,
			"count":66,
			"type":"SCALAR"
		},
		{
			"bufferView":40,
			"componentType":5126,
			"count":27,
			"max":[
				2.625,
				0.71875,
				26
			],
			"min":[
				-8.625,
				-7.09375,
				-20.71875
			],
			"type":"VEC3"
		},
		{
			"bufferView":41,
			"componentType":5126,
			"count":27,
			"type":"VEC3"
		},
		{
			"bufferView":42,
			"componentType":5126,
			"count":27,
			"type":"VEC2"
		},
		{
			"bufferView":43,
			"componentType":5123,
			"count":51,
			"type":"SCALAR"
		},
		{
			"bufferView":44,
			"componentType":5126,
			"count":4,
			"max":[
				0.28125,
				15.40625,
				-30.625
			],
			"min":[
				-6.28125,
				15.40625,
				-37.21875
			],
			"type":"VEC3"
		},
		{
			"bufferView":45,
			"componentType":5126,
			"count":4,
			"type":"VEC3"
		},
		{
			"bufferView":46,
			"componentType":5126,
			"count":4,
			"type":"VEC2"
		},
		{
			"bufferView":47,
			"componentType":5123,
			"count":6,
			"type":"SCALAR"
		},
		{
			"bufferView":48,
			"componentType":5126,
			"count":84,
			"max":[
				8.5,
				10,
				-31.5
			],
			"min":[
				-14.5,
				-6.15625,
				-36.25
			],
			"type":"VEC3"
		},
		{
			"bufferView":49,
			"componentType":5126,
			"count":84,
			"type":"VEC3"
		},
		{
			"bufferView":50,
			"componentType":5126,
			"count":84,
			"type":"VEC2"
		},
		{
			"bufferView":51,
			"componentType":5123,
			"count":156,
			"type":"SCALAR"
		},
		{
			"bufferView":52,
			"componentType":5126,
			"count":32,
			"max":[
				8,
				8.25,
				-32
			],
			"min":[
				-14,
				-4.34375,
				-35.75
			],
			"type":"VEC3"
		},
		{
			"bufferView":53,
			"componentType":5126,
			"count":32,
			"type":"VEC3"
		},
		{
			"bufferView":54,
			"componentType":5126,
			"count":32,
			"type":"VEC2"
		},
		{
			"bufferView":55,
			"componentType":5123,
			"count":48,
			"type":"SCALAR"
		},
		{
			"bufferView":56,
			"componentType":5126,
			"count":128,
			"max":[
				28.75,
				3.4375,
				20.78125
			],
			"min":[
				-34.75,
				1.46875,
				-52.75
			],
			"type":"VEC3"
		},
		{
			"bufferView":57,
			"componentType":5126,
			"count":128,
			"type":"VEC3"
		},
		{
			"bufferView":58,
			"componentType":5126,
			"count":128,
			"type":"VEC2"
		},
		{
			"bufferView":59,
			"componentType":5123,
			"count":288,
			"type":"SCALAR"
		},
		{
			"bufferView":60,
			"componentType":5126,
			"count":48,
			"max":[
				28.25,
				14.8125,
				20.21875
			],
			"min":[
				-34.25,
				14,
				-52.125
			],
			"type":"VEC3"
		},
		{
			"bufferView":61,
			"componentType":5126,
			"count":48,
			"type":"VEC3"
		},
		{
			"bufferView":62,
			"componentType":5126,
			"count":48,
			"type":"VEC2"
		},
		{
			"bufferView":63,
			"componentType":5123,
			"count":48,
			"type":"SCALAR"
		}
	],
	"bufferViews":[
		{
			"buffer":0,
			"byteLength":4164,
			"byteOffset":0,
			"target":34962
		},
		{
			"buffer":0,
			"byteLength":4164,
			"byteOffset":4164,
			"target":34962
		},
		{
			"buffer":0,
			"byteLength":2776,
			"byteOffset":8328,
			"target":34962
		},
		{
			"buffer":0,
			"byteLength":1404,
			"byteOffset":11104,
			"target":34963
		},
		{
			"buffer":0,
			"byteLength":4368,
			"byteOffset":12508,
			"target":34962
		},
		{
			"buffer":0,
			"byteLength":4368,
			"byteOffset":16876,
			"target":34962
		},
		{
			"buffer":0,
			"byteLength":2912,
			"byteOffset":21244,
			"target":34962
		},
		{
			"buffer":0,
			"byteLength":1374,
			"byteOffset":24156,
			"target":34963
		},
		{
			"buffer":0,
			"byteLength":1572,
			"byteOffset":25532,
			"target":34962
		},
		{
			"buffer":0,
			"byteLength":1572,
			"byteOffset":27104,
			"target":34962
		},
		{
			"buffer":0,
			"byteLength":1048,
			"byteOffset":28676,
			"target":34962
		},
		{
			"buffer":0,
			"byteLength":594,
			"byteOffset":29724,
			"target":34963
		},
		{
			"buffer":0,
			"byteLength":240,
			"byteOffset":30320,
			"target":34962
		},
		{
			"buffer":0,
			"byteLength":240,
			"byteOffset":30560,
			"target":34962
		},
		{
			"buffer":0,
			"byteLength":160,
			"byteOffset":30800,
			"target":34962
		},
		{
			"buffer":0,
			"byteLength":72,
			"byteOffset":30960,
			"target":34963
		},
		{
			"buffer":0,
			"byteLength":1224,
			"byteOffset":31032,
			"target":34962
		},
		{
			"buffer":0,
			"byteLength":1224,
			"byteOffset":32256,
			"target":34962
		},
		{
			"buffer":0,
			"byteLength":816,
			"byteOffset":33480,
			"target":34962
		},
		{
			"buffer":0,
			"byteLength":402,
			"byteOffset":34296,
			"target":34963
		},
		{
			"buffer":0,
			"byteLength":3456,
			"byteOffset":34700,
			"target":34962
		},
		{
			"buffer":0,
			"byteLength":3456,
			"byteOffset":38156,
			"target":34962
		},
		{
			"buffer":0,
			"byteLength":2304,
			"byteOffset":41612,
			"target":34962
		},
		{
			"buffer":0,
			"byteLength":1242,
			"byteOffset":43916,
			"target":34963
		},
		{
			"buffer":0,
			"byteLength":732,
			"byteOffset":45160,
			"target":34962
		},
		{
			"buffer":0,
			"byteLength":732,
			"byteOffset":45892,
			"target":34962
		},
		{
			"buffer":0,
			"byteLength":488,
			"byteOffset":46624,
			"target":34962
		},
		{
			"buffer":0,
			"byteLength":198,
			"byteOffset":47112,
			"target":34963
		},
		{
			"buffer":0,
			"byteLength":1896,
			"byteOffset":47312,
			"target":34962
		},
		{
			"buffer":0,
			"byteLength":1896,
			"byteOffset":49208,
			"target":34962
		},
		{
			"buffer":0,
			"byteLength":1264,
			"byteOffset":51104,
			"target":34962
		},
		{
			"buffer":0,
			"byteLength":672,
			"byteOffset":52368,
			"target":34963
		},
		{
			"buffer":0,
			"byteLength":312,
			"byteOffset":53040,
			"target":34962
		},
		{
			"buffer":0,
			"byteLength":312,
			"byteOffset":53352,
			"target":34962
		},
		{
			"buffer":0,
			"byteLength":208,
			"byteOffset":53664,
			"target":34962
		},
		{
			"buffer":0,
			"byteLength":96,
			"byteOffset":53872,
			"target":34963
		},
		{
			"buffer":0,
			"byteLength":480,
			"byteOffset":53968,
			"target":34962
		},
		{
			"buffer":0,
			"byteLength":480,
			"byteOffset":54448,
			"target":34962
		},
		{
			"buffer":0,
			"byteLength":320,
			"byteOffset":54928,
			"target":34962
		},
		{
			"buffer":0,
			"byteLength":132,
			"byteOffset":55248,
			"target":34963
		},
		{
			"buffer":0,
			"byteLength":324,
			"byteOffset":55380,
			"target":34962
		},
		{
			"buffer":0,
			"byteLength":324,
			"byteOffset":55704,
			"target":34962
		},
		{
			"buffer":0,
			"byteLength":216,
			"byteOffset":56028,
			"target":34962
		},
		{
			"buffer":0,
			"byteLength":102,
			"byteOffset":56244,
			"target":34963
		},
		{
			"buffer":0,
			"byteLength":48,
			"byteOffset":56348,
			"target":34962
		},
		{
			"buffer":0,
			"byteLength":48,
			"byteOffset":56396,
			"target":34962
		},
		{
			"buffer":0,
			"byteLength":32,
			"byteOffset":56444,
			"target":34962
		},
		{
			"buffer":0,
			"byteLength":12,
			"byteOffset":56476,
			"target":34963
		},
		{
			"buffer":0,
			"byteLength":1008,
			"byteOffset":56488,
			"target":34962
		},
		{
			"buffer":0,
			"byteLength":1008,
			"byteOffset":57496,
			"target":34962
		},
		{
			"buffer":0,
			"byteLength":672,
			"byteOffset":58504,
			"target":34962
		},
		{
			"buffer":0,
			"byteLength":312,
			"byteOffset":59176,
			"target":34963
		},
		{
			"buffer":0,
			"byteLength":384,
			"byteOffset":59488,
			"target":34962
		},
		{
			"buffer":0,
			"byteLength":384,
			"byteOffset":59872,
			"target":34962
		},
		{
			"buffer":0,
			"byteLength":256,
			"byteOffset":60256,
			"target":34962
		},
		{
			"buffer":0,
			"byteLength":96,
			"byteOffset":60512,
			"target":34963
		},
		{
			"buffer":0,
			"byteLength":1536,
			"byteOffset":60608,
			"target":34962
		},
		{
			"buffer":0,
			"byteLength":1536,
			"byteOffset":62144,
			"target":34962
		},
		{
			"buffer":0,
			"byteLength":1024,
			"byteOffset":63680,
			"target":34962
		},
		{
			"buffer":0,
			"byteLength":576,
			"byteOffset":64704,
			"target":34963
		},
		{
			"buffer":0,
			"byteLength":576,
			"byteOffset":65280,
			"target":34962
		},
		{
			"buffer":0,
			"byteLength":576,
			"byteOffset":65856,
			"target":34962
		},
		{
			"buffer":0,
			"byteLength":384,
			"byteOffset":66432,
			"target":34962
		},
		{
			"buffer":0,
			"byteLength":96,
			"byteOffset":66816,
			"target":34963
		}
	],
	"buffers":[
		{
			"byteLength":66912,
			"uri":"conbase.bin"
		}
	]
}
