{
	"asset":{
		"generator":"Khronos glTF Blender I/O v4.5.48",
		"version":"2.0"
	},
	"scene":0,
	"scenes":[
		{
			"name":"Scene",
			"nodes":[
				0
			]
		}
	],
	"nodes":[
		{
			"mesh":0,
			"name":"Object"
		}
	],
	"materials":[
		{
			"doubleSided":true,
			"name":"DS_GENWALL",
			"pbrMetallicRoughness":{
				"baseColorFactor":[
					0.800000011920929,
					0.800000011920929,
					0.800000011920929,
					1
				],
				"metallicFactor":0,
				"roughnessFactor":0.5
			}
		},
		{
			"doubleSided":true,
			"name":"DS_EWALL06",
			"pbrMetallicRoughness":{
				"baseColorFactor":[
					0.800000011920929,
					0.800000011920929,
					0.800000011920929,
					1
				],
				"metallicFactor":0,
				"roughnessFactor":0.5
			}
		},
		{
			"doubleSided":true,
			"name":"DS_IWALDECO05",
			"pbrMetallicRoughness":{
				"baseColorFactor":[
					0.800000011920929,
					0.800000011920929,
					0.800000011920929,
					1
				],
				"metallicFactor":0,
				"roughnessFactor":0.5
			}
		},
		{
			"doubleSided":true,
			"name":"DS_IFLO04",
			"pbrMetallicRoughness":{
				"baseColorFactor":[
					0.800000011920929,
					0.800000011920929,
					0.800000011920929,
					1
				],
				"metallicFactor":0,
				"roughnessFactor":0.5
			}
		},
		{
			"doubleSided":true,
			"name":"INF_LIGHT011",
			"pbrMetallicRoughness":{
				"baseColorFactor":[
					0.800000011920929,
					0.800000011920929,
					0.800000011920929,
					1
				],
				"metallicFactor":0,
				"roughnessFactor":0.5
			}
		},
		{
			"doubleSided":true,
			"name":"DS_ILIG02",
			"pbrMetallicRoughness":{
				"baseColorFactor":[
					0.800000011920929,
					0.800000011920929,
					0.800000011920929,
					1
				],
				"metallicFactor":0,
				"roughnessFactor":0.5
			}
		},
		{
			"doubleSided":true,
			"name":"DS_EWALL07",
			"pbrMetallicRoughness":{
				"baseColorFactor":[
					0.800000011920929,
					0.800000011920929,
					0.800000011920929,
					1
				],
				"metallicFactor":0,
				"roughnessFactor":0.5
			}
		},
		{
			"doubleSided":true,
			"name":"DS_IWALDECO04A",
			"pbrMetallicRoughness":{
				"baseColorFactor":[
					0.800000011920929,
					0.800000011920929,
					0.800000011920929,
					1
				],
				"metallicFactor":0,
				"roughnessFactor":0.5
			}
		}
	],
	"meshes":[
		{
			"name":"Mesh",
			"primitives":[
				{
					"attributes":{
						"POSITION":0,
						"NORMAL":1,
						"TEXCOORD_0":2
					},
					"indices":3,
					"material":0
				},
				{
					"attributes":{
						"POSITION":4,
						"NORMAL":5,
						"TEXCOORD_0":6
					},
					"indices":7,
					"material":1
				},
				{
					"attributes":{
						"POSITION":8,
						"NORMAL":9,
						"TEXCOORD_0":10
					},
					"indices":11,
					"material":2
				},
				{
					"attributes":{
						"POSITION":12,
						"NORMAL":13,
						"TEXCOORD_0":14
					},
					"indices":15,
					"material":3
				},
				{
					"attributes":{
						"POSITION":16,
						"NORMAL":17,
						"TEXCOORD_0":18
					},
					"indices":19,
					"material":4
				},
				{
					"attributes":{
						"POSITION":20,
						"NORMAL":21,
						"TEXCOORD_0":22
					},
					"indices":23,
					"material":5
				},
				{
					"attributes":{
						"POSITION":24,
						"NORMAL":25,
						"TEXCOORD_0":26
					},
					"indices":27,
					"material":6
				},
				{
					"attributes":{
						"POSITION":28,
						"NORMAL":29,
						"TEXCOORD_0":30
					},
					"indices":31,
					"material":7
				}
			]
		}
	],
	"accessors":[
		{
			"bufferView":0,
			"componentType":5126,
			"count":68,
			"max":[
				17.25,
				-8,
				28
			],
			"min":[
				8,
				-10,
				8
			],
			"type":"VEC3"
		},
		{
			"bufferView":1,
			"componentType":5126,
			"count":68,
			"type":"VEC3"
		},
		{
			"bufferView":2,
			"componentType":5126,
			"count":68,
			"type":"VEC2"
		},
		{
			"bufferView":3,
			"componentType":5123,
			"count":192,
			"type":"SCALAR"
		},
		{
			"bufferView":4,
			"componentType":5126,
			"count":118,
			"max":[
				17.25,
				-8,
				28
			],
			"min":[
				8,
				-24,
				8
			],
			"type":"VEC3"
		},
		{
			"bufferView":5,
			"componentType":5126,
			"count":118,
			"type":"VEC3"
		},
		{
			"bufferView":6,
			"componentType":5126,
			"count":118,
			"type":"VEC2"
		},
		{
			"bufferView":7,
			"componentType":5123,
			"count":270,
			"type":"SCALAR"
		},
		{
			"bufferView":8,
			"componentType":5126,
			"count":60,
			"max":[
				16.375,
				-8,
				28
			],
			"min":[
				8.875,
				-8.25,
				8.875
			],
			"type":"VEC3"
		},
		{
			"bufferView":9,
			"componentType":5126,
			"count":60,
			"type":"VEC3"
		},
		{
			"bufferView":10,
			"componentType":5126,
			"count":60,
			"type":"VEC2"
		},
		{
			"bufferView":11,
			"componentType":5123,
			"count":90,
			"type":"SCALAR"
		},
		{
			"bufferView":12,
			"componentType":5126,
			"count":18,
			"max":[
				16.375,
				-8.25,
				28
			],
			"min":[
				8.875,
				-8.25,
				8.875
			],
			"type":"VEC3"
		},
		{
			"bufferView":13,
			"componentType":5126,
			"count":18,
			"type":"VEC3"
		},
		{
			"bufferView":14,
			"componentType":5126,
			"count":18,
			"type":"VEC2"
		},
		{
			"bufferView":15,
			"componentType":5123,
			"count":54,
			"type":"SCALAR"
		},
		{
			"bufferView":16,
			"componentType":5126,
			"count":14,
			"max":[
				16,
				-10,
				28
			],
			"min":[
				9.25,
				-11,
				9.25
			],
			"type":"VEC3"
		},
		{
			"bufferView":17,
			"componentType":5126,
			"count":14,
			"type":"VEC3"
		},
		{
			"bufferView":18,
			"componentType":5126,
			"count":14,
			"type":"VEC2"
		},
		{
			"bufferView":19,
			"componentType":5123,
			"count":24,
			"type":"SCALAR"
		},
		{
			"bufferView":20,
			"componentType":5126,
			"count":8,
			"max":[
				17.25,
				-8,
				10
			],
			"min":[
				8,
				-9,
				8
			],
			"type":"VEC3"
		},
		{
			"bufferView":21,
			"componentType":5126,
			"count":8,
			"type":"VEC3"
		},
		{
			"bufferView":22,
			"componentType":5126,
			"count":8,
			"type":"VEC2"
		},
		{
			"bufferView":23,
			"componentType":5123,
			"count":12,
			"type":"SCALAR"
		},
		{
			"bufferView":24,
			"componentType":5126,
			"count":128,
			"max":[
				17.25,
				-9,
				28
			],
			"min":[
				8,
				-24,
				8
			],
			"type":"VEC3"
		},
		{
			"bufferView":25,
			"componentType":5126,
			"count":128,
			"type":"VEC3"
		},
		{
			"bufferView":26,
			"componentType":5126,
			"count":128,
			"type":"VEC2"
		},
		{
			"bufferView":27,
			"componentType":5123,
			"count":306,
			"type":"SCALAR"
		},
		{
			"bufferView":28,
			"componentType":5126,
			"count":4,
			"max":[
				15.25,
				-11.59375,
				9.75
			],
			"min":[
				10,
				-24,
				9.75
			],
			"type":"VEC3"
		},
		{
			"bufferView":29,
			"componentType":5126,
			"count":4,
			"type":"VEC3"
		},
		{
			"bufferView":30,
			"componentType":5126,
			"count":4,
			"type":"VEC2"
		},
		{
			"bufferView":31,
			"componentType":5123,
			"count":6,
			"type":"SCALAR"
		}
	],
	"bufferViews":[
		{
			"buffer":0,
			"byteLength":816,
			"byteOffset":0,
			"target":34962
		},
		{
			"buffer":0,
			"byteLength":816,
			"byteOffset":816,
			"target":34962
		},
		{
			"buffer":0,
			"byteLength":544,
			"byteOffset":1632,
			"target":34962
		},
		{
			"buffer":0,
			"byteLength":384,
			"byteOffset":2176,
			"target":34963
		},
		{
			"buffer":0,
			"byteLength":1416,
			"byteOffset":2560,
			"target":34962
		},
		{
			"buffer":0,
			"byteLength":1416,
			"byteOffset":3976,
			"target":34962
		},
		{
			"buffer":0,
			"byteLength":944,
			"byteOffset":5392,
			"target":34962
		},
		{
			"buffer":0,
			"byteLength":540,
			"byteOffset":6336,
			"target":34963
		},
		{
			"buffer":0,
			"byteLength":720,
			"byteOffset":6876,
			"target":34962
		},
		{
			"buffer":0,
			"byteLength":720,
			"byteOffset":7596,
			"target":34962
		},
		{
			"buffer":0,
			"byteLength":480,
			"byteOffset":8316,
			"target":34962
		},
		{
			"buffer":0,
			"byteLength":180,
			"byteOffset":8796,
			"target":34963
		},
		{
			"buffer":0,
			"byteLength":216,
			"byteOffset":8976,
			"target":34962
		},
		{
			"buffer":0,
			"byteLength":216,
			"byteOffset":9192,
			"target":34962
		},
		{
			"buffer":0,
			"byteLength":144,
			"byteOffset":9408,
			"target":34962
		},
		{
			"buffer":0,
			"byteLength":108,
			"byteOffset":9552,
			"target":34963
		},
		{
			"buffer":0,
			"byteLength":168,
			"byteOffset":9660,
			"target":34962
		},
		{
			"buffer":0,
			"byteLength":168,
			"byteOffset":9828,
			"target":34962
		},
		{
			"buffer":0,
			"byteLength":112,
			"byteOffset":9996,
			"target":34962
		},
		{
			"buffer":0,
			"byteLength":48,
			"byteOffset":10108,
			"target":34963
		},
		{
			"buffer":0,
			"byteLength":96,
			"byteOffset":10156,
			"target":34962
		},
		{
			"buffer":0,
			"byteLength":96,
			"byteOffset":10252,
			"target":34962
		},
		{
			"buffer":0,
			"byteLength":64,
			"byteOffset":10348,
			"target":34962
		},
		{
			"buffer":0,
			"byteLength":24,
			"byteOffset":10412,
			"target":34963
		},
		{
			"buffer":0,
			"byteLength":1536,
			"byteOffset":10436,
			"target":34962
		},
		{
			"buffer":0,
			"byteLength":1536,
			"byteOffset":11972,
			"target":34962
		},
		{
			"buffer":0,
			"byteLength":1024,
			"byteOffset":13508,
			"target":34962
		},
		{
			"buffer":0,
			"byteLength":612,
			"byteOffset":14532,
			"target":34963
		},
		{
			"buffer":0,
			"byteLength":48,
			"byteOffset":15144,
			"target":34962
		},
		{
			"buffer":0,
			"byteLength":48,
			"byteOffset":15192,
			"target":34962
		},
		{
			"buffer":0,
			"byteLength":32,
			"byteOffset":15240,
			"target":34962
		},
		{
			"buffer":0,
			"byteLength":12,
			"byteOffset":15272,
			"target":34963
		}
	],
	"buffers":[
		{
			"byteLength":15284,
			"uri":"Euro4_FrozenHope_inf_butch_fhope_flag6.bin"
		}
	]
}
