{
	"asset":{
		"generator":"Khronos glTF Blender I/O v4.5.48",
		"version":"2.0"
	},
	"scene":0,
	"scenes":[
		{
			"name":"Scene",
			"nodes":[
				0
			]
		}
	],
	"nodes":[
		{
			"mesh":0,
			"name":"Object"
		}
	],
	"materials":[
		{
			"doubleSided":true,
			"name":"BE_EWAL06",
			"pbrMetallicRoughness":{
				"baseColorFactor":[
					0.800000011920929,
					0.800000011920929,
					0.800000011920929,
					1
				],
				"metallicFactor":0,
				"roughnessFactor":0.5
			}
		},
		{
			"doubleSided":true,
			"name":"BE_EWAL07",
			"pbrMetallicRoughness":{
				"baseColorFactor":[
					0.800000011920929,
					0.800000011920929,
					0.800000011920929,
					1
				],
				"metallicFactor":0,
				"roughnessFactor":0.5
			}
		},
		{
			"doubleSided":true,
			"name":"BE_EWAL03A",
			"pbrMetallicRoughness":{
				"baseColorFactor":[
					0.800000011920929,
					0.800000011920929,
					0.800000011920929,
					1
				],
				"metallicFactor":0,
				"roughnessFactor":0.5
			}
		},
		{
			"doubleSided":true,
			"name":"BE_ITEWAL02",
			"pbrMetallicRoughness":{
				"baseColorFactor":[
					0.800000011920929,
					0.800000011920929,
					0.800000011920929,
					1
				],
				"metallicFactor":0,
				"roughnessFactor":0.5
			}
		}
	],
	"meshes":[
		{
			"name":"Mesh",
			"primitives":[
				{
					"attributes":{
						"POSITION":0,
						"NORMAL":1,
						"TEXCOORD_0":2
					},
					"indices":3,
					"material":0
				},
				{
					"attributes":{
						"POSITION":4,
						"NORMAL":5,
						"TEXCOORD_0":6
					},
					"indices":7,
					"material":1
				},
				{
					"attributes":{
						"POSITION":8,
						"NORMAL":9,
						"TEXCOORD_0":10
					},
					"indices":11,
					"material":2
				},
				{
					"attributes":{
						"POSITION":12,
						"NORMAL":13,
						"TEXCOORD_0":14
					},
					"indices":15,
					"material":3
				}
			]
		}
	],
	"accessors":[
		{
			"bufferView":0,
			"componentType":5126,
			"count":11,
			"max":[
				22,
				8,
				59.875
			],
			"min":[
				-19,
				-3,
				-45
			],
			"type":"VEC3"
		},
		{
			"bufferView":1,
			"componentType":5126,
			"count":11,
			"type":"VEC3"
		},
		{
			"bufferView":2,
			"componentType":5126,
			"count":11,
			"type":"VEC2"
		},
		{
			"bufferView":3,
			"componentType":5123,
			"count":15,
			"type":"SCALAR"
		},
		{
			"bufferView":4,
			"componentType":5126,
			"count":1262,
			"max":[
				22,
				6,
				59.875
			],
			"min":[
				-22,
				-10,
				-48
			],
			"type":"VEC3"
		},
		{
			"bufferView":5,
			"componentType":5126,
			"count":1262,
			"type":"VEC3"
		},
		{
			"bufferView":6,
			"componentType":5126,
			"count":1262,
			"type":"VEC2"
		},
		{
			"bufferView":7,
			"componentType":5123,
			"count":3105,
			"type":"SCALAR"
		},
		{
			"bufferView":8,
			"componentType":5126,
			"count":175,
			"max":[
				22,
				12,
				59.875
			],
			"min":[
				-22,
				-5,
				-48
			],
			"type":"VEC3"
		},
		{
			"bufferView":9,
			"componentType":5126,
			"count":175,
			"type":"VEC3"
		},
		{
			"bufferView":10,
			"componentType":5126,
			"count":175,
			"type":"VEC2"
		},
		{
			"bufferView":11,
			"componentType":5123,
			"count":492,
			"type":"SCALAR"
		},
		{
			"bufferView":12,
			"componentType":5126,
			"count":200,
			"max":[
				21.16666603088379,
				16.5,
				13.333333015441895
			],
			"min":[
				-21.16666603088379,
				12,
				-47.28125
			],
			"type":"VEC3"
		},
		{
			"bufferView":13,
			"componentType":5126,
			"count":200,
			"type":"VEC3"
		},
		{
			"bufferView":14,
			"componentType":5126,
			"count":200,
			"type":"VEC2"
		},
		{
			"bufferView":15,
			"componentType":5123,
			"count":300,
			"type":"SCALAR"
		}
	],
	"bufferViews":[
		{
			"buffer":0,
			"byteLength":132,
			"byteOffset":0,
			"target":34962
		},
		{
			"buffer":0,
			"byteLength":132,
			"byteOffset":132,
			"target":34962
		},
		{
			"buffer":0,
			"byteLength":88,
			"byteOffset":264,
			"target":34962
		},
		{
			"buffer":0,
			"byteLength":30,
			"byteOffset":352,
			"target":34963
		},
		{
			"buffer":0,
			"byteLength":15144,
			"byteOffset":384,
			"target":34962
		},
		{
			"buffer":0,
			"byteLength":15144,
			"byteOffset":15528,
			"target":34962
		},
		{
			"buffer":0,
			"byteLength":10096,
			"byteOffset":30672,
			"target":34962
		},
		{
			"buffer":0,
			"byteLength":6210,
			"byteOffset":40768,
			"target":34963
		},
		{
			"buffer":0,
			"byteLength":2100,
			"byteOffset":46980,
			"target":34962
		},
		{
			"buffer":0,
			"byteLength":2100,
			"byteOffset":49080,
			"target":34962
		},
		{
			"buffer":0,
			"byteLength":1400,
			"byteOffset":51180,
			"target":34962
		},
		{
			"buffer":0,
			"byteLength":984,
			"byteOffset":52580,
			"target":34963
		},
		{
			"buffer":0,
			"byteLength":2400,
			"byteOffset":53564,
			"target":34962
		},
		{
			"buffer":0,
			"byteLength":2400,
			"byteOffset":55964,
			"target":34962
		},
		{
			"buffer":0,
			"byteLength":1600,
			"byteOffset":58364,
			"target":34962
		},
		{
			"buffer":0,
			"byteLength":600,
			"byteOffset":59964,
			"target":34963
		}
	],
	"buffers":[
		{
			"byteLength":60564,
			"uri":"Euro4_Bleed_vpad.bin"
		}
	]
}
