{
	"asset":{
		"generator":"Khronos glTF Blender I/O v4.5.48",
		"version":"2.0"
	},
	"scene":0,
	"scenes":[
		{
			"name":"Scene",
			"nodes":[
				0
			]
		}
	],
	"nodes":[
		{
			"mesh":0,
			"name":"Object"
		}
	],
	"materials":[
		{
			"doubleSided":true,
			"name":"DS_IFLO02",
			"pbrMetallicRoughness":{
				"baseColorFactor":[
					0.800000011920929,
					0.800000011920929,
					0.800000011920929,
					1
				],
				"metallicFactor":0,
				"roughnessFactor":0.5
			}
		},
		{
			"doubleSided":true,
			"name":"DS_IFLO04",
			"pbrMetallicRoughness":{
				"baseColorFactor":[
					0.800000011920929,
					0.800000011920929,
					0.800000011920929,
					1
				],
				"metallicFactor":0,
				"roughnessFactor":0.5
			}
		},
		{
			"doubleSided":true,
			"name":"DS_EWALL06",
			"pbrMetallicRoughness":{
				"baseColorFactor":[
					0.800000011920929,
					0.800000011920929,
					0.800000011920929,
					1
				],
				"metallicFactor":0,
				"roughnessFactor":0.5
			}
		},
		{
			"doubleSided":true,
			"name":"DS_ICHUTE01",
			"pbrMetallicRoughness":{
				"baseColorFactor":[
					0.800000011920929,
					0.800000011920929,
					0.800000011920929,
					1
				],
				"metallicFactor":0,
				"roughnessFactor":0.5
			}
		},
		{
			"doubleSided":true,
			"name":"DS_IBOR02A",
			"pbrMetallicRoughness":{
				"baseColorFactor":[
					0.800000011920929,
					0.800000011920929,
					0.800000011920929,
					1
				],
				"metallicFactor":0,
				"roughnessFactor":0.5
			}
		},
		{
			"doubleSided":true,
			"name":"DS_IHACEI01",
			"pbrMetallicRoughness":{
				"baseColorFactor":[
					0.800000011920929,
					0.800000011920929,
					0.800000011920929,
					1
				],
				"metallicFactor":0,
				"roughnessFactor":0.5
			}
		},
		{
			"doubleSided":true,
			"name":"DS_EWALL07",
			"pbrMetallicRoughness":{
				"baseColorFactor":[
					0.800000011920929,
					0.800000011920929,
					0.800000011920929,
					1
				],
				"metallicFactor":0,
				"roughnessFactor":0.5
			}
		},
		{
			"doubleSided":true,
			"name":"DS_TECHWALL_1",
			"pbrMetallicRoughness":{
				"baseColorFactor":[
					0.800000011920929,
					0.800000011920929,
					0.800000011920929,
					1
				],
				"metallicFactor":0,
				"roughnessFactor":0.5
			}
		},
		{
			"doubleSided":true,
			"name":"DS_EWALL05",
			"pbrMetallicRoughness":{
				"baseColorFactor":[
					0.800000011920929,
					0.800000011920929,
					0.800000011920929,
					1
				],
				"metallicFactor":0,
				"roughnessFactor":0.5
			}
		},
		{
			"doubleSided":true,
			"name":"DS_ILIG01",
			"pbrMetallicRoughness":{
				"baseColorFactor":[
					0.800000011920929,
					0.800000011920929,
					0.800000011920929,
					1
				],
				"metallicFactor":0,
				"roughnessFactor":0.5
			}
		}
	],
	"meshes":[
		{
			"name":"Mesh",
			"primitives":[
				{
					"attributes":{
						"POSITION":0,
						"NORMAL":1,
						"TEXCOORD_0":2
					},
					"indices":3,
					"material":0
				},
				{
					"attributes":{
						"POSITION":4,
						"NORMAL":5,
						"TEXCOORD_0":6
					},
					"indices":7,
					"material":1
				},
				{
					"attributes":{
						"POSITION":8,
						"NORMAL":9,
						"TEXCOORD_0":10
					},
					"indices":11,
					"material":2
				},
				{
					"attributes":{
						"POSITION":12,
						"NORMAL":13,
						"TEXCOORD_0":14
					},
					"indices":15,
					"material":3
				},
				{
					"attributes":{
						"POSITION":16,
						"NORMAL":17,
						"TEXCOORD_0":18
					},
					"indices":19,
					"material":4
				},
				{
					"attributes":{
						"POSITION":20,
						"NORMAL":21,
						"TEXCOORD_0":22
					},
					"indices":23,
					"material":5
				},
				{
					"attributes":{
						"POSITION":24,
						"NORMAL":25,
						"TEXCOORD_0":26
					},
					"indices":27,
					"material":6
				},
				{
					"attributes":{
						"POSITION":28,
						"NORMAL":29,
						"TEXCOORD_0":30
					},
					"indices":31,
					"material":7
				},
				{
					"attributes":{
						"POSITION":32,
						"NORMAL":33,
						"TEXCOORD_0":34
					},
					"indices":35,
					"material":8
				},
				{
					"attributes":{
						"POSITION":36,
						"NORMAL":37,
						"TEXCOORD_0":38
					},
					"indices":39,
					"material":9
				}
			]
		}
	],
	"accessors":[
		{
			"bufferView":0,
			"componentType":5126,
			"count":162,
			"max":[
				32,
				16,
				34
			],
			"min":[
				-36,
				-8,
				-34.5
			],
			"type":"VEC3"
		},
		{
			"bufferView":1,
			"componentType":5126,
			"count":162,
			"type":"VEC3"
		},
		{
			"bufferView":2,
			"componentType":5126,
			"count":162,
			"type":"VEC2"
		},
		{
			"bufferView":3,
			"componentType":5123,
			"count":270,
			"type":"SCALAR"
		},
		{
			"bufferView":4,
			"componentType":5126,
			"count":154,
			"max":[
				32,
				2.46061758276306e-15,
				34
			],
			"min":[
				-36,
				-7,
				-34.5
			],
			"type":"VEC3"
		},
		{
			"bufferView":5,
			"componentType":5126,
			"count":154,
			"type":"VEC3"
		},
		{
			"bufferView":6,
			"componentType":5126,
			"count":154,
			"type":"VEC2"
		},
		{
			"bufferView":7,
			"componentType":5123,
			"count":432,
			"type":"SCALAR"
		},
		{
			"bufferView":8,
			"componentType":5126,
			"count":377,
			"max":[
				24.21875,
				16,
				26.21875
			],
			"min":[
				-28.21875,
				0,
				-26.71875
			],
			"type":"VEC3"
		},
		{
			"bufferView":9,
			"componentType":5126,
			"count":377,
			"type":"VEC3"
		},
		{
			"bufferView":10,
			"componentType":5126,
			"count":377,
			"type":"VEC2"
		},
		{
			"bufferView":11,
			"componentType":5123,
			"count":1092,
			"type":"SCALAR"
		},
		{
			"bufferView":12,
			"componentType":5126,
			"count":56,
			"max":[
				24.21875,
				2,
				26.21875
			],
			"min":[
				-28.21875,
				0,
				-26.71875
			],
			"type":"VEC3"
		},
		{
			"bufferView":13,
			"componentType":5126,
			"count":56,
			"type":"VEC3"
		},
		{
			"bufferView":14,
			"componentType":5126,
			"count":56,
			"type":"VEC2"
		},
		{
			"bufferView":15,
			"componentType":5123,
			"count":120,
			"type":"SCALAR"
		},
		{
			"bufferView":16,
			"componentType":5126,
			"count":276,
			"max":[
				14.5,
				2,
				16.5
			],
			"min":[
				-18.5,
				0,
				-17
			],
			"type":"VEC3"
		},
		{
			"bufferView":17,
			"componentType":5126,
			"count":276,
			"type":"VEC3"
		},
		{
			"bufferView":18,
			"componentType":5126,
			"count":276,
			"type":"VEC2"
		},
		{
			"bufferView":19,
			"componentType":5123,
			"count":447,
			"type":"SCALAR"
		},
		{
			"bufferView":20,
			"componentType":5126,
			"count":37,
			"max":[
				6,
				10.5,
				16
			],
			"min":[
				-10,
				7,
				-16.5
			],
			"type":"VEC3"
		},
		{
			"bufferView":21,
			"componentType":5126,
			"count":37,
			"type":"VEC3"
		},
		{
			"bufferView":22,
			"componentType":5126,
			"count":37,
			"type":"VEC2"
		},
		{
			"bufferView":23,
			"componentType":5123,
			"count":75,
			"type":"SCALAR"
		},
		{
			"bufferView":24,
			"componentType":5126,
			"count":241,
			"max":[
				13.75,
				16,
				15.75
			],
			"min":[
				-17.75,
				2,
				-16.25
			],
			"type":"VEC3"
		},
		{
			"bufferView":25,
			"componentType":5126,
			"count":241,
			"type":"VEC3"
		},
		{
			"bufferView":26,
			"componentType":5126,
			"count":241,
			"type":"VEC2"
		},
		{
			"bufferView":27,
			"componentType":5123,
			"count":528,
			"type":"SCALAR"
		},
		{
			"bufferView":28,
			"componentType":5126,
			"count":85,
			"max":[
				6,
				9.75,
				9.602272987365723
			],
			"min":[
				-11.265120506286621,
				8.75,
				-10.102272987365723
			],
			"type":"VEC3"
		},
		{
			"bufferView":29,
			"componentType":5126,
			"count":85,
			"type":"VEC3"
		},
		{
			"bufferView":30,
			"componentType":5126,
			"count":85,
			"type":"VEC2"
		},
		{
			"bufferView":31,
			"componentType":5123,
			"count":153,
			"type":"SCALAR"
		},
		{
			"bufferView":32,
			"componentType":5126,
			"count":94,
			"max":[
				8,
				9.75,
				11.34375
			],
			"min":[
				-12,
				2,
				-11.84375
			],
			"type":"VEC3"
		},
		{
			"bufferView":33,
			"componentType":5126,
			"count":94,
			"type":"VEC3"
		},
		{
			"bufferView":34,
			"componentType":5126,
			"count":94,
			"type":"VEC2"
		},
		{
			"bufferView":35,
			"componentType":5123,
			"count":231,
			"type":"SCALAR"
		},
		{
			"bufferView":36,
			"componentType":5126,
			"count":320,
			"max":[
				6.75,
				9.78125,
				5
			],
			"min":[
				-10.75,
				8.71875,
				-5.5
			],
			"type":"VEC3"
		},
		{
			"bufferView":37,
			"componentType":5126,
			"count":320,
			"type":"VEC3"
		},
		{
			"bufferView":38,
			"componentType":5126,
			"count":320,
			"type":"VEC2"
		},
		{
			"bufferView":39,
			"componentType":5123,
			"count":480,
			"type":"SCALAR"
		}
	],
	"bufferViews":[
		{
			"buffer":0,
			"byteLength":1944,
			"byteOffset":0,
			"target":34962
		},
		{
			"buffer":0,
			"byteLength":1944,
			"byteOffset":1944,
			"target":34962
		},
		{
			"buffer":0,
			"byteLength":1296,
			"byteOffset":3888,
			"target":34962
		},
		{
			"buffer":0,
			"byteLength":540,
			"byteOffset":5184,
			"target":34963
		},
		{
			"buffer":0,
			"byteLength":1848,
			"byteOffset":5724,
			"target":34962
		},
		{
			"buffer":0,
			"byteLength":1848,
			"byteOffset":7572,
			"target":34962
		},
		{
			"buffer":0,
			"byteLength":1232,
			"byteOffset":9420,
			"target":34962
		},
		{
			"buffer":0,
			"byteLength":864,
			"byteOffset":10652,
			"target":34963
		},
		{
			"buffer":0,
			"byteLength":4524,
			"byteOffset":11516,
			"target":34962
		},
		{
			"buffer":0,
			"byteLength":4524,
			"byteOffset":16040,
			"target":34962
		},
		{
			"buffer":0,
			"byteLength":3016,
			"byteOffset":20564,
			"target":34962
		},
		{
			"buffer":0,
			"byteLength":2184,
			"byteOffset":23580,
			"target":34963
		},
		{
			"buffer":0,
			"byteLength":672,
			"byteOffset":25764,
			"target":34962
		},
		{
			"buffer":0,
			"byteLength":672,
			"byteOffset":26436,
			"target":34962
		},
		{
			"buffer":0,
			"byteLength":448,
			"byteOffset":27108,
			"target":34962
		},
		{
			"buffer":0,
			"byteLength":240,
			"byteOffset":27556,
			"target":34963
		},
		{
			"buffer":0,
			"byteLength":3312,
			"byteOffset":27796,
			"target":34962
		},
		{
			"buffer":0,
			"byteLength":3312,
			"byteOffset":31108,
			"target":34962
		},
		{
			"buffer":0,
			"byteLength":2208,
			"byteOffset":34420,
			"target":34962
		},
		{
			"buffer":0,
			"byteLength":894,
			"byteOffset":36628,
			"target":34963
		},
		{
			"buffer":0,
			"byteLength":444,
			"byteOffset":37524,
			"target":34962
		},
		{
			"buffer":0,
			"byteLength":444,
			"byteOffset":37968,
			"target":34962
		},
		{
			"buffer":0,
			"byteLength":296,
			"byteOffset":38412,
			"target":34962
		},
		{
			"buffer":0,
			"byteLength":150,
			"byteOffset":38708,
			"target":34963
		},
		{
			"buffer":0,
			"byteLength":2892,
			"byteOffset":38860,
			"target":34962
		},
		{
			"buffer":0,
			"byteLength":2892,
			"byteOffset":41752,
			"target":34962
		},
		{
			"buffer":0,
			"byteLength":1928,
			"byteOffset":44644,
			"target":34962
		},
		{
			"buffer":0,
			"byteLength":1056,
			"byteOffset":46572,
			"target":34963
		},
		{
			"buffer":0,
			"byteLength":1020,
			"byteOffset":47628,
			"target":34962
		},
		{
			"buffer":0,
			"byteLength":1020,
			"byteOffset":48648,
			"target":34962
		},
		{
			"buffer":0,
			"byteLength":680,
			"byteOffset":49668,
			"target":34962
		},
		{
			"buffer":0,
			"byteLength":306,
			"byteOffset":50348,
			"target":34963
		},
		{
			"buffer":0,
			"byteLength":1128,
			"byteOffset":50656,
			"target":34962
		},
		{
			"buffer":0,
			"byteLength":1128,
			"byteOffset":51784,
			"target":34962
		},
		{
			"buffer":0,
			"byteLength":752,
			"byteOffset":52912,
			"target":34962
		},
		{
			"buffer":0,
			"byteLength":462,
			"byteOffset":53664,
			"target":34963
		},
		{
			"buffer":0,
			"byteLength":3840,
			"byteOffset":54128,
			"target":34962
		},
		{
			"buffer":0,
			"byteLength":3840,
			"byteOffset":57968,
			"target":34962
		},
		{
			"buffer":0,
			"byteLength":2560,
			"byteOffset":61808,
			"target":34962
		},
		{
			"buffer":0,
			"byteLength":960,
			"byteOffset":64368,
			"target":34963
		}
	],
	"buffers":[
		{
			"byteLength":65328,
			"uri":"hbbunker.bin"
		}
	]
}
