{
	"asset":{
		"generator":"Khronos glTF Blender I/O v4.5.48",
		"version":"2.0"
	},
	"scene":0,
	"scenes":[
		{
			"name":"Scene",
			"nodes":[
				0
			]
		}
	],
	"nodes":[
		{
			"mesh":0,
			"name":"Object"
		}
	],
	"materials":[
		{
			"doubleSided":true,
			"name":"DS_GENFLOOR",
			"pbrMetallicRoughness":{
				"baseColorFactor":[
					0.800000011920929,
					0.800000011920929,
					0.800000011920929,
					1
				],
				"metallicFactor":0,
				"roughnessFactor":0.5
			}
		},
		{
			"doubleSided":true,
			"name":"DS_EWALL06",
			"pbrMetallicRoughness":{
				"baseColorFactor":[
					0.800000011920929,
					0.800000011920929,
					0.800000011920929,
					1
				],
				"metallicFactor":0,
				"roughnessFactor":0.5
			}
		},
		{
			"doubleSided":true,
			"name":"WALL_2",
			"pbrMetallicRoughness":{
				"baseColorFactor":[
					0.800000011920929,
					0.800000011920929,
					0.800000011920929,
					1
				],
				"metallicFactor":0,
				"roughnessFactor":0.5
			}
		},
		{
			"doubleSided":true,
			"name":"CARINTERNALWALL",
			"pbrMetallicRoughness":{
				"baseColorFactor":[
					0.800000011920929,
					0.800000011920929,
					0.800000011920929,
					1
				],
				"metallicFactor":0,
				"roughnessFactor":0.5
			}
		},
		{
			"doubleSided":true,
			"name":"BLUETRIM2",
			"pbrMetallicRoughness":{
				"baseColorFactor":[
					0.800000011920929,
					0.800000011920929,
					0.800000011920929,
					1
				],
				"metallicFactor":0,
				"roughnessFactor":0.5
			}
		},
		{
			"doubleSided":true,
			"name":"ROCK_WALL_LITE",
			"pbrMetallicRoughness":{
				"baseColorFactor":[
					0.800000011920929,
					0.800000011920929,
					0.800000011920929,
					1
				],
				"metallicFactor":0,
				"roughnessFactor":0.5
			}
		},
		{
			"doubleSided":true,
			"name":"SLABGRILL",
			"pbrMetallicRoughness":{
				"baseColorFactor":[
					0.800000011920929,
					0.800000011920929,
					0.800000011920929,
					1
				],
				"metallicFactor":0,
				"roughnessFactor":0.5
			}
		},
		{
			"doubleSided":true,
			"name":"GRATE1",
			"pbrMetallicRoughness":{
				"baseColorFactor":[
					0.800000011920929,
					0.800000011920929,
					0.800000011920929,
					1
				],
				"metallicFactor":0,
				"roughnessFactor":0.5
			}
		},
		{
			"doubleSided":true,
			"name":"STRIPLITE2",
			"pbrMetallicRoughness":{
				"baseColorFactor":[
					0.800000011920929,
					0.800000011920929,
					0.800000011920929,
					1
				],
				"metallicFactor":0,
				"roughnessFactor":0.5
			}
		},
		{
			"doubleSided":true,
			"name":"LIGHT_COLD3",
			"pbrMetallicRoughness":{
				"baseColorFactor":[
					0.800000011920929,
					0.800000011920929,
					0.800000011920929,
					1
				],
				"metallicFactor":0,
				"roughnessFactor":0.5
			}
		},
		{
			"doubleSided":true,
			"name":"REDSTRIPE2",
			"pbrMetallicRoughness":{
				"baseColorFactor":[
					0.800000011920929,
					0.800000011920929,
					0.800000011920929,
					1
				],
				"metallicFactor":0,
				"roughnessFactor":0.5
			}
		},
		{
			"doubleSided":true,
			"name":"BLUETRIM1",
			"pbrMetallicRoughness":{
				"baseColorFactor":[
					0.800000011920929,
					0.800000011920929,
					0.800000011920929,
					1
				],
				"metallicFactor":0,
				"roughnessFactor":0.5
			}
		},
		{
			"doubleSided":true,
			"name":"4CIRCLE_LITE",
			"pbrMetallicRoughness":{
				"baseColorFactor":[
					0.800000011920929,
					0.800000011920929,
					0.800000011920929,
					1
				],
				"metallicFactor":0,
				"roughnessFactor":0.5
			}
		},
		{
			"doubleSided":true,
			"name":"STRIPE2",
			"pbrMetallicRoughness":{
				"baseColorFactor":[
					0.800000011920929,
					0.800000011920929,
					0.800000011920929,
					1
				],
				"metallicFactor":0,
				"roughnessFactor":0.5
			}
		},
		{
			"doubleSided":true,
			"name":"DS_ETECHBOR01",
			"pbrMetallicRoughness":{
				"baseColorFactor":[
					0.800000011920929,
					0.800000011920929,
					0.800000011920929,
					1
				],
				"metallicFactor":0,
				"roughnessFactor":0.5
			}
		},
		{
			"doubleSided":true,
			"name":"WHITE_STRIPLITE",
			"pbrMetallicRoughness":{
				"baseColorFactor":[
					0.800000011920929,
					0.800000011920929,
					0.800000011920929,
					1
				],
				"metallicFactor":0,
				"roughnessFactor":0.5
			}
		}
	],
	"meshes":[
		{
			"name":"Mesh",
			"primitives":[
				{
					"attributes":{
						"POSITION":0,
						"NORMAL":1,
						"TEXCOORD_0":2
					},
					"indices":3,
					"material":0
				},
				{
					"attributes":{
						"POSITION":4,
						"NORMAL":5,
						"TEXCOORD_0":6
					},
					"indices":7,
					"material":1
				},
				{
					"attributes":{
						"POSITION":8,
						"NORMAL":9,
						"TEXCOORD_0":10
					},
					"indices":11,
					"material":2
				},
				{
					"attributes":{
						"POSITION":12,
						"NORMAL":13,
						"TEXCOORD_0":14
					},
					"indices":15,
					"material":3
				},
				{
					"attributes":{
						"POSITION":16,
						"NORMAL":17,
						"TEXCOORD_0":18
					},
					"indices":19,
					"material":4
				},
				{
					"attributes":{
						"POSITION":20,
						"NORMAL":21,
						"TEXCOORD_0":22
					},
					"indices":23,
					"material":5
				},
				{
					"attributes":{
						"POSITION":24,
						"NORMAL":25,
						"TEXCOORD_0":26
					},
					"indices":27,
					"material":6
				},
				{
					"attributes":{
						"POSITION":28,
						"NORMAL":29,
						"TEXCOORD_0":30
					},
					"indices":31,
					"material":7
				},
				{
					"attributes":{
						"POSITION":32,
						"NORMAL":33,
						"TEXCOORD_0":34
					},
					"indices":35,
					"material":8
				},
				{
					"attributes":{
						"POSITION":36,
						"NORMAL":37,
						"TEXCOORD_0":38
					},
					"indices":39,
					"material":9
				},
				{
					"attributes":{
						"POSITION":40,
						"NORMAL":41,
						"TEXCOORD_0":42
					},
					"indices":43,
					"material":10
				},
				{
					"attributes":{
						"POSITION":44,
						"NORMAL":45,
						"TEXCOORD_0":46
					},
					"indices":47,
					"material":11
				},
				{
					"attributes":{
						"POSITION":48,
						"NORMAL":49,
						"TEXCOORD_0":50
					},
					"indices":51,
					"material":12
				},
				{
					"attributes":{
						"POSITION":52,
						"NORMAL":53,
						"TEXCOORD_0":54
					},
					"indices":55,
					"material":13
				},
				{
					"attributes":{
						"POSITION":56,
						"NORMAL":57,
						"TEXCOORD_0":58
					},
					"indices":59,
					"material":14
				},
				{
					"attributes":{
						"POSITION":60,
						"NORMAL":61,
						"TEXCOORD_0":62
					},
					"indices":63,
					"material":15
				}
			]
		}
	],
	"accessors":[
		{
			"bufferView":0,
			"componentType":5126,
			"count":375,
			"max":[
				28,
				53.625,
				-28
			],
			"min":[
				8,
				0.5,
				-56
			],
			"type":"VEC3"
		},
		{
			"bufferView":1,
			"componentType":5126,
			"count":375,
			"type":"VEC3"
		},
		{
			"bufferView":2,
			"componentType":5126,
			"count":375,
			"type":"VEC2"
		},
		{
			"bufferView":3,
			"componentType":5123,
			"count":765,
			"type":"SCALAR"
		},
		{
			"bufferView":4,
			"componentType":5126,
			"count":636,
			"max":[
				38.5,
				76,
				-16
			],
			"min":[
				-2.5,
				-16,
				-68
			],
			"type":"VEC3"
		},
		{
			"bufferView":5,
			"componentType":5126,
			"count":636,
			"type":"VEC3"
		},
		{
			"bufferView":6,
			"componentType":5126,
			"count":636,
			"type":"VEC2"
		},
		{
			"bufferView":7,
			"componentType":5123,
			"count":1284,
			"type":"SCALAR"
		},
		{
			"bufferView":8,
			"componentType":5126,
			"count":36,
			"max":[
				28,
				22,
				-28
			],
			"min":[
				8,
				0.5,
				-56
			],
			"type":"VEC3"
		},
		{
			"bufferView":9,
			"componentType":5126,
			"count":36,
			"type":"VEC3"
		},
		{
			"bufferView":10,
			"componentType":5126,
			"count":36,
			"type":"VEC2"
		},
		{
			"bufferView":11,
			"componentType":5123,
			"count":96,
			"type":"SCALAR"
		},
		{
			"bufferView":12,
			"componentType":5126,
			"count":24,
			"max":[
				26.5,
				6.375,
				-28
			],
			"min":[
				9.5,
				0.5,
				-56
			],
			"type":"VEC3"
		},
		{
			"bufferView":13,
			"componentType":5126,
			"count":24,
			"type":"VEC3"
		},
		{
			"bufferView":14,
			"componentType":5126,
			"count":24,
			"type":"VEC2"
		},
		{
			"bufferView":15,
			"componentType":5123,
			"count":36,
			"type":"SCALAR"
		},
		{
			"bufferView":16,
			"componentType":5126,
			"count":86,
			"max":[
				38.5,
				7.5,
				-28
			],
			"min":[
				-2.5,
				-0.5,
				-56
			],
			"type":"VEC3"
		},
		{
			"bufferView":17,
			"componentType":5126,
			"count":86,
			"type":"VEC3"
		},
		{
			"bufferView":18,
			"componentType":5126,
			"count":86,
			"type":"VEC2"
		},
		{
			"bufferView":19,
			"componentType":5123,
			"count":126,
			"type":"SCALAR"
		},
		{
			"bufferView":20,
			"componentType":5126,
			"count":24,
			"max":[
				25.75,
				42,
				-30
			],
			"min":[
				10.25,
				0.5,
				-54
			],
			"type":"VEC3"
		},
		{
			"bufferView":21,
			"componentType":5126,
			"count":24,
			"type":"VEC3"
		},
		{
			"bufferView":22,
			"componentType":5126,
			"count":24,
			"type":"VEC2"
		},
		{
			"bufferView":23,
			"componentType":5123,
			"count":36,
			"type":"SCALAR"
		},
		{
			"bufferView":24,
			"componentType":5126,
			"count":72,
			"max":[
				26.5,
				53.625,
				-28
			],
			"min":[
				9.5,
				0.5,
				-33.5
			],
			"type":"VEC3"
		},
		{
			"bufferView":25,
			"componentType":5126,
			"count":72,
			"type":"VEC3"
		},
		{
			"bufferView":26,
			"componentType":5126,
			"count":72,
			"type":"VEC2"
		},
		{
			"bufferView":27,
			"componentType":5123,
			"count":144,
			"type":"SCALAR"
		},
		{
			"bufferView":28,
			"componentType":5126,
			"count":29,
			"max":[
				26.5,
				54.5,
				-28
			],
			"min":[
				9.5,
				22,
				-53.5
			],
			"type":"VEC3"
		},
		{
			"bufferView":29,
			"componentType":5126,
			"count":29,
			"type":"VEC3"
		},
		{
			"bufferView":30,
			"componentType":5126,
			"count":29,
			"type":"VEC2"
		},
		{
			"bufferView":31,
			"componentType":5123,
			"count":51,
			"type":"SCALAR"
		},
		{
			"bufferView":32,
			"componentType":5126,
			"count":40,
			"max":[
				26.5,
				54.5,
				-22
			],
			"min":[
				9.5,
				22.5,
				-62
			],
			"type":"VEC3"
		},
		{
			"bufferView":33,
			"componentType":5126,
			"count":40,
			"type":"VEC3"
		},
		{
			"bufferView":34,
			"componentType":5126,
			"count":40,
			"type":"VEC2"
		},
		{
			"bufferView":35,
			"componentType":5123,
			"count":60,
			"type":"SCALAR"
		},
		{
			"bufferView":36,
			"componentType":5126,
			"count":4,
			"max":[
				20.5,
				33.5,
				-53.53125
			],
			"min":[
				15.5,
				33.5,
				-56
			],
			"type":"VEC3"
		},
		{
			"bufferView":37,
			"componentType":5126,
			"count":4,
			"type":"VEC3"
		},
		{
			"bufferView":38,
			"componentType":5126,
			"count":4,
			"type":"VEC2"
		},
		{
			"bufferView":39,
			"componentType":5123,
			"count":6,
			"type":"SCALAR"
		},
		{
			"bufferView":40,
			"componentType":5126,
			"count":10,
			"max":[
				20.5,
				25,
				-42
			],
			"min":[
				15.5,
				22,
				-47.5
			],
			"type":"VEC3"
		},
		{
			"bufferView":41,
			"componentType":5126,
			"count":10,
			"type":"VEC3"
		},
		{
			"bufferView":42,
			"componentType":5126,
			"count":10,
			"type":"VEC2"
		},
		{
			"bufferView":43,
			"componentType":5123,
			"count":12,
			"type":"SCALAR"
		},
		{
			"bufferView":44,
			"componentType":5126,
			"count":4,
			"max":[
				26.5,
				25.5,
				-53.5
			],
			"min":[
				9.5,
				25,
				-53.5
			],
			"type":"VEC3"
		},
		{
			"bufferView":45,
			"componentType":5126,
			"count":4,
			"type":"VEC3"
		},
		{
			"bufferView":46,
			"componentType":5126,
			"count":4,
			"type":"VEC2"
		},
		{
			"bufferView":47,
			"componentType":5123,
			"count":6,
			"type":"SCALAR"
		},
		{
			"bufferView":48,
			"componentType":5126,
			"count":16,
			"max":[
				26.5,
				62,
				-28
			],
			"min":[
				9.5,
				10.5,
				-45
			],
			"type":"VEC3"
		},
		{
			"bufferView":49,
			"componentType":5126,
			"count":16,
			"type":"VEC3"
		},
		{
			"bufferView":50,
			"componentType":5126,
			"count":16,
			"type":"VEC2"
		},
		{
			"bufferView":51,
			"componentType":5123,
			"count":24,
			"type":"SCALAR"
		},
		{
			"bufferView":52,
			"componentType":5126,
			"count":10,
			"max":[
				26.5,
				54.5,
				-33.625
			],
			"min":[
				21,
				53.625,
				-51
			],
			"type":"VEC3"
		},
		{
			"bufferView":53,
			"componentType":5126,
			"count":10,
			"type":"VEC3"
		},
		{
			"bufferView":54,
			"componentType":5126,
			"count":10,
			"type":"VEC2"
		},
		{
			"bufferView":55,
			"componentType":5123,
			"count":18,
			"type":"SCALAR"
		},
		{
			"bufferView":56,
			"componentType":5126,
			"count":6,
			"max":[
				24,
				28,
				-53.5
			],
			"min":[
				12,
				28,
				-56
			],
			"type":"VEC3"
		},
		{
			"bufferView":57,
			"componentType":5126,
			"count":6,
			"type":"VEC3"
		},
		{
			"bufferView":58,
			"componentType":5126,
			"count":6,
			"type":"VEC2"
		},
		{
			"bufferView":59,
			"componentType":5123,
			"count":12,
			"type":"SCALAR"
		},
		{
			"bufferView":60,
			"componentType":5126,
			"count":20,
			"max":[
				25.1875,
				77,
				-30.8125
			],
			"min":[
				24.8125,
				76,
				-31.1875
			],
			"type":"VEC3"
		},
		{
			"bufferView":61,
			"componentType":5126,
			"count":20,
			"type":"VEC3"
		},
		{
			"bufferView":62,
			"componentType":5126,
			"count":20,
			"type":"VEC2"
		},
		{
			"bufferView":63,
			"componentType":5123,
			"count":30,
			"type":"SCALAR"
		}
	],
	"bufferViews":[
		{
			"buffer":0,
			"byteLength":4500,
			"byteOffset":0,
			"target":34962
		},
		{
			"buffer":0,
			"byteLength":4500,
			"byteOffset":4500,
			"target":34962
		},
		{
			"buffer":0,
			"byteLength":3000,
			"byteOffset":9000,
			"target":34962
		},
		{
			"buffer":0,
			"byteLength":1530,
			"byteOffset":12000,
			"target":34963
		},
		{
			"buffer":0,
			"byteLength":7632,
			"byteOffset":13532,
			"target":34962
		},
		{
			"buffer":0,
			"byteLength":7632,
			"byteOffset":21164,
			"target":34962
		},
		{
			"buffer":0,
			"byteLength":5088,
			"byteOffset":28796,
			"target":34962
		},
		{
			"buffer":0,
			"byteLength":2568,
			"byteOffset":33884,
			"target":34963
		},
		{
			"buffer":0,
			"byteLength":432,
			"byteOffset":36452,
			"target":34962
		},
		{
			"buffer":0,
			"byteLength":432,
			"byteOffset":36884,
			"target":34962
		},
		{
			"buffer":0,
			"byteLength":288,
			"byteOffset":37316,
			"target":34962
		},
		{
			"buffer":0,
			"byteLength":192,
			"byteOffset":37604,
			"target":34963
		},
		{
			"buffer":0,
			"byteLength":288,
			"byteOffset":37796,
			"target":34962
		},
		{
			"buffer":0,
			"byteLength":288,
			"byteOffset":38084,
			"target":34962
		},
		{
			"buffer":0,
			"byteLength":192,
			"byteOffset":38372,
			"target":34962
		},
		{
			"buffer":0,
			"byteLength":72,
			"byteOffset":38564,
			"target":34963
		},
		{
			"buffer":0,
			"byteLength":1032,
			"byteOffset":38636,
			"target":34962
		},
		{
			"buffer":0,
			"byteLength":1032,
			"byteOffset":39668,
			"target":34962
		},
		{
			"buffer":0,
			"byteLength":688,
			"byteOffset":40700,
			"target":34962
		},
		{
			"buffer":0,
			"byteLength":252,
			"byteOffset":41388,
			"target":34963
		},
		{
			"buffer":0,
			"byteLength":288,
			"byteOffset":41640,
			"target":34962
		},
		{
			"buffer":0,
			"byteLength":288,
			"byteOffset":41928,
			"target":34962
		},
		{
			"buffer":0,
			"byteLength":192,
			"byteOffset":42216,
			"target":34962
		},
		{
			"buffer":0,
			"byteLength":72,
			"byteOffset":42408,
			"target":34963
		},
		{
			"buffer":0,
			"byteLength":864,
			"byteOffset":42480,
			"target":34962
		},
		{
			"buffer":0,
			"byteLength":864,
			"byteOffset":43344,
			"target":34962
		},
		{
			"buffer":0,
			"byteLength":576,
			"byteOffset":44208,
			"target":34962
		},
		{
			"buffer":0,
			"byteLength":288,
			"byteOffset":44784,
			"target":34963
		},
		{
			"buffer":0,
			"byteLength":348,
			"byteOffset":45072,
			"target":34962
		},
		{
			"buffer":0,
			"byteLength":348,
			"byteOffset":45420,
			"target":34962
		},
		{
			"buffer":0,
			"byteLength":232,
			"byteOffset":45768,
			"target":34962
		},
		{
			"buffer":0,
			"byteLength":102,
			"byteOffset":46000,
			"target":34963
		},
		{
			"buffer":0,
			"byteLength":480,
			"byteOffset":46104,
			"target":34962
		},
		{
			"buffer":0,
			"byteLength":480,
			"byteOffset":46584,
			"target":34962
		},
		{
			"buffer":0,
			"byteLength":320,
			"byteOffset":47064,
			"target":34962
		},
		{
			"buffer":0,
			"byteLength":120,
			"byteOffset":47384,
			"target":34963
		},
		{
			"buffer":0,
			"byteLength":48,
			"byteOffset":47504,
			"target":34962
		},
		{
			"buffer":0,
			"byteLength":48,
			"byteOffset":47552,
			"target":34962
		},
		{
			"buffer":0,
			"byteLength":32,
			"byteOffset":47600,
			"target":34962
		},
		{
			"buffer":0,
			"byteLength":12,
			"byteOffset":47632,
			"target":34963
		},
		{
			"buffer":0,
			"byteLength":120,
			"byteOffset":47644,
			"target":34962
		},
		{
			"buffer":0,
			"byteLength":120,
			"byteOffset":47764,
			"target":34962
		},
		{
			"buffer":0,
			"byteLength":80,
			"byteOffset":47884,
			"target":34962
		},
		{
			"buffer":0,
			"byteLength":24,
			"byteOffset":47964,
			"target":34963
		},
		{
			"buffer":0,
			"byteLength":48,
			"byteOffset":47988,
			"target":34962
		},
		{
			"buffer":0,
			"byteLength":48,
			"byteOffset":48036,
			"target":34962
		},
		{
			"buffer":0,
			"byteLength":32,
			"byteOffset":48084,
			"target":34962
		},
		{
			"buffer":0,
			"byteLength":12,
			"byteOffset":48116,
			"target":34963
		},
		{
			"buffer":0,
			"byteLength":192,
			"byteOffset":48128,
			"target":34962
		},
		{
			"buffer":0,
			"byteLength":192,
			"byteOffset":48320,
			"target":34962
		},
		{
			"buffer":0,
			"byteLength":128,
			"byteOffset":48512,
			"target":34962
		},
		{
			"buffer":0,
			"byteLength":48,
			"byteOffset":48640,
			"target":34963
		},
		{
			"buffer":0,
			"byteLength":120,
			"byteOffset":48688,
			"target":34962
		},
		{
			"buffer":0,
			"byteLength":120,
			"byteOffset":48808,
			"target":34962
		},
		{
			"buffer":0,
			"byteLength":80,
			"byteOffset":48928,
			"target":34962
		},
		{
			"buffer":0,
			"byteLength":36,
			"byteOffset":49008,
			"target":34963
		},
		{
			"buffer":0,
			"byteLength":72,
			"byteOffset":49044,
			"target":34962
		},
		{
			"buffer":0,
			"byteLength":72,
			"byteOffset":49116,
			"target":34962
		},
		{
			"buffer":0,
			"byteLength":48,
			"byteOffset":49188,
			"target":34962
		},
		{
			"buffer":0,
			"byteLength":24,
			"byteOffset":49236,
			"target":34963
		},
		{
			"buffer":0,
			"byteLength":240,
			"byteOffset":49260,
			"target":34962
		},
		{
			"buffer":0,
			"byteLength":240,
			"byteOffset":49500,
			"target":34962
		},
		{
			"buffer":0,
			"byteLength":160,
			"byteOffset":49740,
			"target":34962
		},
		{
			"buffer":0,
			"byteLength":60,
			"byteOffset":49900,
			"target":34963
		}
	],
	"buffers":[
		{
			"byteLength":49960,
			"uri":"idbase.bin"
		}
	]
}
