{
	"asset":{
		"generator":"Khronos glTF Blender I/O v4.5.48",
		"version":"2.0"
	},
	"scene":0,
	"scenes":[
		{
			"name":"Scene",
			"nodes":[
				0
			]
		}
	],
	"nodes":[
		{
			"mesh":0,
			"name":"Object"
		}
	],
	"materials":[
		{
			"doubleSided":true,
			"name":"DS_EWALL06",
			"pbrMetallicRoughness":{
				"baseColorFactor":[
					0.800000011920929,
					0.800000011920929,
					0.800000011920929,
					1
				],
				"metallicFactor":0,
				"roughnessFactor":0.5
			}
		},
		{
			"doubleSided":true,
			"name":"STRIPLITE2",
			"pbrMetallicRoughness":{
				"baseColorFactor":[
					0.800000011920929,
					0.800000011920929,
					0.800000011920929,
					1
				],
				"metallicFactor":0,
				"roughnessFactor":0.5
			}
		},
		{
			"doubleSided":true,
			"name":"RWAY_MIDDLE",
			"pbrMetallicRoughness":{
				"baseColorFactor":[
					0.800000011920929,
					0.800000011920929,
					0.800000011920929,
					1
				],
				"metallicFactor":0,
				"roughnessFactor":0.5
			}
		},
		{
			"doubleSided":true,
			"name":"ROOFBEAM",
			"pbrMetallicRoughness":{
				"baseColorFactor":[
					0.800000011920929,
					0.800000011920929,
					0.800000011920929,
					1
				],
				"metallicFactor":0,
				"roughnessFactor":0.5
			}
		},
		{
			"doubleSided":true,
			"name":"ROCK_WALL_LITE",
			"pbrMetallicRoughness":{
				"baseColorFactor":[
					0.800000011920929,
					0.800000011920929,
					0.800000011920929,
					1
				],
				"metallicFactor":0,
				"roughnessFactor":0.5
			}
		},
		{
			"doubleSided":true,
			"name":"STRIPLITE3",
			"pbrMetallicRoughness":{
				"baseColorFactor":[
					0.800000011920929,
					0.800000011920929,
					0.800000011920929,
					1
				],
				"metallicFactor":0,
				"roughnessFactor":0.5
			}
		},
		{
			"doubleSided":true,
			"name":"ROCK_SMALLLITE",
			"pbrMetallicRoughness":{
				"baseColorFactor":[
					0.800000011920929,
					0.800000011920929,
					0.800000011920929,
					1
				],
				"metallicFactor":0,
				"roughnessFactor":0.5
			}
		}
	],
	"meshes":[
		{
			"name":"Mesh",
			"primitives":[
				{
					"attributes":{
						"POSITION":0,
						"NORMAL":1,
						"TEXCOORD_0":2
					},
					"indices":3,
					"material":0
				},
				{
					"attributes":{
						"POSITION":4,
						"NORMAL":5,
						"TEXCOORD_0":6
					},
					"indices":7,
					"material":1
				},
				{
					"attributes":{
						"POSITION":8,
						"NORMAL":9,
						"TEXCOORD_0":10
					},
					"indices":11,
					"material":2
				},
				{
					"attributes":{
						"POSITION":12,
						"NORMAL":13,
						"TEXCOORD_0":14
					},
					"indices":15,
					"material":3
				},
				{
					"attributes":{
						"POSITION":16,
						"NORMAL":17,
						"TEXCOORD_0":18
					},
					"indices":19,
					"material":4
				},
				{
					"attributes":{
						"POSITION":20,
						"NORMAL":21,
						"TEXCOORD_0":22
					},
					"indices":23,
					"material":5
				},
				{
					"attributes":{
						"POSITION":24,
						"NORMAL":25,
						"TEXCOORD_0":26
					},
					"indices":27,
					"material":6
				}
			]
		}
	],
	"accessors":[
		{
			"bufferView":0,
			"componentType":5126,
			"count":1234,
			"max":[
				22,
				16,
				20
			],
			"min":[
				-18,
				-7.5,
				-80
			],
			"type":"VEC3"
		},
		{
			"bufferView":1,
			"componentType":5126,
			"count":1234,
			"type":"VEC3"
		},
		{
			"bufferView":2,
			"componentType":5126,
			"count":1234,
			"type":"VEC2"
		},
		{
			"bufferView":3,
			"componentType":5123,
			"count":2574,
			"type":"SCALAR"
		},
		{
			"bufferView":4,
			"componentType":5126,
			"count":16,
			"max":[
				10.34375,
				-5.25,
				-4
			],
			"min":[
				-6.34375,
				-7.0625,
				-56
			],
			"type":"VEC3"
		},
		{
			"bufferView":5,
			"componentType":5126,
			"count":16,
			"type":"VEC3"
		},
		{
			"bufferView":6,
			"componentType":5126,
			"count":16,
			"type":"VEC2"
		},
		{
			"bufferView":7,
			"componentType":5123,
			"count":24,
			"type":"SCALAR"
		},
		{
			"bufferView":8,
			"componentType":5126,
			"count":58,
			"max":[
				10.34375,
				-5.25,
				-4
			],
			"min":[
				-6.34375,
				-7.0625,
				-56
			],
			"type":"VEC3"
		},
		{
			"bufferView":9,
			"componentType":5126,
			"count":58,
			"type":"VEC3"
		},
		{
			"bufferView":10,
			"componentType":5126,
			"count":58,
			"type":"VEC2"
		},
		{
			"bufferView":11,
			"componentType":5123,
			"count":102,
			"type":"SCALAR"
		},
		{
			"bufferView":12,
			"componentType":5126,
			"count":26,
			"max":[
				16.25,
				10.6875,
				-15
			],
			"min":[
				-12.3125,
				7,
				-46
			],
			"type":"VEC3"
		},
		{
			"bufferView":13,
			"componentType":5126,
			"count":26,
			"type":"VEC3"
		},
		{
			"bufferView":14,
			"componentType":5126,
			"count":26,
			"type":"VEC2"
		},
		{
			"bufferView":15,
			"componentType":5123,
			"count":42,
			"type":"SCALAR"
		},
		{
			"bufferView":16,
			"componentType":5126,
			"count":16,
			"max":[
				16.25,
				7.125,
				-15
			],
			"min":[
				-12.3125,
				-4.40625,
				-46
			],
			"type":"VEC3"
		},
		{
			"bufferView":17,
			"componentType":5126,
			"count":16,
			"type":"VEC3"
		},
		{
			"bufferView":18,
			"componentType":5126,
			"count":16,
			"type":"VEC2"
		},
		{
			"bufferView":19,
			"componentType":5123,
			"count":24,
			"type":"SCALAR"
		},
		{
			"bufferView":20,
			"componentType":5126,
			"count":16,
			"max":[
				16.25,
				-4.40625,
				-15
			],
			"min":[
				-12.28125,
				-5.25,
				-46
			],
			"type":"VEC3"
		},
		{
			"bufferView":21,
			"componentType":5126,
			"count":16,
			"type":"VEC3"
		},
		{
			"bufferView":22,
			"componentType":5126,
			"count":16,
			"type":"VEC2"
		},
		{
			"bufferView":23,
			"componentType":5123,
			"count":24,
			"type":"SCALAR"
		},
		{
			"bufferView":24,
			"componentType":5126,
			"count":12,
			"max":[
				10.34375,
				11.5625,
				5.53125
			],
			"min":[
				-6.34375,
				11.5625,
				-65.5625
			],
			"type":"VEC3"
		},
		{
			"bufferView":25,
			"componentType":5126,
			"count":12,
			"type":"VEC3"
		},
		{
			"bufferView":26,
			"componentType":5126,
			"count":12,
			"type":"VEC2"
		},
		{
			"bufferView":27,
			"componentType":5123,
			"count":24,
			"type":"SCALAR"
		}
	],
	"bufferViews":[
		{
			"buffer":0,
			"byteLength":14808,
			"byteOffset":0,
			"target":34962
		},
		{
			"buffer":0,
			"byteLength":14808,
			"byteOffset":14808,
			"target":34962
		},
		{
			"buffer":0,
			"byteLength":9872,
			"byteOffset":29616,
			"target":34962
		},
		{
			"buffer":0,
			"byteLength":5148,
			"byteOffset":39488,
			"target":34963
		},
		{
			"buffer":0,
			"byteLength":192,
			"byteOffset":44636,
			"target":34962
		},
		{
			"buffer":0,
			"byteLength":192,
			"byteOffset":44828,
			"target":34962
		},
		{
			"buffer":0,
			"byteLength":128,
			"byteOffset":45020,
			"target":34962
		},
		{
			"buffer":0,
			"byteLength":48,
			"byteOffset":45148,
			"target":34963
		},
		{
			"buffer":0,
			"byteLength":696,
			"byteOffset":45196,
			"target":34962
		},
		{
			"buffer":0,
			"byteLength":696,
			"byteOffset":45892,
			"target":34962
		},
		{
			"buffer":0,
			"byteLength":464,
			"byteOffset":46588,
			"target":34962
		},
		{
			"buffer":0,
			"byteLength":204,
			"byteOffset":47052,
			"target":34963
		},
		{
			"buffer":0,
			"byteLength":312,
			"byteOffset":47256,
			"target":34962
		},
		{
			"buffer":0,
			"byteLength":312,
			"byteOffset":47568,
			"target":34962
		},
		{
			"buffer":0,
			"byteLength":208,
			"byteOffset":47880,
			"target":34962
		},
		{
			"buffer":0,
			"byteLength":84,
			"byteOffset":48088,
			"target":34963
		},
		{
			"buffer":0,
			"byteLength":192,
			"byteOffset":48172,
			"target":34962
		},
		{
			"buffer":0,
			"byteLength":192,
			"byteOffset":48364,
			"target":34962
		},
		{
			"buffer":0,
			"byteLength":128,
			"byteOffset":48556,
			"target":34962
		},
		{
			"buffer":0,
			"byteLength":48,
			"byteOffset":48684,
			"target":34963
		},
		{
			"buffer":0,
			"byteLength":192,
			"byteOffset":48732,
			"target":34962
		},
		{
			"buffer":0,
			"byteLength":192,
			"byteOffset":48924,
			"target":34962
		},
		{
			"buffer":0,
			"byteLength":128,
			"byteOffset":49116,
			"target":34962
		},
		{
			"buffer":0,
			"byteLength":48,
			"byteOffset":49244,
			"target":34963
		},
		{
			"buffer":0,
			"byteLength":144,
			"byteOffset":49292,
			"target":34962
		},
		{
			"buffer":0,
			"byteLength":144,
			"byteOffset":49436,
			"target":34962
		},
		{
			"buffer":0,
			"byteLength":96,
			"byteOffset":49580,
			"target":34962
		},
		{
			"buffer":0,
			"byteLength":48,
			"byteOffset":49676,
			"target":34963
		}
	],
	"buffers":[
		{
			"byteLength":49724,
			"uri":"idhangar.bin"
		}
	]
}
