{
	"asset":{
		"generator":"Khronos glTF Blender I/O v4.5.48",
		"version":"2.0"
	},
	"scene":0,
	"scenes":[
		{
			"name":"Scene",
			"nodes":[
				0
			]
		}
	],
	"nodes":[
		{
			"mesh":0,
			"name":"Object"
		}
	],
	"materials":[
		{
			"doubleSided":true,
			"name":"SW_IWAL03",
			"pbrMetallicRoughness":{
				"baseColorFactor":[
					0.800000011920929,
					0.800000011920929,
					0.800000011920929,
					1
				],
				"metallicFactor":0,
				"roughnessFactor":0.5
			}
		},
		{
			"doubleSided":true,
			"name":"DS_ICHUTE02",
			"pbrMetallicRoughness":{
				"baseColorFactor":[
					0.800000011920929,
					0.800000011920929,
					0.800000011920929,
					1
				],
				"metallicFactor":0,
				"roughnessFactor":0.5
			}
		},
		{
			"doubleSided":true,
			"name":"SW_IWAL01",
			"pbrMetallicRoughness":{
				"baseColorFactor":[
					0.800000011920929,
					0.800000011920929,
					0.800000011920929,
					1
				],
				"metallicFactor":0,
				"roughnessFactor":0.5
			}
		},
		{
			"doubleSided":true,
			"name":"DS_EFLOOR1",
			"pbrMetallicRoughness":{
				"baseColorFactor":[
					0.800000011920929,
					0.800000011920929,
					0.800000011920929,
					1
				],
				"metallicFactor":0,
				"roughnessFactor":0.5
			}
		},
		{
			"doubleSided":true,
			"name":"BD_ESPE03",
			"pbrMetallicRoughness":{
				"baseColorFactor":[
					0.800000011920929,
					0.800000011920929,
					0.800000011920929,
					1
				],
				"metallicFactor":0,
				"roughnessFactor":0.5
			}
		},
		{
			"doubleSided":true,
			"name":"SW_EWAL02",
			"pbrMetallicRoughness":{
				"baseColorFactor":[
					0.800000011920929,
					0.800000011920929,
					0.800000011920929,
					1
				],
				"metallicFactor":0,
				"roughnessFactor":0.5
			}
		},
		{
			"doubleSided":true,
			"name":"DS_ILIG02",
			"pbrMetallicRoughness":{
				"baseColorFactor":[
					0.800000011920929,
					0.800000011920929,
					0.800000011920929,
					1
				],
				"metallicFactor":0,
				"roughnessFactor":0.5
			}
		},
		{
			"doubleSided":true,
			"name":"DS_TECHWALL_2",
			"pbrMetallicRoughness":{
				"baseColorFactor":[
					0.800000011920929,
					0.800000011920929,
					0.800000011920929,
					1
				],
				"metallicFactor":0,
				"roughnessFactor":0.5
			}
		},
		{
			"doubleSided":true,
			"name":"BE_ITEBOR02A",
			"pbrMetallicRoughness":{
				"baseColorFactor":[
					0.800000011920929,
					0.800000011920929,
					0.800000011920929,
					1
				],
				"metallicFactor":0,
				"roughnessFactor":0.5
			}
		},
		{
			"doubleSided":true,
			"name":"DS_IFLO04",
			"pbrMetallicRoughness":{
				"baseColorFactor":[
					0.800000011920929,
					0.800000011920929,
					0.800000011920929,
					1
				],
				"metallicFactor":0,
				"roughnessFactor":0.5
			}
		},
		{
			"doubleSided":true,
			"name":"BD_EBOR03",
			"pbrMetallicRoughness":{
				"baseColorFactor":[
					0.800000011920929,
					0.800000011920929,
					0.800000011920929,
					1
				],
				"metallicFactor":0,
				"roughnessFactor":0.5
			}
		},
		{
			"doubleSided":true,
			"name":"SW_ICEI01A",
			"pbrMetallicRoughness":{
				"baseColorFactor":[
					0.800000011920929,
					0.800000011920929,
					0.800000011920929,
					1
				],
				"metallicFactor":0,
				"roughnessFactor":0.5
			}
		},
		{
			"doubleSided":true,
			"name":"SW_EWAL02A",
			"pbrMetallicRoughness":{
				"baseColorFactor":[
					0.800000011920929,
					0.800000011920929,
					0.800000011920929,
					1
				],
				"metallicFactor":0,
				"roughnessFactor":0.5
			}
		},
		{
			"doubleSided":true,
			"name":"SW_IFLOOR01",
			"pbrMetallicRoughness":{
				"baseColorFactor":[
					0.800000011920929,
					0.800000011920929,
					0.800000011920929,
					1
				],
				"metallicFactor":0,
				"roughnessFactor":0.5
			}
		},
		{
			"doubleSided":true,
			"name":"SW_THRESHGRATE",
			"pbrMetallicRoughness":{
				"baseColorFactor":[
					0.800000011920929,
					0.800000011920929,
					0.800000011920929,
					1
				],
				"metallicFactor":0,
				"roughnessFactor":0.5
			}
		},
		{
			"doubleSided":true,
			"name":"SW_IPIPE02",
			"pbrMetallicRoughness":{
				"baseColorFactor":[
					0.800000011920929,
					0.800000011920929,
					0.800000011920929,
					1
				],
				"metallicFactor":0,
				"roughnessFactor":0.5
			}
		},
		{
			"doubleSided":true,
			"name":"DS_ILIG03",
			"pbrMetallicRoughness":{
				"baseColorFactor":[
					0.800000011920929,
					0.800000011920929,
					0.800000011920929,
					1
				],
				"metallicFactor":0,
				"roughnessFactor":0.5
			}
		},
		{
			"doubleSided":true,
			"name":"SW_FLOORGRATE",
			"pbrMetallicRoughness":{
				"baseColorFactor":[
					0.800000011920929,
					0.800000011920929,
					0.800000011920929,
					1
				],
				"metallicFactor":0,
				"roughnessFactor":0.5
			}
		},
		{
			"doubleSided":true,
			"name":"BE_ICEI01A",
			"pbrMetallicRoughness":{
				"baseColorFactor":[
					0.800000011920929,
					0.800000011920929,
					0.800000011920929,
					1
				],
				"metallicFactor":0,
				"roughnessFactor":0.5
			}
		}
	],
	"meshes":[
		{
			"name":"Mesh",
			"primitives":[
				{
					"attributes":{
						"POSITION":0,
						"NORMAL":1,
						"TEXCOORD_0":2
					},
					"indices":3,
					"material":0
				},
				{
					"attributes":{
						"POSITION":4,
						"NORMAL":5,
						"TEXCOORD_0":6
					},
					"indices":7,
					"material":1
				},
				{
					"attributes":{
						"POSITION":8,
						"NORMAL":9,
						"TEXCOORD_0":10
					},
					"indices":11,
					"material":2
				},
				{
					"attributes":{
						"POSITION":12,
						"NORMAL":13,
						"TEXCOORD_0":14
					},
					"indices":15,
					"material":3
				},
				{
					"attributes":{
						"POSITION":16,
						"NORMAL":17,
						"TEXCOORD_0":18
					},
					"indices":19,
					"material":4
				},
				{
					"attributes":{
						"POSITION":20,
						"NORMAL":21,
						"TEXCOORD_0":22
					},
					"indices":23,
					"material":5
				},
				{
					"attributes":{
						"POSITION":24,
						"NORMAL":25,
						"TEXCOORD_0":26
					},
					"indices":27,
					"material":6
				},
				{
					"attributes":{
						"POSITION":28,
						"NORMAL":29,
						"TEXCOORD_0":30
					},
					"indices":31,
					"material":7
				},
				{
					"attributes":{
						"POSITION":32,
						"NORMAL":33,
						"TEXCOORD_0":34
					},
					"indices":35,
					"material":8
				},
				{
					"attributes":{
						"POSITION":36,
						"NORMAL":37,
						"TEXCOORD_0":38
					},
					"indices":39,
					"material":9
				},
				{
					"attributes":{
						"POSITION":40,
						"NORMAL":41,
						"TEXCOORD_0":42
					},
					"indices":43,
					"material":10
				},
				{
					"attributes":{
						"POSITION":44,
						"NORMAL":45,
						"TEXCOORD_0":46
					},
					"indices":47,
					"material":11
				},
				{
					"attributes":{
						"POSITION":48,
						"NORMAL":49,
						"TEXCOORD_0":50
					},
					"indices":51,
					"material":12
				},
				{
					"attributes":{
						"POSITION":52,
						"NORMAL":53,
						"TEXCOORD_0":54
					},
					"indices":55,
					"material":13
				},
				{
					"attributes":{
						"POSITION":56,
						"NORMAL":57,
						"TEXCOORD_0":58
					},
					"indices":59,
					"material":14
				},
				{
					"attributes":{
						"POSITION":60,
						"NORMAL":61,
						"TEXCOORD_0":62
					},
					"indices":63,
					"material":15
				},
				{
					"attributes":{
						"POSITION":64,
						"NORMAL":65,
						"TEXCOORD_0":66
					},
					"indices":67,
					"material":16
				},
				{
					"attributes":{
						"POSITION":68,
						"NORMAL":69,
						"TEXCOORD_0":70
					},
					"indices":71,
					"material":17
				},
				{
					"attributes":{
						"POSITION":72,
						"NORMAL":73,
						"TEXCOORD_0":74
					},
					"indices":75,
					"material":18
				}
			]
		}
	],
	"accessors":[
		{
			"bufferView":0,
			"componentType":5126,
			"count":64,
			"max":[
				40.5,
				-9.75,
				19.5
			],
			"min":[
				-27.5,
				-9.75,
				-32.5
			],
			"type":"VEC3"
		},
		{
			"bufferView":1,
			"componentType":5126,
			"count":64,
			"type":"VEC3"
		},
		{
			"bufferView":2,
			"componentType":5126,
			"count":64,
			"type":"VEC2"
		},
		{
			"bufferView":3,
			"componentType":5123,
			"count":198,
			"type":"SCALAR"
		},
		{
			"bufferView":4,
			"componentType":5126,
			"count":209,
			"max":[
				40.5,
				-7,
				19.5
			],
			"min":[
				-27.5,
				-10,
				-32.5
			],
			"type":"VEC3"
		},
		{
			"bufferView":5,
			"componentType":5126,
			"count":209,
			"type":"VEC3"
		},
		{
			"bufferView":6,
			"componentType":5126,
			"count":209,
			"type":"VEC2"
		},
		{
			"bufferView":7,
			"componentType":5123,
			"count":321,
			"type":"SCALAR"
		},
		{
			"bufferView":8,
			"componentType":5126,
			"count":54,
			"max":[
				48,
				-10,
				15.5
			],
			"min":[
				-9.5,
				-21.25,
				-28.5
			],
			"type":"VEC3"
		},
		{
			"bufferView":9,
			"componentType":5126,
			"count":54,
			"type":"VEC3"
		},
		{
			"bufferView":10,
			"componentType":5126,
			"count":54,
			"type":"VEC2"
		},
		{
			"bufferView":11,
			"componentType":5123,
			"count":138,
			"type":"SCALAR"
		},
		{
			"bufferView":12,
			"componentType":5126,
			"count":12,
			"max":[
				29.25,
				-7.75,
				7.75
			],
			"min":[
				-40,
				-21.25,
				-20.75
			],
			"type":"VEC3"
		},
		{
			"bufferView":13,
			"componentType":5126,
			"count":12,
			"type":"VEC3"
		},
		{
			"bufferView":14,
			"componentType":5126,
			"count":12,
			"type":"VEC2"
		},
		{
			"bufferView":15,
			"componentType":5123,
			"count":18,
			"type":"SCALAR"
		},
		{
			"bufferView":16,
			"componentType":5126,
			"count":26,
			"max":[
				34.5,
				-7.75,
				13.5
			],
			"min":[
				-21.5,
				-9.75,
				-26.5
			],
			"type":"VEC3"
		},
		{
			"bufferView":17,
			"componentType":5126,
			"count":26,
			"type":"VEC3"
		},
		{
			"bufferView":18,
			"componentType":5126,
			"count":26,
			"type":"VEC2"
		},
		{
			"bufferView":19,
			"componentType":5123,
			"count":48,
			"type":"SCALAR"
		},
		{
			"bufferView":20,
			"componentType":5126,
			"count":253,
			"max":[
				40.5,
				-7.75,
				19.5
			],
			"min":[
				-40,
				-21.25,
				-32.5
			],
			"type":"VEC3"
		},
		{
			"bufferView":21,
			"componentType":5126,
			"count":253,
			"type":"VEC3"
		},
		{
			"bufferView":22,
			"componentType":5126,
			"count":253,
			"type":"VEC2"
		},
		{
			"bufferView":23,
			"componentType":5123,
			"count":417,
			"type":"SCALAR"
		},
		{
			"bufferView":24,
			"componentType":5126,
			"count":17,
			"max":[
				30.5,
				-6.25,
				9.5
			],
			"min":[
				-15.75,
				-7,
				-22.5
			],
			"type":"VEC3"
		},
		{
			"bufferView":25,
			"componentType":5126,
			"count":17,
			"type":"VEC3"
		},
		{
			"bufferView":26,
			"componentType":5126,
			"count":17,
			"type":"VEC2"
		},
		{
			"bufferView":27,
			"componentType":5123,
			"count":33,
			"type":"SCALAR"
		},
		{
			"bufferView":28,
			"componentType":5126,
			"count":38,
			"max":[
				30.5,
				-6.25,
				9.5
			],
			"min":[
				-17.5,
				-7.25,
				-22.5
			],
			"type":"VEC3"
		},
		{
			"bufferView":29,
			"componentType":5126,
			"count":38,
			"type":"VEC3"
		},
		{
			"bufferView":30,
			"componentType":5126,
			"count":38,
			"type":"VEC2"
		},
		{
			"bufferView":31,
			"componentType":5123,
			"count":60,
			"type":"SCALAR"
		},
		{
			"bufferView":32,
			"componentType":5126,
			"count":12,
			"max":[
				29.25,
				-6.25,
				7.75
			],
			"min":[
				-15.75,
				-7,
				-20.75
			],
			"type":"VEC3"
		},
		{
			"bufferView":33,
			"componentType":5126,
			"count":12,
			"type":"VEC3"
		},
		{
			"bufferView":34,
			"componentType":5126,
			"count":12,
			"type":"VEC2"
		},
		{
			"bufferView":35,
			"componentType":5123,
			"count":18,
			"type":"SCALAR"
		},
		{
			"bufferView":36,
			"componentType":5126,
			"count":18,
			"max":[
				-17.5,
				-7.75,
				9.5
			],
			"min":[
				-40,
				-21.25,
				-22.5
			],
			"type":"VEC3"
		},
		{
			"bufferView":37,
			"componentType":5126,
			"count":18,
			"type":"VEC3"
		},
		{
			"bufferView":38,
			"componentType":5126,
			"count":18,
			"type":"VEC2"
		},
		{
			"bufferView":39,
			"componentType":5123,
			"count":30,
			"type":"SCALAR"
		},
		{
			"bufferView":40,
			"componentType":5126,
			"count":226,
			"max":[
				48,
				-7.25,
				9.5
			],
			"min":[
				-17.5,
				-21.25,
				-22.5
			],
			"type":"VEC3"
		},
		{
			"bufferView":41,
			"componentType":5126,
			"count":226,
			"type":"VEC3"
		},
		{
			"bufferView":42,
			"componentType":5126,
			"count":226,
			"type":"VEC2"
		},
		{
			"bufferView":43,
			"componentType":5123,
			"count":384,
			"type":"SCALAR"
		},
		{
			"bufferView":44,
			"componentType":5126,
			"count":28,
			"max":[
				33.5,
				-10.5,
				1
			],
			"min":[
				12,
				-10.5,
				-14
			],
			"type":"VEC3"
		},
		{
			"bufferView":45,
			"componentType":5126,
			"count":28,
			"type":"VEC3"
		},
		{
			"bufferView":46,
			"componentType":5126,
			"count":28,
			"type":"VEC2"
		},
		{
			"bufferView":47,
			"componentType":5123,
			"count":78,
			"type":"SCALAR"
		},
		{
			"bufferView":48,
			"componentType":5126,
			"count":12,
			"max":[
				31,
				-11.75,
				1
			],
			"min":[
				22.5,
				-18.5,
				-14
			],
			"type":"VEC3"
		},
		{
			"bufferView":49,
			"componentType":5126,
			"count":12,
			"type":"VEC3"
		},
		{
			"bufferView":50,
			"componentType":5126,
			"count":12,
			"type":"VEC2"
		},
		{
			"bufferView":51,
			"componentType":5123,
			"count":24,
			"type":"SCALAR"
		},
		{
			"bufferView":52,
			"componentType":5126,
			"count":12,
			"max":[
				33.5,
				-18.5,
				1
			],
			"min":[
				22.5,
				-18.5,
				-14
			],
			"type":"VEC3"
		},
		{
			"bufferView":53,
			"componentType":5126,
			"count":12,
			"type":"VEC3"
		},
		{
			"bufferView":54,
			"componentType":5126,
			"count":12,
			"type":"VEC2"
		},
		{
			"bufferView":55,
			"componentType":5123,
			"count":24,
			"type":"SCALAR"
		},
		{
			"bufferView":56,
			"componentType":5126,
			"count":72,
			"max":[
				36,
				-11.75,
				-2.25
			],
			"min":[
				34,
				-18.5,
				-10.75
			],
			"type":"VEC3"
		},
		{
			"bufferView":57,
			"componentType":5126,
			"count":72,
			"type":"VEC3"
		},
		{
			"bufferView":58,
			"componentType":5126,
			"count":72,
			"type":"VEC2"
		},
		{
			"bufferView":59,
			"componentType":5123,
			"count":144,
			"type":"SCALAR"
		},
		{
			"bufferView":60,
			"componentType":5126,
			"count":16,
			"max":[
				36,
				-13.75,
				-1.5
			],
			"min":[
				34,
				-16.25,
				-11.5
			],
			"type":"VEC3"
		},
		{
			"bufferView":61,
			"componentType":5126,
			"count":16,
			"type":"VEC3"
		},
		{
			"bufferView":62,
			"componentType":5126,
			"count":16,
			"type":"VEC2"
		},
		{
			"bufferView":63,
			"componentType":5123,
			"count":24,
			"type":"SCALAR"
		},
		{
			"bufferView":64,
			"componentType":5126,
			"count":24,
			"max":[
				36.5,
				-11.75,
				-1.5
			],
			"min":[
				33.5,
				-16.25,
				-11.5
			],
			"type":"VEC3"
		},
		{
			"bufferView":65,
			"componentType":5126,
			"count":24,
			"type":"VEC3"
		},
		{
			"bufferView":66,
			"componentType":5126,
			"count":24,
			"type":"VEC2"
		},
		{
			"bufferView":67,
			"componentType":5123,
			"count":36,
			"type":"SCALAR"
		},
		{
			"bufferView":68,
			"componentType":5126,
			"count":18,
			"max":[
				33.5,
				-17.1875,
				1
			],
			"min":[
				12,
				-18.5,
				-14
			],
			"type":"VEC3"
		},
		{
			"bufferView":69,
			"componentType":5126,
			"count":18,
			"type":"VEC3"
		},
		{
			"bufferView":70,
			"componentType":5126,
			"count":18,
			"type":"VEC2"
		},
		{
			"bufferView":71,
			"componentType":5123,
			"count":36,
			"type":"SCALAR"
		},
		{
			"bufferView":72,
			"componentType":5126,
			"count":12,
			"max":[
				27.25,
				-10.65625,
				1
			],
			"min":[
				12,
				-11.75,
				-14
			],
			"type":"VEC3"
		},
		{
			"bufferView":73,
			"componentType":5126,
			"count":12,
			"type":"VEC3"
		},
		{
			"bufferView":74,
			"componentType":5126,
			"count":12,
			"type":"VEC2"
		},
		{
			"bufferView":75,
			"componentType":5123,
			"count":18,
			"type":"SCALAR"
		}
	],
	"bufferViews":[
		{
			"buffer":0,
			"byteLength":768,
			"byteOffset":0,
			"target":34962
		},
		{
			"buffer":0,
			"byteLength":768,
			"byteOffset":768,
			"target":34962
		},
		{
			"buffer":0,
			"byteLength":512,
			"byteOffset":1536,
			"target":34962
		},
		{
			"buffer":0,
			"byteLength":396,
			"byteOffset":2048,
			"target":34963
		},
		{
			"buffer":0,
			"byteLength":2508,
			"byteOffset":2444,
			"target":34962
		},
		{
			"buffer":0,
			"byteLength":2508,
			"byteOffset":4952,
			"target":34962
		},
		{
			"buffer":0,
			"byteLength":1672,
			"byteOffset":7460,
			"target":34962
		},
		{
			"buffer":0,
			"byteLength":642,
			"byteOffset":9132,
			"target":34963
		},
		{
			"buffer":0,
			"byteLength":648,
			"byteOffset":9776,
			"target":34962
		},
		{
			"buffer":0,
			"byteLength":648,
			"byteOffset":10424,
			"target":34962
		},
		{
			"buffer":0,
			"byteLength":432,
			"byteOffset":11072,
			"target":34962
		},
		{
			"buffer":0,
			"byteLength":276,
			"byteOffset":11504,
			"target":34963
		},
		{
			"buffer":0,
			"byteLength":144,
			"byteOffset":11780,
			"target":34962
		},
		{
			"buffer":0,
			"byteLength":144,
			"byteOffset":11924,
			"target":34962
		},
		{
			"buffer":0,
			"byteLength":96,
			"byteOffset":12068,
			"target":34962
		},
		{
			"buffer":0,
			"byteLength":36,
			"byteOffset":12164,
			"target":34963
		},
		{
			"buffer":0,
			"byteLength":312,
			"byteOffset":12200,
			"target":34962
		},
		{
			"buffer":0,
			"byteLength":312,
			"byteOffset":12512,
			"target":34962
		},
		{
			"buffer":0,
			"byteLength":208,
			"byteOffset":12824,
			"target":34962
		},
		{
			"buffer":0,
			"byteLength":96,
			"byteOffset":13032,
			"target":34963
		},
		{
			"buffer":0,
			"byteLength":3036,
			"byteOffset":13128,
			"target":34962
		},
		{
			"buffer":0,
			"byteLength":3036,
			"byteOffset":16164,
			"target":34962
		},
		{
			"buffer":0,
			"byteLength":2024,
			"byteOffset":19200,
			"target":34962
		},
		{
			"buffer":0,
			"byteLength":834,
			"byteOffset":21224,
			"target":34963
		},
		{
			"buffer":0,
			"byteLength":204,
			"byteOffset":22060,
			"target":34962
		},
		{
			"buffer":0,
			"byteLength":204,
			"byteOffset":22264,
			"target":34962
		},
		{
			"buffer":0,
			"byteLength":136,
			"byteOffset":22468,
			"target":34962
		},
		{
			"buffer":0,
			"byteLength":66,
			"byteOffset":22604,
			"target":34963
		},
		{
			"buffer":0,
			"byteLength":456,
			"byteOffset":22672,
			"target":34962
		},
		{
			"buffer":0,
			"byteLength":456,
			"byteOffset":23128,
			"target":34962
		},
		{
			"buffer":0,
			"byteLength":304,
			"byteOffset":23584,
			"target":34962
		},
		{
			"buffer":0,
			"byteLength":120,
			"byteOffset":23888,
			"target":34963
		},
		{
			"buffer":0,
			"byteLength":144,
			"byteOffset":24008,
			"target":34962
		},
		{
			"buffer":0,
			"byteLength":144,
			"byteOffset":24152,
			"target":34962
		},
		{
			"buffer":0,
			"byteLength":96,
			"byteOffset":24296,
			"target":34962
		},
		{
			"buffer":0,
			"byteLength":36,
			"byteOffset":24392,
			"target":34963
		},
		{
			"buffer":0,
			"byteLength":216,
			"byteOffset":24428,
			"target":34962
		},
		{
			"buffer":0,
			"byteLength":216,
			"byteOffset":24644,
			"target":34962
		},
		{
			"buffer":0,
			"byteLength":144,
			"byteOffset":24860,
			"target":34962
		},
		{
			"buffer":0,
			"byteLength":60,
			"byteOffset":25004,
			"target":34963
		},
		{
			"buffer":0,
			"byteLength":2712,
			"byteOffset":25064,
			"target":34962
		},
		{
			"buffer":0,
			"byteLength":2712,
			"byteOffset":27776,
			"target":34962
		},
		{
			"buffer":0,
			"byteLength":1808,
			"byteOffset":30488,
			"target":34962
		},
		{
			"buffer":0,
			"byteLength":768,
			"byteOffset":32296,
			"target":34963
		},
		{
			"buffer":0,
			"byteLength":336,
			"byteOffset":33064,
			"target":34962
		},
		{
			"buffer":0,
			"byteLength":336,
			"byteOffset":33400,
			"target":34962
		},
		{
			"buffer":0,
			"byteLength":224,
			"byteOffset":33736,
			"target":34962
		},
		{
			"buffer":0,
			"byteLength":156,
			"byteOffset":33960,
			"target":34963
		},
		{
			"buffer":0,
			"byteLength":144,
			"byteOffset":34116,
			"target":34962
		},
		{
			"buffer":0,
			"byteLength":144,
			"byteOffset":34260,
			"target":34962
		},
		{
			"buffer":0,
			"byteLength":96,
			"byteOffset":34404,
			"target":34962
		},
		{
			"buffer":0,
			"byteLength":48,
			"byteOffset":34500,
			"target":34963
		},
		{
			"buffer":0,
			"byteLength":144,
			"byteOffset":34548,
			"target":34962
		},
		{
			"buffer":0,
			"byteLength":144,
			"byteOffset":34692,
			"target":34962
		},
		{
			"buffer":0,
			"byteLength":96,
			"byteOffset":34836,
			"target":34962
		},
		{
			"buffer":0,
			"byteLength":48,
			"byteOffset":34932,
			"target":34963
		},
		{
			"buffer":0,
			"byteLength":864,
			"byteOffset":34980,
			"target":34962
		},
		{
			"buffer":0,
			"byteLength":864,
			"byteOffset":35844,
			"target":34962
		},
		{
			"buffer":0,
			"byteLength":576,
			"byteOffset":36708,
			"target":34962
		},
		{
			"buffer":0,
			"byteLength":288,
			"byteOffset":37284,
			"target":34963
		},
		{
			"buffer":0,
			"byteLength":192,
			"byteOffset":37572,
			"target":34962
		},
		{
			"buffer":0,
			"byteLength":192,
			"byteOffset":37764,
			"target":34962
		},
		{
			"buffer":0,
			"byteLength":128,
			"byteOffset":37956,
			"target":34962
		},
		{
			"buffer":0,
			"byteLength":48,
			"byteOffset":38084,
			"target":34963
		},
		{
			"buffer":0,
			"byteLength":288,
			"byteOffset":38132,
			"target":34962
		},
		{
			"buffer":0,
			"byteLength":288,
			"byteOffset":38420,
			"target":34962
		},
		{
			"buffer":0,
			"byteLength":192,
			"byteOffset":38708,
			"target":34962
		},
		{
			"buffer":0,
			"byteLength":72,
			"byteOffset":38900,
			"target":34963
		},
		{
			"buffer":0,
			"byteLength":216,
			"byteOffset":38972,
			"target":34962
		},
		{
			"buffer":0,
			"byteLength":216,
			"byteOffset":39188,
			"target":34962
		},
		{
			"buffer":0,
			"byteLength":144,
			"byteOffset":39404,
			"target":34962
		},
		{
			"buffer":0,
			"byteLength":72,
			"byteOffset":39548,
			"target":34963
		},
		{
			"buffer":0,
			"byteLength":144,
			"byteOffset":39620,
			"target":34962
		},
		{
			"buffer":0,
			"byteLength":144,
			"byteOffset":39764,
			"target":34962
		},
		{
			"buffer":0,
			"byteLength":96,
			"byteOffset":39908,
			"target":34962
		},
		{
			"buffer":0,
			"byteLength":36,
			"byteOffset":40004,
			"target":34963
		}
	],
	"buffers":[
		{
			"byteLength":40040,
			"uri":"inf_butch_icevehicle11.bin"
		}
	]
}
