{
	"asset":{
		"generator":"Khronos glTF Blender I/O v4.5.48",
		"version":"2.0"
	},
	"scene":0,
	"scenes":[
		{
			"name":"Scene",
			"nodes":[
				0
			]
		}
	],
	"nodes":[
		{
			"mesh":0,
			"name":"Object"
		}
	],
	"materials":[
		{
			"doubleSided":true,
			"name":"BE_ICEI01C",
			"pbrMetallicRoughness":{
				"baseColorFactor":[
					0.800000011920929,
					0.800000011920929,
					0.800000011920929,
					1
				],
				"metallicFactor":0,
				"roughnessFactor":0.5
			}
		},
		{
			"doubleSided":true,
			"name":"BE_EBOR01B",
			"pbrMetallicRoughness":{
				"baseColorFactor":[
					0.800000011920929,
					0.800000011920929,
					0.800000011920929,
					1
				],
				"metallicFactor":0,
				"roughnessFactor":0.5
			}
		},
		{
			"doubleSided":true,
			"name":"BE_EBOR01E",
			"pbrMetallicRoughness":{
				"baseColorFactor":[
					0.800000011920929,
					0.800000011920929,
					0.800000011920929,
					1
				],
				"metallicFactor":0,
				"roughnessFactor":0.5
			}
		},
		{
			"doubleSided":true,
			"name":"BE_EWAL03A",
			"pbrMetallicRoughness":{
				"baseColorFactor":[
					0.800000011920929,
					0.800000011920929,
					0.800000011920929,
					1
				],
				"metallicFactor":0,
				"roughnessFactor":0.5
			}
		},
		{
			"doubleSided":true,
			"name":"BE_ICOLIGOLA",
			"pbrMetallicRoughness":{
				"baseColorFactor":[
					0.800000011920929,
					0.800000011920929,
					0.800000011920929,
					1
				],
				"metallicFactor":0,
				"roughnessFactor":0.5
			}
		},
		{
			"doubleSided":true,
			"name":"BE_EWAL06",
			"pbrMetallicRoughness":{
				"baseColorFactor":[
					0.800000011920929,
					0.800000011920929,
					0.800000011920929,
					1
				],
				"metallicFactor":0,
				"roughnessFactor":0.5
			}
		},
		{
			"doubleSided":true,
			"name":"BE_IGENERICDARK",
			"pbrMetallicRoughness":{
				"baseColorFactor":[
					0.800000011920929,
					0.800000011920929,
					0.800000011920929,
					1
				],
				"metallicFactor":0,
				"roughnessFactor":0.5
			}
		}
	],
	"meshes":[
		{
			"name":"Mesh",
			"primitives":[
				{
					"attributes":{
						"POSITION":0,
						"NORMAL":1,
						"TEXCOORD_0":2
					},
					"indices":3,
					"material":0
				},
				{
					"attributes":{
						"POSITION":4,
						"NORMAL":5,
						"TEXCOORD_0":6
					},
					"indices":7,
					"material":1
				},
				{
					"attributes":{
						"POSITION":8,
						"NORMAL":9,
						"TEXCOORD_0":10
					},
					"indices":11,
					"material":2
				},
				{
					"attributes":{
						"POSITION":12,
						"NORMAL":13,
						"TEXCOORD_0":14
					},
					"indices":15,
					"material":3
				},
				{
					"attributes":{
						"POSITION":16,
						"NORMAL":17,
						"TEXCOORD_0":18
					},
					"indices":19,
					"material":4
				},
				{
					"attributes":{
						"POSITION":20,
						"NORMAL":21,
						"TEXCOORD_0":22
					},
					"indices":23,
					"material":5
				},
				{
					"attributes":{
						"POSITION":24,
						"NORMAL":25,
						"TEXCOORD_0":26
					},
					"indices":27,
					"material":6
				}
			]
		}
	],
	"accessors":[
		{
			"bufferView":0,
			"componentType":5126,
			"count":42,
			"max":[
				8,
				1,
				8
			],
			"min":[
				-8,
				-1,
				-8
			],
			"type":"VEC3"
		},
		{
			"bufferView":1,
			"componentType":5126,
			"count":42,
			"type":"VEC3"
		},
		{
			"bufferView":2,
			"componentType":5126,
			"count":42,
			"type":"VEC2"
		},
		{
			"bufferView":3,
			"componentType":5123,
			"count":90,
			"type":"SCALAR"
		},
		{
			"bufferView":4,
			"componentType":5126,
			"count":34,
			"max":[
				3,
				2,
				-13
			],
			"min":[
				-3,
				1,
				-19
			],
			"type":"VEC3"
		},
		{
			"bufferView":5,
			"componentType":5126,
			"count":34,
			"type":"VEC3"
		},
		{
			"bufferView":6,
			"componentType":5126,
			"count":34,
			"type":"VEC2"
		},
		{
			"bufferView":7,
			"componentType":5123,
			"count":54,
			"type":"SCALAR"
		},
		{
			"bufferView":8,
			"componentType":5126,
			"count":40,
			"max":[
				12,
				2,
				12
			],
			"min":[
				-12,
				-3,
				-20
			],
			"type":"VEC3"
		},
		{
			"bufferView":9,
			"componentType":5126,
			"count":40,
			"type":"VEC3"
		},
		{
			"bufferView":10,
			"componentType":5126,
			"count":40,
			"type":"VEC2"
		},
		{
			"bufferView":11,
			"componentType":5123,
			"count":78,
			"type":"SCALAR"
		},
		{
			"bufferView":12,
			"componentType":5126,
			"count":84,
			"max":[
				4,
				3.5,
				-8
			],
			"min":[
				-4,
				1,
				-20
			],
			"type":"VEC3"
		},
		{
			"bufferView":13,
			"componentType":5126,
			"count":84,
			"type":"VEC3"
		},
		{
			"bufferView":14,
			"componentType":5126,
			"count":84,
			"type":"VEC2"
		},
		{
			"bufferView":15,
			"componentType":5123,
			"count":150,
			"type":"SCALAR"
		},
		{
			"bufferView":16,
			"componentType":5126,
			"count":26,
			"max":[
				3,
				1,
				-13
			],
			"min":[
				-3,
				1,
				-19
			],
			"type":"VEC3"
		},
		{
			"bufferView":17,
			"componentType":5126,
			"count":26,
			"type":"VEC3"
		},
		{
			"bufferView":18,
			"componentType":5126,
			"count":26,
			"type":"VEC2"
		},
		{
			"bufferView":19,
			"componentType":5123,
			"count":54,
			"type":"SCALAR"
		},
		{
			"bufferView":20,
			"componentType":5126,
			"count":12,
			"max":[
				3,
				3.5,
				-13
			],
			"min":[
				-3,
				3.5,
				-19
			],
			"type":"VEC3"
		},
		{
			"bufferView":21,
			"componentType":5126,
			"count":12,
			"type":"VEC3"
		},
		{
			"bufferView":22,
			"componentType":5126,
			"count":12,
			"type":"VEC2"
		},
		{
			"bufferView":23,
			"componentType":5123,
			"count":30,
			"type":"SCALAR"
		},
		{
			"bufferView":24,
			"componentType":5126,
			"count":56,
			"max":[
				3,
				3.5,
				-13
			],
			"min":[
				-3,
				1,
				-19
			],
			"type":"VEC3"
		},
		{
			"bufferView":25,
			"componentType":5126,
			"count":56,
			"type":"VEC3"
		},
		{
			"bufferView":26,
			"componentType":5126,
			"count":56,
			"type":"VEC2"
		},
		{
			"bufferView":27,
			"componentType":5123,
			"count":96,
			"type":"SCALAR"
		}
	],
	"bufferViews":[
		{
			"buffer":0,
			"byteLength":504,
			"byteOffset":0,
			"target":34962
		},
		{
			"buffer":0,
			"byteLength":504,
			"byteOffset":504,
			"target":34962
		},
		{
			"buffer":0,
			"byteLength":336,
			"byteOffset":1008,
			"target":34962
		},
		{
			"buffer":0,
			"byteLength":180,
			"byteOffset":1344,
			"target":34963
		},
		{
			"buffer":0,
			"byteLength":408,
			"byteOffset":1524,
			"target":34962
		},
		{
			"buffer":0,
			"byteLength":408,
			"byteOffset":1932,
			"target":34962
		},
		{
			"buffer":0,
			"byteLength":272,
			"byteOffset":2340,
			"target":34962
		},
		{
			"buffer":0,
			"byteLength":108,
			"byteOffset":2612,
			"target":34963
		},
		{
			"buffer":0,
			"byteLength":480,
			"byteOffset":2720,
			"target":34962
		},
		{
			"buffer":0,
			"byteLength":480,
			"byteOffset":3200,
			"target":34962
		},
		{
			"buffer":0,
			"byteLength":320,
			"byteOffset":3680,
			"target":34962
		},
		{
			"buffer":0,
			"byteLength":156,
			"byteOffset":4000,
			"target":34963
		},
		{
			"buffer":0,
			"byteLength":1008,
			"byteOffset":4156,
			"target":34962
		},
		{
			"buffer":0,
			"byteLength":1008,
			"byteOffset":5164,
			"target":34962
		},
		{
			"buffer":0,
			"byteLength":672,
			"byteOffset":6172,
			"target":34962
		},
		{
			"buffer":0,
			"byteLength":300,
			"byteOffset":6844,
			"target":34963
		},
		{
			"buffer":0,
			"byteLength":312,
			"byteOffset":7144,
			"target":34962
		},
		{
			"buffer":0,
			"byteLength":312,
			"byteOffset":7456,
			"target":34962
		},
		{
			"buffer":0,
			"byteLength":208,
			"byteOffset":7768,
			"target":34962
		},
		{
			"buffer":0,
			"byteLength":108,
			"byteOffset":7976,
			"target":34963
		},
		{
			"buffer":0,
			"byteLength":144,
			"byteOffset":8084,
			"target":34962
		},
		{
			"buffer":0,
			"byteLength":144,
			"byteOffset":8228,
			"target":34962
		},
		{
			"buffer":0,
			"byteLength":96,
			"byteOffset":8372,
			"target":34962
		},
		{
			"buffer":0,
			"byteLength":60,
			"byteOffset":8468,
			"target":34963
		},
		{
			"buffer":0,
			"byteLength":672,
			"byteOffset":8528,
			"target":34962
		},
		{
			"buffer":0,
			"byteLength":672,
			"byteOffset":9200,
			"target":34962
		},
		{
			"buffer":0,
			"byteLength":448,
			"byteOffset":9872,
			"target":34962
		},
		{
			"buffer":0,
			"byteLength":192,
			"byteOffset":10320,
			"target":34963
		}
	],
	"buffers":[
		{
			"byteLength":10512,
			"uri":"kif_skylightfs.bin"
		}
	]
}
