{
	"asset":{
		"generator":"Khronos glTF Blender I/O v4.5.48",
		"version":"2.0"
	},
	"scene":0,
	"scenes":[
		{
			"name":"Scene",
			"nodes":[
				0
			]
		}
	],
	"nodes":[
		{
			"mesh":0,
			"name":"Object"
		}
	],
	"materials":[
		{
			"doubleSided":true,
			"name":"DS_GENWALL",
			"pbrMetallicRoughness":{
				"baseColorFactor":[
					0.800000011920929,
					0.800000011920929,
					0.800000011920929,
					1
				],
				"metallicFactor":0,
				"roughnessFactor":0.5
			}
		},
		{
			"doubleSided":true,
			"name":"DS_GENFLOOR",
			"pbrMetallicRoughness":{
				"baseColorFactor":[
					0.800000011920929,
					0.800000011920929,
					0.800000011920929,
					1
				],
				"metallicFactor":0,
				"roughnessFactor":0.5
			}
		},
		{
			"doubleSided":true,
			"name":"WALL_3",
			"pbrMetallicRoughness":{
				"baseColorFactor":[
					0.800000011920929,
					0.800000011920929,
					0.800000011920929,
					1
				],
				"metallicFactor":0,
				"roughnessFactor":0.5
			}
		},
		{
			"doubleSided":true,
			"name":"HANGAR_INDOOR1",
			"pbrMetallicRoughness":{
				"baseColorFactor":[
					0.800000011920929,
					0.800000011920929,
					0.800000011920929,
					1
				],
				"metallicFactor":0,
				"roughnessFactor":0.5
			}
		},
		{
			"doubleSided":true,
			"name":"DS_ETECHBOR01",
			"pbrMetallicRoughness":{
				"baseColorFactor":[
					0.800000011920929,
					0.800000011920929,
					0.800000011920929,
					1
				],
				"metallicFactor":0,
				"roughnessFactor":0.5
			}
		},
		{
			"doubleSided":true,
			"name":"HANGAR_INDOOR3",
			"pbrMetallicRoughness":{
				"baseColorFactor":[
					0.800000011920929,
					0.800000011920929,
					0.800000011920929,
					1
				],
				"metallicFactor":0,
				"roughnessFactor":0.5
			}
		},
		{
			"doubleSided":true,
			"name":"STRIPLITE3",
			"pbrMetallicRoughness":{
				"baseColorFactor":[
					0.800000011920929,
					0.800000011920929,
					0.800000011920929,
					1
				],
				"metallicFactor":0,
				"roughnessFactor":0.5
			}
		},
		{
			"doubleSided":true,
			"name":"DS_ILIG04",
			"pbrMetallicRoughness":{
				"baseColorFactor":[
					0.800000011920929,
					0.800000011920929,
					0.800000011920929,
					1
				],
				"metallicFactor":0,
				"roughnessFactor":0.5
			}
		},
		{
			"doubleSided":true,
			"name":"DOORLOGO2",
			"pbrMetallicRoughness":{
				"baseColorFactor":[
					0.800000011920929,
					0.800000011920929,
					0.800000011920929,
					1
				],
				"metallicFactor":0,
				"roughnessFactor":0.5
			}
		},
		{
			"doubleSided":true,
			"name":"SBOXLOGOTOP",
			"pbrMetallicRoughness":{
				"baseColorFactor":[
					0.800000011920929,
					0.800000011920929,
					0.800000011920929,
					1
				],
				"metallicFactor":0,
				"roughnessFactor":0.5
			}
		},
		{
			"doubleSided":true,
			"name":"ROOFBEAM",
			"pbrMetallicRoughness":{
				"baseColorFactor":[
					0.800000011920929,
					0.800000011920929,
					0.800000011920929,
					1
				],
				"metallicFactor":0,
				"roughnessFactor":0.5
			}
		},
		{
			"doubleSided":true,
			"name":"GRATE2",
			"pbrMetallicRoughness":{
				"baseColorFactor":[
					0.800000011920929,
					0.800000011920929,
					0.800000011920929,
					1
				],
				"metallicFactor":0,
				"roughnessFactor":0.5
			}
		},
		{
			"doubleSided":true,
			"name":"BLUETRIM3",
			"pbrMetallicRoughness":{
				"baseColorFactor":[
					0.800000011920929,
					0.800000011920929,
					0.800000011920929,
					1
				],
				"metallicFactor":0,
				"roughnessFactor":0.5
			}
		},
		{
			"doubleSided":true,
			"name":"LIGHT_COLD3",
			"pbrMetallicRoughness":{
				"baseColorFactor":[
					0.800000011920929,
					0.800000011920929,
					0.800000011920929,
					1
				],
				"metallicFactor":0,
				"roughnessFactor":0.5
			}
		},
		{
			"doubleSided":true,
			"name":"DS_EWALL06",
			"pbrMetallicRoughness":{
				"baseColorFactor":[
					0.800000011920929,
					0.800000011920929,
					0.800000011920929,
					1
				],
				"metallicFactor":0,
				"roughnessFactor":0.5
			}
		},
		{
			"doubleSided":true,
			"name":"LIGHT_SMALL2",
			"pbrMetallicRoughness":{
				"baseColorFactor":[
					0.800000011920929,
					0.800000011920929,
					0.800000011920929,
					1
				],
				"metallicFactor":0,
				"roughnessFactor":0.5
			}
		},
		{
			"doubleSided":true,
			"name":"ROCK_WALL_LITE4",
			"pbrMetallicRoughness":{
				"baseColorFactor":[
					0.800000011920929,
					0.800000011920929,
					0.800000011920929,
					1
				],
				"metallicFactor":0,
				"roughnessFactor":0.5
			}
		},
		{
			"doubleSided":true,
			"name":"CARRIERWALL4",
			"pbrMetallicRoughness":{
				"baseColorFactor":[
					0.800000011920929,
					0.800000011920929,
					0.800000011920929,
					1
				],
				"metallicFactor":0,
				"roughnessFactor":0.5
			}
		},
		{
			"doubleSided":true,
			"name":"SLABGRILL",
			"pbrMetallicRoughness":{
				"baseColorFactor":[
					0.800000011920929,
					0.800000011920929,
					0.800000011920929,
					1
				],
				"metallicFactor":0,
				"roughnessFactor":0.5
			}
		},
		{
			"doubleSided":true,
			"name":"ANTIGRAV",
			"pbrMetallicRoughness":{
				"baseColorFactor":[
					0.800000011920929,
					0.800000011920929,
					0.800000011920929,
					1
				],
				"metallicFactor":0,
				"roughnessFactor":0.5
			}
		}
	],
	"meshes":[
		{
			"name":"Mesh",
			"primitives":[
				{
					"attributes":{
						"POSITION":0,
						"NORMAL":1,
						"TEXCOORD_0":2
					},
					"indices":3,
					"material":0
				},
				{
					"attributes":{
						"POSITION":4,
						"NORMAL":5,
						"TEXCOORD_0":6
					},
					"indices":7,
					"material":1
				},
				{
					"attributes":{
						"POSITION":8,
						"NORMAL":9,
						"TEXCOORD_0":10
					},
					"indices":11,
					"material":2
				},
				{
					"attributes":{
						"POSITION":12,
						"NORMAL":13,
						"TEXCOORD_0":14
					},
					"indices":15,
					"material":3
				},
				{
					"attributes":{
						"POSITION":16,
						"NORMAL":17,
						"TEXCOORD_0":18
					},
					"indices":19,
					"material":4
				},
				{
					"attributes":{
						"POSITION":20,
						"NORMAL":21,
						"TEXCOORD_0":22
					},
					"indices":23,
					"material":5
				},
				{
					"attributes":{
						"POSITION":24,
						"NORMAL":25,
						"TEXCOORD_0":26
					},
					"indices":27,
					"material":6
				},
				{
					"attributes":{
						"POSITION":28,
						"NORMAL":29,
						"TEXCOORD_0":30
					},
					"indices":31,
					"material":7
				},
				{
					"attributes":{
						"POSITION":32,
						"NORMAL":33,
						"TEXCOORD_0":34
					},
					"indices":35,
					"material":8
				},
				{
					"attributes":{
						"POSITION":36,
						"NORMAL":37,
						"TEXCOORD_0":38
					},
					"indices":39,
					"material":9
				},
				{
					"attributes":{
						"POSITION":40,
						"NORMAL":41,
						"TEXCOORD_0":42
					},
					"indices":43,
					"material":10
				},
				{
					"attributes":{
						"POSITION":44,
						"NORMAL":45,
						"TEXCOORD_0":46
					},
					"indices":47,
					"material":11
				},
				{
					"attributes":{
						"POSITION":48,
						"NORMAL":49,
						"TEXCOORD_0":50
					},
					"indices":51,
					"material":12
				},
				{
					"attributes":{
						"POSITION":52,
						"NORMAL":53,
						"TEXCOORD_0":54
					},
					"indices":55,
					"material":13
				},
				{
					"attributes":{
						"POSITION":56,
						"NORMAL":57,
						"TEXCOORD_0":58
					},
					"indices":59,
					"material":14
				},
				{
					"attributes":{
						"POSITION":60,
						"NORMAL":61,
						"TEXCOORD_0":62
					},
					"indices":63,
					"material":15
				},
				{
					"attributes":{
						"POSITION":64,
						"NORMAL":65,
						"TEXCOORD_0":66
					},
					"indices":67,
					"material":16
				},
				{
					"attributes":{
						"POSITION":68,
						"NORMAL":69,
						"TEXCOORD_0":70
					},
					"indices":71,
					"material":17
				},
				{
					"attributes":{
						"POSITION":72,
						"NORMAL":73,
						"TEXCOORD_0":74
					},
					"indices":75,
					"material":18
				},
				{
					"attributes":{
						"POSITION":76,
						"NORMAL":77,
						"TEXCOORD_0":78
					},
					"indices":79,
					"material":19
				}
			]
		}
	],
	"accessors":[
		{
			"bufferView":0,
			"componentType":5126,
			"count":200,
			"max":[
				64,
				51.5,
				24
			],
			"min":[
				-24,
				-17.25,
				-89.5
			],
			"type":"VEC3"
		},
		{
			"bufferView":1,
			"componentType":5126,
			"count":200,
			"type":"VEC3"
		},
		{
			"bufferView":2,
			"componentType":5126,
			"count":200,
			"type":"VEC2"
		},
		{
			"bufferView":3,
			"componentType":5123,
			"count":426,
			"type":"SCALAR"
		},
		{
			"bufferView":4,
			"componentType":5126,
			"count":817,
			"max":[
				64,
				38,
				24
			],
			"min":[
				-24,
				-20.75,
				-94.5
			],
			"type":"VEC3"
		},
		{
			"bufferView":5,
			"componentType":5126,
			"count":817,
			"type":"VEC3"
		},
		{
			"bufferView":6,
			"componentType":5126,
			"count":817,
			"type":"VEC2"
		},
		{
			"bufferView":7,
			"componentType":5123,
			"count":1980,
			"type":"SCALAR"
		},
		{
			"bufferView":8,
			"componentType":5126,
			"count":48,
			"max":[
				64,
				22,
				6.343017578125
			],
			"min":[
				-24,
				0.53125,
				-7.625
			],
			"type":"VEC3"
		},
		{
			"bufferView":9,
			"componentType":5126,
			"count":48,
			"type":"VEC3"
		},
		{
			"bufferView":10,
			"componentType":5126,
			"count":48,
			"type":"VEC2"
		},
		{
			"bufferView":11,
			"componentType":5123,
			"count":84,
			"type":"SCALAR"
		},
		{
			"bufferView":12,
			"componentType":5126,
			"count":602,
			"max":[
				60,
				19.155893325805664,
				0.2161310315132141
			],
			"min":[
				-20,
				-17.25,
				-80.75
			],
			"type":"VEC3"
		},
		{
			"bufferView":13,
			"componentType":5126,
			"count":602,
			"type":"VEC3"
		},
		{
			"bufferView":14,
			"componentType":5126,
			"count":602,
			"type":"VEC2"
		},
		{
			"bufferView":15,
			"componentType":5123,
			"count":1503,
			"type":"SCALAR"
		},
		{
			"bufferView":16,
			"componentType":5126,
			"count":108,
			"max":[
				41,
				38,
				-25.375
			],
			"min":[
				-0.9375,
				-17.25,
				-88.5625
			],
			"type":"VEC3"
		},
		{
			"bufferView":17,
			"componentType":5126,
			"count":108,
			"type":"VEC3"
		},
		{
			"bufferView":18,
			"componentType":5126,
			"count":108,
			"type":"VEC2"
		},
		{
			"bufferView":19,
			"componentType":5123,
			"count":216,
			"type":"SCALAR"
		},
		{
			"bufferView":20,
			"componentType":5126,
			"count":160,
			"max":[
				27.25,
				-14.5,
				-40
			],
			"min":[
				12.75,
				-15.25,
				-74
			],
			"type":"VEC3"
		},
		{
			"bufferView":21,
			"componentType":5126,
			"count":160,
			"type":"VEC3"
		},
		{
			"bufferView":22,
			"componentType":5126,
			"count":160,
			"type":"VEC2"
		},
		{
			"bufferView":23,
			"componentType":5123,
			"count":240,
			"type":"SCALAR"
		},
		{
			"bufferView":24,
			"componentType":5126,
			"count":20,
			"max":[
				26.5,
				52.75,
				-89
			],
			"min":[
				26,
				51.5,
				-89.5
			],
			"type":"VEC3"
		},
		{
			"bufferView":25,
			"componentType":5126,
			"count":20,
			"type":"VEC3"
		},
		{
			"bufferView":26,
			"componentType":5126,
			"count":20,
			"type":"VEC2"
		},
		{
			"bufferView":27,
			"componentType":5123,
			"count":30,
			"type":"SCALAR"
		},
		{
			"bufferView":28,
			"componentType":5126,
			"count":12,
			"max":[
				64,
				5,
				2.78125
			],
			"min":[
				-24,
				4,
				2
			],
			"type":"VEC3"
		},
		{
			"bufferView":29,
			"componentType":5126,
			"count":12,
			"type":"VEC3"
		},
		{
			"bufferView":30,
			"componentType":5126,
			"count":12,
			"type":"VEC2"
		},
		{
			"bufferView":31,
			"componentType":5123,
			"count":24,
			"type":"SCALAR"
		},
		{
			"bufferView":32,
			"componentType":5126,
			"count":8,
			"max":[
				30.5,
				22,
				6.341885566711426
			],
			"min":[
				9.5,
				0.53125,
				-7.625
			],
			"type":"VEC3"
		},
		{
			"bufferView":33,
			"componentType":5126,
			"count":8,
			"type":"VEC3"
		},
		{
			"bufferView":34,
			"componentType":5126,
			"count":8,
			"type":"VEC2"
		},
		{
			"bufferView":35,
			"componentType":5123,
			"count":18,
			"type":"SCALAR"
		},
		{
			"bufferView":36,
			"componentType":5126,
			"count":12,
			"max":[
				30.5,
				19,
				-26.75
			],
			"min":[
				9.5,
				16.375,
				-33.25
			],
			"type":"VEC3"
		},
		{
			"bufferView":37,
			"componentType":5126,
			"count":12,
			"type":"VEC3"
		},
		{
			"bufferView":38,
			"componentType":5126,
			"count":12,
			"type":"VEC2"
		},
		{
			"bufferView":39,
			"componentType":5123,
			"count":18,
			"type":"SCALAR"
		},
		{
			"bufferView":40,
			"componentType":5126,
			"count":8,
			"max":[
				60,
				16.375,
				-27.5
			],
			"min":[
				-20,
				16.375,
				-32.5
			],
			"type":"VEC3"
		},
		{
			"bufferView":41,
			"componentType":5126,
			"count":8,
			"type":"VEC3"
		},
		{
			"bufferView":42,
			"componentType":5126,
			"count":8,
			"type":"VEC2"
		},
		{
			"bufferView":43,
			"componentType":5123,
			"count":12,
			"type":"SCALAR"
		},
		{
			"bufferView":44,
			"componentType":5126,
			"count":36,
			"max":[
				60,
				11,
				-6.602941036224365
			],
			"min":[
				-20,
				-20.75,
				-72
			],
			"type":"VEC3"
		},
		{
			"bufferView":45,
			"componentType":5126,
			"count":36,
			"type":"VEC3"
		},
		{
			"bufferView":46,
			"componentType":5126,
			"count":36,
			"type":"VEC2"
		},
		{
			"bufferView":47,
			"componentType":5123,
			"count":66,
			"type":"SCALAR"
		},
		{
			"bufferView":48,
			"componentType":5126,
			"count":10,
			"max":[
				60,
				11,
				-21.6875
			],
			"min":[
				-20,
				10.15625,
				-21.6875
			],
			"type":"VEC3"
		},
		{
			"bufferView":49,
			"componentType":5126,
			"count":10,
			"type":"VEC3"
		},
		{
			"bufferView":50,
			"componentType":5126,
			"count":10,
			"type":"VEC2"
		},
		{
			"bufferView":51,
			"componentType":5123,
			"count":18,
			"type":"SCALAR"
		},
		{
			"bufferView":52,
			"componentType":5126,
			"count":16,
			"max":[
				40,
				-12.5,
				-52
			],
			"min":[
				0.0625,
				-17.25,
				-62
			],
			"type":"VEC3"
		},
		{
			"bufferView":53,
			"componentType":5126,
			"count":16,
			"type":"VEC3"
		},
		{
			"bufferView":54,
			"componentType":5126,
			"count":16,
			"type":"VEC2"
		},
		{
			"bufferView":55,
			"componentType":5123,
			"count":24,
			"type":"SCALAR"
		},
		{
			"bufferView":56,
			"componentType":5126,
			"count":98,
			"max":[
				41,
				-17.25,
				-22.5
			],
			"min":[
				-1.8125,
				-17.25,
				-92
			],
			"type":"VEC3"
		},
		{
			"bufferView":57,
			"componentType":5126,
			"count":98,
			"type":"VEC3"
		},
		{
			"bufferView":58,
			"componentType":5126,
			"count":98,
			"type":"VEC2"
		},
		{
			"bufferView":59,
			"componentType":5123,
			"count":330,
			"type":"SCALAR"
		},
		{
			"bufferView":60,
			"componentType":5126,
			"count":22,
			"max":[
				32,
				7.4375,
				-8.1875
			],
			"min":[
				8,
				6.875,
				-46.09375
			],
			"type":"VEC3"
		},
		{
			"bufferView":61,
			"componentType":5126,
			"count":22,
			"type":"VEC3"
		},
		{
			"bufferView":62,
			"componentType":5126,
			"count":22,
			"type":"VEC2"
		},
		{
			"bufferView":63,
			"componentType":5123,
			"count":36,
			"type":"SCALAR"
		},
		{
			"bufferView":64,
			"componentType":5126,
			"count":26,
			"max":[
				30.5,
				7.4375,
				-7.049310207366943
			],
			"min":[
				9.5,
				7.4375,
				-47.96875
			],
			"type":"VEC3"
		},
		{
			"bufferView":65,
			"componentType":5126,
			"count":26,
			"type":"VEC3"
		},
		{
			"bufferView":66,
			"componentType":5126,
			"count":26,
			"type":"VEC2"
		},
		{
			"bufferView":67,
			"componentType":5123,
			"count":60,
			"type":"SCALAR"
		},
		{
			"bufferView":68,
			"componentType":5126,
			"count":56,
			"max":[
				30.5,
				19.03125,
				-12.375
			],
			"min":[
				9.5,
				11,
				-57.25
			],
			"type":"VEC3"
		},
		{
			"bufferView":69,
			"componentType":5126,
			"count":56,
			"type":"VEC3"
		},
		{
			"bufferView":70,
			"componentType":5126,
			"count":56,
			"type":"VEC2"
		},
		{
			"bufferView":71,
			"componentType":5123,
			"count":156,
			"type":"SCALAR"
		},
		{
			"bufferView":72,
			"componentType":5126,
			"count":24,
			"max":[
				30.5,
				16.375,
				-47.96875
			],
			"min":[
				9.5,
				11,
				-55.796875
			],
			"type":"VEC3"
		},
		{
			"bufferView":73,
			"componentType":5126,
			"count":24,
			"type":"VEC3"
		},
		{
			"bufferView":74,
			"componentType":5126,
			"count":24,
			"type":"VEC2"
		},
		{
			"bufferView":75,
			"componentType":5123,
			"count":48,
			"type":"SCALAR"
		},
		{
			"bufferView":76,
			"componentType":5126,
			"count":16,
			"max":[
				30.5,
				16.375,
				-49.125
			],
			"min":[
				9.5,
				11,
				-55.796875
			],
			"type":"VEC3"
		},
		{
			"bufferView":77,
			"componentType":5126,
			"count":16,
			"type":"VEC3"
		},
		{
			"bufferView":78,
			"componentType":5126,
			"count":16,
			"type":"VEC2"
		},
		{
			"bufferView":79,
			"componentType":5123,
			"count":24,
			"type":"SCALAR"
		}
	],
	"bufferViews":[
		{
			"buffer":0,
			"byteLength":2400,
			"byteOffset":0,
			"target":34962
		},
		{
			"buffer":0,
			"byteLength":2400,
			"byteOffset":2400,
			"target":34962
		},
		{
			"buffer":0,
			"byteLength":1600,
			"byteOffset":4800,
			"target":34962
		},
		{
			"buffer":0,
			"byteLength":852,
			"byteOffset":6400,
			"target":34963
		},
		{
			"buffer":0,
			"byteLength":9804,
			"byteOffset":7252,
			"target":34962
		},
		{
			"buffer":0,
			"byteLength":9804,
			"byteOffset":17056,
			"target":34962
		},
		{
			"buffer":0,
			"byteLength":6536,
			"byteOffset":26860,
			"target":34962
		},
		{
			"buffer":0,
			"byteLength":3960,
			"byteOffset":33396,
			"target":34963
		},
		{
			"buffer":0,
			"byteLength":576,
			"byteOffset":37356,
			"target":34962
		},
		{
			"buffer":0,
			"byteLength":576,
			"byteOffset":37932,
			"target":34962
		},
		{
			"buffer":0,
			"byteLength":384,
			"byteOffset":38508,
			"target":34962
		},
		{
			"buffer":0,
			"byteLength":168,
			"byteOffset":38892,
			"target":34963
		},
		{
			"buffer":0,
			"byteLength":7224,
			"byteOffset":39060,
			"target":34962
		},
		{
			"buffer":0,
			"byteLength":7224,
			"byteOffset":46284,
			"target":34962
		},
		{
			"buffer":0,
			"byteLength":4816,
			"byteOffset":53508,
			"target":34962
		},
		{
			"buffer":0,
			"byteLength":3006,
			"byteOffset":58324,
			"target":34963
		},
		{
			"buffer":0,
			"byteLength":1296,
			"byteOffset":61332,
			"target":34962
		},
		{
			"buffer":0,
			"byteLength":1296,
			"byteOffset":62628,
			"target":34962
		},
		{
			"buffer":0,
			"byteLength":864,
			"byteOffset":63924,
			"target":34962
		},
		{
			"buffer":0,
			"byteLength":432,
			"byteOffset":64788,
			"target":34963
		},
		{
			"buffer":0,
			"byteLength":1920,
			"byteOffset":65220,
			"target":34962
		},
		{
			"buffer":0,
			"byteLength":1920,
			"byteOffset":67140,
			"target":34962
		},
		{
			"buffer":0,
			"byteLength":1280,
			"byteOffset":69060,
			"target":34962
		},
		{
			"buffer":0,
			"byteLength":480,
			"byteOffset":70340,
			"target":34963
		},
		{
			"buffer":0,
			"byteLength":240,
			"byteOffset":70820,
			"target":34962
		},
		{
			"buffer":0,
			"byteLength":240,
			"byteOffset":71060,
			"target":34962
		},
		{
			"buffer":0,
			"byteLength":160,
			"byteOffset":71300,
			"target":34962
		},
		{
			"buffer":0,
			"byteLength":60,
			"byteOffset":71460,
			"target":34963
		},
		{
			"buffer":0,
			"byteLength":144,
			"byteOffset":71520,
			"target":34962
		},
		{
			"buffer":0,
			"byteLength":144,
			"byteOffset":71664,
			"target":34962
		},
		{
			"buffer":0,
			"byteLength":96,
			"byteOffset":71808,
			"target":34962
		},
		{
			"buffer":0,
			"byteLength":48,
			"byteOffset":71904,
			"target":34963
		},
		{
			"buffer":0,
			"byteLength":96,
			"byteOffset":71952,
			"target":34962
		},
		{
			"buffer":0,
			"byteLength":96,
			"byteOffset":72048,
			"target":34962
		},
		{
			"buffer":0,
			"byteLength":64,
			"byteOffset":72144,
			"target":34962
		},
		{
			"buffer":0,
			"byteLength":36,
			"byteOffset":72208,
			"target":34963
		},
		{
			"buffer":0,
			"byteLength":144,
			"byteOffset":72244,
			"target":34962
		},
		{
			"buffer":0,
			"byteLength":144,
			"byteOffset":72388,
			"target":34962
		},
		{
			"buffer":0,
			"byteLength":96,
			"byteOffset":72532,
			"target":34962
		},
		{
			"buffer":0,
			"byteLength":36,
			"byteOffset":72628,
			"target":34963
		},
		{
			"buffer":0,
			"byteLength":96,
			"byteOffset":72664,
			"target":34962
		},
		{
			"buffer":0,
			"byteLength":96,
			"byteOffset":72760,
			"target":34962
		},
		{
			"buffer":0,
			"byteLength":64,
			"byteOffset":72856,
			"target":34962
		},
		{
			"buffer":0,
			"byteLength":24,
			"byteOffset":72920,
			"target":34963
		},
		{
			"buffer":0,
			"byteLength":432,
			"byteOffset":72944,
			"target":34962
		},
		{
			"buffer":0,
			"byteLength":432,
			"byteOffset":73376,
			"target":34962
		},
		{
			"buffer":0,
			"byteLength":288,
			"byteOffset":73808,
			"target":34962
		},
		{
			"buffer":0,
			"byteLength":132,
			"byteOffset":74096,
			"target":34963
		},
		{
			"buffer":0,
			"byteLength":120,
			"byteOffset":74228,
			"target":34962
		},
		{
			"buffer":0,
			"byteLength":120,
			"byteOffset":74348,
			"target":34962
		},
		{
			"buffer":0,
			"byteLength":80,
			"byteOffset":74468,
			"target":34962
		},
		{
			"buffer":0,
			"byteLength":36,
			"byteOffset":74548,
			"target":34963
		},
		{
			"buffer":0,
			"byteLength":192,
			"byteOffset":74584,
			"target":34962
		},
		{
			"buffer":0,
			"byteLength":192,
			"byteOffset":74776,
			"target":34962
		},
		{
			"buffer":0,
			"byteLength":128,
			"byteOffset":74968,
			"target":34962
		},
		{
			"buffer":0,
			"byteLength":48,
			"byteOffset":75096,
			"target":34963
		},
		{
			"buffer":0,
			"byteLength":1176,
			"byteOffset":75144,
			"target":34962
		},
		{
			"buffer":0,
			"byteLength":1176,
			"byteOffset":76320,
			"target":34962
		},
		{
			"buffer":0,
			"byteLength":784,
			"byteOffset":77496,
			"target":34962
		},
		{
			"buffer":0,
			"byteLength":660,
			"byteOffset":78280,
			"target":34963
		},
		{
			"buffer":0,
			"byteLength":264,
			"byteOffset":78940,
			"target":34962
		},
		{
			"buffer":0,
			"byteLength":264,
			"byteOffset":79204,
			"target":34962
		},
		{
			"buffer":0,
			"byteLength":176,
			"byteOffset":79468,
			"target":34962
		},
		{
			"buffer":0,
			"byteLength":72,
			"byteOffset":79644,
			"target":34963
		},
		{
			"buffer":0,
			"byteLength":312,
			"byteOffset":79716,
			"target":34962
		},
		{
			"buffer":0,
			"byteLength":312,
			"byteOffset":80028,
			"target":34962
		},
		{
			"buffer":0,
			"byteLength":208,
			"byteOffset":80340,
			"target":34962
		},
		{
			"buffer":0,
			"byteLength":120,
			"byteOffset":80548,
			"target":34963
		},
		{
			"buffer":0,
			"byteLength":672,
			"byteOffset":80668,
			"target":34962
		},
		{
			"buffer":0,
			"byteLength":672,
			"byteOffset":81340,
			"target":34962
		},
		{
			"buffer":0,
			"byteLength":448,
			"byteOffset":82012,
			"target":34962
		},
		{
			"buffer":0,
			"byteLength":312,
			"byteOffset":82460,
			"target":34963
		},
		{
			"buffer":0,
			"byteLength":288,
			"byteOffset":82772,
			"target":34962
		},
		{
			"buffer":0,
			"byteLength":288,
			"byteOffset":83060,
			"target":34962
		},
		{
			"buffer":0,
			"byteLength":192,
			"byteOffset":83348,
			"target":34962
		},
		{
			"buffer":0,
			"byteLength":96,
			"byteOffset":83540,
			"target":34963
		},
		{
			"buffer":0,
			"byteLength":192,
			"byteOffset":83636,
			"target":34962
		},
		{
			"buffer":0,
			"byteLength":192,
			"byteOffset":83828,
			"target":34962
		},
		{
			"buffer":0,
			"byteLength":128,
			"byteOffset":84020,
			"target":34962
		},
		{
			"buffer":0,
			"byteLength":48,
			"byteOffset":84148,
			"target":34963
		}
	],
	"buffers":[
		{
			"byteLength":84196,
			"uri":"mmbase.bin"
		}
	]
}
