{
	"asset":{
		"generator":"Khronos glTF Blender I/O v4.5.48",
		"version":"2.0"
	},
	"scene":0,
	"scenes":[
		{
			"name":"Scene",
			"nodes":[
				0
			]
		}
	],
	"nodes":[
		{
			"mesh":0,
			"name":"Object"
		}
	],
	"materials":[
		{
			"doubleSided":true,
			"name":"ROCK_WALL_LITE5",
			"pbrMetallicRoughness":{
				"baseColorFactor":[
					0.800000011920929,
					0.800000011920929,
					0.800000011920929,
					1
				],
				"metallicFactor":0,
				"roughnessFactor":0.5
			}
		},
		{
			"doubleSided":true,
			"name":"DS_EWALL06",
			"pbrMetallicRoughness":{
				"baseColorFactor":[
					0.800000011920929,
					0.800000011920929,
					0.800000011920929,
					1
				],
				"metallicFactor":0,
				"roughnessFactor":0.5
			}
		},
		{
			"doubleSided":true,
			"name":"STRIPLITE3",
			"pbrMetallicRoughness":{
				"baseColorFactor":[
					0.800000011920929,
					0.800000011920929,
					0.800000011920929,
					1
				],
				"metallicFactor":0,
				"roughnessFactor":0.5
			}
		},
		{
			"doubleSided":true,
			"name":"DS_GENFLOOR",
			"pbrMetallicRoughness":{
				"baseColorFactor":[
					0.800000011920929,
					0.800000011920929,
					0.800000011920929,
					1
				],
				"metallicFactor":0,
				"roughnessFactor":0.5
			}
		},
		{
			"doubleSided":true,
			"name":"ROOFBEAM",
			"pbrMetallicRoughness":{
				"baseColorFactor":[
					0.800000011920929,
					0.800000011920929,
					0.800000011920929,
					1
				],
				"metallicFactor":0,
				"roughnessFactor":0.5
			}
		}
	],
	"meshes":[
		{
			"name":"Mesh",
			"primitives":[
				{
					"attributes":{
						"POSITION":0,
						"NORMAL":1,
						"TEXCOORD_0":2
					},
					"indices":3,
					"material":0
				},
				{
					"attributes":{
						"POSITION":4,
						"NORMAL":5,
						"TEXCOORD_0":6
					},
					"indices":7,
					"material":1
				},
				{
					"attributes":{
						"POSITION":8,
						"NORMAL":9,
						"TEXCOORD_0":10
					},
					"indices":11,
					"material":2
				},
				{
					"attributes":{
						"POSITION":12,
						"NORMAL":13,
						"TEXCOORD_0":14
					},
					"indices":15,
					"material":3
				},
				{
					"attributes":{
						"POSITION":16,
						"NORMAL":17,
						"TEXCOORD_0":18
					},
					"indices":19,
					"material":4
				}
			]
		}
	],
	"accessors":[
		{
			"bufferView":0,
			"componentType":5126,
			"count":5,
			"max":[
				72,
				0,
				12
			],
			"min":[
				-60,
				0,
				-5.5
			],
			"type":"VEC3"
		},
		{
			"bufferView":1,
			"componentType":5126,
			"count":5,
			"type":"VEC3"
		},
		{
			"bufferView":2,
			"componentType":5126,
			"count":5,
			"type":"VEC2"
		},
		{
			"bufferView":3,
			"componentType":5123,
			"count":9,
			"type":"SCALAR"
		},
		{
			"bufferView":4,
			"componentType":5126,
			"count":533,
			"max":[
				76,
				25.5,
				17
			],
			"min":[
				-60,
				-12,
				-10.5
			],
			"type":"VEC3"
		},
		{
			"bufferView":5,
			"componentType":5126,
			"count":533,
			"type":"VEC3"
		},
		{
			"bufferView":6,
			"componentType":5126,
			"count":533,
			"type":"VEC2"
		},
		{
			"bufferView":7,
			"componentType":5123,
			"count":1011,
			"type":"SCALAR"
		},
		{
			"bufferView":8,
			"componentType":5126,
			"count":20,
			"max":[
				64,
				4,
				17
			],
			"min":[
				-52,
				1,
				-10.5
			],
			"type":"VEC3"
		},
		{
			"bufferView":9,
			"componentType":5126,
			"count":20,
			"type":"VEC3"
		},
		{
			"bufferView":10,
			"componentType":5126,
			"count":20,
			"type":"VEC2"
		},
		{
			"bufferView":11,
			"componentType":5123,
			"count":36,
			"type":"SCALAR"
		},
		{
			"bufferView":12,
			"componentType":5126,
			"count":64,
			"max":[
				58.5,
				2.5,
				24
			],
			"min":[
				-46.5,
				-12,
				-17.5
			],
			"type":"VEC3"
		},
		{
			"bufferView":13,
			"componentType":5126,
			"count":64,
			"type":"VEC3"
		},
		{
			"bufferView":14,
			"componentType":5126,
			"count":64,
			"type":"VEC2"
		},
		{
			"bufferView":15,
			"componentType":5123,
			"count":96,
			"type":"SCALAR"
		},
		{
			"bufferView":16,
			"componentType":5126,
			"count":8,
			"max":[
				54,
				22.8125,
				12
			],
			"min":[
				-42,
				22.8125,
				-5.5
			],
			"type":"VEC3"
		},
		{
			"bufferView":17,
			"componentType":5126,
			"count":8,
			"type":"VEC3"
		},
		{
			"bufferView":18,
			"componentType":5126,
			"count":8,
			"type":"VEC2"
		},
		{
			"bufferView":19,
			"componentType":5123,
			"count":12,
			"type":"SCALAR"
		}
	],
	"bufferViews":[
		{
			"buffer":0,
			"byteLength":60,
			"byteOffset":0,
			"target":34962
		},
		{
			"buffer":0,
			"byteLength":60,
			"byteOffset":60,
			"target":34962
		},
		{
			"buffer":0,
			"byteLength":40,
			"byteOffset":120,
			"target":34962
		},
		{
			"buffer":0,
			"byteLength":18,
			"byteOffset":160,
			"target":34963
		},
		{
			"buffer":0,
			"byteLength":6396,
			"byteOffset":180,
			"target":34962
		},
		{
			"buffer":0,
			"byteLength":6396,
			"byteOffset":6576,
			"target":34962
		},
		{
			"buffer":0,
			"byteLength":4264,
			"byteOffset":12972,
			"target":34962
		},
		{
			"buffer":0,
			"byteLength":2022,
			"byteOffset":17236,
			"target":34963
		},
		{
			"buffer":0,
			"byteLength":240,
			"byteOffset":19260,
			"target":34962
		},
		{
			"buffer":0,
			"byteLength":240,
			"byteOffset":19500,
			"target":34962
		},
		{
			"buffer":0,
			"byteLength":160,
			"byteOffset":19740,
			"target":34962
		},
		{
			"buffer":0,
			"byteLength":72,
			"byteOffset":19900,
			"target":34963
		},
		{
			"buffer":0,
			"byteLength":768,
			"byteOffset":19972,
			"target":34962
		},
		{
			"buffer":0,
			"byteLength":768,
			"byteOffset":20740,
			"target":34962
		},
		{
			"buffer":0,
			"byteLength":512,
			"byteOffset":21508,
			"target":34962
		},
		{
			"buffer":0,
			"byteLength":192,
			"byteOffset":22020,
			"target":34963
		},
		{
			"buffer":0,
			"byteLength":96,
			"byteOffset":22212,
			"target":34962
		},
		{
			"buffer":0,
			"byteLength":96,
			"byteOffset":22308,
			"target":34962
		},
		{
			"buffer":0,
			"byteLength":64,
			"byteOffset":22404,
			"target":34962
		},
		{
			"buffer":0,
			"byteLength":24,
			"byteOffset":22468,
			"target":34963
		}
	],
	"buffers":[
		{
			"byteLength":22492,
			"uri":"mmbridge.bin"
		}
	]
}
