{
	"asset":{
		"generator":"Khronos glTF Blender I/O v4.5.48",
		"version":"2.0"
	},
	"scene":0,
	"scenes":[
		{
			"name":"Scene",
			"nodes":[
				0
			]
		}
	],
	"nodes":[
		{
			"mesh":0,
			"name":"Object"
		}
	],
	"materials":[
		{
			"doubleSided":true,
			"name":"DS_EWALL07",
			"pbrMetallicRoughness":{
				"baseColorFactor":[
					0.800000011920929,
					0.800000011920929,
					0.800000011920929,
					1
				],
				"metallicFactor":0,
				"roughnessFactor":0.5
			}
		},
		{
			"doubleSided":true,
			"name":"DS_ETECHBOR01",
			"pbrMetallicRoughness":{
				"baseColorFactor":[
					0.800000011920929,
					0.800000011920929,
					0.800000011920929,
					1
				],
				"metallicFactor":0,
				"roughnessFactor":0.5
			}
		},
		{
			"doubleSided":true,
			"name":"DS_EWALDECO01",
			"pbrMetallicRoughness":{
				"baseColorFactor":[
					0.800000011920929,
					0.800000011920929,
					0.800000011920929,
					1
				],
				"metallicFactor":0,
				"roughnessFactor":0.5
			}
		},
		{
			"doubleSided":true,
			"name":"DS_ICEILIG01",
			"pbrMetallicRoughness":{
				"baseColorFactor":[
					0.800000011920929,
					0.800000011920929,
					0.800000011920929,
					1
				],
				"metallicFactor":0,
				"roughnessFactor":0.5
			}
		},
		{
			"doubleSided":true,
			"name":"DS_TECHWALL_2",
			"pbrMetallicRoughness":{
				"baseColorFactor":[
					0.800000011920929,
					0.800000011920929,
					0.800000011920929,
					1
				],
				"metallicFactor":0,
				"roughnessFactor":0.5
			}
		},
		{
			"doubleSided":true,
			"name":"DS_IBOR01",
			"pbrMetallicRoughness":{
				"baseColorFactor":[
					0.800000011920929,
					0.800000011920929,
					0.800000011920929,
					1
				],
				"metallicFactor":0,
				"roughnessFactor":0.5
			}
		}
	],
	"meshes":[
		{
			"name":"Mesh",
			"primitives":[
				{
					"attributes":{
						"POSITION":0,
						"NORMAL":1,
						"TEXCOORD_0":2
					},
					"indices":3,
					"material":0
				},
				{
					"attributes":{
						"POSITION":4,
						"NORMAL":5,
						"TEXCOORD_0":6
					},
					"indices":7,
					"material":1
				},
				{
					"attributes":{
						"POSITION":8,
						"NORMAL":9,
						"TEXCOORD_0":10
					},
					"indices":11,
					"material":2
				},
				{
					"attributes":{
						"POSITION":12,
						"NORMAL":13,
						"TEXCOORD_0":14
					},
					"indices":15,
					"material":3
				},
				{
					"attributes":{
						"POSITION":16,
						"NORMAL":17,
						"TEXCOORD_0":18
					},
					"indices":19,
					"material":4
				},
				{
					"attributes":{
						"POSITION":20,
						"NORMAL":21,
						"TEXCOORD_0":22
					},
					"indices":23,
					"material":5
				}
			]
		}
	],
	"accessors":[
		{
			"bufferView":0,
			"componentType":5126,
			"count":1003,
			"max":[
				16,
				4,
				16
			],
			"min":[
				0,
				-16,
				0
			],
			"type":"VEC3"
		},
		{
			"bufferView":1,
			"componentType":5126,
			"count":1003,
			"type":"VEC3"
		},
		{
			"bufferView":2,
			"componentType":5126,
			"count":1003,
			"type":"VEC2"
		},
		{
			"bufferView":3,
			"componentType":5123,
			"count":2148,
			"type":"SCALAR"
		},
		{
			"bufferView":4,
			"componentType":5126,
			"count":36,
			"max":[
				13.5,
				0,
				13.5
			],
			"min":[
				2.5,
				-0.5,
				2.5
			],
			"type":"VEC3"
		},
		{
			"bufferView":5,
			"componentType":5126,
			"count":36,
			"type":"VEC3"
		},
		{
			"bufferView":6,
			"componentType":5126,
			"count":36,
			"type":"VEC2"
		},
		{
			"bufferView":7,
			"componentType":5123,
			"count":60,
			"type":"SCALAR"
		},
		{
			"bufferView":8,
			"componentType":5126,
			"count":112,
			"max":[
				15.5,
				-2,
				15.5
			],
			"min":[
				0.5,
				-16,
				0.5
			],
			"type":"VEC3"
		},
		{
			"bufferView":9,
			"componentType":5126,
			"count":112,
			"type":"VEC3"
		},
		{
			"bufferView":10,
			"componentType":5126,
			"count":112,
			"type":"VEC2"
		},
		{
			"bufferView":11,
			"componentType":5123,
			"count":216,
			"type":"SCALAR"
		},
		{
			"bufferView":12,
			"componentType":5126,
			"count":4,
			"max":[
				10,
				0.5,
				10
			],
			"min":[
				6,
				0.5,
				6
			],
			"type":"VEC3"
		},
		{
			"bufferView":13,
			"componentType":5126,
			"count":4,
			"type":"VEC3"
		},
		{
			"bufferView":14,
			"componentType":5126,
			"count":4,
			"type":"VEC2"
		},
		{
			"bufferView":15,
			"componentType":5123,
			"count":6,
			"type":"SCALAR"
		},
		{
			"bufferView":16,
			"componentType":5126,
			"count":16,
			"max":[
				12,
				1,
				12
			],
			"min":[
				4,
				0.5,
				4
			],
			"type":"VEC3"
		},
		{
			"bufferView":17,
			"componentType":5126,
			"count":16,
			"type":"VEC3"
		},
		{
			"bufferView":18,
			"componentType":5126,
			"count":16,
			"type":"VEC2"
		},
		{
			"bufferView":19,
			"componentType":5123,
			"count":24,
			"type":"SCALAR"
		},
		{
			"bufferView":20,
			"componentType":5126,
			"count":128,
			"max":[
				13.5,
				3,
				13.5
			],
			"min":[
				2.5,
				2.5,
				2.5
			],
			"type":"VEC3"
		},
		{
			"bufferView":21,
			"componentType":5126,
			"count":128,
			"type":"VEC3"
		},
		{
			"bufferView":22,
			"componentType":5126,
			"count":128,
			"type":"VEC2"
		},
		{
			"bufferView":23,
			"componentType":5123,
			"count":192,
			"type":"SCALAR"
		}
	],
	"bufferViews":[
		{
			"buffer":0,
			"byteLength":12036,
			"byteOffset":0,
			"target":34962
		},
		{
			"buffer":0,
			"byteLength":12036,
			"byteOffset":12036,
			"target":34962
		},
		{
			"buffer":0,
			"byteLength":8024,
			"byteOffset":24072,
			"target":34962
		},
		{
			"buffer":0,
			"byteLength":4296,
			"byteOffset":32096,
			"target":34963
		},
		{
			"buffer":0,
			"byteLength":432,
			"byteOffset":36392,
			"target":34962
		},
		{
			"buffer":0,
			"byteLength":432,
			"byteOffset":36824,
			"target":34962
		},
		{
			"buffer":0,
			"byteLength":288,
			"byteOffset":37256,
			"target":34962
		},
		{
			"buffer":0,
			"byteLength":120,
			"byteOffset":37544,
			"target":34963
		},
		{
			"buffer":0,
			"byteLength":1344,
			"byteOffset":37664,
			"target":34962
		},
		{
			"buffer":0,
			"byteLength":1344,
			"byteOffset":39008,
			"target":34962
		},
		{
			"buffer":0,
			"byteLength":896,
			"byteOffset":40352,
			"target":34962
		},
		{
			"buffer":0,
			"byteLength":432,
			"byteOffset":41248,
			"target":34963
		},
		{
			"buffer":0,
			"byteLength":48,
			"byteOffset":41680,
			"target":34962
		},
		{
			"buffer":0,
			"byteLength":48,
			"byteOffset":41728,
			"target":34962
		},
		{
			"buffer":0,
			"byteLength":32,
			"byteOffset":41776,
			"target":34962
		},
		{
			"buffer":0,
			"byteLength":12,
			"byteOffset":41808,
			"target":34963
		},
		{
			"buffer":0,
			"byteLength":192,
			"byteOffset":41820,
			"target":34962
		},
		{
			"buffer":0,
			"byteLength":192,
			"byteOffset":42012,
			"target":34962
		},
		{
			"buffer":0,
			"byteLength":128,
			"byteOffset":42204,
			"target":34962
		},
		{
			"buffer":0,
			"byteLength":48,
			"byteOffset":42332,
			"target":34963
		},
		{
			"buffer":0,
			"byteLength":1536,
			"byteOffset":42380,
			"target":34962
		},
		{
			"buffer":0,
			"byteLength":1536,
			"byteOffset":43916,
			"target":34962
		},
		{
			"buffer":0,
			"byteLength":1024,
			"byteOffset":45452,
			"target":34962
		},
		{
			"buffer":0,
			"byteLength":384,
			"byteOffset":46476,
			"target":34963
		}
	],
	"buffers":[
		{
			"byteLength":46860,
			"uri":"muddyswampstand.bin"
		}
	]
}
