{
	"asset":{
		"generator":"Khronos glTF Blender I/O v4.5.48",
		"version":"2.0"
	},
	"scene":0,
	"scenes":[
		{
			"name":"Scene",
			"nodes":[
				0
			]
		}
	],
	"nodes":[
		{
			"mesh":0,
			"name":"Object"
		}
	],
	"materials":[
		{
			"doubleSided":true,
			"name":"BE_EFLO01",
			"pbrMetallicRoughness":{
				"baseColorFactor":[
					0.800000011920929,
					0.800000011920929,
					0.800000011920929,
					1
				],
				"metallicFactor":0,
				"roughnessFactor":0.5
			}
		},
		{
			"doubleSided":true,
			"name":"BE_IHAWAL05A",
			"pbrMetallicRoughness":{
				"baseColorFactor":[
					0.800000011920929,
					0.800000011920929,
					0.800000011920929,
					1
				],
				"metallicFactor":0,
				"roughnessFactor":0.5
			}
		},
		{
			"doubleSided":true,
			"name":"BE_EWAL05",
			"pbrMetallicRoughness":{
				"baseColorFactor":[
					0.800000011920929,
					0.800000011920929,
					0.800000011920929,
					1
				],
				"metallicFactor":0,
				"roughnessFactor":0.5
			}
		},
		{
			"doubleSided":true,
			"name":"BE_EWAL06",
			"pbrMetallicRoughness":{
				"baseColorFactor":[
					0.800000011920929,
					0.800000011920929,
					0.800000011920929,
					1
				],
				"metallicFactor":0,
				"roughnessFactor":0.5
			}
		},
		{
			"doubleSided":true,
			"name":"BE_ESPEC01",
			"pbrMetallicRoughness":{
				"baseColorFactor":[
					0.800000011920929,
					0.800000011920929,
					0.800000011920929,
					1
				],
				"metallicFactor":0,
				"roughnessFactor":0.5
			}
		}
	],
	"meshes":[
		{
			"name":"Mesh",
			"primitives":[
				{
					"attributes":{
						"POSITION":0,
						"NORMAL":1,
						"TEXCOORD_0":2
					},
					"indices":3,
					"material":0
				},
				{
					"attributes":{
						"POSITION":4,
						"NORMAL":5,
						"TEXCOORD_0":6
					},
					"indices":7,
					"material":1
				},
				{
					"attributes":{
						"POSITION":8,
						"NORMAL":9,
						"TEXCOORD_0":10
					},
					"indices":11,
					"material":2
				},
				{
					"attributes":{
						"POSITION":12,
						"NORMAL":13,
						"TEXCOORD_0":14
					},
					"indices":3,
					"material":3
				},
				{
					"attributes":{
						"POSITION":15,
						"NORMAL":16,
						"TEXCOORD_0":17
					},
					"indices":18,
					"material":4
				}
			]
		}
	],
	"accessors":[
		{
			"bufferView":0,
			"componentType":5126,
			"count":4,
			"max":[
				4,
				1,
				18
			],
			"min":[
				-4,
				1,
				10
			],
			"type":"VEC3"
		},
		{
			"bufferView":1,
			"componentType":5126,
			"count":4,
			"type":"VEC3"
		},
		{
			"bufferView":2,
			"componentType":5126,
			"count":4,
			"type":"VEC2"
		},
		{
			"bufferView":3,
			"componentType":5123,
			"count":6,
			"type":"SCALAR"
		},
		{
			"bufferView":4,
			"componentType":5126,
			"count":18,
			"max":[
				8,
				1,
				18
			],
			"min":[
				-4,
				0,
				10
			],
			"type":"VEC3"
		},
		{
			"bufferView":5,
			"componentType":5126,
			"count":18,
			"type":"VEC3"
		},
		{
			"bufferView":6,
			"componentType":5126,
			"count":18,
			"type":"VEC2"
		},
		{
			"bufferView":7,
			"componentType":5123,
			"count":30,
			"type":"SCALAR"
		},
		{
			"bufferView":8,
			"componentType":5126,
			"count":32,
			"max":[
				10,
				3,
				20
			],
			"min":[
				-6,
				-8,
				8
			],
			"type":"VEC3"
		},
		{
			"bufferView":9,
			"componentType":5126,
			"count":32,
			"type":"VEC3"
		},
		{
			"bufferView":10,
			"componentType":5126,
			"count":32,
			"type":"VEC2"
		},
		{
			"bufferView":11,
			"componentType":5123,
			"count":48,
			"type":"SCALAR"
		},
		{
			"bufferView":12,
			"componentType":5126,
			"count":4,
			"max":[
				8,
				11,
				16
			],
			"min":[
				4,
				11,
				12
			],
			"type":"VEC3"
		},
		{
			"bufferView":13,
			"componentType":5126,
			"count":4,
			"type":"VEC3"
		},
		{
			"bufferView":14,
			"componentType":5126,
			"count":4,
			"type":"VEC2"
		},
		{
			"bufferView":15,
			"componentType":5126,
			"count":16,
			"max":[
				8,
				11,
				16
			],
			"min":[
				4,
				3,
				12
			],
			"type":"VEC3"
		},
		{
			"bufferView":16,
			"componentType":5126,
			"count":16,
			"type":"VEC3"
		},
		{
			"bufferView":17,
			"componentType":5126,
			"count":16,
			"type":"VEC2"
		},
		{
			"bufferView":18,
			"componentType":5123,
			"count":24,
			"type":"SCALAR"
		}
	],
	"bufferViews":[
		{
			"buffer":0,
			"byteLength":48,
			"byteOffset":0,
			"target":34962
		},
		{
			"buffer":0,
			"byteLength":48,
			"byteOffset":48,
			"target":34962
		},
		{
			"buffer":0,
			"byteLength":32,
			"byteOffset":96,
			"target":34962
		},
		{
			"buffer":0,
			"byteLength":12,
			"byteOffset":128,
			"target":34963
		},
		{
			"buffer":0,
			"byteLength":216,
			"byteOffset":140,
			"target":34962
		},
		{
			"buffer":0,
			"byteLength":216,
			"byteOffset":356,
			"target":34962
		},
		{
			"buffer":0,
			"byteLength":144,
			"byteOffset":572,
			"target":34962
		},
		{
			"buffer":0,
			"byteLength":60,
			"byteOffset":716,
			"target":34963
		},
		{
			"buffer":0,
			"byteLength":384,
			"byteOffset":776,
			"target":34962
		},
		{
			"buffer":0,
			"byteLength":384,
			"byteOffset":1160,
			"target":34962
		},
		{
			"buffer":0,
			"byteLength":256,
			"byteOffset":1544,
			"target":34962
		},
		{
			"buffer":0,
			"byteLength":96,
			"byteOffset":1800,
			"target":34963
		},
		{
			"buffer":0,
			"byteLength":48,
			"byteOffset":1896,
			"target":34962
		},
		{
			"buffer":0,
			"byteLength":48,
			"byteOffset":1944,
			"target":34962
		},
		{
			"buffer":0,
			"byteLength":32,
			"byteOffset":1992,
			"target":34962
		},
		{
			"buffer":0,
			"byteLength":192,
			"byteOffset":2024,
			"target":34962
		},
		{
			"buffer":0,
			"byteLength":192,
			"byteOffset":2216,
			"target":34962
		},
		{
			"buffer":0,
			"byteLength":128,
			"byteOffset":2408,
			"target":34962
		},
		{
			"buffer":0,
			"byteLength":48,
			"byteOffset":2536,
			"target":34963
		}
	],
	"buffers":[
		{
			"byteLength":2584,
			"uri":"TL_bmiscpan_ruind.bin"
		}
	]
}
