{
	"asset":{
		"generator":"Khronos glTF Blender I/O v4.5.48",
		"version":"2.0"
	},
	"scene":0,
	"scenes":[
		{
			"name":"Scene",
			"nodes":[
				0
			]
		}
	],
	"nodes":[
		{
			"mesh":0,
			"name":"Object"
		}
	],
	"materials":[
		{
			"doubleSided":true,
			"name":"BE_EWAL12B",
			"pbrMetallicRoughness":{
				"baseColorFactor":[
					0.800000011920929,
					0.800000011920929,
					0.800000011920929,
					1
				],
				"metallicFactor":0,
				"roughnessFactor":0.5
			}
		},
		{
			"doubleSided":true,
			"name":"BE_EWAL01B",
			"pbrMetallicRoughness":{
				"baseColorFactor":[
					0.800000011920929,
					0.800000011920929,
					0.800000011920929,
					1
				],
				"metallicFactor":0,
				"roughnessFactor":0.5
			}
		},
		{
			"doubleSided":true,
			"name":"BE_ELIG02",
			"pbrMetallicRoughness":{
				"baseColorFactor":[
					0.800000011920929,
					0.800000011920929,
					0.800000011920929,
					1
				],
				"metallicFactor":0,
				"roughnessFactor":0.5
			}
		},
		{
			"doubleSided":true,
			"name":"BE_ESPEC01",
			"pbrMetallicRoughness":{
				"baseColorFactor":[
					0.800000011920929,
					0.800000011920929,
					0.800000011920929,
					1
				],
				"metallicFactor":0,
				"roughnessFactor":0.5
			}
		},
		{
			"doubleSided":true,
			"name":"BE_IGENERICDARK",
			"pbrMetallicRoughness":{
				"baseColorFactor":[
					0.800000011920929,
					0.800000011920929,
					0.800000011920929,
					1
				],
				"metallicFactor":0,
				"roughnessFactor":0.5
			}
		},
		{
			"doubleSided":true,
			"name":"BE_EBOR01B",
			"pbrMetallicRoughness":{
				"baseColorFactor":[
					0.800000011920929,
					0.800000011920929,
					0.800000011920929,
					1
				],
				"metallicFactor":0,
				"roughnessFactor":0.5
			}
		},
		{
			"doubleSided":true,
			"name":"BE_ITEWAL01",
			"pbrMetallicRoughness":{
				"baseColorFactor":[
					0.800000011920929,
					0.800000011920929,
					0.800000011920929,
					1
				],
				"metallicFactor":0,
				"roughnessFactor":0.5
			}
		},
		{
			"doubleSided":true,
			"name":"BE_ELIG03",
			"pbrMetallicRoughness":{
				"baseColorFactor":[
					0.800000011920929,
					0.800000011920929,
					0.800000011920929,
					1
				],
				"metallicFactor":0,
				"roughnessFactor":0.5
			}
		},
		{
			"doubleSided":true,
			"name":"BE_ESPEC02",
			"pbrMetallicRoughness":{
				"baseColorFactor":[
					0.800000011920929,
					0.800000011920929,
					0.800000011920929,
					1
				],
				"metallicFactor":0,
				"roughnessFactor":0.5
			}
		}
	],
	"meshes":[
		{
			"name":"Mesh",
			"primitives":[
				{
					"attributes":{
						"POSITION":0,
						"NORMAL":1,
						"TEXCOORD_0":2
					},
					"indices":3,
					"material":0
				},
				{
					"attributes":{
						"POSITION":4,
						"NORMAL":5,
						"TEXCOORD_0":6
					},
					"indices":7,
					"material":1
				},
				{
					"attributes":{
						"POSITION":8,
						"NORMAL":9,
						"TEXCOORD_0":10
					},
					"indices":11,
					"material":2
				},
				{
					"attributes":{
						"POSITION":12,
						"NORMAL":13,
						"TEXCOORD_0":14
					},
					"indices":15,
					"material":3
				},
				{
					"attributes":{
						"POSITION":16,
						"NORMAL":17,
						"TEXCOORD_0":18
					},
					"indices":19,
					"material":4
				},
				{
					"attributes":{
						"POSITION":20,
						"NORMAL":21,
						"TEXCOORD_0":22
					},
					"indices":23,
					"material":5
				},
				{
					"attributes":{
						"POSITION":24,
						"NORMAL":25,
						"TEXCOORD_0":26
					},
					"indices":27,
					"material":6
				},
				{
					"attributes":{
						"POSITION":28,
						"NORMAL":29,
						"TEXCOORD_0":30
					},
					"indices":31,
					"material":7
				},
				{
					"attributes":{
						"POSITION":32,
						"NORMAL":33,
						"TEXCOORD_0":34
					},
					"indices":35,
					"material":8
				}
			]
		}
	],
	"accessors":[
		{
			"bufferView":0,
			"componentType":5126,
			"count":78,
			"max":[
				10,
				10,
				6
			],
			"min":[
				-4,
				0,
				-6
			],
			"type":"VEC3"
		},
		{
			"bufferView":1,
			"componentType":5126,
			"count":78,
			"type":"VEC3"
		},
		{
			"bufferView":2,
			"componentType":5126,
			"count":78,
			"type":"VEC2"
		},
		{
			"bufferView":3,
			"componentType":5123,
			"count":162,
			"type":"SCALAR"
		},
		{
			"bufferView":4,
			"componentType":5126,
			"count":22,
			"max":[
				10.5,
				10.5,
				5.5
			],
			"min":[
				-4,
				0,
				-5.5
			],
			"type":"VEC3"
		},
		{
			"bufferView":5,
			"componentType":5126,
			"count":22,
			"type":"VEC3"
		},
		{
			"bufferView":6,
			"componentType":5126,
			"count":22,
			"type":"VEC2"
		},
		{
			"bufferView":7,
			"componentType":5123,
			"count":36,
			"type":"SCALAR"
		},
		{
			"bufferView":8,
			"componentType":5126,
			"count":16,
			"max":[
				10.5,
				10.5,
				5.5
			],
			"min":[
				2,
				0,
				-5.5
			],
			"type":"VEC3"
		},
		{
			"bufferView":9,
			"componentType":5126,
			"count":16,
			"type":"VEC3"
		},
		{
			"bufferView":10,
			"componentType":5126,
			"count":16,
			"type":"VEC2"
		},
		{
			"bufferView":11,
			"componentType":5123,
			"count":24,
			"type":"SCALAR"
		},
		{
			"bufferView":12,
			"componentType":5126,
			"count":8,
			"max":[
				0,
				10,
				4
			],
			"min":[
				-1.5,
				0,
				-4
			],
			"type":"VEC3"
		},
		{
			"bufferView":13,
			"componentType":5126,
			"count":8,
			"type":"VEC3"
		},
		{
			"bufferView":14,
			"componentType":5126,
			"count":8,
			"type":"VEC2"
		},
		{
			"bufferView":15,
			"componentType":5123,
			"count":12,
			"type":"SCALAR"
		},
		{
			"bufferView":16,
			"componentType":5126,
			"count":36,
			"max":[
				2,
				11.5,
				6
			],
			"min":[
				-4.25,
				8.5,
				-6
			],
			"type":"VEC3"
		},
		{
			"bufferView":17,
			"componentType":5126,
			"count":36,
			"type":"VEC3"
		},
		{
			"bufferView":18,
			"componentType":5126,
			"count":36,
			"type":"VEC2"
		},
		{
			"bufferView":19,
			"componentType":5123,
			"count":93,
			"type":"SCALAR"
		},
		{
			"bufferView":20,
			"componentType":5126,
			"count":54,
			"max":[
				2,
				11,
				6
			],
			"min":[
				-4,
				10,
				-6
			],
			"type":"VEC3"
		},
		{
			"bufferView":21,
			"componentType":5126,
			"count":54,
			"type":"VEC3"
		},
		{
			"bufferView":22,
			"componentType":5126,
			"count":54,
			"type":"VEC2"
		},
		{
			"bufferView":23,
			"componentType":5123,
			"count":108,
			"type":"SCALAR"
		},
		{
			"bufferView":24,
			"componentType":5126,
			"count":7,
			"max":[
				0.5,
				11.5,
				2
			],
			"min":[
				-4,
				11.5,
				-2
			],
			"type":"VEC3"
		},
		{
			"bufferView":25,
			"componentType":5126,
			"count":7,
			"type":"VEC3"
		},
		{
			"bufferView":26,
			"componentType":5126,
			"count":7,
			"type":"VEC2"
		},
		{
			"bufferView":27,
			"componentType":5123,
			"count":15,
			"type":"SCALAR"
		},
		{
			"bufferView":28,
			"componentType":5126,
			"count":24,
			"max":[
				0.5,
				11.5,
				2
			],
			"min":[
				-4,
				11,
				-2
			],
			"type":"VEC3"
		},
		{
			"bufferView":29,
			"componentType":5126,
			"count":24,
			"type":"VEC3"
		},
		{
			"bufferView":30,
			"componentType":5126,
			"count":24,
			"type":"VEC2"
		},
		{
			"bufferView":31,
			"componentType":5123,
			"count":36,
			"type":"SCALAR"
		},
		{
			"bufferView":32,
			"componentType":5126,
			"count":12,
			"max":[
				-4,
				11.5,
				1
			],
			"min":[
				-4.25,
				8.5,
				-1
			],
			"type":"VEC3"
		},
		{
			"bufferView":33,
			"componentType":5126,
			"count":12,
			"type":"VEC3"
		},
		{
			"bufferView":34,
			"componentType":5126,
			"count":12,
			"type":"VEC2"
		},
		{
			"bufferView":35,
			"componentType":5123,
			"count":18,
			"type":"SCALAR"
		}
	],
	"bufferViews":[
		{
			"buffer":0,
			"byteLength":936,
			"byteOffset":0,
			"target":34962
		},
		{
			"buffer":0,
			"byteLength":936,
			"byteOffset":936,
			"target":34962
		},
		{
			"buffer":0,
			"byteLength":624,
			"byteOffset":1872,
			"target":34962
		},
		{
			"buffer":0,
			"byteLength":324,
			"byteOffset":2496,
			"target":34963
		},
		{
			"buffer":0,
			"byteLength":264,
			"byteOffset":2820,
			"target":34962
		},
		{
			"buffer":0,
			"byteLength":264,
			"byteOffset":3084,
			"target":34962
		},
		{
			"buffer":0,
			"byteLength":176,
			"byteOffset":3348,
			"target":34962
		},
		{
			"buffer":0,
			"byteLength":72,
			"byteOffset":3524,
			"target":34963
		},
		{
			"buffer":0,
			"byteLength":192,
			"byteOffset":3596,
			"target":34962
		},
		{
			"buffer":0,
			"byteLength":192,
			"byteOffset":3788,
			"target":34962
		},
		{
			"buffer":0,
			"byteLength":128,
			"byteOffset":3980,
			"target":34962
		},
		{
			"buffer":0,
			"byteLength":48,
			"byteOffset":4108,
			"target":34963
		},
		{
			"buffer":0,
			"byteLength":96,
			"byteOffset":4156,
			"target":34962
		},
		{
			"buffer":0,
			"byteLength":96,
			"byteOffset":4252,
			"target":34962
		},
		{
			"buffer":0,
			"byteLength":64,
			"byteOffset":4348,
			"target":34962
		},
		{
			"buffer":0,
			"byteLength":24,
			"byteOffset":4412,
			"target":34963
		},
		{
			"buffer":0,
			"byteLength":432,
			"byteOffset":4436,
			"target":34962
		},
		{
			"buffer":0,
			"byteLength":432,
			"byteOffset":4868,
			"target":34962
		},
		{
			"buffer":0,
			"byteLength":288,
			"byteOffset":5300,
			"target":34962
		},
		{
			"buffer":0,
			"byteLength":186,
			"byteOffset":5588,
			"target":34963
		},
		{
			"buffer":0,
			"byteLength":648,
			"byteOffset":5776,
			"target":34962
		},
		{
			"buffer":0,
			"byteLength":648,
			"byteOffset":6424,
			"target":34962
		},
		{
			"buffer":0,
			"byteLength":432,
			"byteOffset":7072,
			"target":34962
		},
		{
			"buffer":0,
			"byteLength":216,
			"byteOffset":7504,
			"target":34963
		},
		{
			"buffer":0,
			"byteLength":84,
			"byteOffset":7720,
			"target":34962
		},
		{
			"buffer":0,
			"byteLength":84,
			"byteOffset":7804,
			"target":34962
		},
		{
			"buffer":0,
			"byteLength":56,
			"byteOffset":7888,
			"target":34962
		},
		{
			"buffer":0,
			"byteLength":30,
			"byteOffset":7944,
			"target":34963
		},
		{
			"buffer":0,
			"byteLength":288,
			"byteOffset":7976,
			"target":34962
		},
		{
			"buffer":0,
			"byteLength":288,
			"byteOffset":8264,
			"target":34962
		},
		{
			"buffer":0,
			"byteLength":192,
			"byteOffset":8552,
			"target":34962
		},
		{
			"buffer":0,
			"byteLength":72,
			"byteOffset":8744,
			"target":34963
		},
		{
			"buffer":0,
			"byteLength":144,
			"byteOffset":8816,
			"target":34962
		},
		{
			"buffer":0,
			"byteLength":144,
			"byteOffset":8960,
			"target":34962
		},
		{
			"buffer":0,
			"byteLength":96,
			"byteOffset":9104,
			"target":34962
		},
		{
			"buffer":0,
			"byteLength":36,
			"byteOffset":9200,
			"target":34963
		}
	],
	"buffers":[
		{
			"byteLength":9236,
			"uri":"TL_magnumvs.bin"
		}
	]
}
