{
	"asset":{
		"generator":"Khronos glTF Blender I/O v4.5.48",
		"version":"2.0"
	},
	"scene":0,
	"scenes":[
		{
			"name":"Scene",
			"nodes":[
				0,
				1
			]
		}
	],
	"nodes":[
		{
			"mesh":0,
			"name":"Object"
		},
		{
			"mesh":1,
			"name":"Object.001"
		}
	],
	"materials":[
		{
			"doubleSided":true,
			"name":"BE_EFLO02",
			"pbrMetallicRoughness":{
				"baseColorFactor":[
					0.800000011920929,
					0.800000011920929,
					0.800000011920929,
					1
				],
				"metallicFactor":0,
				"roughnessFactor":0.5
			}
		},
		{
			"doubleSided":true,
			"name":"BE_ESPEC06A",
			"pbrMetallicRoughness":{
				"baseColorFactor":[
					0.800000011920929,
					0.800000011920929,
					0.800000011920929,
					1
				],
				"metallicFactor":0,
				"roughnessFactor":0.5
			}
		},
		{
			"doubleSided":true,
			"name":"BE_IGENERICDARK",
			"pbrMetallicRoughness":{
				"baseColorFactor":[
					0.800000011920929,
					0.800000011920929,
					0.800000011920929,
					1
				],
				"metallicFactor":0,
				"roughnessFactor":0.5
			}
		},
		{
			"doubleSided":true,
			"name":"BE_ELIG03",
			"pbrMetallicRoughness":{
				"baseColorFactor":[
					0.800000011920929,
					0.800000011920929,
					0.800000011920929,
					1
				],
				"metallicFactor":0,
				"roughnessFactor":0.5
			}
		},
		{
			"doubleSided":true,
			"name":"BE_EBOR03",
			"pbrMetallicRoughness":{
				"baseColorFactor":[
					0.800000011920929,
					0.800000011920929,
					0.800000011920929,
					1
				],
				"metallicFactor":0,
				"roughnessFactor":0.5
			}
		},
		{
			"doubleSided":true,
			"name":"BE_EWAL07",
			"pbrMetallicRoughness":{
				"baseColorFactor":[
					0.800000011920929,
					0.800000011920929,
					0.800000011920929,
					1
				],
				"metallicFactor":0,
				"roughnessFactor":0.5
			}
		},
		{
			"doubleSided":true,
			"name":"BE_ELIG02",
			"pbrMetallicRoughness":{
				"baseColorFactor":[
					0.800000011920929,
					0.800000011920929,
					0.800000011920929,
					1
				],
				"metallicFactor":0,
				"roughnessFactor":0.5
			}
		},
		{
			"doubleSided":true,
			"name":"BE_ESPEC03B",
			"pbrMetallicRoughness":{
				"baseColorFactor":[
					0.800000011920929,
					0.800000011920929,
					0.800000011920929,
					1
				],
				"metallicFactor":0,
				"roughnessFactor":0.5
			}
		},
		{
			"doubleSided":true,
			"name":"BE_EFLO02.001",
			"pbrMetallicRoughness":{
				"baseColorFactor":[
					0.800000011920929,
					0.800000011920929,
					0.800000011920929,
					1
				],
				"metallicFactor":0,
				"roughnessFactor":0.5
			}
		},
		{
			"doubleSided":true,
			"name":"BE_ESPEC06A.001",
			"pbrMetallicRoughness":{
				"baseColorFactor":[
					0.800000011920929,
					0.800000011920929,
					0.800000011920929,
					1
				],
				"metallicFactor":0,
				"roughnessFactor":0.5
			}
		},
		{
			"doubleSided":true,
			"name":"BE_IGENERICDARK.001",
			"pbrMetallicRoughness":{
				"baseColorFactor":[
					0.800000011920929,
					0.800000011920929,
					0.800000011920929,
					1
				],
				"metallicFactor":0,
				"roughnessFactor":0.5
			}
		},
		{
			"doubleSided":true,
			"name":"BE_ELIG03.001",
			"pbrMetallicRoughness":{
				"baseColorFactor":[
					0.800000011920929,
					0.800000011920929,
					0.800000011920929,
					1
				],
				"metallicFactor":0,
				"roughnessFactor":0.5
			}
		},
		{
			"doubleSided":true,
			"name":"BE_EBOR03.001",
			"pbrMetallicRoughness":{
				"baseColorFactor":[
					0.800000011920929,
					0.800000011920929,
					0.800000011920929,
					1
				],
				"metallicFactor":0,
				"roughnessFactor":0.5
			}
		},
		{
			"doubleSided":true,
			"name":"BE_ELIG02.001",
			"pbrMetallicRoughness":{
				"baseColorFactor":[
					0.800000011920929,
					0.800000011920929,
					0.800000011920929,
					1
				],
				"metallicFactor":0,
				"roughnessFactor":0.5
			}
		},
		{
			"doubleSided":true,
			"name":"BE_ESPEC03B.001",
			"pbrMetallicRoughness":{
				"baseColorFactor":[
					0.800000011920929,
					0.800000011920929,
					0.800000011920929,
					1
				],
				"metallicFactor":0,
				"roughnessFactor":0.5
			}
		}
	],
	"meshes":[
		{
			"name":"Mesh",
			"primitives":[
				{
					"attributes":{
						"POSITION":0,
						"NORMAL":1,
						"TEXCOORD_0":2
					},
					"indices":3,
					"material":0
				},
				{
					"attributes":{
						"POSITION":4,
						"NORMAL":5,
						"TEXCOORD_0":6
					},
					"indices":7,
					"material":1
				},
				{
					"attributes":{
						"POSITION":8,
						"NORMAL":9,
						"TEXCOORD_0":10
					},
					"indices":11,
					"material":2
				},
				{
					"attributes":{
						"POSITION":12,
						"NORMAL":13,
						"TEXCOORD_0":14
					},
					"indices":15,
					"material":3
				},
				{
					"attributes":{
						"POSITION":16,
						"NORMAL":17,
						"TEXCOORD_0":18
					},
					"indices":19,
					"material":4
				},
				{
					"attributes":{
						"POSITION":20,
						"NORMAL":21,
						"TEXCOORD_0":22
					},
					"indices":23,
					"material":5
				},
				{
					"attributes":{
						"POSITION":24,
						"NORMAL":25,
						"TEXCOORD_0":26
					},
					"indices":27,
					"material":6
				},
				{
					"attributes":{
						"POSITION":28,
						"NORMAL":29,
						"TEXCOORD_0":30
					},
					"indices":31,
					"material":7
				}
			]
		},
		{
			"name":"Mesh.001",
			"primitives":[
				{
					"attributes":{
						"POSITION":32,
						"NORMAL":33,
						"TEXCOORD_0":34
					},
					"indices":35,
					"material":8
				},
				{
					"attributes":{
						"POSITION":36,
						"NORMAL":37,
						"TEXCOORD_0":38
					},
					"indices":39,
					"material":9
				},
				{
					"attributes":{
						"POSITION":40,
						"NORMAL":41,
						"TEXCOORD_0":42
					},
					"indices":43,
					"material":10
				},
				{
					"attributes":{
						"POSITION":44,
						"NORMAL":45,
						"TEXCOORD_0":46
					},
					"indices":47,
					"material":11
				},
				{
					"attributes":{
						"POSITION":48,
						"NORMAL":49,
						"TEXCOORD_0":50
					},
					"indices":51,
					"material":12
				},
				{
					"attributes":{
						"POSITION":52,
						"NORMAL":53,
						"TEXCOORD_0":54
					},
					"indices":55,
					"material":13
				},
				{
					"attributes":{
						"POSITION":56,
						"NORMAL":57,
						"TEXCOORD_0":58
					},
					"indices":59,
					"material":14
				}
			]
		}
	],
	"accessors":[
		{
			"bufferView":0,
			"componentType":5126,
			"count":64,
			"max":[
				6.5,
				1.5,
				4
			],
			"min":[
				-6.5,
				-2.5,
				-4
			],
			"type":"VEC3"
		},
		{
			"bufferView":1,
			"componentType":5126,
			"count":64,
			"type":"VEC3"
		},
		{
			"bufferView":2,
			"componentType":5126,
			"count":64,
			"type":"VEC2"
		},
		{
			"bufferView":3,
			"componentType":5123,
			"count":126,
			"type":"SCALAR"
		},
		{
			"bufferView":4,
			"componentType":5126,
			"count":76,
			"max":[
				6.5,
				1.5,
				4
			],
			"min":[
				-6.5,
				-4.5,
				-4
			],
			"type":"VEC3"
		},
		{
			"bufferView":5,
			"componentType":5126,
			"count":76,
			"type":"VEC3"
		},
		{
			"bufferView":6,
			"componentType":5126,
			"count":76,
			"type":"VEC2"
		},
		{
			"bufferView":7,
			"componentType":5123,
			"count":126,
			"type":"SCALAR"
		},
		{
			"bufferView":8,
			"componentType":5126,
			"count":8,
			"max":[
				6.75,
				0.1875,
				4
			],
			"min":[
				-6.75,
				-1.78125,
				-4
			],
			"type":"VEC3"
		},
		{
			"bufferView":9,
			"componentType":5126,
			"count":8,
			"type":"VEC3"
		},
		{
			"bufferView":10,
			"componentType":5126,
			"count":8,
			"type":"VEC2"
		},
		{
			"bufferView":11,
			"componentType":5123,
			"count":12,
			"type":"SCALAR"
		},
		{
			"bufferView":12,
			"componentType":5126,
			"count":24,
			"max":[
				6,
				0.5,
				2
			],
			"min":[
				-6,
				-2.5,
				-4
			],
			"type":"VEC3"
		},
		{
			"bufferView":13,
			"componentType":5126,
			"count":24,
			"type":"VEC3"
		},
		{
			"bufferView":14,
			"componentType":5126,
			"count":24,
			"type":"VEC2"
		},
		{
			"bufferView":15,
			"componentType":5123,
			"count":48,
			"type":"SCALAR"
		},
		{
			"bufferView":16,
			"componentType":5126,
			"count":54,
			"max":[
				6.75,
				1,
				4
			],
			"min":[
				-6.75,
				-1.78125,
				-4
			],
			"type":"VEC3"
		},
		{
			"bufferView":17,
			"componentType":5126,
			"count":54,
			"type":"VEC3"
		},
		{
			"bufferView":18,
			"componentType":5126,
			"count":54,
			"type":"VEC2"
		},
		{
			"bufferView":19,
			"componentType":5123,
			"count":90,
			"type":"SCALAR"
		},
		{
			"bufferView":20,
			"componentType":5126,
			"count":18,
			"max":[
				5.5,
				1,
				4
			],
			"min":[
				-5.5,
				-1,
				-4
			],
			"type":"VEC3"
		},
		{
			"bufferView":21,
			"componentType":5126,
			"count":18,
			"type":"VEC3"
		},
		{
			"bufferView":22,
			"componentType":5126,
			"count":18,
			"type":"VEC2"
		},
		{
			"bufferView":23,
			"componentType":5123,
			"count":24,
			"type":"SCALAR"
		},
		{
			"bufferView":24,
			"componentType":5126,
			"count":8,
			"max":[
				6.75,
				0.71875,
				4
			],
			"min":[
				-6.75,
				-1.78125,
				-4
			],
			"type":"VEC3"
		},
		{
			"bufferView":25,
			"componentType":5126,
			"count":8,
			"type":"VEC3"
		},
		{
			"bufferView":26,
			"componentType":5126,
			"count":8,
			"type":"VEC2"
		},
		{
			"bufferView":27,
			"componentType":5123,
			"count":12,
			"type":"SCALAR"
		},
		{
			"bufferView":28,
			"componentType":5126,
			"count":22,
			"max":[
				3.3114755153656006,
				-0.5,
				4
			],
			"min":[
				-3.25,
				-4.5,
				-4
			],
			"type":"VEC3"
		},
		{
			"bufferView":29,
			"componentType":5126,
			"count":22,
			"type":"VEC3"
		},
		{
			"bufferView":30,
			"componentType":5126,
			"count":22,
			"type":"VEC2"
		},
		{
			"bufferView":31,
			"componentType":5123,
			"count":42,
			"type":"SCALAR"
		},
		{
			"bufferView":32,
			"componentType":5126,
			"count":76,
			"max":[
				6.5,
				1.5,
				4
			],
			"min":[
				-6.5,
				-2.5,
				-4
			],
			"type":"VEC3"
		},
		{
			"bufferView":33,
			"componentType":5126,
			"count":76,
			"type":"VEC3"
		},
		{
			"bufferView":34,
			"componentType":5126,
			"count":76,
			"type":"VEC2"
		},
		{
			"bufferView":35,
			"componentType":5123,
			"count":162,
			"type":"SCALAR"
		},
		{
			"bufferView":36,
			"componentType":5126,
			"count":80,
			"max":[
				6.5,
				1.5,
				4
			],
			"min":[
				-6.5,
				-4.5,
				-4
			],
			"type":"VEC3"
		},
		{
			"bufferView":37,
			"componentType":5126,
			"count":80,
			"type":"VEC3"
		},
		{
			"bufferView":38,
			"componentType":5126,
			"count":80,
			"type":"VEC2"
		},
		{
			"bufferView":39,
			"componentType":5123,
			"count":138,
			"type":"SCALAR"
		},
		{
			"bufferView":40,
			"componentType":5126,
			"count":8,
			"max":[
				6.75,
				0.1875,
				4
			],
			"min":[
				-6.75,
				-1.78125,
				-4
			],
			"type":"VEC3"
		},
		{
			"bufferView":41,
			"componentType":5126,
			"count":8,
			"type":"VEC3"
		},
		{
			"bufferView":42,
			"componentType":5126,
			"count":8,
			"type":"VEC2"
		},
		{
			"bufferView":43,
			"componentType":5123,
			"count":12,
			"type":"SCALAR"
		},
		{
			"bufferView":44,
			"componentType":5126,
			"count":18,
			"max":[
				6,
				0.5,
				2
			],
			"min":[
				-6,
				-2.5,
				-4
			],
			"type":"VEC3"
		},
		{
			"bufferView":45,
			"componentType":5126,
			"count":18,
			"type":"VEC3"
		},
		{
			"bufferView":46,
			"componentType":5126,
			"count":18,
			"type":"VEC2"
		},
		{
			"bufferView":47,
			"componentType":5123,
			"count":30,
			"type":"SCALAR"
		},
		{
			"bufferView":48,
			"componentType":5126,
			"count":24,
			"max":[
				6.75,
				0.71875,
				4
			],
			"min":[
				-6.75,
				-1.78125,
				-4
			],
			"type":"VEC3"
		},
		{
			"bufferView":49,
			"componentType":5126,
			"count":24,
			"type":"VEC3"
		},
		{
			"bufferView":50,
			"componentType":5126,
			"count":24,
			"type":"VEC2"
		},
		{
			"bufferView":51,
			"componentType":5123,
			"count":36,
			"type":"SCALAR"
		},
		{
			"bufferView":52,
			"componentType":5126,
			"count":8,
			"max":[
				6.75,
				0.71875,
				4
			],
			"min":[
				-6.75,
				-1.78125,
				-4
			],
			"type":"VEC3"
		},
		{
			"bufferView":53,
			"componentType":5126,
			"count":8,
			"type":"VEC3"
		},
		{
			"bufferView":54,
			"componentType":5126,
			"count":8,
			"type":"VEC2"
		},
		{
			"bufferView":55,
			"componentType":5123,
			"count":12,
			"type":"SCALAR"
		},
		{
			"bufferView":56,
			"componentType":5126,
			"count":22,
			"max":[
				3.3114755153656006,
				-0.5,
				4
			],
			"min":[
				-3.25,
				-4.5,
				-4
			],
			"type":"VEC3"
		},
		{
			"bufferView":57,
			"componentType":5126,
			"count":22,
			"type":"VEC3"
		},
		{
			"bufferView":58,
			"componentType":5126,
			"count":22,
			"type":"VEC2"
		},
		{
			"bufferView":59,
			"componentType":5123,
			"count":42,
			"type":"SCALAR"
		}
	],
	"bufferViews":[
		{
			"buffer":0,
			"byteLength":768,
			"byteOffset":0,
			"target":34962
		},
		{
			"buffer":0,
			"byteLength":768,
			"byteOffset":768,
			"target":34962
		},
		{
			"buffer":0,
			"byteLength":512,
			"byteOffset":1536,
			"target":34962
		},
		{
			"buffer":0,
			"byteLength":252,
			"byteOffset":2048,
			"target":34963
		},
		{
			"buffer":0,
			"byteLength":912,
			"byteOffset":2300,
			"target":34962
		},
		{
			"buffer":0,
			"byteLength":912,
			"byteOffset":3212,
			"target":34962
		},
		{
			"buffer":0,
			"byteLength":608,
			"byteOffset":4124,
			"target":34962
		},
		{
			"buffer":0,
			"byteLength":252,
			"byteOffset":4732,
			"target":34963
		},
		{
			"buffer":0,
			"byteLength":96,
			"byteOffset":4984,
			"target":34962
		},
		{
			"buffer":0,
			"byteLength":96,
			"byteOffset":5080,
			"target":34962
		},
		{
			"buffer":0,
			"byteLength":64,
			"byteOffset":5176,
			"target":34962
		},
		{
			"buffer":0,
			"byteLength":24,
			"byteOffset":5240,
			"target":34963
		},
		{
			"buffer":0,
			"byteLength":288,
			"byteOffset":5264,
			"target":34962
		},
		{
			"buffer":0,
			"byteLength":288,
			"byteOffset":5552,
			"target":34962
		},
		{
			"buffer":0,
			"byteLength":192,
			"byteOffset":5840,
			"target":34962
		},
		{
			"buffer":0,
			"byteLength":96,
			"byteOffset":6032,
			"target":34963
		},
		{
			"buffer":0,
			"byteLength":648,
			"byteOffset":6128,
			"target":34962
		},
		{
			"buffer":0,
			"byteLength":648,
			"byteOffset":6776,
			"target":34962
		},
		{
			"buffer":0,
			"byteLength":432,
			"byteOffset":7424,
			"target":34962
		},
		{
			"buffer":0,
			"byteLength":180,
			"byteOffset":7856,
			"target":34963
		},
		{
			"buffer":0,
			"byteLength":216,
			"byteOffset":8036,
			"target":34962
		},
		{
			"buffer":0,
			"byteLength":216,
			"byteOffset":8252,
			"target":34962
		},
		{
			"buffer":0,
			"byteLength":144,
			"byteOffset":8468,
			"target":34962
		},
		{
			"buffer":0,
			"byteLength":48,
			"byteOffset":8612,
			"target":34963
		},
		{
			"buffer":0,
			"byteLength":96,
			"byteOffset":8660,
			"target":34962
		},
		{
			"buffer":0,
			"byteLength":96,
			"byteOffset":8756,
			"target":34962
		},
		{
			"buffer":0,
			"byteLength":64,
			"byteOffset":8852,
			"target":34962
		},
		{
			"buffer":0,
			"byteLength":24,
			"byteOffset":8916,
			"target":34963
		},
		{
			"buffer":0,
			"byteLength":264,
			"byteOffset":8940,
			"target":34962
		},
		{
			"buffer":0,
			"byteLength":264,
			"byteOffset":9204,
			"target":34962
		},
		{
			"buffer":0,
			"byteLength":176,
			"byteOffset":9468,
			"target":34962
		},
		{
			"buffer":0,
			"byteLength":84,
			"byteOffset":9644,
			"target":34963
		},
		{
			"buffer":0,
			"byteLength":912,
			"byteOffset":9728,
			"target":34962
		},
		{
			"buffer":0,
			"byteLength":912,
			"byteOffset":10640,
			"target":34962
		},
		{
			"buffer":0,
			"byteLength":608,
			"byteOffset":11552,
			"target":34962
		},
		{
			"buffer":0,
			"byteLength":324,
			"byteOffset":12160,
			"target":34963
		},
		{
			"buffer":0,
			"byteLength":960,
			"byteOffset":12484,
			"target":34962
		},
		{
			"buffer":0,
			"byteLength":960,
			"byteOffset":13444,
			"target":34962
		},
		{
			"buffer":0,
			"byteLength":640,
			"byteOffset":14404,
			"target":34962
		},
		{
			"buffer":0,
			"byteLength":276,
			"byteOffset":15044,
			"target":34963
		},
		{
			"buffer":0,
			"byteLength":96,
			"byteOffset":15320,
			"target":34962
		},
		{
			"buffer":0,
			"byteLength":96,
			"byteOffset":15416,
			"target":34962
		},
		{
			"buffer":0,
			"byteLength":64,
			"byteOffset":15512,
			"target":34962
		},
		{
			"buffer":0,
			"byteLength":24,
			"byteOffset":15576,
			"target":34963
		},
		{
			"buffer":0,
			"byteLength":216,
			"byteOffset":15600,
			"target":34962
		},
		{
			"buffer":0,
			"byteLength":216,
			"byteOffset":15816,
			"target":34962
		},
		{
			"buffer":0,
			"byteLength":144,
			"byteOffset":16032,
			"target":34962
		},
		{
			"buffer":0,
			"byteLength":60,
			"byteOffset":16176,
			"target":34963
		},
		{
			"buffer":0,
			"byteLength":288,
			"byteOffset":16236,
			"target":34962
		},
		{
			"buffer":0,
			"byteLength":288,
			"byteOffset":16524,
			"target":34962
		},
		{
			"buffer":0,
			"byteLength":192,
			"byteOffset":16812,
			"target":34962
		},
		{
			"buffer":0,
			"byteLength":72,
			"byteOffset":17004,
			"target":34963
		},
		{
			"buffer":0,
			"byteLength":96,
			"byteOffset":17076,
			"target":34962
		},
		{
			"buffer":0,
			"byteLength":96,
			"byteOffset":17172,
			"target":34962
		},
		{
			"buffer":0,
			"byteLength":64,
			"byteOffset":17268,
			"target":34962
		},
		{
			"buffer":0,
			"byteLength":24,
			"byteOffset":17332,
			"target":34963
		},
		{
			"buffer":0,
			"byteLength":264,
			"byteOffset":17356,
			"target":34962
		},
		{
			"buffer":0,
			"byteLength":264,
			"byteOffset":17620,
			"target":34962
		},
		{
			"buffer":0,
			"byteLength":176,
			"byteOffset":17884,
			"target":34962
		},
		{
			"buffer":0,
			"byteLength":84,
			"byteOffset":18060,
			"target":34963
		}
	],
	"buffers":[
		{
			"byteLength":18144,
			"uri":"bbrdg4.bin"
		}
	]
}
