{
	"asset":{
		"generator":"Khronos glTF Blender I/O v4.5.48",
		"version":"2.0"
	},
	"scene":0,
	"scenes":[
		{
			"name":"Scene",
			"nodes":[
				0,
				1,
				2,
				3
			]
		}
	],
	"nodes":[
		{
			"mesh":0,
			"name":"Object"
		},
		{
			"mesh":1,
			"name":"Object.001"
		},
		{
			"mesh":2,
			"name":"Object.002"
		},
		{
			"mesh":3,
			"name":"Object.003"
		}
	],
	"materials":[
		{
			"doubleSided":true,
			"name":"BE_IPIPE01B",
			"pbrMetallicRoughness":{
				"baseColorFactor":[
					0.800000011920929,
					0.800000011920929,
					0.800000011920929,
					1
				],
				"metallicFactor":0,
				"roughnessFactor":0.5
			}
		},
		{
			"doubleSided":true,
			"name":"BE_EWAL03A",
			"pbrMetallicRoughness":{
				"baseColorFactor":[
					0.800000011920929,
					0.800000011920929,
					0.800000011920929,
					1
				],
				"metallicFactor":0,
				"roughnessFactor":0.5
			}
		},
		{
			"doubleSided":true,
			"name":"BE_EPIPE01",
			"pbrMetallicRoughness":{
				"baseColorFactor":[
					0.800000011920929,
					0.800000011920929,
					0.800000011920929,
					1
				],
				"metallicFactor":0,
				"roughnessFactor":0.5
			}
		},
		{
			"doubleSided":true,
			"name":"BE_EWAL12B",
			"pbrMetallicRoughness":{
				"baseColorFactor":[
					0.800000011920929,
					0.800000011920929,
					0.800000011920929,
					1
				],
				"metallicFactor":0,
				"roughnessFactor":0.5
			}
		},
		{
			"doubleSided":true,
			"name":"BE_IPIPE01",
			"pbrMetallicRoughness":{
				"baseColorFactor":[
					0.800000011920929,
					0.800000011920929,
					0.800000011920929,
					1
				],
				"metallicFactor":0,
				"roughnessFactor":0.5
			}
		},
		{
			"doubleSided":true,
			"name":"BE_IPIPE01B.001",
			"pbrMetallicRoughness":{
				"baseColorFactor":[
					0.800000011920929,
					0.800000011920929,
					0.800000011920929,
					1
				],
				"metallicFactor":0,
				"roughnessFactor":0.5
			}
		},
		{
			"doubleSided":true,
			"name":"BE_EWAL03A.001",
			"pbrMetallicRoughness":{
				"baseColorFactor":[
					0.800000011920929,
					0.800000011920929,
					0.800000011920929,
					1
				],
				"metallicFactor":0,
				"roughnessFactor":0.5
			}
		},
		{
			"doubleSided":true,
			"name":"BE_EPIPE01.001",
			"pbrMetallicRoughness":{
				"baseColorFactor":[
					0.800000011920929,
					0.800000011920929,
					0.800000011920929,
					1
				],
				"metallicFactor":0,
				"roughnessFactor":0.5
			}
		},
		{
			"doubleSided":true,
			"name":"BE_EWAL12B.001",
			"pbrMetallicRoughness":{
				"baseColorFactor":[
					0.800000011920929,
					0.800000011920929,
					0.800000011920929,
					1
				],
				"metallicFactor":0,
				"roughnessFactor":0.5
			}
		},
		{
			"doubleSided":true,
			"name":"BE_IPIPE01.001",
			"pbrMetallicRoughness":{
				"baseColorFactor":[
					0.800000011920929,
					0.800000011920929,
					0.800000011920929,
					1
				],
				"metallicFactor":0,
				"roughnessFactor":0.5
			}
		},
		{
			"doubleSided":true,
			"name":"BE_IPIPE01B.002",
			"pbrMetallicRoughness":{
				"baseColorFactor":[
					0.800000011920929,
					0.800000011920929,
					0.800000011920929,
					1
				],
				"metallicFactor":0,
				"roughnessFactor":0.5
			}
		},
		{
			"doubleSided":true,
			"name":"BE_EWAL03A.002",
			"pbrMetallicRoughness":{
				"baseColorFactor":[
					0.800000011920929,
					0.800000011920929,
					0.800000011920929,
					1
				],
				"metallicFactor":0,
				"roughnessFactor":0.5
			}
		},
		{
			"doubleSided":true,
			"name":"BE_EWAL12B.002",
			"pbrMetallicRoughness":{
				"baseColorFactor":[
					0.800000011920929,
					0.800000011920929,
					0.800000011920929,
					1
				],
				"metallicFactor":0,
				"roughnessFactor":0.5
			}
		},
		{
			"doubleSided":true,
			"name":"BE_IPIPE01.002",
			"pbrMetallicRoughness":{
				"baseColorFactor":[
					0.800000011920929,
					0.800000011920929,
					0.800000011920929,
					1
				],
				"metallicFactor":0,
				"roughnessFactor":0.5
			}
		},
		{
			"doubleSided":true,
			"name":"BE_IPIPE01B.003",
			"pbrMetallicRoughness":{
				"baseColorFactor":[
					0.800000011920929,
					0.800000011920929,
					0.800000011920929,
					1
				],
				"metallicFactor":0,
				"roughnessFactor":0.5
			}
		},
		{
			"doubleSided":true,
			"name":"BE_EWAL03A.003",
			"pbrMetallicRoughness":{
				"baseColorFactor":[
					0.800000011920929,
					0.800000011920929,
					0.800000011920929,
					1
				],
				"metallicFactor":0,
				"roughnessFactor":0.5
			}
		},
		{
			"doubleSided":true,
			"name":"BE_EWAL12B.003",
			"pbrMetallicRoughness":{
				"baseColorFactor":[
					0.800000011920929,
					0.800000011920929,
					0.800000011920929,
					1
				],
				"metallicFactor":0,
				"roughnessFactor":0.5
			}
		}
	],
	"meshes":[
		{
			"name":"Mesh",
			"primitives":[
				{
					"attributes":{
						"POSITION":0,
						"NORMAL":1,
						"TEXCOORD_0":2
					},
					"indices":3,
					"material":0
				},
				{
					"attributes":{
						"POSITION":4,
						"NORMAL":5,
						"TEXCOORD_0":6
					},
					"indices":7,
					"material":1
				},
				{
					"attributes":{
						"POSITION":8,
						"NORMAL":9,
						"TEXCOORD_0":10
					},
					"indices":11,
					"material":2
				},
				{
					"attributes":{
						"POSITION":12,
						"NORMAL":13,
						"TEXCOORD_0":14
					},
					"indices":15,
					"material":3
				},
				{
					"attributes":{
						"POSITION":16,
						"NORMAL":17,
						"TEXCOORD_0":18
					},
					"indices":19,
					"material":4
				}
			]
		},
		{
			"name":"Mesh.001",
			"primitives":[
				{
					"attributes":{
						"POSITION":20,
						"NORMAL":21,
						"TEXCOORD_0":22
					},
					"indices":23,
					"material":5
				},
				{
					"attributes":{
						"POSITION":24,
						"NORMAL":25,
						"TEXCOORD_0":26
					},
					"indices":27,
					"material":6
				},
				{
					"attributes":{
						"POSITION":28,
						"NORMAL":29,
						"TEXCOORD_0":30
					},
					"indices":31,
					"material":7
				},
				{
					"attributes":{
						"POSITION":32,
						"NORMAL":33,
						"TEXCOORD_0":34
					},
					"indices":35,
					"material":8
				},
				{
					"attributes":{
						"POSITION":36,
						"NORMAL":37,
						"TEXCOORD_0":38
					},
					"indices":39,
					"material":9
				}
			]
		},
		{
			"name":"Mesh.002",
			"primitives":[
				{
					"attributes":{
						"POSITION":40,
						"NORMAL":41,
						"TEXCOORD_0":42
					},
					"indices":43,
					"material":10
				},
				{
					"attributes":{
						"POSITION":44,
						"NORMAL":45,
						"TEXCOORD_0":46
					},
					"indices":47,
					"material":11
				},
				{
					"attributes":{
						"POSITION":48,
						"NORMAL":49,
						"TEXCOORD_0":50
					},
					"indices":51,
					"material":12
				},
				{
					"attributes":{
						"POSITION":52,
						"NORMAL":53,
						"TEXCOORD_0":54
					},
					"indices":55,
					"material":13
				}
			]
		},
		{
			"name":"Mesh.003",
			"primitives":[
				{
					"attributes":{
						"POSITION":56,
						"NORMAL":57,
						"TEXCOORD_0":58
					},
					"indices":59,
					"material":14
				},
				{
					"attributes":{
						"POSITION":60,
						"NORMAL":61,
						"TEXCOORD_0":62
					},
					"indices":63,
					"material":15
				},
				{
					"attributes":{
						"POSITION":64,
						"NORMAL":65,
						"TEXCOORD_0":66
					},
					"indices":67,
					"material":16
				}
			]
		}
	],
	"accessors":[
		{
			"bufferView":0,
			"componentType":5126,
			"count":238,
			"max":[
				10,
				-2,
				5
			],
			"min":[
				-10,
				-15,
				-5
			],
			"type":"VEC3"
		},
		{
			"bufferView":1,
			"componentType":5126,
			"count":238,
			"type":"VEC3"
		},
		{
			"bufferView":2,
			"componentType":5126,
			"count":238,
			"type":"VEC2"
		},
		{
			"bufferView":3,
			"componentType":5123,
			"count":600,
			"type":"SCALAR"
		},
		{
			"bufferView":4,
			"componentType":5126,
			"count":78,
			"max":[
				10,
				1,
				5
			],
			"min":[
				-10,
				-15,
				-5
			],
			"type":"VEC3"
		},
		{
			"bufferView":5,
			"componentType":5126,
			"count":78,
			"type":"VEC3"
		},
		{
			"bufferView":6,
			"componentType":5126,
			"count":78,
			"type":"VEC2"
		},
		{
			"bufferView":7,
			"componentType":5123,
			"count":126,
			"type":"SCALAR"
		},
		{
			"bufferView":8,
			"componentType":5126,
			"count":32,
			"max":[
				1.34375,
				-2,
				5
			],
			"min":[
				-1.34375,
				-3,
				-5
			],
			"type":"VEC3"
		},
		{
			"bufferView":9,
			"componentType":5126,
			"count":32,
			"type":"VEC3"
		},
		{
			"bufferView":10,
			"componentType":5126,
			"count":32,
			"type":"VEC2"
		},
		{
			"bufferView":11,
			"componentType":5123,
			"count":48,
			"type":"SCALAR"
		},
		{
			"bufferView":12,
			"componentType":5126,
			"count":64,
			"max":[
				10,
				1,
				5
			],
			"min":[
				-10,
				-3,
				-5
			],
			"type":"VEC3"
		},
		{
			"bufferView":13,
			"componentType":5126,
			"count":64,
			"type":"VEC3"
		},
		{
			"bufferView":14,
			"componentType":5126,
			"count":64,
			"type":"VEC2"
		},
		{
			"bufferView":15,
			"componentType":5123,
			"count":120,
			"type":"SCALAR"
		},
		{
			"bufferView":16,
			"componentType":5126,
			"count":4,
			"max":[
				-0.9251824617385864,
				-7.15625,
				4
			],
			"min":[
				-1.2395833730697632,
				-7.250570297241211,
				-4
			],
			"type":"VEC3"
		},
		{
			"bufferView":17,
			"componentType":5126,
			"count":4,
			"type":"VEC3"
		},
		{
			"bufferView":18,
			"componentType":5126,
			"count":4,
			"type":"VEC2"
		},
		{
			"bufferView":19,
			"componentType":5123,
			"count":6,
			"type":"SCALAR"
		},
		{
			"bufferView":20,
			"componentType":5126,
			"count":238,
			"max":[
				10,
				-2,
				5
			],
			"min":[
				-10,
				-15,
				-5
			],
			"type":"VEC3"
		},
		{
			"bufferView":21,
			"componentType":5126,
			"count":238,
			"type":"VEC3"
		},
		{
			"bufferView":22,
			"componentType":5126,
			"count":238,
			"type":"VEC2"
		},
		{
			"bufferView":23,
			"componentType":5123,
			"count":612,
			"type":"SCALAR"
		},
		{
			"bufferView":24,
			"componentType":5126,
			"count":116,
			"max":[
				10,
				1,
				5
			],
			"min":[
				-10,
				-15,
				-5
			],
			"type":"VEC3"
		},
		{
			"bufferView":25,
			"componentType":5126,
			"count":116,
			"type":"VEC3"
		},
		{
			"bufferView":26,
			"componentType":5126,
			"count":116,
			"type":"VEC2"
		},
		{
			"bufferView":27,
			"componentType":5123,
			"count":210,
			"type":"SCALAR"
		},
		{
			"bufferView":28,
			"componentType":5126,
			"count":32,
			"max":[
				1.34375,
				-2,
				5
			],
			"min":[
				-1.34375,
				-3,
				-5
			],
			"type":"VEC3"
		},
		{
			"bufferView":29,
			"componentType":5126,
			"count":32,
			"type":"VEC3"
		},
		{
			"bufferView":30,
			"componentType":5126,
			"count":32,
			"type":"VEC2"
		},
		{
			"bufferView":31,
			"componentType":5123,
			"count":48,
			"type":"SCALAR"
		},
		{
			"bufferView":32,
			"componentType":5126,
			"count":64,
			"max":[
				10,
				1,
				5
			],
			"min":[
				-10,
				-3,
				-5
			],
			"type":"VEC3"
		},
		{
			"bufferView":33,
			"componentType":5126,
			"count":64,
			"type":"VEC3"
		},
		{
			"bufferView":34,
			"componentType":5126,
			"count":64,
			"type":"VEC2"
		},
		{
			"bufferView":35,
			"componentType":5123,
			"count":120,
			"type":"SCALAR"
		},
		{
			"bufferView":36,
			"componentType":5126,
			"count":4,
			"max":[
				-0.71875,
				-7.15625,
				4
			],
			"min":[
				-1.2395833730697632,
				-7.3125,
				-4
			],
			"type":"VEC3"
		},
		{
			"bufferView":37,
			"componentType":5126,
			"count":4,
			"type":"VEC3"
		},
		{
			"bufferView":38,
			"componentType":5126,
			"count":4,
			"type":"VEC2"
		},
		{
			"bufferView":39,
			"componentType":5123,
			"count":6,
			"type":"SCALAR"
		},
		{
			"bufferView":40,
			"componentType":5126,
			"count":159,
			"max":[
				10,
				-2,
				5
			],
			"min":[
				-10,
				-15,
				-5
			],
			"type":"VEC3"
		},
		{
			"bufferView":41,
			"componentType":5126,
			"count":159,
			"type":"VEC3"
		},
		{
			"bufferView":42,
			"componentType":5126,
			"count":159,
			"type":"VEC2"
		},
		{
			"bufferView":43,
			"componentType":5123,
			"count":402,
			"type":"SCALAR"
		},
		{
			"bufferView":44,
			"componentType":5126,
			"count":66,
			"max":[
				10,
				1,
				5
			],
			"min":[
				-10,
				-15,
				-5
			],
			"type":"VEC3"
		},
		{
			"bufferView":45,
			"componentType":5126,
			"count":66,
			"type":"VEC3"
		},
		{
			"bufferView":46,
			"componentType":5126,
			"count":66,
			"type":"VEC2"
		},
		{
			"bufferView":47,
			"componentType":5123,
			"count":108,
			"type":"SCALAR"
		},
		{
			"bufferView":48,
			"componentType":5126,
			"count":52,
			"max":[
				10,
				1,
				5
			],
			"min":[
				-10,
				-3,
				-5
			],
			"type":"VEC3"
		},
		{
			"bufferView":49,
			"componentType":5126,
			"count":52,
			"type":"VEC3"
		},
		{
			"bufferView":50,
			"componentType":5126,
			"count":52,
			"type":"VEC2"
		},
		{
			"bufferView":51,
			"componentType":5123,
			"count":96,
			"type":"SCALAR"
		},
		{
			"bufferView":52,
			"componentType":5126,
			"count":4,
			"max":[
				-0.71875,
				-7.15625,
				4
			],
			"min":[
				-1.2395833730697632,
				-7.3125,
				-4
			],
			"type":"VEC3"
		},
		{
			"bufferView":53,
			"componentType":5126,
			"count":4,
			"type":"VEC3"
		},
		{
			"bufferView":54,
			"componentType":5126,
			"count":4,
			"type":"VEC2"
		},
		{
			"bufferView":55,
			"componentType":5123,
			"count":6,
			"type":"SCALAR"
		},
		{
			"bufferView":56,
			"componentType":5126,
			"count":110,
			"max":[
				10,
				0,
				5
			],
			"min":[
				-10,
				-15,
				-5
			],
			"type":"VEC3"
		},
		{
			"bufferView":57,
			"componentType":5126,
			"count":110,
			"type":"VEC3"
		},
		{
			"bufferView":58,
			"componentType":5126,
			"count":110,
			"type":"VEC2"
		},
		{
			"bufferView":59,
			"componentType":5123,
			"count":222,
			"type":"SCALAR"
		},
		{
			"bufferView":60,
			"componentType":5126,
			"count":52,
			"max":[
				10,
				1,
				5
			],
			"min":[
				-10,
				-15,
				-5
			],
			"type":"VEC3"
		},
		{
			"bufferView":61,
			"componentType":5126,
			"count":52,
			"type":"VEC3"
		},
		{
			"bufferView":62,
			"componentType":5126,
			"count":52,
			"type":"VEC2"
		},
		{
			"bufferView":63,
			"componentType":5123,
			"count":90,
			"type":"SCALAR"
		},
		{
			"bufferView":64,
			"componentType":5126,
			"count":52,
			"max":[
				10,
				1,
				5
			],
			"min":[
				-10,
				-3,
				-5
			],
			"type":"VEC3"
		},
		{
			"bufferView":65,
			"componentType":5126,
			"count":52,
			"type":"VEC3"
		},
		{
			"bufferView":66,
			"componentType":5126,
			"count":52,
			"type":"VEC2"
		},
		{
			"bufferView":67,
			"componentType":5123,
			"count":96,
			"type":"SCALAR"
		}
	],
	"bufferViews":[
		{
			"buffer":0,
			"byteLength":2856,
			"byteOffset":0,
			"target":34962
		},
		{
			"buffer":0,
			"byteLength":2856,
			"byteOffset":2856,
			"target":34962
		},
		{
			"buffer":0,
			"byteLength":1904,
			"byteOffset":5712,
			"target":34962
		},
		{
			"buffer":0,
			"byteLength":1200,
			"byteOffset":7616,
			"target":34963
		},
		{
			"buffer":0,
			"byteLength":936,
			"byteOffset":8816,
			"target":34962
		},
		{
			"buffer":0,
			"byteLength":936,
			"byteOffset":9752,
			"target":34962
		},
		{
			"buffer":0,
			"byteLength":624,
			"byteOffset":10688,
			"target":34962
		},
		{
			"buffer":0,
			"byteLength":252,
			"byteOffset":11312,
			"target":34963
		},
		{
			"buffer":0,
			"byteLength":384,
			"byteOffset":11564,
			"target":34962
		},
		{
			"buffer":0,
			"byteLength":384,
			"byteOffset":11948,
			"target":34962
		},
		{
			"buffer":0,
			"byteLength":256,
			"byteOffset":12332,
			"target":34962
		},
		{
			"buffer":0,
			"byteLength":96,
			"byteOffset":12588,
			"target":34963
		},
		{
			"buffer":0,
			"byteLength":768,
			"byteOffset":12684,
			"target":34962
		},
		{
			"buffer":0,
			"byteLength":768,
			"byteOffset":13452,
			"target":34962
		},
		{
			"buffer":0,
			"byteLength":512,
			"byteOffset":14220,
			"target":34962
		},
		{
			"buffer":0,
			"byteLength":240,
			"byteOffset":14732,
			"target":34963
		},
		{
			"buffer":0,
			"byteLength":48,
			"byteOffset":14972,
			"target":34962
		},
		{
			"buffer":0,
			"byteLength":48,
			"byteOffset":15020,
			"target":34962
		},
		{
			"buffer":0,
			"byteLength":32,
			"byteOffset":15068,
			"target":34962
		},
		{
			"buffer":0,
			"byteLength":12,
			"byteOffset":15100,
			"target":34963
		},
		{
			"buffer":0,
			"byteLength":2856,
			"byteOffset":15112,
			"target":34962
		},
		{
			"buffer":0,
			"byteLength":2856,
			"byteOffset":17968,
			"target":34962
		},
		{
			"buffer":0,
			"byteLength":1904,
			"byteOffset":20824,
			"target":34962
		},
		{
			"buffer":0,
			"byteLength":1224,
			"byteOffset":22728,
			"target":34963
		},
		{
			"buffer":0,
			"byteLength":1392,
			"byteOffset":23952,
			"target":34962
		},
		{
			"buffer":0,
			"byteLength":1392,
			"byteOffset":25344,
			"target":34962
		},
		{
			"buffer":0,
			"byteLength":928,
			"byteOffset":26736,
			"target":34962
		},
		{
			"buffer":0,
			"byteLength":420,
			"byteOffset":27664,
			"target":34963
		},
		{
			"buffer":0,
			"byteLength":384,
			"byteOffset":28084,
			"target":34962
		},
		{
			"buffer":0,
			"byteLength":384,
			"byteOffset":28468,
			"target":34962
		},
		{
			"buffer":0,
			"byteLength":256,
			"byteOffset":28852,
			"target":34962
		},
		{
			"buffer":0,
			"byteLength":96,
			"byteOffset":29108,
			"target":34963
		},
		{
			"buffer":0,
			"byteLength":768,
			"byteOffset":29204,
			"target":34962
		},
		{
			"buffer":0,
			"byteLength":768,
			"byteOffset":29972,
			"target":34962
		},
		{
			"buffer":0,
			"byteLength":512,
			"byteOffset":30740,
			"target":34962
		},
		{
			"buffer":0,
			"byteLength":240,
			"byteOffset":31252,
			"target":34963
		},
		{
			"buffer":0,
			"byteLength":48,
			"byteOffset":31492,
			"target":34962
		},
		{
			"buffer":0,
			"byteLength":48,
			"byteOffset":31540,
			"target":34962
		},
		{
			"buffer":0,
			"byteLength":32,
			"byteOffset":31588,
			"target":34962
		},
		{
			"buffer":0,
			"byteLength":12,
			"byteOffset":31620,
			"target":34963
		},
		{
			"buffer":0,
			"byteLength":1908,
			"byteOffset":31632,
			"target":34962
		},
		{
			"buffer":0,
			"byteLength":1908,
			"byteOffset":33540,
			"target":34962
		},
		{
			"buffer":0,
			"byteLength":1272,
			"byteOffset":35448,
			"target":34962
		},
		{
			"buffer":0,
			"byteLength":804,
			"byteOffset":36720,
			"target":34963
		},
		{
			"buffer":0,
			"byteLength":792,
			"byteOffset":37524,
			"target":34962
		},
		{
			"buffer":0,
			"byteLength":792,
			"byteOffset":38316,
			"target":34962
		},
		{
			"buffer":0,
			"byteLength":528,
			"byteOffset":39108,
			"target":34962
		},
		{
			"buffer":0,
			"byteLength":216,
			"byteOffset":39636,
			"target":34963
		},
		{
			"buffer":0,
			"byteLength":624,
			"byteOffset":39852,
			"target":34962
		},
		{
			"buffer":0,
			"byteLength":624,
			"byteOffset":40476,
			"target":34962
		},
		{
			"buffer":0,
			"byteLength":416,
			"byteOffset":41100,
			"target":34962
		},
		{
			"buffer":0,
			"byteLength":192,
			"byteOffset":41516,
			"target":34963
		},
		{
			"buffer":0,
			"byteLength":48,
			"byteOffset":41708,
			"target":34962
		},
		{
			"buffer":0,
			"byteLength":48,
			"byteOffset":41756,
			"target":34962
		},
		{
			"buffer":0,
			"byteLength":32,
			"byteOffset":41804,
			"target":34962
		},
		{
			"buffer":0,
			"byteLength":12,
			"byteOffset":41836,
			"target":34963
		},
		{
			"buffer":0,
			"byteLength":1320,
			"byteOffset":41848,
			"target":34962
		},
		{
			"buffer":0,
			"byteLength":1320,
			"byteOffset":43168,
			"target":34962
		},
		{
			"buffer":0,
			"byteLength":880,
			"byteOffset":44488,
			"target":34962
		},
		{
			"buffer":0,
			"byteLength":444,
			"byteOffset":45368,
			"target":34963
		},
		{
			"buffer":0,
			"byteLength":624,
			"byteOffset":45812,
			"target":34962
		},
		{
			"buffer":0,
			"byteLength":624,
			"byteOffset":46436,
			"target":34962
		},
		{
			"buffer":0,
			"byteLength":416,
			"byteOffset":47060,
			"target":34962
		},
		{
			"buffer":0,
			"byteLength":180,
			"byteOffset":47476,
			"target":34963
		},
		{
			"buffer":0,
			"byteLength":624,
			"byteOffset":47656,
			"target":34962
		},
		{
			"buffer":0,
			"byteLength":624,
			"byteOffset":48280,
			"target":34962
		},
		{
			"buffer":0,
			"byteLength":416,
			"byteOffset":48904,
			"target":34962
		},
		{
			"buffer":0,
			"byteLength":192,
			"byteOffset":49320,
			"target":34963
		}
	],
	"buffers":[
		{
			"byteLength":49512,
			"uri":"bbrdg6.bin"
		}
	]
}
