{
	"asset":{
		"generator":"Khronos glTF Blender I/O v4.5.48",
		"version":"2.0"
	},
	"scene":0,
	"scenes":[
		{
			"name":"Scene",
			"nodes":[
				0,
				1,
				2
			]
		}
	],
	"nodes":[
		{
			"mesh":0,
			"name":"Object"
		},
		{
			"mesh":1,
			"name":"Object.001"
		},
		{
			"mesh":2,
			"name":"Object.002"
		}
	],
	"materials":[
		{
			"doubleSided":true,
			"name":"BE_IPIPE01B",
			"pbrMetallicRoughness":{
				"baseColorFactor":[
					0.800000011920929,
					0.800000011920929,
					0.800000011920929,
					1
				],
				"metallicFactor":0,
				"roughnessFactor":0.5
			}
		},
		{
			"doubleSided":true,
			"name":"BE_EWAL03A",
			"pbrMetallicRoughness":{
				"baseColorFactor":[
					0.800000011920929,
					0.800000011920929,
					0.800000011920929,
					1
				],
				"metallicFactor":0,
				"roughnessFactor":0.5
			}
		},
		{
			"doubleSided":true,
			"name":"BE_EPIPE01",
			"pbrMetallicRoughness":{
				"baseColorFactor":[
					0.800000011920929,
					0.800000011920929,
					0.800000011920929,
					1
				],
				"metallicFactor":0,
				"roughnessFactor":0.5
			}
		},
		{
			"doubleSided":true,
			"name":"BE_EWAL12B",
			"pbrMetallicRoughness":{
				"baseColorFactor":[
					0.800000011920929,
					0.800000011920929,
					0.800000011920929,
					1
				],
				"metallicFactor":0,
				"roughnessFactor":0.5
			}
		},
		{
			"doubleSided":true,
			"name":"BE_IPIPE01B.001",
			"pbrMetallicRoughness":{
				"baseColorFactor":[
					0.800000011920929,
					0.800000011920929,
					0.800000011920929,
					1
				],
				"metallicFactor":0,
				"roughnessFactor":0.5
			}
		},
		{
			"doubleSided":true,
			"name":"BE_EWAL03A.001",
			"pbrMetallicRoughness":{
				"baseColorFactor":[
					0.800000011920929,
					0.800000011920929,
					0.800000011920929,
					1
				],
				"metallicFactor":0,
				"roughnessFactor":0.5
			}
		},
		{
			"doubleSided":true,
			"name":"BE_EPIPE01.001",
			"pbrMetallicRoughness":{
				"baseColorFactor":[
					0.800000011920929,
					0.800000011920929,
					0.800000011920929,
					1
				],
				"metallicFactor":0,
				"roughnessFactor":0.5
			}
		},
		{
			"doubleSided":true,
			"name":"BE_EWAL12B.001",
			"pbrMetallicRoughness":{
				"baseColorFactor":[
					0.800000011920929,
					0.800000011920929,
					0.800000011920929,
					1
				],
				"metallicFactor":0,
				"roughnessFactor":0.5
			}
		},
		{
			"doubleSided":true,
			"name":"BE_IPIPE01B.002",
			"pbrMetallicRoughness":{
				"baseColorFactor":[
					0.800000011920929,
					0.800000011920929,
					0.800000011920929,
					1
				],
				"metallicFactor":0,
				"roughnessFactor":0.5
			}
		},
		{
			"doubleSided":true,
			"name":"BE_EWAL03A.002",
			"pbrMetallicRoughness":{
				"baseColorFactor":[
					0.800000011920929,
					0.800000011920929,
					0.800000011920929,
					1
				],
				"metallicFactor":0,
				"roughnessFactor":0.5
			}
		},
		{
			"doubleSided":true,
			"name":"BE_EPIPE01.002",
			"pbrMetallicRoughness":{
				"baseColorFactor":[
					0.800000011920929,
					0.800000011920929,
					0.800000011920929,
					1
				],
				"metallicFactor":0,
				"roughnessFactor":0.5
			}
		},
		{
			"doubleSided":true,
			"name":"BE_EWAL12B.002",
			"pbrMetallicRoughness":{
				"baseColorFactor":[
					0.800000011920929,
					0.800000011920929,
					0.800000011920929,
					1
				],
				"metallicFactor":0,
				"roughnessFactor":0.5
			}
		}
	],
	"meshes":[
		{
			"name":"Mesh",
			"primitives":[
				{
					"attributes":{
						"POSITION":0,
						"NORMAL":1,
						"TEXCOORD_0":2
					},
					"indices":3,
					"material":0
				},
				{
					"attributes":{
						"POSITION":4,
						"NORMAL":5,
						"TEXCOORD_0":6
					},
					"indices":7,
					"material":1
				},
				{
					"attributes":{
						"POSITION":8,
						"NORMAL":9,
						"TEXCOORD_0":10
					},
					"indices":11,
					"material":2
				},
				{
					"attributes":{
						"POSITION":12,
						"NORMAL":13,
						"TEXCOORD_0":14
					},
					"indices":15,
					"material":3
				}
			]
		},
		{
			"name":"Mesh.001",
			"primitives":[
				{
					"attributes":{
						"POSITION":16,
						"NORMAL":17,
						"TEXCOORD_0":18
					},
					"indices":19,
					"material":4
				},
				{
					"attributes":{
						"POSITION":20,
						"NORMAL":21,
						"TEXCOORD_0":22
					},
					"indices":23,
					"material":5
				},
				{
					"attributes":{
						"POSITION":24,
						"NORMAL":25,
						"TEXCOORD_0":26
					},
					"indices":27,
					"material":6
				},
				{
					"attributes":{
						"POSITION":28,
						"NORMAL":29,
						"TEXCOORD_0":30
					},
					"indices":31,
					"material":7
				}
			]
		},
		{
			"name":"Mesh.002",
			"primitives":[
				{
					"attributes":{
						"POSITION":32,
						"NORMAL":33,
						"TEXCOORD_0":34
					},
					"indices":19,
					"material":8
				},
				{
					"attributes":{
						"POSITION":35,
						"NORMAL":36,
						"TEXCOORD_0":37
					},
					"indices":38,
					"material":9
				},
				{
					"attributes":{
						"POSITION":39,
						"NORMAL":40,
						"TEXCOORD_0":41
					},
					"indices":27,
					"material":10
				},
				{
					"attributes":{
						"POSITION":42,
						"NORMAL":43,
						"TEXCOORD_0":44
					},
					"indices":45,
					"material":11
				}
			]
		}
	],
	"accessors":[
		{
			"bufferView":0,
			"componentType":5126,
			"count":40,
			"max":[
				10,
				-2,
				5
			],
			"min":[
				-10,
				-15,
				-5
			],
			"type":"VEC3"
		},
		{
			"bufferView":1,
			"componentType":5126,
			"count":40,
			"type":"VEC3"
		},
		{
			"bufferView":2,
			"componentType":5126,
			"count":40,
			"type":"VEC2"
		},
		{
			"bufferView":3,
			"componentType":5123,
			"count":72,
			"type":"SCALAR"
		},
		{
			"bufferView":4,
			"componentType":5126,
			"count":16,
			"max":[
				10,
				1,
				5
			],
			"min":[
				-10,
				-15,
				-5
			],
			"type":"VEC3"
		},
		{
			"bufferView":5,
			"componentType":5126,
			"count":16,
			"type":"VEC3"
		},
		{
			"bufferView":6,
			"componentType":5126,
			"count":16,
			"type":"VEC2"
		},
		{
			"bufferView":7,
			"componentType":5123,
			"count":24,
			"type":"SCALAR"
		},
		{
			"bufferView":8,
			"componentType":5126,
			"count":32,
			"max":[
				1.34375,
				-2,
				5
			],
			"min":[
				-1.34375,
				-3,
				-5
			],
			"type":"VEC3"
		},
		{
			"bufferView":9,
			"componentType":5126,
			"count":32,
			"type":"VEC3"
		},
		{
			"bufferView":10,
			"componentType":5126,
			"count":32,
			"type":"VEC2"
		},
		{
			"bufferView":11,
			"componentType":5123,
			"count":48,
			"type":"SCALAR"
		},
		{
			"bufferView":12,
			"componentType":5126,
			"count":60,
			"max":[
				10,
				1,
				5
			],
			"min":[
				-10,
				-3,
				-5
			],
			"type":"VEC3"
		},
		{
			"bufferView":13,
			"componentType":5126,
			"count":60,
			"type":"VEC3"
		},
		{
			"bufferView":14,
			"componentType":5126,
			"count":60,
			"type":"VEC2"
		},
		{
			"bufferView":15,
			"componentType":5123,
			"count":108,
			"type":"SCALAR"
		},
		{
			"bufferView":16,
			"componentType":5126,
			"count":20,
			"max":[
				10,
				-2,
				4
			],
			"min":[
				-10,
				-15,
				-4
			],
			"type":"VEC3"
		},
		{
			"bufferView":17,
			"componentType":5126,
			"count":20,
			"type":"VEC3"
		},
		{
			"bufferView":18,
			"componentType":5126,
			"count":20,
			"type":"VEC2"
		},
		{
			"bufferView":19,
			"componentType":5123,
			"count":36,
			"type":"SCALAR"
		},
		{
			"bufferView":20,
			"componentType":5126,
			"count":16,
			"max":[
				10,
				1,
				5
			],
			"min":[
				-10,
				-15,
				-5
			],
			"type":"VEC3"
		},
		{
			"bufferView":21,
			"componentType":5126,
			"count":16,
			"type":"VEC3"
		},
		{
			"bufferView":22,
			"componentType":5126,
			"count":16,
			"type":"VEC2"
		},
		{
			"bufferView":23,
			"componentType":5123,
			"count":24,
			"type":"SCALAR"
		},
		{
			"bufferView":24,
			"componentType":5126,
			"count":8,
			"max":[
				10,
				-2,
				5
			],
			"min":[
				-10,
				-3,
				-5
			],
			"type":"VEC3"
		},
		{
			"bufferView":25,
			"componentType":5126,
			"count":8,
			"type":"VEC3"
		},
		{
			"bufferView":26,
			"componentType":5126,
			"count":8,
			"type":"VEC2"
		},
		{
			"bufferView":27,
			"componentType":5123,
			"count":12,
			"type":"SCALAR"
		},
		{
			"bufferView":28,
			"componentType":5126,
			"count":44,
			"max":[
				10,
				1,
				5
			],
			"min":[
				-10,
				-3,
				-5
			],
			"type":"VEC3"
		},
		{
			"bufferView":29,
			"componentType":5126,
			"count":44,
			"type":"VEC3"
		},
		{
			"bufferView":30,
			"componentType":5126,
			"count":44,
			"type":"VEC2"
		},
		{
			"bufferView":31,
			"componentType":5123,
			"count":84,
			"type":"SCALAR"
		},
		{
			"bufferView":32,
			"componentType":5126,
			"count":20,
			"max":[
				10,
				0,
				4
			],
			"min":[
				-10,
				-15,
				-4
			],
			"type":"VEC3"
		},
		{
			"bufferView":33,
			"componentType":5126,
			"count":20,
			"type":"VEC3"
		},
		{
			"bufferView":34,
			"componentType":5126,
			"count":20,
			"type":"VEC2"
		},
		{
			"bufferView":35,
			"componentType":5126,
			"count":16,
			"max":[
				10,
				1,
				5
			],
			"min":[
				-10,
				-15,
				-5
			],
			"type":"VEC3"
		},
		{
			"bufferView":36,
			"componentType":5126,
			"count":16,
			"type":"VEC3"
		},
		{
			"bufferView":37,
			"componentType":5126,
			"count":16,
			"type":"VEC2"
		},
		{
			"bufferView":38,
			"componentType":5123,
			"count":24,
			"type":"SCALAR"
		},
		{
			"bufferView":39,
			"componentType":5126,
			"count":8,
			"max":[
				10,
				-2,
				5
			],
			"min":[
				-10,
				-3,
				-5
			],
			"type":"VEC3"
		},
		{
			"bufferView":40,
			"componentType":5126,
			"count":8,
			"type":"VEC3"
		},
		{
			"bufferView":41,
			"componentType":5126,
			"count":8,
			"type":"VEC2"
		},
		{
			"bufferView":42,
			"componentType":5126,
			"count":36,
			"max":[
				10,
				1,
				5
			],
			"min":[
				-10,
				-3,
				-5
			],
			"type":"VEC3"
		},
		{
			"bufferView":43,
			"componentType":5126,
			"count":36,
			"type":"VEC3"
		},
		{
			"bufferView":44,
			"componentType":5126,
			"count":36,
			"type":"VEC2"
		},
		{
			"bufferView":45,
			"componentType":5123,
			"count":60,
			"type":"SCALAR"
		}
	],
	"bufferViews":[
		{
			"buffer":0,
			"byteLength":480,
			"byteOffset":0,
			"target":34962
		},
		{
			"buffer":0,
			"byteLength":480,
			"byteOffset":480,
			"target":34962
		},
		{
			"buffer":0,
			"byteLength":320,
			"byteOffset":960,
			"target":34962
		},
		{
			"buffer":0,
			"byteLength":144,
			"byteOffset":1280,
			"target":34963
		},
		{
			"buffer":0,
			"byteLength":192,
			"byteOffset":1424,
			"target":34962
		},
		{
			"buffer":0,
			"byteLength":192,
			"byteOffset":1616,
			"target":34962
		},
		{
			"buffer":0,
			"byteLength":128,
			"byteOffset":1808,
			"target":34962
		},
		{
			"buffer":0,
			"byteLength":48,
			"byteOffset":1936,
			"target":34963
		},
		{
			"buffer":0,
			"byteLength":384,
			"byteOffset":1984,
			"target":34962
		},
		{
			"buffer":0,
			"byteLength":384,
			"byteOffset":2368,
			"target":34962
		},
		{
			"buffer":0,
			"byteLength":256,
			"byteOffset":2752,
			"target":34962
		},
		{
			"buffer":0,
			"byteLength":96,
			"byteOffset":3008,
			"target":34963
		},
		{
			"buffer":0,
			"byteLength":720,
			"byteOffset":3104,
			"target":34962
		},
		{
			"buffer":0,
			"byteLength":720,
			"byteOffset":3824,
			"target":34962
		},
		{
			"buffer":0,
			"byteLength":480,
			"byteOffset":4544,
			"target":34962
		},
		{
			"buffer":0,
			"byteLength":216,
			"byteOffset":5024,
			"target":34963
		},
		{
			"buffer":0,
			"byteLength":240,
			"byteOffset":5240,
			"target":34962
		},
		{
			"buffer":0,
			"byteLength":240,
			"byteOffset":5480,
			"target":34962
		},
		{
			"buffer":0,
			"byteLength":160,
			"byteOffset":5720,
			"target":34962
		},
		{
			"buffer":0,
			"byteLength":72,
			"byteOffset":5880,
			"target":34963
		},
		{
			"buffer":0,
			"byteLength":192,
			"byteOffset":5952,
			"target":34962
		},
		{
			"buffer":0,
			"byteLength":192,
			"byteOffset":6144,
			"target":34962
		},
		{
			"buffer":0,
			"byteLength":128,
			"byteOffset":6336,
			"target":34962
		},
		{
			"buffer":0,
			"byteLength":48,
			"byteOffset":6464,
			"target":34963
		},
		{
			"buffer":0,
			"byteLength":96,
			"byteOffset":6512,
			"target":34962
		},
		{
			"buffer":0,
			"byteLength":96,
			"byteOffset":6608,
			"target":34962
		},
		{
			"buffer":0,
			"byteLength":64,
			"byteOffset":6704,
			"target":34962
		},
		{
			"buffer":0,
			"byteLength":24,
			"byteOffset":6768,
			"target":34963
		},
		{
			"buffer":0,
			"byteLength":528,
			"byteOffset":6792,
			"target":34962
		},
		{
			"buffer":0,
			"byteLength":528,
			"byteOffset":7320,
			"target":34962
		},
		{
			"buffer":0,
			"byteLength":352,
			"byteOffset":7848,
			"target":34962
		},
		{
			"buffer":0,
			"byteLength":168,
			"byteOffset":8200,
			"target":34963
		},
		{
			"buffer":0,
			"byteLength":240,
			"byteOffset":8368,
			"target":34962
		},
		{
			"buffer":0,
			"byteLength":240,
			"byteOffset":8608,
			"target":34962
		},
		{
			"buffer":0,
			"byteLength":160,
			"byteOffset":8848,
			"target":34962
		},
		{
			"buffer":0,
			"byteLength":192,
			"byteOffset":9008,
			"target":34962
		},
		{
			"buffer":0,
			"byteLength":192,
			"byteOffset":9200,
			"target":34962
		},
		{
			"buffer":0,
			"byteLength":128,
			"byteOffset":9392,
			"target":34962
		},
		{
			"buffer":0,
			"byteLength":48,
			"byteOffset":9520,
			"target":34963
		},
		{
			"buffer":0,
			"byteLength":96,
			"byteOffset":9568,
			"target":34962
		},
		{
			"buffer":0,
			"byteLength":96,
			"byteOffset":9664,
			"target":34962
		},
		{
			"buffer":0,
			"byteLength":64,
			"byteOffset":9760,
			"target":34962
		},
		{
			"buffer":0,
			"byteLength":432,
			"byteOffset":9824,
			"target":34962
		},
		{
			"buffer":0,
			"byteLength":432,
			"byteOffset":10256,
			"target":34962
		},
		{
			"buffer":0,
			"byteLength":288,
			"byteOffset":10688,
			"target":34962
		},
		{
			"buffer":0,
			"byteLength":120,
			"byteOffset":10976,
			"target":34963
		}
	],
	"buffers":[
		{
			"byteLength":11096,
			"uri":"bbrdg7.bin"
		}
	]
}
