{
	"asset":{
		"generator":"Khronos glTF Blender I/O v4.5.48",
		"version":"2.0"
	},
	"scene":0,
	"scenes":[
		{
			"name":"Scene",
			"nodes":[
				0,
				1
			]
		}
	],
	"nodes":[
		{
			"mesh":0,
			"name":"Object"
		},
		{
			"mesh":1,
			"name":"Object.001"
		}
	],
	"materials":[
		{
			"doubleSided":true,
			"name":"BE_EFLO02",
			"pbrMetallicRoughness":{
				"baseColorFactor":[
					0.800000011920929,
					0.800000011920929,
					0.800000011920929,
					1
				],
				"metallicFactor":0,
				"roughnessFactor":0.5
			}
		},
		{
			"doubleSided":true,
			"name":"BE_ESPEC06A",
			"pbrMetallicRoughness":{
				"baseColorFactor":[
					0.800000011920929,
					0.800000011920929,
					0.800000011920929,
					1
				],
				"metallicFactor":0,
				"roughnessFactor":0.5
			}
		},
		{
			"doubleSided":true,
			"name":"BE_IGENERICDARK",
			"pbrMetallicRoughness":{
				"baseColorFactor":[
					0.800000011920929,
					0.800000011920929,
					0.800000011920929,
					1
				],
				"metallicFactor":0,
				"roughnessFactor":0.5
			}
		},
		{
			"doubleSided":true,
			"name":"BE_ELIG03",
			"pbrMetallicRoughness":{
				"baseColorFactor":[
					0.800000011920929,
					0.800000011920929,
					0.800000011920929,
					1
				],
				"metallicFactor":0,
				"roughnessFactor":0.5
			}
		},
		{
			"doubleSided":true,
			"name":"BE_EBOR03",
			"pbrMetallicRoughness":{
				"baseColorFactor":[
					0.800000011920929,
					0.800000011920929,
					0.800000011920929,
					1
				],
				"metallicFactor":0,
				"roughnessFactor":0.5
			}
		},
		{
			"doubleSided":true,
			"name":"BE_ICEI03B",
			"pbrMetallicRoughness":{
				"baseColorFactor":[
					0.800000011920929,
					0.800000011920929,
					0.800000011920929,
					1
				],
				"metallicFactor":0,
				"roughnessFactor":0.5
			}
		},
		{
			"doubleSided":true,
			"name":"BE_ELIG02",
			"pbrMetallicRoughness":{
				"baseColorFactor":[
					0.800000011920929,
					0.800000011920929,
					0.800000011920929,
					1
				],
				"metallicFactor":0,
				"roughnessFactor":0.5
			}
		},
		{
			"doubleSided":true,
			"name":"BE_ESPEC03B",
			"pbrMetallicRoughness":{
				"baseColorFactor":[
					0.800000011920929,
					0.800000011920929,
					0.800000011920929,
					1
				],
				"metallicFactor":0,
				"roughnessFactor":0.5
			}
		},
		{
			"doubleSided":true,
			"name":"BE_EFLO02.001",
			"pbrMetallicRoughness":{
				"baseColorFactor":[
					0.800000011920929,
					0.800000011920929,
					0.800000011920929,
					1
				],
				"metallicFactor":0,
				"roughnessFactor":0.5
			}
		},
		{
			"doubleSided":true,
			"name":"BE_ESPEC06A.001",
			"pbrMetallicRoughness":{
				"baseColorFactor":[
					0.800000011920929,
					0.800000011920929,
					0.800000011920929,
					1
				],
				"metallicFactor":0,
				"roughnessFactor":0.5
			}
		},
		{
			"doubleSided":true,
			"name":"BE_IGENERICDARK.001",
			"pbrMetallicRoughness":{
				"baseColorFactor":[
					0.800000011920929,
					0.800000011920929,
					0.800000011920929,
					1
				],
				"metallicFactor":0,
				"roughnessFactor":0.5
			}
		},
		{
			"doubleSided":true,
			"name":"BE_ELIG03.001",
			"pbrMetallicRoughness":{
				"baseColorFactor":[
					0.800000011920929,
					0.800000011920929,
					0.800000011920929,
					1
				],
				"metallicFactor":0,
				"roughnessFactor":0.5
			}
		},
		{
			"doubleSided":true,
			"name":"BE_EBOR03.001",
			"pbrMetallicRoughness":{
				"baseColorFactor":[
					0.800000011920929,
					0.800000011920929,
					0.800000011920929,
					1
				],
				"metallicFactor":0,
				"roughnessFactor":0.5
			}
		},
		{
			"doubleSided":true,
			"name":"BE_ELIG02.001",
			"pbrMetallicRoughness":{
				"baseColorFactor":[
					0.800000011920929,
					0.800000011920929,
					0.800000011920929,
					1
				],
				"metallicFactor":0,
				"roughnessFactor":0.5
			}
		},
		{
			"doubleSided":true,
			"name":"BE_ESPEC03B.001",
			"pbrMetallicRoughness":{
				"baseColorFactor":[
					0.800000011920929,
					0.800000011920929,
					0.800000011920929,
					1
				],
				"metallicFactor":0,
				"roughnessFactor":0.5
			}
		}
	],
	"meshes":[
		{
			"name":"Mesh",
			"primitives":[
				{
					"attributes":{
						"POSITION":0,
						"NORMAL":1,
						"TEXCOORD_0":2
					},
					"indices":3,
					"material":0
				},
				{
					"attributes":{
						"POSITION":4,
						"NORMAL":5,
						"TEXCOORD_0":6
					},
					"indices":7,
					"material":1
				},
				{
					"attributes":{
						"POSITION":8,
						"NORMAL":9,
						"TEXCOORD_0":10
					},
					"indices":11,
					"material":2
				},
				{
					"attributes":{
						"POSITION":12,
						"NORMAL":13,
						"TEXCOORD_0":14
					},
					"indices":15,
					"material":3
				},
				{
					"attributes":{
						"POSITION":16,
						"NORMAL":17,
						"TEXCOORD_0":18
					},
					"indices":19,
					"material":4
				},
				{
					"attributes":{
						"POSITION":20,
						"NORMAL":21,
						"TEXCOORD_0":22
					},
					"indices":23,
					"material":5
				},
				{
					"attributes":{
						"POSITION":24,
						"NORMAL":25,
						"TEXCOORD_0":26
					},
					"indices":27,
					"material":6
				},
				{
					"attributes":{
						"POSITION":28,
						"NORMAL":29,
						"TEXCOORD_0":30
					},
					"indices":31,
					"material":7
				}
			]
		},
		{
			"name":"Mesh.001",
			"primitives":[
				{
					"attributes":{
						"POSITION":32,
						"NORMAL":33,
						"TEXCOORD_0":34
					},
					"indices":35,
					"material":8
				},
				{
					"attributes":{
						"POSITION":36,
						"NORMAL":37,
						"TEXCOORD_0":38
					},
					"indices":39,
					"material":9
				},
				{
					"attributes":{
						"POSITION":40,
						"NORMAL":41,
						"TEXCOORD_0":42
					},
					"indices":11,
					"material":10
				},
				{
					"attributes":{
						"POSITION":43,
						"NORMAL":44,
						"TEXCOORD_0":45
					},
					"indices":46,
					"material":11
				},
				{
					"attributes":{
						"POSITION":47,
						"NORMAL":48,
						"TEXCOORD_0":49
					},
					"indices":50,
					"material":12
				},
				{
					"attributes":{
						"POSITION":51,
						"NORMAL":52,
						"TEXCOORD_0":53
					},
					"indices":27,
					"material":13
				},
				{
					"attributes":{
						"POSITION":54,
						"NORMAL":55,
						"TEXCOORD_0":56
					},
					"indices":57,
					"material":14
				}
			]
		}
	],
	"accessors":[
		{
			"bufferView":0,
			"componentType":5126,
			"count":80,
			"max":[
				6.5,
				3,
				4.09375
			],
			"min":[
				-6.5,
				-3,
				-3.15625
			],
			"type":"VEC3"
		},
		{
			"bufferView":1,
			"componentType":5126,
			"count":80,
			"type":"VEC3"
		},
		{
			"bufferView":2,
			"componentType":5126,
			"count":80,
			"type":"VEC2"
		},
		{
			"bufferView":3,
			"componentType":5123,
			"count":150,
			"type":"SCALAR"
		},
		{
			"bufferView":4,
			"componentType":5126,
			"count":116,
			"max":[
				6.5,
				3,
				4.09375
			],
			"min":[
				-6.5,
				-5,
				-3.15625
			],
			"type":"VEC3"
		},
		{
			"bufferView":5,
			"componentType":5126,
			"count":116,
			"type":"VEC3"
		},
		{
			"bufferView":6,
			"componentType":5126,
			"count":116,
			"type":"VEC2"
		},
		{
			"bufferView":7,
			"componentType":5123,
			"count":198,
			"type":"SCALAR"
		},
		{
			"bufferView":8,
			"componentType":5126,
			"count":8,
			"max":[
				6.75,
				1.6875,
				4.09375
			],
			"min":[
				-6.75,
				-2.28125,
				-3.15625
			],
			"type":"VEC3"
		},
		{
			"bufferView":9,
			"componentType":5126,
			"count":8,
			"type":"VEC3"
		},
		{
			"bufferView":10,
			"componentType":5126,
			"count":8,
			"type":"VEC2"
		},
		{
			"bufferView":11,
			"componentType":5123,
			"count":12,
			"type":"SCALAR"
		},
		{
			"bufferView":12,
			"componentType":5126,
			"count":40,
			"max":[
				6,
				2,
				3.1875
			],
			"min":[
				-6,
				-3,
				-3.15625
			],
			"type":"VEC3"
		},
		{
			"bufferView":13,
			"componentType":5126,
			"count":40,
			"type":"VEC3"
		},
		{
			"bufferView":14,
			"componentType":5126,
			"count":40,
			"type":"VEC2"
		},
		{
			"bufferView":15,
			"componentType":5123,
			"count":72,
			"type":"SCALAR"
		},
		{
			"bufferView":16,
			"componentType":5126,
			"count":62,
			"max":[
				6.75,
				2.5,
				4.09375
			],
			"min":[
				-6.75,
				-2.28125,
				-3.15625
			],
			"type":"VEC3"
		},
		{
			"bufferView":17,
			"componentType":5126,
			"count":62,
			"type":"VEC3"
		},
		{
			"bufferView":18,
			"componentType":5126,
			"count":62,
			"type":"VEC2"
		},
		{
			"bufferView":19,
			"componentType":5123,
			"count":114,
			"type":"SCALAR"
		},
		{
			"bufferView":20,
			"componentType":5126,
			"count":34,
			"max":[
				5.5,
				2.5,
				4.09375
			],
			"min":[
				-5.5,
				-1.5,
				-3.15625
			],
			"type":"VEC3"
		},
		{
			"bufferView":21,
			"componentType":5126,
			"count":34,
			"type":"VEC3"
		},
		{
			"bufferView":22,
			"componentType":5126,
			"count":34,
			"type":"VEC2"
		},
		{
			"bufferView":23,
			"componentType":5123,
			"count":48,
			"type":"SCALAR"
		},
		{
			"bufferView":24,
			"componentType":5126,
			"count":8,
			"max":[
				6.75,
				2.21875,
				4.09375
			],
			"min":[
				-6.75,
				-2.28125,
				-3.15625
			],
			"type":"VEC3"
		},
		{
			"bufferView":25,
			"componentType":5126,
			"count":8,
			"type":"VEC3"
		},
		{
			"bufferView":26,
			"componentType":5126,
			"count":8,
			"type":"VEC2"
		},
		{
			"bufferView":27,
			"componentType":5123,
			"count":12,
			"type":"SCALAR"
		},
		{
			"bufferView":28,
			"componentType":5126,
			"count":30,
			"max":[
				3.3114755153656006,
				1,
				4.09375
			],
			"min":[
				-3.25,
				-5,
				-3.15625
			],
			"type":"VEC3"
		},
		{
			"bufferView":29,
			"componentType":5126,
			"count":30,
			"type":"VEC3"
		},
		{
			"bufferView":30,
			"componentType":5126,
			"count":30,
			"type":"VEC2"
		},
		{
			"bufferView":31,
			"componentType":5123,
			"count":66,
			"type":"SCALAR"
		},
		{
			"bufferView":32,
			"componentType":5126,
			"count":116,
			"max":[
				6.5,
				3,
				4.09375
			],
			"min":[
				-6.5,
				-3,
				-3.15625
			],
			"type":"VEC3"
		},
		{
			"bufferView":33,
			"componentType":5126,
			"count":116,
			"type":"VEC3"
		},
		{
			"bufferView":34,
			"componentType":5126,
			"count":116,
			"type":"VEC2"
		},
		{
			"bufferView":35,
			"componentType":5123,
			"count":258,
			"type":"SCALAR"
		},
		{
			"bufferView":36,
			"componentType":5126,
			"count":128,
			"max":[
				6.5,
				3,
				4.09375
			],
			"min":[
				-6.5,
				-5,
				-3.15625
			],
			"type":"VEC3"
		},
		{
			"bufferView":37,
			"componentType":5126,
			"count":128,
			"type":"VEC3"
		},
		{
			"bufferView":38,
			"componentType":5126,
			"count":128,
			"type":"VEC2"
		},
		{
			"bufferView":39,
			"componentType":5123,
			"count":234,
			"type":"SCALAR"
		},
		{
			"bufferView":40,
			"componentType":5126,
			"count":8,
			"max":[
				6.75,
				1.6875,
				4.09375
			],
			"min":[
				-6.75,
				-2.28125,
				-3.15625
			],
			"type":"VEC3"
		},
		{
			"bufferView":41,
			"componentType":5126,
			"count":8,
			"type":"VEC3"
		},
		{
			"bufferView":42,
			"componentType":5126,
			"count":8,
			"type":"VEC2"
		},
		{
			"bufferView":43,
			"componentType":5126,
			"count":34,
			"max":[
				6,
				2,
				3.1875
			],
			"min":[
				-6,
				-3,
				-3.15625
			],
			"type":"VEC3"
		},
		{
			"bufferView":44,
			"componentType":5126,
			"count":34,
			"type":"VEC3"
		},
		{
			"bufferView":45,
			"componentType":5126,
			"count":34,
			"type":"VEC2"
		},
		{
			"bufferView":46,
			"componentType":5123,
			"count":54,
			"type":"SCALAR"
		},
		{
			"bufferView":47,
			"componentType":5126,
			"count":24,
			"max":[
				6.75,
				2.21875,
				4.09375
			],
			"min":[
				-6.75,
				-2.28125,
				-3.15625
			],
			"type":"VEC3"
		},
		{
			"bufferView":48,
			"componentType":5126,
			"count":24,
			"type":"VEC3"
		},
		{
			"bufferView":49,
			"componentType":5126,
			"count":24,
			"type":"VEC2"
		},
		{
			"bufferView":50,
			"componentType":5123,
			"count":36,
			"type":"SCALAR"
		},
		{
			"bufferView":51,
			"componentType":5126,
			"count":8,
			"max":[
				6.75,
				2.21875,
				4.09375
			],
			"min":[
				-6.75,
				-2.28125,
				-3.15625
			],
			"type":"VEC3"
		},
		{
			"bufferView":52,
			"componentType":5126,
			"count":8,
			"type":"VEC3"
		},
		{
			"bufferView":53,
			"componentType":5126,
			"count":8,
			"type":"VEC2"
		},
		{
			"bufferView":54,
			"componentType":5126,
			"count":30,
			"max":[
				3.3114755153656006,
				1,
				4.09375
			],
			"min":[
				-3.25,
				-5,
				-3.15625
			],
			"type":"VEC3"
		},
		{
			"bufferView":55,
			"componentType":5126,
			"count":30,
			"type":"VEC3"
		},
		{
			"bufferView":56,
			"componentType":5126,
			"count":30,
			"type":"VEC2"
		},
		{
			"bufferView":57,
			"componentType":5123,
			"count":66,
			"type":"SCALAR"
		}
	],
	"bufferViews":[
		{
			"buffer":0,
			"byteLength":960,
			"byteOffset":0,
			"target":34962
		},
		{
			"buffer":0,
			"byteLength":960,
			"byteOffset":960,
			"target":34962
		},
		{
			"buffer":0,
			"byteLength":640,
			"byteOffset":1920,
			"target":34962
		},
		{
			"buffer":0,
			"byteLength":300,
			"byteOffset":2560,
			"target":34963
		},
		{
			"buffer":0,
			"byteLength":1392,
			"byteOffset":2860,
			"target":34962
		},
		{
			"buffer":0,
			"byteLength":1392,
			"byteOffset":4252,
			"target":34962
		},
		{
			"buffer":0,
			"byteLength":928,
			"byteOffset":5644,
			"target":34962
		},
		{
			"buffer":0,
			"byteLength":396,
			"byteOffset":6572,
			"target":34963
		},
		{
			"buffer":0,
			"byteLength":96,
			"byteOffset":6968,
			"target":34962
		},
		{
			"buffer":0,
			"byteLength":96,
			"byteOffset":7064,
			"target":34962
		},
		{
			"buffer":0,
			"byteLength":64,
			"byteOffset":7160,
			"target":34962
		},
		{
			"buffer":0,
			"byteLength":24,
			"byteOffset":7224,
			"target":34963
		},
		{
			"buffer":0,
			"byteLength":480,
			"byteOffset":7248,
			"target":34962
		},
		{
			"buffer":0,
			"byteLength":480,
			"byteOffset":7728,
			"target":34962
		},
		{
			"buffer":0,
			"byteLength":320,
			"byteOffset":8208,
			"target":34962
		},
		{
			"buffer":0,
			"byteLength":144,
			"byteOffset":8528,
			"target":34963
		},
		{
			"buffer":0,
			"byteLength":744,
			"byteOffset":8672,
			"target":34962
		},
		{
			"buffer":0,
			"byteLength":744,
			"byteOffset":9416,
			"target":34962
		},
		{
			"buffer":0,
			"byteLength":496,
			"byteOffset":10160,
			"target":34962
		},
		{
			"buffer":0,
			"byteLength":228,
			"byteOffset":10656,
			"target":34963
		},
		{
			"buffer":0,
			"byteLength":408,
			"byteOffset":10884,
			"target":34962
		},
		{
			"buffer":0,
			"byteLength":408,
			"byteOffset":11292,
			"target":34962
		},
		{
			"buffer":0,
			"byteLength":272,
			"byteOffset":11700,
			"target":34962
		},
		{
			"buffer":0,
			"byteLength":96,
			"byteOffset":11972,
			"target":34963
		},
		{
			"buffer":0,
			"byteLength":96,
			"byteOffset":12068,
			"target":34962
		},
		{
			"buffer":0,
			"byteLength":96,
			"byteOffset":12164,
			"target":34962
		},
		{
			"buffer":0,
			"byteLength":64,
			"byteOffset":12260,
			"target":34962
		},
		{
			"buffer":0,
			"byteLength":24,
			"byteOffset":12324,
			"target":34963
		},
		{
			"buffer":0,
			"byteLength":360,
			"byteOffset":12348,
			"target":34962
		},
		{
			"buffer":0,
			"byteLength":360,
			"byteOffset":12708,
			"target":34962
		},
		{
			"buffer":0,
			"byteLength":240,
			"byteOffset":13068,
			"target":34962
		},
		{
			"buffer":0,
			"byteLength":132,
			"byteOffset":13308,
			"target":34963
		},
		{
			"buffer":0,
			"byteLength":1392,
			"byteOffset":13440,
			"target":34962
		},
		{
			"buffer":0,
			"byteLength":1392,
			"byteOffset":14832,
			"target":34962
		},
		{
			"buffer":0,
			"byteLength":928,
			"byteOffset":16224,
			"target":34962
		},
		{
			"buffer":0,
			"byteLength":516,
			"byteOffset":17152,
			"target":34963
		},
		{
			"buffer":0,
			"byteLength":1536,
			"byteOffset":17668,
			"target":34962
		},
		{
			"buffer":0,
			"byteLength":1536,
			"byteOffset":19204,
			"target":34962
		},
		{
			"buffer":0,
			"byteLength":1024,
			"byteOffset":20740,
			"target":34962
		},
		{
			"buffer":0,
			"byteLength":468,
			"byteOffset":21764,
			"target":34963
		},
		{
			"buffer":0,
			"byteLength":96,
			"byteOffset":22232,
			"target":34962
		},
		{
			"buffer":0,
			"byteLength":96,
			"byteOffset":22328,
			"target":34962
		},
		{
			"buffer":0,
			"byteLength":64,
			"byteOffset":22424,
			"target":34962
		},
		{
			"buffer":0,
			"byteLength":408,
			"byteOffset":22488,
			"target":34962
		},
		{
			"buffer":0,
			"byteLength":408,
			"byteOffset":22896,
			"target":34962
		},
		{
			"buffer":0,
			"byteLength":272,
			"byteOffset":23304,
			"target":34962
		},
		{
			"buffer":0,
			"byteLength":108,
			"byteOffset":23576,
			"target":34963
		},
		{
			"buffer":0,
			"byteLength":288,
			"byteOffset":23684,
			"target":34962
		},
		{
			"buffer":0,
			"byteLength":288,
			"byteOffset":23972,
			"target":34962
		},
		{
			"buffer":0,
			"byteLength":192,
			"byteOffset":24260,
			"target":34962
		},
		{
			"buffer":0,
			"byteLength":72,
			"byteOffset":24452,
			"target":34963
		},
		{
			"buffer":0,
			"byteLength":96,
			"byteOffset":24524,
			"target":34962
		},
		{
			"buffer":0,
			"byteLength":96,
			"byteOffset":24620,
			"target":34962
		},
		{
			"buffer":0,
			"byteLength":64,
			"byteOffset":24716,
			"target":34962
		},
		{
			"buffer":0,
			"byteLength":360,
			"byteOffset":24780,
			"target":34962
		},
		{
			"buffer":0,
			"byteLength":360,
			"byteOffset":25140,
			"target":34962
		},
		{
			"buffer":0,
			"byteLength":240,
			"byteOffset":25500,
			"target":34962
		},
		{
			"buffer":0,
			"byteLength":132,
			"byteOffset":25740,
			"target":34963
		}
	],
	"buffers":[
		{
			"byteLength":25872,
			"uri":"bbrdg5.bin"
		}
	]
}
