{
	"asset":{
		"generator":"Khronos glTF Blender I/O v4.5.48",
		"version":"2.0"
	},
	"scene":0,
	"scenes":[
		{
			"name":"Scene",
			"nodes":[
				0,
				1,
				2
			]
		}
	],
	"nodes":[
		{
			"mesh":0,
			"name":"Object"
		},
		{
			"mesh":1,
			"name":"Object.001"
		},
		{
			"mesh":2,
			"name":"Object.002"
		}
	],
	"materials":[
		{
			"doubleSided":true,
			"name":"BE_IPIPE01B",
			"pbrMetallicRoughness":{
				"baseColorFactor":[
					0.800000011920929,
					0.800000011920929,
					0.800000011920929,
					1
				],
				"metallicFactor":0,
				"roughnessFactor":0.5
			}
		},
		{
			"doubleSided":true,
			"name":"BE_EWAL03A",
			"pbrMetallicRoughness":{
				"baseColorFactor":[
					0.800000011920929,
					0.800000011920929,
					0.800000011920929,
					1
				],
				"metallicFactor":0,
				"roughnessFactor":0.5
			}
		},
		{
			"doubleSided":true,
			"name":"BE_EPIPE01",
			"pbrMetallicRoughness":{
				"baseColorFactor":[
					0.800000011920929,
					0.800000011920929,
					0.800000011920929,
					1
				],
				"metallicFactor":0,
				"roughnessFactor":0.5
			}
		},
		{
			"doubleSided":true,
			"name":"BE_EWAL12B",
			"pbrMetallicRoughness":{
				"baseColorFactor":[
					0.800000011920929,
					0.800000011920929,
					0.800000011920929,
					1
				],
				"metallicFactor":0,
				"roughnessFactor":0.5
			}
		},
		{
			"doubleSided":true,
			"name":"BE_IPIPE01B.001",
			"pbrMetallicRoughness":{
				"baseColorFactor":[
					0.800000011920929,
					0.800000011920929,
					0.800000011920929,
					1
				],
				"metallicFactor":0,
				"roughnessFactor":0.5
			}
		},
		{
			"doubleSided":true,
			"name":"BE_EWAL03A.001",
			"pbrMetallicRoughness":{
				"baseColorFactor":[
					0.800000011920929,
					0.800000011920929,
					0.800000011920929,
					1
				],
				"metallicFactor":0,
				"roughnessFactor":0.5
			}
		},
		{
			"doubleSided":true,
			"name":"BE_EPIPE01.001",
			"pbrMetallicRoughness":{
				"baseColorFactor":[
					0.800000011920929,
					0.800000011920929,
					0.800000011920929,
					1
				],
				"metallicFactor":0,
				"roughnessFactor":0.5
			}
		},
		{
			"doubleSided":true,
			"name":"BE_EWAL12B.001",
			"pbrMetallicRoughness":{
				"baseColorFactor":[
					0.800000011920929,
					0.800000011920929,
					0.800000011920929,
					1
				],
				"metallicFactor":0,
				"roughnessFactor":0.5
			}
		},
		{
			"doubleSided":true,
			"name":"BE_IPIPE01B.002",
			"pbrMetallicRoughness":{
				"baseColorFactor":[
					0.800000011920929,
					0.800000011920929,
					0.800000011920929,
					1
				],
				"metallicFactor":0,
				"roughnessFactor":0.5
			}
		},
		{
			"doubleSided":true,
			"name":"BE_EWAL03A.002",
			"pbrMetallicRoughness":{
				"baseColorFactor":[
					0.800000011920929,
					0.800000011920929,
					0.800000011920929,
					1
				],
				"metallicFactor":0,
				"roughnessFactor":0.5
			}
		},
		{
			"doubleSided":true,
			"name":"BE_EWAL12B.002",
			"pbrMetallicRoughness":{
				"baseColorFactor":[
					0.800000011920929,
					0.800000011920929,
					0.800000011920929,
					1
				],
				"metallicFactor":0,
				"roughnessFactor":0.5
			}
		}
	],
	"meshes":[
		{
			"name":"Mesh",
			"primitives":[
				{
					"attributes":{
						"POSITION":0,
						"NORMAL":1,
						"TEXCOORD_0":2
					},
					"indices":3,
					"material":0
				},
				{
					"attributes":{
						"POSITION":4,
						"NORMAL":5,
						"TEXCOORD_0":6
					},
					"indices":7,
					"material":1
				},
				{
					"attributes":{
						"POSITION":8,
						"NORMAL":9,
						"TEXCOORD_0":10
					},
					"indices":11,
					"material":2
				},
				{
					"attributes":{
						"POSITION":12,
						"NORMAL":13,
						"TEXCOORD_0":14
					},
					"indices":15,
					"material":3
				}
			]
		},
		{
			"name":"Mesh.001",
			"primitives":[
				{
					"attributes":{
						"POSITION":16,
						"NORMAL":17,
						"TEXCOORD_0":18
					},
					"indices":19,
					"material":4
				},
				{
					"attributes":{
						"POSITION":20,
						"NORMAL":21,
						"TEXCOORD_0":22
					},
					"indices":23,
					"material":5
				},
				{
					"attributes":{
						"POSITION":24,
						"NORMAL":25,
						"TEXCOORD_0":26
					},
					"indices":27,
					"material":6
				},
				{
					"attributes":{
						"POSITION":28,
						"NORMAL":29,
						"TEXCOORD_0":30
					},
					"indices":31,
					"material":7
				}
			]
		},
		{
			"name":"Mesh.002",
			"primitives":[
				{
					"attributes":{
						"POSITION":32,
						"NORMAL":33,
						"TEXCOORD_0":34
					},
					"indices":35,
					"material":8
				},
				{
					"attributes":{
						"POSITION":36,
						"NORMAL":37,
						"TEXCOORD_0":38
					},
					"indices":39,
					"material":9
				},
				{
					"attributes":{
						"POSITION":40,
						"NORMAL":41,
						"TEXCOORD_0":42
					},
					"indices":43,
					"material":10
				}
			]
		}
	],
	"accessors":[
		{
			"bufferView":0,
			"componentType":5126,
			"count":186,
			"max":[
				10,
				-2,
				7
			],
			"min":[
				-10,
				-15,
				-7
			],
			"type":"VEC3"
		},
		{
			"bufferView":1,
			"componentType":5126,
			"count":186,
			"type":"VEC3"
		},
		{
			"bufferView":2,
			"componentType":5126,
			"count":186,
			"type":"VEC2"
		},
		{
			"bufferView":3,
			"componentType":5123,
			"count":462,
			"type":"SCALAR"
		},
		{
			"bufferView":4,
			"componentType":5126,
			"count":64,
			"max":[
				10,
				1,
				7
			],
			"min":[
				-10,
				-15,
				-7
			],
			"type":"VEC3"
		},
		{
			"bufferView":5,
			"componentType":5126,
			"count":64,
			"type":"VEC3"
		},
		{
			"bufferView":6,
			"componentType":5126,
			"count":64,
			"type":"VEC2"
		},
		{
			"bufferView":7,
			"componentType":5123,
			"count":102,
			"type":"SCALAR"
		},
		{
			"bufferView":8,
			"componentType":5126,
			"count":64,
			"max":[
				8,
				-2,
				7
			],
			"min":[
				-8,
				-5,
				-7
			],
			"type":"VEC3"
		},
		{
			"bufferView":9,
			"componentType":5126,
			"count":64,
			"type":"VEC3"
		},
		{
			"bufferView":10,
			"componentType":5126,
			"count":64,
			"type":"VEC2"
		},
		{
			"bufferView":11,
			"componentType":5123,
			"count":96,
			"type":"SCALAR"
		},
		{
			"bufferView":12,
			"componentType":5126,
			"count":84,
			"max":[
				10,
				1,
				7
			],
			"min":[
				-10,
				-5,
				-7
			],
			"type":"VEC3"
		},
		{
			"bufferView":13,
			"componentType":5126,
			"count":84,
			"type":"VEC3"
		},
		{
			"bufferView":14,
			"componentType":5126,
			"count":84,
			"type":"VEC2"
		},
		{
			"bufferView":15,
			"componentType":5123,
			"count":180,
			"type":"SCALAR"
		},
		{
			"bufferView":16,
			"componentType":5126,
			"count":178,
			"max":[
				10,
				-2,
				7
			],
			"min":[
				-10,
				-15,
				-7
			],
			"type":"VEC3"
		},
		{
			"bufferView":17,
			"componentType":5126,
			"count":178,
			"type":"VEC3"
		},
		{
			"bufferView":18,
			"componentType":5126,
			"count":178,
			"type":"VEC2"
		},
		{
			"bufferView":19,
			"componentType":5123,
			"count":462,
			"type":"SCALAR"
		},
		{
			"bufferView":20,
			"componentType":5126,
			"count":80,
			"max":[
				10,
				1,
				7
			],
			"min":[
				-10,
				-15,
				-7
			],
			"type":"VEC3"
		},
		{
			"bufferView":21,
			"componentType":5126,
			"count":80,
			"type":"VEC3"
		},
		{
			"bufferView":22,
			"componentType":5126,
			"count":80,
			"type":"VEC2"
		},
		{
			"bufferView":23,
			"componentType":5123,
			"count":126,
			"type":"SCALAR"
		},
		{
			"bufferView":24,
			"componentType":5126,
			"count":64,
			"max":[
				8,
				-2,
				7
			],
			"min":[
				-8,
				-5,
				-7
			],
			"type":"VEC3"
		},
		{
			"bufferView":25,
			"componentType":5126,
			"count":64,
			"type":"VEC3"
		},
		{
			"bufferView":26,
			"componentType":5126,
			"count":64,
			"type":"VEC2"
		},
		{
			"bufferView":27,
			"componentType":5123,
			"count":96,
			"type":"SCALAR"
		},
		{
			"bufferView":28,
			"componentType":5126,
			"count":84,
			"max":[
				10,
				1,
				7
			],
			"min":[
				-10,
				-5,
				-7
			],
			"type":"VEC3"
		},
		{
			"bufferView":29,
			"componentType":5126,
			"count":84,
			"type":"VEC3"
		},
		{
			"bufferView":30,
			"componentType":5126,
			"count":84,
			"type":"VEC2"
		},
		{
			"bufferView":31,
			"componentType":5123,
			"count":180,
			"type":"SCALAR"
		},
		{
			"bufferView":32,
			"componentType":5126,
			"count":98,
			"max":[
				10,
				-2,
				7
			],
			"min":[
				-10,
				-15,
				-7
			],
			"type":"VEC3"
		},
		{
			"bufferView":33,
			"componentType":5126,
			"count":98,
			"type":"VEC3"
		},
		{
			"bufferView":34,
			"componentType":5126,
			"count":98,
			"type":"VEC2"
		},
		{
			"bufferView":35,
			"componentType":5123,
			"count":222,
			"type":"SCALAR"
		},
		{
			"bufferView":36,
			"componentType":5126,
			"count":48,
			"max":[
				10,
				1,
				7
			],
			"min":[
				-10,
				-15,
				-7
			],
			"type":"VEC3"
		},
		{
			"bufferView":37,
			"componentType":5126,
			"count":48,
			"type":"VEC3"
		},
		{
			"bufferView":38,
			"componentType":5126,
			"count":48,
			"type":"VEC2"
		},
		{
			"bufferView":39,
			"componentType":5123,
			"count":78,
			"type":"SCALAR"
		},
		{
			"bufferView":40,
			"componentType":5126,
			"count":52,
			"max":[
				10,
				1,
				7
			],
			"min":[
				-10,
				-5,
				-7
			],
			"type":"VEC3"
		},
		{
			"bufferView":41,
			"componentType":5126,
			"count":52,
			"type":"VEC3"
		},
		{
			"bufferView":42,
			"componentType":5126,
			"count":52,
			"type":"VEC2"
		},
		{
			"bufferView":43,
			"componentType":5123,
			"count":108,
			"type":"SCALAR"
		}
	],
	"bufferViews":[
		{
			"buffer":0,
			"byteLength":2232,
			"byteOffset":0,
			"target":34962
		},
		{
			"buffer":0,
			"byteLength":2232,
			"byteOffset":2232,
			"target":34962
		},
		{
			"buffer":0,
			"byteLength":1488,
			"byteOffset":4464,
			"target":34962
		},
		{
			"buffer":0,
			"byteLength":924,
			"byteOffset":5952,
			"target":34963
		},
		{
			"buffer":0,
			"byteLength":768,
			"byteOffset":6876,
			"target":34962
		},
		{
			"buffer":0,
			"byteLength":768,
			"byteOffset":7644,
			"target":34962
		},
		{
			"buffer":0,
			"byteLength":512,
			"byteOffset":8412,
			"target":34962
		},
		{
			"buffer":0,
			"byteLength":204,
			"byteOffset":8924,
			"target":34963
		},
		{
			"buffer":0,
			"byteLength":768,
			"byteOffset":9128,
			"target":34962
		},
		{
			"buffer":0,
			"byteLength":768,
			"byteOffset":9896,
			"target":34962
		},
		{
			"buffer":0,
			"byteLength":512,
			"byteOffset":10664,
			"target":34962
		},
		{
			"buffer":0,
			"byteLength":192,
			"byteOffset":11176,
			"target":34963
		},
		{
			"buffer":0,
			"byteLength":1008,
			"byteOffset":11368,
			"target":34962
		},
		{
			"buffer":0,
			"byteLength":1008,
			"byteOffset":12376,
			"target":34962
		},
		{
			"buffer":0,
			"byteLength":672,
			"byteOffset":13384,
			"target":34962
		},
		{
			"buffer":0,
			"byteLength":360,
			"byteOffset":14056,
			"target":34963
		},
		{
			"buffer":0,
			"byteLength":2136,
			"byteOffset":14416,
			"target":34962
		},
		{
			"buffer":0,
			"byteLength":2136,
			"byteOffset":16552,
			"target":34962
		},
		{
			"buffer":0,
			"byteLength":1424,
			"byteOffset":18688,
			"target":34962
		},
		{
			"buffer":0,
			"byteLength":924,
			"byteOffset":20112,
			"target":34963
		},
		{
			"buffer":0,
			"byteLength":960,
			"byteOffset":21036,
			"target":34962
		},
		{
			"buffer":0,
			"byteLength":960,
			"byteOffset":21996,
			"target":34962
		},
		{
			"buffer":0,
			"byteLength":640,
			"byteOffset":22956,
			"target":34962
		},
		{
			"buffer":0,
			"byteLength":252,
			"byteOffset":23596,
			"target":34963
		},
		{
			"buffer":0,
			"byteLength":768,
			"byteOffset":23848,
			"target":34962
		},
		{
			"buffer":0,
			"byteLength":768,
			"byteOffset":24616,
			"target":34962
		},
		{
			"buffer":0,
			"byteLength":512,
			"byteOffset":25384,
			"target":34962
		},
		{
			"buffer":0,
			"byteLength":192,
			"byteOffset":25896,
			"target":34963
		},
		{
			"buffer":0,
			"byteLength":1008,
			"byteOffset":26088,
			"target":34962
		},
		{
			"buffer":0,
			"byteLength":1008,
			"byteOffset":27096,
			"target":34962
		},
		{
			"buffer":0,
			"byteLength":672,
			"byteOffset":28104,
			"target":34962
		},
		{
			"buffer":0,
			"byteLength":360,
			"byteOffset":28776,
			"target":34963
		},
		{
			"buffer":0,
			"byteLength":1176,
			"byteOffset":29136,
			"target":34962
		},
		{
			"buffer":0,
			"byteLength":1176,
			"byteOffset":30312,
			"target":34962
		},
		{
			"buffer":0,
			"byteLength":784,
			"byteOffset":31488,
			"target":34962
		},
		{
			"buffer":0,
			"byteLength":444,
			"byteOffset":32272,
			"target":34963
		},
		{
			"buffer":0,
			"byteLength":576,
			"byteOffset":32716,
			"target":34962
		},
		{
			"buffer":0,
			"byteLength":576,
			"byteOffset":33292,
			"target":34962
		},
		{
			"buffer":0,
			"byteLength":384,
			"byteOffset":33868,
			"target":34962
		},
		{
			"buffer":0,
			"byteLength":156,
			"byteOffset":34252,
			"target":34963
		},
		{
			"buffer":0,
			"byteLength":624,
			"byteOffset":34408,
			"target":34962
		},
		{
			"buffer":0,
			"byteLength":624,
			"byteOffset":35032,
			"target":34962
		},
		{
			"buffer":0,
			"byteLength":416,
			"byteOffset":35656,
			"target":34962
		},
		{
			"buffer":0,
			"byteLength":216,
			"byteOffset":36072,
			"target":34963
		}
	],
	"buffers":[
		{
			"byteLength":36288,
			"uri":"bbrdg8.bin"
		}
	]
}
