{
	"asset":{
		"generator":"Khronos glTF Blender I/O v4.5.48",
		"version":"2.0"
	},
	"scene":0,
	"scenes":[
		{
			"name":"Scene",
			"nodes":[
				0,
				1,
				2
			]
		}
	],
	"nodes":[
		{
			"mesh":0,
			"name":"Object"
		},
		{
			"mesh":1,
			"name":"Object.001"
		},
		{
			"mesh":2,
			"name":"Object.002"
		}
	],
	"materials":[
		{
			"doubleSided":true,
			"name":"BE_EWAL01B",
			"pbrMetallicRoughness":{
				"baseColorFactor":[
					0.800000011920929,
					0.800000011920929,
					0.800000011920929,
					1
				],
				"metallicFactor":0,
				"roughnessFactor":0.5
			}
		},
		{
			"doubleSided":true,
			"name":"BE_EBOR01E",
			"pbrMetallicRoughness":{
				"baseColorFactor":[
					0.800000011920929,
					0.800000011920929,
					0.800000011920929,
					1
				],
				"metallicFactor":0,
				"roughnessFactor":0.5
			}
		},
		{
			"doubleSided":true,
			"name":"BE_EWAL07",
			"pbrMetallicRoughness":{
				"baseColorFactor":[
					0.800000011920929,
					0.800000011920929,
					0.800000011920929,
					1
				],
				"metallicFactor":0,
				"roughnessFactor":0.5
			}
		},
		{
			"doubleSided":true,
			"name":"BE_ELIG02",
			"pbrMetallicRoughness":{
				"baseColorFactor":[
					0.800000011920929,
					0.800000011920929,
					0.800000011920929,
					1
				],
				"metallicFactor":0,
				"roughnessFactor":0.5
			}
		},
		{
			"doubleSided":true,
			"name":"BE_EWAL04A",
			"pbrMetallicRoughness":{
				"baseColorFactor":[
					0.800000011920929,
					0.800000011920929,
					0.800000011920929,
					1
				],
				"metallicFactor":0,
				"roughnessFactor":0.5
			}
		},
		{
			"doubleSided":true,
			"name":"BE_EWAL02B",
			"pbrMetallicRoughness":{
				"baseColorFactor":[
					0.800000011920929,
					0.800000011920929,
					0.800000011920929,
					1
				],
				"metallicFactor":0,
				"roughnessFactor":0.5
			}
		},
		{
			"doubleSided":true,
			"name":"BE_ICEI01A",
			"pbrMetallicRoughness":{
				"baseColorFactor":[
					0.800000011920929,
					0.800000011920929,
					0.800000011920929,
					1
				],
				"metallicFactor":0,
				"roughnessFactor":0.5
			}
		},
		{
			"doubleSided":true,
			"name":"BE_EWAL01B.001",
			"pbrMetallicRoughness":{
				"baseColorFactor":[
					0.800000011920929,
					0.800000011920929,
					0.800000011920929,
					1
				],
				"metallicFactor":0,
				"roughnessFactor":0.5
			}
		},
		{
			"doubleSided":true,
			"name":"BE_EBOR01E.001",
			"pbrMetallicRoughness":{
				"baseColorFactor":[
					0.800000011920929,
					0.800000011920929,
					0.800000011920929,
					1
				],
				"metallicFactor":0,
				"roughnessFactor":0.5
			}
		},
		{
			"doubleSided":true,
			"name":"BE_EWAL07.001",
			"pbrMetallicRoughness":{
				"baseColorFactor":[
					0.800000011920929,
					0.800000011920929,
					0.800000011920929,
					1
				],
				"metallicFactor":0,
				"roughnessFactor":0.5
			}
		},
		{
			"doubleSided":true,
			"name":"BE_ELIG02.001",
			"pbrMetallicRoughness":{
				"baseColorFactor":[
					0.800000011920929,
					0.800000011920929,
					0.800000011920929,
					1
				],
				"metallicFactor":0,
				"roughnessFactor":0.5
			}
		},
		{
			"doubleSided":true,
			"name":"BE_EWAL04A.001",
			"pbrMetallicRoughness":{
				"baseColorFactor":[
					0.800000011920929,
					0.800000011920929,
					0.800000011920929,
					1
				],
				"metallicFactor":0,
				"roughnessFactor":0.5
			}
		},
		{
			"doubleSided":true,
			"name":"BE_EWAL02B.001",
			"pbrMetallicRoughness":{
				"baseColorFactor":[
					0.800000011920929,
					0.800000011920929,
					0.800000011920929,
					1
				],
				"metallicFactor":0,
				"roughnessFactor":0.5
			}
		},
		{
			"doubleSided":true,
			"name":"BE_ICEI01A.001",
			"pbrMetallicRoughness":{
				"baseColorFactor":[
					0.800000011920929,
					0.800000011920929,
					0.800000011920929,
					1
				],
				"metallicFactor":0,
				"roughnessFactor":0.5
			}
		},
		{
			"doubleSided":true,
			"name":"BE_EWAL01B.002",
			"pbrMetallicRoughness":{
				"baseColorFactor":[
					0.800000011920929,
					0.800000011920929,
					0.800000011920929,
					1
				],
				"metallicFactor":0,
				"roughnessFactor":0.5
			}
		},
		{
			"doubleSided":true,
			"name":"BE_EBOR01E.002",
			"pbrMetallicRoughness":{
				"baseColorFactor":[
					0.800000011920929,
					0.800000011920929,
					0.800000011920929,
					1
				],
				"metallicFactor":0,
				"roughnessFactor":0.5
			}
		},
		{
			"doubleSided":true,
			"name":"BE_EWAL07.002",
			"pbrMetallicRoughness":{
				"baseColorFactor":[
					0.800000011920929,
					0.800000011920929,
					0.800000011920929,
					1
				],
				"metallicFactor":0,
				"roughnessFactor":0.5
			}
		},
		{
			"doubleSided":true,
			"name":"BE_ELIG02.002",
			"pbrMetallicRoughness":{
				"baseColorFactor":[
					0.800000011920929,
					0.800000011920929,
					0.800000011920929,
					1
				],
				"metallicFactor":0,
				"roughnessFactor":0.5
			}
		},
		{
			"doubleSided":true,
			"name":"BE_EWAL04A.002",
			"pbrMetallicRoughness":{
				"baseColorFactor":[
					0.800000011920929,
					0.800000011920929,
					0.800000011920929,
					1
				],
				"metallicFactor":0,
				"roughnessFactor":0.5
			}
		},
		{
			"doubleSided":true,
			"name":"BE_EWAL02B.002",
			"pbrMetallicRoughness":{
				"baseColorFactor":[
					0.800000011920929,
					0.800000011920929,
					0.800000011920929,
					1
				],
				"metallicFactor":0,
				"roughnessFactor":0.5
			}
		},
		{
			"doubleSided":true,
			"name":"BE_ICEI01A.002",
			"pbrMetallicRoughness":{
				"baseColorFactor":[
					0.800000011920929,
					0.800000011920929,
					0.800000011920929,
					1
				],
				"metallicFactor":0,
				"roughnessFactor":0.5
			}
		}
	],
	"meshes":[
		{
			"name":"Mesh",
			"primitives":[
				{
					"attributes":{
						"POSITION":0,
						"NORMAL":1,
						"TEXCOORD_0":2
					},
					"indices":3,
					"material":0
				},
				{
					"attributes":{
						"POSITION":4,
						"NORMAL":5,
						"TEXCOORD_0":6
					},
					"indices":7,
					"material":1
				},
				{
					"attributes":{
						"POSITION":8,
						"NORMAL":9,
						"TEXCOORD_0":10
					},
					"indices":11,
					"material":2
				},
				{
					"attributes":{
						"POSITION":12,
						"NORMAL":13,
						"TEXCOORD_0":14
					},
					"indices":15,
					"material":3
				},
				{
					"attributes":{
						"POSITION":16,
						"NORMAL":17,
						"TEXCOORD_0":18
					},
					"indices":19,
					"material":4
				},
				{
					"attributes":{
						"POSITION":20,
						"NORMAL":21,
						"TEXCOORD_0":22
					},
					"indices":23,
					"material":5
				},
				{
					"attributes":{
						"POSITION":24,
						"NORMAL":25,
						"TEXCOORD_0":26
					},
					"indices":27,
					"material":6
				}
			]
		},
		{
			"name":"Mesh.001",
			"primitives":[
				{
					"attributes":{
						"POSITION":28,
						"NORMAL":29,
						"TEXCOORD_0":30
					},
					"indices":31,
					"material":7
				},
				{
					"attributes":{
						"POSITION":32,
						"NORMAL":33,
						"TEXCOORD_0":34
					},
					"indices":35,
					"material":8
				},
				{
					"attributes":{
						"POSITION":36,
						"NORMAL":37,
						"TEXCOORD_0":38
					},
					"indices":11,
					"material":9
				},
				{
					"attributes":{
						"POSITION":39,
						"NORMAL":40,
						"TEXCOORD_0":41
					},
					"indices":42,
					"material":10
				},
				{
					"attributes":{
						"POSITION":43,
						"NORMAL":44,
						"TEXCOORD_0":45
					},
					"indices":46,
					"material":11
				},
				{
					"attributes":{
						"POSITION":47,
						"NORMAL":48,
						"TEXCOORD_0":49
					},
					"indices":50,
					"material":12
				},
				{
					"attributes":{
						"POSITION":51,
						"NORMAL":52,
						"TEXCOORD_0":53
					},
					"indices":27,
					"material":13
				}
			]
		},
		{
			"name":"Mesh.002",
			"primitives":[
				{
					"attributes":{
						"POSITION":54,
						"NORMAL":55,
						"TEXCOORD_0":56
					},
					"indices":57,
					"material":14
				},
				{
					"attributes":{
						"POSITION":58,
						"NORMAL":59,
						"TEXCOORD_0":60
					},
					"indices":61,
					"material":15
				},
				{
					"attributes":{
						"POSITION":62,
						"NORMAL":63,
						"TEXCOORD_0":64
					},
					"indices":11,
					"material":16
				},
				{
					"attributes":{
						"POSITION":65,
						"NORMAL":66,
						"TEXCOORD_0":67
					},
					"indices":68,
					"material":17
				},
				{
					"attributes":{
						"POSITION":69,
						"NORMAL":70,
						"TEXCOORD_0":71
					},
					"indices":72,
					"material":18
				},
				{
					"attributes":{
						"POSITION":73,
						"NORMAL":74,
						"TEXCOORD_0":75
					},
					"indices":76,
					"material":19
				},
				{
					"attributes":{
						"POSITION":77,
						"NORMAL":78,
						"TEXCOORD_0":79
					},
					"indices":27,
					"material":20
				}
			]
		}
	],
	"accessors":[
		{
			"bufferView":0,
			"componentType":5126,
			"count":1162,
			"max":[
				16.5,
				35,
				16.625
			],
			"min":[
				-16.5,
				8.125,
				-16.375
			],
			"type":"VEC3"
		},
		{
			"bufferView":1,
			"componentType":5126,
			"count":1162,
			"type":"VEC3"
		},
		{
			"bufferView":2,
			"componentType":5126,
			"count":1162,
			"type":"VEC2"
		},
		{
			"bufferView":3,
			"componentType":5123,
			"count":2682,
			"type":"SCALAR"
		},
		{
			"bufferView":4,
			"componentType":5126,
			"count":878,
			"max":[
				16.5,
				34.5,
				16.625
			],
			"min":[
				-16.5,
				8.125,
				-16.375
			],
			"type":"VEC3"
		},
		{
			"bufferView":5,
			"componentType":5126,
			"count":878,
			"type":"VEC3"
		},
		{
			"bufferView":6,
			"componentType":5126,
			"count":878,
			"type":"VEC2"
		},
		{
			"bufferView":7,
			"componentType":5123,
			"count":1488,
			"type":"SCALAR"
		},
		{
			"bufferView":8,
			"componentType":5126,
			"count":6,
			"max":[
				2.25,
				9.125,
				-7
			],
			"min":[
				-2.25,
				8.125,
				-7
			],
			"type":"VEC3"
		},
		{
			"bufferView":9,
			"componentType":5126,
			"count":6,
			"type":"VEC3"
		},
		{
			"bufferView":10,
			"componentType":5126,
			"count":6,
			"type":"VEC2"
		},
		{
			"bufferView":11,
			"componentType":5123,
			"count":12,
			"type":"SCALAR"
		},
		{
			"bufferView":12,
			"componentType":5126,
			"count":328,
			"max":[
				11.625,
				34,
				11.75
			],
			"min":[
				-11.625,
				20,
				-11.5
			],
			"type":"VEC3"
		},
		{
			"bufferView":13,
			"componentType":5126,
			"count":328,
			"type":"VEC3"
		},
		{
			"bufferView":14,
			"componentType":5126,
			"count":328,
			"type":"VEC2"
		},
		{
			"bufferView":15,
			"componentType":5123,
			"count":576,
			"type":"SCALAR"
		},
		{
			"bufferView":16,
			"componentType":5126,
			"count":184,
			"max":[
				16.5,
				21,
				16.625
			],
			"min":[
				-16.5,
				9.125,
				-16.375
			],
			"type":"VEC3"
		},
		{
			"bufferView":17,
			"componentType":5126,
			"count":184,
			"type":"VEC3"
		},
		{
			"bufferView":18,
			"componentType":5126,
			"count":184,
			"type":"VEC2"
		},
		{
			"bufferView":19,
			"componentType":5123,
			"count":558,
			"type":"SCALAR"
		},
		{
			"bufferView":20,
			"componentType":5126,
			"count":468,
			"max":[
				11.625,
				33,
				11.75
			],
			"min":[
				-11.625,
				14.375,
				-11.5
			],
			"type":"VEC3"
		},
		{
			"bufferView":21,
			"componentType":5126,
			"count":468,
			"type":"VEC3"
		},
		{
			"bufferView":22,
			"componentType":5126,
			"count":468,
			"type":"VEC2"
		},
		{
			"bufferView":23,
			"componentType":5123,
			"count":888,
			"type":"SCALAR"
		},
		{
			"bufferView":24,
			"componentType":5126,
			"count":8,
			"max":[
				3.75,
				19.25,
				4
			],
			"min":[
				-4,
				19.25,
				-3.75
			],
			"type":"VEC3"
		},
		{
			"bufferView":25,
			"componentType":5126,
			"count":8,
			"type":"VEC3"
		},
		{
			"bufferView":26,
			"componentType":5126,
			"count":8,
			"type":"VEC2"
		},
		{
			"bufferView":27,
			"componentType":5123,
			"count":18,
			"type":"SCALAR"
		},
		{
			"bufferView":28,
			"componentType":5126,
			"count":936,
			"max":[
				16.5,
				35,
				16.625
			],
			"min":[
				-16.5,
				8.125,
				-16.375
			],
			"type":"VEC3"
		},
		{
			"bufferView":29,
			"componentType":5126,
			"count":936,
			"type":"VEC3"
		},
		{
			"bufferView":30,
			"componentType":5126,
			"count":936,
			"type":"VEC2"
		},
		{
			"bufferView":31,
			"componentType":5123,
			"count":2148,
			"type":"SCALAR"
		},
		{
			"bufferView":32,
			"componentType":5126,
			"count":668,
			"max":[
				16.5,
				34.5,
				16.625
			],
			"min":[
				-16.5,
				8.125,
				-16.375
			],
			"type":"VEC3"
		},
		{
			"bufferView":33,
			"componentType":5126,
			"count":668,
			"type":"VEC3"
		},
		{
			"bufferView":34,
			"componentType":5126,
			"count":668,
			"type":"VEC2"
		},
		{
			"bufferView":35,
			"componentType":5123,
			"count":1146,
			"type":"SCALAR"
		},
		{
			"bufferView":36,
			"componentType":5126,
			"count":6,
			"max":[
				2.25,
				9.125,
				-7
			],
			"min":[
				-2.25,
				8.125,
				-7
			],
			"type":"VEC3"
		},
		{
			"bufferView":37,
			"componentType":5126,
			"count":6,
			"type":"VEC3"
		},
		{
			"bufferView":38,
			"componentType":5126,
			"count":6,
			"type":"VEC2"
		},
		{
			"bufferView":39,
			"componentType":5126,
			"count":248,
			"max":[
				11.625,
				34,
				11.75
			],
			"min":[
				-11.625,
				20,
				-11.5
			],
			"type":"VEC3"
		},
		{
			"bufferView":40,
			"componentType":5126,
			"count":248,
			"type":"VEC3"
		},
		{
			"bufferView":41,
			"componentType":5126,
			"count":248,
			"type":"VEC2"
		},
		{
			"bufferView":42,
			"componentType":5123,
			"count":432,
			"type":"SCALAR"
		},
		{
			"bufferView":43,
			"componentType":5126,
			"count":120,
			"max":[
				16.5,
				21,
				16.625
			],
			"min":[
				-16.5,
				9.125,
				-16.375
			],
			"type":"VEC3"
		},
		{
			"bufferView":44,
			"componentType":5126,
			"count":120,
			"type":"VEC3"
		},
		{
			"bufferView":45,
			"componentType":5126,
			"count":120,
			"type":"VEC2"
		},
		{
			"bufferView":46,
			"componentType":5123,
			"count":354,
			"type":"SCALAR"
		},
		{
			"bufferView":47,
			"componentType":5126,
			"count":394,
			"max":[
				11.625,
				33,
				11.75
			],
			"min":[
				-11.625,
				14.375,
				-11.5
			],
			"type":"VEC3"
		},
		{
			"bufferView":48,
			"componentType":5126,
			"count":394,
			"type":"VEC3"
		},
		{
			"bufferView":49,
			"componentType":5126,
			"count":394,
			"type":"VEC2"
		},
		{
			"bufferView":50,
			"componentType":5123,
			"count":768,
			"type":"SCALAR"
		},
		{
			"bufferView":51,
			"componentType":5126,
			"count":8,
			"max":[
				3.75,
				19.25,
				4
			],
			"min":[
				-4,
				19.25,
				-3.75
			],
			"type":"VEC3"
		},
		{
			"bufferView":52,
			"componentType":5126,
			"count":8,
			"type":"VEC3"
		},
		{
			"bufferView":53,
			"componentType":5126,
			"count":8,
			"type":"VEC2"
		},
		{
			"bufferView":54,
			"componentType":5126,
			"count":960,
			"max":[
				16.5,
				35,
				16.625
			],
			"min":[
				-16.5,
				8.125,
				-16.375
			],
			"type":"VEC3"
		},
		{
			"bufferView":55,
			"componentType":5126,
			"count":960,
			"type":"VEC3"
		},
		{
			"bufferView":56,
			"componentType":5126,
			"count":960,
			"type":"VEC2"
		},
		{
			"bufferView":57,
			"componentType":5123,
			"count":2136,
			"type":"SCALAR"
		},
		{
			"bufferView":58,
			"componentType":5126,
			"count":668,
			"max":[
				16.5,
				34.5,
				16.625
			],
			"min":[
				-16.5,
				8.125,
				-16.375
			],
			"type":"VEC3"
		},
		{
			"bufferView":59,
			"componentType":5126,
			"count":668,
			"type":"VEC3"
		},
		{
			"bufferView":60,
			"componentType":5126,
			"count":668,
			"type":"VEC2"
		},
		{
			"bufferView":61,
			"componentType":5123,
			"count":1146,
			"type":"SCALAR"
		},
		{
			"bufferView":62,
			"componentType":5126,
			"count":6,
			"max":[
				2.25,
				9.125,
				-7
			],
			"min":[
				-2.25,
				8.125,
				-7
			],
			"type":"VEC3"
		},
		{
			"bufferView":63,
			"componentType":5126,
			"count":6,
			"type":"VEC3"
		},
		{
			"bufferView":64,
			"componentType":5126,
			"count":6,
			"type":"VEC2"
		},
		{
			"bufferView":65,
			"componentType":5126,
			"count":248,
			"max":[
				11.625,
				34,
				11.75
			],
			"min":[
				-11.625,
				20,
				-11.5
			],
			"type":"VEC3"
		},
		{
			"bufferView":66,
			"componentType":5126,
			"count":248,
			"type":"VEC3"
		},
		{
			"bufferView":67,
			"componentType":5126,
			"count":248,
			"type":"VEC2"
		},
		{
			"bufferView":68,
			"componentType":5123,
			"count":432,
			"type":"SCALAR"
		},
		{
			"bufferView":69,
			"componentType":5126,
			"count":120,
			"max":[
				16.5,
				21,
				16.625
			],
			"min":[
				-16.5,
				9.125,
				-16.375
			],
			"type":"VEC3"
		},
		{
			"bufferView":70,
			"componentType":5126,
			"count":120,
			"type":"VEC3"
		},
		{
			"bufferView":71,
			"componentType":5126,
			"count":120,
			"type":"VEC2"
		},
		{
			"bufferView":72,
			"componentType":5123,
			"count":354,
			"type":"SCALAR"
		},
		{
			"bufferView":73,
			"componentType":5126,
			"count":224,
			"max":[
				11.625,
				33,
				11.75
			],
			"min":[
				-11.625,
				16.0625,
				-11.5
			],
			"type":"VEC3"
		},
		{
			"bufferView":74,
			"componentType":5126,
			"count":224,
			"type":"VEC3"
		},
		{
			"bufferView":75,
			"componentType":5126,
			"count":224,
			"type":"VEC2"
		},
		{
			"bufferView":76,
			"componentType":5123,
			"count":384,
			"type":"SCALAR"
		},
		{
			"bufferView":77,
			"componentType":5126,
			"count":8,
			"max":[
				3.75,
				19.25,
				4
			],
			"min":[
				-4,
				19.25,
				-3.75
			],
			"type":"VEC3"
		},
		{
			"bufferView":78,
			"componentType":5126,
			"count":8,
			"type":"VEC3"
		},
		{
			"bufferView":79,
			"componentType":5126,
			"count":8,
			"type":"VEC2"
		}
	],
	"bufferViews":[
		{
			"buffer":0,
			"byteLength":13944,
			"byteOffset":0,
			"target":34962
		},
		{
			"buffer":0,
			"byteLength":13944,
			"byteOffset":13944,
			"target":34962
		},
		{
			"buffer":0,
			"byteLength":9296,
			"byteOffset":27888,
			"target":34962
		},
		{
			"buffer":0,
			"byteLength":5364,
			"byteOffset":37184,
			"target":34963
		},
		{
			"buffer":0,
			"byteLength":10536,
			"byteOffset":42548,
			"target":34962
		},
		{
			"buffer":0,
			"byteLength":10536,
			"byteOffset":53084,
			"target":34962
		},
		{
			"buffer":0,
			"byteLength":7024,
			"byteOffset":63620,
			"target":34962
		},
		{
			"buffer":0,
			"byteLength":2976,
			"byteOffset":70644,
			"target":34963
		},
		{
			"buffer":0,
			"byteLength":72,
			"byteOffset":73620,
			"target":34962
		},
		{
			"buffer":0,
			"byteLength":72,
			"byteOffset":73692,
			"target":34962
		},
		{
			"buffer":0,
			"byteLength":48,
			"byteOffset":73764,
			"target":34962
		},
		{
			"buffer":0,
			"byteLength":24,
			"byteOffset":73812,
			"target":34963
		},
		{
			"buffer":0,
			"byteLength":3936,
			"byteOffset":73836,
			"target":34962
		},
		{
			"buffer":0,
			"byteLength":3936,
			"byteOffset":77772,
			"target":34962
		},
		{
			"buffer":0,
			"byteLength":2624,
			"byteOffset":81708,
			"target":34962
		},
		{
			"buffer":0,
			"byteLength":1152,
			"byteOffset":84332,
			"target":34963
		},
		{
			"buffer":0,
			"byteLength":2208,
			"byteOffset":85484,
			"target":34962
		},
		{
			"buffer":0,
			"byteLength":2208,
			"byteOffset":87692,
			"target":34962
		},
		{
			"buffer":0,
			"byteLength":1472,
			"byteOffset":89900,
			"target":34962
		},
		{
			"buffer":0,
			"byteLength":1116,
			"byteOffset":91372,
			"target":34963
		},
		{
			"buffer":0,
			"byteLength":5616,
			"byteOffset":92488,
			"target":34962
		},
		{
			"buffer":0,
			"byteLength":5616,
			"byteOffset":98104,
			"target":34962
		},
		{
			"buffer":0,
			"byteLength":3744,
			"byteOffset":103720,
			"target":34962
		},
		{
			"buffer":0,
			"byteLength":1776,
			"byteOffset":107464,
			"target":34963
		},
		{
			"buffer":0,
			"byteLength":96,
			"byteOffset":109240,
			"target":34962
		},
		{
			"buffer":0,
			"byteLength":96,
			"byteOffset":109336,
			"target":34962
		},
		{
			"buffer":0,
			"byteLength":64,
			"byteOffset":109432,
			"target":34962
		},
		{
			"buffer":0,
			"byteLength":36,
			"byteOffset":109496,
			"target":34963
		},
		{
			"buffer":0,
			"byteLength":11232,
			"byteOffset":109532,
			"target":34962
		},
		{
			"buffer":0,
			"byteLength":11232,
			"byteOffset":120764,
			"target":34962
		},
		{
			"buffer":0,
			"byteLength":7488,
			"byteOffset":131996,
			"target":34962
		},
		{
			"buffer":0,
			"byteLength":4296,
			"byteOffset":139484,
			"target":34963
		},
		{
			"buffer":0,
			"byteLength":8016,
			"byteOffset":143780,
			"target":34962
		},
		{
			"buffer":0,
			"byteLength":8016,
			"byteOffset":151796,
			"target":34962
		},
		{
			"buffer":0,
			"byteLength":5344,
			"byteOffset":159812,
			"target":34962
		},
		{
			"buffer":0,
			"byteLength":2292,
			"byteOffset":165156,
			"target":34963
		},
		{
			"buffer":0,
			"byteLength":72,
			"byteOffset":167448,
			"target":34962
		},
		{
			"buffer":0,
			"byteLength":72,
			"byteOffset":167520,
			"target":34962
		},
		{
			"buffer":0,
			"byteLength":48,
			"byteOffset":167592,
			"target":34962
		},
		{
			"buffer":0,
			"byteLength":2976,
			"byteOffset":167640,
			"target":34962
		},
		{
			"buffer":0,
			"byteLength":2976,
			"byteOffset":170616,
			"target":34962
		},
		{
			"buffer":0,
			"byteLength":1984,
			"byteOffset":173592,
			"target":34962
		},
		{
			"buffer":0,
			"byteLength":864,
			"byteOffset":175576,
			"target":34963
		},
		{
			"buffer":0,
			"byteLength":1440,
			"byteOffset":176440,
			"target":34962
		},
		{
			"buffer":0,
			"byteLength":1440,
			"byteOffset":177880,
			"target":34962
		},
		{
			"buffer":0,
			"byteLength":960,
			"byteOffset":179320,
			"target":34962
		},
		{
			"buffer":0,
			"byteLength":708,
			"byteOffset":180280,
			"target":34963
		},
		{
			"buffer":0,
			"byteLength":4728,
			"byteOffset":180988,
			"target":34962
		},
		{
			"buffer":0,
			"byteLength":4728,
			"byteOffset":185716,
			"target":34962
		},
		{
			"buffer":0,
			"byteLength":3152,
			"byteOffset":190444,
			"target":34962
		},
		{
			"buffer":0,
			"byteLength":1536,
			"byteOffset":193596,
			"target":34963
		},
		{
			"buffer":0,
			"byteLength":96,
			"byteOffset":195132,
			"target":34962
		},
		{
			"buffer":0,
			"byteLength":96,
			"byteOffset":195228,
			"target":34962
		},
		{
			"buffer":0,
			"byteLength":64,
			"byteOffset":195324,
			"target":34962
		},
		{
			"buffer":0,
			"byteLength":11520,
			"byteOffset":195388,
			"target":34962
		},
		{
			"buffer":0,
			"byteLength":11520,
			"byteOffset":206908,
			"target":34962
		},
		{
			"buffer":0,
			"byteLength":7680,
			"byteOffset":218428,
			"target":34962
		},
		{
			"buffer":0,
			"byteLength":4272,
			"byteOffset":226108,
			"target":34963
		},
		{
			"buffer":0,
			"byteLength":8016,
			"byteOffset":230380,
			"target":34962
		},
		{
			"buffer":0,
			"byteLength":8016,
			"byteOffset":238396,
			"target":34962
		},
		{
			"buffer":0,
			"byteLength":5344,
			"byteOffset":246412,
			"target":34962
		},
		{
			"buffer":0,
			"byteLength":2292,
			"byteOffset":251756,
			"target":34963
		},
		{
			"buffer":0,
			"byteLength":72,
			"byteOffset":254048,
			"target":34962
		},
		{
			"buffer":0,
			"byteLength":72,
			"byteOffset":254120,
			"target":34962
		},
		{
			"buffer":0,
			"byteLength":48,
			"byteOffset":254192,
			"target":34962
		},
		{
			"buffer":0,
			"byteLength":2976,
			"byteOffset":254240,
			"target":34962
		},
		{
			"buffer":0,
			"byteLength":2976,
			"byteOffset":257216,
			"target":34962
		},
		{
			"buffer":0,
			"byteLength":1984,
			"byteOffset":260192,
			"target":34962
		},
		{
			"buffer":0,
			"byteLength":864,
			"byteOffset":262176,
			"target":34963
		},
		{
			"buffer":0,
			"byteLength":1440,
			"byteOffset":263040,
			"target":34962
		},
		{
			"buffer":0,
			"byteLength":1440,
			"byteOffset":264480,
			"target":34962
		},
		{
			"buffer":0,
			"byteLength":960,
			"byteOffset":265920,
			"target":34962
		},
		{
			"buffer":0,
			"byteLength":708,
			"byteOffset":266880,
			"target":34963
		},
		{
			"buffer":0,
			"byteLength":2688,
			"byteOffset":267588,
			"target":34962
		},
		{
			"buffer":0,
			"byteLength":2688,
			"byteOffset":270276,
			"target":34962
		},
		{
			"buffer":0,
			"byteLength":1792,
			"byteOffset":272964,
			"target":34962
		},
		{
			"buffer":0,
			"byteLength":768,
			"byteOffset":274756,
			"target":34963
		},
		{
			"buffer":0,
			"byteLength":96,
			"byteOffset":275524,
			"target":34962
		},
		{
			"buffer":0,
			"byteLength":96,
			"byteOffset":275620,
			"target":34962
		},
		{
			"buffer":0,
			"byteLength":64,
			"byteOffset":275716,
			"target":34962
		}
	],
	"buffers":[
		{
			"byteLength":275780,
			"uri":"bbunkc.bin"
		}
	]
}
