{
	"asset":{
		"generator":"Khronos glTF Blender I/O v4.5.48",
		"version":"2.0"
	},
	"scene":0,
	"scenes":[
		{
			"name":"Scene",
			"nodes":[
				0,
				1
			]
		}
	],
	"nodes":[
		{
			"mesh":0,
			"name":"Object"
		},
		{
			"mesh":1,
			"name":"Object.001"
		}
	],
	"materials":[
		{
			"doubleSided":true,
			"name":"BE_EWAL04A",
			"pbrMetallicRoughness":{
				"baseColorFactor":[
					0.800000011920929,
					0.800000011920929,
					0.800000011920929,
					1
				],
				"metallicFactor":0,
				"roughnessFactor":0.5
			}
		},
		{
			"doubleSided":true,
			"name":"BE_EWAL01B",
			"pbrMetallicRoughness":{
				"baseColorFactor":[
					0.800000011920929,
					0.800000011920929,
					0.800000011920929,
					1
				],
				"metallicFactor":0,
				"roughnessFactor":0.5
			}
		},
		{
			"doubleSided":true,
			"name":"BE_EBOR01B",
			"pbrMetallicRoughness":{
				"baseColorFactor":[
					0.800000011920929,
					0.800000011920929,
					0.800000011920929,
					1
				],
				"metallicFactor":0,
				"roughnessFactor":0.5
			}
		},
		{
			"doubleSided":true,
			"name":"BE_ITEBOR02A",
			"pbrMetallicRoughness":{
				"baseColorFactor":[
					0.800000011920929,
					0.800000011920929,
					0.800000011920929,
					1
				],
				"metallicFactor":0,
				"roughnessFactor":0.5
			}
		},
		{
			"doubleSided":true,
			"name":"BE_EWAL12B",
			"pbrMetallicRoughness":{
				"baseColorFactor":[
					0.800000011920929,
					0.800000011920929,
					0.800000011920929,
					1
				],
				"metallicFactor":0,
				"roughnessFactor":0.5
			}
		},
		{
			"doubleSided":true,
			"name":"BE_EBOR03",
			"pbrMetallicRoughness":{
				"baseColorFactor":[
					0.800000011920929,
					0.800000011920929,
					0.800000011920929,
					1
				],
				"metallicFactor":0,
				"roughnessFactor":0.5
			}
		},
		{
			"doubleSided":true,
			"name":"BE_ICOLTOP",
			"pbrMetallicRoughness":{
				"baseColorFactor":[
					0.800000011920929,
					0.800000011920929,
					0.800000011920929,
					1
				],
				"metallicFactor":0,
				"roughnessFactor":0.5
			}
		},
		{
			"doubleSided":true,
			"name":"BE_EWAL04A.001",
			"pbrMetallicRoughness":{
				"baseColorFactor":[
					0.800000011920929,
					0.800000011920929,
					0.800000011920929,
					1
				],
				"metallicFactor":0,
				"roughnessFactor":0.5
			}
		},
		{
			"doubleSided":true,
			"name":"BE_EWAL01B.001",
			"pbrMetallicRoughness":{
				"baseColorFactor":[
					0.800000011920929,
					0.800000011920929,
					0.800000011920929,
					1
				],
				"metallicFactor":0,
				"roughnessFactor":0.5
			}
		},
		{
			"doubleSided":true,
			"name":"BE_EBOR01B.001",
			"pbrMetallicRoughness":{
				"baseColorFactor":[
					0.800000011920929,
					0.800000011920929,
					0.800000011920929,
					1
				],
				"metallicFactor":0,
				"roughnessFactor":0.5
			}
		},
		{
			"doubleSided":true,
			"name":"BE_ITEBOR02A.001",
			"pbrMetallicRoughness":{
				"baseColorFactor":[
					0.800000011920929,
					0.800000011920929,
					0.800000011920929,
					1
				],
				"metallicFactor":0,
				"roughnessFactor":0.5
			}
		},
		{
			"doubleSided":true,
			"name":"BE_EWAL12B.001",
			"pbrMetallicRoughness":{
				"baseColorFactor":[
					0.800000011920929,
					0.800000011920929,
					0.800000011920929,
					1
				],
				"metallicFactor":0,
				"roughnessFactor":0.5
			}
		}
	],
	"meshes":[
		{
			"name":"Mesh",
			"primitives":[
				{
					"attributes":{
						"POSITION":0,
						"NORMAL":1,
						"TEXCOORD_0":2
					},
					"indices":3,
					"material":0
				},
				{
					"attributes":{
						"POSITION":4,
						"NORMAL":5,
						"TEXCOORD_0":6
					},
					"indices":7,
					"material":1
				},
				{
					"attributes":{
						"POSITION":8,
						"NORMAL":9,
						"TEXCOORD_0":10
					},
					"indices":11,
					"material":2
				},
				{
					"attributes":{
						"POSITION":12,
						"NORMAL":13,
						"TEXCOORD_0":14
					},
					"indices":15,
					"material":3
				},
				{
					"attributes":{
						"POSITION":16,
						"NORMAL":17,
						"TEXCOORD_0":18
					},
					"indices":19,
					"material":4
				},
				{
					"attributes":{
						"POSITION":20,
						"NORMAL":21,
						"TEXCOORD_0":22
					},
					"indices":23,
					"material":5
				},
				{
					"attributes":{
						"POSITION":24,
						"NORMAL":25,
						"TEXCOORD_0":26
					},
					"indices":27,
					"material":6
				}
			]
		},
		{
			"name":"Mesh.001",
			"primitives":[
				{
					"attributes":{
						"POSITION":28,
						"NORMAL":29,
						"TEXCOORD_0":30
					},
					"indices":3,
					"material":7
				},
				{
					"attributes":{
						"POSITION":31,
						"NORMAL":32,
						"TEXCOORD_0":33
					},
					"indices":34,
					"material":8
				},
				{
					"attributes":{
						"POSITION":35,
						"NORMAL":36,
						"TEXCOORD_0":37
					},
					"indices":38,
					"material":9
				},
				{
					"attributes":{
						"POSITION":39,
						"NORMAL":40,
						"TEXCOORD_0":41
					},
					"indices":42,
					"material":10
				},
				{
					"attributes":{
						"POSITION":43,
						"NORMAL":44,
						"TEXCOORD_0":45
					},
					"indices":19,
					"material":11
				}
			]
		}
	],
	"accessors":[
		{
			"bufferView":0,
			"componentType":5126,
			"count":4,
			"max":[
				4.375,
				10,
				3
			],
			"min":[
				-4.375,
				10,
				-3
			],
			"type":"VEC3"
		},
		{
			"bufferView":1,
			"componentType":5126,
			"count":4,
			"type":"VEC3"
		},
		{
			"bufferView":2,
			"componentType":5126,
			"count":4,
			"type":"VEC2"
		},
		{
			"bufferView":3,
			"componentType":5123,
			"count":6,
			"type":"SCALAR"
		},
		{
			"bufferView":4,
			"componentType":5126,
			"count":44,
			"max":[
				4,
				9.25,
				2.75
			],
			"min":[
				-4,
				0,
				-2.75
			],
			"type":"VEC3"
		},
		{
			"bufferView":5,
			"componentType":5126,
			"count":44,
			"type":"VEC3"
		},
		{
			"bufferView":6,
			"componentType":5126,
			"count":44,
			"type":"VEC2"
		},
		{
			"bufferView":7,
			"componentType":5123,
			"count":102,
			"type":"SCALAR"
		},
		{
			"bufferView":8,
			"componentType":5126,
			"count":40,
			"max":[
				4.375,
				10,
				3
			],
			"min":[
				-4.375,
				8,
				-3
			],
			"type":"VEC3"
		},
		{
			"bufferView":9,
			"componentType":5126,
			"count":40,
			"type":"VEC3"
		},
		{
			"bufferView":10,
			"componentType":5126,
			"count":40,
			"type":"VEC2"
		},
		{
			"bufferView":11,
			"componentType":5123,
			"count":72,
			"type":"SCALAR"
		},
		{
			"bufferView":12,
			"componentType":5126,
			"count":16,
			"max":[
				3.40625,
				9.25,
				2.125
			],
			"min":[
				-3.4375,
				8.75,
				-2.0625
			],
			"type":"VEC3"
		},
		{
			"bufferView":13,
			"componentType":5126,
			"count":16,
			"type":"VEC3"
		},
		{
			"bufferView":14,
			"componentType":5126,
			"count":16,
			"type":"VEC2"
		},
		{
			"bufferView":15,
			"componentType":5123,
			"count":24,
			"type":"SCALAR"
		},
		{
			"bufferView":16,
			"componentType":5126,
			"count":16,
			"max":[
				3,
				7.75,
				2
			],
			"min":[
				-3,
				0,
				-2
			],
			"type":"VEC3"
		},
		{
			"bufferView":17,
			"componentType":5126,
			"count":16,
			"type":"VEC3"
		},
		{
			"bufferView":18,
			"componentType":5126,
			"count":16,
			"type":"VEC2"
		},
		{
			"bufferView":19,
			"componentType":5123,
			"count":24,
			"type":"SCALAR"
		},
		{
			"bufferView":20,
			"componentType":5126,
			"count":120,
			"max":[
				2.5,
				8,
				2.75
			],
			"min":[
				-2.5,
				4,
				-2.75
			],
			"type":"VEC3"
		},
		{
			"bufferView":21,
			"componentType":5126,
			"count":120,
			"type":"VEC3"
		},
		{
			"bufferView":22,
			"componentType":5126,
			"count":120,
			"type":"VEC2"
		},
		{
			"bufferView":23,
			"componentType":5123,
			"count":192,
			"type":"SCALAR"
		},
		{
			"bufferView":24,
			"componentType":5126,
			"count":40,
			"max":[
				2.5,
				7.833333492279053,
				2.21875
			],
			"min":[
				-2.5,
				4.25,
				-2.25
			],
			"type":"VEC3"
		},
		{
			"bufferView":25,
			"componentType":5126,
			"count":40,
			"type":"VEC3"
		},
		{
			"bufferView":26,
			"componentType":5126,
			"count":40,
			"type":"VEC2"
		},
		{
			"bufferView":27,
			"componentType":5123,
			"count":96,
			"type":"SCALAR"
		},
		{
			"bufferView":28,
			"componentType":5126,
			"count":4,
			"max":[
				4.375,
				10,
				3
			],
			"min":[
				-4.375,
				10,
				-3
			],
			"type":"VEC3"
		},
		{
			"bufferView":29,
			"componentType":5126,
			"count":4,
			"type":"VEC3"
		},
		{
			"bufferView":30,
			"componentType":5126,
			"count":4,
			"type":"VEC2"
		},
		{
			"bufferView":31,
			"componentType":5126,
			"count":44,
			"max":[
				4,
				9.25,
				2.75
			],
			"min":[
				-4,
				0,
				-2.75
			],
			"type":"VEC3"
		},
		{
			"bufferView":32,
			"componentType":5126,
			"count":44,
			"type":"VEC3"
		},
		{
			"bufferView":33,
			"componentType":5126,
			"count":44,
			"type":"VEC2"
		},
		{
			"bufferView":34,
			"componentType":5123,
			"count":102,
			"type":"SCALAR"
		},
		{
			"bufferView":35,
			"componentType":5126,
			"count":40,
			"max":[
				4.375,
				10,
				3
			],
			"min":[
				-4.375,
				8,
				-3
			],
			"type":"VEC3"
		},
		{
			"bufferView":36,
			"componentType":5126,
			"count":40,
			"type":"VEC3"
		},
		{
			"bufferView":37,
			"componentType":5126,
			"count":40,
			"type":"VEC2"
		},
		{
			"bufferView":38,
			"componentType":5123,
			"count":72,
			"type":"SCALAR"
		},
		{
			"bufferView":39,
			"componentType":5126,
			"count":16,
			"max":[
				3.40625,
				9.25,
				2.125
			],
			"min":[
				-3.4375,
				8.75,
				-2.0625
			],
			"type":"VEC3"
		},
		{
			"bufferView":40,
			"componentType":5126,
			"count":16,
			"type":"VEC3"
		},
		{
			"bufferView":41,
			"componentType":5126,
			"count":16,
			"type":"VEC2"
		},
		{
			"bufferView":42,
			"componentType":5123,
			"count":24,
			"type":"SCALAR"
		},
		{
			"bufferView":43,
			"componentType":5126,
			"count":16,
			"max":[
				3,
				7.75,
				2
			],
			"min":[
				-3,
				0,
				-2
			],
			"type":"VEC3"
		},
		{
			"bufferView":44,
			"componentType":5126,
			"count":16,
			"type":"VEC3"
		},
		{
			"bufferView":45,
			"componentType":5126,
			"count":16,
			"type":"VEC2"
		}
	],
	"bufferViews":[
		{
			"buffer":0,
			"byteLength":48,
			"byteOffset":0,
			"target":34962
		},
		{
			"buffer":0,
			"byteLength":48,
			"byteOffset":48,
			"target":34962
		},
		{
			"buffer":0,
			"byteLength":32,
			"byteOffset":96,
			"target":34962
		},
		{
			"buffer":0,
			"byteLength":12,
			"byteOffset":128,
			"target":34963
		},
		{
			"buffer":0,
			"byteLength":528,
			"byteOffset":140,
			"target":34962
		},
		{
			"buffer":0,
			"byteLength":528,
			"byteOffset":668,
			"target":34962
		},
		{
			"buffer":0,
			"byteLength":352,
			"byteOffset":1196,
			"target":34962
		},
		{
			"buffer":0,
			"byteLength":204,
			"byteOffset":1548,
			"target":34963
		},
		{
			"buffer":0,
			"byteLength":480,
			"byteOffset":1752,
			"target":34962
		},
		{
			"buffer":0,
			"byteLength":480,
			"byteOffset":2232,
			"target":34962
		},
		{
			"buffer":0,
			"byteLength":320,
			"byteOffset":2712,
			"target":34962
		},
		{
			"buffer":0,
			"byteLength":144,
			"byteOffset":3032,
			"target":34963
		},
		{
			"buffer":0,
			"byteLength":192,
			"byteOffset":3176,
			"target":34962
		},
		{
			"buffer":0,
			"byteLength":192,
			"byteOffset":3368,
			"target":34962
		},
		{
			"buffer":0,
			"byteLength":128,
			"byteOffset":3560,
			"target":34962
		},
		{
			"buffer":0,
			"byteLength":48,
			"byteOffset":3688,
			"target":34963
		},
		{
			"buffer":0,
			"byteLength":192,
			"byteOffset":3736,
			"target":34962
		},
		{
			"buffer":0,
			"byteLength":192,
			"byteOffset":3928,
			"target":34962
		},
		{
			"buffer":0,
			"byteLength":128,
			"byteOffset":4120,
			"target":34962
		},
		{
			"buffer":0,
			"byteLength":48,
			"byteOffset":4248,
			"target":34963
		},
		{
			"buffer":0,
			"byteLength":1440,
			"byteOffset":4296,
			"target":34962
		},
		{
			"buffer":0,
			"byteLength":1440,
			"byteOffset":5736,
			"target":34962
		},
		{
			"buffer":0,
			"byteLength":960,
			"byteOffset":7176,
			"target":34962
		},
		{
			"buffer":0,
			"byteLength":384,
			"byteOffset":8136,
			"target":34963
		},
		{
			"buffer":0,
			"byteLength":480,
			"byteOffset":8520,
			"target":34962
		},
		{
			"buffer":0,
			"byteLength":480,
			"byteOffset":9000,
			"target":34962
		},
		{
			"buffer":0,
			"byteLength":320,
			"byteOffset":9480,
			"target":34962
		},
		{
			"buffer":0,
			"byteLength":192,
			"byteOffset":9800,
			"target":34963
		},
		{
			"buffer":0,
			"byteLength":48,
			"byteOffset":9992,
			"target":34962
		},
		{
			"buffer":0,
			"byteLength":48,
			"byteOffset":10040,
			"target":34962
		},
		{
			"buffer":0,
			"byteLength":32,
			"byteOffset":10088,
			"target":34962
		},
		{
			"buffer":0,
			"byteLength":528,
			"byteOffset":10120,
			"target":34962
		},
		{
			"buffer":0,
			"byteLength":528,
			"byteOffset":10648,
			"target":34962
		},
		{
			"buffer":0,
			"byteLength":352,
			"byteOffset":11176,
			"target":34962
		},
		{
			"buffer":0,
			"byteLength":204,
			"byteOffset":11528,
			"target":34963
		},
		{
			"buffer":0,
			"byteLength":480,
			"byteOffset":11732,
			"target":34962
		},
		{
			"buffer":0,
			"byteLength":480,
			"byteOffset":12212,
			"target":34962
		},
		{
			"buffer":0,
			"byteLength":320,
			"byteOffset":12692,
			"target":34962
		},
		{
			"buffer":0,
			"byteLength":144,
			"byteOffset":13012,
			"target":34963
		},
		{
			"buffer":0,
			"byteLength":192,
			"byteOffset":13156,
			"target":34962
		},
		{
			"buffer":0,
			"byteLength":192,
			"byteOffset":13348,
			"target":34962
		},
		{
			"buffer":0,
			"byteLength":128,
			"byteOffset":13540,
			"target":34962
		},
		{
			"buffer":0,
			"byteLength":48,
			"byteOffset":13668,
			"target":34963
		},
		{
			"buffer":0,
			"byteLength":192,
			"byteOffset":13716,
			"target":34962
		},
		{
			"buffer":0,
			"byteLength":192,
			"byteOffset":13908,
			"target":34962
		},
		{
			"buffer":0,
			"byteLength":128,
			"byteOffset":14100,
			"target":34962
		}
	],
	"buffers":[
		{
			"byteLength":14228,
			"uri":"bmisc8.bin"
		}
	]
}
