{
	"asset":{
		"generator":"Khronos glTF Blender I/O v4.5.48",
		"version":"2.0"
	},
	"scene":0,
	"scenes":[
		{
			"name":"Scene",
			"nodes":[
				0,
				1,
				2
			]
		}
	],
	"nodes":[
		{
			"mesh":0,
			"name":"Object"
		},
		{
			"mesh":1,
			"name":"Object.001"
		},
		{
			"mesh":2,
			"name":"Object.002"
		}
	],
	"materials":[
		{
			"doubleSided":true,
			"name":"BE_EWAL01B",
			"pbrMetallicRoughness":{
				"baseColorFactor":[
					0.800000011920929,
					0.800000011920929,
					0.800000011920929,
					1
				],
				"metallicFactor":0,
				"roughnessFactor":0.5
			}
		},
		{
			"doubleSided":true,
			"name":"BE_EWAL11B",
			"pbrMetallicRoughness":{
				"baseColorFactor":[
					0.800000011920929,
					0.800000011920929,
					0.800000011920929,
					1
				],
				"metallicFactor":0,
				"roughnessFactor":0.5
			}
		},
		{
			"doubleSided":true,
			"name":"BE_EBOR01B",
			"pbrMetallicRoughness":{
				"baseColorFactor":[
					0.800000011920929,
					0.800000011920929,
					0.800000011920929,
					1
				],
				"metallicFactor":0,
				"roughnessFactor":0.5
			}
		},
		{
			"doubleSided":true,
			"name":"BE_EWAL04A",
			"pbrMetallicRoughness":{
				"baseColorFactor":[
					0.800000011920929,
					0.800000011920929,
					0.800000011920929,
					1
				],
				"metallicFactor":0,
				"roughnessFactor":0.5
			}
		},
		{
			"doubleSided":true,
			"name":"BE_EBOR02",
			"pbrMetallicRoughness":{
				"baseColorFactor":[
					0.800000011920929,
					0.800000011920929,
					0.800000011920929,
					1
				],
				"metallicFactor":0,
				"roughnessFactor":0.5
			}
		},
		{
			"doubleSided":true,
			"name":"BE_EWAL01B.001",
			"pbrMetallicRoughness":{
				"baseColorFactor":[
					0.800000011920929,
					0.800000011920929,
					0.800000011920929,
					1
				],
				"metallicFactor":0,
				"roughnessFactor":0.5
			}
		},
		{
			"doubleSided":true,
			"name":"BE_EWAL11B.001",
			"pbrMetallicRoughness":{
				"baseColorFactor":[
					0.800000011920929,
					0.800000011920929,
					0.800000011920929,
					1
				],
				"metallicFactor":0,
				"roughnessFactor":0.5
			}
		},
		{
			"doubleSided":true,
			"name":"BE_EBOR01B.001",
			"pbrMetallicRoughness":{
				"baseColorFactor":[
					0.800000011920929,
					0.800000011920929,
					0.800000011920929,
					1
				],
				"metallicFactor":0,
				"roughnessFactor":0.5
			}
		},
		{
			"doubleSided":true,
			"name":"BE_EWAL04A.001",
			"pbrMetallicRoughness":{
				"baseColorFactor":[
					0.800000011920929,
					0.800000011920929,
					0.800000011920929,
					1
				],
				"metallicFactor":0,
				"roughnessFactor":0.5
			}
		},
		{
			"doubleSided":true,
			"name":"BE_EWAL01B.002",
			"pbrMetallicRoughness":{
				"baseColorFactor":[
					0.800000011920929,
					0.800000011920929,
					0.800000011920929,
					1
				],
				"metallicFactor":0,
				"roughnessFactor":0.5
			}
		},
		{
			"doubleSided":true,
			"name":"BE_EWAL11B.002",
			"pbrMetallicRoughness":{
				"baseColorFactor":[
					0.800000011920929,
					0.800000011920929,
					0.800000011920929,
					1
				],
				"metallicFactor":0,
				"roughnessFactor":0.5
			}
		},
		{
			"doubleSided":true,
			"name":"BE_EWAL04A.002",
			"pbrMetallicRoughness":{
				"baseColorFactor":[
					0.800000011920929,
					0.800000011920929,
					0.800000011920929,
					1
				],
				"metallicFactor":0,
				"roughnessFactor":0.5
			}
		}
	],
	"meshes":[
		{
			"name":"Mesh",
			"primitives":[
				{
					"attributes":{
						"POSITION":0,
						"NORMAL":1,
						"TEXCOORD_0":2
					},
					"indices":3,
					"material":0
				},
				{
					"attributes":{
						"POSITION":4,
						"NORMAL":5,
						"TEXCOORD_0":6
					},
					"indices":7,
					"material":1
				},
				{
					"attributes":{
						"POSITION":8,
						"NORMAL":9,
						"TEXCOORD_0":10
					},
					"indices":11,
					"material":2
				},
				{
					"attributes":{
						"POSITION":12,
						"NORMAL":13,
						"TEXCOORD_0":14
					},
					"indices":15,
					"material":3
				},
				{
					"attributes":{
						"POSITION":16,
						"NORMAL":17,
						"TEXCOORD_0":18
					},
					"indices":19,
					"material":4
				}
			]
		},
		{
			"name":"Mesh.001",
			"primitives":[
				{
					"attributes":{
						"POSITION":20,
						"NORMAL":21,
						"TEXCOORD_0":22
					},
					"indices":23,
					"material":5
				},
				{
					"attributes":{
						"POSITION":24,
						"NORMAL":25,
						"TEXCOORD_0":26
					},
					"indices":27,
					"material":6
				},
				{
					"attributes":{
						"POSITION":28,
						"NORMAL":29,
						"TEXCOORD_0":30
					},
					"indices":11,
					"material":7
				},
				{
					"attributes":{
						"POSITION":31,
						"NORMAL":32,
						"TEXCOORD_0":33
					},
					"indices":34,
					"material":8
				}
			]
		},
		{
			"name":"Mesh.002",
			"primitives":[
				{
					"attributes":{
						"POSITION":35,
						"NORMAL":36,
						"TEXCOORD_0":37
					},
					"indices":38,
					"material":9
				},
				{
					"attributes":{
						"POSITION":39,
						"NORMAL":40,
						"TEXCOORD_0":41
					},
					"indices":42,
					"material":10
				},
				{
					"attributes":{
						"POSITION":43,
						"NORMAL":44,
						"TEXCOORD_0":45
					},
					"indices":34,
					"material":11
				}
			]
		}
	],
	"accessors":[
		{
			"bufferView":0,
			"componentType":5126,
			"count":20,
			"max":[
				4.5,
				1.96875,
				5
			],
			"min":[
				-4.5,
				0,
				-5
			],
			"type":"VEC3"
		},
		{
			"bufferView":1,
			"componentType":5126,
			"count":20,
			"type":"VEC3"
		},
		{
			"bufferView":2,
			"componentType":5126,
			"count":20,
			"type":"VEC2"
		},
		{
			"bufferView":3,
			"componentType":5123,
			"count":30,
			"type":"SCALAR"
		},
		{
			"bufferView":4,
			"componentType":5126,
			"count":48,
			"max":[
				3.75,
				1.96875,
				4.25
			],
			"min":[
				-3.75,
				1,
				-4.25
			],
			"type":"VEC3"
		},
		{
			"bufferView":5,
			"componentType":5126,
			"count":48,
			"type":"VEC3"
		},
		{
			"bufferView":6,
			"componentType":5126,
			"count":48,
			"type":"VEC2"
		},
		{
			"bufferView":7,
			"componentType":5123,
			"count":72,
			"type":"SCALAR"
		},
		{
			"bufferView":8,
			"componentType":5126,
			"count":20,
			"max":[
				4.5,
				1,
				5
			],
			"min":[
				-4.5,
				0,
				-5
			],
			"type":"VEC3"
		},
		{
			"bufferView":9,
			"componentType":5126,
			"count":20,
			"type":"VEC3"
		},
		{
			"bufferView":10,
			"componentType":5126,
			"count":20,
			"type":"VEC2"
		},
		{
			"bufferView":11,
			"componentType":5123,
			"count":36,
			"type":"SCALAR"
		},
		{
			"bufferView":12,
			"componentType":5126,
			"count":4,
			"max":[
				1.5,
				2.09375,
				2
			],
			"min":[
				-1.5,
				2.09375,
				-2
			],
			"type":"VEC3"
		},
		{
			"bufferView":13,
			"componentType":5126,
			"count":4,
			"type":"VEC3"
		},
		{
			"bufferView":14,
			"componentType":5126,
			"count":4,
			"type":"VEC2"
		},
		{
			"bufferView":15,
			"componentType":5123,
			"count":6,
			"type":"SCALAR"
		},
		{
			"bufferView":16,
			"componentType":5126,
			"count":20,
			"max":[
				1.75,
				2.09375,
				2.25
			],
			"min":[
				-1.75,
				1.96875,
				-2.25
			],
			"type":"VEC3"
		},
		{
			"bufferView":17,
			"componentType":5126,
			"count":20,
			"type":"VEC3"
		},
		{
			"bufferView":18,
			"componentType":5126,
			"count":20,
			"type":"VEC2"
		},
		{
			"bufferView":19,
			"componentType":5123,
			"count":36,
			"type":"SCALAR"
		},
		{
			"bufferView":20,
			"componentType":5126,
			"count":12,
			"max":[
				4.5,
				2,
				5
			],
			"min":[
				-4.5,
				0,
				-5
			],
			"type":"VEC3"
		},
		{
			"bufferView":21,
			"componentType":5126,
			"count":12,
			"type":"VEC3"
		},
		{
			"bufferView":22,
			"componentType":5126,
			"count":12,
			"type":"VEC2"
		},
		{
			"bufferView":23,
			"componentType":5123,
			"count":18,
			"type":"SCALAR"
		},
		{
			"bufferView":24,
			"componentType":5126,
			"count":20,
			"max":[
				3.75,
				2,
				4.25
			],
			"min":[
				-3.75,
				1,
				-4.25
			],
			"type":"VEC3"
		},
		{
			"bufferView":25,
			"componentType":5126,
			"count":20,
			"type":"VEC3"
		},
		{
			"bufferView":26,
			"componentType":5126,
			"count":20,
			"type":"VEC2"
		},
		{
			"bufferView":27,
			"componentType":5123,
			"count":24,
			"type":"SCALAR"
		},
		{
			"bufferView":28,
			"componentType":5126,
			"count":20,
			"max":[
				4.5,
				1,
				5
			],
			"min":[
				-4.5,
				0,
				-5
			],
			"type":"VEC3"
		},
		{
			"bufferView":29,
			"componentType":5126,
			"count":20,
			"type":"VEC3"
		},
		{
			"bufferView":30,
			"componentType":5126,
			"count":20,
			"type":"VEC2"
		},
		{
			"bufferView":31,
			"componentType":5126,
			"count":4,
			"max":[
				1.6875,
				2,
				2.1875
			],
			"min":[
				-1.75,
				2,
				-2.1875
			],
			"type":"VEC3"
		},
		{
			"bufferView":32,
			"componentType":5126,
			"count":4,
			"type":"VEC3"
		},
		{
			"bufferView":33,
			"componentType":5126,
			"count":4,
			"type":"VEC2"
		},
		{
			"bufferView":34,
			"componentType":5123,
			"count":6,
			"type":"SCALAR"
		},
		{
			"bufferView":35,
			"componentType":5126,
			"count":20,
			"max":[
				4.5,
				2,
				5
			],
			"min":[
				-4.5,
				0,
				-5
			],
			"type":"VEC3"
		},
		{
			"bufferView":36,
			"componentType":5126,
			"count":20,
			"type":"VEC3"
		},
		{
			"bufferView":37,
			"componentType":5126,
			"count":20,
			"type":"VEC2"
		},
		{
			"bufferView":38,
			"componentType":5123,
			"count":30,
			"type":"SCALAR"
		},
		{
			"bufferView":39,
			"componentType":5126,
			"count":20,
			"max":[
				4.5,
				2,
				5
			],
			"min":[
				-4.5,
				0,
				-5
			],
			"type":"VEC3"
		},
		{
			"bufferView":40,
			"componentType":5126,
			"count":20,
			"type":"VEC3"
		},
		{
			"bufferView":41,
			"componentType":5126,
			"count":20,
			"type":"VEC2"
		},
		{
			"bufferView":42,
			"componentType":5123,
			"count":24,
			"type":"SCALAR"
		},
		{
			"bufferView":43,
			"componentType":5126,
			"count":4,
			"max":[
				1.6875,
				2,
				2.1875
			],
			"min":[
				-1.75,
				2,
				-2.1875
			],
			"type":"VEC3"
		},
		{
			"bufferView":44,
			"componentType":5126,
			"count":4,
			"type":"VEC3"
		},
		{
			"bufferView":45,
			"componentType":5126,
			"count":4,
			"type":"VEC2"
		}
	],
	"bufferViews":[
		{
			"buffer":0,
			"byteLength":240,
			"byteOffset":0,
			"target":34962
		},
		{
			"buffer":0,
			"byteLength":240,
			"byteOffset":240,
			"target":34962
		},
		{
			"buffer":0,
			"byteLength":160,
			"byteOffset":480,
			"target":34962
		},
		{
			"buffer":0,
			"byteLength":60,
			"byteOffset":640,
			"target":34963
		},
		{
			"buffer":0,
			"byteLength":576,
			"byteOffset":700,
			"target":34962
		},
		{
			"buffer":0,
			"byteLength":576,
			"byteOffset":1276,
			"target":34962
		},
		{
			"buffer":0,
			"byteLength":384,
			"byteOffset":1852,
			"target":34962
		},
		{
			"buffer":0,
			"byteLength":144,
			"byteOffset":2236,
			"target":34963
		},
		{
			"buffer":0,
			"byteLength":240,
			"byteOffset":2380,
			"target":34962
		},
		{
			"buffer":0,
			"byteLength":240,
			"byteOffset":2620,
			"target":34962
		},
		{
			"buffer":0,
			"byteLength":160,
			"byteOffset":2860,
			"target":34962
		},
		{
			"buffer":0,
			"byteLength":72,
			"byteOffset":3020,
			"target":34963
		},
		{
			"buffer":0,
			"byteLength":48,
			"byteOffset":3092,
			"target":34962
		},
		{
			"buffer":0,
			"byteLength":48,
			"byteOffset":3140,
			"target":34962
		},
		{
			"buffer":0,
			"byteLength":32,
			"byteOffset":3188,
			"target":34962
		},
		{
			"buffer":0,
			"byteLength":12,
			"byteOffset":3220,
			"target":34963
		},
		{
			"buffer":0,
			"byteLength":240,
			"byteOffset":3232,
			"target":34962
		},
		{
			"buffer":0,
			"byteLength":240,
			"byteOffset":3472,
			"target":34962
		},
		{
			"buffer":0,
			"byteLength":160,
			"byteOffset":3712,
			"target":34962
		},
		{
			"buffer":0,
			"byteLength":72,
			"byteOffset":3872,
			"target":34963
		},
		{
			"buffer":0,
			"byteLength":144,
			"byteOffset":3944,
			"target":34962
		},
		{
			"buffer":0,
			"byteLength":144,
			"byteOffset":4088,
			"target":34962
		},
		{
			"buffer":0,
			"byteLength":96,
			"byteOffset":4232,
			"target":34962
		},
		{
			"buffer":0,
			"byteLength":36,
			"byteOffset":4328,
			"target":34963
		},
		{
			"buffer":0,
			"byteLength":240,
			"byteOffset":4364,
			"target":34962
		},
		{
			"buffer":0,
			"byteLength":240,
			"byteOffset":4604,
			"target":34962
		},
		{
			"buffer":0,
			"byteLength":160,
			"byteOffset":4844,
			"target":34962
		},
		{
			"buffer":0,
			"byteLength":48,
			"byteOffset":5004,
			"target":34963
		},
		{
			"buffer":0,
			"byteLength":240,
			"byteOffset":5052,
			"target":34962
		},
		{
			"buffer":0,
			"byteLength":240,
			"byteOffset":5292,
			"target":34962
		},
		{
			"buffer":0,
			"byteLength":160,
			"byteOffset":5532,
			"target":34962
		},
		{
			"buffer":0,
			"byteLength":48,
			"byteOffset":5692,
			"target":34962
		},
		{
			"buffer":0,
			"byteLength":48,
			"byteOffset":5740,
			"target":34962
		},
		{
			"buffer":0,
			"byteLength":32,
			"byteOffset":5788,
			"target":34962
		},
		{
			"buffer":0,
			"byteLength":12,
			"byteOffset":5820,
			"target":34963
		},
		{
			"buffer":0,
			"byteLength":240,
			"byteOffset":5832,
			"target":34962
		},
		{
			"buffer":0,
			"byteLength":240,
			"byteOffset":6072,
			"target":34962
		},
		{
			"buffer":0,
			"byteLength":160,
			"byteOffset":6312,
			"target":34962
		},
		{
			"buffer":0,
			"byteLength":60,
			"byteOffset":6472,
			"target":34963
		},
		{
			"buffer":0,
			"byteLength":240,
			"byteOffset":6532,
			"target":34962
		},
		{
			"buffer":0,
			"byteLength":240,
			"byteOffset":6772,
			"target":34962
		},
		{
			"buffer":0,
			"byteLength":160,
			"byteOffset":7012,
			"target":34962
		},
		{
			"buffer":0,
			"byteLength":48,
			"byteOffset":7172,
			"target":34963
		},
		{
			"buffer":0,
			"byteLength":48,
			"byteOffset":7220,
			"target":34962
		},
		{
			"buffer":0,
			"byteLength":48,
			"byteOffset":7268,
			"target":34962
		},
		{
			"buffer":0,
			"byteLength":32,
			"byteOffset":7316,
			"target":34962
		}
	],
	"buffers":[
		{
			"byteLength":7348,
			"uri":"bmisc3.bin"
		}
	]
}
