{
	"asset":{
		"generator":"Khronos glTF Blender I/O v4.5.48",
		"version":"2.0"
	},
	"scene":0,
	"scenes":[
		{
			"name":"Scene",
			"nodes":[
				0,
				1
			]
		}
	],
	"nodes":[
		{
			"mesh":0,
			"name":"Object"
		},
		{
			"mesh":1,
			"name":"Object.001"
		}
	],
	"materials":[
		{
			"doubleSided":true,
			"name":"BE_EWAL01B",
			"pbrMetallicRoughness":{
				"baseColorFactor":[
					0.800000011920929,
					0.800000011920929,
					0.800000011920929,
					1
				],
				"metallicFactor":0,
				"roughnessFactor":0.5
			}
		},
		{
			"doubleSided":true,
			"name":"BE_EWAL02B",
			"pbrMetallicRoughness":{
				"baseColorFactor":[
					0.800000011920929,
					0.800000011920929,
					0.800000011920929,
					1
				],
				"metallicFactor":0,
				"roughnessFactor":0.5
			}
		},
		{
			"doubleSided":true,
			"name":"BE_ELIG02",
			"pbrMetallicRoughness":{
				"baseColorFactor":[
					0.800000011920929,
					0.800000011920929,
					0.800000011920929,
					1
				],
				"metallicFactor":0,
				"roughnessFactor":0.5
			}
		},
		{
			"doubleSided":true,
			"name":"BE_EWAL07",
			"pbrMetallicRoughness":{
				"baseColorFactor":[
					0.800000011920929,
					0.800000011920929,
					0.800000011920929,
					1
				],
				"metallicFactor":0,
				"roughnessFactor":0.5
			}
		},
		{
			"doubleSided":true,
			"name":"BE_ICOLIG01",
			"pbrMetallicRoughness":{
				"baseColorFactor":[
					0.800000011920929,
					0.800000011920929,
					0.800000011920929,
					1
				],
				"metallicFactor":0,
				"roughnessFactor":0.5
			}
		},
		{
			"doubleSided":true,
			"name":"BE_EWAL04A",
			"pbrMetallicRoughness":{
				"baseColorFactor":[
					0.800000011920929,
					0.800000011920929,
					0.800000011920929,
					1
				],
				"metallicFactor":0,
				"roughnessFactor":0.5
			}
		},
		{
			"doubleSided":true,
			"name":"BE_EWAL01B.001",
			"pbrMetallicRoughness":{
				"baseColorFactor":[
					0.800000011920929,
					0.800000011920929,
					0.800000011920929,
					1
				],
				"metallicFactor":0,
				"roughnessFactor":0.5
			}
		},
		{
			"doubleSided":true,
			"name":"BE_EWAL02B.001",
			"pbrMetallicRoughness":{
				"baseColorFactor":[
					0.800000011920929,
					0.800000011920929,
					0.800000011920929,
					1
				],
				"metallicFactor":0,
				"roughnessFactor":0.5
			}
		},
		{
			"doubleSided":true,
			"name":"BE_ELIG02.001",
			"pbrMetallicRoughness":{
				"baseColorFactor":[
					0.800000011920929,
					0.800000011920929,
					0.800000011920929,
					1
				],
				"metallicFactor":0,
				"roughnessFactor":0.5
			}
		},
		{
			"doubleSided":true,
			"name":"BE_EWAL04A.001",
			"pbrMetallicRoughness":{
				"baseColorFactor":[
					0.800000011920929,
					0.800000011920929,
					0.800000011920929,
					1
				],
				"metallicFactor":0,
				"roughnessFactor":0.5
			}
		},
		{
			"doubleSided":true,
			"name":"BE_ICOLIG01.001",
			"pbrMetallicRoughness":{
				"baseColorFactor":[
					0.800000011920929,
					0.800000011920929,
					0.800000011920929,
					1
				],
				"metallicFactor":0,
				"roughnessFactor":0.5
			}
		}
	],
	"meshes":[
		{
			"name":"Mesh",
			"primitives":[
				{
					"attributes":{
						"POSITION":0,
						"NORMAL":1,
						"TEXCOORD_0":2
					},
					"indices":3,
					"material":0
				},
				{
					"attributes":{
						"POSITION":4,
						"NORMAL":5,
						"TEXCOORD_0":6
					},
					"indices":7,
					"material":1
				},
				{
					"attributes":{
						"POSITION":8,
						"NORMAL":9,
						"TEXCOORD_0":10
					},
					"indices":11,
					"material":2
				},
				{
					"attributes":{
						"POSITION":12,
						"NORMAL":13,
						"TEXCOORD_0":14
					},
					"indices":15,
					"material":3
				},
				{
					"attributes":{
						"POSITION":16,
						"NORMAL":17,
						"TEXCOORD_0":18
					},
					"indices":19,
					"material":4
				},
				{
					"attributes":{
						"POSITION":20,
						"NORMAL":21,
						"TEXCOORD_0":22
					},
					"indices":23,
					"material":5
				}
			]
		},
		{
			"name":"Mesh.001",
			"primitives":[
				{
					"attributes":{
						"POSITION":24,
						"NORMAL":25,
						"TEXCOORD_0":26
					},
					"indices":27,
					"material":6
				},
				{
					"attributes":{
						"POSITION":28,
						"NORMAL":29,
						"TEXCOORD_0":30
					},
					"indices":31,
					"material":7
				},
				{
					"attributes":{
						"POSITION":32,
						"NORMAL":33,
						"TEXCOORD_0":34
					},
					"indices":35,
					"material":8
				},
				{
					"attributes":{
						"POSITION":36,
						"NORMAL":37,
						"TEXCOORD_0":38
					},
					"indices":39,
					"material":9
				},
				{
					"attributes":{
						"POSITION":40,
						"NORMAL":41,
						"TEXCOORD_0":42
					},
					"indices":43,
					"material":10
				}
			]
		}
	],
	"accessors":[
		{
			"bufferView":0,
			"componentType":5126,
			"count":128,
			"max":[
				-2.375,
				-5.625,
				-0.25
			],
			"min":[
				-9.75,
				-7.5,
				-16.25
			],
			"type":"VEC3"
		},
		{
			"bufferView":1,
			"componentType":5126,
			"count":128,
			"type":"VEC3"
		},
		{
			"bufferView":2,
			"componentType":5126,
			"count":128,
			"type":"VEC2"
		},
		{
			"bufferView":3,
			"componentType":5123,
			"count":405,
			"type":"SCALAR"
		},
		{
			"bufferView":4,
			"componentType":5126,
			"count":94,
			"max":[
				-2.375,
				-5.75,
				-0.25
			],
			"min":[
				-9.75,
				-7.5,
				-16.25
			],
			"type":"VEC3"
		},
		{
			"bufferView":5,
			"componentType":5126,
			"count":94,
			"type":"VEC3"
		},
		{
			"bufferView":6,
			"componentType":5126,
			"count":94,
			"type":"VEC2"
		},
		{
			"bufferView":7,
			"componentType":5123,
			"count":186,
			"type":"SCALAR"
		},
		{
			"bufferView":8,
			"componentType":5126,
			"count":32,
			"max":[
				-3.25,
				-6,
				-1.75
			],
			"min":[
				-8.75,
				-6.5,
				-14.25
			],
			"type":"VEC3"
		},
		{
			"bufferView":9,
			"componentType":5126,
			"count":32,
			"type":"VEC3"
		},
		{
			"bufferView":10,
			"componentType":5126,
			"count":32,
			"type":"VEC2"
		},
		{
			"bufferView":11,
			"componentType":5123,
			"count":48,
			"type":"SCALAR"
		},
		{
			"bufferView":12,
			"componentType":5126,
			"count":12,
			"max":[
				-5.5,
				-7.75,
				-4.5
			],
			"min":[
				-6.5,
				-7.75,
				-11.5
			],
			"type":"VEC3"
		},
		{
			"bufferView":13,
			"componentType":5126,
			"count":12,
			"type":"VEC3"
		},
		{
			"bufferView":14,
			"componentType":5126,
			"count":12,
			"type":"VEC2"
		},
		{
			"bufferView":15,
			"componentType":5123,
			"count":24,
			"type":"SCALAR"
		},
		{
			"bufferView":16,
			"componentType":5126,
			"count":121,
			"max":[
				-2.375,
				-5.5,
				-0.25
			],
			"min":[
				-9.75,
				-7.75,
				-16.25
			],
			"type":"VEC3"
		},
		{
			"bufferView":17,
			"componentType":5126,
			"count":121,
			"type":"VEC3"
		},
		{
			"bufferView":18,
			"componentType":5126,
			"count":121,
			"type":"VEC2"
		},
		{
			"bufferView":19,
			"componentType":5123,
			"count":195,
			"type":"SCALAR"
		},
		{
			"bufferView":20,
			"componentType":5126,
			"count":8,
			"max":[
				-2.375,
				-5.5,
				-0.25
			],
			"min":[
				-9.75,
				-5.5,
				-16.25
			],
			"type":"VEC3"
		},
		{
			"bufferView":21,
			"componentType":5126,
			"count":8,
			"type":"VEC3"
		},
		{
			"bufferView":22,
			"componentType":5126,
			"count":8,
			"type":"VEC2"
		},
		{
			"bufferView":23,
			"componentType":5123,
			"count":18,
			"type":"SCALAR"
		},
		{
			"bufferView":24,
			"componentType":5126,
			"count":56,
			"max":[
				-2.625,
				-6,
				-0.5
			],
			"min":[
				-9.5,
				-7.5,
				-16
			],
			"type":"VEC3"
		},
		{
			"bufferView":25,
			"componentType":5126,
			"count":56,
			"type":"VEC3"
		},
		{
			"bufferView":26,
			"componentType":5126,
			"count":56,
			"type":"VEC2"
		},
		{
			"bufferView":27,
			"componentType":5123,
			"count":162,
			"type":"SCALAR"
		},
		{
			"bufferView":28,
			"componentType":5126,
			"count":80,
			"max":[
				-2.375,
				-5.75,
				-0.25
			],
			"min":[
				-9.75,
				-7.5,
				-16.25
			],
			"type":"VEC3"
		},
		{
			"bufferView":29,
			"componentType":5126,
			"count":80,
			"type":"VEC3"
		},
		{
			"bufferView":30,
			"componentType":5126,
			"count":80,
			"type":"VEC2"
		},
		{
			"bufferView":31,
			"componentType":5123,
			"count":144,
			"type":"SCALAR"
		},
		{
			"bufferView":32,
			"componentType":5126,
			"count":32,
			"max":[
				-3.25,
				-6,
				-1.75
			],
			"min":[
				-8.75,
				-6.5,
				-14.25
			],
			"type":"VEC3"
		},
		{
			"bufferView":33,
			"componentType":5126,
			"count":32,
			"type":"VEC3"
		},
		{
			"bufferView":34,
			"componentType":5126,
			"count":32,
			"type":"VEC2"
		},
		{
			"bufferView":35,
			"componentType":5123,
			"count":48,
			"type":"SCALAR"
		},
		{
			"bufferView":36,
			"componentType":5126,
			"count":8,
			"max":[
				-2.375,
				-5.5,
				-0.25
			],
			"min":[
				-9.75,
				-5.5,
				-16.25
			],
			"type":"VEC3"
		},
		{
			"bufferView":37,
			"componentType":5126,
			"count":8,
			"type":"VEC3"
		},
		{
			"bufferView":38,
			"componentType":5126,
			"count":8,
			"type":"VEC2"
		},
		{
			"bufferView":39,
			"componentType":5123,
			"count":18,
			"type":"SCALAR"
		},
		{
			"bufferView":40,
			"componentType":5126,
			"count":32,
			"max":[
				-2.375,
				-5.5,
				-0.25
			],
			"min":[
				-9.75,
				-5.75,
				-16.25
			],
			"type":"VEC3"
		},
		{
			"bufferView":41,
			"componentType":5126,
			"count":32,
			"type":"VEC3"
		},
		{
			"bufferView":42,
			"componentType":5126,
			"count":32,
			"type":"VEC2"
		},
		{
			"bufferView":43,
			"componentType":5123,
			"count":48,
			"type":"SCALAR"
		}
	],
	"bufferViews":[
		{
			"buffer":0,
			"byteLength":1536,
			"byteOffset":0,
			"target":34962
		},
		{
			"buffer":0,
			"byteLength":1536,
			"byteOffset":1536,
			"target":34962
		},
		{
			"buffer":0,
			"byteLength":1024,
			"byteOffset":3072,
			"target":34962
		},
		{
			"buffer":0,
			"byteLength":810,
			"byteOffset":4096,
			"target":34963
		},
		{
			"buffer":0,
			"byteLength":1128,
			"byteOffset":4908,
			"target":34962
		},
		{
			"buffer":0,
			"byteLength":1128,
			"byteOffset":6036,
			"target":34962
		},
		{
			"buffer":0,
			"byteLength":752,
			"byteOffset":7164,
			"target":34962
		},
		{
			"buffer":0,
			"byteLength":372,
			"byteOffset":7916,
			"target":34963
		},
		{
			"buffer":0,
			"byteLength":384,
			"byteOffset":8288,
			"target":34962
		},
		{
			"buffer":0,
			"byteLength":384,
			"byteOffset":8672,
			"target":34962
		},
		{
			"buffer":0,
			"byteLength":256,
			"byteOffset":9056,
			"target":34962
		},
		{
			"buffer":0,
			"byteLength":96,
			"byteOffset":9312,
			"target":34963
		},
		{
			"buffer":0,
			"byteLength":144,
			"byteOffset":9408,
			"target":34962
		},
		{
			"buffer":0,
			"byteLength":144,
			"byteOffset":9552,
			"target":34962
		},
		{
			"buffer":0,
			"byteLength":96,
			"byteOffset":9696,
			"target":34962
		},
		{
			"buffer":0,
			"byteLength":48,
			"byteOffset":9792,
			"target":34963
		},
		{
			"buffer":0,
			"byteLength":1452,
			"byteOffset":9840,
			"target":34962
		},
		{
			"buffer":0,
			"byteLength":1452,
			"byteOffset":11292,
			"target":34962
		},
		{
			"buffer":0,
			"byteLength":968,
			"byteOffset":12744,
			"target":34962
		},
		{
			"buffer":0,
			"byteLength":390,
			"byteOffset":13712,
			"target":34963
		},
		{
			"buffer":0,
			"byteLength":96,
			"byteOffset":14104,
			"target":34962
		},
		{
			"buffer":0,
			"byteLength":96,
			"byteOffset":14200,
			"target":34962
		},
		{
			"buffer":0,
			"byteLength":64,
			"byteOffset":14296,
			"target":34962
		},
		{
			"buffer":0,
			"byteLength":36,
			"byteOffset":14360,
			"target":34963
		},
		{
			"buffer":0,
			"byteLength":672,
			"byteOffset":14396,
			"target":34962
		},
		{
			"buffer":0,
			"byteLength":672,
			"byteOffset":15068,
			"target":34962
		},
		{
			"buffer":0,
			"byteLength":448,
			"byteOffset":15740,
			"target":34962
		},
		{
			"buffer":0,
			"byteLength":324,
			"byteOffset":16188,
			"target":34963
		},
		{
			"buffer":0,
			"byteLength":960,
			"byteOffset":16512,
			"target":34962
		},
		{
			"buffer":0,
			"byteLength":960,
			"byteOffset":17472,
			"target":34962
		},
		{
			"buffer":0,
			"byteLength":640,
			"byteOffset":18432,
			"target":34962
		},
		{
			"buffer":0,
			"byteLength":288,
			"byteOffset":19072,
			"target":34963
		},
		{
			"buffer":0,
			"byteLength":384,
			"byteOffset":19360,
			"target":34962
		},
		{
			"buffer":0,
			"byteLength":384,
			"byteOffset":19744,
			"target":34962
		},
		{
			"buffer":0,
			"byteLength":256,
			"byteOffset":20128,
			"target":34962
		},
		{
			"buffer":0,
			"byteLength":96,
			"byteOffset":20384,
			"target":34963
		},
		{
			"buffer":0,
			"byteLength":96,
			"byteOffset":20480,
			"target":34962
		},
		{
			"buffer":0,
			"byteLength":96,
			"byteOffset":20576,
			"target":34962
		},
		{
			"buffer":0,
			"byteLength":64,
			"byteOffset":20672,
			"target":34962
		},
		{
			"buffer":0,
			"byteLength":36,
			"byteOffset":20736,
			"target":34963
		},
		{
			"buffer":0,
			"byteLength":384,
			"byteOffset":20772,
			"target":34962
		},
		{
			"buffer":0,
			"byteLength":384,
			"byteOffset":21156,
			"target":34962
		},
		{
			"buffer":0,
			"byteLength":256,
			"byteOffset":21540,
			"target":34962
		},
		{
			"buffer":0,
			"byteLength":96,
			"byteOffset":21796,
			"target":34963
		}
	],
	"buffers":[
		{
			"byteLength":21892,
			"uri":"bplat1.bin"
		}
	]
}
