{
  "asset": {
    "generator": "Khronos glTF Blender I/O v4.5.48",
    "version": "2.0"
  },
  "scene": 0,
  "scenes": [
    {
      "name": "Scene",
      "nodes": [0, 1]
    }
  ],
  "nodes": [
    {
      "mesh": 0,
      "name": "Object"
    },
    {
      "mesh": 1,
      "name": "Object.001"
    }
  ],
  "materials": [
    {
      "doubleSided": true,
      "name": "BE_IFLO01A",
      "pbrMetallicRoughness": {
        "baseColorFactor": [
          0.800000011920929, 0.800000011920929, 0.800000011920929, 1
        ],
        "metallicFactor": 0,
        "roughnessFactor": 0.5
      }
    },
    {
      "doubleSided": true,
      "name": "BE_EWAL07",
      "pbrMetallicRoughness": {
        "baseColorFactor": [
          0.800000011920929, 0.800000011920929, 0.800000011920929, 1
        ],
        "metallicFactor": 0,
        "roughnessFactor": 0.5
      }
    },
    {
      "doubleSided": true,
      "name": "BE_EWAL01B",
      "pbrMetallicRoughness": {
        "baseColorFactor": [
          0.800000011920929, 0.800000011920929, 0.800000011920929, 1
        ],
        "metallicFactor": 0,
        "roughnessFactor": 0.5
      }
    },
    {
      "doubleSided": true,
      "name": "BE_EFLO01",
      "pbrMetallicRoughness": {
        "baseColorFactor": [
          0.800000011920929, 0.800000011920929, 0.800000011920929, 1
        ],
        "metallicFactor": 0,
        "roughnessFactor": 0.5
      }
    },
    {
      "doubleSided": true,
      "name": "BE_EWAL06",
      "pbrMetallicRoughness": {
        "baseColorFactor": [
          0.800000011920929, 0.800000011920929, 0.800000011920929, 1
        ],
        "metallicFactor": 0,
        "roughnessFactor": 0.5
      }
    },
    {
      "doubleSided": true,
      "name": "BE_IFLO01A.001",
      "pbrMetallicRoughness": {
        "baseColorFactor": [
          0.800000011920929, 0.800000011920929, 0.800000011920929, 1
        ],
        "metallicFactor": 0,
        "roughnessFactor": 0.5
      }
    },
    {
      "doubleSided": true,
      "name": "BE_EWAL07.001",
      "pbrMetallicRoughness": {
        "baseColorFactor": [
          0.800000011920929, 0.800000011920929, 0.800000011920929, 1
        ],
        "metallicFactor": 0,
        "roughnessFactor": 0.5
      }
    },
    {
      "doubleSided": true,
      "name": "BE_EWAL01B.001",
      "pbrMetallicRoughness": {
        "baseColorFactor": [
          0.800000011920929, 0.800000011920929, 0.800000011920929, 1
        ],
        "metallicFactor": 0,
        "roughnessFactor": 0.5
      }
    },
    {
      "doubleSided": true,
      "name": "BE_EFLO01.001",
      "pbrMetallicRoughness": {
        "baseColorFactor": [
          0.800000011920929, 0.800000011920929, 0.800000011920929, 1
        ],
        "metallicFactor": 0,
        "roughnessFactor": 0.5
      }
    },
    {
      "doubleSided": true,
      "name": "BE_EWAL06.001",
      "pbrMetallicRoughness": {
        "baseColorFactor": [
          0.800000011920929, 0.800000011920929, 0.800000011920929, 1
        ],
        "metallicFactor": 0,
        "roughnessFactor": 0.5
      }
    }
  ],
  "meshes": [
    {
      "name": "Mesh",
      "primitives": [
        {
          "attributes": {
            "POSITION": 0,
            "NORMAL": 1,
            "TEXCOORD_0": 2
          },
          "indices": 3,
          "material": 0
        },
        {
          "attributes": {
            "POSITION": 4,
            "NORMAL": 5,
            "TEXCOORD_0": 6
          },
          "indices": 7,
          "material": 1
        },
        {
          "attributes": {
            "POSITION": 8,
            "NORMAL": 9,
            "TEXCOORD_0": 10
          },
          "indices": 11,
          "material": 2
        },
        {
          "attributes": {
            "POSITION": 12,
            "NORMAL": 13,
            "TEXCOORD_0": 14
          },
          "indices": 15,
          "material": 3
        },
        {
          "attributes": {
            "POSITION": 16,
            "NORMAL": 17,
            "TEXCOORD_0": 18
          },
          "indices": 19,
          "material": 4
        }
      ]
    },
    {
      "name": "Mesh.001",
      "primitives": [
        {
          "attributes": {
            "POSITION": 20,
            "NORMAL": 21,
            "TEXCOORD_0": 22
          },
          "indices": 23,
          "material": 5
        },
        {
          "attributes": {
            "POSITION": 24,
            "NORMAL": 25,
            "TEXCOORD_0": 26
          },
          "indices": 23,
          "material": 6
        },
        {
          "attributes": {
            "POSITION": 27,
            "NORMAL": 28,
            "TEXCOORD_0": 29
          },
          "indices": 30,
          "material": 7
        },
        {
          "attributes": {
            "POSITION": 31,
            "NORMAL": 32,
            "TEXCOORD_0": 33
          },
          "indices": 34,
          "material": 8
        },
        {
          "attributes": {
            "POSITION": 35,
            "NORMAL": 36,
            "TEXCOORD_0": 37
          },
          "indices": 38,
          "material": 9
        }
      ]
    }
  ],
  "accessors": [
    {
      "bufferView": 0,
      "componentType": 5126,
      "count": 60,
      "max": [4.5, 0.75, 4.5],
      "min": [-4.5, 0.75, -4.5],
      "type": "VEC3"
    },
    {
      "bufferView": 1,
      "componentType": 5126,
      "count": 60,
      "type": "VEC3"
    },
    {
      "bufferView": 2,
      "componentType": 5126,
      "count": 60,
      "type": "VEC2"
    },
    {
      "bufferView": 3,
      "componentType": 5123,
      "count": 210,
      "type": "SCALAR"
    },
    {
      "bufferView": 4,
      "componentType": 5126,
      "count": 20,
      "max": [4.5, 1, 4.5],
      "min": [-4.5, -0.25, -4.5],
      "type": "VEC3"
    },
    {
      "bufferView": 5,
      "componentType": 5126,
      "count": 20,
      "type": "VEC3"
    },
    {
      "bufferView": 6,
      "componentType": 5126,
      "count": 20,
      "type": "VEC2"
    },
    {
      "bufferView": 7,
      "componentType": 5123,
      "count": 30,
      "type": "SCALAR"
    },
    {
      "bufferView": 8,
      "componentType": 5126,
      "count": 428,
      "max": [6, 2, 6],
      "min": [-6, -24, -6],
      "type": "VEC3"
    },
    {
      "bufferView": 9,
      "componentType": 5126,
      "count": 428,
      "type": "VEC3"
    },
    {
      "bufferView": 10,
      "componentType": 5126,
      "count": 428,
      "type": "VEC2"
    },
    {
      "bufferView": 11,
      "componentType": 5123,
      "count": 876,
      "type": "SCALAR"
    },
    {
      "bufferView": 12,
      "componentType": 5126,
      "count": 156,
      "max": [6, 2, 6],
      "min": [-6, 1, -6],
      "type": "VEC3"
    },
    {
      "bufferView": 13,
      "componentType": 5126,
      "count": 156,
      "type": "VEC3"
    },
    {
      "bufferView": 14,
      "componentType": 5126,
      "count": 156,
      "type": "VEC2"
    },
    {
      "bufferView": 15,
      "componentType": 5123,
      "count": 276,
      "type": "SCALAR"
    },
    {
      "bufferView": 16,
      "componentType": 5126,
      "count": 294,
      "max": [4.5, 1.25, 4.5],
      "min": [-4.5, 0.75, -4.5],
      "type": "VEC3"
    },
    {
      "bufferView": 17,
      "componentType": 5126,
      "count": 294,
      "type": "VEC3"
    },
    {
      "bufferView": 18,
      "componentType": 5126,
      "count": 294,
      "type": "VEC2"
    },
    {
      "bufferView": 19,
      "componentType": 5123,
      "count": 588,
      "type": "SCALAR"
    },
    {
      "bufferView": 20,
      "componentType": 5126,
      "count": 4,
      "max": [4, 0.75, 4],
      "min": [-4, 0.75, -4],
      "type": "VEC3"
    },
    {
      "bufferView": 21,
      "componentType": 5126,
      "count": 4,
      "type": "VEC3"
    },
    {
      "bufferView": 22,
      "componentType": 5126,
      "count": 4,
      "type": "VEC2"
    },
    {
      "bufferView": 23,
      "componentType": 5123,
      "count": 6,
      "type": "SCALAR"
    },
    {
      "bufferView": 24,
      "componentType": 5126,
      "count": 4,
      "max": [4.5, -0.25, 4.5],
      "min": [-4.5, -0.25, -4.5],
      "type": "VEC3"
    },
    {
      "bufferView": 25,
      "componentType": 5126,
      "count": 4,
      "type": "VEC3"
    },
    {
      "bufferView": 26,
      "componentType": 5126,
      "count": 4,
      "type": "VEC2"
    },
    {
      "bufferView": 27,
      "componentType": 5126,
      "count": 444,
      "max": [6, 2, 6],
      "min": [-6, -24, -6],
      "type": "VEC3"
    },
    {
      "bufferView": 28,
      "componentType": 5126,
      "count": 444,
      "type": "VEC3"
    },
    {
      "bufferView": 29,
      "componentType": 5126,
      "count": 444,
      "type": "VEC2"
    },
    {
      "bufferView": 30,
      "componentType": 5123,
      "count": 864,
      "type": "SCALAR"
    },
    {
      "bufferView": 31,
      "componentType": 5126,
      "count": 100,
      "max": [6, 2, 5],
      "min": [-6, 1.25, -6],
      "type": "VEC3"
    },
    {
      "bufferView": 32,
      "componentType": 5126,
      "count": 100,
      "type": "VEC3"
    },
    {
      "bufferView": 33,
      "componentType": 5126,
      "count": 100,
      "type": "VEC2"
    },
    {
      "bufferView": 34,
      "componentType": 5123,
      "count": 216,
      "type": "SCALAR"
    },
    {
      "bufferView": 35,
      "componentType": 5126,
      "count": 108,
      "max": [4.5, 1.25, 4.5],
      "min": [-4.5, 0.75, -4.5],
      "type": "VEC3"
    },
    {
      "bufferView": 36,
      "componentType": 5126,
      "count": 108,
      "type": "VEC3"
    },
    {
      "bufferView": 37,
      "componentType": 5126,
      "count": 108,
      "type": "VEC2"
    },
    {
      "bufferView": 38,
      "componentType": 5123,
      "count": 216,
      "type": "SCALAR"
    }
  ],
  "bufferViews": [
    {
      "buffer": 0,
      "byteLength": 720,
      "byteOffset": 0,
      "target": 34962
    },
    {
      "buffer": 0,
      "byteLength": 720,
      "byteOffset": 720,
      "target": 34962
    },
    {
      "buffer": 0,
      "byteLength": 480,
      "byteOffset": 1440,
      "target": 34962
    },
    {
      "buffer": 0,
      "byteLength": 420,
      "byteOffset": 1920,
      "target": 34963
    },
    {
      "buffer": 0,
      "byteLength": 240,
      "byteOffset": 2340,
      "target": 34962
    },
    {
      "buffer": 0,
      "byteLength": 240,
      "byteOffset": 2580,
      "target": 34962
    },
    {
      "buffer": 0,
      "byteLength": 160,
      "byteOffset": 2820,
      "target": 34962
    },
    {
      "buffer": 0,
      "byteLength": 60,
      "byteOffset": 2980,
      "target": 34963
    },
    {
      "buffer": 0,
      "byteLength": 5136,
      "byteOffset": 3040,
      "target": 34962
    },
    {
      "buffer": 0,
      "byteLength": 5136,
      "byteOffset": 8176,
      "target": 34962
    },
    {
      "buffer": 0,
      "byteLength": 3424,
      "byteOffset": 13312,
      "target": 34962
    },
    {
      "buffer": 0,
      "byteLength": 1752,
      "byteOffset": 16736,
      "target": 34963
    },
    {
      "buffer": 0,
      "byteLength": 1872,
      "byteOffset": 18488,
      "target": 34962
    },
    {
      "buffer": 0,
      "byteLength": 1872,
      "byteOffset": 20360,
      "target": 34962
    },
    {
      "buffer": 0,
      "byteLength": 1248,
      "byteOffset": 22232,
      "target": 34962
    },
    {
      "buffer": 0,
      "byteLength": 552,
      "byteOffset": 23480,
      "target": 34963
    },
    {
      "buffer": 0,
      "byteLength": 3528,
      "byteOffset": 24032,
      "target": 34962
    },
    {
      "buffer": 0,
      "byteLength": 3528,
      "byteOffset": 27560,
      "target": 34962
    },
    {
      "buffer": 0,
      "byteLength": 2352,
      "byteOffset": 31088,
      "target": 34962
    },
    {
      "buffer": 0,
      "byteLength": 1176,
      "byteOffset": 33440,
      "target": 34963
    },
    {
      "buffer": 0,
      "byteLength": 48,
      "byteOffset": 34616,
      "target": 34962
    },
    {
      "buffer": 0,
      "byteLength": 48,
      "byteOffset": 34664,
      "target": 34962
    },
    {
      "buffer": 0,
      "byteLength": 32,
      "byteOffset": 34712,
      "target": 34962
    },
    {
      "buffer": 0,
      "byteLength": 12,
      "byteOffset": 34744,
      "target": 34963
    },
    {
      "buffer": 0,
      "byteLength": 48,
      "byteOffset": 34756,
      "target": 34962
    },
    {
      "buffer": 0,
      "byteLength": 48,
      "byteOffset": 34804,
      "target": 34962
    },
    {
      "buffer": 0,
      "byteLength": 32,
      "byteOffset": 34852,
      "target": 34962
    },
    {
      "buffer": 0,
      "byteLength": 5328,
      "byteOffset": 34884,
      "target": 34962
    },
    {
      "buffer": 0,
      "byteLength": 5328,
      "byteOffset": 40212,
      "target": 34962
    },
    {
      "buffer": 0,
      "byteLength": 3552,
      "byteOffset": 45540,
      "target": 34962
    },
    {
      "buffer": 0,
      "byteLength": 1728,
      "byteOffset": 49092,
      "target": 34963
    },
    {
      "buffer": 0,
      "byteLength": 1200,
      "byteOffset": 50820,
      "target": 34962
    },
    {
      "buffer": 0,
      "byteLength": 1200,
      "byteOffset": 52020,
      "target": 34962
    },
    {
      "buffer": 0,
      "byteLength": 800,
      "byteOffset": 53220,
      "target": 34962
    },
    {
      "buffer": 0,
      "byteLength": 432,
      "byteOffset": 54020,
      "target": 34963
    },
    {
      "buffer": 0,
      "byteLength": 1296,
      "byteOffset": 54452,
      "target": 34962
    },
    {
      "buffer": 0,
      "byteLength": 1296,
      "byteOffset": 55748,
      "target": 34962
    },
    {
      "buffer": 0,
      "byteLength": 864,
      "byteOffset": 57044,
      "target": 34962
    },
    {
      "buffer": 0,
      "byteLength": 432,
      "byteOffset": 57908,
      "target": 34963
    }
  ],
  "buffers": [
    {
      "byteLength": 58340,
      "uri": "bplat6.bin"
    }
  ]
}
