{
	"asset":{
		"generator":"Khronos glTF Blender I/O v4.5.48",
		"version":"2.0"
	},
	"scene":0,
	"scenes":[
		{
			"name":"Scene",
			"nodes":[
				0,
				1
			]
		}
	],
	"nodes":[
		{
			"mesh":0,
			"name":"Object"
		},
		{
			"mesh":1,
			"name":"Object.001"
		}
	],
	"materials":[
		{
			"doubleSided":true,
			"name":"BE_EWAL01B",
			"pbrMetallicRoughness":{
				"baseColorFactor":[
					0.800000011920929,
					0.800000011920929,
					0.800000011920929,
					1
				],
				"metallicFactor":0,
				"roughnessFactor":0.5
			}
		},
		{
			"doubleSided":true,
			"name":"BE_EWAL07",
			"pbrMetallicRoughness":{
				"baseColorFactor":[
					0.800000011920929,
					0.800000011920929,
					0.800000011920929,
					1
				],
				"metallicFactor":0,
				"roughnessFactor":0.5
			}
		},
		{
			"doubleSided":true,
			"name":"BE_ICOLIG01",
			"pbrMetallicRoughness":{
				"baseColorFactor":[
					0.800000011920929,
					0.800000011920929,
					0.800000011920929,
					1
				],
				"metallicFactor":0,
				"roughnessFactor":0.5
			}
		},
		{
			"doubleSided":true,
			"name":"BE_ITELIG01",
			"pbrMetallicRoughness":{
				"baseColorFactor":[
					0.800000011920929,
					0.800000011920929,
					0.800000011920929,
					1
				],
				"metallicFactor":0,
				"roughnessFactor":0.5
			}
		},
		{
			"doubleSided":true,
			"name":"BE_EWAL04A",
			"pbrMetallicRoughness":{
				"baseColorFactor":[
					0.800000011920929,
					0.800000011920929,
					0.800000011920929,
					1
				],
				"metallicFactor":0,
				"roughnessFactor":0.5
			}
		},
		{
			"doubleSided":true,
			"name":"BE_ITEBOR02",
			"pbrMetallicRoughness":{
				"baseColorFactor":[
					0.800000011920929,
					0.800000011920929,
					0.800000011920929,
					1
				],
				"metallicFactor":0,
				"roughnessFactor":0.5
			}
		},
		{
			"doubleSided":true,
			"name":"BE_ELIG02",
			"pbrMetallicRoughness":{
				"baseColorFactor":[
					0.800000011920929,
					0.800000011920929,
					0.800000011920929,
					1
				],
				"metallicFactor":0,
				"roughnessFactor":0.5
			}
		},
		{
			"doubleSided":true,
			"name":"BE_EBOR03",
			"pbrMetallicRoughness":{
				"baseColorFactor":[
					0.800000011920929,
					0.800000011920929,
					0.800000011920929,
					1
				],
				"metallicFactor":0,
				"roughnessFactor":0.5
			}
		},
		{
			"doubleSided":true,
			"name":"BE_EWAL01B.001",
			"pbrMetallicRoughness":{
				"baseColorFactor":[
					0.800000011920929,
					0.800000011920929,
					0.800000011920929,
					1
				],
				"metallicFactor":0,
				"roughnessFactor":0.5
			}
		},
		{
			"doubleSided":true,
			"name":"BE_EWAL07.001",
			"pbrMetallicRoughness":{
				"baseColorFactor":[
					0.800000011920929,
					0.800000011920929,
					0.800000011920929,
					1
				],
				"metallicFactor":0,
				"roughnessFactor":0.5
			}
		},
		{
			"doubleSided":true,
			"name":"BE_ICOLIG01.001",
			"pbrMetallicRoughness":{
				"baseColorFactor":[
					0.800000011920929,
					0.800000011920929,
					0.800000011920929,
					1
				],
				"metallicFactor":0,
				"roughnessFactor":0.5
			}
		},
		{
			"doubleSided":true,
			"name":"BE_ITELIG01.001",
			"pbrMetallicRoughness":{
				"baseColorFactor":[
					0.800000011920929,
					0.800000011920929,
					0.800000011920929,
					1
				],
				"metallicFactor":0,
				"roughnessFactor":0.5
			}
		},
		{
			"doubleSided":true,
			"name":"BE_EWAL04A.001",
			"pbrMetallicRoughness":{
				"baseColorFactor":[
					0.800000011920929,
					0.800000011920929,
					0.800000011920929,
					1
				],
				"metallicFactor":0,
				"roughnessFactor":0.5
			}
		},
		{
			"doubleSided":true,
			"name":"BE_ITEBOR02.001",
			"pbrMetallicRoughness":{
				"baseColorFactor":[
					0.800000011920929,
					0.800000011920929,
					0.800000011920929,
					1
				],
				"metallicFactor":0,
				"roughnessFactor":0.5
			}
		},
		{
			"doubleSided":true,
			"name":"BE_ELIG02.001",
			"pbrMetallicRoughness":{
				"baseColorFactor":[
					0.800000011920929,
					0.800000011920929,
					0.800000011920929,
					1
				],
				"metallicFactor":0,
				"roughnessFactor":0.5
			}
		}
	],
	"meshes":[
		{
			"name":"Mesh",
			"primitives":[
				{
					"attributes":{
						"POSITION":0,
						"NORMAL":1,
						"TEXCOORD_0":2
					},
					"indices":3,
					"material":0
				},
				{
					"attributes":{
						"POSITION":4,
						"NORMAL":5,
						"TEXCOORD_0":6
					},
					"indices":7,
					"material":1
				},
				{
					"attributes":{
						"POSITION":8,
						"NORMAL":9,
						"TEXCOORD_0":10
					},
					"indices":11,
					"material":2
				},
				{
					"attributes":{
						"POSITION":12,
						"NORMAL":13,
						"TEXCOORD_0":14
					},
					"indices":15,
					"material":3
				},
				{
					"attributes":{
						"POSITION":16,
						"NORMAL":17,
						"TEXCOORD_0":18
					},
					"indices":19,
					"material":4
				},
				{
					"attributes":{
						"POSITION":20,
						"NORMAL":21,
						"TEXCOORD_0":22
					},
					"indices":23,
					"material":5
				},
				{
					"attributes":{
						"POSITION":24,
						"NORMAL":25,
						"TEXCOORD_0":26
					},
					"indices":27,
					"material":6
				},
				{
					"attributes":{
						"POSITION":28,
						"NORMAL":29,
						"TEXCOORD_0":30
					},
					"indices":31,
					"material":7
				}
			]
		},
		{
			"name":"Mesh.001",
			"primitives":[
				{
					"attributes":{
						"POSITION":32,
						"NORMAL":33,
						"TEXCOORD_0":34
					},
					"indices":35,
					"material":8
				},
				{
					"attributes":{
						"POSITION":36,
						"NORMAL":37,
						"TEXCOORD_0":38
					},
					"indices":39,
					"material":9
				},
				{
					"attributes":{
						"POSITION":40,
						"NORMAL":41,
						"TEXCOORD_0":42
					},
					"indices":43,
					"material":10
				},
				{
					"attributes":{
						"POSITION":44,
						"NORMAL":45,
						"TEXCOORD_0":46
					},
					"indices":47,
					"material":11
				},
				{
					"attributes":{
						"POSITION":48,
						"NORMAL":49,
						"TEXCOORD_0":50
					},
					"indices":19,
					"material":12
				},
				{
					"attributes":{
						"POSITION":51,
						"NORMAL":52,
						"TEXCOORD_0":53
					},
					"indices":54,
					"material":13
				},
				{
					"attributes":{
						"POSITION":55,
						"NORMAL":56,
						"TEXCOORD_0":57
					},
					"indices":58,
					"material":14
				}
			]
		}
	],
	"accessors":[
		{
			"bufferView":0,
			"componentType":5126,
			"count":86,
			"max":[
				8.25,
				-5,
				13
			],
			"min":[
				-14.25,
				-5.5,
				-1
			],
			"type":"VEC3"
		},
		{
			"bufferView":1,
			"componentType":5126,
			"count":86,
			"type":"VEC3"
		},
		{
			"bufferView":2,
			"componentType":5126,
			"count":86,
			"type":"VEC2"
		},
		{
			"bufferView":3,
			"componentType":5123,
			"count":231,
			"type":"SCALAR"
		},
		{
			"bufferView":4,
			"componentType":5126,
			"count":114,
			"max":[
				8.25,
				-4.28125,
				13
			],
			"min":[
				-14.25,
				-7,
				-1
			],
			"type":"VEC3"
		},
		{
			"bufferView":5,
			"componentType":5126,
			"count":114,
			"type":"VEC3"
		},
		{
			"bufferView":6,
			"componentType":5126,
			"count":114,
			"type":"VEC2"
		},
		{
			"bufferView":7,
			"componentType":5123,
			"count":342,
			"type":"SCALAR"
		},
		{
			"bufferView":8,
			"componentType":5126,
			"count":115,
			"max":[
				8.25,
				-4.75,
				13
			],
			"min":[
				-14.25,
				-7,
				-1
			],
			"type":"VEC3"
		},
		{
			"bufferView":9,
			"componentType":5126,
			"count":115,
			"type":"VEC3"
		},
		{
			"bufferView":10,
			"componentType":5126,
			"count":115,
			"type":"VEC2"
		},
		{
			"bufferView":11,
			"componentType":5123,
			"count":225,
			"type":"SCALAR"
		},
		{
			"bufferView":12,
			"componentType":5126,
			"count":18,
			"max":[
				-2.4901614566885796e-15,
				-7,
				9
			],
			"min":[
				-6,
				-8.0625,
				3
			],
			"type":"VEC3"
		},
		{
			"bufferView":13,
			"componentType":5126,
			"count":18,
			"type":"VEC3"
		},
		{
			"bufferView":14,
			"componentType":5126,
			"count":18,
			"type":"VEC2"
		},
		{
			"bufferView":15,
			"componentType":5123,
			"count":18,
			"type":"SCALAR"
		},
		{
			"bufferView":16,
			"componentType":5126,
			"count":8,
			"max":[
				7.522798538208008,
				-3.28125,
				12.54345703125
			],
			"min":[
				-13.522798538208008,
				-3.28125,
				-0.564453125
			],
			"type":"VEC3"
		},
		{
			"bufferView":17,
			"componentType":5126,
			"count":8,
			"type":"VEC3"
		},
		{
			"bufferView":18,
			"componentType":5126,
			"count":8,
			"type":"VEC2"
		},
		{
			"bufferView":19,
			"componentType":5123,
			"count":18,
			"type":"SCALAR"
		},
		{
			"bufferView":20,
			"componentType":5126,
			"count":40,
			"max":[
				8.25,
				-3.28125,
				13
			],
			"min":[
				-14.25,
				-4.28125,
				-1
			],
			"type":"VEC3"
		},
		{
			"bufferView":21,
			"componentType":5126,
			"count":40,
			"type":"VEC3"
		},
		{
			"bufferView":22,
			"componentType":5126,
			"count":40,
			"type":"VEC2"
		},
		{
			"bufferView":23,
			"componentType":5123,
			"count":72,
			"type":"SCALAR"
		},
		{
			"bufferView":24,
			"componentType":5126,
			"count":56,
			"max":[
				7.5,
				-4.28125,
				12.53125
			],
			"min":[
				-13.5,
				-6.5,
				-0.53125
			],
			"type":"VEC3"
		},
		{
			"bufferView":25,
			"componentType":5126,
			"count":56,
			"type":"VEC3"
		},
		{
			"bufferView":26,
			"componentType":5126,
			"count":56,
			"type":"VEC2"
		},
		{
			"bufferView":27,
			"componentType":5123,
			"count":84,
			"type":"SCALAR"
		},
		{
			"bufferView":28,
			"componentType":5126,
			"count":48,
			"max":[
				5.75,
				-5,
				6.5
			],
			"min":[
				-11.75,
				-5.25,
				5.5
			],
			"type":"VEC3"
		},
		{
			"bufferView":29,
			"componentType":5126,
			"count":48,
			"type":"VEC3"
		},
		{
			"bufferView":30,
			"componentType":5126,
			"count":48,
			"type":"VEC2"
		},
		{
			"bufferView":31,
			"componentType":5123,
			"count":72,
			"type":"SCALAR"
		},
		{
			"bufferView":32,
			"componentType":5126,
			"count":62,
			"max":[
				8.25,
				-5,
				13
			],
			"min":[
				-14.25,
				-5.5,
				-1
			],
			"type":"VEC3"
		},
		{
			"bufferView":33,
			"componentType":5126,
			"count":62,
			"type":"VEC3"
		},
		{
			"bufferView":34,
			"componentType":5126,
			"count":62,
			"type":"VEC2"
		},
		{
			"bufferView":35,
			"componentType":5123,
			"count":129,
			"type":"SCALAR"
		},
		{
			"bufferView":36,
			"componentType":5126,
			"count":102,
			"max":[
				8.25,
				-4.28125,
				13
			],
			"min":[
				-14.25,
				-7,
				-1
			],
			"type":"VEC3"
		},
		{
			"bufferView":37,
			"componentType":5126,
			"count":102,
			"type":"VEC3"
		},
		{
			"bufferView":38,
			"componentType":5126,
			"count":102,
			"type":"VEC2"
		},
		{
			"bufferView":39,
			"componentType":5123,
			"count":318,
			"type":"SCALAR"
		},
		{
			"bufferView":40,
			"componentType":5126,
			"count":109,
			"max":[
				8.25,
				-4.75,
				13
			],
			"min":[
				-14.25,
				-7,
				-1
			],
			"type":"VEC3"
		},
		{
			"bufferView":41,
			"componentType":5126,
			"count":109,
			"type":"VEC3"
		},
		{
			"bufferView":42,
			"componentType":5126,
			"count":109,
			"type":"VEC2"
		},
		{
			"bufferView":43,
			"componentType":5123,
			"count":207,
			"type":"SCALAR"
		},
		{
			"bufferView":44,
			"componentType":5126,
			"count":18,
			"max":[
				-2.4901614566885796e-15,
				-7,
				9
			],
			"min":[
				-6,
				-8.0625,
				3
			],
			"type":"VEC3"
		},
		{
			"bufferView":45,
			"componentType":5126,
			"count":18,
			"type":"VEC3"
		},
		{
			"bufferView":46,
			"componentType":5126,
			"count":18,
			"type":"VEC2"
		},
		{
			"bufferView":47,
			"componentType":5123,
			"count":18,
			"type":"SCALAR"
		},
		{
			"bufferView":48,
			"componentType":5126,
			"count":8,
			"max":[
				7.522798538208008,
				-3.28125,
				12.54345703125
			],
			"min":[
				-13.522798538208008,
				-3.28125,
				-0.564453125
			],
			"type":"VEC3"
		},
		{
			"bufferView":49,
			"componentType":5126,
			"count":8,
			"type":"VEC3"
		},
		{
			"bufferView":50,
			"componentType":5126,
			"count":8,
			"type":"VEC2"
		},
		{
			"bufferView":51,
			"componentType":5126,
			"count":40,
			"max":[
				8.25,
				-3.28125,
				13
			],
			"min":[
				-14.25,
				-4.28125,
				-1
			],
			"type":"VEC3"
		},
		{
			"bufferView":52,
			"componentType":5126,
			"count":40,
			"type":"VEC3"
		},
		{
			"bufferView":53,
			"componentType":5126,
			"count":40,
			"type":"VEC2"
		},
		{
			"bufferView":54,
			"componentType":5123,
			"count":72,
			"type":"SCALAR"
		},
		{
			"bufferView":55,
			"componentType":5126,
			"count":56,
			"max":[
				7.5,
				-4.28125,
				12.53125
			],
			"min":[
				-13.5,
				-6.5,
				-0.53125
			],
			"type":"VEC3"
		},
		{
			"bufferView":56,
			"componentType":5126,
			"count":56,
			"type":"VEC3"
		},
		{
			"bufferView":57,
			"componentType":5126,
			"count":56,
			"type":"VEC2"
		},
		{
			"bufferView":58,
			"componentType":5123,
			"count":84,
			"type":"SCALAR"
		}
	],
	"bufferViews":[
		{
			"buffer":0,
			"byteLength":1032,
			"byteOffset":0,
			"target":34962
		},
		{
			"buffer":0,
			"byteLength":1032,
			"byteOffset":1032,
			"target":34962
		},
		{
			"buffer":0,
			"byteLength":688,
			"byteOffset":2064,
			"target":34962
		},
		{
			"buffer":0,
			"byteLength":462,
			"byteOffset":2752,
			"target":34963
		},
		{
			"buffer":0,
			"byteLength":1368,
			"byteOffset":3216,
			"target":34962
		},
		{
			"buffer":0,
			"byteLength":1368,
			"byteOffset":4584,
			"target":34962
		},
		{
			"buffer":0,
			"byteLength":912,
			"byteOffset":5952,
			"target":34962
		},
		{
			"buffer":0,
			"byteLength":684,
			"byteOffset":6864,
			"target":34963
		},
		{
			"buffer":0,
			"byteLength":1380,
			"byteOffset":7548,
			"target":34962
		},
		{
			"buffer":0,
			"byteLength":1380,
			"byteOffset":8928,
			"target":34962
		},
		{
			"buffer":0,
			"byteLength":920,
			"byteOffset":10308,
			"target":34962
		},
		{
			"buffer":0,
			"byteLength":450,
			"byteOffset":11228,
			"target":34963
		},
		{
			"buffer":0,
			"byteLength":216,
			"byteOffset":11680,
			"target":34962
		},
		{
			"buffer":0,
			"byteLength":216,
			"byteOffset":11896,
			"target":34962
		},
		{
			"buffer":0,
			"byteLength":144,
			"byteOffset":12112,
			"target":34962
		},
		{
			"buffer":0,
			"byteLength":36,
			"byteOffset":12256,
			"target":34963
		},
		{
			"buffer":0,
			"byteLength":96,
			"byteOffset":12292,
			"target":34962
		},
		{
			"buffer":0,
			"byteLength":96,
			"byteOffset":12388,
			"target":34962
		},
		{
			"buffer":0,
			"byteLength":64,
			"byteOffset":12484,
			"target":34962
		},
		{
			"buffer":0,
			"byteLength":36,
			"byteOffset":12548,
			"target":34963
		},
		{
			"buffer":0,
			"byteLength":480,
			"byteOffset":12584,
			"target":34962
		},
		{
			"buffer":0,
			"byteLength":480,
			"byteOffset":13064,
			"target":34962
		},
		{
			"buffer":0,
			"byteLength":320,
			"byteOffset":13544,
			"target":34962
		},
		{
			"buffer":0,
			"byteLength":144,
			"byteOffset":13864,
			"target":34963
		},
		{
			"buffer":0,
			"byteLength":672,
			"byteOffset":14008,
			"target":34962
		},
		{
			"buffer":0,
			"byteLength":672,
			"byteOffset":14680,
			"target":34962
		},
		{
			"buffer":0,
			"byteLength":448,
			"byteOffset":15352,
			"target":34962
		},
		{
			"buffer":0,
			"byteLength":168,
			"byteOffset":15800,
			"target":34963
		},
		{
			"buffer":0,
			"byteLength":576,
			"byteOffset":15968,
			"target":34962
		},
		{
			"buffer":0,
			"byteLength":576,
			"byteOffset":16544,
			"target":34962
		},
		{
			"buffer":0,
			"byteLength":384,
			"byteOffset":17120,
			"target":34962
		},
		{
			"buffer":0,
			"byteLength":144,
			"byteOffset":17504,
			"target":34963
		},
		{
			"buffer":0,
			"byteLength":744,
			"byteOffset":17648,
			"target":34962
		},
		{
			"buffer":0,
			"byteLength":744,
			"byteOffset":18392,
			"target":34962
		},
		{
			"buffer":0,
			"byteLength":496,
			"byteOffset":19136,
			"target":34962
		},
		{
			"buffer":0,
			"byteLength":258,
			"byteOffset":19632,
			"target":34963
		},
		{
			"buffer":0,
			"byteLength":1224,
			"byteOffset":19892,
			"target":34962
		},
		{
			"buffer":0,
			"byteLength":1224,
			"byteOffset":21116,
			"target":34962
		},
		{
			"buffer":0,
			"byteLength":816,
			"byteOffset":22340,
			"target":34962
		},
		{
			"buffer":0,
			"byteLength":636,
			"byteOffset":23156,
			"target":34963
		},
		{
			"buffer":0,
			"byteLength":1308,
			"byteOffset":23792,
			"target":34962
		},
		{
			"buffer":0,
			"byteLength":1308,
			"byteOffset":25100,
			"target":34962
		},
		{
			"buffer":0,
			"byteLength":872,
			"byteOffset":26408,
			"target":34962
		},
		{
			"buffer":0,
			"byteLength":414,
			"byteOffset":27280,
			"target":34963
		},
		{
			"buffer":0,
			"byteLength":216,
			"byteOffset":27696,
			"target":34962
		},
		{
			"buffer":0,
			"byteLength":216,
			"byteOffset":27912,
			"target":34962
		},
		{
			"buffer":0,
			"byteLength":144,
			"byteOffset":28128,
			"target":34962
		},
		{
			"buffer":0,
			"byteLength":36,
			"byteOffset":28272,
			"target":34963
		},
		{
			"buffer":0,
			"byteLength":96,
			"byteOffset":28308,
			"target":34962
		},
		{
			"buffer":0,
			"byteLength":96,
			"byteOffset":28404,
			"target":34962
		},
		{
			"buffer":0,
			"byteLength":64,
			"byteOffset":28500,
			"target":34962
		},
		{
			"buffer":0,
			"byteLength":480,
			"byteOffset":28564,
			"target":34962
		},
		{
			"buffer":0,
			"byteLength":480,
			"byteOffset":29044,
			"target":34962
		},
		{
			"buffer":0,
			"byteLength":320,
			"byteOffset":29524,
			"target":34962
		},
		{
			"buffer":0,
			"byteLength":144,
			"byteOffset":29844,
			"target":34963
		},
		{
			"buffer":0,
			"byteLength":672,
			"byteOffset":29988,
			"target":34962
		},
		{
			"buffer":0,
			"byteLength":672,
			"byteOffset":30660,
			"target":34962
		},
		{
			"buffer":0,
			"byteLength":448,
			"byteOffset":31332,
			"target":34962
		},
		{
			"buffer":0,
			"byteLength":168,
			"byteOffset":31780,
			"target":34963
		}
	],
	"buffers":[
		{
			"byteLength":31948,
			"uri":"bplat2.bin"
		}
	]
}
