{
	"asset":{
		"generator":"Khronos glTF Blender I/O v4.5.48",
		"version":"2.0"
	},
	"scene":0,
	"scenes":[
		{
			"name":"Scene",
			"nodes":[
				0,
				1
			]
		}
	],
	"nodes":[
		{
			"mesh":0,
			"name":"Object"
		},
		{
			"mesh":1,
			"name":"Object.001"
		}
	],
	"materials":[
		{
			"doubleSided":true,
			"name":"BE_EWAL07",
			"pbrMetallicRoughness":{
				"baseColorFactor":[
					0.800000011920929,
					0.800000011920929,
					0.800000011920929,
					1
				],
				"metallicFactor":0,
				"roughnessFactor":0.5
			}
		},
		{
			"doubleSided":true,
			"name":"BE_EWAL01B",
			"pbrMetallicRoughness":{
				"baseColorFactor":[
					0.800000011920929,
					0.800000011920929,
					0.800000011920929,
					1
				],
				"metallicFactor":0,
				"roughnessFactor":0.5
			}
		},
		{
			"doubleSided":true,
			"name":"BE_EWAL04A",
			"pbrMetallicRoughness":{
				"baseColorFactor":[
					0.800000011920929,
					0.800000011920929,
					0.800000011920929,
					1
				],
				"metallicFactor":0,
				"roughnessFactor":0.5
			}
		},
		{
			"doubleSided":true,
			"name":"BE_ELIG03",
			"pbrMetallicRoughness":{
				"baseColorFactor":[
					0.800000011920929,
					0.800000011920929,
					0.800000011920929,
					1
				],
				"metallicFactor":0,
				"roughnessFactor":0.5
			}
		},
		{
			"doubleSided":true,
			"name":"BE_EBOR01B",
			"pbrMetallicRoughness":{
				"baseColorFactor":[
					0.800000011920929,
					0.800000011920929,
					0.800000011920929,
					1
				],
				"metallicFactor":0,
				"roughnessFactor":0.5
			}
		},
		{
			"doubleSided":true,
			"name":"BE_ESPEC05",
			"pbrMetallicRoughness":{
				"baseColorFactor":[
					0.800000011920929,
					0.800000011920929,
					0.800000011920929,
					1
				],
				"metallicFactor":0,
				"roughnessFactor":0.5
			}
		},
		{
			"doubleSided":true,
			"name":"BE_EWAL07.001",
			"pbrMetallicRoughness":{
				"baseColorFactor":[
					0.800000011920929,
					0.800000011920929,
					0.800000011920929,
					1
				],
				"metallicFactor":0,
				"roughnessFactor":0.5
			}
		},
		{
			"doubleSided":true,
			"name":"BE_EWAL01B.001",
			"pbrMetallicRoughness":{
				"baseColorFactor":[
					0.800000011920929,
					0.800000011920929,
					0.800000011920929,
					1
				],
				"metallicFactor":0,
				"roughnessFactor":0.5
			}
		},
		{
			"doubleSided":true,
			"name":"BE_EWAL04A.001",
			"pbrMetallicRoughness":{
				"baseColorFactor":[
					0.800000011920929,
					0.800000011920929,
					0.800000011920929,
					1
				],
				"metallicFactor":0,
				"roughnessFactor":0.5
			}
		},
		{
			"doubleSided":true,
			"name":"BE_ELIG03.001",
			"pbrMetallicRoughness":{
				"baseColorFactor":[
					0.800000011920929,
					0.800000011920929,
					0.800000011920929,
					1
				],
				"metallicFactor":0,
				"roughnessFactor":0.5
			}
		},
		{
			"doubleSided":true,
			"name":"BE_EBOR01B.001",
			"pbrMetallicRoughness":{
				"baseColorFactor":[
					0.800000011920929,
					0.800000011920929,
					0.800000011920929,
					1
				],
				"metallicFactor":0,
				"roughnessFactor":0.5
			}
		},
		{
			"doubleSided":true,
			"name":"BE_ESPEC05.001",
			"pbrMetallicRoughness":{
				"baseColorFactor":[
					0.800000011920929,
					0.800000011920929,
					0.800000011920929,
					1
				],
				"metallicFactor":0,
				"roughnessFactor":0.5
			}
		}
	],
	"meshes":[
		{
			"name":"Mesh",
			"primitives":[
				{
					"attributes":{
						"POSITION":0,
						"NORMAL":1,
						"TEXCOORD_0":2
					},
					"indices":3,
					"material":0
				},
				{
					"attributes":{
						"POSITION":4,
						"NORMAL":5,
						"TEXCOORD_0":6
					},
					"indices":7,
					"material":1
				},
				{
					"attributes":{
						"POSITION":8,
						"NORMAL":9,
						"TEXCOORD_0":10
					},
					"indices":11,
					"material":2
				},
				{
					"attributes":{
						"POSITION":12,
						"NORMAL":13,
						"TEXCOORD_0":14
					},
					"indices":15,
					"material":3
				},
				{
					"attributes":{
						"POSITION":16,
						"NORMAL":17,
						"TEXCOORD_0":18
					},
					"indices":19,
					"material":4
				},
				{
					"attributes":{
						"POSITION":20,
						"NORMAL":21,
						"TEXCOORD_0":22
					},
					"indices":23,
					"material":5
				}
			]
		},
		{
			"name":"Mesh.001",
			"primitives":[
				{
					"attributes":{
						"POSITION":24,
						"NORMAL":25,
						"TEXCOORD_0":26
					},
					"indices":27,
					"material":6
				},
				{
					"attributes":{
						"POSITION":28,
						"NORMAL":29,
						"TEXCOORD_0":30
					},
					"indices":31,
					"material":7
				},
				{
					"attributes":{
						"POSITION":32,
						"NORMAL":33,
						"TEXCOORD_0":34
					},
					"indices":35,
					"material":8
				},
				{
					"attributes":{
						"POSITION":36,
						"NORMAL":37,
						"TEXCOORD_0":38
					},
					"indices":39,
					"material":9
				},
				{
					"attributes":{
						"POSITION":40,
						"NORMAL":41,
						"TEXCOORD_0":42
					},
					"indices":43,
					"material":10
				},
				{
					"attributes":{
						"POSITION":44,
						"NORMAL":45,
						"TEXCOORD_0":46
					},
					"indices":47,
					"material":11
				}
			]
		}
	],
	"accessors":[
		{
			"bufferView":0,
			"componentType":5126,
			"count":31,
			"max":[
				24.63541603088379,
				6.75,
				10.416457176208496
			],
			"min":[
				-10.669764518737793,
				6.75,
				-10.410112380981445
			],
			"type":"VEC3"
		},
		{
			"bufferView":1,
			"componentType":5126,
			"count":31,
			"type":"VEC3"
		},
		{
			"bufferView":2,
			"componentType":5126,
			"count":31,
			"type":"VEC2"
		},
		{
			"bufferView":3,
			"componentType":5123,
			"count":51,
			"type":"SCALAR"
		},
		{
			"bufferView":4,
			"componentType":5126,
			"count":522,
			"max":[
				25.71875,
				9.25,
				11.375
			],
			"min":[
				-11.78125,
				3.25,
				-11.21875
			],
			"type":"VEC3"
		},
		{
			"bufferView":5,
			"componentType":5126,
			"count":522,
			"type":"VEC3"
		},
		{
			"bufferView":6,
			"componentType":5126,
			"count":522,
			"type":"VEC2"
		},
		{
			"bufferView":7,
			"componentType":5123,
			"count":1242,
			"type":"SCALAR"
		},
		{
			"bufferView":8,
			"componentType":5126,
			"count":241,
			"max":[
				25.71875,
				9.25,
				11.375
			],
			"min":[
				-11.78125,
				6.75,
				-11.21875
			],
			"type":"VEC3"
		},
		{
			"bufferView":9,
			"componentType":5126,
			"count":241,
			"type":"VEC3"
		},
		{
			"bufferView":10,
			"componentType":5126,
			"count":241,
			"type":"VEC2"
		},
		{
			"bufferView":11,
			"componentType":5123,
			"count":696,
			"type":"SCALAR"
		},
		{
			"bufferView":12,
			"componentType":5126,
			"count":46,
			"max":[
				24.5,
				8.25,
				10
			],
			"min":[
				-10.5,
				7.75,
				-10
			],
			"type":"VEC3"
		},
		{
			"bufferView":13,
			"componentType":5126,
			"count":46,
			"type":"VEC3"
		},
		{
			"bufferView":14,
			"componentType":5126,
			"count":46,
			"type":"VEC2"
		},
		{
			"bufferView":15,
			"componentType":5123,
			"count":72,
			"type":"SCALAR"
		},
		{
			"bufferView":16,
			"componentType":5126,
			"count":138,
			"max":[
				25,
				9.25,
				10.41549301147461
			],
			"min":[
				-11,
				6.75,
				-10.409858703613281
			],
			"type":"VEC3"
		},
		{
			"bufferView":17,
			"componentType":5126,
			"count":138,
			"type":"VEC3"
		},
		{
			"bufferView":18,
			"componentType":5126,
			"count":138,
			"type":"VEC2"
		},
		{
			"bufferView":19,
			"componentType":5123,
			"count":294,
			"type":"SCALAR"
		},
		{
			"bufferView":20,
			"componentType":5126,
			"count":130,
			"max":[
				25.71875,
				8.25,
				10.375
			],
			"min":[
				-11.78125,
				3.25,
				-10.21875
			],
			"type":"VEC3"
		},
		{
			"bufferView":21,
			"componentType":5126,
			"count":130,
			"type":"VEC3"
		},
		{
			"bufferView":22,
			"componentType":5126,
			"count":130,
			"type":"VEC2"
		},
		{
			"bufferView":23,
			"componentType":5123,
			"count":201,
			"type":"SCALAR"
		},
		{
			"bufferView":24,
			"componentType":5126,
			"count":27,
			"max":[
				24.63541603088379,
				6.75,
				10.416457176208496
			],
			"min":[
				-10.669764518737793,
				6.75,
				-10.410112380981445
			],
			"type":"VEC3"
		},
		{
			"bufferView":25,
			"componentType":5126,
			"count":27,
			"type":"VEC3"
		},
		{
			"bufferView":26,
			"componentType":5126,
			"count":27,
			"type":"VEC2"
		},
		{
			"bufferView":27,
			"componentType":5123,
			"count":39,
			"type":"SCALAR"
		},
		{
			"bufferView":28,
			"componentType":5126,
			"count":308,
			"max":[
				25.71875,
				9.25,
				11.375
			],
			"min":[
				-11.78125,
				3.25,
				-11.21875
			],
			"type":"VEC3"
		},
		{
			"bufferView":29,
			"componentType":5126,
			"count":308,
			"type":"VEC3"
		},
		{
			"bufferView":30,
			"componentType":5126,
			"count":308,
			"type":"VEC2"
		},
		{
			"bufferView":31,
			"componentType":5123,
			"count":684,
			"type":"SCALAR"
		},
		{
			"bufferView":32,
			"componentType":5126,
			"count":246,
			"max":[
				25.71875,
				9.25,
				11.375
			],
			"min":[
				-11.78125,
				6.75,
				-11.21875
			],
			"type":"VEC3"
		},
		{
			"bufferView":33,
			"componentType":5126,
			"count":246,
			"type":"VEC3"
		},
		{
			"bufferView":34,
			"componentType":5126,
			"count":246,
			"type":"VEC2"
		},
		{
			"bufferView":35,
			"componentType":5123,
			"count":714,
			"type":"SCALAR"
		},
		{
			"bufferView":36,
			"componentType":5126,
			"count":50,
			"max":[
				24.5,
				8.25,
				10
			],
			"min":[
				-10.5,
				7.75,
				-10
			],
			"type":"VEC3"
		},
		{
			"bufferView":37,
			"componentType":5126,
			"count":50,
			"type":"VEC3"
		},
		{
			"bufferView":38,
			"componentType":5126,
			"count":50,
			"type":"VEC2"
		},
		{
			"bufferView":39,
			"componentType":5123,
			"count":84,
			"type":"SCALAR"
		},
		{
			"bufferView":40,
			"componentType":5126,
			"count":131,
			"max":[
				25,
				9.25,
				10.41549301147461
			],
			"min":[
				-11,
				6.75,
				-10.409858703613281
			],
			"type":"VEC3"
		},
		{
			"bufferView":41,
			"componentType":5126,
			"count":131,
			"type":"VEC3"
		},
		{
			"bufferView":42,
			"componentType":5126,
			"count":131,
			"type":"VEC2"
		},
		{
			"bufferView":43,
			"componentType":5123,
			"count":273,
			"type":"SCALAR"
		},
		{
			"bufferView":44,
			"componentType":5126,
			"count":106,
			"max":[
				25.71875,
				8.25,
				11.375
			],
			"min":[
				-11.78125,
				6.75,
				-11.21875
			],
			"type":"VEC3"
		},
		{
			"bufferView":45,
			"componentType":5126,
			"count":106,
			"type":"VEC3"
		},
		{
			"bufferView":46,
			"componentType":5126,
			"count":106,
			"type":"VEC2"
		},
		{
			"bufferView":47,
			"componentType":5123,
			"count":198,
			"type":"SCALAR"
		}
	],
	"bufferViews":[
		{
			"buffer":0,
			"byteLength":372,
			"byteOffset":0,
			"target":34962
		},
		{
			"buffer":0,
			"byteLength":372,
			"byteOffset":372,
			"target":34962
		},
		{
			"buffer":0,
			"byteLength":248,
			"byteOffset":744,
			"target":34962
		},
		{
			"buffer":0,
			"byteLength":102,
			"byteOffset":992,
			"target":34963
		},
		{
			"buffer":0,
			"byteLength":6264,
			"byteOffset":1096,
			"target":34962
		},
		{
			"buffer":0,
			"byteLength":6264,
			"byteOffset":7360,
			"target":34962
		},
		{
			"buffer":0,
			"byteLength":4176,
			"byteOffset":13624,
			"target":34962
		},
		{
			"buffer":0,
			"byteLength":2484,
			"byteOffset":17800,
			"target":34963
		},
		{
			"buffer":0,
			"byteLength":2892,
			"byteOffset":20284,
			"target":34962
		},
		{
			"buffer":0,
			"byteLength":2892,
			"byteOffset":23176,
			"target":34962
		},
		{
			"buffer":0,
			"byteLength":1928,
			"byteOffset":26068,
			"target":34962
		},
		{
			"buffer":0,
			"byteLength":1392,
			"byteOffset":27996,
			"target":34963
		},
		{
			"buffer":0,
			"byteLength":552,
			"byteOffset":29388,
			"target":34962
		},
		{
			"buffer":0,
			"byteLength":552,
			"byteOffset":29940,
			"target":34962
		},
		{
			"buffer":0,
			"byteLength":368,
			"byteOffset":30492,
			"target":34962
		},
		{
			"buffer":0,
			"byteLength":144,
			"byteOffset":30860,
			"target":34963
		},
		{
			"buffer":0,
			"byteLength":1656,
			"byteOffset":31004,
			"target":34962
		},
		{
			"buffer":0,
			"byteLength":1656,
			"byteOffset":32660,
			"target":34962
		},
		{
			"buffer":0,
			"byteLength":1104,
			"byteOffset":34316,
			"target":34962
		},
		{
			"buffer":0,
			"byteLength":588,
			"byteOffset":35420,
			"target":34963
		},
		{
			"buffer":0,
			"byteLength":1560,
			"byteOffset":36008,
			"target":34962
		},
		{
			"buffer":0,
			"byteLength":1560,
			"byteOffset":37568,
			"target":34962
		},
		{
			"buffer":0,
			"byteLength":1040,
			"byteOffset":39128,
			"target":34962
		},
		{
			"buffer":0,
			"byteLength":402,
			"byteOffset":40168,
			"target":34963
		},
		{
			"buffer":0,
			"byteLength":324,
			"byteOffset":40572,
			"target":34962
		},
		{
			"buffer":0,
			"byteLength":324,
			"byteOffset":40896,
			"target":34962
		},
		{
			"buffer":0,
			"byteLength":216,
			"byteOffset":41220,
			"target":34962
		},
		{
			"buffer":0,
			"byteLength":78,
			"byteOffset":41436,
			"target":34963
		},
		{
			"buffer":0,
			"byteLength":3696,
			"byteOffset":41516,
			"target":34962
		},
		{
			"buffer":0,
			"byteLength":3696,
			"byteOffset":45212,
			"target":34962
		},
		{
			"buffer":0,
			"byteLength":2464,
			"byteOffset":48908,
			"target":34962
		},
		{
			"buffer":0,
			"byteLength":1368,
			"byteOffset":51372,
			"target":34963
		},
		{
			"buffer":0,
			"byteLength":2952,
			"byteOffset":52740,
			"target":34962
		},
		{
			"buffer":0,
			"byteLength":2952,
			"byteOffset":55692,
			"target":34962
		},
		{
			"buffer":0,
			"byteLength":1968,
			"byteOffset":58644,
			"target":34962
		},
		{
			"buffer":0,
			"byteLength":1428,
			"byteOffset":60612,
			"target":34963
		},
		{
			"buffer":0,
			"byteLength":600,
			"byteOffset":62040,
			"target":34962
		},
		{
			"buffer":0,
			"byteLength":600,
			"byteOffset":62640,
			"target":34962
		},
		{
			"buffer":0,
			"byteLength":400,
			"byteOffset":63240,
			"target":34962
		},
		{
			"buffer":0,
			"byteLength":168,
			"byteOffset":63640,
			"target":34963
		},
		{
			"buffer":0,
			"byteLength":1572,
			"byteOffset":63808,
			"target":34962
		},
		{
			"buffer":0,
			"byteLength":1572,
			"byteOffset":65380,
			"target":34962
		},
		{
			"buffer":0,
			"byteLength":1048,
			"byteOffset":66952,
			"target":34962
		},
		{
			"buffer":0,
			"byteLength":546,
			"byteOffset":68000,
			"target":34963
		},
		{
			"buffer":0,
			"byteLength":1272,
			"byteOffset":68548,
			"target":34962
		},
		{
			"buffer":0,
			"byteLength":1272,
			"byteOffset":69820,
			"target":34962
		},
		{
			"buffer":0,
			"byteLength":848,
			"byteOffset":71092,
			"target":34962
		},
		{
			"buffer":0,
			"byteLength":396,
			"byteOffset":71940,
			"target":34963
		}
	],
	"buffers":[
		{
			"byteLength":72336,
			"uri":"bplat4.bin"
		}
	]
}
