{
	"asset":{
		"generator":"Khronos glTF Blender I/O v4.5.48",
		"version":"2.0"
	},
	"scene":0,
	"scenes":[
		{
			"name":"Scene",
			"nodes":[
				0,
				1
			]
		}
	],
	"nodes":[
		{
			"mesh":0,
			"name":"Object"
		},
		{
			"mesh":1,
			"name":"Object.001"
		}
	],
	"materials":[
		{
			"doubleSided":true,
			"name":"BE_EWAL07",
			"pbrMetallicRoughness":{
				"baseColorFactor":[
					0.800000011920929,
					0.800000011920929,
					0.800000011920929,
					1
				],
				"metallicFactor":0,
				"roughnessFactor":0.5
			}
		},
		{
			"doubleSided":true,
			"name":"BE_EWAL04A",
			"pbrMetallicRoughness":{
				"baseColorFactor":[
					0.800000011920929,
					0.800000011920929,
					0.800000011920929,
					1
				],
				"metallicFactor":0,
				"roughnessFactor":0.5
			}
		},
		{
			"doubleSided":true,
			"name":"BE_ITEBOR02",
			"pbrMetallicRoughness":{
				"baseColorFactor":[
					0.800000011920929,
					0.800000011920929,
					0.800000011920929,
					1
				],
				"metallicFactor":0,
				"roughnessFactor":0.5
			}
		},
		{
			"doubleSided":true,
			"name":"BE_EWAL01B",
			"pbrMetallicRoughness":{
				"baseColorFactor":[
					0.800000011920929,
					0.800000011920929,
					0.800000011920929,
					1
				],
				"metallicFactor":0,
				"roughnessFactor":0.5
			}
		},
		{
			"doubleSided":true,
			"name":"BE_ELIG02",
			"pbrMetallicRoughness":{
				"baseColorFactor":[
					0.800000011920929,
					0.800000011920929,
					0.800000011920929,
					1
				],
				"metallicFactor":0,
				"roughnessFactor":0.5
			}
		},
		{
			"doubleSided":true,
			"name":"BE_ICOLIG01",
			"pbrMetallicRoughness":{
				"baseColorFactor":[
					0.800000011920929,
					0.800000011920929,
					0.800000011920929,
					1
				],
				"metallicFactor":0,
				"roughnessFactor":0.5
			}
		},
		{
			"doubleSided":true,
			"name":"BE_ITELIG01",
			"pbrMetallicRoughness":{
				"baseColorFactor":[
					0.800000011920929,
					0.800000011920929,
					0.800000011920929,
					1
				],
				"metallicFactor":0,
				"roughnessFactor":0.5
			}
		},
		{
			"doubleSided":true,
			"name":"BE_EBOR03",
			"pbrMetallicRoughness":{
				"baseColorFactor":[
					0.800000011920929,
					0.800000011920929,
					0.800000011920929,
					1
				],
				"metallicFactor":0,
				"roughnessFactor":0.5
			}
		},
		{
			"doubleSided":true,
			"name":"BE_EWAL07.001",
			"pbrMetallicRoughness":{
				"baseColorFactor":[
					0.800000011920929,
					0.800000011920929,
					0.800000011920929,
					1
				],
				"metallicFactor":0,
				"roughnessFactor":0.5
			}
		},
		{
			"doubleSided":true,
			"name":"BE_EWAL04A.001",
			"pbrMetallicRoughness":{
				"baseColorFactor":[
					0.800000011920929,
					0.800000011920929,
					0.800000011920929,
					1
				],
				"metallicFactor":0,
				"roughnessFactor":0.5
			}
		},
		{
			"doubleSided":true,
			"name":"BE_ITEBOR02.001",
			"pbrMetallicRoughness":{
				"baseColorFactor":[
					0.800000011920929,
					0.800000011920929,
					0.800000011920929,
					1
				],
				"metallicFactor":0,
				"roughnessFactor":0.5
			}
		},
		{
			"doubleSided":true,
			"name":"BE_EWAL01B.001",
			"pbrMetallicRoughness":{
				"baseColorFactor":[
					0.800000011920929,
					0.800000011920929,
					0.800000011920929,
					1
				],
				"metallicFactor":0,
				"roughnessFactor":0.5
			}
		},
		{
			"doubleSided":true,
			"name":"BE_ELIG02.001",
			"pbrMetallicRoughness":{
				"baseColorFactor":[
					0.800000011920929,
					0.800000011920929,
					0.800000011920929,
					1
				],
				"metallicFactor":0,
				"roughnessFactor":0.5
			}
		},
		{
			"doubleSided":true,
			"name":"BE_ICOLIG01.001",
			"pbrMetallicRoughness":{
				"baseColorFactor":[
					0.800000011920929,
					0.800000011920929,
					0.800000011920929,
					1
				],
				"metallicFactor":0,
				"roughnessFactor":0.5
			}
		},
		{
			"doubleSided":true,
			"name":"BE_ITELIG01.001",
			"pbrMetallicRoughness":{
				"baseColorFactor":[
					0.800000011920929,
					0.800000011920929,
					0.800000011920929,
					1
				],
				"metallicFactor":0,
				"roughnessFactor":0.5
			}
		}
	],
	"meshes":[
		{
			"name":"Mesh",
			"primitives":[
				{
					"attributes":{
						"POSITION":0,
						"NORMAL":1,
						"TEXCOORD_0":2
					},
					"indices":3,
					"material":0
				},
				{
					"attributes":{
						"POSITION":4,
						"NORMAL":5,
						"TEXCOORD_0":6
					},
					"indices":7,
					"material":1
				},
				{
					"attributes":{
						"POSITION":8,
						"NORMAL":9,
						"TEXCOORD_0":10
					},
					"indices":11,
					"material":2
				},
				{
					"attributes":{
						"POSITION":12,
						"NORMAL":13,
						"TEXCOORD_0":14
					},
					"indices":15,
					"material":3
				},
				{
					"attributes":{
						"POSITION":16,
						"NORMAL":17,
						"TEXCOORD_0":18
					},
					"indices":19,
					"material":4
				},
				{
					"attributes":{
						"POSITION":20,
						"NORMAL":21,
						"TEXCOORD_0":22
					},
					"indices":23,
					"material":5
				},
				{
					"attributes":{
						"POSITION":24,
						"NORMAL":25,
						"TEXCOORD_0":26
					},
					"indices":27,
					"material":6
				},
				{
					"attributes":{
						"POSITION":28,
						"NORMAL":29,
						"TEXCOORD_0":30
					},
					"indices":31,
					"material":7
				}
			]
		},
		{
			"name":"Mesh.001",
			"primitives":[
				{
					"attributes":{
						"POSITION":32,
						"NORMAL":33,
						"TEXCOORD_0":34
					},
					"indices":35,
					"material":8
				},
				{
					"attributes":{
						"POSITION":36,
						"NORMAL":37,
						"TEXCOORD_0":38
					},
					"indices":7,
					"material":9
				},
				{
					"attributes":{
						"POSITION":39,
						"NORMAL":40,
						"TEXCOORD_0":41
					},
					"indices":42,
					"material":10
				},
				{
					"attributes":{
						"POSITION":43,
						"NORMAL":44,
						"TEXCOORD_0":45
					},
					"indices":46,
					"material":11
				},
				{
					"attributes":{
						"POSITION":47,
						"NORMAL":48,
						"TEXCOORD_0":49
					},
					"indices":50,
					"material":12
				},
				{
					"attributes":{
						"POSITION":51,
						"NORMAL":52,
						"TEXCOORD_0":53
					},
					"indices":54,
					"material":13
				},
				{
					"attributes":{
						"POSITION":55,
						"NORMAL":56,
						"TEXCOORD_0":57
					},
					"indices":58,
					"material":14
				}
			]
		}
	],
	"accessors":[
		{
			"bufferView":0,
			"componentType":5126,
			"count":114,
			"max":[
				3,
				-4.28125,
				12
			],
			"min":[
				-9,
				-7,
				3.490771006400741e-17
			],
			"type":"VEC3"
		},
		{
			"bufferView":1,
			"componentType":5126,
			"count":114,
			"type":"VEC3"
		},
		{
			"bufferView":2,
			"componentType":5126,
			"count":114,
			"type":"VEC2"
		},
		{
			"bufferView":3,
			"componentType":5123,
			"count":342,
			"type":"SCALAR"
		},
		{
			"bufferView":4,
			"componentType":5126,
			"count":8,
			"max":[
				2.599794626235962,
				-3.28125,
				11.597970008850098
			],
			"min":[
				-8.599794387817383,
				-3.28125,
				0.3822992742061615
			],
			"type":"VEC3"
		},
		{
			"bufferView":5,
			"componentType":5126,
			"count":8,
			"type":"VEC3"
		},
		{
			"bufferView":6,
			"componentType":5126,
			"count":8,
			"type":"VEC2"
		},
		{
			"bufferView":7,
			"componentType":5123,
			"count":18,
			"type":"SCALAR"
		},
		{
			"bufferView":8,
			"componentType":5126,
			"count":40,
			"max":[
				3,
				-3.28125,
				12
			],
			"min":[
				-9,
				-4.28125,
				1.8360278223750334e-16
			],
			"type":"VEC3"
		},
		{
			"bufferView":9,
			"componentType":5126,
			"count":40,
			"type":"VEC3"
		},
		{
			"bufferView":10,
			"componentType":5126,
			"count":40,
			"type":"VEC2"
		},
		{
			"bufferView":11,
			"componentType":5123,
			"count":72,
			"type":"SCALAR"
		},
		{
			"bufferView":12,
			"componentType":5126,
			"count":86,
			"max":[
				3,
				-5,
				12
			],
			"min":[
				-9,
				-5.5,
				3.490771006400741e-17
			],
			"type":"VEC3"
		},
		{
			"bufferView":13,
			"componentType":5126,
			"count":86,
			"type":"VEC3"
		},
		{
			"bufferView":14,
			"componentType":5126,
			"count":86,
			"type":"VEC2"
		},
		{
			"bufferView":15,
			"componentType":5123,
			"count":231,
			"type":"SCALAR"
		},
		{
			"bufferView":16,
			"componentType":5126,
			"count":56,
			"max":[
				2.59375,
				-4.28125,
				11.59375
			],
			"min":[
				-8.59375,
				-6.5,
				0.40625
			],
			"type":"VEC3"
		},
		{
			"bufferView":17,
			"componentType":5126,
			"count":56,
			"type":"VEC3"
		},
		{
			"bufferView":18,
			"componentType":5126,
			"count":56,
			"type":"VEC2"
		},
		{
			"bufferView":19,
			"componentType":5123,
			"count":84,
			"type":"SCALAR"
		},
		{
			"bufferView":20,
			"componentType":5126,
			"count":115,
			"max":[
				3,
				-4.75,
				12
			],
			"min":[
				-9,
				-7,
				3.490771006400741e-17
			],
			"type":"VEC3"
		},
		{
			"bufferView":21,
			"componentType":5126,
			"count":115,
			"type":"VEC3"
		},
		{
			"bufferView":22,
			"componentType":5126,
			"count":115,
			"type":"VEC2"
		},
		{
			"bufferView":23,
			"componentType":5123,
			"count":225,
			"type":"SCALAR"
		},
		{
			"bufferView":24,
			"componentType":5126,
			"count":18,
			"max":[
				-1,
				-7,
				8
			],
			"min":[
				-5,
				-8.0625,
				4
			],
			"type":"VEC3"
		},
		{
			"bufferView":25,
			"componentType":5126,
			"count":18,
			"type":"VEC3"
		},
		{
			"bufferView":26,
			"componentType":5126,
			"count":18,
			"type":"VEC2"
		},
		{
			"bufferView":27,
			"componentType":5123,
			"count":18,
			"type":"SCALAR"
		},
		{
			"bufferView":28,
			"componentType":5126,
			"count":48,
			"max":[
				1.65625,
				-5,
				6.4375
			],
			"min":[
				-7.65625,
				-5.25,
				5.5625
			],
			"type":"VEC3"
		},
		{
			"bufferView":29,
			"componentType":5126,
			"count":48,
			"type":"VEC3"
		},
		{
			"bufferView":30,
			"componentType":5126,
			"count":48,
			"type":"VEC2"
		},
		{
			"bufferView":31,
			"componentType":5123,
			"count":72,
			"type":"SCALAR"
		},
		{
			"bufferView":32,
			"componentType":5126,
			"count":102,
			"max":[
				3,
				-4.28125,
				12
			],
			"min":[
				-9,
				-7,
				3.490771006400741e-17
			],
			"type":"VEC3"
		},
		{
			"bufferView":33,
			"componentType":5126,
			"count":102,
			"type":"VEC3"
		},
		{
			"bufferView":34,
			"componentType":5126,
			"count":102,
			"type":"VEC2"
		},
		{
			"bufferView":35,
			"componentType":5123,
			"count":318,
			"type":"SCALAR"
		},
		{
			"bufferView":36,
			"componentType":5126,
			"count":8,
			"max":[
				2.599794626235962,
				-3.28125,
				11.597970008850098
			],
			"min":[
				-8.599794387817383,
				-3.28125,
				0.3822992742061615
			],
			"type":"VEC3"
		},
		{
			"bufferView":37,
			"componentType":5126,
			"count":8,
			"type":"VEC3"
		},
		{
			"bufferView":38,
			"componentType":5126,
			"count":8,
			"type":"VEC2"
		},
		{
			"bufferView":39,
			"componentType":5126,
			"count":40,
			"max":[
				3,
				-3.28125,
				12
			],
			"min":[
				-9,
				-4.28125,
				1.8360278223750334e-16
			],
			"type":"VEC3"
		},
		{
			"bufferView":40,
			"componentType":5126,
			"count":40,
			"type":"VEC3"
		},
		{
			"bufferView":41,
			"componentType":5126,
			"count":40,
			"type":"VEC2"
		},
		{
			"bufferView":42,
			"componentType":5123,
			"count":72,
			"type":"SCALAR"
		},
		{
			"bufferView":43,
			"componentType":5126,
			"count":62,
			"max":[
				3,
				-5,
				12
			],
			"min":[
				-9,
				-5.5,
				3.490771006400741e-17
			],
			"type":"VEC3"
		},
		{
			"bufferView":44,
			"componentType":5126,
			"count":62,
			"type":"VEC3"
		},
		{
			"bufferView":45,
			"componentType":5126,
			"count":62,
			"type":"VEC2"
		},
		{
			"bufferView":46,
			"componentType":5123,
			"count":129,
			"type":"SCALAR"
		},
		{
			"bufferView":47,
			"componentType":5126,
			"count":56,
			"max":[
				2.59375,
				-4.28125,
				11.59375
			],
			"min":[
				-8.59375,
				-6.5,
				0.40625
			],
			"type":"VEC3"
		},
		{
			"bufferView":48,
			"componentType":5126,
			"count":56,
			"type":"VEC3"
		},
		{
			"bufferView":49,
			"componentType":5126,
			"count":56,
			"type":"VEC2"
		},
		{
			"bufferView":50,
			"componentType":5123,
			"count":84,
			"type":"SCALAR"
		},
		{
			"bufferView":51,
			"componentType":5126,
			"count":109,
			"max":[
				3,
				-4.75,
				12
			],
			"min":[
				-9,
				-7,
				3.490771006400741e-17
			],
			"type":"VEC3"
		},
		{
			"bufferView":52,
			"componentType":5126,
			"count":109,
			"type":"VEC3"
		},
		{
			"bufferView":53,
			"componentType":5126,
			"count":109,
			"type":"VEC2"
		},
		{
			"bufferView":54,
			"componentType":5123,
			"count":207,
			"type":"SCALAR"
		},
		{
			"bufferView":55,
			"componentType":5126,
			"count":18,
			"max":[
				-1,
				-7,
				8
			],
			"min":[
				-5,
				-8.0625,
				4
			],
			"type":"VEC3"
		},
		{
			"bufferView":56,
			"componentType":5126,
			"count":18,
			"type":"VEC3"
		},
		{
			"bufferView":57,
			"componentType":5126,
			"count":18,
			"type":"VEC2"
		},
		{
			"bufferView":58,
			"componentType":5123,
			"count":18,
			"type":"SCALAR"
		}
	],
	"bufferViews":[
		{
			"buffer":0,
			"byteLength":1368,
			"byteOffset":0,
			"target":34962
		},
		{
			"buffer":0,
			"byteLength":1368,
			"byteOffset":1368,
			"target":34962
		},
		{
			"buffer":0,
			"byteLength":912,
			"byteOffset":2736,
			"target":34962
		},
		{
			"buffer":0,
			"byteLength":684,
			"byteOffset":3648,
			"target":34963
		},
		{
			"buffer":0,
			"byteLength":96,
			"byteOffset":4332,
			"target":34962
		},
		{
			"buffer":0,
			"byteLength":96,
			"byteOffset":4428,
			"target":34962
		},
		{
			"buffer":0,
			"byteLength":64,
			"byteOffset":4524,
			"target":34962
		},
		{
			"buffer":0,
			"byteLength":36,
			"byteOffset":4588,
			"target":34963
		},
		{
			"buffer":0,
			"byteLength":480,
			"byteOffset":4624,
			"target":34962
		},
		{
			"buffer":0,
			"byteLength":480,
			"byteOffset":5104,
			"target":34962
		},
		{
			"buffer":0,
			"byteLength":320,
			"byteOffset":5584,
			"target":34962
		},
		{
			"buffer":0,
			"byteLength":144,
			"byteOffset":5904,
			"target":34963
		},
		{
			"buffer":0,
			"byteLength":1032,
			"byteOffset":6048,
			"target":34962
		},
		{
			"buffer":0,
			"byteLength":1032,
			"byteOffset":7080,
			"target":34962
		},
		{
			"buffer":0,
			"byteLength":688,
			"byteOffset":8112,
			"target":34962
		},
		{
			"buffer":0,
			"byteLength":462,
			"byteOffset":8800,
			"target":34963
		},
		{
			"buffer":0,
			"byteLength":672,
			"byteOffset":9264,
			"target":34962
		},
		{
			"buffer":0,
			"byteLength":672,
			"byteOffset":9936,
			"target":34962
		},
		{
			"buffer":0,
			"byteLength":448,
			"byteOffset":10608,
			"target":34962
		},
		{
			"buffer":0,
			"byteLength":168,
			"byteOffset":11056,
			"target":34963
		},
		{
			"buffer":0,
			"byteLength":1380,
			"byteOffset":11224,
			"target":34962
		},
		{
			"buffer":0,
			"byteLength":1380,
			"byteOffset":12604,
			"target":34962
		},
		{
			"buffer":0,
			"byteLength":920,
			"byteOffset":13984,
			"target":34962
		},
		{
			"buffer":0,
			"byteLength":450,
			"byteOffset":14904,
			"target":34963
		},
		{
			"buffer":0,
			"byteLength":216,
			"byteOffset":15356,
			"target":34962
		},
		{
			"buffer":0,
			"byteLength":216,
			"byteOffset":15572,
			"target":34962
		},
		{
			"buffer":0,
			"byteLength":144,
			"byteOffset":15788,
			"target":34962
		},
		{
			"buffer":0,
			"byteLength":36,
			"byteOffset":15932,
			"target":34963
		},
		{
			"buffer":0,
			"byteLength":576,
			"byteOffset":15968,
			"target":34962
		},
		{
			"buffer":0,
			"byteLength":576,
			"byteOffset":16544,
			"target":34962
		},
		{
			"buffer":0,
			"byteLength":384,
			"byteOffset":17120,
			"target":34962
		},
		{
			"buffer":0,
			"byteLength":144,
			"byteOffset":17504,
			"target":34963
		},
		{
			"buffer":0,
			"byteLength":1224,
			"byteOffset":17648,
			"target":34962
		},
		{
			"buffer":0,
			"byteLength":1224,
			"byteOffset":18872,
			"target":34962
		},
		{
			"buffer":0,
			"byteLength":816,
			"byteOffset":20096,
			"target":34962
		},
		{
			"buffer":0,
			"byteLength":636,
			"byteOffset":20912,
			"target":34963
		},
		{
			"buffer":0,
			"byteLength":96,
			"byteOffset":21548,
			"target":34962
		},
		{
			"buffer":0,
			"byteLength":96,
			"byteOffset":21644,
			"target":34962
		},
		{
			"buffer":0,
			"byteLength":64,
			"byteOffset":21740,
			"target":34962
		},
		{
			"buffer":0,
			"byteLength":480,
			"byteOffset":21804,
			"target":34962
		},
		{
			"buffer":0,
			"byteLength":480,
			"byteOffset":22284,
			"target":34962
		},
		{
			"buffer":0,
			"byteLength":320,
			"byteOffset":22764,
			"target":34962
		},
		{
			"buffer":0,
			"byteLength":144,
			"byteOffset":23084,
			"target":34963
		},
		{
			"buffer":0,
			"byteLength":744,
			"byteOffset":23228,
			"target":34962
		},
		{
			"buffer":0,
			"byteLength":744,
			"byteOffset":23972,
			"target":34962
		},
		{
			"buffer":0,
			"byteLength":496,
			"byteOffset":24716,
			"target":34962
		},
		{
			"buffer":0,
			"byteLength":258,
			"byteOffset":25212,
			"target":34963
		},
		{
			"buffer":0,
			"byteLength":672,
			"byteOffset":25472,
			"target":34962
		},
		{
			"buffer":0,
			"byteLength":672,
			"byteOffset":26144,
			"target":34962
		},
		{
			"buffer":0,
			"byteLength":448,
			"byteOffset":26816,
			"target":34962
		},
		{
			"buffer":0,
			"byteLength":168,
			"byteOffset":27264,
			"target":34963
		},
		{
			"buffer":0,
			"byteLength":1308,
			"byteOffset":27432,
			"target":34962
		},
		{
			"buffer":0,
			"byteLength":1308,
			"byteOffset":28740,
			"target":34962
		},
		{
			"buffer":0,
			"byteLength":872,
			"byteOffset":30048,
			"target":34962
		},
		{
			"buffer":0,
			"byteLength":414,
			"byteOffset":30920,
			"target":34963
		},
		{
			"buffer":0,
			"byteLength":216,
			"byteOffset":31336,
			"target":34962
		},
		{
			"buffer":0,
			"byteLength":216,
			"byteOffset":31552,
			"target":34962
		},
		{
			"buffer":0,
			"byteLength":144,
			"byteOffset":31768,
			"target":34962
		},
		{
			"buffer":0,
			"byteLength":36,
			"byteOffset":31912,
			"target":34963
		}
	],
	"buffers":[
		{
			"byteLength":31948,
			"uri":"bplat3.bin"
		}
	]
}
