{
	"asset":{
		"generator":"Khronos glTF Blender I/O v4.5.48",
		"version":"2.0"
	},
	"scene":0,
	"scenes":[
		{
			"name":"Scene",
			"nodes":[
				0,
				1,
				2,
				3,
				4
			]
		}
	],
	"nodes":[
		{
			"mesh":0,
			"name":"Object"
		},
		{
			"mesh":1,
			"name":"Object.001"
		},
		{
			"mesh":2,
			"name":"Object.002"
		},
		{
			"mesh":3,
			"name":"Object.003"
		},
		{
			"mesh":4,
			"name":"Object.004"
		}
	],
	"materials":[
		{
			"doubleSided":true,
			"name":"be_eterrain02",
			"pbrMetallicRoughness":{
				"baseColorFactor":[
					0.800000011920929,
					0.800000011920929,
					0.800000011920929,
					1
				],
				"metallicFactor":0,
				"roughnessFactor":0.5
			}
		},
		{
			"doubleSided":true,
			"name":"be_eterrain02.001",
			"pbrMetallicRoughness":{
				"baseColorFactor":[
					0.800000011920929,
					0.800000011920929,
					0.800000011920929,
					1
				],
				"metallicFactor":0,
				"roughnessFactor":0.5
			}
		},
		{
			"doubleSided":true,
			"name":"be_eterrain02.002",
			"pbrMetallicRoughness":{
				"baseColorFactor":[
					0.800000011920929,
					0.800000011920929,
					0.800000011920929,
					1
				],
				"metallicFactor":0,
				"roughnessFactor":0.5
			}
		},
		{
			"doubleSided":true,
			"name":"be_eterrain02.003",
			"pbrMetallicRoughness":{
				"baseColorFactor":[
					0.800000011920929,
					0.800000011920929,
					0.800000011920929,
					1
				],
				"metallicFactor":0,
				"roughnessFactor":0.5
			}
		},
		{
			"doubleSided":true,
			"name":"be_eterrain02.004",
			"pbrMetallicRoughness":{
				"baseColorFactor":[
					0.800000011920929,
					0.800000011920929,
					0.800000011920929,
					1
				],
				"metallicFactor":0,
				"roughnessFactor":0.5
			}
		}
	],
	"meshes":[
		{
			"name":"Mesh",
			"primitives":[
				{
					"attributes":{
						"POSITION":0,
						"NORMAL":1,
						"TEXCOORD_0":2
					},
					"indices":3,
					"material":0
				}
			]
		},
		{
			"name":"Mesh.001",
			"primitives":[
				{
					"attributes":{
						"POSITION":4,
						"NORMAL":5,
						"TEXCOORD_0":6
					},
					"indices":7,
					"material":1
				}
			]
		},
		{
			"name":"Mesh.002",
			"primitives":[
				{
					"attributes":{
						"POSITION":8,
						"NORMAL":9,
						"TEXCOORD_0":10
					},
					"indices":11,
					"material":2
				}
			]
		},
		{
			"name":"Mesh.003",
			"primitives":[
				{
					"attributes":{
						"POSITION":12,
						"NORMAL":13,
						"TEXCOORD_0":14
					},
					"indices":15,
					"material":3
				}
			]
		},
		{
			"name":"Mesh.004",
			"primitives":[
				{
					"attributes":{
						"POSITION":16,
						"NORMAL":17,
						"TEXCOORD_0":18
					},
					"indices":19,
					"material":4
				}
			]
		}
	],
	"accessors":[
		{
			"bufferView":0,
			"componentType":5126,
			"count":451,
			"max":[
				18.71875,
				24.390625,
				19.625
			],
			"min":[
				-27.671875,
				-26.328125,
				-17.46875
			],
			"type":"VEC3"
		},
		{
			"bufferView":1,
			"componentType":5126,
			"count":451,
			"type":"VEC3"
		},
		{
			"bufferView":2,
			"componentType":5126,
			"count":451,
			"type":"VEC2"
		},
		{
			"bufferView":3,
			"componentType":5123,
			"count":498,
			"type":"SCALAR"
		},
		{
			"bufferView":4,
			"componentType":5126,
			"count":297,
			"max":[
				18.71875,
				24.125,
				19.625
			],
			"min":[
				-27.671875,
				-26.328125,
				-17.453125
			],
			"type":"VEC3"
		},
		{
			"bufferView":5,
			"componentType":5126,
			"count":297,
			"type":"VEC3"
		},
		{
			"bufferView":6,
			"componentType":5126,
			"count":297,
			"type":"VEC2"
		},
		{
			"bufferView":7,
			"componentType":5123,
			"count":297,
			"type":"SCALAR"
		},
		{
			"bufferView":8,
			"componentType":5126,
			"count":207,
			"max":[
				18.71875,
				24.125,
				19.625
			],
			"min":[
				-27.671875,
				-26.328125,
				-17.453125
			],
			"type":"VEC3"
		},
		{
			"bufferView":9,
			"componentType":5126,
			"count":207,
			"type":"VEC3"
		},
		{
			"bufferView":10,
			"componentType":5126,
			"count":207,
			"type":"VEC2"
		},
		{
			"bufferView":11,
			"componentType":5123,
			"count":207,
			"type":"SCALAR"
		},
		{
			"bufferView":12,
			"componentType":5126,
			"count":120,
			"max":[
				18.71875,
				24.125,
				19.625
			],
			"min":[
				-27.671875,
				-26.328125,
				-17.453125
			],
			"type":"VEC3"
		},
		{
			"bufferView":13,
			"componentType":5126,
			"count":120,
			"type":"VEC3"
		},
		{
			"bufferView":14,
			"componentType":5126,
			"count":120,
			"type":"VEC2"
		},
		{
			"bufferView":15,
			"componentType":5123,
			"count":120,
			"type":"SCALAR"
		},
		{
			"bufferView":16,
			"componentType":5126,
			"count":24,
			"max":[
				18.140625,
				24.140625,
				17.15625
			],
			"min":[
				-27.484375,
				-26.21875,
				-17.046875
			],
			"type":"VEC3"
		},
		{
			"bufferView":17,
			"componentType":5126,
			"count":24,
			"type":"VEC3"
		},
		{
			"bufferView":18,
			"componentType":5126,
			"count":24,
			"type":"VEC2"
		},
		{
			"bufferView":19,
			"componentType":5123,
			"count":24,
			"type":"SCALAR"
		}
	],
	"bufferViews":[
		{
			"buffer":0,
			"byteLength":5412,
			"byteOffset":0,
			"target":34962
		},
		{
			"buffer":0,
			"byteLength":5412,
			"byteOffset":5412,
			"target":34962
		},
		{
			"buffer":0,
			"byteLength":3608,
			"byteOffset":10824,
			"target":34962
		},
		{
			"buffer":0,
			"byteLength":996,
			"byteOffset":14432,
			"target":34963
		},
		{
			"buffer":0,
			"byteLength":3564,
			"byteOffset":15428,
			"target":34962
		},
		{
			"buffer":0,
			"byteLength":3564,
			"byteOffset":18992,
			"target":34962
		},
		{
			"buffer":0,
			"byteLength":2376,
			"byteOffset":22556,
			"target":34962
		},
		{
			"buffer":0,
			"byteLength":594,
			"byteOffset":24932,
			"target":34963
		},
		{
			"buffer":0,
			"byteLength":2484,
			"byteOffset":25528,
			"target":34962
		},
		{
			"buffer":0,
			"byteLength":2484,
			"byteOffset":28012,
			"target":34962
		},
		{
			"buffer":0,
			"byteLength":1656,
			"byteOffset":30496,
			"target":34962
		},
		{
			"buffer":0,
			"byteLength":414,
			"byteOffset":32152,
			"target":34963
		},
		{
			"buffer":0,
			"byteLength":1440,
			"byteOffset":32568,
			"target":34962
		},
		{
			"buffer":0,
			"byteLength":1440,
			"byteOffset":34008,
			"target":34962
		},
		{
			"buffer":0,
			"byteLength":960,
			"byteOffset":35448,
			"target":34962
		},
		{
			"buffer":0,
			"byteLength":240,
			"byteOffset":36408,
			"target":34963
		},
		{
			"buffer":0,
			"byteLength":288,
			"byteOffset":36648,
			"target":34962
		},
		{
			"buffer":0,
			"byteLength":288,
			"byteOffset":36936,
			"target":34962
		},
		{
			"buffer":0,
			"byteLength":192,
			"byteOffset":37224,
			"target":34962
		},
		{
			"buffer":0,
			"byteLength":48,
			"byteOffset":37416,
			"target":34963
		}
	],
	"buffers":[
		{
			"byteLength":37464,
			"uri":"brockc.bin"
		}
	]
}
