{
	"asset":{
		"generator":"Khronos glTF Blender I/O v4.5.48",
		"version":"2.0"
	},
	"scene":0,
	"scenes":[
		{
			"name":"Scene",
			"nodes":[
				0,
				1,
				2
			]
		}
	],
	"nodes":[
		{
			"mesh":0,
			"name":"Object"
		},
		{
			"mesh":1,
			"name":"Object.001"
		},
		{
			"mesh":2,
			"name":"Object.002"
		}
	],
	"materials":[
		{
			"doubleSided":true,
			"name":"be_eterrain02a",
			"pbrMetallicRoughness":{
				"baseColorFactor":[
					0.800000011920929,
					0.800000011920929,
					0.800000011920929,
					1
				],
				"metallicFactor":0,
				"roughnessFactor":0.5
			}
		},
		{
			"doubleSided":true,
			"name":"be_eterrain02a.001",
			"pbrMetallicRoughness":{
				"baseColorFactor":[
					0.800000011920929,
					0.800000011920929,
					0.800000011920929,
					1
				],
				"metallicFactor":0,
				"roughnessFactor":0.5
			}
		},
		{
			"doubleSided":true,
			"name":"be_eterrain02a.002",
			"pbrMetallicRoughness":{
				"baseColorFactor":[
					0.800000011920929,
					0.800000011920929,
					0.800000011920929,
					1
				],
				"metallicFactor":0,
				"roughnessFactor":0.5
			}
		}
	],
	"meshes":[
		{
			"name":"Mesh",
			"primitives":[
				{
					"attributes":{
						"POSITION":0,
						"NORMAL":1,
						"TEXCOORD_0":2
					},
					"indices":3,
					"material":0
				}
			]
		},
		{
			"name":"Mesh.001",
			"primitives":[
				{
					"attributes":{
						"POSITION":4,
						"NORMAL":5,
						"TEXCOORD_0":6
					},
					"indices":7,
					"material":1
				}
			]
		},
		{
			"name":"Mesh.002",
			"primitives":[
				{
					"attributes":{
						"POSITION":8,
						"NORMAL":9,
						"TEXCOORD_0":10
					},
					"indices":11,
					"material":2
				}
			]
		}
	],
	"accessors":[
		{
			"bufferView":0,
			"componentType":5126,
			"count":783,
			"max":[
				12.625,
				26.9375,
				18.4375
			],
			"min":[
				-11.34375,
				-1.125,
				-19.46875
			],
			"type":"VEC3"
		},
		{
			"bufferView":1,
			"componentType":5126,
			"count":783,
			"type":"VEC3"
		},
		{
			"bufferView":2,
			"componentType":5126,
			"count":783,
			"type":"VEC2"
		},
		{
			"bufferView":3,
			"componentType":5123,
			"count":807,
			"type":"SCALAR"
		},
		{
			"bufferView":4,
			"componentType":5126,
			"count":348,
			"max":[
				12.625,
				26.9375,
				18
			],
			"min":[
				-11.34375,
				-1.15625,
				-19.46875
			],
			"type":"VEC3"
		},
		{
			"bufferView":5,
			"componentType":5126,
			"count":348,
			"type":"VEC3"
		},
		{
			"bufferView":6,
			"componentType":5126,
			"count":348,
			"type":"VEC2"
		},
		{
			"bufferView":7,
			"componentType":5123,
			"count":348,
			"type":"SCALAR"
		},
		{
			"bufferView":8,
			"componentType":5126,
			"count":36,
			"max":[
				12.34375,
				25.90625,
				16.78125
			],
			"min":[
				-11.21875,
				-0.65625,
				-17.46875
			],
			"type":"VEC3"
		},
		{
			"bufferView":9,
			"componentType":5126,
			"count":36,
			"type":"VEC3"
		},
		{
			"bufferView":10,
			"componentType":5126,
			"count":36,
			"type":"VEC2"
		},
		{
			"bufferView":11,
			"componentType":5123,
			"count":36,
			"type":"SCALAR"
		}
	],
	"bufferViews":[
		{
			"buffer":0,
			"byteLength":9396,
			"byteOffset":0,
			"target":34962
		},
		{
			"buffer":0,
			"byteLength":9396,
			"byteOffset":9396,
			"target":34962
		},
		{
			"buffer":0,
			"byteLength":6264,
			"byteOffset":18792,
			"target":34962
		},
		{
			"buffer":0,
			"byteLength":1614,
			"byteOffset":25056,
			"target":34963
		},
		{
			"buffer":0,
			"byteLength":4176,
			"byteOffset":26672,
			"target":34962
		},
		{
			"buffer":0,
			"byteLength":4176,
			"byteOffset":30848,
			"target":34962
		},
		{
			"buffer":0,
			"byteLength":2784,
			"byteOffset":35024,
			"target":34962
		},
		{
			"buffer":0,
			"byteLength":696,
			"byteOffset":37808,
			"target":34963
		},
		{
			"buffer":0,
			"byteLength":432,
			"byteOffset":38504,
			"target":34962
		},
		{
			"buffer":0,
			"byteLength":432,
			"byteOffset":38936,
			"target":34962
		},
		{
			"buffer":0,
			"byteLength":288,
			"byteOffset":39368,
			"target":34962
		},
		{
			"buffer":0,
			"byteLength":72,
			"byteOffset":39656,
			"target":34963
		}
	],
	"buffers":[
		{
			"byteLength":39728,
			"uri":"brocka.bin"
		}
	]
}
