{
	"asset":{
		"generator":"Khronos glTF Blender I/O v4.5.48",
		"version":"2.0"
	},
	"scene":0,
	"scenes":[
		{
			"name":"Scene",
			"nodes":[
				0,
				1,
				2,
				3,
				4,
				5
			]
		}
	],
	"nodes":[
		{
			"mesh":0,
			"name":"Object"
		},
		{
			"mesh":1,
			"name":"Object.001"
		},
		{
			"mesh":2,
			"name":"Object.002"
		},
		{
			"mesh":3,
			"name":"Object.003"
		},
		{
			"mesh":4,
			"name":"Object.004"
		},
		{
			"mesh":5,
			"name":"Object.005"
		}
	],
	"materials":[
		{
			"doubleSided":true,
			"name":"be_eterrain02",
			"pbrMetallicRoughness":{
				"baseColorFactor":[
					0.800000011920929,
					0.800000011920929,
					0.800000011920929,
					1
				],
				"metallicFactor":0,
				"roughnessFactor":0.5
			}
		},
		{
			"doubleSided":true,
			"name":"be_ecombo02a",
			"pbrMetallicRoughness":{
				"baseColorFactor":[
					0.800000011920929,
					0.800000011920929,
					0.800000011920929,
					1
				],
				"metallicFactor":0,
				"roughnessFactor":0.5
			}
		},
		{
			"doubleSided":true,
			"name":"be_ecombo02a.001",
			"pbrMetallicRoughness":{
				"baseColorFactor":[
					0.800000011920929,
					0.800000011920929,
					0.800000011920929,
					1
				],
				"metallicFactor":0,
				"roughnessFactor":0.5
			}
		},
		{
			"doubleSided":true,
			"name":"be_eterrain02.001",
			"pbrMetallicRoughness":{
				"baseColorFactor":[
					0.800000011920929,
					0.800000011920929,
					0.800000011920929,
					1
				],
				"metallicFactor":0,
				"roughnessFactor":0.5
			}
		},
		{
			"doubleSided":true,
			"name":"be_ecombo02a.002",
			"pbrMetallicRoughness":{
				"baseColorFactor":[
					0.800000011920929,
					0.800000011920929,
					0.800000011920929,
					1
				],
				"metallicFactor":0,
				"roughnessFactor":0.5
			}
		},
		{
			"doubleSided":true,
			"name":"be_eterrain02.002",
			"pbrMetallicRoughness":{
				"baseColorFactor":[
					0.800000011920929,
					0.800000011920929,
					0.800000011920929,
					1
				],
				"metallicFactor":0,
				"roughnessFactor":0.5
			}
		},
		{
			"doubleSided":true,
			"name":"be_ecombo02a.003",
			"pbrMetallicRoughness":{
				"baseColorFactor":[
					0.800000011920929,
					0.800000011920929,
					0.800000011920929,
					1
				],
				"metallicFactor":0,
				"roughnessFactor":0.5
			}
		},
		{
			"doubleSided":true,
			"name":"be_eterrain02.003",
			"pbrMetallicRoughness":{
				"baseColorFactor":[
					0.800000011920929,
					0.800000011920929,
					0.800000011920929,
					1
				],
				"metallicFactor":0,
				"roughnessFactor":0.5
			}
		},
		{
			"doubleSided":true,
			"name":"be_ecombo02a.004",
			"pbrMetallicRoughness":{
				"baseColorFactor":[
					0.800000011920929,
					0.800000011920929,
					0.800000011920929,
					1
				],
				"metallicFactor":0,
				"roughnessFactor":0.5
			}
		},
		{
			"doubleSided":true,
			"name":"be_eterrain02.004",
			"pbrMetallicRoughness":{
				"baseColorFactor":[
					0.800000011920929,
					0.800000011920929,
					0.800000011920929,
					1
				],
				"metallicFactor":0,
				"roughnessFactor":0.5
			}
		},
		{
			"doubleSided":true,
			"name":"be_ecombo02a.005",
			"pbrMetallicRoughness":{
				"baseColorFactor":[
					0.800000011920929,
					0.800000011920929,
					0.800000011920929,
					1
				],
				"metallicFactor":0,
				"roughnessFactor":0.5
			}
		}
	],
	"meshes":[
		{
			"name":"Mesh",
			"primitives":[
				{
					"attributes":{
						"POSITION":0,
						"NORMAL":1,
						"TEXCOORD_0":2
					},
					"indices":3,
					"material":0
				},
				{
					"attributes":{
						"POSITION":4,
						"NORMAL":5,
						"TEXCOORD_0":6
					},
					"indices":7,
					"material":1
				}
			]
		},
		{
			"name":"Mesh.001",
			"primitives":[
				{
					"attributes":{
						"POSITION":8,
						"NORMAL":9,
						"TEXCOORD_0":10
					},
					"indices":11,
					"material":2
				},
				{
					"attributes":{
						"POSITION":12,
						"NORMAL":13,
						"TEXCOORD_0":14
					},
					"indices":15,
					"material":3
				}
			]
		},
		{
			"name":"Mesh.002",
			"primitives":[
				{
					"attributes":{
						"POSITION":16,
						"NORMAL":17,
						"TEXCOORD_0":18
					},
					"indices":19,
					"material":4
				},
				{
					"attributes":{
						"POSITION":20,
						"NORMAL":21,
						"TEXCOORD_0":22
					},
					"indices":23,
					"material":5
				}
			]
		},
		{
			"name":"Mesh.003",
			"primitives":[
				{
					"attributes":{
						"POSITION":24,
						"NORMAL":25,
						"TEXCOORD_0":26
					},
					"indices":27,
					"material":6
				},
				{
					"attributes":{
						"POSITION":28,
						"NORMAL":29,
						"TEXCOORD_0":30
					},
					"indices":31,
					"material":7
				}
			]
		},
		{
			"name":"Mesh.004",
			"primitives":[
				{
					"attributes":{
						"POSITION":32,
						"NORMAL":33,
						"TEXCOORD_0":34
					},
					"indices":35,
					"material":8
				},
				{
					"attributes":{
						"POSITION":36,
						"NORMAL":37,
						"TEXCOORD_0":38
					},
					"indices":39,
					"material":9
				}
			]
		},
		{
			"name":"Mesh.005",
			"primitives":[
				{
					"attributes":{
						"POSITION":40,
						"NORMAL":41,
						"TEXCOORD_0":42
					},
					"indices":43,
					"material":10
				}
			]
		}
	],
	"accessors":[
		{
			"bufferView":0,
			"componentType":5126,
			"count":231,
			"max":[
				3.3125,
				28.125,
				5.203125
			],
			"min":[
				-3.65625,
				4.015625,
				-3.53125
			],
			"type":"VEC3"
		},
		{
			"bufferView":1,
			"componentType":5126,
			"count":231,
			"type":"VEC3"
		},
		{
			"bufferView":2,
			"componentType":5126,
			"count":231,
			"type":"VEC2"
		},
		{
			"bufferView":3,
			"componentType":5123,
			"count":231,
			"type":"SCALAR"
		},
		{
			"bufferView":4,
			"componentType":5126,
			"count":120,
			"max":[
				7.90625,
				6.59375,
				10.34375
			],
			"min":[
				-9.734375,
				-0.5625,
				-7.703125
			],
			"type":"VEC3"
		},
		{
			"bufferView":5,
			"componentType":5126,
			"count":120,
			"type":"VEC3"
		},
		{
			"bufferView":6,
			"componentType":5126,
			"count":120,
			"type":"VEC2"
		},
		{
			"bufferView":7,
			"componentType":5123,
			"count":120,
			"type":"SCALAR"
		},
		{
			"bufferView":8,
			"componentType":5126,
			"count":99,
			"max":[
				7.90625,
				6.59375,
				10.34375
			],
			"min":[
				-9.734375,
				-0.5625,
				-7.703125
			],
			"type":"VEC3"
		},
		{
			"bufferView":9,
			"componentType":5126,
			"count":99,
			"type":"VEC3"
		},
		{
			"bufferView":10,
			"componentType":5126,
			"count":99,
			"type":"VEC2"
		},
		{
			"bufferView":11,
			"componentType":5123,
			"count":99,
			"type":"SCALAR"
		},
		{
			"bufferView":12,
			"componentType":5126,
			"count":174,
			"max":[
				3.3125,
				28.125,
				5.203125
			],
			"min":[
				-3.65625,
				4.015625,
				-3.53125
			],
			"type":"VEC3"
		},
		{
			"bufferView":13,
			"componentType":5126,
			"count":174,
			"type":"VEC3"
		},
		{
			"bufferView":14,
			"componentType":5126,
			"count":174,
			"type":"VEC2"
		},
		{
			"bufferView":15,
			"componentType":5123,
			"count":174,
			"type":"SCALAR"
		},
		{
			"bufferView":16,
			"componentType":5126,
			"count":78,
			"max":[
				7.90625,
				6.296875,
				10.34375
			],
			"min":[
				-9.734375,
				-0.5625,
				-7.703125
			],
			"type":"VEC3"
		},
		{
			"bufferView":17,
			"componentType":5126,
			"count":78,
			"type":"VEC3"
		},
		{
			"bufferView":18,
			"componentType":5126,
			"count":78,
			"type":"VEC2"
		},
		{
			"bufferView":19,
			"componentType":5123,
			"count":78,
			"type":"SCALAR"
		},
		{
			"bufferView":20,
			"componentType":5126,
			"count":105,
			"max":[
				3.3125,
				28.125,
				5.203125
			],
			"min":[
				-3.65625,
				4.171875,
				-3.53125
			],
			"type":"VEC3"
		},
		{
			"bufferView":21,
			"componentType":5126,
			"count":105,
			"type":"VEC3"
		},
		{
			"bufferView":22,
			"componentType":5126,
			"count":105,
			"type":"VEC2"
		},
		{
			"bufferView":23,
			"componentType":5123,
			"count":105,
			"type":"SCALAR"
		},
		{
			"bufferView":24,
			"componentType":5126,
			"count":51,
			"max":[
				7.90625,
				6.296875,
				10.34375
			],
			"min":[
				-9.734375,
				-0.5625,
				-7.703125
			],
			"type":"VEC3"
		},
		{
			"bufferView":25,
			"componentType":5126,
			"count":51,
			"type":"VEC3"
		},
		{
			"bufferView":26,
			"componentType":5126,
			"count":51,
			"type":"VEC2"
		},
		{
			"bufferView":27,
			"componentType":5123,
			"count":51,
			"type":"SCALAR"
		},
		{
			"bufferView":28,
			"componentType":5126,
			"count":63,
			"max":[
				3.3125,
				28.125,
				5.203125
			],
			"min":[
				-3.65625,
				4.671875,
				-3.53125
			],
			"type":"VEC3"
		},
		{
			"bufferView":29,
			"componentType":5126,
			"count":63,
			"type":"VEC3"
		},
		{
			"bufferView":30,
			"componentType":5126,
			"count":63,
			"type":"VEC2"
		},
		{
			"bufferView":31,
			"componentType":5123,
			"count":63,
			"type":"SCALAR"
		},
		{
			"bufferView":32,
			"componentType":5126,
			"count":33,
			"max":[
				7.90625,
				6.296875,
				10.34375
			],
			"min":[
				-9.734375,
				-0.40625,
				-7.703125
			],
			"type":"VEC3"
		},
		{
			"bufferView":33,
			"componentType":5126,
			"count":33,
			"type":"VEC3"
		},
		{
			"bufferView":34,
			"componentType":5126,
			"count":33,
			"type":"VEC2"
		},
		{
			"bufferView":35,
			"componentType":5123,
			"count":33,
			"type":"SCALAR"
		},
		{
			"bufferView":36,
			"componentType":5126,
			"count":31,
			"max":[
				3.3125,
				28.125,
				5.203125
			],
			"min":[
				-3.65625,
				4.671875,
				-3.53125
			],
			"type":"VEC3"
		},
		{
			"bufferView":37,
			"componentType":5126,
			"count":31,
			"type":"VEC3"
		},
		{
			"bufferView":38,
			"componentType":5126,
			"count":31,
			"type":"VEC2"
		},
		{
			"bufferView":39,
			"componentType":5123,
			"count":42,
			"type":"SCALAR"
		},
		{
			"bufferView":40,
			"componentType":5126,
			"count":9,
			"max":[
				2.484375,
				28.40625,
				3.828125
			],
			"min":[
				-2.265625,
				-0.671875,
				-2.71875
			],
			"type":"VEC3"
		},
		{
			"bufferView":41,
			"componentType":5126,
			"count":9,
			"type":"VEC3"
		},
		{
			"bufferView":42,
			"componentType":5126,
			"count":9,
			"type":"VEC2"
		},
		{
			"bufferView":43,
			"componentType":5123,
			"count":9,
			"type":"SCALAR"
		}
	],
	"bufferViews":[
		{
			"buffer":0,
			"byteLength":2772,
			"byteOffset":0,
			"target":34962
		},
		{
			"buffer":0,
			"byteLength":2772,
			"byteOffset":2772,
			"target":34962
		},
		{
			"buffer":0,
			"byteLength":1848,
			"byteOffset":5544,
			"target":34962
		},
		{
			"buffer":0,
			"byteLength":462,
			"byteOffset":7392,
			"target":34963
		},
		{
			"buffer":0,
			"byteLength":1440,
			"byteOffset":7856,
			"target":34962
		},
		{
			"buffer":0,
			"byteLength":1440,
			"byteOffset":9296,
			"target":34962
		},
		{
			"buffer":0,
			"byteLength":960,
			"byteOffset":10736,
			"target":34962
		},
		{
			"buffer":0,
			"byteLength":240,
			"byteOffset":11696,
			"target":34963
		},
		{
			"buffer":0,
			"byteLength":1188,
			"byteOffset":11936,
			"target":34962
		},
		{
			"buffer":0,
			"byteLength":1188,
			"byteOffset":13124,
			"target":34962
		},
		{
			"buffer":0,
			"byteLength":792,
			"byteOffset":14312,
			"target":34962
		},
		{
			"buffer":0,
			"byteLength":198,
			"byteOffset":15104,
			"target":34963
		},
		{
			"buffer":0,
			"byteLength":2088,
			"byteOffset":15304,
			"target":34962
		},
		{
			"buffer":0,
			"byteLength":2088,
			"byteOffset":17392,
			"target":34962
		},
		{
			"buffer":0,
			"byteLength":1392,
			"byteOffset":19480,
			"target":34962
		},
		{
			"buffer":0,
			"byteLength":348,
			"byteOffset":20872,
			"target":34963
		},
		{
			"buffer":0,
			"byteLength":936,
			"byteOffset":21220,
			"target":34962
		},
		{
			"buffer":0,
			"byteLength":936,
			"byteOffset":22156,
			"target":34962
		},
		{
			"buffer":0,
			"byteLength":624,
			"byteOffset":23092,
			"target":34962
		},
		{
			"buffer":0,
			"byteLength":156,
			"byteOffset":23716,
			"target":34963
		},
		{
			"buffer":0,
			"byteLength":1260,
			"byteOffset":23872,
			"target":34962
		},
		{
			"buffer":0,
			"byteLength":1260,
			"byteOffset":25132,
			"target":34962
		},
		{
			"buffer":0,
			"byteLength":840,
			"byteOffset":26392,
			"target":34962
		},
		{
			"buffer":0,
			"byteLength":210,
			"byteOffset":27232,
			"target":34963
		},
		{
			"buffer":0,
			"byteLength":612,
			"byteOffset":27444,
			"target":34962
		},
		{
			"buffer":0,
			"byteLength":612,
			"byteOffset":28056,
			"target":34962
		},
		{
			"buffer":0,
			"byteLength":408,
			"byteOffset":28668,
			"target":34962
		},
		{
			"buffer":0,
			"byteLength":102,
			"byteOffset":29076,
			"target":34963
		},
		{
			"buffer":0,
			"byteLength":756,
			"byteOffset":29180,
			"target":34962
		},
		{
			"buffer":0,
			"byteLength":756,
			"byteOffset":29936,
			"target":34962
		},
		{
			"buffer":0,
			"byteLength":504,
			"byteOffset":30692,
			"target":34962
		},
		{
			"buffer":0,
			"byteLength":126,
			"byteOffset":31196,
			"target":34963
		},
		{
			"buffer":0,
			"byteLength":396,
			"byteOffset":31324,
			"target":34962
		},
		{
			"buffer":0,
			"byteLength":396,
			"byteOffset":31720,
			"target":34962
		},
		{
			"buffer":0,
			"byteLength":264,
			"byteOffset":32116,
			"target":34962
		},
		{
			"buffer":0,
			"byteLength":66,
			"byteOffset":32380,
			"target":34963
		},
		{
			"buffer":0,
			"byteLength":372,
			"byteOffset":32448,
			"target":34962
		},
		{
			"buffer":0,
			"byteLength":372,
			"byteOffset":32820,
			"target":34962
		},
		{
			"buffer":0,
			"byteLength":248,
			"byteOffset":33192,
			"target":34962
		},
		{
			"buffer":0,
			"byteLength":84,
			"byteOffset":33440,
			"target":34963
		},
		{
			"buffer":0,
			"byteLength":108,
			"byteOffset":33524,
			"target":34962
		},
		{
			"buffer":0,
			"byteLength":108,
			"byteOffset":33632,
			"target":34962
		},
		{
			"buffer":0,
			"byteLength":72,
			"byteOffset":33740,
			"target":34962
		},
		{
			"buffer":0,
			"byteLength":18,
			"byteOffset":33812,
			"target":34963
		}
	],
	"buffers":[
		{
			"byteLength":33832,
			"uri":"bspir3.bin"
		}
	]
}
