{
	"asset":{
		"generator":"Khronos glTF Blender I/O v4.5.48",
		"version":"2.0"
	},
	"scene":0,
	"scenes":[
		{
			"name":"Scene",
			"nodes":[
				0,
				1,
				2,
				3,
				4,
				5
			]
		}
	],
	"nodes":[
		{
			"mesh":0,
			"name":"Object"
		},
		{
			"mesh":1,
			"name":"Object.001"
		},
		{
			"mesh":2,
			"name":"Object.002"
		},
		{
			"mesh":3,
			"name":"Object.003"
		},
		{
			"mesh":4,
			"name":"Object.004"
		},
		{
			"mesh":5,
			"name":"Object.005"
		}
	],
	"materials":[
		{
			"doubleSided":true,
			"name":"be_eterrain02",
			"pbrMetallicRoughness":{
				"baseColorFactor":[
					0.800000011920929,
					0.800000011920929,
					0.800000011920929,
					1
				],
				"metallicFactor":0,
				"roughnessFactor":0.5
			}
		},
		{
			"doubleSided":true,
			"name":"be_ecombo02a",
			"pbrMetallicRoughness":{
				"baseColorFactor":[
					0.800000011920929,
					0.800000011920929,
					0.800000011920929,
					1
				],
				"metallicFactor":0,
				"roughnessFactor":0.5
			}
		},
		{
			"doubleSided":true,
			"name":"be_eterrain02.001",
			"pbrMetallicRoughness":{
				"baseColorFactor":[
					0.800000011920929,
					0.800000011920929,
					0.800000011920929,
					1
				],
				"metallicFactor":0,
				"roughnessFactor":0.5
			}
		},
		{
			"doubleSided":true,
			"name":"be_ecombo02a.001",
			"pbrMetallicRoughness":{
				"baseColorFactor":[
					0.800000011920929,
					0.800000011920929,
					0.800000011920929,
					1
				],
				"metallicFactor":0,
				"roughnessFactor":0.5
			}
		},
		{
			"doubleSided":true,
			"name":"be_eterrain02.002",
			"pbrMetallicRoughness":{
				"baseColorFactor":[
					0.800000011920929,
					0.800000011920929,
					0.800000011920929,
					1
				],
				"metallicFactor":0,
				"roughnessFactor":0.5
			}
		},
		{
			"doubleSided":true,
			"name":"be_ecombo02a.002",
			"pbrMetallicRoughness":{
				"baseColorFactor":[
					0.800000011920929,
					0.800000011920929,
					0.800000011920929,
					1
				],
				"metallicFactor":0,
				"roughnessFactor":0.5
			}
		},
		{
			"doubleSided":true,
			"name":"be_eterrain02.003",
			"pbrMetallicRoughness":{
				"baseColorFactor":[
					0.800000011920929,
					0.800000011920929,
					0.800000011920929,
					1
				],
				"metallicFactor":0,
				"roughnessFactor":0.5
			}
		},
		{
			"doubleSided":true,
			"name":"be_ecombo02a.003",
			"pbrMetallicRoughness":{
				"baseColorFactor":[
					0.800000011920929,
					0.800000011920929,
					0.800000011920929,
					1
				],
				"metallicFactor":0,
				"roughnessFactor":0.5
			}
		},
		{
			"doubleSided":true,
			"name":"be_eterrain02.004",
			"pbrMetallicRoughness":{
				"baseColorFactor":[
					0.800000011920929,
					0.800000011920929,
					0.800000011920929,
					1
				],
				"metallicFactor":0,
				"roughnessFactor":0.5
			}
		},
		{
			"doubleSided":true,
			"name":"be_ecombo02a.004",
			"pbrMetallicRoughness":{
				"baseColorFactor":[
					0.800000011920929,
					0.800000011920929,
					0.800000011920929,
					1
				],
				"metallicFactor":0,
				"roughnessFactor":0.5
			}
		},
		{
			"doubleSided":true,
			"name":"be_eterrain02.005",
			"pbrMetallicRoughness":{
				"baseColorFactor":[
					0.800000011920929,
					0.800000011920929,
					0.800000011920929,
					1
				],
				"metallicFactor":0,
				"roughnessFactor":0.5
			}
		}
	],
	"meshes":[
		{
			"name":"Mesh",
			"primitives":[
				{
					"attributes":{
						"POSITION":0,
						"NORMAL":1,
						"TEXCOORD_0":2
					},
					"indices":3,
					"material":0
				},
				{
					"attributes":{
						"POSITION":4,
						"NORMAL":5,
						"TEXCOORD_0":6
					},
					"indices":7,
					"material":1
				}
			]
		},
		{
			"name":"Mesh.001",
			"primitives":[
				{
					"attributes":{
						"POSITION":8,
						"NORMAL":9,
						"TEXCOORD_0":10
					},
					"indices":11,
					"material":2
				},
				{
					"attributes":{
						"POSITION":12,
						"NORMAL":13,
						"TEXCOORD_0":14
					},
					"indices":15,
					"material":3
				}
			]
		},
		{
			"name":"Mesh.002",
			"primitives":[
				{
					"attributes":{
						"POSITION":16,
						"NORMAL":17,
						"TEXCOORD_0":18
					},
					"indices":19,
					"material":4
				},
				{
					"attributes":{
						"POSITION":20,
						"NORMAL":21,
						"TEXCOORD_0":22
					},
					"indices":23,
					"material":5
				}
			]
		},
		{
			"name":"Mesh.003",
			"primitives":[
				{
					"attributes":{
						"POSITION":24,
						"NORMAL":25,
						"TEXCOORD_0":26
					},
					"indices":27,
					"material":6
				},
				{
					"attributes":{
						"POSITION":28,
						"NORMAL":29,
						"TEXCOORD_0":30
					},
					"indices":31,
					"material":7
				}
			]
		},
		{
			"name":"Mesh.004",
			"primitives":[
				{
					"attributes":{
						"POSITION":32,
						"NORMAL":33,
						"TEXCOORD_0":34
					},
					"indices":35,
					"material":8
				},
				{
					"attributes":{
						"POSITION":36,
						"NORMAL":37,
						"TEXCOORD_0":38
					},
					"indices":39,
					"material":9
				}
			]
		},
		{
			"name":"Mesh.005",
			"primitives":[
				{
					"attributes":{
						"POSITION":40,
						"NORMAL":41,
						"TEXCOORD_0":42
					},
					"indices":43,
					"material":10
				}
			]
		}
	],
	"accessors":[
		{
			"bufferView":0,
			"componentType":5126,
			"count":1008,
			"max":[
				6.59375,
				28.03125,
				4.296875
			],
			"min":[
				-3.5625,
				1.765625,
				-7.421875
			],
			"type":"VEC3"
		},
		{
			"bufferView":1,
			"componentType":5126,
			"count":1008,
			"type":"VEC3"
		},
		{
			"bufferView":2,
			"componentType":5126,
			"count":1008,
			"type":"VEC2"
		},
		{
			"bufferView":3,
			"componentType":5123,
			"count":1815,
			"type":"SCALAR"
		},
		{
			"bufferView":4,
			"componentType":5126,
			"count":1042,
			"max":[
				8.859375,
				6.484375,
				9.4375
			],
			"min":[
				-9.640625,
				-0.671875,
				-9.21875
			],
			"type":"VEC3"
		},
		{
			"bufferView":5,
			"componentType":5126,
			"count":1042,
			"type":"VEC3"
		},
		{
			"bufferView":6,
			"componentType":5126,
			"count":1042,
			"type":"VEC2"
		},
		{
			"bufferView":7,
			"componentType":5123,
			"count":2418,
			"type":"SCALAR"
		},
		{
			"bufferView":8,
			"componentType":5126,
			"count":936,
			"max":[
				6.59375,
				28.03125,
				4.296875
			],
			"min":[
				-3.5625,
				1.828125,
				-7.515625
			],
			"type":"VEC3"
		},
		{
			"bufferView":9,
			"componentType":5126,
			"count":936,
			"type":"VEC3"
		},
		{
			"bufferView":10,
			"componentType":5126,
			"count":936,
			"type":"VEC2"
		},
		{
			"bufferView":11,
			"componentType":5123,
			"count":1821,
			"type":"SCALAR"
		},
		{
			"bufferView":12,
			"componentType":5126,
			"count":956,
			"max":[
				8.859375,
				6.484375,
				9.4375
			],
			"min":[
				-9.640625,
				-0.671875,
				-9.09375
			],
			"type":"VEC3"
		},
		{
			"bufferView":13,
			"componentType":5126,
			"count":956,
			"type":"VEC3"
		},
		{
			"bufferView":14,
			"componentType":5126,
			"count":956,
			"type":"VEC2"
		},
		{
			"bufferView":15,
			"componentType":5123,
			"count":2277,
			"type":"SCALAR"
		},
		{
			"bufferView":16,
			"componentType":5126,
			"count":765,
			"max":[
				6.59375,
				28.03125,
				4.28125
			],
			"min":[
				-3.59375,
				1.875,
				-7.515625
			],
			"type":"VEC3"
		},
		{
			"bufferView":17,
			"componentType":5126,
			"count":765,
			"type":"VEC3"
		},
		{
			"bufferView":18,
			"componentType":5126,
			"count":765,
			"type":"VEC2"
		},
		{
			"bufferView":19,
			"componentType":5123,
			"count":1503,
			"type":"SCALAR"
		},
		{
			"bufferView":20,
			"componentType":5126,
			"count":726,
			"max":[
				8.859375,
				6.59375,
				9.265625
			],
			"min":[
				-9.578125,
				-0.453125,
				-9.09375
			],
			"type":"VEC3"
		},
		{
			"bufferView":21,
			"componentType":5126,
			"count":726,
			"type":"VEC3"
		},
		{
			"bufferView":22,
			"componentType":5126,
			"count":726,
			"type":"VEC2"
		},
		{
			"bufferView":23,
			"componentType":5123,
			"count":1872,
			"type":"SCALAR"
		},
		{
			"bufferView":24,
			"componentType":5126,
			"count":294,
			"max":[
				6.03125,
				27.953125,
				4.171875
			],
			"min":[
				-3.515625,
				1.875,
				-7.59375
			],
			"type":"VEC3"
		},
		{
			"bufferView":25,
			"componentType":5126,
			"count":294,
			"type":"VEC3"
		},
		{
			"bufferView":26,
			"componentType":5126,
			"count":294,
			"type":"VEC2"
		},
		{
			"bufferView":27,
			"componentType":5123,
			"count":537,
			"type":"SCALAR"
		},
		{
			"bufferView":28,
			"componentType":5126,
			"count":345,
			"max":[
				8.765625,
				6,
				9.265625
			],
			"min":[
				-7.53125,
				-0.328125,
				-9.1875
			],
			"type":"VEC3"
		},
		{
			"bufferView":29,
			"componentType":5126,
			"count":345,
			"type":"VEC3"
		},
		{
			"bufferView":30,
			"componentType":5126,
			"count":345,
			"type":"VEC2"
		},
		{
			"bufferView":31,
			"componentType":5123,
			"count":900,
			"type":"SCALAR"
		},
		{
			"bufferView":32,
			"componentType":5126,
			"count":237,
			"max":[
				7.15625,
				28.015625,
				4.171875
			],
			"min":[
				-1.84375,
				-0.46875,
				-7.671875
			],
			"type":"VEC3"
		},
		{
			"bufferView":33,
			"componentType":5126,
			"count":237,
			"type":"VEC3"
		},
		{
			"bufferView":34,
			"componentType":5126,
			"count":237,
			"type":"VEC2"
		},
		{
			"bufferView":35,
			"componentType":5123,
			"count":504,
			"type":"SCALAR"
		},
		{
			"bufferView":36,
			"componentType":5126,
			"count":86,
			"max":[
				6.796875,
				6.0625,
				9.265625
			],
			"min":[
				-4.453125,
				-0.265625,
				-4.390625
			],
			"type":"VEC3"
		},
		{
			"bufferView":37,
			"componentType":5126,
			"count":86,
			"type":"VEC3"
		},
		{
			"bufferView":38,
			"componentType":5126,
			"count":86,
			"type":"VEC2"
		},
		{
			"bufferView":39,
			"componentType":5123,
			"count":180,
			"type":"SCALAR"
		},
		{
			"bufferView":40,
			"componentType":5126,
			"count":54,
			"max":[
				5.671875,
				27.8125,
				2.421875
			],
			"min":[
				-3.125,
				-0.34375,
				-7.140625
			],
			"type":"VEC3"
		},
		{
			"bufferView":41,
			"componentType":5126,
			"count":54,
			"type":"VEC3"
		},
		{
			"bufferView":42,
			"componentType":5126,
			"count":54,
			"type":"VEC2"
		},
		{
			"bufferView":43,
			"componentType":5123,
			"count":54,
			"type":"SCALAR"
		}
	],
	"bufferViews":[
		{
			"buffer":0,
			"byteLength":12096,
			"byteOffset":0,
			"target":34962
		},
		{
			"buffer":0,
			"byteLength":12096,
			"byteOffset":12096,
			"target":34962
		},
		{
			"buffer":0,
			"byteLength":8064,
			"byteOffset":24192,
			"target":34962
		},
		{
			"buffer":0,
			"byteLength":3630,
			"byteOffset":32256,
			"target":34963
		},
		{
			"buffer":0,
			"byteLength":12504,
			"byteOffset":35888,
			"target":34962
		},
		{
			"buffer":0,
			"byteLength":12504,
			"byteOffset":48392,
			"target":34962
		},
		{
			"buffer":0,
			"byteLength":8336,
			"byteOffset":60896,
			"target":34962
		},
		{
			"buffer":0,
			"byteLength":4836,
			"byteOffset":69232,
			"target":34963
		},
		{
			"buffer":0,
			"byteLength":11232,
			"byteOffset":74068,
			"target":34962
		},
		{
			"buffer":0,
			"byteLength":11232,
			"byteOffset":85300,
			"target":34962
		},
		{
			"buffer":0,
			"byteLength":7488,
			"byteOffset":96532,
			"target":34962
		},
		{
			"buffer":0,
			"byteLength":3642,
			"byteOffset":104020,
			"target":34963
		},
		{
			"buffer":0,
			"byteLength":11472,
			"byteOffset":107664,
			"target":34962
		},
		{
			"buffer":0,
			"byteLength":11472,
			"byteOffset":119136,
			"target":34962
		},
		{
			"buffer":0,
			"byteLength":7648,
			"byteOffset":130608,
			"target":34962
		},
		{
			"buffer":0,
			"byteLength":4554,
			"byteOffset":138256,
			"target":34963
		},
		{
			"buffer":0,
			"byteLength":9180,
			"byteOffset":142812,
			"target":34962
		},
		{
			"buffer":0,
			"byteLength":9180,
			"byteOffset":151992,
			"target":34962
		},
		{
			"buffer":0,
			"byteLength":6120,
			"byteOffset":161172,
			"target":34962
		},
		{
			"buffer":0,
			"byteLength":3006,
			"byteOffset":167292,
			"target":34963
		},
		{
			"buffer":0,
			"byteLength":8712,
			"byteOffset":170300,
			"target":34962
		},
		{
			"buffer":0,
			"byteLength":8712,
			"byteOffset":179012,
			"target":34962
		},
		{
			"buffer":0,
			"byteLength":5808,
			"byteOffset":187724,
			"target":34962
		},
		{
			"buffer":0,
			"byteLength":3744,
			"byteOffset":193532,
			"target":34963
		},
		{
			"buffer":0,
			"byteLength":3528,
			"byteOffset":197276,
			"target":34962
		},
		{
			"buffer":0,
			"byteLength":3528,
			"byteOffset":200804,
			"target":34962
		},
		{
			"buffer":0,
			"byteLength":2352,
			"byteOffset":204332,
			"target":34962
		},
		{
			"buffer":0,
			"byteLength":1074,
			"byteOffset":206684,
			"target":34963
		},
		{
			"buffer":0,
			"byteLength":4140,
			"byteOffset":207760,
			"target":34962
		},
		{
			"buffer":0,
			"byteLength":4140,
			"byteOffset":211900,
			"target":34962
		},
		{
			"buffer":0,
			"byteLength":2760,
			"byteOffset":216040,
			"target":34962
		},
		{
			"buffer":0,
			"byteLength":1800,
			"byteOffset":218800,
			"target":34963
		},
		{
			"buffer":0,
			"byteLength":2844,
			"byteOffset":220600,
			"target":34962
		},
		{
			"buffer":0,
			"byteLength":2844,
			"byteOffset":223444,
			"target":34962
		},
		{
			"buffer":0,
			"byteLength":1896,
			"byteOffset":226288,
			"target":34962
		},
		{
			"buffer":0,
			"byteLength":1008,
			"byteOffset":228184,
			"target":34963
		},
		{
			"buffer":0,
			"byteLength":1032,
			"byteOffset":229192,
			"target":34962
		},
		{
			"buffer":0,
			"byteLength":1032,
			"byteOffset":230224,
			"target":34962
		},
		{
			"buffer":0,
			"byteLength":688,
			"byteOffset":231256,
			"target":34962
		},
		{
			"buffer":0,
			"byteLength":360,
			"byteOffset":231944,
			"target":34963
		},
		{
			"buffer":0,
			"byteLength":648,
			"byteOffset":232304,
			"target":34962
		},
		{
			"buffer":0,
			"byteLength":648,
			"byteOffset":232952,
			"target":34962
		},
		{
			"buffer":0,
			"byteLength":432,
			"byteOffset":233600,
			"target":34962
		},
		{
			"buffer":0,
			"byteLength":108,
			"byteOffset":234032,
			"target":34963
		}
	],
	"buffers":[
		{
			"byteLength":234140,
			"uri":"bspir4.bin"
		}
	]
}
