{
	"asset":{
		"generator":"Khronos glTF Blender I/O v4.5.48",
		"version":"2.0"
	},
	"scene":0,
	"scenes":[
		{
			"name":"Scene",
			"nodes":[
				0,
				1,
				2,
				3,
				4
			]
		}
	],
	"nodes":[
		{
			"mesh":0,
			"name":"Object"
		},
		{
			"mesh":1,
			"name":"Object.001"
		},
		{
			"mesh":2,
			"name":"Object.002"
		},
		{
			"mesh":3,
			"name":"Object.003"
		},
		{
			"mesh":4,
			"name":"Object.004"
		}
	],
	"materials":[
		{
			"doubleSided":true,
			"name":"be_eterrain02",
			"pbrMetallicRoughness":{
				"baseColorFactor":[
					0.800000011920929,
					0.800000011920929,
					0.800000011920929,
					1
				],
				"metallicFactor":0,
				"roughnessFactor":0.5
			}
		},
		{
			"doubleSided":true,
			"name":"be_ecombo02a",
			"pbrMetallicRoughness":{
				"baseColorFactor":[
					0.800000011920929,
					0.800000011920929,
					0.800000011920929,
					1
				],
				"metallicFactor":0,
				"roughnessFactor":0.5
			}
		},
		{
			"doubleSided":true,
			"name":"be_eterrain02.001",
			"pbrMetallicRoughness":{
				"baseColorFactor":[
					0.800000011920929,
					0.800000011920929,
					0.800000011920929,
					1
				],
				"metallicFactor":0,
				"roughnessFactor":0.5
			}
		},
		{
			"doubleSided":true,
			"name":"be_ecombo02a.001",
			"pbrMetallicRoughness":{
				"baseColorFactor":[
					0.800000011920929,
					0.800000011920929,
					0.800000011920929,
					1
				],
				"metallicFactor":0,
				"roughnessFactor":0.5
			}
		},
		{
			"doubleSided":true,
			"name":"be_eterrain02.002",
			"pbrMetallicRoughness":{
				"baseColorFactor":[
					0.800000011920929,
					0.800000011920929,
					0.800000011920929,
					1
				],
				"metallicFactor":0,
				"roughnessFactor":0.5
			}
		},
		{
			"doubleSided":true,
			"name":"be_ecombo02a.002",
			"pbrMetallicRoughness":{
				"baseColorFactor":[
					0.800000011920929,
					0.800000011920929,
					0.800000011920929,
					1
				],
				"metallicFactor":0,
				"roughnessFactor":0.5
			}
		},
		{
			"doubleSided":true,
			"name":"be_eterrain02.003",
			"pbrMetallicRoughness":{
				"baseColorFactor":[
					0.800000011920929,
					0.800000011920929,
					0.800000011920929,
					1
				],
				"metallicFactor":0,
				"roughnessFactor":0.5
			}
		},
		{
			"doubleSided":true,
			"name":"be_ecombo02a.003",
			"pbrMetallicRoughness":{
				"baseColorFactor":[
					0.800000011920929,
					0.800000011920929,
					0.800000011920929,
					1
				],
				"metallicFactor":0,
				"roughnessFactor":0.5
			}
		},
		{
			"doubleSided":true,
			"name":"be_eterrain02.004",
			"pbrMetallicRoughness":{
				"baseColorFactor":[
					0.800000011920929,
					0.800000011920929,
					0.800000011920929,
					1
				],
				"metallicFactor":0,
				"roughnessFactor":0.5
			}
		}
	],
	"meshes":[
		{
			"name":"Mesh",
			"primitives":[
				{
					"attributes":{
						"POSITION":0,
						"NORMAL":1,
						"TEXCOORD_0":2
					},
					"indices":3,
					"material":0
				},
				{
					"attributes":{
						"POSITION":4,
						"NORMAL":5,
						"TEXCOORD_0":6
					},
					"indices":7,
					"material":1
				}
			]
		},
		{
			"name":"Mesh.001",
			"primitives":[
				{
					"attributes":{
						"POSITION":8,
						"NORMAL":9,
						"TEXCOORD_0":10
					},
					"indices":11,
					"material":2
				},
				{
					"attributes":{
						"POSITION":12,
						"NORMAL":13,
						"TEXCOORD_0":14
					},
					"indices":15,
					"material":3
				}
			]
		},
		{
			"name":"Mesh.002",
			"primitives":[
				{
					"attributes":{
						"POSITION":16,
						"NORMAL":17,
						"TEXCOORD_0":18
					},
					"indices":19,
					"material":4
				},
				{
					"attributes":{
						"POSITION":20,
						"NORMAL":21,
						"TEXCOORD_0":22
					},
					"indices":23,
					"material":5
				}
			]
		},
		{
			"name":"Mesh.003",
			"primitives":[
				{
					"attributes":{
						"POSITION":24,
						"NORMAL":25,
						"TEXCOORD_0":26
					},
					"indices":27,
					"material":6
				},
				{
					"attributes":{
						"POSITION":28,
						"NORMAL":29,
						"TEXCOORD_0":30
					},
					"indices":31,
					"material":7
				}
			]
		},
		{
			"name":"Mesh.004",
			"primitives":[
				{
					"attributes":{
						"POSITION":32,
						"NORMAL":33,
						"TEXCOORD_0":34
					},
					"indices":35,
					"material":8
				}
			]
		}
	],
	"accessors":[
		{
			"bufferView":0,
			"componentType":5126,
			"count":231,
			"max":[
				4.9375,
				33.96875,
				7.5
			],
			"min":[
				-4.46875,
				5.765625,
				-4.28125
			],
			"type":"VEC3"
		},
		{
			"bufferView":1,
			"componentType":5126,
			"count":231,
			"type":"VEC3"
		},
		{
			"bufferView":2,
			"componentType":5126,
			"count":231,
			"type":"VEC2"
		},
		{
			"bufferView":3,
			"componentType":5123,
			"count":231,
			"type":"SCALAR"
		},
		{
			"bufferView":4,
			"componentType":5126,
			"count":111,
			"max":[
				11.15625,
				8.828125,
				14.4375
			],
			"min":[
				-12.671875,
				-0.421875,
				-11.28125
			],
			"type":"VEC3"
		},
		{
			"bufferView":5,
			"componentType":5126,
			"count":111,
			"type":"VEC3"
		},
		{
			"bufferView":6,
			"componentType":5126,
			"count":111,
			"type":"VEC2"
		},
		{
			"bufferView":7,
			"componentType":5123,
			"count":111,
			"type":"SCALAR"
		},
		{
			"bufferView":8,
			"componentType":5126,
			"count":174,
			"max":[
				4.9375,
				33.96875,
				7.5
			],
			"min":[
				-4.46875,
				5.765625,
				-4.28125
			],
			"type":"VEC3"
		},
		{
			"bufferView":9,
			"componentType":5126,
			"count":174,
			"type":"VEC3"
		},
		{
			"bufferView":10,
			"componentType":5126,
			"count":174,
			"type":"VEC2"
		},
		{
			"bufferView":11,
			"componentType":5123,
			"count":174,
			"type":"SCALAR"
		},
		{
			"bufferView":12,
			"componentType":5126,
			"count":96,
			"max":[
				11.15625,
				8.828125,
				14.4375
			],
			"min":[
				-12.671875,
				-0.421875,
				-11.28125
			],
			"type":"VEC3"
		},
		{
			"bufferView":13,
			"componentType":5126,
			"count":96,
			"type":"VEC3"
		},
		{
			"bufferView":14,
			"componentType":5126,
			"count":96,
			"type":"VEC2"
		},
		{
			"bufferView":15,
			"componentType":5123,
			"count":96,
			"type":"SCALAR"
		},
		{
			"bufferView":16,
			"componentType":5126,
			"count":99,
			"max":[
				4.9375,
				33.96875,
				7.5
			],
			"min":[
				-4.46875,
				5.96875,
				-4.28125
			],
			"type":"VEC3"
		},
		{
			"bufferView":17,
			"componentType":5126,
			"count":99,
			"type":"VEC3"
		},
		{
			"bufferView":18,
			"componentType":5126,
			"count":99,
			"type":"VEC2"
		},
		{
			"bufferView":19,
			"componentType":5123,
			"count":99,
			"type":"SCALAR"
		},
		{
			"bufferView":20,
			"componentType":5126,
			"count":81,
			"max":[
				11.15625,
				8.828125,
				14.4375
			],
			"min":[
				-12.671875,
				-0.421875,
				-11.28125
			],
			"type":"VEC3"
		},
		{
			"bufferView":21,
			"componentType":5126,
			"count":81,
			"type":"VEC3"
		},
		{
			"bufferView":22,
			"componentType":5126,
			"count":81,
			"type":"VEC2"
		},
		{
			"bufferView":23,
			"componentType":5123,
			"count":81,
			"type":"SCALAR"
		},
		{
			"bufferView":24,
			"componentType":5126,
			"count":99,
			"max":[
				4.9375,
				33.96875,
				7.5
			],
			"min":[
				-4.46875,
				5.96875,
				-4.28125
			],
			"type":"VEC3"
		},
		{
			"bufferView":25,
			"componentType":5126,
			"count":99,
			"type":"VEC3"
		},
		{
			"bufferView":26,
			"componentType":5126,
			"count":99,
			"type":"VEC2"
		},
		{
			"bufferView":27,
			"componentType":5123,
			"count":99,
			"type":"SCALAR"
		},
		{
			"bufferView":28,
			"componentType":5126,
			"count":81,
			"max":[
				11.15625,
				8.828125,
				14.4375
			],
			"min":[
				-12.671875,
				-0.421875,
				-11.28125
			],
			"type":"VEC3"
		},
		{
			"bufferView":29,
			"componentType":5126,
			"count":81,
			"type":"VEC3"
		},
		{
			"bufferView":30,
			"componentType":5126,
			"count":81,
			"type":"VEC2"
		},
		{
			"bufferView":31,
			"componentType":5123,
			"count":81,
			"type":"SCALAR"
		},
		{
			"bufferView":32,
			"componentType":5126,
			"count":9,
			"max":[
				4.171875,
				33.96875,
				7.5
			],
			"min":[
				-4.09375,
				-0.109375,
				-2.140625
			],
			"type":"VEC3"
		},
		{
			"bufferView":33,
			"componentType":5126,
			"count":9,
			"type":"VEC3"
		},
		{
			"bufferView":34,
			"componentType":5126,
			"count":9,
			"type":"VEC2"
		},
		{
			"bufferView":35,
			"componentType":5123,
			"count":9,
			"type":"SCALAR"
		}
	],
	"bufferViews":[
		{
			"buffer":0,
			"byteLength":2772,
			"byteOffset":0,
			"target":34962
		},
		{
			"buffer":0,
			"byteLength":2772,
			"byteOffset":2772,
			"target":34962
		},
		{
			"buffer":0,
			"byteLength":1848,
			"byteOffset":5544,
			"target":34962
		},
		{
			"buffer":0,
			"byteLength":462,
			"byteOffset":7392,
			"target":34963
		},
		{
			"buffer":0,
			"byteLength":1332,
			"byteOffset":7856,
			"target":34962
		},
		{
			"buffer":0,
			"byteLength":1332,
			"byteOffset":9188,
			"target":34962
		},
		{
			"buffer":0,
			"byteLength":888,
			"byteOffset":10520,
			"target":34962
		},
		{
			"buffer":0,
			"byteLength":222,
			"byteOffset":11408,
			"target":34963
		},
		{
			"buffer":0,
			"byteLength":2088,
			"byteOffset":11632,
			"target":34962
		},
		{
			"buffer":0,
			"byteLength":2088,
			"byteOffset":13720,
			"target":34962
		},
		{
			"buffer":0,
			"byteLength":1392,
			"byteOffset":15808,
			"target":34962
		},
		{
			"buffer":0,
			"byteLength":348,
			"byteOffset":17200,
			"target":34963
		},
		{
			"buffer":0,
			"byteLength":1152,
			"byteOffset":17548,
			"target":34962
		},
		{
			"buffer":0,
			"byteLength":1152,
			"byteOffset":18700,
			"target":34962
		},
		{
			"buffer":0,
			"byteLength":768,
			"byteOffset":19852,
			"target":34962
		},
		{
			"buffer":0,
			"byteLength":192,
			"byteOffset":20620,
			"target":34963
		},
		{
			"buffer":0,
			"byteLength":1188,
			"byteOffset":20812,
			"target":34962
		},
		{
			"buffer":0,
			"byteLength":1188,
			"byteOffset":22000,
			"target":34962
		},
		{
			"buffer":0,
			"byteLength":792,
			"byteOffset":23188,
			"target":34962
		},
		{
			"buffer":0,
			"byteLength":198,
			"byteOffset":23980,
			"target":34963
		},
		{
			"buffer":0,
			"byteLength":972,
			"byteOffset":24180,
			"target":34962
		},
		{
			"buffer":0,
			"byteLength":972,
			"byteOffset":25152,
			"target":34962
		},
		{
			"buffer":0,
			"byteLength":648,
			"byteOffset":26124,
			"target":34962
		},
		{
			"buffer":0,
			"byteLength":162,
			"byteOffset":26772,
			"target":34963
		},
		{
			"buffer":0,
			"byteLength":1188,
			"byteOffset":26936,
			"target":34962
		},
		{
			"buffer":0,
			"byteLength":1188,
			"byteOffset":28124,
			"target":34962
		},
		{
			"buffer":0,
			"byteLength":792,
			"byteOffset":29312,
			"target":34962
		},
		{
			"buffer":0,
			"byteLength":198,
			"byteOffset":30104,
			"target":34963
		},
		{
			"buffer":0,
			"byteLength":972,
			"byteOffset":30304,
			"target":34962
		},
		{
			"buffer":0,
			"byteLength":972,
			"byteOffset":31276,
			"target":34962
		},
		{
			"buffer":0,
			"byteLength":648,
			"byteOffset":32248,
			"target":34962
		},
		{
			"buffer":0,
			"byteLength":162,
			"byteOffset":32896,
			"target":34963
		},
		{
			"buffer":0,
			"byteLength":108,
			"byteOffset":33060,
			"target":34962
		},
		{
			"buffer":0,
			"byteLength":108,
			"byteOffset":33168,
			"target":34962
		},
		{
			"buffer":0,
			"byteLength":72,
			"byteOffset":33276,
			"target":34962
		},
		{
			"buffer":0,
			"byteLength":18,
			"byteOffset":33348,
			"target":34963
		}
	],
	"buffers":[
		{
			"byteLength":33368,
			"uri":"bspir5.bin"
		}
	]
}
