{
	"asset":{
		"generator":"Khronos glTF Blender I/O v4.5.48",
		"version":"2.0"
	},
	"scene":0,
	"scenes":[
		{
			"name":"Scene",
			"nodes":[
				0
			]
		}
	],
	"nodes":[
		{
			"mesh":0,
			"name":"Object"
		}
	],
	"materials":[
		{
			"doubleSided":true,
			"name":"BE_EWAL06",
			"pbrMetallicRoughness":{
				"baseColorFactor":[
					0.800000011920929,
					0.800000011920929,
					0.800000011920929,
					1
				],
				"metallicFactor":0,
				"roughnessFactor":0.5
			}
		},
		{
			"doubleSided":true,
			"name":"BE_EWAL07",
			"pbrMetallicRoughness":{
				"baseColorFactor":[
					0.800000011920929,
					0.800000011920929,
					0.800000011920929,
					1
				],
				"metallicFactor":0,
				"roughnessFactor":0.5
			}
		},
		{
			"doubleSided":true,
			"name":"BE_ICOMP01A",
			"pbrMetallicRoughness":{
				"baseColorFactor":[
					0.800000011920929,
					0.800000011920929,
					0.800000011920929,
					1
				],
				"metallicFactor":0,
				"roughnessFactor":0.5
			}
		},
		{
			"doubleSided":true,
			"name":"BE_EWAL01B",
			"pbrMetallicRoughness":{
				"baseColorFactor":[
					0.800000011920929,
					0.800000011920929,
					0.800000011920929,
					1
				],
				"metallicFactor":0,
				"roughnessFactor":0.5
			}
		},
		{
			"doubleSided":true,
			"name":"BE_ITEBOR02B",
			"pbrMetallicRoughness":{
				"baseColorFactor":[
					0.800000011920929,
					0.800000011920929,
					0.800000011920929,
					1
				],
				"metallicFactor":0,
				"roughnessFactor":0.5
			}
		},
		{
			"doubleSided":true,
			"name":"BE_ICOMP01",
			"pbrMetallicRoughness":{
				"baseColorFactor":[
					0.800000011920929,
					0.800000011920929,
					0.800000011920929,
					1
				],
				"metallicFactor":0,
				"roughnessFactor":0.5
			}
		},
		{
			"doubleSided":true,
			"name":"BE_IHALIG",
			"pbrMetallicRoughness":{
				"baseColorFactor":[
					0.800000011920929,
					0.800000011920929,
					0.800000011920929,
					1
				],
				"metallicFactor":0,
				"roughnessFactor":0.5
			}
		},
		{
			"doubleSided":true,
			"name":"BE_ICOLIG01",
			"pbrMetallicRoughness":{
				"baseColorFactor":[
					0.800000011920929,
					0.800000011920929,
					0.800000011920929,
					1
				],
				"metallicFactor":0,
				"roughnessFactor":0.5
			}
		},
		{
			"doubleSided":true,
			"name":"BE_ICEI04",
			"pbrMetallicRoughness":{
				"baseColorFactor":[
					0.800000011920929,
					0.800000011920929,
					0.800000011920929,
					1
				],
				"metallicFactor":0,
				"roughnessFactor":0.5
			}
		},
		{
			"doubleSided":true,
			"name":"BE_ITEBOR02C",
			"pbrMetallicRoughness":{
				"baseColorFactor":[
					0.800000011920929,
					0.800000011920929,
					0.800000011920929,
					1
				],
				"metallicFactor":0,
				"roughnessFactor":0.5
			}
		},
		{
			"doubleSided":true,
			"name":"BE_EWAL08",
			"pbrMetallicRoughness":{
				"baseColorFactor":[
					0.800000011920929,
					0.800000011920929,
					0.800000011920929,
					1
				],
				"metallicFactor":0,
				"roughnessFactor":0.5
			}
		},
		{
			"doubleSided":true,
			"name":"BE_ITELIG02",
			"pbrMetallicRoughness":{
				"baseColorFactor":[
					0.800000011920929,
					0.800000011920929,
					0.800000011920929,
					1
				],
				"metallicFactor":0,
				"roughnessFactor":0.5
			}
		},
		{
			"doubleSided":true,
			"name":"BE_ESPEC01",
			"pbrMetallicRoughness":{
				"baseColorFactor":[
					0.800000011920929,
					0.800000011920929,
					0.800000011920929,
					1
				],
				"metallicFactor":0,
				"roughnessFactor":0.5
			}
		},
		{
			"doubleSided":true,
			"name":"BE_ESPEC06A",
			"pbrMetallicRoughness":{
				"baseColorFactor":[
					0.800000011920929,
					0.800000011920929,
					0.800000011920929,
					1
				],
				"metallicFactor":0,
				"roughnessFactor":0.5
			}
		}
	],
	"meshes":[
		{
			"name":"Mesh",
			"primitives":[
				{
					"attributes":{
						"POSITION":0,
						"NORMAL":1,
						"TEXCOORD_0":2
					},
					"indices":3,
					"material":0
				},
				{
					"attributes":{
						"POSITION":4,
						"NORMAL":5,
						"TEXCOORD_0":6
					},
					"indices":7,
					"material":1
				},
				{
					"attributes":{
						"POSITION":8,
						"NORMAL":9,
						"TEXCOORD_0":10
					},
					"indices":11,
					"material":2
				},
				{
					"attributes":{
						"POSITION":12,
						"NORMAL":13,
						"TEXCOORD_0":14
					},
					"indices":15,
					"material":3
				},
				{
					"attributes":{
						"POSITION":16,
						"NORMAL":17,
						"TEXCOORD_0":18
					},
					"indices":19,
					"material":4
				},
				{
					"attributes":{
						"POSITION":20,
						"NORMAL":21,
						"TEXCOORD_0":22
					},
					"indices":23,
					"material":5
				},
				{
					"attributes":{
						"POSITION":24,
						"NORMAL":25,
						"TEXCOORD_0":26
					},
					"indices":27,
					"material":6
				},
				{
					"attributes":{
						"POSITION":28,
						"NORMAL":29,
						"TEXCOORD_0":30
					},
					"indices":31,
					"material":7
				},
				{
					"attributes":{
						"POSITION":32,
						"NORMAL":33,
						"TEXCOORD_0":34
					},
					"indices":35,
					"material":8
				},
				{
					"attributes":{
						"POSITION":36,
						"NORMAL":37,
						"TEXCOORD_0":38
					},
					"indices":39,
					"material":9
				},
				{
					"attributes":{
						"POSITION":40,
						"NORMAL":41,
						"TEXCOORD_0":42
					},
					"indices":43,
					"material":10
				},
				{
					"attributes":{
						"POSITION":44,
						"NORMAL":45,
						"TEXCOORD_0":46
					},
					"indices":47,
					"material":11
				},
				{
					"attributes":{
						"POSITION":48,
						"NORMAL":49,
						"TEXCOORD_0":50
					},
					"indices":51,
					"material":12
				},
				{
					"attributes":{
						"POSITION":52,
						"NORMAL":53,
						"TEXCOORD_0":54
					},
					"indices":55,
					"material":13
				}
			]
		}
	],
	"accessors":[
		{
			"bufferView":0,
			"componentType":5126,
			"count":294,
			"max":[
				21,
				2,
				39
			],
			"min":[
				-21,
				-23,
				-75
			],
			"type":"VEC3"
		},
		{
			"bufferView":1,
			"componentType":5126,
			"count":294,
			"type":"VEC3"
		},
		{
			"bufferView":2,
			"componentType":5126,
			"count":294,
			"type":"VEC2"
		},
		{
			"bufferView":3,
			"componentType":5123,
			"count":684,
			"type":"SCALAR"
		},
		{
			"bufferView":4,
			"componentType":5126,
			"count":718,
			"max":[
				21,
				5,
				41
			],
			"min":[
				-21,
				-23,
				-75
			],
			"type":"VEC3"
		},
		{
			"bufferView":5,
			"componentType":5126,
			"count":718,
			"type":"VEC3"
		},
		{
			"bufferView":6,
			"componentType":5126,
			"count":718,
			"type":"VEC2"
		},
		{
			"bufferView":7,
			"componentType":5123,
			"count":1278,
			"type":"SCALAR"
		},
		{
			"bufferView":8,
			"componentType":5126,
			"count":54,
			"max":[
				21,
				2,
				41
			],
			"min":[
				-21,
				-12.84375,
				-70
			],
			"type":"VEC3"
		},
		{
			"bufferView":9,
			"componentType":5126,
			"count":54,
			"type":"VEC3"
		},
		{
			"bufferView":10,
			"componentType":5126,
			"count":54,
			"type":"VEC2"
		},
		{
			"bufferView":11,
			"componentType":5123,
			"count":108,
			"type":"SCALAR"
		},
		{
			"bufferView":12,
			"componentType":5126,
			"count":151,
			"max":[
				21,
				4,
				41
			],
			"min":[
				-21,
				-16.84375,
				-70
			],
			"type":"VEC3"
		},
		{
			"bufferView":13,
			"componentType":5126,
			"count":151,
			"type":"VEC3"
		},
		{
			"bufferView":14,
			"componentType":5126,
			"count":151,
			"type":"VEC2"
		},
		{
			"bufferView":15,
			"componentType":5123,
			"count":300,
			"type":"SCALAR"
		},
		{
			"bufferView":16,
			"componentType":5126,
			"count":24,
			"max":[
				21,
				2.5,
				19
			],
			"min":[
				-21,
				2,
				-25
			],
			"type":"VEC3"
		},
		{
			"bufferView":17,
			"componentType":5126,
			"count":24,
			"type":"VEC3"
		},
		{
			"bufferView":18,
			"componentType":5126,
			"count":24,
			"type":"VEC2"
		},
		{
			"bufferView":19,
			"componentType":5123,
			"count":36,
			"type":"SCALAR"
		},
		{
			"bufferView":20,
			"componentType":5126,
			"count":188,
			"max":[
				21,
				4,
				41
			],
			"min":[
				-21,
				-12.84375,
				-70
			],
			"type":"VEC3"
		},
		{
			"bufferView":21,
			"componentType":5126,
			"count":188,
			"type":"VEC3"
		},
		{
			"bufferView":22,
			"componentType":5126,
			"count":188,
			"type":"VEC2"
		},
		{
			"bufferView":23,
			"componentType":5123,
			"count":336,
			"type":"SCALAR"
		},
		{
			"bufferView":24,
			"componentType":5126,
			"count":24,
			"max":[
				19,
				4,
				39
			],
			"min":[
				-19,
				2,
				-23
			],
			"type":"VEC3"
		},
		{
			"bufferView":25,
			"componentType":5126,
			"count":24,
			"type":"VEC3"
		},
		{
			"bufferView":26,
			"componentType":5126,
			"count":24,
			"type":"VEC2"
		},
		{
			"bufferView":27,
			"componentType":5123,
			"count":36,
			"type":"SCALAR"
		},
		{
			"bufferView":28,
			"componentType":5126,
			"count":64,
			"max":[
				20.5,
				5,
				29.5
			],
			"min":[
				-20.5,
				4.5,
				-24.5
			],
			"type":"VEC3"
		},
		{
			"bufferView":29,
			"componentType":5126,
			"count":64,
			"type":"VEC3"
		},
		{
			"bufferView":30,
			"componentType":5126,
			"count":64,
			"type":"VEC2"
		},
		{
			"bufferView":31,
			"componentType":5123,
			"count":96,
			"type":"SCALAR"
		},
		{
			"bufferView":32,
			"componentType":5126,
			"count":80,
			"max":[
				13,
				-3,
				31
			],
			"min":[
				-13,
				-7,
				-15
			],
			"type":"VEC3"
		},
		{
			"bufferView":33,
			"componentType":5126,
			"count":80,
			"type":"VEC3"
		},
		{
			"bufferView":34,
			"componentType":5126,
			"count":80,
			"type":"VEC2"
		},
		{
			"bufferView":35,
			"componentType":5123,
			"count":120,
			"type":"SCALAR"
		},
		{
			"bufferView":36,
			"componentType":5126,
			"count":87,
			"max":[
				13,
				-2,
				31
			],
			"min":[
				-13,
				-3,
				-15
			],
			"type":"VEC3"
		},
		{
			"bufferView":37,
			"componentType":5126,
			"count":87,
			"type":"VEC3"
		},
		{
			"bufferView":38,
			"componentType":5126,
			"count":87,
			"type":"VEC2"
		},
		{
			"bufferView":39,
			"componentType":5123,
			"count":141,
			"type":"SCALAR"
		},
		{
			"bufferView":40,
			"componentType":5126,
			"count":12,
			"max":[
				10,
				2,
				40
			],
			"min":[
				-10,
				-3.75,
				-25
			],
			"type":"VEC3"
		},
		{
			"bufferView":41,
			"componentType":5126,
			"count":12,
			"type":"VEC3"
		},
		{
			"bufferView":42,
			"componentType":5126,
			"count":12,
			"type":"VEC2"
		},
		{
			"bufferView":43,
			"componentType":5123,
			"count":18,
			"type":"SCALAR"
		},
		{
			"bufferView":44,
			"componentType":5126,
			"count":160,
			"max":[
				17.25,
				12.78125,
				41.53125
			],
			"min":[
				-17.25,
				-13.5,
				-69.25
			],
			"type":"VEC3"
		},
		{
			"bufferView":45,
			"componentType":5126,
			"count":160,
			"type":"VEC3"
		},
		{
			"bufferView":46,
			"componentType":5126,
			"count":160,
			"type":"VEC2"
		},
		{
			"bufferView":47,
			"componentType":5123,
			"count":240,
			"type":"SCALAR"
		},
		{
			"bufferView":48,
			"componentType":5126,
			"count":24,
			"max":[
				10,
				11.21875,
				42.75
			],
			"min":[
				-10,
				-3.75,
				40
			],
			"type":"VEC3"
		},
		{
			"bufferView":49,
			"componentType":5126,
			"count":24,
			"type":"VEC3"
		},
		{
			"bufferView":50,
			"componentType":5126,
			"count":24,
			"type":"VEC2"
		},
		{
			"bufferView":51,
			"componentType":5123,
			"count":48,
			"type":"SCALAR"
		},
		{
			"bufferView":52,
			"componentType":5126,
			"count":80,
			"max":[
				10,
				12.78125,
				42.75
			],
			"min":[
				-10,
				-3.75,
				37.25
			],
			"type":"VEC3"
		},
		{
			"bufferView":53,
			"componentType":5126,
			"count":80,
			"type":"VEC3"
		},
		{
			"bufferView":54,
			"componentType":5126,
			"count":80,
			"type":"VEC2"
		},
		{
			"bufferView":55,
			"componentType":5123,
			"count":168,
			"type":"SCALAR"
		}
	],
	"bufferViews":[
		{
			"buffer":0,
			"byteLength":3528,
			"byteOffset":0,
			"target":34962
		},
		{
			"buffer":0,
			"byteLength":3528,
			"byteOffset":3528,
			"target":34962
		},
		{
			"buffer":0,
			"byteLength":2352,
			"byteOffset":7056,
			"target":34962
		},
		{
			"buffer":0,
			"byteLength":1368,
			"byteOffset":9408,
			"target":34963
		},
		{
			"buffer":0,
			"byteLength":8616,
			"byteOffset":10776,
			"target":34962
		},
		{
			"buffer":0,
			"byteLength":8616,
			"byteOffset":19392,
			"target":34962
		},
		{
			"buffer":0,
			"byteLength":5744,
			"byteOffset":28008,
			"target":34962
		},
		{
			"buffer":0,
			"byteLength":2556,
			"byteOffset":33752,
			"target":34963
		},
		{
			"buffer":0,
			"byteLength":648,
			"byteOffset":36308,
			"target":34962
		},
		{
			"buffer":0,
			"byteLength":648,
			"byteOffset":36956,
			"target":34962
		},
		{
			"buffer":0,
			"byteLength":432,
			"byteOffset":37604,
			"target":34962
		},
		{
			"buffer":0,
			"byteLength":216,
			"byteOffset":38036,
			"target":34963
		},
		{
			"buffer":0,
			"byteLength":1812,
			"byteOffset":38252,
			"target":34962
		},
		{
			"buffer":0,
			"byteLength":1812,
			"byteOffset":40064,
			"target":34962
		},
		{
			"buffer":0,
			"byteLength":1208,
			"byteOffset":41876,
			"target":34962
		},
		{
			"buffer":0,
			"byteLength":600,
			"byteOffset":43084,
			"target":34963
		},
		{
			"buffer":0,
			"byteLength":288,
			"byteOffset":43684,
			"target":34962
		},
		{
			"buffer":0,
			"byteLength":288,
			"byteOffset":43972,
			"target":34962
		},
		{
			"buffer":0,
			"byteLength":192,
			"byteOffset":44260,
			"target":34962
		},
		{
			"buffer":0,
			"byteLength":72,
			"byteOffset":44452,
			"target":34963
		},
		{
			"buffer":0,
			"byteLength":2256,
			"byteOffset":44524,
			"target":34962
		},
		{
			"buffer":0,
			"byteLength":2256,
			"byteOffset":46780,
			"target":34962
		},
		{
			"buffer":0,
			"byteLength":1504,
			"byteOffset":49036,
			"target":34962
		},
		{
			"buffer":0,
			"byteLength":672,
			"byteOffset":50540,
			"target":34963
		},
		{
			"buffer":0,
			"byteLength":288,
			"byteOffset":51212,
			"target":34962
		},
		{
			"buffer":0,
			"byteLength":288,
			"byteOffset":51500,
			"target":34962
		},
		{
			"buffer":0,
			"byteLength":192,
			"byteOffset":51788,
			"target":34962
		},
		{
			"buffer":0,
			"byteLength":72,
			"byteOffset":51980,
			"target":34963
		},
		{
			"buffer":0,
			"byteLength":768,
			"byteOffset":52052,
			"target":34962
		},
		{
			"buffer":0,
			"byteLength":768,
			"byteOffset":52820,
			"target":34962
		},
		{
			"buffer":0,
			"byteLength":512,
			"byteOffset":53588,
			"target":34962
		},
		{
			"buffer":0,
			"byteLength":192,
			"byteOffset":54100,
			"target":34963
		},
		{
			"buffer":0,
			"byteLength":960,
			"byteOffset":54292,
			"target":34962
		},
		{
			"buffer":0,
			"byteLength":960,
			"byteOffset":55252,
			"target":34962
		},
		{
			"buffer":0,
			"byteLength":640,
			"byteOffset":56212,
			"target":34962
		},
		{
			"buffer":0,
			"byteLength":240,
			"byteOffset":56852,
			"target":34963
		},
		{
			"buffer":0,
			"byteLength":1044,
			"byteOffset":57092,
			"target":34962
		},
		{
			"buffer":0,
			"byteLength":1044,
			"byteOffset":58136,
			"target":34962
		},
		{
			"buffer":0,
			"byteLength":696,
			"byteOffset":59180,
			"target":34962
		},
		{
			"buffer":0,
			"byteLength":282,
			"byteOffset":59876,
			"target":34963
		},
		{
			"buffer":0,
			"byteLength":144,
			"byteOffset":60160,
			"target":34962
		},
		{
			"buffer":0,
			"byteLength":144,
			"byteOffset":60304,
			"target":34962
		},
		{
			"buffer":0,
			"byteLength":96,
			"byteOffset":60448,
			"target":34962
		},
		{
			"buffer":0,
			"byteLength":36,
			"byteOffset":60544,
			"target":34963
		},
		{
			"buffer":0,
			"byteLength":1920,
			"byteOffset":60580,
			"target":34962
		},
		{
			"buffer":0,
			"byteLength":1920,
			"byteOffset":62500,
			"target":34962
		},
		{
			"buffer":0,
			"byteLength":1280,
			"byteOffset":64420,
			"target":34962
		},
		{
			"buffer":0,
			"byteLength":480,
			"byteOffset":65700,
			"target":34963
		},
		{
			"buffer":0,
			"byteLength":288,
			"byteOffset":66180,
			"target":34962
		},
		{
			"buffer":0,
			"byteLength":288,
			"byteOffset":66468,
			"target":34962
		},
		{
			"buffer":0,
			"byteLength":192,
			"byteOffset":66756,
			"target":34962
		},
		{
			"buffer":0,
			"byteLength":96,
			"byteOffset":66948,
			"target":34963
		},
		{
			"buffer":0,
			"byteLength":960,
			"byteOffset":67044,
			"target":34962
		},
		{
			"buffer":0,
			"byteLength":960,
			"byteOffset":68004,
			"target":34962
		},
		{
			"buffer":0,
			"byteLength":640,
			"byteOffset":68964,
			"target":34962
		},
		{
			"buffer":0,
			"byteLength":336,
			"byteOffset":69604,
			"target":34963
		}
	],
	"buffers":[
		{
			"byteLength":69940,
			"uri":"bvpad.bin"
		}
	]
}
