{
	"asset":{
		"generator":"Khronos glTF Blender I/O v4.5.48",
		"version":"2.0"
	},
	"scene":0,
	"scenes":[
		{
			"name":"Scene",
			"nodes":[
				0,
				1
			]
		}
	],
	"nodes":[
		{
			"mesh":0,
			"name":"Object"
		},
		{
			"mesh":1,
			"name":"Object.001"
		}
	],
	"materials":[
		{
			"doubleSided":true,
			"name":"DS_IFLO02",
			"pbrMetallicRoughness":{
				"baseColorFactor":[
					0.800000011920929,
					0.800000011920929,
					0.800000011920929,
					1
				],
				"metallicFactor":0,
				"roughnessFactor":0.5
			}
		},
		{
			"doubleSided":true,
			"name":"DS_IHACEI01",
			"pbrMetallicRoughness":{
				"baseColorFactor":[
					0.800000011920929,
					0.800000011920929,
					0.800000011920929,
					1
				],
				"metallicFactor":0,
				"roughnessFactor":0.5
			}
		},
		{
			"doubleSided":true,
			"name":"DS_IBOR02",
			"pbrMetallicRoughness":{
				"baseColorFactor":[
					0.800000011920929,
					0.800000011920929,
					0.800000011920929,
					1
				],
				"metallicFactor":0,
				"roughnessFactor":0.5
			}
		},
		{
			"doubleSided":true,
			"name":"DS_ILAVLIGHT",
			"pbrMetallicRoughness":{
				"baseColorFactor":[
					0.800000011920929,
					0.800000011920929,
					0.800000011920929,
					1
				],
				"metallicFactor":0,
				"roughnessFactor":0.5
			}
		},
		{
			"doubleSided":true,
			"name":"DS_IFLOLIG01",
			"pbrMetallicRoughness":{
				"baseColorFactor":[
					0.800000011920929,
					0.800000011920929,
					0.800000011920929,
					1
				],
				"metallicFactor":0,
				"roughnessFactor":0.5
			}
		},
		{
			"doubleSided":true,
			"name":"DS_IWALDECO02",
			"pbrMetallicRoughness":{
				"baseColorFactor":[
					0.800000011920929,
					0.800000011920929,
					0.800000011920929,
					1
				],
				"metallicFactor":0,
				"roughnessFactor":0.5
			}
		},
		{
			"doubleSided":true,
			"name":"DS_EWAL01",
			"pbrMetallicRoughness":{
				"baseColorFactor":[
					0.800000011920929,
					0.800000011920929,
					0.800000011920929,
					1
				],
				"metallicFactor":0,
				"roughnessFactor":0.5
			}
		},
		{
			"doubleSided":true,
			"name":"DS_IWALDECO04",
			"pbrMetallicRoughness":{
				"baseColorFactor":[
					0.800000011920929,
					0.800000011920929,
					0.800000011920929,
					1
				],
				"metallicFactor":0,
				"roughnessFactor":0.5
			}
		},
		{
			"doubleSided":true,
			"name":"DS_ETRANS",
			"pbrMetallicRoughness":{
				"baseColorFactor":[
					0.800000011920929,
					0.800000011920929,
					0.800000011920929,
					1
				],
				"metallicFactor":0,
				"roughnessFactor":0.5
			}
		},
		{
			"doubleSided":true,
			"name":"DS_EWAL02",
			"pbrMetallicRoughness":{
				"baseColorFactor":[
					0.800000011920929,
					0.800000011920929,
					0.800000011920929,
					1
				],
				"metallicFactor":0,
				"roughnessFactor":0.5
			}
		},
		{
			"doubleSided":true,
			"name":"DS_IFLO02.001",
			"pbrMetallicRoughness":{
				"baseColorFactor":[
					0.800000011920929,
					0.800000011920929,
					0.800000011920929,
					1
				],
				"metallicFactor":0,
				"roughnessFactor":0.5
			}
		},
		{
			"doubleSided":true,
			"name":"DS_IHACEI01.001",
			"pbrMetallicRoughness":{
				"baseColorFactor":[
					0.800000011920929,
					0.800000011920929,
					0.800000011920929,
					1
				],
				"metallicFactor":0,
				"roughnessFactor":0.5
			}
		},
		{
			"doubleSided":true,
			"name":"DS_IBOR02.001",
			"pbrMetallicRoughness":{
				"baseColorFactor":[
					0.800000011920929,
					0.800000011920929,
					0.800000011920929,
					1
				],
				"metallicFactor":0,
				"roughnessFactor":0.5
			}
		},
		{
			"doubleSided":true,
			"name":"DS_ILAVLIGHT.001",
			"pbrMetallicRoughness":{
				"baseColorFactor":[
					0.800000011920929,
					0.800000011920929,
					0.800000011920929,
					1
				],
				"metallicFactor":0,
				"roughnessFactor":0.5
			}
		},
		{
			"doubleSided":true,
			"name":"DS_IFLOLIG01.001",
			"pbrMetallicRoughness":{
				"baseColorFactor":[
					0.800000011920929,
					0.800000011920929,
					0.800000011920929,
					1
				],
				"metallicFactor":0,
				"roughnessFactor":0.5
			}
		},
		{
			"doubleSided":true,
			"name":"DS_IWALDECO02.001",
			"pbrMetallicRoughness":{
				"baseColorFactor":[
					0.800000011920929,
					0.800000011920929,
					0.800000011920929,
					1
				],
				"metallicFactor":0,
				"roughnessFactor":0.5
			}
		},
		{
			"doubleSided":true,
			"name":"DS_EWAL01.001",
			"pbrMetallicRoughness":{
				"baseColorFactor":[
					0.800000011920929,
					0.800000011920929,
					0.800000011920929,
					1
				],
				"metallicFactor":0,
				"roughnessFactor":0.5
			}
		},
		{
			"doubleSided":true,
			"name":"DS_IWALDECO04.001",
			"pbrMetallicRoughness":{
				"baseColorFactor":[
					0.800000011920929,
					0.800000011920929,
					0.800000011920929,
					1
				],
				"metallicFactor":0,
				"roughnessFactor":0.5
			}
		},
		{
			"doubleSided":true,
			"name":"DS_ETRANS.001",
			"pbrMetallicRoughness":{
				"baseColorFactor":[
					0.800000011920929,
					0.800000011920929,
					0.800000011920929,
					1
				],
				"metallicFactor":0,
				"roughnessFactor":0.5
			}
		},
		{
			"doubleSided":true,
			"name":"DS_EWAL02.001",
			"pbrMetallicRoughness":{
				"baseColorFactor":[
					0.800000011920929,
					0.800000011920929,
					0.800000011920929,
					1
				],
				"metallicFactor":0,
				"roughnessFactor":0.5
			}
		}
	],
	"meshes":[
		{
			"name":"Mesh",
			"primitives":[
				{
					"attributes":{
						"POSITION":0,
						"NORMAL":1,
						"TEXCOORD_0":2
					},
					"indices":3,
					"material":0
				},
				{
					"attributes":{
						"POSITION":4,
						"NORMAL":5,
						"TEXCOORD_0":6
					},
					"indices":7,
					"material":1
				},
				{
					"attributes":{
						"POSITION":8,
						"NORMAL":9,
						"TEXCOORD_0":10
					},
					"indices":11,
					"material":2
				},
				{
					"attributes":{
						"POSITION":12,
						"NORMAL":13,
						"TEXCOORD_0":14
					},
					"indices":15,
					"material":3
				},
				{
					"attributes":{
						"POSITION":16,
						"NORMAL":17,
						"TEXCOORD_0":18
					},
					"indices":19,
					"material":4
				},
				{
					"attributes":{
						"POSITION":20,
						"NORMAL":21,
						"TEXCOORD_0":22
					},
					"indices":23,
					"material":5
				},
				{
					"attributes":{
						"POSITION":24,
						"NORMAL":25,
						"TEXCOORD_0":26
					},
					"indices":27,
					"material":6
				},
				{
					"attributes":{
						"POSITION":28,
						"NORMAL":29,
						"TEXCOORD_0":30
					},
					"indices":31,
					"material":7
				},
				{
					"attributes":{
						"POSITION":32,
						"NORMAL":33,
						"TEXCOORD_0":34
					},
					"indices":35,
					"material":8
				},
				{
					"attributes":{
						"POSITION":36,
						"NORMAL":37,
						"TEXCOORD_0":38
					},
					"indices":39,
					"material":9
				}
			]
		},
		{
			"name":"Mesh.001",
			"primitives":[
				{
					"attributes":{
						"POSITION":40,
						"NORMAL":41,
						"TEXCOORD_0":42
					},
					"indices":43,
					"material":10
				},
				{
					"attributes":{
						"POSITION":44,
						"NORMAL":45,
						"TEXCOORD_0":46
					},
					"indices":7,
					"material":11
				},
				{
					"attributes":{
						"POSITION":47,
						"NORMAL":48,
						"TEXCOORD_0":49
					},
					"indices":50,
					"material":12
				},
				{
					"attributes":{
						"POSITION":51,
						"NORMAL":52,
						"TEXCOORD_0":53
					},
					"indices":54,
					"material":13
				},
				{
					"attributes":{
						"POSITION":55,
						"NORMAL":56,
						"TEXCOORD_0":57
					},
					"indices":58,
					"material":14
				},
				{
					"attributes":{
						"POSITION":59,
						"NORMAL":60,
						"TEXCOORD_0":61
					},
					"indices":62,
					"material":15
				},
				{
					"attributes":{
						"POSITION":63,
						"NORMAL":64,
						"TEXCOORD_0":65
					},
					"indices":66,
					"material":16
				},
				{
					"attributes":{
						"POSITION":67,
						"NORMAL":68,
						"TEXCOORD_0":69
					},
					"indices":70,
					"material":17
				},
				{
					"attributes":{
						"POSITION":71,
						"NORMAL":72,
						"TEXCOORD_0":73
					},
					"indices":74,
					"material":18
				},
				{
					"attributes":{
						"POSITION":75,
						"NORMAL":76,
						"TEXCOORD_0":77
					},
					"indices":78,
					"material":19
				}
			]
		}
	],
	"accessors":[
		{
			"bufferView":0,
			"componentType":5126,
			"count":16,
			"max":[
				4,
				1,
				4
			],
			"min":[
				-10,
				1,
				-4
			],
			"type":"VEC3"
		},
		{
			"bufferView":1,
			"componentType":5126,
			"count":16,
			"type":"VEC3"
		},
		{
			"bufferView":2,
			"componentType":5126,
			"count":16,
			"type":"VEC2"
		},
		{
			"bufferView":3,
			"componentType":5123,
			"count":48,
			"type":"SCALAR"
		},
		{
			"bufferView":4,
			"componentType":5126,
			"count":10,
			"max":[
				4,
				0,
				2
			],
			"min":[
				-10,
				0,
				-2
			],
			"type":"VEC3"
		},
		{
			"bufferView":5,
			"componentType":5126,
			"count":10,
			"type":"VEC3"
		},
		{
			"bufferView":6,
			"componentType":5126,
			"count":10,
			"type":"VEC2"
		},
		{
			"bufferView":7,
			"componentType":5123,
			"count":24,
			"type":"SCALAR"
		},
		{
			"bufferView":8,
			"componentType":5126,
			"count":56,
			"max":[
				4,
				1.5,
				4.5
			],
			"min":[
				-10,
				0,
				-4.5
			],
			"type":"VEC3"
		},
		{
			"bufferView":9,
			"componentType":5126,
			"count":56,
			"type":"VEC3"
		},
		{
			"bufferView":10,
			"componentType":5126,
			"count":56,
			"type":"VEC2"
		},
		{
			"bufferView":11,
			"componentType":5123,
			"count":144,
			"type":"SCALAR"
		},
		{
			"bufferView":12,
			"componentType":5126,
			"count":16,
			"max":[
				4,
				1,
				4
			],
			"min":[
				-10,
				1,
				-4
			],
			"type":"VEC3"
		},
		{
			"bufferView":13,
			"componentType":5126,
			"count":16,
			"type":"VEC3"
		},
		{
			"bufferView":14,
			"componentType":5126,
			"count":16,
			"type":"VEC2"
		},
		{
			"bufferView":15,
			"componentType":5123,
			"count":24,
			"type":"SCALAR"
		},
		{
			"bufferView":16,
			"componentType":5126,
			"count":20,
			"max":[
				4,
				0,
				4
			],
			"min":[
				-10,
				0,
				-4
			],
			"type":"VEC3"
		},
		{
			"bufferView":17,
			"componentType":5126,
			"count":20,
			"type":"VEC3"
		},
		{
			"bufferView":18,
			"componentType":5126,
			"count":20,
			"type":"VEC2"
		},
		{
			"bufferView":19,
			"componentType":5123,
			"count":36,
			"type":"SCALAR"
		},
		{
			"bufferView":20,
			"componentType":5126,
			"count":16,
			"max":[
				4,
				0.25,
				4
			],
			"min":[
				-10,
				0,
				-4
			],
			"type":"VEC3"
		},
		{
			"bufferView":21,
			"componentType":5126,
			"count":16,
			"type":"VEC3"
		},
		{
			"bufferView":22,
			"componentType":5126,
			"count":16,
			"type":"VEC2"
		},
		{
			"bufferView":23,
			"componentType":5123,
			"count":24,
			"type":"SCALAR"
		},
		{
			"bufferView":24,
			"componentType":5126,
			"count":36,
			"max":[
				4,
				0.5,
				4.25
			],
			"min":[
				-10,
				0.25,
				-4.25
			],
			"type":"VEC3"
		},
		{
			"bufferView":25,
			"componentType":5126,
			"count":36,
			"type":"VEC3"
		},
		{
			"bufferView":26,
			"componentType":5126,
			"count":36,
			"type":"VEC2"
		},
		{
			"bufferView":27,
			"componentType":5123,
			"count":48,
			"type":"SCALAR"
		},
		{
			"bufferView":28,
			"componentType":5126,
			"count":20,
			"max":[
				4,
				1.5,
				4.5
			],
			"min":[
				-10,
				1.5,
				-4.5
			],
			"type":"VEC3"
		},
		{
			"bufferView":29,
			"componentType":5126,
			"count":20,
			"type":"VEC3"
		},
		{
			"bufferView":30,
			"componentType":5126,
			"count":20,
			"type":"VEC2"
		},
		{
			"bufferView":31,
			"componentType":5123,
			"count":36,
			"type":"SCALAR"
		},
		{
			"bufferView":32,
			"componentType":5126,
			"count":94,
			"max":[
				4,
				1.5,
				4.5
			],
			"min":[
				-10,
				0.5,
				-4.5
			],
			"type":"VEC3"
		},
		{
			"bufferView":33,
			"componentType":5126,
			"count":94,
			"type":"VEC3"
		},
		{
			"bufferView":34,
			"componentType":5126,
			"count":94,
			"type":"VEC2"
		},
		{
			"bufferView":35,
			"componentType":5123,
			"count":180,
			"type":"SCALAR"
		},
		{
			"bufferView":36,
			"componentType":5126,
			"count":16,
			"max":[
				0,
				1.5,
				4
			],
			"min":[
				-4,
				0,
				-4
			],
			"type":"VEC3"
		},
		{
			"bufferView":37,
			"componentType":5126,
			"count":16,
			"type":"VEC3"
		},
		{
			"bufferView":38,
			"componentType":5126,
			"count":16,
			"type":"VEC2"
		},
		{
			"bufferView":39,
			"componentType":5123,
			"count":24,
			"type":"SCALAR"
		},
		{
			"bufferView":40,
			"componentType":5126,
			"count":16,
			"max":[
				4,
				1,
				4
			],
			"min":[
				-10,
				1,
				-4
			],
			"type":"VEC3"
		},
		{
			"bufferView":41,
			"componentType":5126,
			"count":16,
			"type":"VEC3"
		},
		{
			"bufferView":42,
			"componentType":5126,
			"count":16,
			"type":"VEC2"
		},
		{
			"bufferView":43,
			"componentType":5123,
			"count":48,
			"type":"SCALAR"
		},
		{
			"bufferView":44,
			"componentType":5126,
			"count":10,
			"max":[
				4,
				0,
				2
			],
			"min":[
				-10,
				0,
				-2
			],
			"type":"VEC3"
		},
		{
			"bufferView":45,
			"componentType":5126,
			"count":10,
			"type":"VEC3"
		},
		{
			"bufferView":46,
			"componentType":5126,
			"count":10,
			"type":"VEC2"
		},
		{
			"bufferView":47,
			"componentType":5126,
			"count":48,
			"max":[
				4,
				1.375,
				4.5
			],
			"min":[
				-10,
				0,
				-4.5
			],
			"type":"VEC3"
		},
		{
			"bufferView":48,
			"componentType":5126,
			"count":48,
			"type":"VEC3"
		},
		{
			"bufferView":49,
			"componentType":5126,
			"count":48,
			"type":"VEC2"
		},
		{
			"bufferView":50,
			"componentType":5123,
			"count":120,
			"type":"SCALAR"
		},
		{
			"bufferView":51,
			"componentType":5126,
			"count":16,
			"max":[
				4,
				1,
				4
			],
			"min":[
				-10,
				1,
				-4
			],
			"type":"VEC3"
		},
		{
			"bufferView":52,
			"componentType":5126,
			"count":16,
			"type":"VEC3"
		},
		{
			"bufferView":53,
			"componentType":5126,
			"count":16,
			"type":"VEC2"
		},
		{
			"bufferView":54,
			"componentType":5123,
			"count":24,
			"type":"SCALAR"
		},
		{
			"bufferView":55,
			"componentType":5126,
			"count":20,
			"max":[
				4,
				0,
				4
			],
			"min":[
				-10,
				0,
				-4
			],
			"type":"VEC3"
		},
		{
			"bufferView":56,
			"componentType":5126,
			"count":20,
			"type":"VEC3"
		},
		{
			"bufferView":57,
			"componentType":5126,
			"count":20,
			"type":"VEC2"
		},
		{
			"bufferView":58,
			"componentType":5123,
			"count":36,
			"type":"SCALAR"
		},
		{
			"bufferView":59,
			"componentType":5126,
			"count":16,
			"max":[
				4,
				0.25,
				4
			],
			"min":[
				-10,
				0,
				-4
			],
			"type":"VEC3"
		},
		{
			"bufferView":60,
			"componentType":5126,
			"count":16,
			"type":"VEC3"
		},
		{
			"bufferView":61,
			"componentType":5126,
			"count":16,
			"type":"VEC2"
		},
		{
			"bufferView":62,
			"componentType":5123,
			"count":24,
			"type":"SCALAR"
		},
		{
			"bufferView":63,
			"componentType":5126,
			"count":36,
			"max":[
				4,
				0.5,
				4.25
			],
			"min":[
				-10,
				0.25,
				-4.25
			],
			"type":"VEC3"
		},
		{
			"bufferView":64,
			"componentType":5126,
			"count":36,
			"type":"VEC3"
		},
		{
			"bufferView":65,
			"componentType":5126,
			"count":36,
			"type":"VEC2"
		},
		{
			"bufferView":66,
			"componentType":5123,
			"count":48,
			"type":"SCALAR"
		},
		{
			"bufferView":67,
			"componentType":5126,
			"count":16,
			"max":[
				4,
				1.375,
				4.5
			],
			"min":[
				-10,
				1.375,
				-4.5
			],
			"type":"VEC3"
		},
		{
			"bufferView":68,
			"componentType":5126,
			"count":16,
			"type":"VEC3"
		},
		{
			"bufferView":69,
			"componentType":5126,
			"count":16,
			"type":"VEC2"
		},
		{
			"bufferView":70,
			"componentType":5123,
			"count":24,
			"type":"SCALAR"
		},
		{
			"bufferView":71,
			"componentType":5126,
			"count":48,
			"max":[
				4,
				1.375,
				4.5
			],
			"min":[
				-10,
				0.5,
				-4.5
			],
			"type":"VEC3"
		},
		{
			"bufferView":72,
			"componentType":5126,
			"count":48,
			"type":"VEC3"
		},
		{
			"bufferView":73,
			"componentType":5126,
			"count":48,
			"type":"VEC2"
		},
		{
			"bufferView":74,
			"componentType":5123,
			"count":72,
			"type":"SCALAR"
		},
		{
			"bufferView":75,
			"componentType":5126,
			"count":16,
			"max":[
				0,
				1.375,
				4.5
			],
			"min":[
				-4,
				0,
				-4.5
			],
			"type":"VEC3"
		},
		{
			"bufferView":76,
			"componentType":5126,
			"count":16,
			"type":"VEC3"
		},
		{
			"bufferView":77,
			"componentType":5126,
			"count":16,
			"type":"VEC2"
		},
		{
			"bufferView":78,
			"componentType":5123,
			"count":24,
			"type":"SCALAR"
		}
	],
	"bufferViews":[
		{
			"buffer":0,
			"byteLength":192,
			"byteOffset":0,
			"target":34962
		},
		{
			"buffer":0,
			"byteLength":192,
			"byteOffset":192,
			"target":34962
		},
		{
			"buffer":0,
			"byteLength":128,
			"byteOffset":384,
			"target":34962
		},
		{
			"buffer":0,
			"byteLength":96,
			"byteOffset":512,
			"target":34963
		},
		{
			"buffer":0,
			"byteLength":120,
			"byteOffset":608,
			"target":34962
		},
		{
			"buffer":0,
			"byteLength":120,
			"byteOffset":728,
			"target":34962
		},
		{
			"buffer":0,
			"byteLength":80,
			"byteOffset":848,
			"target":34962
		},
		{
			"buffer":0,
			"byteLength":48,
			"byteOffset":928,
			"target":34963
		},
		{
			"buffer":0,
			"byteLength":672,
			"byteOffset":976,
			"target":34962
		},
		{
			"buffer":0,
			"byteLength":672,
			"byteOffset":1648,
			"target":34962
		},
		{
			"buffer":0,
			"byteLength":448,
			"byteOffset":2320,
			"target":34962
		},
		{
			"buffer":0,
			"byteLength":288,
			"byteOffset":2768,
			"target":34963
		},
		{
			"buffer":0,
			"byteLength":192,
			"byteOffset":3056,
			"target":34962
		},
		{
			"buffer":0,
			"byteLength":192,
			"byteOffset":3248,
			"target":34962
		},
		{
			"buffer":0,
			"byteLength":128,
			"byteOffset":3440,
			"target":34962
		},
		{
			"buffer":0,
			"byteLength":48,
			"byteOffset":3568,
			"target":34963
		},
		{
			"buffer":0,
			"byteLength":240,
			"byteOffset":3616,
			"target":34962
		},
		{
			"buffer":0,
			"byteLength":240,
			"byteOffset":3856,
			"target":34962
		},
		{
			"buffer":0,
			"byteLength":160,
			"byteOffset":4096,
			"target":34962
		},
		{
			"buffer":0,
			"byteLength":72,
			"byteOffset":4256,
			"target":34963
		},
		{
			"buffer":0,
			"byteLength":192,
			"byteOffset":4328,
			"target":34962
		},
		{
			"buffer":0,
			"byteLength":192,
			"byteOffset":4520,
			"target":34962
		},
		{
			"buffer":0,
			"byteLength":128,
			"byteOffset":4712,
			"target":34962
		},
		{
			"buffer":0,
			"byteLength":48,
			"byteOffset":4840,
			"target":34963
		},
		{
			"buffer":0,
			"byteLength":432,
			"byteOffset":4888,
			"target":34962
		},
		{
			"buffer":0,
			"byteLength":432,
			"byteOffset":5320,
			"target":34962
		},
		{
			"buffer":0,
			"byteLength":288,
			"byteOffset":5752,
			"target":34962
		},
		{
			"buffer":0,
			"byteLength":96,
			"byteOffset":6040,
			"target":34963
		},
		{
			"buffer":0,
			"byteLength":240,
			"byteOffset":6136,
			"target":34962
		},
		{
			"buffer":0,
			"byteLength":240,
			"byteOffset":6376,
			"target":34962
		},
		{
			"buffer":0,
			"byteLength":160,
			"byteOffset":6616,
			"target":34962
		},
		{
			"buffer":0,
			"byteLength":72,
			"byteOffset":6776,
			"target":34963
		},
		{
			"buffer":0,
			"byteLength":1128,
			"byteOffset":6848,
			"target":34962
		},
		{
			"buffer":0,
			"byteLength":1128,
			"byteOffset":7976,
			"target":34962
		},
		{
			"buffer":0,
			"byteLength":752,
			"byteOffset":9104,
			"target":34962
		},
		{
			"buffer":0,
			"byteLength":360,
			"byteOffset":9856,
			"target":34963
		},
		{
			"buffer":0,
			"byteLength":192,
			"byteOffset":10216,
			"target":34962
		},
		{
			"buffer":0,
			"byteLength":192,
			"byteOffset":10408,
			"target":34962
		},
		{
			"buffer":0,
			"byteLength":128,
			"byteOffset":10600,
			"target":34962
		},
		{
			"buffer":0,
			"byteLength":48,
			"byteOffset":10728,
			"target":34963
		},
		{
			"buffer":0,
			"byteLength":192,
			"byteOffset":10776,
			"target":34962
		},
		{
			"buffer":0,
			"byteLength":192,
			"byteOffset":10968,
			"target":34962
		},
		{
			"buffer":0,
			"byteLength":128,
			"byteOffset":11160,
			"target":34962
		},
		{
			"buffer":0,
			"byteLength":96,
			"byteOffset":11288,
			"target":34963
		},
		{
			"buffer":0,
			"byteLength":120,
			"byteOffset":11384,
			"target":34962
		},
		{
			"buffer":0,
			"byteLength":120,
			"byteOffset":11504,
			"target":34962
		},
		{
			"buffer":0,
			"byteLength":80,
			"byteOffset":11624,
			"target":34962
		},
		{
			"buffer":0,
			"byteLength":576,
			"byteOffset":11704,
			"target":34962
		},
		{
			"buffer":0,
			"byteLength":576,
			"byteOffset":12280,
			"target":34962
		},
		{
			"buffer":0,
			"byteLength":384,
			"byteOffset":12856,
			"target":34962
		},
		{
			"buffer":0,
			"byteLength":240,
			"byteOffset":13240,
			"target":34963
		},
		{
			"buffer":0,
			"byteLength":192,
			"byteOffset":13480,
			"target":34962
		},
		{
			"buffer":0,
			"byteLength":192,
			"byteOffset":13672,
			"target":34962
		},
		{
			"buffer":0,
			"byteLength":128,
			"byteOffset":13864,
			"target":34962
		},
		{
			"buffer":0,
			"byteLength":48,
			"byteOffset":13992,
			"target":34963
		},
		{
			"buffer":0,
			"byteLength":240,
			"byteOffset":14040,
			"target":34962
		},
		{
			"buffer":0,
			"byteLength":240,
			"byteOffset":14280,
			"target":34962
		},
		{
			"buffer":0,
			"byteLength":160,
			"byteOffset":14520,
			"target":34962
		},
		{
			"buffer":0,
			"byteLength":72,
			"byteOffset":14680,
			"target":34963
		},
		{
			"buffer":0,
			"byteLength":192,
			"byteOffset":14752,
			"target":34962
		},
		{
			"buffer":0,
			"byteLength":192,
			"byteOffset":14944,
			"target":34962
		},
		{
			"buffer":0,
			"byteLength":128,
			"byteOffset":15136,
			"target":34962
		},
		{
			"buffer":0,
			"byteLength":48,
			"byteOffset":15264,
			"target":34963
		},
		{
			"buffer":0,
			"byteLength":432,
			"byteOffset":15312,
			"target":34962
		},
		{
			"buffer":0,
			"byteLength":432,
			"byteOffset":15744,
			"target":34962
		},
		{
			"buffer":0,
			"byteLength":288,
			"byteOffset":16176,
			"target":34962
		},
		{
			"buffer":0,
			"byteLength":96,
			"byteOffset":16464,
			"target":34963
		},
		{
			"buffer":0,
			"byteLength":192,
			"byteOffset":16560,
			"target":34962
		},
		{
			"buffer":0,
			"byteLength":192,
			"byteOffset":16752,
			"target":34962
		},
		{
			"buffer":0,
			"byteLength":128,
			"byteOffset":16944,
			"target":34962
		},
		{
			"buffer":0,
			"byteLength":48,
			"byteOffset":17072,
			"target":34963
		},
		{
			"buffer":0,
			"byteLength":576,
			"byteOffset":17120,
			"target":34962
		},
		{
			"buffer":0,
			"byteLength":576,
			"byteOffset":17696,
			"target":34962
		},
		{
			"buffer":0,
			"byteLength":384,
			"byteOffset":18272,
			"target":34962
		},
		{
			"buffer":0,
			"byteLength":144,
			"byteOffset":18656,
			"target":34963
		},
		{
			"buffer":0,
			"byteLength":192,
			"byteOffset":18800,
			"target":34962
		},
		{
			"buffer":0,
			"byteLength":192,
			"byteOffset":18992,
			"target":34962
		},
		{
			"buffer":0,
			"byteLength":128,
			"byteOffset":19184,
			"target":34962
		},
		{
			"buffer":0,
			"byteLength":48,
			"byteOffset":19312,
			"target":34963
		}
	],
	"buffers":[
		{
			"byteLength":19360,
			"uri":"dbrdg7a.bin"
		}
	]
}
