{
	"asset":{
		"generator":"Khronos glTF Blender I/O v4.5.48",
		"version":"2.0"
	},
	"scene":0,
	"scenes":[
		{
			"name":"Scene",
			"nodes":[
				0,
				1
			]
		}
	],
	"nodes":[
		{
			"mesh":0,
			"name":"Object"
		},
		{
			"mesh":1,
			"name":"Object.001"
		}
	],
	"materials":[
		{
			"doubleSided":true,
			"name":"DS_IFLO02",
			"pbrMetallicRoughness":{
				"baseColorFactor":[
					0.800000011920929,
					0.800000011920929,
					0.800000011920929,
					1
				],
				"metallicFactor":0,
				"roughnessFactor":0.5
			}
		},
		{
			"doubleSided":true,
			"name":"DS_IHACEI01",
			"pbrMetallicRoughness":{
				"baseColorFactor":[
					0.800000011920929,
					0.800000011920929,
					0.800000011920929,
					1
				],
				"metallicFactor":0,
				"roughnessFactor":0.5
			}
		},
		{
			"doubleSided":true,
			"name":"DS_IBOR02",
			"pbrMetallicRoughness":{
				"baseColorFactor":[
					0.800000011920929,
					0.800000011920929,
					0.800000011920929,
					1
				],
				"metallicFactor":0,
				"roughnessFactor":0.5
			}
		},
		{
			"doubleSided":true,
			"name":"DS_IWALDECO04",
			"pbrMetallicRoughness":{
				"baseColorFactor":[
					0.800000011920929,
					0.800000011920929,
					0.800000011920929,
					1
				],
				"metallicFactor":0,
				"roughnessFactor":0.5
			}
		},
		{
			"doubleSided":true,
			"name":"DS_IFLOLIG01",
			"pbrMetallicRoughness":{
				"baseColorFactor":[
					0.800000011920929,
					0.800000011920929,
					0.800000011920929,
					1
				],
				"metallicFactor":0,
				"roughnessFactor":0.5
			}
		},
		{
			"doubleSided":true,
			"name":"DS_ETRANS",
			"pbrMetallicRoughness":{
				"baseColorFactor":[
					0.800000011920929,
					0.800000011920929,
					0.800000011920929,
					1
				],
				"metallicFactor":0,
				"roughnessFactor":0.5
			}
		},
		{
			"doubleSided":true,
			"name":"DS_EWAL01",
			"pbrMetallicRoughness":{
				"baseColorFactor":[
					0.800000011920929,
					0.800000011920929,
					0.800000011920929,
					1
				],
				"metallicFactor":0,
				"roughnessFactor":0.5
			}
		},
		{
			"doubleSided":true,
			"name":"DS_ILAVLIGHT",
			"pbrMetallicRoughness":{
				"baseColorFactor":[
					0.800000011920929,
					0.800000011920929,
					0.800000011920929,
					1
				],
				"metallicFactor":0,
				"roughnessFactor":0.5
			}
		},
		{
			"doubleSided":true,
			"name":"DS_IWALDECO02",
			"pbrMetallicRoughness":{
				"baseColorFactor":[
					0.800000011920929,
					0.800000011920929,
					0.800000011920929,
					1
				],
				"metallicFactor":0,
				"roughnessFactor":0.5
			}
		},
		{
			"doubleSided":true,
			"name":"DS_IFLO02.001",
			"pbrMetallicRoughness":{
				"baseColorFactor":[
					0.800000011920929,
					0.800000011920929,
					0.800000011920929,
					1
				],
				"metallicFactor":0,
				"roughnessFactor":0.5
			}
		},
		{
			"doubleSided":true,
			"name":"DS_IHACEI01.001",
			"pbrMetallicRoughness":{
				"baseColorFactor":[
					0.800000011920929,
					0.800000011920929,
					0.800000011920929,
					1
				],
				"metallicFactor":0,
				"roughnessFactor":0.5
			}
		},
		{
			"doubleSided":true,
			"name":"DS_IBOR02.001",
			"pbrMetallicRoughness":{
				"baseColorFactor":[
					0.800000011920929,
					0.800000011920929,
					0.800000011920929,
					1
				],
				"metallicFactor":0,
				"roughnessFactor":0.5
			}
		},
		{
			"doubleSided":true,
			"name":"DS_IWALDECO04.001",
			"pbrMetallicRoughness":{
				"baseColorFactor":[
					0.800000011920929,
					0.800000011920929,
					0.800000011920929,
					1
				],
				"metallicFactor":0,
				"roughnessFactor":0.5
			}
		},
		{
			"doubleSided":true,
			"name":"DS_IFLOLIG01.001",
			"pbrMetallicRoughness":{
				"baseColorFactor":[
					0.800000011920929,
					0.800000011920929,
					0.800000011920929,
					1
				],
				"metallicFactor":0,
				"roughnessFactor":0.5
			}
		},
		{
			"doubleSided":true,
			"name":"DS_ETRANS.001",
			"pbrMetallicRoughness":{
				"baseColorFactor":[
					0.800000011920929,
					0.800000011920929,
					0.800000011920929,
					1
				],
				"metallicFactor":0,
				"roughnessFactor":0.5
			}
		},
		{
			"doubleSided":true,
			"name":"DS_EWAL01.001",
			"pbrMetallicRoughness":{
				"baseColorFactor":[
					0.800000011920929,
					0.800000011920929,
					0.800000011920929,
					1
				],
				"metallicFactor":0,
				"roughnessFactor":0.5
			}
		},
		{
			"doubleSided":true,
			"name":"DS_ILAVLIGHT.001",
			"pbrMetallicRoughness":{
				"baseColorFactor":[
					0.800000011920929,
					0.800000011920929,
					0.800000011920929,
					1
				],
				"metallicFactor":0,
				"roughnessFactor":0.5
			}
		},
		{
			"doubleSided":true,
			"name":"DS_IWALDECO02.001",
			"pbrMetallicRoughness":{
				"baseColorFactor":[
					0.800000011920929,
					0.800000011920929,
					0.800000011920929,
					1
				],
				"metallicFactor":0,
				"roughnessFactor":0.5
			}
		}
	],
	"meshes":[
		{
			"name":"Mesh",
			"primitives":[
				{
					"attributes":{
						"POSITION":0,
						"NORMAL":1,
						"TEXCOORD_0":2
					},
					"indices":3,
					"material":0
				},
				{
					"attributes":{
						"POSITION":4,
						"NORMAL":5,
						"TEXCOORD_0":6
					},
					"indices":7,
					"material":1
				},
				{
					"attributes":{
						"POSITION":8,
						"NORMAL":9,
						"TEXCOORD_0":10
					},
					"indices":11,
					"material":2
				},
				{
					"attributes":{
						"POSITION":12,
						"NORMAL":13,
						"TEXCOORD_0":14
					},
					"indices":15,
					"material":3
				},
				{
					"attributes":{
						"POSITION":16,
						"NORMAL":17,
						"TEXCOORD_0":18
					},
					"indices":19,
					"material":4
				},
				{
					"attributes":{
						"POSITION":20,
						"NORMAL":21,
						"TEXCOORD_0":22
					},
					"indices":23,
					"material":5
				},
				{
					"attributes":{
						"POSITION":24,
						"NORMAL":25,
						"TEXCOORD_0":26
					},
					"indices":27,
					"material":6
				},
				{
					"attributes":{
						"POSITION":28,
						"NORMAL":29,
						"TEXCOORD_0":30
					},
					"indices":31,
					"material":7
				},
				{
					"attributes":{
						"POSITION":32,
						"NORMAL":33,
						"TEXCOORD_0":34
					},
					"indices":35,
					"material":8
				}
			]
		},
		{
			"name":"Mesh.001",
			"primitives":[
				{
					"attributes":{
						"POSITION":36,
						"NORMAL":37,
						"TEXCOORD_0":38
					},
					"indices":39,
					"material":9
				},
				{
					"attributes":{
						"POSITION":40,
						"NORMAL":41,
						"TEXCOORD_0":42
					},
					"indices":7,
					"material":10
				},
				{
					"attributes":{
						"POSITION":43,
						"NORMAL":44,
						"TEXCOORD_0":45
					},
					"indices":46,
					"material":11
				},
				{
					"attributes":{
						"POSITION":47,
						"NORMAL":48,
						"TEXCOORD_0":49
					},
					"indices":50,
					"material":12
				},
				{
					"attributes":{
						"POSITION":51,
						"NORMAL":52,
						"TEXCOORD_0":53
					},
					"indices":54,
					"material":13
				},
				{
					"attributes":{
						"POSITION":55,
						"NORMAL":56,
						"TEXCOORD_0":57
					},
					"indices":58,
					"material":14
				},
				{
					"attributes":{
						"POSITION":59,
						"NORMAL":60,
						"TEXCOORD_0":61
					},
					"indices":62,
					"material":15
				},
				{
					"attributes":{
						"POSITION":63,
						"NORMAL":64,
						"TEXCOORD_0":65
					},
					"indices":66,
					"material":16
				},
				{
					"attributes":{
						"POSITION":67,
						"NORMAL":68,
						"TEXCOORD_0":69
					},
					"indices":70,
					"material":17
				}
			]
		}
	],
	"accessors":[
		{
			"bufferView":0,
			"componentType":5126,
			"count":8,
			"max":[
				16,
				1,
				3.5
			],
			"min":[
				-16,
				1,
				-3.5
			],
			"type":"VEC3"
		},
		{
			"bufferView":1,
			"componentType":5126,
			"count":8,
			"type":"VEC3"
		},
		{
			"bufferView":2,
			"componentType":5126,
			"count":8,
			"type":"VEC2"
		},
		{
			"bufferView":3,
			"componentType":5123,
			"count":18,
			"type":"SCALAR"
		},
		{
			"bufferView":4,
			"componentType":5126,
			"count":4,
			"max":[
				16,
				0,
				2
			],
			"min":[
				-16,
				0,
				-2
			],
			"type":"VEC3"
		},
		{
			"bufferView":5,
			"componentType":5126,
			"count":4,
			"type":"VEC3"
		},
		{
			"bufferView":6,
			"componentType":5126,
			"count":4,
			"type":"VEC2"
		},
		{
			"bufferView":7,
			"componentType":5123,
			"count":6,
			"type":"SCALAR"
		},
		{
			"bufferView":8,
			"componentType":5126,
			"count":42,
			"max":[
				16,
				1.5,
				4.5
			],
			"min":[
				-16,
				0,
				-4.5
			],
			"type":"VEC3"
		},
		{
			"bufferView":9,
			"componentType":5126,
			"count":42,
			"type":"VEC3"
		},
		{
			"bufferView":10,
			"componentType":5126,
			"count":42,
			"type":"VEC2"
		},
		{
			"bufferView":11,
			"componentType":5123,
			"count":114,
			"type":"SCALAR"
		},
		{
			"bufferView":12,
			"componentType":5126,
			"count":8,
			"max":[
				16,
				1.5,
				4.5
			],
			"min":[
				-16,
				1.5,
				-4.5
			],
			"type":"VEC3"
		},
		{
			"bufferView":13,
			"componentType":5126,
			"count":8,
			"type":"VEC3"
		},
		{
			"bufferView":14,
			"componentType":5126,
			"count":8,
			"type":"VEC2"
		},
		{
			"bufferView":15,
			"componentType":5123,
			"count":12,
			"type":"SCALAR"
		},
		{
			"bufferView":16,
			"componentType":5126,
			"count":12,
			"max":[
				16,
				0,
				4
			],
			"min":[
				-16,
				0,
				-4
			],
			"type":"VEC3"
		},
		{
			"bufferView":17,
			"componentType":5126,
			"count":12,
			"type":"VEC3"
		},
		{
			"bufferView":18,
			"componentType":5126,
			"count":12,
			"type":"VEC2"
		},
		{
			"bufferView":19,
			"componentType":5123,
			"count":24,
			"type":"SCALAR"
		},
		{
			"bufferView":20,
			"componentType":5126,
			"count":42,
			"max":[
				16,
				1.5,
				4.5
			],
			"min":[
				-16,
				0.5,
				-4.5
			],
			"type":"VEC3"
		},
		{
			"bufferView":21,
			"componentType":5126,
			"count":42,
			"type":"VEC3"
		},
		{
			"bufferView":22,
			"componentType":5126,
			"count":42,
			"type":"VEC2"
		},
		{
			"bufferView":23,
			"componentType":5123,
			"count":78,
			"type":"SCALAR"
		},
		{
			"bufferView":24,
			"componentType":5126,
			"count":20,
			"max":[
				16,
				0.5,
				4.25
			],
			"min":[
				-16,
				0.25,
				-4.25
			],
			"type":"VEC3"
		},
		{
			"bufferView":25,
			"componentType":5126,
			"count":20,
			"type":"VEC3"
		},
		{
			"bufferView":26,
			"componentType":5126,
			"count":20,
			"type":"VEC2"
		},
		{
			"bufferView":27,
			"componentType":5123,
			"count":24,
			"type":"SCALAR"
		},
		{
			"bufferView":28,
			"componentType":5126,
			"count":8,
			"max":[
				16,
				1,
				4
			],
			"min":[
				-16,
				1,
				-4
			],
			"type":"VEC3"
		},
		{
			"bufferView":29,
			"componentType":5126,
			"count":8,
			"type":"VEC3"
		},
		{
			"bufferView":30,
			"componentType":5126,
			"count":8,
			"type":"VEC2"
		},
		{
			"bufferView":31,
			"componentType":5123,
			"count":12,
			"type":"SCALAR"
		},
		{
			"bufferView":32,
			"componentType":5126,
			"count":8,
			"max":[
				16,
				0.25,
				4
			],
			"min":[
				-16,
				0,
				-4
			],
			"type":"VEC3"
		},
		{
			"bufferView":33,
			"componentType":5126,
			"count":8,
			"type":"VEC3"
		},
		{
			"bufferView":34,
			"componentType":5126,
			"count":8,
			"type":"VEC2"
		},
		{
			"bufferView":35,
			"componentType":5123,
			"count":12,
			"type":"SCALAR"
		},
		{
			"bufferView":36,
			"componentType":5126,
			"count":8,
			"max":[
				16,
				1,
				3.5
			],
			"min":[
				-16,
				1,
				-3.5
			],
			"type":"VEC3"
		},
		{
			"bufferView":37,
			"componentType":5126,
			"count":8,
			"type":"VEC3"
		},
		{
			"bufferView":38,
			"componentType":5126,
			"count":8,
			"type":"VEC2"
		},
		{
			"bufferView":39,
			"componentType":5123,
			"count":18,
			"type":"SCALAR"
		},
		{
			"bufferView":40,
			"componentType":5126,
			"count":4,
			"max":[
				16,
				0,
				2
			],
			"min":[
				-16,
				0,
				-2
			],
			"type":"VEC3"
		},
		{
			"bufferView":41,
			"componentType":5126,
			"count":4,
			"type":"VEC3"
		},
		{
			"bufferView":42,
			"componentType":5126,
			"count":4,
			"type":"VEC2"
		},
		{
			"bufferView":43,
			"componentType":5126,
			"count":38,
			"max":[
				16,
				1.375,
				4.5
			],
			"min":[
				-16,
				0,
				-4.5
			],
			"type":"VEC3"
		},
		{
			"bufferView":44,
			"componentType":5126,
			"count":38,
			"type":"VEC3"
		},
		{
			"bufferView":45,
			"componentType":5126,
			"count":38,
			"type":"VEC2"
		},
		{
			"bufferView":46,
			"componentType":5123,
			"count":102,
			"type":"SCALAR"
		},
		{
			"bufferView":47,
			"componentType":5126,
			"count":8,
			"max":[
				16,
				1.375,
				4.5
			],
			"min":[
				-16,
				1.375,
				-4.5
			],
			"type":"VEC3"
		},
		{
			"bufferView":48,
			"componentType":5126,
			"count":8,
			"type":"VEC3"
		},
		{
			"bufferView":49,
			"componentType":5126,
			"count":8,
			"type":"VEC2"
		},
		{
			"bufferView":50,
			"componentType":5123,
			"count":12,
			"type":"SCALAR"
		},
		{
			"bufferView":51,
			"componentType":5126,
			"count":12,
			"max":[
				16,
				0,
				4
			],
			"min":[
				-16,
				0,
				-4
			],
			"type":"VEC3"
		},
		{
			"bufferView":52,
			"componentType":5126,
			"count":12,
			"type":"VEC3"
		},
		{
			"bufferView":53,
			"componentType":5126,
			"count":12,
			"type":"VEC2"
		},
		{
			"bufferView":54,
			"componentType":5123,
			"count":24,
			"type":"SCALAR"
		},
		{
			"bufferView":55,
			"componentType":5126,
			"count":26,
			"max":[
				16,
				1.375,
				4.5
			],
			"min":[
				-16,
				0.5,
				-4.5
			],
			"type":"VEC3"
		},
		{
			"bufferView":56,
			"componentType":5126,
			"count":26,
			"type":"VEC3"
		},
		{
			"bufferView":57,
			"componentType":5126,
			"count":26,
			"type":"VEC2"
		},
		{
			"bufferView":58,
			"componentType":5123,
			"count":42,
			"type":"SCALAR"
		},
		{
			"bufferView":59,
			"componentType":5126,
			"count":20,
			"max":[
				16,
				0.5,
				4.25
			],
			"min":[
				-16,
				0.25,
				-4.25
			],
			"type":"VEC3"
		},
		{
			"bufferView":60,
			"componentType":5126,
			"count":20,
			"type":"VEC3"
		},
		{
			"bufferView":61,
			"componentType":5126,
			"count":20,
			"type":"VEC2"
		},
		{
			"bufferView":62,
			"componentType":5123,
			"count":24,
			"type":"SCALAR"
		},
		{
			"bufferView":63,
			"componentType":5126,
			"count":8,
			"max":[
				16,
				1,
				4
			],
			"min":[
				-16,
				1,
				-4
			],
			"type":"VEC3"
		},
		{
			"bufferView":64,
			"componentType":5126,
			"count":8,
			"type":"VEC3"
		},
		{
			"bufferView":65,
			"componentType":5126,
			"count":8,
			"type":"VEC2"
		},
		{
			"bufferView":66,
			"componentType":5123,
			"count":12,
			"type":"SCALAR"
		},
		{
			"bufferView":67,
			"componentType":5126,
			"count":8,
			"max":[
				16,
				0.25,
				4
			],
			"min":[
				-16,
				0,
				-4
			],
			"type":"VEC3"
		},
		{
			"bufferView":68,
			"componentType":5126,
			"count":8,
			"type":"VEC3"
		},
		{
			"bufferView":69,
			"componentType":5126,
			"count":8,
			"type":"VEC2"
		},
		{
			"bufferView":70,
			"componentType":5123,
			"count":12,
			"type":"SCALAR"
		}
	],
	"bufferViews":[
		{
			"buffer":0,
			"byteLength":96,
			"byteOffset":0,
			"target":34962
		},
		{
			"buffer":0,
			"byteLength":96,
			"byteOffset":96,
			"target":34962
		},
		{
			"buffer":0,
			"byteLength":64,
			"byteOffset":192,
			"target":34962
		},
		{
			"buffer":0,
			"byteLength":36,
			"byteOffset":256,
			"target":34963
		},
		{
			"buffer":0,
			"byteLength":48,
			"byteOffset":292,
			"target":34962
		},
		{
			"buffer":0,
			"byteLength":48,
			"byteOffset":340,
			"target":34962
		},
		{
			"buffer":0,
			"byteLength":32,
			"byteOffset":388,
			"target":34962
		},
		{
			"buffer":0,
			"byteLength":12,
			"byteOffset":420,
			"target":34963
		},
		{
			"buffer":0,
			"byteLength":504,
			"byteOffset":432,
			"target":34962
		},
		{
			"buffer":0,
			"byteLength":504,
			"byteOffset":936,
			"target":34962
		},
		{
			"buffer":0,
			"byteLength":336,
			"byteOffset":1440,
			"target":34962
		},
		{
			"buffer":0,
			"byteLength":228,
			"byteOffset":1776,
			"target":34963
		},
		{
			"buffer":0,
			"byteLength":96,
			"byteOffset":2004,
			"target":34962
		},
		{
			"buffer":0,
			"byteLength":96,
			"byteOffset":2100,
			"target":34962
		},
		{
			"buffer":0,
			"byteLength":64,
			"byteOffset":2196,
			"target":34962
		},
		{
			"buffer":0,
			"byteLength":24,
			"byteOffset":2260,
			"target":34963
		},
		{
			"buffer":0,
			"byteLength":144,
			"byteOffset":2284,
			"target":34962
		},
		{
			"buffer":0,
			"byteLength":144,
			"byteOffset":2428,
			"target":34962
		},
		{
			"buffer":0,
			"byteLength":96,
			"byteOffset":2572,
			"target":34962
		},
		{
			"buffer":0,
			"byteLength":48,
			"byteOffset":2668,
			"target":34963
		},
		{
			"buffer":0,
			"byteLength":504,
			"byteOffset":2716,
			"target":34962
		},
		{
			"buffer":0,
			"byteLength":504,
			"byteOffset":3220,
			"target":34962
		},
		{
			"buffer":0,
			"byteLength":336,
			"byteOffset":3724,
			"target":34962
		},
		{
			"buffer":0,
			"byteLength":156,
			"byteOffset":4060,
			"target":34963
		},
		{
			"buffer":0,
			"byteLength":240,
			"byteOffset":4216,
			"target":34962
		},
		{
			"buffer":0,
			"byteLength":240,
			"byteOffset":4456,
			"target":34962
		},
		{
			"buffer":0,
			"byteLength":160,
			"byteOffset":4696,
			"target":34962
		},
		{
			"buffer":0,
			"byteLength":48,
			"byteOffset":4856,
			"target":34963
		},
		{
			"buffer":0,
			"byteLength":96,
			"byteOffset":4904,
			"target":34962
		},
		{
			"buffer":0,
			"byteLength":96,
			"byteOffset":5000,
			"target":34962
		},
		{
			"buffer":0,
			"byteLength":64,
			"byteOffset":5096,
			"target":34962
		},
		{
			"buffer":0,
			"byteLength":24,
			"byteOffset":5160,
			"target":34963
		},
		{
			"buffer":0,
			"byteLength":96,
			"byteOffset":5184,
			"target":34962
		},
		{
			"buffer":0,
			"byteLength":96,
			"byteOffset":5280,
			"target":34962
		},
		{
			"buffer":0,
			"byteLength":64,
			"byteOffset":5376,
			"target":34962
		},
		{
			"buffer":0,
			"byteLength":24,
			"byteOffset":5440,
			"target":34963
		},
		{
			"buffer":0,
			"byteLength":96,
			"byteOffset":5464,
			"target":34962
		},
		{
			"buffer":0,
			"byteLength":96,
			"byteOffset":5560,
			"target":34962
		},
		{
			"buffer":0,
			"byteLength":64,
			"byteOffset":5656,
			"target":34962
		},
		{
			"buffer":0,
			"byteLength":36,
			"byteOffset":5720,
			"target":34963
		},
		{
			"buffer":0,
			"byteLength":48,
			"byteOffset":5756,
			"target":34962
		},
		{
			"buffer":0,
			"byteLength":48,
			"byteOffset":5804,
			"target":34962
		},
		{
			"buffer":0,
			"byteLength":32,
			"byteOffset":5852,
			"target":34962
		},
		{
			"buffer":0,
			"byteLength":456,
			"byteOffset":5884,
			"target":34962
		},
		{
			"buffer":0,
			"byteLength":456,
			"byteOffset":6340,
			"target":34962
		},
		{
			"buffer":0,
			"byteLength":304,
			"byteOffset":6796,
			"target":34962
		},
		{
			"buffer":0,
			"byteLength":204,
			"byteOffset":7100,
			"target":34963
		},
		{
			"buffer":0,
			"byteLength":96,
			"byteOffset":7304,
			"target":34962
		},
		{
			"buffer":0,
			"byteLength":96,
			"byteOffset":7400,
			"target":34962
		},
		{
			"buffer":0,
			"byteLength":64,
			"byteOffset":7496,
			"target":34962
		},
		{
			"buffer":0,
			"byteLength":24,
			"byteOffset":7560,
			"target":34963
		},
		{
			"buffer":0,
			"byteLength":144,
			"byteOffset":7584,
			"target":34962
		},
		{
			"buffer":0,
			"byteLength":144,
			"byteOffset":7728,
			"target":34962
		},
		{
			"buffer":0,
			"byteLength":96,
			"byteOffset":7872,
			"target":34962
		},
		{
			"buffer":0,
			"byteLength":48,
			"byteOffset":7968,
			"target":34963
		},
		{
			"buffer":0,
			"byteLength":312,
			"byteOffset":8016,
			"target":34962
		},
		{
			"buffer":0,
			"byteLength":312,
			"byteOffset":8328,
			"target":34962
		},
		{
			"buffer":0,
			"byteLength":208,
			"byteOffset":8640,
			"target":34962
		},
		{
			"buffer":0,
			"byteLength":84,
			"byteOffset":8848,
			"target":34963
		},
		{
			"buffer":0,
			"byteLength":240,
			"byteOffset":8932,
			"target":34962
		},
		{
			"buffer":0,
			"byteLength":240,
			"byteOffset":9172,
			"target":34962
		},
		{
			"buffer":0,
			"byteLength":160,
			"byteOffset":9412,
			"target":34962
		},
		{
			"buffer":0,
			"byteLength":48,
			"byteOffset":9572,
			"target":34963
		},
		{
			"buffer":0,
			"byteLength":96,
			"byteOffset":9620,
			"target":34962
		},
		{
			"buffer":0,
			"byteLength":96,
			"byteOffset":9716,
			"target":34962
		},
		{
			"buffer":0,
			"byteLength":64,
			"byteOffset":9812,
			"target":34962
		},
		{
			"buffer":0,
			"byteLength":24,
			"byteOffset":9876,
			"target":34963
		},
		{
			"buffer":0,
			"byteLength":96,
			"byteOffset":9900,
			"target":34962
		},
		{
			"buffer":0,
			"byteLength":96,
			"byteOffset":9996,
			"target":34962
		},
		{
			"buffer":0,
			"byteLength":64,
			"byteOffset":10092,
			"target":34962
		},
		{
			"buffer":0,
			"byteLength":24,
			"byteOffset":10156,
			"target":34963
		}
	],
	"buffers":[
		{
			"byteLength":10180,
			"uri":"dbrdg3a.bin"
		}
	]
}
