{
	"asset":{
		"generator":"Khronos glTF Blender I/O v4.5.48",
		"version":"2.0"
	},
	"scene":0,
	"scenes":[
		{
			"name":"Scene",
			"nodes":[
				0,
				1,
				2,
				3,
				4
			]
		}
	],
	"nodes":[
		{
			"mesh":0,
			"name":"Object"
		},
		{
			"mesh":1,
			"name":"Object.001"
		},
		{
			"mesh":2,
			"name":"Object.002"
		},
		{
			"mesh":3,
			"name":"Object.003"
		},
		{
			"mesh":4,
			"name":"Object.004"
		}
	],
	"materials":[
		{
			"doubleSided":true,
			"name":"lavarock03",
			"pbrMetallicRoughness":{
				"baseColorFactor":[
					0.800000011920929,
					0.800000011920929,
					0.800000011920929,
					1
				],
				"metallicFactor":0,
				"roughnessFactor":0.5
			}
		},
		{
			"doubleSided":true,
			"name":"lavarock03.001",
			"pbrMetallicRoughness":{
				"baseColorFactor":[
					0.800000011920929,
					0.800000011920929,
					0.800000011920929,
					1
				],
				"metallicFactor":0,
				"roughnessFactor":0.5
			}
		},
		{
			"doubleSided":true,
			"name":"lavarock03.002",
			"pbrMetallicRoughness":{
				"baseColorFactor":[
					0.800000011920929,
					0.800000011920929,
					0.800000011920929,
					1
				],
				"metallicFactor":0,
				"roughnessFactor":0.5
			}
		},
		{
			"doubleSided":true,
			"name":"lavarock03.003",
			"pbrMetallicRoughness":{
				"baseColorFactor":[
					0.800000011920929,
					0.800000011920929,
					0.800000011920929,
					1
				],
				"metallicFactor":0,
				"roughnessFactor":0.5
			}
		},
		{
			"doubleSided":true,
			"name":"lavarock03.004",
			"pbrMetallicRoughness":{
				"baseColorFactor":[
					0.800000011920929,
					0.800000011920929,
					0.800000011920929,
					1
				],
				"metallicFactor":0,
				"roughnessFactor":0.5
			}
		}
	],
	"meshes":[
		{
			"name":"Mesh",
			"primitives":[
				{
					"attributes":{
						"POSITION":0,
						"NORMAL":1,
						"TEXCOORD_0":2
					},
					"indices":3,
					"material":0
				}
			]
		},
		{
			"name":"Mesh.001",
			"primitives":[
				{
					"attributes":{
						"POSITION":4,
						"NORMAL":5,
						"TEXCOORD_0":6
					},
					"indices":7,
					"material":1
				}
			]
		},
		{
			"name":"Mesh.002",
			"primitives":[
				{
					"attributes":{
						"POSITION":8,
						"NORMAL":9,
						"TEXCOORD_0":10
					},
					"indices":11,
					"material":2
				}
			]
		},
		{
			"name":"Mesh.003",
			"primitives":[
				{
					"attributes":{
						"POSITION":12,
						"NORMAL":13,
						"TEXCOORD_0":14
					},
					"indices":15,
					"material":3
				}
			]
		},
		{
			"name":"Mesh.004",
			"primitives":[
				{
					"attributes":{
						"POSITION":16,
						"NORMAL":17,
						"TEXCOORD_0":18
					},
					"indices":19,
					"material":4
				}
			]
		}
	],
	"accessors":[
		{
			"bufferView":0,
			"componentType":5126,
			"count":462,
			"max":[
				7.9375,
				27.25,
				9.375
			],
			"min":[
				-9.578125,
				-0.5625,
				-8.546875
			],
			"type":"VEC3"
		},
		{
			"bufferView":1,
			"componentType":5126,
			"count":462,
			"type":"VEC3"
		},
		{
			"bufferView":2,
			"componentType":5126,
			"count":462,
			"type":"VEC2"
		},
		{
			"bufferView":3,
			"componentType":5123,
			"count":471,
			"type":"SCALAR"
		},
		{
			"bufferView":4,
			"componentType":5126,
			"count":294,
			"max":[
				7.9375,
				26.984375,
				9.375
			],
			"min":[
				-9.578125,
				-0.5625,
				-8.546875
			],
			"type":"VEC3"
		},
		{
			"bufferView":5,
			"componentType":5126,
			"count":294,
			"type":"VEC3"
		},
		{
			"bufferView":6,
			"componentType":5126,
			"count":294,
			"type":"VEC2"
		},
		{
			"bufferView":7,
			"componentType":5123,
			"count":303,
			"type":"SCALAR"
		},
		{
			"bufferView":8,
			"componentType":5126,
			"count":208,
			"max":[
				7.9375,
				26.984375,
				9.375
			],
			"min":[
				-9.578125,
				-0.5625,
				-8.546875
			],
			"type":"VEC3"
		},
		{
			"bufferView":9,
			"componentType":5126,
			"count":208,
			"type":"VEC3"
		},
		{
			"bufferView":10,
			"componentType":5126,
			"count":208,
			"type":"VEC2"
		},
		{
			"bufferView":11,
			"componentType":5123,
			"count":240,
			"type":"SCALAR"
		},
		{
			"bufferView":12,
			"componentType":5126,
			"count":120,
			"max":[
				7.9375,
				26.828125,
				9.375
			],
			"min":[
				-9.578125,
				-0.5625,
				-7.359375
			],
			"type":"VEC3"
		},
		{
			"bufferView":13,
			"componentType":5126,
			"count":120,
			"type":"VEC3"
		},
		{
			"bufferView":14,
			"componentType":5126,
			"count":120,
			"type":"VEC2"
		},
		{
			"bufferView":15,
			"componentType":5123,
			"count":120,
			"type":"SCALAR"
		},
		{
			"bufferView":16,
			"componentType":5126,
			"count":90,
			"max":[
				7.9375,
				26.828125,
				9.375
			],
			"min":[
				-9.578125,
				-0.5625,
				-7.359375
			],
			"type":"VEC3"
		},
		{
			"bufferView":17,
			"componentType":5126,
			"count":90,
			"type":"VEC3"
		},
		{
			"bufferView":18,
			"componentType":5126,
			"count":90,
			"type":"VEC2"
		},
		{
			"bufferView":19,
			"componentType":5123,
			"count":90,
			"type":"SCALAR"
		}
	],
	"bufferViews":[
		{
			"buffer":0,
			"byteLength":5544,
			"byteOffset":0,
			"target":34962
		},
		{
			"buffer":0,
			"byteLength":5544,
			"byteOffset":5544,
			"target":34962
		},
		{
			"buffer":0,
			"byteLength":3696,
			"byteOffset":11088,
			"target":34962
		},
		{
			"buffer":0,
			"byteLength":942,
			"byteOffset":14784,
			"target":34963
		},
		{
			"buffer":0,
			"byteLength":3528,
			"byteOffset":15728,
			"target":34962
		},
		{
			"buffer":0,
			"byteLength":3528,
			"byteOffset":19256,
			"target":34962
		},
		{
			"buffer":0,
			"byteLength":2352,
			"byteOffset":22784,
			"target":34962
		},
		{
			"buffer":0,
			"byteLength":606,
			"byteOffset":25136,
			"target":34963
		},
		{
			"buffer":0,
			"byteLength":2496,
			"byteOffset":25744,
			"target":34962
		},
		{
			"buffer":0,
			"byteLength":2496,
			"byteOffset":28240,
			"target":34962
		},
		{
			"buffer":0,
			"byteLength":1664,
			"byteOffset":30736,
			"target":34962
		},
		{
			"buffer":0,
			"byteLength":480,
			"byteOffset":32400,
			"target":34963
		},
		{
			"buffer":0,
			"byteLength":1440,
			"byteOffset":32880,
			"target":34962
		},
		{
			"buffer":0,
			"byteLength":1440,
			"byteOffset":34320,
			"target":34962
		},
		{
			"buffer":0,
			"byteLength":960,
			"byteOffset":35760,
			"target":34962
		},
		{
			"buffer":0,
			"byteLength":240,
			"byteOffset":36720,
			"target":34963
		},
		{
			"buffer":0,
			"byteLength":1080,
			"byteOffset":36960,
			"target":34962
		},
		{
			"buffer":0,
			"byteLength":1080,
			"byteOffset":38040,
			"target":34962
		},
		{
			"buffer":0,
			"byteLength":720,
			"byteOffset":39120,
			"target":34962
		},
		{
			"buffer":0,
			"byteLength":180,
			"byteOffset":39840,
			"target":34963
		}
	],
	"buffers":[
		{
			"byteLength":40020,
			"uri":"drocka.bin"
		}
	]
}
