{
	"asset":{
		"generator":"Khronos glTF Blender I/O v4.5.48",
		"version":"2.0"
	},
	"scene":0,
	"scenes":[
		{
			"name":"Scene",
			"nodes":[
				0,
				1,
				2,
				3,
				4
			]
		}
	],
	"nodes":[
		{
			"mesh":0,
			"name":"Object"
		},
		{
			"mesh":1,
			"name":"Object.001"
		},
		{
			"mesh":2,
			"name":"Object.002"
		},
		{
			"mesh":3,
			"name":"Object.003"
		},
		{
			"mesh":4,
			"name":"Object.004"
		}
	],
	"materials":[
		{
			"doubleSided":true,
			"name":"lavarock03",
			"pbrMetallicRoughness":{
				"baseColorFactor":[
					0.800000011920929,
					0.800000011920929,
					0.800000011920929,
					1
				],
				"metallicFactor":0,
				"roughnessFactor":0.5
			}
		},
		{
			"doubleSided":true,
			"name":"lavarock03.001",
			"pbrMetallicRoughness":{
				"baseColorFactor":[
					0.800000011920929,
					0.800000011920929,
					0.800000011920929,
					1
				],
				"metallicFactor":0,
				"roughnessFactor":0.5
			}
		},
		{
			"doubleSided":true,
			"name":"lavarock03.002",
			"pbrMetallicRoughness":{
				"baseColorFactor":[
					0.800000011920929,
					0.800000011920929,
					0.800000011920929,
					1
				],
				"metallicFactor":0,
				"roughnessFactor":0.5
			}
		},
		{
			"doubleSided":true,
			"name":"lavarock03.003",
			"pbrMetallicRoughness":{
				"baseColorFactor":[
					0.800000011920929,
					0.800000011920929,
					0.800000011920929,
					1
				],
				"metallicFactor":0,
				"roughnessFactor":0.5
			}
		},
		{
			"doubleSided":true,
			"name":"lavarock03.004",
			"pbrMetallicRoughness":{
				"baseColorFactor":[
					0.800000011920929,
					0.800000011920929,
					0.800000011920929,
					1
				],
				"metallicFactor":0,
				"roughnessFactor":0.5
			}
		}
	],
	"meshes":[
		{
			"name":"Mesh",
			"primitives":[
				{
					"attributes":{
						"POSITION":0,
						"NORMAL":1,
						"TEXCOORD_0":2
					},
					"indices":3,
					"material":0
				}
			]
		},
		{
			"name":"Mesh.001",
			"primitives":[
				{
					"attributes":{
						"POSITION":4,
						"NORMAL":5,
						"TEXCOORD_0":6
					},
					"indices":7,
					"material":1
				}
			]
		},
		{
			"name":"Mesh.002",
			"primitives":[
				{
					"attributes":{
						"POSITION":8,
						"NORMAL":9,
						"TEXCOORD_0":10
					},
					"indices":11,
					"material":2
				}
			]
		},
		{
			"name":"Mesh.003",
			"primitives":[
				{
					"attributes":{
						"POSITION":12,
						"NORMAL":13,
						"TEXCOORD_0":14
					},
					"indices":15,
					"material":3
				}
			]
		},
		{
			"name":"Mesh.004",
			"primitives":[
				{
					"attributes":{
						"POSITION":16,
						"NORMAL":17,
						"TEXCOORD_0":18
					},
					"indices":19,
					"material":4
				}
			]
		}
	],
	"accessors":[
		{
			"bufferView":0,
			"componentType":5126,
			"count":342,
			"max":[
				11.15625,
				33.96875,
				14.4375
			],
			"min":[
				-12.671875,
				-0.421875,
				-11.28125
			],
			"type":"VEC3"
		},
		{
			"bufferView":1,
			"componentType":5126,
			"count":342,
			"type":"VEC3"
		},
		{
			"bufferView":2,
			"componentType":5126,
			"count":342,
			"type":"VEC2"
		},
		{
			"bufferView":3,
			"componentType":5123,
			"count":342,
			"type":"SCALAR"
		},
		{
			"bufferView":4,
			"componentType":5126,
			"count":270,
			"max":[
				11.15625,
				33.96875,
				14.4375
			],
			"min":[
				-12.671875,
				-0.421875,
				-11.28125
			],
			"type":"VEC3"
		},
		{
			"bufferView":5,
			"componentType":5126,
			"count":270,
			"type":"VEC3"
		},
		{
			"bufferView":6,
			"componentType":5126,
			"count":270,
			"type":"VEC2"
		},
		{
			"bufferView":7,
			"componentType":5123,
			"count":270,
			"type":"SCALAR"
		},
		{
			"bufferView":8,
			"componentType":5126,
			"count":180,
			"max":[
				11.15625,
				33.96875,
				14.4375
			],
			"min":[
				-12.671875,
				-0.421875,
				-11.28125
			],
			"type":"VEC3"
		},
		{
			"bufferView":9,
			"componentType":5126,
			"count":180,
			"type":"VEC3"
		},
		{
			"bufferView":10,
			"componentType":5126,
			"count":180,
			"type":"VEC2"
		},
		{
			"bufferView":11,
			"componentType":5123,
			"count":180,
			"type":"SCALAR"
		},
		{
			"bufferView":12,
			"componentType":5126,
			"count":180,
			"max":[
				11.15625,
				33.96875,
				14.4375
			],
			"min":[
				-12.671875,
				-0.421875,
				-11.28125
			],
			"type":"VEC3"
		},
		{
			"bufferView":13,
			"componentType":5126,
			"count":180,
			"type":"VEC3"
		},
		{
			"bufferView":14,
			"componentType":5126,
			"count":180,
			"type":"VEC2"
		},
		{
			"bufferView":15,
			"componentType":5123,
			"count":180,
			"type":"SCALAR"
		},
		{
			"bufferView":16,
			"componentType":5126,
			"count":9,
			"max":[
				4.171875,
				33.96875,
				7.5
			],
			"min":[
				-4.09375,
				-0.109375,
				-2.140625
			],
			"type":"VEC3"
		},
		{
			"bufferView":17,
			"componentType":5126,
			"count":9,
			"type":"VEC3"
		},
		{
			"bufferView":18,
			"componentType":5126,
			"count":9,
			"type":"VEC2"
		},
		{
			"bufferView":19,
			"componentType":5123,
			"count":9,
			"type":"SCALAR"
		}
	],
	"bufferViews":[
		{
			"buffer":0,
			"byteLength":4104,
			"byteOffset":0,
			"target":34962
		},
		{
			"buffer":0,
			"byteLength":4104,
			"byteOffset":4104,
			"target":34962
		},
		{
			"buffer":0,
			"byteLength":2736,
			"byteOffset":8208,
			"target":34962
		},
		{
			"buffer":0,
			"byteLength":684,
			"byteOffset":10944,
			"target":34963
		},
		{
			"buffer":0,
			"byteLength":3240,
			"byteOffset":11628,
			"target":34962
		},
		{
			"buffer":0,
			"byteLength":3240,
			"byteOffset":14868,
			"target":34962
		},
		{
			"buffer":0,
			"byteLength":2160,
			"byteOffset":18108,
			"target":34962
		},
		{
			"buffer":0,
			"byteLength":540,
			"byteOffset":20268,
			"target":34963
		},
		{
			"buffer":0,
			"byteLength":2160,
			"byteOffset":20808,
			"target":34962
		},
		{
			"buffer":0,
			"byteLength":2160,
			"byteOffset":22968,
			"target":34962
		},
		{
			"buffer":0,
			"byteLength":1440,
			"byteOffset":25128,
			"target":34962
		},
		{
			"buffer":0,
			"byteLength":360,
			"byteOffset":26568,
			"target":34963
		},
		{
			"buffer":0,
			"byteLength":2160,
			"byteOffset":26928,
			"target":34962
		},
		{
			"buffer":0,
			"byteLength":2160,
			"byteOffset":29088,
			"target":34962
		},
		{
			"buffer":0,
			"byteLength":1440,
			"byteOffset":31248,
			"target":34962
		},
		{
			"buffer":0,
			"byteLength":360,
			"byteOffset":32688,
			"target":34963
		},
		{
			"buffer":0,
			"byteLength":108,
			"byteOffset":33048,
			"target":34962
		},
		{
			"buffer":0,
			"byteLength":108,
			"byteOffset":33156,
			"target":34962
		},
		{
			"buffer":0,
			"byteLength":72,
			"byteOffset":33264,
			"target":34962
		},
		{
			"buffer":0,
			"byteLength":18,
			"byteOffset":33336,
			"target":34963
		}
	],
	"buffers":[
		{
			"byteLength":33356,
			"uri":"dspir5.bin"
		}
	]
}
