{
	"asset":{
		"generator":"Khronos glTF Blender I/O v4.5.48",
		"version":"2.0"
	},
	"scene":0,
	"scenes":[
		{
			"name":"Scene",
			"nodes":[
				0,
				1,
				2,
				3,
				4,
				5
			]
		}
	],
	"nodes":[
		{
			"mesh":0,
			"name":"Object"
		},
		{
			"mesh":1,
			"name":"Object.001"
		},
		{
			"mesh":2,
			"name":"Object.002"
		},
		{
			"mesh":3,
			"name":"Object.003"
		},
		{
			"mesh":4,
			"name":"Object.004"
		},
		{
			"mesh":5,
			"name":"Object.005"
		}
	],
	"materials":[
		{
			"doubleSided":true,
			"name":"lavarock03",
			"pbrMetallicRoughness":{
				"baseColorFactor":[
					0.800000011920929,
					0.800000011920929,
					0.800000011920929,
					1
				],
				"metallicFactor":0,
				"roughnessFactor":0.5
			}
		},
		{
			"doubleSided":true,
			"name":"lavarock03.001",
			"pbrMetallicRoughness":{
				"baseColorFactor":[
					0.800000011920929,
					0.800000011920929,
					0.800000011920929,
					1
				],
				"metallicFactor":0,
				"roughnessFactor":0.5
			}
		},
		{
			"doubleSided":true,
			"name":"lavarock03.002",
			"pbrMetallicRoughness":{
				"baseColorFactor":[
					0.800000011920929,
					0.800000011920929,
					0.800000011920929,
					1
				],
				"metallicFactor":0,
				"roughnessFactor":0.5
			}
		},
		{
			"doubleSided":true,
			"name":"lavarock03.003",
			"pbrMetallicRoughness":{
				"baseColorFactor":[
					0.800000011920929,
					0.800000011920929,
					0.800000011920929,
					1
				],
				"metallicFactor":0,
				"roughnessFactor":0.5
			}
		},
		{
			"doubleSided":true,
			"name":"lavarock03.004",
			"pbrMetallicRoughness":{
				"baseColorFactor":[
					0.800000011920929,
					0.800000011920929,
					0.800000011920929,
					1
				],
				"metallicFactor":0,
				"roughnessFactor":0.5
			}
		},
		{
			"doubleSided":true,
			"name":"lavarock03.005",
			"pbrMetallicRoughness":{
				"baseColorFactor":[
					0.800000011920929,
					0.800000011920929,
					0.800000011920929,
					1
				],
				"metallicFactor":0,
				"roughnessFactor":0.5
			}
		}
	],
	"meshes":[
		{
			"name":"Mesh",
			"primitives":[
				{
					"attributes":{
						"POSITION":0,
						"NORMAL":1,
						"TEXCOORD_0":2
					},
					"indices":3,
					"material":0
				}
			]
		},
		{
			"name":"Mesh.001",
			"primitives":[
				{
					"attributes":{
						"POSITION":4,
						"NORMAL":5,
						"TEXCOORD_0":6
					},
					"indices":7,
					"material":1
				}
			]
		},
		{
			"name":"Mesh.002",
			"primitives":[
				{
					"attributes":{
						"POSITION":8,
						"NORMAL":9,
						"TEXCOORD_0":10
					},
					"indices":11,
					"material":2
				}
			]
		},
		{
			"name":"Mesh.003",
			"primitives":[
				{
					"attributes":{
						"POSITION":12,
						"NORMAL":13,
						"TEXCOORD_0":14
					},
					"indices":15,
					"material":3
				}
			]
		},
		{
			"name":"Mesh.004",
			"primitives":[
				{
					"attributes":{
						"POSITION":16,
						"NORMAL":17,
						"TEXCOORD_0":18
					},
					"indices":19,
					"material":4
				}
			]
		},
		{
			"name":"Mesh.005",
			"primitives":[
				{
					"attributes":{
						"POSITION":20,
						"NORMAL":21,
						"TEXCOORD_0":22
					},
					"indices":23,
					"material":5
				}
			]
		}
	],
	"accessors":[
		{
			"bufferView":0,
			"componentType":5126,
			"count":2050,
			"max":[
				8.859375,
				28.03125,
				9.4375
			],
			"min":[
				-9.640625,
				-0.671875,
				-9.21875
			],
			"type":"VEC3"
		},
		{
			"bufferView":1,
			"componentType":5126,
			"count":2050,
			"type":"VEC3"
		},
		{
			"bufferView":2,
			"componentType":5126,
			"count":2050,
			"type":"VEC2"
		},
		{
			"bufferView":3,
			"componentType":5123,
			"count":4233,
			"type":"SCALAR"
		},
		{
			"bufferView":4,
			"componentType":5126,
			"count":1892,
			"max":[
				8.859375,
				28.03125,
				9.4375
			],
			"min":[
				-9.640625,
				-0.671875,
				-9.09375
			],
			"type":"VEC3"
		},
		{
			"bufferView":5,
			"componentType":5126,
			"count":1892,
			"type":"VEC3"
		},
		{
			"bufferView":6,
			"componentType":5126,
			"count":1892,
			"type":"VEC2"
		},
		{
			"bufferView":7,
			"componentType":5123,
			"count":4098,
			"type":"SCALAR"
		},
		{
			"bufferView":8,
			"componentType":5126,
			"count":1491,
			"max":[
				8.859375,
				28.03125,
				9.265625
			],
			"min":[
				-9.578125,
				-0.453125,
				-9.09375
			],
			"type":"VEC3"
		},
		{
			"bufferView":9,
			"componentType":5126,
			"count":1491,
			"type":"VEC3"
		},
		{
			"bufferView":10,
			"componentType":5126,
			"count":1491,
			"type":"VEC2"
		},
		{
			"bufferView":11,
			"componentType":5123,
			"count":3375,
			"type":"SCALAR"
		},
		{
			"bufferView":12,
			"componentType":5126,
			"count":639,
			"max":[
				8.765625,
				27.953125,
				9.265625
			],
			"min":[
				-7.53125,
				-0.328125,
				-9.1875
			],
			"type":"VEC3"
		},
		{
			"bufferView":13,
			"componentType":5126,
			"count":639,
			"type":"VEC3"
		},
		{
			"bufferView":14,
			"componentType":5126,
			"count":639,
			"type":"VEC2"
		},
		{
			"bufferView":15,
			"componentType":5123,
			"count":1437,
			"type":"SCALAR"
		},
		{
			"bufferView":16,
			"componentType":5126,
			"count":323,
			"max":[
				7.15625,
				28.015625,
				9.265625
			],
			"min":[
				-4.453125,
				-0.46875,
				-7.671875
			],
			"type":"VEC3"
		},
		{
			"bufferView":17,
			"componentType":5126,
			"count":323,
			"type":"VEC3"
		},
		{
			"bufferView":18,
			"componentType":5126,
			"count":323,
			"type":"VEC2"
		},
		{
			"bufferView":19,
			"componentType":5123,
			"count":684,
			"type":"SCALAR"
		},
		{
			"bufferView":20,
			"componentType":5126,
			"count":54,
			"max":[
				5.671875,
				27.8125,
				2.421875
			],
			"min":[
				-3.125,
				-0.34375,
				-7.140625
			],
			"type":"VEC3"
		},
		{
			"bufferView":21,
			"componentType":5126,
			"count":54,
			"type":"VEC3"
		},
		{
			"bufferView":22,
			"componentType":5126,
			"count":54,
			"type":"VEC2"
		},
		{
			"bufferView":23,
			"componentType":5123,
			"count":54,
			"type":"SCALAR"
		}
	],
	"bufferViews":[
		{
			"buffer":0,
			"byteLength":24600,
			"byteOffset":0,
			"target":34962
		},
		{
			"buffer":0,
			"byteLength":24600,
			"byteOffset":24600,
			"target":34962
		},
		{
			"buffer":0,
			"byteLength":16400,
			"byteOffset":49200,
			"target":34962
		},
		{
			"buffer":0,
			"byteLength":8466,
			"byteOffset":65600,
			"target":34963
		},
		{
			"buffer":0,
			"byteLength":22704,
			"byteOffset":74068,
			"target":34962
		},
		{
			"buffer":0,
			"byteLength":22704,
			"byteOffset":96772,
			"target":34962
		},
		{
			"buffer":0,
			"byteLength":15136,
			"byteOffset":119476,
			"target":34962
		},
		{
			"buffer":0,
			"byteLength":8196,
			"byteOffset":134612,
			"target":34963
		},
		{
			"buffer":0,
			"byteLength":17892,
			"byteOffset":142808,
			"target":34962
		},
		{
			"buffer":0,
			"byteLength":17892,
			"byteOffset":160700,
			"target":34962
		},
		{
			"buffer":0,
			"byteLength":11928,
			"byteOffset":178592,
			"target":34962
		},
		{
			"buffer":0,
			"byteLength":6750,
			"byteOffset":190520,
			"target":34963
		},
		{
			"buffer":0,
			"byteLength":7668,
			"byteOffset":197272,
			"target":34962
		},
		{
			"buffer":0,
			"byteLength":7668,
			"byteOffset":204940,
			"target":34962
		},
		{
			"buffer":0,
			"byteLength":5112,
			"byteOffset":212608,
			"target":34962
		},
		{
			"buffer":0,
			"byteLength":2874,
			"byteOffset":217720,
			"target":34963
		},
		{
			"buffer":0,
			"byteLength":3876,
			"byteOffset":220596,
			"target":34962
		},
		{
			"buffer":0,
			"byteLength":3876,
			"byteOffset":224472,
			"target":34962
		},
		{
			"buffer":0,
			"byteLength":2584,
			"byteOffset":228348,
			"target":34962
		},
		{
			"buffer":0,
			"byteLength":1368,
			"byteOffset":230932,
			"target":34963
		},
		{
			"buffer":0,
			"byteLength":648,
			"byteOffset":232300,
			"target":34962
		},
		{
			"buffer":0,
			"byteLength":648,
			"byteOffset":232948,
			"target":34962
		},
		{
			"buffer":0,
			"byteLength":432,
			"byteOffset":233596,
			"target":34962
		},
		{
			"buffer":0,
			"byteLength":108,
			"byteOffset":234028,
			"target":34963
		}
	],
	"buffers":[
		{
			"byteLength":234136,
			"uri":"dspir4.bin"
		}
	]
}
