{
	"asset":{
		"generator":"Khronos glTF Blender I/O v4.5.48",
		"version":"2.0"
	},
	"scene":0,
	"scenes":[
		{
			"name":"Scene",
			"nodes":[
				0,
				1,
				2,
				3,
				4
			]
		}
	],
	"nodes":[
		{
			"mesh":0,
			"name":"Object"
		},
		{
			"mesh":1,
			"name":"Object.001"
		},
		{
			"mesh":2,
			"name":"Object.002"
		},
		{
			"mesh":3,
			"name":"Object.003"
		},
		{
			"mesh":4,
			"name":"Object.004"
		}
	],
	"materials":[
		{
			"doubleSided":true,
			"name":"lavarock03",
			"pbrMetallicRoughness":{
				"baseColorFactor":[
					0.800000011920929,
					0.800000011920929,
					0.800000011920929,
					1
				],
				"metallicFactor":0,
				"roughnessFactor":0.5
			}
		},
		{
			"doubleSided":true,
			"name":"lavarock03.001",
			"pbrMetallicRoughness":{
				"baseColorFactor":[
					0.800000011920929,
					0.800000011920929,
					0.800000011920929,
					1
				],
				"metallicFactor":0,
				"roughnessFactor":0.5
			}
		},
		{
			"doubleSided":true,
			"name":"lavarock03.002",
			"pbrMetallicRoughness":{
				"baseColorFactor":[
					0.800000011920929,
					0.800000011920929,
					0.800000011920929,
					1
				],
				"metallicFactor":0,
				"roughnessFactor":0.5
			}
		},
		{
			"doubleSided":true,
			"name":"lavarock03.003",
			"pbrMetallicRoughness":{
				"baseColorFactor":[
					0.800000011920929,
					0.800000011920929,
					0.800000011920929,
					1
				],
				"metallicFactor":0,
				"roughnessFactor":0.5
			}
		},
		{
			"doubleSided":true,
			"name":"lavarock03.004",
			"pbrMetallicRoughness":{
				"baseColorFactor":[
					0.800000011920929,
					0.800000011920929,
					0.800000011920929,
					1
				],
				"metallicFactor":0,
				"roughnessFactor":0.5
			}
		}
	],
	"meshes":[
		{
			"name":"Mesh",
			"primitives":[
				{
					"attributes":{
						"POSITION":0,
						"NORMAL":1,
						"TEXCOORD_0":2
					},
					"indices":3,
					"material":0
				}
			]
		},
		{
			"name":"Mesh.001",
			"primitives":[
				{
					"attributes":{
						"POSITION":4,
						"NORMAL":5,
						"TEXCOORD_0":6
					},
					"indices":7,
					"material":1
				}
			]
		},
		{
			"name":"Mesh.002",
			"primitives":[
				{
					"attributes":{
						"POSITION":8,
						"NORMAL":9,
						"TEXCOORD_0":10
					},
					"indices":11,
					"material":2
				}
			]
		},
		{
			"name":"Mesh.003",
			"primitives":[
				{
					"attributes":{
						"POSITION":12,
						"NORMAL":13,
						"TEXCOORD_0":14
					},
					"indices":15,
					"material":3
				}
			]
		},
		{
			"name":"Mesh.004",
			"primitives":[
				{
					"attributes":{
						"POSITION":16,
						"NORMAL":17,
						"TEXCOORD_0":18
					},
					"indices":19,
					"material":4
				}
			]
		}
	],
	"accessors":[
		{
			"bufferView":0,
			"componentType":5126,
			"count":351,
			"max":[
				5.5625,
				19.671875,
				7.0625
			],
			"min":[
				-6.765625,
				-0.390625,
				-5.5625
			],
			"type":"VEC3"
		},
		{
			"bufferView":1,
			"componentType":5126,
			"count":351,
			"type":"VEC3"
		},
		{
			"bufferView":2,
			"componentType":5126,
			"count":351,
			"type":"VEC2"
		},
		{
			"bufferView":3,
			"componentType":5123,
			"count":351,
			"type":"SCALAR"
		},
		{
			"bufferView":4,
			"componentType":5126,
			"count":273,
			"max":[
				5.5625,
				19.671875,
				7.0625
			],
			"min":[
				-6.765625,
				-0.390625,
				-5.5625
			],
			"type":"VEC3"
		},
		{
			"bufferView":5,
			"componentType":5126,
			"count":273,
			"type":"VEC3"
		},
		{
			"bufferView":6,
			"componentType":5126,
			"count":273,
			"type":"VEC2"
		},
		{
			"bufferView":7,
			"componentType":5123,
			"count":273,
			"type":"SCALAR"
		},
		{
			"bufferView":8,
			"componentType":5126,
			"count":183,
			"max":[
				5.5625,
				19.671875,
				7.0625
			],
			"min":[
				-6.765625,
				-0.390625,
				-5.5625
			],
			"type":"VEC3"
		},
		{
			"bufferView":9,
			"componentType":5126,
			"count":183,
			"type":"VEC3"
		},
		{
			"bufferView":10,
			"componentType":5126,
			"count":183,
			"type":"VEC2"
		},
		{
			"bufferView":11,
			"componentType":5123,
			"count":183,
			"type":"SCALAR"
		},
		{
			"bufferView":12,
			"componentType":5126,
			"count":114,
			"max":[
				5.5625,
				19.671875,
				7.0625
			],
			"min":[
				-6.765625,
				-0.390625,
				-5.5625
			],
			"type":"VEC3"
		},
		{
			"bufferView":13,
			"componentType":5126,
			"count":114,
			"type":"VEC3"
		},
		{
			"bufferView":14,
			"componentType":5126,
			"count":114,
			"type":"VEC2"
		},
		{
			"bufferView":15,
			"componentType":5123,
			"count":114,
			"type":"SCALAR"
		},
		{
			"bufferView":16,
			"componentType":5126,
			"count":9,
			"max":[
				1.765625,
				19.875,
				2.5
			],
			"min":[
				-1.546875,
				-0.453125,
				-2.0625
			],
			"type":"VEC3"
		},
		{
			"bufferView":17,
			"componentType":5126,
			"count":9,
			"type":"VEC3"
		},
		{
			"bufferView":18,
			"componentType":5126,
			"count":9,
			"type":"VEC2"
		},
		{
			"bufferView":19,
			"componentType":5123,
			"count":9,
			"type":"SCALAR"
		}
	],
	"bufferViews":[
		{
			"buffer":0,
			"byteLength":4212,
			"byteOffset":0,
			"target":34962
		},
		{
			"buffer":0,
			"byteLength":4212,
			"byteOffset":4212,
			"target":34962
		},
		{
			"buffer":0,
			"byteLength":2808,
			"byteOffset":8424,
			"target":34962
		},
		{
			"buffer":0,
			"byteLength":702,
			"byteOffset":11232,
			"target":34963
		},
		{
			"buffer":0,
			"byteLength":3276,
			"byteOffset":11936,
			"target":34962
		},
		{
			"buffer":0,
			"byteLength":3276,
			"byteOffset":15212,
			"target":34962
		},
		{
			"buffer":0,
			"byteLength":2184,
			"byteOffset":18488,
			"target":34962
		},
		{
			"buffer":0,
			"byteLength":546,
			"byteOffset":20672,
			"target":34963
		},
		{
			"buffer":0,
			"byteLength":2196,
			"byteOffset":21220,
			"target":34962
		},
		{
			"buffer":0,
			"byteLength":2196,
			"byteOffset":23416,
			"target":34962
		},
		{
			"buffer":0,
			"byteLength":1464,
			"byteOffset":25612,
			"target":34962
		},
		{
			"buffer":0,
			"byteLength":366,
			"byteOffset":27076,
			"target":34963
		},
		{
			"buffer":0,
			"byteLength":1368,
			"byteOffset":27444,
			"target":34962
		},
		{
			"buffer":0,
			"byteLength":1368,
			"byteOffset":28812,
			"target":34962
		},
		{
			"buffer":0,
			"byteLength":912,
			"byteOffset":30180,
			"target":34962
		},
		{
			"buffer":0,
			"byteLength":228,
			"byteOffset":31092,
			"target":34963
		},
		{
			"buffer":0,
			"byteLength":108,
			"byteOffset":31320,
			"target":34962
		},
		{
			"buffer":0,
			"byteLength":108,
			"byteOffset":31428,
			"target":34962
		},
		{
			"buffer":0,
			"byteLength":72,
			"byteOffset":31536,
			"target":34962
		},
		{
			"buffer":0,
			"byteLength":18,
			"byteOffset":31608,
			"target":34963
		}
	],
	"buffers":[
		{
			"byteLength":31628,
			"uri":"dspir2.bin"
		}
	]
}
