{
	"asset":{
		"generator":"Khronos glTF Blender I/O v4.5.48",
		"version":"2.0"
	},
	"scene":0,
	"scenes":[
		{
			"name":"Scene",
			"nodes":[
				0
			]
		}
	],
	"nodes":[
		{
			"mesh":0,
			"name":"Object"
		}
	],
	"materials":[
		{
			"doubleSided":true,
			"name":"DS_EWALL05",
			"pbrMetallicRoughness":{
				"baseColorFactor":[
					0.800000011920929,
					0.800000011920929,
					0.800000011920929,
					1
				],
				"metallicFactor":0,
				"roughnessFactor":0.5
			}
		},
		{
			"doubleSided":true,
			"name":"DS_EFLOOR1",
			"pbrMetallicRoughness":{
				"baseColorFactor":[
					0.800000011920929,
					0.800000011920929,
					0.800000011920929,
					1
				],
				"metallicFactor":0,
				"roughnessFactor":0.5
			}
		},
		{
			"doubleSided":true,
			"name":"DS_IWAL01",
			"pbrMetallicRoughness":{
				"baseColorFactor":[
					0.800000011920929,
					0.800000011920929,
					0.800000011920929,
					1
				],
				"metallicFactor":0,
				"roughnessFactor":0.5
			}
		},
		{
			"doubleSided":true,
			"name":"DS_IFLO03",
			"pbrMetallicRoughness":{
				"baseColorFactor":[
					0.800000011920929,
					0.800000011920929,
					0.800000011920929,
					1
				],
				"metallicFactor":0,
				"roughnessFactor":0.5
			}
		},
		{
			"doubleSided":true,
			"name":"DS_TECHWALL_3",
			"pbrMetallicRoughness":{
				"baseColorFactor":[
					0.800000011920929,
					0.800000011920929,
					0.800000011920929,
					1
				],
				"metallicFactor":0,
				"roughnessFactor":0.5
			}
		},
		{
			"doubleSided":true,
			"name":"DS_ETECHBOR01",
			"pbrMetallicRoughness":{
				"baseColorFactor":[
					0.800000011920929,
					0.800000011920929,
					0.800000011920929,
					1
				],
				"metallicFactor":0,
				"roughnessFactor":0.5
			}
		},
		{
			"doubleSided":true,
			"name":"DS_GIRDER",
			"pbrMetallicRoughness":{
				"baseColorFactor":[
					0.800000011920929,
					0.800000011920929,
					0.800000011920929,
					1
				],
				"metallicFactor":0,
				"roughnessFactor":0.5
			}
		},
		{
			"doubleSided":true,
			"name":"DS_IHACEI01",
			"pbrMetallicRoughness":{
				"baseColorFactor":[
					0.800000011920929,
					0.800000011920929,
					0.800000011920929,
					1
				],
				"metallicFactor":0,
				"roughnessFactor":0.5
			}
		},
		{
			"doubleSided":true,
			"name":"DS_IBOR03",
			"pbrMetallicRoughness":{
				"baseColorFactor":[
					0.800000011920929,
					0.800000011920929,
					0.800000011920929,
					1
				],
				"metallicFactor":0,
				"roughnessFactor":0.5
			}
		},
		{
			"doubleSided":true,
			"name":"DS_ILIG01",
			"pbrMetallicRoughness":{
				"baseColorFactor":[
					0.800000011920929,
					0.800000011920929,
					0.800000011920929,
					1
				],
				"metallicFactor":0,
				"roughnessFactor":0.5
			}
		},
		{
			"doubleSided":true,
			"name":"DS_IWALDECO04A",
			"pbrMetallicRoughness":{
				"baseColorFactor":[
					0.800000011920929,
					0.800000011920929,
					0.800000011920929,
					1
				],
				"metallicFactor":0,
				"roughnessFactor":0.5
			}
		},
		{
			"doubleSided":true,
			"name":"DS_IBOR02A",
			"pbrMetallicRoughness":{
				"baseColorFactor":[
					0.800000011920929,
					0.800000011920929,
					0.800000011920929,
					1
				],
				"metallicFactor":0,
				"roughnessFactor":0.5
			}
		},
		{
			"doubleSided":true,
			"name":"DS_ILIG02",
			"pbrMetallicRoughness":{
				"baseColorFactor":[
					0.800000011920929,
					0.800000011920929,
					0.800000011920929,
					1
				],
				"metallicFactor":0,
				"roughnessFactor":0.5
			}
		},
		{
			"doubleSided":true,
			"name":"DS_IWALDECO08",
			"pbrMetallicRoughness":{
				"baseColorFactor":[
					0.800000011920929,
					0.800000011920929,
					0.800000011920929,
					1
				],
				"metallicFactor":0,
				"roughnessFactor":0.5
			}
		},
		{
			"doubleSided":true,
			"name":"DS_ILAVLIGHT",
			"pbrMetallicRoughness":{
				"baseColorFactor":[
					0.800000011920929,
					0.800000011920929,
					0.800000011920929,
					1
				],
				"metallicFactor":0,
				"roughnessFactor":0.5
			}
		},
		{
			"doubleSided":true,
			"name":"DS_ILIG06",
			"pbrMetallicRoughness":{
				"baseColorFactor":[
					0.800000011920929,
					0.800000011920929,
					0.800000011920929,
					1
				],
				"metallicFactor":0,
				"roughnessFactor":0.5
			}
		},
		{
			"doubleSided":true,
			"name":"DS_IFLO04",
			"pbrMetallicRoughness":{
				"baseColorFactor":[
					0.800000011920929,
					0.800000011920929,
					0.800000011920929,
					1
				],
				"metallicFactor":0,
				"roughnessFactor":0.5
			}
		},
		{
			"doubleSided":true,
			"name":"DS_JET01",
			"pbrMetallicRoughness":{
				"baseColorFactor":[
					0.800000011920929,
					0.800000011920929,
					0.800000011920929,
					1
				],
				"metallicFactor":0,
				"roughnessFactor":0.5
			}
		},
		{
			"doubleSided":true,
			"name":"DS_JET03",
			"pbrMetallicRoughness":{
				"baseColorFactor":[
					0.800000011920929,
					0.800000011920929,
					0.800000011920929,
					1
				],
				"metallicFactor":0,
				"roughnessFactor":0.5
			}
		},
		{
			"doubleSided":true,
			"name":"DS_ILIG04",
			"pbrMetallicRoughness":{
				"baseColorFactor":[
					0.800000011920929,
					0.800000011920929,
					0.800000011920929,
					1
				],
				"metallicFactor":0,
				"roughnessFactor":0.5
			}
		},
		{
			"doubleSided":true,
			"name":"DS_EWAL01",
			"pbrMetallicRoughness":{
				"baseColorFactor":[
					0.800000011920929,
					0.800000011920929,
					0.800000011920929,
					1
				],
				"metallicFactor":0,
				"roughnessFactor":0.5
			}
		}
	],
	"meshes":[
		{
			"name":"Mesh",
			"primitives":[
				{
					"attributes":{
						"POSITION":0,
						"NORMAL":1,
						"TEXCOORD_0":2
					},
					"indices":3,
					"material":0
				},
				{
					"attributes":{
						"POSITION":4,
						"NORMAL":5,
						"TEXCOORD_0":6
					},
					"indices":7,
					"material":1
				},
				{
					"attributes":{
						"POSITION":8,
						"NORMAL":9,
						"TEXCOORD_0":10
					},
					"indices":11,
					"material":2
				},
				{
					"attributes":{
						"POSITION":12,
						"NORMAL":13,
						"TEXCOORD_0":14
					},
					"indices":15,
					"material":3
				},
				{
					"attributes":{
						"POSITION":16,
						"NORMAL":17,
						"TEXCOORD_0":18
					},
					"indices":19,
					"material":4
				},
				{
					"attributes":{
						"POSITION":20,
						"NORMAL":21,
						"TEXCOORD_0":22
					},
					"indices":23,
					"material":5
				},
				{
					"attributes":{
						"POSITION":24,
						"NORMAL":25,
						"TEXCOORD_0":26
					},
					"indices":27,
					"material":6
				},
				{
					"attributes":{
						"POSITION":28,
						"NORMAL":29,
						"TEXCOORD_0":30
					},
					"indices":31,
					"material":7
				},
				{
					"attributes":{
						"POSITION":32,
						"NORMAL":33,
						"TEXCOORD_0":34
					},
					"indices":35,
					"material":8
				},
				{
					"attributes":{
						"POSITION":36,
						"NORMAL":37,
						"TEXCOORD_0":38
					},
					"indices":39,
					"material":9
				},
				{
					"attributes":{
						"POSITION":40,
						"NORMAL":41,
						"TEXCOORD_0":42
					},
					"indices":43,
					"material":10
				},
				{
					"attributes":{
						"POSITION":44,
						"NORMAL":45,
						"TEXCOORD_0":46
					},
					"indices":47,
					"material":11
				},
				{
					"attributes":{
						"POSITION":48,
						"NORMAL":49,
						"TEXCOORD_0":50
					},
					"indices":51,
					"material":12
				},
				{
					"attributes":{
						"POSITION":52,
						"NORMAL":53,
						"TEXCOORD_0":54
					},
					"indices":55,
					"material":13
				},
				{
					"attributes":{
						"POSITION":56,
						"NORMAL":57,
						"TEXCOORD_0":58
					},
					"indices":59,
					"material":14
				},
				{
					"attributes":{
						"POSITION":60,
						"NORMAL":61,
						"TEXCOORD_0":62
					},
					"indices":63,
					"material":15
				},
				{
					"attributes":{
						"POSITION":64,
						"NORMAL":65,
						"TEXCOORD_0":66
					},
					"indices":67,
					"material":16
				},
				{
					"attributes":{
						"POSITION":68,
						"NORMAL":69,
						"TEXCOORD_0":70
					},
					"indices":71,
					"material":17
				},
				{
					"attributes":{
						"POSITION":72,
						"NORMAL":73,
						"TEXCOORD_0":74
					},
					"indices":75,
					"material":18
				},
				{
					"attributes":{
						"POSITION":76,
						"NORMAL":77,
						"TEXCOORD_0":78
					},
					"indices":79,
					"material":19
				},
				{
					"attributes":{
						"POSITION":80,
						"NORMAL":81,
						"TEXCOORD_0":82
					},
					"indices":83,
					"material":20
				}
			]
		}
	],
	"accessors":[
		{
			"bufferView":0,
			"componentType":5126,
			"count":140,
			"max":[
				18,
				2,
				24
			],
			"min":[
				-18,
				-2,
				-48
			],
			"type":"VEC3"
		},
		{
			"bufferView":1,
			"componentType":5126,
			"count":140,
			"type":"VEC3"
		},
		{
			"bufferView":2,
			"componentType":5126,
			"count":140,
			"type":"VEC2"
		},
		{
			"bufferView":3,
			"componentType":5123,
			"count":258,
			"type":"SCALAR"
		},
		{
			"bufferView":4,
			"componentType":5126,
			"count":43,
			"max":[
				18,
				2,
				22
			],
			"min":[
				-18,
				2,
				-46
			],
			"type":"VEC3"
		},
		{
			"bufferView":5,
			"componentType":5126,
			"count":43,
			"type":"VEC3"
		},
		{
			"bufferView":6,
			"componentType":5126,
			"count":43,
			"type":"VEC2"
		},
		{
			"bufferView":7,
			"componentType":5123,
			"count":117,
			"type":"SCALAR"
		},
		{
			"bufferView":8,
			"componentType":5126,
			"count":677,
			"max":[
				18,
				5,
				24
			],
			"min":[
				-18,
				-7.25,
				-48
			],
			"type":"VEC3"
		},
		{
			"bufferView":9,
			"componentType":5126,
			"count":677,
			"type":"VEC3"
		},
		{
			"bufferView":10,
			"componentType":5126,
			"count":677,
			"type":"VEC2"
		},
		{
			"bufferView":11,
			"componentType":5123,
			"count":1728,
			"type":"SCALAR"
		},
		{
			"bufferView":12,
			"componentType":5126,
			"count":8,
			"max":[
				6,
				2,
				-24
			],
			"min":[
				-6,
				2,
				-48
			],
			"type":"VEC3"
		},
		{
			"bufferView":13,
			"componentType":5126,
			"count":8,
			"type":"VEC3"
		},
		{
			"bufferView":14,
			"componentType":5126,
			"count":8,
			"type":"VEC2"
		},
		{
			"bufferView":15,
			"componentType":5123,
			"count":12,
			"type":"SCALAR"
		},
		{
			"bufferView":16,
			"componentType":5126,
			"count":38,
			"max":[
				16,
				0,
				22
			],
			"min":[
				-16,
				-2,
				-48
			],
			"type":"VEC3"
		},
		{
			"bufferView":17,
			"componentType":5126,
			"count":38,
			"type":"VEC3"
		},
		{
			"bufferView":18,
			"componentType":5126,
			"count":38,
			"type":"VEC2"
		},
		{
			"bufferView":19,
			"componentType":5123,
			"count":84,
			"type":"SCALAR"
		},
		{
			"bufferView":20,
			"componentType":5126,
			"count":39,
			"max":[
				8,
				4,
				-22
			],
			"min":[
				-8,
				-2,
				-26
			],
			"type":"VEC3"
		},
		{
			"bufferView":21,
			"componentType":5126,
			"count":39,
			"type":"VEC3"
		},
		{
			"bufferView":22,
			"componentType":5126,
			"count":39,
			"type":"VEC2"
		},
		{
			"bufferView":23,
			"componentType":5123,
			"count":72,
			"type":"SCALAR"
		},
		{
			"bufferView":24,
			"componentType":5126,
			"count":84,
			"max":[
				18,
				4,
				24
			],
			"min":[
				-18,
				2,
				-24
			],
			"type":"VEC3"
		},
		{
			"bufferView":25,
			"componentType":5126,
			"count":84,
			"type":"VEC3"
		},
		{
			"bufferView":26,
			"componentType":5126,
			"count":84,
			"type":"VEC2"
		},
		{
			"bufferView":27,
			"componentType":5123,
			"count":180,
			"type":"SCALAR"
		},
		{
			"bufferView":28,
			"componentType":5126,
			"count":16,
			"max":[
				18,
				4,
				24
			],
			"min":[
				-18,
				2,
				-24
			],
			"type":"VEC3"
		},
		{
			"bufferView":29,
			"componentType":5126,
			"count":16,
			"type":"VEC3"
		},
		{
			"bufferView":30,
			"componentType":5126,
			"count":16,
			"type":"VEC2"
		},
		{
			"bufferView":31,
			"componentType":5123,
			"count":24,
			"type":"SCALAR"
		},
		{
			"bufferView":32,
			"componentType":5126,
			"count":81,
			"max":[
				16,
				4,
				22
			],
			"min":[
				-16,
				2,
				-26
			],
			"type":"VEC3"
		},
		{
			"bufferView":33,
			"componentType":5126,
			"count":81,
			"type":"VEC3"
		},
		{
			"bufferView":34,
			"componentType":5126,
			"count":81,
			"type":"VEC2"
		},
		{
			"bufferView":35,
			"componentType":5123,
			"count":141,
			"type":"SCALAR"
		},
		{
			"bufferView":36,
			"componentType":5126,
			"count":240,
			"max":[
				17.75,
				6,
				23.75
			],
			"min":[
				-17.75,
				-4,
				-47.75
			],
			"type":"VEC3"
		},
		{
			"bufferView":37,
			"componentType":5126,
			"count":240,
			"type":"VEC3"
		},
		{
			"bufferView":38,
			"componentType":5126,
			"count":240,
			"type":"VEC2"
		},
		{
			"bufferView":39,
			"componentType":5123,
			"count":360,
			"type":"SCALAR"
		},
		{
			"bufferView":40,
			"componentType":5126,
			"count":240,
			"max":[
				18,
				6,
				24
			],
			"min":[
				-18,
				-4,
				-48
			],
			"type":"VEC3"
		},
		{
			"bufferView":41,
			"componentType":5126,
			"count":240,
			"type":"VEC3"
		},
		{
			"bufferView":42,
			"componentType":5126,
			"count":240,
			"type":"VEC2"
		},
		{
			"bufferView":43,
			"componentType":5123,
			"count":432,
			"type":"SCALAR"
		},
		{
			"bufferView":44,
			"componentType":5126,
			"count":250,
			"max":[
				18,
				4.5,
				24
			],
			"min":[
				-18,
				-7.25,
				-48
			],
			"type":"VEC3"
		},
		{
			"bufferView":45,
			"componentType":5126,
			"count":250,
			"type":"VEC3"
		},
		{
			"bufferView":46,
			"componentType":5126,
			"count":250,
			"type":"VEC2"
		},
		{
			"bufferView":47,
			"componentType":5123,
			"count":450,
			"type":"SCALAR"
		},
		{
			"bufferView":48,
			"componentType":5126,
			"count":16,
			"max":[
				18,
				2.5,
				12.25
			],
			"min":[
				-18,
				2,
				-12.25
			],
			"type":"VEC3"
		},
		{
			"bufferView":49,
			"componentType":5126,
			"count":16,
			"type":"VEC3"
		},
		{
			"bufferView":50,
			"componentType":5126,
			"count":16,
			"type":"VEC2"
		},
		{
			"bufferView":51,
			"componentType":5123,
			"count":24,
			"type":"SCALAR"
		},
		{
			"bufferView":52,
			"componentType":5126,
			"count":12,
			"max":[
				3,
				-2,
				22
			],
			"min":[
				-3,
				-7,
				20
			],
			"type":"VEC3"
		},
		{
			"bufferView":53,
			"componentType":5126,
			"count":12,
			"type":"VEC3"
		},
		{
			"bufferView":54,
			"componentType":5126,
			"count":12,
			"type":"VEC2"
		},
		{
			"bufferView":55,
			"componentType":5123,
			"count":24,
			"type":"SCALAR"
		},
		{
			"bufferView":56,
			"componentType":5126,
			"count":12,
			"max":[
				0.75,
				-7,
				21.5
			],
			"min":[
				-0.75,
				-7.25,
				20.5
			],
			"type":"VEC3"
		},
		{
			"bufferView":57,
			"componentType":5126,
			"count":12,
			"type":"VEC3"
		},
		{
			"bufferView":58,
			"componentType":5126,
			"count":12,
			"type":"VEC2"
		},
		{
			"bufferView":59,
			"componentType":5123,
			"count":18,
			"type":"SCALAR"
		},
		{
			"bufferView":60,
			"componentType":5126,
			"count":12,
			"max":[
				2,
				3,
				22
			],
			"min":[
				-2,
				2,
				21
			],
			"type":"VEC3"
		},
		{
			"bufferView":61,
			"componentType":5126,
			"count":12,
			"type":"VEC3"
		},
		{
			"bufferView":62,
			"componentType":5126,
			"count":12,
			"type":"VEC2"
		},
		{
			"bufferView":63,
			"componentType":5123,
			"count":18,
			"type":"SCALAR"
		},
		{
			"bufferView":64,
			"componentType":5126,
			"count":76,
			"max":[
				4,
				-3,
				4
			],
			"min":[
				-4,
				-3.5,
				-4
			],
			"type":"VEC3"
		},
		{
			"bufferView":65,
			"componentType":5126,
			"count":76,
			"type":"VEC3"
		},
		{
			"bufferView":66,
			"componentType":5126,
			"count":76,
			"type":"VEC2"
		},
		{
			"bufferView":67,
			"componentType":5123,
			"count":240,
			"type":"SCALAR"
		},
		{
			"bufferView":68,
			"componentType":5126,
			"count":232,
			"max":[
				5,
				-2,
				5
			],
			"min":[
				-5,
				-6.5,
				-5
			],
			"type":"VEC3"
		},
		{
			"bufferView":69,
			"componentType":5126,
			"count":232,
			"type":"VEC3"
		},
		{
			"bufferView":70,
			"componentType":5126,
			"count":232,
			"type":"VEC2"
		},
		{
			"bufferView":71,
			"componentType":5123,
			"count":408,
			"type":"SCALAR"
		},
		{
			"bufferView":72,
			"componentType":5126,
			"count":200,
			"max":[
				2,
				-4,
				2
			],
			"min":[
				-2,
				-6.5,
				-2
			],
			"type":"VEC3"
		},
		{
			"bufferView":73,
			"componentType":5126,
			"count":200,
			"type":"VEC3"
		},
		{
			"bufferView":74,
			"componentType":5126,
			"count":200,
			"type":"VEC2"
		},
		{
			"bufferView":75,
			"componentType":5123,
			"count":378,
			"type":"SCALAR"
		},
		{
			"bufferView":76,
			"componentType":5126,
			"count":56,
			"max":[
				3.5,
				-3,
				3.5
			],
			"min":[
				-3.5,
				-3.5,
				-3.5
			],
			"type":"VEC3"
		},
		{
			"bufferView":77,
			"componentType":5126,
			"count":56,
			"type":"VEC3"
		},
		{
			"bufferView":78,
			"componentType":5126,
			"count":56,
			"type":"VEC2"
		},
		{
			"bufferView":79,
			"componentType":5123,
			"count":96,
			"type":"SCALAR"
		},
		{
			"bufferView":80,
			"componentType":5126,
			"count":56,
			"max":[
				2,
				-5.5,
				2
			],
			"min":[
				-2,
				-5.5,
				-2
			],
			"type":"VEC3"
		},
		{
			"bufferView":81,
			"componentType":5126,
			"count":56,
			"type":"VEC3"
		},
		{
			"bufferView":82,
			"componentType":5126,
			"count":56,
			"type":"VEC2"
		},
		{
			"bufferView":83,
			"componentType":5123,
			"count":168,
			"type":"SCALAR"
		}
	],
	"bufferViews":[
		{
			"buffer":0,
			"byteLength":1680,
			"byteOffset":0,
			"target":34962
		},
		{
			"buffer":0,
			"byteLength":1680,
			"byteOffset":1680,
			"target":34962
		},
		{
			"buffer":0,
			"byteLength":1120,
			"byteOffset":3360,
			"target":34962
		},
		{
			"buffer":0,
			"byteLength":516,
			"byteOffset":4480,
			"target":34963
		},
		{
			"buffer":0,
			"byteLength":516,
			"byteOffset":4996,
			"target":34962
		},
		{
			"buffer":0,
			"byteLength":516,
			"byteOffset":5512,
			"target":34962
		},
		{
			"buffer":0,
			"byteLength":344,
			"byteOffset":6028,
			"target":34962
		},
		{
			"buffer":0,
			"byteLength":234,
			"byteOffset":6372,
			"target":34963
		},
		{
			"buffer":0,
			"byteLength":8124,
			"byteOffset":6608,
			"target":34962
		},
		{
			"buffer":0,
			"byteLength":8124,
			"byteOffset":14732,
			"target":34962
		},
		{
			"buffer":0,
			"byteLength":5416,
			"byteOffset":22856,
			"target":34962
		},
		{
			"buffer":0,
			"byteLength":3456,
			"byteOffset":28272,
			"target":34963
		},
		{
			"buffer":0,
			"byteLength":96,
			"byteOffset":31728,
			"target":34962
		},
		{
			"buffer":0,
			"byteLength":96,
			"byteOffset":31824,
			"target":34962
		},
		{
			"buffer":0,
			"byteLength":64,
			"byteOffset":31920,
			"target":34962
		},
		{
			"buffer":0,
			"byteLength":24,
			"byteOffset":31984,
			"target":34963
		},
		{
			"buffer":0,
			"byteLength":456,
			"byteOffset":32008,
			"target":34962
		},
		{
			"buffer":0,
			"byteLength":456,
			"byteOffset":32464,
			"target":34962
		},
		{
			"buffer":0,
			"byteLength":304,
			"byteOffset":32920,
			"target":34962
		},
		{
			"buffer":0,
			"byteLength":168,
			"byteOffset":33224,
			"target":34963
		},
		{
			"buffer":0,
			"byteLength":468,
			"byteOffset":33392,
			"target":34962
		},
		{
			"buffer":0,
			"byteLength":468,
			"byteOffset":33860,
			"target":34962
		},
		{
			"buffer":0,
			"byteLength":312,
			"byteOffset":34328,
			"target":34962
		},
		{
			"buffer":0,
			"byteLength":144,
			"byteOffset":34640,
			"target":34963
		},
		{
			"buffer":0,
			"byteLength":1008,
			"byteOffset":34784,
			"target":34962
		},
		{
			"buffer":0,
			"byteLength":1008,
			"byteOffset":35792,
			"target":34962
		},
		{
			"buffer":0,
			"byteLength":672,
			"byteOffset":36800,
			"target":34962
		},
		{
			"buffer":0,
			"byteLength":360,
			"byteOffset":37472,
			"target":34963
		},
		{
			"buffer":0,
			"byteLength":192,
			"byteOffset":37832,
			"target":34962
		},
		{
			"buffer":0,
			"byteLength":192,
			"byteOffset":38024,
			"target":34962
		},
		{
			"buffer":0,
			"byteLength":128,
			"byteOffset":38216,
			"target":34962
		},
		{
			"buffer":0,
			"byteLength":48,
			"byteOffset":38344,
			"target":34963
		},
		{
			"buffer":0,
			"byteLength":972,
			"byteOffset":38392,
			"target":34962
		},
		{
			"buffer":0,
			"byteLength":972,
			"byteOffset":39364,
			"target":34962
		},
		{
			"buffer":0,
			"byteLength":648,
			"byteOffset":40336,
			"target":34962
		},
		{
			"buffer":0,
			"byteLength":282,
			"byteOffset":40984,
			"target":34963
		},
		{
			"buffer":0,
			"byteLength":2880,
			"byteOffset":41268,
			"target":34962
		},
		{
			"buffer":0,
			"byteLength":2880,
			"byteOffset":44148,
			"target":34962
		},
		{
			"buffer":0,
			"byteLength":1920,
			"byteOffset":47028,
			"target":34962
		},
		{
			"buffer":0,
			"byteLength":720,
			"byteOffset":48948,
			"target":34963
		},
		{
			"buffer":0,
			"byteLength":2880,
			"byteOffset":49668,
			"target":34962
		},
		{
			"buffer":0,
			"byteLength":2880,
			"byteOffset":52548,
			"target":34962
		},
		{
			"buffer":0,
			"byteLength":1920,
			"byteOffset":55428,
			"target":34962
		},
		{
			"buffer":0,
			"byteLength":864,
			"byteOffset":57348,
			"target":34963
		},
		{
			"buffer":0,
			"byteLength":3000,
			"byteOffset":58212,
			"target":34962
		},
		{
			"buffer":0,
			"byteLength":3000,
			"byteOffset":61212,
			"target":34962
		},
		{
			"buffer":0,
			"byteLength":2000,
			"byteOffset":64212,
			"target":34962
		},
		{
			"buffer":0,
			"byteLength":900,
			"byteOffset":66212,
			"target":34963
		},
		{
			"buffer":0,
			"byteLength":192,
			"byteOffset":67112,
			"target":34962
		},
		{
			"buffer":0,
			"byteLength":192,
			"byteOffset":67304,
			"target":34962
		},
		{
			"buffer":0,
			"byteLength":128,
			"byteOffset":67496,
			"target":34962
		},
		{
			"buffer":0,
			"byteLength":48,
			"byteOffset":67624,
			"target":34963
		},
		{
			"buffer":0,
			"byteLength":144,
			"byteOffset":67672,
			"target":34962
		},
		{
			"buffer":0,
			"byteLength":144,
			"byteOffset":67816,
			"target":34962
		},
		{
			"buffer":0,
			"byteLength":96,
			"byteOffset":67960,
			"target":34962
		},
		{
			"buffer":0,
			"byteLength":48,
			"byteOffset":68056,
			"target":34963
		},
		{
			"buffer":0,
			"byteLength":144,
			"byteOffset":68104,
			"target":34962
		},
		{
			"buffer":0,
			"byteLength":144,
			"byteOffset":68248,
			"target":34962
		},
		{
			"buffer":0,
			"byteLength":96,
			"byteOffset":68392,
			"target":34962
		},
		{
			"buffer":0,
			"byteLength":36,
			"byteOffset":68488,
			"target":34963
		},
		{
			"buffer":0,
			"byteLength":144,
			"byteOffset":68524,
			"target":34962
		},
		{
			"buffer":0,
			"byteLength":144,
			"byteOffset":68668,
			"target":34962
		},
		{
			"buffer":0,
			"byteLength":96,
			"byteOffset":68812,
			"target":34962
		},
		{
			"buffer":0,
			"byteLength":36,
			"byteOffset":68908,
			"target":34963
		},
		{
			"buffer":0,
			"byteLength":912,
			"byteOffset":68944,
			"target":34962
		},
		{
			"buffer":0,
			"byteLength":912,
			"byteOffset":69856,
			"target":34962
		},
		{
			"buffer":0,
			"byteLength":608,
			"byteOffset":70768,
			"target":34962
		},
		{
			"buffer":0,
			"byteLength":480,
			"byteOffset":71376,
			"target":34963
		},
		{
			"buffer":0,
			"byteLength":2784,
			"byteOffset":71856,
			"target":34962
		},
		{
			"buffer":0,
			"byteLength":2784,
			"byteOffset":74640,
			"target":34962
		},
		{
			"buffer":0,
			"byteLength":1856,
			"byteOffset":77424,
			"target":34962
		},
		{
			"buffer":0,
			"byteLength":816,
			"byteOffset":79280,
			"target":34963
		},
		{
			"buffer":0,
			"byteLength":2400,
			"byteOffset":80096,
			"target":34962
		},
		{
			"buffer":0,
			"byteLength":2400,
			"byteOffset":82496,
			"target":34962
		},
		{
			"buffer":0,
			"byteLength":1600,
			"byteOffset":84896,
			"target":34962
		},
		{
			"buffer":0,
			"byteLength":756,
			"byteOffset":86496,
			"target":34963
		},
		{
			"buffer":0,
			"byteLength":672,
			"byteOffset":87252,
			"target":34962
		},
		{
			"buffer":0,
			"byteLength":672,
			"byteOffset":87924,
			"target":34962
		},
		{
			"buffer":0,
			"byteLength":448,
			"byteOffset":88596,
			"target":34962
		},
		{
			"buffer":0,
			"byteLength":192,
			"byteOffset":89044,
			"target":34963
		},
		{
			"buffer":0,
			"byteLength":672,
			"byteOffset":89236,
			"target":34962
		},
		{
			"buffer":0,
			"byteLength":672,
			"byteOffset":89908,
			"target":34962
		},
		{
			"buffer":0,
			"byteLength":448,
			"byteOffset":90580,
			"target":34962
		},
		{
			"buffer":0,
			"byteLength":336,
			"byteOffset":91028,
			"target":34963
		}
	],
	"buffers":[
		{
			"byteLength":91364,
			"uri":"dvpad1.bin"
		}
	]
}
