{
	"asset":{
		"generator":"Khronos glTF Blender I/O v4.5.48",
		"version":"2.0"
	},
	"scene":0,
	"scenes":[
		{
			"name":"Scene",
			"nodes":[
				0
			]
		}
	],
	"nodes":[
		{
			"mesh":0,
			"name":"Object"
		}
	],
	"materials":[
		{
			"doubleSided":true,
			"name":"CP_IFLO01D",
			"pbrMetallicRoughness":{
				"baseColorFactor":[
					0.800000011920929,
					0.800000011920929,
					0.800000011920929,
					1
				],
				"metallicFactor":0,
				"roughnessFactor":0.5
			}
		},
		{
			"doubleSided":true,
			"name":"CP_EWAL01B",
			"pbrMetallicRoughness":{
				"baseColorFactor":[
					0.800000011920929,
					0.800000011920929,
					0.800000011920929,
					1
				],
				"metallicFactor":0,
				"roughnessFactor":0.5
			}
		},
		{
			"doubleSided":true,
			"name":"CP_IFLO02A",
			"pbrMetallicRoughness":{
				"baseColorFactor":[
					0.800000011920929,
					0.800000011920929,
					0.800000011920929,
					1
				],
				"metallicFactor":0,
				"roughnessFactor":0.5
			}
		},
		{
			"doubleSided":true,
			"name":"CP_IFLO02C",
			"pbrMetallicRoughness":{
				"baseColorFactor":[
					0.800000011920929,
					0.800000011920929,
					0.800000011920929,
					1
				],
				"metallicFactor":0,
				"roughnessFactor":0.5
			}
		},
		{
			"doubleSided":true,
			"name":"CP_ILIG01A",
			"pbrMetallicRoughness":{
				"baseColorFactor":[
					0.800000011920929,
					0.800000011920929,
					0.800000011920929,
					1
				],
				"metallicFactor":0,
				"roughnessFactor":0.5
			}
		},
		{
			"doubleSided":true,
			"name":"CP_IBOR03",
			"pbrMetallicRoughness":{
				"baseColorFactor":[
					0.800000011920929,
					0.800000011920929,
					0.800000011920929,
					1
				],
				"metallicFactor":0,
				"roughnessFactor":0.5
			}
		}
	],
	"meshes":[
		{
			"name":"Mesh",
			"primitives":[
				{
					"attributes":{
						"POSITION":0,
						"NORMAL":1,
						"TEXCOORD_0":2
					},
					"indices":3,
					"material":0
				},
				{
					"attributes":{
						"POSITION":4,
						"NORMAL":5,
						"TEXCOORD_0":6
					},
					"indices":7,
					"material":1
				},
				{
					"attributes":{
						"POSITION":8,
						"NORMAL":9,
						"TEXCOORD_0":10
					},
					"indices":11,
					"material":2
				},
				{
					"attributes":{
						"POSITION":12,
						"NORMAL":13,
						"TEXCOORD_0":14
					},
					"indices":15,
					"material":3
				},
				{
					"attributes":{
						"POSITION":16,
						"NORMAL":17,
						"TEXCOORD_0":18
					},
					"indices":19,
					"material":4
				},
				{
					"attributes":{
						"POSITION":20,
						"NORMAL":21,
						"TEXCOORD_0":22
					},
					"indices":23,
					"material":5
				}
			]
		}
	],
	"accessors":[
		{
			"bufferView":0,
			"componentType":5126,
			"count":12,
			"max":[
				18,
				1.75,
				4
			],
			"min":[
				-6,
				1.75,
				-4
			],
			"type":"VEC3"
		},
		{
			"bufferView":1,
			"componentType":5126,
			"count":12,
			"type":"VEC3"
		},
		{
			"bufferView":2,
			"componentType":5126,
			"count":12,
			"type":"VEC2"
		},
		{
			"bufferView":3,
			"componentType":5123,
			"count":24,
			"type":"SCALAR"
		},
		{
			"bufferView":4,
			"componentType":5126,
			"count":467,
			"max":[
				18,
				7.75,
				8
			],
			"min":[
				-6,
				-5.75,
				-8
			],
			"type":"VEC3"
		},
		{
			"bufferView":5,
			"componentType":5126,
			"count":467,
			"type":"VEC3"
		},
		{
			"bufferView":6,
			"componentType":5126,
			"count":467,
			"type":"VEC2"
		},
		{
			"bufferView":7,
			"componentType":5123,
			"count":858,
			"type":"SCALAR"
		},
		{
			"bufferView":8,
			"componentType":5126,
			"count":176,
			"max":[
				-0.5,
				2,
				7.75
			],
			"min":[
				-4.5,
				1.75,
				-7.75
			],
			"type":"VEC3"
		},
		{
			"bufferView":9,
			"componentType":5126,
			"count":176,
			"type":"VEC3"
		},
		{
			"bufferView":10,
			"componentType":5126,
			"count":176,
			"type":"VEC2"
		},
		{
			"bufferView":11,
			"componentType":5123,
			"count":366,
			"type":"SCALAR"
		},
		{
			"bufferView":12,
			"componentType":5126,
			"count":4,
			"max":[
				-2.1875,
				1.75,
				4
			],
			"min":[
				-2.875,
				1.75,
				-4
			],
			"type":"VEC3"
		},
		{
			"bufferView":13,
			"componentType":5126,
			"count":4,
			"type":"VEC3"
		},
		{
			"bufferView":14,
			"componentType":5126,
			"count":4,
			"type":"VEC2"
		},
		{
			"bufferView":15,
			"componentType":5123,
			"count":6,
			"type":"SCALAR"
		},
		{
			"bufferView":16,
			"componentType":5126,
			"count":32,
			"max":[
				18,
				2,
				8
			],
			"min":[
				-6,
				2,
				-8
			],
			"type":"VEC3"
		},
		{
			"bufferView":17,
			"componentType":5126,
			"count":32,
			"type":"VEC3"
		},
		{
			"bufferView":18,
			"componentType":5126,
			"count":32,
			"type":"VEC2"
		},
		{
			"bufferView":19,
			"componentType":5123,
			"count":84,
			"type":"SCALAR"
		},
		{
			"bufferView":20,
			"componentType":5126,
			"count":12,
			"max":[
				-4.5,
				-3,
				3.5
			],
			"min":[
				-6,
				-3.75,
				-3.5
			],
			"type":"VEC3"
		},
		{
			"bufferView":21,
			"componentType":5126,
			"count":12,
			"type":"VEC3"
		},
		{
			"bufferView":22,
			"componentType":5126,
			"count":12,
			"type":"VEC2"
		},
		{
			"bufferView":23,
			"componentType":5123,
			"count":18,
			"type":"SCALAR"
		}
	],
	"bufferViews":[
		{
			"buffer":0,
			"byteLength":144,
			"byteOffset":0,
			"target":34962
		},
		{
			"buffer":0,
			"byteLength":144,
			"byteOffset":144,
			"target":34962
		},
		{
			"buffer":0,
			"byteLength":96,
			"byteOffset":288,
			"target":34962
		},
		{
			"buffer":0,
			"byteLength":48,
			"byteOffset":384,
			"target":34963
		},
		{
			"buffer":0,
			"byteLength":5604,
			"byteOffset":432,
			"target":34962
		},
		{
			"buffer":0,
			"byteLength":5604,
			"byteOffset":6036,
			"target":34962
		},
		{
			"buffer":0,
			"byteLength":3736,
			"byteOffset":11640,
			"target":34962
		},
		{
			"buffer":0,
			"byteLength":1716,
			"byteOffset":15376,
			"target":34963
		},
		{
			"buffer":0,
			"byteLength":2112,
			"byteOffset":17092,
			"target":34962
		},
		{
			"buffer":0,
			"byteLength":2112,
			"byteOffset":19204,
			"target":34962
		},
		{
			"buffer":0,
			"byteLength":1408,
			"byteOffset":21316,
			"target":34962
		},
		{
			"buffer":0,
			"byteLength":732,
			"byteOffset":22724,
			"target":34963
		},
		{
			"buffer":0,
			"byteLength":48,
			"byteOffset":23456,
			"target":34962
		},
		{
			"buffer":0,
			"byteLength":48,
			"byteOffset":23504,
			"target":34962
		},
		{
			"buffer":0,
			"byteLength":32,
			"byteOffset":23552,
			"target":34962
		},
		{
			"buffer":0,
			"byteLength":12,
			"byteOffset":23584,
			"target":34963
		},
		{
			"buffer":0,
			"byteLength":384,
			"byteOffset":23596,
			"target":34962
		},
		{
			"buffer":0,
			"byteLength":384,
			"byteOffset":23980,
			"target":34962
		},
		{
			"buffer":0,
			"byteLength":256,
			"byteOffset":24364,
			"target":34962
		},
		{
			"buffer":0,
			"byteLength":168,
			"byteOffset":24620,
			"target":34963
		},
		{
			"buffer":0,
			"byteLength":144,
			"byteOffset":24788,
			"target":34962
		},
		{
			"buffer":0,
			"byteLength":144,
			"byteOffset":24932,
			"target":34962
		},
		{
			"buffer":0,
			"byteLength":96,
			"byteOffset":25076,
			"target":34962
		},
		{
			"buffer":0,
			"byteLength":36,
			"byteOffset":25172,
			"target":34963
		}
	],
	"buffers":[
		{
			"byteLength":25208,
			"uri":"pbrdg0.bin"
		}
	]
}
