{
	"asset":{
		"generator":"Khronos glTF Blender I/O v4.5.48",
		"version":"2.0"
	},
	"scene":0,
	"scenes":[
		{
			"name":"Scene",
			"nodes":[
				0
			]
		}
	],
	"nodes":[
		{
			"mesh":0,
			"name":"Object"
		}
	],
	"materials":[
		{
			"doubleSided":true,
			"name":"CP_IFLO02A",
			"pbrMetallicRoughness":{
				"baseColorFactor":[
					0.800000011920929,
					0.800000011920929,
					0.800000011920929,
					1
				],
				"metallicFactor":0,
				"roughnessFactor":0.5
			}
		},
		{
			"doubleSided":true,
			"name":"CP_ITECWAL01A",
			"pbrMetallicRoughness":{
				"baseColorFactor":[
					0.800000011920929,
					0.800000011920929,
					0.800000011920929,
					1
				],
				"metallicFactor":0,
				"roughnessFactor":0.5
			}
		},
		{
			"doubleSided":true,
			"name":"CP_EWAL01B",
			"pbrMetallicRoughness":{
				"baseColorFactor":[
					0.800000011920929,
					0.800000011920929,
					0.800000011920929,
					1
				],
				"metallicFactor":0,
				"roughnessFactor":0.5
			}
		},
		{
			"doubleSided":true,
			"name":"CP_IFLO01D",
			"pbrMetallicRoughness":{
				"baseColorFactor":[
					0.800000011920929,
					0.800000011920929,
					0.800000011920929,
					1
				],
				"metallicFactor":0,
				"roughnessFactor":0.5
			}
		},
		{
			"doubleSided":true,
			"name":"CP_ILIG01A",
			"pbrMetallicRoughness":{
				"baseColorFactor":[
					0.800000011920929,
					0.800000011920929,
					0.800000011920929,
					1
				],
				"metallicFactor":0,
				"roughnessFactor":0.5
			}
		},
		{
			"doubleSided":true,
			"name":"CP_IBOR01",
			"pbrMetallicRoughness":{
				"baseColorFactor":[
					0.800000011920929,
					0.800000011920929,
					0.800000011920929,
					1
				],
				"metallicFactor":0,
				"roughnessFactor":0.5
			}
		},
		{
			"doubleSided":true,
			"name":"CP_IBOR01A",
			"pbrMetallicRoughness":{
				"baseColorFactor":[
					0.800000011920929,
					0.800000011920929,
					0.800000011920929,
					1
				],
				"metallicFactor":0,
				"roughnessFactor":0.5
			}
		},
		{
			"doubleSided":true,
			"name":"CP_IBOR02",
			"pbrMetallicRoughness":{
				"baseColorFactor":[
					0.800000011920929,
					0.800000011920929,
					0.800000011920929,
					1
				],
				"metallicFactor":0,
				"roughnessFactor":0.5
			}
		},
		{
			"doubleSided":true,
			"name":"CP_IBOR02A",
			"pbrMetallicRoughness":{
				"baseColorFactor":[
					0.800000011920929,
					0.800000011920929,
					0.800000011920929,
					1
				],
				"metallicFactor":0,
				"roughnessFactor":0.5
			}
		},
		{
			"doubleSided":true,
			"name":"CP_ISTRFACE01C",
			"pbrMetallicRoughness":{
				"baseColorFactor":[
					0.800000011920929,
					0.800000011920929,
					0.800000011920929,
					1
				],
				"metallicFactor":0,
				"roughnessFactor":0.5
			}
		}
	],
	"meshes":[
		{
			"name":"Mesh",
			"primitives":[
				{
					"attributes":{
						"POSITION":0,
						"NORMAL":1,
						"TEXCOORD_0":2
					},
					"indices":3,
					"material":0
				},
				{
					"attributes":{
						"POSITION":4,
						"NORMAL":5,
						"TEXCOORD_0":6
					},
					"indices":7,
					"material":1
				},
				{
					"attributes":{
						"POSITION":8,
						"NORMAL":9,
						"TEXCOORD_0":10
					},
					"indices":11,
					"material":2
				},
				{
					"attributes":{
						"POSITION":12,
						"NORMAL":13,
						"TEXCOORD_0":14
					},
					"indices":15,
					"material":3
				},
				{
					"attributes":{
						"POSITION":16,
						"NORMAL":17,
						"TEXCOORD_0":18
					},
					"indices":19,
					"material":4
				},
				{
					"attributes":{
						"POSITION":20,
						"NORMAL":21,
						"TEXCOORD_0":22
					},
					"indices":23,
					"material":5
				},
				{
					"attributes":{
						"POSITION":24,
						"NORMAL":25,
						"TEXCOORD_0":26
					},
					"indices":27,
					"material":6
				},
				{
					"attributes":{
						"POSITION":28,
						"NORMAL":29,
						"TEXCOORD_0":30
					},
					"indices":31,
					"material":7
				},
				{
					"attributes":{
						"POSITION":32,
						"NORMAL":33,
						"TEXCOORD_0":34
					},
					"indices":35,
					"material":8
				},
				{
					"attributes":{
						"POSITION":36,
						"NORMAL":37,
						"TEXCOORD_0":38
					},
					"indices":39,
					"material":9
				}
			]
		}
	],
	"accessors":[
		{
			"bufferView":0,
			"componentType":5126,
			"count":104,
			"max":[
				8,
				2,
				12
			],
			"min":[
				4,
				1.75,
				-12
			],
			"type":"VEC3"
		},
		{
			"bufferView":1,
			"componentType":5126,
			"count":104,
			"type":"VEC3"
		},
		{
			"bufferView":2,
			"componentType":5126,
			"count":104,
			"type":"VEC2"
		},
		{
			"bufferView":3,
			"componentType":5123,
			"count":108,
			"type":"SCALAR"
		},
		{
			"bufferView":4,
			"componentType":5126,
			"count":76,
			"max":[
				18,
				1.75,
				12
			],
			"min":[
				-5.875,
				0,
				-12
			],
			"type":"VEC3"
		},
		{
			"bufferView":5,
			"componentType":5126,
			"count":76,
			"type":"VEC3"
		},
		{
			"bufferView":6,
			"componentType":5126,
			"count":76,
			"type":"VEC2"
		},
		{
			"bufferView":7,
			"componentType":5123,
			"count":120,
			"type":"SCALAR"
		},
		{
			"bufferView":8,
			"componentType":5126,
			"count":90,
			"max":[
				18,
				2.75,
				8.25
			],
			"min":[
				-5.875,
				-0.25,
				-8.25
			],
			"type":"VEC3"
		},
		{
			"bufferView":9,
			"componentType":5126,
			"count":90,
			"type":"VEC3"
		},
		{
			"bufferView":10,
			"componentType":5126,
			"count":90,
			"type":"VEC2"
		},
		{
			"bufferView":11,
			"componentType":5123,
			"count":186,
			"type":"SCALAR"
		},
		{
			"bufferView":12,
			"componentType":5126,
			"count":8,
			"max":[
				18,
				1.75,
				8.25
			],
			"min":[
				-5.875,
				1.75,
				-8.25
			],
			"type":"VEC3"
		},
		{
			"bufferView":13,
			"componentType":5126,
			"count":8,
			"type":"VEC3"
		},
		{
			"bufferView":14,
			"componentType":5126,
			"count":8,
			"type":"VEC2"
		},
		{
			"bufferView":15,
			"componentType":5123,
			"count":18,
			"type":"SCALAR"
		},
		{
			"bufferView":16,
			"componentType":5126,
			"count":16,
			"max":[
				18,
				2.75,
				8.25
			],
			"min":[
				-5.875,
				2.75,
				-8.25
			],
			"type":"VEC3"
		},
		{
			"bufferView":17,
			"componentType":5126,
			"count":16,
			"type":"VEC3"
		},
		{
			"bufferView":18,
			"componentType":5126,
			"count":16,
			"type":"VEC2"
		},
		{
			"bufferView":19,
			"componentType":5123,
			"count":24,
			"type":"SCALAR"
		},
		{
			"bufferView":20,
			"componentType":5126,
			"count":39,
			"max":[
				18,
				2.75,
				8.25
			],
			"min":[
				-6.375,
				-0.75,
				-8.25
			],
			"type":"VEC3"
		},
		{
			"bufferView":21,
			"componentType":5126,
			"count":39,
			"type":"VEC3"
		},
		{
			"bufferView":22,
			"componentType":5126,
			"count":39,
			"type":"VEC2"
		},
		{
			"bufferView":23,
			"componentType":5123,
			"count":93,
			"type":"SCALAR"
		},
		{
			"bufferView":24,
			"componentType":5126,
			"count":11,
			"max":[
				18,
				2.75,
				8.25
			],
			"min":[
				-5.875,
				1.75,
				-8.25
			],
			"type":"VEC3"
		},
		{
			"bufferView":25,
			"componentType":5126,
			"count":11,
			"type":"VEC3"
		},
		{
			"bufferView":26,
			"componentType":5126,
			"count":11,
			"type":"VEC2"
		},
		{
			"bufferView":27,
			"componentType":5123,
			"count":21,
			"type":"SCALAR"
		},
		{
			"bufferView":28,
			"componentType":5126,
			"count":84,
			"max":[
				-5.375,
				2,
				8.625
			],
			"min":[
				-6.375,
				-0.75,
				-8.625
			],
			"type":"VEC3"
		},
		{
			"bufferView":29,
			"componentType":5126,
			"count":84,
			"type":"VEC3"
		},
		{
			"bufferView":30,
			"componentType":5126,
			"count":84,
			"type":"VEC2"
		},
		{
			"bufferView":31,
			"componentType":5123,
			"count":168,
			"type":"SCALAR"
		},
		{
			"bufferView":32,
			"componentType":5126,
			"count":18,
			"max":[
				-5.375,
				2,
				8.625
			],
			"min":[
				-6.375,
				-0.75,
				-8.625
			],
			"type":"VEC3"
		},
		{
			"bufferView":33,
			"componentType":5126,
			"count":18,
			"type":"VEC3"
		},
		{
			"bufferView":34,
			"componentType":5126,
			"count":18,
			"type":"VEC2"
		},
		{
			"bufferView":35,
			"componentType":5123,
			"count":30,
			"type":"SCALAR"
		},
		{
			"bufferView":36,
			"componentType":5126,
			"count":8,
			"max":[
				18,
				0.25,
				0.5
			],
			"min":[
				-5.375,
				-0.25,
				-0.5
			],
			"type":"VEC3"
		},
		{
			"bufferView":37,
			"componentType":5126,
			"count":8,
			"type":"VEC3"
		},
		{
			"bufferView":38,
			"componentType":5126,
			"count":8,
			"type":"VEC2"
		},
		{
			"bufferView":39,
			"componentType":5123,
			"count":12,
			"type":"SCALAR"
		}
	],
	"bufferViews":[
		{
			"buffer":0,
			"byteLength":1248,
			"byteOffset":0,
			"target":34962
		},
		{
			"buffer":0,
			"byteLength":1248,
			"byteOffset":1248,
			"target":34962
		},
		{
			"buffer":0,
			"byteLength":832,
			"byteOffset":2496,
			"target":34962
		},
		{
			"buffer":0,
			"byteLength":216,
			"byteOffset":3328,
			"target":34963
		},
		{
			"buffer":0,
			"byteLength":912,
			"byteOffset":3544,
			"target":34962
		},
		{
			"buffer":0,
			"byteLength":912,
			"byteOffset":4456,
			"target":34962
		},
		{
			"buffer":0,
			"byteLength":608,
			"byteOffset":5368,
			"target":34962
		},
		{
			"buffer":0,
			"byteLength":240,
			"byteOffset":5976,
			"target":34963
		},
		{
			"buffer":0,
			"byteLength":1080,
			"byteOffset":6216,
			"target":34962
		},
		{
			"buffer":0,
			"byteLength":1080,
			"byteOffset":7296,
			"target":34962
		},
		{
			"buffer":0,
			"byteLength":720,
			"byteOffset":8376,
			"target":34962
		},
		{
			"buffer":0,
			"byteLength":372,
			"byteOffset":9096,
			"target":34963
		},
		{
			"buffer":0,
			"byteLength":96,
			"byteOffset":9468,
			"target":34962
		},
		{
			"buffer":0,
			"byteLength":96,
			"byteOffset":9564,
			"target":34962
		},
		{
			"buffer":0,
			"byteLength":64,
			"byteOffset":9660,
			"target":34962
		},
		{
			"buffer":0,
			"byteLength":36,
			"byteOffset":9724,
			"target":34963
		},
		{
			"buffer":0,
			"byteLength":192,
			"byteOffset":9760,
			"target":34962
		},
		{
			"buffer":0,
			"byteLength":192,
			"byteOffset":9952,
			"target":34962
		},
		{
			"buffer":0,
			"byteLength":128,
			"byteOffset":10144,
			"target":34962
		},
		{
			"buffer":0,
			"byteLength":48,
			"byteOffset":10272,
			"target":34963
		},
		{
			"buffer":0,
			"byteLength":468,
			"byteOffset":10320,
			"target":34962
		},
		{
			"buffer":0,
			"byteLength":468,
			"byteOffset":10788,
			"target":34962
		},
		{
			"buffer":0,
			"byteLength":312,
			"byteOffset":11256,
			"target":34962
		},
		{
			"buffer":0,
			"byteLength":186,
			"byteOffset":11568,
			"target":34963
		},
		{
			"buffer":0,
			"byteLength":132,
			"byteOffset":11756,
			"target":34962
		},
		{
			"buffer":0,
			"byteLength":132,
			"byteOffset":11888,
			"target":34962
		},
		{
			"buffer":0,
			"byteLength":88,
			"byteOffset":12020,
			"target":34962
		},
		{
			"buffer":0,
			"byteLength":42,
			"byteOffset":12108,
			"target":34963
		},
		{
			"buffer":0,
			"byteLength":1008,
			"byteOffset":12152,
			"target":34962
		},
		{
			"buffer":0,
			"byteLength":1008,
			"byteOffset":13160,
			"target":34962
		},
		{
			"buffer":0,
			"byteLength":672,
			"byteOffset":14168,
			"target":34962
		},
		{
			"buffer":0,
			"byteLength":336,
			"byteOffset":14840,
			"target":34963
		},
		{
			"buffer":0,
			"byteLength":216,
			"byteOffset":15176,
			"target":34962
		},
		{
			"buffer":0,
			"byteLength":216,
			"byteOffset":15392,
			"target":34962
		},
		{
			"buffer":0,
			"byteLength":144,
			"byteOffset":15608,
			"target":34962
		},
		{
			"buffer":0,
			"byteLength":60,
			"byteOffset":15752,
			"target":34963
		},
		{
			"buffer":0,
			"byteLength":96,
			"byteOffset":15812,
			"target":34962
		},
		{
			"buffer":0,
			"byteLength":96,
			"byteOffset":15908,
			"target":34962
		},
		{
			"buffer":0,
			"byteLength":64,
			"byteOffset":16004,
			"target":34962
		},
		{
			"buffer":0,
			"byteLength":24,
			"byteOffset":16068,
			"target":34963
		}
	],
	"buffers":[
		{
			"byteLength":16092,
			"uri":"pbrdgo.bin"
		}
	]
}
