{
	"asset":{
		"generator":"Khronos glTF Blender I/O v4.5.48",
		"version":"2.0"
	},
	"scene":0,
	"scenes":[
		{
			"name":"Scene",
			"nodes":[
				0
			]
		}
	],
	"nodes":[
		{
			"mesh":0,
			"name":"Object"
		}
	],
	"materials":[
		{
			"doubleSided":true,
			"name":"CP_IFLO01D",
			"pbrMetallicRoughness":{
				"baseColorFactor":[
					0.800000011920929,
					0.800000011920929,
					0.800000011920929,
					1
				],
				"metallicFactor":0,
				"roughnessFactor":0.5
			}
		},
		{
			"doubleSided":true,
			"name":"CP_EWAL01B",
			"pbrMetallicRoughness":{
				"baseColorFactor":[
					0.800000011920929,
					0.800000011920929,
					0.800000011920929,
					1
				],
				"metallicFactor":0,
				"roughnessFactor":0.5
			}
		},
		{
			"doubleSided":true,
			"name":"CP_IFLO02A",
			"pbrMetallicRoughness":{
				"baseColorFactor":[
					0.800000011920929,
					0.800000011920929,
					0.800000011920929,
					1
				],
				"metallicFactor":0,
				"roughnessFactor":0.5
			}
		},
		{
			"doubleSided":true,
			"name":"CP_IFLO02C",
			"pbrMetallicRoughness":{
				"baseColorFactor":[
					0.800000011920929,
					0.800000011920929,
					0.800000011920929,
					1
				],
				"metallicFactor":0,
				"roughnessFactor":0.5
			}
		},
		{
			"doubleSided":true,
			"name":"CP_ILIG01A",
			"pbrMetallicRoughness":{
				"baseColorFactor":[
					0.800000011920929,
					0.800000011920929,
					0.800000011920929,
					1
				],
				"metallicFactor":0,
				"roughnessFactor":0.5
			}
		},
		{
			"doubleSided":true,
			"name":"CP_IBOR02",
			"pbrMetallicRoughness":{
				"baseColorFactor":[
					0.800000011920929,
					0.800000011920929,
					0.800000011920929,
					1
				],
				"metallicFactor":0,
				"roughnessFactor":0.5
			}
		},
		{
			"doubleSided":true,
			"name":"CP_IBOR01",
			"pbrMetallicRoughness":{
				"baseColorFactor":[
					0.800000011920929,
					0.800000011920929,
					0.800000011920929,
					1
				],
				"metallicFactor":0,
				"roughnessFactor":0.5
			}
		},
		{
			"doubleSided":true,
			"name":"CP_IBOR02A",
			"pbrMetallicRoughness":{
				"baseColorFactor":[
					0.800000011920929,
					0.800000011920929,
					0.800000011920929,
					1
				],
				"metallicFactor":0,
				"roughnessFactor":0.5
			}
		},
		{
			"doubleSided":true,
			"name":"CP_ITEC03A",
			"pbrMetallicRoughness":{
				"baseColorFactor":[
					0.800000011920929,
					0.800000011920929,
					0.800000011920929,
					1
				],
				"metallicFactor":0,
				"roughnessFactor":0.5
			}
		},
		{
			"doubleSided":true,
			"name":"CP_ISTRFACE01E",
			"pbrMetallicRoughness":{
				"baseColorFactor":[
					0.800000011920929,
					0.800000011920929,
					0.800000011920929,
					1
				],
				"metallicFactor":0,
				"roughnessFactor":0.5
			}
		},
		{
			"doubleSided":true,
			"name":"CP_ETEC01",
			"pbrMetallicRoughness":{
				"baseColorFactor":[
					0.800000011920929,
					0.800000011920929,
					0.800000011920929,
					1
				],
				"metallicFactor":0,
				"roughnessFactor":0.5
			}
		}
	],
	"meshes":[
		{
			"name":"Mesh",
			"primitives":[
				{
					"attributes":{
						"POSITION":0,
						"NORMAL":1,
						"TEXCOORD_0":2
					},
					"indices":3,
					"material":0
				},
				{
					"attributes":{
						"POSITION":4,
						"NORMAL":5,
						"TEXCOORD_0":6
					},
					"indices":7,
					"material":1
				},
				{
					"attributes":{
						"POSITION":8,
						"NORMAL":9,
						"TEXCOORD_0":10
					},
					"indices":11,
					"material":2
				},
				{
					"attributes":{
						"POSITION":12,
						"NORMAL":13,
						"TEXCOORD_0":14
					},
					"indices":15,
					"material":3
				},
				{
					"attributes":{
						"POSITION":16,
						"NORMAL":17,
						"TEXCOORD_0":18
					},
					"indices":19,
					"material":4
				},
				{
					"attributes":{
						"POSITION":20,
						"NORMAL":21,
						"TEXCOORD_0":22
					},
					"indices":23,
					"material":5
				},
				{
					"attributes":{
						"POSITION":24,
						"NORMAL":25,
						"TEXCOORD_0":26
					},
					"indices":27,
					"material":6
				},
				{
					"attributes":{
						"POSITION":28,
						"NORMAL":29,
						"TEXCOORD_0":30
					},
					"indices":31,
					"material":7
				},
				{
					"attributes":{
						"POSITION":32,
						"NORMAL":33,
						"TEXCOORD_0":34
					},
					"indices":35,
					"material":8
				},
				{
					"attributes":{
						"POSITION":36,
						"NORMAL":37,
						"TEXCOORD_0":38
					},
					"indices":39,
					"material":9
				},
				{
					"attributes":{
						"POSITION":40,
						"NORMAL":41,
						"TEXCOORD_0":42
					},
					"indices":43,
					"material":10
				}
			]
		}
	],
	"accessors":[
		{
			"bufferView":0,
			"componentType":5126,
			"count":12,
			"max":[
				12.25,
				1.75,
				4
			],
			"min":[
				-12.25,
				1.75,
				-4
			],
			"type":"VEC3"
		},
		{
			"bufferView":1,
			"componentType":5126,
			"count":12,
			"type":"VEC3"
		},
		{
			"bufferView":2,
			"componentType":5126,
			"count":12,
			"type":"VEC2"
		},
		{
			"bufferView":3,
			"componentType":5123,
			"count":24,
			"type":"SCALAR"
		},
		{
			"bufferView":4,
			"componentType":5126,
			"count":446,
			"max":[
				12.25,
				7.75,
				8
			],
			"min":[
				-12.75,
				1,
				-8
			],
			"type":"VEC3"
		},
		{
			"bufferView":5,
			"componentType":5126,
			"count":446,
			"type":"VEC3"
		},
		{
			"bufferView":6,
			"componentType":5126,
			"count":446,
			"type":"VEC2"
		},
		{
			"bufferView":7,
			"componentType":5123,
			"count":873,
			"type":"SCALAR"
		},
		{
			"bufferView":8,
			"componentType":5126,
			"count":176,
			"max":[
				2,
				2,
				7.75
			],
			"min":[
				-2,
				1.75,
				-7.75
			],
			"type":"VEC3"
		},
		{
			"bufferView":9,
			"componentType":5126,
			"count":176,
			"type":"VEC3"
		},
		{
			"bufferView":10,
			"componentType":5126,
			"count":176,
			"type":"VEC2"
		},
		{
			"bufferView":11,
			"componentType":5123,
			"count":366,
			"type":"SCALAR"
		},
		{
			"bufferView":12,
			"componentType":5126,
			"count":4,
			"max":[
				0.375,
				1.75,
				4
			],
			"min":[
				-0.375,
				1.75,
				-4
			],
			"type":"VEC3"
		},
		{
			"bufferView":13,
			"componentType":5126,
			"count":4,
			"type":"VEC3"
		},
		{
			"bufferView":14,
			"componentType":5126,
			"count":4,
			"type":"VEC2"
		},
		{
			"bufferView":15,
			"componentType":5123,
			"count":6,
			"type":"SCALAR"
		},
		{
			"bufferView":16,
			"componentType":5126,
			"count":34,
			"max":[
				12.25,
				2,
				8
			],
			"min":[
				-12.25,
				2,
				-8
			],
			"type":"VEC3"
		},
		{
			"bufferView":17,
			"componentType":5126,
			"count":34,
			"type":"VEC3"
		},
		{
			"bufferView":18,
			"componentType":5126,
			"count":34,
			"type":"VEC2"
		},
		{
			"bufferView":19,
			"componentType":5123,
			"count":90,
			"type":"SCALAR"
		},
		{
			"bufferView":20,
			"componentType":5126,
			"count":50,
			"max":[
				-11.75,
				2,
				4.75
			],
			"min":[
				-12.75,
				0,
				-4.75
			],
			"type":"VEC3"
		},
		{
			"bufferView":21,
			"componentType":5126,
			"count":50,
			"type":"VEC3"
		},
		{
			"bufferView":22,
			"componentType":5126,
			"count":50,
			"type":"VEC2"
		},
		{
			"bufferView":23,
			"componentType":5123,
			"count":84,
			"type":"SCALAR"
		},
		{
			"bufferView":24,
			"componentType":5126,
			"count":11,
			"max":[
				-11.75,
				1,
				4.25
			],
			"min":[
				-12.75,
				0,
				-4.25
			],
			"type":"VEC3"
		},
		{
			"bufferView":25,
			"componentType":5126,
			"count":11,
			"type":"VEC3"
		},
		{
			"bufferView":26,
			"componentType":5126,
			"count":11,
			"type":"VEC2"
		},
		{
			"bufferView":27,
			"componentType":5123,
			"count":21,
			"type":"SCALAR"
		},
		{
			"bufferView":28,
			"componentType":5126,
			"count":8,
			"max":[
				-11.75,
				2,
				4.75
			],
			"min":[
				-12.75,
				0,
				-4.75
			],
			"type":"VEC3"
		},
		{
			"bufferView":29,
			"componentType":5126,
			"count":8,
			"type":"VEC3"
		},
		{
			"bufferView":30,
			"componentType":5126,
			"count":8,
			"type":"VEC2"
		},
		{
			"bufferView":31,
			"componentType":5123,
			"count":12,
			"type":"SCALAR"
		},
		{
			"bufferView":32,
			"componentType":5126,
			"count":16,
			"max":[
				1.375,
				0,
				1.375
			],
			"min":[
				-1.375,
				0,
				-1.375
			],
			"type":"VEC3"
		},
		{
			"bufferView":33,
			"componentType":5126,
			"count":16,
			"type":"VEC3"
		},
		{
			"bufferView":34,
			"componentType":5126,
			"count":16,
			"type":"VEC2"
		},
		{
			"bufferView":35,
			"componentType":5123,
			"count":42,
			"type":"SCALAR"
		},
		{
			"bufferView":36,
			"componentType":5126,
			"count":145,
			"max":[
				2,
				1,
				2
			],
			"min":[
				-2,
				0,
				-2
			],
			"type":"VEC3"
		},
		{
			"bufferView":37,
			"componentType":5126,
			"count":145,
			"type":"VEC3"
		},
		{
			"bufferView":38,
			"componentType":5126,
			"count":145,
			"type":"VEC2"
		},
		{
			"bufferView":39,
			"componentType":5123,
			"count":243,
			"type":"SCALAR"
		},
		{
			"bufferView":40,
			"componentType":5126,
			"count":48,
			"max":[
				2,
				0.5,
				2
			],
			"min":[
				-2,
				0.5,
				-2
			],
			"type":"VEC3"
		},
		{
			"bufferView":41,
			"componentType":5126,
			"count":48,
			"type":"VEC3"
		},
		{
			"bufferView":42,
			"componentType":5126,
			"count":48,
			"type":"VEC2"
		},
		{
			"bufferView":43,
			"componentType":5123,
			"count":153,
			"type":"SCALAR"
		}
	],
	"bufferViews":[
		{
			"buffer":0,
			"byteLength":144,
			"byteOffset":0,
			"target":34962
		},
		{
			"buffer":0,
			"byteLength":144,
			"byteOffset":144,
			"target":34962
		},
		{
			"buffer":0,
			"byteLength":96,
			"byteOffset":288,
			"target":34962
		},
		{
			"buffer":0,
			"byteLength":48,
			"byteOffset":384,
			"target":34963
		},
		{
			"buffer":0,
			"byteLength":5352,
			"byteOffset":432,
			"target":34962
		},
		{
			"buffer":0,
			"byteLength":5352,
			"byteOffset":5784,
			"target":34962
		},
		{
			"buffer":0,
			"byteLength":3568,
			"byteOffset":11136,
			"target":34962
		},
		{
			"buffer":0,
			"byteLength":1746,
			"byteOffset":14704,
			"target":34963
		},
		{
			"buffer":0,
			"byteLength":2112,
			"byteOffset":16452,
			"target":34962
		},
		{
			"buffer":0,
			"byteLength":2112,
			"byteOffset":18564,
			"target":34962
		},
		{
			"buffer":0,
			"byteLength":1408,
			"byteOffset":20676,
			"target":34962
		},
		{
			"buffer":0,
			"byteLength":732,
			"byteOffset":22084,
			"target":34963
		},
		{
			"buffer":0,
			"byteLength":48,
			"byteOffset":22816,
			"target":34962
		},
		{
			"buffer":0,
			"byteLength":48,
			"byteOffset":22864,
			"target":34962
		},
		{
			"buffer":0,
			"byteLength":32,
			"byteOffset":22912,
			"target":34962
		},
		{
			"buffer":0,
			"byteLength":12,
			"byteOffset":22944,
			"target":34963
		},
		{
			"buffer":0,
			"byteLength":408,
			"byteOffset":22956,
			"target":34962
		},
		{
			"buffer":0,
			"byteLength":408,
			"byteOffset":23364,
			"target":34962
		},
		{
			"buffer":0,
			"byteLength":272,
			"byteOffset":23772,
			"target":34962
		},
		{
			"buffer":0,
			"byteLength":180,
			"byteOffset":24044,
			"target":34963
		},
		{
			"buffer":0,
			"byteLength":600,
			"byteOffset":24224,
			"target":34962
		},
		{
			"buffer":0,
			"byteLength":600,
			"byteOffset":24824,
			"target":34962
		},
		{
			"buffer":0,
			"byteLength":400,
			"byteOffset":25424,
			"target":34962
		},
		{
			"buffer":0,
			"byteLength":168,
			"byteOffset":25824,
			"target":34963
		},
		{
			"buffer":0,
			"byteLength":132,
			"byteOffset":25992,
			"target":34962
		},
		{
			"buffer":0,
			"byteLength":132,
			"byteOffset":26124,
			"target":34962
		},
		{
			"buffer":0,
			"byteLength":88,
			"byteOffset":26256,
			"target":34962
		},
		{
			"buffer":0,
			"byteLength":42,
			"byteOffset":26344,
			"target":34963
		},
		{
			"buffer":0,
			"byteLength":96,
			"byteOffset":26388,
			"target":34962
		},
		{
			"buffer":0,
			"byteLength":96,
			"byteOffset":26484,
			"target":34962
		},
		{
			"buffer":0,
			"byteLength":64,
			"byteOffset":26580,
			"target":34962
		},
		{
			"buffer":0,
			"byteLength":24,
			"byteOffset":26644,
			"target":34963
		},
		{
			"buffer":0,
			"byteLength":192,
			"byteOffset":26668,
			"target":34962
		},
		{
			"buffer":0,
			"byteLength":192,
			"byteOffset":26860,
			"target":34962
		},
		{
			"buffer":0,
			"byteLength":128,
			"byteOffset":27052,
			"target":34962
		},
		{
			"buffer":0,
			"byteLength":84,
			"byteOffset":27180,
			"target":34963
		},
		{
			"buffer":0,
			"byteLength":1740,
			"byteOffset":27264,
			"target":34962
		},
		{
			"buffer":0,
			"byteLength":1740,
			"byteOffset":29004,
			"target":34962
		},
		{
			"buffer":0,
			"byteLength":1160,
			"byteOffset":30744,
			"target":34962
		},
		{
			"buffer":0,
			"byteLength":486,
			"byteOffset":31904,
			"target":34963
		},
		{
			"buffer":0,
			"byteLength":576,
			"byteOffset":32392,
			"target":34962
		},
		{
			"buffer":0,
			"byteLength":576,
			"byteOffset":32968,
			"target":34962
		},
		{
			"buffer":0,
			"byteLength":384,
			"byteOffset":33544,
			"target":34962
		},
		{
			"buffer":0,
			"byteLength":306,
			"byteOffset":33928,
			"target":34963
		}
	],
	"buffers":[
		{
			"byteLength":34236,
			"uri":"pbrdg1.bin"
		}
	]
}
