{
	"asset":{
		"generator":"Khronos glTF Blender I/O v4.5.48",
		"version":"2.0"
	},
	"scene":0,
	"scenes":[
		{
			"name":"Scene",
			"nodes":[
				0
			]
		}
	],
	"nodes":[
		{
			"mesh":0,
			"name":"Object"
		}
	],
	"materials":[
		{
			"doubleSided":true,
			"name":"CP_IFLO01D",
			"pbrMetallicRoughness":{
				"baseColorFactor":[
					0.800000011920929,
					0.800000011920929,
					0.800000011920929,
					1
				],
				"metallicFactor":0,
				"roughnessFactor":0.5
			}
		},
		{
			"doubleSided":true,
			"name":"CP_EWAL01B",
			"pbrMetallicRoughness":{
				"baseColorFactor":[
					0.800000011920929,
					0.800000011920929,
					0.800000011920929,
					1
				],
				"metallicFactor":0,
				"roughnessFactor":0.5
			}
		},
		{
			"doubleSided":true,
			"name":"CP_IFLO02C",
			"pbrMetallicRoughness":{
				"baseColorFactor":[
					0.800000011920929,
					0.800000011920929,
					0.800000011920929,
					1
				],
				"metallicFactor":0,
				"roughnessFactor":0.5
			}
		},
		{
			"doubleSided":true,
			"name":"CP_ILIG01A",
			"pbrMetallicRoughness":{
				"baseColorFactor":[
					0.800000011920929,
					0.800000011920929,
					0.800000011920929,
					1
				],
				"metallicFactor":0,
				"roughnessFactor":0.5
			}
		},
		{
			"doubleSided":true,
			"name":"CP_IBOR02",
			"pbrMetallicRoughness":{
				"baseColorFactor":[
					0.800000011920929,
					0.800000011920929,
					0.800000011920929,
					1
				],
				"metallicFactor":0,
				"roughnessFactor":0.5
			}
		},
		{
			"doubleSided":true,
			"name":"CP_IBOR01",
			"pbrMetallicRoughness":{
				"baseColorFactor":[
					0.800000011920929,
					0.800000011920929,
					0.800000011920929,
					1
				],
				"metallicFactor":0,
				"roughnessFactor":0.5
			}
		},
		{
			"doubleSided":true,
			"name":"CP_IBOR02A",
			"pbrMetallicRoughness":{
				"baseColorFactor":[
					0.800000011920929,
					0.800000011920929,
					0.800000011920929,
					1
				],
				"metallicFactor":0,
				"roughnessFactor":0.5
			}
		},
		{
			"doubleSided":true,
			"name":"CP_ITEC03A",
			"pbrMetallicRoughness":{
				"baseColorFactor":[
					0.800000011920929,
					0.800000011920929,
					0.800000011920929,
					1
				],
				"metallicFactor":0,
				"roughnessFactor":0.5
			}
		},
		{
			"doubleSided":true,
			"name":"CP_ISTRFACE01E",
			"pbrMetallicRoughness":{
				"baseColorFactor":[
					0.800000011920929,
					0.800000011920929,
					0.800000011920929,
					1
				],
				"metallicFactor":0,
				"roughnessFactor":0.5
			}
		},
		{
			"doubleSided":true,
			"name":"CP_ETEC01",
			"pbrMetallicRoughness":{
				"baseColorFactor":[
					0.800000011920929,
					0.800000011920929,
					0.800000011920929,
					1
				],
				"metallicFactor":0,
				"roughnessFactor":0.5
			}
		}
	],
	"meshes":[
		{
			"name":"Mesh",
			"primitives":[
				{
					"attributes":{
						"POSITION":0,
						"NORMAL":1,
						"TEXCOORD_0":2
					},
					"indices":3,
					"material":0
				},
				{
					"attributes":{
						"POSITION":4,
						"NORMAL":5,
						"TEXCOORD_0":6
					},
					"indices":7,
					"material":1
				},
				{
					"attributes":{
						"POSITION":8,
						"NORMAL":9,
						"TEXCOORD_0":10
					},
					"indices":11,
					"material":2
				},
				{
					"attributes":{
						"POSITION":12,
						"NORMAL":13,
						"TEXCOORD_0":14
					},
					"indices":15,
					"material":3
				},
				{
					"attributes":{
						"POSITION":16,
						"NORMAL":17,
						"TEXCOORD_0":18
					},
					"indices":19,
					"material":4
				},
				{
					"attributes":{
						"POSITION":20,
						"NORMAL":21,
						"TEXCOORD_0":22
					},
					"indices":23,
					"material":5
				},
				{
					"attributes":{
						"POSITION":24,
						"NORMAL":25,
						"TEXCOORD_0":26
					},
					"indices":27,
					"material":6
				},
				{
					"attributes":{
						"POSITION":28,
						"NORMAL":29,
						"TEXCOORD_0":30
					},
					"indices":31,
					"material":7
				},
				{
					"attributes":{
						"POSITION":32,
						"NORMAL":33,
						"TEXCOORD_0":34
					},
					"indices":35,
					"material":8
				},
				{
					"attributes":{
						"POSITION":36,
						"NORMAL":37,
						"TEXCOORD_0":38
					},
					"indices":39,
					"material":9
				}
			]
		}
	],
	"accessors":[
		{
			"bufferView":0,
			"componentType":5126,
			"count":8,
			"max":[
				12.25,
				1.75,
				4
			],
			"min":[
				-12.25,
				1.75,
				-4
			],
			"type":"VEC3"
		},
		{
			"bufferView":1,
			"componentType":5126,
			"count":8,
			"type":"VEC3"
		},
		{
			"bufferView":2,
			"componentType":5126,
			"count":8,
			"type":"VEC2"
		},
		{
			"bufferView":3,
			"componentType":5123,
			"count":12,
			"type":"SCALAR"
		},
		{
			"bufferView":4,
			"componentType":5126,
			"count":144,
			"max":[
				12.25,
				2,
				4.25
			],
			"min":[
				-12.75,
				1,
				-4.25
			],
			"type":"VEC3"
		},
		{
			"bufferView":5,
			"componentType":5126,
			"count":144,
			"type":"VEC3"
		},
		{
			"bufferView":6,
			"componentType":5126,
			"count":144,
			"type":"VEC2"
		},
		{
			"bufferView":7,
			"componentType":5123,
			"count":339,
			"type":"SCALAR"
		},
		{
			"bufferView":8,
			"componentType":5126,
			"count":12,
			"max":[
				0.3125,
				2,
				4
			],
			"min":[
				-0.375,
				1.75,
				-4
			],
			"type":"VEC3"
		},
		{
			"bufferView":9,
			"componentType":5126,
			"count":12,
			"type":"VEC3"
		},
		{
			"bufferView":10,
			"componentType":5126,
			"count":12,
			"type":"VEC2"
		},
		{
			"bufferView":11,
			"componentType":5123,
			"count":18,
			"type":"SCALAR"
		},
		{
			"bufferView":12,
			"componentType":5126,
			"count":18,
			"max":[
				12.25,
				2,
				4.25
			],
			"min":[
				-12.25,
				2,
				-4.25
			],
			"type":"VEC3"
		},
		{
			"bufferView":13,
			"componentType":5126,
			"count":18,
			"type":"VEC3"
		},
		{
			"bufferView":14,
			"componentType":5126,
			"count":18,
			"type":"VEC2"
		},
		{
			"bufferView":15,
			"componentType":5123,
			"count":42,
			"type":"SCALAR"
		},
		{
			"bufferView":16,
			"componentType":5126,
			"count":12,
			"max":[
				-11.75,
				0,
				4.75
			],
			"min":[
				-12.75,
				0,
				-4.75
			],
			"type":"VEC3"
		},
		{
			"bufferView":17,
			"componentType":5126,
			"count":12,
			"type":"VEC3"
		},
		{
			"bufferView":18,
			"componentType":5126,
			"count":12,
			"type":"VEC2"
		},
		{
			"bufferView":19,
			"componentType":5123,
			"count":18,
			"type":"SCALAR"
		},
		{
			"bufferView":20,
			"componentType":5126,
			"count":19,
			"max":[
				-11.75,
				2,
				4.75
			],
			"min":[
				-12.75,
				0,
				-4.75
			],
			"type":"VEC3"
		},
		{
			"bufferView":21,
			"componentType":5126,
			"count":19,
			"type":"VEC3"
		},
		{
			"bufferView":22,
			"componentType":5126,
			"count":19,
			"type":"VEC2"
		},
		{
			"bufferView":23,
			"componentType":5123,
			"count":39,
			"type":"SCALAR"
		},
		{
			"bufferView":24,
			"componentType":5126,
			"count":36,
			"max":[
				-11.75,
				2,
				4.75
			],
			"min":[
				-12.75,
				0,
				-4.75
			],
			"type":"VEC3"
		},
		{
			"bufferView":25,
			"componentType":5126,
			"count":36,
			"type":"VEC3"
		},
		{
			"bufferView":26,
			"componentType":5126,
			"count":36,
			"type":"VEC2"
		},
		{
			"bufferView":27,
			"componentType":5123,
			"count":60,
			"type":"SCALAR"
		},
		{
			"bufferView":28,
			"componentType":5126,
			"count":16,
			"max":[
				1.375,
				0,
				1.375
			],
			"min":[
				-1.375,
				0,
				-1.375
			],
			"type":"VEC3"
		},
		{
			"bufferView":29,
			"componentType":5126,
			"count":16,
			"type":"VEC3"
		},
		{
			"bufferView":30,
			"componentType":5126,
			"count":16,
			"type":"VEC2"
		},
		{
			"bufferView":31,
			"componentType":5123,
			"count":42,
			"type":"SCALAR"
		},
		{
			"bufferView":32,
			"componentType":5126,
			"count":145,
			"max":[
				2,
				1,
				2
			],
			"min":[
				-2,
				0,
				-2
			],
			"type":"VEC3"
		},
		{
			"bufferView":33,
			"componentType":5126,
			"count":145,
			"type":"VEC3"
		},
		{
			"bufferView":34,
			"componentType":5126,
			"count":145,
			"type":"VEC2"
		},
		{
			"bufferView":35,
			"componentType":5123,
			"count":243,
			"type":"SCALAR"
		},
		{
			"bufferView":36,
			"componentType":5126,
			"count":48,
			"max":[
				2,
				0.5,
				2
			],
			"min":[
				-2,
				0.5,
				-2
			],
			"type":"VEC3"
		},
		{
			"bufferView":37,
			"componentType":5126,
			"count":48,
			"type":"VEC3"
		},
		{
			"bufferView":38,
			"componentType":5126,
			"count":48,
			"type":"VEC2"
		},
		{
			"bufferView":39,
			"componentType":5123,
			"count":153,
			"type":"SCALAR"
		}
	],
	"bufferViews":[
		{
			"buffer":0,
			"byteLength":96,
			"byteOffset":0,
			"target":34962
		},
		{
			"buffer":0,
			"byteLength":96,
			"byteOffset":96,
			"target":34962
		},
		{
			"buffer":0,
			"byteLength":64,
			"byteOffset":192,
			"target":34962
		},
		{
			"buffer":0,
			"byteLength":24,
			"byteOffset":256,
			"target":34963
		},
		{
			"buffer":0,
			"byteLength":1728,
			"byteOffset":280,
			"target":34962
		},
		{
			"buffer":0,
			"byteLength":1728,
			"byteOffset":2008,
			"target":34962
		},
		{
			"buffer":0,
			"byteLength":1152,
			"byteOffset":3736,
			"target":34962
		},
		{
			"buffer":0,
			"byteLength":678,
			"byteOffset":4888,
			"target":34963
		},
		{
			"buffer":0,
			"byteLength":144,
			"byteOffset":5568,
			"target":34962
		},
		{
			"buffer":0,
			"byteLength":144,
			"byteOffset":5712,
			"target":34962
		},
		{
			"buffer":0,
			"byteLength":96,
			"byteOffset":5856,
			"target":34962
		},
		{
			"buffer":0,
			"byteLength":36,
			"byteOffset":5952,
			"target":34963
		},
		{
			"buffer":0,
			"byteLength":216,
			"byteOffset":5988,
			"target":34962
		},
		{
			"buffer":0,
			"byteLength":216,
			"byteOffset":6204,
			"target":34962
		},
		{
			"buffer":0,
			"byteLength":144,
			"byteOffset":6420,
			"target":34962
		},
		{
			"buffer":0,
			"byteLength":84,
			"byteOffset":6564,
			"target":34963
		},
		{
			"buffer":0,
			"byteLength":144,
			"byteOffset":6648,
			"target":34962
		},
		{
			"buffer":0,
			"byteLength":144,
			"byteOffset":6792,
			"target":34962
		},
		{
			"buffer":0,
			"byteLength":96,
			"byteOffset":6936,
			"target":34962
		},
		{
			"buffer":0,
			"byteLength":36,
			"byteOffset":7032,
			"target":34963
		},
		{
			"buffer":0,
			"byteLength":228,
			"byteOffset":7068,
			"target":34962
		},
		{
			"buffer":0,
			"byteLength":228,
			"byteOffset":7296,
			"target":34962
		},
		{
			"buffer":0,
			"byteLength":152,
			"byteOffset":7524,
			"target":34962
		},
		{
			"buffer":0,
			"byteLength":78,
			"byteOffset":7676,
			"target":34963
		},
		{
			"buffer":0,
			"byteLength":432,
			"byteOffset":7756,
			"target":34962
		},
		{
			"buffer":0,
			"byteLength":432,
			"byteOffset":8188,
			"target":34962
		},
		{
			"buffer":0,
			"byteLength":288,
			"byteOffset":8620,
			"target":34962
		},
		{
			"buffer":0,
			"byteLength":120,
			"byteOffset":8908,
			"target":34963
		},
		{
			"buffer":0,
			"byteLength":192,
			"byteOffset":9028,
			"target":34962
		},
		{
			"buffer":0,
			"byteLength":192,
			"byteOffset":9220,
			"target":34962
		},
		{
			"buffer":0,
			"byteLength":128,
			"byteOffset":9412,
			"target":34962
		},
		{
			"buffer":0,
			"byteLength":84,
			"byteOffset":9540,
			"target":34963
		},
		{
			"buffer":0,
			"byteLength":1740,
			"byteOffset":9624,
			"target":34962
		},
		{
			"buffer":0,
			"byteLength":1740,
			"byteOffset":11364,
			"target":34962
		},
		{
			"buffer":0,
			"byteLength":1160,
			"byteOffset":13104,
			"target":34962
		},
		{
			"buffer":0,
			"byteLength":486,
			"byteOffset":14264,
			"target":34963
		},
		{
			"buffer":0,
			"byteLength":576,
			"byteOffset":14752,
			"target":34962
		},
		{
			"buffer":0,
			"byteLength":576,
			"byteOffset":15328,
			"target":34962
		},
		{
			"buffer":0,
			"byteLength":384,
			"byteOffset":15904,
			"target":34962
		},
		{
			"buffer":0,
			"byteLength":306,
			"byteOffset":16288,
			"target":34963
		}
	],
	"buffers":[
		{
			"byteLength":16596,
			"uri":"pbrdg4.bin"
		}
	]
}
