{
	"asset":{
		"generator":"Khronos glTF Blender I/O v4.5.48",
		"version":"2.0"
	},
	"scene":0,
	"scenes":[
		{
			"name":"Scene",
			"nodes":[
				0
			]
		}
	],
	"nodes":[
		{
			"mesh":0,
			"name":"Object"
		}
	],
	"materials":[
		{
			"doubleSided":true,
			"name":"CP_IFLO01D",
			"pbrMetallicRoughness":{
				"baseColorFactor":[
					0.800000011920929,
					0.800000011920929,
					0.800000011920929,
					1
				],
				"metallicFactor":0,
				"roughnessFactor":0.5
			}
		},
		{
			"doubleSided":true,
			"name":"CP_EWAL01B",
			"pbrMetallicRoughness":{
				"baseColorFactor":[
					0.800000011920929,
					0.800000011920929,
					0.800000011920929,
					1
				],
				"metallicFactor":0,
				"roughnessFactor":0.5
			}
		},
		{
			"doubleSided":true,
			"name":"CP_ILIG01A",
			"pbrMetallicRoughness":{
				"baseColorFactor":[
					0.800000011920929,
					0.800000011920929,
					0.800000011920929,
					1
				],
				"metallicFactor":0,
				"roughnessFactor":0.5
			}
		},
		{
			"doubleSided":true,
			"name":"CP_IBOR02",
			"pbrMetallicRoughness":{
				"baseColorFactor":[
					0.800000011920929,
					0.800000011920929,
					0.800000011920929,
					1
				],
				"metallicFactor":0,
				"roughnessFactor":0.5
			}
		},
		{
			"doubleSided":true,
			"name":"CP_IBOR01",
			"pbrMetallicRoughness":{
				"baseColorFactor":[
					0.800000011920929,
					0.800000011920929,
					0.800000011920929,
					1
				],
				"metallicFactor":0,
				"roughnessFactor":0.5
			}
		},
		{
			"doubleSided":true,
			"name":"CP_IBOR02A",
			"pbrMetallicRoughness":{
				"baseColorFactor":[
					0.800000011920929,
					0.800000011920929,
					0.800000011920929,
					1
				],
				"metallicFactor":0,
				"roughnessFactor":0.5
			}
		},
		{
			"doubleSided":true,
			"name":"CP_ITEC03A",
			"pbrMetallicRoughness":{
				"baseColorFactor":[
					0.800000011920929,
					0.800000011920929,
					0.800000011920929,
					1
				],
				"metallicFactor":0,
				"roughnessFactor":0.5
			}
		},
		{
			"doubleSided":true,
			"name":"CP_ISTRFACE01E",
			"pbrMetallicRoughness":{
				"baseColorFactor":[
					0.800000011920929,
					0.800000011920929,
					0.800000011920929,
					1
				],
				"metallicFactor":0,
				"roughnessFactor":0.5
			}
		},
		{
			"doubleSided":true,
			"name":"CP_ETEC01",
			"pbrMetallicRoughness":{
				"baseColorFactor":[
					0.800000011920929,
					0.800000011920929,
					0.800000011920929,
					1
				],
				"metallicFactor":0,
				"roughnessFactor":0.5
			}
		}
	],
	"meshes":[
		{
			"name":"Mesh",
			"primitives":[
				{
					"attributes":{
						"POSITION":0,
						"NORMAL":1,
						"TEXCOORD_0":2
					},
					"indices":3,
					"material":0
				},
				{
					"attributes":{
						"POSITION":4,
						"NORMAL":5,
						"TEXCOORD_0":6
					},
					"indices":7,
					"material":1
				},
				{
					"attributes":{
						"POSITION":8,
						"NORMAL":9,
						"TEXCOORD_0":10
					},
					"indices":11,
					"material":2
				},
				{
					"attributes":{
						"POSITION":12,
						"NORMAL":13,
						"TEXCOORD_0":14
					},
					"indices":15,
					"material":3
				},
				{
					"attributes":{
						"POSITION":16,
						"NORMAL":17,
						"TEXCOORD_0":18
					},
					"indices":19,
					"material":4
				},
				{
					"attributes":{
						"POSITION":20,
						"NORMAL":21,
						"TEXCOORD_0":22
					},
					"indices":23,
					"material":5
				},
				{
					"attributes":{
						"POSITION":24,
						"NORMAL":25,
						"TEXCOORD_0":26
					},
					"indices":27,
					"material":6
				},
				{
					"attributes":{
						"POSITION":28,
						"NORMAL":29,
						"TEXCOORD_0":30
					},
					"indices":31,
					"material":7
				},
				{
					"attributes":{
						"POSITION":32,
						"NORMAL":33,
						"TEXCOORD_0":34
					},
					"indices":35,
					"material":8
				}
			]
		}
	],
	"accessors":[
		{
			"bufferView":0,
			"componentType":5126,
			"count":20,
			"max":[
				8,
				1.75,
				8
			],
			"min":[
				-8,
				1.75,
				-8
			],
			"type":"VEC3"
		},
		{
			"bufferView":1,
			"componentType":5126,
			"count":20,
			"type":"VEC3"
		},
		{
			"bufferView":2,
			"componentType":5126,
			"count":20,
			"type":"VEC2"
		},
		{
			"bufferView":3,
			"componentType":5123,
			"count":42,
			"type":"SCALAR"
		},
		{
			"bufferView":4,
			"componentType":5126,
			"count":242,
			"max":[
				8,
				2,
				8
			],
			"min":[
				-8.5,
				1,
				-8.5
			],
			"type":"VEC3"
		},
		{
			"bufferView":5,
			"componentType":5126,
			"count":242,
			"type":"VEC3"
		},
		{
			"bufferView":6,
			"componentType":5126,
			"count":242,
			"type":"VEC2"
		},
		{
			"bufferView":7,
			"componentType":5123,
			"count":510,
			"type":"SCALAR"
		},
		{
			"bufferView":8,
			"componentType":5126,
			"count":41,
			"max":[
				8,
				2,
				8
			],
			"min":[
				-8,
				2,
				-8
			],
			"type":"VEC3"
		},
		{
			"bufferView":9,
			"componentType":5126,
			"count":41,
			"type":"VEC3"
		},
		{
			"bufferView":10,
			"componentType":5126,
			"count":41,
			"type":"VEC2"
		},
		{
			"bufferView":11,
			"componentType":5123,
			"count":75,
			"type":"SCALAR"
		},
		{
			"bufferView":12,
			"componentType":5126,
			"count":100,
			"max":[
				4.875,
				2,
				4.75
			],
			"min":[
				-8.5,
				0,
				-8.5
			],
			"type":"VEC3"
		},
		{
			"bufferView":13,
			"componentType":5126,
			"count":100,
			"type":"VEC3"
		},
		{
			"bufferView":14,
			"componentType":5126,
			"count":100,
			"type":"VEC2"
		},
		{
			"bufferView":15,
			"componentType":5123,
			"count":174,
			"type":"SCALAR"
		},
		{
			"bufferView":16,
			"componentType":5126,
			"count":22,
			"max":[
				4.375,
				1,
				4.25
			],
			"min":[
				-8.5,
				0,
				-8.5
			],
			"type":"VEC3"
		},
		{
			"bufferView":17,
			"componentType":5126,
			"count":22,
			"type":"VEC3"
		},
		{
			"bufferView":18,
			"componentType":5126,
			"count":22,
			"type":"VEC2"
		},
		{
			"bufferView":19,
			"componentType":5123,
			"count":42,
			"type":"SCALAR"
		},
		{
			"bufferView":20,
			"componentType":5126,
			"count":17,
			"max":[
				4.875,
				2,
				4.75
			],
			"min":[
				-8.5,
				0,
				-8.5
			],
			"type":"VEC3"
		},
		{
			"bufferView":21,
			"componentType":5126,
			"count":17,
			"type":"VEC3"
		},
		{
			"bufferView":22,
			"componentType":5126,
			"count":17,
			"type":"VEC2"
		},
		{
			"bufferView":23,
			"componentType":5123,
			"count":27,
			"type":"SCALAR"
		},
		{
			"bufferView":24,
			"componentType":5126,
			"count":16,
			"max":[
				1.375,
				0,
				1.375
			],
			"min":[
				-1.375,
				0,
				-1.375
			],
			"type":"VEC3"
		},
		{
			"bufferView":25,
			"componentType":5126,
			"count":16,
			"type":"VEC3"
		},
		{
			"bufferView":26,
			"componentType":5126,
			"count":16,
			"type":"VEC2"
		},
		{
			"bufferView":27,
			"componentType":5123,
			"count":42,
			"type":"SCALAR"
		},
		{
			"bufferView":28,
			"componentType":5126,
			"count":141,
			"max":[
				2,
				1,
				2
			],
			"min":[
				-2,
				0,
				-2
			],
			"type":"VEC3"
		},
		{
			"bufferView":29,
			"componentType":5126,
			"count":141,
			"type":"VEC3"
		},
		{
			"bufferView":30,
			"componentType":5126,
			"count":141,
			"type":"VEC2"
		},
		{
			"bufferView":31,
			"componentType":5123,
			"count":231,
			"type":"SCALAR"
		},
		{
			"bufferView":32,
			"componentType":5126,
			"count":48,
			"max":[
				2,
				0.5,
				2
			],
			"min":[
				-2,
				0.5,
				-2
			],
			"type":"VEC3"
		},
		{
			"bufferView":33,
			"componentType":5126,
			"count":48,
			"type":"VEC3"
		},
		{
			"bufferView":34,
			"componentType":5126,
			"count":48,
			"type":"VEC2"
		},
		{
			"bufferView":35,
			"componentType":5123,
			"count":153,
			"type":"SCALAR"
		}
	],
	"bufferViews":[
		{
			"buffer":0,
			"byteLength":240,
			"byteOffset":0,
			"target":34962
		},
		{
			"buffer":0,
			"byteLength":240,
			"byteOffset":240,
			"target":34962
		},
		{
			"buffer":0,
			"byteLength":160,
			"byteOffset":480,
			"target":34962
		},
		{
			"buffer":0,
			"byteLength":84,
			"byteOffset":640,
			"target":34963
		},
		{
			"buffer":0,
			"byteLength":2904,
			"byteOffset":724,
			"target":34962
		},
		{
			"buffer":0,
			"byteLength":2904,
			"byteOffset":3628,
			"target":34962
		},
		{
			"buffer":0,
			"byteLength":1936,
			"byteOffset":6532,
			"target":34962
		},
		{
			"buffer":0,
			"byteLength":1020,
			"byteOffset":8468,
			"target":34963
		},
		{
			"buffer":0,
			"byteLength":492,
			"byteOffset":9488,
			"target":34962
		},
		{
			"buffer":0,
			"byteLength":492,
			"byteOffset":9980,
			"target":34962
		},
		{
			"buffer":0,
			"byteLength":328,
			"byteOffset":10472,
			"target":34962
		},
		{
			"buffer":0,
			"byteLength":150,
			"byteOffset":10800,
			"target":34963
		},
		{
			"buffer":0,
			"byteLength":1200,
			"byteOffset":10952,
			"target":34962
		},
		{
			"buffer":0,
			"byteLength":1200,
			"byteOffset":12152,
			"target":34962
		},
		{
			"buffer":0,
			"byteLength":800,
			"byteOffset":13352,
			"target":34962
		},
		{
			"buffer":0,
			"byteLength":348,
			"byteOffset":14152,
			"target":34963
		},
		{
			"buffer":0,
			"byteLength":264,
			"byteOffset":14500,
			"target":34962
		},
		{
			"buffer":0,
			"byteLength":264,
			"byteOffset":14764,
			"target":34962
		},
		{
			"buffer":0,
			"byteLength":176,
			"byteOffset":15028,
			"target":34962
		},
		{
			"buffer":0,
			"byteLength":84,
			"byteOffset":15204,
			"target":34963
		},
		{
			"buffer":0,
			"byteLength":204,
			"byteOffset":15288,
			"target":34962
		},
		{
			"buffer":0,
			"byteLength":204,
			"byteOffset":15492,
			"target":34962
		},
		{
			"buffer":0,
			"byteLength":136,
			"byteOffset":15696,
			"target":34962
		},
		{
			"buffer":0,
			"byteLength":54,
			"byteOffset":15832,
			"target":34963
		},
		{
			"buffer":0,
			"byteLength":192,
			"byteOffset":15888,
			"target":34962
		},
		{
			"buffer":0,
			"byteLength":192,
			"byteOffset":16080,
			"target":34962
		},
		{
			"buffer":0,
			"byteLength":128,
			"byteOffset":16272,
			"target":34962
		},
		{
			"buffer":0,
			"byteLength":84,
			"byteOffset":16400,
			"target":34963
		},
		{
			"buffer":0,
			"byteLength":1692,
			"byteOffset":16484,
			"target":34962
		},
		{
			"buffer":0,
			"byteLength":1692,
			"byteOffset":18176,
			"target":34962
		},
		{
			"buffer":0,
			"byteLength":1128,
			"byteOffset":19868,
			"target":34962
		},
		{
			"buffer":0,
			"byteLength":462,
			"byteOffset":20996,
			"target":34963
		},
		{
			"buffer":0,
			"byteLength":576,
			"byteOffset":21460,
			"target":34962
		},
		{
			"buffer":0,
			"byteLength":576,
			"byteOffset":22036,
			"target":34962
		},
		{
			"buffer":0,
			"byteLength":384,
			"byteOffset":22612,
			"target":34962
		},
		{
			"buffer":0,
			"byteLength":306,
			"byteOffset":22996,
			"target":34963
		}
	],
	"buffers":[
		{
			"byteLength":23304,
			"uri":"pbrdg2.bin"
		}
	]
}
