{
	"asset":{
		"generator":"Khronos glTF Blender I/O v4.5.48",
		"version":"2.0"
	},
	"scene":0,
	"scenes":[
		{
			"name":"Scene",
			"nodes":[
				0
			]
		}
	],
	"nodes":[
		{
			"mesh":0,
			"name":"Object"
		}
	],
	"materials":[
		{
			"doubleSided":true,
			"name":"CP_IFLO01D",
			"pbrMetallicRoughness":{
				"baseColorFactor":[
					0.800000011920929,
					0.800000011920929,
					0.800000011920929,
					1
				],
				"metallicFactor":0,
				"roughnessFactor":0.5
			}
		},
		{
			"doubleSided":true,
			"name":"CP_EWAL01B",
			"pbrMetallicRoughness":{
				"baseColorFactor":[
					0.800000011920929,
					0.800000011920929,
					0.800000011920929,
					1
				],
				"metallicFactor":0,
				"roughnessFactor":0.5
			}
		},
		{
			"doubleSided":true,
			"name":"CP_ITECWAL01A",
			"pbrMetallicRoughness":{
				"baseColorFactor":[
					0.800000011920929,
					0.800000011920929,
					0.800000011920929,
					1
				],
				"metallicFactor":0,
				"roughnessFactor":0.5
			}
		},
		{
			"doubleSided":true,
			"name":"CP_IFLO02A",
			"pbrMetallicRoughness":{
				"baseColorFactor":[
					0.800000011920929,
					0.800000011920929,
					0.800000011920929,
					1
				],
				"metallicFactor":0,
				"roughnessFactor":0.5
			}
		},
		{
			"doubleSided":true,
			"name":"CP_IBOR01",
			"pbrMetallicRoughness":{
				"baseColorFactor":[
					0.800000011920929,
					0.800000011920929,
					0.800000011920929,
					1
				],
				"metallicFactor":0,
				"roughnessFactor":0.5
			}
		},
		{
			"doubleSided":true,
			"name":"CP_ISTRFACE01C",
			"pbrMetallicRoughness":{
				"baseColorFactor":[
					0.800000011920929,
					0.800000011920929,
					0.800000011920929,
					1
				],
				"metallicFactor":0,
				"roughnessFactor":0.5
			}
		},
		{
			"doubleSided":true,
			"name":"CP_ILIG01A",
			"pbrMetallicRoughness":{
				"baseColorFactor":[
					0.800000011920929,
					0.800000011920929,
					0.800000011920929,
					1
				],
				"metallicFactor":0,
				"roughnessFactor":0.5
			}
		},
		{
			"doubleSided":true,
			"name":"CP_IBOR01A",
			"pbrMetallicRoughness":{
				"baseColorFactor":[
					0.800000011920929,
					0.800000011920929,
					0.800000011920929,
					1
				],
				"metallicFactor":0,
				"roughnessFactor":0.5
			}
		}
	],
	"meshes":[
		{
			"name":"Mesh",
			"primitives":[
				{
					"attributes":{
						"POSITION":0,
						"NORMAL":1,
						"TEXCOORD_0":2
					},
					"indices":3,
					"material":0
				},
				{
					"attributes":{
						"POSITION":4,
						"NORMAL":5,
						"TEXCOORD_0":6
					},
					"indices":7,
					"material":1
				},
				{
					"attributes":{
						"POSITION":8,
						"NORMAL":9,
						"TEXCOORD_0":10
					},
					"indices":11,
					"material":2
				},
				{
					"attributes":{
						"POSITION":12,
						"NORMAL":13,
						"TEXCOORD_0":14
					},
					"indices":15,
					"material":3
				},
				{
					"attributes":{
						"POSITION":16,
						"NORMAL":17,
						"TEXCOORD_0":18
					},
					"indices":19,
					"material":4
				},
				{
					"attributes":{
						"POSITION":20,
						"NORMAL":21,
						"TEXCOORD_0":22
					},
					"indices":23,
					"material":5
				},
				{
					"attributes":{
						"POSITION":24,
						"NORMAL":25,
						"TEXCOORD_0":26
					},
					"indices":27,
					"material":6
				},
				{
					"attributes":{
						"POSITION":28,
						"NORMAL":29,
						"TEXCOORD_0":30
					},
					"indices":31,
					"material":7
				}
			]
		}
	],
	"accessors":[
		{
			"bufferView":0,
			"componentType":5126,
			"count":24,
			"max":[
				18,
				8,
				9.75
			],
			"min":[
				-6,
				1.75,
				-9.75
			],
			"type":"VEC3"
		},
		{
			"bufferView":1,
			"componentType":5126,
			"count":24,
			"type":"VEC3"
		},
		{
			"bufferView":2,
			"componentType":5126,
			"count":24,
			"type":"VEC2"
		},
		{
			"bufferView":3,
			"componentType":5123,
			"count":54,
			"type":"SCALAR"
		},
		{
			"bufferView":4,
			"componentType":5126,
			"count":260,
			"max":[
				18,
				8,
				9.75
			],
			"min":[
				-6,
				-5.5,
				-9.75
			],
			"type":"VEC3"
		},
		{
			"bufferView":5,
			"componentType":5126,
			"count":260,
			"type":"VEC3"
		},
		{
			"bufferView":6,
			"componentType":5126,
			"count":260,
			"type":"VEC2"
		},
		{
			"bufferView":7,
			"componentType":5123,
			"count":486,
			"type":"SCALAR"
		},
		{
			"bufferView":8,
			"componentType":5126,
			"count":118,
			"max":[
				18,
				1.75,
				11.875
			],
			"min":[
				-6,
				0,
				-11.875
			],
			"type":"VEC3"
		},
		{
			"bufferView":9,
			"componentType":5126,
			"count":118,
			"type":"VEC3"
		},
		{
			"bufferView":10,
			"componentType":5126,
			"count":118,
			"type":"VEC2"
		},
		{
			"bufferView":11,
			"componentType":5123,
			"count":186,
			"type":"SCALAR"
		},
		{
			"bufferView":12,
			"componentType":5126,
			"count":208,
			"max":[
				17.5,
				2,
				11.875
			],
			"min":[
				-2.5,
				1.75,
				-11.875
			],
			"type":"VEC3"
		},
		{
			"bufferView":13,
			"componentType":5126,
			"count":208,
			"type":"VEC3"
		},
		{
			"bufferView":14,
			"componentType":5126,
			"count":208,
			"type":"VEC2"
		},
		{
			"bufferView":15,
			"componentType":5123,
			"count":216,
			"type":"SCALAR"
		},
		{
			"bufferView":16,
			"componentType":5126,
			"count":12,
			"max":[
				18,
				2.75,
				8.25
			],
			"min":[
				-2.5,
				-0.25,
				-8.25
			],
			"type":"VEC3"
		},
		{
			"bufferView":17,
			"componentType":5126,
			"count":12,
			"type":"VEC3"
		},
		{
			"bufferView":18,
			"componentType":5126,
			"count":12,
			"type":"VEC2"
		},
		{
			"bufferView":19,
			"componentType":5123,
			"count":18,
			"type":"SCALAR"
		},
		{
			"bufferView":20,
			"componentType":5126,
			"count":8,
			"max":[
				18,
				0.25,
				0.5
			],
			"min":[
				-2.5,
				-0.25,
				-0.5
			],
			"type":"VEC3"
		},
		{
			"bufferView":21,
			"componentType":5126,
			"count":8,
			"type":"VEC3"
		},
		{
			"bufferView":22,
			"componentType":5126,
			"count":8,
			"type":"VEC2"
		},
		{
			"bufferView":23,
			"componentType":5123,
			"count":12,
			"type":"SCALAR"
		},
		{
			"bufferView":24,
			"componentType":5126,
			"count":32,
			"max":[
				18,
				2.75,
				8.25
			],
			"min":[
				-6,
				2.75,
				-8.25
			],
			"type":"VEC3"
		},
		{
			"bufferView":25,
			"componentType":5126,
			"count":32,
			"type":"VEC3"
		},
		{
			"bufferView":26,
			"componentType":5126,
			"count":32,
			"type":"VEC2"
		},
		{
			"bufferView":27,
			"componentType":5123,
			"count":48,
			"type":"SCALAR"
		},
		{
			"bufferView":28,
			"componentType":5126,
			"count":24,
			"max":[
				18,
				2.75,
				8.25
			],
			"min":[
				-6,
				1.75,
				-8.25
			],
			"type":"VEC3"
		},
		{
			"bufferView":29,
			"componentType":5126,
			"count":24,
			"type":"VEC3"
		},
		{
			"bufferView":30,
			"componentType":5126,
			"count":24,
			"type":"VEC2"
		},
		{
			"bufferView":31,
			"componentType":5123,
			"count":36,
			"type":"SCALAR"
		}
	],
	"bufferViews":[
		{
			"buffer":0,
			"byteLength":288,
			"byteOffset":0,
			"target":34962
		},
		{
			"buffer":0,
			"byteLength":288,
			"byteOffset":288,
			"target":34962
		},
		{
			"buffer":0,
			"byteLength":192,
			"byteOffset":576,
			"target":34962
		},
		{
			"buffer":0,
			"byteLength":108,
			"byteOffset":768,
			"target":34963
		},
		{
			"buffer":0,
			"byteLength":3120,
			"byteOffset":876,
			"target":34962
		},
		{
			"buffer":0,
			"byteLength":3120,
			"byteOffset":3996,
			"target":34962
		},
		{
			"buffer":0,
			"byteLength":2080,
			"byteOffset":7116,
			"target":34962
		},
		{
			"buffer":0,
			"byteLength":972,
			"byteOffset":9196,
			"target":34963
		},
		{
			"buffer":0,
			"byteLength":1416,
			"byteOffset":10168,
			"target":34962
		},
		{
			"buffer":0,
			"byteLength":1416,
			"byteOffset":11584,
			"target":34962
		},
		{
			"buffer":0,
			"byteLength":944,
			"byteOffset":13000,
			"target":34962
		},
		{
			"buffer":0,
			"byteLength":372,
			"byteOffset":13944,
			"target":34963
		},
		{
			"buffer":0,
			"byteLength":2496,
			"byteOffset":14316,
			"target":34962
		},
		{
			"buffer":0,
			"byteLength":2496,
			"byteOffset":16812,
			"target":34962
		},
		{
			"buffer":0,
			"byteLength":1664,
			"byteOffset":19308,
			"target":34962
		},
		{
			"buffer":0,
			"byteLength":432,
			"byteOffset":20972,
			"target":34963
		},
		{
			"buffer":0,
			"byteLength":144,
			"byteOffset":21404,
			"target":34962
		},
		{
			"buffer":0,
			"byteLength":144,
			"byteOffset":21548,
			"target":34962
		},
		{
			"buffer":0,
			"byteLength":96,
			"byteOffset":21692,
			"target":34962
		},
		{
			"buffer":0,
			"byteLength":36,
			"byteOffset":21788,
			"target":34963
		},
		{
			"buffer":0,
			"byteLength":96,
			"byteOffset":21824,
			"target":34962
		},
		{
			"buffer":0,
			"byteLength":96,
			"byteOffset":21920,
			"target":34962
		},
		{
			"buffer":0,
			"byteLength":64,
			"byteOffset":22016,
			"target":34962
		},
		{
			"buffer":0,
			"byteLength":24,
			"byteOffset":22080,
			"target":34963
		},
		{
			"buffer":0,
			"byteLength":384,
			"byteOffset":22104,
			"target":34962
		},
		{
			"buffer":0,
			"byteLength":384,
			"byteOffset":22488,
			"target":34962
		},
		{
			"buffer":0,
			"byteLength":256,
			"byteOffset":22872,
			"target":34962
		},
		{
			"buffer":0,
			"byteLength":96,
			"byteOffset":23128,
			"target":34963
		},
		{
			"buffer":0,
			"byteLength":288,
			"byteOffset":23224,
			"target":34962
		},
		{
			"buffer":0,
			"byteLength":288,
			"byteOffset":23512,
			"target":34962
		},
		{
			"buffer":0,
			"byteLength":192,
			"byteOffset":23800,
			"target":34962
		},
		{
			"buffer":0,
			"byteLength":72,
			"byteOffset":23992,
			"target":34963
		}
	],
	"buffers":[
		{
			"byteLength":24064,
			"uri":"pbrdgn.bin"
		}
	]
}
