{
	"asset":{
		"generator":"Khronos glTF Blender I/O v4.5.48",
		"version":"2.0"
	},
	"scene":0,
	"scenes":[
		{
			"name":"Scene",
			"nodes":[
				0
			]
		}
	],
	"nodes":[
		{
			"mesh":0,
			"name":"Object"
		}
	],
	"materials":[
		{
			"doubleSided":true,
			"name":"CP_IFLO01D",
			"pbrMetallicRoughness":{
				"baseColorFactor":[
					0.800000011920929,
					0.800000011920929,
					0.800000011920929,
					1
				],
				"metallicFactor":0,
				"roughnessFactor":0.5
			}
		},
		{
			"doubleSided":true,
			"name":"CP_EWAL01B",
			"pbrMetallicRoughness":{
				"baseColorFactor":[
					0.800000011920929,
					0.800000011920929,
					0.800000011920929,
					1
				],
				"metallicFactor":0,
				"roughnessFactor":0.5
			}
		},
		{
			"doubleSided":true,
			"name":"CP_ITECWAL01A",
			"pbrMetallicRoughness":{
				"baseColorFactor":[
					0.800000011920929,
					0.800000011920929,
					0.800000011920929,
					1
				],
				"metallicFactor":0,
				"roughnessFactor":0.5
			}
		},
		{
			"doubleSided":true,
			"name":"CP_ILIG01A",
			"pbrMetallicRoughness":{
				"baseColorFactor":[
					0.800000011920929,
					0.800000011920929,
					0.800000011920929,
					1
				],
				"metallicFactor":0,
				"roughnessFactor":0.5
			}
		},
		{
			"doubleSided":true,
			"name":"CP_IBOR01",
			"pbrMetallicRoughness":{
				"baseColorFactor":[
					0.800000011920929,
					0.800000011920929,
					0.800000011920929,
					1
				],
				"metallicFactor":0,
				"roughnessFactor":0.5
			}
		},
		{
			"doubleSided":true,
			"name":"CP_IBOR01A",
			"pbrMetallicRoughness":{
				"baseColorFactor":[
					0.800000011920929,
					0.800000011920929,
					0.800000011920929,
					1
				],
				"metallicFactor":0,
				"roughnessFactor":0.5
			}
		},
		{
			"doubleSided":true,
			"name":"CP_IBOR02",
			"pbrMetallicRoughness":{
				"baseColorFactor":[
					0.800000011920929,
					0.800000011920929,
					0.800000011920929,
					1
				],
				"metallicFactor":0,
				"roughnessFactor":0.5
			}
		},
		{
			"doubleSided":true,
			"name":"CP_IBOR02A",
			"pbrMetallicRoughness":{
				"baseColorFactor":[
					0.800000011920929,
					0.800000011920929,
					0.800000011920929,
					1
				],
				"metallicFactor":0,
				"roughnessFactor":0.5
			}
		},
		{
			"doubleSided":true,
			"name":"CP_ISTRFACE01C",
			"pbrMetallicRoughness":{
				"baseColorFactor":[
					0.800000011920929,
					0.800000011920929,
					0.800000011920929,
					1
				],
				"metallicFactor":0,
				"roughnessFactor":0.5
			}
		},
		{
			"doubleSided":true,
			"name":"CP_ITEC03A",
			"pbrMetallicRoughness":{
				"baseColorFactor":[
					0.800000011920929,
					0.800000011920929,
					0.800000011920929,
					1
				],
				"metallicFactor":0,
				"roughnessFactor":0.5
			}
		},
		{
			"doubleSided":true,
			"name":"CP_ETEC01",
			"pbrMetallicRoughness":{
				"baseColorFactor":[
					0.800000011920929,
					0.800000011920929,
					0.800000011920929,
					1
				],
				"metallicFactor":0,
				"roughnessFactor":0.5
			}
		}
	],
	"meshes":[
		{
			"name":"Mesh",
			"primitives":[
				{
					"attributes":{
						"POSITION":0,
						"NORMAL":1,
						"TEXCOORD_0":2
					},
					"indices":3,
					"material":0
				},
				{
					"attributes":{
						"POSITION":4,
						"NORMAL":5,
						"TEXCOORD_0":6
					},
					"indices":7,
					"material":1
				},
				{
					"attributes":{
						"POSITION":8,
						"NORMAL":9,
						"TEXCOORD_0":10
					},
					"indices":11,
					"material":2
				},
				{
					"attributes":{
						"POSITION":12,
						"NORMAL":13,
						"TEXCOORD_0":14
					},
					"indices":15,
					"material":3
				},
				{
					"attributes":{
						"POSITION":16,
						"NORMAL":17,
						"TEXCOORD_0":18
					},
					"indices":19,
					"material":4
				},
				{
					"attributes":{
						"POSITION":20,
						"NORMAL":21,
						"TEXCOORD_0":22
					},
					"indices":23,
					"material":5
				},
				{
					"attributes":{
						"POSITION":24,
						"NORMAL":25,
						"TEXCOORD_0":26
					},
					"indices":27,
					"material":6
				},
				{
					"attributes":{
						"POSITION":28,
						"NORMAL":29,
						"TEXCOORD_0":30
					},
					"indices":31,
					"material":7
				},
				{
					"attributes":{
						"POSITION":32,
						"NORMAL":33,
						"TEXCOORD_0":34
					},
					"indices":35,
					"material":8
				},
				{
					"attributes":{
						"POSITION":36,
						"NORMAL":37,
						"TEXCOORD_0":38
					},
					"indices":39,
					"material":9
				},
				{
					"attributes":{
						"POSITION":40,
						"NORMAL":41,
						"TEXCOORD_0":42
					},
					"indices":43,
					"material":10
				}
			]
		}
	],
	"accessors":[
		{
			"bufferView":0,
			"componentType":5126,
			"count":4,
			"max":[
				5,
				1.75,
				8.25
			],
			"min":[
				-6,
				1.75,
				-8.25
			],
			"type":"VEC3"
		},
		{
			"bufferView":1,
			"componentType":5126,
			"count":4,
			"type":"VEC3"
		},
		{
			"bufferView":2,
			"componentType":5126,
			"count":4,
			"type":"VEC2"
		},
		{
			"bufferView":3,
			"componentType":5123,
			"count":6,
			"type":"SCALAR"
		},
		{
			"bufferView":4,
			"componentType":5126,
			"count":190,
			"max":[
				5,
				4.75,
				9.75
			],
			"min":[
				-6,
				-0.25,
				-9.75
			],
			"type":"VEC3"
		},
		{
			"bufferView":5,
			"componentType":5126,
			"count":190,
			"type":"VEC3"
		},
		{
			"bufferView":6,
			"componentType":5126,
			"count":190,
			"type":"VEC2"
		},
		{
			"bufferView":7,
			"componentType":5123,
			"count":396,
			"type":"SCALAR"
		},
		{
			"bufferView":8,
			"componentType":5126,
			"count":86,
			"max":[
				5,
				2.75,
				9.75
			],
			"min":[
				-6,
				0,
				-9.75
			],
			"type":"VEC3"
		},
		{
			"bufferView":9,
			"componentType":5126,
			"count":86,
			"type":"VEC3"
		},
		{
			"bufferView":10,
			"componentType":5126,
			"count":86,
			"type":"VEC2"
		},
		{
			"bufferView":11,
			"componentType":5123,
			"count":162,
			"type":"SCALAR"
		},
		{
			"bufferView":12,
			"componentType":5126,
			"count":36,
			"max":[
				5,
				2.75,
				9.75
			],
			"min":[
				-6,
				2.75,
				-9.75
			],
			"type":"VEC3"
		},
		{
			"bufferView":13,
			"componentType":5126,
			"count":36,
			"type":"VEC3"
		},
		{
			"bufferView":14,
			"componentType":5126,
			"count":36,
			"type":"VEC2"
		},
		{
			"bufferView":15,
			"componentType":5123,
			"count":90,
			"type":"SCALAR"
		},
		{
			"bufferView":16,
			"componentType":5126,
			"count":44,
			"max":[
				5,
				2.75,
				8.25
			],
			"min":[
				-6.5,
				-0.75,
				-8.25
			],
			"type":"VEC3"
		},
		{
			"bufferView":17,
			"componentType":5126,
			"count":44,
			"type":"VEC3"
		},
		{
			"bufferView":18,
			"componentType":5126,
			"count":44,
			"type":"VEC2"
		},
		{
			"bufferView":19,
			"componentType":5123,
			"count":102,
			"type":"SCALAR"
		},
		{
			"bufferView":20,
			"componentType":5126,
			"count":14,
			"max":[
				-1.5,
				2.75,
				8.25
			],
			"min":[
				-6,
				1.75,
				-8.25
			],
			"type":"VEC3"
		},
		{
			"bufferView":21,
			"componentType":5126,
			"count":14,
			"type":"VEC3"
		},
		{
			"bufferView":22,
			"componentType":5126,
			"count":14,
			"type":"VEC2"
		},
		{
			"bufferView":23,
			"componentType":5123,
			"count":30,
			"type":"SCALAR"
		},
		{
			"bufferView":24,
			"componentType":5126,
			"count":82,
			"max":[
				-5.5,
				2,
				8.625
			],
			"min":[
				-6.5,
				-0.75,
				-8.625
			],
			"type":"VEC3"
		},
		{
			"bufferView":25,
			"componentType":5126,
			"count":82,
			"type":"VEC3"
		},
		{
			"bufferView":26,
			"componentType":5126,
			"count":82,
			"type":"VEC2"
		},
		{
			"bufferView":27,
			"componentType":5123,
			"count":162,
			"type":"SCALAR"
		},
		{
			"bufferView":28,
			"componentType":5126,
			"count":20,
			"max":[
				-5.5,
				2,
				8.625
			],
			"min":[
				-6.5,
				-0.75,
				-8.625
			],
			"type":"VEC3"
		},
		{
			"bufferView":29,
			"componentType":5126,
			"count":20,
			"type":"VEC3"
		},
		{
			"bufferView":30,
			"componentType":5126,
			"count":20,
			"type":"VEC2"
		},
		{
			"bufferView":31,
			"componentType":5123,
			"count":36,
			"type":"SCALAR"
		},
		{
			"bufferView":32,
			"componentType":5126,
			"count":157,
			"max":[
				5,
				0.25,
				2
			],
			"min":[
				-5.5,
				-0.75,
				-2
			],
			"type":"VEC3"
		},
		{
			"bufferView":33,
			"componentType":5126,
			"count":157,
			"type":"VEC3"
		},
		{
			"bufferView":34,
			"componentType":5126,
			"count":157,
			"type":"VEC2"
		},
		{
			"bufferView":35,
			"componentType":5123,
			"count":255,
			"type":"SCALAR"
		},
		{
			"bufferView":36,
			"componentType":5126,
			"count":16,
			"max":[
				0.875,
				-0.75,
				1.375
			],
			"min":[
				-1.875,
				-0.75,
				-1.375
			],
			"type":"VEC3"
		},
		{
			"bufferView":37,
			"componentType":5126,
			"count":16,
			"type":"VEC3"
		},
		{
			"bufferView":38,
			"componentType":5126,
			"count":16,
			"type":"VEC2"
		},
		{
			"bufferView":39,
			"componentType":5123,
			"count":42,
			"type":"SCALAR"
		},
		{
			"bufferView":40,
			"componentType":5126,
			"count":56,
			"max":[
				1.5,
				-0.25,
				2
			],
			"min":[
				-2.5,
				-0.25,
				-2
			],
			"type":"VEC3"
		},
		{
			"bufferView":41,
			"componentType":5126,
			"count":56,
			"type":"VEC3"
		},
		{
			"bufferView":42,
			"componentType":5126,
			"count":56,
			"type":"VEC2"
		},
		{
			"bufferView":43,
			"componentType":5123,
			"count":195,
			"type":"SCALAR"
		}
	],
	"bufferViews":[
		{
			"buffer":0,
			"byteLength":48,
			"byteOffset":0,
			"target":34962
		},
		{
			"buffer":0,
			"byteLength":48,
			"byteOffset":48,
			"target":34962
		},
		{
			"buffer":0,
			"byteLength":32,
			"byteOffset":96,
			"target":34962
		},
		{
			"buffer":0,
			"byteLength":12,
			"byteOffset":128,
			"target":34963
		},
		{
			"buffer":0,
			"byteLength":2280,
			"byteOffset":140,
			"target":34962
		},
		{
			"buffer":0,
			"byteLength":2280,
			"byteOffset":2420,
			"target":34962
		},
		{
			"buffer":0,
			"byteLength":1520,
			"byteOffset":4700,
			"target":34962
		},
		{
			"buffer":0,
			"byteLength":792,
			"byteOffset":6220,
			"target":34963
		},
		{
			"buffer":0,
			"byteLength":1032,
			"byteOffset":7012,
			"target":34962
		},
		{
			"buffer":0,
			"byteLength":1032,
			"byteOffset":8044,
			"target":34962
		},
		{
			"buffer":0,
			"byteLength":688,
			"byteOffset":9076,
			"target":34962
		},
		{
			"buffer":0,
			"byteLength":324,
			"byteOffset":9764,
			"target":34963
		},
		{
			"buffer":0,
			"byteLength":432,
			"byteOffset":10088,
			"target":34962
		},
		{
			"buffer":0,
			"byteLength":432,
			"byteOffset":10520,
			"target":34962
		},
		{
			"buffer":0,
			"byteLength":288,
			"byteOffset":10952,
			"target":34962
		},
		{
			"buffer":0,
			"byteLength":180,
			"byteOffset":11240,
			"target":34963
		},
		{
			"buffer":0,
			"byteLength":528,
			"byteOffset":11420,
			"target":34962
		},
		{
			"buffer":0,
			"byteLength":528,
			"byteOffset":11948,
			"target":34962
		},
		{
			"buffer":0,
			"byteLength":352,
			"byteOffset":12476,
			"target":34962
		},
		{
			"buffer":0,
			"byteLength":204,
			"byteOffset":12828,
			"target":34963
		},
		{
			"buffer":0,
			"byteLength":168,
			"byteOffset":13032,
			"target":34962
		},
		{
			"buffer":0,
			"byteLength":168,
			"byteOffset":13200,
			"target":34962
		},
		{
			"buffer":0,
			"byteLength":112,
			"byteOffset":13368,
			"target":34962
		},
		{
			"buffer":0,
			"byteLength":60,
			"byteOffset":13480,
			"target":34963
		},
		{
			"buffer":0,
			"byteLength":984,
			"byteOffset":13540,
			"target":34962
		},
		{
			"buffer":0,
			"byteLength":984,
			"byteOffset":14524,
			"target":34962
		},
		{
			"buffer":0,
			"byteLength":656,
			"byteOffset":15508,
			"target":34962
		},
		{
			"buffer":0,
			"byteLength":324,
			"byteOffset":16164,
			"target":34963
		},
		{
			"buffer":0,
			"byteLength":240,
			"byteOffset":16488,
			"target":34962
		},
		{
			"buffer":0,
			"byteLength":240,
			"byteOffset":16728,
			"target":34962
		},
		{
			"buffer":0,
			"byteLength":160,
			"byteOffset":16968,
			"target":34962
		},
		{
			"buffer":0,
			"byteLength":72,
			"byteOffset":17128,
			"target":34963
		},
		{
			"buffer":0,
			"byteLength":1884,
			"byteOffset":17200,
			"target":34962
		},
		{
			"buffer":0,
			"byteLength":1884,
			"byteOffset":19084,
			"target":34962
		},
		{
			"buffer":0,
			"byteLength":1256,
			"byteOffset":20968,
			"target":34962
		},
		{
			"buffer":0,
			"byteLength":510,
			"byteOffset":22224,
			"target":34963
		},
		{
			"buffer":0,
			"byteLength":192,
			"byteOffset":22736,
			"target":34962
		},
		{
			"buffer":0,
			"byteLength":192,
			"byteOffset":22928,
			"target":34962
		},
		{
			"buffer":0,
			"byteLength":128,
			"byteOffset":23120,
			"target":34962
		},
		{
			"buffer":0,
			"byteLength":84,
			"byteOffset":23248,
			"target":34963
		},
		{
			"buffer":0,
			"byteLength":672,
			"byteOffset":23332,
			"target":34962
		},
		{
			"buffer":0,
			"byteLength":672,
			"byteOffset":24004,
			"target":34962
		},
		{
			"buffer":0,
			"byteLength":448,
			"byteOffset":24676,
			"target":34962
		},
		{
			"buffer":0,
			"byteLength":390,
			"byteOffset":25124,
			"target":34963
		}
	],
	"buffers":[
		{
			"byteLength":25516,
			"uri":"pbrdgp.bin"
		}
	]
}
