{
	"asset":{
		"generator":"Khronos glTF Blender I/O v4.5.48",
		"version":"2.0"
	},
	"scene":0,
	"scenes":[
		{
			"name":"Scene",
			"nodes":[
				0,
				1
			]
		}
	],
	"nodes":[
		{
			"mesh":0,
			"name":"Object"
		},
		{
			"mesh":1,
			"name":"Object.001"
		}
	],
	"materials":[
		{
			"doubleSided":true,
			"name":"CP_EWAL01",
			"pbrMetallicRoughness":{
				"baseColorFactor":[
					0.800000011920929,
					0.800000011920929,
					0.800000011920929,
					1
				],
				"metallicFactor":0,
				"roughnessFactor":0.5
			}
		},
		{
			"doubleSided":true,
			"name":"CP_IBOR03",
			"pbrMetallicRoughness":{
				"baseColorFactor":[
					0.800000011920929,
					0.800000011920929,
					0.800000011920929,
					1
				],
				"metallicFactor":0,
				"roughnessFactor":0.5
			}
		},
		{
			"doubleSided":true,
			"name":"CP_IFLO01",
			"pbrMetallicRoughness":{
				"baseColorFactor":[
					0.800000011920929,
					0.800000011920929,
					0.800000011920929,
					1
				],
				"metallicFactor":0,
				"roughnessFactor":0.5
			}
		},
		{
			"doubleSided":true,
			"name":"CP_EWAL01A",
			"pbrMetallicRoughness":{
				"baseColorFactor":[
					0.800000011920929,
					0.800000011920929,
					0.800000011920929,
					1
				],
				"metallicFactor":0,
				"roughnessFactor":0.5
			}
		},
		{
			"doubleSided":true,
			"name":"CP_ISTRFACE01C",
			"pbrMetallicRoughness":{
				"baseColorFactor":[
					0.800000011920929,
					0.800000011920929,
					0.800000011920929,
					1
				],
				"metallicFactor":0,
				"roughnessFactor":0.5
			}
		},
		{
			"doubleSided":true,
			"name":"CP_ESPEC03",
			"pbrMetallicRoughness":{
				"baseColorFactor":[
					0.800000011920929,
					0.800000011920929,
					0.800000011920929,
					1
				],
				"metallicFactor":0,
				"roughnessFactor":0.5
			}
		},
		{
			"doubleSided":true,
			"name":"CP_EWAL01.001",
			"pbrMetallicRoughness":{
				"baseColorFactor":[
					0.800000011920929,
					0.800000011920929,
					0.800000011920929,
					1
				],
				"metallicFactor":0,
				"roughnessFactor":0.5
			}
		},
		{
			"doubleSided":true,
			"name":"CP_IBOR03.001",
			"pbrMetallicRoughness":{
				"baseColorFactor":[
					0.800000011920929,
					0.800000011920929,
					0.800000011920929,
					1
				],
				"metallicFactor":0,
				"roughnessFactor":0.5
			}
		},
		{
			"doubleSided":true,
			"name":"CP_IFLO01.001",
			"pbrMetallicRoughness":{
				"baseColorFactor":[
					0.800000011920929,
					0.800000011920929,
					0.800000011920929,
					1
				],
				"metallicFactor":0,
				"roughnessFactor":0.5
			}
		},
		{
			"doubleSided":true,
			"name":"CP_EWAL01A.001",
			"pbrMetallicRoughness":{
				"baseColorFactor":[
					0.800000011920929,
					0.800000011920929,
					0.800000011920929,
					1
				],
				"metallicFactor":0,
				"roughnessFactor":0.5
			}
		},
		{
			"doubleSided":true,
			"name":"CP_ISTRFACE01C.001",
			"pbrMetallicRoughness":{
				"baseColorFactor":[
					0.800000011920929,
					0.800000011920929,
					0.800000011920929,
					1
				],
				"metallicFactor":0,
				"roughnessFactor":0.5
			}
		},
		{
			"doubleSided":true,
			"name":"CP_ESPEC03.001",
			"pbrMetallicRoughness":{
				"baseColorFactor":[
					0.800000011920929,
					0.800000011920929,
					0.800000011920929,
					1
				],
				"metallicFactor":0,
				"roughnessFactor":0.5
			}
		}
	],
	"meshes":[
		{
			"name":"Mesh",
			"primitives":[
				{
					"attributes":{
						"POSITION":0,
						"NORMAL":1,
						"TEXCOORD_0":2
					},
					"indices":3,
					"material":0
				},
				{
					"attributes":{
						"POSITION":4,
						"NORMAL":5,
						"TEXCOORD_0":6
					},
					"indices":7,
					"material":1
				},
				{
					"attributes":{
						"POSITION":8,
						"NORMAL":9,
						"TEXCOORD_0":10
					},
					"indices":11,
					"material":2
				},
				{
					"attributes":{
						"POSITION":12,
						"NORMAL":13,
						"TEXCOORD_0":14
					},
					"indices":15,
					"material":3
				},
				{
					"attributes":{
						"POSITION":16,
						"NORMAL":17,
						"TEXCOORD_0":18
					},
					"indices":19,
					"material":4
				},
				{
					"attributes":{
						"POSITION":20,
						"NORMAL":21,
						"TEXCOORD_0":22
					},
					"indices":23,
					"material":5
				}
			]
		},
		{
			"name":"Mesh.001",
			"primitives":[
				{
					"attributes":{
						"POSITION":24,
						"NORMAL":25,
						"TEXCOORD_0":26
					},
					"indices":27,
					"material":6
				},
				{
					"attributes":{
						"POSITION":28,
						"NORMAL":29,
						"TEXCOORD_0":30
					},
					"indices":31,
					"material":7
				},
				{
					"attributes":{
						"POSITION":32,
						"NORMAL":33,
						"TEXCOORD_0":34
					},
					"indices":35,
					"material":8
				},
				{
					"attributes":{
						"POSITION":36,
						"NORMAL":37,
						"TEXCOORD_0":38
					},
					"indices":39,
					"material":9
				},
				{
					"attributes":{
						"POSITION":40,
						"NORMAL":41,
						"TEXCOORD_0":42
					},
					"indices":43,
					"material":10
				},
				{
					"attributes":{
						"POSITION":44,
						"NORMAL":45,
						"TEXCOORD_0":46
					},
					"indices":47,
					"material":11
				}
			]
		}
	],
	"accessors":[
		{
			"bufferView":0,
			"componentType":5126,
			"count":352,
			"max":[
				4,
				4.625,
				4.25
			],
			"min":[
				-4,
				0,
				-4.25
			],
			"type":"VEC3"
		},
		{
			"bufferView":1,
			"componentType":5126,
			"count":352,
			"type":"VEC3"
		},
		{
			"bufferView":2,
			"componentType":5126,
			"count":352,
			"type":"VEC2"
		},
		{
			"bufferView":3,
			"componentType":5123,
			"count":822,
			"type":"SCALAR"
		},
		{
			"bufferView":4,
			"componentType":5126,
			"count":36,
			"max":[
				2,
				4.375,
				1.5
			],
			"min":[
				-2,
				4.125,
				-1.5
			],
			"type":"VEC3"
		},
		{
			"bufferView":5,
			"componentType":5126,
			"count":36,
			"type":"VEC3"
		},
		{
			"bufferView":6,
			"componentType":5126,
			"count":36,
			"type":"VEC2"
		},
		{
			"bufferView":7,
			"componentType":5123,
			"count":84,
			"type":"SCALAR"
		},
		{
			"bufferView":8,
			"componentType":5126,
			"count":28,
			"max":[
				4,
				1,
				4.25
			],
			"min":[
				-4,
				0.5,
				-4.25
			],
			"type":"VEC3"
		},
		{
			"bufferView":9,
			"componentType":5126,
			"count":28,
			"type":"VEC3"
		},
		{
			"bufferView":10,
			"componentType":5126,
			"count":28,
			"type":"VEC2"
		},
		{
			"bufferView":11,
			"componentType":5123,
			"count":90,
			"type":"SCALAR"
		},
		{
			"bufferView":12,
			"componentType":5126,
			"count":20,
			"max":[
				4,
				0.5,
				4.25
			],
			"min":[
				-4,
				0,
				-4.25
			],
			"type":"VEC3"
		},
		{
			"bufferView":13,
			"componentType":5126,
			"count":20,
			"type":"VEC3"
		},
		{
			"bufferView":14,
			"componentType":5126,
			"count":20,
			"type":"VEC2"
		},
		{
			"bufferView":15,
			"componentType":5123,
			"count":36,
			"type":"SCALAR"
		},
		{
			"bufferView":16,
			"componentType":5126,
			"count":20,
			"max":[
				3.25,
				1,
				3.625
			],
			"min":[
				-3.25,
				0.5,
				-3.625
			],
			"type":"VEC3"
		},
		{
			"bufferView":17,
			"componentType":5126,
			"count":20,
			"type":"VEC3"
		},
		{
			"bufferView":18,
			"componentType":5126,
			"count":20,
			"type":"VEC2"
		},
		{
			"bufferView":19,
			"componentType":5123,
			"count":36,
			"type":"SCALAR"
		},
		{
			"bufferView":20,
			"componentType":5126,
			"count":112,
			"max":[
				1,
				2.375,
				3.5
			],
			"min":[
				-1,
				1,
				-3.5
			],
			"type":"VEC3"
		},
		{
			"bufferView":21,
			"componentType":5126,
			"count":112,
			"type":"VEC3"
		},
		{
			"bufferView":22,
			"componentType":5126,
			"count":112,
			"type":"VEC2"
		},
		{
			"bufferView":23,
			"componentType":5123,
			"count":192,
			"type":"SCALAR"
		},
		{
			"bufferView":24,
			"componentType":5126,
			"count":244,
			"max":[
				4,
				4.625,
				4.25
			],
			"min":[
				-4,
				0,
				-4.25
			],
			"type":"VEC3"
		},
		{
			"bufferView":25,
			"componentType":5126,
			"count":244,
			"type":"VEC3"
		},
		{
			"bufferView":26,
			"componentType":5126,
			"count":244,
			"type":"VEC2"
		},
		{
			"bufferView":27,
			"componentType":5123,
			"count":546,
			"type":"SCALAR"
		},
		{
			"bufferView":28,
			"componentType":5126,
			"count":24,
			"max":[
				2,
				4.375,
				1.5
			],
			"min":[
				-2,
				4.125,
				-1.5
			],
			"type":"VEC3"
		},
		{
			"bufferView":29,
			"componentType":5126,
			"count":24,
			"type":"VEC3"
		},
		{
			"bufferView":30,
			"componentType":5126,
			"count":24,
			"type":"VEC2"
		},
		{
			"bufferView":31,
			"componentType":5123,
			"count":48,
			"type":"SCALAR"
		},
		{
			"bufferView":32,
			"componentType":5126,
			"count":16,
			"max":[
				4,
				1,
				4.25
			],
			"min":[
				-4,
				0.5,
				-4.25
			],
			"type":"VEC3"
		},
		{
			"bufferView":33,
			"componentType":5126,
			"count":16,
			"type":"VEC3"
		},
		{
			"bufferView":34,
			"componentType":5126,
			"count":16,
			"type":"VEC2"
		},
		{
			"bufferView":35,
			"componentType":5123,
			"count":42,
			"type":"SCALAR"
		},
		{
			"bufferView":36,
			"componentType":5126,
			"count":20,
			"max":[
				4,
				0.5,
				4.25
			],
			"min":[
				-4,
				0,
				-4.25
			],
			"type":"VEC3"
		},
		{
			"bufferView":37,
			"componentType":5126,
			"count":20,
			"type":"VEC3"
		},
		{
			"bufferView":38,
			"componentType":5126,
			"count":20,
			"type":"VEC2"
		},
		{
			"bufferView":39,
			"componentType":5123,
			"count":36,
			"type":"SCALAR"
		},
		{
			"bufferView":40,
			"componentType":5126,
			"count":16,
			"max":[
				3.25,
				1,
				3.625
			],
			"min":[
				-3.25,
				0.5,
				-3.625
			],
			"type":"VEC3"
		},
		{
			"bufferView":41,
			"componentType":5126,
			"count":16,
			"type":"VEC3"
		},
		{
			"bufferView":42,
			"componentType":5126,
			"count":16,
			"type":"VEC2"
		},
		{
			"bufferView":43,
			"componentType":5123,
			"count":24,
			"type":"SCALAR"
		},
		{
			"bufferView":44,
			"componentType":5126,
			"count":40,
			"max":[
				0.75,
				2.375,
				3.25
			],
			"min":[
				-0.75,
				1,
				-3.25
			],
			"type":"VEC3"
		},
		{
			"bufferView":45,
			"componentType":5126,
			"count":40,
			"type":"VEC3"
		},
		{
			"bufferView":46,
			"componentType":5126,
			"count":40,
			"type":"VEC2"
		},
		{
			"bufferView":47,
			"componentType":5123,
			"count":60,
			"type":"SCALAR"
		}
	],
	"bufferViews":[
		{
			"buffer":0,
			"byteLength":4224,
			"byteOffset":0,
			"target":34962
		},
		{
			"buffer":0,
			"byteLength":4224,
			"byteOffset":4224,
			"target":34962
		},
		{
			"buffer":0,
			"byteLength":2816,
			"byteOffset":8448,
			"target":34962
		},
		{
			"buffer":0,
			"byteLength":1644,
			"byteOffset":11264,
			"target":34963
		},
		{
			"buffer":0,
			"byteLength":432,
			"byteOffset":12908,
			"target":34962
		},
		{
			"buffer":0,
			"byteLength":432,
			"byteOffset":13340,
			"target":34962
		},
		{
			"buffer":0,
			"byteLength":288,
			"byteOffset":13772,
			"target":34962
		},
		{
			"buffer":0,
			"byteLength":168,
			"byteOffset":14060,
			"target":34963
		},
		{
			"buffer":0,
			"byteLength":336,
			"byteOffset":14228,
			"target":34962
		},
		{
			"buffer":0,
			"byteLength":336,
			"byteOffset":14564,
			"target":34962
		},
		{
			"buffer":0,
			"byteLength":224,
			"byteOffset":14900,
			"target":34962
		},
		{
			"buffer":0,
			"byteLength":180,
			"byteOffset":15124,
			"target":34963
		},
		{
			"buffer":0,
			"byteLength":240,
			"byteOffset":15304,
			"target":34962
		},
		{
			"buffer":0,
			"byteLength":240,
			"byteOffset":15544,
			"target":34962
		},
		{
			"buffer":0,
			"byteLength":160,
			"byteOffset":15784,
			"target":34962
		},
		{
			"buffer":0,
			"byteLength":72,
			"byteOffset":15944,
			"target":34963
		},
		{
			"buffer":0,
			"byteLength":240,
			"byteOffset":16016,
			"target":34962
		},
		{
			"buffer":0,
			"byteLength":240,
			"byteOffset":16256,
			"target":34962
		},
		{
			"buffer":0,
			"byteLength":160,
			"byteOffset":16496,
			"target":34962
		},
		{
			"buffer":0,
			"byteLength":72,
			"byteOffset":16656,
			"target":34963
		},
		{
			"buffer":0,
			"byteLength":1344,
			"byteOffset":16728,
			"target":34962
		},
		{
			"buffer":0,
			"byteLength":1344,
			"byteOffset":18072,
			"target":34962
		},
		{
			"buffer":0,
			"byteLength":896,
			"byteOffset":19416,
			"target":34962
		},
		{
			"buffer":0,
			"byteLength":384,
			"byteOffset":20312,
			"target":34963
		},
		{
			"buffer":0,
			"byteLength":2928,
			"byteOffset":20696,
			"target":34962
		},
		{
			"buffer":0,
			"byteLength":2928,
			"byteOffset":23624,
			"target":34962
		},
		{
			"buffer":0,
			"byteLength":1952,
			"byteOffset":26552,
			"target":34962
		},
		{
			"buffer":0,
			"byteLength":1092,
			"byteOffset":28504,
			"target":34963
		},
		{
			"buffer":0,
			"byteLength":288,
			"byteOffset":29596,
			"target":34962
		},
		{
			"buffer":0,
			"byteLength":288,
			"byteOffset":29884,
			"target":34962
		},
		{
			"buffer":0,
			"byteLength":192,
			"byteOffset":30172,
			"target":34962
		},
		{
			"buffer":0,
			"byteLength":96,
			"byteOffset":30364,
			"target":34963
		},
		{
			"buffer":0,
			"byteLength":192,
			"byteOffset":30460,
			"target":34962
		},
		{
			"buffer":0,
			"byteLength":192,
			"byteOffset":30652,
			"target":34962
		},
		{
			"buffer":0,
			"byteLength":128,
			"byteOffset":30844,
			"target":34962
		},
		{
			"buffer":0,
			"byteLength":84,
			"byteOffset":30972,
			"target":34963
		},
		{
			"buffer":0,
			"byteLength":240,
			"byteOffset":31056,
			"target":34962
		},
		{
			"buffer":0,
			"byteLength":240,
			"byteOffset":31296,
			"target":34962
		},
		{
			"buffer":0,
			"byteLength":160,
			"byteOffset":31536,
			"target":34962
		},
		{
			"buffer":0,
			"byteLength":72,
			"byteOffset":31696,
			"target":34963
		},
		{
			"buffer":0,
			"byteLength":192,
			"byteOffset":31768,
			"target":34962
		},
		{
			"buffer":0,
			"byteLength":192,
			"byteOffset":31960,
			"target":34962
		},
		{
			"buffer":0,
			"byteLength":128,
			"byteOffset":32152,
			"target":34962
		},
		{
			"buffer":0,
			"byteLength":48,
			"byteOffset":32280,
			"target":34963
		},
		{
			"buffer":0,
			"byteLength":480,
			"byteOffset":32328,
			"target":34962
		},
		{
			"buffer":0,
			"byteLength":480,
			"byteOffset":32808,
			"target":34962
		},
		{
			"buffer":0,
			"byteLength":320,
			"byteOffset":33288,
			"target":34962
		},
		{
			"buffer":0,
			"byteLength":120,
			"byteOffset":33608,
			"target":34963
		}
	],
	"buffers":[
		{
			"byteLength":33728,
			"uri":"pmisc2.bin"
		}
	]
}
