{
	"asset":{
		"generator":"Khronos glTF Blender I/O v4.5.48",
		"version":"2.0"
	},
	"scene":0,
	"scenes":[
		{
			"name":"Scene",
			"nodes":[
				0,
				1,
				2
			]
		}
	],
	"nodes":[
		{
			"mesh":0,
			"name":"Object"
		},
		{
			"mesh":1,
			"name":"Object.001"
		},
		{
			"mesh":2,
			"name":"Object.002"
		}
	],
	"materials":[
		{
			"doubleSided":true,
			"name":"CP_EWAL01A",
			"pbrMetallicRoughness":{
				"baseColorFactor":[
					0.800000011920929,
					0.800000011920929,
					0.800000011920929,
					1
				],
				"metallicFactor":0,
				"roughnessFactor":0.5
			}
		},
		{
			"doubleSided":true,
			"name":"CP_ILIG01A",
			"pbrMetallicRoughness":{
				"baseColorFactor":[
					0.800000011920929,
					0.800000011920929,
					0.800000011920929,
					1
				],
				"metallicFactor":0,
				"roughnessFactor":0.5
			}
		},
		{
			"doubleSided":true,
			"name":"CP_IBOR03",
			"pbrMetallicRoughness":{
				"baseColorFactor":[
					0.800000011920929,
					0.800000011920929,
					0.800000011920929,
					1
				],
				"metallicFactor":0,
				"roughnessFactor":0.5
			}
		},
		{
			"doubleSided":true,
			"name":"CP_IFLO02A",
			"pbrMetallicRoughness":{
				"baseColorFactor":[
					0.800000011920929,
					0.800000011920929,
					0.800000011920929,
					1
				],
				"metallicFactor":0,
				"roughnessFactor":0.5
			}
		},
		{
			"doubleSided":true,
			"name":"CP_ESPEC03",
			"pbrMetallicRoughness":{
				"baseColorFactor":[
					0.800000011920929,
					0.800000011920929,
					0.800000011920929,
					1
				],
				"metallicFactor":0,
				"roughnessFactor":0.5
			}
		},
		{
			"doubleSided":true,
			"name":"CP_IBOR01A",
			"pbrMetallicRoughness":{
				"baseColorFactor":[
					0.800000011920929,
					0.800000011920929,
					0.800000011920929,
					1
				],
				"metallicFactor":0,
				"roughnessFactor":0.5
			}
		},
		{
			"doubleSided":true,
			"name":"CP_EWAL01A.001",
			"pbrMetallicRoughness":{
				"baseColorFactor":[
					0.800000011920929,
					0.800000011920929,
					0.800000011920929,
					1
				],
				"metallicFactor":0,
				"roughnessFactor":0.5
			}
		},
		{
			"doubleSided":true,
			"name":"CP_ILIG01A.001",
			"pbrMetallicRoughness":{
				"baseColorFactor":[
					0.800000011920929,
					0.800000011920929,
					0.800000011920929,
					1
				],
				"metallicFactor":0,
				"roughnessFactor":0.5
			}
		},
		{
			"doubleSided":true,
			"name":"CP_IBOR03.001",
			"pbrMetallicRoughness":{
				"baseColorFactor":[
					0.800000011920929,
					0.800000011920929,
					0.800000011920929,
					1
				],
				"metallicFactor":0,
				"roughnessFactor":0.5
			}
		},
		{
			"doubleSided":true,
			"name":"CP_IFLO02A.001",
			"pbrMetallicRoughness":{
				"baseColorFactor":[
					0.800000011920929,
					0.800000011920929,
					0.800000011920929,
					1
				],
				"metallicFactor":0,
				"roughnessFactor":0.5
			}
		},
		{
			"doubleSided":true,
			"name":"CP_ESPEC03.001",
			"pbrMetallicRoughness":{
				"baseColorFactor":[
					0.800000011920929,
					0.800000011920929,
					0.800000011920929,
					1
				],
				"metallicFactor":0,
				"roughnessFactor":0.5
			}
		},
		{
			"doubleSided":true,
			"name":"CP_IBOR01A.001",
			"pbrMetallicRoughness":{
				"baseColorFactor":[
					0.800000011920929,
					0.800000011920929,
					0.800000011920929,
					1
				],
				"metallicFactor":0,
				"roughnessFactor":0.5
			}
		},
		{
			"doubleSided":true,
			"name":"CP_EWAL01A.002",
			"pbrMetallicRoughness":{
				"baseColorFactor":[
					0.800000011920929,
					0.800000011920929,
					0.800000011920929,
					1
				],
				"metallicFactor":0,
				"roughnessFactor":0.5
			}
		},
		{
			"doubleSided":true,
			"name":"CP_ILIG01A.002",
			"pbrMetallicRoughness":{
				"baseColorFactor":[
					0.800000011920929,
					0.800000011920929,
					0.800000011920929,
					1
				],
				"metallicFactor":0,
				"roughnessFactor":0.5
			}
		},
		{
			"doubleSided":true,
			"name":"CP_IFLO02A.002",
			"pbrMetallicRoughness":{
				"baseColorFactor":[
					0.800000011920929,
					0.800000011920929,
					0.800000011920929,
					1
				],
				"metallicFactor":0,
				"roughnessFactor":0.5
			}
		},
		{
			"doubleSided":true,
			"name":"CP_ESPEC03.002",
			"pbrMetallicRoughness":{
				"baseColorFactor":[
					0.800000011920929,
					0.800000011920929,
					0.800000011920929,
					1
				],
				"metallicFactor":0,
				"roughnessFactor":0.5
			}
		},
		{
			"doubleSided":true,
			"name":"CP_IBOR01A.002",
			"pbrMetallicRoughness":{
				"baseColorFactor":[
					0.800000011920929,
					0.800000011920929,
					0.800000011920929,
					1
				],
				"metallicFactor":0,
				"roughnessFactor":0.5
			}
		}
	],
	"meshes":[
		{
			"name":"Mesh",
			"primitives":[
				{
					"attributes":{
						"POSITION":0,
						"NORMAL":1,
						"TEXCOORD_0":2
					},
					"indices":3,
					"material":0
				},
				{
					"attributes":{
						"POSITION":4,
						"NORMAL":5,
						"TEXCOORD_0":6
					},
					"indices":7,
					"material":1
				},
				{
					"attributes":{
						"POSITION":8,
						"NORMAL":9,
						"TEXCOORD_0":10
					},
					"indices":11,
					"material":2
				},
				{
					"attributes":{
						"POSITION":12,
						"NORMAL":13,
						"TEXCOORD_0":14
					},
					"indices":15,
					"material":3
				},
				{
					"attributes":{
						"POSITION":16,
						"NORMAL":17,
						"TEXCOORD_0":18
					},
					"indices":19,
					"material":4
				},
				{
					"attributes":{
						"POSITION":20,
						"NORMAL":21,
						"TEXCOORD_0":22
					},
					"indices":23,
					"material":5
				}
			]
		},
		{
			"name":"Mesh.001",
			"primitives":[
				{
					"attributes":{
						"POSITION":24,
						"NORMAL":25,
						"TEXCOORD_0":26
					},
					"indices":27,
					"material":6
				},
				{
					"attributes":{
						"POSITION":28,
						"NORMAL":29,
						"TEXCOORD_0":30
					},
					"indices":31,
					"material":7
				},
				{
					"attributes":{
						"POSITION":32,
						"NORMAL":33,
						"TEXCOORD_0":34
					},
					"indices":35,
					"material":8
				},
				{
					"attributes":{
						"POSITION":36,
						"NORMAL":37,
						"TEXCOORD_0":38
					},
					"indices":39,
					"material":9
				},
				{
					"attributes":{
						"POSITION":40,
						"NORMAL":41,
						"TEXCOORD_0":42
					},
					"indices":43,
					"material":10
				},
				{
					"attributes":{
						"POSITION":44,
						"NORMAL":45,
						"TEXCOORD_0":46
					},
					"indices":23,
					"material":11
				}
			]
		},
		{
			"name":"Mesh.002",
			"primitives":[
				{
					"attributes":{
						"POSITION":47,
						"NORMAL":48,
						"TEXCOORD_0":49
					},
					"indices":50,
					"material":12
				},
				{
					"attributes":{
						"POSITION":51,
						"NORMAL":52,
						"TEXCOORD_0":53
					},
					"indices":54,
					"material":13
				},
				{
					"attributes":{
						"POSITION":55,
						"NORMAL":56,
						"TEXCOORD_0":57
					},
					"indices":58,
					"material":14
				},
				{
					"attributes":{
						"POSITION":59,
						"NORMAL":60,
						"TEXCOORD_0":61
					},
					"indices":62,
					"material":15
				},
				{
					"attributes":{
						"POSITION":63,
						"NORMAL":64,
						"TEXCOORD_0":65
					},
					"indices":23,
					"material":16
				}
			]
		}
	],
	"accessors":[
		{
			"bufferView":0,
			"componentType":5126,
			"count":582,
			"max":[
				7,
				25,
				4
			],
			"min":[
				-7,
				14,
				-10.96875
			],
			"type":"VEC3"
		},
		{
			"bufferView":1,
			"componentType":5126,
			"count":582,
			"type":"VEC3"
		},
		{
			"bufferView":2,
			"componentType":5126,
			"count":582,
			"type":"VEC2"
		},
		{
			"bufferView":3,
			"componentType":5123,
			"count":1251,
			"type":"SCALAR"
		},
		{
			"bufferView":4,
			"componentType":5126,
			"count":20,
			"max":[
				7,
				22.875,
				1.40625
			],
			"min":[
				-7,
				21.8125,
				-1.34375
			],
			"type":"VEC3"
		},
		{
			"bufferView":5,
			"componentType":5126,
			"count":20,
			"type":"VEC3"
		},
		{
			"bufferView":6,
			"componentType":5126,
			"count":20,
			"type":"VEC2"
		},
		{
			"bufferView":7,
			"componentType":5123,
			"count":36,
			"type":"SCALAR"
		},
		{
			"bufferView":8,
			"componentType":5126,
			"count":64,
			"max":[
				2.5625,
				23.4375,
				2.5625
			],
			"min":[
				-2.5625,
				14,
				-10.9375
			],
			"type":"VEC3"
		},
		{
			"bufferView":9,
			"componentType":5126,
			"count":64,
			"type":"VEC3"
		},
		{
			"bufferView":10,
			"componentType":5126,
			"count":64,
			"type":"VEC2"
		},
		{
			"bufferView":11,
			"componentType":5123,
			"count":96,
			"type":"SCALAR"
		},
		{
			"bufferView":12,
			"componentType":5126,
			"count":107,
			"max":[
				4,
				24.65625,
				4
			],
			"min":[
				-4,
				12,
				-10.96875
			],
			"type":"VEC3"
		},
		{
			"bufferView":13,
			"componentType":5126,
			"count":107,
			"type":"VEC3"
		},
		{
			"bufferView":14,
			"componentType":5126,
			"count":107,
			"type":"VEC2"
		},
		{
			"bufferView":15,
			"componentType":5123,
			"count":219,
			"type":"SCALAR"
		},
		{
			"bufferView":16,
			"componentType":5126,
			"count":40,
			"max":[
				2.59375,
				14,
				-5.8125
			],
			"min":[
				-2.59375,
				12,
				-10.96875
			],
			"type":"VEC3"
		},
		{
			"bufferView":17,
			"componentType":5126,
			"count":40,
			"type":"VEC3"
		},
		{
			"bufferView":18,
			"componentType":5126,
			"count":40,
			"type":"VEC2"
		},
		{
			"bufferView":19,
			"componentType":5123,
			"count":72,
			"type":"SCALAR"
		},
		{
			"bufferView":20,
			"componentType":5126,
			"count":4,
			"max":[
				0.5,
				25,
				-2.375
			],
			"min":[
				-0.5,
				25,
				-4
			],
			"type":"VEC3"
		},
		{
			"bufferView":21,
			"componentType":5126,
			"count":4,
			"type":"VEC3"
		},
		{
			"bufferView":22,
			"componentType":5126,
			"count":4,
			"type":"VEC2"
		},
		{
			"bufferView":23,
			"componentType":5123,
			"count":6,
			"type":"SCALAR"
		},
		{
			"bufferView":24,
			"componentType":5126,
			"count":556,
			"max":[
				7,
				25,
				4
			],
			"min":[
				-7,
				14,
				-10.96875
			],
			"type":"VEC3"
		},
		{
			"bufferView":25,
			"componentType":5126,
			"count":556,
			"type":"VEC3"
		},
		{
			"bufferView":26,
			"componentType":5126,
			"count":556,
			"type":"VEC2"
		},
		{
			"bufferView":27,
			"componentType":5123,
			"count":1167,
			"type":"SCALAR"
		},
		{
			"bufferView":28,
			"componentType":5126,
			"count":20,
			"max":[
				7,
				22.875,
				1.40625
			],
			"min":[
				-7,
				21.8125,
				-1.34375
			],
			"type":"VEC3"
		},
		{
			"bufferView":29,
			"componentType":5126,
			"count":20,
			"type":"VEC3"
		},
		{
			"bufferView":30,
			"componentType":5126,
			"count":20,
			"type":"VEC2"
		},
		{
			"bufferView":31,
			"componentType":5123,
			"count":36,
			"type":"SCALAR"
		},
		{
			"bufferView":32,
			"componentType":5126,
			"count":64,
			"max":[
				2.5625,
				23.4375,
				2.5625
			],
			"min":[
				-2.5625,
				14,
				-10.9375
			],
			"type":"VEC3"
		},
		{
			"bufferView":33,
			"componentType":5126,
			"count":64,
			"type":"VEC3"
		},
		{
			"bufferView":34,
			"componentType":5126,
			"count":64,
			"type":"VEC2"
		},
		{
			"bufferView":35,
			"componentType":5123,
			"count":96,
			"type":"SCALAR"
		},
		{
			"bufferView":36,
			"componentType":5126,
			"count":34,
			"max":[
				4,
				24.4375,
				4
			],
			"min":[
				-4,
				12,
				-10.96875
			],
			"type":"VEC3"
		},
		{
			"bufferView":37,
			"componentType":5126,
			"count":34,
			"type":"VEC3"
		},
		{
			"bufferView":38,
			"componentType":5126,
			"count":34,
			"type":"VEC2"
		},
		{
			"bufferView":39,
			"componentType":5123,
			"count":105,
			"type":"SCALAR"
		},
		{
			"bufferView":40,
			"componentType":5126,
			"count":40,
			"max":[
				2.59375,
				14,
				-5.8125
			],
			"min":[
				-2.59375,
				12,
				-10.96875
			],
			"type":"VEC3"
		},
		{
			"bufferView":41,
			"componentType":5126,
			"count":40,
			"type":"VEC3"
		},
		{
			"bufferView":42,
			"componentType":5126,
			"count":40,
			"type":"VEC2"
		},
		{
			"bufferView":43,
			"componentType":5123,
			"count":72,
			"type":"SCALAR"
		},
		{
			"bufferView":44,
			"componentType":5126,
			"count":4,
			"max":[
				0.5,
				25,
				-2.375
			],
			"min":[
				-0.5,
				25,
				-4
			],
			"type":"VEC3"
		},
		{
			"bufferView":45,
			"componentType":5126,
			"count":4,
			"type":"VEC3"
		},
		{
			"bufferView":46,
			"componentType":5126,
			"count":4,
			"type":"VEC2"
		},
		{
			"bufferView":47,
			"componentType":5126,
			"count":484,
			"max":[
				7,
				25,
				4
			],
			"min":[
				-7,
				14,
				-10.96875
			],
			"type":"VEC3"
		},
		{
			"bufferView":48,
			"componentType":5126,
			"count":484,
			"type":"VEC3"
		},
		{
			"bufferView":49,
			"componentType":5126,
			"count":484,
			"type":"VEC2"
		},
		{
			"bufferView":50,
			"componentType":5123,
			"count":996,
			"type":"SCALAR"
		},
		{
			"bufferView":51,
			"componentType":5126,
			"count":20,
			"max":[
				7,
				22.875,
				1.40625
			],
			"min":[
				-7,
				21.8125,
				-1.34375
			],
			"type":"VEC3"
		},
		{
			"bufferView":52,
			"componentType":5126,
			"count":20,
			"type":"VEC3"
		},
		{
			"bufferView":53,
			"componentType":5126,
			"count":20,
			"type":"VEC2"
		},
		{
			"bufferView":54,
			"componentType":5123,
			"count":36,
			"type":"SCALAR"
		},
		{
			"bufferView":55,
			"componentType":5126,
			"count":29,
			"max":[
				4,
				24.4375,
				4
			],
			"min":[
				-4,
				12,
				-10.96875
			],
			"type":"VEC3"
		},
		{
			"bufferView":56,
			"componentType":5126,
			"count":29,
			"type":"VEC3"
		},
		{
			"bufferView":57,
			"componentType":5126,
			"count":29,
			"type":"VEC2"
		},
		{
			"bufferView":58,
			"componentType":5123,
			"count":84,
			"type":"SCALAR"
		},
		{
			"bufferView":59,
			"componentType":5126,
			"count":40,
			"max":[
				2.59375,
				14,
				-5.8125
			],
			"min":[
				-2.59375,
				12,
				-10.96875
			],
			"type":"VEC3"
		},
		{
			"bufferView":60,
			"componentType":5126,
			"count":40,
			"type":"VEC3"
		},
		{
			"bufferView":61,
			"componentType":5126,
			"count":40,
			"type":"VEC2"
		},
		{
			"bufferView":62,
			"componentType":5123,
			"count":72,
			"type":"SCALAR"
		},
		{
			"bufferView":63,
			"componentType":5126,
			"count":4,
			"max":[
				0.5,
				25,
				-2.375
			],
			"min":[
				-0.5,
				25,
				-4
			],
			"type":"VEC3"
		},
		{
			"bufferView":64,
			"componentType":5126,
			"count":4,
			"type":"VEC3"
		},
		{
			"bufferView":65,
			"componentType":5126,
			"count":4,
			"type":"VEC2"
		}
	],
	"bufferViews":[
		{
			"buffer":0,
			"byteLength":6984,
			"byteOffset":0,
			"target":34962
		},
		{
			"buffer":0,
			"byteLength":6984,
			"byteOffset":6984,
			"target":34962
		},
		{
			"buffer":0,
			"byteLength":4656,
			"byteOffset":13968,
			"target":34962
		},
		{
			"buffer":0,
			"byteLength":2502,
			"byteOffset":18624,
			"target":34963
		},
		{
			"buffer":0,
			"byteLength":240,
			"byteOffset":21128,
			"target":34962
		},
		{
			"buffer":0,
			"byteLength":240,
			"byteOffset":21368,
			"target":34962
		},
		{
			"buffer":0,
			"byteLength":160,
			"byteOffset":21608,
			"target":34962
		},
		{
			"buffer":0,
			"byteLength":72,
			"byteOffset":21768,
			"target":34963
		},
		{
			"buffer":0,
			"byteLength":768,
			"byteOffset":21840,
			"target":34962
		},
		{
			"buffer":0,
			"byteLength":768,
			"byteOffset":22608,
			"target":34962
		},
		{
			"buffer":0,
			"byteLength":512,
			"byteOffset":23376,
			"target":34962
		},
		{
			"buffer":0,
			"byteLength":192,
			"byteOffset":23888,
			"target":34963
		},
		{
			"buffer":0,
			"byteLength":1284,
			"byteOffset":24080,
			"target":34962
		},
		{
			"buffer":0,
			"byteLength":1284,
			"byteOffset":25364,
			"target":34962
		},
		{
			"buffer":0,
			"byteLength":856,
			"byteOffset":26648,
			"target":34962
		},
		{
			"buffer":0,
			"byteLength":438,
			"byteOffset":27504,
			"target":34963
		},
		{
			"buffer":0,
			"byteLength":480,
			"byteOffset":27944,
			"target":34962
		},
		{
			"buffer":0,
			"byteLength":480,
			"byteOffset":28424,
			"target":34962
		},
		{
			"buffer":0,
			"byteLength":320,
			"byteOffset":28904,
			"target":34962
		},
		{
			"buffer":0,
			"byteLength":144,
			"byteOffset":29224,
			"target":34963
		},
		{
			"buffer":0,
			"byteLength":48,
			"byteOffset":29368,
			"target":34962
		},
		{
			"buffer":0,
			"byteLength":48,
			"byteOffset":29416,
			"target":34962
		},
		{
			"buffer":0,
			"byteLength":32,
			"byteOffset":29464,
			"target":34962
		},
		{
			"buffer":0,
			"byteLength":12,
			"byteOffset":29496,
			"target":34963
		},
		{
			"buffer":0,
			"byteLength":6672,
			"byteOffset":29508,
			"target":34962
		},
		{
			"buffer":0,
			"byteLength":6672,
			"byteOffset":36180,
			"target":34962
		},
		{
			"buffer":0,
			"byteLength":4448,
			"byteOffset":42852,
			"target":34962
		},
		{
			"buffer":0,
			"byteLength":2334,
			"byteOffset":47300,
			"target":34963
		},
		{
			"buffer":0,
			"byteLength":240,
			"byteOffset":49636,
			"target":34962
		},
		{
			"buffer":0,
			"byteLength":240,
			"byteOffset":49876,
			"target":34962
		},
		{
			"buffer":0,
			"byteLength":160,
			"byteOffset":50116,
			"target":34962
		},
		{
			"buffer":0,
			"byteLength":72,
			"byteOffset":50276,
			"target":34963
		},
		{
			"buffer":0,
			"byteLength":768,
			"byteOffset":50348,
			"target":34962
		},
		{
			"buffer":0,
			"byteLength":768,
			"byteOffset":51116,
			"target":34962
		},
		{
			"buffer":0,
			"byteLength":512,
			"byteOffset":51884,
			"target":34962
		},
		{
			"buffer":0,
			"byteLength":192,
			"byteOffset":52396,
			"target":34963
		},
		{
			"buffer":0,
			"byteLength":408,
			"byteOffset":52588,
			"target":34962
		},
		{
			"buffer":0,
			"byteLength":408,
			"byteOffset":52996,
			"target":34962
		},
		{
			"buffer":0,
			"byteLength":272,
			"byteOffset":53404,
			"target":34962
		},
		{
			"buffer":0,
			"byteLength":210,
			"byteOffset":53676,
			"target":34963
		},
		{
			"buffer":0,
			"byteLength":480,
			"byteOffset":53888,
			"target":34962
		},
		{
			"buffer":0,
			"byteLength":480,
			"byteOffset":54368,
			"target":34962
		},
		{
			"buffer":0,
			"byteLength":320,
			"byteOffset":54848,
			"target":34962
		},
		{
			"buffer":0,
			"byteLength":144,
			"byteOffset":55168,
			"target":34963
		},
		{
			"buffer":0,
			"byteLength":48,
			"byteOffset":55312,
			"target":34962
		},
		{
			"buffer":0,
			"byteLength":48,
			"byteOffset":55360,
			"target":34962
		},
		{
			"buffer":0,
			"byteLength":32,
			"byteOffset":55408,
			"target":34962
		},
		{
			"buffer":0,
			"byteLength":5808,
			"byteOffset":55440,
			"target":34962
		},
		{
			"buffer":0,
			"byteLength":5808,
			"byteOffset":61248,
			"target":34962
		},
		{
			"buffer":0,
			"byteLength":3872,
			"byteOffset":67056,
			"target":34962
		},
		{
			"buffer":0,
			"byteLength":1992,
			"byteOffset":70928,
			"target":34963
		},
		{
			"buffer":0,
			"byteLength":240,
			"byteOffset":72920,
			"target":34962
		},
		{
			"buffer":0,
			"byteLength":240,
			"byteOffset":73160,
			"target":34962
		},
		{
			"buffer":0,
			"byteLength":160,
			"byteOffset":73400,
			"target":34962
		},
		{
			"buffer":0,
			"byteLength":72,
			"byteOffset":73560,
			"target":34963
		},
		{
			"buffer":0,
			"byteLength":348,
			"byteOffset":73632,
			"target":34962
		},
		{
			"buffer":0,
			"byteLength":348,
			"byteOffset":73980,
			"target":34962
		},
		{
			"buffer":0,
			"byteLength":232,
			"byteOffset":74328,
			"target":34962
		},
		{
			"buffer":0,
			"byteLength":168,
			"byteOffset":74560,
			"target":34963
		},
		{
			"buffer":0,
			"byteLength":480,
			"byteOffset":74728,
			"target":34962
		},
		{
			"buffer":0,
			"byteLength":480,
			"byteOffset":75208,
			"target":34962
		},
		{
			"buffer":0,
			"byteLength":320,
			"byteOffset":75688,
			"target":34962
		},
		{
			"buffer":0,
			"byteLength":144,
			"byteOffset":76008,
			"target":34963
		},
		{
			"buffer":0,
			"byteLength":48,
			"byteOffset":76152,
			"target":34962
		},
		{
			"buffer":0,
			"byteLength":48,
			"byteOffset":76200,
			"target":34962
		},
		{
			"buffer":0,
			"byteLength":32,
			"byteOffset":76248,
			"target":34962
		}
	],
	"buffers":[
		{
			"byteLength":76280,
			"uri":"pmisca.bin"
		}
	]
}
