{
	"asset":{
		"generator":"Khronos glTF Blender I/O v4.5.48",
		"version":"2.0"
	},
	"scene":0,
	"scenes":[
		{
			"name":"Scene",
			"nodes":[
				0,
				1,
				2
			]
		}
	],
	"nodes":[
		{
			"mesh":0,
			"name":"Object"
		},
		{
			"mesh":1,
			"name":"Object.001"
		},
		{
			"mesh":2,
			"name":"Object.002"
		}
	],
	"materials":[
		{
			"doubleSided":true,
			"name":"CP_IFLO01",
			"pbrMetallicRoughness":{
				"baseColorFactor":[
					0.800000011920929,
					0.800000011920929,
					0.800000011920929,
					1
				],
				"metallicFactor":0,
				"roughnessFactor":0.5
			}
		},
		{
			"doubleSided":true,
			"name":"CP_EWAL01A",
			"pbrMetallicRoughness":{
				"baseColorFactor":[
					0.800000011920929,
					0.800000011920929,
					0.800000011920929,
					1
				],
				"metallicFactor":0,
				"roughnessFactor":0.5
			}
		},
		{
			"doubleSided":true,
			"name":"CP_ESPEC02BASE",
			"pbrMetallicRoughness":{
				"baseColorFactor":[
					0.800000011920929,
					0.800000011920929,
					0.800000011920929,
					1
				],
				"metallicFactor":0,
				"roughnessFactor":0.5
			}
		},
		{
			"doubleSided":true,
			"name":"CP_ICOLDECO01A",
			"pbrMetallicRoughness":{
				"baseColorFactor":[
					0.800000011920929,
					0.800000011920929,
					0.800000011920929,
					1
				],
				"metallicFactor":0,
				"roughnessFactor":0.5
			}
		},
		{
			"doubleSided":true,
			"name":"CP_ETEC01",
			"pbrMetallicRoughness":{
				"baseColorFactor":[
					0.800000011920929,
					0.800000011920929,
					0.800000011920929,
					1
				],
				"metallicFactor":0,
				"roughnessFactor":0.5
			}
		},
		{
			"doubleSided":true,
			"name":"CP_IBOR01A",
			"pbrMetallicRoughness":{
				"baseColorFactor":[
					0.800000011920929,
					0.800000011920929,
					0.800000011920929,
					1
				],
				"metallicFactor":0,
				"roughnessFactor":0.5
			}
		},
		{
			"doubleSided":true,
			"name":"CP_IFLO01.001",
			"pbrMetallicRoughness":{
				"baseColorFactor":[
					0.800000011920929,
					0.800000011920929,
					0.800000011920929,
					1
				],
				"metallicFactor":0,
				"roughnessFactor":0.5
			}
		},
		{
			"doubleSided":true,
			"name":"CP_EWAL01A.001",
			"pbrMetallicRoughness":{
				"baseColorFactor":[
					0.800000011920929,
					0.800000011920929,
					0.800000011920929,
					1
				],
				"metallicFactor":0,
				"roughnessFactor":0.5
			}
		},
		{
			"doubleSided":true,
			"name":"CP_ICOLDECO01A.001",
			"pbrMetallicRoughness":{
				"baseColorFactor":[
					0.800000011920929,
					0.800000011920929,
					0.800000011920929,
					1
				],
				"metallicFactor":0,
				"roughnessFactor":0.5
			}
		},
		{
			"doubleSided":true,
			"name":"CP_ESPEC02BASE.001",
			"pbrMetallicRoughness":{
				"baseColorFactor":[
					0.800000011920929,
					0.800000011920929,
					0.800000011920929,
					1
				],
				"metallicFactor":0,
				"roughnessFactor":0.5
			}
		},
		{
			"doubleSided":true,
			"name":"CP_ETEC01.001",
			"pbrMetallicRoughness":{
				"baseColorFactor":[
					0.800000011920929,
					0.800000011920929,
					0.800000011920929,
					1
				],
				"metallicFactor":0,
				"roughnessFactor":0.5
			}
		},
		{
			"doubleSided":true,
			"name":"CP_IBOR01A.001",
			"pbrMetallicRoughness":{
				"baseColorFactor":[
					0.800000011920929,
					0.800000011920929,
					0.800000011920929,
					1
				],
				"metallicFactor":0,
				"roughnessFactor":0.5
			}
		},
		{
			"doubleSided":true,
			"name":"CP_IFLO01.002",
			"pbrMetallicRoughness":{
				"baseColorFactor":[
					0.800000011920929,
					0.800000011920929,
					0.800000011920929,
					1
				],
				"metallicFactor":0,
				"roughnessFactor":0.5
			}
		},
		{
			"doubleSided":true,
			"name":"CP_EWAL01A.002",
			"pbrMetallicRoughness":{
				"baseColorFactor":[
					0.800000011920929,
					0.800000011920929,
					0.800000011920929,
					1
				],
				"metallicFactor":0,
				"roughnessFactor":0.5
			}
		},
		{
			"doubleSided":true,
			"name":"CP_ICOLDECO01A.002",
			"pbrMetallicRoughness":{
				"baseColorFactor":[
					0.800000011920929,
					0.800000011920929,
					0.800000011920929,
					1
				],
				"metallicFactor":0,
				"roughnessFactor":0.5
			}
		},
		{
			"doubleSided":true,
			"name":"CP_ESPEC02BASE.002",
			"pbrMetallicRoughness":{
				"baseColorFactor":[
					0.800000011920929,
					0.800000011920929,
					0.800000011920929,
					1
				],
				"metallicFactor":0,
				"roughnessFactor":0.5
			}
		},
		{
			"doubleSided":true,
			"name":"CP_ETEC01.002",
			"pbrMetallicRoughness":{
				"baseColorFactor":[
					0.800000011920929,
					0.800000011920929,
					0.800000011920929,
					1
				],
				"metallicFactor":0,
				"roughnessFactor":0.5
			}
		}
	],
	"meshes":[
		{
			"name":"Mesh",
			"primitives":[
				{
					"attributes":{
						"POSITION":0,
						"NORMAL":1,
						"TEXCOORD_0":2
					},
					"indices":3,
					"material":0
				},
				{
					"attributes":{
						"POSITION":4,
						"NORMAL":5,
						"TEXCOORD_0":6
					},
					"indices":7,
					"material":1
				},
				{
					"attributes":{
						"POSITION":8,
						"NORMAL":9,
						"TEXCOORD_0":10
					},
					"indices":11,
					"material":2
				},
				{
					"attributes":{
						"POSITION":12,
						"NORMAL":13,
						"TEXCOORD_0":14
					},
					"indices":15,
					"material":3
				},
				{
					"attributes":{
						"POSITION":16,
						"NORMAL":17,
						"TEXCOORD_0":18
					},
					"indices":19,
					"material":4
				},
				{
					"attributes":{
						"POSITION":20,
						"NORMAL":21,
						"TEXCOORD_0":22
					},
					"indices":23,
					"material":5
				}
			]
		},
		{
			"name":"Mesh.001",
			"primitives":[
				{
					"attributes":{
						"POSITION":24,
						"NORMAL":25,
						"TEXCOORD_0":26
					},
					"indices":27,
					"material":6
				},
				{
					"attributes":{
						"POSITION":28,
						"NORMAL":29,
						"TEXCOORD_0":30
					},
					"indices":31,
					"material":7
				},
				{
					"attributes":{
						"POSITION":32,
						"NORMAL":33,
						"TEXCOORD_0":34
					},
					"indices":35,
					"material":8
				},
				{
					"attributes":{
						"POSITION":36,
						"NORMAL":37,
						"TEXCOORD_0":38
					},
					"indices":39,
					"material":9
				},
				{
					"attributes":{
						"POSITION":40,
						"NORMAL":41,
						"TEXCOORD_0":42
					},
					"indices":43,
					"material":10
				},
				{
					"attributes":{
						"POSITION":44,
						"NORMAL":45,
						"TEXCOORD_0":46
					},
					"indices":47,
					"material":11
				}
			]
		},
		{
			"name":"Mesh.002",
			"primitives":[
				{
					"attributes":{
						"POSITION":48,
						"NORMAL":49,
						"TEXCOORD_0":50
					},
					"indices":51,
					"material":12
				},
				{
					"attributes":{
						"POSITION":52,
						"NORMAL":53,
						"TEXCOORD_0":54
					},
					"indices":55,
					"material":13
				},
				{
					"attributes":{
						"POSITION":56,
						"NORMAL":57,
						"TEXCOORD_0":58
					},
					"indices":59,
					"material":14
				},
				{
					"attributes":{
						"POSITION":60,
						"NORMAL":61,
						"TEXCOORD_0":62
					},
					"indices":63,
					"material":15
				},
				{
					"attributes":{
						"POSITION":64,
						"NORMAL":65,
						"TEXCOORD_0":66
					},
					"indices":67,
					"material":16
				}
			]
		}
	],
	"accessors":[
		{
			"bufferView":0,
			"componentType":5126,
			"count":49,
			"max":[
				6.25,
				3.833984375,
				5.75
			],
			"min":[
				-6.25,
				1,
				-5.75
			],
			"type":"VEC3"
		},
		{
			"bufferView":1,
			"componentType":5126,
			"count":49,
			"type":"VEC3"
		},
		{
			"bufferView":2,
			"componentType":5126,
			"count":49,
			"type":"VEC2"
		},
		{
			"bufferView":3,
			"componentType":5123,
			"count":123,
			"type":"SCALAR"
		},
		{
			"bufferView":4,
			"componentType":5126,
			"count":659,
			"max":[
				7.5,
				4.28125,
				8.25
			],
			"min":[
				-7.5,
				-14.25,
				-10.75
			],
			"type":"VEC3"
		},
		{
			"bufferView":5,
			"componentType":5126,
			"count":659,
			"type":"VEC3"
		},
		{
			"bufferView":6,
			"componentType":5126,
			"count":659,
			"type":"VEC2"
		},
		{
			"bufferView":7,
			"componentType":5123,
			"count":1569,
			"type":"SCALAR"
		},
		{
			"bufferView":8,
			"componentType":5126,
			"count":76,
			"max":[
				7.5,
				4.28125,
				8.25
			],
			"min":[
				-7.5,
				-0.25,
				-5.75
			],
			"type":"VEC3"
		},
		{
			"bufferView":9,
			"componentType":5126,
			"count":76,
			"type":"VEC3"
		},
		{
			"bufferView":10,
			"componentType":5126,
			"count":76,
			"type":"VEC2"
		},
		{
			"bufferView":11,
			"componentType":5123,
			"count":138,
			"type":"SCALAR"
		},
		{
			"bufferView":12,
			"componentType":5126,
			"count":96,
			"max":[
				6.25,
				4.28125,
				7.25
			],
			"min":[
				-6.25,
				1,
				5.75
			],
			"type":"VEC3"
		},
		{
			"bufferView":13,
			"componentType":5126,
			"count":96,
			"type":"VEC3"
		},
		{
			"bufferView":14,
			"componentType":5126,
			"count":96,
			"type":"VEC2"
		},
		{
			"bufferView":15,
			"componentType":5123,
			"count":186,
			"type":"SCALAR"
		},
		{
			"bufferView":16,
			"componentType":5126,
			"count":44,
			"max":[
				5.5,
				-2,
				4.5
			],
			"min":[
				-5.5,
				-5,
				1.5
			],
			"type":"VEC3"
		},
		{
			"bufferView":17,
			"componentType":5126,
			"count":44,
			"type":"VEC3"
		},
		{
			"bufferView":18,
			"componentType":5126,
			"count":44,
			"type":"VEC2"
		},
		{
			"bufferView":19,
			"componentType":5123,
			"count":108,
			"type":"SCALAR"
		},
		{
			"bufferView":20,
			"componentType":5126,
			"count":48,
			"max":[
				4.9375,
				1,
				5.75
			],
			"min":[
				-4.96875,
				0.06993132084608078,
				-0.2923072874546051
			],
			"type":"VEC3"
		},
		{
			"bufferView":21,
			"componentType":5126,
			"count":48,
			"type":"VEC3"
		},
		{
			"bufferView":22,
			"componentType":5126,
			"count":48,
			"type":"VEC2"
		},
		{
			"bufferView":23,
			"componentType":5123,
			"count":72,
			"type":"SCALAR"
		},
		{
			"bufferView":24,
			"componentType":5126,
			"count":48,
			"max":[
				6.25,
				3.833984375,
				5.75
			],
			"min":[
				-6.25,
				1,
				-5.75
			],
			"type":"VEC3"
		},
		{
			"bufferView":25,
			"componentType":5126,
			"count":48,
			"type":"VEC3"
		},
		{
			"bufferView":26,
			"componentType":5126,
			"count":48,
			"type":"VEC2"
		},
		{
			"bufferView":27,
			"componentType":5123,
			"count":120,
			"type":"SCALAR"
		},
		{
			"bufferView":28,
			"componentType":5126,
			"count":602,
			"max":[
				7.5,
				4.28125,
				7.75
			],
			"min":[
				-7.5,
				-14.25,
				-10.75
			],
			"type":"VEC3"
		},
		{
			"bufferView":29,
			"componentType":5126,
			"count":602,
			"type":"VEC3"
		},
		{
			"bufferView":30,
			"componentType":5126,
			"count":602,
			"type":"VEC2"
		},
		{
			"bufferView":31,
			"componentType":5123,
			"count":1302,
			"type":"SCALAR"
		},
		{
			"bufferView":32,
			"componentType":5126,
			"count":28,
			"max":[
				6.25,
				4.28125,
				6.25
			],
			"min":[
				-6.25,
				1,
				5.75
			],
			"type":"VEC3"
		},
		{
			"bufferView":33,
			"componentType":5126,
			"count":28,
			"type":"VEC3"
		},
		{
			"bufferView":34,
			"componentType":5126,
			"count":28,
			"type":"VEC2"
		},
		{
			"bufferView":35,
			"componentType":5123,
			"count":72,
			"type":"SCALAR"
		},
		{
			"bufferView":36,
			"componentType":5126,
			"count":60,
			"max":[
				7.5,
				4.28125,
				7.75
			],
			"min":[
				-7.5,
				-0.25,
				-5.75
			],
			"type":"VEC3"
		},
		{
			"bufferView":37,
			"componentType":5126,
			"count":60,
			"type":"VEC3"
		},
		{
			"bufferView":38,
			"componentType":5126,
			"count":60,
			"type":"VEC2"
		},
		{
			"bufferView":39,
			"componentType":5123,
			"count":114,
			"type":"SCALAR"
		},
		{
			"bufferView":40,
			"componentType":5126,
			"count":44,
			"max":[
				5.5,
				-2,
				4.5
			],
			"min":[
				-5.5,
				-5,
				1.5
			],
			"type":"VEC3"
		},
		{
			"bufferView":41,
			"componentType":5126,
			"count":44,
			"type":"VEC3"
		},
		{
			"bufferView":42,
			"componentType":5126,
			"count":44,
			"type":"VEC2"
		},
		{
			"bufferView":43,
			"componentType":5123,
			"count":108,
			"type":"SCALAR"
		},
		{
			"bufferView":44,
			"componentType":5126,
			"count":48,
			"max":[
				4.9375,
				1,
				5.75
			],
			"min":[
				-4.96875,
				0.06993132084608078,
				-0.2923072874546051
			],
			"type":"VEC3"
		},
		{
			"bufferView":45,
			"componentType":5126,
			"count":48,
			"type":"VEC3"
		},
		{
			"bufferView":46,
			"componentType":5126,
			"count":48,
			"type":"VEC2"
		},
		{
			"bufferView":47,
			"componentType":5123,
			"count":72,
			"type":"SCALAR"
		},
		{
			"bufferView":48,
			"componentType":5126,
			"count":28,
			"max":[
				6.25,
				4,
				6.25
			],
			"min":[
				-6.25,
				1,
				-5.75
			],
			"type":"VEC3"
		},
		{
			"bufferView":49,
			"componentType":5126,
			"count":28,
			"type":"VEC3"
		},
		{
			"bufferView":50,
			"componentType":5126,
			"count":28,
			"type":"VEC2"
		},
		{
			"bufferView":51,
			"componentType":5123,
			"count":84,
			"type":"SCALAR"
		},
		{
			"bufferView":52,
			"componentType":5126,
			"count":430,
			"max":[
				7.5,
				4,
				7.75
			],
			"min":[
				-7.5,
				-14.25,
				-10.75
			],
			"type":"VEC3"
		},
		{
			"bufferView":53,
			"componentType":5126,
			"count":430,
			"type":"VEC3"
		},
		{
			"bufferView":54,
			"componentType":5126,
			"count":430,
			"type":"VEC2"
		},
		{
			"bufferView":55,
			"componentType":5123,
			"count":876,
			"type":"SCALAR"
		},
		{
			"bufferView":56,
			"componentType":5126,
			"count":8,
			"max":[
				6.25,
				4,
				6.25
			],
			"min":[
				-6.25,
				1,
				5.75
			],
			"type":"VEC3"
		},
		{
			"bufferView":57,
			"componentType":5126,
			"count":8,
			"type":"VEC3"
		},
		{
			"bufferView":58,
			"componentType":5126,
			"count":8,
			"type":"VEC2"
		},
		{
			"bufferView":59,
			"componentType":5123,
			"count":18,
			"type":"SCALAR"
		},
		{
			"bufferView":60,
			"componentType":5126,
			"count":42,
			"max":[
				7.5,
				4,
				7.75
			],
			"min":[
				-7.5,
				0.75,
				-5.75
			],
			"type":"VEC3"
		},
		{
			"bufferView":61,
			"componentType":5126,
			"count":42,
			"type":"VEC3"
		},
		{
			"bufferView":62,
			"componentType":5126,
			"count":42,
			"type":"VEC2"
		},
		{
			"bufferView":63,
			"componentType":5123,
			"count":78,
			"type":"SCALAR"
		},
		{
			"bufferView":64,
			"componentType":5126,
			"count":28,
			"max":[
				5.5,
				-2.375,
				4.125
			],
			"min":[
				-5.5,
				-4.625,
				1.875
			],
			"type":"VEC3"
		},
		{
			"bufferView":65,
			"componentType":5126,
			"count":28,
			"type":"VEC3"
		},
		{
			"bufferView":66,
			"componentType":5126,
			"count":28,
			"type":"VEC2"
		},
		{
			"bufferView":67,
			"componentType":5123,
			"count":60,
			"type":"SCALAR"
		}
	],
	"bufferViews":[
		{
			"buffer":0,
			"byteLength":588,
			"byteOffset":0,
			"target":34962
		},
		{
			"buffer":0,
			"byteLength":588,
			"byteOffset":588,
			"target":34962
		},
		{
			"buffer":0,
			"byteLength":392,
			"byteOffset":1176,
			"target":34962
		},
		{
			"buffer":0,
			"byteLength":246,
			"byteOffset":1568,
			"target":34963
		},
		{
			"buffer":0,
			"byteLength":7908,
			"byteOffset":1816,
			"target":34962
		},
		{
			"buffer":0,
			"byteLength":7908,
			"byteOffset":9724,
			"target":34962
		},
		{
			"buffer":0,
			"byteLength":5272,
			"byteOffset":17632,
			"target":34962
		},
		{
			"buffer":0,
			"byteLength":3138,
			"byteOffset":22904,
			"target":34963
		},
		{
			"buffer":0,
			"byteLength":912,
			"byteOffset":26044,
			"target":34962
		},
		{
			"buffer":0,
			"byteLength":912,
			"byteOffset":26956,
			"target":34962
		},
		{
			"buffer":0,
			"byteLength":608,
			"byteOffset":27868,
			"target":34962
		},
		{
			"buffer":0,
			"byteLength":276,
			"byteOffset":28476,
			"target":34963
		},
		{
			"buffer":0,
			"byteLength":1152,
			"byteOffset":28752,
			"target":34962
		},
		{
			"buffer":0,
			"byteLength":1152,
			"byteOffset":29904,
			"target":34962
		},
		{
			"buffer":0,
			"byteLength":768,
			"byteOffset":31056,
			"target":34962
		},
		{
			"buffer":0,
			"byteLength":372,
			"byteOffset":31824,
			"target":34963
		},
		{
			"buffer":0,
			"byteLength":528,
			"byteOffset":32196,
			"target":34962
		},
		{
			"buffer":0,
			"byteLength":528,
			"byteOffset":32724,
			"target":34962
		},
		{
			"buffer":0,
			"byteLength":352,
			"byteOffset":33252,
			"target":34962
		},
		{
			"buffer":0,
			"byteLength":216,
			"byteOffset":33604,
			"target":34963
		},
		{
			"buffer":0,
			"byteLength":576,
			"byteOffset":33820,
			"target":34962
		},
		{
			"buffer":0,
			"byteLength":576,
			"byteOffset":34396,
			"target":34962
		},
		{
			"buffer":0,
			"byteLength":384,
			"byteOffset":34972,
			"target":34962
		},
		{
			"buffer":0,
			"byteLength":144,
			"byteOffset":35356,
			"target":34963
		},
		{
			"buffer":0,
			"byteLength":576,
			"byteOffset":35500,
			"target":34962
		},
		{
			"buffer":0,
			"byteLength":576,
			"byteOffset":36076,
			"target":34962
		},
		{
			"buffer":0,
			"byteLength":384,
			"byteOffset":36652,
			"target":34962
		},
		{
			"buffer":0,
			"byteLength":240,
			"byteOffset":37036,
			"target":34963
		},
		{
			"buffer":0,
			"byteLength":7224,
			"byteOffset":37276,
			"target":34962
		},
		{
			"buffer":0,
			"byteLength":7224,
			"byteOffset":44500,
			"target":34962
		},
		{
			"buffer":0,
			"byteLength":4816,
			"byteOffset":51724,
			"target":34962
		},
		{
			"buffer":0,
			"byteLength":2604,
			"byteOffset":56540,
			"target":34963
		},
		{
			"buffer":0,
			"byteLength":336,
			"byteOffset":59144,
			"target":34962
		},
		{
			"buffer":0,
			"byteLength":336,
			"byteOffset":59480,
			"target":34962
		},
		{
			"buffer":0,
			"byteLength":224,
			"byteOffset":59816,
			"target":34962
		},
		{
			"buffer":0,
			"byteLength":144,
			"byteOffset":60040,
			"target":34963
		},
		{
			"buffer":0,
			"byteLength":720,
			"byteOffset":60184,
			"target":34962
		},
		{
			"buffer":0,
			"byteLength":720,
			"byteOffset":60904,
			"target":34962
		},
		{
			"buffer":0,
			"byteLength":480,
			"byteOffset":61624,
			"target":34962
		},
		{
			"buffer":0,
			"byteLength":228,
			"byteOffset":62104,
			"target":34963
		},
		{
			"buffer":0,
			"byteLength":528,
			"byteOffset":62332,
			"target":34962
		},
		{
			"buffer":0,
			"byteLength":528,
			"byteOffset":62860,
			"target":34962
		},
		{
			"buffer":0,
			"byteLength":352,
			"byteOffset":63388,
			"target":34962
		},
		{
			"buffer":0,
			"byteLength":216,
			"byteOffset":63740,
			"target":34963
		},
		{
			"buffer":0,
			"byteLength":576,
			"byteOffset":63956,
			"target":34962
		},
		{
			"buffer":0,
			"byteLength":576,
			"byteOffset":64532,
			"target":34962
		},
		{
			"buffer":0,
			"byteLength":384,
			"byteOffset":65108,
			"target":34962
		},
		{
			"buffer":0,
			"byteLength":144,
			"byteOffset":65492,
			"target":34963
		},
		{
			"buffer":0,
			"byteLength":336,
			"byteOffset":65636,
			"target":34962
		},
		{
			"buffer":0,
			"byteLength":336,
			"byteOffset":65972,
			"target":34962
		},
		{
			"buffer":0,
			"byteLength":224,
			"byteOffset":66308,
			"target":34962
		},
		{
			"buffer":0,
			"byteLength":168,
			"byteOffset":66532,
			"target":34963
		},
		{
			"buffer":0,
			"byteLength":5160,
			"byteOffset":66700,
			"target":34962
		},
		{
			"buffer":0,
			"byteLength":5160,
			"byteOffset":71860,
			"target":34962
		},
		{
			"buffer":0,
			"byteLength":3440,
			"byteOffset":77020,
			"target":34962
		},
		{
			"buffer":0,
			"byteLength":1752,
			"byteOffset":80460,
			"target":34963
		},
		{
			"buffer":0,
			"byteLength":96,
			"byteOffset":82212,
			"target":34962
		},
		{
			"buffer":0,
			"byteLength":96,
			"byteOffset":82308,
			"target":34962
		},
		{
			"buffer":0,
			"byteLength":64,
			"byteOffset":82404,
			"target":34962
		},
		{
			"buffer":0,
			"byteLength":36,
			"byteOffset":82468,
			"target":34963
		},
		{
			"buffer":0,
			"byteLength":504,
			"byteOffset":82504,
			"target":34962
		},
		{
			"buffer":0,
			"byteLength":504,
			"byteOffset":83008,
			"target":34962
		},
		{
			"buffer":0,
			"byteLength":336,
			"byteOffset":83512,
			"target":34962
		},
		{
			"buffer":0,
			"byteLength":156,
			"byteOffset":83848,
			"target":34963
		},
		{
			"buffer":0,
			"byteLength":336,
			"byteOffset":84004,
			"target":34962
		},
		{
			"buffer":0,
			"byteLength":336,
			"byteOffset":84340,
			"target":34962
		},
		{
			"buffer":0,
			"byteLength":224,
			"byteOffset":84676,
			"target":34962
		},
		{
			"buffer":0,
			"byteLength":120,
			"byteOffset":84900,
			"target":34963
		}
	],
	"buffers":[
		{
			"byteLength":85020,
			"uri":"pmiscc.bin"
		}
	]
}
