{
	"asset":{
		"generator":"Khronos glTF Blender I/O v4.5.48",
		"version":"2.0"
	},
	"scene":0,
	"scenes":[
		{
			"name":"Scene",
			"nodes":[
				0,
				1,
				2
			]
		}
	],
	"nodes":[
		{
			"mesh":0,
			"name":"Object"
		},
		{
			"mesh":1,
			"name":"Object.001"
		},
		{
			"mesh":2,
			"name":"Object.002"
		}
	],
	"materials":[
		{
			"doubleSided":true,
			"name":"CP_EWAL01B",
			"pbrMetallicRoughness":{
				"baseColorFactor":[
					0.800000011920929,
					0.800000011920929,
					0.800000011920929,
					1
				],
				"metallicFactor":0,
				"roughnessFactor":0.5
			}
		},
		{
			"doubleSided":true,
			"name":"CP_ILIG01A",
			"pbrMetallicRoughness":{
				"baseColorFactor":[
					0.800000011920929,
					0.800000011920929,
					0.800000011920929,
					1
				],
				"metallicFactor":0,
				"roughnessFactor":0.5
			}
		},
		{
			"doubleSided":true,
			"name":"CP_ESPEC03",
			"pbrMetallicRoughness":{
				"baseColorFactor":[
					0.800000011920929,
					0.800000011920929,
					0.800000011920929,
					1
				],
				"metallicFactor":0,
				"roughnessFactor":0.5
			}
		},
		{
			"doubleSided":true,
			"name":"CP_IFLO01D",
			"pbrMetallicRoughness":{
				"baseColorFactor":[
					0.800000011920929,
					0.800000011920929,
					0.800000011920929,
					1
				],
				"metallicFactor":0,
				"roughnessFactor":0.5
			}
		},
		{
			"doubleSided":true,
			"name":"CP_ICHUTE01",
			"pbrMetallicRoughness":{
				"baseColorFactor":[
					0.800000011920929,
					0.800000011920929,
					0.800000011920929,
					1
				],
				"metallicFactor":0,
				"roughnessFactor":0.5
			}
		},
		{
			"doubleSided":true,
			"name":"CP_IFLO02C",
			"pbrMetallicRoughness":{
				"baseColorFactor":[
					0.800000011920929,
					0.800000011920929,
					0.800000011920929,
					1
				],
				"metallicFactor":0,
				"roughnessFactor":0.5
			}
		},
		{
			"doubleSided":true,
			"name":"CP_EWAL01B.001",
			"pbrMetallicRoughness":{
				"baseColorFactor":[
					0.800000011920929,
					0.800000011920929,
					0.800000011920929,
					1
				],
				"metallicFactor":0,
				"roughnessFactor":0.5
			}
		},
		{
			"doubleSided":true,
			"name":"CP_ILIG01A.001",
			"pbrMetallicRoughness":{
				"baseColorFactor":[
					0.800000011920929,
					0.800000011920929,
					0.800000011920929,
					1
				],
				"metallicFactor":0,
				"roughnessFactor":0.5
			}
		},
		{
			"doubleSided":true,
			"name":"CP_ESPEC03.001",
			"pbrMetallicRoughness":{
				"baseColorFactor":[
					0.800000011920929,
					0.800000011920929,
					0.800000011920929,
					1
				],
				"metallicFactor":0,
				"roughnessFactor":0.5
			}
		},
		{
			"doubleSided":true,
			"name":"CP_IFLO01D.001",
			"pbrMetallicRoughness":{
				"baseColorFactor":[
					0.800000011920929,
					0.800000011920929,
					0.800000011920929,
					1
				],
				"metallicFactor":0,
				"roughnessFactor":0.5
			}
		},
		{
			"doubleSided":true,
			"name":"CP_ICHUTE01.001",
			"pbrMetallicRoughness":{
				"baseColorFactor":[
					0.800000011920929,
					0.800000011920929,
					0.800000011920929,
					1
				],
				"metallicFactor":0,
				"roughnessFactor":0.5
			}
		},
		{
			"doubleSided":true,
			"name":"CP_IFLO02C.001",
			"pbrMetallicRoughness":{
				"baseColorFactor":[
					0.800000011920929,
					0.800000011920929,
					0.800000011920929,
					1
				],
				"metallicFactor":0,
				"roughnessFactor":0.5
			}
		},
		{
			"doubleSided":true,
			"name":"CP_EWAL01B.002",
			"pbrMetallicRoughness":{
				"baseColorFactor":[
					0.800000011920929,
					0.800000011920929,
					0.800000011920929,
					1
				],
				"metallicFactor":0,
				"roughnessFactor":0.5
			}
		},
		{
			"doubleSided":true,
			"name":"CP_ILIG01A.002",
			"pbrMetallicRoughness":{
				"baseColorFactor":[
					0.800000011920929,
					0.800000011920929,
					0.800000011920929,
					1
				],
				"metallicFactor":0,
				"roughnessFactor":0.5
			}
		},
		{
			"doubleSided":true,
			"name":"CP_ESPEC03.002",
			"pbrMetallicRoughness":{
				"baseColorFactor":[
					0.800000011920929,
					0.800000011920929,
					0.800000011920929,
					1
				],
				"metallicFactor":0,
				"roughnessFactor":0.5
			}
		},
		{
			"doubleSided":true,
			"name":"CP_IFLO01D.002",
			"pbrMetallicRoughness":{
				"baseColorFactor":[
					0.800000011920929,
					0.800000011920929,
					0.800000011920929,
					1
				],
				"metallicFactor":0,
				"roughnessFactor":0.5
			}
		},
		{
			"doubleSided":true,
			"name":"CP_ICHUTE01.002",
			"pbrMetallicRoughness":{
				"baseColorFactor":[
					0.800000011920929,
					0.800000011920929,
					0.800000011920929,
					1
				],
				"metallicFactor":0,
				"roughnessFactor":0.5
			}
		},
		{
			"doubleSided":true,
			"name":"CP_IFLO02C.002",
			"pbrMetallicRoughness":{
				"baseColorFactor":[
					0.800000011920929,
					0.800000011920929,
					0.800000011920929,
					1
				],
				"metallicFactor":0,
				"roughnessFactor":0.5
			}
		}
	],
	"meshes":[
		{
			"name":"Mesh",
			"primitives":[
				{
					"attributes":{
						"POSITION":0,
						"NORMAL":1,
						"TEXCOORD_0":2
					},
					"indices":3,
					"material":0
				},
				{
					"attributes":{
						"POSITION":4,
						"NORMAL":5,
						"TEXCOORD_0":6
					},
					"indices":7,
					"material":1
				},
				{
					"attributes":{
						"POSITION":8,
						"NORMAL":9,
						"TEXCOORD_0":10
					},
					"indices":11,
					"material":2
				},
				{
					"attributes":{
						"POSITION":12,
						"NORMAL":13,
						"TEXCOORD_0":14
					},
					"indices":15,
					"material":3
				},
				{
					"attributes":{
						"POSITION":16,
						"NORMAL":17,
						"TEXCOORD_0":18
					},
					"indices":19,
					"material":4
				},
				{
					"attributes":{
						"POSITION":20,
						"NORMAL":21,
						"TEXCOORD_0":22
					},
					"indices":23,
					"material":5
				}
			]
		},
		{
			"name":"Mesh.001",
			"primitives":[
				{
					"attributes":{
						"POSITION":24,
						"NORMAL":25,
						"TEXCOORD_0":26
					},
					"indices":27,
					"material":6
				},
				{
					"attributes":{
						"POSITION":28,
						"NORMAL":29,
						"TEXCOORD_0":30
					},
					"indices":31,
					"material":7
				},
				{
					"attributes":{
						"POSITION":32,
						"NORMAL":33,
						"TEXCOORD_0":34
					},
					"indices":35,
					"material":8
				},
				{
					"attributes":{
						"POSITION":36,
						"NORMAL":37,
						"TEXCOORD_0":38
					},
					"indices":39,
					"material":9
				},
				{
					"attributes":{
						"POSITION":40,
						"NORMAL":41,
						"TEXCOORD_0":42
					},
					"indices":43,
					"material":10
				},
				{
					"attributes":{
						"POSITION":44,
						"NORMAL":45,
						"TEXCOORD_0":46
					},
					"indices":47,
					"material":11
				}
			]
		},
		{
			"name":"Mesh.002",
			"primitives":[
				{
					"attributes":{
						"POSITION":48,
						"NORMAL":49,
						"TEXCOORD_0":50
					},
					"indices":51,
					"material":12
				},
				{
					"attributes":{
						"POSITION":52,
						"NORMAL":53,
						"TEXCOORD_0":54
					},
					"indices":55,
					"material":13
				},
				{
					"attributes":{
						"POSITION":56,
						"NORMAL":57,
						"TEXCOORD_0":58
					},
					"indices":59,
					"material":14
				},
				{
					"attributes":{
						"POSITION":60,
						"NORMAL":61,
						"TEXCOORD_0":62
					},
					"indices":63,
					"material":15
				},
				{
					"attributes":{
						"POSITION":64,
						"NORMAL":65,
						"TEXCOORD_0":66
					},
					"indices":67,
					"material":16
				},
				{
					"attributes":{
						"POSITION":68,
						"NORMAL":69,
						"TEXCOORD_0":70
					},
					"indices":71,
					"material":17
				}
			]
		}
	],
	"accessors":[
		{
			"bufferView":0,
			"componentType":5126,
			"count":234,
			"max":[
				4,
				11.4375,
				5.1875
			],
			"min":[
				-4,
				0,
				-7.5625
			],
			"type":"VEC3"
		},
		{
			"bufferView":1,
			"componentType":5126,
			"count":234,
			"type":"VEC3"
		},
		{
			"bufferView":2,
			"componentType":5126,
			"count":234,
			"type":"VEC2"
		},
		{
			"bufferView":3,
			"componentType":5123,
			"count":420,
			"type":"SCALAR"
		},
		{
			"bufferView":4,
			"componentType":5126,
			"count":28,
			"max":[
				4,
				0.5,
				4.0625
			],
			"min":[
				-4,
				0,
				-3.9375
			],
			"type":"VEC3"
		},
		{
			"bufferView":5,
			"componentType":5126,
			"count":28,
			"type":"VEC3"
		},
		{
			"bufferView":6,
			"componentType":5126,
			"count":28,
			"type":"VEC2"
		},
		{
			"bufferView":7,
			"componentType":5123,
			"count":54,
			"type":"SCALAR"
		},
		{
			"bufferView":8,
			"componentType":5126,
			"count":64,
			"max":[
				2.8531250953674316,
				11.4375,
				2.5625
			],
			"min":[
				-2.9375,
				8.90625,
				-7.5625
			],
			"type":"VEC3"
		},
		{
			"bufferView":9,
			"componentType":5126,
			"count":64,
			"type":"VEC3"
		},
		{
			"bufferView":10,
			"componentType":5126,
			"count":64,
			"type":"VEC2"
		},
		{
			"bufferView":11,
			"componentType":5123,
			"count":138,
			"type":"SCALAR"
		},
		{
			"bufferView":12,
			"componentType":5126,
			"count":106,
			"max":[
				3,
				10.40625,
				5.75
			],
			"min":[
				-3,
				1.0625,
				-2.1875
			],
			"type":"VEC3"
		},
		{
			"bufferView":13,
			"componentType":5126,
			"count":106,
			"type":"VEC3"
		},
		{
			"bufferView":14,
			"componentType":5126,
			"count":106,
			"type":"VEC2"
		},
		{
			"bufferView":15,
			"componentType":5123,
			"count":174,
			"type":"SCALAR"
		},
		{
			"bufferView":16,
			"componentType":5126,
			"count":40,
			"max":[
				1.5,
				10.90625,
				3.25
			],
			"min":[
				-1.5,
				0,
				-4.6875
			],
			"type":"VEC3"
		},
		{
			"bufferView":17,
			"componentType":5126,
			"count":40,
			"type":"VEC3"
		},
		{
			"bufferView":18,
			"componentType":5126,
			"count":40,
			"type":"VEC2"
		},
		{
			"bufferView":19,
			"componentType":5123,
			"count":66,
			"type":"SCALAR"
		},
		{
			"bufferView":20,
			"componentType":5126,
			"count":62,
			"max":[
				3,
				6.875,
				5.75
			],
			"min":[
				-3,
				1.0625,
				-2.1875
			],
			"type":"VEC3"
		},
		{
			"bufferView":21,
			"componentType":5126,
			"count":62,
			"type":"VEC3"
		},
		{
			"bufferView":22,
			"componentType":5126,
			"count":62,
			"type":"VEC2"
		},
		{
			"bufferView":23,
			"componentType":5123,
			"count":102,
			"type":"SCALAR"
		},
		{
			"bufferView":24,
			"componentType":5126,
			"count":290,
			"max":[
				4,
				11.4375,
				5.1875
			],
			"min":[
				-4,
				-9.416907816253773e-18,
				-7.5625
			],
			"type":"VEC3"
		},
		{
			"bufferView":25,
			"componentType":5126,
			"count":290,
			"type":"VEC3"
		},
		{
			"bufferView":26,
			"componentType":5126,
			"count":290,
			"type":"VEC2"
		},
		{
			"bufferView":27,
			"componentType":5123,
			"count":516,
			"type":"SCALAR"
		},
		{
			"bufferView":28,
			"componentType":5126,
			"count":30,
			"max":[
				4,
				0.5,
				4.0625
			],
			"min":[
				-4,
				0,
				-3.9375
			],
			"type":"VEC3"
		},
		{
			"bufferView":29,
			"componentType":5126,
			"count":30,
			"type":"VEC3"
		},
		{
			"bufferView":30,
			"componentType":5126,
			"count":30,
			"type":"VEC2"
		},
		{
			"bufferView":31,
			"componentType":5123,
			"count":54,
			"type":"SCALAR"
		},
		{
			"bufferView":32,
			"componentType":5126,
			"count":68,
			"max":[
				2.8531250953674316,
				11.4375,
				2.5625
			],
			"min":[
				-2.9375,
				8.90625,
				-7.5625
			],
			"type":"VEC3"
		},
		{
			"bufferView":33,
			"componentType":5126,
			"count":68,
			"type":"VEC3"
		},
		{
			"bufferView":34,
			"componentType":5126,
			"count":68,
			"type":"VEC2"
		},
		{
			"bufferView":35,
			"componentType":5123,
			"count":150,
			"type":"SCALAR"
		},
		{
			"bufferView":36,
			"componentType":5126,
			"count":84,
			"max":[
				3,
				10.40625,
				5.75
			],
			"min":[
				-3,
				1.829545497894287,
				-1.75
			],
			"type":"VEC3"
		},
		{
			"bufferView":37,
			"componentType":5126,
			"count":84,
			"type":"VEC3"
		},
		{
			"bufferView":38,
			"componentType":5126,
			"count":84,
			"type":"VEC2"
		},
		{
			"bufferView":39,
			"componentType":5123,
			"count":144,
			"type":"SCALAR"
		},
		{
			"bufferView":40,
			"componentType":5126,
			"count":28,
			"max":[
				1.5,
				10.90625,
				3.25
			],
			"min":[
				-1.5,
				-9.416907816253773e-18,
				-4.625
			],
			"type":"VEC3"
		},
		{
			"bufferView":41,
			"componentType":5126,
			"count":28,
			"type":"VEC3"
		},
		{
			"bufferView":42,
			"componentType":5126,
			"count":28,
			"type":"VEC2"
		},
		{
			"bufferView":43,
			"componentType":5123,
			"count":54,
			"type":"SCALAR"
		},
		{
			"bufferView":44,
			"componentType":5126,
			"count":64,
			"max":[
				3,
				6.875,
				5.75
			],
			"min":[
				-3,
				1.0625,
				-1.75
			],
			"type":"VEC3"
		},
		{
			"bufferView":45,
			"componentType":5126,
			"count":64,
			"type":"VEC3"
		},
		{
			"bufferView":46,
			"componentType":5126,
			"count":64,
			"type":"VEC2"
		},
		{
			"bufferView":47,
			"componentType":5123,
			"count":108,
			"type":"SCALAR"
		},
		{
			"bufferView":48,
			"componentType":5126,
			"count":268,
			"max":[
				4,
				11.4375,
				5.1875
			],
			"min":[
				-4,
				0,
				-7.5625
			],
			"type":"VEC3"
		},
		{
			"bufferView":49,
			"componentType":5126,
			"count":268,
			"type":"VEC3"
		},
		{
			"bufferView":50,
			"componentType":5126,
			"count":268,
			"type":"VEC2"
		},
		{
			"bufferView":51,
			"componentType":5123,
			"count":480,
			"type":"SCALAR"
		},
		{
			"bufferView":52,
			"componentType":5126,
			"count":30,
			"max":[
				4,
				0.5,
				4.0625
			],
			"min":[
				-4,
				0,
				-3.9375
			],
			"type":"VEC3"
		},
		{
			"bufferView":53,
			"componentType":5126,
			"count":30,
			"type":"VEC3"
		},
		{
			"bufferView":54,
			"componentType":5126,
			"count":30,
			"type":"VEC2"
		},
		{
			"bufferView":55,
			"componentType":5123,
			"count":54,
			"type":"SCALAR"
		},
		{
			"bufferView":56,
			"componentType":5126,
			"count":78,
			"max":[
				2.8531250953674316,
				11.4375,
				2.5625
			],
			"min":[
				-2.9375,
				8.90625,
				-7.5625
			],
			"type":"VEC3"
		},
		{
			"bufferView":57,
			"componentType":5126,
			"count":78,
			"type":"VEC3"
		},
		{
			"bufferView":58,
			"componentType":5126,
			"count":78,
			"type":"VEC2"
		},
		{
			"bufferView":59,
			"componentType":5123,
			"count":186,
			"type":"SCALAR"
		},
		{
			"bufferView":60,
			"componentType":5126,
			"count":88,
			"max":[
				3,
				10.40625,
				5.75
			],
			"min":[
				-3,
				2.4642856121063232,
				-1.75
			],
			"type":"VEC3"
		},
		{
			"bufferView":61,
			"componentType":5126,
			"count":88,
			"type":"VEC3"
		},
		{
			"bufferView":62,
			"componentType":5126,
			"count":88,
			"type":"VEC2"
		},
		{
			"bufferView":63,
			"componentType":5123,
			"count":150,
			"type":"SCALAR"
		},
		{
			"bufferView":64,
			"componentType":5126,
			"count":20,
			"max":[
				1.5,
				10.90625,
				3.25
			],
			"min":[
				-1.5,
				4.4529690016183494e-17,
				-4.625
			],
			"type":"VEC3"
		},
		{
			"bufferView":65,
			"componentType":5126,
			"count":20,
			"type":"VEC3"
		},
		{
			"bufferView":66,
			"componentType":5126,
			"count":20,
			"type":"VEC2"
		},
		{
			"bufferView":67,
			"componentType":5123,
			"count":42,
			"type":"SCALAR"
		},
		{
			"bufferView":68,
			"componentType":5126,
			"count":62,
			"max":[
				3,
				6.875,
				5.75
			],
			"min":[
				-3,
				1.0625,
				-1.75
			],
			"type":"VEC3"
		},
		{
			"bufferView":69,
			"componentType":5126,
			"count":62,
			"type":"VEC3"
		},
		{
			"bufferView":70,
			"componentType":5126,
			"count":62,
			"type":"VEC2"
		},
		{
			"bufferView":71,
			"componentType":5123,
			"count":102,
			"type":"SCALAR"
		}
	],
	"bufferViews":[
		{
			"buffer":0,
			"byteLength":2808,
			"byteOffset":0,
			"target":34962
		},
		{
			"buffer":0,
			"byteLength":2808,
			"byteOffset":2808,
			"target":34962
		},
		{
			"buffer":0,
			"byteLength":1872,
			"byteOffset":5616,
			"target":34962
		},
		{
			"buffer":0,
			"byteLength":840,
			"byteOffset":7488,
			"target":34963
		},
		{
			"buffer":0,
			"byteLength":336,
			"byteOffset":8328,
			"target":34962
		},
		{
			"buffer":0,
			"byteLength":336,
			"byteOffset":8664,
			"target":34962
		},
		{
			"buffer":0,
			"byteLength":224,
			"byteOffset":9000,
			"target":34962
		},
		{
			"buffer":0,
			"byteLength":108,
			"byteOffset":9224,
			"target":34963
		},
		{
			"buffer":0,
			"byteLength":768,
			"byteOffset":9332,
			"target":34962
		},
		{
			"buffer":0,
			"byteLength":768,
			"byteOffset":10100,
			"target":34962
		},
		{
			"buffer":0,
			"byteLength":512,
			"byteOffset":10868,
			"target":34962
		},
		{
			"buffer":0,
			"byteLength":276,
			"byteOffset":11380,
			"target":34963
		},
		{
			"buffer":0,
			"byteLength":1272,
			"byteOffset":11656,
			"target":34962
		},
		{
			"buffer":0,
			"byteLength":1272,
			"byteOffset":12928,
			"target":34962
		},
		{
			"buffer":0,
			"byteLength":848,
			"byteOffset":14200,
			"target":34962
		},
		{
			"buffer":0,
			"byteLength":348,
			"byteOffset":15048,
			"target":34963
		},
		{
			"buffer":0,
			"byteLength":480,
			"byteOffset":15396,
			"target":34962
		},
		{
			"buffer":0,
			"byteLength":480,
			"byteOffset":15876,
			"target":34962
		},
		{
			"buffer":0,
			"byteLength":320,
			"byteOffset":16356,
			"target":34962
		},
		{
			"buffer":0,
			"byteLength":132,
			"byteOffset":16676,
			"target":34963
		},
		{
			"buffer":0,
			"byteLength":744,
			"byteOffset":16808,
			"target":34962
		},
		{
			"buffer":0,
			"byteLength":744,
			"byteOffset":17552,
			"target":34962
		},
		{
			"buffer":0,
			"byteLength":496,
			"byteOffset":18296,
			"target":34962
		},
		{
			"buffer":0,
			"byteLength":204,
			"byteOffset":18792,
			"target":34963
		},
		{
			"buffer":0,
			"byteLength":3480,
			"byteOffset":18996,
			"target":34962
		},
		{
			"buffer":0,
			"byteLength":3480,
			"byteOffset":22476,
			"target":34962
		},
		{
			"buffer":0,
			"byteLength":2320,
			"byteOffset":25956,
			"target":34962
		},
		{
			"buffer":0,
			"byteLength":1032,
			"byteOffset":28276,
			"target":34963
		},
		{
			"buffer":0,
			"byteLength":360,
			"byteOffset":29308,
			"target":34962
		},
		{
			"buffer":0,
			"byteLength":360,
			"byteOffset":29668,
			"target":34962
		},
		{
			"buffer":0,
			"byteLength":240,
			"byteOffset":30028,
			"target":34962
		},
		{
			"buffer":0,
			"byteLength":108,
			"byteOffset":30268,
			"target":34963
		},
		{
			"buffer":0,
			"byteLength":816,
			"byteOffset":30376,
			"target":34962
		},
		{
			"buffer":0,
			"byteLength":816,
			"byteOffset":31192,
			"target":34962
		},
		{
			"buffer":0,
			"byteLength":544,
			"byteOffset":32008,
			"target":34962
		},
		{
			"buffer":0,
			"byteLength":300,
			"byteOffset":32552,
			"target":34963
		},
		{
			"buffer":0,
			"byteLength":1008,
			"byteOffset":32852,
			"target":34962
		},
		{
			"buffer":0,
			"byteLength":1008,
			"byteOffset":33860,
			"target":34962
		},
		{
			"buffer":0,
			"byteLength":672,
			"byteOffset":34868,
			"target":34962
		},
		{
			"buffer":0,
			"byteLength":288,
			"byteOffset":35540,
			"target":34963
		},
		{
			"buffer":0,
			"byteLength":336,
			"byteOffset":35828,
			"target":34962
		},
		{
			"buffer":0,
			"byteLength":336,
			"byteOffset":36164,
			"target":34962
		},
		{
			"buffer":0,
			"byteLength":224,
			"byteOffset":36500,
			"target":34962
		},
		{
			"buffer":0,
			"byteLength":108,
			"byteOffset":36724,
			"target":34963
		},
		{
			"buffer":0,
			"byteLength":768,
			"byteOffset":36832,
			"target":34962
		},
		{
			"buffer":0,
			"byteLength":768,
			"byteOffset":37600,
			"target":34962
		},
		{
			"buffer":0,
			"byteLength":512,
			"byteOffset":38368,
			"target":34962
		},
		{
			"buffer":0,
			"byteLength":216,
			"byteOffset":38880,
			"target":34963
		},
		{
			"buffer":0,
			"byteLength":3216,
			"byteOffset":39096,
			"target":34962
		},
		{
			"buffer":0,
			"byteLength":3216,
			"byteOffset":42312,
			"target":34962
		},
		{
			"buffer":0,
			"byteLength":2144,
			"byteOffset":45528,
			"target":34962
		},
		{
			"buffer":0,
			"byteLength":960,
			"byteOffset":47672,
			"target":34963
		},
		{
			"buffer":0,
			"byteLength":360,
			"byteOffset":48632,
			"target":34962
		},
		{
			"buffer":0,
			"byteLength":360,
			"byteOffset":48992,
			"target":34962
		},
		{
			"buffer":0,
			"byteLength":240,
			"byteOffset":49352,
			"target":34962
		},
		{
			"buffer":0,
			"byteLength":108,
			"byteOffset":49592,
			"target":34963
		},
		{
			"buffer":0,
			"byteLength":936,
			"byteOffset":49700,
			"target":34962
		},
		{
			"buffer":0,
			"byteLength":936,
			"byteOffset":50636,
			"target":34962
		},
		{
			"buffer":0,
			"byteLength":624,
			"byteOffset":51572,
			"target":34962
		},
		{
			"buffer":0,
			"byteLength":372,
			"byteOffset":52196,
			"target":34963
		},
		{
			"buffer":0,
			"byteLength":1056,
			"byteOffset":52568,
			"target":34962
		},
		{
			"buffer":0,
			"byteLength":1056,
			"byteOffset":53624,
			"target":34962
		},
		{
			"buffer":0,
			"byteLength":704,
			"byteOffset":54680,
			"target":34962
		},
		{
			"buffer":0,
			"byteLength":300,
			"byteOffset":55384,
			"target":34963
		},
		{
			"buffer":0,
			"byteLength":240,
			"byteOffset":55684,
			"target":34962
		},
		{
			"buffer":0,
			"byteLength":240,
			"byteOffset":55924,
			"target":34962
		},
		{
			"buffer":0,
			"byteLength":160,
			"byteOffset":56164,
			"target":34962
		},
		{
			"buffer":0,
			"byteLength":84,
			"byteOffset":56324,
			"target":34963
		},
		{
			"buffer":0,
			"byteLength":744,
			"byteOffset":56408,
			"target":34962
		},
		{
			"buffer":0,
			"byteLength":744,
			"byteOffset":57152,
			"target":34962
		},
		{
			"buffer":0,
			"byteLength":496,
			"byteOffset":57896,
			"target":34962
		},
		{
			"buffer":0,
			"byteLength":204,
			"byteOffset":58392,
			"target":34963
		}
	],
	"buffers":[
		{
			"byteLength":58596,
			"uri":"pmisc1.bin"
		}
	]
}
