{
	"asset":{
		"generator":"Khronos glTF Blender I/O v4.5.48",
		"version":"2.0"
	},
	"scene":0,
	"scenes":[
		{
			"name":"Scene",
			"nodes":[
				0,
				1
			]
		}
	],
	"nodes":[
		{
			"mesh":0,
			"name":"Object"
		},
		{
			"mesh":1,
			"name":"Object.001"
		}
	],
	"materials":[
		{
			"doubleSided":true,
			"name":"CP_IFLO01",
			"pbrMetallicRoughness":{
				"baseColorFactor":[
					0.800000011920929,
					0.800000011920929,
					0.800000011920929,
					1
				],
				"metallicFactor":0,
				"roughnessFactor":0.5
			}
		},
		{
			"doubleSided":true,
			"name":"CP_EWAL01",
			"pbrMetallicRoughness":{
				"baseColorFactor":[
					0.800000011920929,
					0.800000011920929,
					0.800000011920929,
					1
				],
				"metallicFactor":0,
				"roughnessFactor":0.5
			}
		},
		{
			"doubleSided":true,
			"name":"CP_ISPECBASE01D",
			"pbrMetallicRoughness":{
				"baseColorFactor":[
					0.800000011920929,
					0.800000011920929,
					0.800000011920929,
					1
				],
				"metallicFactor":0,
				"roughnessFactor":0.5
			}
		},
		{
			"doubleSided":true,
			"name":"CP_EWAL01E",
			"pbrMetallicRoughness":{
				"baseColorFactor":[
					0.800000011920929,
					0.800000011920929,
					0.800000011920929,
					1
				],
				"metallicFactor":0,
				"roughnessFactor":0.5
			}
		},
		{
			"doubleSided":true,
			"name":"CP_IFLO01.001",
			"pbrMetallicRoughness":{
				"baseColorFactor":[
					0.800000011920929,
					0.800000011920929,
					0.800000011920929,
					1
				],
				"metallicFactor":0,
				"roughnessFactor":0.5
			}
		},
		{
			"doubleSided":true,
			"name":"CP_ISPECBASE01D.001",
			"pbrMetallicRoughness":{
				"baseColorFactor":[
					0.800000011920929,
					0.800000011920929,
					0.800000011920929,
					1
				],
				"metallicFactor":0,
				"roughnessFactor":0.5
			}
		},
		{
			"doubleSided":true,
			"name":"CP_EWAL01E.001",
			"pbrMetallicRoughness":{
				"baseColorFactor":[
					0.800000011920929,
					0.800000011920929,
					0.800000011920929,
					1
				],
				"metallicFactor":0,
				"roughnessFactor":0.5
			}
		}
	],
	"meshes":[
		{
			"name":"Mesh",
			"primitives":[
				{
					"attributes":{
						"POSITION":0,
						"NORMAL":1,
						"TEXCOORD_0":2
					},
					"indices":3,
					"material":0
				},
				{
					"attributes":{
						"POSITION":4,
						"NORMAL":5,
						"TEXCOORD_0":6
					},
					"indices":7,
					"material":1
				},
				{
					"attributes":{
						"POSITION":8,
						"NORMAL":9,
						"TEXCOORD_0":10
					},
					"indices":11,
					"material":2
				},
				{
					"attributes":{
						"POSITION":12,
						"NORMAL":13,
						"TEXCOORD_0":14
					},
					"indices":15,
					"material":3
				}
			]
		},
		{
			"name":"Mesh.001",
			"primitives":[
				{
					"attributes":{
						"POSITION":16,
						"NORMAL":17,
						"TEXCOORD_0":18
					},
					"indices":3,
					"material":4
				},
				{
					"attributes":{
						"POSITION":19,
						"NORMAL":20,
						"TEXCOORD_0":21
					},
					"indices":22,
					"material":5
				},
				{
					"attributes":{
						"POSITION":23,
						"NORMAL":24,
						"TEXCOORD_0":25
					},
					"indices":26,
					"material":6
				}
			]
		}
	],
	"accessors":[
		{
			"bufferView":0,
			"componentType":5126,
			"count":4,
			"max":[
				4,
				1,
				6
			],
			"min":[
				-4,
				1,
				-6
			],
			"type":"VEC3"
		},
		{
			"bufferView":1,
			"componentType":5126,
			"count":4,
			"type":"VEC3"
		},
		{
			"bufferView":2,
			"componentType":5126,
			"count":4,
			"type":"VEC2"
		},
		{
			"bufferView":3,
			"componentType":5123,
			"count":6,
			"type":"SCALAR"
		},
		{
			"bufferView":4,
			"componentType":5126,
			"count":14,
			"max":[
				4,
				0,
				6
			],
			"min":[
				-4,
				0,
				-6
			],
			"type":"VEC3"
		},
		{
			"bufferView":5,
			"componentType":5126,
			"count":14,
			"type":"VEC3"
		},
		{
			"bufferView":6,
			"componentType":5126,
			"count":14,
			"type":"VEC2"
		},
		{
			"bufferView":7,
			"componentType":5123,
			"count":30,
			"type":"SCALAR"
		},
		{
			"bufferView":8,
			"componentType":5126,
			"count":23,
			"max":[
				4,
				1,
				6
			],
			"min":[
				-4,
				0,
				-6
			],
			"type":"VEC3"
		},
		{
			"bufferView":9,
			"componentType":5126,
			"count":23,
			"type":"VEC3"
		},
		{
			"bufferView":10,
			"componentType":5126,
			"count":23,
			"type":"VEC2"
		},
		{
			"bufferView":11,
			"componentType":5123,
			"count":45,
			"type":"SCALAR"
		},
		{
			"bufferView":12,
			"componentType":5126,
			"count":35,
			"max":[
				4,
				0,
				6
			],
			"min":[
				-3.96875,
				-3.9989120960235596,
				-6
			],
			"type":"VEC3"
		},
		{
			"bufferView":13,
			"componentType":5126,
			"count":35,
			"type":"VEC3"
		},
		{
			"bufferView":14,
			"componentType":5126,
			"count":35,
			"type":"VEC2"
		},
		{
			"bufferView":15,
			"componentType":5123,
			"count":57,
			"type":"SCALAR"
		},
		{
			"bufferView":16,
			"componentType":5126,
			"count":4,
			"max":[
				4,
				1,
				6
			],
			"min":[
				-4,
				1,
				-6
			],
			"type":"VEC3"
		},
		{
			"bufferView":17,
			"componentType":5126,
			"count":4,
			"type":"VEC3"
		},
		{
			"bufferView":18,
			"componentType":5126,
			"count":4,
			"type":"VEC2"
		},
		{
			"bufferView":19,
			"componentType":5126,
			"count":16,
			"max":[
				4,
				1,
				6
			],
			"min":[
				-4,
				0,
				-6
			],
			"type":"VEC3"
		},
		{
			"bufferView":20,
			"componentType":5126,
			"count":16,
			"type":"VEC3"
		},
		{
			"bufferView":21,
			"componentType":5126,
			"count":16,
			"type":"VEC2"
		},
		{
			"bufferView":22,
			"componentType":5123,
			"count":24,
			"type":"SCALAR"
		},
		{
			"bufferView":23,
			"componentType":5126,
			"count":14,
			"max":[
				4,
				0,
				6
			],
			"min":[
				-4,
				-4,
				-6
			],
			"type":"VEC3"
		},
		{
			"bufferView":24,
			"componentType":5126,
			"count":14,
			"type":"VEC3"
		},
		{
			"bufferView":25,
			"componentType":5126,
			"count":14,
			"type":"VEC2"
		},
		{
			"bufferView":26,
			"componentType":5123,
			"count":18,
			"type":"SCALAR"
		}
	],
	"bufferViews":[
		{
			"buffer":0,
			"byteLength":48,
			"byteOffset":0,
			"target":34962
		},
		{
			"buffer":0,
			"byteLength":48,
			"byteOffset":48,
			"target":34962
		},
		{
			"buffer":0,
			"byteLength":32,
			"byteOffset":96,
			"target":34962
		},
		{
			"buffer":0,
			"byteLength":12,
			"byteOffset":128,
			"target":34963
		},
		{
			"buffer":0,
			"byteLength":168,
			"byteOffset":140,
			"target":34962
		},
		{
			"buffer":0,
			"byteLength":168,
			"byteOffset":308,
			"target":34962
		},
		{
			"buffer":0,
			"byteLength":112,
			"byteOffset":476,
			"target":34962
		},
		{
			"buffer":0,
			"byteLength":60,
			"byteOffset":588,
			"target":34963
		},
		{
			"buffer":0,
			"byteLength":276,
			"byteOffset":648,
			"target":34962
		},
		{
			"buffer":0,
			"byteLength":276,
			"byteOffset":924,
			"target":34962
		},
		{
			"buffer":0,
			"byteLength":184,
			"byteOffset":1200,
			"target":34962
		},
		{
			"buffer":0,
			"byteLength":90,
			"byteOffset":1384,
			"target":34963
		},
		{
			"buffer":0,
			"byteLength":420,
			"byteOffset":1476,
			"target":34962
		},
		{
			"buffer":0,
			"byteLength":420,
			"byteOffset":1896,
			"target":34962
		},
		{
			"buffer":0,
			"byteLength":280,
			"byteOffset":2316,
			"target":34962
		},
		{
			"buffer":0,
			"byteLength":114,
			"byteOffset":2596,
			"target":34963
		},
		{
			"buffer":0,
			"byteLength":48,
			"byteOffset":2712,
			"target":34962
		},
		{
			"buffer":0,
			"byteLength":48,
			"byteOffset":2760,
			"target":34962
		},
		{
			"buffer":0,
			"byteLength":32,
			"byteOffset":2808,
			"target":34962
		},
		{
			"buffer":0,
			"byteLength":192,
			"byteOffset":2840,
			"target":34962
		},
		{
			"buffer":0,
			"byteLength":192,
			"byteOffset":3032,
			"target":34962
		},
		{
			"buffer":0,
			"byteLength":128,
			"byteOffset":3224,
			"target":34962
		},
		{
			"buffer":0,
			"byteLength":48,
			"byteOffset":3352,
			"target":34963
		},
		{
			"buffer":0,
			"byteLength":168,
			"byteOffset":3400,
			"target":34962
		},
		{
			"buffer":0,
			"byteLength":168,
			"byteOffset":3568,
			"target":34962
		},
		{
			"buffer":0,
			"byteLength":112,
			"byteOffset":3736,
			"target":34962
		},
		{
			"buffer":0,
			"byteLength":36,
			"byteOffset":3848,
			"target":34963
		}
	],
	"buffers":[
		{
			"byteLength":3884,
			"uri":"pplat5.bin"
		}
	]
}
