{
	"asset":{
		"generator":"Khronos glTF Blender I/O v4.5.48",
		"version":"2.0"
	},
	"scene":0,
	"scenes":[
		{
			"name":"Scene",
			"nodes":[
				0,
				1,
				2
			]
		}
	],
	"nodes":[
		{
			"mesh":0,
			"name":"Object"
		},
		{
			"mesh":1,
			"name":"Object.001"
		},
		{
			"mesh":2,
			"name":"Object.002"
		}
	],
	"materials":[
		{
			"doubleSided":true,
			"name":"CP_IFLO01",
			"pbrMetallicRoughness":{
				"baseColorFactor":[
					0.800000011920929,
					0.800000011920929,
					0.800000011920929,
					1
				],
				"metallicFactor":0,
				"roughnessFactor":0.5
			}
		},
		{
			"doubleSided":true,
			"name":"CP_EWAL01",
			"pbrMetallicRoughness":{
				"baseColorFactor":[
					0.800000011920929,
					0.800000011920929,
					0.800000011920929,
					1
				],
				"metallicFactor":0,
				"roughnessFactor":0.5
			}
		},
		{
			"doubleSided":true,
			"name":"CP_ISPECBASE01D",
			"pbrMetallicRoughness":{
				"baseColorFactor":[
					0.800000011920929,
					0.800000011920929,
					0.800000011920929,
					1
				],
				"metallicFactor":0,
				"roughnessFactor":0.5
			}
		},
		{
			"doubleSided":true,
			"name":"CP_EWAL01E",
			"pbrMetallicRoughness":{
				"baseColorFactor":[
					0.800000011920929,
					0.800000011920929,
					0.800000011920929,
					1
				],
				"metallicFactor":0,
				"roughnessFactor":0.5
			}
		},
		{
			"doubleSided":true,
			"name":"CP_IFLO01.001",
			"pbrMetallicRoughness":{
				"baseColorFactor":[
					0.800000011920929,
					0.800000011920929,
					0.800000011920929,
					1
				],
				"metallicFactor":0,
				"roughnessFactor":0.5
			}
		},
		{
			"doubleSided":true,
			"name":"CP_EWAL01.001",
			"pbrMetallicRoughness":{
				"baseColorFactor":[
					0.800000011920929,
					0.800000011920929,
					0.800000011920929,
					1
				],
				"metallicFactor":0,
				"roughnessFactor":0.5
			}
		},
		{
			"doubleSided":true,
			"name":"CP_ISPECBASE01D.001",
			"pbrMetallicRoughness":{
				"baseColorFactor":[
					0.800000011920929,
					0.800000011920929,
					0.800000011920929,
					1
				],
				"metallicFactor":0,
				"roughnessFactor":0.5
			}
		},
		{
			"doubleSided":true,
			"name":"CP_EWAL01E.001",
			"pbrMetallicRoughness":{
				"baseColorFactor":[
					0.800000011920929,
					0.800000011920929,
					0.800000011920929,
					1
				],
				"metallicFactor":0,
				"roughnessFactor":0.5
			}
		},
		{
			"doubleSided":true,
			"name":"CP_IFLO01.002",
			"pbrMetallicRoughness":{
				"baseColorFactor":[
					0.800000011920929,
					0.800000011920929,
					0.800000011920929,
					1
				],
				"metallicFactor":0,
				"roughnessFactor":0.5
			}
		},
		{
			"doubleSided":true,
			"name":"CP_ISPECBASE01D.002",
			"pbrMetallicRoughness":{
				"baseColorFactor":[
					0.800000011920929,
					0.800000011920929,
					0.800000011920929,
					1
				],
				"metallicFactor":0,
				"roughnessFactor":0.5
			}
		},
		{
			"doubleSided":true,
			"name":"CP_EWAL01E.002",
			"pbrMetallicRoughness":{
				"baseColorFactor":[
					0.800000011920929,
					0.800000011920929,
					0.800000011920929,
					1
				],
				"metallicFactor":0,
				"roughnessFactor":0.5
			}
		}
	],
	"meshes":[
		{
			"name":"Mesh",
			"primitives":[
				{
					"attributes":{
						"POSITION":0,
						"NORMAL":1,
						"TEXCOORD_0":2
					},
					"indices":3,
					"material":0
				},
				{
					"attributes":{
						"POSITION":4,
						"NORMAL":5,
						"TEXCOORD_0":6
					},
					"indices":7,
					"material":1
				},
				{
					"attributes":{
						"POSITION":8,
						"NORMAL":9,
						"TEXCOORD_0":10
					},
					"indices":11,
					"material":2
				},
				{
					"attributes":{
						"POSITION":12,
						"NORMAL":13,
						"TEXCOORD_0":14
					},
					"indices":15,
					"material":3
				}
			]
		},
		{
			"name":"Mesh.001",
			"primitives":[
				{
					"attributes":{
						"POSITION":16,
						"NORMAL":17,
						"TEXCOORD_0":18
					},
					"indices":3,
					"material":4
				},
				{
					"attributes":{
						"POSITION":19,
						"NORMAL":20,
						"TEXCOORD_0":21
					},
					"indices":22,
					"material":5
				},
				{
					"attributes":{
						"POSITION":23,
						"NORMAL":24,
						"TEXCOORD_0":25
					},
					"indices":26,
					"material":6
				},
				{
					"attributes":{
						"POSITION":27,
						"NORMAL":28,
						"TEXCOORD_0":29
					},
					"indices":30,
					"material":7
				}
			]
		},
		{
			"name":"Mesh.002",
			"primitives":[
				{
					"attributes":{
						"POSITION":31,
						"NORMAL":32,
						"TEXCOORD_0":33
					},
					"indices":3,
					"material":8
				},
				{
					"attributes":{
						"POSITION":34,
						"NORMAL":35,
						"TEXCOORD_0":36
					},
					"indices":37,
					"material":9
				},
				{
					"attributes":{
						"POSITION":38,
						"NORMAL":39,
						"TEXCOORD_0":40
					},
					"indices":41,
					"material":10
				}
			]
		}
	],
	"accessors":[
		{
			"bufferView":0,
			"componentType":5126,
			"count":4,
			"max":[
				4,
				1,
				2
			],
			"min":[
				-4,
				1,
				-2
			],
			"type":"VEC3"
		},
		{
			"bufferView":1,
			"componentType":5126,
			"count":4,
			"type":"VEC3"
		},
		{
			"bufferView":2,
			"componentType":5126,
			"count":4,
			"type":"VEC2"
		},
		{
			"bufferView":3,
			"componentType":5123,
			"count":6,
			"type":"SCALAR"
		},
		{
			"bufferView":4,
			"componentType":5126,
			"count":12,
			"max":[
				4,
				2.0156962159818793e-16,
				2
			],
			"min":[
				-4,
				0,
				-2
			],
			"type":"VEC3"
		},
		{
			"bufferView":5,
			"componentType":5126,
			"count":12,
			"type":"VEC3"
		},
		{
			"bufferView":6,
			"componentType":5126,
			"count":12,
			"type":"VEC2"
		},
		{
			"bufferView":7,
			"componentType":5123,
			"count":18,
			"type":"SCALAR"
		},
		{
			"bufferView":8,
			"componentType":5126,
			"count":23,
			"max":[
				4,
				1,
				2
			],
			"min":[
				-4,
				0,
				-2
			],
			"type":"VEC3"
		},
		{
			"bufferView":9,
			"componentType":5126,
			"count":23,
			"type":"VEC3"
		},
		{
			"bufferView":10,
			"componentType":5126,
			"count":23,
			"type":"VEC2"
		},
		{
			"bufferView":11,
			"componentType":5123,
			"count":45,
			"type":"SCALAR"
		},
		{
			"bufferView":12,
			"componentType":5126,
			"count":41,
			"max":[
				3.96875,
				0,
				2
			],
			"min":[
				-4,
				-3.8026351928710938,
				-2
			],
			"type":"VEC3"
		},
		{
			"bufferView":13,
			"componentType":5126,
			"count":41,
			"type":"VEC3"
		},
		{
			"bufferView":14,
			"componentType":5126,
			"count":41,
			"type":"VEC2"
		},
		{
			"bufferView":15,
			"componentType":5123,
			"count":69,
			"type":"SCALAR"
		},
		{
			"bufferView":16,
			"componentType":5126,
			"count":4,
			"max":[
				4,
				1,
				2
			],
			"min":[
				-4,
				1,
				-2
			],
			"type":"VEC3"
		},
		{
			"bufferView":17,
			"componentType":5126,
			"count":4,
			"type":"VEC3"
		},
		{
			"bufferView":18,
			"componentType":5126,
			"count":4,
			"type":"VEC2"
		},
		{
			"bufferView":19,
			"componentType":5126,
			"count":3,
			"max":[
				4,
				0,
				2
			],
			"min":[
				-4,
				0,
				0.8799999952316284
			],
			"type":"VEC3"
		},
		{
			"bufferView":20,
			"componentType":5126,
			"count":3,
			"type":"VEC3"
		},
		{
			"bufferView":21,
			"componentType":5126,
			"count":3,
			"type":"VEC2"
		},
		{
			"bufferView":22,
			"componentType":5123,
			"count":3,
			"type":"SCALAR"
		},
		{
			"bufferView":23,
			"componentType":5126,
			"count":17,
			"max":[
				4,
				1,
				2
			],
			"min":[
				-4,
				0,
				-2
			],
			"type":"VEC3"
		},
		{
			"bufferView":24,
			"componentType":5126,
			"count":17,
			"type":"VEC3"
		},
		{
			"bufferView":25,
			"componentType":5126,
			"count":17,
			"type":"VEC2"
		},
		{
			"bufferView":26,
			"componentType":5123,
			"count":27,
			"type":"SCALAR"
		},
		{
			"bufferView":27,
			"componentType":5126,
			"count":14,
			"max":[
				4,
				0,
				2
			],
			"min":[
				-4,
				-3.75,
				-2
			],
			"type":"VEC3"
		},
		{
			"bufferView":28,
			"componentType":5126,
			"count":14,
			"type":"VEC3"
		},
		{
			"bufferView":29,
			"componentType":5126,
			"count":14,
			"type":"VEC2"
		},
		{
			"bufferView":30,
			"componentType":5123,
			"count":18,
			"type":"SCALAR"
		},
		{
			"bufferView":31,
			"componentType":5126,
			"count":4,
			"max":[
				4,
				1,
				2
			],
			"min":[
				-4,
				1,
				-2
			],
			"type":"VEC3"
		},
		{
			"bufferView":32,
			"componentType":5126,
			"count":4,
			"type":"VEC3"
		},
		{
			"bufferView":33,
			"componentType":5126,
			"count":4,
			"type":"VEC2"
		},
		{
			"bufferView":34,
			"componentType":5126,
			"count":16,
			"max":[
				4,
				1,
				2
			],
			"min":[
				-4,
				0,
				-2
			],
			"type":"VEC3"
		},
		{
			"bufferView":35,
			"componentType":5126,
			"count":16,
			"type":"VEC3"
		},
		{
			"bufferView":36,
			"componentType":5126,
			"count":16,
			"type":"VEC2"
		},
		{
			"bufferView":37,
			"componentType":5123,
			"count":24,
			"type":"SCALAR"
		},
		{
			"bufferView":38,
			"componentType":5126,
			"count":12,
			"max":[
				4,
				0,
				2
			],
			"min":[
				-4,
				-3.75,
				-2
			],
			"type":"VEC3"
		},
		{
			"bufferView":39,
			"componentType":5126,
			"count":12,
			"type":"VEC3"
		},
		{
			"bufferView":40,
			"componentType":5126,
			"count":12,
			"type":"VEC2"
		},
		{
			"bufferView":41,
			"componentType":5123,
			"count":12,
			"type":"SCALAR"
		}
	],
	"bufferViews":[
		{
			"buffer":0,
			"byteLength":48,
			"byteOffset":0,
			"target":34962
		},
		{
			"buffer":0,
			"byteLength":48,
			"byteOffset":48,
			"target":34962
		},
		{
			"buffer":0,
			"byteLength":32,
			"byteOffset":96,
			"target":34962
		},
		{
			"buffer":0,
			"byteLength":12,
			"byteOffset":128,
			"target":34963
		},
		{
			"buffer":0,
			"byteLength":144,
			"byteOffset":140,
			"target":34962
		},
		{
			"buffer":0,
			"byteLength":144,
			"byteOffset":284,
			"target":34962
		},
		{
			"buffer":0,
			"byteLength":96,
			"byteOffset":428,
			"target":34962
		},
		{
			"buffer":0,
			"byteLength":36,
			"byteOffset":524,
			"target":34963
		},
		{
			"buffer":0,
			"byteLength":276,
			"byteOffset":560,
			"target":34962
		},
		{
			"buffer":0,
			"byteLength":276,
			"byteOffset":836,
			"target":34962
		},
		{
			"buffer":0,
			"byteLength":184,
			"byteOffset":1112,
			"target":34962
		},
		{
			"buffer":0,
			"byteLength":90,
			"byteOffset":1296,
			"target":34963
		},
		{
			"buffer":0,
			"byteLength":492,
			"byteOffset":1388,
			"target":34962
		},
		{
			"buffer":0,
			"byteLength":492,
			"byteOffset":1880,
			"target":34962
		},
		{
			"buffer":0,
			"byteLength":328,
			"byteOffset":2372,
			"target":34962
		},
		{
			"buffer":0,
			"byteLength":138,
			"byteOffset":2700,
			"target":34963
		},
		{
			"buffer":0,
			"byteLength":48,
			"byteOffset":2840,
			"target":34962
		},
		{
			"buffer":0,
			"byteLength":48,
			"byteOffset":2888,
			"target":34962
		},
		{
			"buffer":0,
			"byteLength":32,
			"byteOffset":2936,
			"target":34962
		},
		{
			"buffer":0,
			"byteLength":36,
			"byteOffset":2968,
			"target":34962
		},
		{
			"buffer":0,
			"byteLength":36,
			"byteOffset":3004,
			"target":34962
		},
		{
			"buffer":0,
			"byteLength":24,
			"byteOffset":3040,
			"target":34962
		},
		{
			"buffer":0,
			"byteLength":6,
			"byteOffset":3064,
			"target":34963
		},
		{
			"buffer":0,
			"byteLength":204,
			"byteOffset":3072,
			"target":34962
		},
		{
			"buffer":0,
			"byteLength":204,
			"byteOffset":3276,
			"target":34962
		},
		{
			"buffer":0,
			"byteLength":136,
			"byteOffset":3480,
			"target":34962
		},
		{
			"buffer":0,
			"byteLength":54,
			"byteOffset":3616,
			"target":34963
		},
		{
			"buffer":0,
			"byteLength":168,
			"byteOffset":3672,
			"target":34962
		},
		{
			"buffer":0,
			"byteLength":168,
			"byteOffset":3840,
			"target":34962
		},
		{
			"buffer":0,
			"byteLength":112,
			"byteOffset":4008,
			"target":34962
		},
		{
			"buffer":0,
			"byteLength":36,
			"byteOffset":4120,
			"target":34963
		},
		{
			"buffer":0,
			"byteLength":48,
			"byteOffset":4156,
			"target":34962
		},
		{
			"buffer":0,
			"byteLength":48,
			"byteOffset":4204,
			"target":34962
		},
		{
			"buffer":0,
			"byteLength":32,
			"byteOffset":4252,
			"target":34962
		},
		{
			"buffer":0,
			"byteLength":192,
			"byteOffset":4284,
			"target":34962
		},
		{
			"buffer":0,
			"byteLength":192,
			"byteOffset":4476,
			"target":34962
		},
		{
			"buffer":0,
			"byteLength":128,
			"byteOffset":4668,
			"target":34962
		},
		{
			"buffer":0,
			"byteLength":48,
			"byteOffset":4796,
			"target":34963
		},
		{
			"buffer":0,
			"byteLength":144,
			"byteOffset":4844,
			"target":34962
		},
		{
			"buffer":0,
			"byteLength":144,
			"byteOffset":4988,
			"target":34962
		},
		{
			"buffer":0,
			"byteLength":96,
			"byteOffset":5132,
			"target":34962
		},
		{
			"buffer":0,
			"byteLength":24,
			"byteOffset":5228,
			"target":34963
		}
	],
	"buffers":[
		{
			"byteLength":5252,
			"uri":"pplat4.bin"
		}
	]
}
