{
	"asset":{
		"generator":"Khronos glTF Blender I/O v4.5.48",
		"version":"2.0"
	},
	"scene":0,
	"scenes":[
		{
			"name":"Scene",
			"nodes":[
				0,
				1,
				2
			]
		}
	],
	"nodes":[
		{
			"mesh":0,
			"name":"Object"
		},
		{
			"mesh":1,
			"name":"Object.001"
		},
		{
			"mesh":2,
			"name":"Object.002"
		}
	],
	"materials":[
		{
			"doubleSided":true,
			"name":"CP_IFLO01",
			"pbrMetallicRoughness":{
				"baseColorFactor":[
					0.800000011920929,
					0.800000011920929,
					0.800000011920929,
					1
				],
				"metallicFactor":0,
				"roughnessFactor":0.5
			}
		},
		{
			"doubleSided":true,
			"name":"CP_EWAL01B",
			"pbrMetallicRoughness":{
				"baseColorFactor":[
					0.800000011920929,
					0.800000011920929,
					0.800000011920929,
					1
				],
				"metallicFactor":0,
				"roughnessFactor":0.5
			}
		},
		{
			"doubleSided":true,
			"name":"CP_ESPEC03",
			"pbrMetallicRoughness":{
				"baseColorFactor":[
					0.800000011920929,
					0.800000011920929,
					0.800000011920929,
					1
				],
				"metallicFactor":0,
				"roughnessFactor":0.5
			}
		},
		{
			"doubleSided":true,
			"name":"CP_EWAL01",
			"pbrMetallicRoughness":{
				"baseColorFactor":[
					0.800000011920929,
					0.800000011920929,
					0.800000011920929,
					1
				],
				"metallicFactor":0,
				"roughnessFactor":0.5
			}
		},
		{
			"doubleSided":true,
			"name":"CP_EWAL01E",
			"pbrMetallicRoughness":{
				"baseColorFactor":[
					0.800000011920929,
					0.800000011920929,
					0.800000011920929,
					1
				],
				"metallicFactor":0,
				"roughnessFactor":0.5
			}
		},
		{
			"doubleSided":true,
			"name":"CP_ISTRFACE01D",
			"pbrMetallicRoughness":{
				"baseColorFactor":[
					0.800000011920929,
					0.800000011920929,
					0.800000011920929,
					1
				],
				"metallicFactor":0,
				"roughnessFactor":0.5
			}
		},
		{
			"doubleSided":true,
			"name":"CP_ISTRFACE01H",
			"pbrMetallicRoughness":{
				"baseColorFactor":[
					0.800000011920929,
					0.800000011920929,
					0.800000011920929,
					1
				],
				"metallicFactor":0,
				"roughnessFactor":0.5
			}
		},
		{
			"doubleSided":true,
			"name":"CP_EWAL01A",
			"pbrMetallicRoughness":{
				"baseColorFactor":[
					0.800000011920929,
					0.800000011920929,
					0.800000011920929,
					1
				],
				"metallicFactor":0,
				"roughnessFactor":0.5
			}
		},
		{
			"doubleSided":true,
			"name":"CP_IFLO01.001",
			"pbrMetallicRoughness":{
				"baseColorFactor":[
					0.800000011920929,
					0.800000011920929,
					0.800000011920929,
					1
				],
				"metallicFactor":0,
				"roughnessFactor":0.5
			}
		},
		{
			"doubleSided":true,
			"name":"CP_EWAL01B.001",
			"pbrMetallicRoughness":{
				"baseColorFactor":[
					0.800000011920929,
					0.800000011920929,
					0.800000011920929,
					1
				],
				"metallicFactor":0,
				"roughnessFactor":0.5
			}
		},
		{
			"doubleSided":true,
			"name":"CP_ESPEC03.001",
			"pbrMetallicRoughness":{
				"baseColorFactor":[
					0.800000011920929,
					0.800000011920929,
					0.800000011920929,
					1
				],
				"metallicFactor":0,
				"roughnessFactor":0.5
			}
		},
		{
			"doubleSided":true,
			"name":"CP_EWAL01.001",
			"pbrMetallicRoughness":{
				"baseColorFactor":[
					0.800000011920929,
					0.800000011920929,
					0.800000011920929,
					1
				],
				"metallicFactor":0,
				"roughnessFactor":0.5
			}
		},
		{
			"doubleSided":true,
			"name":"CP_ISTRFACE01D.001",
			"pbrMetallicRoughness":{
				"baseColorFactor":[
					0.800000011920929,
					0.800000011920929,
					0.800000011920929,
					1
				],
				"metallicFactor":0,
				"roughnessFactor":0.5
			}
		},
		{
			"doubleSided":true,
			"name":"CP_ISTRFACE01H.001",
			"pbrMetallicRoughness":{
				"baseColorFactor":[
					0.800000011920929,
					0.800000011920929,
					0.800000011920929,
					1
				],
				"metallicFactor":0,
				"roughnessFactor":0.5
			}
		},
		{
			"doubleSided":true,
			"name":"CP_EWAL01A.001",
			"pbrMetallicRoughness":{
				"baseColorFactor":[
					0.800000011920929,
					0.800000011920929,
					0.800000011920929,
					1
				],
				"metallicFactor":0,
				"roughnessFactor":0.5
			}
		},
		{
			"doubleSided":true,
			"name":"CP_IFLO01.002",
			"pbrMetallicRoughness":{
				"baseColorFactor":[
					0.800000011920929,
					0.800000011920929,
					0.800000011920929,
					1
				],
				"metallicFactor":0,
				"roughnessFactor":0.5
			}
		},
		{
			"doubleSided":true,
			"name":"CP_EWAL01B.002",
			"pbrMetallicRoughness":{
				"baseColorFactor":[
					0.800000011920929,
					0.800000011920929,
					0.800000011920929,
					1
				],
				"metallicFactor":0,
				"roughnessFactor":0.5
			}
		},
		{
			"doubleSided":true,
			"name":"CP_ESPEC03.002",
			"pbrMetallicRoughness":{
				"baseColorFactor":[
					0.800000011920929,
					0.800000011920929,
					0.800000011920929,
					1
				],
				"metallicFactor":0,
				"roughnessFactor":0.5
			}
		},
		{
			"doubleSided":true,
			"name":"CP_EWAL01.002",
			"pbrMetallicRoughness":{
				"baseColorFactor":[
					0.800000011920929,
					0.800000011920929,
					0.800000011920929,
					1
				],
				"metallicFactor":0,
				"roughnessFactor":0.5
			}
		},
		{
			"doubleSided":true,
			"name":"CP_ISTRFACE01D.002",
			"pbrMetallicRoughness":{
				"baseColorFactor":[
					0.800000011920929,
					0.800000011920929,
					0.800000011920929,
					1
				],
				"metallicFactor":0,
				"roughnessFactor":0.5
			}
		}
	],
	"meshes":[
		{
			"name":"Mesh",
			"primitives":[
				{
					"attributes":{
						"POSITION":0,
						"NORMAL":1,
						"TEXCOORD_0":2
					},
					"indices":3,
					"material":0
				},
				{
					"attributes":{
						"POSITION":4,
						"NORMAL":5,
						"TEXCOORD_0":6
					},
					"indices":7,
					"material":1
				},
				{
					"attributes":{
						"POSITION":8,
						"NORMAL":9,
						"TEXCOORD_0":10
					},
					"indices":11,
					"material":2
				},
				{
					"attributes":{
						"POSITION":12,
						"NORMAL":13,
						"TEXCOORD_0":14
					},
					"indices":15,
					"material":3
				},
				{
					"attributes":{
						"POSITION":16,
						"NORMAL":17,
						"TEXCOORD_0":18
					},
					"indices":19,
					"material":4
				},
				{
					"attributes":{
						"POSITION":20,
						"NORMAL":21,
						"TEXCOORD_0":22
					},
					"indices":23,
					"material":5
				},
				{
					"attributes":{
						"POSITION":24,
						"NORMAL":25,
						"TEXCOORD_0":26
					},
					"indices":27,
					"material":6
				},
				{
					"attributes":{
						"POSITION":28,
						"NORMAL":29,
						"TEXCOORD_0":30
					},
					"indices":31,
					"material":7
				}
			]
		},
		{
			"name":"Mesh.001",
			"primitives":[
				{
					"attributes":{
						"POSITION":32,
						"NORMAL":33,
						"TEXCOORD_0":34
					},
					"indices":35,
					"material":8
				},
				{
					"attributes":{
						"POSITION":36,
						"NORMAL":37,
						"TEXCOORD_0":38
					},
					"indices":39,
					"material":9
				},
				{
					"attributes":{
						"POSITION":40,
						"NORMAL":41,
						"TEXCOORD_0":42
					},
					"indices":43,
					"material":10
				},
				{
					"attributes":{
						"POSITION":44,
						"NORMAL":45,
						"TEXCOORD_0":46
					},
					"indices":47,
					"material":11
				},
				{
					"attributes":{
						"POSITION":48,
						"NORMAL":49,
						"TEXCOORD_0":50
					},
					"indices":51,
					"material":12
				},
				{
					"attributes":{
						"POSITION":52,
						"NORMAL":53,
						"TEXCOORD_0":54
					},
					"indices":55,
					"material":13
				},
				{
					"attributes":{
						"POSITION":56,
						"NORMAL":57,
						"TEXCOORD_0":58
					},
					"indices":59,
					"material":14
				}
			]
		},
		{
			"name":"Mesh.002",
			"primitives":[
				{
					"attributes":{
						"POSITION":60,
						"NORMAL":61,
						"TEXCOORD_0":62
					},
					"indices":63,
					"material":15
				},
				{
					"attributes":{
						"POSITION":64,
						"NORMAL":65,
						"TEXCOORD_0":66
					},
					"indices":67,
					"material":16
				},
				{
					"attributes":{
						"POSITION":68,
						"NORMAL":69,
						"TEXCOORD_0":70
					},
					"indices":71,
					"material":17
				},
				{
					"attributes":{
						"POSITION":72,
						"NORMAL":73,
						"TEXCOORD_0":74
					},
					"indices":75,
					"material":18
				},
				{
					"attributes":{
						"POSITION":76,
						"NORMAL":77,
						"TEXCOORD_0":78
					},
					"indices":79,
					"material":19
				}
			]
		}
	],
	"accessors":[
		{
			"bufferView":0,
			"componentType":5126,
			"count":28,
			"max":[
				6,
				2,
				6
			],
			"min":[
				-6,
				2,
				-6
			],
			"type":"VEC3"
		},
		{
			"bufferView":1,
			"componentType":5126,
			"count":28,
			"type":"VEC3"
		},
		{
			"bufferView":2,
			"componentType":5126,
			"count":28,
			"type":"VEC2"
		},
		{
			"bufferView":3,
			"componentType":5123,
			"count":102,
			"type":"SCALAR"
		},
		{
			"bufferView":4,
			"componentType":5126,
			"count":76,
			"max":[
				6,
				-1,
				6
			],
			"min":[
				-6,
				-8,
				-6
			],
			"type":"VEC3"
		},
		{
			"bufferView":5,
			"componentType":5126,
			"count":76,
			"type":"VEC3"
		},
		{
			"bufferView":6,
			"componentType":5126,
			"count":76,
			"type":"VEC2"
		},
		{
			"bufferView":7,
			"componentType":5123,
			"count":162,
			"type":"SCALAR"
		},
		{
			"bufferView":8,
			"componentType":5126,
			"count":151,
			"max":[
				6,
				13,
				6
			],
			"min":[
				-6,
				-1,
				-6
			],
			"type":"VEC3"
		},
		{
			"bufferView":9,
			"componentType":5126,
			"count":151,
			"type":"VEC3"
		},
		{
			"bufferView":10,
			"componentType":5126,
			"count":151,
			"type":"VEC2"
		},
		{
			"bufferView":11,
			"componentType":5123,
			"count":237,
			"type":"SCALAR"
		},
		{
			"bufferView":12,
			"componentType":5126,
			"count":774,
			"max":[
				6.110479354858398,
				13.5,
				5.5
			],
			"min":[
				-5.5,
				-14.912999153137207,
				-6.114840030670166
			],
			"type":"VEC3"
		},
		{
			"bufferView":13,
			"componentType":5126,
			"count":774,
			"type":"VEC3"
		},
		{
			"bufferView":14,
			"componentType":5126,
			"count":774,
			"type":"VEC2"
		},
		{
			"bufferView":15,
			"componentType":5123,
			"count":1743,
			"type":"SCALAR"
		},
		{
			"bufferView":16,
			"componentType":5126,
			"count":95,
			"max":[
				5.046875,
				-8,
				4.5
			],
			"min":[
				-3.125,
				-15.5,
				-3.5
			],
			"type":"VEC3"
		},
		{
			"bufferView":17,
			"componentType":5126,
			"count":95,
			"type":"VEC3"
		},
		{
			"bufferView":18,
			"componentType":5126,
			"count":95,
			"type":"VEC2"
		},
		{
			"bufferView":19,
			"componentType":5123,
			"count":159,
			"type":"SCALAR"
		},
		{
			"bufferView":20,
			"componentType":5126,
			"count":24,
			"max":[
				6,
				2,
				6
			],
			"min":[
				-6,
				1.5,
				-6
			],
			"type":"VEC3"
		},
		{
			"bufferView":21,
			"componentType":5126,
			"count":24,
			"type":"VEC3"
		},
		{
			"bufferView":22,
			"componentType":5126,
			"count":24,
			"type":"VEC2"
		},
		{
			"bufferView":23,
			"componentType":5123,
			"count":48,
			"type":"SCALAR"
		},
		{
			"bufferView":24,
			"componentType":5126,
			"count":64,
			"max":[
				5.5,
				13.5,
				5.5
			],
			"min":[
				-5.5,
				13,
				-5.5
			],
			"type":"VEC3"
		},
		{
			"bufferView":25,
			"componentType":5126,
			"count":64,
			"type":"VEC3"
		},
		{
			"bufferView":26,
			"componentType":5126,
			"count":64,
			"type":"VEC2"
		},
		{
			"bufferView":27,
			"componentType":5123,
			"count":96,
			"type":"SCALAR"
		},
		{
			"bufferView":28,
			"componentType":5126,
			"count":661,
			"max":[
				5.600863933563232,
				-1.5975334644317627,
				4.4357428550720215
			],
			"min":[
				-5.502511978149414,
				-14.78758430480957,
				-5.933903217315674
			],
			"type":"VEC3"
		},
		{
			"bufferView":29,
			"componentType":5126,
			"count":661,
			"type":"VEC3"
		},
		{
			"bufferView":30,
			"componentType":5126,
			"count":661,
			"type":"VEC2"
		},
		{
			"bufferView":31,
			"componentType":5123,
			"count":1362,
			"type":"SCALAR"
		},
		{
			"bufferView":32,
			"componentType":5126,
			"count":28,
			"max":[
				6,
				2,
				6
			],
			"min":[
				-6,
				2,
				-6
			],
			"type":"VEC3"
		},
		{
			"bufferView":33,
			"componentType":5126,
			"count":28,
			"type":"VEC3"
		},
		{
			"bufferView":34,
			"componentType":5126,
			"count":28,
			"type":"VEC2"
		},
		{
			"bufferView":35,
			"componentType":5123,
			"count":102,
			"type":"SCALAR"
		},
		{
			"bufferView":36,
			"componentType":5126,
			"count":59,
			"max":[
				6,
				-1,
				6
			],
			"min":[
				-6,
				-15.5,
				-6
			],
			"type":"VEC3"
		},
		{
			"bufferView":37,
			"componentType":5126,
			"count":59,
			"type":"VEC3"
		},
		{
			"bufferView":38,
			"componentType":5126,
			"count":59,
			"type":"VEC2"
		},
		{
			"bufferView":39,
			"componentType":5123,
			"count":123,
			"type":"SCALAR"
		},
		{
			"bufferView":40,
			"componentType":5126,
			"count":87,
			"max":[
				6,
				13,
				6
			],
			"min":[
				-6,
				-1,
				-6
			],
			"type":"VEC3"
		},
		{
			"bufferView":41,
			"componentType":5126,
			"count":87,
			"type":"VEC3"
		},
		{
			"bufferView":42,
			"componentType":5126,
			"count":87,
			"type":"VEC2"
		},
		{
			"bufferView":43,
			"componentType":5123,
			"count":141,
			"type":"SCALAR"
		},
		{
			"bufferView":44,
			"componentType":5126,
			"count":741,
			"max":[
				6.110479354858398,
				13.5,
				5.5
			],
			"min":[
				-5.5,
				-14.946673393249512,
				-6.114840030670166
			],
			"type":"VEC3"
		},
		{
			"bufferView":45,
			"componentType":5126,
			"count":741,
			"type":"VEC3"
		},
		{
			"bufferView":46,
			"componentType":5126,
			"count":741,
			"type":"VEC2"
		},
		{
			"bufferView":47,
			"componentType":5123,
			"count":1581,
			"type":"SCALAR"
		},
		{
			"bufferView":48,
			"componentType":5126,
			"count":24,
			"max":[
				6,
				2,
				6
			],
			"min":[
				-6,
				1.5,
				-6
			],
			"type":"VEC3"
		},
		{
			"bufferView":49,
			"componentType":5126,
			"count":24,
			"type":"VEC3"
		},
		{
			"bufferView":50,
			"componentType":5126,
			"count":24,
			"type":"VEC2"
		},
		{
			"bufferView":51,
			"componentType":5123,
			"count":48,
			"type":"SCALAR"
		},
		{
			"bufferView":52,
			"componentType":5126,
			"count":64,
			"max":[
				5.5,
				13.5,
				5.5
			],
			"min":[
				-5.5,
				13,
				-5.5
			],
			"type":"VEC3"
		},
		{
			"bufferView":53,
			"componentType":5126,
			"count":64,
			"type":"VEC3"
		},
		{
			"bufferView":54,
			"componentType":5126,
			"count":64,
			"type":"VEC2"
		},
		{
			"bufferView":55,
			"componentType":5123,
			"count":96,
			"type":"SCALAR"
		},
		{
			"bufferView":56,
			"componentType":5126,
			"count":644,
			"max":[
				5.600863933563232,
				-1.546857237815857,
				4.4357428550720215
			],
			"min":[
				-5.502511978149414,
				-14.78758430480957,
				-5.933903217315674
			],
			"type":"VEC3"
		},
		{
			"bufferView":57,
			"componentType":5126,
			"count":644,
			"type":"VEC3"
		},
		{
			"bufferView":58,
			"componentType":5126,
			"count":644,
			"type":"VEC2"
		},
		{
			"bufferView":59,
			"componentType":5123,
			"count":1293,
			"type":"SCALAR"
		},
		{
			"bufferView":60,
			"componentType":5126,
			"count":28,
			"max":[
				6,
				2,
				6
			],
			"min":[
				-6,
				2,
				-6
			],
			"type":"VEC3"
		},
		{
			"bufferView":61,
			"componentType":5126,
			"count":28,
			"type":"VEC3"
		},
		{
			"bufferView":62,
			"componentType":5126,
			"count":28,
			"type":"VEC2"
		},
		{
			"bufferView":63,
			"componentType":5123,
			"count":102,
			"type":"SCALAR"
		},
		{
			"bufferView":64,
			"componentType":5126,
			"count":59,
			"max":[
				6,
				-1,
				6
			],
			"min":[
				-6,
				-15.5,
				-6
			],
			"type":"VEC3"
		},
		{
			"bufferView":65,
			"componentType":5126,
			"count":59,
			"type":"VEC3"
		},
		{
			"bufferView":66,
			"componentType":5126,
			"count":59,
			"type":"VEC2"
		},
		{
			"bufferView":67,
			"componentType":5123,
			"count":123,
			"type":"SCALAR"
		},
		{
			"bufferView":68,
			"componentType":5126,
			"count":87,
			"max":[
				6,
				13.5,
				6
			],
			"min":[
				-6,
				-1,
				-6
			],
			"type":"VEC3"
		},
		{
			"bufferView":69,
			"componentType":5126,
			"count":87,
			"type":"VEC3"
		},
		{
			"bufferView":70,
			"componentType":5126,
			"count":87,
			"type":"VEC2"
		},
		{
			"bufferView":71,
			"componentType":5123,
			"count":141,
			"type":"SCALAR"
		},
		{
			"bufferView":72,
			"componentType":5126,
			"count":16,
			"max":[
				5.5,
				13.5,
				5.5
			],
			"min":[
				-5.5,
				13.5,
				-5.5
			],
			"type":"VEC3"
		},
		{
			"bufferView":73,
			"componentType":5126,
			"count":16,
			"type":"VEC3"
		},
		{
			"bufferView":74,
			"componentType":5126,
			"count":16,
			"type":"VEC2"
		},
		{
			"bufferView":75,
			"componentType":5123,
			"count":24,
			"type":"SCALAR"
		},
		{
			"bufferView":76,
			"componentType":5126,
			"count":24,
			"max":[
				6,
				2,
				6
			],
			"min":[
				-6,
				1.5,
				-6
			],
			"type":"VEC3"
		},
		{
			"bufferView":77,
			"componentType":5126,
			"count":24,
			"type":"VEC3"
		},
		{
			"bufferView":78,
			"componentType":5126,
			"count":24,
			"type":"VEC2"
		},
		{
			"bufferView":79,
			"componentType":5123,
			"count":48,
			"type":"SCALAR"
		}
	],
	"bufferViews":[
		{
			"buffer":0,
			"byteLength":336,
			"byteOffset":0,
			"target":34962
		},
		{
			"buffer":0,
			"byteLength":336,
			"byteOffset":336,
			"target":34962
		},
		{
			"buffer":0,
			"byteLength":224,
			"byteOffset":672,
			"target":34962
		},
		{
			"buffer":0,
			"byteLength":204,
			"byteOffset":896,
			"target":34963
		},
		{
			"buffer":0,
			"byteLength":912,
			"byteOffset":1100,
			"target":34962
		},
		{
			"buffer":0,
			"byteLength":912,
			"byteOffset":2012,
			"target":34962
		},
		{
			"buffer":0,
			"byteLength":608,
			"byteOffset":2924,
			"target":34962
		},
		{
			"buffer":0,
			"byteLength":324,
			"byteOffset":3532,
			"target":34963
		},
		{
			"buffer":0,
			"byteLength":1812,
			"byteOffset":3856,
			"target":34962
		},
		{
			"buffer":0,
			"byteLength":1812,
			"byteOffset":5668,
			"target":34962
		},
		{
			"buffer":0,
			"byteLength":1208,
			"byteOffset":7480,
			"target":34962
		},
		{
			"buffer":0,
			"byteLength":474,
			"byteOffset":8688,
			"target":34963
		},
		{
			"buffer":0,
			"byteLength":9288,
			"byteOffset":9164,
			"target":34962
		},
		{
			"buffer":0,
			"byteLength":9288,
			"byteOffset":18452,
			"target":34962
		},
		{
			"buffer":0,
			"byteLength":6192,
			"byteOffset":27740,
			"target":34962
		},
		{
			"buffer":0,
			"byteLength":3486,
			"byteOffset":33932,
			"target":34963
		},
		{
			"buffer":0,
			"byteLength":1140,
			"byteOffset":37420,
			"target":34962
		},
		{
			"buffer":0,
			"byteLength":1140,
			"byteOffset":38560,
			"target":34962
		},
		{
			"buffer":0,
			"byteLength":760,
			"byteOffset":39700,
			"target":34962
		},
		{
			"buffer":0,
			"byteLength":318,
			"byteOffset":40460,
			"target":34963
		},
		{
			"buffer":0,
			"byteLength":288,
			"byteOffset":40780,
			"target":34962
		},
		{
			"buffer":0,
			"byteLength":288,
			"byteOffset":41068,
			"target":34962
		},
		{
			"buffer":0,
			"byteLength":192,
			"byteOffset":41356,
			"target":34962
		},
		{
			"buffer":0,
			"byteLength":96,
			"byteOffset":41548,
			"target":34963
		},
		{
			"buffer":0,
			"byteLength":768,
			"byteOffset":41644,
			"target":34962
		},
		{
			"buffer":0,
			"byteLength":768,
			"byteOffset":42412,
			"target":34962
		},
		{
			"buffer":0,
			"byteLength":512,
			"byteOffset":43180,
			"target":34962
		},
		{
			"buffer":0,
			"byteLength":192,
			"byteOffset":43692,
			"target":34963
		},
		{
			"buffer":0,
			"byteLength":7932,
			"byteOffset":43884,
			"target":34962
		},
		{
			"buffer":0,
			"byteLength":7932,
			"byteOffset":51816,
			"target":34962
		},
		{
			"buffer":0,
			"byteLength":5288,
			"byteOffset":59748,
			"target":34962
		},
		{
			"buffer":0,
			"byteLength":2724,
			"byteOffset":65036,
			"target":34963
		},
		{
			"buffer":0,
			"byteLength":336,
			"byteOffset":67760,
			"target":34962
		},
		{
			"buffer":0,
			"byteLength":336,
			"byteOffset":68096,
			"target":34962
		},
		{
			"buffer":0,
			"byteLength":224,
			"byteOffset":68432,
			"target":34962
		},
		{
			"buffer":0,
			"byteLength":204,
			"byteOffset":68656,
			"target":34963
		},
		{
			"buffer":0,
			"byteLength":708,
			"byteOffset":68860,
			"target":34962
		},
		{
			"buffer":0,
			"byteLength":708,
			"byteOffset":69568,
			"target":34962
		},
		{
			"buffer":0,
			"byteLength":472,
			"byteOffset":70276,
			"target":34962
		},
		{
			"buffer":0,
			"byteLength":246,
			"byteOffset":70748,
			"target":34963
		},
		{
			"buffer":0,
			"byteLength":1044,
			"byteOffset":70996,
			"target":34962
		},
		{
			"buffer":0,
			"byteLength":1044,
			"byteOffset":72040,
			"target":34962
		},
		{
			"buffer":0,
			"byteLength":696,
			"byteOffset":73084,
			"target":34962
		},
		{
			"buffer":0,
			"byteLength":282,
			"byteOffset":73780,
			"target":34963
		},
		{
			"buffer":0,
			"byteLength":8892,
			"byteOffset":74064,
			"target":34962
		},
		{
			"buffer":0,
			"byteLength":8892,
			"byteOffset":82956,
			"target":34962
		},
		{
			"buffer":0,
			"byteLength":5928,
			"byteOffset":91848,
			"target":34962
		},
		{
			"buffer":0,
			"byteLength":3162,
			"byteOffset":97776,
			"target":34963
		},
		{
			"buffer":0,
			"byteLength":288,
			"byteOffset":100940,
			"target":34962
		},
		{
			"buffer":0,
			"byteLength":288,
			"byteOffset":101228,
			"target":34962
		},
		{
			"buffer":0,
			"byteLength":192,
			"byteOffset":101516,
			"target":34962
		},
		{
			"buffer":0,
			"byteLength":96,
			"byteOffset":101708,
			"target":34963
		},
		{
			"buffer":0,
			"byteLength":768,
			"byteOffset":101804,
			"target":34962
		},
		{
			"buffer":0,
			"byteLength":768,
			"byteOffset":102572,
			"target":34962
		},
		{
			"buffer":0,
			"byteLength":512,
			"byteOffset":103340,
			"target":34962
		},
		{
			"buffer":0,
			"byteLength":192,
			"byteOffset":103852,
			"target":34963
		},
		{
			"buffer":0,
			"byteLength":7728,
			"byteOffset":104044,
			"target":34962
		},
		{
			"buffer":0,
			"byteLength":7728,
			"byteOffset":111772,
			"target":34962
		},
		{
			"buffer":0,
			"byteLength":5152,
			"byteOffset":119500,
			"target":34962
		},
		{
			"buffer":0,
			"byteLength":2586,
			"byteOffset":124652,
			"target":34963
		},
		{
			"buffer":0,
			"byteLength":336,
			"byteOffset":127240,
			"target":34962
		},
		{
			"buffer":0,
			"byteLength":336,
			"byteOffset":127576,
			"target":34962
		},
		{
			"buffer":0,
			"byteLength":224,
			"byteOffset":127912,
			"target":34962
		},
		{
			"buffer":0,
			"byteLength":204,
			"byteOffset":128136,
			"target":34963
		},
		{
			"buffer":0,
			"byteLength":708,
			"byteOffset":128340,
			"target":34962
		},
		{
			"buffer":0,
			"byteLength":708,
			"byteOffset":129048,
			"target":34962
		},
		{
			"buffer":0,
			"byteLength":472,
			"byteOffset":129756,
			"target":34962
		},
		{
			"buffer":0,
			"byteLength":246,
			"byteOffset":130228,
			"target":34963
		},
		{
			"buffer":0,
			"byteLength":1044,
			"byteOffset":130476,
			"target":34962
		},
		{
			"buffer":0,
			"byteLength":1044,
			"byteOffset":131520,
			"target":34962
		},
		{
			"buffer":0,
			"byteLength":696,
			"byteOffset":132564,
			"target":34962
		},
		{
			"buffer":0,
			"byteLength":282,
			"byteOffset":133260,
			"target":34963
		},
		{
			"buffer":0,
			"byteLength":192,
			"byteOffset":133544,
			"target":34962
		},
		{
			"buffer":0,
			"byteLength":192,
			"byteOffset":133736,
			"target":34962
		},
		{
			"buffer":0,
			"byteLength":128,
			"byteOffset":133928,
			"target":34962
		},
		{
			"buffer":0,
			"byteLength":48,
			"byteOffset":134056,
			"target":34963
		},
		{
			"buffer":0,
			"byteLength":288,
			"byteOffset":134104,
			"target":34962
		},
		{
			"buffer":0,
			"byteLength":288,
			"byteOffset":134392,
			"target":34962
		},
		{
			"buffer":0,
			"byteLength":192,
			"byteOffset":134680,
			"target":34962
		},
		{
			"buffer":0,
			"byteLength":96,
			"byteOffset":134872,
			"target":34963
		}
	],
	"buffers":[
		{
			"byteLength":134968,
			"uri":"pplat1.bin"
		}
	]
}
