{
	"asset":{
		"generator":"Khronos glTF Blender I/O v4.5.48",
		"version":"2.0"
	},
	"scene":0,
	"scenes":[
		{
			"name":"Scene",
			"nodes":[
				0,
				1,
				2,
				3,
				4,
				5
			]
		}
	],
	"nodes":[
		{
			"mesh":0,
			"name":"Object"
		},
		{
			"mesh":1,
			"name":"Object.001"
		},
		{
			"mesh":2,
			"name":"Object.002"
		},
		{
			"mesh":3,
			"name":"Object.003"
		},
		{
			"mesh":4,
			"name":"Object.004"
		},
		{
			"mesh":5,
			"name":"Object.005"
		}
	],
	"materials":[
		{
			"doubleSided":true,
			"name":"cp_ewal01d",
			"pbrMetallicRoughness":{
				"baseColorFactor":[
					0.800000011920929,
					0.800000011920929,
					0.800000011920929,
					1
				],
				"metallicFactor":0,
				"roughnessFactor":0.5
			}
		},
		{
			"doubleSided":true,
			"name":"cp_ewal01d.001",
			"pbrMetallicRoughness":{
				"baseColorFactor":[
					0.800000011920929,
					0.800000011920929,
					0.800000011920929,
					1
				],
				"metallicFactor":0,
				"roughnessFactor":0.5
			}
		},
		{
			"doubleSided":true,
			"name":"cp_ewal01d.002",
			"pbrMetallicRoughness":{
				"baseColorFactor":[
					0.800000011920929,
					0.800000011920929,
					0.800000011920929,
					1
				],
				"metallicFactor":0,
				"roughnessFactor":0.5
			}
		},
		{
			"doubleSided":true,
			"name":"cp_ewal01d.003",
			"pbrMetallicRoughness":{
				"baseColorFactor":[
					0.800000011920929,
					0.800000011920929,
					0.800000011920929,
					1
				],
				"metallicFactor":0,
				"roughnessFactor":0.5
			}
		},
		{
			"doubleSided":true,
			"name":"cp_ewal01d.004",
			"pbrMetallicRoughness":{
				"baseColorFactor":[
					0.800000011920929,
					0.800000011920929,
					0.800000011920929,
					1
				],
				"metallicFactor":0,
				"roughnessFactor":0.5
			}
		},
		{
			"doubleSided":true,
			"name":"cp_ewal01d.005",
			"pbrMetallicRoughness":{
				"baseColorFactor":[
					0.800000011920929,
					0.800000011920929,
					0.800000011920929,
					1
				],
				"metallicFactor":0,
				"roughnessFactor":0.5
			}
		}
	],
	"meshes":[
		{
			"name":"Mesh",
			"primitives":[
				{
					"attributes":{
						"POSITION":0,
						"NORMAL":1,
						"TEXCOORD_0":2
					},
					"indices":3,
					"material":0
				}
			]
		},
		{
			"name":"Mesh.001",
			"primitives":[
				{
					"attributes":{
						"POSITION":4,
						"NORMAL":5,
						"TEXCOORD_0":6
					},
					"indices":7,
					"material":1
				}
			]
		},
		{
			"name":"Mesh.002",
			"primitives":[
				{
					"attributes":{
						"POSITION":8,
						"NORMAL":9,
						"TEXCOORD_0":10
					},
					"indices":11,
					"material":2
				}
			]
		},
		{
			"name":"Mesh.003",
			"primitives":[
				{
					"attributes":{
						"POSITION":12,
						"NORMAL":13,
						"TEXCOORD_0":14
					},
					"indices":15,
					"material":3
				}
			]
		},
		{
			"name":"Mesh.004",
			"primitives":[
				{
					"attributes":{
						"POSITION":16,
						"NORMAL":17,
						"TEXCOORD_0":18
					},
					"indices":19,
					"material":4
				}
			]
		},
		{
			"name":"Mesh.005",
			"primitives":[
				{
					"attributes":{
						"POSITION":20,
						"NORMAL":21,
						"TEXCOORD_0":22
					},
					"indices":23,
					"material":5
				}
			]
		}
	],
	"accessors":[
		{
			"bufferView":0,
			"componentType":5126,
			"count":531,
			"max":[
				39.234375,
				28.484375,
				12.578125
			],
			"min":[
				-41.8125,
				-0.234375,
				-9.515625
			],
			"type":"VEC3"
		},
		{
			"bufferView":1,
			"componentType":5126,
			"count":531,
			"type":"VEC3"
		},
		{
			"bufferView":2,
			"componentType":5126,
			"count":531,
			"type":"VEC2"
		},
		{
			"bufferView":3,
			"componentType":5123,
			"count":531,
			"type":"SCALAR"
		},
		{
			"bufferView":4,
			"componentType":5126,
			"count":435,
			"max":[
				39.234375,
				28.40625,
				12.578125
			],
			"min":[
				-41.8125,
				-0.21875,
				-9.515625
			],
			"type":"VEC3"
		},
		{
			"bufferView":5,
			"componentType":5126,
			"count":435,
			"type":"VEC3"
		},
		{
			"bufferView":6,
			"componentType":5126,
			"count":435,
			"type":"VEC2"
		},
		{
			"bufferView":7,
			"componentType":5123,
			"count":435,
			"type":"SCALAR"
		},
		{
			"bufferView":8,
			"componentType":5126,
			"count":228,
			"max":[
				39.234375,
				28.453125,
				12.578125
			],
			"min":[
				-41.8125,
				-0.15625,
				-9.515625
			],
			"type":"VEC3"
		},
		{
			"bufferView":9,
			"componentType":5126,
			"count":228,
			"type":"VEC3"
		},
		{
			"bufferView":10,
			"componentType":5126,
			"count":228,
			"type":"VEC2"
		},
		{
			"bufferView":11,
			"componentType":5123,
			"count":228,
			"type":"SCALAR"
		},
		{
			"bufferView":12,
			"componentType":5126,
			"count":168,
			"max":[
				39.234375,
				28.515625,
				10.015625
			],
			"min":[
				-41.8125,
				-0.09375,
				-9.359375
			],
			"type":"VEC3"
		},
		{
			"bufferView":13,
			"componentType":5126,
			"count":168,
			"type":"VEC3"
		},
		{
			"bufferView":14,
			"componentType":5126,
			"count":168,
			"type":"VEC2"
		},
		{
			"bufferView":15,
			"componentType":5123,
			"count":168,
			"type":"SCALAR"
		},
		{
			"bufferView":16,
			"componentType":5126,
			"count":96,
			"max":[
				39.234375,
				28.25,
				10.015625
			],
			"min":[
				-41.8125,
				-0.078125,
				-9.359375
			],
			"type":"VEC3"
		},
		{
			"bufferView":17,
			"componentType":5126,
			"count":96,
			"type":"VEC3"
		},
		{
			"bufferView":18,
			"componentType":5126,
			"count":96,
			"type":"VEC2"
		},
		{
			"bufferView":19,
			"componentType":5123,
			"count":96,
			"type":"SCALAR"
		},
		{
			"bufferView":20,
			"componentType":5126,
			"count":36,
			"max":[
				39.1875,
				28.328125,
				9.984375
			],
			"min":[
				-41.734375,
				0.03125,
				-9.203125
			],
			"type":"VEC3"
		},
		{
			"bufferView":21,
			"componentType":5126,
			"count":36,
			"type":"VEC3"
		},
		{
			"bufferView":22,
			"componentType":5126,
			"count":36,
			"type":"VEC2"
		},
		{
			"bufferView":23,
			"componentType":5123,
			"count":36,
			"type":"SCALAR"
		}
	],
	"bufferViews":[
		{
			"buffer":0,
			"byteLength":6372,
			"byteOffset":0,
			"target":34962
		},
		{
			"buffer":0,
			"byteLength":6372,
			"byteOffset":6372,
			"target":34962
		},
		{
			"buffer":0,
			"byteLength":4248,
			"byteOffset":12744,
			"target":34962
		},
		{
			"buffer":0,
			"byteLength":1062,
			"byteOffset":16992,
			"target":34963
		},
		{
			"buffer":0,
			"byteLength":5220,
			"byteOffset":18056,
			"target":34962
		},
		{
			"buffer":0,
			"byteLength":5220,
			"byteOffset":23276,
			"target":34962
		},
		{
			"buffer":0,
			"byteLength":3480,
			"byteOffset":28496,
			"target":34962
		},
		{
			"buffer":0,
			"byteLength":870,
			"byteOffset":31976,
			"target":34963
		},
		{
			"buffer":0,
			"byteLength":2736,
			"byteOffset":32848,
			"target":34962
		},
		{
			"buffer":0,
			"byteLength":2736,
			"byteOffset":35584,
			"target":34962
		},
		{
			"buffer":0,
			"byteLength":1824,
			"byteOffset":38320,
			"target":34962
		},
		{
			"buffer":0,
			"byteLength":456,
			"byteOffset":40144,
			"target":34963
		},
		{
			"buffer":0,
			"byteLength":2016,
			"byteOffset":40600,
			"target":34962
		},
		{
			"buffer":0,
			"byteLength":2016,
			"byteOffset":42616,
			"target":34962
		},
		{
			"buffer":0,
			"byteLength":1344,
			"byteOffset":44632,
			"target":34962
		},
		{
			"buffer":0,
			"byteLength":336,
			"byteOffset":45976,
			"target":34963
		},
		{
			"buffer":0,
			"byteLength":1152,
			"byteOffset":46312,
			"target":34962
		},
		{
			"buffer":0,
			"byteLength":1152,
			"byteOffset":47464,
			"target":34962
		},
		{
			"buffer":0,
			"byteLength":768,
			"byteOffset":48616,
			"target":34962
		},
		{
			"buffer":0,
			"byteLength":192,
			"byteOffset":49384,
			"target":34963
		},
		{
			"buffer":0,
			"byteLength":432,
			"byteOffset":49576,
			"target":34962
		},
		{
			"buffer":0,
			"byteLength":432,
			"byteOffset":50008,
			"target":34962
		},
		{
			"buffer":0,
			"byteLength":288,
			"byteOffset":50440,
			"target":34962
		},
		{
			"buffer":0,
			"byteLength":72,
			"byteOffset":50728,
			"target":34963
		}
	],
	"buffers":[
		{
			"byteLength":50800,
			"uri":"prockb.bin"
		}
	]
}
