{
	"asset":{
		"generator":"Khronos glTF Blender I/O v4.5.48",
		"version":"2.0"
	},
	"scene":0,
	"scenes":[
		{
			"name":"Scene",
			"nodes":[
				0,
				1,
				2,
				3,
				4,
				5
			]
		}
	],
	"nodes":[
		{
			"mesh":0,
			"name":"Object"
		},
		{
			"mesh":1,
			"name":"Object.001"
		},
		{
			"mesh":2,
			"name":"Object.002"
		},
		{
			"mesh":3,
			"name":"Object.003"
		},
		{
			"mesh":4,
			"name":"Object.004"
		},
		{
			"mesh":5,
			"name":"Object.005"
		}
	],
	"materials":[
		{
			"doubleSided":true,
			"name":"cp_ecombo1b",
			"pbrMetallicRoughness":{
				"baseColorFactor":[
					0.800000011920929,
					0.800000011920929,
					0.800000011920929,
					1
				],
				"metallicFactor":0,
				"roughnessFactor":0.5
			}
		},
		{
			"doubleSided":true,
			"name":"cp_ewal01",
			"pbrMetallicRoughness":{
				"baseColorFactor":[
					0.800000011920929,
					0.800000011920929,
					0.800000011920929,
					1
				],
				"metallicFactor":0,
				"roughnessFactor":0.5
			}
		},
		{
			"doubleSided":true,
			"name":"cp_ecombo1b.001",
			"pbrMetallicRoughness":{
				"baseColorFactor":[
					0.800000011920929,
					0.800000011920929,
					0.800000011920929,
					1
				],
				"metallicFactor":0,
				"roughnessFactor":0.5
			}
		},
		{
			"doubleSided":true,
			"name":"cp_ewal01.001",
			"pbrMetallicRoughness":{
				"baseColorFactor":[
					0.800000011920929,
					0.800000011920929,
					0.800000011920929,
					1
				],
				"metallicFactor":0,
				"roughnessFactor":0.5
			}
		},
		{
			"doubleSided":true,
			"name":"cp_ecombo1b.002",
			"pbrMetallicRoughness":{
				"baseColorFactor":[
					0.800000011920929,
					0.800000011920929,
					0.800000011920929,
					1
				],
				"metallicFactor":0,
				"roughnessFactor":0.5
			}
		},
		{
			"doubleSided":true,
			"name":"cp_ewal01.002",
			"pbrMetallicRoughness":{
				"baseColorFactor":[
					0.800000011920929,
					0.800000011920929,
					0.800000011920929,
					1
				],
				"metallicFactor":0,
				"roughnessFactor":0.5
			}
		},
		{
			"doubleSided":true,
			"name":"cp_ecombo1b.003",
			"pbrMetallicRoughness":{
				"baseColorFactor":[
					0.800000011920929,
					0.800000011920929,
					0.800000011920929,
					1
				],
				"metallicFactor":0,
				"roughnessFactor":0.5
			}
		},
		{
			"doubleSided":true,
			"name":"cp_ewal01.003",
			"pbrMetallicRoughness":{
				"baseColorFactor":[
					0.800000011920929,
					0.800000011920929,
					0.800000011920929,
					1
				],
				"metallicFactor":0,
				"roughnessFactor":0.5
			}
		},
		{
			"doubleSided":true,
			"name":"cp_ecombo1b.004",
			"pbrMetallicRoughness":{
				"baseColorFactor":[
					0.800000011920929,
					0.800000011920929,
					0.800000011920929,
					1
				],
				"metallicFactor":0,
				"roughnessFactor":0.5
			}
		},
		{
			"doubleSided":true,
			"name":"cp_ewal01.004",
			"pbrMetallicRoughness":{
				"baseColorFactor":[
					0.800000011920929,
					0.800000011920929,
					0.800000011920929,
					1
				],
				"metallicFactor":0,
				"roughnessFactor":0.5
			}
		},
		{
			"doubleSided":true,
			"name":"cp_ewal01.005",
			"pbrMetallicRoughness":{
				"baseColorFactor":[
					0.800000011920929,
					0.800000011920929,
					0.800000011920929,
					1
				],
				"metallicFactor":0,
				"roughnessFactor":0.5
			}
		}
	],
	"meshes":[
		{
			"name":"Mesh",
			"primitives":[
				{
					"attributes":{
						"POSITION":0,
						"NORMAL":1,
						"TEXCOORD_0":2
					},
					"indices":3,
					"material":0
				},
				{
					"attributes":{
						"POSITION":4,
						"NORMAL":5,
						"TEXCOORD_0":6
					},
					"indices":7,
					"material":1
				}
			]
		},
		{
			"name":"Mesh.001",
			"primitives":[
				{
					"attributes":{
						"POSITION":8,
						"NORMAL":9,
						"TEXCOORD_0":10
					},
					"indices":11,
					"material":2
				},
				{
					"attributes":{
						"POSITION":12,
						"NORMAL":13,
						"TEXCOORD_0":14
					},
					"indices":15,
					"material":3
				}
			]
		},
		{
			"name":"Mesh.002",
			"primitives":[
				{
					"attributes":{
						"POSITION":16,
						"NORMAL":17,
						"TEXCOORD_0":18
					},
					"indices":19,
					"material":4
				},
				{
					"attributes":{
						"POSITION":20,
						"NORMAL":21,
						"TEXCOORD_0":22
					},
					"indices":23,
					"material":5
				}
			]
		},
		{
			"name":"Mesh.003",
			"primitives":[
				{
					"attributes":{
						"POSITION":24,
						"NORMAL":25,
						"TEXCOORD_0":26
					},
					"indices":27,
					"material":6
				},
				{
					"attributes":{
						"POSITION":28,
						"NORMAL":29,
						"TEXCOORD_0":30
					},
					"indices":31,
					"material":7
				}
			]
		},
		{
			"name":"Mesh.004",
			"primitives":[
				{
					"attributes":{
						"POSITION":32,
						"NORMAL":33,
						"TEXCOORD_0":34
					},
					"indices":35,
					"material":8
				},
				{
					"attributes":{
						"POSITION":36,
						"NORMAL":37,
						"TEXCOORD_0":38
					},
					"indices":39,
					"material":9
				}
			]
		},
		{
			"name":"Mesh.005",
			"primitives":[
				{
					"attributes":{
						"POSITION":40,
						"NORMAL":41,
						"TEXCOORD_0":42
					},
					"indices":43,
					"material":10
				}
			]
		}
	],
	"accessors":[
		{
			"bufferView":0,
			"componentType":5126,
			"count":111,
			"max":[
				43.421875,
				9.96875,
				11.0625
			],
			"min":[
				-46.0625,
				-1.953125,
				-16.15625
			],
			"type":"VEC3"
		},
		{
			"bufferView":1,
			"componentType":5126,
			"count":111,
			"type":"VEC3"
		},
		{
			"bufferView":2,
			"componentType":5126,
			"count":111,
			"type":"VEC2"
		},
		{
			"bufferView":3,
			"componentType":5123,
			"count":111,
			"type":"SCALAR"
		},
		{
			"bufferView":4,
			"componentType":5126,
			"count":435,
			"max":[
				31.625,
				36.703125,
				5.953125
			],
			"min":[
				-37.15625,
				1.671875,
				-11.3125
			],
			"type":"VEC3"
		},
		{
			"bufferView":5,
			"componentType":5126,
			"count":435,
			"type":"VEC3"
		},
		{
			"bufferView":6,
			"componentType":5126,
			"count":435,
			"type":"VEC2"
		},
		{
			"bufferView":7,
			"componentType":5123,
			"count":435,
			"type":"SCALAR"
		},
		{
			"bufferView":8,
			"componentType":5126,
			"count":75,
			"max":[
				43.421875,
				10.015625,
				9.890625
			],
			"min":[
				-46.0625,
				-1.65625,
				-16.15625
			],
			"type":"VEC3"
		},
		{
			"bufferView":9,
			"componentType":5126,
			"count":75,
			"type":"VEC3"
		},
		{
			"bufferView":10,
			"componentType":5126,
			"count":75,
			"type":"VEC2"
		},
		{
			"bufferView":11,
			"componentType":5123,
			"count":75,
			"type":"SCALAR"
		},
		{
			"bufferView":12,
			"componentType":5126,
			"count":321,
			"max":[
				31.625,
				36.734375,
				4.859375
			],
			"min":[
				-36.25,
				2.03125,
				-10.59375
			],
			"type":"VEC3"
		},
		{
			"bufferView":13,
			"componentType":5126,
			"count":321,
			"type":"VEC3"
		},
		{
			"bufferView":14,
			"componentType":5126,
			"count":321,
			"type":"VEC2"
		},
		{
			"bufferView":15,
			"componentType":5123,
			"count":321,
			"type":"SCALAR"
		},
		{
			"bufferView":16,
			"componentType":5126,
			"count":69,
			"max":[
				43.421875,
				10.046875,
				9.890625
			],
			"min":[
				-46.0625,
				-1.609375,
				-16.15625
			],
			"type":"VEC3"
		},
		{
			"bufferView":17,
			"componentType":5126,
			"count":69,
			"type":"VEC3"
		},
		{
			"bufferView":18,
			"componentType":5126,
			"count":69,
			"type":"VEC2"
		},
		{
			"bufferView":19,
			"componentType":5123,
			"count":69,
			"type":"SCALAR"
		},
		{
			"bufferView":20,
			"componentType":5126,
			"count":291,
			"max":[
				31.625,
				36.78125,
				4.859375
			],
			"min":[
				-36.25,
				2.078125,
				-10.59375
			],
			"type":"VEC3"
		},
		{
			"bufferView":21,
			"componentType":5126,
			"count":291,
			"type":"VEC3"
		},
		{
			"bufferView":22,
			"componentType":5126,
			"count":291,
			"type":"VEC2"
		},
		{
			"bufferView":23,
			"componentType":5123,
			"count":291,
			"type":"SCALAR"
		},
		{
			"bufferView":24,
			"componentType":5126,
			"count":63,
			"max":[
				41.875,
				9.765625,
				9.890625
			],
			"min":[
				-46.0625,
				-1.578125,
				-16.15625
			],
			"type":"VEC3"
		},
		{
			"bufferView":25,
			"componentType":5126,
			"count":63,
			"type":"VEC3"
		},
		{
			"bufferView":26,
			"componentType":5126,
			"count":63,
			"type":"VEC2"
		},
		{
			"bufferView":27,
			"componentType":5123,
			"count":63,
			"type":"SCALAR"
		},
		{
			"bufferView":28,
			"componentType":5126,
			"count":246,
			"max":[
				31.140625,
				35.765625,
				4.859375
			],
			"min":[
				-36.25,
				2.109375,
				-10.375
			],
			"type":"VEC3"
		},
		{
			"bufferView":29,
			"componentType":5126,
			"count":246,
			"type":"VEC3"
		},
		{
			"bufferView":30,
			"componentType":5126,
			"count":246,
			"type":"VEC2"
		},
		{
			"bufferView":31,
			"componentType":5123,
			"count":246,
			"type":"SCALAR"
		},
		{
			"bufferView":32,
			"componentType":5126,
			"count":51,
			"max":[
				41.875,
				9.8125,
				9.890625
			],
			"min":[
				-46.0625,
				-1.53125,
				-16.15625
			],
			"type":"VEC3"
		},
		{
			"bufferView":33,
			"componentType":5126,
			"count":51,
			"type":"VEC3"
		},
		{
			"bufferView":34,
			"componentType":5126,
			"count":51,
			"type":"VEC2"
		},
		{
			"bufferView":35,
			"componentType":5123,
			"count":51,
			"type":"SCALAR"
		},
		{
			"bufferView":36,
			"componentType":5126,
			"count":195,
			"max":[
				31.140625,
				35.8125,
				4.859375
			],
			"min":[
				-36.25,
				3.46875,
				-10.375
			],
			"type":"VEC3"
		},
		{
			"bufferView":37,
			"componentType":5126,
			"count":195,
			"type":"VEC3"
		},
		{
			"bufferView":38,
			"componentType":5126,
			"count":195,
			"type":"VEC2"
		},
		{
			"bufferView":39,
			"componentType":5123,
			"count":195,
			"type":"SCALAR"
		},
		{
			"bufferView":40,
			"componentType":5126,
			"count":87,
			"max":[
				41.875,
				35.84375,
				9.890625
			],
			"min":[
				-46.0625,
				-1.75,
				-13.65625
			],
			"type":"VEC3"
		},
		{
			"bufferView":41,
			"componentType":5126,
			"count":87,
			"type":"VEC3"
		},
		{
			"bufferView":42,
			"componentType":5126,
			"count":87,
			"type":"VEC2"
		},
		{
			"bufferView":43,
			"componentType":5123,
			"count":87,
			"type":"SCALAR"
		}
	],
	"bufferViews":[
		{
			"buffer":0,
			"byteLength":1332,
			"byteOffset":0,
			"target":34962
		},
		{
			"buffer":0,
			"byteLength":1332,
			"byteOffset":1332,
			"target":34962
		},
		{
			"buffer":0,
			"byteLength":888,
			"byteOffset":2664,
			"target":34962
		},
		{
			"buffer":0,
			"byteLength":222,
			"byteOffset":3552,
			"target":34963
		},
		{
			"buffer":0,
			"byteLength":5220,
			"byteOffset":3776,
			"target":34962
		},
		{
			"buffer":0,
			"byteLength":5220,
			"byteOffset":8996,
			"target":34962
		},
		{
			"buffer":0,
			"byteLength":3480,
			"byteOffset":14216,
			"target":34962
		},
		{
			"buffer":0,
			"byteLength":870,
			"byteOffset":17696,
			"target":34963
		},
		{
			"buffer":0,
			"byteLength":900,
			"byteOffset":18568,
			"target":34962
		},
		{
			"buffer":0,
			"byteLength":900,
			"byteOffset":19468,
			"target":34962
		},
		{
			"buffer":0,
			"byteLength":600,
			"byteOffset":20368,
			"target":34962
		},
		{
			"buffer":0,
			"byteLength":150,
			"byteOffset":20968,
			"target":34963
		},
		{
			"buffer":0,
			"byteLength":3852,
			"byteOffset":21120,
			"target":34962
		},
		{
			"buffer":0,
			"byteLength":3852,
			"byteOffset":24972,
			"target":34962
		},
		{
			"buffer":0,
			"byteLength":2568,
			"byteOffset":28824,
			"target":34962
		},
		{
			"buffer":0,
			"byteLength":642,
			"byteOffset":31392,
			"target":34963
		},
		{
			"buffer":0,
			"byteLength":828,
			"byteOffset":32036,
			"target":34962
		},
		{
			"buffer":0,
			"byteLength":828,
			"byteOffset":32864,
			"target":34962
		},
		{
			"buffer":0,
			"byteLength":552,
			"byteOffset":33692,
			"target":34962
		},
		{
			"buffer":0,
			"byteLength":138,
			"byteOffset":34244,
			"target":34963
		},
		{
			"buffer":0,
			"byteLength":3492,
			"byteOffset":34384,
			"target":34962
		},
		{
			"buffer":0,
			"byteLength":3492,
			"byteOffset":37876,
			"target":34962
		},
		{
			"buffer":0,
			"byteLength":2328,
			"byteOffset":41368,
			"target":34962
		},
		{
			"buffer":0,
			"byteLength":582,
			"byteOffset":43696,
			"target":34963
		},
		{
			"buffer":0,
			"byteLength":756,
			"byteOffset":44280,
			"target":34962
		},
		{
			"buffer":0,
			"byteLength":756,
			"byteOffset":45036,
			"target":34962
		},
		{
			"buffer":0,
			"byteLength":504,
			"byteOffset":45792,
			"target":34962
		},
		{
			"buffer":0,
			"byteLength":126,
			"byteOffset":46296,
			"target":34963
		},
		{
			"buffer":0,
			"byteLength":2952,
			"byteOffset":46424,
			"target":34962
		},
		{
			"buffer":0,
			"byteLength":2952,
			"byteOffset":49376,
			"target":34962
		},
		{
			"buffer":0,
			"byteLength":1968,
			"byteOffset":52328,
			"target":34962
		},
		{
			"buffer":0,
			"byteLength":492,
			"byteOffset":54296,
			"target":34963
		},
		{
			"buffer":0,
			"byteLength":612,
			"byteOffset":54788,
			"target":34962
		},
		{
			"buffer":0,
			"byteLength":612,
			"byteOffset":55400,
			"target":34962
		},
		{
			"buffer":0,
			"byteLength":408,
			"byteOffset":56012,
			"target":34962
		},
		{
			"buffer":0,
			"byteLength":102,
			"byteOffset":56420,
			"target":34963
		},
		{
			"buffer":0,
			"byteLength":2340,
			"byteOffset":56524,
			"target":34962
		},
		{
			"buffer":0,
			"byteLength":2340,
			"byteOffset":58864,
			"target":34962
		},
		{
			"buffer":0,
			"byteLength":1560,
			"byteOffset":61204,
			"target":34962
		},
		{
			"buffer":0,
			"byteLength":390,
			"byteOffset":62764,
			"target":34963
		},
		{
			"buffer":0,
			"byteLength":1044,
			"byteOffset":63156,
			"target":34962
		},
		{
			"buffer":0,
			"byteLength":1044,
			"byteOffset":64200,
			"target":34962
		},
		{
			"buffer":0,
			"byteLength":696,
			"byteOffset":65244,
			"target":34962
		},
		{
			"buffer":0,
			"byteLength":174,
			"byteOffset":65940,
			"target":34963
		}
	],
	"buffers":[
		{
			"byteLength":66116,
			"uri":"procka.bin"
		}
	]
}
