{
	"asset":{
		"generator":"Khronos glTF Blender I/O v4.5.48",
		"version":"2.0"
	},
	"scene":0,
	"scenes":[
		{
			"name":"Scene",
			"nodes":[
				0,
				1,
				2,
				3,
				4
			]
		}
	],
	"nodes":[
		{
			"mesh":0,
			"name":"Object"
		},
		{
			"mesh":1,
			"name":"Object.001"
		},
		{
			"mesh":2,
			"name":"Object.002"
		},
		{
			"mesh":3,
			"name":"Object.003"
		},
		{
			"mesh":4,
			"name":"Object.004"
		}
	],
	"materials":[
		{
			"doubleSided":true,
			"name":"cp_ewal01d",
			"pbrMetallicRoughness":{
				"baseColorFactor":[
					0.800000011920929,
					0.800000011920929,
					0.800000011920929,
					1
				],
				"metallicFactor":0,
				"roughnessFactor":0.5
			}
		},
		{
			"doubleSided":true,
			"name":"cp_ecombo1b",
			"pbrMetallicRoughness":{
				"baseColorFactor":[
					0.800000011920929,
					0.800000011920929,
					0.800000011920929,
					1
				],
				"metallicFactor":0,
				"roughnessFactor":0.5
			}
		},
		{
			"doubleSided":true,
			"name":"cp_ewal01b",
			"pbrMetallicRoughness":{
				"baseColorFactor":[
					0.800000011920929,
					0.800000011920929,
					0.800000011920929,
					1
				],
				"metallicFactor":0,
				"roughnessFactor":0.5
			}
		},
		{
			"doubleSided":true,
			"name":"cp_ewal01",
			"pbrMetallicRoughness":{
				"baseColorFactor":[
					0.800000011920929,
					0.800000011920929,
					0.800000011920929,
					1
				],
				"metallicFactor":0,
				"roughnessFactor":0.5
			}
		},
		{
			"doubleSided":true,
			"name":"cp_ewal01d.001",
			"pbrMetallicRoughness":{
				"baseColorFactor":[
					0.800000011920929,
					0.800000011920929,
					0.800000011920929,
					1
				],
				"metallicFactor":0,
				"roughnessFactor":0.5
			}
		},
		{
			"doubleSided":true,
			"name":"cp_ecombo1b.001",
			"pbrMetallicRoughness":{
				"baseColorFactor":[
					0.800000011920929,
					0.800000011920929,
					0.800000011920929,
					1
				],
				"metallicFactor":0,
				"roughnessFactor":0.5
			}
		},
		{
			"doubleSided":true,
			"name":"cp_ewal01b.001",
			"pbrMetallicRoughness":{
				"baseColorFactor":[
					0.800000011920929,
					0.800000011920929,
					0.800000011920929,
					1
				],
				"metallicFactor":0,
				"roughnessFactor":0.5
			}
		},
		{
			"doubleSided":true,
			"name":"cp_ewal01.001",
			"pbrMetallicRoughness":{
				"baseColorFactor":[
					0.800000011920929,
					0.800000011920929,
					0.800000011920929,
					1
				],
				"metallicFactor":0,
				"roughnessFactor":0.5
			}
		},
		{
			"doubleSided":true,
			"name":"cp_ecombo1b.002",
			"pbrMetallicRoughness":{
				"baseColorFactor":[
					0.800000011920929,
					0.800000011920929,
					0.800000011920929,
					1
				],
				"metallicFactor":0,
				"roughnessFactor":0.5
			}
		},
		{
			"doubleSided":true,
			"name":"cp_ewal01d.002",
			"pbrMetallicRoughness":{
				"baseColorFactor":[
					0.800000011920929,
					0.800000011920929,
					0.800000011920929,
					1
				],
				"metallicFactor":0,
				"roughnessFactor":0.5
			}
		},
		{
			"doubleSided":true,
			"name":"cp_ewal01.002",
			"pbrMetallicRoughness":{
				"baseColorFactor":[
					0.800000011920929,
					0.800000011920929,
					0.800000011920929,
					1
				],
				"metallicFactor":0,
				"roughnessFactor":0.5
			}
		},
		{
			"doubleSided":true,
			"name":"cp_ecombo1b.003",
			"pbrMetallicRoughness":{
				"baseColorFactor":[
					0.800000011920929,
					0.800000011920929,
					0.800000011920929,
					1
				],
				"metallicFactor":0,
				"roughnessFactor":0.5
			}
		},
		{
			"doubleSided":true,
			"name":"cp_ewal01.003",
			"pbrMetallicRoughness":{
				"baseColorFactor":[
					0.800000011920929,
					0.800000011920929,
					0.800000011920929,
					1
				],
				"metallicFactor":0,
				"roughnessFactor":0.5
			}
		},
		{
			"doubleSided":true,
			"name":"cp_ewal01b.002",
			"pbrMetallicRoughness":{
				"baseColorFactor":[
					0.800000011920929,
					0.800000011920929,
					0.800000011920929,
					1
				],
				"metallicFactor":0,
				"roughnessFactor":0.5
			}
		}
	],
	"meshes":[
		{
			"name":"Mesh",
			"primitives":[
				{
					"attributes":{
						"POSITION":0,
						"NORMAL":1,
						"TEXCOORD_0":2
					},
					"indices":3,
					"material":0
				},
				{
					"attributes":{
						"POSITION":4,
						"NORMAL":5,
						"TEXCOORD_0":6
					},
					"indices":7,
					"material":1
				},
				{
					"attributes":{
						"POSITION":8,
						"NORMAL":9,
						"TEXCOORD_0":10
					},
					"indices":11,
					"material":2
				},
				{
					"attributes":{
						"POSITION":12,
						"NORMAL":13,
						"TEXCOORD_0":14
					},
					"indices":15,
					"material":3
				}
			]
		},
		{
			"name":"Mesh.001",
			"primitives":[
				{
					"attributes":{
						"POSITION":16,
						"NORMAL":17,
						"TEXCOORD_0":18
					},
					"indices":19,
					"material":4
				},
				{
					"attributes":{
						"POSITION":20,
						"NORMAL":21,
						"TEXCOORD_0":22
					},
					"indices":23,
					"material":5
				},
				{
					"attributes":{
						"POSITION":24,
						"NORMAL":25,
						"TEXCOORD_0":26
					},
					"indices":27,
					"material":6
				},
				{
					"attributes":{
						"POSITION":28,
						"NORMAL":29,
						"TEXCOORD_0":30
					},
					"indices":31,
					"material":7
				}
			]
		},
		{
			"name":"Mesh.002",
			"primitives":[
				{
					"attributes":{
						"POSITION":32,
						"NORMAL":33,
						"TEXCOORD_0":34
					},
					"indices":35,
					"material":8
				},
				{
					"attributes":{
						"POSITION":36,
						"NORMAL":37,
						"TEXCOORD_0":38
					},
					"indices":39,
					"material":9
				},
				{
					"attributes":{
						"POSITION":40,
						"NORMAL":41,
						"TEXCOORD_0":42
					},
					"indices":43,
					"material":10
				}
			]
		},
		{
			"name":"Mesh.003",
			"primitives":[
				{
					"attributes":{
						"POSITION":44,
						"NORMAL":45,
						"TEXCOORD_0":46
					},
					"indices":47,
					"material":11
				},
				{
					"attributes":{
						"POSITION":48,
						"NORMAL":49,
						"TEXCOORD_0":50
					},
					"indices":51,
					"material":12
				}
			]
		},
		{
			"name":"Mesh.004",
			"primitives":[
				{
					"attributes":{
						"POSITION":52,
						"NORMAL":53,
						"TEXCOORD_0":54
					},
					"indices":55,
					"material":13
				}
			]
		}
	],
	"accessors":[
		{
			"bufferView":0,
			"componentType":5126,
			"count":92,
			"max":[
				4.875,
				13.671875,
				4.265625
			],
			"min":[
				-3.34375,
				4.734375,
				-5.234375
			],
			"type":"VEC3"
		},
		{
			"bufferView":1,
			"componentType":5126,
			"count":92,
			"type":"VEC3"
		},
		{
			"bufferView":2,
			"componentType":5126,
			"count":92,
			"type":"VEC2"
		},
		{
			"bufferView":3,
			"componentType":5123,
			"count":96,
			"type":"SCALAR"
		},
		{
			"bufferView":4,
			"componentType":5126,
			"count":134,
			"max":[
				9,
				10.578125,
				9.859375
			],
			"min":[
				-6.5,
				-0.546875,
				-7.3125
			],
			"type":"VEC3"
		},
		{
			"bufferView":5,
			"componentType":5126,
			"count":134,
			"type":"VEC3"
		},
		{
			"bufferView":6,
			"componentType":5126,
			"count":134,
			"type":"VEC2"
		},
		{
			"bufferView":7,
			"componentType":5123,
			"count":162,
			"type":"SCALAR"
		},
		{
			"bufferView":8,
			"componentType":5126,
			"count":120,
			"max":[
				4.984375,
				28.1875,
				4.1875
			],
			"min":[
				-3.359375,
				11.4375,
				-3.578125
			],
			"type":"VEC3"
		},
		{
			"bufferView":9,
			"componentType":5126,
			"count":120,
			"type":"VEC3"
		},
		{
			"bufferView":10,
			"componentType":5126,
			"count":120,
			"type":"VEC2"
		},
		{
			"bufferView":11,
			"componentType":5123,
			"count":120,
			"type":"SCALAR"
		},
		{
			"bufferView":12,
			"componentType":5126,
			"count":90,
			"max":[
				5.15625,
				33.015625,
				4.796875
			],
			"min":[
				-4.3125,
				26.8125,
				-4.421875
			],
			"type":"VEC3"
		},
		{
			"bufferView":13,
			"componentType":5126,
			"count":90,
			"type":"VEC3"
		},
		{
			"bufferView":14,
			"componentType":5126,
			"count":90,
			"type":"VEC2"
		},
		{
			"bufferView":15,
			"componentType":5123,
			"count":90,
			"type":"SCALAR"
		},
		{
			"bufferView":16,
			"componentType":5126,
			"count":87,
			"max":[
				4.421875,
				13.828125,
				4.265625
			],
			"min":[
				-3.34375,
				4.734375,
				-5.234375
			],
			"type":"VEC3"
		},
		{
			"bufferView":17,
			"componentType":5126,
			"count":87,
			"type":"VEC3"
		},
		{
			"bufferView":18,
			"componentType":5126,
			"count":87,
			"type":"VEC2"
		},
		{
			"bufferView":19,
			"componentType":5123,
			"count":87,
			"type":"SCALAR"
		},
		{
			"bufferView":20,
			"componentType":5126,
			"count":99,
			"max":[
				9,
				10.578125,
				9.859375
			],
			"min":[
				-6.5,
				-0.546875,
				-7.3125
			],
			"type":"VEC3"
		},
		{
			"bufferView":21,
			"componentType":5126,
			"count":99,
			"type":"VEC3"
		},
		{
			"bufferView":22,
			"componentType":5126,
			"count":99,
			"type":"VEC2"
		},
		{
			"bufferView":23,
			"componentType":5123,
			"count":99,
			"type":"SCALAR"
		},
		{
			"bufferView":24,
			"componentType":5126,
			"count":93,
			"max":[
				4.984375,
				28.359375,
				4.1875
			],
			"min":[
				-3.359375,
				7.65625,
				-4.65625
			],
			"type":"VEC3"
		},
		{
			"bufferView":25,
			"componentType":5126,
			"count":93,
			"type":"VEC3"
		},
		{
			"bufferView":26,
			"componentType":5126,
			"count":93,
			"type":"VEC2"
		},
		{
			"bufferView":27,
			"componentType":5123,
			"count":93,
			"type":"SCALAR"
		},
		{
			"bufferView":28,
			"componentType":5126,
			"count":54,
			"max":[
				5.15625,
				33.015625,
				4.796875
			],
			"min":[
				-4.3125,
				27.109375,
				-4.421875
			],
			"type":"VEC3"
		},
		{
			"bufferView":29,
			"componentType":5126,
			"count":54,
			"type":"VEC3"
		},
		{
			"bufferView":30,
			"componentType":5126,
			"count":54,
			"type":"VEC2"
		},
		{
			"bufferView":31,
			"componentType":5123,
			"count":54,
			"type":"SCALAR"
		},
		{
			"bufferView":32,
			"componentType":5126,
			"count":39,
			"max":[
				9,
				6.96875,
				9.65625
			],
			"min":[
				-6.140625,
				-0.53125,
				-7.3125
			],
			"type":"VEC3"
		},
		{
			"bufferView":33,
			"componentType":5126,
			"count":39,
			"type":"VEC3"
		},
		{
			"bufferView":34,
			"componentType":5126,
			"count":39,
			"type":"VEC2"
		},
		{
			"bufferView":35,
			"componentType":5123,
			"count":39,
			"type":"SCALAR"
		},
		{
			"bufferView":36,
			"componentType":5126,
			"count":30,
			"max":[
				5.265625,
				21.765625,
				4.28125
			],
			"min":[
				-3.15625,
				5.15625,
				-5.546875
			],
			"type":"VEC3"
		},
		{
			"bufferView":37,
			"componentType":5126,
			"count":30,
			"type":"VEC3"
		},
		{
			"bufferView":38,
			"componentType":5126,
			"count":30,
			"type":"VEC2"
		},
		{
			"bufferView":39,
			"componentType":5123,
			"count":30,
			"type":"SCALAR"
		},
		{
			"bufferView":40,
			"componentType":5126,
			"count":45,
			"max":[
				5.15625,
				33.015625,
				4.53125
			],
			"min":[
				-4.3125,
				20.90625,
				-4.421875
			],
			"type":"VEC3"
		},
		{
			"bufferView":41,
			"componentType":5126,
			"count":45,
			"type":"VEC3"
		},
		{
			"bufferView":42,
			"componentType":5126,
			"count":45,
			"type":"VEC2"
		},
		{
			"bufferView":43,
			"componentType":5123,
			"count":45,
			"type":"SCALAR"
		},
		{
			"bufferView":44,
			"componentType":5126,
			"count":39,
			"max":[
				9,
				6.890625,
				9.65625
			],
			"min":[
				-6.140625,
				-0.53125,
				-7.3125
			],
			"type":"VEC3"
		},
		{
			"bufferView":45,
			"componentType":5126,
			"count":39,
			"type":"VEC3"
		},
		{
			"bufferView":46,
			"componentType":5126,
			"count":39,
			"type":"VEC2"
		},
		{
			"bufferView":47,
			"componentType":5123,
			"count":39,
			"type":"SCALAR"
		},
		{
			"bufferView":48,
			"componentType":5126,
			"count":45,
			"max":[
				5.265625,
				33.03125,
				4.53125
			],
			"min":[
				-4.3125,
				5.1875,
				-4.421875
			],
			"type":"VEC3"
		},
		{
			"bufferView":49,
			"componentType":5126,
			"count":45,
			"type":"VEC3"
		},
		{
			"bufferView":50,
			"componentType":5126,
			"count":45,
			"type":"VEC2"
		},
		{
			"bufferView":51,
			"componentType":5123,
			"count":45,
			"type":"SCALAR"
		},
		{
			"bufferView":52,
			"componentType":5126,
			"count":21,
			"max":[
				4.65625,
				32.84375,
				4.84375
			],
			"min":[
				-4,
				-4.72052096779532e-15,
				-4.53125
			],
			"type":"VEC3"
		},
		{
			"bufferView":53,
			"componentType":5126,
			"count":21,
			"type":"VEC3"
		},
		{
			"bufferView":54,
			"componentType":5126,
			"count":21,
			"type":"VEC2"
		},
		{
			"bufferView":55,
			"componentType":5123,
			"count":21,
			"type":"SCALAR"
		}
	],
	"bufferViews":[
		{
			"buffer":0,
			"byteLength":1104,
			"byteOffset":0,
			"target":34962
		},
		{
			"buffer":0,
			"byteLength":1104,
			"byteOffset":1104,
			"target":34962
		},
		{
			"buffer":0,
			"byteLength":736,
			"byteOffset":2208,
			"target":34962
		},
		{
			"buffer":0,
			"byteLength":192,
			"byteOffset":2944,
			"target":34963
		},
		{
			"buffer":0,
			"byteLength":1608,
			"byteOffset":3136,
			"target":34962
		},
		{
			"buffer":0,
			"byteLength":1608,
			"byteOffset":4744,
			"target":34962
		},
		{
			"buffer":0,
			"byteLength":1072,
			"byteOffset":6352,
			"target":34962
		},
		{
			"buffer":0,
			"byteLength":324,
			"byteOffset":7424,
			"target":34963
		},
		{
			"buffer":0,
			"byteLength":1440,
			"byteOffset":7748,
			"target":34962
		},
		{
			"buffer":0,
			"byteLength":1440,
			"byteOffset":9188,
			"target":34962
		},
		{
			"buffer":0,
			"byteLength":960,
			"byteOffset":10628,
			"target":34962
		},
		{
			"buffer":0,
			"byteLength":240,
			"byteOffset":11588,
			"target":34963
		},
		{
			"buffer":0,
			"byteLength":1080,
			"byteOffset":11828,
			"target":34962
		},
		{
			"buffer":0,
			"byteLength":1080,
			"byteOffset":12908,
			"target":34962
		},
		{
			"buffer":0,
			"byteLength":720,
			"byteOffset":13988,
			"target":34962
		},
		{
			"buffer":0,
			"byteLength":180,
			"byteOffset":14708,
			"target":34963
		},
		{
			"buffer":0,
			"byteLength":1044,
			"byteOffset":14888,
			"target":34962
		},
		{
			"buffer":0,
			"byteLength":1044,
			"byteOffset":15932,
			"target":34962
		},
		{
			"buffer":0,
			"byteLength":696,
			"byteOffset":16976,
			"target":34962
		},
		{
			"buffer":0,
			"byteLength":174,
			"byteOffset":17672,
			"target":34963
		},
		{
			"buffer":0,
			"byteLength":1188,
			"byteOffset":17848,
			"target":34962
		},
		{
			"buffer":0,
			"byteLength":1188,
			"byteOffset":19036,
			"target":34962
		},
		{
			"buffer":0,
			"byteLength":792,
			"byteOffset":20224,
			"target":34962
		},
		{
			"buffer":0,
			"byteLength":198,
			"byteOffset":21016,
			"target":34963
		},
		{
			"buffer":0,
			"byteLength":1116,
			"byteOffset":21216,
			"target":34962
		},
		{
			"buffer":0,
			"byteLength":1116,
			"byteOffset":22332,
			"target":34962
		},
		{
			"buffer":0,
			"byteLength":744,
			"byteOffset":23448,
			"target":34962
		},
		{
			"buffer":0,
			"byteLength":186,
			"byteOffset":24192,
			"target":34963
		},
		{
			"buffer":0,
			"byteLength":648,
			"byteOffset":24380,
			"target":34962
		},
		{
			"buffer":0,
			"byteLength":648,
			"byteOffset":25028,
			"target":34962
		},
		{
			"buffer":0,
			"byteLength":432,
			"byteOffset":25676,
			"target":34962
		},
		{
			"buffer":0,
			"byteLength":108,
			"byteOffset":26108,
			"target":34963
		},
		{
			"buffer":0,
			"byteLength":468,
			"byteOffset":26216,
			"target":34962
		},
		{
			"buffer":0,
			"byteLength":468,
			"byteOffset":26684,
			"target":34962
		},
		{
			"buffer":0,
			"byteLength":312,
			"byteOffset":27152,
			"target":34962
		},
		{
			"buffer":0,
			"byteLength":78,
			"byteOffset":27464,
			"target":34963
		},
		{
			"buffer":0,
			"byteLength":360,
			"byteOffset":27544,
			"target":34962
		},
		{
			"buffer":0,
			"byteLength":360,
			"byteOffset":27904,
			"target":34962
		},
		{
			"buffer":0,
			"byteLength":240,
			"byteOffset":28264,
			"target":34962
		},
		{
			"buffer":0,
			"byteLength":60,
			"byteOffset":28504,
			"target":34963
		},
		{
			"buffer":0,
			"byteLength":540,
			"byteOffset":28564,
			"target":34962
		},
		{
			"buffer":0,
			"byteLength":540,
			"byteOffset":29104,
			"target":34962
		},
		{
			"buffer":0,
			"byteLength":360,
			"byteOffset":29644,
			"target":34962
		},
		{
			"buffer":0,
			"byteLength":90,
			"byteOffset":30004,
			"target":34963
		},
		{
			"buffer":0,
			"byteLength":468,
			"byteOffset":30096,
			"target":34962
		},
		{
			"buffer":0,
			"byteLength":468,
			"byteOffset":30564,
			"target":34962
		},
		{
			"buffer":0,
			"byteLength":312,
			"byteOffset":31032,
			"target":34962
		},
		{
			"buffer":0,
			"byteLength":78,
			"byteOffset":31344,
			"target":34963
		},
		{
			"buffer":0,
			"byteLength":540,
			"byteOffset":31424,
			"target":34962
		},
		{
			"buffer":0,
			"byteLength":540,
			"byteOffset":31964,
			"target":34962
		},
		{
			"buffer":0,
			"byteLength":360,
			"byteOffset":32504,
			"target":34962
		},
		{
			"buffer":0,
			"byteLength":90,
			"byteOffset":32864,
			"target":34963
		},
		{
			"buffer":0,
			"byteLength":252,
			"byteOffset":32956,
			"target":34962
		},
		{
			"buffer":0,
			"byteLength":252,
			"byteOffset":33208,
			"target":34962
		},
		{
			"buffer":0,
			"byteLength":168,
			"byteOffset":33460,
			"target":34962
		},
		{
			"buffer":0,
			"byteLength":42,
			"byteOffset":33628,
			"target":34963
		}
	],
	"buffers":[
		{
			"byteLength":33672,
			"uri":"pspir1.bin"
		}
	]
}
