{
	"asset":{
		"generator":"Khronos glTF Blender I/O v4.5.48",
		"version":"2.0"
	},
	"scene":0,
	"scenes":[
		{
			"name":"Scene",
			"nodes":[
				0,
				1,
				2,
				3,
				4
			]
		}
	],
	"nodes":[
		{
			"mesh":0,
			"name":"Object"
		},
		{
			"mesh":1,
			"name":"Object.001"
		},
		{
			"mesh":2,
			"name":"Object.002"
		},
		{
			"mesh":3,
			"name":"Object.003"
		},
		{
			"mesh":4,
			"name":"Object.004"
		}
	],
	"materials":[
		{
			"doubleSided":true,
			"name":"cp_ewal01d",
			"pbrMetallicRoughness":{
				"baseColorFactor":[
					0.800000011920929,
					0.800000011920929,
					0.800000011920929,
					1
				],
				"metallicFactor":0,
				"roughnessFactor":0.5
			}
		},
		{
			"doubleSided":true,
			"name":"cp_ecombo1b",
			"pbrMetallicRoughness":{
				"baseColorFactor":[
					0.800000011920929,
					0.800000011920929,
					0.800000011920929,
					1
				],
				"metallicFactor":0,
				"roughnessFactor":0.5
			}
		},
		{
			"doubleSided":true,
			"name":"cp_ewal01b",
			"pbrMetallicRoughness":{
				"baseColorFactor":[
					0.800000011920929,
					0.800000011920929,
					0.800000011920929,
					1
				],
				"metallicFactor":0,
				"roughnessFactor":0.5
			}
		},
		{
			"doubleSided":true,
			"name":"cp_ewal01",
			"pbrMetallicRoughness":{
				"baseColorFactor":[
					0.800000011920929,
					0.800000011920929,
					0.800000011920929,
					1
				],
				"metallicFactor":0,
				"roughnessFactor":0.5
			}
		},
		{
			"doubleSided":true,
			"name":"cp_ewal01d.001",
			"pbrMetallicRoughness":{
				"baseColorFactor":[
					0.800000011920929,
					0.800000011920929,
					0.800000011920929,
					1
				],
				"metallicFactor":0,
				"roughnessFactor":0.5
			}
		},
		{
			"doubleSided":true,
			"name":"cp_ecombo1b.001",
			"pbrMetallicRoughness":{
				"baseColorFactor":[
					0.800000011920929,
					0.800000011920929,
					0.800000011920929,
					1
				],
				"metallicFactor":0,
				"roughnessFactor":0.5
			}
		},
		{
			"doubleSided":true,
			"name":"cp_ewal01b.001",
			"pbrMetallicRoughness":{
				"baseColorFactor":[
					0.800000011920929,
					0.800000011920929,
					0.800000011920929,
					1
				],
				"metallicFactor":0,
				"roughnessFactor":0.5
			}
		},
		{
			"doubleSided":true,
			"name":"cp_ewal01.001",
			"pbrMetallicRoughness":{
				"baseColorFactor":[
					0.800000011920929,
					0.800000011920929,
					0.800000011920929,
					1
				],
				"metallicFactor":0,
				"roughnessFactor":0.5
			}
		},
		{
			"doubleSided":true,
			"name":"cp_ecombo1b.002",
			"pbrMetallicRoughness":{
				"baseColorFactor":[
					0.800000011920929,
					0.800000011920929,
					0.800000011920929,
					1
				],
				"metallicFactor":0,
				"roughnessFactor":0.5
			}
		},
		{
			"doubleSided":true,
			"name":"cp_ewal01d.002",
			"pbrMetallicRoughness":{
				"baseColorFactor":[
					0.800000011920929,
					0.800000011920929,
					0.800000011920929,
					1
				],
				"metallicFactor":0,
				"roughnessFactor":0.5
			}
		},
		{
			"doubleSided":true,
			"name":"cp_ewal01.002",
			"pbrMetallicRoughness":{
				"baseColorFactor":[
					0.800000011920929,
					0.800000011920929,
					0.800000011920929,
					1
				],
				"metallicFactor":0,
				"roughnessFactor":0.5
			}
		},
		{
			"doubleSided":true,
			"name":"cp_ewal01b.002",
			"pbrMetallicRoughness":{
				"baseColorFactor":[
					0.800000011920929,
					0.800000011920929,
					0.800000011920929,
					1
				],
				"metallicFactor":0,
				"roughnessFactor":0.5
			}
		},
		{
			"doubleSided":true,
			"name":"cp_ecombo1b.003",
			"pbrMetallicRoughness":{
				"baseColorFactor":[
					0.800000011920929,
					0.800000011920929,
					0.800000011920929,
					1
				],
				"metallicFactor":0,
				"roughnessFactor":0.5
			}
		},
		{
			"doubleSided":true,
			"name":"cp_ewal01d.003",
			"pbrMetallicRoughness":{
				"baseColorFactor":[
					0.800000011920929,
					0.800000011920929,
					0.800000011920929,
					1
				],
				"metallicFactor":0,
				"roughnessFactor":0.5
			}
		},
		{
			"doubleSided":true,
			"name":"cp_ewal01.003",
			"pbrMetallicRoughness":{
				"baseColorFactor":[
					0.800000011920929,
					0.800000011920929,
					0.800000011920929,
					1
				],
				"metallicFactor":0,
				"roughnessFactor":0.5
			}
		},
		{
			"doubleSided":true,
			"name":"cp_ewal01b.003",
			"pbrMetallicRoughness":{
				"baseColorFactor":[
					0.800000011920929,
					0.800000011920929,
					0.800000011920929,
					1
				],
				"metallicFactor":0,
				"roughnessFactor":0.5
			}
		},
		{
			"doubleSided":true,
			"name":"cp_ewal01b.004",
			"pbrMetallicRoughness":{
				"baseColorFactor":[
					0.800000011920929,
					0.800000011920929,
					0.800000011920929,
					1
				],
				"metallicFactor":0,
				"roughnessFactor":0.5
			}
		}
	],
	"meshes":[
		{
			"name":"Mesh",
			"primitives":[
				{
					"attributes":{
						"POSITION":0,
						"NORMAL":1,
						"TEXCOORD_0":2
					},
					"indices":3,
					"material":0
				},
				{
					"attributes":{
						"POSITION":4,
						"NORMAL":5,
						"TEXCOORD_0":6
					},
					"indices":7,
					"material":1
				},
				{
					"attributes":{
						"POSITION":8,
						"NORMAL":9,
						"TEXCOORD_0":10
					},
					"indices":11,
					"material":2
				},
				{
					"attributes":{
						"POSITION":12,
						"NORMAL":13,
						"TEXCOORD_0":14
					},
					"indices":15,
					"material":3
				}
			]
		},
		{
			"name":"Mesh.001",
			"primitives":[
				{
					"attributes":{
						"POSITION":16,
						"NORMAL":17,
						"TEXCOORD_0":18
					},
					"indices":19,
					"material":4
				},
				{
					"attributes":{
						"POSITION":20,
						"NORMAL":21,
						"TEXCOORD_0":22
					},
					"indices":23,
					"material":5
				},
				{
					"attributes":{
						"POSITION":24,
						"NORMAL":25,
						"TEXCOORD_0":26
					},
					"indices":27,
					"material":6
				},
				{
					"attributes":{
						"POSITION":28,
						"NORMAL":29,
						"TEXCOORD_0":30
					},
					"indices":31,
					"material":7
				}
			]
		},
		{
			"name":"Mesh.002",
			"primitives":[
				{
					"attributes":{
						"POSITION":32,
						"NORMAL":33,
						"TEXCOORD_0":34
					},
					"indices":35,
					"material":8
				},
				{
					"attributes":{
						"POSITION":36,
						"NORMAL":37,
						"TEXCOORD_0":38
					},
					"indices":39,
					"material":9
				},
				{
					"attributes":{
						"POSITION":40,
						"NORMAL":41,
						"TEXCOORD_0":42
					},
					"indices":43,
					"material":10
				},
				{
					"attributes":{
						"POSITION":44,
						"NORMAL":45,
						"TEXCOORD_0":46
					},
					"indices":47,
					"material":11
				}
			]
		},
		{
			"name":"Mesh.003",
			"primitives":[
				{
					"attributes":{
						"POSITION":48,
						"NORMAL":49,
						"TEXCOORD_0":50
					},
					"indices":51,
					"material":12
				},
				{
					"attributes":{
						"POSITION":52,
						"NORMAL":53,
						"TEXCOORD_0":54
					},
					"indices":55,
					"material":13
				},
				{
					"attributes":{
						"POSITION":56,
						"NORMAL":57,
						"TEXCOORD_0":58
					},
					"indices":59,
					"material":14
				},
				{
					"attributes":{
						"POSITION":60,
						"NORMAL":61,
						"TEXCOORD_0":62
					},
					"indices":63,
					"material":15
				}
			]
		},
		{
			"name":"Mesh.004",
			"primitives":[
				{
					"attributes":{
						"POSITION":64,
						"NORMAL":65,
						"TEXCOORD_0":66
					},
					"indices":67,
					"material":16
				}
			]
		}
	],
	"accessors":[
		{
			"bufferView":0,
			"componentType":5126,
			"count":685,
			"max":[
				5.9375,
				23.9375,
				14.421875
			],
			"min":[
				-9,
				4.734375,
				-13.15625
			],
			"type":"VEC3"
		},
		{
			"bufferView":1,
			"componentType":5126,
			"count":685,
			"type":"VEC3"
		},
		{
			"bufferView":2,
			"componentType":5126,
			"count":685,
			"type":"VEC2"
		},
		{
			"bufferView":3,
			"componentType":5123,
			"count":1458,
			"type":"SCALAR"
		},
		{
			"bufferView":4,
			"componentType":5126,
			"count":657,
			"max":[
				10.828125,
				15.421875,
				21.03125
			],
			"min":[
				-12.96875,
				-0.703125,
				-15.21875
			],
			"type":"VEC3"
		},
		{
			"bufferView":5,
			"componentType":5126,
			"count":657,
			"type":"VEC3"
		},
		{
			"bufferView":6,
			"componentType":5126,
			"count":657,
			"type":"VEC2"
		},
		{
			"bufferView":7,
			"componentType":5123,
			"count":1320,
			"type":"SCALAR"
		},
		{
			"bufferView":8,
			"componentType":5126,
			"count":824,
			"max":[
				5.34375,
				40,
				14.40625
			],
			"min":[
				-9.203125,
				7.65625,
				-12.5625
			],
			"type":"VEC3"
		},
		{
			"bufferView":9,
			"componentType":5126,
			"count":824,
			"type":"VEC3"
		},
		{
			"bufferView":10,
			"componentType":5126,
			"count":824,
			"type":"VEC2"
		},
		{
			"bufferView":11,
			"componentType":5123,
			"count":1815,
			"type":"SCALAR"
		},
		{
			"bufferView":12,
			"componentType":5126,
			"count":325,
			"max":[
				5.078125,
				46.71875,
				14.1875
			],
			"min":[
				-9.40625,
				26.8125,
				-11.90625
			],
			"type":"VEC3"
		},
		{
			"bufferView":13,
			"componentType":5126,
			"count":325,
			"type":"VEC3"
		},
		{
			"bufferView":14,
			"componentType":5126,
			"count":325,
			"type":"VEC2"
		},
		{
			"bufferView":15,
			"componentType":5123,
			"count":387,
			"type":"SCALAR"
		},
		{
			"bufferView":16,
			"componentType":5126,
			"count":600,
			"max":[
				5.9375,
				24.203125,
				14.421875
			],
			"min":[
				-9,
				4.734375,
				-13.15625
			],
			"type":"VEC3"
		},
		{
			"bufferView":17,
			"componentType":5126,
			"count":600,
			"type":"VEC3"
		},
		{
			"bufferView":18,
			"componentType":5126,
			"count":600,
			"type":"VEC2"
		},
		{
			"bufferView":19,
			"componentType":5123,
			"count":1272,
			"type":"SCALAR"
		},
		{
			"bufferView":20,
			"componentType":5126,
			"count":660,
			"max":[
				10.828125,
				15.421875,
				21.03125
			],
			"min":[
				-12.96875,
				-0.703125,
				-15.21875
			],
			"type":"VEC3"
		},
		{
			"bufferView":21,
			"componentType":5126,
			"count":660,
			"type":"VEC3"
		},
		{
			"bufferView":22,
			"componentType":5126,
			"count":660,
			"type":"VEC2"
		},
		{
			"bufferView":23,
			"componentType":5123,
			"count":1332,
			"type":"SCALAR"
		},
		{
			"bufferView":24,
			"componentType":5126,
			"count":538,
			"max":[
				5.015625,
				40.234375,
				14.140625
			],
			"min":[
				-9.140625,
				7.65625,
				-12.5625
			],
			"type":"VEC3"
		},
		{
			"bufferView":25,
			"componentType":5126,
			"count":538,
			"type":"VEC3"
		},
		{
			"bufferView":26,
			"componentType":5126,
			"count":538,
			"type":"VEC2"
		},
		{
			"bufferView":27,
			"componentType":5123,
			"count":1098,
			"type":"SCALAR"
		},
		{
			"bufferView":28,
			"componentType":5126,
			"count":194,
			"max":[
				5.078125,
				46.703125,
				14.1875
			],
			"min":[
				-9.40625,
				27.109375,
				-11.90625
			],
			"type":"VEC3"
		},
		{
			"bufferView":29,
			"componentType":5126,
			"count":194,
			"type":"VEC3"
		},
		{
			"bufferView":30,
			"componentType":5126,
			"count":194,
			"type":"VEC2"
		},
		{
			"bufferView":31,
			"componentType":5123,
			"count":216,
			"type":"SCALAR"
		},
		{
			"bufferView":32,
			"componentType":5126,
			"count":467,
			"max":[
				10.03125,
				14.891983985900879,
				21.03125
			],
			"min":[
				-12.96875,
				-0.703125,
				-15.21875
			],
			"type":"VEC3"
		},
		{
			"bufferView":33,
			"componentType":5126,
			"count":467,
			"type":"VEC3"
		},
		{
			"bufferView":34,
			"componentType":5126,
			"count":467,
			"type":"VEC2"
		},
		{
			"bufferView":35,
			"componentType":5123,
			"count":1068,
			"type":"SCALAR"
		},
		{
			"bufferView":36,
			"componentType":5126,
			"count":406,
			"max":[
				5.484375,
				23.609375,
				14.421875
			],
			"min":[
				-9.140625,
				5.15625,
				-13.15625
			],
			"type":"VEC3"
		},
		{
			"bufferView":37,
			"componentType":5126,
			"count":406,
			"type":"VEC3"
		},
		{
			"bufferView":38,
			"componentType":5126,
			"count":406,
			"type":"VEC2"
		},
		{
			"bufferView":39,
			"componentType":5123,
			"count":966,
			"type":"SCALAR"
		},
		{
			"bufferView":40,
			"componentType":5126,
			"count":199,
			"max":[
				5.078125,
				46.71875,
				14.1875
			],
			"min":[
				-9.40625,
				26.765625,
				-11.90625
			],
			"type":"VEC3"
		},
		{
			"bufferView":41,
			"componentType":5126,
			"count":199,
			"type":"VEC3"
		},
		{
			"bufferView":42,
			"componentType":5126,
			"count":199,
			"type":"VEC2"
		},
		{
			"bufferView":43,
			"componentType":5123,
			"count":240,
			"type":"SCALAR"
		},
		{
			"bufferView":44,
			"componentType":5126,
			"count":319,
			"max":[
				4.828125,
				39.703125,
				14.046875
			],
			"min":[
				-8.75,
				14.40625,
				-11.390625
			],
			"type":"VEC3"
		},
		{
			"bufferView":45,
			"componentType":5126,
			"count":319,
			"type":"VEC3"
		},
		{
			"bufferView":46,
			"componentType":5126,
			"count":319,
			"type":"VEC2"
		},
		{
			"bufferView":47,
			"componentType":5123,
			"count":690,
			"type":"SCALAR"
		},
		{
			"bufferView":48,
			"componentType":5126,
			"count":313,
			"max":[
				9.265625,
				10.375,
				20.59375
			],
			"min":[
				-12.96875,
				-0.703125,
				-15.21875
			],
			"type":"VEC3"
		},
		{
			"bufferView":49,
			"componentType":5126,
			"count":313,
			"type":"VEC3"
		},
		{
			"bufferView":50,
			"componentType":5126,
			"count":313,
			"type":"VEC2"
		},
		{
			"bufferView":51,
			"componentType":5123,
			"count":699,
			"type":"SCALAR"
		},
		{
			"bufferView":52,
			"componentType":5126,
			"count":241,
			"max":[
				5.484375,
				23.609375,
				14.421875
			],
			"min":[
				-8.75,
				5.15625,
				-13.453125
			],
			"type":"VEC3"
		},
		{
			"bufferView":53,
			"componentType":5126,
			"count":241,
			"type":"VEC3"
		},
		{
			"bufferView":54,
			"componentType":5126,
			"count":241,
			"type":"VEC2"
		},
		{
			"bufferView":55,
			"componentType":5123,
			"count":576,
			"type":"SCALAR"
		},
		{
			"bufferView":56,
			"componentType":5126,
			"count":135,
			"max":[
				5.078125,
				46.71875,
				14.046875
			],
			"min":[
				-9.40625,
				26.75,
				-11.90625
			],
			"type":"VEC3"
		},
		{
			"bufferView":57,
			"componentType":5126,
			"count":135,
			"type":"VEC3"
		},
		{
			"bufferView":58,
			"componentType":5126,
			"count":135,
			"type":"VEC2"
		},
		{
			"bufferView":59,
			"componentType":5123,
			"count":135,
			"type":"SCALAR"
		},
		{
			"bufferView":60,
			"componentType":5126,
			"count":117,
			"max":[
				4.390625,
				39.609375,
				13.8125
			],
			"min":[
				-8.75,
				13.671875,
				-11.375
			],
			"type":"VEC3"
		},
		{
			"bufferView":61,
			"componentType":5126,
			"count":117,
			"type":"VEC3"
		},
		{
			"bufferView":62,
			"componentType":5126,
			"count":117,
			"type":"VEC2"
		},
		{
			"bufferView":63,
			"componentType":5123,
			"count":135,
			"type":"SCALAR"
		},
		{
			"bufferView":64,
			"componentType":5126,
			"count":59,
			"max":[
				2.75,
				45.9375,
				11.40625
			],
			"min":[
				-8.4375,
				-0.609375,
				-9.703125
			],
			"type":"VEC3"
		},
		{
			"bufferView":65,
			"componentType":5126,
			"count":59,
			"type":"VEC3"
		},
		{
			"bufferView":66,
			"componentType":5126,
			"count":59,
			"type":"VEC2"
		},
		{
			"bufferView":67,
			"componentType":5123,
			"count":63,
			"type":"SCALAR"
		}
	],
	"bufferViews":[
		{
			"buffer":0,
			"byteLength":8220,
			"byteOffset":0,
			"target":34962
		},
		{
			"buffer":0,
			"byteLength":8220,
			"byteOffset":8220,
			"target":34962
		},
		{
			"buffer":0,
			"byteLength":5480,
			"byteOffset":16440,
			"target":34962
		},
		{
			"buffer":0,
			"byteLength":2916,
			"byteOffset":21920,
			"target":34963
		},
		{
			"buffer":0,
			"byteLength":7884,
			"byteOffset":24836,
			"target":34962
		},
		{
			"buffer":0,
			"byteLength":7884,
			"byteOffset":32720,
			"target":34962
		},
		{
			"buffer":0,
			"byteLength":5256,
			"byteOffset":40604,
			"target":34962
		},
		{
			"buffer":0,
			"byteLength":2640,
			"byteOffset":45860,
			"target":34963
		},
		{
			"buffer":0,
			"byteLength":9888,
			"byteOffset":48500,
			"target":34962
		},
		{
			"buffer":0,
			"byteLength":9888,
			"byteOffset":58388,
			"target":34962
		},
		{
			"buffer":0,
			"byteLength":6592,
			"byteOffset":68276,
			"target":34962
		},
		{
			"buffer":0,
			"byteLength":3630,
			"byteOffset":74868,
			"target":34963
		},
		{
			"buffer":0,
			"byteLength":3900,
			"byteOffset":78500,
			"target":34962
		},
		{
			"buffer":0,
			"byteLength":3900,
			"byteOffset":82400,
			"target":34962
		},
		{
			"buffer":0,
			"byteLength":2600,
			"byteOffset":86300,
			"target":34962
		},
		{
			"buffer":0,
			"byteLength":774,
			"byteOffset":88900,
			"target":34963
		},
		{
			"buffer":0,
			"byteLength":7200,
			"byteOffset":89676,
			"target":34962
		},
		{
			"buffer":0,
			"byteLength":7200,
			"byteOffset":96876,
			"target":34962
		},
		{
			"buffer":0,
			"byteLength":4800,
			"byteOffset":104076,
			"target":34962
		},
		{
			"buffer":0,
			"byteLength":2544,
			"byteOffset":108876,
			"target":34963
		},
		{
			"buffer":0,
			"byteLength":7920,
			"byteOffset":111420,
			"target":34962
		},
		{
			"buffer":0,
			"byteLength":7920,
			"byteOffset":119340,
			"target":34962
		},
		{
			"buffer":0,
			"byteLength":5280,
			"byteOffset":127260,
			"target":34962
		},
		{
			"buffer":0,
			"byteLength":2664,
			"byteOffset":132540,
			"target":34963
		},
		{
			"buffer":0,
			"byteLength":6456,
			"byteOffset":135204,
			"target":34962
		},
		{
			"buffer":0,
			"byteLength":6456,
			"byteOffset":141660,
			"target":34962
		},
		{
			"buffer":0,
			"byteLength":4304,
			"byteOffset":148116,
			"target":34962
		},
		{
			"buffer":0,
			"byteLength":2196,
			"byteOffset":152420,
			"target":34963
		},
		{
			"buffer":0,
			"byteLength":2328,
			"byteOffset":154616,
			"target":34962
		},
		{
			"buffer":0,
			"byteLength":2328,
			"byteOffset":156944,
			"target":34962
		},
		{
			"buffer":0,
			"byteLength":1552,
			"byteOffset":159272,
			"target":34962
		},
		{
			"buffer":0,
			"byteLength":432,
			"byteOffset":160824,
			"target":34963
		},
		{
			"buffer":0,
			"byteLength":5604,
			"byteOffset":161256,
			"target":34962
		},
		{
			"buffer":0,
			"byteLength":5604,
			"byteOffset":166860,
			"target":34962
		},
		{
			"buffer":0,
			"byteLength":3736,
			"byteOffset":172464,
			"target":34962
		},
		{
			"buffer":0,
			"byteLength":2136,
			"byteOffset":176200,
			"target":34963
		},
		{
			"buffer":0,
			"byteLength":4872,
			"byteOffset":178336,
			"target":34962
		},
		{
			"buffer":0,
			"byteLength":4872,
			"byteOffset":183208,
			"target":34962
		},
		{
			"buffer":0,
			"byteLength":3248,
			"byteOffset":188080,
			"target":34962
		},
		{
			"buffer":0,
			"byteLength":1932,
			"byteOffset":191328,
			"target":34963
		},
		{
			"buffer":0,
			"byteLength":2388,
			"byteOffset":193260,
			"target":34962
		},
		{
			"buffer":0,
			"byteLength":2388,
			"byteOffset":195648,
			"target":34962
		},
		{
			"buffer":0,
			"byteLength":1592,
			"byteOffset":198036,
			"target":34962
		},
		{
			"buffer":0,
			"byteLength":480,
			"byteOffset":199628,
			"target":34963
		},
		{
			"buffer":0,
			"byteLength":3828,
			"byteOffset":200108,
			"target":34962
		},
		{
			"buffer":0,
			"byteLength":3828,
			"byteOffset":203936,
			"target":34962
		},
		{
			"buffer":0,
			"byteLength":2552,
			"byteOffset":207764,
			"target":34962
		},
		{
			"buffer":0,
			"byteLength":1380,
			"byteOffset":210316,
			"target":34963
		},
		{
			"buffer":0,
			"byteLength":3756,
			"byteOffset":211696,
			"target":34962
		},
		{
			"buffer":0,
			"byteLength":3756,
			"byteOffset":215452,
			"target":34962
		},
		{
			"buffer":0,
			"byteLength":2504,
			"byteOffset":219208,
			"target":34962
		},
		{
			"buffer":0,
			"byteLength":1398,
			"byteOffset":221712,
			"target":34963
		},
		{
			"buffer":0,
			"byteLength":2892,
			"byteOffset":223112,
			"target":34962
		},
		{
			"buffer":0,
			"byteLength":2892,
			"byteOffset":226004,
			"target":34962
		},
		{
			"buffer":0,
			"byteLength":1928,
			"byteOffset":228896,
			"target":34962
		},
		{
			"buffer":0,
			"byteLength":1152,
			"byteOffset":230824,
			"target":34963
		},
		{
			"buffer":0,
			"byteLength":1620,
			"byteOffset":231976,
			"target":34962
		},
		{
			"buffer":0,
			"byteLength":1620,
			"byteOffset":233596,
			"target":34962
		},
		{
			"buffer":0,
			"byteLength":1080,
			"byteOffset":235216,
			"target":34962
		},
		{
			"buffer":0,
			"byteLength":270,
			"byteOffset":236296,
			"target":34963
		},
		{
			"buffer":0,
			"byteLength":1404,
			"byteOffset":236568,
			"target":34962
		},
		{
			"buffer":0,
			"byteLength":1404,
			"byteOffset":237972,
			"target":34962
		},
		{
			"buffer":0,
			"byteLength":936,
			"byteOffset":239376,
			"target":34962
		},
		{
			"buffer":0,
			"byteLength":270,
			"byteOffset":240312,
			"target":34963
		},
		{
			"buffer":0,
			"byteLength":708,
			"byteOffset":240584,
			"target":34962
		},
		{
			"buffer":0,
			"byteLength":708,
			"byteOffset":241292,
			"target":34962
		},
		{
			"buffer":0,
			"byteLength":472,
			"byteOffset":242000,
			"target":34962
		},
		{
			"buffer":0,
			"byteLength":126,
			"byteOffset":242472,
			"target":34963
		}
	],
	"buffers":[
		{
			"byteLength":242600,
			"uri":"pspir4.bin"
		}
	]
}
