{
	"asset":{
		"generator":"Khronos glTF Blender I/O v4.5.48",
		"version":"2.0"
	},
	"scene":0,
	"scenes":[
		{
			"name":"Scene",
			"nodes":[
				0
			]
		}
	],
	"nodes":[
		{
			"mesh":0,
			"name":"Object"
		}
	],
	"materials":[
		{
			"doubleSided":true,
			"name":"SW_IWAL03SNOW",
			"pbrMetallicRoughness":{
				"baseColorFactor":[
					0.800000011920929,
					0.800000011920929,
					0.800000011920929,
					1
				],
				"metallicFactor":0,
				"roughnessFactor":0.5
			}
		},
		{
			"doubleSided":true,
			"name":"SW_IWAL03",
			"pbrMetallicRoughness":{
				"baseColorFactor":[
					0.800000011920929,
					0.800000011920929,
					0.800000011920929,
					1
				],
				"metallicFactor":0,
				"roughnessFactor":0.5
			}
		},
		{
			"doubleSided":true,
			"name":"SW_EWAL02",
			"pbrMetallicRoughness":{
				"baseColorFactor":[
					0.800000011920929,
					0.800000011920929,
					0.800000011920929,
					1
				],
				"metallicFactor":0,
				"roughnessFactor":0.5
			}
		},
		{
			"doubleSided":true,
			"name":"SW_EDOOR03",
			"pbrMetallicRoughness":{
				"baseColorFactor":[
					0.800000011920929,
					0.800000011920929,
					0.800000011920929,
					1
				],
				"metallicFactor":0,
				"roughnessFactor":0.5
			}
		},
		{
			"doubleSided":true,
			"name":"SW_EFLO01",
			"pbrMetallicRoughness":{
				"baseColorFactor":[
					0.800000011920929,
					0.800000011920929,
					0.800000011920929,
					1
				],
				"metallicFactor":0,
				"roughnessFactor":0.5
			}
		},
		{
			"doubleSided":true,
			"name":"SW_ESPEC03",
			"pbrMetallicRoughness":{
				"baseColorFactor":[
					0.800000011920929,
					0.800000011920929,
					0.800000011920929,
					1
				],
				"metallicFactor":0,
				"roughnessFactor":0.5
			}
		},
		{
			"doubleSided":true,
			"name":"SW_EWAL01C",
			"pbrMetallicRoughness":{
				"baseColorFactor":[
					0.800000011920929,
					0.800000011920929,
					0.800000011920929,
					1
				],
				"metallicFactor":0,
				"roughnessFactor":0.5
			}
		},
		{
			"doubleSided":true,
			"name":"SW_IBORLIG02",
			"pbrMetallicRoughness":{
				"baseColorFactor":[
					0.800000011920929,
					0.800000011920929,
					0.800000011920929,
					1
				],
				"metallicFactor":0,
				"roughnessFactor":0.5
			}
		},
		{
			"doubleSided":true,
			"name":"SW_IWAL04",
			"pbrMetallicRoughness":{
				"baseColorFactor":[
					0.800000011920929,
					0.800000011920929,
					0.800000011920929,
					1
				],
				"metallicFactor":0,
				"roughnessFactor":0.5
			}
		},
		{
			"doubleSided":true,
			"name":"SW_EWAL06B",
			"pbrMetallicRoughness":{
				"baseColorFactor":[
					0.800000011920929,
					0.800000011920929,
					0.800000011920929,
					1
				],
				"metallicFactor":0,
				"roughnessFactor":0.5
			}
		},
		{
			"doubleSided":true,
			"name":"SW_THRESHGRATE",
			"pbrMetallicRoughness":{
				"baseColorFactor":[
					0.800000011920929,
					0.800000011920929,
					0.800000011920929,
					1
				],
				"metallicFactor":0,
				"roughnessFactor":0.5
			}
		}
	],
	"meshes":[
		{
			"name":"Mesh",
			"primitives":[
				{
					"attributes":{
						"POSITION":0,
						"NORMAL":1,
						"TEXCOORD_0":2
					},
					"indices":3,
					"material":0
				},
				{
					"attributes":{
						"POSITION":4,
						"NORMAL":5,
						"TEXCOORD_0":6
					},
					"indices":7,
					"material":1
				},
				{
					"attributes":{
						"POSITION":8,
						"NORMAL":9,
						"TEXCOORD_0":10
					},
					"indices":11,
					"material":2
				},
				{
					"attributes":{
						"POSITION":12,
						"NORMAL":13,
						"TEXCOORD_0":14
					},
					"indices":15,
					"material":3
				},
				{
					"attributes":{
						"POSITION":16,
						"NORMAL":17,
						"TEXCOORD_0":18
					},
					"indices":19,
					"material":4
				},
				{
					"attributes":{
						"POSITION":20,
						"NORMAL":21,
						"TEXCOORD_0":22
					},
					"indices":23,
					"material":5
				},
				{
					"attributes":{
						"POSITION":24,
						"NORMAL":25,
						"TEXCOORD_0":26
					},
					"indices":27,
					"material":6
				},
				{
					"attributes":{
						"POSITION":28,
						"NORMAL":29,
						"TEXCOORD_0":30
					},
					"indices":31,
					"material":7
				},
				{
					"attributes":{
						"POSITION":32,
						"NORMAL":33,
						"TEXCOORD_0":34
					},
					"indices":35,
					"material":8
				},
				{
					"attributes":{
						"POSITION":36,
						"NORMAL":37,
						"TEXCOORD_0":38
					},
					"indices":39,
					"material":9
				},
				{
					"attributes":{
						"POSITION":40,
						"NORMAL":41,
						"TEXCOORD_0":42
					},
					"indices":43,
					"material":10
				}
			]
		}
	],
	"accessors":[
		{
			"bufferView":0,
			"componentType":5126,
			"count":40,
			"max":[
				7,
				-9,
				6
			],
			"min":[
				-7,
				-16,
				-6
			],
			"type":"VEC3"
		},
		{
			"bufferView":1,
			"componentType":5126,
			"count":40,
			"type":"VEC3"
		},
		{
			"bufferView":2,
			"componentType":5126,
			"count":40,
			"type":"VEC2"
		},
		{
			"bufferView":3,
			"componentType":5123,
			"count":60,
			"type":"SCALAR"
		},
		{
			"bufferView":4,
			"componentType":5126,
			"count":204,
			"max":[
				7,
				10,
				42.5
			],
			"min":[
				-7,
				-9,
				-41.5
			],
			"type":"VEC3"
		},
		{
			"bufferView":5,
			"componentType":5126,
			"count":204,
			"type":"VEC3"
		},
		{
			"bufferView":6,
			"componentType":5126,
			"count":204,
			"type":"VEC2"
		},
		{
			"bufferView":7,
			"componentType":5123,
			"count":366,
			"type":"SCALAR"
		},
		{
			"bufferView":8,
			"componentType":5126,
			"count":108,
			"max":[
				7,
				10,
				10.5
			],
			"min":[
				-7,
				6.5,
				-10.5
			],
			"type":"VEC3"
		},
		{
			"bufferView":9,
			"componentType":5126,
			"count":108,
			"type":"VEC3"
		},
		{
			"bufferView":10,
			"componentType":5126,
			"count":108,
			"type":"VEC2"
		},
		{
			"bufferView":11,
			"componentType":5123,
			"count":162,
			"type":"SCALAR"
		},
		{
			"bufferView":12,
			"componentType":5126,
			"count":4,
			"max":[
				7,
				-4,
				-4
			],
			"min":[
				4,
				-6,
				-4
			],
			"type":"VEC3"
		},
		{
			"bufferView":13,
			"componentType":5126,
			"count":4,
			"type":"VEC3"
		},
		{
			"bufferView":14,
			"componentType":5126,
			"count":4,
			"type":"VEC2"
		},
		{
			"bufferView":15,
			"componentType":5123,
			"count":6,
			"type":"SCALAR"
		},
		{
			"bufferView":16,
			"componentType":5126,
			"count":8,
			"max":[
				4,
				5,
				41.5
			],
			"min":[
				-4,
				5,
				-40.5
			],
			"type":"VEC3"
		},
		{
			"bufferView":17,
			"componentType":5126,
			"count":8,
			"type":"VEC3"
		},
		{
			"bufferView":18,
			"componentType":5126,
			"count":8,
			"type":"VEC2"
		},
		{
			"bufferView":19,
			"componentType":5123,
			"count":18,
			"type":"SCALAR"
		},
		{
			"bufferView":20,
			"componentType":5126,
			"count":24,
			"max":[
				4,
				5,
				42.5
			],
			"min":[
				-4,
				4,
				-41.5
			],
			"type":"VEC3"
		},
		{
			"bufferView":21,
			"componentType":5126,
			"count":24,
			"type":"VEC3"
		},
		{
			"bufferView":22,
			"componentType":5126,
			"count":24,
			"type":"VEC2"
		},
		{
			"bufferView":23,
			"componentType":5123,
			"count":48,
			"type":"SCALAR"
		},
		{
			"bufferView":24,
			"componentType":5126,
			"count":8,
			"max":[
				4,
				5,
				42.5
			],
			"min":[
				-4,
				4,
				-41.5
			],
			"type":"VEC3"
		},
		{
			"bufferView":25,
			"componentType":5126,
			"count":8,
			"type":"VEC3"
		},
		{
			"bufferView":26,
			"componentType":5126,
			"count":8,
			"type":"VEC2"
		},
		{
			"bufferView":27,
			"componentType":5123,
			"count":12,
			"type":"SCALAR"
		},
		{
			"bufferView":28,
			"componentType":5126,
			"count":24,
			"max":[
				6,
				7.5,
				42.5
			],
			"min":[
				-6,
				3,
				-41.5
			],
			"type":"VEC3"
		},
		{
			"bufferView":29,
			"componentType":5126,
			"count":24,
			"type":"VEC3"
		},
		{
			"bufferView":30,
			"componentType":5126,
			"count":24,
			"type":"VEC2"
		},
		{
			"bufferView":31,
			"componentType":5123,
			"count":42,
			"type":"SCALAR"
		},
		{
			"bufferView":32,
			"componentType":5126,
			"count":20,
			"max":[
				4,
				4,
				42.5
			],
			"min":[
				-4,
				3,
				-41.5
			],
			"type":"VEC3"
		},
		{
			"bufferView":33,
			"componentType":5126,
			"count":20,
			"type":"VEC3"
		},
		{
			"bufferView":34,
			"componentType":5126,
			"count":20,
			"type":"VEC2"
		},
		{
			"bufferView":35,
			"componentType":5123,
			"count":36,
			"type":"SCALAR"
		},
		{
			"bufferView":36,
			"componentType":5126,
			"count":12,
			"max":[
				7,
				8,
				-10.5
			],
			"min":[
				-4.5,
				6.5,
				-10.5
			],
			"type":"VEC3"
		},
		{
			"bufferView":37,
			"componentType":5126,
			"count":12,
			"type":"VEC3"
		},
		{
			"bufferView":38,
			"componentType":5126,
			"count":12,
			"type":"VEC2"
		},
		{
			"bufferView":39,
			"componentType":5123,
			"count":18,
			"type":"SCALAR"
		},
		{
			"bufferView":40,
			"componentType":5126,
			"count":8,
			"max":[
				4,
				5,
				42.5
			],
			"min":[
				-4,
				5,
				-41.5
			],
			"type":"VEC3"
		},
		{
			"bufferView":41,
			"componentType":5126,
			"count":8,
			"type":"VEC3"
		},
		{
			"bufferView":42,
			"componentType":5126,
			"count":8,
			"type":"VEC2"
		},
		{
			"bufferView":43,
			"componentType":5123,
			"count":12,
			"type":"SCALAR"
		}
	],
	"bufferViews":[
		{
			"buffer":0,
			"byteLength":480,
			"byteOffset":0,
			"target":34962
		},
		{
			"buffer":0,
			"byteLength":480,
			"byteOffset":480,
			"target":34962
		},
		{
			"buffer":0,
			"byteLength":320,
			"byteOffset":960,
			"target":34962
		},
		{
			"buffer":0,
			"byteLength":120,
			"byteOffset":1280,
			"target":34963
		},
		{
			"buffer":0,
			"byteLength":2448,
			"byteOffset":1400,
			"target":34962
		},
		{
			"buffer":0,
			"byteLength":2448,
			"byteOffset":3848,
			"target":34962
		},
		{
			"buffer":0,
			"byteLength":1632,
			"byteOffset":6296,
			"target":34962
		},
		{
			"buffer":0,
			"byteLength":732,
			"byteOffset":7928,
			"target":34963
		},
		{
			"buffer":0,
			"byteLength":1296,
			"byteOffset":8660,
			"target":34962
		},
		{
			"buffer":0,
			"byteLength":1296,
			"byteOffset":9956,
			"target":34962
		},
		{
			"buffer":0,
			"byteLength":864,
			"byteOffset":11252,
			"target":34962
		},
		{
			"buffer":0,
			"byteLength":324,
			"byteOffset":12116,
			"target":34963
		},
		{
			"buffer":0,
			"byteLength":48,
			"byteOffset":12440,
			"target":34962
		},
		{
			"buffer":0,
			"byteLength":48,
			"byteOffset":12488,
			"target":34962
		},
		{
			"buffer":0,
			"byteLength":32,
			"byteOffset":12536,
			"target":34962
		},
		{
			"buffer":0,
			"byteLength":12,
			"byteOffset":12568,
			"target":34963
		},
		{
			"buffer":0,
			"byteLength":96,
			"byteOffset":12580,
			"target":34962
		},
		{
			"buffer":0,
			"byteLength":96,
			"byteOffset":12676,
			"target":34962
		},
		{
			"buffer":0,
			"byteLength":64,
			"byteOffset":12772,
			"target":34962
		},
		{
			"buffer":0,
			"byteLength":36,
			"byteOffset":12836,
			"target":34963
		},
		{
			"buffer":0,
			"byteLength":288,
			"byteOffset":12872,
			"target":34962
		},
		{
			"buffer":0,
			"byteLength":288,
			"byteOffset":13160,
			"target":34962
		},
		{
			"buffer":0,
			"byteLength":192,
			"byteOffset":13448,
			"target":34962
		},
		{
			"buffer":0,
			"byteLength":96,
			"byteOffset":13640,
			"target":34963
		},
		{
			"buffer":0,
			"byteLength":96,
			"byteOffset":13736,
			"target":34962
		},
		{
			"buffer":0,
			"byteLength":96,
			"byteOffset":13832,
			"target":34962
		},
		{
			"buffer":0,
			"byteLength":64,
			"byteOffset":13928,
			"target":34962
		},
		{
			"buffer":0,
			"byteLength":24,
			"byteOffset":13992,
			"target":34963
		},
		{
			"buffer":0,
			"byteLength":288,
			"byteOffset":14016,
			"target":34962
		},
		{
			"buffer":0,
			"byteLength":288,
			"byteOffset":14304,
			"target":34962
		},
		{
			"buffer":0,
			"byteLength":192,
			"byteOffset":14592,
			"target":34962
		},
		{
			"buffer":0,
			"byteLength":84,
			"byteOffset":14784,
			"target":34963
		},
		{
			"buffer":0,
			"byteLength":240,
			"byteOffset":14868,
			"target":34962
		},
		{
			"buffer":0,
			"byteLength":240,
			"byteOffset":15108,
			"target":34962
		},
		{
			"buffer":0,
			"byteLength":160,
			"byteOffset":15348,
			"target":34962
		},
		{
			"buffer":0,
			"byteLength":72,
			"byteOffset":15508,
			"target":34963
		},
		{
			"buffer":0,
			"byteLength":144,
			"byteOffset":15580,
			"target":34962
		},
		{
			"buffer":0,
			"byteLength":144,
			"byteOffset":15724,
			"target":34962
		},
		{
			"buffer":0,
			"byteLength":96,
			"byteOffset":15868,
			"target":34962
		},
		{
			"buffer":0,
			"byteLength":36,
			"byteOffset":15964,
			"target":34963
		},
		{
			"buffer":0,
			"byteLength":96,
			"byteOffset":16000,
			"target":34962
		},
		{
			"buffer":0,
			"byteLength":96,
			"byteOffset":16096,
			"target":34962
		},
		{
			"buffer":0,
			"byteLength":64,
			"byteOffset":16192,
			"target":34962
		},
		{
			"buffer":0,
			"byteLength":24,
			"byteOffset":16256,
			"target":34963
		}
	],
	"buffers":[
		{
			"byteLength":16280,
			"uri":"sbrdg4.bin"
		}
	]
}
