{
	"asset":{
		"generator":"Khronos glTF Blender I/O v4.5.48",
		"version":"2.0"
	},
	"scene":0,
	"scenes":[
		{
			"name":"Scene",
			"nodes":[
				0
			]
		}
	],
	"nodes":[
		{
			"mesh":0,
			"name":"Object"
		}
	],
	"materials":[
		{
			"doubleSided":true,
			"name":"SW_IWAL03",
			"pbrMetallicRoughness":{
				"baseColorFactor":[
					0.800000011920929,
					0.800000011920929,
					0.800000011920929,
					1
				],
				"metallicFactor":0,
				"roughnessFactor":0.5
			}
		},
		{
			"doubleSided":true,
			"name":"SW_EWAL02",
			"pbrMetallicRoughness":{
				"baseColorFactor":[
					0.800000011920929,
					0.800000011920929,
					0.800000011920929,
					1
				],
				"metallicFactor":0,
				"roughnessFactor":0.5
			}
		},
		{
			"doubleSided":true,
			"name":"SW_IBORLIG02",
			"pbrMetallicRoughness":{
				"baseColorFactor":[
					0.800000011920929,
					0.800000011920929,
					0.800000011920929,
					1
				],
				"metallicFactor":0,
				"roughnessFactor":0.5
			}
		},
		{
			"doubleSided":true,
			"name":"SW_EFLO01",
			"pbrMetallicRoughness":{
				"baseColorFactor":[
					0.800000011920929,
					0.800000011920929,
					0.800000011920929,
					1
				],
				"metallicFactor":0,
				"roughnessFactor":0.5
			}
		},
		{
			"doubleSided":true,
			"name":"SW_ESPEC03",
			"pbrMetallicRoughness":{
				"baseColorFactor":[
					0.800000011920929,
					0.800000011920929,
					0.800000011920929,
					1
				],
				"metallicFactor":0,
				"roughnessFactor":0.5
			}
		},
		{
			"doubleSided":true,
			"name":"SW_EWAL01C",
			"pbrMetallicRoughness":{
				"baseColorFactor":[
					0.800000011920929,
					0.800000011920929,
					0.800000011920929,
					1
				],
				"metallicFactor":0,
				"roughnessFactor":0.5
			}
		},
		{
			"doubleSided":true,
			"name":"SW_IWAL04",
			"pbrMetallicRoughness":{
				"baseColorFactor":[
					0.800000011920929,
					0.800000011920929,
					0.800000011920929,
					1
				],
				"metallicFactor":0,
				"roughnessFactor":0.5
			}
		},
		{
			"doubleSided":true,
			"name":"SW_THRESHGRATE",
			"pbrMetallicRoughness":{
				"baseColorFactor":[
					0.800000011920929,
					0.800000011920929,
					0.800000011920929,
					1
				],
				"metallicFactor":0,
				"roughnessFactor":0.5
			}
		}
	],
	"meshes":[
		{
			"name":"Mesh",
			"primitives":[
				{
					"attributes":{
						"POSITION":0,
						"NORMAL":1,
						"TEXCOORD_0":2
					},
					"indices":3,
					"material":0
				},
				{
					"attributes":{
						"POSITION":4,
						"NORMAL":5,
						"TEXCOORD_0":6
					},
					"indices":7,
					"material":1
				},
				{
					"attributes":{
						"POSITION":8,
						"NORMAL":9,
						"TEXCOORD_0":10
					},
					"indices":11,
					"material":2
				},
				{
					"attributes":{
						"POSITION":12,
						"NORMAL":13,
						"TEXCOORD_0":14
					},
					"indices":15,
					"material":3
				},
				{
					"attributes":{
						"POSITION":16,
						"NORMAL":17,
						"TEXCOORD_0":18
					},
					"indices":19,
					"material":4
				},
				{
					"attributes":{
						"POSITION":20,
						"NORMAL":21,
						"TEXCOORD_0":22
					},
					"indices":23,
					"material":5
				},
				{
					"attributes":{
						"POSITION":24,
						"NORMAL":25,
						"TEXCOORD_0":26
					},
					"indices":27,
					"material":6
				},
				{
					"attributes":{
						"POSITION":28,
						"NORMAL":29,
						"TEXCOORD_0":30
					},
					"indices":31,
					"material":7
				}
			]
		}
	],
	"accessors":[
		{
			"bufferView":0,
			"componentType":5126,
			"count":168,
			"max":[
				7,
				5.5,
				42
			],
			"min":[
				-7,
				2,
				-42
			],
			"type":"VEC3"
		},
		{
			"bufferView":1,
			"componentType":5126,
			"count":168,
			"type":"VEC3"
		},
		{
			"bufferView":2,
			"componentType":5126,
			"count":168,
			"type":"VEC2"
		},
		{
			"bufferView":3,
			"componentType":5123,
			"count":312,
			"type":"SCALAR"
		},
		{
			"bufferView":4,
			"componentType":5126,
			"count":132,
			"max":[
				7,
				5.5,
				7
			],
			"min":[
				-7,
				2,
				-7
			],
			"type":"VEC3"
		},
		{
			"bufferView":5,
			"componentType":5126,
			"count":132,
			"type":"VEC3"
		},
		{
			"bufferView":6,
			"componentType":5126,
			"count":132,
			"type":"VEC2"
		},
		{
			"bufferView":7,
			"componentType":5123,
			"count":204,
			"type":"SCALAR"
		},
		{
			"bufferView":8,
			"componentType":5126,
			"count":28,
			"max":[
				6,
				4.5,
				42
			],
			"min":[
				-6,
				3,
				-42
			],
			"type":"VEC3"
		},
		{
			"bufferView":9,
			"componentType":5126,
			"count":28,
			"type":"VEC3"
		},
		{
			"bufferView":10,
			"componentType":5126,
			"count":28,
			"type":"VEC2"
		},
		{
			"bufferView":11,
			"componentType":5123,
			"count":42,
			"type":"SCALAR"
		},
		{
			"bufferView":12,
			"componentType":5126,
			"count":8,
			"max":[
				4,
				5,
				41
			],
			"min":[
				-4,
				5,
				-41
			],
			"type":"VEC3"
		},
		{
			"bufferView":13,
			"componentType":5126,
			"count":8,
			"type":"VEC3"
		},
		{
			"bufferView":14,
			"componentType":5126,
			"count":8,
			"type":"VEC2"
		},
		{
			"bufferView":15,
			"componentType":5123,
			"count":18,
			"type":"SCALAR"
		},
		{
			"bufferView":16,
			"componentType":5126,
			"count":24,
			"max":[
				4,
				5,
				42
			],
			"min":[
				-4,
				4,
				-42
			],
			"type":"VEC3"
		},
		{
			"bufferView":17,
			"componentType":5126,
			"count":24,
			"type":"VEC3"
		},
		{
			"bufferView":18,
			"componentType":5126,
			"count":24,
			"type":"VEC2"
		},
		{
			"bufferView":19,
			"componentType":5123,
			"count":48,
			"type":"SCALAR"
		},
		{
			"bufferView":20,
			"componentType":5126,
			"count":8,
			"max":[
				4,
				5,
				42
			],
			"min":[
				-4,
				4,
				-42
			],
			"type":"VEC3"
		},
		{
			"bufferView":21,
			"componentType":5126,
			"count":8,
			"type":"VEC3"
		},
		{
			"bufferView":22,
			"componentType":5126,
			"count":8,
			"type":"VEC2"
		},
		{
			"bufferView":23,
			"componentType":5123,
			"count":12,
			"type":"SCALAR"
		},
		{
			"bufferView":24,
			"componentType":5126,
			"count":32,
			"max":[
				4,
				4,
				42
			],
			"min":[
				-4,
				3,
				-42
			],
			"type":"VEC3"
		},
		{
			"bufferView":25,
			"componentType":5126,
			"count":32,
			"type":"VEC3"
		},
		{
			"bufferView":26,
			"componentType":5126,
			"count":32,
			"type":"VEC2"
		},
		{
			"bufferView":27,
			"componentType":5123,
			"count":60,
			"type":"SCALAR"
		},
		{
			"bufferView":28,
			"componentType":5126,
			"count":8,
			"max":[
				4,
				5,
				42
			],
			"min":[
				-4,
				5,
				-42
			],
			"type":"VEC3"
		},
		{
			"bufferView":29,
			"componentType":5126,
			"count":8,
			"type":"VEC3"
		},
		{
			"bufferView":30,
			"componentType":5126,
			"count":8,
			"type":"VEC2"
		},
		{
			"bufferView":31,
			"componentType":5123,
			"count":12,
			"type":"SCALAR"
		}
	],
	"bufferViews":[
		{
			"buffer":0,
			"byteLength":2016,
			"byteOffset":0,
			"target":34962
		},
		{
			"buffer":0,
			"byteLength":2016,
			"byteOffset":2016,
			"target":34962
		},
		{
			"buffer":0,
			"byteLength":1344,
			"byteOffset":4032,
			"target":34962
		},
		{
			"buffer":0,
			"byteLength":624,
			"byteOffset":5376,
			"target":34963
		},
		{
			"buffer":0,
			"byteLength":1584,
			"byteOffset":6000,
			"target":34962
		},
		{
			"buffer":0,
			"byteLength":1584,
			"byteOffset":7584,
			"target":34962
		},
		{
			"buffer":0,
			"byteLength":1056,
			"byteOffset":9168,
			"target":34962
		},
		{
			"buffer":0,
			"byteLength":408,
			"byteOffset":10224,
			"target":34963
		},
		{
			"buffer":0,
			"byteLength":336,
			"byteOffset":10632,
			"target":34962
		},
		{
			"buffer":0,
			"byteLength":336,
			"byteOffset":10968,
			"target":34962
		},
		{
			"buffer":0,
			"byteLength":224,
			"byteOffset":11304,
			"target":34962
		},
		{
			"buffer":0,
			"byteLength":84,
			"byteOffset":11528,
			"target":34963
		},
		{
			"buffer":0,
			"byteLength":96,
			"byteOffset":11612,
			"target":34962
		},
		{
			"buffer":0,
			"byteLength":96,
			"byteOffset":11708,
			"target":34962
		},
		{
			"buffer":0,
			"byteLength":64,
			"byteOffset":11804,
			"target":34962
		},
		{
			"buffer":0,
			"byteLength":36,
			"byteOffset":11868,
			"target":34963
		},
		{
			"buffer":0,
			"byteLength":288,
			"byteOffset":11904,
			"target":34962
		},
		{
			"buffer":0,
			"byteLength":288,
			"byteOffset":12192,
			"target":34962
		},
		{
			"buffer":0,
			"byteLength":192,
			"byteOffset":12480,
			"target":34962
		},
		{
			"buffer":0,
			"byteLength":96,
			"byteOffset":12672,
			"target":34963
		},
		{
			"buffer":0,
			"byteLength":96,
			"byteOffset":12768,
			"target":34962
		},
		{
			"buffer":0,
			"byteLength":96,
			"byteOffset":12864,
			"target":34962
		},
		{
			"buffer":0,
			"byteLength":64,
			"byteOffset":12960,
			"target":34962
		},
		{
			"buffer":0,
			"byteLength":24,
			"byteOffset":13024,
			"target":34963
		},
		{
			"buffer":0,
			"byteLength":384,
			"byteOffset":13048,
			"target":34962
		},
		{
			"buffer":0,
			"byteLength":384,
			"byteOffset":13432,
			"target":34962
		},
		{
			"buffer":0,
			"byteLength":256,
			"byteOffset":13816,
			"target":34962
		},
		{
			"buffer":0,
			"byteLength":120,
			"byteOffset":14072,
			"target":34963
		},
		{
			"buffer":0,
			"byteLength":96,
			"byteOffset":14192,
			"target":34962
		},
		{
			"buffer":0,
			"byteLength":96,
			"byteOffset":14288,
			"target":34962
		},
		{
			"buffer":0,
			"byteLength":64,
			"byteOffset":14384,
			"target":34962
		},
		{
			"buffer":0,
			"byteLength":24,
			"byteOffset":14448,
			"target":34963
		}
	],
	"buffers":[
		{
			"byteLength":14472,
			"uri":"sbrdg5.bin"
		}
	]
}
