{
	"asset":{
		"generator":"Khronos glTF Blender I/O v4.5.48",
		"version":"2.0"
	},
	"scene":0,
	"scenes":[
		{
			"name":"Scene",
			"nodes":[
				0
			]
		}
	],
	"nodes":[
		{
			"mesh":0,
			"name":"Object"
		}
	],
	"materials":[
		{
			"doubleSided":true,
			"name":"SW_IWAL03",
			"pbrMetallicRoughness":{
				"baseColorFactor":[
					0.800000011920929,
					0.800000011920929,
					0.800000011920929,
					1
				],
				"metallicFactor":0,
				"roughnessFactor":0.5
			}
		},
		{
			"doubleSided":true,
			"name":"SW_IWAL03SNOW",
			"pbrMetallicRoughness":{
				"baseColorFactor":[
					0.800000011920929,
					0.800000011920929,
					0.800000011920929,
					1
				],
				"metallicFactor":0,
				"roughnessFactor":0.5
			}
		},
		{
			"doubleSided":true,
			"name":"SW_IWAL035BSEB",
			"pbrMetallicRoughness":{
				"baseColorFactor":[
					0.800000011920929,
					0.800000011920929,
					0.800000011920929,
					1
				],
				"metallicFactor":0,
				"roughnessFactor":0.5
			}
		},
		{
			"doubleSided":true,
			"name":"SW_FLOORGRATE",
			"pbrMetallicRoughness":{
				"baseColorFactor":[
					0.800000011920929,
					0.800000011920929,
					0.800000011920929,
					1
				],
				"metallicFactor":0,
				"roughnessFactor":0.5
			}
		},
		{
			"doubleSided":true,
			"name":"SW_IWAL05",
			"pbrMetallicRoughness":{
				"baseColorFactor":[
					0.800000011920929,
					0.800000011920929,
					0.800000011920929,
					1
				],
				"metallicFactor":0,
				"roughnessFactor":0.5
			}
		},
		{
			"doubleSided":true,
			"name":"SW_ESPEC03",
			"pbrMetallicRoughness":{
				"baseColorFactor":[
					0.800000011920929,
					0.800000011920929,
					0.800000011920929,
					1
				],
				"metallicFactor":0,
				"roughnessFactor":0.5
			}
		},
		{
			"doubleSided":true,
			"name":"SW_IWAL04",
			"pbrMetallicRoughness":{
				"baseColorFactor":[
					0.800000011920929,
					0.800000011920929,
					0.800000011920929,
					1
				],
				"metallicFactor":0,
				"roughnessFactor":0.5
			}
		},
		{
			"doubleSided":true,
			"name":"SW_EFLO01C",
			"pbrMetallicRoughness":{
				"baseColorFactor":[
					0.800000011920929,
					0.800000011920929,
					0.800000011920929,
					1
				],
				"metallicFactor":0,
				"roughnessFactor":0.5
			}
		},
		{
			"doubleSided":true,
			"name":"SW_ELIG01",
			"pbrMetallicRoughness":{
				"baseColorFactor":[
					0.800000011920929,
					0.800000011920929,
					0.800000011920929,
					1
				],
				"metallicFactor":0,
				"roughnessFactor":0.5
			}
		},
		{
			"doubleSided":true,
			"name":"SW_EWAL02",
			"pbrMetallicRoughness":{
				"baseColorFactor":[
					0.800000011920929,
					0.800000011920929,
					0.800000011920929,
					1
				],
				"metallicFactor":0,
				"roughnessFactor":0.5
			}
		},
		{
			"doubleSided":true,
			"name":"SW_IBORLIG02",
			"pbrMetallicRoughness":{
				"baseColorFactor":[
					0.800000011920929,
					0.800000011920929,
					0.800000011920929,
					1
				],
				"metallicFactor":0,
				"roughnessFactor":0.5
			}
		},
		{
			"doubleSided":true,
			"name":"SW_EWAL06B",
			"pbrMetallicRoughness":{
				"baseColorFactor":[
					0.800000011920929,
					0.800000011920929,
					0.800000011920929,
					1
				],
				"metallicFactor":0,
				"roughnessFactor":0.5
			}
		},
		{
			"doubleSided":true,
			"name":"SW_ECAP01C",
			"pbrMetallicRoughness":{
				"baseColorFactor":[
					0.800000011920929,
					0.800000011920929,
					0.800000011920929,
					1
				],
				"metallicFactor":0,
				"roughnessFactor":0.5
			}
		}
	],
	"meshes":[
		{
			"name":"Mesh",
			"primitives":[
				{
					"attributes":{
						"POSITION":0,
						"NORMAL":1,
						"TEXCOORD_0":2
					},
					"indices":3,
					"material":0
				},
				{
					"attributes":{
						"POSITION":4,
						"NORMAL":5,
						"TEXCOORD_0":6
					},
					"indices":7,
					"material":1
				},
				{
					"attributes":{
						"POSITION":8,
						"NORMAL":9,
						"TEXCOORD_0":10
					},
					"indices":11,
					"material":2
				},
				{
					"attributes":{
						"POSITION":12,
						"NORMAL":13,
						"TEXCOORD_0":14
					},
					"indices":15,
					"material":3
				},
				{
					"attributes":{
						"POSITION":16,
						"NORMAL":17,
						"TEXCOORD_0":18
					},
					"indices":19,
					"material":4
				},
				{
					"attributes":{
						"POSITION":20,
						"NORMAL":21,
						"TEXCOORD_0":22
					},
					"indices":23,
					"material":5
				},
				{
					"attributes":{
						"POSITION":24,
						"NORMAL":25,
						"TEXCOORD_0":26
					},
					"indices":27,
					"material":6
				},
				{
					"attributes":{
						"POSITION":28,
						"NORMAL":29,
						"TEXCOORD_0":30
					},
					"indices":31,
					"material":7
				},
				{
					"attributes":{
						"POSITION":32,
						"NORMAL":33,
						"TEXCOORD_0":34
					},
					"indices":35,
					"material":8
				},
				{
					"attributes":{
						"POSITION":36,
						"NORMAL":37,
						"TEXCOORD_0":38
					},
					"indices":39,
					"material":9
				},
				{
					"attributes":{
						"POSITION":40,
						"NORMAL":41,
						"TEXCOORD_0":42
					},
					"indices":43,
					"material":10
				},
				{
					"attributes":{
						"POSITION":44,
						"NORMAL":45,
						"TEXCOORD_0":46
					},
					"indices":47,
					"material":11
				},
				{
					"attributes":{
						"POSITION":48,
						"NORMAL":49,
						"TEXCOORD_0":50
					},
					"indices":51,
					"material":12
				}
			]
		}
	],
	"accessors":[
		{
			"bufferView":0,
			"componentType":5126,
			"count":558,
			"max":[
				14.5,
				33.5,
				7.5
			],
			"min":[
				-14.5,
				-16,
				-17
			],
			"type":"VEC3"
		},
		{
			"bufferView":1,
			"componentType":5126,
			"count":558,
			"type":"VEC3"
		},
		{
			"bufferView":2,
			"componentType":5126,
			"count":558,
			"type":"VEC2"
		},
		{
			"bufferView":3,
			"componentType":5123,
			"count":936,
			"type":"SCALAR"
		},
		{
			"bufferView":4,
			"componentType":5126,
			"count":16,
			"max":[
				3,
				-8.5,
				0
			],
			"min":[
				-3,
				-16,
				-13
			],
			"type":"VEC3"
		},
		{
			"bufferView":5,
			"componentType":5126,
			"count":16,
			"type":"VEC3"
		},
		{
			"bufferView":6,
			"componentType":5126,
			"count":16,
			"type":"VEC2"
		},
		{
			"bufferView":7,
			"componentType":5123,
			"count":24,
			"type":"SCALAR"
		},
		{
			"bufferView":8,
			"componentType":5126,
			"count":20,
			"max":[
				7,
				20.5,
				5
			],
			"min":[
				-7,
				18.5,
				-17
			],
			"type":"VEC3"
		},
		{
			"bufferView":9,
			"componentType":5126,
			"count":20,
			"type":"VEC3"
		},
		{
			"bufferView":10,
			"componentType":5126,
			"count":20,
			"type":"VEC2"
		},
		{
			"bufferView":11,
			"componentType":5123,
			"count":36,
			"type":"SCALAR"
		},
		{
			"bufferView":12,
			"componentType":5126,
			"count":14,
			"max":[
				12,
				21.5,
				10
			],
			"min":[
				-12,
				21.5,
				-16
			],
			"type":"VEC3"
		},
		{
			"bufferView":13,
			"componentType":5126,
			"count":14,
			"type":"VEC3"
		},
		{
			"bufferView":14,
			"componentType":5126,
			"count":14,
			"type":"VEC2"
		},
		{
			"bufferView":15,
			"componentType":5123,
			"count":30,
			"type":"SCALAR"
		},
		{
			"bufferView":16,
			"componentType":5126,
			"count":42,
			"max":[
				12,
				20.5,
				10
			],
			"min":[
				-12,
				20.5,
				-40
			],
			"type":"VEC3"
		},
		{
			"bufferView":17,
			"componentType":5126,
			"count":42,
			"type":"VEC3"
		},
		{
			"bufferView":18,
			"componentType":5126,
			"count":42,
			"type":"VEC2"
		},
		{
			"bufferView":19,
			"componentType":5123,
			"count":126,
			"type":"SCALAR"
		},
		{
			"bufferView":20,
			"componentType":5126,
			"count":46,
			"max":[
				12,
				21.5,
				10
			],
			"min":[
				-12,
				20.5,
				-40
			],
			"type":"VEC3"
		},
		{
			"bufferView":21,
			"componentType":5126,
			"count":46,
			"type":"VEC3"
		},
		{
			"bufferView":22,
			"componentType":5126,
			"count":46,
			"type":"VEC2"
		},
		{
			"bufferView":23,
			"componentType":5123,
			"count":78,
			"type":"SCALAR"
		},
		{
			"bufferView":24,
			"componentType":5126,
			"count":116,
			"max":[
				12,
				22.5,
				6.5
			],
			"min":[
				-12,
				20,
				-12
			],
			"type":"VEC3"
		},
		{
			"bufferView":25,
			"componentType":5126,
			"count":116,
			"type":"VEC3"
		},
		{
			"bufferView":26,
			"componentType":5126,
			"count":116,
			"type":"VEC2"
		},
		{
			"bufferView":27,
			"componentType":5123,
			"count":216,
			"type":"SCALAR"
		},
		{
			"bufferView":28,
			"componentType":5126,
			"count":14,
			"max":[
				9,
				21.5,
				6
			],
			"min":[
				-9,
				21.5,
				-40
			],
			"type":"VEC3"
		},
		{
			"bufferView":29,
			"componentType":5126,
			"count":14,
			"type":"VEC3"
		},
		{
			"bufferView":30,
			"componentType":5126,
			"count":14,
			"type":"VEC2"
		},
		{
			"bufferView":31,
			"componentType":5123,
			"count":30,
			"type":"SCALAR"
		},
		{
			"bufferView":32,
			"componentType":5126,
			"count":16,
			"max":[
				10,
				22.5,
				4
			],
			"min":[
				-10,
				20,
				-10
			],
			"type":"VEC3"
		},
		{
			"bufferView":33,
			"componentType":5126,
			"count":16,
			"type":"VEC3"
		},
		{
			"bufferView":34,
			"componentType":5126,
			"count":16,
			"type":"VEC2"
		},
		{
			"bufferView":35,
			"componentType":5123,
			"count":24,
			"type":"SCALAR"
		},
		{
			"bufferView":36,
			"componentType":5126,
			"count":86,
			"max":[
				14,
				33.5,
				7.5
			],
			"min":[
				-14,
				19.5,
				-15.5
			],
			"type":"VEC3"
		},
		{
			"bufferView":37,
			"componentType":5126,
			"count":86,
			"type":"VEC3"
		},
		{
			"bufferView":38,
			"componentType":5126,
			"count":86,
			"type":"VEC2"
		},
		{
			"bufferView":39,
			"componentType":5123,
			"count":198,
			"type":"SCALAR"
		},
		{
			"bufferView":40,
			"componentType":5126,
			"count":32,
			"max":[
				13.5,
				32.5,
				7
			],
			"min":[
				-13.5,
				20.5,
				-12.5
			],
			"type":"VEC3"
		},
		{
			"bufferView":41,
			"componentType":5126,
			"count":32,
			"type":"VEC3"
		},
		{
			"bufferView":42,
			"componentType":5126,
			"count":32,
			"type":"VEC2"
		},
		{
			"bufferView":43,
			"componentType":5123,
			"count":48,
			"type":"SCALAR"
		},
		{
			"bufferView":44,
			"componentType":5126,
			"count":64,
			"max":[
				15.5,
				27,
				6.5
			],
			"min":[
				-15.5,
				26,
				-12
			],
			"type":"VEC3"
		},
		{
			"bufferView":45,
			"componentType":5126,
			"count":64,
			"type":"VEC3"
		},
		{
			"bufferView":46,
			"componentType":5126,
			"count":64,
			"type":"VEC2"
		},
		{
			"bufferView":47,
			"componentType":5123,
			"count":96,
			"type":"SCALAR"
		},
		{
			"bufferView":48,
			"componentType":5126,
			"count":128,
			"max":[
				15.5,
				30.5,
				6.5
			],
			"min":[
				-15.5,
				22.5,
				-12
			],
			"type":"VEC3"
		},
		{
			"bufferView":49,
			"componentType":5126,
			"count":128,
			"type":"VEC3"
		},
		{
			"bufferView":50,
			"componentType":5126,
			"count":128,
			"type":"VEC2"
		},
		{
			"bufferView":51,
			"componentType":5123,
			"count":192,
			"type":"SCALAR"
		}
	],
	"bufferViews":[
		{
			"buffer":0,
			"byteLength":6696,
			"byteOffset":0,
			"target":34962
		},
		{
			"buffer":0,
			"byteLength":6696,
			"byteOffset":6696,
			"target":34962
		},
		{
			"buffer":0,
			"byteLength":4464,
			"byteOffset":13392,
			"target":34962
		},
		{
			"buffer":0,
			"byteLength":1872,
			"byteOffset":17856,
			"target":34963
		},
		{
			"buffer":0,
			"byteLength":192,
			"byteOffset":19728,
			"target":34962
		},
		{
			"buffer":0,
			"byteLength":192,
			"byteOffset":19920,
			"target":34962
		},
		{
			"buffer":0,
			"byteLength":128,
			"byteOffset":20112,
			"target":34962
		},
		{
			"buffer":0,
			"byteLength":48,
			"byteOffset":20240,
			"target":34963
		},
		{
			"buffer":0,
			"byteLength":240,
			"byteOffset":20288,
			"target":34962
		},
		{
			"buffer":0,
			"byteLength":240,
			"byteOffset":20528,
			"target":34962
		},
		{
			"buffer":0,
			"byteLength":160,
			"byteOffset":20768,
			"target":34962
		},
		{
			"buffer":0,
			"byteLength":72,
			"byteOffset":20928,
			"target":34963
		},
		{
			"buffer":0,
			"byteLength":168,
			"byteOffset":21000,
			"target":34962
		},
		{
			"buffer":0,
			"byteLength":168,
			"byteOffset":21168,
			"target":34962
		},
		{
			"buffer":0,
			"byteLength":112,
			"byteOffset":21336,
			"target":34962
		},
		{
			"buffer":0,
			"byteLength":60,
			"byteOffset":21448,
			"target":34963
		},
		{
			"buffer":0,
			"byteLength":504,
			"byteOffset":21508,
			"target":34962
		},
		{
			"buffer":0,
			"byteLength":504,
			"byteOffset":22012,
			"target":34962
		},
		{
			"buffer":0,
			"byteLength":336,
			"byteOffset":22516,
			"target":34962
		},
		{
			"buffer":0,
			"byteLength":252,
			"byteOffset":22852,
			"target":34963
		},
		{
			"buffer":0,
			"byteLength":552,
			"byteOffset":23104,
			"target":34962
		},
		{
			"buffer":0,
			"byteLength":552,
			"byteOffset":23656,
			"target":34962
		},
		{
			"buffer":0,
			"byteLength":368,
			"byteOffset":24208,
			"target":34962
		},
		{
			"buffer":0,
			"byteLength":156,
			"byteOffset":24576,
			"target":34963
		},
		{
			"buffer":0,
			"byteLength":1392,
			"byteOffset":24732,
			"target":34962
		},
		{
			"buffer":0,
			"byteLength":1392,
			"byteOffset":26124,
			"target":34962
		},
		{
			"buffer":0,
			"byteLength":928,
			"byteOffset":27516,
			"target":34962
		},
		{
			"buffer":0,
			"byteLength":432,
			"byteOffset":28444,
			"target":34963
		},
		{
			"buffer":0,
			"byteLength":168,
			"byteOffset":28876,
			"target":34962
		},
		{
			"buffer":0,
			"byteLength":168,
			"byteOffset":29044,
			"target":34962
		},
		{
			"buffer":0,
			"byteLength":112,
			"byteOffset":29212,
			"target":34962
		},
		{
			"buffer":0,
			"byteLength":60,
			"byteOffset":29324,
			"target":34963
		},
		{
			"buffer":0,
			"byteLength":192,
			"byteOffset":29384,
			"target":34962
		},
		{
			"buffer":0,
			"byteLength":192,
			"byteOffset":29576,
			"target":34962
		},
		{
			"buffer":0,
			"byteLength":128,
			"byteOffset":29768,
			"target":34962
		},
		{
			"buffer":0,
			"byteLength":48,
			"byteOffset":29896,
			"target":34963
		},
		{
			"buffer":0,
			"byteLength":1032,
			"byteOffset":29944,
			"target":34962
		},
		{
			"buffer":0,
			"byteLength":1032,
			"byteOffset":30976,
			"target":34962
		},
		{
			"buffer":0,
			"byteLength":688,
			"byteOffset":32008,
			"target":34962
		},
		{
			"buffer":0,
			"byteLength":396,
			"byteOffset":32696,
			"target":34963
		},
		{
			"buffer":0,
			"byteLength":384,
			"byteOffset":33092,
			"target":34962
		},
		{
			"buffer":0,
			"byteLength":384,
			"byteOffset":33476,
			"target":34962
		},
		{
			"buffer":0,
			"byteLength":256,
			"byteOffset":33860,
			"target":34962
		},
		{
			"buffer":0,
			"byteLength":96,
			"byteOffset":34116,
			"target":34963
		},
		{
			"buffer":0,
			"byteLength":768,
			"byteOffset":34212,
			"target":34962
		},
		{
			"buffer":0,
			"byteLength":768,
			"byteOffset":34980,
			"target":34962
		},
		{
			"buffer":0,
			"byteLength":512,
			"byteOffset":35748,
			"target":34962
		},
		{
			"buffer":0,
			"byteLength":192,
			"byteOffset":36260,
			"target":34963
		},
		{
			"buffer":0,
			"byteLength":1536,
			"byteOffset":36452,
			"target":34962
		},
		{
			"buffer":0,
			"byteLength":1536,
			"byteOffset":37988,
			"target":34962
		},
		{
			"buffer":0,
			"byteLength":1024,
			"byteOffset":39524,
			"target":34962
		},
		{
			"buffer":0,
			"byteLength":384,
			"byteOffset":40548,
			"target":34963
		}
	],
	"buffers":[
		{
			"byteLength":40932,
			"uri":"sbrdgn.bin"
		}
	]
}
