{
	"asset":{
		"generator":"Khronos glTF Blender I/O v4.5.48",
		"version":"2.0"
	},
	"scene":0,
	"scenes":[
		{
			"name":"Scene",
			"nodes":[
				0
			]
		}
	],
	"nodes":[
		{
			"mesh":0,
			"name":"Object"
		}
	],
	"materials":[
		{
			"doubleSided":true,
			"name":"SW_IWAL03",
			"pbrMetallicRoughness":{
				"baseColorFactor":[
					0.800000011920929,
					0.800000011920929,
					0.800000011920929,
					1
				],
				"metallicFactor":0,
				"roughnessFactor":0.5
			}
		},
		{
			"doubleSided":true,
			"name":"SW_EFLO01C",
			"pbrMetallicRoughness":{
				"baseColorFactor":[
					0.800000011920929,
					0.800000011920929,
					0.800000011920929,
					1
				],
				"metallicFactor":0,
				"roughnessFactor":0.5
			}
		},
		{
			"doubleSided":true,
			"name":"SW_EWAL02",
			"pbrMetallicRoughness":{
				"baseColorFactor":[
					0.800000011920929,
					0.800000011920929,
					0.800000011920929,
					1
				],
				"metallicFactor":0,
				"roughnessFactor":0.5
			}
		},
		{
			"doubleSided":true,
			"name":"SW_ESPEC03",
			"pbrMetallicRoughness":{
				"baseColorFactor":[
					0.800000011920929,
					0.800000011920929,
					0.800000011920929,
					1
				],
				"metallicFactor":0,
				"roughnessFactor":0.5
			}
		},
		{
			"doubleSided":true,
			"name":"SW_THRESHGRATE",
			"pbrMetallicRoughness":{
				"baseColorFactor":[
					0.800000011920929,
					0.800000011920929,
					0.800000011920929,
					1
				],
				"metallicFactor":0,
				"roughnessFactor":0.5
			}
		},
		{
			"doubleSided":true,
			"name":"SW_FLOORGRATE",
			"pbrMetallicRoughness":{
				"baseColorFactor":[
					0.800000011920929,
					0.800000011920929,
					0.800000011920929,
					1
				],
				"metallicFactor":0,
				"roughnessFactor":0.5
			}
		},
		{
			"doubleSided":true,
			"name":"SW_IBORLIG01",
			"pbrMetallicRoughness":{
				"baseColorFactor":[
					0.800000011920929,
					0.800000011920929,
					0.800000011920929,
					1
				],
				"metallicFactor":0,
				"roughnessFactor":0.5
			}
		},
		{
			"doubleSided":true,
			"name":"SW_IWAL04",
			"pbrMetallicRoughness":{
				"baseColorFactor":[
					0.800000011920929,
					0.800000011920929,
					0.800000011920929,
					1
				],
				"metallicFactor":0,
				"roughnessFactor":0.5
			}
		},
		{
			"doubleSided":true,
			"name":"SW_IBORLIG02",
			"pbrMetallicRoughness":{
				"baseColorFactor":[
					0.800000011920929,
					0.800000011920929,
					0.800000011920929,
					1
				],
				"metallicFactor":0,
				"roughnessFactor":0.5
			}
		},
		{
			"doubleSided":true,
			"name":"SW_ELIG01",
			"pbrMetallicRoughness":{
				"baseColorFactor":[
					0.800000011920929,
					0.800000011920929,
					0.800000011920929,
					1
				],
				"metallicFactor":0,
				"roughnessFactor":0.5
			}
		},
		{
			"doubleSided":true,
			"name":"SW_IWAL03SNOW",
			"pbrMetallicRoughness":{
				"baseColorFactor":[
					0.800000011920929,
					0.800000011920929,
					0.800000011920929,
					1
				],
				"metallicFactor":0,
				"roughnessFactor":0.5
			}
		},
		{
			"doubleSided":true,
			"name":"SW_IWAL01_4BSB",
			"pbrMetallicRoughness":{
				"baseColorFactor":[
					0.800000011920929,
					0.800000011920929,
					0.800000011920929,
					1
				],
				"metallicFactor":0,
				"roughnessFactor":0.5
			}
		},
		{
			"doubleSided":true,
			"name":"SW_ELIG02",
			"pbrMetallicRoughness":{
				"baseColorFactor":[
					0.800000011920929,
					0.800000011920929,
					0.800000011920929,
					1
				],
				"metallicFactor":0,
				"roughnessFactor":0.5
			}
		}
	],
	"meshes":[
		{
			"name":"Mesh",
			"primitives":[
				{
					"attributes":{
						"POSITION":0,
						"NORMAL":1,
						"TEXCOORD_0":2
					},
					"indices":3,
					"material":0
				},
				{
					"attributes":{
						"POSITION":4,
						"NORMAL":5,
						"TEXCOORD_0":6
					},
					"indices":7,
					"material":1
				},
				{
					"attributes":{
						"POSITION":8,
						"NORMAL":9,
						"TEXCOORD_0":10
					},
					"indices":11,
					"material":2
				},
				{
					"attributes":{
						"POSITION":12,
						"NORMAL":13,
						"TEXCOORD_0":14
					},
					"indices":15,
					"material":3
				},
				{
					"attributes":{
						"POSITION":16,
						"NORMAL":17,
						"TEXCOORD_0":18
					},
					"indices":19,
					"material":4
				},
				{
					"attributes":{
						"POSITION":20,
						"NORMAL":21,
						"TEXCOORD_0":22
					},
					"indices":23,
					"material":5
				},
				{
					"attributes":{
						"POSITION":24,
						"NORMAL":25,
						"TEXCOORD_0":26
					},
					"indices":27,
					"material":6
				},
				{
					"attributes":{
						"POSITION":28,
						"NORMAL":29,
						"TEXCOORD_0":30
					},
					"indices":31,
					"material":7
				},
				{
					"attributes":{
						"POSITION":32,
						"NORMAL":33,
						"TEXCOORD_0":34
					},
					"indices":35,
					"material":8
				},
				{
					"attributes":{
						"POSITION":36,
						"NORMAL":37,
						"TEXCOORD_0":38
					},
					"indices":39,
					"material":9
				},
				{
					"attributes":{
						"POSITION":40,
						"NORMAL":41,
						"TEXCOORD_0":42
					},
					"indices":43,
					"material":10
				},
				{
					"attributes":{
						"POSITION":44,
						"NORMAL":45,
						"TEXCOORD_0":46
					},
					"indices":47,
					"material":11
				},
				{
					"attributes":{
						"POSITION":48,
						"NORMAL":49,
						"TEXCOORD_0":50
					},
					"indices":51,
					"material":12
				}
			]
		}
	],
	"accessors":[
		{
			"bufferView":0,
			"componentType":5126,
			"count":962,
			"max":[
				13,
				20,
				48
			],
			"min":[
				-1,
				-16,
				-4
			],
			"type":"VEC3"
		},
		{
			"bufferView":1,
			"componentType":5126,
			"count":962,
			"type":"VEC3"
		},
		{
			"bufferView":2,
			"componentType":5126,
			"count":962,
			"type":"VEC2"
		},
		{
			"bufferView":3,
			"componentType":5123,
			"count":2334,
			"type":"SCALAR"
		},
		{
			"bufferView":4,
			"componentType":5126,
			"count":28,
			"max":[
				13,
				22,
				56
			],
			"min":[
				-1,
				22,
				-12
			],
			"type":"VEC3"
		},
		{
			"bufferView":5,
			"componentType":5126,
			"count":28,
			"type":"VEC3"
		},
		{
			"bufferView":6,
			"componentType":5126,
			"count":28,
			"type":"VEC2"
		},
		{
			"bufferView":7,
			"componentType":5123,
			"count":42,
			"type":"SCALAR"
		},
		{
			"bufferView":8,
			"componentType":5126,
			"count":72,
			"max":[
				13,
				20,
				58
			],
			"min":[
				-1,
				20,
				-14
			],
			"type":"VEC3"
		},
		{
			"bufferView":9,
			"componentType":5126,
			"count":72,
			"type":"VEC3"
		},
		{
			"bufferView":10,
			"componentType":5126,
			"count":72,
			"type":"VEC2"
		},
		{
			"bufferView":11,
			"componentType":5123,
			"count":234,
			"type":"SCALAR"
		},
		{
			"bufferView":12,
			"componentType":5126,
			"count":54,
			"max":[
				14,
				22,
				58
			],
			"min":[
				-2,
				4,
				-14
			],
			"type":"VEC3"
		},
		{
			"bufferView":13,
			"componentType":5126,
			"count":54,
			"type":"VEC3"
		},
		{
			"bufferView":14,
			"componentType":5126,
			"count":54,
			"type":"VEC2"
		},
		{
			"bufferView":15,
			"componentType":5123,
			"count":96,
			"type":"SCALAR"
		},
		{
			"bufferView":16,
			"componentType":5126,
			"count":40,
			"max":[
				13,
				22,
				58
			],
			"min":[
				-1,
				5,
				-14
			],
			"type":"VEC3"
		},
		{
			"bufferView":17,
			"componentType":5126,
			"count":40,
			"type":"VEC3"
		},
		{
			"bufferView":18,
			"componentType":5126,
			"count":40,
			"type":"VEC2"
		},
		{
			"bufferView":19,
			"componentType":5123,
			"count":60,
			"type":"SCALAR"
		},
		{
			"bufferView":20,
			"componentType":5126,
			"count":24,
			"max":[
				10,
				5,
				44
			],
			"min":[
				2,
				5,
				0
			],
			"type":"VEC3"
		},
		{
			"bufferView":21,
			"componentType":5126,
			"count":24,
			"type":"VEC3"
		},
		{
			"bufferView":22,
			"componentType":5126,
			"count":24,
			"type":"VEC2"
		},
		{
			"bufferView":23,
			"componentType":5123,
			"count":66,
			"type":"SCALAR"
		},
		{
			"bufferView":24,
			"componentType":5126,
			"count":4,
			"max":[
				6.5,
				3,
				44
			],
			"min":[
				5.5,
				3,
				0
			],
			"type":"VEC3"
		},
		{
			"bufferView":25,
			"componentType":5126,
			"count":4,
			"type":"VEC3"
		},
		{
			"bufferView":26,
			"componentType":5126,
			"count":4,
			"type":"VEC2"
		},
		{
			"bufferView":27,
			"componentType":5123,
			"count":6,
			"type":"SCALAR"
		},
		{
			"bufferView":28,
			"componentType":5126,
			"count":24,
			"max":[
				10,
				4,
				44
			],
			"min":[
				2,
				3,
				0
			],
			"type":"VEC3"
		},
		{
			"bufferView":29,
			"componentType":5126,
			"count":24,
			"type":"VEC3"
		},
		{
			"bufferView":30,
			"componentType":5126,
			"count":24,
			"type":"VEC2"
		},
		{
			"bufferView":31,
			"componentType":5123,
			"count":60,
			"type":"SCALAR"
		},
		{
			"bufferView":32,
			"componentType":5126,
			"count":16,
			"max":[
				8,
				9.5,
				46
			],
			"min":[
				4,
				8.5,
				-2
			],
			"type":"VEC3"
		},
		{
			"bufferView":33,
			"componentType":5126,
			"count":16,
			"type":"VEC3"
		},
		{
			"bufferView":34,
			"componentType":5126,
			"count":16,
			"type":"VEC2"
		},
		{
			"bufferView":35,
			"componentType":5123,
			"count":24,
			"type":"SCALAR"
		},
		{
			"bufferView":36,
			"componentType":5126,
			"count":68,
			"max":[
				14,
				22,
				58
			],
			"min":[
				-2,
				20,
				-14
			],
			"type":"VEC3"
		},
		{
			"bufferView":37,
			"componentType":5126,
			"count":68,
			"type":"VEC3"
		},
		{
			"bufferView":38,
			"componentType":5126,
			"count":68,
			"type":"VEC2"
		},
		{
			"bufferView":39,
			"componentType":5123,
			"count":180,
			"type":"SCALAR"
		},
		{
			"bufferView":40,
			"componentType":5126,
			"count":82,
			"max":[
				13,
				-9,
				46
			],
			"min":[
				-1,
				-16,
				-2
			],
			"type":"VEC3"
		},
		{
			"bufferView":41,
			"componentType":5126,
			"count":82,
			"type":"VEC3"
		},
		{
			"bufferView":42,
			"componentType":5126,
			"count":82,
			"type":"VEC2"
		},
		{
			"bufferView":43,
			"componentType":5123,
			"count":144,
			"type":"SCALAR"
		},
		{
			"bufferView":44,
			"componentType":5126,
			"count":68,
			"max":[
				13.5,
				18.5,
				42.5
			],
			"min":[
				-1.5,
				13.5,
				1.5
			],
			"type":"VEC3"
		},
		{
			"bufferView":45,
			"componentType":5126,
			"count":68,
			"type":"VEC3"
		},
		{
			"bufferView":46,
			"componentType":5126,
			"count":68,
			"type":"VEC2"
		},
		{
			"bufferView":47,
			"componentType":5123,
			"count":108,
			"type":"SCALAR"
		},
		{
			"bufferView":48,
			"componentType":5126,
			"count":16,
			"max":[
				13.5,
				18,
				42
			],
			"min":[
				-1.5,
				14,
				2
			],
			"type":"VEC3"
		},
		{
			"bufferView":49,
			"componentType":5126,
			"count":16,
			"type":"VEC3"
		},
		{
			"bufferView":50,
			"componentType":5126,
			"count":16,
			"type":"VEC2"
		},
		{
			"bufferView":51,
			"componentType":5123,
			"count":24,
			"type":"SCALAR"
		}
	],
	"bufferViews":[
		{
			"buffer":0,
			"byteLength":11544,
			"byteOffset":0,
			"target":34962
		},
		{
			"buffer":0,
			"byteLength":11544,
			"byteOffset":11544,
			"target":34962
		},
		{
			"buffer":0,
			"byteLength":7696,
			"byteOffset":23088,
			"target":34962
		},
		{
			"buffer":0,
			"byteLength":4668,
			"byteOffset":30784,
			"target":34963
		},
		{
			"buffer":0,
			"byteLength":336,
			"byteOffset":35452,
			"target":34962
		},
		{
			"buffer":0,
			"byteLength":336,
			"byteOffset":35788,
			"target":34962
		},
		{
			"buffer":0,
			"byteLength":224,
			"byteOffset":36124,
			"target":34962
		},
		{
			"buffer":0,
			"byteLength":84,
			"byteOffset":36348,
			"target":34963
		},
		{
			"buffer":0,
			"byteLength":864,
			"byteOffset":36432,
			"target":34962
		},
		{
			"buffer":0,
			"byteLength":864,
			"byteOffset":37296,
			"target":34962
		},
		{
			"buffer":0,
			"byteLength":576,
			"byteOffset":38160,
			"target":34962
		},
		{
			"buffer":0,
			"byteLength":468,
			"byteOffset":38736,
			"target":34963
		},
		{
			"buffer":0,
			"byteLength":648,
			"byteOffset":39204,
			"target":34962
		},
		{
			"buffer":0,
			"byteLength":648,
			"byteOffset":39852,
			"target":34962
		},
		{
			"buffer":0,
			"byteLength":432,
			"byteOffset":40500,
			"target":34962
		},
		{
			"buffer":0,
			"byteLength":192,
			"byteOffset":40932,
			"target":34963
		},
		{
			"buffer":0,
			"byteLength":480,
			"byteOffset":41124,
			"target":34962
		},
		{
			"buffer":0,
			"byteLength":480,
			"byteOffset":41604,
			"target":34962
		},
		{
			"buffer":0,
			"byteLength":320,
			"byteOffset":42084,
			"target":34962
		},
		{
			"buffer":0,
			"byteLength":120,
			"byteOffset":42404,
			"target":34963
		},
		{
			"buffer":0,
			"byteLength":288,
			"byteOffset":42524,
			"target":34962
		},
		{
			"buffer":0,
			"byteLength":288,
			"byteOffset":42812,
			"target":34962
		},
		{
			"buffer":0,
			"byteLength":192,
			"byteOffset":43100,
			"target":34962
		},
		{
			"buffer":0,
			"byteLength":132,
			"byteOffset":43292,
			"target":34963
		},
		{
			"buffer":0,
			"byteLength":48,
			"byteOffset":43424,
			"target":34962
		},
		{
			"buffer":0,
			"byteLength":48,
			"byteOffset":43472,
			"target":34962
		},
		{
			"buffer":0,
			"byteLength":32,
			"byteOffset":43520,
			"target":34962
		},
		{
			"buffer":0,
			"byteLength":12,
			"byteOffset":43552,
			"target":34963
		},
		{
			"buffer":0,
			"byteLength":288,
			"byteOffset":43564,
			"target":34962
		},
		{
			"buffer":0,
			"byteLength":288,
			"byteOffset":43852,
			"target":34962
		},
		{
			"buffer":0,
			"byteLength":192,
			"byteOffset":44140,
			"target":34962
		},
		{
			"buffer":0,
			"byteLength":120,
			"byteOffset":44332,
			"target":34963
		},
		{
			"buffer":0,
			"byteLength":192,
			"byteOffset":44452,
			"target":34962
		},
		{
			"buffer":0,
			"byteLength":192,
			"byteOffset":44644,
			"target":34962
		},
		{
			"buffer":0,
			"byteLength":128,
			"byteOffset":44836,
			"target":34962
		},
		{
			"buffer":0,
			"byteLength":48,
			"byteOffset":44964,
			"target":34963
		},
		{
			"buffer":0,
			"byteLength":816,
			"byteOffset":45012,
			"target":34962
		},
		{
			"buffer":0,
			"byteLength":816,
			"byteOffset":45828,
			"target":34962
		},
		{
			"buffer":0,
			"byteLength":544,
			"byteOffset":46644,
			"target":34962
		},
		{
			"buffer":0,
			"byteLength":360,
			"byteOffset":47188,
			"target":34963
		},
		{
			"buffer":0,
			"byteLength":984,
			"byteOffset":47548,
			"target":34962
		},
		{
			"buffer":0,
			"byteLength":984,
			"byteOffset":48532,
			"target":34962
		},
		{
			"buffer":0,
			"byteLength":656,
			"byteOffset":49516,
			"target":34962
		},
		{
			"buffer":0,
			"byteLength":288,
			"byteOffset":50172,
			"target":34963
		},
		{
			"buffer":0,
			"byteLength":816,
			"byteOffset":50460,
			"target":34962
		},
		{
			"buffer":0,
			"byteLength":816,
			"byteOffset":51276,
			"target":34962
		},
		{
			"buffer":0,
			"byteLength":544,
			"byteOffset":52092,
			"target":34962
		},
		{
			"buffer":0,
			"byteLength":216,
			"byteOffset":52636,
			"target":34963
		},
		{
			"buffer":0,
			"byteLength":192,
			"byteOffset":52852,
			"target":34962
		},
		{
			"buffer":0,
			"byteLength":192,
			"byteOffset":53044,
			"target":34962
		},
		{
			"buffer":0,
			"byteLength":128,
			"byteOffset":53236,
			"target":34962
		},
		{
			"buffer":0,
			"byteLength":48,
			"byteOffset":53364,
			"target":34963
		}
	],
	"buffers":[
		{
			"byteLength":53412,
			"uri":"sbrdg1.bin"
		}
	]
}
