{
	"asset":{
		"generator":"Khronos glTF Blender I/O v4.5.48",
		"version":"2.0"
	},
	"scene":0,
	"scenes":[
		{
			"name":"Scene",
			"nodes":[
				0
			]
		}
	],
	"nodes":[
		{
			"mesh":0,
			"name":"Object"
		}
	],
	"materials":[
		{
			"doubleSided":true,
			"name":"SW_FLOORGRATE",
			"pbrMetallicRoughness":{
				"baseColorFactor":[
					0.800000011920929,
					0.800000011920929,
					0.800000011920929,
					1
				],
				"metallicFactor":0,
				"roughnessFactor":0.5
			}
		},
		{
			"doubleSided":true,
			"name":"SW_IWAL03",
			"pbrMetallicRoughness":{
				"baseColorFactor":[
					0.800000011920929,
					0.800000011920929,
					0.800000011920929,
					1
				],
				"metallicFactor":0,
				"roughnessFactor":0.5
			}
		},
		{
			"doubleSided":true,
			"name":"SW_ESPEC03",
			"pbrMetallicRoughness":{
				"baseColorFactor":[
					0.800000011920929,
					0.800000011920929,
					0.800000011920929,
					1
				],
				"metallicFactor":0,
				"roughnessFactor":0.5
			}
		},
		{
			"doubleSided":true,
			"name":"SW_IBORLIG01",
			"pbrMetallicRoughness":{
				"baseColorFactor":[
					0.800000011920929,
					0.800000011920929,
					0.800000011920929,
					1
				],
				"metallicFactor":0,
				"roughnessFactor":0.5
			}
		},
		{
			"doubleSided":true,
			"name":"SW_IWAL04",
			"pbrMetallicRoughness":{
				"baseColorFactor":[
					0.800000011920929,
					0.800000011920929,
					0.800000011920929,
					1
				],
				"metallicFactor":0,
				"roughnessFactor":0.5
			}
		},
		{
			"doubleSided":true,
			"name":"SW_THRESHGRATE",
			"pbrMetallicRoughness":{
				"baseColorFactor":[
					0.800000011920929,
					0.800000011920929,
					0.800000011920929,
					1
				],
				"metallicFactor":0,
				"roughnessFactor":0.5
			}
		},
		{
			"doubleSided":true,
			"name":"SW_EWAL02",
			"pbrMetallicRoughness":{
				"baseColorFactor":[
					0.800000011920929,
					0.800000011920929,
					0.800000011920929,
					1
				],
				"metallicFactor":0,
				"roughnessFactor":0.5
			}
		},
		{
			"doubleSided":true,
			"name":"SW_EFLO01C",
			"pbrMetallicRoughness":{
				"baseColorFactor":[
					0.800000011920929,
					0.800000011920929,
					0.800000011920929,
					1
				],
				"metallicFactor":0,
				"roughnessFactor":0.5
			}
		},
		{
			"doubleSided":true,
			"name":"SW_ELIG01",
			"pbrMetallicRoughness":{
				"baseColorFactor":[
					0.800000011920929,
					0.800000011920929,
					0.800000011920929,
					1
				],
				"metallicFactor":0,
				"roughnessFactor":0.5
			}
		}
	],
	"meshes":[
		{
			"name":"Mesh",
			"primitives":[
				{
					"attributes":{
						"POSITION":0,
						"NORMAL":1,
						"TEXCOORD_0":2
					},
					"indices":3,
					"material":0
				},
				{
					"attributes":{
						"POSITION":4,
						"NORMAL":5,
						"TEXCOORD_0":6
					},
					"indices":7,
					"material":1
				},
				{
					"attributes":{
						"POSITION":8,
						"NORMAL":9,
						"TEXCOORD_0":10
					},
					"indices":11,
					"material":2
				},
				{
					"attributes":{
						"POSITION":12,
						"NORMAL":13,
						"TEXCOORD_0":14
					},
					"indices":15,
					"material":3
				},
				{
					"attributes":{
						"POSITION":16,
						"NORMAL":17,
						"TEXCOORD_0":18
					},
					"indices":19,
					"material":4
				},
				{
					"attributes":{
						"POSITION":20,
						"NORMAL":21,
						"TEXCOORD_0":22
					},
					"indices":23,
					"material":5
				},
				{
					"attributes":{
						"POSITION":24,
						"NORMAL":25,
						"TEXCOORD_0":26
					},
					"indices":27,
					"material":6
				},
				{
					"attributes":{
						"POSITION":28,
						"NORMAL":29,
						"TEXCOORD_0":30
					},
					"indices":31,
					"material":7
				},
				{
					"attributes":{
						"POSITION":32,
						"NORMAL":33,
						"TEXCOORD_0":34
					},
					"indices":35,
					"material":8
				}
			]
		}
	],
	"accessors":[
		{
			"bufferView":0,
			"componentType":5126,
			"count":40,
			"max":[
				32,
				5,
				32
			],
			"min":[
				-32,
				4,
				-32
			],
			"type":"VEC3"
		},
		{
			"bufferView":1,
			"componentType":5126,
			"count":40,
			"type":"VEC3"
		},
		{
			"bufferView":2,
			"componentType":5126,
			"count":40,
			"type":"VEC2"
		},
		{
			"bufferView":3,
			"componentType":5123,
			"count":102,
			"type":"SCALAR"
		},
		{
			"bufferView":4,
			"componentType":5126,
			"count":592,
			"max":[
				32,
				22,
				32
			],
			"min":[
				-32,
				-4,
				-32
			],
			"type":"VEC3"
		},
		{
			"bufferView":5,
			"componentType":5126,
			"count":592,
			"type":"VEC3"
		},
		{
			"bufferView":6,
			"componentType":5126,
			"count":592,
			"type":"VEC2"
		},
		{
			"bufferView":7,
			"componentType":5123,
			"count":1080,
			"type":"SCALAR"
		},
		{
			"bufferView":8,
			"componentType":5126,
			"count":136,
			"max":[
				32,
				22,
				32
			],
			"min":[
				-32,
				4,
				-32
			],
			"type":"VEC3"
		},
		{
			"bufferView":9,
			"componentType":5126,
			"count":136,
			"type":"VEC3"
		},
		{
			"bufferView":10,
			"componentType":5126,
			"count":136,
			"type":"VEC2"
		},
		{
			"bufferView":11,
			"componentType":5123,
			"count":240,
			"type":"SCALAR"
		},
		{
			"bufferView":12,
			"componentType":5126,
			"count":16,
			"max":[
				32,
				3,
				32
			],
			"min":[
				-32,
				3,
				-32
			],
			"type":"VEC3"
		},
		{
			"bufferView":13,
			"componentType":5126,
			"count":16,
			"type":"VEC3"
		},
		{
			"bufferView":14,
			"componentType":5126,
			"count":16,
			"type":"VEC2"
		},
		{
			"bufferView":15,
			"componentType":5123,
			"count":30,
			"type":"SCALAR"
		},
		{
			"bufferView":16,
			"componentType":5126,
			"count":56,
			"max":[
				32,
				4,
				32
			],
			"min":[
				-32,
				3,
				-32
			],
			"type":"VEC3"
		},
		{
			"bufferView":17,
			"componentType":5126,
			"count":56,
			"type":"VEC3"
		},
		{
			"bufferView":18,
			"componentType":5126,
			"count":56,
			"type":"VEC2"
		},
		{
			"bufferView":19,
			"componentType":5123,
			"count":120,
			"type":"SCALAR"
		},
		{
			"bufferView":20,
			"componentType":5126,
			"count":60,
			"max":[
				32,
				22,
				32
			],
			"min":[
				-32,
				20,
				-32
			],
			"type":"VEC3"
		},
		{
			"bufferView":21,
			"componentType":5126,
			"count":60,
			"type":"VEC3"
		},
		{
			"bufferView":22,
			"componentType":5126,
			"count":60,
			"type":"VEC2"
		},
		{
			"bufferView":23,
			"componentType":5123,
			"count":108,
			"type":"SCALAR"
		},
		{
			"bufferView":24,
			"componentType":5126,
			"count":52,
			"max":[
				30,
				20,
				32
			],
			"min":[
				-30,
				20,
				-32
			],
			"type":"VEC3"
		},
		{
			"bufferView":25,
			"componentType":5126,
			"count":52,
			"type":"VEC3"
		},
		{
			"bufferView":26,
			"componentType":5126,
			"count":52,
			"type":"VEC2"
		},
		{
			"bufferView":27,
			"componentType":5123,
			"count":138,
			"type":"SCALAR"
		},
		{
			"bufferView":28,
			"componentType":5126,
			"count":36,
			"max":[
				30,
				22,
				30
			],
			"min":[
				-30,
				22,
				-30
			],
			"type":"VEC3"
		},
		{
			"bufferView":29,
			"componentType":5126,
			"count":36,
			"type":"VEC3"
		},
		{
			"bufferView":30,
			"componentType":5126,
			"count":36,
			"type":"VEC2"
		},
		{
			"bufferView":31,
			"componentType":5123,
			"count":54,
			"type":"SCALAR"
		},
		{
			"bufferView":32,
			"componentType":5126,
			"count":128,
			"max":[
				32,
				22,
				32
			],
			"min":[
				-32,
				20,
				-32
			],
			"type":"VEC3"
		},
		{
			"bufferView":33,
			"componentType":5126,
			"count":128,
			"type":"VEC3"
		},
		{
			"bufferView":34,
			"componentType":5126,
			"count":128,
			"type":"VEC2"
		},
		{
			"bufferView":35,
			"componentType":5123,
			"count":288,
			"type":"SCALAR"
		}
	],
	"bufferViews":[
		{
			"buffer":0,
			"byteLength":480,
			"byteOffset":0,
			"target":34962
		},
		{
			"buffer":0,
			"byteLength":480,
			"byteOffset":480,
			"target":34962
		},
		{
			"buffer":0,
			"byteLength":320,
			"byteOffset":960,
			"target":34962
		},
		{
			"buffer":0,
			"byteLength":204,
			"byteOffset":1280,
			"target":34963
		},
		{
			"buffer":0,
			"byteLength":7104,
			"byteOffset":1484,
			"target":34962
		},
		{
			"buffer":0,
			"byteLength":7104,
			"byteOffset":8588,
			"target":34962
		},
		{
			"buffer":0,
			"byteLength":4736,
			"byteOffset":15692,
			"target":34962
		},
		{
			"buffer":0,
			"byteLength":2160,
			"byteOffset":20428,
			"target":34963
		},
		{
			"buffer":0,
			"byteLength":1632,
			"byteOffset":22588,
			"target":34962
		},
		{
			"buffer":0,
			"byteLength":1632,
			"byteOffset":24220,
			"target":34962
		},
		{
			"buffer":0,
			"byteLength":1088,
			"byteOffset":25852,
			"target":34962
		},
		{
			"buffer":0,
			"byteLength":480,
			"byteOffset":26940,
			"target":34963
		},
		{
			"buffer":0,
			"byteLength":192,
			"byteOffset":27420,
			"target":34962
		},
		{
			"buffer":0,
			"byteLength":192,
			"byteOffset":27612,
			"target":34962
		},
		{
			"buffer":0,
			"byteLength":128,
			"byteOffset":27804,
			"target":34962
		},
		{
			"buffer":0,
			"byteLength":60,
			"byteOffset":27932,
			"target":34963
		},
		{
			"buffer":0,
			"byteLength":672,
			"byteOffset":27992,
			"target":34962
		},
		{
			"buffer":0,
			"byteLength":672,
			"byteOffset":28664,
			"target":34962
		},
		{
			"buffer":0,
			"byteLength":448,
			"byteOffset":29336,
			"target":34962
		},
		{
			"buffer":0,
			"byteLength":240,
			"byteOffset":29784,
			"target":34963
		},
		{
			"buffer":0,
			"byteLength":720,
			"byteOffset":30024,
			"target":34962
		},
		{
			"buffer":0,
			"byteLength":720,
			"byteOffset":30744,
			"target":34962
		},
		{
			"buffer":0,
			"byteLength":480,
			"byteOffset":31464,
			"target":34962
		},
		{
			"buffer":0,
			"byteLength":216,
			"byteOffset":31944,
			"target":34963
		},
		{
			"buffer":0,
			"byteLength":624,
			"byteOffset":32160,
			"target":34962
		},
		{
			"buffer":0,
			"byteLength":624,
			"byteOffset":32784,
			"target":34962
		},
		{
			"buffer":0,
			"byteLength":416,
			"byteOffset":33408,
			"target":34962
		},
		{
			"buffer":0,
			"byteLength":276,
			"byteOffset":33824,
			"target":34963
		},
		{
			"buffer":0,
			"byteLength":432,
			"byteOffset":34100,
			"target":34962
		},
		{
			"buffer":0,
			"byteLength":432,
			"byteOffset":34532,
			"target":34962
		},
		{
			"buffer":0,
			"byteLength":288,
			"byteOffset":34964,
			"target":34962
		},
		{
			"buffer":0,
			"byteLength":108,
			"byteOffset":35252,
			"target":34963
		},
		{
			"buffer":0,
			"byteLength":1536,
			"byteOffset":35360,
			"target":34962
		},
		{
			"buffer":0,
			"byteLength":1536,
			"byteOffset":36896,
			"target":34962
		},
		{
			"buffer":0,
			"byteLength":1024,
			"byteOffset":38432,
			"target":34962
		},
		{
			"buffer":0,
			"byteLength":576,
			"byteOffset":39456,
			"target":34963
		}
	],
	"buffers":[
		{
			"byteLength":40032,
			"uri":"sbrdg2.bin"
		}
	]
}
