{
	"asset":{
		"generator":"Khronos glTF Blender I/O v4.5.48",
		"version":"2.0"
	},
	"scene":0,
	"scenes":[
		{
			"name":"Scene",
			"nodes":[
				0
			]
		}
	],
	"nodes":[
		{
			"mesh":0,
			"name":"Object"
		}
	],
	"materials":[
		{
			"doubleSided":true,
			"name":"SW_IWAL05",
			"pbrMetallicRoughness":{
				"baseColorFactor":[
					0.800000011920929,
					0.800000011920929,
					0.800000011920929,
					1
				],
				"metallicFactor":0,
				"roughnessFactor":0.5
			}
		},
		{
			"doubleSided":true,
			"name":"SW_IWAL03",
			"pbrMetallicRoughness":{
				"baseColorFactor":[
					0.800000011920929,
					0.800000011920929,
					0.800000011920929,
					1
				],
				"metallicFactor":0,
				"roughnessFactor":0.5
			}
		},
		{
			"doubleSided":true,
			"name":"SW_FLOORGRATE",
			"pbrMetallicRoughness":{
				"baseColorFactor":[
					0.800000011920929,
					0.800000011920929,
					0.800000011920929,
					1
				],
				"metallicFactor":0,
				"roughnessFactor":0.5
			}
		},
		{
			"doubleSided":true,
			"name":"SW_ESPEC03",
			"pbrMetallicRoughness":{
				"baseColorFactor":[
					0.800000011920929,
					0.800000011920929,
					0.800000011920929,
					1
				],
				"metallicFactor":0,
				"roughnessFactor":0.5
			}
		},
		{
			"doubleSided":true,
			"name":"SW_IBORLIG01",
			"pbrMetallicRoughness":{
				"baseColorFactor":[
					0.800000011920929,
					0.800000011920929,
					0.800000011920929,
					1
				],
				"metallicFactor":0,
				"roughnessFactor":0.5
			}
		},
		{
			"doubleSided":true,
			"name":"SW_IWAL04",
			"pbrMetallicRoughness":{
				"baseColorFactor":[
					0.800000011920929,
					0.800000011920929,
					0.800000011920929,
					1
				],
				"metallicFactor":0,
				"roughnessFactor":0.5
			}
		},
		{
			"doubleSided":true,
			"name":"SW_EWAL02",
			"pbrMetallicRoughness":{
				"baseColorFactor":[
					0.800000011920929,
					0.800000011920929,
					0.800000011920929,
					1
				],
				"metallicFactor":0,
				"roughnessFactor":0.5
			}
		},
		{
			"doubleSided":true,
			"name":"SW_FLOORTHRESH",
			"pbrMetallicRoughness":{
				"baseColorFactor":[
					0.800000011920929,
					0.800000011920929,
					0.800000011920929,
					1
				],
				"metallicFactor":0,
				"roughnessFactor":0.5
			}
		},
		{
			"doubleSided":true,
			"name":"SW_EDOOR03",
			"pbrMetallicRoughness":{
				"baseColorFactor":[
					0.800000011920929,
					0.800000011920929,
					0.800000011920929,
					1
				],
				"metallicFactor":0,
				"roughnessFactor":0.5
			}
		},
		{
			"doubleSided":true,
			"name":"SW_IFLOOR01B",
			"pbrMetallicRoughness":{
				"baseColorFactor":[
					0.800000011920929,
					0.800000011920929,
					0.800000011920929,
					1
				],
				"metallicFactor":0,
				"roughnessFactor":0.5
			}
		},
		{
			"doubleSided":true,
			"name":"SW_EWAL03",
			"pbrMetallicRoughness":{
				"baseColorFactor":[
					0.800000011920929,
					0.800000011920929,
					0.800000011920929,
					1
				],
				"metallicFactor":0,
				"roughnessFactor":0.5
			}
		},
		{
			"doubleSided":true,
			"name":"SW_EWAL01",
			"pbrMetallicRoughness":{
				"baseColorFactor":[
					0.800000011920929,
					0.800000011920929,
					0.800000011920929,
					1
				],
				"metallicFactor":0,
				"roughnessFactor":0.5
			}
		},
		{
			"doubleSided":true,
			"name":"SW_IWAL03SNOW",
			"pbrMetallicRoughness":{
				"baseColorFactor":[
					0.800000011920929,
					0.800000011920929,
					0.800000011920929,
					1
				],
				"metallicFactor":0,
				"roughnessFactor":0.5
			}
		},
		{
			"doubleSided":true,
			"name":"SW_THRESHGRATE",
			"pbrMetallicRoughness":{
				"baseColorFactor":[
					0.800000011920929,
					0.800000011920929,
					0.800000011920929,
					1
				],
				"metallicFactor":0,
				"roughnessFactor":0.5
			}
		},
		{
			"doubleSided":true,
			"name":"SW_IWAL01_4BSB",
			"pbrMetallicRoughness":{
				"baseColorFactor":[
					0.800000011920929,
					0.800000011920929,
					0.800000011920929,
					1
				],
				"metallicFactor":0,
				"roughnessFactor":0.5
			}
		},
		{
			"doubleSided":true,
			"name":"SW_ELIG02",
			"pbrMetallicRoughness":{
				"baseColorFactor":[
					0.800000011920929,
					0.800000011920929,
					0.800000011920929,
					1
				],
				"metallicFactor":0,
				"roughnessFactor":0.5
			}
		}
	],
	"meshes":[
		{
			"name":"Mesh",
			"primitives":[
				{
					"attributes":{
						"POSITION":0,
						"NORMAL":1,
						"TEXCOORD_0":2
					},
					"indices":3,
					"material":0
				},
				{
					"attributes":{
						"POSITION":4,
						"NORMAL":5,
						"TEXCOORD_0":6
					},
					"indices":7,
					"material":1
				},
				{
					"attributes":{
						"POSITION":8,
						"NORMAL":9,
						"TEXCOORD_0":10
					},
					"indices":11,
					"material":2
				},
				{
					"attributes":{
						"POSITION":12,
						"NORMAL":13,
						"TEXCOORD_0":14
					},
					"indices":15,
					"material":3
				},
				{
					"attributes":{
						"POSITION":16,
						"NORMAL":17,
						"TEXCOORD_0":18
					},
					"indices":19,
					"material":4
				},
				{
					"attributes":{
						"POSITION":20,
						"NORMAL":21,
						"TEXCOORD_0":22
					},
					"indices":23,
					"material":5
				},
				{
					"attributes":{
						"POSITION":24,
						"NORMAL":25,
						"TEXCOORD_0":26
					},
					"indices":27,
					"material":6
				},
				{
					"attributes":{
						"POSITION":28,
						"NORMAL":29,
						"TEXCOORD_0":30
					},
					"indices":31,
					"material":7
				},
				{
					"attributes":{
						"POSITION":32,
						"NORMAL":33,
						"TEXCOORD_0":34
					},
					"indices":35,
					"material":8
				},
				{
					"attributes":{
						"POSITION":36,
						"NORMAL":37,
						"TEXCOORD_0":38
					},
					"indices":39,
					"material":9
				},
				{
					"attributes":{
						"POSITION":40,
						"NORMAL":41,
						"TEXCOORD_0":42
					},
					"indices":43,
					"material":10
				},
				{
					"attributes":{
						"POSITION":44,
						"NORMAL":45,
						"TEXCOORD_0":46
					},
					"indices":47,
					"material":11
				},
				{
					"attributes":{
						"POSITION":48,
						"NORMAL":49,
						"TEXCOORD_0":50
					},
					"indices":51,
					"material":12
				},
				{
					"attributes":{
						"POSITION":52,
						"NORMAL":53,
						"TEXCOORD_0":54
					},
					"indices":55,
					"material":13
				},
				{
					"attributes":{
						"POSITION":56,
						"NORMAL":57,
						"TEXCOORD_0":58
					},
					"indices":59,
					"material":14
				},
				{
					"attributes":{
						"POSITION":60,
						"NORMAL":61,
						"TEXCOORD_0":62
					},
					"indices":63,
					"material":15
				}
			]
		}
	],
	"accessors":[
		{
			"bufferView":0,
			"componentType":5126,
			"count":74,
			"max":[
				9.5,
				14.5,
				20
			],
			"min":[
				-9.5,
				3,
				-19
			],
			"type":"VEC3"
		},
		{
			"bufferView":1,
			"componentType":5126,
			"count":74,
			"type":"VEC3"
		},
		{
			"bufferView":2,
			"componentType":5126,
			"count":74,
			"type":"VEC2"
		},
		{
			"bufferView":3,
			"componentType":5123,
			"count":132,
			"type":"SCALAR"
		},
		{
			"bufferView":4,
			"componentType":5126,
			"count":420,
			"max":[
				12,
				23,
				20
			],
			"min":[
				-12,
				-8.5,
				-19
			],
			"type":"VEC3"
		},
		{
			"bufferView":5,
			"componentType":5126,
			"count":420,
			"type":"VEC3"
		},
		{
			"bufferView":6,
			"componentType":5126,
			"count":420,
			"type":"VEC2"
		},
		{
			"bufferView":7,
			"componentType":5123,
			"count":792,
			"type":"SCALAR"
		},
		{
			"bufferView":8,
			"componentType":5126,
			"count":16,
			"max":[
				4,
				5,
				44
			],
			"min":[
				-4,
				5,
				-44
			],
			"type":"VEC3"
		},
		{
			"bufferView":9,
			"componentType":5126,
			"count":16,
			"type":"VEC3"
		},
		{
			"bufferView":10,
			"componentType":5126,
			"count":16,
			"type":"VEC2"
		},
		{
			"bufferView":11,
			"componentType":5123,
			"count":24,
			"type":"SCALAR"
		},
		{
			"bufferView":12,
			"componentType":5126,
			"count":96,
			"max":[
				8,
				14.5,
				44
			],
			"min":[
				-8,
				4,
				-44
			],
			"type":"VEC3"
		},
		{
			"bufferView":13,
			"componentType":5126,
			"count":96,
			"type":"VEC3"
		},
		{
			"bufferView":14,
			"componentType":5126,
			"count":96,
			"type":"VEC2"
		},
		{
			"bufferView":15,
			"componentType":5123,
			"count":144,
			"type":"SCALAR"
		},
		{
			"bufferView":16,
			"componentType":5126,
			"count":12,
			"max":[
				2,
				22.5,
				44
			],
			"min":[
				-2,
				3,
				-44
			],
			"type":"VEC3"
		},
		{
			"bufferView":17,
			"componentType":5126,
			"count":12,
			"type":"VEC3"
		},
		{
			"bufferView":18,
			"componentType":5126,
			"count":12,
			"type":"VEC2"
		},
		{
			"bufferView":19,
			"componentType":5123,
			"count":24,
			"type":"SCALAR"
		},
		{
			"bufferView":20,
			"componentType":5126,
			"count":32,
			"max":[
				4,
				22.5,
				44
			],
			"min":[
				-4,
				3,
				-44
			],
			"type":"VEC3"
		},
		{
			"bufferView":21,
			"componentType":5126,
			"count":32,
			"type":"VEC3"
		},
		{
			"bufferView":22,
			"componentType":5126,
			"count":32,
			"type":"VEC2"
		},
		{
			"bufferView":23,
			"componentType":5123,
			"count":60,
			"type":"SCALAR"
		},
		{
			"bufferView":24,
			"componentType":5126,
			"count":216,
			"max":[
				10,
				23,
				44
			],
			"min":[
				-10,
				3,
				-44
			],
			"type":"VEC3"
		},
		{
			"bufferView":25,
			"componentType":5126,
			"count":216,
			"type":"VEC3"
		},
		{
			"bufferView":26,
			"componentType":5126,
			"count":216,
			"type":"VEC2"
		},
		{
			"bufferView":27,
			"componentType":5123,
			"count":480,
			"type":"SCALAR"
		},
		{
			"bufferView":28,
			"componentType":5126,
			"count":12,
			"max":[
				9,
				5,
				4.5
			],
			"min":[
				-9,
				5,
				-4.5
			],
			"type":"VEC3"
		},
		{
			"bufferView":29,
			"componentType":5126,
			"count":12,
			"type":"VEC3"
		},
		{
			"bufferView":30,
			"componentType":5126,
			"count":12,
			"type":"VEC2"
		},
		{
			"bufferView":31,
			"componentType":5123,
			"count":24,
			"type":"SCALAR"
		},
		{
			"bufferView":32,
			"componentType":5126,
			"count":132,
			"max":[
				10,
				11.5,
				7.5
			],
			"min":[
				-10,
				5,
				-7.5
			],
			"type":"VEC3"
		},
		{
			"bufferView":33,
			"componentType":5126,
			"count":132,
			"type":"VEC3"
		},
		{
			"bufferView":34,
			"componentType":5126,
			"count":132,
			"type":"VEC2"
		},
		{
			"bufferView":35,
			"componentType":5123,
			"count":282,
			"type":"SCALAR"
		},
		{
			"bufferView":36,
			"componentType":5126,
			"count":50,
			"max":[
				9.5,
				14.5,
				7
			],
			"min":[
				-9.5,
				5,
				-7
			],
			"type":"VEC3"
		},
		{
			"bufferView":37,
			"componentType":5126,
			"count":50,
			"type":"VEC3"
		},
		{
			"bufferView":38,
			"componentType":5126,
			"count":50,
			"type":"VEC2"
		},
		{
			"bufferView":39,
			"componentType":5123,
			"count":102,
			"type":"SCALAR"
		},
		{
			"bufferView":40,
			"componentType":5126,
			"count":12,
			"max":[
				10,
				14.5,
				7
			],
			"min":[
				-10,
				12.5,
				-7
			],
			"type":"VEC3"
		},
		{
			"bufferView":41,
			"componentType":5126,
			"count":12,
			"type":"VEC3"
		},
		{
			"bufferView":42,
			"componentType":5126,
			"count":12,
			"type":"VEC2"
		},
		{
			"bufferView":43,
			"componentType":5123,
			"count":24,
			"type":"SCALAR"
		},
		{
			"bufferView":44,
			"componentType":5126,
			"count":12,
			"max":[
				10,
				22.5,
				7
			],
			"min":[
				-10,
				14.5,
				-7
			],
			"type":"VEC3"
		},
		{
			"bufferView":45,
			"componentType":5126,
			"count":12,
			"type":"VEC3"
		},
		{
			"bufferView":46,
			"componentType":5126,
			"count":12,
			"type":"VEC2"
		},
		{
			"bufferView":47,
			"componentType":5123,
			"count":24,
			"type":"SCALAR"
		},
		{
			"bufferView":48,
			"componentType":5126,
			"count":40,
			"max":[
				12,
				-8.5,
				7
			],
			"min":[
				-12,
				-16,
				-6
			],
			"type":"VEC3"
		},
		{
			"bufferView":49,
			"componentType":5126,
			"count":40,
			"type":"VEC3"
		},
		{
			"bufferView":50,
			"componentType":5126,
			"count":40,
			"type":"VEC2"
		},
		{
			"bufferView":51,
			"componentType":5123,
			"count":60,
			"type":"SCALAR"
		},
		{
			"bufferView":52,
			"componentType":5126,
			"count":12,
			"max":[
				8,
				5,
				6.5
			],
			"min":[
				-8,
				5,
				-6.5
			],
			"type":"VEC3"
		},
		{
			"bufferView":53,
			"componentType":5126,
			"count":12,
			"type":"VEC3"
		},
		{
			"bufferView":54,
			"componentType":5126,
			"count":12,
			"type":"VEC2"
		},
		{
			"bufferView":55,
			"componentType":5123,
			"count":24,
			"type":"SCALAR"
		},
		{
			"bufferView":56,
			"componentType":5126,
			"count":108,
			"max":[
				12.5,
				14.5,
				7.5
			],
			"min":[
				-12.5,
				-2.5,
				-7.5
			],
			"type":"VEC3"
		},
		{
			"bufferView":57,
			"componentType":5126,
			"count":108,
			"type":"VEC3"
		},
		{
			"bufferView":58,
			"componentType":5126,
			"count":108,
			"type":"VEC2"
		},
		{
			"bufferView":59,
			"componentType":5123,
			"count":180,
			"type":"SCALAR"
		},
		{
			"bufferView":60,
			"componentType":5126,
			"count":24,
			"max":[
				12.5,
				14,
				7
			],
			"min":[
				-12.5,
				-2,
				-7
			],
			"type":"VEC3"
		},
		{
			"bufferView":61,
			"componentType":5126,
			"count":24,
			"type":"VEC3"
		},
		{
			"bufferView":62,
			"componentType":5126,
			"count":24,
			"type":"VEC2"
		},
		{
			"bufferView":63,
			"componentType":5123,
			"count":36,
			"type":"SCALAR"
		}
	],
	"bufferViews":[
		{
			"buffer":0,
			"byteLength":888,
			"byteOffset":0,
			"target":34962
		},
		{
			"buffer":0,
			"byteLength":888,
			"byteOffset":888,
			"target":34962
		},
		{
			"buffer":0,
			"byteLength":592,
			"byteOffset":1776,
			"target":34962
		},
		{
			"buffer":0,
			"byteLength":264,
			"byteOffset":2368,
			"target":34963
		},
		{
			"buffer":0,
			"byteLength":5040,
			"byteOffset":2632,
			"target":34962
		},
		{
			"buffer":0,
			"byteLength":5040,
			"byteOffset":7672,
			"target":34962
		},
		{
			"buffer":0,
			"byteLength":3360,
			"byteOffset":12712,
			"target":34962
		},
		{
			"buffer":0,
			"byteLength":1584,
			"byteOffset":16072,
			"target":34963
		},
		{
			"buffer":0,
			"byteLength":192,
			"byteOffset":17656,
			"target":34962
		},
		{
			"buffer":0,
			"byteLength":192,
			"byteOffset":17848,
			"target":34962
		},
		{
			"buffer":0,
			"byteLength":128,
			"byteOffset":18040,
			"target":34962
		},
		{
			"buffer":0,
			"byteLength":48,
			"byteOffset":18168,
			"target":34963
		},
		{
			"buffer":0,
			"byteLength":1152,
			"byteOffset":18216,
			"target":34962
		},
		{
			"buffer":0,
			"byteLength":1152,
			"byteOffset":19368,
			"target":34962
		},
		{
			"buffer":0,
			"byteLength":768,
			"byteOffset":20520,
			"target":34962
		},
		{
			"buffer":0,
			"byteLength":288,
			"byteOffset":21288,
			"target":34963
		},
		{
			"buffer":0,
			"byteLength":144,
			"byteOffset":21576,
			"target":34962
		},
		{
			"buffer":0,
			"byteLength":144,
			"byteOffset":21720,
			"target":34962
		},
		{
			"buffer":0,
			"byteLength":96,
			"byteOffset":21864,
			"target":34962
		},
		{
			"buffer":0,
			"byteLength":48,
			"byteOffset":21960,
			"target":34963
		},
		{
			"buffer":0,
			"byteLength":384,
			"byteOffset":22008,
			"target":34962
		},
		{
			"buffer":0,
			"byteLength":384,
			"byteOffset":22392,
			"target":34962
		},
		{
			"buffer":0,
			"byteLength":256,
			"byteOffset":22776,
			"target":34962
		},
		{
			"buffer":0,
			"byteLength":120,
			"byteOffset":23032,
			"target":34963
		},
		{
			"buffer":0,
			"byteLength":2592,
			"byteOffset":23152,
			"target":34962
		},
		{
			"buffer":0,
			"byteLength":2592,
			"byteOffset":25744,
			"target":34962
		},
		{
			"buffer":0,
			"byteLength":1728,
			"byteOffset":28336,
			"target":34962
		},
		{
			"buffer":0,
			"byteLength":960,
			"byteOffset":30064,
			"target":34963
		},
		{
			"buffer":0,
			"byteLength":144,
			"byteOffset":31024,
			"target":34962
		},
		{
			"buffer":0,
			"byteLength":144,
			"byteOffset":31168,
			"target":34962
		},
		{
			"buffer":0,
			"byteLength":96,
			"byteOffset":31312,
			"target":34962
		},
		{
			"buffer":0,
			"byteLength":48,
			"byteOffset":31408,
			"target":34963
		},
		{
			"buffer":0,
			"byteLength":1584,
			"byteOffset":31456,
			"target":34962
		},
		{
			"buffer":0,
			"byteLength":1584,
			"byteOffset":33040,
			"target":34962
		},
		{
			"buffer":0,
			"byteLength":1056,
			"byteOffset":34624,
			"target":34962
		},
		{
			"buffer":0,
			"byteLength":564,
			"byteOffset":35680,
			"target":34963
		},
		{
			"buffer":0,
			"byteLength":600,
			"byteOffset":36244,
			"target":34962
		},
		{
			"buffer":0,
			"byteLength":600,
			"byteOffset":36844,
			"target":34962
		},
		{
			"buffer":0,
			"byteLength":400,
			"byteOffset":37444,
			"target":34962
		},
		{
			"buffer":0,
			"byteLength":204,
			"byteOffset":37844,
			"target":34963
		},
		{
			"buffer":0,
			"byteLength":144,
			"byteOffset":38048,
			"target":34962
		},
		{
			"buffer":0,
			"byteLength":144,
			"byteOffset":38192,
			"target":34962
		},
		{
			"buffer":0,
			"byteLength":96,
			"byteOffset":38336,
			"target":34962
		},
		{
			"buffer":0,
			"byteLength":48,
			"byteOffset":38432,
			"target":34963
		},
		{
			"buffer":0,
			"byteLength":144,
			"byteOffset":38480,
			"target":34962
		},
		{
			"buffer":0,
			"byteLength":144,
			"byteOffset":38624,
			"target":34962
		},
		{
			"buffer":0,
			"byteLength":96,
			"byteOffset":38768,
			"target":34962
		},
		{
			"buffer":0,
			"byteLength":48,
			"byteOffset":38864,
			"target":34963
		},
		{
			"buffer":0,
			"byteLength":480,
			"byteOffset":38912,
			"target":34962
		},
		{
			"buffer":0,
			"byteLength":480,
			"byteOffset":39392,
			"target":34962
		},
		{
			"buffer":0,
			"byteLength":320,
			"byteOffset":39872,
			"target":34962
		},
		{
			"buffer":0,
			"byteLength":120,
			"byteOffset":40192,
			"target":34963
		},
		{
			"buffer":0,
			"byteLength":144,
			"byteOffset":40312,
			"target":34962
		},
		{
			"buffer":0,
			"byteLength":144,
			"byteOffset":40456,
			"target":34962
		},
		{
			"buffer":0,
			"byteLength":96,
			"byteOffset":40600,
			"target":34962
		},
		{
			"buffer":0,
			"byteLength":48,
			"byteOffset":40696,
			"target":34963
		},
		{
			"buffer":0,
			"byteLength":1296,
			"byteOffset":40744,
			"target":34962
		},
		{
			"buffer":0,
			"byteLength":1296,
			"byteOffset":42040,
			"target":34962
		},
		{
			"buffer":0,
			"byteLength":864,
			"byteOffset":43336,
			"target":34962
		},
		{
			"buffer":0,
			"byteLength":360,
			"byteOffset":44200,
			"target":34963
		},
		{
			"buffer":0,
			"byteLength":288,
			"byteOffset":44560,
			"target":34962
		},
		{
			"buffer":0,
			"byteLength":288,
			"byteOffset":44848,
			"target":34962
		},
		{
			"buffer":0,
			"byteLength":192,
			"byteOffset":45136,
			"target":34962
		},
		{
			"buffer":0,
			"byteLength":72,
			"byteOffset":45328,
			"target":34963
		}
	],
	"buffers":[
		{
			"byteLength":45400,
			"uri":"sbrdg3.bin"
		}
	]
}
