{
	"asset":{
		"generator":"Khronos glTF Blender I/O v4.5.48",
		"version":"2.0"
	},
	"scene":0,
	"scenes":[
		{
			"name":"Scene",
			"nodes":[
				0
			]
		}
	],
	"nodes":[
		{
			"mesh":0,
			"name":"Object"
		}
	],
	"materials":[
		{
			"doubleSided":true,
			"name":"SW_FLOORGRATE",
			"pbrMetallicRoughness":{
				"baseColorFactor":[
					0.800000011920929,
					0.800000011920929,
					0.800000011920929,
					1
				],
				"metallicFactor":0,
				"roughnessFactor":0.5
			}
		},
		{
			"doubleSided":true,
			"name":"SW_IWAL03",
			"pbrMetallicRoughness":{
				"baseColorFactor":[
					0.800000011920929,
					0.800000011920929,
					0.800000011920929,
					1
				],
				"metallicFactor":0,
				"roughnessFactor":0.5
			}
		},
		{
			"doubleSided":true,
			"name":"SW_ESPEC03",
			"pbrMetallicRoughness":{
				"baseColorFactor":[
					0.800000011920929,
					0.800000011920929,
					0.800000011920929,
					1
				],
				"metallicFactor":0,
				"roughnessFactor":0.5
			}
		},
		{
			"doubleSided":true,
			"name":"SW_IBORLIG02",
			"pbrMetallicRoughness":{
				"baseColorFactor":[
					0.800000011920929,
					0.800000011920929,
					0.800000011920929,
					1
				],
				"metallicFactor":0,
				"roughnessFactor":0.5
			}
		},
		{
			"doubleSided":true,
			"name":"SW_IWAL04",
			"pbrMetallicRoughness":{
				"baseColorFactor":[
					0.800000011920929,
					0.800000011920929,
					0.800000011920929,
					1
				],
				"metallicFactor":0,
				"roughnessFactor":0.5
			}
		},
		{
			"doubleSided":true,
			"name":"SW_ICHUTE02",
			"pbrMetallicRoughness":{
				"baseColorFactor":[
					0.800000011920929,
					0.800000011920929,
					0.800000011920929,
					1
				],
				"metallicFactor":0,
				"roughnessFactor":0.5
			}
		},
		{
			"doubleSided":true,
			"name":"SW_ELIG01",
			"pbrMetallicRoughness":{
				"baseColorFactor":[
					0.800000011920929,
					0.800000011920929,
					0.800000011920929,
					1
				],
				"metallicFactor":0,
				"roughnessFactor":0.5
			}
		},
		{
			"doubleSided":true,
			"name":"SW_EWAL02",
			"pbrMetallicRoughness":{
				"baseColorFactor":[
					0.800000011920929,
					0.800000011920929,
					0.800000011920929,
					1
				],
				"metallicFactor":0,
				"roughnessFactor":0.5
			}
		}
	],
	"meshes":[
		{
			"name":"Mesh",
			"primitives":[
				{
					"attributes":{
						"POSITION":0,
						"NORMAL":1,
						"TEXCOORD_0":2
					},
					"indices":3,
					"material":0
				},
				{
					"attributes":{
						"POSITION":4,
						"NORMAL":5,
						"TEXCOORD_0":6
					},
					"indices":7,
					"material":1
				},
				{
					"attributes":{
						"POSITION":8,
						"NORMAL":9,
						"TEXCOORD_0":10
					},
					"indices":11,
					"material":2
				},
				{
					"attributes":{
						"POSITION":12,
						"NORMAL":13,
						"TEXCOORD_0":14
					},
					"indices":15,
					"material":3
				},
				{
					"attributes":{
						"POSITION":16,
						"NORMAL":17,
						"TEXCOORD_0":18
					},
					"indices":19,
					"material":4
				},
				{
					"attributes":{
						"POSITION":20,
						"NORMAL":21,
						"TEXCOORD_0":22
					},
					"indices":23,
					"material":5
				},
				{
					"attributes":{
						"POSITION":24,
						"NORMAL":25,
						"TEXCOORD_0":26
					},
					"indices":27,
					"material":6
				},
				{
					"attributes":{
						"POSITION":28,
						"NORMAL":29,
						"TEXCOORD_0":30
					},
					"indices":31,
					"material":7
				}
			]
		}
	],
	"accessors":[
		{
			"bufferView":0,
			"componentType":5126,
			"count":16,
			"max":[
				4,
				5,
				4
			],
			"min":[
				-4,
				5,
				-16
			],
			"type":"VEC3"
		},
		{
			"bufferView":1,
			"componentType":5126,
			"count":16,
			"type":"VEC3"
		},
		{
			"bufferView":2,
			"componentType":5126,
			"count":16,
			"type":"VEC2"
		},
		{
			"bufferView":3,
			"componentType":5123,
			"count":48,
			"type":"SCALAR"
		},
		{
			"bufferView":4,
			"componentType":5126,
			"count":298,
			"max":[
				7,
				12,
				12
			],
			"min":[
				-7,
				2,
				-16
			],
			"type":"VEC3"
		},
		{
			"bufferView":5,
			"componentType":5126,
			"count":298,
			"type":"VEC3"
		},
		{
			"bufferView":6,
			"componentType":5126,
			"count":298,
			"type":"VEC2"
		},
		{
			"bufferView":7,
			"componentType":5123,
			"count":612,
			"type":"SCALAR"
		},
		{
			"bufferView":8,
			"componentType":5126,
			"count":12,
			"max":[
				4,
				5,
				-9
			],
			"min":[
				-4,
				4,
				-16
			],
			"type":"VEC3"
		},
		{
			"bufferView":9,
			"componentType":5126,
			"count":12,
			"type":"VEC3"
		},
		{
			"bufferView":10,
			"componentType":5126,
			"count":12,
			"type":"VEC2"
		},
		{
			"bufferView":11,
			"componentType":5123,
			"count":18,
			"type":"SCALAR"
		},
		{
			"bufferView":12,
			"componentType":5126,
			"count":49,
			"max":[
				6,
				12,
				12
			],
			"min":[
				-6,
				3,
				-16
			],
			"type":"VEC3"
		},
		{
			"bufferView":13,
			"componentType":5126,
			"count":49,
			"type":"VEC3"
		},
		{
			"bufferView":14,
			"componentType":5126,
			"count":49,
			"type":"VEC2"
		},
		{
			"bufferView":15,
			"componentType":5123,
			"count":75,
			"type":"SCALAR"
		},
		{
			"bufferView":16,
			"componentType":5126,
			"count":47,
			"max":[
				4,
				12,
				12
			],
			"min":[
				-4,
				3,
				-16
			],
			"type":"VEC3"
		},
		{
			"bufferView":17,
			"componentType":5126,
			"count":47,
			"type":"VEC3"
		},
		{
			"bufferView":18,
			"componentType":5126,
			"count":47,
			"type":"VEC2"
		},
		{
			"bufferView":19,
			"componentType":5123,
			"count":81,
			"type":"SCALAR"
		},
		{
			"bufferView":20,
			"componentType":5126,
			"count":20,
			"max":[
				2.5,
				12,
				12
			],
			"min":[
				-2.5,
				5,
				4
			],
			"type":"VEC3"
		},
		{
			"bufferView":21,
			"componentType":5126,
			"count":20,
			"type":"VEC3"
		},
		{
			"bufferView":22,
			"componentType":5126,
			"count":20,
			"type":"VEC2"
		},
		{
			"bufferView":23,
			"componentType":5123,
			"count":36,
			"type":"SCALAR"
		},
		{
			"bufferView":24,
			"componentType":5126,
			"count":8,
			"max":[
				4,
				12,
				12
			],
			"min":[
				-4,
				12,
				11
			],
			"type":"VEC3"
		},
		{
			"bufferView":25,
			"componentType":5126,
			"count":8,
			"type":"VEC3"
		},
		{
			"bufferView":26,
			"componentType":5126,
			"count":8,
			"type":"VEC2"
		},
		{
			"bufferView":27,
			"componentType":5123,
			"count":12,
			"type":"SCALAR"
		},
		{
			"bufferView":28,
			"componentType":5126,
			"count":132,
			"max":[
				7,
				5.5,
				5
			],
			"min":[
				-7,
				2,
				-9
			],
			"type":"VEC3"
		},
		{
			"bufferView":29,
			"componentType":5126,
			"count":132,
			"type":"VEC3"
		},
		{
			"bufferView":30,
			"componentType":5126,
			"count":132,
			"type":"VEC2"
		},
		{
			"bufferView":31,
			"componentType":5123,
			"count":204,
			"type":"SCALAR"
		}
	],
	"bufferViews":[
		{
			"buffer":0,
			"byteLength":192,
			"byteOffset":0,
			"target":34962
		},
		{
			"buffer":0,
			"byteLength":192,
			"byteOffset":192,
			"target":34962
		},
		{
			"buffer":0,
			"byteLength":128,
			"byteOffset":384,
			"target":34962
		},
		{
			"buffer":0,
			"byteLength":96,
			"byteOffset":512,
			"target":34963
		},
		{
			"buffer":0,
			"byteLength":3576,
			"byteOffset":608,
			"target":34962
		},
		{
			"buffer":0,
			"byteLength":3576,
			"byteOffset":4184,
			"target":34962
		},
		{
			"buffer":0,
			"byteLength":2384,
			"byteOffset":7760,
			"target":34962
		},
		{
			"buffer":0,
			"byteLength":1224,
			"byteOffset":10144,
			"target":34963
		},
		{
			"buffer":0,
			"byteLength":144,
			"byteOffset":11368,
			"target":34962
		},
		{
			"buffer":0,
			"byteLength":144,
			"byteOffset":11512,
			"target":34962
		},
		{
			"buffer":0,
			"byteLength":96,
			"byteOffset":11656,
			"target":34962
		},
		{
			"buffer":0,
			"byteLength":36,
			"byteOffset":11752,
			"target":34963
		},
		{
			"buffer":0,
			"byteLength":588,
			"byteOffset":11788,
			"target":34962
		},
		{
			"buffer":0,
			"byteLength":588,
			"byteOffset":12376,
			"target":34962
		},
		{
			"buffer":0,
			"byteLength":392,
			"byteOffset":12964,
			"target":34962
		},
		{
			"buffer":0,
			"byteLength":150,
			"byteOffset":13356,
			"target":34963
		},
		{
			"buffer":0,
			"byteLength":564,
			"byteOffset":13508,
			"target":34962
		},
		{
			"buffer":0,
			"byteLength":564,
			"byteOffset":14072,
			"target":34962
		},
		{
			"buffer":0,
			"byteLength":376,
			"byteOffset":14636,
			"target":34962
		},
		{
			"buffer":0,
			"byteLength":162,
			"byteOffset":15012,
			"target":34963
		},
		{
			"buffer":0,
			"byteLength":240,
			"byteOffset":15176,
			"target":34962
		},
		{
			"buffer":0,
			"byteLength":240,
			"byteOffset":15416,
			"target":34962
		},
		{
			"buffer":0,
			"byteLength":160,
			"byteOffset":15656,
			"target":34962
		},
		{
			"buffer":0,
			"byteLength":72,
			"byteOffset":15816,
			"target":34963
		},
		{
			"buffer":0,
			"byteLength":96,
			"byteOffset":15888,
			"target":34962
		},
		{
			"buffer":0,
			"byteLength":96,
			"byteOffset":15984,
			"target":34962
		},
		{
			"buffer":0,
			"byteLength":64,
			"byteOffset":16080,
			"target":34962
		},
		{
			"buffer":0,
			"byteLength":24,
			"byteOffset":16144,
			"target":34963
		},
		{
			"buffer":0,
			"byteLength":1584,
			"byteOffset":16168,
			"target":34962
		},
		{
			"buffer":0,
			"byteLength":1584,
			"byteOffset":17752,
			"target":34962
		},
		{
			"buffer":0,
			"byteLength":1056,
			"byteOffset":19336,
			"target":34962
		},
		{
			"buffer":0,
			"byteLength":408,
			"byteOffset":20392,
			"target":34963
		}
	],
	"buffers":[
		{
			"byteLength":20800,
			"uri":"sbrdg6.bin"
		}
	]
}
