{
	"asset":{
		"generator":"Khronos glTF Blender I/O v4.5.48",
		"version":"2.0"
	},
	"scene":0,
	"scenes":[
		{
			"name":"Scene",
			"nodes":[
				0
			]
		}
	],
	"nodes":[
		{
			"mesh":0,
			"name":"Object"
		}
	],
	"materials":[
		{
			"doubleSided":true,
			"name":"SW_FLOORGRATE",
			"pbrMetallicRoughness":{
				"baseColorFactor":[
					0.800000011920929,
					0.800000011920929,
					0.800000011920929,
					1
				],
				"metallicFactor":0,
				"roughnessFactor":0.5
			}
		},
		{
			"doubleSided":true,
			"name":"SW_IWAL03",
			"pbrMetallicRoughness":{
				"baseColorFactor":[
					0.800000011920929,
					0.800000011920929,
					0.800000011920929,
					1
				],
				"metallicFactor":0,
				"roughnessFactor":0.5
			}
		},
		{
			"doubleSided":true,
			"name":"SW_ESPEC03",
			"pbrMetallicRoughness":{
				"baseColorFactor":[
					0.800000011920929,
					0.800000011920929,
					0.800000011920929,
					1
				],
				"metallicFactor":0,
				"roughnessFactor":0.5
			}
		},
		{
			"doubleSided":true,
			"name":"SW_IBORLIG01",
			"pbrMetallicRoughness":{
				"baseColorFactor":[
					0.800000011920929,
					0.800000011920929,
					0.800000011920929,
					1
				],
				"metallicFactor":0,
				"roughnessFactor":0.5
			}
		},
		{
			"doubleSided":true,
			"name":"SW_IWAL04",
			"pbrMetallicRoughness":{
				"baseColorFactor":[
					0.800000011920929,
					0.800000011920929,
					0.800000011920929,
					1
				],
				"metallicFactor":0,
				"roughnessFactor":0.5
			}
		},
		{
			"doubleSided":true,
			"name":"SW_THRESHGRATE",
			"pbrMetallicRoughness":{
				"baseColorFactor":[
					0.800000011920929,
					0.800000011920929,
					0.800000011920929,
					1
				],
				"metallicFactor":0,
				"roughnessFactor":0.5
			}
		},
		{
			"doubleSided":true,
			"name":"SW_EWAL02",
			"pbrMetallicRoughness":{
				"baseColorFactor":[
					0.800000011920929,
					0.800000011920929,
					0.800000011920929,
					1
				],
				"metallicFactor":0,
				"roughnessFactor":0.5
			}
		},
		{
			"doubleSided":true,
			"name":"SW_EFLO01C",
			"pbrMetallicRoughness":{
				"baseColorFactor":[
					0.800000011920929,
					0.800000011920929,
					0.800000011920929,
					1
				],
				"metallicFactor":0,
				"roughnessFactor":0.5
			}
		},
		{
			"doubleSided":true,
			"name":"SW_ELIG01",
			"pbrMetallicRoughness":{
				"baseColorFactor":[
					0.800000011920929,
					0.800000011920929,
					0.800000011920929,
					1
				],
				"metallicFactor":0,
				"roughnessFactor":0.5
			}
		},
		{
			"doubleSided":true,
			"name":"SW_IWAL03SNOW",
			"pbrMetallicRoughness":{
				"baseColorFactor":[
					0.800000011920929,
					0.800000011920929,
					0.800000011920929,
					1
				],
				"metallicFactor":0,
				"roughnessFactor":0.5
			}
		}
	],
	"meshes":[
		{
			"name":"Mesh",
			"primitives":[
				{
					"attributes":{
						"POSITION":0,
						"NORMAL":1,
						"TEXCOORD_0":2
					},
					"indices":3,
					"material":0
				},
				{
					"attributes":{
						"POSITION":4,
						"NORMAL":5,
						"TEXCOORD_0":6
					},
					"indices":7,
					"material":1
				},
				{
					"attributes":{
						"POSITION":8,
						"NORMAL":9,
						"TEXCOORD_0":10
					},
					"indices":11,
					"material":2
				},
				{
					"attributes":{
						"POSITION":12,
						"NORMAL":13,
						"TEXCOORD_0":14
					},
					"indices":15,
					"material":3
				},
				{
					"attributes":{
						"POSITION":16,
						"NORMAL":17,
						"TEXCOORD_0":18
					},
					"indices":19,
					"material":4
				},
				{
					"attributes":{
						"POSITION":20,
						"NORMAL":21,
						"TEXCOORD_0":22
					},
					"indices":23,
					"material":5
				},
				{
					"attributes":{
						"POSITION":24,
						"NORMAL":25,
						"TEXCOORD_0":26
					},
					"indices":27,
					"material":6
				},
				{
					"attributes":{
						"POSITION":28,
						"NORMAL":29,
						"TEXCOORD_0":30
					},
					"indices":31,
					"material":7
				},
				{
					"attributes":{
						"POSITION":32,
						"NORMAL":33,
						"TEXCOORD_0":34
					},
					"indices":35,
					"material":8
				},
				{
					"attributes":{
						"POSITION":36,
						"NORMAL":37,
						"TEXCOORD_0":38
					},
					"indices":39,
					"material":9
				}
			]
		}
	],
	"accessors":[
		{
			"bufferView":0,
			"componentType":5126,
			"count":40,
			"max":[
				32,
				5,
				32
			],
			"min":[
				-32,
				4,
				-32
			],
			"type":"VEC3"
		},
		{
			"bufferView":1,
			"componentType":5126,
			"count":40,
			"type":"VEC3"
		},
		{
			"bufferView":2,
			"componentType":5126,
			"count":40,
			"type":"VEC2"
		},
		{
			"bufferView":3,
			"componentType":5123,
			"count":102,
			"type":"SCALAR"
		},
		{
			"bufferView":4,
			"componentType":5126,
			"count":464,
			"max":[
				32,
				22,
				32
			],
			"min":[
				-32,
				-8.5,
				-32
			],
			"type":"VEC3"
		},
		{
			"bufferView":5,
			"componentType":5126,
			"count":464,
			"type":"VEC3"
		},
		{
			"bufferView":6,
			"componentType":5126,
			"count":464,
			"type":"VEC2"
		},
		{
			"bufferView":7,
			"componentType":5123,
			"count":840,
			"type":"SCALAR"
		},
		{
			"bufferView":8,
			"componentType":5126,
			"count":128,
			"max":[
				32,
				22,
				32
			],
			"min":[
				-32,
				4,
				-32
			],
			"type":"VEC3"
		},
		{
			"bufferView":9,
			"componentType":5126,
			"count":128,
			"type":"VEC3"
		},
		{
			"bufferView":10,
			"componentType":5126,
			"count":128,
			"type":"VEC2"
		},
		{
			"bufferView":11,
			"componentType":5123,
			"count":216,
			"type":"SCALAR"
		},
		{
			"bufferView":12,
			"componentType":5126,
			"count":16,
			"max":[
				32,
				3,
				32
			],
			"min":[
				-32,
				3,
				-32
			],
			"type":"VEC3"
		},
		{
			"bufferView":13,
			"componentType":5126,
			"count":16,
			"type":"VEC3"
		},
		{
			"bufferView":14,
			"componentType":5126,
			"count":16,
			"type":"VEC2"
		},
		{
			"bufferView":15,
			"componentType":5123,
			"count":30,
			"type":"SCALAR"
		},
		{
			"bufferView":16,
			"componentType":5126,
			"count":48,
			"max":[
				32,
				4,
				32
			],
			"min":[
				-32,
				3,
				-32
			],
			"type":"VEC3"
		},
		{
			"bufferView":17,
			"componentType":5126,
			"count":48,
			"type":"VEC3"
		},
		{
			"bufferView":18,
			"componentType":5126,
			"count":48,
			"type":"VEC2"
		},
		{
			"bufferView":19,
			"componentType":5123,
			"count":96,
			"type":"SCALAR"
		},
		{
			"bufferView":20,
			"componentType":5126,
			"count":60,
			"max":[
				32,
				22,
				32
			],
			"min":[
				-32,
				20,
				-32
			],
			"type":"VEC3"
		},
		{
			"bufferView":21,
			"componentType":5126,
			"count":60,
			"type":"VEC3"
		},
		{
			"bufferView":22,
			"componentType":5126,
			"count":60,
			"type":"VEC2"
		},
		{
			"bufferView":23,
			"componentType":5123,
			"count":108,
			"type":"SCALAR"
		},
		{
			"bufferView":24,
			"componentType":5126,
			"count":52,
			"max":[
				30,
				20,
				32
			],
			"min":[
				-30,
				20,
				-32
			],
			"type":"VEC3"
		},
		{
			"bufferView":25,
			"componentType":5126,
			"count":52,
			"type":"VEC3"
		},
		{
			"bufferView":26,
			"componentType":5126,
			"count":52,
			"type":"VEC2"
		},
		{
			"bufferView":27,
			"componentType":5123,
			"count":138,
			"type":"SCALAR"
		},
		{
			"bufferView":28,
			"componentType":5126,
			"count":36,
			"max":[
				30,
				22,
				30
			],
			"min":[
				-30,
				22,
				-30
			],
			"type":"VEC3"
		},
		{
			"bufferView":29,
			"componentType":5126,
			"count":36,
			"type":"VEC3"
		},
		{
			"bufferView":30,
			"componentType":5126,
			"count":36,
			"type":"VEC2"
		},
		{
			"bufferView":31,
			"componentType":5123,
			"count":54,
			"type":"SCALAR"
		},
		{
			"bufferView":32,
			"componentType":5126,
			"count":128,
			"max":[
				32,
				22,
				32
			],
			"min":[
				-32,
				20,
				-32
			],
			"type":"VEC3"
		},
		{
			"bufferView":33,
			"componentType":5126,
			"count":128,
			"type":"VEC3"
		},
		{
			"bufferView":34,
			"componentType":5126,
			"count":128,
			"type":"VEC2"
		},
		{
			"bufferView":35,
			"componentType":5123,
			"count":288,
			"type":"SCALAR"
		},
		{
			"bufferView":36,
			"componentType":5126,
			"count":160,
			"max":[
				14.5,
				-8.5,
				14.5
			],
			"min":[
				-14.5,
				-16,
				-14.5
			],
			"type":"VEC3"
		},
		{
			"bufferView":37,
			"componentType":5126,
			"count":160,
			"type":"VEC3"
		},
		{
			"bufferView":38,
			"componentType":5126,
			"count":160,
			"type":"VEC2"
		},
		{
			"bufferView":39,
			"componentType":5123,
			"count":240,
			"type":"SCALAR"
		}
	],
	"bufferViews":[
		{
			"buffer":0,
			"byteLength":480,
			"byteOffset":0,
			"target":34962
		},
		{
			"buffer":0,
			"byteLength":480,
			"byteOffset":480,
			"target":34962
		},
		{
			"buffer":0,
			"byteLength":320,
			"byteOffset":960,
			"target":34962
		},
		{
			"buffer":0,
			"byteLength":204,
			"byteOffset":1280,
			"target":34963
		},
		{
			"buffer":0,
			"byteLength":5568,
			"byteOffset":1484,
			"target":34962
		},
		{
			"buffer":0,
			"byteLength":5568,
			"byteOffset":7052,
			"target":34962
		},
		{
			"buffer":0,
			"byteLength":3712,
			"byteOffset":12620,
			"target":34962
		},
		{
			"buffer":0,
			"byteLength":1680,
			"byteOffset":16332,
			"target":34963
		},
		{
			"buffer":0,
			"byteLength":1536,
			"byteOffset":18012,
			"target":34962
		},
		{
			"buffer":0,
			"byteLength":1536,
			"byteOffset":19548,
			"target":34962
		},
		{
			"buffer":0,
			"byteLength":1024,
			"byteOffset":21084,
			"target":34962
		},
		{
			"buffer":0,
			"byteLength":432,
			"byteOffset":22108,
			"target":34963
		},
		{
			"buffer":0,
			"byteLength":192,
			"byteOffset":22540,
			"target":34962
		},
		{
			"buffer":0,
			"byteLength":192,
			"byteOffset":22732,
			"target":34962
		},
		{
			"buffer":0,
			"byteLength":128,
			"byteOffset":22924,
			"target":34962
		},
		{
			"buffer":0,
			"byteLength":60,
			"byteOffset":23052,
			"target":34963
		},
		{
			"buffer":0,
			"byteLength":576,
			"byteOffset":23112,
			"target":34962
		},
		{
			"buffer":0,
			"byteLength":576,
			"byteOffset":23688,
			"target":34962
		},
		{
			"buffer":0,
			"byteLength":384,
			"byteOffset":24264,
			"target":34962
		},
		{
			"buffer":0,
			"byteLength":192,
			"byteOffset":24648,
			"target":34963
		},
		{
			"buffer":0,
			"byteLength":720,
			"byteOffset":24840,
			"target":34962
		},
		{
			"buffer":0,
			"byteLength":720,
			"byteOffset":25560,
			"target":34962
		},
		{
			"buffer":0,
			"byteLength":480,
			"byteOffset":26280,
			"target":34962
		},
		{
			"buffer":0,
			"byteLength":216,
			"byteOffset":26760,
			"target":34963
		},
		{
			"buffer":0,
			"byteLength":624,
			"byteOffset":26976,
			"target":34962
		},
		{
			"buffer":0,
			"byteLength":624,
			"byteOffset":27600,
			"target":34962
		},
		{
			"buffer":0,
			"byteLength":416,
			"byteOffset":28224,
			"target":34962
		},
		{
			"buffer":0,
			"byteLength":276,
			"byteOffset":28640,
			"target":34963
		},
		{
			"buffer":0,
			"byteLength":432,
			"byteOffset":28916,
			"target":34962
		},
		{
			"buffer":0,
			"byteLength":432,
			"byteOffset":29348,
			"target":34962
		},
		{
			"buffer":0,
			"byteLength":288,
			"byteOffset":29780,
			"target":34962
		},
		{
			"buffer":0,
			"byteLength":108,
			"byteOffset":30068,
			"target":34963
		},
		{
			"buffer":0,
			"byteLength":1536,
			"byteOffset":30176,
			"target":34962
		},
		{
			"buffer":0,
			"byteLength":1536,
			"byteOffset":31712,
			"target":34962
		},
		{
			"buffer":0,
			"byteLength":1024,
			"byteOffset":33248,
			"target":34962
		},
		{
			"buffer":0,
			"byteLength":576,
			"byteOffset":34272,
			"target":34963
		},
		{
			"buffer":0,
			"byteLength":1920,
			"byteOffset":34848,
			"target":34962
		},
		{
			"buffer":0,
			"byteLength":1920,
			"byteOffset":36768,
			"target":34962
		},
		{
			"buffer":0,
			"byteLength":1280,
			"byteOffset":38688,
			"target":34962
		},
		{
			"buffer":0,
			"byteLength":480,
			"byteOffset":39968,
			"target":34963
		}
	],
	"buffers":[
		{
			"byteLength":40448,
			"uri":"sbrdg7.bin"
		}
	]
}
