{
	"asset":{
		"generator":"Khronos glTF Blender I/O v4.5.48",
		"version":"2.0"
	},
	"scene":0,
	"scenes":[
		{
			"name":"Scene",
			"nodes":[
				0
			]
		}
	],
	"nodes":[
		{
			"mesh":0,
			"name":"Object"
		}
	],
	"materials":[
		{
			"doubleSided":true,
			"name":"SW_IWAL03",
			"pbrMetallicRoughness":{
				"baseColorFactor":[
					0.800000011920929,
					0.800000011920929,
					0.800000011920929,
					1
				],
				"metallicFactor":0,
				"roughnessFactor":0.5
			}
		},
		{
			"doubleSided":true,
			"name":"SW_IWAL03SNOW",
			"pbrMetallicRoughness":{
				"baseColorFactor":[
					0.800000011920929,
					0.800000011920929,
					0.800000011920929,
					1
				],
				"metallicFactor":0,
				"roughnessFactor":0.5
			}
		},
		{
			"doubleSided":true,
			"name":"SW_FLOORGRATE",
			"pbrMetallicRoughness":{
				"baseColorFactor":[
					0.800000011920929,
					0.800000011920929,
					0.800000011920929,
					1
				],
				"metallicFactor":0,
				"roughnessFactor":0.5
			}
		},
		{
			"doubleSided":true,
			"name":"SW_IWAL05",
			"pbrMetallicRoughness":{
				"baseColorFactor":[
					0.800000011920929,
					0.800000011920929,
					0.800000011920929,
					1
				],
				"metallicFactor":0,
				"roughnessFactor":0.5
			}
		},
		{
			"doubleSided":true,
			"name":"SW_ESPEC03",
			"pbrMetallicRoughness":{
				"baseColorFactor":[
					0.800000011920929,
					0.800000011920929,
					0.800000011920929,
					1
				],
				"metallicFactor":0,
				"roughnessFactor":0.5
			}
		},
		{
			"doubleSided":true,
			"name":"SW_EFLO01C",
			"pbrMetallicRoughness":{
				"baseColorFactor":[
					0.800000011920929,
					0.800000011920929,
					0.800000011920929,
					1
				],
				"metallicFactor":0,
				"roughnessFactor":0.5
			}
		},
		{
			"doubleSided":true,
			"name":"SW_EWAL02",
			"pbrMetallicRoughness":{
				"baseColorFactor":[
					0.800000011920929,
					0.800000011920929,
					0.800000011920929,
					1
				],
				"metallicFactor":0,
				"roughnessFactor":0.5
			}
		},
		{
			"doubleSided":true,
			"name":"SW_IBORLIG02",
			"pbrMetallicRoughness":{
				"baseColorFactor":[
					0.800000011920929,
					0.800000011920929,
					0.800000011920929,
					1
				],
				"metallicFactor":0,
				"roughnessFactor":0.5
			}
		},
		{
			"doubleSided":true,
			"name":"SW_EWAL06B",
			"pbrMetallicRoughness":{
				"baseColorFactor":[
					0.800000011920929,
					0.800000011920929,
					0.800000011920929,
					1
				],
				"metallicFactor":0,
				"roughnessFactor":0.5
			}
		},
		{
			"doubleSided":true,
			"name":"SW_IWAL04",
			"pbrMetallicRoughness":{
				"baseColorFactor":[
					0.800000011920929,
					0.800000011920929,
					0.800000011920929,
					1
				],
				"metallicFactor":0,
				"roughnessFactor":0.5
			}
		},
		{
			"doubleSided":true,
			"name":"SW_ELIG01",
			"pbrMetallicRoughness":{
				"baseColorFactor":[
					0.800000011920929,
					0.800000011920929,
					0.800000011920929,
					1
				],
				"metallicFactor":0,
				"roughnessFactor":0.5
			}
		},
		{
			"doubleSided":true,
			"name":"SW_IWAL035BSEB",
			"pbrMetallicRoughness":{
				"baseColorFactor":[
					0.800000011920929,
					0.800000011920929,
					0.800000011920929,
					1
				],
				"metallicFactor":0,
				"roughnessFactor":0.5
			}
		},
		{
			"doubleSided":true,
			"name":"SW_ECAP01C",
			"pbrMetallicRoughness":{
				"baseColorFactor":[
					0.800000011920929,
					0.800000011920929,
					0.800000011920929,
					1
				],
				"metallicFactor":0,
				"roughnessFactor":0.5
			}
		}
	],
	"meshes":[
		{
			"name":"Mesh",
			"primitives":[
				{
					"attributes":{
						"POSITION":0,
						"NORMAL":1,
						"TEXCOORD_0":2
					},
					"indices":3,
					"material":0
				},
				{
					"attributes":{
						"POSITION":4,
						"NORMAL":5,
						"TEXCOORD_0":6
					},
					"indices":7,
					"material":1
				},
				{
					"attributes":{
						"POSITION":8,
						"NORMAL":9,
						"TEXCOORD_0":10
					},
					"indices":11,
					"material":2
				},
				{
					"attributes":{
						"POSITION":12,
						"NORMAL":13,
						"TEXCOORD_0":14
					},
					"indices":15,
					"material":3
				},
				{
					"attributes":{
						"POSITION":16,
						"NORMAL":17,
						"TEXCOORD_0":18
					},
					"indices":19,
					"material":4
				},
				{
					"attributes":{
						"POSITION":20,
						"NORMAL":21,
						"TEXCOORD_0":22
					},
					"indices":23,
					"material":5
				},
				{
					"attributes":{
						"POSITION":24,
						"NORMAL":25,
						"TEXCOORD_0":26
					},
					"indices":27,
					"material":6
				},
				{
					"attributes":{
						"POSITION":28,
						"NORMAL":29,
						"TEXCOORD_0":30
					},
					"indices":31,
					"material":7
				},
				{
					"attributes":{
						"POSITION":32,
						"NORMAL":33,
						"TEXCOORD_0":34
					},
					"indices":35,
					"material":8
				},
				{
					"attributes":{
						"POSITION":36,
						"NORMAL":37,
						"TEXCOORD_0":38
					},
					"indices":39,
					"material":9
				},
				{
					"attributes":{
						"POSITION":40,
						"NORMAL":41,
						"TEXCOORD_0":42
					},
					"indices":43,
					"material":10
				},
				{
					"attributes":{
						"POSITION":44,
						"NORMAL":45,
						"TEXCOORD_0":46
					},
					"indices":47,
					"material":11
				},
				{
					"attributes":{
						"POSITION":48,
						"NORMAL":49,
						"TEXCOORD_0":50
					},
					"indices":51,
					"material":12
				}
			]
		}
	],
	"accessors":[
		{
			"bufferView":0,
			"componentType":5126,
			"count":528,
			"max":[
				15.5,
				33.5,
				15.5
			],
			"min":[
				-15.5,
				-16,
				-15.5
			],
			"type":"VEC3"
		},
		{
			"bufferView":1,
			"componentType":5126,
			"count":528,
			"type":"VEC3"
		},
		{
			"bufferView":2,
			"componentType":5126,
			"count":528,
			"type":"VEC2"
		},
		{
			"bufferView":3,
			"componentType":5123,
			"count":840,
			"type":"SCALAR"
		},
		{
			"bufferView":4,
			"componentType":5126,
			"count":16,
			"max":[
				3,
				-8.5,
				7
			],
			"min":[
				-3,
				-16,
				-6
			],
			"type":"VEC3"
		},
		{
			"bufferView":5,
			"componentType":5126,
			"count":16,
			"type":"VEC3"
		},
		{
			"bufferView":6,
			"componentType":5126,
			"count":16,
			"type":"VEC2"
		},
		{
			"bufferView":7,
			"componentType":5123,
			"count":24,
			"type":"SCALAR"
		},
		{
			"bufferView":8,
			"componentType":5126,
			"count":8,
			"max":[
				9,
				21.5,
				10.5
			],
			"min":[
				-9,
				21.5,
				-10.5
			],
			"type":"VEC3"
		},
		{
			"bufferView":9,
			"componentType":5126,
			"count":8,
			"type":"VEC3"
		},
		{
			"bufferView":10,
			"componentType":5126,
			"count":8,
			"type":"VEC2"
		},
		{
			"bufferView":11,
			"componentType":5123,
			"count":12,
			"type":"SCALAR"
		},
		{
			"bufferView":12,
			"componentType":5126,
			"count":20,
			"max":[
				10,
				20.5,
				42.5
			],
			"min":[
				-10,
				20.5,
				-41.5
			],
			"type":"VEC3"
		},
		{
			"bufferView":13,
			"componentType":5126,
			"count":20,
			"type":"VEC3"
		},
		{
			"bufferView":14,
			"componentType":5126,
			"count":20,
			"type":"VEC2"
		},
		{
			"bufferView":15,
			"componentType":5123,
			"count":54,
			"type":"SCALAR"
		},
		{
			"bufferView":16,
			"componentType":5126,
			"count":56,
			"max":[
				12,
				21.5,
				42.5
			],
			"min":[
				-12,
				20.5,
				-41.5
			],
			"type":"VEC3"
		},
		{
			"bufferView":17,
			"componentType":5126,
			"count":56,
			"type":"VEC3"
		},
		{
			"bufferView":18,
			"componentType":5126,
			"count":56,
			"type":"VEC2"
		},
		{
			"bufferView":19,
			"componentType":5123,
			"count":84,
			"type":"SCALAR"
		},
		{
			"bufferView":20,
			"componentType":5126,
			"count":20,
			"max":[
				10,
				21.5,
				42.5
			],
			"min":[
				-10,
				21.5,
				-41.5
			],
			"type":"VEC3"
		},
		{
			"bufferView":21,
			"componentType":5126,
			"count":20,
			"type":"VEC3"
		},
		{
			"bufferView":22,
			"componentType":5126,
			"count":20,
			"type":"VEC2"
		},
		{
			"bufferView":23,
			"componentType":5123,
			"count":42,
			"type":"SCALAR"
		},
		{
			"bufferView":24,
			"componentType":5126,
			"count":48,
			"max":[
				14,
				33.5,
				15.5
			],
			"min":[
				-14,
				19.5,
				-15.5
			],
			"type":"VEC3"
		},
		{
			"bufferView":25,
			"componentType":5126,
			"count":48,
			"type":"VEC3"
		},
		{
			"bufferView":26,
			"componentType":5126,
			"count":48,
			"type":"VEC2"
		},
		{
			"bufferView":27,
			"componentType":5123,
			"count":72,
			"type":"SCALAR"
		},
		{
			"bufferView":28,
			"componentType":5126,
			"count":32,
			"max":[
				13.5,
				32.5,
				7
			],
			"min":[
				-13.5,
				20.5,
				-7
			],
			"type":"VEC3"
		},
		{
			"bufferView":29,
			"componentType":5126,
			"count":32,
			"type":"VEC3"
		},
		{
			"bufferView":30,
			"componentType":5126,
			"count":32,
			"type":"VEC2"
		},
		{
			"bufferView":31,
			"componentType":5123,
			"count":48,
			"type":"SCALAR"
		},
		{
			"bufferView":32,
			"componentType":5126,
			"count":64,
			"max":[
				15.5,
				27,
				6.5
			],
			"min":[
				-15.5,
				26,
				-6.5
			],
			"type":"VEC3"
		},
		{
			"bufferView":33,
			"componentType":5126,
			"count":64,
			"type":"VEC3"
		},
		{
			"bufferView":34,
			"componentType":5126,
			"count":64,
			"type":"VEC2"
		},
		{
			"bufferView":35,
			"componentType":5123,
			"count":96,
			"type":"SCALAR"
		},
		{
			"bufferView":36,
			"componentType":5126,
			"count":136,
			"max":[
				12,
				22.5,
				6.5
			],
			"min":[
				-12,
				20,
				-6.5
			],
			"type":"VEC3"
		},
		{
			"bufferView":37,
			"componentType":5126,
			"count":136,
			"type":"VEC3"
		},
		{
			"bufferView":38,
			"componentType":5126,
			"count":136,
			"type":"VEC2"
		},
		{
			"bufferView":39,
			"componentType":5123,
			"count":264,
			"type":"SCALAR"
		},
		{
			"bufferView":40,
			"componentType":5126,
			"count":16,
			"max":[
				10,
				22.5,
				4
			],
			"min":[
				-10,
				20,
				-4
			],
			"type":"VEC3"
		},
		{
			"bufferView":41,
			"componentType":5126,
			"count":16,
			"type":"VEC3"
		},
		{
			"bufferView":42,
			"componentType":5126,
			"count":16,
			"type":"VEC2"
		},
		{
			"bufferView":43,
			"componentType":5123,
			"count":24,
			"type":"SCALAR"
		},
		{
			"bufferView":44,
			"componentType":5126,
			"count":16,
			"max":[
				7,
				20.5,
				12
			],
			"min":[
				-7,
				18.5,
				-10
			],
			"type":"VEC3"
		},
		{
			"bufferView":45,
			"componentType":5126,
			"count":16,
			"type":"VEC3"
		},
		{
			"bufferView":46,
			"componentType":5126,
			"count":16,
			"type":"VEC2"
		},
		{
			"bufferView":47,
			"componentType":5123,
			"count":24,
			"type":"SCALAR"
		},
		{
			"bufferView":48,
			"componentType":5126,
			"count":128,
			"max":[
				15.5,
				30.5,
				6.5
			],
			"min":[
				-15.5,
				22.5,
				-6.5
			],
			"type":"VEC3"
		},
		{
			"bufferView":49,
			"componentType":5126,
			"count":128,
			"type":"VEC3"
		},
		{
			"bufferView":50,
			"componentType":5126,
			"count":128,
			"type":"VEC2"
		},
		{
			"bufferView":51,
			"componentType":5123,
			"count":192,
			"type":"SCALAR"
		}
	],
	"bufferViews":[
		{
			"buffer":0,
			"byteLength":6336,
			"byteOffset":0,
			"target":34962
		},
		{
			"buffer":0,
			"byteLength":6336,
			"byteOffset":6336,
			"target":34962
		},
		{
			"buffer":0,
			"byteLength":4224,
			"byteOffset":12672,
			"target":34962
		},
		{
			"buffer":0,
			"byteLength":1680,
			"byteOffset":16896,
			"target":34963
		},
		{
			"buffer":0,
			"byteLength":192,
			"byteOffset":18576,
			"target":34962
		},
		{
			"buffer":0,
			"byteLength":192,
			"byteOffset":18768,
			"target":34962
		},
		{
			"buffer":0,
			"byteLength":128,
			"byteOffset":18960,
			"target":34962
		},
		{
			"buffer":0,
			"byteLength":48,
			"byteOffset":19088,
			"target":34963
		},
		{
			"buffer":0,
			"byteLength":96,
			"byteOffset":19136,
			"target":34962
		},
		{
			"buffer":0,
			"byteLength":96,
			"byteOffset":19232,
			"target":34962
		},
		{
			"buffer":0,
			"byteLength":64,
			"byteOffset":19328,
			"target":34962
		},
		{
			"buffer":0,
			"byteLength":24,
			"byteOffset":19392,
			"target":34963
		},
		{
			"buffer":0,
			"byteLength":240,
			"byteOffset":19416,
			"target":34962
		},
		{
			"buffer":0,
			"byteLength":240,
			"byteOffset":19656,
			"target":34962
		},
		{
			"buffer":0,
			"byteLength":160,
			"byteOffset":19896,
			"target":34962
		},
		{
			"buffer":0,
			"byteLength":108,
			"byteOffset":20056,
			"target":34963
		},
		{
			"buffer":0,
			"byteLength":672,
			"byteOffset":20164,
			"target":34962
		},
		{
			"buffer":0,
			"byteLength":672,
			"byteOffset":20836,
			"target":34962
		},
		{
			"buffer":0,
			"byteLength":448,
			"byteOffset":21508,
			"target":34962
		},
		{
			"buffer":0,
			"byteLength":168,
			"byteOffset":21956,
			"target":34963
		},
		{
			"buffer":0,
			"byteLength":240,
			"byteOffset":22124,
			"target":34962
		},
		{
			"buffer":0,
			"byteLength":240,
			"byteOffset":22364,
			"target":34962
		},
		{
			"buffer":0,
			"byteLength":160,
			"byteOffset":22604,
			"target":34962
		},
		{
			"buffer":0,
			"byteLength":84,
			"byteOffset":22764,
			"target":34963
		},
		{
			"buffer":0,
			"byteLength":576,
			"byteOffset":22848,
			"target":34962
		},
		{
			"buffer":0,
			"byteLength":576,
			"byteOffset":23424,
			"target":34962
		},
		{
			"buffer":0,
			"byteLength":384,
			"byteOffset":24000,
			"target":34962
		},
		{
			"buffer":0,
			"byteLength":144,
			"byteOffset":24384,
			"target":34963
		},
		{
			"buffer":0,
			"byteLength":384,
			"byteOffset":24528,
			"target":34962
		},
		{
			"buffer":0,
			"byteLength":384,
			"byteOffset":24912,
			"target":34962
		},
		{
			"buffer":0,
			"byteLength":256,
			"byteOffset":25296,
			"target":34962
		},
		{
			"buffer":0,
			"byteLength":96,
			"byteOffset":25552,
			"target":34963
		},
		{
			"buffer":0,
			"byteLength":768,
			"byteOffset":25648,
			"target":34962
		},
		{
			"buffer":0,
			"byteLength":768,
			"byteOffset":26416,
			"target":34962
		},
		{
			"buffer":0,
			"byteLength":512,
			"byteOffset":27184,
			"target":34962
		},
		{
			"buffer":0,
			"byteLength":192,
			"byteOffset":27696,
			"target":34963
		},
		{
			"buffer":0,
			"byteLength":1632,
			"byteOffset":27888,
			"target":34962
		},
		{
			"buffer":0,
			"byteLength":1632,
			"byteOffset":29520,
			"target":34962
		},
		{
			"buffer":0,
			"byteLength":1088,
			"byteOffset":31152,
			"target":34962
		},
		{
			"buffer":0,
			"byteLength":528,
			"byteOffset":32240,
			"target":34963
		},
		{
			"buffer":0,
			"byteLength":192,
			"byteOffset":32768,
			"target":34962
		},
		{
			"buffer":0,
			"byteLength":192,
			"byteOffset":32960,
			"target":34962
		},
		{
			"buffer":0,
			"byteLength":128,
			"byteOffset":33152,
			"target":34962
		},
		{
			"buffer":0,
			"byteLength":48,
			"byteOffset":33280,
			"target":34963
		},
		{
			"buffer":0,
			"byteLength":192,
			"byteOffset":33328,
			"target":34962
		},
		{
			"buffer":0,
			"byteLength":192,
			"byteOffset":33520,
			"target":34962
		},
		{
			"buffer":0,
			"byteLength":128,
			"byteOffset":33712,
			"target":34962
		},
		{
			"buffer":0,
			"byteLength":48,
			"byteOffset":33840,
			"target":34963
		},
		{
			"buffer":0,
			"byteLength":1536,
			"byteOffset":33888,
			"target":34962
		},
		{
			"buffer":0,
			"byteLength":1536,
			"byteOffset":35424,
			"target":34962
		},
		{
			"buffer":0,
			"byteLength":1024,
			"byteOffset":36960,
			"target":34962
		},
		{
			"buffer":0,
			"byteLength":384,
			"byteOffset":37984,
			"target":34963
		}
	],
	"buffers":[
		{
			"byteLength":38368,
			"uri":"sbrdgo.bin"
		}
	]
}
