{
	"asset":{
		"generator":"Khronos glTF Blender I/O v4.5.48",
		"version":"2.0"
	},
	"scene":0,
	"scenes":[
		{
			"name":"Scene",
			"nodes":[
				0,
				1,
				2
			]
		}
	],
	"nodes":[
		{
			"mesh":0,
			"name":"Object"
		},
		{
			"mesh":1,
			"name":"Object.001"
		},
		{
			"mesh":2,
			"name":"Object.002"
		}
	],
	"materials":[
		{
			"doubleSided":true,
			"name":"SW_IWAL01",
			"pbrMetallicRoughness":{
				"baseColorFactor":[
					0.800000011920929,
					0.800000011920929,
					0.800000011920929,
					1
				],
				"metallicFactor":0,
				"roughnessFactor":0.5
			}
		},
		{
			"doubleSided":true,
			"name":"SW_IWAL04",
			"pbrMetallicRoughness":{
				"baseColorFactor":[
					0.800000011920929,
					0.800000011920929,
					0.800000011920929,
					1
				],
				"metallicFactor":0,
				"roughnessFactor":0.5
			}
		},
		{
			"doubleSided":true,
			"name":"SW_ECAP01C",
			"pbrMetallicRoughness":{
				"baseColorFactor":[
					0.800000011920929,
					0.800000011920929,
					0.800000011920929,
					1
				],
				"metallicFactor":0,
				"roughnessFactor":0.5
			}
		},
		{
			"doubleSided":true,
			"name":"SW_FLOORGRATE",
			"pbrMetallicRoughness":{
				"baseColorFactor":[
					0.800000011920929,
					0.800000011920929,
					0.800000011920929,
					1
				],
				"metallicFactor":0,
				"roughnessFactor":0.5
			}
		},
		{
			"doubleSided":true,
			"name":"SW_IWAL03",
			"pbrMetallicRoughness":{
				"baseColorFactor":[
					0.800000011920929,
					0.800000011920929,
					0.800000011920929,
					1
				],
				"metallicFactor":0,
				"roughnessFactor":0.5
			}
		},
		{
			"doubleSided":true,
			"name":"SW_IWAL04.001",
			"pbrMetallicRoughness":{
				"baseColorFactor":[
					0.800000011920929,
					0.800000011920929,
					0.800000011920929,
					1
				],
				"metallicFactor":0,
				"roughnessFactor":0.5
			}
		},
		{
			"doubleSided":true,
			"name":"SW_ECAP01C.001",
			"pbrMetallicRoughness":{
				"baseColorFactor":[
					0.800000011920929,
					0.800000011920929,
					0.800000011920929,
					1
				],
				"metallicFactor":0,
				"roughnessFactor":0.5
			}
		},
		{
			"doubleSided":true,
			"name":"SW_FLOORGRATE.001",
			"pbrMetallicRoughness":{
				"baseColorFactor":[
					0.800000011920929,
					0.800000011920929,
					0.800000011920929,
					1
				],
				"metallicFactor":0,
				"roughnessFactor":0.5
			}
		},
		{
			"doubleSided":true,
			"name":"SW_IWAL03.001",
			"pbrMetallicRoughness":{
				"baseColorFactor":[
					0.800000011920929,
					0.800000011920929,
					0.800000011920929,
					1
				],
				"metallicFactor":0,
				"roughnessFactor":0.5
			}
		},
		{
			"doubleSided":true,
			"name":"SW_IWAL01.001",
			"pbrMetallicRoughness":{
				"baseColorFactor":[
					0.800000011920929,
					0.800000011920929,
					0.800000011920929,
					1
				],
				"metallicFactor":0,
				"roughnessFactor":0.5
			}
		},
		{
			"doubleSided":true,
			"name":"SW_IWAL04.002",
			"pbrMetallicRoughness":{
				"baseColorFactor":[
					0.800000011920929,
					0.800000011920929,
					0.800000011920929,
					1
				],
				"metallicFactor":0,
				"roughnessFactor":0.5
			}
		},
		{
			"doubleSided":true,
			"name":"SW_ECAP01C.002",
			"pbrMetallicRoughness":{
				"baseColorFactor":[
					0.800000011920929,
					0.800000011920929,
					0.800000011920929,
					1
				],
				"metallicFactor":0,
				"roughnessFactor":0.5
			}
		},
		{
			"doubleSided":true,
			"name":"SW_IWAL01.002",
			"pbrMetallicRoughness":{
				"baseColorFactor":[
					0.800000011920929,
					0.800000011920929,
					0.800000011920929,
					1
				],
				"metallicFactor":0,
				"roughnessFactor":0.5
			}
		}
	],
	"meshes":[
		{
			"name":"Mesh",
			"primitives":[
				{
					"attributes":{
						"POSITION":0,
						"NORMAL":1,
						"TEXCOORD_0":2
					},
					"indices":3,
					"material":0
				},
				{
					"attributes":{
						"POSITION":4,
						"NORMAL":5,
						"TEXCOORD_0":6
					},
					"indices":7,
					"material":1
				},
				{
					"attributes":{
						"POSITION":8,
						"NORMAL":9,
						"TEXCOORD_0":10
					},
					"indices":11,
					"material":2
				},
				{
					"attributes":{
						"POSITION":12,
						"NORMAL":13,
						"TEXCOORD_0":14
					},
					"indices":15,
					"material":3
				},
				{
					"attributes":{
						"POSITION":16,
						"NORMAL":17,
						"TEXCOORD_0":18
					},
					"indices":19,
					"material":4
				}
			]
		},
		{
			"name":"Mesh.001",
			"primitives":[
				{
					"attributes":{
						"POSITION":20,
						"NORMAL":21,
						"TEXCOORD_0":22
					},
					"indices":23,
					"material":5
				},
				{
					"attributes":{
						"POSITION":24,
						"NORMAL":25,
						"TEXCOORD_0":26
					},
					"indices":27,
					"material":6
				},
				{
					"attributes":{
						"POSITION":28,
						"NORMAL":29,
						"TEXCOORD_0":30
					},
					"indices":15,
					"material":7
				},
				{
					"attributes":{
						"POSITION":31,
						"NORMAL":32,
						"TEXCOORD_0":33
					},
					"indices":34,
					"material":8
				},
				{
					"attributes":{
						"POSITION":35,
						"NORMAL":36,
						"TEXCOORD_0":37
					},
					"indices":38,
					"material":9
				}
			]
		},
		{
			"name":"Mesh.002",
			"primitives":[
				{
					"attributes":{
						"POSITION":39,
						"NORMAL":40,
						"TEXCOORD_0":41
					},
					"indices":23,
					"material":10
				},
				{
					"attributes":{
						"POSITION":42,
						"NORMAL":43,
						"TEXCOORD_0":44
					},
					"indices":45,
					"material":11
				},
				{
					"attributes":{
						"POSITION":46,
						"NORMAL":47,
						"TEXCOORD_0":48
					},
					"indices":49,
					"material":12
				}
			]
		}
	],
	"accessors":[
		{
			"bufferView":0,
			"componentType":5126,
			"count":80,
			"max":[
				3.75,
				0.96875,
				4.25
			],
			"min":[
				-3.75,
				0.5,
				-4.25
			],
			"type":"VEC3"
		},
		{
			"bufferView":1,
			"componentType":5126,
			"count":80,
			"type":"VEC3"
		},
		{
			"bufferView":2,
			"componentType":5126,
			"count":80,
			"type":"VEC2"
		},
		{
			"bufferView":3,
			"componentType":5123,
			"count":120,
			"type":"SCALAR"
		},
		{
			"bufferView":4,
			"componentType":5126,
			"count":30,
			"max":[
				4,
				0.5,
				4.5
			],
			"min":[
				-4,
				0.03125,
				-4.5
			],
			"type":"VEC3"
		},
		{
			"bufferView":5,
			"componentType":5126,
			"count":30,
			"type":"VEC3"
		},
		{
			"bufferView":6,
			"componentType":5126,
			"count":30,
			"type":"VEC2"
		},
		{
			"bufferView":7,
			"componentType":5123,
			"count":72,
			"type":"SCALAR"
		},
		{
			"bufferView":8,
			"componentType":5126,
			"count":48,
			"max":[
				4,
				1.59375,
				4.5
			],
			"min":[
				-4,
				0.03125,
				-4.5
			],
			"type":"VEC3"
		},
		{
			"bufferView":9,
			"componentType":5126,
			"count":48,
			"type":"VEC3"
		},
		{
			"bufferView":10,
			"componentType":5126,
			"count":48,
			"type":"VEC2"
		},
		{
			"bufferView":11,
			"componentType":5123,
			"count":96,
			"type":"SCALAR"
		},
		{
			"bufferView":12,
			"componentType":5126,
			"count":4,
			"max":[
				1.75,
				1.59375,
				2.25
			],
			"min":[
				-1.75,
				1.59375,
				-2.25
			],
			"type":"VEC3"
		},
		{
			"bufferView":13,
			"componentType":5126,
			"count":4,
			"type":"VEC3"
		},
		{
			"bufferView":14,
			"componentType":5126,
			"count":4,
			"type":"VEC2"
		},
		{
			"bufferView":15,
			"componentType":5123,
			"count":6,
			"type":"SCALAR"
		},
		{
			"bufferView":16,
			"componentType":5126,
			"count":96,
			"max":[
				2.25,
				1.46875,
				2.75
			],
			"min":[
				-2.25,
				0.5,
				-2.75
			],
			"type":"VEC3"
		},
		{
			"bufferView":17,
			"componentType":5126,
			"count":96,
			"type":"VEC3"
		},
		{
			"bufferView":18,
			"componentType":5126,
			"count":96,
			"type":"VEC2"
		},
		{
			"bufferView":19,
			"componentType":5123,
			"count":222,
			"type":"SCALAR"
		},
		{
			"bufferView":20,
			"componentType":5126,
			"count":4,
			"max":[
				4,
				0.03125,
				4.5
			],
			"min":[
				-4,
				0.03125,
				-4.5
			],
			"type":"VEC3"
		},
		{
			"bufferView":21,
			"componentType":5126,
			"count":4,
			"type":"VEC3"
		},
		{
			"bufferView":22,
			"componentType":5126,
			"count":4,
			"type":"VEC2"
		},
		{
			"bufferView":23,
			"componentType":5123,
			"count":6,
			"type":"SCALAR"
		},
		{
			"bufferView":24,
			"componentType":5126,
			"count":40,
			"max":[
				4,
				1.59375,
				4.5
			],
			"min":[
				-4,
				0.03125,
				-4.5
			],
			"type":"VEC3"
		},
		{
			"bufferView":25,
			"componentType":5126,
			"count":40,
			"type":"VEC3"
		},
		{
			"bufferView":26,
			"componentType":5126,
			"count":40,
			"type":"VEC2"
		},
		{
			"bufferView":27,
			"componentType":5123,
			"count":72,
			"type":"SCALAR"
		},
		{
			"bufferView":28,
			"componentType":5126,
			"count":4,
			"max":[
				1.75,
				1.59375,
				2.25
			],
			"min":[
				-1.75,
				1.59375,
				-2.25
			],
			"type":"VEC3"
		},
		{
			"bufferView":29,
			"componentType":5126,
			"count":4,
			"type":"VEC3"
		},
		{
			"bufferView":30,
			"componentType":5126,
			"count":4,
			"type":"VEC2"
		},
		{
			"bufferView":31,
			"componentType":5126,
			"count":96,
			"max":[
				2.25,
				1.46875,
				2.75
			],
			"min":[
				-2.25,
				0.96875,
				-2.75
			],
			"type":"VEC3"
		},
		{
			"bufferView":32,
			"componentType":5126,
			"count":96,
			"type":"VEC3"
		},
		{
			"bufferView":33,
			"componentType":5126,
			"count":96,
			"type":"VEC2"
		},
		{
			"bufferView":34,
			"componentType":5123,
			"count":222,
			"type":"SCALAR"
		},
		{
			"bufferView":35,
			"componentType":5126,
			"count":48,
			"max":[
				3.75,
				0.96875,
				4.25
			],
			"min":[
				-3.75,
				0.5,
				-4.25
			],
			"type":"VEC3"
		},
		{
			"bufferView":36,
			"componentType":5126,
			"count":48,
			"type":"VEC3"
		},
		{
			"bufferView":37,
			"componentType":5126,
			"count":48,
			"type":"VEC2"
		},
		{
			"bufferView":38,
			"componentType":5123,
			"count":126,
			"type":"SCALAR"
		},
		{
			"bufferView":39,
			"componentType":5126,
			"count":4,
			"max":[
				4,
				0.03125,
				4.5
			],
			"min":[
				-4,
				0.03125,
				-4.5
			],
			"type":"VEC3"
		},
		{
			"bufferView":40,
			"componentType":5126,
			"count":4,
			"type":"VEC3"
		},
		{
			"bufferView":41,
			"componentType":5126,
			"count":4,
			"type":"VEC2"
		},
		{
			"bufferView":42,
			"componentType":5126,
			"count":16,
			"max":[
				4,
				0.5,
				4.5
			],
			"min":[
				-4,
				0.03125,
				-4.5
			],
			"type":"VEC3"
		},
		{
			"bufferView":43,
			"componentType":5126,
			"count":16,
			"type":"VEC3"
		},
		{
			"bufferView":44,
			"componentType":5126,
			"count":16,
			"type":"VEC2"
		},
		{
			"bufferView":45,
			"componentType":5123,
			"count":24,
			"type":"SCALAR"
		},
		{
			"bufferView":46,
			"componentType":5126,
			"count":20,
			"max":[
				3.75,
				0.96875,
				4.25
			],
			"min":[
				-3.75,
				0.5,
				-4.25
			],
			"type":"VEC3"
		},
		{
			"bufferView":47,
			"componentType":5126,
			"count":20,
			"type":"VEC3"
		},
		{
			"bufferView":48,
			"componentType":5126,
			"count":20,
			"type":"VEC2"
		},
		{
			"bufferView":49,
			"componentType":5123,
			"count":30,
			"type":"SCALAR"
		}
	],
	"bufferViews":[
		{
			"buffer":0,
			"byteLength":960,
			"byteOffset":0,
			"target":34962
		},
		{
			"buffer":0,
			"byteLength":960,
			"byteOffset":960,
			"target":34962
		},
		{
			"buffer":0,
			"byteLength":640,
			"byteOffset":1920,
			"target":34962
		},
		{
			"buffer":0,
			"byteLength":240,
			"byteOffset":2560,
			"target":34963
		},
		{
			"buffer":0,
			"byteLength":360,
			"byteOffset":2800,
			"target":34962
		},
		{
			"buffer":0,
			"byteLength":360,
			"byteOffset":3160,
			"target":34962
		},
		{
			"buffer":0,
			"byteLength":240,
			"byteOffset":3520,
			"target":34962
		},
		{
			"buffer":0,
			"byteLength":144,
			"byteOffset":3760,
			"target":34963
		},
		{
			"buffer":0,
			"byteLength":576,
			"byteOffset":3904,
			"target":34962
		},
		{
			"buffer":0,
			"byteLength":576,
			"byteOffset":4480,
			"target":34962
		},
		{
			"buffer":0,
			"byteLength":384,
			"byteOffset":5056,
			"target":34962
		},
		{
			"buffer":0,
			"byteLength":192,
			"byteOffset":5440,
			"target":34963
		},
		{
			"buffer":0,
			"byteLength":48,
			"byteOffset":5632,
			"target":34962
		},
		{
			"buffer":0,
			"byteLength":48,
			"byteOffset":5680,
			"target":34962
		},
		{
			"buffer":0,
			"byteLength":32,
			"byteOffset":5728,
			"target":34962
		},
		{
			"buffer":0,
			"byteLength":12,
			"byteOffset":5760,
			"target":34963
		},
		{
			"buffer":0,
			"byteLength":1152,
			"byteOffset":5772,
			"target":34962
		},
		{
			"buffer":0,
			"byteLength":1152,
			"byteOffset":6924,
			"target":34962
		},
		{
			"buffer":0,
			"byteLength":768,
			"byteOffset":8076,
			"target":34962
		},
		{
			"buffer":0,
			"byteLength":444,
			"byteOffset":8844,
			"target":34963
		},
		{
			"buffer":0,
			"byteLength":48,
			"byteOffset":9288,
			"target":34962
		},
		{
			"buffer":0,
			"byteLength":48,
			"byteOffset":9336,
			"target":34962
		},
		{
			"buffer":0,
			"byteLength":32,
			"byteOffset":9384,
			"target":34962
		},
		{
			"buffer":0,
			"byteLength":12,
			"byteOffset":9416,
			"target":34963
		},
		{
			"buffer":0,
			"byteLength":480,
			"byteOffset":9428,
			"target":34962
		},
		{
			"buffer":0,
			"byteLength":480,
			"byteOffset":9908,
			"target":34962
		},
		{
			"buffer":0,
			"byteLength":320,
			"byteOffset":10388,
			"target":34962
		},
		{
			"buffer":0,
			"byteLength":144,
			"byteOffset":10708,
			"target":34963
		},
		{
			"buffer":0,
			"byteLength":48,
			"byteOffset":10852,
			"target":34962
		},
		{
			"buffer":0,
			"byteLength":48,
			"byteOffset":10900,
			"target":34962
		},
		{
			"buffer":0,
			"byteLength":32,
			"byteOffset":10948,
			"target":34962
		},
		{
			"buffer":0,
			"byteLength":1152,
			"byteOffset":10980,
			"target":34962
		},
		{
			"buffer":0,
			"byteLength":1152,
			"byteOffset":12132,
			"target":34962
		},
		{
			"buffer":0,
			"byteLength":768,
			"byteOffset":13284,
			"target":34962
		},
		{
			"buffer":0,
			"byteLength":444,
			"byteOffset":14052,
			"target":34963
		},
		{
			"buffer":0,
			"byteLength":576,
			"byteOffset":14496,
			"target":34962
		},
		{
			"buffer":0,
			"byteLength":576,
			"byteOffset":15072,
			"target":34962
		},
		{
			"buffer":0,
			"byteLength":384,
			"byteOffset":15648,
			"target":34962
		},
		{
			"buffer":0,
			"byteLength":252,
			"byteOffset":16032,
			"target":34963
		},
		{
			"buffer":0,
			"byteLength":48,
			"byteOffset":16284,
			"target":34962
		},
		{
			"buffer":0,
			"byteLength":48,
			"byteOffset":16332,
			"target":34962
		},
		{
			"buffer":0,
			"byteLength":32,
			"byteOffset":16380,
			"target":34962
		},
		{
			"buffer":0,
			"byteLength":192,
			"byteOffset":16412,
			"target":34962
		},
		{
			"buffer":0,
			"byteLength":192,
			"byteOffset":16604,
			"target":34962
		},
		{
			"buffer":0,
			"byteLength":128,
			"byteOffset":16796,
			"target":34962
		},
		{
			"buffer":0,
			"byteLength":48,
			"byteOffset":16924,
			"target":34963
		},
		{
			"buffer":0,
			"byteLength":240,
			"byteOffset":16972,
			"target":34962
		},
		{
			"buffer":0,
			"byteLength":240,
			"byteOffset":17212,
			"target":34962
		},
		{
			"buffer":0,
			"byteLength":160,
			"byteOffset":17452,
			"target":34962
		},
		{
			"buffer":0,
			"byteLength":60,
			"byteOffset":17612,
			"target":34963
		}
	],
	"buffers":[
		{
			"byteLength":17672,
			"uri":"smisc3.bin"
		}
	]
}
