{
	"asset":{
		"generator":"Khronos glTF Blender I/O v4.5.48",
		"version":"2.0"
	},
	"scene":0,
	"scenes":[
		{
			"name":"Scene",
			"nodes":[
				0,
				1,
				2
			]
		}
	],
	"nodes":[
		{
			"mesh":0,
			"name":"Object"
		},
		{
			"mesh":1,
			"name":"Object.001"
		},
		{
			"mesh":2,
			"name":"Object.002"
		}
	],
	"materials":[
		{
			"doubleSided":true,
			"name":"xsnowrock3",
			"pbrMetallicRoughness":{
				"baseColorFactor":[
					0.800000011920929,
					0.800000011920929,
					0.800000011920929,
					1
				],
				"metallicFactor":0,
				"roughnessFactor":0.5
			}
		},
		{
			"doubleSided":true,
			"name":"snowrock",
			"pbrMetallicRoughness":{
				"baseColorFactor":[
					0.800000011920929,
					0.800000011920929,
					0.800000011920929,
					1
				],
				"metallicFactor":0,
				"roughnessFactor":0.5
			}
		},
		{
			"doubleSided":true,
			"name":"xsnowrock3.001",
			"pbrMetallicRoughness":{
				"baseColorFactor":[
					0.800000011920929,
					0.800000011920929,
					0.800000011920929,
					1
				],
				"metallicFactor":0,
				"roughnessFactor":0.5
			}
		},
		{
			"doubleSided":true,
			"name":"snowrock.001",
			"pbrMetallicRoughness":{
				"baseColorFactor":[
					0.800000011920929,
					0.800000011920929,
					0.800000011920929,
					1
				],
				"metallicFactor":0,
				"roughnessFactor":0.5
			}
		},
		{
			"doubleSided":true,
			"name":"xsnowrock3.002",
			"pbrMetallicRoughness":{
				"baseColorFactor":[
					0.800000011920929,
					0.800000011920929,
					0.800000011920929,
					1
				],
				"metallicFactor":0,
				"roughnessFactor":0.5
			}
		}
	],
	"meshes":[
		{
			"name":"Mesh",
			"primitives":[
				{
					"attributes":{
						"POSITION":0,
						"NORMAL":1,
						"TEXCOORD_0":2
					},
					"indices":3,
					"material":0
				},
				{
					"attributes":{
						"POSITION":4,
						"NORMAL":5,
						"TEXCOORD_0":6
					},
					"indices":7,
					"material":1
				}
			]
		},
		{
			"name":"Mesh.001",
			"primitives":[
				{
					"attributes":{
						"POSITION":8,
						"NORMAL":9,
						"TEXCOORD_0":10
					},
					"indices":11,
					"material":2
				},
				{
					"attributes":{
						"POSITION":12,
						"NORMAL":13,
						"TEXCOORD_0":14
					},
					"indices":15,
					"material":3
				}
			]
		},
		{
			"name":"Mesh.002",
			"primitives":[
				{
					"attributes":{
						"POSITION":16,
						"NORMAL":17,
						"TEXCOORD_0":18
					},
					"indices":19,
					"material":4
				}
			]
		}
	],
	"accessors":[
		{
			"bufferView":0,
			"componentType":5126,
			"count":402,
			"max":[
				34.09375,
				28.484375,
				9.578125
			],
			"min":[
				-27.625,
				11.875,
				-6.765625
			],
			"type":"VEC3"
		},
		{
			"bufferView":1,
			"componentType":5126,
			"count":402,
			"type":"VEC3"
		},
		{
			"bufferView":2,
			"componentType":5126,
			"count":402,
			"type":"VEC2"
		},
		{
			"bufferView":3,
			"componentType":5123,
			"count":402,
			"type":"SCALAR"
		},
		{
			"bufferView":4,
			"componentType":5126,
			"count":129,
			"max":[
				39.234375,
				23.0625,
				12.578125
			],
			"min":[
				-41.8125,
				-0.234375,
				-9.515625
			],
			"type":"VEC3"
		},
		{
			"bufferView":5,
			"componentType":5126,
			"count":129,
			"type":"VEC3"
		},
		{
			"bufferView":6,
			"componentType":5126,
			"count":129,
			"type":"VEC2"
		},
		{
			"bufferView":7,
			"componentType":5123,
			"count":129,
			"type":"SCALAR"
		},
		{
			"bufferView":8,
			"componentType":5126,
			"count":279,
			"max":[
				25.03125,
				28.40625,
				7.5625
			],
			"min":[
				-25.5625,
				16.953125,
				-5.5
			],
			"type":"VEC3"
		},
		{
			"bufferView":9,
			"componentType":5126,
			"count":279,
			"type":"VEC3"
		},
		{
			"bufferView":10,
			"componentType":5126,
			"count":279,
			"type":"VEC2"
		},
		{
			"bufferView":11,
			"componentType":5123,
			"count":279,
			"type":"SCALAR"
		},
		{
			"bufferView":12,
			"componentType":5126,
			"count":156,
			"max":[
				39.234375,
				23.78125,
				12.578125
			],
			"min":[
				-41.8125,
				-0.21875,
				-9.515625
			],
			"type":"VEC3"
		},
		{
			"bufferView":13,
			"componentType":5126,
			"count":156,
			"type":"VEC3"
		},
		{
			"bufferView":14,
			"componentType":5126,
			"count":156,
			"type":"VEC2"
		},
		{
			"bufferView":15,
			"componentType":5123,
			"count":156,
			"type":"SCALAR"
		},
		{
			"bufferView":16,
			"componentType":5126,
			"count":36,
			"max":[
				39.1875,
				28.328125,
				9.984375
			],
			"min":[
				-41.734375,
				0.03125,
				-9.203125
			],
			"type":"VEC3"
		},
		{
			"bufferView":17,
			"componentType":5126,
			"count":36,
			"type":"VEC3"
		},
		{
			"bufferView":18,
			"componentType":5126,
			"count":36,
			"type":"VEC2"
		},
		{
			"bufferView":19,
			"componentType":5123,
			"count":36,
			"type":"SCALAR"
		}
	],
	"bufferViews":[
		{
			"buffer":0,
			"byteLength":4824,
			"byteOffset":0,
			"target":34962
		},
		{
			"buffer":0,
			"byteLength":4824,
			"byteOffset":4824,
			"target":34962
		},
		{
			"buffer":0,
			"byteLength":3216,
			"byteOffset":9648,
			"target":34962
		},
		{
			"buffer":0,
			"byteLength":804,
			"byteOffset":12864,
			"target":34963
		},
		{
			"buffer":0,
			"byteLength":1548,
			"byteOffset":13668,
			"target":34962
		},
		{
			"buffer":0,
			"byteLength":1548,
			"byteOffset":15216,
			"target":34962
		},
		{
			"buffer":0,
			"byteLength":1032,
			"byteOffset":16764,
			"target":34962
		},
		{
			"buffer":0,
			"byteLength":258,
			"byteOffset":17796,
			"target":34963
		},
		{
			"buffer":0,
			"byteLength":3348,
			"byteOffset":18056,
			"target":34962
		},
		{
			"buffer":0,
			"byteLength":3348,
			"byteOffset":21404,
			"target":34962
		},
		{
			"buffer":0,
			"byteLength":2232,
			"byteOffset":24752,
			"target":34962
		},
		{
			"buffer":0,
			"byteLength":558,
			"byteOffset":26984,
			"target":34963
		},
		{
			"buffer":0,
			"byteLength":1872,
			"byteOffset":27544,
			"target":34962
		},
		{
			"buffer":0,
			"byteLength":1872,
			"byteOffset":29416,
			"target":34962
		},
		{
			"buffer":0,
			"byteLength":1248,
			"byteOffset":31288,
			"target":34962
		},
		{
			"buffer":0,
			"byteLength":312,
			"byteOffset":32536,
			"target":34963
		},
		{
			"buffer":0,
			"byteLength":432,
			"byteOffset":32848,
			"target":34962
		},
		{
			"buffer":0,
			"byteLength":432,
			"byteOffset":33280,
			"target":34962
		},
		{
			"buffer":0,
			"byteLength":288,
			"byteOffset":33712,
			"target":34962
		},
		{
			"buffer":0,
			"byteLength":72,
			"byteOffset":34000,
			"target":34963
		}
	],
	"buffers":[
		{
			"byteLength":34072,
			"uri":"srockb.bin"
		}
	]
}
