{
	"asset":{
		"generator":"Khronos glTF Blender I/O v4.5.48",
		"version":"2.0"
	},
	"scene":0,
	"scenes":[
		{
			"name":"Scene",
			"nodes":[
				0,
				1,
				2,
				3,
				4,
				5
			]
		}
	],
	"nodes":[
		{
			"mesh":0,
			"name":"Object"
		},
		{
			"mesh":1,
			"name":"Object.001"
		},
		{
			"mesh":2,
			"name":"Object.002"
		},
		{
			"mesh":3,
			"name":"Object.003"
		},
		{
			"mesh":4,
			"name":"Object.004"
		},
		{
			"mesh":5,
			"name":"Object.005"
		}
	],
	"materials":[
		{
			"doubleSided":true,
			"name":"snowrock",
			"pbrMetallicRoughness":{
				"baseColorFactor":[
					0.800000011920929,
					0.800000011920929,
					0.800000011920929,
					1
				],
				"metallicFactor":0,
				"roughnessFactor":0.5
			}
		},
		{
			"doubleSided":true,
			"name":"xsnowrock4",
			"pbrMetallicRoughness":{
				"baseColorFactor":[
					0.800000011920929,
					0.800000011920929,
					0.800000011920929,
					1
				],
				"metallicFactor":0,
				"roughnessFactor":0.5
			}
		},
		{
			"doubleSided":true,
			"name":"snowrock.001",
			"pbrMetallicRoughness":{
				"baseColorFactor":[
					0.800000011920929,
					0.800000011920929,
					0.800000011920929,
					1
				],
				"metallicFactor":0,
				"roughnessFactor":0.5
			}
		},
		{
			"doubleSided":true,
			"name":"xsnowrock4.001",
			"pbrMetallicRoughness":{
				"baseColorFactor":[
					0.800000011920929,
					0.800000011920929,
					0.800000011920929,
					1
				],
				"metallicFactor":0,
				"roughnessFactor":0.5
			}
		},
		{
			"doubleSided":true,
			"name":"xsnowrock4.002",
			"pbrMetallicRoughness":{
				"baseColorFactor":[
					0.800000011920929,
					0.800000011920929,
					0.800000011920929,
					1
				],
				"metallicFactor":0,
				"roughnessFactor":0.5
			}
		},
		{
			"doubleSided":true,
			"name":"xsnowrock4.003",
			"pbrMetallicRoughness":{
				"baseColorFactor":[
					0.800000011920929,
					0.800000011920929,
					0.800000011920929,
					1
				],
				"metallicFactor":0,
				"roughnessFactor":0.5
			}
		},
		{
			"doubleSided":true,
			"name":"xsnowrock4.004",
			"pbrMetallicRoughness":{
				"baseColorFactor":[
					0.800000011920929,
					0.800000011920929,
					0.800000011920929,
					1
				],
				"metallicFactor":0,
				"roughnessFactor":0.5
			}
		},
		{
			"doubleSided":true,
			"name":"xsnowrock4.005",
			"pbrMetallicRoughness":{
				"baseColorFactor":[
					0.800000011920929,
					0.800000011920929,
					0.800000011920929,
					1
				],
				"metallicFactor":0,
				"roughnessFactor":0.5
			}
		}
	],
	"meshes":[
		{
			"name":"Mesh",
			"primitives":[
				{
					"attributes":{
						"POSITION":0,
						"NORMAL":1,
						"TEXCOORD_0":2
					},
					"indices":3,
					"material":0
				},
				{
					"attributes":{
						"POSITION":4,
						"NORMAL":5,
						"TEXCOORD_0":6
					},
					"indices":7,
					"material":1
				}
			]
		},
		{
			"name":"Mesh.001",
			"primitives":[
				{
					"attributes":{
						"POSITION":8,
						"NORMAL":9,
						"TEXCOORD_0":10
					},
					"indices":11,
					"material":2
				},
				{
					"attributes":{
						"POSITION":12,
						"NORMAL":13,
						"TEXCOORD_0":14
					},
					"indices":15,
					"material":3
				}
			]
		},
		{
			"name":"Mesh.002",
			"primitives":[
				{
					"attributes":{
						"POSITION":16,
						"NORMAL":17,
						"TEXCOORD_0":18
					},
					"indices":19,
					"material":4
				}
			]
		},
		{
			"name":"Mesh.003",
			"primitives":[
				{
					"attributes":{
						"POSITION":20,
						"NORMAL":21,
						"TEXCOORD_0":22
					},
					"indices":23,
					"material":5
				}
			]
		},
		{
			"name":"Mesh.004",
			"primitives":[
				{
					"attributes":{
						"POSITION":24,
						"NORMAL":25,
						"TEXCOORD_0":26
					},
					"indices":27,
					"material":6
				}
			]
		},
		{
			"name":"Mesh.005",
			"primitives":[
				{
					"attributes":{
						"POSITION":28,
						"NORMAL":29,
						"TEXCOORD_0":30
					},
					"indices":31,
					"material":7
				}
			]
		}
	],
	"accessors":[
		{
			"bufferView":0,
			"componentType":5126,
			"count":111,
			"max":[
				43.421875,
				9.75,
				11.0625
			],
			"min":[
				-46.0625,
				-1.953125,
				-16.15625
			],
			"type":"VEC3"
		},
		{
			"bufferView":1,
			"componentType":5126,
			"count":111,
			"type":"VEC3"
		},
		{
			"bufferView":2,
			"componentType":5126,
			"count":111,
			"type":"VEC2"
		},
		{
			"bufferView":3,
			"componentType":5123,
			"count":111,
			"type":"SCALAR"
		},
		{
			"bufferView":4,
			"componentType":5126,
			"count":399,
			"max":[
				36.1875,
				35.484375,
				7.140625
			],
			"min":[
				-39.0625,
				1.15625,
				-13.28125
			],
			"type":"VEC3"
		},
		{
			"bufferView":5,
			"componentType":5126,
			"count":399,
			"type":"VEC3"
		},
		{
			"bufferView":6,
			"componentType":5126,
			"count":399,
			"type":"VEC2"
		},
		{
			"bufferView":7,
			"componentType":5123,
			"count":399,
			"type":"SCALAR"
		},
		{
			"bufferView":8,
			"componentType":5126,
			"count":87,
			"max":[
				43.421875,
				9.75,
				11.0625
			],
			"min":[
				-46.0625,
				-1.953125,
				-16.15625
			],
			"type":"VEC3"
		},
		{
			"bufferView":9,
			"componentType":5126,
			"count":87,
			"type":"VEC3"
		},
		{
			"bufferView":10,
			"componentType":5126,
			"count":87,
			"type":"VEC2"
		},
		{
			"bufferView":11,
			"componentType":5123,
			"count":87,
			"type":"SCALAR"
		},
		{
			"bufferView":12,
			"componentType":5126,
			"count":273,
			"max":[
				36.1875,
				35.484375,
				7.140625
			],
			"min":[
				-39.0625,
				-1.21875,
				-13.28125
			],
			"type":"VEC3"
		},
		{
			"bufferView":13,
			"componentType":5126,
			"count":273,
			"type":"VEC3"
		},
		{
			"bufferView":14,
			"componentType":5126,
			"count":273,
			"type":"VEC2"
		},
		{
			"bufferView":15,
			"componentType":5123,
			"count":273,
			"type":"SCALAR"
		},
		{
			"bufferView":16,
			"componentType":5126,
			"count":189,
			"max":[
				43.421875,
				35.1875,
				8.71875
			],
			"min":[
				-44.890625,
				-1.625,
				-13.703125
			],
			"type":"VEC3"
		},
		{
			"bufferView":17,
			"componentType":5126,
			"count":189,
			"type":"VEC3"
		},
		{
			"bufferView":18,
			"componentType":5126,
			"count":189,
			"type":"VEC2"
		},
		{
			"bufferView":19,
			"componentType":5123,
			"count":189,
			"type":"SCALAR"
		},
		{
			"bufferView":20,
			"componentType":5126,
			"count":126,
			"max":[
				43.4375,
				35.265625,
				8.609375
			],
			"min":[
				-45.109375,
				-1.234375,
				-13.765625
			],
			"type":"VEC3"
		},
		{
			"bufferView":21,
			"componentType":5126,
			"count":126,
			"type":"VEC3"
		},
		{
			"bufferView":22,
			"componentType":5126,
			"count":126,
			"type":"VEC2"
		},
		{
			"bufferView":23,
			"componentType":5123,
			"count":126,
			"type":"SCALAR"
		},
		{
			"bufferView":24,
			"componentType":5126,
			"count":102,
			"max":[
				43.53125,
				35.34375,
				8.609375
			],
			"min":[
				-45.109375,
				-1.15625,
				-13.765625
			],
			"type":"VEC3"
		},
		{
			"bufferView":25,
			"componentType":5126,
			"count":102,
			"type":"VEC3"
		},
		{
			"bufferView":26,
			"componentType":5126,
			"count":102,
			"type":"VEC2"
		},
		{
			"bufferView":27,
			"componentType":5123,
			"count":102,
			"type":"SCALAR"
		},
		{
			"bufferView":28,
			"componentType":5126,
			"count":87,
			"max":[
				41.875,
				35.84375,
				9.890625
			],
			"min":[
				-46.0625,
				-1.75,
				-13.65625
			],
			"type":"VEC3"
		},
		{
			"bufferView":29,
			"componentType":5126,
			"count":87,
			"type":"VEC3"
		},
		{
			"bufferView":30,
			"componentType":5126,
			"count":87,
			"type":"VEC2"
		},
		{
			"bufferView":31,
			"componentType":5123,
			"count":87,
			"type":"SCALAR"
		}
	],
	"bufferViews":[
		{
			"buffer":0,
			"byteLength":1332,
			"byteOffset":0,
			"target":34962
		},
		{
			"buffer":0,
			"byteLength":1332,
			"byteOffset":1332,
			"target":34962
		},
		{
			"buffer":0,
			"byteLength":888,
			"byteOffset":2664,
			"target":34962
		},
		{
			"buffer":0,
			"byteLength":222,
			"byteOffset":3552,
			"target":34963
		},
		{
			"buffer":0,
			"byteLength":4788,
			"byteOffset":3776,
			"target":34962
		},
		{
			"buffer":0,
			"byteLength":4788,
			"byteOffset":8564,
			"target":34962
		},
		{
			"buffer":0,
			"byteLength":3192,
			"byteOffset":13352,
			"target":34962
		},
		{
			"buffer":0,
			"byteLength":798,
			"byteOffset":16544,
			"target":34963
		},
		{
			"buffer":0,
			"byteLength":1044,
			"byteOffset":17344,
			"target":34962
		},
		{
			"buffer":0,
			"byteLength":1044,
			"byteOffset":18388,
			"target":34962
		},
		{
			"buffer":0,
			"byteLength":696,
			"byteOffset":19432,
			"target":34962
		},
		{
			"buffer":0,
			"byteLength":174,
			"byteOffset":20128,
			"target":34963
		},
		{
			"buffer":0,
			"byteLength":3276,
			"byteOffset":20304,
			"target":34962
		},
		{
			"buffer":0,
			"byteLength":3276,
			"byteOffset":23580,
			"target":34962
		},
		{
			"buffer":0,
			"byteLength":2184,
			"byteOffset":26856,
			"target":34962
		},
		{
			"buffer":0,
			"byteLength":546,
			"byteOffset":29040,
			"target":34963
		},
		{
			"buffer":0,
			"byteLength":2268,
			"byteOffset":29588,
			"target":34962
		},
		{
			"buffer":0,
			"byteLength":2268,
			"byteOffset":31856,
			"target":34962
		},
		{
			"buffer":0,
			"byteLength":1512,
			"byteOffset":34124,
			"target":34962
		},
		{
			"buffer":0,
			"byteLength":378,
			"byteOffset":35636,
			"target":34963
		},
		{
			"buffer":0,
			"byteLength":1512,
			"byteOffset":36016,
			"target":34962
		},
		{
			"buffer":0,
			"byteLength":1512,
			"byteOffset":37528,
			"target":34962
		},
		{
			"buffer":0,
			"byteLength":1008,
			"byteOffset":39040,
			"target":34962
		},
		{
			"buffer":0,
			"byteLength":252,
			"byteOffset":40048,
			"target":34963
		},
		{
			"buffer":0,
			"byteLength":1224,
			"byteOffset":40300,
			"target":34962
		},
		{
			"buffer":0,
			"byteLength":1224,
			"byteOffset":41524,
			"target":34962
		},
		{
			"buffer":0,
			"byteLength":816,
			"byteOffset":42748,
			"target":34962
		},
		{
			"buffer":0,
			"byteLength":204,
			"byteOffset":43564,
			"target":34963
		},
		{
			"buffer":0,
			"byteLength":1044,
			"byteOffset":43768,
			"target":34962
		},
		{
			"buffer":0,
			"byteLength":1044,
			"byteOffset":44812,
			"target":34962
		},
		{
			"buffer":0,
			"byteLength":696,
			"byteOffset":45856,
			"target":34962
		},
		{
			"buffer":0,
			"byteLength":174,
			"byteOffset":46552,
			"target":34963
		}
	],
	"buffers":[
		{
			"byteLength":46728,
			"uri":"srocka.bin"
		}
	]
}
