{
	"asset":{
		"generator":"Khronos glTF Blender I/O v4.5.48",
		"version":"2.0"
	},
	"scene":0,
	"scenes":[
		{
			"name":"Scene",
			"nodes":[
				0,
				1,
				2,
				3,
				4
			]
		}
	],
	"nodes":[
		{
			"mesh":0,
			"name":"Object"
		},
		{
			"mesh":1,
			"name":"Object.001"
		},
		{
			"mesh":2,
			"name":"Object.002"
		},
		{
			"mesh":3,
			"name":"Object.003"
		},
		{
			"mesh":4,
			"name":"Object.004"
		}
	],
	"materials":[
		{
			"doubleSided":true,
			"name":"xsnowrock3",
			"pbrMetallicRoughness":{
				"baseColorFactor":[
					0.800000011920929,
					0.800000011920929,
					0.800000011920929,
					1
				],
				"metallicFactor":0,
				"roughnessFactor":0.5
			}
		},
		{
			"doubleSided":true,
			"name":"xsnowrock3.001",
			"pbrMetallicRoughness":{
				"baseColorFactor":[
					0.800000011920929,
					0.800000011920929,
					0.800000011920929,
					1
				],
				"metallicFactor":0,
				"roughnessFactor":0.5
			}
		},
		{
			"doubleSided":true,
			"name":"xsnowrock3.002",
			"pbrMetallicRoughness":{
				"baseColorFactor":[
					0.800000011920929,
					0.800000011920929,
					0.800000011920929,
					1
				],
				"metallicFactor":0,
				"roughnessFactor":0.5
			}
		},
		{
			"doubleSided":true,
			"name":"xsnowrock3.003",
			"pbrMetallicRoughness":{
				"baseColorFactor":[
					0.800000011920929,
					0.800000011920929,
					0.800000011920929,
					1
				],
				"metallicFactor":0,
				"roughnessFactor":0.5
			}
		},
		{
			"doubleSided":true,
			"name":"xsnowrock3.004",
			"pbrMetallicRoughness":{
				"baseColorFactor":[
					0.800000011920929,
					0.800000011920929,
					0.800000011920929,
					1
				],
				"metallicFactor":0,
				"roughnessFactor":0.5
			}
		}
	],
	"meshes":[
		{
			"name":"Mesh",
			"primitives":[
				{
					"attributes":{
						"POSITION":0,
						"NORMAL":1,
						"TEXCOORD_0":2
					},
					"indices":3,
					"material":0
				}
			]
		},
		{
			"name":"Mesh.001",
			"primitives":[
				{
					"attributes":{
						"POSITION":4,
						"NORMAL":5,
						"TEXCOORD_0":6
					},
					"indices":7,
					"material":1
				}
			]
		},
		{
			"name":"Mesh.002",
			"primitives":[
				{
					"attributes":{
						"POSITION":8,
						"NORMAL":9,
						"TEXCOORD_0":10
					},
					"indices":11,
					"material":2
				}
			]
		},
		{
			"name":"Mesh.003",
			"primitives":[
				{
					"attributes":{
						"POSITION":12,
						"NORMAL":13,
						"TEXCOORD_0":14
					},
					"indices":15,
					"material":3
				}
			]
		},
		{
			"name":"Mesh.004",
			"primitives":[
				{
					"attributes":{
						"POSITION":16,
						"NORMAL":17,
						"TEXCOORD_0":18
					},
					"indices":19,
					"material":4
				}
			]
		}
	],
	"accessors":[
		{
			"bufferView":0,
			"componentType":5126,
			"count":474,
			"max":[
				13.234375,
				32.71875,
				17.53125
			],
			"min":[
				-13.640625,
				-8.578125,
				-17.5625
			],
			"type":"VEC3"
		},
		{
			"bufferView":1,
			"componentType":5126,
			"count":474,
			"type":"VEC3"
		},
		{
			"bufferView":2,
			"componentType":5126,
			"count":474,
			"type":"VEC2"
		},
		{
			"bufferView":3,
			"componentType":5123,
			"count":474,
			"type":"SCALAR"
		},
		{
			"bufferView":4,
			"componentType":5126,
			"count":300,
			"max":[
				13.234375,
				32.71875,
				17.53125
			],
			"min":[
				-13.640625,
				-8.578125,
				-17.5625
			],
			"type":"VEC3"
		},
		{
			"bufferView":5,
			"componentType":5126,
			"count":300,
			"type":"VEC3"
		},
		{
			"bufferView":6,
			"componentType":5126,
			"count":300,
			"type":"VEC2"
		},
		{
			"bufferView":7,
			"componentType":5123,
			"count":300,
			"type":"SCALAR"
		},
		{
			"bufferView":8,
			"componentType":5126,
			"count":222,
			"max":[
				13.234375,
				32.71875,
				17.53125
			],
			"min":[
				-13.640625,
				-8.578125,
				-17.5625
			],
			"type":"VEC3"
		},
		{
			"bufferView":9,
			"componentType":5126,
			"count":222,
			"type":"VEC3"
		},
		{
			"bufferView":10,
			"componentType":5126,
			"count":222,
			"type":"VEC2"
		},
		{
			"bufferView":11,
			"componentType":5123,
			"count":222,
			"type":"SCALAR"
		},
		{
			"bufferView":12,
			"componentType":5126,
			"count":90,
			"max":[
				13.234375,
				32.34375,
				17.53125
			],
			"min":[
				-13.640625,
				-8.578125,
				-17.5625
			],
			"type":"VEC3"
		},
		{
			"bufferView":13,
			"componentType":5126,
			"count":90,
			"type":"VEC3"
		},
		{
			"bufferView":14,
			"componentType":5126,
			"count":90,
			"type":"VEC2"
		},
		{
			"bufferView":15,
			"componentType":5123,
			"count":90,
			"type":"SCALAR"
		},
		{
			"bufferView":16,
			"componentType":5126,
			"count":39,
			"max":[
				11.140625,
				31.390625,
				17.53125
			],
			"min":[
				-13.640625,
				-8.578125,
				-17.5625
			],
			"type":"VEC3"
		},
		{
			"bufferView":17,
			"componentType":5126,
			"count":39,
			"type":"VEC3"
		},
		{
			"bufferView":18,
			"componentType":5126,
			"count":39,
			"type":"VEC2"
		},
		{
			"bufferView":19,
			"componentType":5123,
			"count":39,
			"type":"SCALAR"
		}
	],
	"bufferViews":[
		{
			"buffer":0,
			"byteLength":5688,
			"byteOffset":0,
			"target":34962
		},
		{
			"buffer":0,
			"byteLength":5688,
			"byteOffset":5688,
			"target":34962
		},
		{
			"buffer":0,
			"byteLength":3792,
			"byteOffset":11376,
			"target":34962
		},
		{
			"buffer":0,
			"byteLength":948,
			"byteOffset":15168,
			"target":34963
		},
		{
			"buffer":0,
			"byteLength":3600,
			"byteOffset":16116,
			"target":34962
		},
		{
			"buffer":0,
			"byteLength":3600,
			"byteOffset":19716,
			"target":34962
		},
		{
			"buffer":0,
			"byteLength":2400,
			"byteOffset":23316,
			"target":34962
		},
		{
			"buffer":0,
			"byteLength":600,
			"byteOffset":25716,
			"target":34963
		},
		{
			"buffer":0,
			"byteLength":2664,
			"byteOffset":26316,
			"target":34962
		},
		{
			"buffer":0,
			"byteLength":2664,
			"byteOffset":28980,
			"target":34962
		},
		{
			"buffer":0,
			"byteLength":1776,
			"byteOffset":31644,
			"target":34962
		},
		{
			"buffer":0,
			"byteLength":444,
			"byteOffset":33420,
			"target":34963
		},
		{
			"buffer":0,
			"byteLength":1080,
			"byteOffset":33864,
			"target":34962
		},
		{
			"buffer":0,
			"byteLength":1080,
			"byteOffset":34944,
			"target":34962
		},
		{
			"buffer":0,
			"byteLength":720,
			"byteOffset":36024,
			"target":34962
		},
		{
			"buffer":0,
			"byteLength":180,
			"byteOffset":36744,
			"target":34963
		},
		{
			"buffer":0,
			"byteLength":468,
			"byteOffset":36924,
			"target":34962
		},
		{
			"buffer":0,
			"byteLength":468,
			"byteOffset":37392,
			"target":34962
		},
		{
			"buffer":0,
			"byteLength":312,
			"byteOffset":37860,
			"target":34962
		},
		{
			"buffer":0,
			"byteLength":78,
			"byteOffset":38172,
			"target":34963
		}
	],
	"buffers":[
		{
			"byteLength":38252,
			"uri":"srockc.bin"
		}
	]
}
