{
	"asset":{
		"generator":"Khronos glTF Blender I/O v4.5.48",
		"version":"2.0"
	},
	"scene":0,
	"scenes":[
		{
			"name":"Scene",
			"nodes":[
				0,
				1,
				2,
				3,
				4,
				5,
				6
			]
		}
	],
	"nodes":[
		{
			"mesh":0,
			"name":"Object"
		},
		{
			"mesh":1,
			"name":"Object.001"
		},
		{
			"mesh":2,
			"name":"Object.002"
		},
		{
			"mesh":3,
			"name":"Object.003"
		},
		{
			"mesh":4,
			"name":"Object.004"
		},
		{
			"mesh":5,
			"name":"Object.005"
		},
		{
			"mesh":6,
			"name":"Object.006"
		}
	],
	"materials":[
		{
			"doubleSided":true,
			"name":"rockblue5",
			"pbrMetallicRoughness":{
				"baseColorFactor":[
					0.800000011920929,
					0.800000011920929,
					0.800000011920929,
					1
				],
				"metallicFactor":0,
				"roughnessFactor":0.5
			}
		},
		{
			"doubleSided":true,
			"name":"rockSnow2",
			"pbrMetallicRoughness":{
				"baseColorFactor":[
					0.800000011920929,
					0.800000011920929,
					0.800000011920929,
					1
				],
				"metallicFactor":0,
				"roughnessFactor":0.5
			}
		},
		{
			"doubleSided":true,
			"name":"xsnowrock3",
			"pbrMetallicRoughness":{
				"baseColorFactor":[
					0.800000011920929,
					0.800000011920929,
					0.800000011920929,
					1
				],
				"metallicFactor":0,
				"roughnessFactor":0.5
			}
		},
		{
			"doubleSided":true,
			"name":"rockblue5.001",
			"pbrMetallicRoughness":{
				"baseColorFactor":[
					0.800000011920929,
					0.800000011920929,
					0.800000011920929,
					1
				],
				"metallicFactor":0,
				"roughnessFactor":0.5
			}
		},
		{
			"doubleSided":true,
			"name":"rockSnow2.001",
			"pbrMetallicRoughness":{
				"baseColorFactor":[
					0.800000011920929,
					0.800000011920929,
					0.800000011920929,
					1
				],
				"metallicFactor":0,
				"roughnessFactor":0.5
			}
		},
		{
			"doubleSided":true,
			"name":"xsnowrock3.001",
			"pbrMetallicRoughness":{
				"baseColorFactor":[
					0.800000011920929,
					0.800000011920929,
					0.800000011920929,
					1
				],
				"metallicFactor":0,
				"roughnessFactor":0.5
			}
		},
		{
			"doubleSided":true,
			"name":"rockSnow2.002",
			"pbrMetallicRoughness":{
				"baseColorFactor":[
					0.800000011920929,
					0.800000011920929,
					0.800000011920929,
					1
				],
				"metallicFactor":0,
				"roughnessFactor":0.5
			}
		},
		{
			"doubleSided":true,
			"name":"rockblue5.002",
			"pbrMetallicRoughness":{
				"baseColorFactor":[
					0.800000011920929,
					0.800000011920929,
					0.800000011920929,
					1
				],
				"metallicFactor":0,
				"roughnessFactor":0.5
			}
		},
		{
			"doubleSided":true,
			"name":"xsnowrock3.002",
			"pbrMetallicRoughness":{
				"baseColorFactor":[
					0.800000011920929,
					0.800000011920929,
					0.800000011920929,
					1
				],
				"metallicFactor":0,
				"roughnessFactor":0.5
			}
		},
		{
			"doubleSided":true,
			"name":"rockSnow2.003",
			"pbrMetallicRoughness":{
				"baseColorFactor":[
					0.800000011920929,
					0.800000011920929,
					0.800000011920929,
					1
				],
				"metallicFactor":0,
				"roughnessFactor":0.5
			}
		},
		{
			"doubleSided":true,
			"name":"rockblue5.003",
			"pbrMetallicRoughness":{
				"baseColorFactor":[
					0.800000011920929,
					0.800000011920929,
					0.800000011920929,
					1
				],
				"metallicFactor":0,
				"roughnessFactor":0.5
			}
		},
		{
			"doubleSided":true,
			"name":"rockSnow2.004",
			"pbrMetallicRoughness":{
				"baseColorFactor":[
					0.800000011920929,
					0.800000011920929,
					0.800000011920929,
					1
				],
				"metallicFactor":0,
				"roughnessFactor":0.5
			}
		},
		{
			"doubleSided":true,
			"name":"rockblue5.004",
			"pbrMetallicRoughness":{
				"baseColorFactor":[
					0.800000011920929,
					0.800000011920929,
					0.800000011920929,
					1
				],
				"metallicFactor":0,
				"roughnessFactor":0.5
			}
		},
		{
			"doubleSided":true,
			"name":"rockSnow2.005",
			"pbrMetallicRoughness":{
				"baseColorFactor":[
					0.800000011920929,
					0.800000011920929,
					0.800000011920929,
					1
				],
				"metallicFactor":0,
				"roughnessFactor":0.5
			}
		},
		{
			"doubleSided":true,
			"name":"rockblue5.005",
			"pbrMetallicRoughness":{
				"baseColorFactor":[
					0.800000011920929,
					0.800000011920929,
					0.800000011920929,
					1
				],
				"metallicFactor":0,
				"roughnessFactor":0.5
			}
		},
		{
			"doubleSided":true,
			"name":"rockblue5.006",
			"pbrMetallicRoughness":{
				"baseColorFactor":[
					0.800000011920929,
					0.800000011920929,
					0.800000011920929,
					1
				],
				"metallicFactor":0,
				"roughnessFactor":0.5
			}
		}
	],
	"meshes":[
		{
			"name":"Mesh",
			"primitives":[
				{
					"attributes":{
						"POSITION":0,
						"NORMAL":1,
						"TEXCOORD_0":2
					},
					"indices":3,
					"material":0
				},
				{
					"attributes":{
						"POSITION":4,
						"NORMAL":5,
						"TEXCOORD_0":6
					},
					"indices":7,
					"material":1
				},
				{
					"attributes":{
						"POSITION":8,
						"NORMAL":9,
						"TEXCOORD_0":10
					},
					"indices":11,
					"material":2
				}
			]
		},
		{
			"name":"Mesh.001",
			"primitives":[
				{
					"attributes":{
						"POSITION":12,
						"NORMAL":13,
						"TEXCOORD_0":14
					},
					"indices":15,
					"material":3
				},
				{
					"attributes":{
						"POSITION":16,
						"NORMAL":17,
						"TEXCOORD_0":18
					},
					"indices":19,
					"material":4
				},
				{
					"attributes":{
						"POSITION":20,
						"NORMAL":21,
						"TEXCOORD_0":22
					},
					"indices":23,
					"material":5
				}
			]
		},
		{
			"name":"Mesh.002",
			"primitives":[
				{
					"attributes":{
						"POSITION":24,
						"NORMAL":25,
						"TEXCOORD_0":26
					},
					"indices":27,
					"material":6
				},
				{
					"attributes":{
						"POSITION":28,
						"NORMAL":29,
						"TEXCOORD_0":30
					},
					"indices":31,
					"material":7
				},
				{
					"attributes":{
						"POSITION":32,
						"NORMAL":33,
						"TEXCOORD_0":34
					},
					"indices":35,
					"material":8
				}
			]
		},
		{
			"name":"Mesh.003",
			"primitives":[
				{
					"attributes":{
						"POSITION":36,
						"NORMAL":37,
						"TEXCOORD_0":38
					},
					"indices":39,
					"material":9
				},
				{
					"attributes":{
						"POSITION":40,
						"NORMAL":41,
						"TEXCOORD_0":42
					},
					"indices":43,
					"material":10
				}
			]
		},
		{
			"name":"Mesh.004",
			"primitives":[
				{
					"attributes":{
						"POSITION":44,
						"NORMAL":45,
						"TEXCOORD_0":46
					},
					"indices":47,
					"material":11
				},
				{
					"attributes":{
						"POSITION":48,
						"NORMAL":49,
						"TEXCOORD_0":50
					},
					"indices":51,
					"material":12
				}
			]
		},
		{
			"name":"Mesh.005",
			"primitives":[
				{
					"attributes":{
						"POSITION":52,
						"NORMAL":53,
						"TEXCOORD_0":54
					},
					"indices":55,
					"material":13
				},
				{
					"attributes":{
						"POSITION":56,
						"NORMAL":57,
						"TEXCOORD_0":58
					},
					"indices":59,
					"material":14
				}
			]
		},
		{
			"name":"Mesh.006",
			"primitives":[
				{
					"attributes":{
						"POSITION":60,
						"NORMAL":61,
						"TEXCOORD_0":62
					},
					"indices":63,
					"material":15
				}
			]
		}
	],
	"accessors":[
		{
			"bufferView":0,
			"componentType":5126,
			"count":190,
			"max":[
				9.59375,
				78.0625,
				9.640625
			],
			"min":[
				-7.765625,
				10.265625,
				-10.203125
			],
			"type":"VEC3"
		},
		{
			"bufferView":1,
			"componentType":5126,
			"count":190,
			"type":"VEC3"
		},
		{
			"bufferView":2,
			"componentType":5126,
			"count":190,
			"type":"VEC2"
		},
		{
			"bufferView":3,
			"componentType":5123,
			"count":198,
			"type":"SCALAR"
		},
		{
			"bufferView":4,
			"componentType":5126,
			"count":132,
			"max":[
				20.21875,
				55.5625,
				20.28125
			],
			"min":[
				-23.1875,
				-1.046875,
				-18.09375
			],
			"type":"VEC3"
		},
		{
			"bufferView":5,
			"componentType":5126,
			"count":132,
			"type":"VEC3"
		},
		{
			"bufferView":6,
			"componentType":5126,
			"count":132,
			"type":"VEC2"
		},
		{
			"bufferView":7,
			"componentType":5123,
			"count":132,
			"type":"SCALAR"
		},
		{
			"bufferView":8,
			"componentType":5126,
			"count":15,
			"max":[
				7.390625,
				54.25,
				3.75
			],
			"min":[
				-11.46875,
				12.0625,
				-6.1875
			],
			"type":"VEC3"
		},
		{
			"bufferView":9,
			"componentType":5126,
			"count":15,
			"type":"VEC3"
		},
		{
			"bufferView":10,
			"componentType":5126,
			"count":15,
			"type":"VEC2"
		},
		{
			"bufferView":11,
			"componentType":5123,
			"count":15,
			"type":"SCALAR"
		},
		{
			"bufferView":12,
			"componentType":5126,
			"count":163,
			"max":[
				9.59375,
				78.0625,
				9.640625
			],
			"min":[
				-7.765625,
				10.265625,
				-10.203125
			],
			"type":"VEC3"
		},
		{
			"bufferView":13,
			"componentType":5126,
			"count":163,
			"type":"VEC3"
		},
		{
			"bufferView":14,
			"componentType":5126,
			"count":163,
			"type":"VEC2"
		},
		{
			"bufferView":15,
			"componentType":5123,
			"count":171,
			"type":"SCALAR"
		},
		{
			"bufferView":16,
			"componentType":5126,
			"count":111,
			"max":[
				20.21875,
				55.5625,
				20.28125
			],
			"min":[
				-23.1875,
				-1.046875,
				-18.09375
			],
			"type":"VEC3"
		},
		{
			"bufferView":17,
			"componentType":5126,
			"count":111,
			"type":"VEC3"
		},
		{
			"bufferView":18,
			"componentType":5126,
			"count":111,
			"type":"VEC2"
		},
		{
			"bufferView":19,
			"componentType":5123,
			"count":111,
			"type":"SCALAR"
		},
		{
			"bufferView":20,
			"componentType":5126,
			"count":6,
			"max":[
				7.390625,
				51.9375,
				3.75
			],
			"min":[
				-11.46875,
				12.0625,
				-6.1875
			],
			"type":"VEC3"
		},
		{
			"bufferView":21,
			"componentType":5126,
			"count":6,
			"type":"VEC3"
		},
		{
			"bufferView":22,
			"componentType":5126,
			"count":6,
			"type":"VEC2"
		},
		{
			"bufferView":23,
			"componentType":5123,
			"count":6,
			"type":"SCALAR"
		},
		{
			"bufferView":24,
			"componentType":5126,
			"count":66,
			"max":[
				20.21875,
				52.984375,
				20.28125
			],
			"min":[
				-23.1875,
				-1.046875,
				-15.5625
			],
			"type":"VEC3"
		},
		{
			"bufferView":25,
			"componentType":5126,
			"count":66,
			"type":"VEC3"
		},
		{
			"bufferView":26,
			"componentType":5126,
			"count":66,
			"type":"VEC2"
		},
		{
			"bufferView":27,
			"componentType":5123,
			"count":66,
			"type":"SCALAR"
		},
		{
			"bufferView":28,
			"componentType":5126,
			"count":93,
			"max":[
				7.453125,
				78.0625,
				8.921875
			],
			"min":[
				-11.46875,
				10.265625,
				-10.203125
			],
			"type":"VEC3"
		},
		{
			"bufferView":29,
			"componentType":5126,
			"count":93,
			"type":"VEC3"
		},
		{
			"bufferView":30,
			"componentType":5126,
			"count":93,
			"type":"VEC2"
		},
		{
			"bufferView":31,
			"componentType":5123,
			"count":93,
			"type":"SCALAR"
		},
		{
			"bufferView":32,
			"componentType":5126,
			"count":3,
			"max":[
				7.390625,
				51.9375,
				3.75
			],
			"min":[
				-3.234375,
				49.78125,
				1.03125
			],
			"type":"VEC3"
		},
		{
			"bufferView":33,
			"componentType":5126,
			"count":3,
			"type":"VEC3"
		},
		{
			"bufferView":34,
			"componentType":5126,
			"count":3,
			"type":"VEC2"
		},
		{
			"bufferView":35,
			"componentType":5123,
			"count":3,
			"type":"SCALAR"
		},
		{
			"bufferView":36,
			"componentType":5126,
			"count":42,
			"max":[
				20.21875,
				30.578125,
				20.28125
			],
			"min":[
				-23.1875,
				-1.046875,
				-15.5625
			],
			"type":"VEC3"
		},
		{
			"bufferView":37,
			"componentType":5126,
			"count":42,
			"type":"VEC3"
		},
		{
			"bufferView":38,
			"componentType":5126,
			"count":42,
			"type":"VEC2"
		},
		{
			"bufferView":39,
			"componentType":5123,
			"count":42,
			"type":"SCALAR"
		},
		{
			"bufferView":40,
			"componentType":5126,
			"count":78,
			"max":[
				7.453125,
				78.0625,
				8.921875
			],
			"min":[
				-11.46875,
				10.265625,
				-8.15625
			],
			"type":"VEC3"
		},
		{
			"bufferView":41,
			"componentType":5126,
			"count":78,
			"type":"VEC3"
		},
		{
			"bufferView":42,
			"componentType":5126,
			"count":78,
			"type":"VEC2"
		},
		{
			"bufferView":43,
			"componentType":5123,
			"count":78,
			"type":"SCALAR"
		},
		{
			"bufferView":44,
			"componentType":5126,
			"count":30,
			"max":[
				20.21875,
				25.421875,
				20.28125
			],
			"min":[
				-23.1875,
				-1.046875,
				-15.5625
			],
			"type":"VEC3"
		},
		{
			"bufferView":45,
			"componentType":5126,
			"count":30,
			"type":"VEC3"
		},
		{
			"bufferView":46,
			"componentType":5126,
			"count":30,
			"type":"VEC2"
		},
		{
			"bufferView":47,
			"componentType":5123,
			"count":30,
			"type":"SCALAR"
		},
		{
			"bufferView":48,
			"componentType":5126,
			"count":33,
			"max":[
				7.453125,
				78.0625,
				8.921875
			],
			"min":[
				-11.46875,
				10.265625,
				-8.15625
			],
			"type":"VEC3"
		},
		{
			"bufferView":49,
			"componentType":5126,
			"count":33,
			"type":"VEC3"
		},
		{
			"bufferView":50,
			"componentType":5126,
			"count":33,
			"type":"VEC2"
		},
		{
			"bufferView":51,
			"componentType":5123,
			"count":33,
			"type":"SCALAR"
		},
		{
			"bufferView":52,
			"componentType":5126,
			"count":15,
			"max":[
				17.40625,
				21.6875,
				20.28125
			],
			"min":[
				-23.1875,
				-1.046875,
				-15.5625
			],
			"type":"VEC3"
		},
		{
			"bufferView":53,
			"componentType":5126,
			"count":15,
			"type":"VEC3"
		},
		{
			"bufferView":54,
			"componentType":5126,
			"count":15,
			"type":"VEC2"
		},
		{
			"bufferView":55,
			"componentType":5123,
			"count":15,
			"type":"SCALAR"
		},
		{
			"bufferView":56,
			"componentType":5126,
			"count":27,
			"max":[
				7.453125,
				74.25,
				8.921875
			],
			"min":[
				-23.1875,
				-1.046875,
				-15.5625
			],
			"type":"VEC3"
		},
		{
			"bufferView":57,
			"componentType":5126,
			"count":27,
			"type":"VEC3"
		},
		{
			"bufferView":58,
			"componentType":5126,
			"count":27,
			"type":"VEC2"
		},
		{
			"bufferView":59,
			"componentType":5123,
			"count":27,
			"type":"SCALAR"
		},
		{
			"bufferView":60,
			"componentType":5126,
			"count":18,
			"max":[
				7.453125,
				74.25,
				8.921875
			],
			"min":[
				-4.671875,
				-1.0625,
				-8.15625
			],
			"type":"VEC3"
		},
		{
			"bufferView":61,
			"componentType":5126,
			"count":18,
			"type":"VEC3"
		},
		{
			"bufferView":62,
			"componentType":5126,
			"count":18,
			"type":"VEC2"
		},
		{
			"bufferView":63,
			"componentType":5123,
			"count":18,
			"type":"SCALAR"
		}
	],
	"bufferViews":[
		{
			"buffer":0,
			"byteLength":2280,
			"byteOffset":0,
			"target":34962
		},
		{
			"buffer":0,
			"byteLength":2280,
			"byteOffset":2280,
			"target":34962
		},
		{
			"buffer":0,
			"byteLength":1520,
			"byteOffset":4560,
			"target":34962
		},
		{
			"buffer":0,
			"byteLength":396,
			"byteOffset":6080,
			"target":34963
		},
		{
			"buffer":0,
			"byteLength":1584,
			"byteOffset":6476,
			"target":34962
		},
		{
			"buffer":0,
			"byteLength":1584,
			"byteOffset":8060,
			"target":34962
		},
		{
			"buffer":0,
			"byteLength":1056,
			"byteOffset":9644,
			"target":34962
		},
		{
			"buffer":0,
			"byteLength":264,
			"byteOffset":10700,
			"target":34963
		},
		{
			"buffer":0,
			"byteLength":180,
			"byteOffset":10964,
			"target":34962
		},
		{
			"buffer":0,
			"byteLength":180,
			"byteOffset":11144,
			"target":34962
		},
		{
			"buffer":0,
			"byteLength":120,
			"byteOffset":11324,
			"target":34962
		},
		{
			"buffer":0,
			"byteLength":30,
			"byteOffset":11444,
			"target":34963
		},
		{
			"buffer":0,
			"byteLength":1956,
			"byteOffset":11476,
			"target":34962
		},
		{
			"buffer":0,
			"byteLength":1956,
			"byteOffset":13432,
			"target":34962
		},
		{
			"buffer":0,
			"byteLength":1304,
			"byteOffset":15388,
			"target":34962
		},
		{
			"buffer":0,
			"byteLength":342,
			"byteOffset":16692,
			"target":34963
		},
		{
			"buffer":0,
			"byteLength":1332,
			"byteOffset":17036,
			"target":34962
		},
		{
			"buffer":0,
			"byteLength":1332,
			"byteOffset":18368,
			"target":34962
		},
		{
			"buffer":0,
			"byteLength":888,
			"byteOffset":19700,
			"target":34962
		},
		{
			"buffer":0,
			"byteLength":222,
			"byteOffset":20588,
			"target":34963
		},
		{
			"buffer":0,
			"byteLength":72,
			"byteOffset":20812,
			"target":34962
		},
		{
			"buffer":0,
			"byteLength":72,
			"byteOffset":20884,
			"target":34962
		},
		{
			"buffer":0,
			"byteLength":48,
			"byteOffset":20956,
			"target":34962
		},
		{
			"buffer":0,
			"byteLength":12,
			"byteOffset":21004,
			"target":34963
		},
		{
			"buffer":0,
			"byteLength":792,
			"byteOffset":21016,
			"target":34962
		},
		{
			"buffer":0,
			"byteLength":792,
			"byteOffset":21808,
			"target":34962
		},
		{
			"buffer":0,
			"byteLength":528,
			"byteOffset":22600,
			"target":34962
		},
		{
			"buffer":0,
			"byteLength":132,
			"byteOffset":23128,
			"target":34963
		},
		{
			"buffer":0,
			"byteLength":1116,
			"byteOffset":23260,
			"target":34962
		},
		{
			"buffer":0,
			"byteLength":1116,
			"byteOffset":24376,
			"target":34962
		},
		{
			"buffer":0,
			"byteLength":744,
			"byteOffset":25492,
			"target":34962
		},
		{
			"buffer":0,
			"byteLength":186,
			"byteOffset":26236,
			"target":34963
		},
		{
			"buffer":0,
			"byteLength":36,
			"byteOffset":26424,
			"target":34962
		},
		{
			"buffer":0,
			"byteLength":36,
			"byteOffset":26460,
			"target":34962
		},
		{
			"buffer":0,
			"byteLength":24,
			"byteOffset":26496,
			"target":34962
		},
		{
			"buffer":0,
			"byteLength":6,
			"byteOffset":26520,
			"target":34963
		},
		{
			"buffer":0,
			"byteLength":504,
			"byteOffset":26528,
			"target":34962
		},
		{
			"buffer":0,
			"byteLength":504,
			"byteOffset":27032,
			"target":34962
		},
		{
			"buffer":0,
			"byteLength":336,
			"byteOffset":27536,
			"target":34962
		},
		{
			"buffer":0,
			"byteLength":84,
			"byteOffset":27872,
			"target":34963
		},
		{
			"buffer":0,
			"byteLength":936,
			"byteOffset":27956,
			"target":34962
		},
		{
			"buffer":0,
			"byteLength":936,
			"byteOffset":28892,
			"target":34962
		},
		{
			"buffer":0,
			"byteLength":624,
			"byteOffset":29828,
			"target":34962
		},
		{
			"buffer":0,
			"byteLength":156,
			"byteOffset":30452,
			"target":34963
		},
		{
			"buffer":0,
			"byteLength":360,
			"byteOffset":30608,
			"target":34962
		},
		{
			"buffer":0,
			"byteLength":360,
			"byteOffset":30968,
			"target":34962
		},
		{
			"buffer":0,
			"byteLength":240,
			"byteOffset":31328,
			"target":34962
		},
		{
			"buffer":0,
			"byteLength":60,
			"byteOffset":31568,
			"target":34963
		},
		{
			"buffer":0,
			"byteLength":396,
			"byteOffset":31628,
			"target":34962
		},
		{
			"buffer":0,
			"byteLength":396,
			"byteOffset":32024,
			"target":34962
		},
		{
			"buffer":0,
			"byteLength":264,
			"byteOffset":32420,
			"target":34962
		},
		{
			"buffer":0,
			"byteLength":66,
			"byteOffset":32684,
			"target":34963
		},
		{
			"buffer":0,
			"byteLength":180,
			"byteOffset":32752,
			"target":34962
		},
		{
			"buffer":0,
			"byteLength":180,
			"byteOffset":32932,
			"target":34962
		},
		{
			"buffer":0,
			"byteLength":120,
			"byteOffset":33112,
			"target":34962
		},
		{
			"buffer":0,
			"byteLength":30,
			"byteOffset":33232,
			"target":34963
		},
		{
			"buffer":0,
			"byteLength":324,
			"byteOffset":33264,
			"target":34962
		},
		{
			"buffer":0,
			"byteLength":324,
			"byteOffset":33588,
			"target":34962
		},
		{
			"buffer":0,
			"byteLength":216,
			"byteOffset":33912,
			"target":34962
		},
		{
			"buffer":0,
			"byteLength":54,
			"byteOffset":34128,
			"target":34963
		},
		{
			"buffer":0,
			"byteLength":216,
			"byteOffset":34184,
			"target":34962
		},
		{
			"buffer":0,
			"byteLength":216,
			"byteOffset":34400,
			"target":34962
		},
		{
			"buffer":0,
			"byteLength":144,
			"byteOffset":34616,
			"target":34962
		},
		{
			"buffer":0,
			"byteLength":36,
			"byteOffset":34760,
			"target":34963
		}
	],
	"buffers":[
		{
			"byteLength":34796,
			"uri":"sspir3.bin"
		}
	]
}
