{
	"asset":{
		"generator":"Khronos glTF Blender I/O v4.5.48",
		"version":"2.0"
	},
	"scene":0,
	"scenes":[
		{
			"name":"Scene",
			"nodes":[
				0,
				1,
				2,
				3,
				4,
				5
			]
		}
	],
	"nodes":[
		{
			"mesh":0,
			"name":"Object"
		},
		{
			"mesh":1,
			"name":"Object.001"
		},
		{
			"mesh":2,
			"name":"Object.002"
		},
		{
			"mesh":3,
			"name":"Object.003"
		},
		{
			"mesh":4,
			"name":"Object.004"
		},
		{
			"mesh":5,
			"name":"Object.005"
		}
	],
	"materials":[
		{
			"doubleSided":true,
			"name":"rockblue5",
			"pbrMetallicRoughness":{
				"baseColorFactor":[
					0.800000011920929,
					0.800000011920929,
					0.800000011920929,
					1
				],
				"metallicFactor":0,
				"roughnessFactor":0.5
			}
		},
		{
			"doubleSided":true,
			"name":"rockSnow2",
			"pbrMetallicRoughness":{
				"baseColorFactor":[
					0.800000011920929,
					0.800000011920929,
					0.800000011920929,
					1
				],
				"metallicFactor":0,
				"roughnessFactor":0.5
			}
		},
		{
			"doubleSided":true,
			"name":"xsnowrock3",
			"pbrMetallicRoughness":{
				"baseColorFactor":[
					0.800000011920929,
					0.800000011920929,
					0.800000011920929,
					1
				],
				"metallicFactor":0,
				"roughnessFactor":0.5
			}
		},
		{
			"doubleSided":true,
			"name":"rockSnow2.001",
			"pbrMetallicRoughness":{
				"baseColorFactor":[
					0.800000011920929,
					0.800000011920929,
					0.800000011920929,
					1
				],
				"metallicFactor":0,
				"roughnessFactor":0.5
			}
		},
		{
			"doubleSided":true,
			"name":"rockblue5.001",
			"pbrMetallicRoughness":{
				"baseColorFactor":[
					0.800000011920929,
					0.800000011920929,
					0.800000011920929,
					1
				],
				"metallicFactor":0,
				"roughnessFactor":0.5
			}
		},
		{
			"doubleSided":true,
			"name":"xsnowrock3.001",
			"pbrMetallicRoughness":{
				"baseColorFactor":[
					0.800000011920929,
					0.800000011920929,
					0.800000011920929,
					1
				],
				"metallicFactor":0,
				"roughnessFactor":0.5
			}
		},
		{
			"doubleSided":true,
			"name":"rockSnow2.002",
			"pbrMetallicRoughness":{
				"baseColorFactor":[
					0.800000011920929,
					0.800000011920929,
					0.800000011920929,
					1
				],
				"metallicFactor":0,
				"roughnessFactor":0.5
			}
		},
		{
			"doubleSided":true,
			"name":"rockblue5.002",
			"pbrMetallicRoughness":{
				"baseColorFactor":[
					0.800000011920929,
					0.800000011920929,
					0.800000011920929,
					1
				],
				"metallicFactor":0,
				"roughnessFactor":0.5
			}
		},
		{
			"doubleSided":true,
			"name":"xsnowrock3.002",
			"pbrMetallicRoughness":{
				"baseColorFactor":[
					0.800000011920929,
					0.800000011920929,
					0.800000011920929,
					1
				],
				"metallicFactor":0,
				"roughnessFactor":0.5
			}
		},
		{
			"doubleSided":true,
			"name":"rockSnow2.003",
			"pbrMetallicRoughness":{
				"baseColorFactor":[
					0.800000011920929,
					0.800000011920929,
					0.800000011920929,
					1
				],
				"metallicFactor":0,
				"roughnessFactor":0.5
			}
		},
		{
			"doubleSided":true,
			"name":"rockblue5.003",
			"pbrMetallicRoughness":{
				"baseColorFactor":[
					0.800000011920929,
					0.800000011920929,
					0.800000011920929,
					1
				],
				"metallicFactor":0,
				"roughnessFactor":0.5
			}
		},
		{
			"doubleSided":true,
			"name":"rockblue5.004",
			"pbrMetallicRoughness":{
				"baseColorFactor":[
					0.800000011920929,
					0.800000011920929,
					0.800000011920929,
					1
				],
				"metallicFactor":0,
				"roughnessFactor":0.5
			}
		},
		{
			"doubleSided":true,
			"name":"rockSnow2.004",
			"pbrMetallicRoughness":{
				"baseColorFactor":[
					0.800000011920929,
					0.800000011920929,
					0.800000011920929,
					1
				],
				"metallicFactor":0,
				"roughnessFactor":0.5
			}
		},
		{
			"doubleSided":true,
			"name":"rockblue5.005",
			"pbrMetallicRoughness":{
				"baseColorFactor":[
					0.800000011920929,
					0.800000011920929,
					0.800000011920929,
					1
				],
				"metallicFactor":0,
				"roughnessFactor":0.5
			}
		},
		{
			"doubleSided":true,
			"name":"rockSnow2.005",
			"pbrMetallicRoughness":{
				"baseColorFactor":[
					0.800000011920929,
					0.800000011920929,
					0.800000011920929,
					1
				],
				"metallicFactor":0,
				"roughnessFactor":0.5
			}
		}
	],
	"meshes":[
		{
			"name":"Mesh",
			"primitives":[
				{
					"attributes":{
						"POSITION":0,
						"NORMAL":1,
						"TEXCOORD_0":2
					},
					"indices":3,
					"material":0
				},
				{
					"attributes":{
						"POSITION":4,
						"NORMAL":5,
						"TEXCOORD_0":6
					},
					"indices":7,
					"material":1
				},
				{
					"attributes":{
						"POSITION":8,
						"NORMAL":9,
						"TEXCOORD_0":10
					},
					"indices":11,
					"material":2
				}
			]
		},
		{
			"name":"Mesh.001",
			"primitives":[
				{
					"attributes":{
						"POSITION":12,
						"NORMAL":13,
						"TEXCOORD_0":14
					},
					"indices":15,
					"material":3
				},
				{
					"attributes":{
						"POSITION":16,
						"NORMAL":17,
						"TEXCOORD_0":18
					},
					"indices":19,
					"material":4
				},
				{
					"attributes":{
						"POSITION":20,
						"NORMAL":21,
						"TEXCOORD_0":22
					},
					"indices":23,
					"material":5
				}
			]
		},
		{
			"name":"Mesh.002",
			"primitives":[
				{
					"attributes":{
						"POSITION":24,
						"NORMAL":25,
						"TEXCOORD_0":26
					},
					"indices":27,
					"material":6
				},
				{
					"attributes":{
						"POSITION":28,
						"NORMAL":29,
						"TEXCOORD_0":30
					},
					"indices":31,
					"material":7
				},
				{
					"attributes":{
						"POSITION":32,
						"NORMAL":33,
						"TEXCOORD_0":34
					},
					"indices":23,
					"material":8
				}
			]
		},
		{
			"name":"Mesh.003",
			"primitives":[
				{
					"attributes":{
						"POSITION":35,
						"NORMAL":36,
						"TEXCOORD_0":37
					},
					"indices":38,
					"material":9
				},
				{
					"attributes":{
						"POSITION":39,
						"NORMAL":40,
						"TEXCOORD_0":41
					},
					"indices":42,
					"material":10
				}
			]
		},
		{
			"name":"Mesh.004",
			"primitives":[
				{
					"attributes":{
						"POSITION":43,
						"NORMAL":44,
						"TEXCOORD_0":45
					},
					"indices":46,
					"material":11
				},
				{
					"attributes":{
						"POSITION":47,
						"NORMAL":48,
						"TEXCOORD_0":49
					},
					"indices":50,
					"material":12
				}
			]
		},
		{
			"name":"Mesh.005",
			"primitives":[
				{
					"attributes":{
						"POSITION":51,
						"NORMAL":52,
						"TEXCOORD_0":53
					},
					"indices":54,
					"material":13
				},
				{
					"attributes":{
						"POSITION":55,
						"NORMAL":56,
						"TEXCOORD_0":57
					},
					"indices":58,
					"material":14
				}
			]
		}
	],
	"accessors":[
		{
			"bufferView":0,
			"componentType":5126,
			"count":129,
			"max":[
				4.765625,
				28.5,
				4.65625
			],
			"min":[
				-3.765625,
				3.65625,
				-5.109375
			],
			"type":"VEC3"
		},
		{
			"bufferView":1,
			"componentType":5126,
			"count":129,
			"type":"VEC3"
		},
		{
			"bufferView":2,
			"componentType":5126,
			"count":129,
			"type":"VEC2"
		},
		{
			"bufferView":3,
			"componentType":5123,
			"count":129,
			"type":"SCALAR"
		},
		{
			"bufferView":4,
			"componentType":5126,
			"count":198,
			"max":[
				10,
				38.421875,
				9.890625
			],
			"min":[
				-11.359375,
				-0.421875,
				-8.984375
			],
			"type":"VEC3"
		},
		{
			"bufferView":5,
			"componentType":5126,
			"count":198,
			"type":"VEC3"
		},
		{
			"bufferView":6,
			"componentType":5126,
			"count":198,
			"type":"VEC2"
		},
		{
			"bufferView":7,
			"componentType":5123,
			"count":198,
			"type":"SCALAR"
		},
		{
			"bufferView":8,
			"componentType":5126,
			"count":6,
			"max":[
				-3.421875,
				4.84375,
				1.171875
			],
			"min":[
				-5.59375,
				4.546875,
				-3.125
			],
			"type":"VEC3"
		},
		{
			"bufferView":9,
			"componentType":5126,
			"count":6,
			"type":"VEC3"
		},
		{
			"bufferView":10,
			"componentType":5126,
			"count":6,
			"type":"VEC2"
		},
		{
			"bufferView":11,
			"componentType":5123,
			"count":6,
			"type":"SCALAR"
		},
		{
			"bufferView":12,
			"componentType":5126,
			"count":165,
			"max":[
				10,
				38.421875,
				9.890625
			],
			"min":[
				-11.359375,
				-0.421875,
				-8.984375
			],
			"type":"VEC3"
		},
		{
			"bufferView":13,
			"componentType":5126,
			"count":165,
			"type":"VEC3"
		},
		{
			"bufferView":14,
			"componentType":5126,
			"count":165,
			"type":"VEC2"
		},
		{
			"bufferView":15,
			"componentType":5123,
			"count":165,
			"type":"SCALAR"
		},
		{
			"bufferView":16,
			"componentType":5126,
			"count":102,
			"max":[
				4.765625,
				28.5,
				4.65625
			],
			"min":[
				-3.765625,
				3.65625,
				-5.109375
			],
			"type":"VEC3"
		},
		{
			"bufferView":17,
			"componentType":5126,
			"count":102,
			"type":"VEC3"
		},
		{
			"bufferView":18,
			"componentType":5126,
			"count":102,
			"type":"VEC2"
		},
		{
			"bufferView":19,
			"componentType":5123,
			"count":102,
			"type":"SCALAR"
		},
		{
			"bufferView":20,
			"componentType":5126,
			"count":3,
			"max":[
				-3.421875,
				4.84375,
				1.171875
			],
			"min":[
				-5.59375,
				4.546875,
				-3.125
			],
			"type":"VEC3"
		},
		{
			"bufferView":21,
			"componentType":5126,
			"count":3,
			"type":"VEC3"
		},
		{
			"bufferView":22,
			"componentType":5126,
			"count":3,
			"type":"VEC2"
		},
		{
			"bufferView":23,
			"componentType":5123,
			"count":3,
			"type":"SCALAR"
		},
		{
			"bufferView":24,
			"componentType":5126,
			"count":129,
			"max":[
				10,
				38.421875,
				9.890625
			],
			"min":[
				-11.359375,
				-0.421875,
				-7.734375
			],
			"type":"VEC3"
		},
		{
			"bufferView":25,
			"componentType":5126,
			"count":129,
			"type":"VEC3"
		},
		{
			"bufferView":26,
			"componentType":5126,
			"count":129,
			"type":"VEC2"
		},
		{
			"bufferView":27,
			"componentType":5123,
			"count":129,
			"type":"SCALAR"
		},
		{
			"bufferView":28,
			"componentType":5126,
			"count":75,
			"max":[
				6.25,
				28.5,
				4.65625
			],
			"min":[
				-3.765625,
				3.65625,
				-5.109375
			],
			"type":"VEC3"
		},
		{
			"bufferView":29,
			"componentType":5126,
			"count":75,
			"type":"VEC3"
		},
		{
			"bufferView":30,
			"componentType":5126,
			"count":75,
			"type":"VEC2"
		},
		{
			"bufferView":31,
			"componentType":5123,
			"count":75,
			"type":"SCALAR"
		},
		{
			"bufferView":32,
			"componentType":5126,
			"count":3,
			"max":[
				-3.421875,
				4.84375,
				1.171875
			],
			"min":[
				-5.59375,
				4.546875,
				-3.125
			],
			"type":"VEC3"
		},
		{
			"bufferView":33,
			"componentType":5126,
			"count":3,
			"type":"VEC3"
		},
		{
			"bufferView":34,
			"componentType":5126,
			"count":3,
			"type":"VEC2"
		},
		{
			"bufferView":35,
			"componentType":5126,
			"count":75,
			"max":[
				10,
				38.421875,
				9.890625
			],
			"min":[
				-11.359375,
				-0.421875,
				-7.734375
			],
			"type":"VEC3"
		},
		{
			"bufferView":36,
			"componentType":5126,
			"count":75,
			"type":"VEC3"
		},
		{
			"bufferView":37,
			"componentType":5126,
			"count":75,
			"type":"VEC2"
		},
		{
			"bufferView":38,
			"componentType":5123,
			"count":75,
			"type":"SCALAR"
		},
		{
			"bufferView":39,
			"componentType":5126,
			"count":54,
			"max":[
				6.25,
				28.5,
				4.296875
			],
			"min":[
				-5.59375,
				4.09375,
				-5.109375
			],
			"type":"VEC3"
		},
		{
			"bufferView":40,
			"componentType":5126,
			"count":54,
			"type":"VEC3"
		},
		{
			"bufferView":41,
			"componentType":5126,
			"count":54,
			"type":"VEC2"
		},
		{
			"bufferView":42,
			"componentType":5123,
			"count":54,
			"type":"SCALAR"
		},
		{
			"bufferView":43,
			"componentType":5126,
			"count":27,
			"max":[
				10,
				28.5,
				4.296875
			],
			"min":[
				-5.59375,
				-0.25,
				-3.453125
			],
			"type":"VEC3"
		},
		{
			"bufferView":44,
			"componentType":5126,
			"count":27,
			"type":"VEC3"
		},
		{
			"bufferView":45,
			"componentType":5126,
			"count":27,
			"type":"VEC2"
		},
		{
			"bufferView":46,
			"componentType":5123,
			"count":27,
			"type":"SCALAR"
		},
		{
			"bufferView":47,
			"componentType":5126,
			"count":36,
			"max":[
				10,
				38.421875,
				9.890625
			],
			"min":[
				-11.359375,
				-0.421875,
				-7.734375
			],
			"type":"VEC3"
		},
		{
			"bufferView":48,
			"componentType":5126,
			"count":36,
			"type":"VEC3"
		},
		{
			"bufferView":49,
			"componentType":5126,
			"count":36,
			"type":"VEC2"
		},
		{
			"bufferView":50,
			"componentType":5123,
			"count":36,
			"type":"SCALAR"
		},
		{
			"bufferView":51,
			"componentType":5126,
			"count":18,
			"max":[
				2.5625,
				38.421875,
				4.296875
			],
			"min":[
				-2.015625,
				-0.234375,
				-3.171875
			],
			"type":"VEC3"
		},
		{
			"bufferView":52,
			"componentType":5126,
			"count":18,
			"type":"VEC3"
		},
		{
			"bufferView":53,
			"componentType":5126,
			"count":18,
			"type":"VEC2"
		},
		{
			"bufferView":54,
			"componentType":5123,
			"count":18,
			"type":"SCALAR"
		},
		{
			"bufferView":55,
			"componentType":5126,
			"count":3,
			"max":[
				0.3125,
				38.421875,
				1.75
			],
			"min":[
				-2.015625,
				24.578125,
				-3.171875
			],
			"type":"VEC3"
		},
		{
			"bufferView":56,
			"componentType":5126,
			"count":3,
			"type":"VEC3"
		},
		{
			"bufferView":57,
			"componentType":5126,
			"count":3,
			"type":"VEC2"
		},
		{
			"bufferView":58,
			"componentType":5123,
			"count":3,
			"type":"SCALAR"
		}
	],
	"bufferViews":[
		{
			"buffer":0,
			"byteLength":1548,
			"byteOffset":0,
			"target":34962
		},
		{
			"buffer":0,
			"byteLength":1548,
			"byteOffset":1548,
			"target":34962
		},
		{
			"buffer":0,
			"byteLength":1032,
			"byteOffset":3096,
			"target":34962
		},
		{
			"buffer":0,
			"byteLength":258,
			"byteOffset":4128,
			"target":34963
		},
		{
			"buffer":0,
			"byteLength":2376,
			"byteOffset":4388,
			"target":34962
		},
		{
			"buffer":0,
			"byteLength":2376,
			"byteOffset":6764,
			"target":34962
		},
		{
			"buffer":0,
			"byteLength":1584,
			"byteOffset":9140,
			"target":34962
		},
		{
			"buffer":0,
			"byteLength":396,
			"byteOffset":10724,
			"target":34963
		},
		{
			"buffer":0,
			"byteLength":72,
			"byteOffset":11120,
			"target":34962
		},
		{
			"buffer":0,
			"byteLength":72,
			"byteOffset":11192,
			"target":34962
		},
		{
			"buffer":0,
			"byteLength":48,
			"byteOffset":11264,
			"target":34962
		},
		{
			"buffer":0,
			"byteLength":12,
			"byteOffset":11312,
			"target":34963
		},
		{
			"buffer":0,
			"byteLength":1980,
			"byteOffset":11324,
			"target":34962
		},
		{
			"buffer":0,
			"byteLength":1980,
			"byteOffset":13304,
			"target":34962
		},
		{
			"buffer":0,
			"byteLength":1320,
			"byteOffset":15284,
			"target":34962
		},
		{
			"buffer":0,
			"byteLength":330,
			"byteOffset":16604,
			"target":34963
		},
		{
			"buffer":0,
			"byteLength":1224,
			"byteOffset":16936,
			"target":34962
		},
		{
			"buffer":0,
			"byteLength":1224,
			"byteOffset":18160,
			"target":34962
		},
		{
			"buffer":0,
			"byteLength":816,
			"byteOffset":19384,
			"target":34962
		},
		{
			"buffer":0,
			"byteLength":204,
			"byteOffset":20200,
			"target":34963
		},
		{
			"buffer":0,
			"byteLength":36,
			"byteOffset":20404,
			"target":34962
		},
		{
			"buffer":0,
			"byteLength":36,
			"byteOffset":20440,
			"target":34962
		},
		{
			"buffer":0,
			"byteLength":24,
			"byteOffset":20476,
			"target":34962
		},
		{
			"buffer":0,
			"byteLength":6,
			"byteOffset":20500,
			"target":34963
		},
		{
			"buffer":0,
			"byteLength":1548,
			"byteOffset":20508,
			"target":34962
		},
		{
			"buffer":0,
			"byteLength":1548,
			"byteOffset":22056,
			"target":34962
		},
		{
			"buffer":0,
			"byteLength":1032,
			"byteOffset":23604,
			"target":34962
		},
		{
			"buffer":0,
			"byteLength":258,
			"byteOffset":24636,
			"target":34963
		},
		{
			"buffer":0,
			"byteLength":900,
			"byteOffset":24896,
			"target":34962
		},
		{
			"buffer":0,
			"byteLength":900,
			"byteOffset":25796,
			"target":34962
		},
		{
			"buffer":0,
			"byteLength":600,
			"byteOffset":26696,
			"target":34962
		},
		{
			"buffer":0,
			"byteLength":150,
			"byteOffset":27296,
			"target":34963
		},
		{
			"buffer":0,
			"byteLength":36,
			"byteOffset":27448,
			"target":34962
		},
		{
			"buffer":0,
			"byteLength":36,
			"byteOffset":27484,
			"target":34962
		},
		{
			"buffer":0,
			"byteLength":24,
			"byteOffset":27520,
			"target":34962
		},
		{
			"buffer":0,
			"byteLength":900,
			"byteOffset":27544,
			"target":34962
		},
		{
			"buffer":0,
			"byteLength":900,
			"byteOffset":28444,
			"target":34962
		},
		{
			"buffer":0,
			"byteLength":600,
			"byteOffset":29344,
			"target":34962
		},
		{
			"buffer":0,
			"byteLength":150,
			"byteOffset":29944,
			"target":34963
		},
		{
			"buffer":0,
			"byteLength":648,
			"byteOffset":30096,
			"target":34962
		},
		{
			"buffer":0,
			"byteLength":648,
			"byteOffset":30744,
			"target":34962
		},
		{
			"buffer":0,
			"byteLength":432,
			"byteOffset":31392,
			"target":34962
		},
		{
			"buffer":0,
			"byteLength":108,
			"byteOffset":31824,
			"target":34963
		},
		{
			"buffer":0,
			"byteLength":324,
			"byteOffset":31932,
			"target":34962
		},
		{
			"buffer":0,
			"byteLength":324,
			"byteOffset":32256,
			"target":34962
		},
		{
			"buffer":0,
			"byteLength":216,
			"byteOffset":32580,
			"target":34962
		},
		{
			"buffer":0,
			"byteLength":54,
			"byteOffset":32796,
			"target":34963
		},
		{
			"buffer":0,
			"byteLength":432,
			"byteOffset":32852,
			"target":34962
		},
		{
			"buffer":0,
			"byteLength":432,
			"byteOffset":33284,
			"target":34962
		},
		{
			"buffer":0,
			"byteLength":288,
			"byteOffset":33716,
			"target":34962
		},
		{
			"buffer":0,
			"byteLength":72,
			"byteOffset":34004,
			"target":34963
		},
		{
			"buffer":0,
			"byteLength":216,
			"byteOffset":34076,
			"target":34962
		},
		{
			"buffer":0,
			"byteLength":216,
			"byteOffset":34292,
			"target":34962
		},
		{
			"buffer":0,
			"byteLength":144,
			"byteOffset":34508,
			"target":34962
		},
		{
			"buffer":0,
			"byteLength":36,
			"byteOffset":34652,
			"target":34963
		},
		{
			"buffer":0,
			"byteLength":36,
			"byteOffset":34688,
			"target":34962
		},
		{
			"buffer":0,
			"byteLength":36,
			"byteOffset":34724,
			"target":34962
		},
		{
			"buffer":0,
			"byteLength":24,
			"byteOffset":34760,
			"target":34962
		},
		{
			"buffer":0,
			"byteLength":6,
			"byteOffset":34784,
			"target":34963
		}
	],
	"buffers":[
		{
			"byteLength":34792,
			"uri":"sspir2.bin"
		}
	]
}
