{
	"asset":{
		"generator":"Khronos glTF Blender I/O v4.5.48",
		"version":"2.0"
	},
	"scene":0,
	"scenes":[
		{
			"name":"Scene",
			"nodes":[
				0,
				1,
				2,
				3,
				4,
				5,
				6
			]
		}
	],
	"nodes":[
		{
			"mesh":0,
			"name":"Object"
		},
		{
			"mesh":1,
			"name":"Object.001"
		},
		{
			"mesh":2,
			"name":"Object.002"
		},
		{
			"mesh":3,
			"name":"Object.003"
		},
		{
			"mesh":4,
			"name":"Object.004"
		},
		{
			"mesh":5,
			"name":"Object.005"
		},
		{
			"mesh":6,
			"name":"Object.006"
		}
	],
	"materials":[
		{
			"doubleSided":true,
			"name":"rockblue5",
			"pbrMetallicRoughness":{
				"baseColorFactor":[
					0.800000011920929,
					0.800000011920929,
					0.800000011920929,
					1
				],
				"metallicFactor":0,
				"roughnessFactor":0.5
			}
		},
		{
			"doubleSided":true,
			"name":"rockSnow2",
			"pbrMetallicRoughness":{
				"baseColorFactor":[
					0.800000011920929,
					0.800000011920929,
					0.800000011920929,
					1
				],
				"metallicFactor":0,
				"roughnessFactor":0.5
			}
		},
		{
			"doubleSided":true,
			"name":"xsnowrock3",
			"pbrMetallicRoughness":{
				"baseColorFactor":[
					0.800000011920929,
					0.800000011920929,
					0.800000011920929,
					1
				],
				"metallicFactor":0,
				"roughnessFactor":0.5
			}
		},
		{
			"doubleSided":true,
			"name":"rockSnow2.001",
			"pbrMetallicRoughness":{
				"baseColorFactor":[
					0.800000011920929,
					0.800000011920929,
					0.800000011920929,
					1
				],
				"metallicFactor":0,
				"roughnessFactor":0.5
			}
		},
		{
			"doubleSided":true,
			"name":"rockblue5.001",
			"pbrMetallicRoughness":{
				"baseColorFactor":[
					0.800000011920929,
					0.800000011920929,
					0.800000011920929,
					1
				],
				"metallicFactor":0,
				"roughnessFactor":0.5
			}
		},
		{
			"doubleSided":true,
			"name":"xsnowrock3.001",
			"pbrMetallicRoughness":{
				"baseColorFactor":[
					0.800000011920929,
					0.800000011920929,
					0.800000011920929,
					1
				],
				"metallicFactor":0,
				"roughnessFactor":0.5
			}
		},
		{
			"doubleSided":true,
			"name":"rockSnow2.002",
			"pbrMetallicRoughness":{
				"baseColorFactor":[
					0.800000011920929,
					0.800000011920929,
					0.800000011920929,
					1
				],
				"metallicFactor":0,
				"roughnessFactor":0.5
			}
		},
		{
			"doubleSided":true,
			"name":"rockblue5.002",
			"pbrMetallicRoughness":{
				"baseColorFactor":[
					0.800000011920929,
					0.800000011920929,
					0.800000011920929,
					1
				],
				"metallicFactor":0,
				"roughnessFactor":0.5
			}
		},
		{
			"doubleSided":true,
			"name":"xsnowrock3.002",
			"pbrMetallicRoughness":{
				"baseColorFactor":[
					0.800000011920929,
					0.800000011920929,
					0.800000011920929,
					1
				],
				"metallicFactor":0,
				"roughnessFactor":0.5
			}
		},
		{
			"doubleSided":true,
			"name":"rockSnow2.003",
			"pbrMetallicRoughness":{
				"baseColorFactor":[
					0.800000011920929,
					0.800000011920929,
					0.800000011920929,
					1
				],
				"metallicFactor":0,
				"roughnessFactor":0.5
			}
		},
		{
			"doubleSided":true,
			"name":"rockblue5.003",
			"pbrMetallicRoughness":{
				"baseColorFactor":[
					0.800000011920929,
					0.800000011920929,
					0.800000011920929,
					1
				],
				"metallicFactor":0,
				"roughnessFactor":0.5
			}
		},
		{
			"doubleSided":true,
			"name":"rockSnow2.004",
			"pbrMetallicRoughness":{
				"baseColorFactor":[
					0.800000011920929,
					0.800000011920929,
					0.800000011920929,
					1
				],
				"metallicFactor":0,
				"roughnessFactor":0.5
			}
		},
		{
			"doubleSided":true,
			"name":"rockblue5.004",
			"pbrMetallicRoughness":{
				"baseColorFactor":[
					0.800000011920929,
					0.800000011920929,
					0.800000011920929,
					1
				],
				"metallicFactor":0,
				"roughnessFactor":0.5
			}
		},
		{
			"doubleSided":true,
			"name":"rockblue5.005",
			"pbrMetallicRoughness":{
				"baseColorFactor":[
					0.800000011920929,
					0.800000011920929,
					0.800000011920929,
					1
				],
				"metallicFactor":0,
				"roughnessFactor":0.5
			}
		},
		{
			"doubleSided":true,
			"name":"rockSnow2.005",
			"pbrMetallicRoughness":{
				"baseColorFactor":[
					0.800000011920929,
					0.800000011920929,
					0.800000011920929,
					1
				],
				"metallicFactor":0,
				"roughnessFactor":0.5
			}
		},
		{
			"doubleSided":true,
			"name":"rockblue5.006",
			"pbrMetallicRoughness":{
				"baseColorFactor":[
					0.800000011920929,
					0.800000011920929,
					0.800000011920929,
					1
				],
				"metallicFactor":0,
				"roughnessFactor":0.5
			}
		}
	],
	"meshes":[
		{
			"name":"Mesh",
			"primitives":[
				{
					"attributes":{
						"POSITION":0,
						"NORMAL":1,
						"TEXCOORD_0":2
					},
					"indices":3,
					"material":0
				},
				{
					"attributes":{
						"POSITION":4,
						"NORMAL":5,
						"TEXCOORD_0":6
					},
					"indices":7,
					"material":1
				},
				{
					"attributes":{
						"POSITION":8,
						"NORMAL":9,
						"TEXCOORD_0":10
					},
					"indices":11,
					"material":2
				}
			]
		},
		{
			"name":"Mesh.001",
			"primitives":[
				{
					"attributes":{
						"POSITION":12,
						"NORMAL":13,
						"TEXCOORD_0":14
					},
					"indices":15,
					"material":3
				},
				{
					"attributes":{
						"POSITION":16,
						"NORMAL":17,
						"TEXCOORD_0":18
					},
					"indices":19,
					"material":4
				},
				{
					"attributes":{
						"POSITION":20,
						"NORMAL":21,
						"TEXCOORD_0":22
					},
					"indices":23,
					"material":5
				}
			]
		},
		{
			"name":"Mesh.002",
			"primitives":[
				{
					"attributes":{
						"POSITION":24,
						"NORMAL":25,
						"TEXCOORD_0":26
					},
					"indices":27,
					"material":6
				},
				{
					"attributes":{
						"POSITION":28,
						"NORMAL":29,
						"TEXCOORD_0":30
					},
					"indices":31,
					"material":7
				},
				{
					"attributes":{
						"POSITION":32,
						"NORMAL":33,
						"TEXCOORD_0":34
					},
					"indices":35,
					"material":8
				}
			]
		},
		{
			"name":"Mesh.003",
			"primitives":[
				{
					"attributes":{
						"POSITION":36,
						"NORMAL":37,
						"TEXCOORD_0":38
					},
					"indices":39,
					"material":9
				},
				{
					"attributes":{
						"POSITION":40,
						"NORMAL":41,
						"TEXCOORD_0":42
					},
					"indices":43,
					"material":10
				}
			]
		},
		{
			"name":"Mesh.004",
			"primitives":[
				{
					"attributes":{
						"POSITION":44,
						"NORMAL":45,
						"TEXCOORD_0":46
					},
					"indices":47,
					"material":11
				},
				{
					"attributes":{
						"POSITION":48,
						"NORMAL":49,
						"TEXCOORD_0":50
					},
					"indices":51,
					"material":12
				}
			]
		},
		{
			"name":"Mesh.005",
			"primitives":[
				{
					"attributes":{
						"POSITION":52,
						"NORMAL":53,
						"TEXCOORD_0":54
					},
					"indices":55,
					"material":13
				},
				{
					"attributes":{
						"POSITION":56,
						"NORMAL":57,
						"TEXCOORD_0":58
					},
					"indices":59,
					"material":14
				}
			]
		},
		{
			"name":"Mesh.006",
			"primitives":[
				{
					"attributes":{
						"POSITION":60,
						"NORMAL":61,
						"TEXCOORD_0":62
					},
					"indices":63,
					"material":15
				}
			]
		}
	],
	"accessors":[
		{
			"bufferView":0,
			"componentType":5126,
			"count":602,
			"max":[
				9.859375,
				34.484375,
				10.5
			],
			"min":[
				-4.34375,
				3.625,
				-8.03125
			],
			"type":"VEC3"
		},
		{
			"bufferView":1,
			"componentType":5126,
			"count":602,
			"type":"VEC3"
		},
		{
			"bufferView":2,
			"componentType":5126,
			"count":602,
			"type":"VEC2"
		},
		{
			"bufferView":3,
			"componentType":5123,
			"count":1011,
			"type":"SCALAR"
		},
		{
			"bufferView":4,
			"componentType":5126,
			"count":1184,
			"max":[
				13.265625,
				46.671875,
				13.40625
			],
			"min":[
				-13.578125,
				-0.796875,
				-14.6875
			],
			"type":"VEC3"
		},
		{
			"bufferView":5,
			"componentType":5126,
			"count":1184,
			"type":"VEC3"
		},
		{
			"bufferView":6,
			"componentType":5126,
			"count":1184,
			"type":"VEC2"
		},
		{
			"bufferView":7,
			"componentType":5123,
			"count":2466,
			"type":"SCALAR"
		},
		{
			"bufferView":8,
			"componentType":5126,
			"count":18,
			"max":[
				8.140625,
				7.515625,
				10.5
			],
			"min":[
				-6.546875,
				4.25,
				-9.640625
			],
			"type":"VEC3"
		},
		{
			"bufferView":9,
			"componentType":5126,
			"count":18,
			"type":"VEC3"
		},
		{
			"bufferView":10,
			"componentType":5126,
			"count":18,
			"type":"VEC2"
		},
		{
			"bufferView":11,
			"componentType":5123,
			"count":18,
			"type":"SCALAR"
		},
		{
			"bufferView":12,
			"componentType":5126,
			"count":984,
			"max":[
				13.265625,
				46.671875,
				13.40625
			],
			"min":[
				-13.578125,
				-0.796875,
				-14.6875
			],
			"type":"VEC3"
		},
		{
			"bufferView":13,
			"componentType":5126,
			"count":984,
			"type":"VEC3"
		},
		{
			"bufferView":14,
			"componentType":5126,
			"count":984,
			"type":"VEC2"
		},
		{
			"bufferView":15,
			"componentType":5123,
			"count":1968,
			"type":"SCALAR"
		},
		{
			"bufferView":16,
			"componentType":5126,
			"count":494,
			"max":[
				9.859375,
				34.484375,
				10.5
			],
			"min":[
				-4.34375,
				3.625,
				-8.03125
			],
			"type":"VEC3"
		},
		{
			"bufferView":17,
			"componentType":5126,
			"count":494,
			"type":"VEC3"
		},
		{
			"bufferView":18,
			"componentType":5126,
			"count":494,
			"type":"VEC2"
		},
		{
			"bufferView":19,
			"componentType":5123,
			"count":897,
			"type":"SCALAR"
		},
		{
			"bufferView":20,
			"componentType":5126,
			"count":9,
			"max":[
				8.140625,
				7.515625,
				10.5
			],
			"min":[
				-6.546875,
				4.25,
				-9.640625
			],
			"type":"VEC3"
		},
		{
			"bufferView":21,
			"componentType":5126,
			"count":9,
			"type":"VEC3"
		},
		{
			"bufferView":22,
			"componentType":5126,
			"count":9,
			"type":"VEC2"
		},
		{
			"bufferView":23,
			"componentType":5123,
			"count":9,
			"type":"SCALAR"
		},
		{
			"bufferView":24,
			"componentType":5126,
			"count":769,
			"max":[
				12.421875,
				46.671875,
				13.40625
			],
			"min":[
				-13.578125,
				-0.796875,
				-14.6875
			],
			"type":"VEC3"
		},
		{
			"bufferView":25,
			"componentType":5126,
			"count":769,
			"type":"VEC3"
		},
		{
			"bufferView":26,
			"componentType":5126,
			"count":769,
			"type":"VEC2"
		},
		{
			"bufferView":27,
			"componentType":5123,
			"count":1599,
			"type":"SCALAR"
		},
		{
			"bufferView":28,
			"componentType":5126,
			"count":352,
			"max":[
				9.859375,
				34.484375,
				10.5
			],
			"min":[
				-4.34375,
				3.625,
				-8.03125
			],
			"type":"VEC3"
		},
		{
			"bufferView":29,
			"componentType":5126,
			"count":352,
			"type":"VEC3"
		},
		{
			"bufferView":30,
			"componentType":5126,
			"count":352,
			"type":"VEC2"
		},
		{
			"bufferView":31,
			"componentType":5123,
			"count":603,
			"type":"SCALAR"
		},
		{
			"bufferView":32,
			"componentType":5126,
			"count":9,
			"max":[
				8.140625,
				7.515625,
				10.5
			],
			"min":[
				-6.546875,
				4.25,
				-9.640625
			],
			"type":"VEC3"
		},
		{
			"bufferView":33,
			"componentType":5126,
			"count":9,
			"type":"VEC3"
		},
		{
			"bufferView":34,
			"componentType":5126,
			"count":9,
			"type":"VEC2"
		},
		{
			"bufferView":35,
			"componentType":5123,
			"count":9,
			"type":"SCALAR"
		},
		{
			"bufferView":36,
			"componentType":5126,
			"count":526,
			"max":[
				12.421875,
				45.390625,
				13.40625
			],
			"min":[
				-13.578125,
				-0.796875,
				-14.6875
			],
			"type":"VEC3"
		},
		{
			"bufferView":37,
			"componentType":5126,
			"count":526,
			"type":"VEC3"
		},
		{
			"bufferView":38,
			"componentType":5126,
			"count":526,
			"type":"VEC2"
		},
		{
			"bufferView":39,
			"componentType":5123,
			"count":1119,
			"type":"SCALAR"
		},
		{
			"bufferView":40,
			"componentType":5126,
			"count":300,
			"max":[
				9.859375,
				34.484375,
				10.5
			],
			"min":[
				-6.546875,
				3.9375,
				-9.640625
			],
			"type":"VEC3"
		},
		{
			"bufferView":41,
			"componentType":5126,
			"count":300,
			"type":"VEC3"
		},
		{
			"bufferView":42,
			"componentType":5126,
			"count":300,
			"type":"VEC2"
		},
		{
			"bufferView":43,
			"componentType":5123,
			"count":465,
			"type":"SCALAR"
		},
		{
			"bufferView":44,
			"componentType":5126,
			"count":383,
			"max":[
				12.421875,
				45.390625,
				13.40625
			],
			"min":[
				-13.578125,
				-0.796875,
				-14.6875
			],
			"type":"VEC3"
		},
		{
			"bufferView":45,
			"componentType":5126,
			"count":383,
			"type":"VEC3"
		},
		{
			"bufferView":46,
			"componentType":5126,
			"count":383,
			"type":"VEC2"
		},
		{
			"bufferView":47,
			"componentType":5123,
			"count":927,
			"type":"SCALAR"
		},
		{
			"bufferView":48,
			"componentType":5126,
			"count":303,
			"max":[
				12.421875,
				34.484375,
				10.171875
			],
			"min":[
				-6.546875,
				-0.65625,
				-9.640625
			],
			"type":"VEC3"
		},
		{
			"bufferView":49,
			"componentType":5126,
			"count":303,
			"type":"VEC3"
		},
		{
			"bufferView":50,
			"componentType":5126,
			"count":303,
			"type":"VEC2"
		},
		{
			"bufferView":51,
			"componentType":5123,
			"count":621,
			"type":"SCALAR"
		},
		{
			"bufferView":52,
			"componentType":5126,
			"count":232,
			"max":[
				12.421875,
				34.484375,
				12.609375
			],
			"min":[
				-13.578125,
				-0.65625,
				-14.6875
			],
			"type":"VEC3"
		},
		{
			"bufferView":53,
			"componentType":5126,
			"count":232,
			"type":"VEC3"
		},
		{
			"bufferView":54,
			"componentType":5126,
			"count":232,
			"type":"VEC2"
		},
		{
			"bufferView":55,
			"componentType":5123,
			"count":570,
			"type":"SCALAR"
		},
		{
			"bufferView":56,
			"componentType":5126,
			"count":181,
			"max":[
				12.421875,
				16.34375,
				12.0625
			],
			"min":[
				-13.578125,
				-0.65625,
				-14.6875
			],
			"type":"VEC3"
		},
		{
			"bufferView":57,
			"componentType":5126,
			"count":181,
			"type":"VEC3"
		},
		{
			"bufferView":58,
			"componentType":5126,
			"count":181,
			"type":"VEC2"
		},
		{
			"bufferView":59,
			"componentType":5123,
			"count":525,
			"type":"SCALAR"
		},
		{
			"bufferView":60,
			"componentType":5126,
			"count":147,
			"max":[
				11.390625,
				32.875,
				12.609375
			],
			"min":[
				-13.578125,
				-0.65625,
				-14.6875
			],
			"type":"VEC3"
		},
		{
			"bufferView":61,
			"componentType":5126,
			"count":147,
			"type":"VEC3"
		},
		{
			"bufferView":62,
			"componentType":5126,
			"count":147,
			"type":"VEC2"
		},
		{
			"bufferView":63,
			"componentType":5123,
			"count":354,
			"type":"SCALAR"
		}
	],
	"bufferViews":[
		{
			"buffer":0,
			"byteLength":7224,
			"byteOffset":0,
			"target":34962
		},
		{
			"buffer":0,
			"byteLength":7224,
			"byteOffset":7224,
			"target":34962
		},
		{
			"buffer":0,
			"byteLength":4816,
			"byteOffset":14448,
			"target":34962
		},
		{
			"buffer":0,
			"byteLength":2022,
			"byteOffset":19264,
			"target":34963
		},
		{
			"buffer":0,
			"byteLength":14208,
			"byteOffset":21288,
			"target":34962
		},
		{
			"buffer":0,
			"byteLength":14208,
			"byteOffset":35496,
			"target":34962
		},
		{
			"buffer":0,
			"byteLength":9472,
			"byteOffset":49704,
			"target":34962
		},
		{
			"buffer":0,
			"byteLength":4932,
			"byteOffset":59176,
			"target":34963
		},
		{
			"buffer":0,
			"byteLength":216,
			"byteOffset":64108,
			"target":34962
		},
		{
			"buffer":0,
			"byteLength":216,
			"byteOffset":64324,
			"target":34962
		},
		{
			"buffer":0,
			"byteLength":144,
			"byteOffset":64540,
			"target":34962
		},
		{
			"buffer":0,
			"byteLength":36,
			"byteOffset":64684,
			"target":34963
		},
		{
			"buffer":0,
			"byteLength":11808,
			"byteOffset":64720,
			"target":34962
		},
		{
			"buffer":0,
			"byteLength":11808,
			"byteOffset":76528,
			"target":34962
		},
		{
			"buffer":0,
			"byteLength":7872,
			"byteOffset":88336,
			"target":34962
		},
		{
			"buffer":0,
			"byteLength":3936,
			"byteOffset":96208,
			"target":34963
		},
		{
			"buffer":0,
			"byteLength":5928,
			"byteOffset":100144,
			"target":34962
		},
		{
			"buffer":0,
			"byteLength":5928,
			"byteOffset":106072,
			"target":34962
		},
		{
			"buffer":0,
			"byteLength":3952,
			"byteOffset":112000,
			"target":34962
		},
		{
			"buffer":0,
			"byteLength":1794,
			"byteOffset":115952,
			"target":34963
		},
		{
			"buffer":0,
			"byteLength":108,
			"byteOffset":117748,
			"target":34962
		},
		{
			"buffer":0,
			"byteLength":108,
			"byteOffset":117856,
			"target":34962
		},
		{
			"buffer":0,
			"byteLength":72,
			"byteOffset":117964,
			"target":34962
		},
		{
			"buffer":0,
			"byteLength":18,
			"byteOffset":118036,
			"target":34963
		},
		{
			"buffer":0,
			"byteLength":9228,
			"byteOffset":118056,
			"target":34962
		},
		{
			"buffer":0,
			"byteLength":9228,
			"byteOffset":127284,
			"target":34962
		},
		{
			"buffer":0,
			"byteLength":6152,
			"byteOffset":136512,
			"target":34962
		},
		{
			"buffer":0,
			"byteLength":3198,
			"byteOffset":142664,
			"target":34963
		},
		{
			"buffer":0,
			"byteLength":4224,
			"byteOffset":145864,
			"target":34962
		},
		{
			"buffer":0,
			"byteLength":4224,
			"byteOffset":150088,
			"target":34962
		},
		{
			"buffer":0,
			"byteLength":2816,
			"byteOffset":154312,
			"target":34962
		},
		{
			"buffer":0,
			"byteLength":1206,
			"byteOffset":157128,
			"target":34963
		},
		{
			"buffer":0,
			"byteLength":108,
			"byteOffset":158336,
			"target":34962
		},
		{
			"buffer":0,
			"byteLength":108,
			"byteOffset":158444,
			"target":34962
		},
		{
			"buffer":0,
			"byteLength":72,
			"byteOffset":158552,
			"target":34962
		},
		{
			"buffer":0,
			"byteLength":18,
			"byteOffset":158624,
			"target":34963
		},
		{
			"buffer":0,
			"byteLength":6312,
			"byteOffset":158644,
			"target":34962
		},
		{
			"buffer":0,
			"byteLength":6312,
			"byteOffset":164956,
			"target":34962
		},
		{
			"buffer":0,
			"byteLength":4208,
			"byteOffset":171268,
			"target":34962
		},
		{
			"buffer":0,
			"byteLength":2238,
			"byteOffset":175476,
			"target":34963
		},
		{
			"buffer":0,
			"byteLength":3600,
			"byteOffset":177716,
			"target":34962
		},
		{
			"buffer":0,
			"byteLength":3600,
			"byteOffset":181316,
			"target":34962
		},
		{
			"buffer":0,
			"byteLength":2400,
			"byteOffset":184916,
			"target":34962
		},
		{
			"buffer":0,
			"byteLength":930,
			"byteOffset":187316,
			"target":34963
		},
		{
			"buffer":0,
			"byteLength":4596,
			"byteOffset":188248,
			"target":34962
		},
		{
			"buffer":0,
			"byteLength":4596,
			"byteOffset":192844,
			"target":34962
		},
		{
			"buffer":0,
			"byteLength":3064,
			"byteOffset":197440,
			"target":34962
		},
		{
			"buffer":0,
			"byteLength":1854,
			"byteOffset":200504,
			"target":34963
		},
		{
			"buffer":0,
			"byteLength":3636,
			"byteOffset":202360,
			"target":34962
		},
		{
			"buffer":0,
			"byteLength":3636,
			"byteOffset":205996,
			"target":34962
		},
		{
			"buffer":0,
			"byteLength":2424,
			"byteOffset":209632,
			"target":34962
		},
		{
			"buffer":0,
			"byteLength":1242,
			"byteOffset":212056,
			"target":34963
		},
		{
			"buffer":0,
			"byteLength":2784,
			"byteOffset":213300,
			"target":34962
		},
		{
			"buffer":0,
			"byteLength":2784,
			"byteOffset":216084,
			"target":34962
		},
		{
			"buffer":0,
			"byteLength":1856,
			"byteOffset":218868,
			"target":34962
		},
		{
			"buffer":0,
			"byteLength":1140,
			"byteOffset":220724,
			"target":34963
		},
		{
			"buffer":0,
			"byteLength":2172,
			"byteOffset":221864,
			"target":34962
		},
		{
			"buffer":0,
			"byteLength":2172,
			"byteOffset":224036,
			"target":34962
		},
		{
			"buffer":0,
			"byteLength":1448,
			"byteOffset":226208,
			"target":34962
		},
		{
			"buffer":0,
			"byteLength":1050,
			"byteOffset":227656,
			"target":34963
		},
		{
			"buffer":0,
			"byteLength":1764,
			"byteOffset":228708,
			"target":34962
		},
		{
			"buffer":0,
			"byteLength":1764,
			"byteOffset":230472,
			"target":34962
		},
		{
			"buffer":0,
			"byteLength":1176,
			"byteOffset":232236,
			"target":34962
		},
		{
			"buffer":0,
			"byteLength":708,
			"byteOffset":233412,
			"target":34963
		}
	],
	"buffers":[
		{
			"byteLength":234120,
			"uri":"sspir4.bin"
		}
	]
}
