{
	"asset":{
		"generator":"Khronos glTF Blender I/O v4.5.48",
		"version":"2.0"
	},
	"scene":0,
	"scenes":[
		{
			"name":"Scene",
			"nodes":[
				0,
				1
			]
		}
	],
	"nodes":[
		{
			"mesh":0,
			"name":"Object"
		},
		{
			"mesh":1,
			"name":"Object.001"
		}
	],
	"materials":[
		{
			"doubleSided":true,
			"name":"SW_FLOORGRATE",
			"pbrMetallicRoughness":{
				"baseColorFactor":[
					0.800000011920929,
					0.800000011920929,
					0.800000011920929,
					1
				],
				"metallicFactor":0,
				"roughnessFactor":0.5
			}
		},
		{
			"doubleSided":true,
			"name":"SW_IWAL01",
			"pbrMetallicRoughness":{
				"baseColorFactor":[
					0.800000011920929,
					0.800000011920929,
					0.800000011920929,
					1
				],
				"metallicFactor":0,
				"roughnessFactor":0.5
			}
		},
		{
			"doubleSided":true,
			"name":"SW_ISPEC03",
			"pbrMetallicRoughness":{
				"baseColorFactor":[
					0.800000011920929,
					0.800000011920929,
					0.800000011920929,
					1
				],
				"metallicFactor":0,
				"roughnessFactor":0.5
			}
		},
		{
			"doubleSided":true,
			"name":"SW_EBOR01",
			"pbrMetallicRoughness":{
				"baseColorFactor":[
					0.800000011920929,
					0.800000011920929,
					0.800000011920929,
					1
				],
				"metallicFactor":0,
				"roughnessFactor":0.5
			}
		},
		{
			"doubleSided":true,
			"name":"SW_IBORLIG01",
			"pbrMetallicRoughness":{
				"baseColorFactor":[
					0.800000011920929,
					0.800000011920929,
					0.800000011920929,
					1
				],
				"metallicFactor":0,
				"roughnessFactor":0.5
			}
		},
		{
			"doubleSided":true,
			"name":"SW_IWAL04",
			"pbrMetallicRoughness":{
				"baseColorFactor":[
					0.800000011920929,
					0.800000011920929,
					0.800000011920929,
					1
				],
				"metallicFactor":0,
				"roughnessFactor":0.5
			}
		},
		{
			"doubleSided":true,
			"name":"SW_ELIG01",
			"pbrMetallicRoughness":{
				"baseColorFactor":[
					0.800000011920929,
					0.800000011920929,
					0.800000011920929,
					1
				],
				"metallicFactor":0,
				"roughnessFactor":0.5
			}
		},
		{
			"doubleSided":true,
			"name":"SW_THRESHGRATE",
			"pbrMetallicRoughness":{
				"baseColorFactor":[
					0.800000011920929,
					0.800000011920929,
					0.800000011920929,
					1
				],
				"metallicFactor":0,
				"roughnessFactor":0.5
			}
		},
		{
			"doubleSided":true,
			"name":"SW_EWAL02",
			"pbrMetallicRoughness":{
				"baseColorFactor":[
					0.800000011920929,
					0.800000011920929,
					0.800000011920929,
					1
				],
				"metallicFactor":0,
				"roughnessFactor":0.5
			}
		},
		{
			"doubleSided":true,
			"name":"SW_FLOORGRATE.001",
			"pbrMetallicRoughness":{
				"baseColorFactor":[
					0.800000011920929,
					0.800000011920929,
					0.800000011920929,
					1
				],
				"metallicFactor":0,
				"roughnessFactor":0.5
			}
		},
		{
			"doubleSided":true,
			"name":"SW_IWAL01.001",
			"pbrMetallicRoughness":{
				"baseColorFactor":[
					0.800000011920929,
					0.800000011920929,
					0.800000011920929,
					1
				],
				"metallicFactor":0,
				"roughnessFactor":0.5
			}
		},
		{
			"doubleSided":true,
			"name":"SW_ISPEC03.001",
			"pbrMetallicRoughness":{
				"baseColorFactor":[
					0.800000011920929,
					0.800000011920929,
					0.800000011920929,
					1
				],
				"metallicFactor":0,
				"roughnessFactor":0.5
			}
		},
		{
			"doubleSided":true,
			"name":"SW_EBOR01.001",
			"pbrMetallicRoughness":{
				"baseColorFactor":[
					0.800000011920929,
					0.800000011920929,
					0.800000011920929,
					1
				],
				"metallicFactor":0,
				"roughnessFactor":0.5
			}
		},
		{
			"doubleSided":true,
			"name":"SW_IBORLIG01.001",
			"pbrMetallicRoughness":{
				"baseColorFactor":[
					0.800000011920929,
					0.800000011920929,
					0.800000011920929,
					1
				],
				"metallicFactor":0,
				"roughnessFactor":0.5
			}
		},
		{
			"doubleSided":true,
			"name":"SW_IWAL04.001",
			"pbrMetallicRoughness":{
				"baseColorFactor":[
					0.800000011920929,
					0.800000011920929,
					0.800000011920929,
					1
				],
				"metallicFactor":0,
				"roughnessFactor":0.5
			}
		},
		{
			"doubleSided":true,
			"name":"SW_ELIG01.001",
			"pbrMetallicRoughness":{
				"baseColorFactor":[
					0.800000011920929,
					0.800000011920929,
					0.800000011920929,
					1
				],
				"metallicFactor":0,
				"roughnessFactor":0.5
			}
		},
		{
			"doubleSided":true,
			"name":"SW_THRESHGRATE.001",
			"pbrMetallicRoughness":{
				"baseColorFactor":[
					0.800000011920929,
					0.800000011920929,
					0.800000011920929,
					1
				],
				"metallicFactor":0,
				"roughnessFactor":0.5
			}
		},
		{
			"doubleSided":true,
			"name":"SW_EWAL02.001",
			"pbrMetallicRoughness":{
				"baseColorFactor":[
					0.800000011920929,
					0.800000011920929,
					0.800000011920929,
					1
				],
				"metallicFactor":0,
				"roughnessFactor":0.5
			}
		}
	],
	"meshes":[
		{
			"name":"Mesh",
			"primitives":[
				{
					"attributes":{
						"POSITION":0,
						"NORMAL":1,
						"TEXCOORD_0":2
					},
					"indices":3,
					"material":0
				},
				{
					"attributes":{
						"POSITION":4,
						"NORMAL":5,
						"TEXCOORD_0":6
					},
					"indices":7,
					"material":1
				},
				{
					"attributes":{
						"POSITION":8,
						"NORMAL":9,
						"TEXCOORD_0":10
					},
					"indices":11,
					"material":2
				},
				{
					"attributes":{
						"POSITION":12,
						"NORMAL":13,
						"TEXCOORD_0":14
					},
					"indices":15,
					"material":3
				},
				{
					"attributes":{
						"POSITION":16,
						"NORMAL":17,
						"TEXCOORD_0":18
					},
					"indices":19,
					"material":4
				},
				{
					"attributes":{
						"POSITION":20,
						"NORMAL":21,
						"TEXCOORD_0":22
					},
					"indices":23,
					"material":5
				},
				{
					"attributes":{
						"POSITION":24,
						"NORMAL":25,
						"TEXCOORD_0":26
					},
					"indices":27,
					"material":6
				},
				{
					"attributes":{
						"POSITION":28,
						"NORMAL":29,
						"TEXCOORD_0":30
					},
					"indices":31,
					"material":7
				},
				{
					"attributes":{
						"POSITION":32,
						"NORMAL":33,
						"TEXCOORD_0":34
					},
					"indices":35,
					"material":8
				}
			]
		},
		{
			"name":"Mesh.001",
			"primitives":[
				{
					"attributes":{
						"POSITION":36,
						"NORMAL":37,
						"TEXCOORD_0":38
					},
					"indices":39,
					"material":9
				},
				{
					"attributes":{
						"POSITION":40,
						"NORMAL":41,
						"TEXCOORD_0":42
					},
					"indices":43,
					"material":10
				},
				{
					"attributes":{
						"POSITION":44,
						"NORMAL":45,
						"TEXCOORD_0":46
					},
					"indices":47,
					"material":11
				},
				{
					"attributes":{
						"POSITION":48,
						"NORMAL":49,
						"TEXCOORD_0":50
					},
					"indices":51,
					"material":12
				},
				{
					"attributes":{
						"POSITION":52,
						"NORMAL":53,
						"TEXCOORD_0":54
					},
					"indices":55,
					"material":13
				},
				{
					"attributes":{
						"POSITION":56,
						"NORMAL":57,
						"TEXCOORD_0":58
					},
					"indices":59,
					"material":14
				},
				{
					"attributes":{
						"POSITION":60,
						"NORMAL":61,
						"TEXCOORD_0":62
					},
					"indices":63,
					"material":15
				},
				{
					"attributes":{
						"POSITION":64,
						"NORMAL":65,
						"TEXCOORD_0":66
					},
					"indices":67,
					"material":16
				},
				{
					"attributes":{
						"POSITION":68,
						"NORMAL":69,
						"TEXCOORD_0":70
					},
					"indices":71,
					"material":17
				}
			]
		}
	],
	"accessors":[
		{
			"bufferView":0,
			"componentType":5126,
			"count":123,
			"max":[
				21,
				2,
				39
			],
			"min":[
				-21,
				-16,
				-75
			],
			"type":"VEC3"
		},
		{
			"bufferView":1,
			"componentType":5126,
			"count":123,
			"type":"VEC3"
		},
		{
			"bufferView":2,
			"componentType":5126,
			"count":123,
			"type":"VEC2"
		},
		{
			"bufferView":3,
			"componentType":5123,
			"count":303,
			"type":"SCALAR"
		},
		{
			"bufferView":4,
			"componentType":5126,
			"count":427,
			"max":[
				21,
				4,
				41
			],
			"min":[
				-21,
				-23,
				-75
			],
			"type":"VEC3"
		},
		{
			"bufferView":5,
			"componentType":5126,
			"count":427,
			"type":"VEC3"
		},
		{
			"bufferView":6,
			"componentType":5126,
			"count":427,
			"type":"VEC2"
		},
		{
			"bufferView":7,
			"componentType":5123,
			"count":897,
			"type":"SCALAR"
		},
		{
			"bufferView":8,
			"componentType":5126,
			"count":209,
			"max":[
				21,
				6,
				41
			],
			"min":[
				-21,
				-2,
				-25
			],
			"type":"VEC3"
		},
		{
			"bufferView":9,
			"componentType":5126,
			"count":209,
			"type":"VEC3"
		},
		{
			"bufferView":10,
			"componentType":5126,
			"count":209,
			"type":"VEC2"
		},
		{
			"bufferView":11,
			"componentType":5123,
			"count":471,
			"type":"SCALAR"
		},
		{
			"bufferView":12,
			"componentType":5126,
			"count":17,
			"max":[
				17,
				0,
				-17.375
			],
			"min":[
				-6,
				-6.80424165725708,
				-39.56443786621094
			],
			"type":"VEC3"
		},
		{
			"bufferView":13,
			"componentType":5126,
			"count":17,
			"type":"VEC3"
		},
		{
			"bufferView":14,
			"componentType":5126,
			"count":17,
			"type":"VEC2"
		},
		{
			"bufferView":15,
			"componentType":5123,
			"count":33,
			"type":"SCALAR"
		},
		{
			"bufferView":16,
			"componentType":5126,
			"count":236,
			"max":[
				21,
				7,
				40.5
			],
			"min":[
				-21,
				0.25,
				-25.25
			],
			"type":"VEC3"
		},
		{
			"bufferView":17,
			"componentType":5126,
			"count":236,
			"type":"VEC3"
		},
		{
			"bufferView":18,
			"componentType":5126,
			"count":236,
			"type":"VEC2"
		},
		{
			"bufferView":19,
			"componentType":5123,
			"count":360,
			"type":"SCALAR"
		},
		{
			"bufferView":20,
			"componentType":5126,
			"count":134,
			"max":[
				21,
				6,
				41
			],
			"min":[
				-21,
				2.5,
				-25
			],
			"type":"VEC3"
		},
		{
			"bufferView":21,
			"componentType":5126,
			"count":134,
			"type":"VEC3"
		},
		{
			"bufferView":22,
			"componentType":5126,
			"count":134,
			"type":"VEC2"
		},
		{
			"bufferView":23,
			"componentType":5123,
			"count":312,
			"type":"SCALAR"
		},
		{
			"bufferView":24,
			"componentType":5126,
			"count":288,
			"max":[
				20.25,
				7,
				40.25
			],
			"min":[
				-20.25,
				-9.25,
				-57.5
			],
			"type":"VEC3"
		},
		{
			"bufferView":25,
			"componentType":5126,
			"count":288,
			"type":"VEC3"
		},
		{
			"bufferView":26,
			"componentType":5126,
			"count":288,
			"type":"VEC2"
		},
		{
			"bufferView":27,
			"componentType":5123,
			"count":450,
			"type":"SCALAR"
		},
		{
			"bufferView":28,
			"componentType":5126,
			"count":224,
			"max":[
				20.75,
				6.5,
				40.5
			],
			"min":[
				-20.75,
				-12.84375,
				-70
			],
			"type":"VEC3"
		},
		{
			"bufferView":29,
			"componentType":5126,
			"count":224,
			"type":"VEC3"
		},
		{
			"bufferView":30,
			"componentType":5126,
			"count":224,
			"type":"VEC2"
		},
		{
			"bufferView":31,
			"componentType":5123,
			"count":360,
			"type":"SCALAR"
		},
		{
			"bufferView":32,
			"componentType":5126,
			"count":650,
			"max":[
				20.75,
				4.5,
				39
			],
			"min":[
				-20.75,
				-23,
				-70
			],
			"type":"VEC3"
		},
		{
			"bufferView":33,
			"componentType":5126,
			"count":650,
			"type":"VEC3"
		},
		{
			"bufferView":34,
			"componentType":5126,
			"count":650,
			"type":"VEC2"
		},
		{
			"bufferView":35,
			"componentType":5123,
			"count":1248,
			"type":"SCALAR"
		},
		{
			"bufferView":36,
			"componentType":5126,
			"count":123,
			"max":[
				21,
				2,
				39
			],
			"min":[
				-21,
				-16,
				-75
			],
			"type":"VEC3"
		},
		{
			"bufferView":37,
			"componentType":5126,
			"count":123,
			"type":"VEC3"
		},
		{
			"bufferView":38,
			"componentType":5126,
			"count":123,
			"type":"VEC2"
		},
		{
			"bufferView":39,
			"componentType":5123,
			"count":303,
			"type":"SCALAR"
		},
		{
			"bufferView":40,
			"componentType":5126,
			"count":379,
			"max":[
				21,
				4.5,
				41
			],
			"min":[
				-21,
				-23,
				-75
			],
			"type":"VEC3"
		},
		{
			"bufferView":41,
			"componentType":5126,
			"count":379,
			"type":"VEC3"
		},
		{
			"bufferView":42,
			"componentType":5126,
			"count":379,
			"type":"VEC2"
		},
		{
			"bufferView":43,
			"componentType":5123,
			"count":804,
			"type":"SCALAR"
		},
		{
			"bufferView":44,
			"componentType":5126,
			"count":211,
			"max":[
				21,
				6,
				41
			],
			"min":[
				-21,
				-2,
				-25
			],
			"type":"VEC3"
		},
		{
			"bufferView":45,
			"componentType":5126,
			"count":211,
			"type":"VEC3"
		},
		{
			"bufferView":46,
			"componentType":5126,
			"count":211,
			"type":"VEC2"
		},
		{
			"bufferView":47,
			"componentType":5123,
			"count":477,
			"type":"SCALAR"
		},
		{
			"bufferView":48,
			"componentType":5126,
			"count":17,
			"max":[
				17,
				0,
				-17.375
			],
			"min":[
				-6,
				-6.80424165725708,
				-39.56443786621094
			],
			"type":"VEC3"
		},
		{
			"bufferView":49,
			"componentType":5126,
			"count":17,
			"type":"VEC3"
		},
		{
			"bufferView":50,
			"componentType":5126,
			"count":17,
			"type":"VEC2"
		},
		{
			"bufferView":51,
			"componentType":5123,
			"count":33,
			"type":"SCALAR"
		},
		{
			"bufferView":52,
			"componentType":5126,
			"count":124,
			"max":[
				21,
				7,
				40.5
			],
			"min":[
				-21,
				2,
				-25
			],
			"type":"VEC3"
		},
		{
			"bufferView":53,
			"componentType":5126,
			"count":124,
			"type":"VEC3"
		},
		{
			"bufferView":54,
			"componentType":5126,
			"count":124,
			"type":"VEC2"
		},
		{
			"bufferView":55,
			"componentType":5123,
			"count":192,
			"type":"SCALAR"
		},
		{
			"bufferView":56,
			"componentType":5126,
			"count":133,
			"max":[
				21,
				6,
				41
			],
			"min":[
				-21,
				2.5,
				-25
			],
			"type":"VEC3"
		},
		{
			"bufferView":57,
			"componentType":5126,
			"count":133,
			"type":"VEC3"
		},
		{
			"bufferView":58,
			"componentType":5126,
			"count":133,
			"type":"VEC2"
		},
		{
			"bufferView":59,
			"componentType":5123,
			"count":306,
			"type":"SCALAR"
		},
		{
			"bufferView":60,
			"componentType":5126,
			"count":264,
			"max":[
				20.25,
				7,
				40.25
			],
			"min":[
				-20.25,
				-9.25,
				-57.5
			],
			"type":"VEC3"
		},
		{
			"bufferView":61,
			"componentType":5126,
			"count":264,
			"type":"VEC3"
		},
		{
			"bufferView":62,
			"componentType":5126,
			"count":264,
			"type":"VEC2"
		},
		{
			"bufferView":63,
			"componentType":5123,
			"count":414,
			"type":"SCALAR"
		},
		{
			"bufferView":64,
			"componentType":5126,
			"count":221,
			"max":[
				20.75,
				6.5,
				40.5
			],
			"min":[
				-20.75,
				-12.84375,
				-70
			],
			"type":"VEC3"
		},
		{
			"bufferView":65,
			"componentType":5126,
			"count":221,
			"type":"VEC3"
		},
		{
			"bufferView":66,
			"componentType":5126,
			"count":221,
			"type":"VEC2"
		},
		{
			"bufferView":67,
			"componentType":5123,
			"count":351,
			"type":"SCALAR"
		},
		{
			"bufferView":68,
			"componentType":5126,
			"count":554,
			"max":[
				20.75,
				4.5,
				39
			],
			"min":[
				-20.75,
				-23,
				-70
			],
			"type":"VEC3"
		},
		{
			"bufferView":69,
			"componentType":5126,
			"count":554,
			"type":"VEC3"
		},
		{
			"bufferView":70,
			"componentType":5126,
			"count":554,
			"type":"VEC2"
		},
		{
			"bufferView":71,
			"componentType":5123,
			"count":1104,
			"type":"SCALAR"
		}
	],
	"bufferViews":[
		{
			"buffer":0,
			"byteLength":1476,
			"byteOffset":0,
			"target":34962
		},
		{
			"buffer":0,
			"byteLength":1476,
			"byteOffset":1476,
			"target":34962
		},
		{
			"buffer":0,
			"byteLength":984,
			"byteOffset":2952,
			"target":34962
		},
		{
			"buffer":0,
			"byteLength":606,
			"byteOffset":3936,
			"target":34963
		},
		{
			"buffer":0,
			"byteLength":5124,
			"byteOffset":4544,
			"target":34962
		},
		{
			"buffer":0,
			"byteLength":5124,
			"byteOffset":9668,
			"target":34962
		},
		{
			"buffer":0,
			"byteLength":3416,
			"byteOffset":14792,
			"target":34962
		},
		{
			"buffer":0,
			"byteLength":1794,
			"byteOffset":18208,
			"target":34963
		},
		{
			"buffer":0,
			"byteLength":2508,
			"byteOffset":20004,
			"target":34962
		},
		{
			"buffer":0,
			"byteLength":2508,
			"byteOffset":22512,
			"target":34962
		},
		{
			"buffer":0,
			"byteLength":1672,
			"byteOffset":25020,
			"target":34962
		},
		{
			"buffer":0,
			"byteLength":942,
			"byteOffset":26692,
			"target":34963
		},
		{
			"buffer":0,
			"byteLength":204,
			"byteOffset":27636,
			"target":34962
		},
		{
			"buffer":0,
			"byteLength":204,
			"byteOffset":27840,
			"target":34962
		},
		{
			"buffer":0,
			"byteLength":136,
			"byteOffset":28044,
			"target":34962
		},
		{
			"buffer":0,
			"byteLength":66,
			"byteOffset":28180,
			"target":34963
		},
		{
			"buffer":0,
			"byteLength":2832,
			"byteOffset":28248,
			"target":34962
		},
		{
			"buffer":0,
			"byteLength":2832,
			"byteOffset":31080,
			"target":34962
		},
		{
			"buffer":0,
			"byteLength":1888,
			"byteOffset":33912,
			"target":34962
		},
		{
			"buffer":0,
			"byteLength":720,
			"byteOffset":35800,
			"target":34963
		},
		{
			"buffer":0,
			"byteLength":1608,
			"byteOffset":36520,
			"target":34962
		},
		{
			"buffer":0,
			"byteLength":1608,
			"byteOffset":38128,
			"target":34962
		},
		{
			"buffer":0,
			"byteLength":1072,
			"byteOffset":39736,
			"target":34962
		},
		{
			"buffer":0,
			"byteLength":624,
			"byteOffset":40808,
			"target":34963
		},
		{
			"buffer":0,
			"byteLength":3456,
			"byteOffset":41432,
			"target":34962
		},
		{
			"buffer":0,
			"byteLength":3456,
			"byteOffset":44888,
			"target":34962
		},
		{
			"buffer":0,
			"byteLength":2304,
			"byteOffset":48344,
			"target":34962
		},
		{
			"buffer":0,
			"byteLength":900,
			"byteOffset":50648,
			"target":34963
		},
		{
			"buffer":0,
			"byteLength":2688,
			"byteOffset":51548,
			"target":34962
		},
		{
			"buffer":0,
			"byteLength":2688,
			"byteOffset":54236,
			"target":34962
		},
		{
			"buffer":0,
			"byteLength":1792,
			"byteOffset":56924,
			"target":34962
		},
		{
			"buffer":0,
			"byteLength":720,
			"byteOffset":58716,
			"target":34963
		},
		{
			"buffer":0,
			"byteLength":7800,
			"byteOffset":59436,
			"target":34962
		},
		{
			"buffer":0,
			"byteLength":7800,
			"byteOffset":67236,
			"target":34962
		},
		{
			"buffer":0,
			"byteLength":5200,
			"byteOffset":75036,
			"target":34962
		},
		{
			"buffer":0,
			"byteLength":2496,
			"byteOffset":80236,
			"target":34963
		},
		{
			"buffer":0,
			"byteLength":1476,
			"byteOffset":82732,
			"target":34962
		},
		{
			"buffer":0,
			"byteLength":1476,
			"byteOffset":84208,
			"target":34962
		},
		{
			"buffer":0,
			"byteLength":984,
			"byteOffset":85684,
			"target":34962
		},
		{
			"buffer":0,
			"byteLength":606,
			"byteOffset":86668,
			"target":34963
		},
		{
			"buffer":0,
			"byteLength":4548,
			"byteOffset":87276,
			"target":34962
		},
		{
			"buffer":0,
			"byteLength":4548,
			"byteOffset":91824,
			"target":34962
		},
		{
			"buffer":0,
			"byteLength":3032,
			"byteOffset":96372,
			"target":34962
		},
		{
			"buffer":0,
			"byteLength":1608,
			"byteOffset":99404,
			"target":34963
		},
		{
			"buffer":0,
			"byteLength":2532,
			"byteOffset":101012,
			"target":34962
		},
		{
			"buffer":0,
			"byteLength":2532,
			"byteOffset":103544,
			"target":34962
		},
		{
			"buffer":0,
			"byteLength":1688,
			"byteOffset":106076,
			"target":34962
		},
		{
			"buffer":0,
			"byteLength":954,
			"byteOffset":107764,
			"target":34963
		},
		{
			"buffer":0,
			"byteLength":204,
			"byteOffset":108720,
			"target":34962
		},
		{
			"buffer":0,
			"byteLength":204,
			"byteOffset":108924,
			"target":34962
		},
		{
			"buffer":0,
			"byteLength":136,
			"byteOffset":109128,
			"target":34962
		},
		{
			"buffer":0,
			"byteLength":66,
			"byteOffset":109264,
			"target":34963
		},
		{
			"buffer":0,
			"byteLength":1488,
			"byteOffset":109332,
			"target":34962
		},
		{
			"buffer":0,
			"byteLength":1488,
			"byteOffset":110820,
			"target":34962
		},
		{
			"buffer":0,
			"byteLength":992,
			"byteOffset":112308,
			"target":34962
		},
		{
			"buffer":0,
			"byteLength":384,
			"byteOffset":113300,
			"target":34963
		},
		{
			"buffer":0,
			"byteLength":1596,
			"byteOffset":113684,
			"target":34962
		},
		{
			"buffer":0,
			"byteLength":1596,
			"byteOffset":115280,
			"target":34962
		},
		{
			"buffer":0,
			"byteLength":1064,
			"byteOffset":116876,
			"target":34962
		},
		{
			"buffer":0,
			"byteLength":612,
			"byteOffset":117940,
			"target":34963
		},
		{
			"buffer":0,
			"byteLength":3168,
			"byteOffset":118552,
			"target":34962
		},
		{
			"buffer":0,
			"byteLength":3168,
			"byteOffset":121720,
			"target":34962
		},
		{
			"buffer":0,
			"byteLength":2112,
			"byteOffset":124888,
			"target":34962
		},
		{
			"buffer":0,
			"byteLength":828,
			"byteOffset":127000,
			"target":34963
		},
		{
			"buffer":0,
			"byteLength":2652,
			"byteOffset":127828,
			"target":34962
		},
		{
			"buffer":0,
			"byteLength":2652,
			"byteOffset":130480,
			"target":34962
		},
		{
			"buffer":0,
			"byteLength":1768,
			"byteOffset":133132,
			"target":34962
		},
		{
			"buffer":0,
			"byteLength":702,
			"byteOffset":134900,
			"target":34963
		},
		{
			"buffer":0,
			"byteLength":6648,
			"byteOffset":135604,
			"target":34962
		},
		{
			"buffer":0,
			"byteLength":6648,
			"byteOffset":142252,
			"target":34962
		},
		{
			"buffer":0,
			"byteLength":4432,
			"byteOffset":148900,
			"target":34962
		},
		{
			"buffer":0,
			"byteLength":2208,
			"byteOffset":153332,
			"target":34963
		}
	],
	"buffers":[
		{
			"byteLength":155540,
			"uri":"svpad.bin"
		}
	]
}
