{
	"asset":{
		"generator":"Khronos glTF Blender I/O v4.5.48",
		"version":"2.0"
	},
	"scene":0,
	"scenes":[
		{
			"name":"Scene",
			"nodes":[
				0
			]
		}
	],
	"nodes":[
		{
			"mesh":0,
			"name":"Object"
		}
	],
	"materials":[
		{
			"doubleSided":true,
			"name":"BD_EWAL16",
			"pbrMetallicRoughness":{
				"baseColorFactor":[
					0.800000011920929,
					0.800000011920929,
					0.800000011920929,
					1
				],
				"metallicFactor":0,
				"roughnessFactor":0.5
			}
		},
		{
			"doubleSided":true,
			"name":"BD_ELIG02",
			"pbrMetallicRoughness":{
				"baseColorFactor":[
					0.800000011920929,
					0.800000011920929,
					0.800000011920929,
					1
				],
				"metallicFactor":0,
				"roughnessFactor":0.5
			}
		},
		{
			"doubleSided":true,
			"name":"BD_EWAL03C",
			"pbrMetallicRoughness":{
				"baseColorFactor":[
					0.800000011920929,
					0.800000011920929,
					0.800000011920929,
					1
				],
				"metallicFactor":0,
				"roughnessFactor":0.5
			}
		},
		{
			"doubleSided":true,
			"name":"BD_EBOR04",
			"pbrMetallicRoughness":{
				"baseColorFactor":[
					0.800000011920929,
					0.800000011920929,
					0.800000011920929,
					1
				],
				"metallicFactor":0,
				"roughnessFactor":0.5
			}
		},
		{
			"doubleSided":true,
			"name":"BD_IFLO01",
			"pbrMetallicRoughness":{
				"baseColorFactor":[
					0.800000011920929,
					0.800000011920929,
					0.800000011920929,
					1
				],
				"metallicFactor":0,
				"roughnessFactor":0.5
			}
		},
		{
			"doubleSided":true,
			"name":"BD_ECOMBO1B",
			"pbrMetallicRoughness":{
				"baseColorFactor":[
					0.800000011920929,
					0.800000011920929,
					0.800000011920929,
					1
				],
				"metallicFactor":0,
				"roughnessFactor":0.5
			}
		},
		{
			"doubleSided":true,
			"name":"BD_EBOR03",
			"pbrMetallicRoughness":{
				"baseColorFactor":[
					0.800000011920929,
					0.800000011920929,
					0.800000011920929,
					1
				],
				"metallicFactor":0,
				"roughnessFactor":0.5
			}
		},
		{
			"doubleSided":true,
			"name":"BD_ICEI03",
			"pbrMetallicRoughness":{
				"baseColorFactor":[
					0.800000011920929,
					0.800000011920929,
					0.800000011920929,
					1
				],
				"metallicFactor":0,
				"roughnessFactor":0.5
			}
		},
		{
			"doubleSided":true,
			"name":"BD_ELIG03A",
			"pbrMetallicRoughness":{
				"baseColorFactor":[
					0.800000011920929,
					0.800000011920929,
					0.800000011920929,
					1
				],
				"metallicFactor":0,
				"roughnessFactor":0.5
			}
		},
		{
			"doubleSided":true,
			"name":"BD_EFLO01",
			"pbrMetallicRoughness":{
				"baseColorFactor":[
					0.800000011920929,
					0.800000011920929,
					0.800000011920929,
					1
				],
				"metallicFactor":0,
				"roughnessFactor":0.5
			}
		},
		{
			"doubleSided":true,
			"name":"BD_ICOMP01",
			"pbrMetallicRoughness":{
				"baseColorFactor":[
					0.800000011920929,
					0.800000011920929,
					0.800000011920929,
					1
				],
				"metallicFactor":0,
				"roughnessFactor":0.5
			}
		}
	],
	"meshes":[
		{
			"name":"Mesh",
			"primitives":[
				{
					"attributes":{
						"POSITION":0,
						"NORMAL":1,
						"TEXCOORD_0":2
					},
					"indices":3,
					"material":0
				},
				{
					"attributes":{
						"POSITION":4,
						"NORMAL":5,
						"TEXCOORD_0":6
					},
					"indices":7,
					"material":1
				},
				{
					"attributes":{
						"POSITION":8,
						"NORMAL":9,
						"TEXCOORD_0":10
					},
					"indices":11,
					"material":2
				},
				{
					"attributes":{
						"POSITION":12,
						"NORMAL":13,
						"TEXCOORD_0":14
					},
					"indices":15,
					"material":3
				},
				{
					"attributes":{
						"POSITION":16,
						"NORMAL":17,
						"TEXCOORD_0":18
					},
					"indices":19,
					"material":4
				},
				{
					"attributes":{
						"POSITION":20,
						"NORMAL":21,
						"TEXCOORD_0":22
					},
					"indices":23,
					"material":5
				},
				{
					"attributes":{
						"POSITION":24,
						"NORMAL":25,
						"TEXCOORD_0":26
					},
					"indices":27,
					"material":6
				},
				{
					"attributes":{
						"POSITION":28,
						"NORMAL":29,
						"TEXCOORD_0":30
					},
					"indices":31,
					"material":7
				},
				{
					"attributes":{
						"POSITION":32,
						"NORMAL":33,
						"TEXCOORD_0":34
					},
					"indices":35,
					"material":8
				},
				{
					"attributes":{
						"POSITION":36,
						"NORMAL":37,
						"TEXCOORD_0":38
					},
					"indices":39,
					"material":9
				},
				{
					"attributes":{
						"POSITION":40,
						"NORMAL":41,
						"TEXCOORD_0":42
					},
					"indices":43,
					"material":10
				}
			]
		}
	],
	"accessors":[
		{
			"bufferView":0,
			"componentType":5126,
			"count":8,
			"max":[
				4,
				10,
				4
			],
			"min":[
				-4,
				10,
				-4
			],
			"type":"VEC3"
		},
		{
			"bufferView":1,
			"componentType":5126,
			"count":8,
			"type":"VEC3"
		},
		{
			"bufferView":2,
			"componentType":5126,
			"count":8,
			"type":"VEC2"
		},
		{
			"bufferView":3,
			"componentType":5123,
			"count":18,
			"type":"SCALAR"
		},
		{
			"bufferView":4,
			"componentType":5126,
			"count":42,
			"max":[
				4,
				10.25,
				4
			],
			"min":[
				-4,
				7.75,
				-4
			],
			"type":"VEC3"
		},
		{
			"bufferView":5,
			"componentType":5126,
			"count":42,
			"type":"VEC3"
		},
		{
			"bufferView":6,
			"componentType":5126,
			"count":42,
			"type":"VEC2"
		},
		{
			"bufferView":7,
			"componentType":5123,
			"count":60,
			"type":"SCALAR"
		},
		{
			"bufferView":8,
			"componentType":5126,
			"count":104,
			"max":[
				20,
				10,
				19
			],
			"min":[
				-20,
				-2.75,
				-19
			],
			"type":"VEC3"
		},
		{
			"bufferView":9,
			"componentType":5126,
			"count":104,
			"type":"VEC3"
		},
		{
			"bufferView":10,
			"componentType":5126,
			"count":104,
			"type":"VEC2"
		},
		{
			"bufferView":11,
			"componentType":5123,
			"count":150,
			"type":"SCALAR"
		},
		{
			"bufferView":12,
			"componentType":5126,
			"count":694,
			"max":[
				20,
				10.25,
				19
			],
			"min":[
				-20,
				-2.75,
				-19
			],
			"type":"VEC3"
		},
		{
			"bufferView":13,
			"componentType":5126,
			"count":694,
			"type":"VEC3"
		},
		{
			"bufferView":14,
			"componentType":5126,
			"count":694,
			"type":"VEC2"
		},
		{
			"bufferView":15,
			"componentType":5123,
			"count":1488,
			"type":"SCALAR"
		},
		{
			"bufferView":16,
			"componentType":5126,
			"count":16,
			"max":[
				20,
				2,
				19
			],
			"min":[
				-20,
				-6.75,
				-19
			],
			"type":"VEC3"
		},
		{
			"bufferView":17,
			"componentType":5126,
			"count":16,
			"type":"VEC3"
		},
		{
			"bufferView":18,
			"componentType":5126,
			"count":16,
			"type":"VEC2"
		},
		{
			"bufferView":19,
			"componentType":5123,
			"count":36,
			"type":"SCALAR"
		},
		{
			"bufferView":20,
			"componentType":5126,
			"count":32,
			"max":[
				20,
				-2.75,
				19
			],
			"min":[
				-20,
				-6.75,
				-19
			],
			"type":"VEC3"
		},
		{
			"bufferView":21,
			"componentType":5126,
			"count":32,
			"type":"VEC3"
		},
		{
			"bufferView":22,
			"componentType":5126,
			"count":32,
			"type":"VEC2"
		},
		{
			"bufferView":23,
			"componentType":5123,
			"count":48,
			"type":"SCALAR"
		},
		{
			"bufferView":24,
			"componentType":5126,
			"count":32,
			"max":[
				10.903143882751465,
				1.625,
				10.903143882751465
			],
			"min":[
				-10.903143882751465,
				1.1903408765792847,
				-10.903143882751465
			],
			"type":"VEC3"
		},
		{
			"bufferView":25,
			"componentType":5126,
			"count":32,
			"type":"VEC3"
		},
		{
			"bufferView":26,
			"componentType":5126,
			"count":32,
			"type":"VEC2"
		},
		{
			"bufferView":27,
			"componentType":5123,
			"count":42,
			"type":"SCALAR"
		},
		{
			"bufferView":28,
			"componentType":5126,
			"count":444,
			"max":[
				10.87353515625,
				10,
				10.87646484375
			],
			"min":[
				-10.87646484375,
				2,
				-10.87353515625
			],
			"type":"VEC3"
		},
		{
			"bufferView":29,
			"componentType":5126,
			"count":444,
			"type":"VEC3"
		},
		{
			"bufferView":30,
			"componentType":5126,
			"count":444,
			"type":"VEC2"
		},
		{
			"bufferView":31,
			"componentType":5123,
			"count":858,
			"type":"SCALAR"
		},
		{
			"bufferView":32,
			"componentType":5126,
			"count":52,
			"max":[
				9.875,
				8,
				9.875
			],
			"min":[
				-9.875,
				3.875,
				-9.875
			],
			"type":"VEC3"
		},
		{
			"bufferView":33,
			"componentType":5126,
			"count":52,
			"type":"VEC3"
		},
		{
			"bufferView":34,
			"componentType":5126,
			"count":52,
			"type":"VEC2"
		},
		{
			"bufferView":35,
			"componentType":5123,
			"count":78,
			"type":"SCALAR"
		},
		{
			"bufferView":36,
			"componentType":5126,
			"count":52,
			"max":[
				9,
				10.25,
				9
			],
			"min":[
				-9.5,
				7,
				-9
			],
			"type":"VEC3"
		},
		{
			"bufferView":37,
			"componentType":5126,
			"count":52,
			"type":"VEC3"
		},
		{
			"bufferView":38,
			"componentType":5126,
			"count":52,
			"type":"VEC2"
		},
		{
			"bufferView":39,
			"componentType":5123,
			"count":78,
			"type":"SCALAR"
		},
		{
			"bufferView":40,
			"componentType":5126,
			"count":52,
			"max":[
				9,
				3,
				9
			],
			"min":[
				-9,
				2,
				-9
			],
			"type":"VEC3"
		},
		{
			"bufferView":41,
			"componentType":5126,
			"count":52,
			"type":"VEC3"
		},
		{
			"bufferView":42,
			"componentType":5126,
			"count":52,
			"type":"VEC2"
		},
		{
			"bufferView":43,
			"componentType":5123,
			"count":108,
			"type":"SCALAR"
		}
	],
	"bufferViews":[
		{
			"buffer":0,
			"byteLength":96,
			"byteOffset":0,
			"target":34962
		},
		{
			"buffer":0,
			"byteLength":96,
			"byteOffset":96,
			"target":34962
		},
		{
			"buffer":0,
			"byteLength":64,
			"byteOffset":192,
			"target":34962
		},
		{
			"buffer":0,
			"byteLength":36,
			"byteOffset":256,
			"target":34963
		},
		{
			"buffer":0,
			"byteLength":504,
			"byteOffset":292,
			"target":34962
		},
		{
			"buffer":0,
			"byteLength":504,
			"byteOffset":796,
			"target":34962
		},
		{
			"buffer":0,
			"byteLength":336,
			"byteOffset":1300,
			"target":34962
		},
		{
			"buffer":0,
			"byteLength":120,
			"byteOffset":1636,
			"target":34963
		},
		{
			"buffer":0,
			"byteLength":1248,
			"byteOffset":1756,
			"target":34962
		},
		{
			"buffer":0,
			"byteLength":1248,
			"byteOffset":3004,
			"target":34962
		},
		{
			"buffer":0,
			"byteLength":832,
			"byteOffset":4252,
			"target":34962
		},
		{
			"buffer":0,
			"byteLength":300,
			"byteOffset":5084,
			"target":34963
		},
		{
			"buffer":0,
			"byteLength":8328,
			"byteOffset":5384,
			"target":34962
		},
		{
			"buffer":0,
			"byteLength":8328,
			"byteOffset":13712,
			"target":34962
		},
		{
			"buffer":0,
			"byteLength":5552,
			"byteOffset":22040,
			"target":34962
		},
		{
			"buffer":0,
			"byteLength":2976,
			"byteOffset":27592,
			"target":34963
		},
		{
			"buffer":0,
			"byteLength":192,
			"byteOffset":30568,
			"target":34962
		},
		{
			"buffer":0,
			"byteLength":192,
			"byteOffset":30760,
			"target":34962
		},
		{
			"buffer":0,
			"byteLength":128,
			"byteOffset":30952,
			"target":34962
		},
		{
			"buffer":0,
			"byteLength":72,
			"byteOffset":31080,
			"target":34963
		},
		{
			"buffer":0,
			"byteLength":384,
			"byteOffset":31152,
			"target":34962
		},
		{
			"buffer":0,
			"byteLength":384,
			"byteOffset":31536,
			"target":34962
		},
		{
			"buffer":0,
			"byteLength":256,
			"byteOffset":31920,
			"target":34962
		},
		{
			"buffer":0,
			"byteLength":96,
			"byteOffset":32176,
			"target":34963
		},
		{
			"buffer":0,
			"byteLength":384,
			"byteOffset":32272,
			"target":34962
		},
		{
			"buffer":0,
			"byteLength":384,
			"byteOffset":32656,
			"target":34962
		},
		{
			"buffer":0,
			"byteLength":256,
			"byteOffset":33040,
			"target":34962
		},
		{
			"buffer":0,
			"byteLength":84,
			"byteOffset":33296,
			"target":34963
		},
		{
			"buffer":0,
			"byteLength":5328,
			"byteOffset":33380,
			"target":34962
		},
		{
			"buffer":0,
			"byteLength":5328,
			"byteOffset":38708,
			"target":34962
		},
		{
			"buffer":0,
			"byteLength":3552,
			"byteOffset":44036,
			"target":34962
		},
		{
			"buffer":0,
			"byteLength":1716,
			"byteOffset":47588,
			"target":34963
		},
		{
			"buffer":0,
			"byteLength":624,
			"byteOffset":49304,
			"target":34962
		},
		{
			"buffer":0,
			"byteLength":624,
			"byteOffset":49928,
			"target":34962
		},
		{
			"buffer":0,
			"byteLength":416,
			"byteOffset":50552,
			"target":34962
		},
		{
			"buffer":0,
			"byteLength":156,
			"byteOffset":50968,
			"target":34963
		},
		{
			"buffer":0,
			"byteLength":624,
			"byteOffset":51124,
			"target":34962
		},
		{
			"buffer":0,
			"byteLength":624,
			"byteOffset":51748,
			"target":34962
		},
		{
			"buffer":0,
			"byteLength":416,
			"byteOffset":52372,
			"target":34962
		},
		{
			"buffer":0,
			"byteLength":156,
			"byteOffset":52788,
			"target":34963
		},
		{
			"buffer":0,
			"byteLength":624,
			"byteOffset":52944,
			"target":34962
		},
		{
			"buffer":0,
			"byteLength":624,
			"byteOffset":53568,
			"target":34962
		},
		{
			"buffer":0,
			"byteLength":416,
			"byteOffset":54192,
			"target":34962
		},
		{
			"buffer":0,
			"byteLength":216,
			"byteOffset":54608,
			"target":34963
		}
	],
	"buffers":[
		{
			"byteLength":54824,
			"uri":"xbunk5.bin"
		}
	]
}
