{
	"asset":{
		"generator":"Khronos glTF Blender I/O v4.5.48",
		"version":"2.0"
	},
	"scene":0,
	"scenes":[
		{
			"name":"Scene",
			"nodes":[
				0,
				1,
				2
			]
		}
	],
	"nodes":[
		{
			"mesh":0,
			"name":"Object"
		},
		{
			"mesh":1,
			"name":"Object.001"
		},
		{
			"mesh":2,
			"name":"Object.002"
		}
	],
	"materials":[
		{
			"doubleSided":true,
			"name":"BD_EWAL03C",
			"pbrMetallicRoughness":{
				"baseColorFactor":[
					0.800000011920929,
					0.800000011920929,
					0.800000011920929,
					1
				],
				"metallicFactor":0,
				"roughnessFactor":0.5
			}
		},
		{
			"doubleSided":true,
			"name":"BD_EBOR02",
			"pbrMetallicRoughness":{
				"baseColorFactor":[
					0.800000011920929,
					0.800000011920929,
					0.800000011920929,
					1
				],
				"metallicFactor":0,
				"roughnessFactor":0.5
			}
		},
		{
			"doubleSided":true,
			"name":"BD_IBOR10",
			"pbrMetallicRoughness":{
				"baseColorFactor":[
					0.800000011920929,
					0.800000011920929,
					0.800000011920929,
					1
				],
				"metallicFactor":0,
				"roughnessFactor":0.5
			}
		},
		{
			"doubleSided":true,
			"name":"BD_IBOR03",
			"pbrMetallicRoughness":{
				"baseColorFactor":[
					0.800000011920929,
					0.800000011920929,
					0.800000011920929,
					1
				],
				"metallicFactor":0,
				"roughnessFactor":0.5
			}
		},
		{
			"doubleSided":true,
			"name":"BD_EBOR03",
			"pbrMetallicRoughness":{
				"baseColorFactor":[
					0.800000011920929,
					0.800000011920929,
					0.800000011920929,
					1
				],
				"metallicFactor":0,
				"roughnessFactor":0.5
			}
		},
		{
			"doubleSided":true,
			"name":"BD_THRESH02A",
			"pbrMetallicRoughness":{
				"baseColorFactor":[
					0.800000011920929,
					0.800000011920929,
					0.800000011920929,
					1
				],
				"metallicFactor":0,
				"roughnessFactor":0.5
			}
		},
		{
			"doubleSided":true,
			"name":"BD_EWAL03C.001",
			"pbrMetallicRoughness":{
				"baseColorFactor":[
					0.800000011920929,
					0.800000011920929,
					0.800000011920929,
					1
				],
				"metallicFactor":0,
				"roughnessFactor":0.5
			}
		},
		{
			"doubleSided":true,
			"name":"BD_EBOR02.001",
			"pbrMetallicRoughness":{
				"baseColorFactor":[
					0.800000011920929,
					0.800000011920929,
					0.800000011920929,
					1
				],
				"metallicFactor":0,
				"roughnessFactor":0.5
			}
		},
		{
			"doubleSided":true,
			"name":"BD_IBOR10.001",
			"pbrMetallicRoughness":{
				"baseColorFactor":[
					0.800000011920929,
					0.800000011920929,
					0.800000011920929,
					1
				],
				"metallicFactor":0,
				"roughnessFactor":0.5
			}
		},
		{
			"doubleSided":true,
			"name":"BD_IBOR03.001",
			"pbrMetallicRoughness":{
				"baseColorFactor":[
					0.800000011920929,
					0.800000011920929,
					0.800000011920929,
					1
				],
				"metallicFactor":0,
				"roughnessFactor":0.5
			}
		},
		{
			"doubleSided":true,
			"name":"BD_THRESH02A.001",
			"pbrMetallicRoughness":{
				"baseColorFactor":[
					0.800000011920929,
					0.800000011920929,
					0.800000011920929,
					1
				],
				"metallicFactor":0,
				"roughnessFactor":0.5
			}
		},
		{
			"doubleSided":true,
			"name":"BD_IBOR04.001",
			"pbrMetallicRoughness":{
				"baseColorFactor":[
					0.800000011920929,
					0.800000011920929,
					0.800000011920929,
					1
				],
				"metallicFactor":0,
				"roughnessFactor":0.5
			}
		},
		{
			"doubleSided":true,
			"name":"BD_EBOR03.001",
			"pbrMetallicRoughness":{
				"baseColorFactor":[
					0.800000011920929,
					0.800000011920929,
					0.800000011920929,
					1
				],
				"metallicFactor":0,
				"roughnessFactor":0.5
			}
		},
		{
			"doubleSided":true,
			"name":"BD_EWAL03C.002",
			"pbrMetallicRoughness":{
				"baseColorFactor":[
					0.800000011920929,
					0.800000011920929,
					0.800000011920929,
					1
				],
				"metallicFactor":0,
				"roughnessFactor":0.5
			}
		},
		{
			"doubleSided":true,
			"name":"BD_EBOR02.002",
			"pbrMetallicRoughness":{
				"baseColorFactor":[
					0.800000011920929,
					0.800000011920929,
					0.800000011920929,
					1
				],
				"metallicFactor":0,
				"roughnessFactor":0.5
			}
		},
		{
			"doubleSided":true,
			"name":"BD_IBOR10.002",
			"pbrMetallicRoughness":{
				"baseColorFactor":[
					0.800000011920929,
					0.800000011920929,
					0.800000011920929,
					1
				],
				"metallicFactor":0,
				"roughnessFactor":0.5
			}
		},
		{
			"doubleSided":true,
			"name":"BD_IBOR03.002",
			"pbrMetallicRoughness":{
				"baseColorFactor":[
					0.800000011920929,
					0.800000011920929,
					0.800000011920929,
					1
				],
				"metallicFactor":0,
				"roughnessFactor":0.5
			}
		},
		{
			"doubleSided":true,
			"name":"BD_THRESH02A.002",
			"pbrMetallicRoughness":{
				"baseColorFactor":[
					0.800000011920929,
					0.800000011920929,
					0.800000011920929,
					1
				],
				"metallicFactor":0,
				"roughnessFactor":0.5
			}
		},
		{
			"doubleSided":true,
			"name":"BD_IBOR04.002",
			"pbrMetallicRoughness":{
				"baseColorFactor":[
					0.800000011920929,
					0.800000011920929,
					0.800000011920929,
					1
				],
				"metallicFactor":0,
				"roughnessFactor":0.5
			}
		},
		{
			"doubleSided":true,
			"name":"BD_EBOR03.002",
			"pbrMetallicRoughness":{
				"baseColorFactor":[
					0.800000011920929,
					0.800000011920929,
					0.800000011920929,
					1
				],
				"metallicFactor":0,
				"roughnessFactor":0.5
			}
		}
	],
	"meshes":[
		{
			"name":"Mesh",
			"primitives":[
				{
					"attributes":{
						"POSITION":0,
						"NORMAL":1,
						"TEXCOORD_0":2
					},
					"indices":3,
					"material":0
				},
				{
					"attributes":{
						"POSITION":4,
						"NORMAL":5,
						"TEXCOORD_0":6
					},
					"indices":7,
					"material":1
				},
				{
					"attributes":{
						"POSITION":8,
						"NORMAL":9,
						"TEXCOORD_0":10
					},
					"indices":11,
					"material":2
				},
				{
					"attributes":{
						"POSITION":12,
						"NORMAL":13,
						"TEXCOORD_0":14
					},
					"indices":15,
					"material":3
				},
				{
					"attributes":{
						"POSITION":16,
						"NORMAL":17,
						"TEXCOORD_0":18
					},
					"indices":19,
					"material":4
				},
				{
					"attributes":{
						"POSITION":20,
						"NORMAL":21,
						"TEXCOORD_0":22
					},
					"indices":23,
					"material":5
				}
			]
		},
		{
			"name":"Mesh.001",
			"primitives":[
				{
					"attributes":{
						"POSITION":24,
						"NORMAL":25,
						"TEXCOORD_0":26
					},
					"indices":27,
					"material":6
				},
				{
					"attributes":{
						"POSITION":28,
						"NORMAL":29,
						"TEXCOORD_0":30
					},
					"indices":31,
					"material":7
				},
				{
					"attributes":{
						"POSITION":32,
						"NORMAL":33,
						"TEXCOORD_0":34
					},
					"indices":35,
					"material":8
				},
				{
					"attributes":{
						"POSITION":36,
						"NORMAL":37,
						"TEXCOORD_0":38
					},
					"indices":39,
					"material":9
				},
				{
					"attributes":{
						"POSITION":40,
						"NORMAL":41,
						"TEXCOORD_0":42
					},
					"indices":43,
					"material":10
				},
				{
					"attributes":{
						"POSITION":44,
						"NORMAL":45,
						"TEXCOORD_0":46
					},
					"indices":47,
					"material":11
				},
				{
					"attributes":{
						"POSITION":48,
						"NORMAL":49,
						"TEXCOORD_0":50
					},
					"indices":51,
					"material":12
				}
			]
		},
		{
			"name":"Mesh.002",
			"primitives":[
				{
					"attributes":{
						"POSITION":52,
						"NORMAL":53,
						"TEXCOORD_0":54
					},
					"indices":55,
					"material":13
				},
				{
					"attributes":{
						"POSITION":56,
						"NORMAL":57,
						"TEXCOORD_0":58
					},
					"indices":59,
					"material":14
				},
				{
					"attributes":{
						"POSITION":60,
						"NORMAL":61,
						"TEXCOORD_0":62
					},
					"indices":63,
					"material":15
				},
				{
					"attributes":{
						"POSITION":64,
						"NORMAL":65,
						"TEXCOORD_0":66
					},
					"indices":67,
					"material":16
				},
				{
					"attributes":{
						"POSITION":68,
						"NORMAL":69,
						"TEXCOORD_0":70
					},
					"indices":71,
					"material":17
				},
				{
					"attributes":{
						"POSITION":72,
						"NORMAL":73,
						"TEXCOORD_0":74
					},
					"indices":75,
					"material":18
				},
				{
					"attributes":{
						"POSITION":76,
						"NORMAL":77,
						"TEXCOORD_0":78
					},
					"indices":79,
					"material":19
				}
			]
		}
	],
	"accessors":[
		{
			"bufferView":0,
			"componentType":5126,
			"count":142,
			"max":[
				5.75,
				26.0625,
				4.21875
			],
			"min":[
				-5.75,
				0,
				-9.53125
			],
			"type":"VEC3"
		},
		{
			"bufferView":1,
			"componentType":5126,
			"count":142,
			"type":"VEC3"
		},
		{
			"bufferView":2,
			"componentType":5126,
			"count":142,
			"type":"VEC2"
		},
		{
			"bufferView":3,
			"componentType":5123,
			"count":348,
			"type":"SCALAR"
		},
		{
			"bufferView":4,
			"componentType":5126,
			"count":176,
			"max":[
				5.75,
				23.5625,
				2.71875
			],
			"min":[
				-5.75,
				0.5,
				-8.90625
			],
			"type":"VEC3"
		},
		{
			"bufferView":5,
			"componentType":5126,
			"count":176,
			"type":"VEC3"
		},
		{
			"bufferView":6,
			"componentType":5126,
			"count":176,
			"type":"VEC2"
		},
		{
			"bufferView":7,
			"componentType":5123,
			"count":462,
			"type":"SCALAR"
		},
		{
			"bufferView":8,
			"componentType":5126,
			"count":331,
			"max":[
				3.75,
				24.1875,
				4.21875
			],
			"min":[
				-3.75,
				0,
				-9.53125
			],
			"type":"VEC3"
		},
		{
			"bufferView":9,
			"componentType":5126,
			"count":331,
			"type":"VEC3"
		},
		{
			"bufferView":10,
			"componentType":5126,
			"count":331,
			"type":"VEC2"
		},
		{
			"bufferView":11,
			"componentType":5123,
			"count":789,
			"type":"SCALAR"
		},
		{
			"bufferView":12,
			"componentType":5126,
			"count":349,
			"max":[
				3.25,
				24.1875,
				2.46875
			],
			"min":[
				-3.25,
				1.5625,
				-4.28125
			],
			"type":"VEC3"
		},
		{
			"bufferView":13,
			"componentType":5126,
			"count":349,
			"type":"VEC3"
		},
		{
			"bufferView":14,
			"componentType":5126,
			"count":349,
			"type":"VEC2"
		},
		{
			"bufferView":15,
			"componentType":5123,
			"count":759,
			"type":"SCALAR"
		},
		{
			"bufferView":16,
			"componentType":5126,
			"count":20,
			"max":[
				3.75,
				1.5625,
				4.21875
			],
			"min":[
				-3.75,
				0.5,
				-4.28125
			],
			"type":"VEC3"
		},
		{
			"bufferView":17,
			"componentType":5126,
			"count":20,
			"type":"VEC3"
		},
		{
			"bufferView":18,
			"componentType":5126,
			"count":20,
			"type":"VEC2"
		},
		{
			"bufferView":19,
			"componentType":5123,
			"count":36,
			"type":"SCALAR"
		},
		{
			"bufferView":20,
			"componentType":5126,
			"count":86,
			"max":[
				5.75,
				26.0625,
				3.25
			],
			"min":[
				-5.75,
				8.5625,
				-3.28125
			],
			"type":"VEC3"
		},
		{
			"bufferView":21,
			"componentType":5126,
			"count":86,
			"type":"VEC3"
		},
		{
			"bufferView":22,
			"componentType":5126,
			"count":86,
			"type":"VEC2"
		},
		{
			"bufferView":23,
			"componentType":5123,
			"count":198,
			"type":"SCALAR"
		},
		{
			"bufferView":24,
			"componentType":5126,
			"count":134,
			"max":[
				5.75,
				26.0625,
				4.25
			],
			"min":[
				-5.75,
				0,
				-9.5
			],
			"type":"VEC3"
		},
		{
			"bufferView":25,
			"componentType":5126,
			"count":134,
			"type":"VEC3"
		},
		{
			"bufferView":26,
			"componentType":5126,
			"count":134,
			"type":"VEC2"
		},
		{
			"bufferView":27,
			"componentType":5123,
			"count":306,
			"type":"SCALAR"
		},
		{
			"bufferView":28,
			"componentType":5126,
			"count":180,
			"max":[
				5.75,
				23.5625,
				2.75
			],
			"min":[
				-5.75,
				0.4375,
				-8.875
			],
			"type":"VEC3"
		},
		{
			"bufferView":29,
			"componentType":5126,
			"count":180,
			"type":"VEC3"
		},
		{
			"bufferView":30,
			"componentType":5126,
			"count":180,
			"type":"VEC2"
		},
		{
			"bufferView":31,
			"componentType":5123,
			"count":354,
			"type":"SCALAR"
		},
		{
			"bufferView":32,
			"componentType":5126,
			"count":266,
			"max":[
				3.75,
				24.1875,
				4.25
			],
			"min":[
				-3.75,
				0,
				-9.5
			],
			"type":"VEC3"
		},
		{
			"bufferView":33,
			"componentType":5126,
			"count":266,
			"type":"VEC3"
		},
		{
			"bufferView":34,
			"componentType":5126,
			"count":266,
			"type":"VEC2"
		},
		{
			"bufferView":35,
			"componentType":5123,
			"count":624,
			"type":"SCALAR"
		},
		{
			"bufferView":36,
			"componentType":5126,
			"count":134,
			"max":[
				2,
				24.1875,
				2.5
			],
			"min":[
				-2.03125,
				1.5,
				-4.25
			],
			"type":"VEC3"
		},
		{
			"bufferView":37,
			"componentType":5126,
			"count":134,
			"type":"VEC3"
		},
		{
			"bufferView":38,
			"componentType":5126,
			"count":134,
			"type":"VEC2"
		},
		{
			"bufferView":39,
			"componentType":5123,
			"count":258,
			"type":"SCALAR"
		},
		{
			"bufferView":40,
			"componentType":5126,
			"count":60,
			"max":[
				5.75,
				26.0625,
				3.25
			],
			"min":[
				-5.75,
				8.5625,
				-3.28125
			],
			"type":"VEC3"
		},
		{
			"bufferView":41,
			"componentType":5126,
			"count":60,
			"type":"VEC3"
		},
		{
			"bufferView":42,
			"componentType":5126,
			"count":60,
			"type":"VEC2"
		},
		{
			"bufferView":43,
			"componentType":5123,
			"count":96,
			"type":"SCALAR"
		},
		{
			"bufferView":44,
			"componentType":5126,
			"count":4,
			"max":[
				-2,
				8.4375,
				0.5
			],
			"min":[
				-2.03125,
				8.4375,
				-0.5
			],
			"type":"VEC3"
		},
		{
			"bufferView":45,
			"componentType":5126,
			"count":4,
			"type":"VEC3"
		},
		{
			"bufferView":46,
			"componentType":5126,
			"count":4,
			"type":"VEC2"
		},
		{
			"bufferView":47,
			"componentType":5123,
			"count":6,
			"type":"SCALAR"
		},
		{
			"bufferView":48,
			"componentType":5126,
			"count":20,
			"max":[
				3.75,
				1.5,
				4.25
			],
			"min":[
				-3.75,
				0.4375,
				-4.25
			],
			"type":"VEC3"
		},
		{
			"bufferView":49,
			"componentType":5126,
			"count":20,
			"type":"VEC3"
		},
		{
			"bufferView":50,
			"componentType":5126,
			"count":20,
			"type":"VEC2"
		},
		{
			"bufferView":51,
			"componentType":5123,
			"count":36,
			"type":"SCALAR"
		},
		{
			"bufferView":52,
			"componentType":5126,
			"count":72,
			"max":[
				5.75,
				26.0625,
				3.25
			],
			"min":[
				-5.75,
				0,
				-9.5
			],
			"type":"VEC3"
		},
		{
			"bufferView":53,
			"componentType":5126,
			"count":72,
			"type":"VEC3"
		},
		{
			"bufferView":54,
			"componentType":5126,
			"count":72,
			"type":"VEC2"
		},
		{
			"bufferView":55,
			"componentType":5123,
			"count":144,
			"type":"SCALAR"
		},
		{
			"bufferView":56,
			"componentType":5126,
			"count":120,
			"max":[
				5.75,
				23.5625,
				4.25
			],
			"min":[
				-5.75,
				0,
				-9
			],
			"type":"VEC3"
		},
		{
			"bufferView":57,
			"componentType":5126,
			"count":120,
			"type":"VEC3"
		},
		{
			"bufferView":58,
			"componentType":5126,
			"count":120,
			"type":"VEC2"
		},
		{
			"bufferView":59,
			"componentType":5123,
			"count":252,
			"type":"SCALAR"
		},
		{
			"bufferView":60,
			"componentType":5126,
			"count":148,
			"max":[
				3.75,
				24.0625,
				2.5
			],
			"min":[
				-3.75,
				0,
				-9.5
			],
			"type":"VEC3"
		},
		{
			"bufferView":61,
			"componentType":5126,
			"count":148,
			"type":"VEC3"
		},
		{
			"bufferView":62,
			"componentType":5126,
			"count":148,
			"type":"VEC2"
		},
		{
			"bufferView":63,
			"componentType":5123,
			"count":324,
			"type":"SCALAR"
		},
		{
			"bufferView":64,
			"componentType":5126,
			"count":84,
			"max":[
				2,
				24.0625,
				2.5
			],
			"min":[
				-2.03125,
				1.5,
				-2.5
			],
			"type":"VEC3"
		},
		{
			"bufferView":65,
			"componentType":5126,
			"count":84,
			"type":"VEC3"
		},
		{
			"bufferView":66,
			"componentType":5126,
			"count":84,
			"type":"VEC2"
		},
		{
			"bufferView":67,
			"componentType":5123,
			"count":168,
			"type":"SCALAR"
		},
		{
			"bufferView":68,
			"componentType":5126,
			"count":56,
			"max":[
				5.75,
				26.0625,
				3.25
			],
			"min":[
				-5.75,
				8.5625,
				-3.28125
			],
			"type":"VEC3"
		},
		{
			"bufferView":69,
			"componentType":5126,
			"count":56,
			"type":"VEC3"
		},
		{
			"bufferView":70,
			"componentType":5126,
			"count":56,
			"type":"VEC2"
		},
		{
			"bufferView":71,
			"componentType":5123,
			"count":84,
			"type":"SCALAR"
		},
		{
			"bufferView":72,
			"componentType":5126,
			"count":4,
			"max":[
				-2,
				8.4375,
				0.5
			],
			"min":[
				-2.03125,
				8.4375,
				-0.5
			],
			"type":"VEC3"
		},
		{
			"bufferView":73,
			"componentType":5126,
			"count":4,
			"type":"VEC3"
		},
		{
			"bufferView":74,
			"componentType":5126,
			"count":4,
			"type":"VEC2"
		},
		{
			"bufferView":75,
			"componentType":5123,
			"count":6,
			"type":"SCALAR"
		},
		{
			"bufferView":76,
			"componentType":5126,
			"count":22,
			"max":[
				3.75,
				1.5,
				4.25
			],
			"min":[
				-3.75,
				0,
				-4.25
			],
			"type":"VEC3"
		},
		{
			"bufferView":77,
			"componentType":5126,
			"count":22,
			"type":"VEC3"
		},
		{
			"bufferView":78,
			"componentType":5126,
			"count":22,
			"type":"VEC2"
		},
		{
			"bufferView":79,
			"componentType":5123,
			"count":42,
			"type":"SCALAR"
		}
	],
	"bufferViews":[
		{
			"buffer":0,
			"byteLength":1704,
			"byteOffset":0,
			"target":34962
		},
		{
			"buffer":0,
			"byteLength":1704,
			"byteOffset":1704,
			"target":34962
		},
		{
			"buffer":0,
			"byteLength":1136,
			"byteOffset":3408,
			"target":34962
		},
		{
			"buffer":0,
			"byteLength":696,
			"byteOffset":4544,
			"target":34963
		},
		{
			"buffer":0,
			"byteLength":2112,
			"byteOffset":5240,
			"target":34962
		},
		{
			"buffer":0,
			"byteLength":2112,
			"byteOffset":7352,
			"target":34962
		},
		{
			"buffer":0,
			"byteLength":1408,
			"byteOffset":9464,
			"target":34962
		},
		{
			"buffer":0,
			"byteLength":924,
			"byteOffset":10872,
			"target":34963
		},
		{
			"buffer":0,
			"byteLength":3972,
			"byteOffset":11796,
			"target":34962
		},
		{
			"buffer":0,
			"byteLength":3972,
			"byteOffset":15768,
			"target":34962
		},
		{
			"buffer":0,
			"byteLength":2648,
			"byteOffset":19740,
			"target":34962
		},
		{
			"buffer":0,
			"byteLength":1578,
			"byteOffset":22388,
			"target":34963
		},
		{
			"buffer":0,
			"byteLength":4188,
			"byteOffset":23968,
			"target":34962
		},
		{
			"buffer":0,
			"byteLength":4188,
			"byteOffset":28156,
			"target":34962
		},
		{
			"buffer":0,
			"byteLength":2792,
			"byteOffset":32344,
			"target":34962
		},
		{
			"buffer":0,
			"byteLength":1518,
			"byteOffset":35136,
			"target":34963
		},
		{
			"buffer":0,
			"byteLength":240,
			"byteOffset":36656,
			"target":34962
		},
		{
			"buffer":0,
			"byteLength":240,
			"byteOffset":36896,
			"target":34962
		},
		{
			"buffer":0,
			"byteLength":160,
			"byteOffset":37136,
			"target":34962
		},
		{
			"buffer":0,
			"byteLength":72,
			"byteOffset":37296,
			"target":34963
		},
		{
			"buffer":0,
			"byteLength":1032,
			"byteOffset":37368,
			"target":34962
		},
		{
			"buffer":0,
			"byteLength":1032,
			"byteOffset":38400,
			"target":34962
		},
		{
			"buffer":0,
			"byteLength":688,
			"byteOffset":39432,
			"target":34962
		},
		{
			"buffer":0,
			"byteLength":396,
			"byteOffset":40120,
			"target":34963
		},
		{
			"buffer":0,
			"byteLength":1608,
			"byteOffset":40516,
			"target":34962
		},
		{
			"buffer":0,
			"byteLength":1608,
			"byteOffset":42124,
			"target":34962
		},
		{
			"buffer":0,
			"byteLength":1072,
			"byteOffset":43732,
			"target":34962
		},
		{
			"buffer":0,
			"byteLength":612,
			"byteOffset":44804,
			"target":34963
		},
		{
			"buffer":0,
			"byteLength":2160,
			"byteOffset":45416,
			"target":34962
		},
		{
			"buffer":0,
			"byteLength":2160,
			"byteOffset":47576,
			"target":34962
		},
		{
			"buffer":0,
			"byteLength":1440,
			"byteOffset":49736,
			"target":34962
		},
		{
			"buffer":0,
			"byteLength":708,
			"byteOffset":51176,
			"target":34963
		},
		{
			"buffer":0,
			"byteLength":3192,
			"byteOffset":51884,
			"target":34962
		},
		{
			"buffer":0,
			"byteLength":3192,
			"byteOffset":55076,
			"target":34962
		},
		{
			"buffer":0,
			"byteLength":2128,
			"byteOffset":58268,
			"target":34962
		},
		{
			"buffer":0,
			"byteLength":1248,
			"byteOffset":60396,
			"target":34963
		},
		{
			"buffer":0,
			"byteLength":1608,
			"byteOffset":61644,
			"target":34962
		},
		{
			"buffer":0,
			"byteLength":1608,
			"byteOffset":63252,
			"target":34962
		},
		{
			"buffer":0,
			"byteLength":1072,
			"byteOffset":64860,
			"target":34962
		},
		{
			"buffer":0,
			"byteLength":516,
			"byteOffset":65932,
			"target":34963
		},
		{
			"buffer":0,
			"byteLength":720,
			"byteOffset":66448,
			"target":34962
		},
		{
			"buffer":0,
			"byteLength":720,
			"byteOffset":67168,
			"target":34962
		},
		{
			"buffer":0,
			"byteLength":480,
			"byteOffset":67888,
			"target":34962
		},
		{
			"buffer":0,
			"byteLength":192,
			"byteOffset":68368,
			"target":34963
		},
		{
			"buffer":0,
			"byteLength":48,
			"byteOffset":68560,
			"target":34962
		},
		{
			"buffer":0,
			"byteLength":48,
			"byteOffset":68608,
			"target":34962
		},
		{
			"buffer":0,
			"byteLength":32,
			"byteOffset":68656,
			"target":34962
		},
		{
			"buffer":0,
			"byteLength":12,
			"byteOffset":68688,
			"target":34963
		},
		{
			"buffer":0,
			"byteLength":240,
			"byteOffset":68700,
			"target":34962
		},
		{
			"buffer":0,
			"byteLength":240,
			"byteOffset":68940,
			"target":34962
		},
		{
			"buffer":0,
			"byteLength":160,
			"byteOffset":69180,
			"target":34962
		},
		{
			"buffer":0,
			"byteLength":72,
			"byteOffset":69340,
			"target":34963
		},
		{
			"buffer":0,
			"byteLength":864,
			"byteOffset":69412,
			"target":34962
		},
		{
			"buffer":0,
			"byteLength":864,
			"byteOffset":70276,
			"target":34962
		},
		{
			"buffer":0,
			"byteLength":576,
			"byteOffset":71140,
			"target":34962
		},
		{
			"buffer":0,
			"byteLength":288,
			"byteOffset":71716,
			"target":34963
		},
		{
			"buffer":0,
			"byteLength":1440,
			"byteOffset":72004,
			"target":34962
		},
		{
			"buffer":0,
			"byteLength":1440,
			"byteOffset":73444,
			"target":34962
		},
		{
			"buffer":0,
			"byteLength":960,
			"byteOffset":74884,
			"target":34962
		},
		{
			"buffer":0,
			"byteLength":504,
			"byteOffset":75844,
			"target":34963
		},
		{
			"buffer":0,
			"byteLength":1776,
			"byteOffset":76348,
			"target":34962
		},
		{
			"buffer":0,
			"byteLength":1776,
			"byteOffset":78124,
			"target":34962
		},
		{
			"buffer":0,
			"byteLength":1184,
			"byteOffset":79900,
			"target":34962
		},
		{
			"buffer":0,
			"byteLength":648,
			"byteOffset":81084,
			"target":34963
		},
		{
			"buffer":0,
			"byteLength":1008,
			"byteOffset":81732,
			"target":34962
		},
		{
			"buffer":0,
			"byteLength":1008,
			"byteOffset":82740,
			"target":34962
		},
		{
			"buffer":0,
			"byteLength":672,
			"byteOffset":83748,
			"target":34962
		},
		{
			"buffer":0,
			"byteLength":336,
			"byteOffset":84420,
			"target":34963
		},
		{
			"buffer":0,
			"byteLength":672,
			"byteOffset":84756,
			"target":34962
		},
		{
			"buffer":0,
			"byteLength":672,
			"byteOffset":85428,
			"target":34962
		},
		{
			"buffer":0,
			"byteLength":448,
			"byteOffset":86100,
			"target":34962
		},
		{
			"buffer":0,
			"byteLength":168,
			"byteOffset":86548,
			"target":34963
		},
		{
			"buffer":0,
			"byteLength":48,
			"byteOffset":86716,
			"target":34962
		},
		{
			"buffer":0,
			"byteLength":48,
			"byteOffset":86764,
			"target":34962
		},
		{
			"buffer":0,
			"byteLength":32,
			"byteOffset":86812,
			"target":34962
		},
		{
			"buffer":0,
			"byteLength":12,
			"byteOffset":86844,
			"target":34963
		},
		{
			"buffer":0,
			"byteLength":264,
			"byteOffset":86856,
			"target":34962
		},
		{
			"buffer":0,
			"byteLength":264,
			"byteOffset":87120,
			"target":34962
		},
		{
			"buffer":0,
			"byteLength":176,
			"byteOffset":87384,
			"target":34962
		},
		{
			"buffer":0,
			"byteLength":84,
			"byteOffset":87560,
			"target":34963
		}
	],
	"buffers":[
		{
			"byteLength":87644,
			"uri":"xmisca.bin"
		}
	]
}
