{
	"asset":{
		"generator":"Khronos glTF Blender I/O v4.5.48",
		"version":"2.0"
	},
	"scene":0,
	"scenes":[
		{
			"name":"Scene",
			"nodes":[
				0,
				1,
				2
			]
		}
	],
	"nodes":[
		{
			"mesh":0,
			"name":"Object"
		},
		{
			"mesh":1,
			"name":"Object.001"
		},
		{
			"mesh":2,
			"name":"Object.002"
		}
	],
	"materials":[
		{
			"doubleSided":true,
			"name":"BD_EWAL03C",
			"pbrMetallicRoughness":{
				"baseColorFactor":[
					0.800000011920929,
					0.800000011920929,
					0.800000011920929,
					1
				],
				"metallicFactor":0,
				"roughnessFactor":0.5
			}
		},
		{
			"doubleSided":true,
			"name":"BD_EBOR02",
			"pbrMetallicRoughness":{
				"baseColorFactor":[
					0.800000011920929,
					0.800000011920929,
					0.800000011920929,
					1
				],
				"metallicFactor":0,
				"roughnessFactor":0.5
			}
		},
		{
			"doubleSided":true,
			"name":"BD_IBOR10",
			"pbrMetallicRoughness":{
				"baseColorFactor":[
					0.800000011920929,
					0.800000011920929,
					0.800000011920929,
					1
				],
				"metallicFactor":0,
				"roughnessFactor":0.5
			}
		},
		{
			"doubleSided":true,
			"name":"BD_IBOR03",
			"pbrMetallicRoughness":{
				"baseColorFactor":[
					0.800000011920929,
					0.800000011920929,
					0.800000011920929,
					1
				],
				"metallicFactor":0,
				"roughnessFactor":0.5
			}
		},
		{
			"doubleSided":true,
			"name":"BD_EBOR03",
			"pbrMetallicRoughness":{
				"baseColorFactor":[
					0.800000011920929,
					0.800000011920929,
					0.800000011920929,
					1
				],
				"metallicFactor":0,
				"roughnessFactor":0.5
			}
		},
		{
			"doubleSided":true,
			"name":"BD_EWAL03C.001",
			"pbrMetallicRoughness":{
				"baseColorFactor":[
					0.800000011920929,
					0.800000011920929,
					0.800000011920929,
					1
				],
				"metallicFactor":0,
				"roughnessFactor":0.5
			}
		},
		{
			"doubleSided":true,
			"name":"BD_EBOR02.001",
			"pbrMetallicRoughness":{
				"baseColorFactor":[
					0.800000011920929,
					0.800000011920929,
					0.800000011920929,
					1
				],
				"metallicFactor":0,
				"roughnessFactor":0.5
			}
		},
		{
			"doubleSided":true,
			"name":"BD_IBOR04.001",
			"pbrMetallicRoughness":{
				"baseColorFactor":[
					0.800000011920929,
					0.800000011920929,
					0.800000011920929,
					1
				],
				"metallicFactor":0,
				"roughnessFactor":0.5
			}
		},
		{
			"doubleSided":true,
			"name":"BD_IBOR03.001",
			"pbrMetallicRoughness":{
				"baseColorFactor":[
					0.800000011920929,
					0.800000011920929,
					0.800000011920929,
					1
				],
				"metallicFactor":0,
				"roughnessFactor":0.5
			}
		},
		{
			"doubleSided":true,
			"name":"BD_IBOR10.001",
			"pbrMetallicRoughness":{
				"baseColorFactor":[
					0.800000011920929,
					0.800000011920929,
					0.800000011920929,
					1
				],
				"metallicFactor":0,
				"roughnessFactor":0.5
			}
		},
		{
			"doubleSided":true,
			"name":"BD_EBOR03.001",
			"pbrMetallicRoughness":{
				"baseColorFactor":[
					0.800000011920929,
					0.800000011920929,
					0.800000011920929,
					1
				],
				"metallicFactor":0,
				"roughnessFactor":0.5
			}
		},
		{
			"doubleSided":true,
			"name":"BD_EWAL03C.002",
			"pbrMetallicRoughness":{
				"baseColorFactor":[
					0.800000011920929,
					0.800000011920929,
					0.800000011920929,
					1
				],
				"metallicFactor":0,
				"roughnessFactor":0.5
			}
		},
		{
			"doubleSided":true,
			"name":"BD_EBOR02.002",
			"pbrMetallicRoughness":{
				"baseColorFactor":[
					0.800000011920929,
					0.800000011920929,
					0.800000011920929,
					1
				],
				"metallicFactor":0,
				"roughnessFactor":0.5
			}
		},
		{
			"doubleSided":true,
			"name":"BD_IBOR04.002",
			"pbrMetallicRoughness":{
				"baseColorFactor":[
					0.800000011920929,
					0.800000011920929,
					0.800000011920929,
					1
				],
				"metallicFactor":0,
				"roughnessFactor":0.5
			}
		},
		{
			"doubleSided":true,
			"name":"BD_IBOR03.002",
			"pbrMetallicRoughness":{
				"baseColorFactor":[
					0.800000011920929,
					0.800000011920929,
					0.800000011920929,
					1
				],
				"metallicFactor":0,
				"roughnessFactor":0.5
			}
		},
		{
			"doubleSided":true,
			"name":"BD_IBOR10.002",
			"pbrMetallicRoughness":{
				"baseColorFactor":[
					0.800000011920929,
					0.800000011920929,
					0.800000011920929,
					1
				],
				"metallicFactor":0,
				"roughnessFactor":0.5
			}
		},
		{
			"doubleSided":true,
			"name":"BD_EBOR03.002",
			"pbrMetallicRoughness":{
				"baseColorFactor":[
					0.800000011920929,
					0.800000011920929,
					0.800000011920929,
					1
				],
				"metallicFactor":0,
				"roughnessFactor":0.5
			}
		}
	],
	"meshes":[
		{
			"name":"Mesh",
			"primitives":[
				{
					"attributes":{
						"POSITION":0,
						"NORMAL":1,
						"TEXCOORD_0":2
					},
					"indices":3,
					"material":0
				},
				{
					"attributes":{
						"POSITION":4,
						"NORMAL":5,
						"TEXCOORD_0":6
					},
					"indices":7,
					"material":1
				},
				{
					"attributes":{
						"POSITION":8,
						"NORMAL":9,
						"TEXCOORD_0":10
					},
					"indices":11,
					"material":2
				},
				{
					"attributes":{
						"POSITION":12,
						"NORMAL":13,
						"TEXCOORD_0":14
					},
					"indices":15,
					"material":3
				},
				{
					"attributes":{
						"POSITION":16,
						"NORMAL":17,
						"TEXCOORD_0":18
					},
					"indices":19,
					"material":4
				}
			]
		},
		{
			"name":"Mesh.001",
			"primitives":[
				{
					"attributes":{
						"POSITION":20,
						"NORMAL":21,
						"TEXCOORD_0":22
					},
					"indices":23,
					"material":5
				},
				{
					"attributes":{
						"POSITION":24,
						"NORMAL":25,
						"TEXCOORD_0":26
					},
					"indices":27,
					"material":6
				},
				{
					"attributes":{
						"POSITION":28,
						"NORMAL":29,
						"TEXCOORD_0":30
					},
					"indices":31,
					"material":7
				},
				{
					"attributes":{
						"POSITION":32,
						"NORMAL":33,
						"TEXCOORD_0":34
					},
					"indices":35,
					"material":8
				},
				{
					"attributes":{
						"POSITION":36,
						"NORMAL":37,
						"TEXCOORD_0":38
					},
					"indices":39,
					"material":9
				},
				{
					"attributes":{
						"POSITION":40,
						"NORMAL":41,
						"TEXCOORD_0":42
					},
					"indices":43,
					"material":10
				}
			]
		},
		{
			"name":"Mesh.002",
			"primitives":[
				{
					"attributes":{
						"POSITION":44,
						"NORMAL":45,
						"TEXCOORD_0":46
					},
					"indices":47,
					"material":11
				},
				{
					"attributes":{
						"POSITION":48,
						"NORMAL":49,
						"TEXCOORD_0":50
					},
					"indices":51,
					"material":12
				},
				{
					"attributes":{
						"POSITION":52,
						"NORMAL":53,
						"TEXCOORD_0":54
					},
					"indices":31,
					"material":13
				},
				{
					"attributes":{
						"POSITION":55,
						"NORMAL":56,
						"TEXCOORD_0":57
					},
					"indices":58,
					"material":14
				},
				{
					"attributes":{
						"POSITION":59,
						"NORMAL":60,
						"TEXCOORD_0":61
					},
					"indices":62,
					"material":15
				},
				{
					"attributes":{
						"POSITION":63,
						"NORMAL":64,
						"TEXCOORD_0":65
					},
					"indices":66,
					"material":16
				}
			]
		}
	],
	"accessors":[
		{
			"bufferView":0,
			"componentType":5126,
			"count":58,
			"max":[
				3.75,
				8.0625,
				4.25
			],
			"min":[
				-3.75,
				-5,
				-9.5
			],
			"type":"VEC3"
		},
		{
			"bufferView":1,
			"componentType":5126,
			"count":58,
			"type":"VEC3"
		},
		{
			"bufferView":2,
			"componentType":5126,
			"count":58,
			"type":"VEC2"
		},
		{
			"bufferView":3,
			"componentType":5123,
			"count":114,
			"type":"SCALAR"
		},
		{
			"bufferView":4,
			"componentType":5126,
			"count":66,
			"max":[
				2.25,
				7.0625,
				2.75
			],
			"min":[
				-2.25,
				-1,
				-8.875
			],
			"type":"VEC3"
		},
		{
			"bufferView":5,
			"componentType":5126,
			"count":66,
			"type":"VEC3"
		},
		{
			"bufferView":6,
			"componentType":5126,
			"count":66,
			"type":"VEC2"
		},
		{
			"bufferView":7,
			"componentType":5123,
			"count":144,
			"type":"SCALAR"
		},
		{
			"bufferView":8,
			"componentType":5126,
			"count":158,
			"max":[
				3.75,
				8.0625,
				4.25
			],
			"min":[
				-3.75,
				-5,
				-9.5
			],
			"type":"VEC3"
		},
		{
			"bufferView":9,
			"componentType":5126,
			"count":158,
			"type":"VEC3"
		},
		{
			"bufferView":10,
			"componentType":5126,
			"count":158,
			"type":"VEC2"
		},
		{
			"bufferView":11,
			"componentType":5123,
			"count":330,
			"type":"SCALAR"
		},
		{
			"bufferView":12,
			"componentType":5126,
			"count":80,
			"max":[
				1.96875,
				8.0625,
				2.5
			],
			"min":[
				-2.03125,
				0.0625,
				-4.25
			],
			"type":"VEC3"
		},
		{
			"bufferView":13,
			"componentType":5126,
			"count":80,
			"type":"VEC3"
		},
		{
			"bufferView":14,
			"componentType":5126,
			"count":80,
			"type":"VEC2"
		},
		{
			"bufferView":15,
			"componentType":5123,
			"count":156,
			"type":"SCALAR"
		},
		{
			"bufferView":16,
			"componentType":5126,
			"count":20,
			"max":[
				3.75,
				0.0625,
				4.25
			],
			"min":[
				-3.75,
				-1,
				-4.25
			],
			"type":"VEC3"
		},
		{
			"bufferView":17,
			"componentType":5126,
			"count":20,
			"type":"VEC3"
		},
		{
			"bufferView":18,
			"componentType":5126,
			"count":20,
			"type":"VEC2"
		},
		{
			"bufferView":19,
			"componentType":5123,
			"count":36,
			"type":"SCALAR"
		},
		{
			"bufferView":20,
			"componentType":5126,
			"count":62,
			"max":[
				3.75,
				8.0625,
				4.25
			],
			"min":[
				-3.75,
				-5,
				-9.5
			],
			"type":"VEC3"
		},
		{
			"bufferView":21,
			"componentType":5126,
			"count":62,
			"type":"VEC3"
		},
		{
			"bufferView":22,
			"componentType":5126,
			"count":62,
			"type":"VEC2"
		},
		{
			"bufferView":23,
			"componentType":5123,
			"count":120,
			"type":"SCALAR"
		},
		{
			"bufferView":24,
			"componentType":5126,
			"count":76,
			"max":[
				2.25,
				8.0625,
				2.75
			],
			"min":[
				-2.25,
				-1,
				-8.875
			],
			"type":"VEC3"
		},
		{
			"bufferView":25,
			"componentType":5126,
			"count":76,
			"type":"VEC3"
		},
		{
			"bufferView":26,
			"componentType":5126,
			"count":76,
			"type":"VEC2"
		},
		{
			"bufferView":27,
			"componentType":5123,
			"count":150,
			"type":"SCALAR"
		},
		{
			"bufferView":28,
			"componentType":5126,
			"count":4,
			"max":[
				-2,
				7,
				0.5
			],
			"min":[
				-2.03125,
				7,
				-0.5
			],
			"type":"VEC3"
		},
		{
			"bufferView":29,
			"componentType":5126,
			"count":4,
			"type":"VEC3"
		},
		{
			"bufferView":30,
			"componentType":5126,
			"count":4,
			"type":"VEC2"
		},
		{
			"bufferView":31,
			"componentType":5123,
			"count":6,
			"type":"SCALAR"
		},
		{
			"bufferView":32,
			"componentType":5126,
			"count":76,
			"max":[
				2,
				8,
				2.5
			],
			"min":[
				-2.03125,
				0.0625,
				-4.25
			],
			"type":"VEC3"
		},
		{
			"bufferView":33,
			"componentType":5126,
			"count":76,
			"type":"VEC3"
		},
		{
			"bufferView":34,
			"componentType":5126,
			"count":76,
			"type":"VEC2"
		},
		{
			"bufferView":35,
			"componentType":5123,
			"count":144,
			"type":"SCALAR"
		},
		{
			"bufferView":36,
			"componentType":5126,
			"count":132,
			"max":[
				3.75,
				8,
				4.25
			],
			"min":[
				-3.75,
				-5,
				-9.5
			],
			"type":"VEC3"
		},
		{
			"bufferView":37,
			"componentType":5126,
			"count":132,
			"type":"VEC3"
		},
		{
			"bufferView":38,
			"componentType":5126,
			"count":132,
			"type":"VEC2"
		},
		{
			"bufferView":39,
			"componentType":5123,
			"count":276,
			"type":"SCALAR"
		},
		{
			"bufferView":40,
			"componentType":5126,
			"count":20,
			"max":[
				3.75,
				0.0625,
				4.25
			],
			"min":[
				-3.75,
				-1,
				-4.25
			],
			"type":"VEC3"
		},
		{
			"bufferView":41,
			"componentType":5126,
			"count":20,
			"type":"VEC3"
		},
		{
			"bufferView":42,
			"componentType":5126,
			"count":20,
			"type":"VEC2"
		},
		{
			"bufferView":43,
			"componentType":5123,
			"count":36,
			"type":"SCALAR"
		},
		{
			"bufferView":44,
			"componentType":5126,
			"count":46,
			"max":[
				3.75,
				8.0625,
				4.25
			],
			"min":[
				-3.75,
				-5,
				-9.5
			],
			"type":"VEC3"
		},
		{
			"bufferView":45,
			"componentType":5126,
			"count":46,
			"type":"VEC3"
		},
		{
			"bufferView":46,
			"componentType":5126,
			"count":46,
			"type":"VEC2"
		},
		{
			"bufferView":47,
			"componentType":5123,
			"count":96,
			"type":"SCALAR"
		},
		{
			"bufferView":48,
			"componentType":5126,
			"count":76,
			"max":[
				2.25,
				8.0625,
				2.75
			],
			"min":[
				-2.25,
				-1,
				-8.875
			],
			"type":"VEC3"
		},
		{
			"bufferView":49,
			"componentType":5126,
			"count":76,
			"type":"VEC3"
		},
		{
			"bufferView":50,
			"componentType":5126,
			"count":76,
			"type":"VEC2"
		},
		{
			"bufferView":51,
			"componentType":5123,
			"count":150,
			"type":"SCALAR"
		},
		{
			"bufferView":52,
			"componentType":5126,
			"count":4,
			"max":[
				-2,
				7,
				0.5
			],
			"min":[
				-2.03125,
				7,
				-0.5
			],
			"type":"VEC3"
		},
		{
			"bufferView":53,
			"componentType":5126,
			"count":4,
			"type":"VEC3"
		},
		{
			"bufferView":54,
			"componentType":5126,
			"count":4,
			"type":"VEC2"
		},
		{
			"bufferView":55,
			"componentType":5126,
			"count":60,
			"max":[
				2,
				8,
				2.5
			],
			"min":[
				-2.03125,
				0.0625,
				-2.5
			],
			"type":"VEC3"
		},
		{
			"bufferView":56,
			"componentType":5126,
			"count":60,
			"type":"VEC3"
		},
		{
			"bufferView":57,
			"componentType":5126,
			"count":60,
			"type":"VEC2"
		},
		{
			"bufferView":58,
			"componentType":5123,
			"count":120,
			"type":"SCALAR"
		},
		{
			"bufferView":59,
			"componentType":5126,
			"count":112,
			"max":[
				3.75,
				8,
				4.25
			],
			"min":[
				-3.75,
				-5,
				-9.5
			],
			"type":"VEC3"
		},
		{
			"bufferView":60,
			"componentType":5126,
			"count":112,
			"type":"VEC3"
		},
		{
			"bufferView":61,
			"componentType":5126,
			"count":112,
			"type":"VEC2"
		},
		{
			"bufferView":62,
			"componentType":5123,
			"count":240,
			"type":"SCALAR"
		},
		{
			"bufferView":63,
			"componentType":5126,
			"count":20,
			"max":[
				3.75,
				0.0625,
				4.25
			],
			"min":[
				-3.75,
				-1,
				-4.25
			],
			"type":"VEC3"
		},
		{
			"bufferView":64,
			"componentType":5126,
			"count":20,
			"type":"VEC3"
		},
		{
			"bufferView":65,
			"componentType":5126,
			"count":20,
			"type":"VEC2"
		},
		{
			"bufferView":66,
			"componentType":5123,
			"count":36,
			"type":"SCALAR"
		}
	],
	"bufferViews":[
		{
			"buffer":0,
			"byteLength":696,
			"byteOffset":0,
			"target":34962
		},
		{
			"buffer":0,
			"byteLength":696,
			"byteOffset":696,
			"target":34962
		},
		{
			"buffer":0,
			"byteLength":464,
			"byteOffset":1392,
			"target":34962
		},
		{
			"buffer":0,
			"byteLength":228,
			"byteOffset":1856,
			"target":34963
		},
		{
			"buffer":0,
			"byteLength":792,
			"byteOffset":2084,
			"target":34962
		},
		{
			"buffer":0,
			"byteLength":792,
			"byteOffset":2876,
			"target":34962
		},
		{
			"buffer":0,
			"byteLength":528,
			"byteOffset":3668,
			"target":34962
		},
		{
			"buffer":0,
			"byteLength":288,
			"byteOffset":4196,
			"target":34963
		},
		{
			"buffer":0,
			"byteLength":1896,
			"byteOffset":4484,
			"target":34962
		},
		{
			"buffer":0,
			"byteLength":1896,
			"byteOffset":6380,
			"target":34962
		},
		{
			"buffer":0,
			"byteLength":1264,
			"byteOffset":8276,
			"target":34962
		},
		{
			"buffer":0,
			"byteLength":660,
			"byteOffset":9540,
			"target":34963
		},
		{
			"buffer":0,
			"byteLength":960,
			"byteOffset":10200,
			"target":34962
		},
		{
			"buffer":0,
			"byteLength":960,
			"byteOffset":11160,
			"target":34962
		},
		{
			"buffer":0,
			"byteLength":640,
			"byteOffset":12120,
			"target":34962
		},
		{
			"buffer":0,
			"byteLength":312,
			"byteOffset":12760,
			"target":34963
		},
		{
			"buffer":0,
			"byteLength":240,
			"byteOffset":13072,
			"target":34962
		},
		{
			"buffer":0,
			"byteLength":240,
			"byteOffset":13312,
			"target":34962
		},
		{
			"buffer":0,
			"byteLength":160,
			"byteOffset":13552,
			"target":34962
		},
		{
			"buffer":0,
			"byteLength":72,
			"byteOffset":13712,
			"target":34963
		},
		{
			"buffer":0,
			"byteLength":744,
			"byteOffset":13784,
			"target":34962
		},
		{
			"buffer":0,
			"byteLength":744,
			"byteOffset":14528,
			"target":34962
		},
		{
			"buffer":0,
			"byteLength":496,
			"byteOffset":15272,
			"target":34962
		},
		{
			"buffer":0,
			"byteLength":240,
			"byteOffset":15768,
			"target":34963
		},
		{
			"buffer":0,
			"byteLength":912,
			"byteOffset":16008,
			"target":34962
		},
		{
			"buffer":0,
			"byteLength":912,
			"byteOffset":16920,
			"target":34962
		},
		{
			"buffer":0,
			"byteLength":608,
			"byteOffset":17832,
			"target":34962
		},
		{
			"buffer":0,
			"byteLength":300,
			"byteOffset":18440,
			"target":34963
		},
		{
			"buffer":0,
			"byteLength":48,
			"byteOffset":18740,
			"target":34962
		},
		{
			"buffer":0,
			"byteLength":48,
			"byteOffset":18788,
			"target":34962
		},
		{
			"buffer":0,
			"byteLength":32,
			"byteOffset":18836,
			"target":34962
		},
		{
			"buffer":0,
			"byteLength":12,
			"byteOffset":18868,
			"target":34963
		},
		{
			"buffer":0,
			"byteLength":912,
			"byteOffset":18880,
			"target":34962
		},
		{
			"buffer":0,
			"byteLength":912,
			"byteOffset":19792,
			"target":34962
		},
		{
			"buffer":0,
			"byteLength":608,
			"byteOffset":20704,
			"target":34962
		},
		{
			"buffer":0,
			"byteLength":288,
			"byteOffset":21312,
			"target":34963
		},
		{
			"buffer":0,
			"byteLength":1584,
			"byteOffset":21600,
			"target":34962
		},
		{
			"buffer":0,
			"byteLength":1584,
			"byteOffset":23184,
			"target":34962
		},
		{
			"buffer":0,
			"byteLength":1056,
			"byteOffset":24768,
			"target":34962
		},
		{
			"buffer":0,
			"byteLength":552,
			"byteOffset":25824,
			"target":34963
		},
		{
			"buffer":0,
			"byteLength":240,
			"byteOffset":26376,
			"target":34962
		},
		{
			"buffer":0,
			"byteLength":240,
			"byteOffset":26616,
			"target":34962
		},
		{
			"buffer":0,
			"byteLength":160,
			"byteOffset":26856,
			"target":34962
		},
		{
			"buffer":0,
			"byteLength":72,
			"byteOffset":27016,
			"target":34963
		},
		{
			"buffer":0,
			"byteLength":552,
			"byteOffset":27088,
			"target":34962
		},
		{
			"buffer":0,
			"byteLength":552,
			"byteOffset":27640,
			"target":34962
		},
		{
			"buffer":0,
			"byteLength":368,
			"byteOffset":28192,
			"target":34962
		},
		{
			"buffer":0,
			"byteLength":192,
			"byteOffset":28560,
			"target":34963
		},
		{
			"buffer":0,
			"byteLength":912,
			"byteOffset":28752,
			"target":34962
		},
		{
			"buffer":0,
			"byteLength":912,
			"byteOffset":29664,
			"target":34962
		},
		{
			"buffer":0,
			"byteLength":608,
			"byteOffset":30576,
			"target":34962
		},
		{
			"buffer":0,
			"byteLength":300,
			"byteOffset":31184,
			"target":34963
		},
		{
			"buffer":0,
			"byteLength":48,
			"byteOffset":31484,
			"target":34962
		},
		{
			"buffer":0,
			"byteLength":48,
			"byteOffset":31532,
			"target":34962
		},
		{
			"buffer":0,
			"byteLength":32,
			"byteOffset":31580,
			"target":34962
		},
		{
			"buffer":0,
			"byteLength":720,
			"byteOffset":31612,
			"target":34962
		},
		{
			"buffer":0,
			"byteLength":720,
			"byteOffset":32332,
			"target":34962
		},
		{
			"buffer":0,
			"byteLength":480,
			"byteOffset":33052,
			"target":34962
		},
		{
			"buffer":0,
			"byteLength":240,
			"byteOffset":33532,
			"target":34963
		},
		{
			"buffer":0,
			"byteLength":1344,
			"byteOffset":33772,
			"target":34962
		},
		{
			"buffer":0,
			"byteLength":1344,
			"byteOffset":35116,
			"target":34962
		},
		{
			"buffer":0,
			"byteLength":896,
			"byteOffset":36460,
			"target":34962
		},
		{
			"buffer":0,
			"byteLength":480,
			"byteOffset":37356,
			"target":34963
		},
		{
			"buffer":0,
			"byteLength":240,
			"byteOffset":37836,
			"target":34962
		},
		{
			"buffer":0,
			"byteLength":240,
			"byteOffset":38076,
			"target":34962
		},
		{
			"buffer":0,
			"byteLength":160,
			"byteOffset":38316,
			"target":34962
		},
		{
			"buffer":0,
			"byteLength":72,
			"byteOffset":38476,
			"target":34963
		}
	],
	"buffers":[
		{
			"byteLength":38548,
			"uri":"xmisc1.bin"
		}
	]
}
