{
	"asset":{
		"generator":"Khronos glTF Blender I/O v4.5.48",
		"version":"2.0"
	},
	"scene":0,
	"scenes":[
		{
			"name":"Scene",
			"nodes":[
				0,
				1
			]
		}
	],
	"nodes":[
		{
			"mesh":0,
			"name":"Object"
		},
		{
			"mesh":1,
			"name":"Object.001"
		}
	],
	"materials":[
		{
			"doubleSided":true,
			"name":"BD_EWAL03C",
			"pbrMetallicRoughness":{
				"baseColorFactor":[
					0.800000011920929,
					0.800000011920929,
					0.800000011920929,
					1
				],
				"metallicFactor":0,
				"roughnessFactor":0.5
			}
		},
		{
			"doubleSided":true,
			"name":"BD_EBOR02",
			"pbrMetallicRoughness":{
				"baseColorFactor":[
					0.800000011920929,
					0.800000011920929,
					0.800000011920929,
					1
				],
				"metallicFactor":0,
				"roughnessFactor":0.5
			}
		},
		{
			"doubleSided":true,
			"name":"BD_IBOR10",
			"pbrMetallicRoughness":{
				"baseColorFactor":[
					0.800000011920929,
					0.800000011920929,
					0.800000011920929,
					1
				],
				"metallicFactor":0,
				"roughnessFactor":0.5
			}
		},
		{
			"doubleSided":true,
			"name":"BD_IBOR03",
			"pbrMetallicRoughness":{
				"baseColorFactor":[
					0.800000011920929,
					0.800000011920929,
					0.800000011920929,
					1
				],
				"metallicFactor":0,
				"roughnessFactor":0.5
			}
		},
		{
			"doubleSided":true,
			"name":"BD_EBOR03",
			"pbrMetallicRoughness":{
				"baseColorFactor":[
					0.800000011920929,
					0.800000011920929,
					0.800000011920929,
					1
				],
				"metallicFactor":0,
				"roughnessFactor":0.5
			}
		},
		{
			"doubleSided":true,
			"name":"BD_ELIG03",
			"pbrMetallicRoughness":{
				"baseColorFactor":[
					0.800000011920929,
					0.800000011920929,
					0.800000011920929,
					1
				],
				"metallicFactor":0,
				"roughnessFactor":0.5
			}
		},
		{
			"doubleSided":true,
			"name":"BD_THRESH02A",
			"pbrMetallicRoughness":{
				"baseColorFactor":[
					0.800000011920929,
					0.800000011920929,
					0.800000011920929,
					1
				],
				"metallicFactor":0,
				"roughnessFactor":0.5
			}
		},
		{
			"doubleSided":true,
			"name":"BD_EWAL03C.001",
			"pbrMetallicRoughness":{
				"baseColorFactor":[
					0.800000011920929,
					0.800000011920929,
					0.800000011920929,
					1
				],
				"metallicFactor":0,
				"roughnessFactor":0.5
			}
		},
		{
			"doubleSided":true,
			"name":"BD_EBOR02.001",
			"pbrMetallicRoughness":{
				"baseColorFactor":[
					0.800000011920929,
					0.800000011920929,
					0.800000011920929,
					1
				],
				"metallicFactor":0,
				"roughnessFactor":0.5
			}
		},
		{
			"doubleSided":true,
			"name":"BD_IBOR10.001",
			"pbrMetallicRoughness":{
				"baseColorFactor":[
					0.800000011920929,
					0.800000011920929,
					0.800000011920929,
					1
				],
				"metallicFactor":0,
				"roughnessFactor":0.5
			}
		},
		{
			"doubleSided":true,
			"name":"BD_IBOR03.001",
			"pbrMetallicRoughness":{
				"baseColorFactor":[
					0.800000011920929,
					0.800000011920929,
					0.800000011920929,
					1
				],
				"metallicFactor":0,
				"roughnessFactor":0.5
			}
		},
		{
			"doubleSided":true,
			"name":"BD_EBOR03.001",
			"pbrMetallicRoughness":{
				"baseColorFactor":[
					0.800000011920929,
					0.800000011920929,
					0.800000011920929,
					1
				],
				"metallicFactor":0,
				"roughnessFactor":0.5
			}
		},
		{
			"doubleSided":true,
			"name":"BD_ELIG03.001",
			"pbrMetallicRoughness":{
				"baseColorFactor":[
					0.800000011920929,
					0.800000011920929,
					0.800000011920929,
					1
				],
				"metallicFactor":0,
				"roughnessFactor":0.5
			}
		},
		{
			"doubleSided":true,
			"name":"BD_THRESH02A.001",
			"pbrMetallicRoughness":{
				"baseColorFactor":[
					0.800000011920929,
					0.800000011920929,
					0.800000011920929,
					1
				],
				"metallicFactor":0,
				"roughnessFactor":0.5
			}
		}
	],
	"meshes":[
		{
			"name":"Mesh",
			"primitives":[
				{
					"attributes":{
						"POSITION":0,
						"NORMAL":1,
						"TEXCOORD_0":2
					},
					"indices":3,
					"material":0
				},
				{
					"attributes":{
						"POSITION":4,
						"NORMAL":5,
						"TEXCOORD_0":6
					},
					"indices":7,
					"material":1
				},
				{
					"attributes":{
						"POSITION":8,
						"NORMAL":9,
						"TEXCOORD_0":10
					},
					"indices":11,
					"material":2
				},
				{
					"attributes":{
						"POSITION":12,
						"NORMAL":13,
						"TEXCOORD_0":14
					},
					"indices":15,
					"material":3
				},
				{
					"attributes":{
						"POSITION":16,
						"NORMAL":17,
						"TEXCOORD_0":18
					},
					"indices":19,
					"material":4
				},
				{
					"attributes":{
						"POSITION":20,
						"NORMAL":21,
						"TEXCOORD_0":22
					},
					"indices":23,
					"material":5
				},
				{
					"attributes":{
						"POSITION":24,
						"NORMAL":25,
						"TEXCOORD_0":26
					},
					"indices":27,
					"material":6
				}
			]
		},
		{
			"name":"Mesh.001",
			"primitives":[
				{
					"attributes":{
						"POSITION":28,
						"NORMAL":29,
						"TEXCOORD_0":30
					},
					"indices":31,
					"material":7
				},
				{
					"attributes":{
						"POSITION":32,
						"NORMAL":33,
						"TEXCOORD_0":34
					},
					"indices":35,
					"material":8
				},
				{
					"attributes":{
						"POSITION":36,
						"NORMAL":37,
						"TEXCOORD_0":38
					},
					"indices":39,
					"material":9
				},
				{
					"attributes":{
						"POSITION":40,
						"NORMAL":41,
						"TEXCOORD_0":42
					},
					"indices":43,
					"material":10
				},
				{
					"attributes":{
						"POSITION":44,
						"NORMAL":45,
						"TEXCOORD_0":46
					},
					"indices":47,
					"material":11
				},
				{
					"attributes":{
						"POSITION":48,
						"NORMAL":49,
						"TEXCOORD_0":50
					},
					"indices":51,
					"material":12
				},
				{
					"attributes":{
						"POSITION":52,
						"NORMAL":53,
						"TEXCOORD_0":54
					},
					"indices":55,
					"material":13
				}
			]
		}
	],
	"accessors":[
		{
			"bufferView":0,
			"componentType":5126,
			"count":179,
			"max":[
				7.5,
				38.15625,
				8.25
			],
			"min":[
				-16.96875,
				-1,
				-19.25
			],
			"type":"VEC3"
		},
		{
			"bufferView":1,
			"componentType":5126,
			"count":179,
			"type":"VEC3"
		},
		{
			"bufferView":2,
			"componentType":5126,
			"count":179,
			"type":"VEC2"
		},
		{
			"bufferView":3,
			"componentType":5123,
			"count":441,
			"type":"SCALAR"
		},
		{
			"bufferView":4,
			"componentType":5126,
			"count":216,
			"max":[
				4.5,
				33.15625,
				5.25
			],
			"min":[
				-16.96875,
				-1,
				-18
			],
			"type":"VEC3"
		},
		{
			"bufferView":5,
			"componentType":5126,
			"count":216,
			"type":"VEC3"
		},
		{
			"bufferView":6,
			"componentType":5126,
			"count":216,
			"type":"VEC2"
		},
		{
			"bufferView":7,
			"componentType":5123,
			"count":690,
			"type":"SCALAR"
		},
		{
			"bufferView":8,
			"componentType":5126,
			"count":533,
			"max":[
				7.5,
				39,
				8.25
			],
			"min":[
				-16.96875,
				-1,
				-19.25
			],
			"type":"VEC3"
		},
		{
			"bufferView":9,
			"componentType":5126,
			"count":533,
			"type":"VEC3"
		},
		{
			"bufferView":10,
			"componentType":5126,
			"count":533,
			"type":"VEC2"
		},
		{
			"bufferView":11,
			"componentType":5123,
			"count":1107,
			"type":"SCALAR"
		},
		{
			"bufferView":12,
			"componentType":5126,
			"count":238,
			"max":[
				6,
				38.15625,
				6
			],
			"min":[
				-7.5,
				3.125,
				-8.75
			],
			"type":"VEC3"
		},
		{
			"bufferView":13,
			"componentType":5126,
			"count":238,
			"type":"VEC3"
		},
		{
			"bufferView":14,
			"componentType":5126,
			"count":238,
			"type":"VEC2"
		},
		{
			"bufferView":15,
			"componentType":5123,
			"count":414,
			"type":"SCALAR"
		},
		{
			"bufferView":16,
			"componentType":5126,
			"count":22,
			"max":[
				7.5,
				3.125,
				8.25
			],
			"min":[
				-7.5,
				1,
				-8.75
			],
			"type":"VEC3"
		},
		{
			"bufferView":17,
			"componentType":5126,
			"count":22,
			"type":"VEC3"
		},
		{
			"bufferView":18,
			"componentType":5126,
			"count":22,
			"type":"VEC2"
		},
		{
			"bufferView":19,
			"componentType":5123,
			"count":42,
			"type":"SCALAR"
		},
		{
			"bufferView":20,
			"componentType":5126,
			"count":32,
			"max":[
				3,
				37.03125,
				3
			],
			"min":[
				-3,
				35.03125,
				-3
			],
			"type":"VEC3"
		},
		{
			"bufferView":21,
			"componentType":5126,
			"count":32,
			"type":"VEC3"
		},
		{
			"bufferView":22,
			"componentType":5126,
			"count":32,
			"type":"VEC2"
		},
		{
			"bufferView":23,
			"componentType":5123,
			"count":48,
			"type":"SCALAR"
		},
		{
			"bufferView":24,
			"componentType":5126,
			"count":136,
			"max":[
				3.84375,
				29,
				3.875
			],
			"min":[
				-3.84375,
				23,
				-3.875
			],
			"type":"VEC3"
		},
		{
			"bufferView":25,
			"componentType":5126,
			"count":136,
			"type":"VEC3"
		},
		{
			"bufferView":26,
			"componentType":5126,
			"count":136,
			"type":"VEC2"
		},
		{
			"bufferView":27,
			"componentType":5123,
			"count":336,
			"type":"SCALAR"
		},
		{
			"bufferView":28,
			"componentType":5126,
			"count":173,
			"max":[
				7.5,
				37.03125,
				8.25
			],
			"min":[
				-16.96875,
				-1,
				-19.25
			],
			"type":"VEC3"
		},
		{
			"bufferView":29,
			"componentType":5126,
			"count":173,
			"type":"VEC3"
		},
		{
			"bufferView":30,
			"componentType":5126,
			"count":173,
			"type":"VEC2"
		},
		{
			"bufferView":31,
			"componentType":5123,
			"count":435,
			"type":"SCALAR"
		},
		{
			"bufferView":32,
			"componentType":5126,
			"count":112,
			"max":[
				4.5,
				33.15625,
				5.25
			],
			"min":[
				-16.96875,
				-1,
				-18
			],
			"type":"VEC3"
		},
		{
			"bufferView":33,
			"componentType":5126,
			"count":112,
			"type":"VEC3"
		},
		{
			"bufferView":34,
			"componentType":5126,
			"count":112,
			"type":"VEC2"
		},
		{
			"bufferView":35,
			"componentType":5123,
			"count":234,
			"type":"SCALAR"
		},
		{
			"bufferView":36,
			"componentType":5126,
			"count":335,
			"max":[
				7.5,
				38.15625,
				8.25
			],
			"min":[
				-16.96875,
				-1,
				-19.25
			],
			"type":"VEC3"
		},
		{
			"bufferView":37,
			"componentType":5126,
			"count":335,
			"type":"VEC3"
		},
		{
			"bufferView":38,
			"componentType":5126,
			"count":335,
			"type":"VEC2"
		},
		{
			"bufferView":39,
			"componentType":5123,
			"count":753,
			"type":"SCALAR"
		},
		{
			"bufferView":40,
			"componentType":5126,
			"count":236,
			"max":[
				6,
				38.15625,
				6
			],
			"min":[
				-7.5,
				3.125,
				-8.75
			],
			"type":"VEC3"
		},
		{
			"bufferView":41,
			"componentType":5126,
			"count":236,
			"type":"VEC3"
		},
		{
			"bufferView":42,
			"componentType":5126,
			"count":236,
			"type":"VEC2"
		},
		{
			"bufferView":43,
			"componentType":5123,
			"count":408,
			"type":"SCALAR"
		},
		{
			"bufferView":44,
			"componentType":5126,
			"count":22,
			"max":[
				7.5,
				3.125,
				8.25
			],
			"min":[
				-7.5,
				1,
				-8.75
			],
			"type":"VEC3"
		},
		{
			"bufferView":45,
			"componentType":5126,
			"count":22,
			"type":"VEC3"
		},
		{
			"bufferView":46,
			"componentType":5126,
			"count":22,
			"type":"VEC2"
		},
		{
			"bufferView":47,
			"componentType":5123,
			"count":42,
			"type":"SCALAR"
		},
		{
			"bufferView":48,
			"componentType":5126,
			"count":32,
			"max":[
				3,
				37.03125,
				3
			],
			"min":[
				-3,
				35.03125,
				-3
			],
			"type":"VEC3"
		},
		{
			"bufferView":49,
			"componentType":5126,
			"count":32,
			"type":"VEC3"
		},
		{
			"bufferView":50,
			"componentType":5126,
			"count":32,
			"type":"VEC2"
		},
		{
			"bufferView":51,
			"componentType":5123,
			"count":48,
			"type":"SCALAR"
		},
		{
			"bufferView":52,
			"componentType":5126,
			"count":64,
			"max":[
				3.84375,
				29,
				3.875
			],
			"min":[
				-3.84375,
				23,
				-3.875
			],
			"type":"VEC3"
		},
		{
			"bufferView":53,
			"componentType":5126,
			"count":64,
			"type":"VEC3"
		},
		{
			"bufferView":54,
			"componentType":5126,
			"count":64,
			"type":"VEC2"
		},
		{
			"bufferView":55,
			"componentType":5123,
			"count":96,
			"type":"SCALAR"
		}
	],
	"bufferViews":[
		{
			"buffer":0,
			"byteLength":2148,
			"byteOffset":0,
			"target":34962
		},
		{
			"buffer":0,
			"byteLength":2148,
			"byteOffset":2148,
			"target":34962
		},
		{
			"buffer":0,
			"byteLength":1432,
			"byteOffset":4296,
			"target":34962
		},
		{
			"buffer":0,
			"byteLength":882,
			"byteOffset":5728,
			"target":34963
		},
		{
			"buffer":0,
			"byteLength":2592,
			"byteOffset":6612,
			"target":34962
		},
		{
			"buffer":0,
			"byteLength":2592,
			"byteOffset":9204,
			"target":34962
		},
		{
			"buffer":0,
			"byteLength":1728,
			"byteOffset":11796,
			"target":34962
		},
		{
			"buffer":0,
			"byteLength":1380,
			"byteOffset":13524,
			"target":34963
		},
		{
			"buffer":0,
			"byteLength":6396,
			"byteOffset":14904,
			"target":34962
		},
		{
			"buffer":0,
			"byteLength":6396,
			"byteOffset":21300,
			"target":34962
		},
		{
			"buffer":0,
			"byteLength":4264,
			"byteOffset":27696,
			"target":34962
		},
		{
			"buffer":0,
			"byteLength":2214,
			"byteOffset":31960,
			"target":34963
		},
		{
			"buffer":0,
			"byteLength":2856,
			"byteOffset":34176,
			"target":34962
		},
		{
			"buffer":0,
			"byteLength":2856,
			"byteOffset":37032,
			"target":34962
		},
		{
			"buffer":0,
			"byteLength":1904,
			"byteOffset":39888,
			"target":34962
		},
		{
			"buffer":0,
			"byteLength":828,
			"byteOffset":41792,
			"target":34963
		},
		{
			"buffer":0,
			"byteLength":264,
			"byteOffset":42620,
			"target":34962
		},
		{
			"buffer":0,
			"byteLength":264,
			"byteOffset":42884,
			"target":34962
		},
		{
			"buffer":0,
			"byteLength":176,
			"byteOffset":43148,
			"target":34962
		},
		{
			"buffer":0,
			"byteLength":84,
			"byteOffset":43324,
			"target":34963
		},
		{
			"buffer":0,
			"byteLength":384,
			"byteOffset":43408,
			"target":34962
		},
		{
			"buffer":0,
			"byteLength":384,
			"byteOffset":43792,
			"target":34962
		},
		{
			"buffer":0,
			"byteLength":256,
			"byteOffset":44176,
			"target":34962
		},
		{
			"buffer":0,
			"byteLength":96,
			"byteOffset":44432,
			"target":34963
		},
		{
			"buffer":0,
			"byteLength":1632,
			"byteOffset":44528,
			"target":34962
		},
		{
			"buffer":0,
			"byteLength":1632,
			"byteOffset":46160,
			"target":34962
		},
		{
			"buffer":0,
			"byteLength":1088,
			"byteOffset":47792,
			"target":34962
		},
		{
			"buffer":0,
			"byteLength":672,
			"byteOffset":48880,
			"target":34963
		},
		{
			"buffer":0,
			"byteLength":2076,
			"byteOffset":49552,
			"target":34962
		},
		{
			"buffer":0,
			"byteLength":2076,
			"byteOffset":51628,
			"target":34962
		},
		{
			"buffer":0,
			"byteLength":1384,
			"byteOffset":53704,
			"target":34962
		},
		{
			"buffer":0,
			"byteLength":870,
			"byteOffset":55088,
			"target":34963
		},
		{
			"buffer":0,
			"byteLength":1344,
			"byteOffset":55960,
			"target":34962
		},
		{
			"buffer":0,
			"byteLength":1344,
			"byteOffset":57304,
			"target":34962
		},
		{
			"buffer":0,
			"byteLength":896,
			"byteOffset":58648,
			"target":34962
		},
		{
			"buffer":0,
			"byteLength":468,
			"byteOffset":59544,
			"target":34963
		},
		{
			"buffer":0,
			"byteLength":4020,
			"byteOffset":60012,
			"target":34962
		},
		{
			"buffer":0,
			"byteLength":4020,
			"byteOffset":64032,
			"target":34962
		},
		{
			"buffer":0,
			"byteLength":2680,
			"byteOffset":68052,
			"target":34962
		},
		{
			"buffer":0,
			"byteLength":1506,
			"byteOffset":70732,
			"target":34963
		},
		{
			"buffer":0,
			"byteLength":2832,
			"byteOffset":72240,
			"target":34962
		},
		{
			"buffer":0,
			"byteLength":2832,
			"byteOffset":75072,
			"target":34962
		},
		{
			"buffer":0,
			"byteLength":1888,
			"byteOffset":77904,
			"target":34962
		},
		{
			"buffer":0,
			"byteLength":816,
			"byteOffset":79792,
			"target":34963
		},
		{
			"buffer":0,
			"byteLength":264,
			"byteOffset":80608,
			"target":34962
		},
		{
			"buffer":0,
			"byteLength":264,
			"byteOffset":80872,
			"target":34962
		},
		{
			"buffer":0,
			"byteLength":176,
			"byteOffset":81136,
			"target":34962
		},
		{
			"buffer":0,
			"byteLength":84,
			"byteOffset":81312,
			"target":34963
		},
		{
			"buffer":0,
			"byteLength":384,
			"byteOffset":81396,
			"target":34962
		},
		{
			"buffer":0,
			"byteLength":384,
			"byteOffset":81780,
			"target":34962
		},
		{
			"buffer":0,
			"byteLength":256,
			"byteOffset":82164,
			"target":34962
		},
		{
			"buffer":0,
			"byteLength":96,
			"byteOffset":82420,
			"target":34963
		},
		{
			"buffer":0,
			"byteLength":768,
			"byteOffset":82516,
			"target":34962
		},
		{
			"buffer":0,
			"byteLength":768,
			"byteOffset":83284,
			"target":34962
		},
		{
			"buffer":0,
			"byteLength":512,
			"byteOffset":84052,
			"target":34962
		},
		{
			"buffer":0,
			"byteLength":192,
			"byteOffset":84564,
			"target":34963
		}
	],
	"buffers":[
		{
			"byteLength":84756,
			"uri":"xmiscb.bin"
		}
	]
}
