{
	"asset":{
		"generator":"Khronos glTF Blender I/O v4.5.48",
		"version":"2.0"
	},
	"scene":0,
	"scenes":[
		{
			"name":"Scene",
			"nodes":[
				0,
				1
			]
		}
	],
	"nodes":[
		{
			"mesh":0,
			"name":"Object"
		},
		{
			"mesh":1,
			"name":"Object.001"
		}
	],
	"materials":[
		{
			"doubleSided":true,
			"name":"BD_EWAL03C",
			"pbrMetallicRoughness":{
				"baseColorFactor":[
					0.800000011920929,
					0.800000011920929,
					0.800000011920929,
					1
				],
				"metallicFactor":0,
				"roughnessFactor":0.5
			}
		},
		{
			"doubleSided":true,
			"name":"BD_IBOR6",
			"pbrMetallicRoughness":{
				"baseColorFactor":[
					0.800000011920929,
					0.800000011920929,
					0.800000011920929,
					1
				],
				"metallicFactor":0,
				"roughnessFactor":0.5
			}
		},
		{
			"doubleSided":true,
			"name":"BD_EBOR04",
			"pbrMetallicRoughness":{
				"baseColorFactor":[
					0.800000011920929,
					0.800000011920929,
					0.800000011920929,
					1
				],
				"metallicFactor":0,
				"roughnessFactor":0.5
			}
		},
		{
			"doubleSided":true,
			"name":"BD_IBOR10",
			"pbrMetallicRoughness":{
				"baseColorFactor":[
					0.800000011920929,
					0.800000011920929,
					0.800000011920929,
					1
				],
				"metallicFactor":0,
				"roughnessFactor":0.5
			}
		},
		{
			"doubleSided":true,
			"name":"BD_IBOR03",
			"pbrMetallicRoughness":{
				"baseColorFactor":[
					0.800000011920929,
					0.800000011920929,
					0.800000011920929,
					1
				],
				"metallicFactor":0,
				"roughnessFactor":0.5
			}
		},
		{
			"doubleSided":true,
			"name":"BD_THRESH02A",
			"pbrMetallicRoughness":{
				"baseColorFactor":[
					0.800000011920929,
					0.800000011920929,
					0.800000011920929,
					1
				],
				"metallicFactor":0,
				"roughnessFactor":0.5
			}
		},
		{
			"doubleSided":true,
			"name":"BD_ICEI03",
			"pbrMetallicRoughness":{
				"baseColorFactor":[
					0.800000011920929,
					0.800000011920929,
					0.800000011920929,
					1
				],
				"metallicFactor":0,
				"roughnessFactor":0.5
			}
		},
		{
			"doubleSided":true,
			"name":"BD_EWAL03C.001",
			"pbrMetallicRoughness":{
				"baseColorFactor":[
					0.800000011920929,
					0.800000011920929,
					0.800000011920929,
					1
				],
				"metallicFactor":0,
				"roughnessFactor":0.5
			}
		},
		{
			"doubleSided":true,
			"name":"BD_EBOR04.001",
			"pbrMetallicRoughness":{
				"baseColorFactor":[
					0.800000011920929,
					0.800000011920929,
					0.800000011920929,
					1
				],
				"metallicFactor":0,
				"roughnessFactor":0.5
			}
		},
		{
			"doubleSided":true,
			"name":"BD_IBOR10.001",
			"pbrMetallicRoughness":{
				"baseColorFactor":[
					0.800000011920929,
					0.800000011920929,
					0.800000011920929,
					1
				],
				"metallicFactor":0,
				"roughnessFactor":0.5
			}
		},
		{
			"doubleSided":true,
			"name":"BD_IBOR03.001",
			"pbrMetallicRoughness":{
				"baseColorFactor":[
					0.800000011920929,
					0.800000011920929,
					0.800000011920929,
					1
				],
				"metallicFactor":0,
				"roughnessFactor":0.5
			}
		},
		{
			"doubleSided":true,
			"name":"BD_THRESH02A.001",
			"pbrMetallicRoughness":{
				"baseColorFactor":[
					0.800000011920929,
					0.800000011920929,
					0.800000011920929,
					1
				],
				"metallicFactor":0,
				"roughnessFactor":0.5
			}
		},
		{
			"doubleSided":true,
			"name":"BD_ICEI03.001",
			"pbrMetallicRoughness":{
				"baseColorFactor":[
					0.800000011920929,
					0.800000011920929,
					0.800000011920929,
					1
				],
				"metallicFactor":0,
				"roughnessFactor":0.5
			}
		}
	],
	"meshes":[
		{
			"name":"Mesh",
			"primitives":[
				{
					"attributes":{
						"POSITION":0,
						"NORMAL":1,
						"TEXCOORD_0":2
					},
					"indices":3,
					"material":0
				},
				{
					"attributes":{
						"POSITION":4,
						"NORMAL":5,
						"TEXCOORD_0":6
					},
					"indices":7,
					"material":1
				},
				{
					"attributes":{
						"POSITION":8,
						"NORMAL":9,
						"TEXCOORD_0":10
					},
					"indices":11,
					"material":2
				},
				{
					"attributes":{
						"POSITION":12,
						"NORMAL":13,
						"TEXCOORD_0":14
					},
					"indices":15,
					"material":3
				},
				{
					"attributes":{
						"POSITION":16,
						"NORMAL":17,
						"TEXCOORD_0":18
					},
					"indices":19,
					"material":4
				},
				{
					"attributes":{
						"POSITION":20,
						"NORMAL":21,
						"TEXCOORD_0":22
					},
					"indices":23,
					"material":5
				},
				{
					"attributes":{
						"POSITION":24,
						"NORMAL":25,
						"TEXCOORD_0":26
					},
					"indices":27,
					"material":6
				}
			]
		},
		{
			"name":"Mesh.001",
			"primitives":[
				{
					"attributes":{
						"POSITION":28,
						"NORMAL":29,
						"TEXCOORD_0":30
					},
					"indices":31,
					"material":7
				},
				{
					"attributes":{
						"POSITION":32,
						"NORMAL":33,
						"TEXCOORD_0":34
					},
					"indices":35,
					"material":8
				},
				{
					"attributes":{
						"POSITION":36,
						"NORMAL":37,
						"TEXCOORD_0":38
					},
					"indices":39,
					"material":9
				},
				{
					"attributes":{
						"POSITION":40,
						"NORMAL":41,
						"TEXCOORD_0":42
					},
					"indices":43,
					"material":10
				},
				{
					"attributes":{
						"POSITION":44,
						"NORMAL":45,
						"TEXCOORD_0":46
					},
					"indices":47,
					"material":11
				},
				{
					"attributes":{
						"POSITION":48,
						"NORMAL":49,
						"TEXCOORD_0":50
					},
					"indices":27,
					"material":12
				}
			]
		}
	],
	"accessors":[
		{
			"bufferView":0,
			"componentType":5126,
			"count":376,
			"max":[
				3.0625,
				5.875,
				8.65625
			],
			"min":[
				-3,
				-1,
				-8.59375
			],
			"type":"VEC3"
		},
		{
			"bufferView":1,
			"componentType":5126,
			"count":376,
			"type":"VEC3"
		},
		{
			"bufferView":2,
			"componentType":5126,
			"count":376,
			"type":"VEC2"
		},
		{
			"bufferView":3,
			"componentType":5123,
			"count":714,
			"type":"SCALAR"
		},
		{
			"bufferView":4,
			"componentType":5126,
			"count":96,
			"max":[
				0.78125,
				5.625,
				2.78125
			],
			"min":[
				-0.71875,
				3.625,
				-2.71875
			],
			"type":"VEC3"
		},
		{
			"bufferView":5,
			"componentType":5126,
			"count":96,
			"type":"VEC3"
		},
		{
			"bufferView":6,
			"componentType":5126,
			"count":96,
			"type":"VEC2"
		},
		{
			"bufferView":7,
			"componentType":5123,
			"count":144,
			"type":"SCALAR"
		},
		{
			"bufferView":8,
			"componentType":5126,
			"count":100,
			"max":[
				3.0625,
				5.625,
				10.65625
			],
			"min":[
				-3,
				-1,
				-10.59375
			],
			"type":"VEC3"
		},
		{
			"bufferView":9,
			"componentType":5126,
			"count":100,
			"type":"VEC3"
		},
		{
			"bufferView":10,
			"componentType":5126,
			"count":100,
			"type":"VEC2"
		},
		{
			"bufferView":11,
			"componentType":5123,
			"count":186,
			"type":"SCALAR"
		},
		{
			"bufferView":12,
			"componentType":5126,
			"count":328,
			"max":[
				3.28125,
				5.875,
				10.65625
			],
			"min":[
				-3.21875,
				-1,
				-10.59375
			],
			"type":"VEC3"
		},
		{
			"bufferView":13,
			"componentType":5126,
			"count":328,
			"type":"VEC3"
		},
		{
			"bufferView":14,
			"componentType":5126,
			"count":328,
			"type":"VEC2"
		},
		{
			"bufferView":15,
			"componentType":5123,
			"count":768,
			"type":"SCALAR"
		},
		{
			"bufferView":16,
			"componentType":5126,
			"count":200,
			"max":[
				3.28125,
				5.875,
				3.03125
			],
			"min":[
				-3.21875,
				3.375,
				-2.96875
			],
			"type":"VEC3"
		},
		{
			"bufferView":17,
			"componentType":5126,
			"count":200,
			"type":"VEC3"
		},
		{
			"bufferView":18,
			"componentType":5126,
			"count":200,
			"type":"VEC2"
		},
		{
			"bufferView":19,
			"componentType":5123,
			"count":396,
			"type":"SCALAR"
		},
		{
			"bufferView":20,
			"componentType":5126,
			"count":16,
			"max":[
				1,
				5.625,
				1
			],
			"min":[
				-1,
				3.625,
				-1
			],
			"type":"VEC3"
		},
		{
			"bufferView":21,
			"componentType":5126,
			"count":16,
			"type":"VEC3"
		},
		{
			"bufferView":22,
			"componentType":5126,
			"count":16,
			"type":"VEC2"
		},
		{
			"bufferView":23,
			"componentType":5123,
			"count":24,
			"type":"SCALAR"
		},
		{
			"bufferView":24,
			"componentType":5126,
			"count":24,
			"max":[
				1.0090277194976807,
				2,
				9.66076374053955
			],
			"min":[
				-1.0090277194976807,
				2,
				-9.58923625946045
			],
			"type":"VEC3"
		},
		{
			"bufferView":25,
			"componentType":5126,
			"count":24,
			"type":"VEC3"
		},
		{
			"bufferView":26,
			"componentType":5126,
			"count":24,
			"type":"VEC2"
		},
		{
			"bufferView":27,
			"componentType":5123,
			"count":48,
			"type":"SCALAR"
		},
		{
			"bufferView":28,
			"componentType":5126,
			"count":388,
			"max":[
				3.0625,
				5.875,
				8.65625
			],
			"min":[
				-3,
				-1,
				-8.59375
			],
			"type":"VEC3"
		},
		{
			"bufferView":29,
			"componentType":5126,
			"count":388,
			"type":"VEC3"
		},
		{
			"bufferView":30,
			"componentType":5126,
			"count":388,
			"type":"VEC2"
		},
		{
			"bufferView":31,
			"componentType":5123,
			"count":738,
			"type":"SCALAR"
		},
		{
			"bufferView":32,
			"componentType":5126,
			"count":100,
			"max":[
				3.0625,
				5.625,
				10.65625
			],
			"min":[
				-3,
				-1,
				-10.59375
			],
			"type":"VEC3"
		},
		{
			"bufferView":33,
			"componentType":5126,
			"count":100,
			"type":"VEC3"
		},
		{
			"bufferView":34,
			"componentType":5126,
			"count":100,
			"type":"VEC2"
		},
		{
			"bufferView":35,
			"componentType":5123,
			"count":186,
			"type":"SCALAR"
		},
		{
			"bufferView":36,
			"componentType":5126,
			"count":257,
			"max":[
				3.28125,
				5.875,
				10.65625
			],
			"min":[
				-3.21875,
				-1,
				-10.59375
			],
			"type":"VEC3"
		},
		{
			"bufferView":37,
			"componentType":5126,
			"count":257,
			"type":"VEC3"
		},
		{
			"bufferView":38,
			"componentType":5126,
			"count":257,
			"type":"VEC2"
		},
		{
			"bufferView":39,
			"componentType":5123,
			"count":570,
			"type":"SCALAR"
		},
		{
			"bufferView":40,
			"componentType":5126,
			"count":188,
			"max":[
				3.28125,
				5.875,
				3.03125
			],
			"min":[
				-3.21875,
				3.375,
				-2.96875
			],
			"type":"VEC3"
		},
		{
			"bufferView":41,
			"componentType":5126,
			"count":188,
			"type":"VEC3"
		},
		{
			"bufferView":42,
			"componentType":5126,
			"count":188,
			"type":"VEC2"
		},
		{
			"bufferView":43,
			"componentType":5123,
			"count":360,
			"type":"SCALAR"
		},
		{
			"bufferView":44,
			"componentType":5126,
			"count":16,
			"max":[
				1,
				5.625,
				1
			],
			"min":[
				-1,
				3.625,
				-1
			],
			"type":"VEC3"
		},
		{
			"bufferView":45,
			"componentType":5126,
			"count":16,
			"type":"VEC3"
		},
		{
			"bufferView":46,
			"componentType":5126,
			"count":16,
			"type":"VEC2"
		},
		{
			"bufferView":47,
			"componentType":5123,
			"count":24,
			"type":"SCALAR"
		},
		{
			"bufferView":48,
			"componentType":5126,
			"count":24,
			"max":[
				1.0090277194976807,
				2,
				9.66076374053955
			],
			"min":[
				-1.0090277194976807,
				2,
				-9.58923625946045
			],
			"type":"VEC3"
		},
		{
			"bufferView":49,
			"componentType":5126,
			"count":24,
			"type":"VEC3"
		},
		{
			"bufferView":50,
			"componentType":5126,
			"count":24,
			"type":"VEC2"
		}
	],
	"bufferViews":[
		{
			"buffer":0,
			"byteLength":4512,
			"byteOffset":0,
			"target":34962
		},
		{
			"buffer":0,
			"byteLength":4512,
			"byteOffset":4512,
			"target":34962
		},
		{
			"buffer":0,
			"byteLength":3008,
			"byteOffset":9024,
			"target":34962
		},
		{
			"buffer":0,
			"byteLength":1428,
			"byteOffset":12032,
			"target":34963
		},
		{
			"buffer":0,
			"byteLength":1152,
			"byteOffset":13460,
			"target":34962
		},
		{
			"buffer":0,
			"byteLength":1152,
			"byteOffset":14612,
			"target":34962
		},
		{
			"buffer":0,
			"byteLength":768,
			"byteOffset":15764,
			"target":34962
		},
		{
			"buffer":0,
			"byteLength":288,
			"byteOffset":16532,
			"target":34963
		},
		{
			"buffer":0,
			"byteLength":1200,
			"byteOffset":16820,
			"target":34962
		},
		{
			"buffer":0,
			"byteLength":1200,
			"byteOffset":18020,
			"target":34962
		},
		{
			"buffer":0,
			"byteLength":800,
			"byteOffset":19220,
			"target":34962
		},
		{
			"buffer":0,
			"byteLength":372,
			"byteOffset":20020,
			"target":34963
		},
		{
			"buffer":0,
			"byteLength":3936,
			"byteOffset":20392,
			"target":34962
		},
		{
			"buffer":0,
			"byteLength":3936,
			"byteOffset":24328,
			"target":34962
		},
		{
			"buffer":0,
			"byteLength":2624,
			"byteOffset":28264,
			"target":34962
		},
		{
			"buffer":0,
			"byteLength":1536,
			"byteOffset":30888,
			"target":34963
		},
		{
			"buffer":0,
			"byteLength":2400,
			"byteOffset":32424,
			"target":34962
		},
		{
			"buffer":0,
			"byteLength":2400,
			"byteOffset":34824,
			"target":34962
		},
		{
			"buffer":0,
			"byteLength":1600,
			"byteOffset":37224,
			"target":34962
		},
		{
			"buffer":0,
			"byteLength":792,
			"byteOffset":38824,
			"target":34963
		},
		{
			"buffer":0,
			"byteLength":192,
			"byteOffset":39616,
			"target":34962
		},
		{
			"buffer":0,
			"byteLength":192,
			"byteOffset":39808,
			"target":34962
		},
		{
			"buffer":0,
			"byteLength":128,
			"byteOffset":40000,
			"target":34962
		},
		{
			"buffer":0,
			"byteLength":48,
			"byteOffset":40128,
			"target":34963
		},
		{
			"buffer":0,
			"byteLength":288,
			"byteOffset":40176,
			"target":34962
		},
		{
			"buffer":0,
			"byteLength":288,
			"byteOffset":40464,
			"target":34962
		},
		{
			"buffer":0,
			"byteLength":192,
			"byteOffset":40752,
			"target":34962
		},
		{
			"buffer":0,
			"byteLength":96,
			"byteOffset":40944,
			"target":34963
		},
		{
			"buffer":0,
			"byteLength":4656,
			"byteOffset":41040,
			"target":34962
		},
		{
			"buffer":0,
			"byteLength":4656,
			"byteOffset":45696,
			"target":34962
		},
		{
			"buffer":0,
			"byteLength":3104,
			"byteOffset":50352,
			"target":34962
		},
		{
			"buffer":0,
			"byteLength":1476,
			"byteOffset":53456,
			"target":34963
		},
		{
			"buffer":0,
			"byteLength":1200,
			"byteOffset":54932,
			"target":34962
		},
		{
			"buffer":0,
			"byteLength":1200,
			"byteOffset":56132,
			"target":34962
		},
		{
			"buffer":0,
			"byteLength":800,
			"byteOffset":57332,
			"target":34962
		},
		{
			"buffer":0,
			"byteLength":372,
			"byteOffset":58132,
			"target":34963
		},
		{
			"buffer":0,
			"byteLength":3084,
			"byteOffset":58504,
			"target":34962
		},
		{
			"buffer":0,
			"byteLength":3084,
			"byteOffset":61588,
			"target":34962
		},
		{
			"buffer":0,
			"byteLength":2056,
			"byteOffset":64672,
			"target":34962
		},
		{
			"buffer":0,
			"byteLength":1140,
			"byteOffset":66728,
			"target":34963
		},
		{
			"buffer":0,
			"byteLength":2256,
			"byteOffset":67868,
			"target":34962
		},
		{
			"buffer":0,
			"byteLength":2256,
			"byteOffset":70124,
			"target":34962
		},
		{
			"buffer":0,
			"byteLength":1504,
			"byteOffset":72380,
			"target":34962
		},
		{
			"buffer":0,
			"byteLength":720,
			"byteOffset":73884,
			"target":34963
		},
		{
			"buffer":0,
			"byteLength":192,
			"byteOffset":74604,
			"target":34962
		},
		{
			"buffer":0,
			"byteLength":192,
			"byteOffset":74796,
			"target":34962
		},
		{
			"buffer":0,
			"byteLength":128,
			"byteOffset":74988,
			"target":34962
		},
		{
			"buffer":0,
			"byteLength":48,
			"byteOffset":75116,
			"target":34963
		},
		{
			"buffer":0,
			"byteLength":288,
			"byteOffset":75164,
			"target":34962
		},
		{
			"buffer":0,
			"byteLength":288,
			"byteOffset":75452,
			"target":34962
		},
		{
			"buffer":0,
			"byteLength":192,
			"byteOffset":75740,
			"target":34962
		}
	],
	"buffers":[
		{
			"byteLength":75932,
			"uri":"xmisc2.bin"
		}
	]
}
