{
	"asset":{
		"generator":"Khronos glTF Blender I/O v4.5.48",
		"version":"2.0"
	},
	"scene":0,
	"scenes":[
		{
			"name":"Scene",
			"nodes":[
				0,
				1
			]
		}
	],
	"nodes":[
		{
			"mesh":0,
			"name":"Object"
		},
		{
			"mesh":1,
			"name":"Object.001"
		}
	],
	"materials":[
		{
			"doubleSided":true,
			"name":"BD_EFLO01",
			"pbrMetallicRoughness":{
				"baseColorFactor":[
					0.800000011920929,
					0.800000011920929,
					0.800000011920929,
					1
				],
				"metallicFactor":0,
				"roughnessFactor":0.5
			}
		},
		{
			"doubleSided":true,
			"name":"BD_IBOR10",
			"pbrMetallicRoughness":{
				"baseColorFactor":[
					0.800000011920929,
					0.800000011920929,
					0.800000011920929,
					1
				],
				"metallicFactor":0,
				"roughnessFactor":0.5
			}
		},
		{
			"doubleSided":true,
			"name":"BD_EWAL03C",
			"pbrMetallicRoughness":{
				"baseColorFactor":[
					0.800000011920929,
					0.800000011920929,
					0.800000011920929,
					1
				],
				"metallicFactor":0,
				"roughnessFactor":0.5
			}
		},
		{
			"doubleSided":true,
			"name":"BD_EBOR02",
			"pbrMetallicRoughness":{
				"baseColorFactor":[
					0.800000011920929,
					0.800000011920929,
					0.800000011920929,
					1
				],
				"metallicFactor":0,
				"roughnessFactor":0.5
			}
		},
		{
			"doubleSided":true,
			"name":"BD_IBOR02",
			"pbrMetallicRoughness":{
				"baseColorFactor":[
					0.800000011920929,
					0.800000011920929,
					0.800000011920929,
					1
				],
				"metallicFactor":0,
				"roughnessFactor":0.5
			}
		},
		{
			"doubleSided":true,
			"name":"BD_THRESH02",
			"pbrMetallicRoughness":{
				"baseColorFactor":[
					0.800000011920929,
					0.800000011920929,
					0.800000011920929,
					1
				],
				"metallicFactor":0,
				"roughnessFactor":0.5
			}
		},
		{
			"doubleSided":true,
			"name":"BD_ELIG03",
			"pbrMetallicRoughness":{
				"baseColorFactor":[
					0.800000011920929,
					0.800000011920929,
					0.800000011920929,
					1
				],
				"metallicFactor":0,
				"roughnessFactor":0.5
			}
		},
		{
			"doubleSided":true,
			"name":"BD_ELIG02A",
			"pbrMetallicRoughness":{
				"baseColorFactor":[
					0.800000011920929,
					0.800000011920929,
					0.800000011920929,
					1
				],
				"metallicFactor":0,
				"roughnessFactor":0.5
			}
		},
		{
			"doubleSided":true,
			"name":"BD_EFLO01.001",
			"pbrMetallicRoughness":{
				"baseColorFactor":[
					0.800000011920929,
					0.800000011920929,
					0.800000011920929,
					1
				],
				"metallicFactor":0,
				"roughnessFactor":0.5
			}
		},
		{
			"doubleSided":true,
			"name":"BD_EWAL03C.001",
			"pbrMetallicRoughness":{
				"baseColorFactor":[
					0.800000011920929,
					0.800000011920929,
					0.800000011920929,
					1
				],
				"metallicFactor":0,
				"roughnessFactor":0.5
			}
		},
		{
			"doubleSided":true,
			"name":"BD_EBOR02.001",
			"pbrMetallicRoughness":{
				"baseColorFactor":[
					0.800000011920929,
					0.800000011920929,
					0.800000011920929,
					1
				],
				"metallicFactor":0,
				"roughnessFactor":0.5
			}
		},
		{
			"doubleSided":true,
			"name":"BD_IBOR02.001",
			"pbrMetallicRoughness":{
				"baseColorFactor":[
					0.800000011920929,
					0.800000011920929,
					0.800000011920929,
					1
				],
				"metallicFactor":0,
				"roughnessFactor":0.5
			}
		},
		{
			"doubleSided":true,
			"name":"BD_THRESH02.001",
			"pbrMetallicRoughness":{
				"baseColorFactor":[
					0.800000011920929,
					0.800000011920929,
					0.800000011920929,
					1
				],
				"metallicFactor":0,
				"roughnessFactor":0.5
			}
		},
		{
			"doubleSided":true,
			"name":"BD_ELIG02A.001",
			"pbrMetallicRoughness":{
				"baseColorFactor":[
					0.800000011920929,
					0.800000011920929,
					0.800000011920929,
					1
				],
				"metallicFactor":0,
				"roughnessFactor":0.5
			}
		}
	],
	"meshes":[
		{
			"name":"Mesh",
			"primitives":[
				{
					"attributes":{
						"POSITION":0,
						"NORMAL":1,
						"TEXCOORD_0":2
					},
					"indices":3,
					"material":0
				},
				{
					"attributes":{
						"POSITION":4,
						"NORMAL":5,
						"TEXCOORD_0":6
					},
					"indices":7,
					"material":1
				},
				{
					"attributes":{
						"POSITION":8,
						"NORMAL":9,
						"TEXCOORD_0":10
					},
					"indices":11,
					"material":2
				},
				{
					"attributes":{
						"POSITION":12,
						"NORMAL":13,
						"TEXCOORD_0":14
					},
					"indices":15,
					"material":3
				},
				{
					"attributes":{
						"POSITION":16,
						"NORMAL":17,
						"TEXCOORD_0":18
					},
					"indices":19,
					"material":4
				},
				{
					"attributes":{
						"POSITION":20,
						"NORMAL":21,
						"TEXCOORD_0":22
					},
					"indices":23,
					"material":5
				},
				{
					"attributes":{
						"POSITION":24,
						"NORMAL":25,
						"TEXCOORD_0":26
					},
					"indices":27,
					"material":6
				},
				{
					"attributes":{
						"POSITION":28,
						"NORMAL":29,
						"TEXCOORD_0":30
					},
					"indices":31,
					"material":7
				}
			]
		},
		{
			"name":"Mesh.001",
			"primitives":[
				{
					"attributes":{
						"POSITION":32,
						"NORMAL":33,
						"TEXCOORD_0":34
					},
					"indices":35,
					"material":8
				},
				{
					"attributes":{
						"POSITION":36,
						"NORMAL":37,
						"TEXCOORD_0":38
					},
					"indices":39,
					"material":9
				},
				{
					"attributes":{
						"POSITION":40,
						"NORMAL":41,
						"TEXCOORD_0":42
					},
					"indices":43,
					"material":10
				},
				{
					"attributes":{
						"POSITION":44,
						"NORMAL":45,
						"TEXCOORD_0":46
					},
					"indices":47,
					"material":11
				},
				{
					"attributes":{
						"POSITION":48,
						"NORMAL":49,
						"TEXCOORD_0":50
					},
					"indices":51,
					"material":12
				},
				{
					"attributes":{
						"POSITION":52,
						"NORMAL":53,
						"TEXCOORD_0":54
					},
					"indices":55,
					"material":13
				}
			]
		}
	],
	"accessors":[
		{
			"bufferView":0,
			"componentType":5126,
			"count":37,
			"max":[
				6.25,
				3.833984375,
				6.197916507720947
			],
			"min":[
				-6.25,
				1,
				-5.75
			],
			"type":"VEC3"
		},
		{
			"bufferView":1,
			"componentType":5126,
			"count":37,
			"type":"VEC3"
		},
		{
			"bufferView":2,
			"componentType":5126,
			"count":37,
			"type":"VEC2"
		},
		{
			"bufferView":3,
			"componentType":5123,
			"count":81,
			"type":"SCALAR"
		},
		{
			"bufferView":4,
			"componentType":5126,
			"count":24,
			"max":[
				1.125,
				1,
				5.75
			],
			"min":[
				-1.125,
				-0.38252517580986023,
				-0.43450790643692017
			],
			"type":"VEC3"
		},
		{
			"bufferView":5,
			"componentType":5126,
			"count":24,
			"type":"VEC3"
		},
		{
			"bufferView":6,
			"componentType":5126,
			"count":24,
			"type":"VEC2"
		},
		{
			"bufferView":7,
			"componentType":5123,
			"count":36,
			"type":"SCALAR"
		},
		{
			"bufferView":8,
			"componentType":5126,
			"count":109,
			"max":[
				6.25,
				4.28125,
				7.25
			],
			"min":[
				-6.25,
				-1.75,
				-10.75
			],
			"type":"VEC3"
		},
		{
			"bufferView":9,
			"componentType":5126,
			"count":109,
			"type":"VEC3"
		},
		{
			"bufferView":10,
			"componentType":5126,
			"count":109,
			"type":"VEC2"
		},
		{
			"bufferView":11,
			"componentType":5123,
			"count":249,
			"type":"SCALAR"
		},
		{
			"bufferView":12,
			"componentType":5126,
			"count":164,
			"max":[
				7.5,
				4,
				8.25
			],
			"min":[
				-7.5,
				-14.25,
				-8
			],
			"type":"VEC3"
		},
		{
			"bufferView":13,
			"componentType":5126,
			"count":164,
			"type":"VEC3"
		},
		{
			"bufferView":14,
			"componentType":5126,
			"count":164,
			"type":"VEC2"
		},
		{
			"bufferView":15,
			"componentType":5123,
			"count":420,
			"type":"SCALAR"
		},
		{
			"bufferView":16,
			"componentType":5126,
			"count":55,
			"max":[
				6.125,
				4,
				7.25
			],
			"min":[
				-6.25,
				1,
				5.75
			],
			"type":"VEC3"
		},
		{
			"bufferView":17,
			"componentType":5126,
			"count":55,
			"type":"VEC3"
		},
		{
			"bufferView":18,
			"componentType":5126,
			"count":55,
			"type":"VEC2"
		},
		{
			"bufferView":19,
			"componentType":5123,
			"count":99,
			"type":"SCALAR"
		},
		{
			"bufferView":20,
			"componentType":5126,
			"count":147,
			"max":[
				7.5,
				4.28125,
				7.5
			],
			"min":[
				-7.5,
				-5,
				-5.75
			],
			"type":"VEC3"
		},
		{
			"bufferView":21,
			"componentType":5126,
			"count":147,
			"type":"VEC3"
		},
		{
			"bufferView":22,
			"componentType":5126,
			"count":147,
			"type":"VEC2"
		},
		{
			"bufferView":23,
			"componentType":5123,
			"count":279,
			"type":"SCALAR"
		},
		{
			"bufferView":24,
			"componentType":5126,
			"count":4,
			"max":[
				6.25,
				3.6875,
				6.25
			],
			"min":[
				6.125,
				3.6875,
				6.197916507720947
			],
			"type":"VEC3"
		},
		{
			"bufferView":25,
			"componentType":5126,
			"count":4,
			"type":"VEC3"
		},
		{
			"bufferView":26,
			"componentType":5126,
			"count":4,
			"type":"VEC2"
		},
		{
			"bufferView":27,
			"componentType":5123,
			"count":6,
			"type":"SCALAR"
		},
		{
			"bufferView":28,
			"componentType":5126,
			"count":22,
			"max":[
				1,
				-2,
				4.5
			],
			"min":[
				-1,
				-5,
				1.5
			],
			"type":"VEC3"
		},
		{
			"bufferView":29,
			"componentType":5126,
			"count":22,
			"type":"VEC3"
		},
		{
			"bufferView":30,
			"componentType":5126,
			"count":22,
			"type":"VEC2"
		},
		{
			"bufferView":31,
			"componentType":5123,
			"count":54,
			"type":"SCALAR"
		},
		{
			"bufferView":32,
			"componentType":5126,
			"count":32,
			"max":[
				6.25,
				4,
				6.25
			],
			"min":[
				-6.25,
				1,
				-5.75
			],
			"type":"VEC3"
		},
		{
			"bufferView":33,
			"componentType":5126,
			"count":32,
			"type":"VEC3"
		},
		{
			"bufferView":34,
			"componentType":5126,
			"count":32,
			"type":"VEC2"
		},
		{
			"bufferView":35,
			"componentType":5123,
			"count":78,
			"type":"SCALAR"
		},
		{
			"bufferView":36,
			"componentType":5126,
			"count":95,
			"max":[
				6.125,
				4,
				8.25
			],
			"min":[
				-1.375,
				-1.75,
				-10.75
			],
			"type":"VEC3"
		},
		{
			"bufferView":37,
			"componentType":5126,
			"count":95,
			"type":"VEC3"
		},
		{
			"bufferView":38,
			"componentType":5126,
			"count":95,
			"type":"VEC2"
		},
		{
			"bufferView":39,
			"componentType":5123,
			"count":225,
			"type":"SCALAR"
		},
		{
			"bufferView":40,
			"componentType":5126,
			"count":111,
			"max":[
				7.5,
				4,
				8.25
			],
			"min":[
				-7.5,
				-14.25,
				-8
			],
			"type":"VEC3"
		},
		{
			"bufferView":41,
			"componentType":5126,
			"count":111,
			"type":"VEC3"
		},
		{
			"bufferView":42,
			"componentType":5126,
			"count":111,
			"type":"VEC2"
		},
		{
			"bufferView":43,
			"componentType":5123,
			"count":237,
			"type":"SCALAR"
		},
		{
			"bufferView":44,
			"componentType":5126,
			"count":50,
			"max":[
				6.125,
				4,
				7.25
			],
			"min":[
				-6.25,
				1,
				5.75
			],
			"type":"VEC3"
		},
		{
			"bufferView":45,
			"componentType":5126,
			"count":50,
			"type":"VEC3"
		},
		{
			"bufferView":46,
			"componentType":5126,
			"count":50,
			"type":"VEC2"
		},
		{
			"bufferView":47,
			"componentType":5123,
			"count":90,
			"type":"SCALAR"
		},
		{
			"bufferView":48,
			"componentType":5126,
			"count":140,
			"max":[
				7.5,
				4,
				7.5
			],
			"min":[
				-7.5,
				-5,
				-5.75
			],
			"type":"VEC3"
		},
		{
			"bufferView":49,
			"componentType":5126,
			"count":140,
			"type":"VEC3"
		},
		{
			"bufferView":50,
			"componentType":5126,
			"count":140,
			"type":"VEC2"
		},
		{
			"bufferView":51,
			"componentType":5123,
			"count":264,
			"type":"SCALAR"
		},
		{
			"bufferView":52,
			"componentType":5126,
			"count":22,
			"max":[
				1,
				-2,
				4.5
			],
			"min":[
				-1,
				-5,
				1.5
			],
			"type":"VEC3"
		},
		{
			"bufferView":53,
			"componentType":5126,
			"count":22,
			"type":"VEC3"
		},
		{
			"bufferView":54,
			"componentType":5126,
			"count":22,
			"type":"VEC2"
		},
		{
			"bufferView":55,
			"componentType":5123,
			"count":54,
			"type":"SCALAR"
		}
	],
	"bufferViews":[
		{
			"buffer":0,
			"byteLength":444,
			"byteOffset":0,
			"target":34962
		},
		{
			"buffer":0,
			"byteLength":444,
			"byteOffset":444,
			"target":34962
		},
		{
			"buffer":0,
			"byteLength":296,
			"byteOffset":888,
			"target":34962
		},
		{
			"buffer":0,
			"byteLength":162,
			"byteOffset":1184,
			"target":34963
		},
		{
			"buffer":0,
			"byteLength":288,
			"byteOffset":1348,
			"target":34962
		},
		{
			"buffer":0,
			"byteLength":288,
			"byteOffset":1636,
			"target":34962
		},
		{
			"buffer":0,
			"byteLength":192,
			"byteOffset":1924,
			"target":34962
		},
		{
			"buffer":0,
			"byteLength":72,
			"byteOffset":2116,
			"target":34963
		},
		{
			"buffer":0,
			"byteLength":1308,
			"byteOffset":2188,
			"target":34962
		},
		{
			"buffer":0,
			"byteLength":1308,
			"byteOffset":3496,
			"target":34962
		},
		{
			"buffer":0,
			"byteLength":872,
			"byteOffset":4804,
			"target":34962
		},
		{
			"buffer":0,
			"byteLength":498,
			"byteOffset":5676,
			"target":34963
		},
		{
			"buffer":0,
			"byteLength":1968,
			"byteOffset":6176,
			"target":34962
		},
		{
			"buffer":0,
			"byteLength":1968,
			"byteOffset":8144,
			"target":34962
		},
		{
			"buffer":0,
			"byteLength":1312,
			"byteOffset":10112,
			"target":34962
		},
		{
			"buffer":0,
			"byteLength":840,
			"byteOffset":11424,
			"target":34963
		},
		{
			"buffer":0,
			"byteLength":660,
			"byteOffset":12264,
			"target":34962
		},
		{
			"buffer":0,
			"byteLength":660,
			"byteOffset":12924,
			"target":34962
		},
		{
			"buffer":0,
			"byteLength":440,
			"byteOffset":13584,
			"target":34962
		},
		{
			"buffer":0,
			"byteLength":198,
			"byteOffset":14024,
			"target":34963
		},
		{
			"buffer":0,
			"byteLength":1764,
			"byteOffset":14224,
			"target":34962
		},
		{
			"buffer":0,
			"byteLength":1764,
			"byteOffset":15988,
			"target":34962
		},
		{
			"buffer":0,
			"byteLength":1176,
			"byteOffset":17752,
			"target":34962
		},
		{
			"buffer":0,
			"byteLength":558,
			"byteOffset":18928,
			"target":34963
		},
		{
			"buffer":0,
			"byteLength":48,
			"byteOffset":19488,
			"target":34962
		},
		{
			"buffer":0,
			"byteLength":48,
			"byteOffset":19536,
			"target":34962
		},
		{
			"buffer":0,
			"byteLength":32,
			"byteOffset":19584,
			"target":34962
		},
		{
			"buffer":0,
			"byteLength":12,
			"byteOffset":19616,
			"target":34963
		},
		{
			"buffer":0,
			"byteLength":264,
			"byteOffset":19628,
			"target":34962
		},
		{
			"buffer":0,
			"byteLength":264,
			"byteOffset":19892,
			"target":34962
		},
		{
			"buffer":0,
			"byteLength":176,
			"byteOffset":20156,
			"target":34962
		},
		{
			"buffer":0,
			"byteLength":108,
			"byteOffset":20332,
			"target":34963
		},
		{
			"buffer":0,
			"byteLength":384,
			"byteOffset":20440,
			"target":34962
		},
		{
			"buffer":0,
			"byteLength":384,
			"byteOffset":20824,
			"target":34962
		},
		{
			"buffer":0,
			"byteLength":256,
			"byteOffset":21208,
			"target":34962
		},
		{
			"buffer":0,
			"byteLength":156,
			"byteOffset":21464,
			"target":34963
		},
		{
			"buffer":0,
			"byteLength":1140,
			"byteOffset":21620,
			"target":34962
		},
		{
			"buffer":0,
			"byteLength":1140,
			"byteOffset":22760,
			"target":34962
		},
		{
			"buffer":0,
			"byteLength":760,
			"byteOffset":23900,
			"target":34962
		},
		{
			"buffer":0,
			"byteLength":450,
			"byteOffset":24660,
			"target":34963
		},
		{
			"buffer":0,
			"byteLength":1332,
			"byteOffset":25112,
			"target":34962
		},
		{
			"buffer":0,
			"byteLength":1332,
			"byteOffset":26444,
			"target":34962
		},
		{
			"buffer":0,
			"byteLength":888,
			"byteOffset":27776,
			"target":34962
		},
		{
			"buffer":0,
			"byteLength":474,
			"byteOffset":28664,
			"target":34963
		},
		{
			"buffer":0,
			"byteLength":600,
			"byteOffset":29140,
			"target":34962
		},
		{
			"buffer":0,
			"byteLength":600,
			"byteOffset":29740,
			"target":34962
		},
		{
			"buffer":0,
			"byteLength":400,
			"byteOffset":30340,
			"target":34962
		},
		{
			"buffer":0,
			"byteLength":180,
			"byteOffset":30740,
			"target":34963
		},
		{
			"buffer":0,
			"byteLength":1680,
			"byteOffset":30920,
			"target":34962
		},
		{
			"buffer":0,
			"byteLength":1680,
			"byteOffset":32600,
			"target":34962
		},
		{
			"buffer":0,
			"byteLength":1120,
			"byteOffset":34280,
			"target":34962
		},
		{
			"buffer":0,
			"byteLength":528,
			"byteOffset":35400,
			"target":34963
		},
		{
			"buffer":0,
			"byteLength":264,
			"byteOffset":35928,
			"target":34962
		},
		{
			"buffer":0,
			"byteLength":264,
			"byteOffset":36192,
			"target":34962
		},
		{
			"buffer":0,
			"byteLength":176,
			"byteOffset":36456,
			"target":34962
		},
		{
			"buffer":0,
			"byteLength":108,
			"byteOffset":36632,
			"target":34963
		}
	],
	"buffers":[
		{
			"byteLength":36740,
			"uri":"xmiscc.bin"
		}
	]
}
