{
	"asset":{
		"generator":"Khronos glTF Blender I/O v4.5.48",
		"version":"2.0"
	},
	"scene":0,
	"scenes":[
		{
			"name":"Scene",
			"nodes":[
				0,
				1,
				2,
				3,
				4,
				5
			]
		}
	],
	"nodes":[
		{
			"mesh":0,
			"name":"Object"
		},
		{
			"mesh":1,
			"name":"Object.001"
		},
		{
			"mesh":2,
			"name":"Object.002"
		},
		{
			"mesh":3,
			"name":"Object.003"
		},
		{
			"mesh":4,
			"name":"Object.004"
		},
		{
			"mesh":5,
			"name":"Object.005"
		}
	],
	"materials":[
		{
			"doubleSided":true,
			"name":"bd_ecombo3d",
			"pbrMetallicRoughness":{
				"baseColorFactor":[
					0.800000011920929,
					0.800000011920929,
					0.800000011920929,
					1
				],
				"metallicFactor":0,
				"roughnessFactor":0.5
			}
		},
		{
			"doubleSided":true,
			"name":"bd_eterrain3a",
			"pbrMetallicRoughness":{
				"baseColorFactor":[
					0.800000011920929,
					0.800000011920929,
					0.800000011920929,
					1
				],
				"metallicFactor":0,
				"roughnessFactor":0.5
			}
		},
		{
			"doubleSided":true,
			"name":"bd_ecombo3d.001",
			"pbrMetallicRoughness":{
				"baseColorFactor":[
					0.800000011920929,
					0.800000011920929,
					0.800000011920929,
					1
				],
				"metallicFactor":0,
				"roughnessFactor":0.5
			}
		},
		{
			"doubleSided":true,
			"name":"bd_eterrain3a.001",
			"pbrMetallicRoughness":{
				"baseColorFactor":[
					0.800000011920929,
					0.800000011920929,
					0.800000011920929,
					1
				],
				"metallicFactor":0,
				"roughnessFactor":0.5
			}
		},
		{
			"doubleSided":true,
			"name":"bd_ecombo3d.002",
			"pbrMetallicRoughness":{
				"baseColorFactor":[
					0.800000011920929,
					0.800000011920929,
					0.800000011920929,
					1
				],
				"metallicFactor":0,
				"roughnessFactor":0.5
			}
		},
		{
			"doubleSided":true,
			"name":"bd_eterrain3a.002",
			"pbrMetallicRoughness":{
				"baseColorFactor":[
					0.800000011920929,
					0.800000011920929,
					0.800000011920929,
					1
				],
				"metallicFactor":0,
				"roughnessFactor":0.5
			}
		},
		{
			"doubleSided":true,
			"name":"bd_ecombo3d.003",
			"pbrMetallicRoughness":{
				"baseColorFactor":[
					0.800000011920929,
					0.800000011920929,
					0.800000011920929,
					1
				],
				"metallicFactor":0,
				"roughnessFactor":0.5
			}
		},
		{
			"doubleSided":true,
			"name":"bd_eterrain3a.003",
			"pbrMetallicRoughness":{
				"baseColorFactor":[
					0.800000011920929,
					0.800000011920929,
					0.800000011920929,
					1
				],
				"metallicFactor":0,
				"roughnessFactor":0.5
			}
		},
		{
			"doubleSided":true,
			"name":"bd_ecombo3d.004",
			"pbrMetallicRoughness":{
				"baseColorFactor":[
					0.800000011920929,
					0.800000011920929,
					0.800000011920929,
					1
				],
				"metallicFactor":0,
				"roughnessFactor":0.5
			}
		},
		{
			"doubleSided":true,
			"name":"bd_eterrain3a.004",
			"pbrMetallicRoughness":{
				"baseColorFactor":[
					0.800000011920929,
					0.800000011920929,
					0.800000011920929,
					1
				],
				"metallicFactor":0,
				"roughnessFactor":0.5
			}
		},
		{
			"doubleSided":true,
			"name":"bd_eterrain3a.005",
			"pbrMetallicRoughness":{
				"baseColorFactor":[
					0.800000011920929,
					0.800000011920929,
					0.800000011920929,
					1
				],
				"metallicFactor":0,
				"roughnessFactor":0.5
			}
		}
	],
	"meshes":[
		{
			"name":"Mesh",
			"primitives":[
				{
					"attributes":{
						"POSITION":0,
						"NORMAL":1,
						"TEXCOORD_0":2
					},
					"indices":3,
					"material":0
				},
				{
					"attributes":{
						"POSITION":4,
						"NORMAL":5,
						"TEXCOORD_0":6
					},
					"indices":7,
					"material":1
				}
			]
		},
		{
			"name":"Mesh.001",
			"primitives":[
				{
					"attributes":{
						"POSITION":8,
						"NORMAL":9,
						"TEXCOORD_0":10
					},
					"indices":11,
					"material":2
				},
				{
					"attributes":{
						"POSITION":12,
						"NORMAL":13,
						"TEXCOORD_0":14
					},
					"indices":15,
					"material":3
				}
			]
		},
		{
			"name":"Mesh.002",
			"primitives":[
				{
					"attributes":{
						"POSITION":16,
						"NORMAL":17,
						"TEXCOORD_0":18
					},
					"indices":19,
					"material":4
				},
				{
					"attributes":{
						"POSITION":20,
						"NORMAL":21,
						"TEXCOORD_0":22
					},
					"indices":23,
					"material":5
				}
			]
		},
		{
			"name":"Mesh.003",
			"primitives":[
				{
					"attributes":{
						"POSITION":24,
						"NORMAL":25,
						"TEXCOORD_0":26
					},
					"indices":27,
					"material":6
				},
				{
					"attributes":{
						"POSITION":28,
						"NORMAL":29,
						"TEXCOORD_0":30
					},
					"indices":31,
					"material":7
				}
			]
		},
		{
			"name":"Mesh.004",
			"primitives":[
				{
					"attributes":{
						"POSITION":32,
						"NORMAL":33,
						"TEXCOORD_0":34
					},
					"indices":35,
					"material":8
				},
				{
					"attributes":{
						"POSITION":36,
						"NORMAL":37,
						"TEXCOORD_0":38
					},
					"indices":39,
					"material":9
				}
			]
		},
		{
			"name":"Mesh.005",
			"primitives":[
				{
					"attributes":{
						"POSITION":40,
						"NORMAL":41,
						"TEXCOORD_0":42
					},
					"indices":43,
					"material":10
				}
			]
		}
	],
	"accessors":[
		{
			"bufferView":0,
			"componentType":5126,
			"count":111,
			"max":[
				43.421875,
				9.75,
				11.0625
			],
			"min":[
				-46.0625,
				-1.953125,
				-16.15625
			],
			"type":"VEC3"
		},
		{
			"bufferView":1,
			"componentType":5126,
			"count":111,
			"type":"VEC3"
		},
		{
			"bufferView":2,
			"componentType":5126,
			"count":111,
			"type":"VEC2"
		},
		{
			"bufferView":3,
			"componentType":5123,
			"count":111,
			"type":"SCALAR"
		},
		{
			"bufferView":4,
			"componentType":5126,
			"count":399,
			"max":[
				36.1875,
				35.484375,
				7.140625
			],
			"min":[
				-39.0625,
				1.15625,
				-13.28125
			],
			"type":"VEC3"
		},
		{
			"bufferView":5,
			"componentType":5126,
			"count":399,
			"type":"VEC3"
		},
		{
			"bufferView":6,
			"componentType":5126,
			"count":399,
			"type":"VEC2"
		},
		{
			"bufferView":7,
			"componentType":5123,
			"count":399,
			"type":"SCALAR"
		},
		{
			"bufferView":8,
			"componentType":5126,
			"count":87,
			"max":[
				43.421875,
				9.765625,
				10.6875
			],
			"min":[
				-46.0625,
				-1.875,
				-16.15625
			],
			"type":"VEC3"
		},
		{
			"bufferView":9,
			"componentType":5126,
			"count":87,
			"type":"VEC3"
		},
		{
			"bufferView":10,
			"componentType":5126,
			"count":87,
			"type":"VEC2"
		},
		{
			"bufferView":11,
			"componentType":5123,
			"count":87,
			"type":"SCALAR"
		},
		{
			"bufferView":12,
			"componentType":5126,
			"count":291,
			"max":[
				36.1875,
				35.046875,
				5.71875
			],
			"min":[
				-38.015625,
				1.75,
				-13.28125
			],
			"type":"VEC3"
		},
		{
			"bufferView":13,
			"componentType":5126,
			"count":291,
			"type":"VEC3"
		},
		{
			"bufferView":14,
			"componentType":5126,
			"count":291,
			"type":"VEC2"
		},
		{
			"bufferView":15,
			"componentType":5123,
			"count":291,
			"type":"SCALAR"
		},
		{
			"bufferView":16,
			"componentType":5126,
			"count":81,
			"max":[
				43.421875,
				9.828125,
				10.6875
			],
			"min":[
				-46.0625,
				-1.8125,
				-14.5
			],
			"type":"VEC3"
		},
		{
			"bufferView":17,
			"componentType":5126,
			"count":81,
			"type":"VEC3"
		},
		{
			"bufferView":18,
			"componentType":5126,
			"count":81,
			"type":"VEC2"
		},
		{
			"bufferView":19,
			"componentType":5123,
			"count":81,
			"type":"SCALAR"
		},
		{
			"bufferView":20,
			"componentType":5126,
			"count":240,
			"max":[
				36.1875,
				35.109375,
				5.71875
			],
			"min":[
				-38.015625,
				1.8125,
				-13.28125
			],
			"type":"VEC3"
		},
		{
			"bufferView":21,
			"componentType":5126,
			"count":240,
			"type":"VEC3"
		},
		{
			"bufferView":22,
			"componentType":5126,
			"count":240,
			"type":"VEC2"
		},
		{
			"bufferView":23,
			"componentType":5123,
			"count":240,
			"type":"SCALAR"
		},
		{
			"bufferView":24,
			"componentType":5126,
			"count":66,
			"max":[
				43.421875,
				14.328125,
				8.71875
			],
			"min":[
				-44.890625,
				-1.625,
				-13.703125
			],
			"type":"VEC3"
		},
		{
			"bufferView":25,
			"componentType":5126,
			"count":66,
			"type":"VEC3"
		},
		{
			"bufferView":26,
			"componentType":5126,
			"count":66,
			"type":"VEC2"
		},
		{
			"bufferView":27,
			"componentType":5123,
			"count":66,
			"type":"SCALAR"
		},
		{
			"bufferView":28,
			"componentType":5126,
			"count":123,
			"max":[
				36.1875,
				35.1875,
				4.375
			],
			"min":[
				-33.21875,
				2.03125,
				-12.484375
			],
			"type":"VEC3"
		},
		{
			"bufferView":29,
			"componentType":5126,
			"count":123,
			"type":"VEC3"
		},
		{
			"bufferView":30,
			"componentType":5126,
			"count":123,
			"type":"VEC2"
		},
		{
			"bufferView":31,
			"componentType":5123,
			"count":123,
			"type":"SCALAR"
		},
		{
			"bufferView":32,
			"componentType":5126,
			"count":6,
			"max":[
				31.578125,
				6.15625,
				4.078125
			],
			"min":[
				20.90625,
				-1.046875,
				-12.28125
			],
			"type":"VEC3"
		},
		{
			"bufferView":33,
			"componentType":5126,
			"count":6,
			"type":"VEC3"
		},
		{
			"bufferView":34,
			"componentType":5126,
			"count":6,
			"type":"VEC2"
		},
		{
			"bufferView":35,
			"componentType":5123,
			"count":6,
			"type":"SCALAR"
		},
		{
			"bufferView":36,
			"componentType":5126,
			"count":120,
			"max":[
				43.4375,
				35.265625,
				8.609375
			],
			"min":[
				-45.109375,
				-1.234375,
				-13.765625
			],
			"type":"VEC3"
		},
		{
			"bufferView":37,
			"componentType":5126,
			"count":120,
			"type":"VEC3"
		},
		{
			"bufferView":38,
			"componentType":5126,
			"count":120,
			"type":"VEC2"
		},
		{
			"bufferView":39,
			"componentType":5123,
			"count":120,
			"type":"SCALAR"
		},
		{
			"bufferView":40,
			"componentType":5126,
			"count":87,
			"max":[
				41.875,
				35.84375,
				9.890625
			],
			"min":[
				-46.0625,
				-1.75,
				-13.65625
			],
			"type":"VEC3"
		},
		{
			"bufferView":41,
			"componentType":5126,
			"count":87,
			"type":"VEC3"
		},
		{
			"bufferView":42,
			"componentType":5126,
			"count":87,
			"type":"VEC2"
		},
		{
			"bufferView":43,
			"componentType":5123,
			"count":87,
			"type":"SCALAR"
		}
	],
	"bufferViews":[
		{
			"buffer":0,
			"byteLength":1332,
			"byteOffset":0,
			"target":34962
		},
		{
			"buffer":0,
			"byteLength":1332,
			"byteOffset":1332,
			"target":34962
		},
		{
			"buffer":0,
			"byteLength":888,
			"byteOffset":2664,
			"target":34962
		},
		{
			"buffer":0,
			"byteLength":222,
			"byteOffset":3552,
			"target":34963
		},
		{
			"buffer":0,
			"byteLength":4788,
			"byteOffset":3776,
			"target":34962
		},
		{
			"buffer":0,
			"byteLength":4788,
			"byteOffset":8564,
			"target":34962
		},
		{
			"buffer":0,
			"byteLength":3192,
			"byteOffset":13352,
			"target":34962
		},
		{
			"buffer":0,
			"byteLength":798,
			"byteOffset":16544,
			"target":34963
		},
		{
			"buffer":0,
			"byteLength":1044,
			"byteOffset":17344,
			"target":34962
		},
		{
			"buffer":0,
			"byteLength":1044,
			"byteOffset":18388,
			"target":34962
		},
		{
			"buffer":0,
			"byteLength":696,
			"byteOffset":19432,
			"target":34962
		},
		{
			"buffer":0,
			"byteLength":174,
			"byteOffset":20128,
			"target":34963
		},
		{
			"buffer":0,
			"byteLength":3492,
			"byteOffset":20304,
			"target":34962
		},
		{
			"buffer":0,
			"byteLength":3492,
			"byteOffset":23796,
			"target":34962
		},
		{
			"buffer":0,
			"byteLength":2328,
			"byteOffset":27288,
			"target":34962
		},
		{
			"buffer":0,
			"byteLength":582,
			"byteOffset":29616,
			"target":34963
		},
		{
			"buffer":0,
			"byteLength":972,
			"byteOffset":30200,
			"target":34962
		},
		{
			"buffer":0,
			"byteLength":972,
			"byteOffset":31172,
			"target":34962
		},
		{
			"buffer":0,
			"byteLength":648,
			"byteOffset":32144,
			"target":34962
		},
		{
			"buffer":0,
			"byteLength":162,
			"byteOffset":32792,
			"target":34963
		},
		{
			"buffer":0,
			"byteLength":2880,
			"byteOffset":32956,
			"target":34962
		},
		{
			"buffer":0,
			"byteLength":2880,
			"byteOffset":35836,
			"target":34962
		},
		{
			"buffer":0,
			"byteLength":1920,
			"byteOffset":38716,
			"target":34962
		},
		{
			"buffer":0,
			"byteLength":480,
			"byteOffset":40636,
			"target":34963
		},
		{
			"buffer":0,
			"byteLength":792,
			"byteOffset":41116,
			"target":34962
		},
		{
			"buffer":0,
			"byteLength":792,
			"byteOffset":41908,
			"target":34962
		},
		{
			"buffer":0,
			"byteLength":528,
			"byteOffset":42700,
			"target":34962
		},
		{
			"buffer":0,
			"byteLength":132,
			"byteOffset":43228,
			"target":34963
		},
		{
			"buffer":0,
			"byteLength":1476,
			"byteOffset":43360,
			"target":34962
		},
		{
			"buffer":0,
			"byteLength":1476,
			"byteOffset":44836,
			"target":34962
		},
		{
			"buffer":0,
			"byteLength":984,
			"byteOffset":46312,
			"target":34962
		},
		{
			"buffer":0,
			"byteLength":246,
			"byteOffset":47296,
			"target":34963
		},
		{
			"buffer":0,
			"byteLength":72,
			"byteOffset":47544,
			"target":34962
		},
		{
			"buffer":0,
			"byteLength":72,
			"byteOffset":47616,
			"target":34962
		},
		{
			"buffer":0,
			"byteLength":48,
			"byteOffset":47688,
			"target":34962
		},
		{
			"buffer":0,
			"byteLength":12,
			"byteOffset":47736,
			"target":34963
		},
		{
			"buffer":0,
			"byteLength":1440,
			"byteOffset":47748,
			"target":34962
		},
		{
			"buffer":0,
			"byteLength":1440,
			"byteOffset":49188,
			"target":34962
		},
		{
			"buffer":0,
			"byteLength":960,
			"byteOffset":50628,
			"target":34962
		},
		{
			"buffer":0,
			"byteLength":240,
			"byteOffset":51588,
			"target":34963
		},
		{
			"buffer":0,
			"byteLength":1044,
			"byteOffset":51828,
			"target":34962
		},
		{
			"buffer":0,
			"byteLength":1044,
			"byteOffset":52872,
			"target":34962
		},
		{
			"buffer":0,
			"byteLength":696,
			"byteOffset":53916,
			"target":34962
		},
		{
			"buffer":0,
			"byteLength":174,
			"byteOffset":54612,
			"target":34963
		}
	],
	"buffers":[
		{
			"byteLength":54788,
			"uri":"xrocka.bin"
		}
	]
}
