{
	"asset":{
		"generator":"Khronos glTF Blender I/O v4.5.48",
		"version":"2.0"
	},
	"scene":0,
	"scenes":[
		{
			"name":"Scene",
			"nodes":[
				0,
				1,
				2,
				3,
				4,
				5
			]
		}
	],
	"nodes":[
		{
			"mesh":0,
			"name":"Object"
		},
		{
			"mesh":1,
			"name":"Object.001"
		},
		{
			"mesh":2,
			"name":"Object.002"
		},
		{
			"mesh":3,
			"name":"Object.003"
		},
		{
			"mesh":4,
			"name":"Object.004"
		},
		{
			"mesh":5,
			"name":"Object.005"
		}
	],
	"materials":[
		{
			"doubleSided":true,
			"name":"bd_eterrain3a",
			"pbrMetallicRoughness":{
				"baseColorFactor":[
					0.800000011920929,
					0.800000011920929,
					0.800000011920929,
					1
				],
				"metallicFactor":0,
				"roughnessFactor":0.5
			}
		},
		{
			"doubleSided":true,
			"name":"bd_eterrain3a.001",
			"pbrMetallicRoughness":{
				"baseColorFactor":[
					0.800000011920929,
					0.800000011920929,
					0.800000011920929,
					1
				],
				"metallicFactor":0,
				"roughnessFactor":0.5
			}
		},
		{
			"doubleSided":true,
			"name":"bd_eterrain3a.002",
			"pbrMetallicRoughness":{
				"baseColorFactor":[
					0.800000011920929,
					0.800000011920929,
					0.800000011920929,
					1
				],
				"metallicFactor":0,
				"roughnessFactor":0.5
			}
		},
		{
			"doubleSided":true,
			"name":"bd_eterrain3a.003",
			"pbrMetallicRoughness":{
				"baseColorFactor":[
					0.800000011920929,
					0.800000011920929,
					0.800000011920929,
					1
				],
				"metallicFactor":0,
				"roughnessFactor":0.5
			}
		},
		{
			"doubleSided":true,
			"name":"bd_eterrain3a.004",
			"pbrMetallicRoughness":{
				"baseColorFactor":[
					0.800000011920929,
					0.800000011920929,
					0.800000011920929,
					1
				],
				"metallicFactor":0,
				"roughnessFactor":0.5
			}
		},
		{
			"doubleSided":true,
			"name":"bd_eterrain3a.005",
			"pbrMetallicRoughness":{
				"baseColorFactor":[
					0.800000011920929,
					0.800000011920929,
					0.800000011920929,
					1
				],
				"metallicFactor":0,
				"roughnessFactor":0.5
			}
		}
	],
	"meshes":[
		{
			"name":"Mesh",
			"primitives":[
				{
					"attributes":{
						"POSITION":0,
						"NORMAL":1,
						"TEXCOORD_0":2
					},
					"indices":3,
					"material":0
				}
			]
		},
		{
			"name":"Mesh.001",
			"primitives":[
				{
					"attributes":{
						"POSITION":4,
						"NORMAL":5,
						"TEXCOORD_0":6
					},
					"indices":7,
					"material":1
				}
			]
		},
		{
			"name":"Mesh.002",
			"primitives":[
				{
					"attributes":{
						"POSITION":8,
						"NORMAL":9,
						"TEXCOORD_0":10
					},
					"indices":11,
					"material":2
				}
			]
		},
		{
			"name":"Mesh.003",
			"primitives":[
				{
					"attributes":{
						"POSITION":12,
						"NORMAL":13,
						"TEXCOORD_0":14
					},
					"indices":15,
					"material":3
				}
			]
		},
		{
			"name":"Mesh.004",
			"primitives":[
				{
					"attributes":{
						"POSITION":16,
						"NORMAL":17,
						"TEXCOORD_0":18
					},
					"indices":19,
					"material":4
				}
			]
		},
		{
			"name":"Mesh.005",
			"primitives":[
				{
					"attributes":{
						"POSITION":20,
						"NORMAL":21,
						"TEXCOORD_0":22
					},
					"indices":23,
					"material":5
				}
			]
		}
	],
	"accessors":[
		{
			"bufferView":0,
			"componentType":5126,
			"count":615,
			"max":[
				38.421875,
				28.3125,
				17.75
			],
			"min":[
				-40.484375,
				-2.71875,
				-13.9375
			],
			"type":"VEC3"
		},
		{
			"bufferView":1,
			"componentType":5126,
			"count":615,
			"type":"VEC3"
		},
		{
			"bufferView":2,
			"componentType":5126,
			"count":615,
			"type":"VEC2"
		},
		{
			"bufferView":3,
			"componentType":5123,
			"count":615,
			"type":"SCALAR"
		},
		{
			"bufferView":4,
			"componentType":5126,
			"count":429,
			"max":[
				38.34375,
				28.34375,
				16.46875
			],
			"min":[
				-40.4375,
				-2.40625,
				-13.9375
			],
			"type":"VEC3"
		},
		{
			"bufferView":5,
			"componentType":5126,
			"count":429,
			"type":"VEC3"
		},
		{
			"bufferView":6,
			"componentType":5126,
			"count":429,
			"type":"VEC2"
		},
		{
			"bufferView":7,
			"componentType":5123,
			"count":429,
			"type":"SCALAR"
		},
		{
			"bufferView":8,
			"componentType":5126,
			"count":303,
			"max":[
				38.34375,
				28.328125,
				16.46875
			],
			"min":[
				-40.4375,
				-2.40625,
				-13.9375
			],
			"type":"VEC3"
		},
		{
			"bufferView":9,
			"componentType":5126,
			"count":303,
			"type":"VEC3"
		},
		{
			"bufferView":10,
			"componentType":5126,
			"count":303,
			"type":"VEC2"
		},
		{
			"bufferView":11,
			"componentType":5123,
			"count":303,
			"type":"SCALAR"
		},
		{
			"bufferView":12,
			"componentType":5126,
			"count":180,
			"max":[
				38.34375,
				28.3125,
				16.46875
			],
			"min":[
				-40.4375,
				-2.40625,
				-12.84375
			],
			"type":"VEC3"
		},
		{
			"bufferView":13,
			"componentType":5126,
			"count":180,
			"type":"VEC3"
		},
		{
			"bufferView":14,
			"componentType":5126,
			"count":180,
			"type":"VEC2"
		},
		{
			"bufferView":15,
			"componentType":5123,
			"count":186,
			"type":"SCALAR"
		},
		{
			"bufferView":16,
			"componentType":5126,
			"count":134,
			"max":[
				38.375,
				28.3125,
				16.46875
			],
			"min":[
				-40.4375,
				-2.40625,
				-12.84375
			],
			"type":"VEC3"
		},
		{
			"bufferView":17,
			"componentType":5126,
			"count":134,
			"type":"VEC3"
		},
		{
			"bufferView":18,
			"componentType":5126,
			"count":134,
			"type":"VEC2"
		},
		{
			"bufferView":19,
			"componentType":5123,
			"count":147,
			"type":"SCALAR"
		},
		{
			"bufferView":20,
			"componentType":5126,
			"count":36,
			"max":[
				39.1875,
				28.921875,
				9.984375
			],
			"min":[
				-41.734375,
				-2.484375,
				-9.203125
			],
			"type":"VEC3"
		},
		{
			"bufferView":21,
			"componentType":5126,
			"count":36,
			"type":"VEC3"
		},
		{
			"bufferView":22,
			"componentType":5126,
			"count":36,
			"type":"VEC2"
		},
		{
			"bufferView":23,
			"componentType":5123,
			"count":36,
			"type":"SCALAR"
		}
	],
	"bufferViews":[
		{
			"buffer":0,
			"byteLength":7380,
			"byteOffset":0,
			"target":34962
		},
		{
			"buffer":0,
			"byteLength":7380,
			"byteOffset":7380,
			"target":34962
		},
		{
			"buffer":0,
			"byteLength":4920,
			"byteOffset":14760,
			"target":34962
		},
		{
			"buffer":0,
			"byteLength":1230,
			"byteOffset":19680,
			"target":34963
		},
		{
			"buffer":0,
			"byteLength":5148,
			"byteOffset":20912,
			"target":34962
		},
		{
			"buffer":0,
			"byteLength":5148,
			"byteOffset":26060,
			"target":34962
		},
		{
			"buffer":0,
			"byteLength":3432,
			"byteOffset":31208,
			"target":34962
		},
		{
			"buffer":0,
			"byteLength":858,
			"byteOffset":34640,
			"target":34963
		},
		{
			"buffer":0,
			"byteLength":3636,
			"byteOffset":35500,
			"target":34962
		},
		{
			"buffer":0,
			"byteLength":3636,
			"byteOffset":39136,
			"target":34962
		},
		{
			"buffer":0,
			"byteLength":2424,
			"byteOffset":42772,
			"target":34962
		},
		{
			"buffer":0,
			"byteLength":606,
			"byteOffset":45196,
			"target":34963
		},
		{
			"buffer":0,
			"byteLength":2160,
			"byteOffset":45804,
			"target":34962
		},
		{
			"buffer":0,
			"byteLength":2160,
			"byteOffset":47964,
			"target":34962
		},
		{
			"buffer":0,
			"byteLength":1440,
			"byteOffset":50124,
			"target":34962
		},
		{
			"buffer":0,
			"byteLength":372,
			"byteOffset":51564,
			"target":34963
		},
		{
			"buffer":0,
			"byteLength":1608,
			"byteOffset":51936,
			"target":34962
		},
		{
			"buffer":0,
			"byteLength":1608,
			"byteOffset":53544,
			"target":34962
		},
		{
			"buffer":0,
			"byteLength":1072,
			"byteOffset":55152,
			"target":34962
		},
		{
			"buffer":0,
			"byteLength":294,
			"byteOffset":56224,
			"target":34963
		},
		{
			"buffer":0,
			"byteLength":432,
			"byteOffset":56520,
			"target":34962
		},
		{
			"buffer":0,
			"byteLength":432,
			"byteOffset":56952,
			"target":34962
		},
		{
			"buffer":0,
			"byteLength":288,
			"byteOffset":57384,
			"target":34962
		},
		{
			"buffer":0,
			"byteLength":72,
			"byteOffset":57672,
			"target":34963
		}
	],
	"buffers":[
		{
			"byteLength":57744,
			"uri":"xrockb.bin"
		}
	]
}
