{
	"asset":{
		"generator":"Khronos glTF Blender I/O v4.5.48",
		"version":"2.0"
	},
	"scene":0,
	"scenes":[
		{
			"name":"Scene",
			"nodes":[
				0,
				1,
				2,
				3,
				4
			]
		}
	],
	"nodes":[
		{
			"mesh":0,
			"name":"Object"
		},
		{
			"mesh":1,
			"name":"Object.001"
		},
		{
			"mesh":2,
			"name":"Object.002"
		},
		{
			"mesh":3,
			"name":"Object.003"
		},
		{
			"mesh":4,
			"name":"Object.004"
		}
	],
	"materials":[
		{
			"doubleSided":true,
			"name":"bd_eterrain3a",
			"pbrMetallicRoughness":{
				"baseColorFactor":[
					0.800000011920929,
					0.800000011920929,
					0.800000011920929,
					1
				],
				"metallicFactor":0,
				"roughnessFactor":0.5
			}
		},
		{
			"doubleSided":true,
			"name":"bd_eterrain3a.001",
			"pbrMetallicRoughness":{
				"baseColorFactor":[
					0.800000011920929,
					0.800000011920929,
					0.800000011920929,
					1
				],
				"metallicFactor":0,
				"roughnessFactor":0.5
			}
		},
		{
			"doubleSided":true,
			"name":"bd_eterrain3a.002",
			"pbrMetallicRoughness":{
				"baseColorFactor":[
					0.800000011920929,
					0.800000011920929,
					0.800000011920929,
					1
				],
				"metallicFactor":0,
				"roughnessFactor":0.5
			}
		},
		{
			"doubleSided":true,
			"name":"bd_eterrain3a.003",
			"pbrMetallicRoughness":{
				"baseColorFactor":[
					0.800000011920929,
					0.800000011920929,
					0.800000011920929,
					1
				],
				"metallicFactor":0,
				"roughnessFactor":0.5
			}
		},
		{
			"doubleSided":true,
			"name":"bd_eterrain3a.004",
			"pbrMetallicRoughness":{
				"baseColorFactor":[
					0.800000011920929,
					0.800000011920929,
					0.800000011920929,
					1
				],
				"metallicFactor":0,
				"roughnessFactor":0.5
			}
		}
	],
	"meshes":[
		{
			"name":"Mesh",
			"primitives":[
				{
					"attributes":{
						"POSITION":0,
						"NORMAL":1,
						"TEXCOORD_0":2
					},
					"indices":3,
					"material":0
				}
			]
		},
		{
			"name":"Mesh.001",
			"primitives":[
				{
					"attributes":{
						"POSITION":4,
						"NORMAL":5,
						"TEXCOORD_0":6
					},
					"indices":7,
					"material":1
				}
			]
		},
		{
			"name":"Mesh.002",
			"primitives":[
				{
					"attributes":{
						"POSITION":8,
						"NORMAL":9,
						"TEXCOORD_0":10
					},
					"indices":11,
					"material":2
				}
			]
		},
		{
			"name":"Mesh.003",
			"primitives":[
				{
					"attributes":{
						"POSITION":12,
						"NORMAL":13,
						"TEXCOORD_0":14
					},
					"indices":15,
					"material":3
				}
			]
		},
		{
			"name":"Mesh.004",
			"primitives":[
				{
					"attributes":{
						"POSITION":16,
						"NORMAL":17,
						"TEXCOORD_0":18
					},
					"indices":19,
					"material":4
				}
			]
		}
	],
	"accessors":[
		{
			"bufferView":0,
			"componentType":5126,
			"count":474,
			"max":[
				13.234375,
				32.71875,
				17.53125
			],
			"min":[
				-13.640625,
				-8.578125,
				-17.5625
			],
			"type":"VEC3"
		},
		{
			"bufferView":1,
			"componentType":5126,
			"count":474,
			"type":"VEC3"
		},
		{
			"bufferView":2,
			"componentType":5126,
			"count":474,
			"type":"VEC2"
		},
		{
			"bufferView":3,
			"componentType":5123,
			"count":474,
			"type":"SCALAR"
		},
		{
			"bufferView":4,
			"componentType":5126,
			"count":349,
			"max":[
				13.234375,
				32.734375,
				17.53125
			],
			"min":[
				-13.640625,
				-8.578125,
				-17.5625
			],
			"type":"VEC3"
		},
		{
			"bufferView":5,
			"componentType":5126,
			"count":349,
			"type":"VEC3"
		},
		{
			"bufferView":6,
			"componentType":5126,
			"count":349,
			"type":"VEC2"
		},
		{
			"bufferView":7,
			"componentType":5123,
			"count":366,
			"type":"SCALAR"
		},
		{
			"bufferView":8,
			"componentType":5126,
			"count":198,
			"max":[
				12.578125,
				32.359375,
				17.53125
			],
			"min":[
				-13.640625,
				-8.5625,
				-17.265625
			],
			"type":"VEC3"
		},
		{
			"bufferView":9,
			"componentType":5126,
			"count":198,
			"type":"VEC3"
		},
		{
			"bufferView":10,
			"componentType":5126,
			"count":198,
			"type":"VEC2"
		},
		{
			"bufferView":11,
			"componentType":5123,
			"count":198,
			"type":"SCALAR"
		},
		{
			"bufferView":12,
			"componentType":5126,
			"count":144,
			"max":[
				11.140625,
				32.359375,
				17.53125
			],
			"min":[
				-13.640625,
				-8.5625,
				-17.265625
			],
			"type":"VEC3"
		},
		{
			"bufferView":13,
			"componentType":5126,
			"count":144,
			"type":"VEC3"
		},
		{
			"bufferView":14,
			"componentType":5126,
			"count":144,
			"type":"VEC2"
		},
		{
			"bufferView":15,
			"componentType":5123,
			"count":144,
			"type":"SCALAR"
		},
		{
			"bufferView":16,
			"componentType":5126,
			"count":25,
			"max":[
				12.53125,
				27.828125,
				17.46875
			],
			"min":[
				-13.34375,
				-0.390625,
				-17.453125
			],
			"type":"VEC3"
		},
		{
			"bufferView":17,
			"componentType":5126,
			"count":25,
			"type":"VEC3"
		},
		{
			"bufferView":18,
			"componentType":5126,
			"count":25,
			"type":"VEC2"
		},
		{
			"bufferView":19,
			"componentType":5123,
			"count":36,
			"type":"SCALAR"
		}
	],
	"bufferViews":[
		{
			"buffer":0,
			"byteLength":5688,
			"byteOffset":0,
			"target":34962
		},
		{
			"buffer":0,
			"byteLength":5688,
			"byteOffset":5688,
			"target":34962
		},
		{
			"buffer":0,
			"byteLength":3792,
			"byteOffset":11376,
			"target":34962
		},
		{
			"buffer":0,
			"byteLength":948,
			"byteOffset":15168,
			"target":34963
		},
		{
			"buffer":0,
			"byteLength":4188,
			"byteOffset":16116,
			"target":34962
		},
		{
			"buffer":0,
			"byteLength":4188,
			"byteOffset":20304,
			"target":34962
		},
		{
			"buffer":0,
			"byteLength":2792,
			"byteOffset":24492,
			"target":34962
		},
		{
			"buffer":0,
			"byteLength":732,
			"byteOffset":27284,
			"target":34963
		},
		{
			"buffer":0,
			"byteLength":2376,
			"byteOffset":28016,
			"target":34962
		},
		{
			"buffer":0,
			"byteLength":2376,
			"byteOffset":30392,
			"target":34962
		},
		{
			"buffer":0,
			"byteLength":1584,
			"byteOffset":32768,
			"target":34962
		},
		{
			"buffer":0,
			"byteLength":396,
			"byteOffset":34352,
			"target":34963
		},
		{
			"buffer":0,
			"byteLength":1728,
			"byteOffset":34748,
			"target":34962
		},
		{
			"buffer":0,
			"byteLength":1728,
			"byteOffset":36476,
			"target":34962
		},
		{
			"buffer":0,
			"byteLength":1152,
			"byteOffset":38204,
			"target":34962
		},
		{
			"buffer":0,
			"byteLength":288,
			"byteOffset":39356,
			"target":34963
		},
		{
			"buffer":0,
			"byteLength":300,
			"byteOffset":39644,
			"target":34962
		},
		{
			"buffer":0,
			"byteLength":300,
			"byteOffset":39944,
			"target":34962
		},
		{
			"buffer":0,
			"byteLength":200,
			"byteOffset":40244,
			"target":34962
		},
		{
			"buffer":0,
			"byteLength":72,
			"byteOffset":40444,
			"target":34963
		}
	],
	"buffers":[
		{
			"byteLength":40516,
			"uri":"xrockc.bin"
		}
	]
}
