{
	"asset":{
		"generator":"Khronos glTF Blender I/O v4.5.48",
		"version":"2.0"
	},
	"scene":0,
	"scenes":[
		{
			"name":"Scene",
			"nodes":[
				0,
				1,
				2,
				3,
				4,
				5
			]
		}
	],
	"nodes":[
		{
			"mesh":0,
			"name":"Object"
		},
		{
			"mesh":1,
			"name":"Object.001"
		},
		{
			"mesh":2,
			"name":"Object.002"
		},
		{
			"mesh":3,
			"name":"Object.003"
		},
		{
			"mesh":4,
			"name":"Object.004"
		},
		{
			"mesh":5,
			"name":"Object.005"
		}
	],
	"materials":[
		{
			"doubleSided":true,
			"name":"bd_ecombo3d",
			"pbrMetallicRoughness":{
				"baseColorFactor":[
					0.800000011920929,
					0.800000011920929,
					0.800000011920929,
					1
				],
				"metallicFactor":0,
				"roughnessFactor":0.5
			}
		},
		{
			"doubleSided":true,
			"name":"bd_eterrain3a",
			"pbrMetallicRoughness":{
				"baseColorFactor":[
					0.800000011920929,
					0.800000011920929,
					0.800000011920929,
					1
				],
				"metallicFactor":0,
				"roughnessFactor":0.5
			}
		},
		{
			"doubleSided":true,
			"name":"bd_ecombo3d.001",
			"pbrMetallicRoughness":{
				"baseColorFactor":[
					0.800000011920929,
					0.800000011920929,
					0.800000011920929,
					1
				],
				"metallicFactor":0,
				"roughnessFactor":0.5
			}
		},
		{
			"doubleSided":true,
			"name":"bd_eterrain3a.001",
			"pbrMetallicRoughness":{
				"baseColorFactor":[
					0.800000011920929,
					0.800000011920929,
					0.800000011920929,
					1
				],
				"metallicFactor":0,
				"roughnessFactor":0.5
			}
		},
		{
			"doubleSided":true,
			"name":"bd_ecombo3d.002",
			"pbrMetallicRoughness":{
				"baseColorFactor":[
					0.800000011920929,
					0.800000011920929,
					0.800000011920929,
					1
				],
				"metallicFactor":0,
				"roughnessFactor":0.5
			}
		},
		{
			"doubleSided":true,
			"name":"bd_eterrain3a.002",
			"pbrMetallicRoughness":{
				"baseColorFactor":[
					0.800000011920929,
					0.800000011920929,
					0.800000011920929,
					1
				],
				"metallicFactor":0,
				"roughnessFactor":0.5
			}
		},
		{
			"doubleSided":true,
			"name":"bd_ecombo3d.003",
			"pbrMetallicRoughness":{
				"baseColorFactor":[
					0.800000011920929,
					0.800000011920929,
					0.800000011920929,
					1
				],
				"metallicFactor":0,
				"roughnessFactor":0.5
			}
		},
		{
			"doubleSided":true,
			"name":"bd_eterrain3a.003",
			"pbrMetallicRoughness":{
				"baseColorFactor":[
					0.800000011920929,
					0.800000011920929,
					0.800000011920929,
					1
				],
				"metallicFactor":0,
				"roughnessFactor":0.5
			}
		},
		{
			"doubleSided":true,
			"name":"bd_ecombo3d.004",
			"pbrMetallicRoughness":{
				"baseColorFactor":[
					0.800000011920929,
					0.800000011920929,
					0.800000011920929,
					1
				],
				"metallicFactor":0,
				"roughnessFactor":0.5
			}
		},
		{
			"doubleSided":true,
			"name":"bd_eterrain3a.004",
			"pbrMetallicRoughness":{
				"baseColorFactor":[
					0.800000011920929,
					0.800000011920929,
					0.800000011920929,
					1
				],
				"metallicFactor":0,
				"roughnessFactor":0.5
			}
		},
		{
			"doubleSided":true,
			"name":"bd_ecombo3d.005",
			"pbrMetallicRoughness":{
				"baseColorFactor":[
					0.800000011920929,
					0.800000011920929,
					0.800000011920929,
					1
				],
				"metallicFactor":0,
				"roughnessFactor":0.5
			}
		},
		{
			"doubleSided":true,
			"name":"bd_eterrain3a.005",
			"pbrMetallicRoughness":{
				"baseColorFactor":[
					0.800000011920929,
					0.800000011920929,
					0.800000011920929,
					1
				],
				"metallicFactor":0,
				"roughnessFactor":0.5
			}
		}
	],
	"meshes":[
		{
			"name":"Mesh",
			"primitives":[
				{
					"attributes":{
						"POSITION":0,
						"NORMAL":1,
						"TEXCOORD_0":2
					},
					"indices":3,
					"material":0
				},
				{
					"attributes":{
						"POSITION":4,
						"NORMAL":5,
						"TEXCOORD_0":6
					},
					"indices":7,
					"material":1
				}
			]
		},
		{
			"name":"Mesh.001",
			"primitives":[
				{
					"attributes":{
						"POSITION":8,
						"NORMAL":9,
						"TEXCOORD_0":10
					},
					"indices":11,
					"material":2
				},
				{
					"attributes":{
						"POSITION":12,
						"NORMAL":13,
						"TEXCOORD_0":14
					},
					"indices":15,
					"material":3
				}
			]
		},
		{
			"name":"Mesh.002",
			"primitives":[
				{
					"attributes":{
						"POSITION":16,
						"NORMAL":17,
						"TEXCOORD_0":18
					},
					"indices":19,
					"material":4
				},
				{
					"attributes":{
						"POSITION":20,
						"NORMAL":21,
						"TEXCOORD_0":22
					},
					"indices":23,
					"material":5
				}
			]
		},
		{
			"name":"Mesh.003",
			"primitives":[
				{
					"attributes":{
						"POSITION":24,
						"NORMAL":25,
						"TEXCOORD_0":26
					},
					"indices":27,
					"material":6
				},
				{
					"attributes":{
						"POSITION":28,
						"NORMAL":29,
						"TEXCOORD_0":30
					},
					"indices":31,
					"material":7
				}
			]
		},
		{
			"name":"Mesh.004",
			"primitives":[
				{
					"attributes":{
						"POSITION":32,
						"NORMAL":33,
						"TEXCOORD_0":34
					},
					"indices":35,
					"material":8
				},
				{
					"attributes":{
						"POSITION":36,
						"NORMAL":37,
						"TEXCOORD_0":38
					},
					"indices":39,
					"material":9
				}
			]
		},
		{
			"name":"Mesh.005",
			"primitives":[
				{
					"attributes":{
						"POSITION":40,
						"NORMAL":41,
						"TEXCOORD_0":42
					},
					"indices":43,
					"material":10
				},
				{
					"attributes":{
						"POSITION":44,
						"NORMAL":45,
						"TEXCOORD_0":46
					},
					"indices":47,
					"material":11
				}
			]
		}
	],
	"accessors":[
		{
			"bufferView":0,
			"componentType":5126,
			"count":159,
			"max":[
				12.671875,
				19.390625,
				14.765625
			],
			"min":[
				-15.75,
				-1.203125,
				-10.359375
			],
			"type":"VEC3"
		},
		{
			"bufferView":1,
			"componentType":5126,
			"count":159,
			"type":"VEC3"
		},
		{
			"bufferView":2,
			"componentType":5126,
			"count":159,
			"type":"VEC2"
		},
		{
			"bufferView":3,
			"componentType":5123,
			"count":159,
			"type":"SCALAR"
		},
		{
			"bufferView":4,
			"componentType":5126,
			"count":174,
			"max":[
				3.8125,
				57.765625,
				6.21875
			],
			"min":[
				-4.34375,
				15.953125,
				-4.171875
			],
			"type":"VEC3"
		},
		{
			"bufferView":5,
			"componentType":5126,
			"count":174,
			"type":"VEC3"
		},
		{
			"bufferView":6,
			"componentType":5126,
			"count":174,
			"type":"VEC2"
		},
		{
			"bufferView":7,
			"componentType":5123,
			"count":174,
			"type":"SCALAR"
		},
		{
			"bufferView":8,
			"componentType":5126,
			"count":138,
			"max":[
				12.671875,
				19.5,
				14.765625
			],
			"min":[
				-15.75,
				-1.078125,
				-9.328125
			],
			"type":"VEC3"
		},
		{
			"bufferView":9,
			"componentType":5126,
			"count":138,
			"type":"VEC3"
		},
		{
			"bufferView":10,
			"componentType":5126,
			"count":138,
			"type":"VEC2"
		},
		{
			"bufferView":11,
			"componentType":5123,
			"count":138,
			"type":"SCALAR"
		},
		{
			"bufferView":12,
			"componentType":5126,
			"count":126,
			"max":[
				3.84375,
				57.890625,
				6.21875
			],
			"min":[
				-4.375,
				16.828125,
				-4.203125
			],
			"type":"VEC3"
		},
		{
			"bufferView":13,
			"componentType":5126,
			"count":126,
			"type":"VEC3"
		},
		{
			"bufferView":14,
			"componentType":5126,
			"count":126,
			"type":"VEC2"
		},
		{
			"bufferView":15,
			"componentType":5123,
			"count":126,
			"type":"SCALAR"
		},
		{
			"bufferView":16,
			"componentType":5126,
			"count":99,
			"max":[
				12.484375,
				19.625,
				14.765625
			],
			"min":[
				-13.671875,
				-0.96875,
				-9.328125
			],
			"type":"VEC3"
		},
		{
			"bufferView":17,
			"componentType":5126,
			"count":99,
			"type":"VEC3"
		},
		{
			"bufferView":18,
			"componentType":5126,
			"count":99,
			"type":"VEC2"
		},
		{
			"bufferView":19,
			"componentType":5123,
			"count":99,
			"type":"SCALAR"
		},
		{
			"bufferView":20,
			"componentType":5126,
			"count":117,
			"max":[
				4.15625,
				58.109375,
				6.21875
			],
			"min":[
				-3.90625,
				16.9375,
				-2.53125
			],
			"type":"VEC3"
		},
		{
			"bufferView":21,
			"componentType":5126,
			"count":117,
			"type":"VEC3"
		},
		{
			"bufferView":22,
			"componentType":5126,
			"count":117,
			"type":"VEC2"
		},
		{
			"bufferView":23,
			"componentType":5123,
			"count":117,
			"type":"SCALAR"
		},
		{
			"bufferView":24,
			"componentType":5126,
			"count":72,
			"max":[
				12.484375,
				19.734375,
				14.796875
			],
			"min":[
				-13.671875,
				-0.84375,
				-9.328125
			],
			"type":"VEC3"
		},
		{
			"bufferView":25,
			"componentType":5126,
			"count":72,
			"type":"VEC3"
		},
		{
			"bufferView":26,
			"componentType":5126,
			"count":72,
			"type":"VEC2"
		},
		{
			"bufferView":27,
			"componentType":5123,
			"count":72,
			"type":"SCALAR"
		},
		{
			"bufferView":28,
			"componentType":5126,
			"count":96,
			"max":[
				5.296875,
				58.328125,
				7.359375
			],
			"min":[
				-3.859375,
				17.0625,
				-2.96875
			],
			"type":"VEC3"
		},
		{
			"bufferView":29,
			"componentType":5126,
			"count":96,
			"type":"VEC3"
		},
		{
			"bufferView":30,
			"componentType":5126,
			"count":96,
			"type":"VEC2"
		},
		{
			"bufferView":31,
			"componentType":5123,
			"count":96,
			"type":"SCALAR"
		},
		{
			"bufferView":32,
			"componentType":5126,
			"count":48,
			"max":[
				12.484375,
				19.59375,
				14.796875
			],
			"min":[
				-13.671875,
				-0.984375,
				-9.59375
			],
			"type":"VEC3"
		},
		{
			"bufferView":33,
			"componentType":5126,
			"count":48,
			"type":"VEC3"
		},
		{
			"bufferView":34,
			"componentType":5126,
			"count":48,
			"type":"VEC2"
		},
		{
			"bufferView":35,
			"componentType":5123,
			"count":48,
			"type":"SCALAR"
		},
		{
			"bufferView":36,
			"componentType":5126,
			"count":49,
			"max":[
				5.34375,
				57.765625,
				7.359375
			],
			"min":[
				-3.5,
				16.921875,
				-2.96875
			],
			"type":"VEC3"
		},
		{
			"bufferView":37,
			"componentType":5126,
			"count":49,
			"type":"VEC3"
		},
		{
			"bufferView":38,
			"componentType":5126,
			"count":49,
			"type":"VEC2"
		},
		{
			"bufferView":39,
			"componentType":5123,
			"count":51,
			"type":"SCALAR"
		},
		{
			"bufferView":40,
			"componentType":5126,
			"count":39,
			"max":[
				12.484375,
				19.71875,
				14.796875
			],
			"min":[
				-11.65625,
				-0.65625,
				-7.90625
			],
			"type":"VEC3"
		},
		{
			"bufferView":41,
			"componentType":5126,
			"count":39,
			"type":"VEC3"
		},
		{
			"bufferView":42,
			"componentType":5126,
			"count":39,
			"type":"VEC2"
		},
		{
			"bufferView":43,
			"componentType":5123,
			"count":39,
			"type":"SCALAR"
		},
		{
			"bufferView":44,
			"componentType":5126,
			"count":24,
			"max":[
				5.34375,
				57.890625,
				7.359375
			],
			"min":[
				-3.5,
				18.03125,
				-2.96875
			],
			"type":"VEC3"
		},
		{
			"bufferView":45,
			"componentType":5126,
			"count":24,
			"type":"VEC3"
		},
		{
			"bufferView":46,
			"componentType":5126,
			"count":24,
			"type":"VEC2"
		},
		{
			"bufferView":47,
			"componentType":5123,
			"count":24,
			"type":"SCALAR"
		}
	],
	"bufferViews":[
		{
			"buffer":0,
			"byteLength":1908,
			"byteOffset":0,
			"target":34962
		},
		{
			"buffer":0,
			"byteLength":1908,
			"byteOffset":1908,
			"target":34962
		},
		{
			"buffer":0,
			"byteLength":1272,
			"byteOffset":3816,
			"target":34962
		},
		{
			"buffer":0,
			"byteLength":318,
			"byteOffset":5088,
			"target":34963
		},
		{
			"buffer":0,
			"byteLength":2088,
			"byteOffset":5408,
			"target":34962
		},
		{
			"buffer":0,
			"byteLength":2088,
			"byteOffset":7496,
			"target":34962
		},
		{
			"buffer":0,
			"byteLength":1392,
			"byteOffset":9584,
			"target":34962
		},
		{
			"buffer":0,
			"byteLength":348,
			"byteOffset":10976,
			"target":34963
		},
		{
			"buffer":0,
			"byteLength":1656,
			"byteOffset":11324,
			"target":34962
		},
		{
			"buffer":0,
			"byteLength":1656,
			"byteOffset":12980,
			"target":34962
		},
		{
			"buffer":0,
			"byteLength":1104,
			"byteOffset":14636,
			"target":34962
		},
		{
			"buffer":0,
			"byteLength":276,
			"byteOffset":15740,
			"target":34963
		},
		{
			"buffer":0,
			"byteLength":1512,
			"byteOffset":16016,
			"target":34962
		},
		{
			"buffer":0,
			"byteLength":1512,
			"byteOffset":17528,
			"target":34962
		},
		{
			"buffer":0,
			"byteLength":1008,
			"byteOffset":19040,
			"target":34962
		},
		{
			"buffer":0,
			"byteLength":252,
			"byteOffset":20048,
			"target":34963
		},
		{
			"buffer":0,
			"byteLength":1188,
			"byteOffset":20300,
			"target":34962
		},
		{
			"buffer":0,
			"byteLength":1188,
			"byteOffset":21488,
			"target":34962
		},
		{
			"buffer":0,
			"byteLength":792,
			"byteOffset":22676,
			"target":34962
		},
		{
			"buffer":0,
			"byteLength":198,
			"byteOffset":23468,
			"target":34963
		},
		{
			"buffer":0,
			"byteLength":1404,
			"byteOffset":23668,
			"target":34962
		},
		{
			"buffer":0,
			"byteLength":1404,
			"byteOffset":25072,
			"target":34962
		},
		{
			"buffer":0,
			"byteLength":936,
			"byteOffset":26476,
			"target":34962
		},
		{
			"buffer":0,
			"byteLength":234,
			"byteOffset":27412,
			"target":34963
		},
		{
			"buffer":0,
			"byteLength":864,
			"byteOffset":27648,
			"target":34962
		},
		{
			"buffer":0,
			"byteLength":864,
			"byteOffset":28512,
			"target":34962
		},
		{
			"buffer":0,
			"byteLength":576,
			"byteOffset":29376,
			"target":34962
		},
		{
			"buffer":0,
			"byteLength":144,
			"byteOffset":29952,
			"target":34963
		},
		{
			"buffer":0,
			"byteLength":1152,
			"byteOffset":30096,
			"target":34962
		},
		{
			"buffer":0,
			"byteLength":1152,
			"byteOffset":31248,
			"target":34962
		},
		{
			"buffer":0,
			"byteLength":768,
			"byteOffset":32400,
			"target":34962
		},
		{
			"buffer":0,
			"byteLength":192,
			"byteOffset":33168,
			"target":34963
		},
		{
			"buffer":0,
			"byteLength":576,
			"byteOffset":33360,
			"target":34962
		},
		{
			"buffer":0,
			"byteLength":576,
			"byteOffset":33936,
			"target":34962
		},
		{
			"buffer":0,
			"byteLength":384,
			"byteOffset":34512,
			"target":34962
		},
		{
			"buffer":0,
			"byteLength":96,
			"byteOffset":34896,
			"target":34963
		},
		{
			"buffer":0,
			"byteLength":588,
			"byteOffset":34992,
			"target":34962
		},
		{
			"buffer":0,
			"byteLength":588,
			"byteOffset":35580,
			"target":34962
		},
		{
			"buffer":0,
			"byteLength":392,
			"byteOffset":36168,
			"target":34962
		},
		{
			"buffer":0,
			"byteLength":102,
			"byteOffset":36560,
			"target":34963
		},
		{
			"buffer":0,
			"byteLength":468,
			"byteOffset":36664,
			"target":34962
		},
		{
			"buffer":0,
			"byteLength":468,
			"byteOffset":37132,
			"target":34962
		},
		{
			"buffer":0,
			"byteLength":312,
			"byteOffset":37600,
			"target":34962
		},
		{
			"buffer":0,
			"byteLength":78,
			"byteOffset":37912,
			"target":34963
		},
		{
			"buffer":0,
			"byteLength":288,
			"byteOffset":37992,
			"target":34962
		},
		{
			"buffer":0,
			"byteLength":288,
			"byteOffset":38280,
			"target":34962
		},
		{
			"buffer":0,
			"byteLength":192,
			"byteOffset":38568,
			"target":34962
		},
		{
			"buffer":0,
			"byteLength":48,
			"byteOffset":38760,
			"target":34963
		}
	],
	"buffers":[
		{
			"byteLength":38808,
			"uri":"xspir3.bin"
		}
	]
}
