{
	"asset":{
		"generator":"Khronos glTF Blender I/O v4.5.48",
		"version":"2.0"
	},
	"scene":0,
	"scenes":[
		{
			"name":"Scene",
			"nodes":[
				0,
				1,
				2,
				3,
				4
			]
		}
	],
	"nodes":[
		{
			"mesh":0,
			"name":"Object"
		},
		{
			"mesh":1,
			"name":"Object.001"
		},
		{
			"mesh":2,
			"name":"Object.002"
		},
		{
			"mesh":3,
			"name":"Object.003"
		},
		{
			"mesh":4,
			"name":"Object.004"
		}
	],
	"materials":[
		{
			"doubleSided":true,
			"name":"bd_ecombo3b",
			"pbrMetallicRoughness":{
				"baseColorFactor":[
					0.800000011920929,
					0.800000011920929,
					0.800000011920929,
					1
				],
				"metallicFactor":0,
				"roughnessFactor":0.5
			}
		},
		{
			"doubleSided":true,
			"name":"bd_ecombo3d",
			"pbrMetallicRoughness":{
				"baseColorFactor":[
					0.800000011920929,
					0.800000011920929,
					0.800000011920929,
					1
				],
				"metallicFactor":0,
				"roughnessFactor":0.5
			}
		},
		{
			"doubleSided":true,
			"name":"bd_ecombo3b.001",
			"pbrMetallicRoughness":{
				"baseColorFactor":[
					0.800000011920929,
					0.800000011920929,
					0.800000011920929,
					1
				],
				"metallicFactor":0,
				"roughnessFactor":0.5
			}
		},
		{
			"doubleSided":true,
			"name":"bd_ecombo3d.001",
			"pbrMetallicRoughness":{
				"baseColorFactor":[
					0.800000011920929,
					0.800000011920929,
					0.800000011920929,
					1
				],
				"metallicFactor":0,
				"roughnessFactor":0.5
			}
		},
		{
			"doubleSided":true,
			"name":"bd_ecombo3b.002",
			"pbrMetallicRoughness":{
				"baseColorFactor":[
					0.800000011920929,
					0.800000011920929,
					0.800000011920929,
					1
				],
				"metallicFactor":0,
				"roughnessFactor":0.5
			}
		},
		{
			"doubleSided":true,
			"name":"bd_ecombo3d.002",
			"pbrMetallicRoughness":{
				"baseColorFactor":[
					0.800000011920929,
					0.800000011920929,
					0.800000011920929,
					1
				],
				"metallicFactor":0,
				"roughnessFactor":0.5
			}
		},
		{
			"doubleSided":true,
			"name":"bd_ecombo3d.003",
			"pbrMetallicRoughness":{
				"baseColorFactor":[
					0.800000011920929,
					0.800000011920929,
					0.800000011920929,
					1
				],
				"metallicFactor":0,
				"roughnessFactor":0.5
			}
		},
		{
			"doubleSided":true,
			"name":"bd_ecombo3b.003",
			"pbrMetallicRoughness":{
				"baseColorFactor":[
					0.800000011920929,
					0.800000011920929,
					0.800000011920929,
					1
				],
				"metallicFactor":0,
				"roughnessFactor":0.5
			}
		},
		{
			"doubleSided":true,
			"name":"bd_ecombo3b.004",
			"pbrMetallicRoughness":{
				"baseColorFactor":[
					0.800000011920929,
					0.800000011920929,
					0.800000011920929,
					1
				],
				"metallicFactor":0,
				"roughnessFactor":0.5
			}
		},
		{
			"doubleSided":true,
			"name":"bd_ecombo3d.004",
			"pbrMetallicRoughness":{
				"baseColorFactor":[
					0.800000011920929,
					0.800000011920929,
					0.800000011920929,
					1
				],
				"metallicFactor":0,
				"roughnessFactor":0.5
			}
		}
	],
	"meshes":[
		{
			"name":"Mesh",
			"primitives":[
				{
					"attributes":{
						"POSITION":0,
						"NORMAL":1,
						"TEXCOORD_0":2
					},
					"indices":3,
					"material":0
				},
				{
					"attributes":{
						"POSITION":4,
						"NORMAL":5,
						"TEXCOORD_0":6
					},
					"indices":7,
					"material":1
				}
			]
		},
		{
			"name":"Mesh.001",
			"primitives":[
				{
					"attributes":{
						"POSITION":8,
						"NORMAL":9,
						"TEXCOORD_0":10
					},
					"indices":11,
					"material":2
				},
				{
					"attributes":{
						"POSITION":12,
						"NORMAL":13,
						"TEXCOORD_0":14
					},
					"indices":15,
					"material":3
				}
			]
		},
		{
			"name":"Mesh.002",
			"primitives":[
				{
					"attributes":{
						"POSITION":16,
						"NORMAL":17,
						"TEXCOORD_0":18
					},
					"indices":19,
					"material":4
				},
				{
					"attributes":{
						"POSITION":20,
						"NORMAL":21,
						"TEXCOORD_0":22
					},
					"indices":23,
					"material":5
				}
			]
		},
		{
			"name":"Mesh.003",
			"primitives":[
				{
					"attributes":{
						"POSITION":24,
						"NORMAL":25,
						"TEXCOORD_0":26
					},
					"indices":27,
					"material":6
				},
				{
					"attributes":{
						"POSITION":28,
						"NORMAL":29,
						"TEXCOORD_0":30
					},
					"indices":31,
					"material":7
				}
			]
		},
		{
			"name":"Mesh.004",
			"primitives":[
				{
					"attributes":{
						"POSITION":32,
						"NORMAL":33,
						"TEXCOORD_0":34
					},
					"indices":35,
					"material":8
				},
				{
					"attributes":{
						"POSITION":36,
						"NORMAL":37,
						"TEXCOORD_0":38
					},
					"indices":39,
					"material":9
				}
			]
		}
	],
	"accessors":[
		{
			"bufferView":0,
			"componentType":5126,
			"count":267,
			"max":[
				5.796875,
				35.71875,
				5.578125
			],
			"min":[
				-5.28125,
				4.953125,
				-4.984375
			],
			"type":"VEC3"
		},
		{
			"bufferView":1,
			"componentType":5126,
			"count":267,
			"type":"VEC3"
		},
		{
			"bufferView":2,
			"componentType":5126,
			"count":267,
			"type":"VEC2"
		},
		{
			"bufferView":3,
			"componentType":5123,
			"count":267,
			"type":"SCALAR"
		},
		{
			"bufferView":4,
			"componentType":5126,
			"count":78,
			"max":[
				9.3125,
				7.8125,
				9.0625
			],
			"min":[
				-10.6875,
				-0.25,
				-8.625
			],
			"type":"VEC3"
		},
		{
			"bufferView":5,
			"componentType":5126,
			"count":78,
			"type":"VEC3"
		},
		{
			"bufferView":6,
			"componentType":5126,
			"count":78,
			"type":"VEC2"
		},
		{
			"bufferView":7,
			"componentType":5123,
			"count":78,
			"type":"SCALAR"
		},
		{
			"bufferView":8,
			"componentType":5126,
			"count":204,
			"max":[
				5.796875,
				35.78125,
				5.578125
			],
			"min":[
				-5.28125,
				5.03125,
				-4.984375
			],
			"type":"VEC3"
		},
		{
			"bufferView":9,
			"componentType":5126,
			"count":204,
			"type":"VEC3"
		},
		{
			"bufferView":10,
			"componentType":5126,
			"count":204,
			"type":"VEC2"
		},
		{
			"bufferView":11,
			"componentType":5123,
			"count":204,
			"type":"SCALAR"
		},
		{
			"bufferView":12,
			"componentType":5126,
			"count":69,
			"max":[
				9.3125,
				7.875,
				9.0625
			],
			"min":[
				-10.6875,
				-0.171875,
				-8.046875
			],
			"type":"VEC3"
		},
		{
			"bufferView":13,
			"componentType":5126,
			"count":69,
			"type":"VEC3"
		},
		{
			"bufferView":14,
			"componentType":5126,
			"count":69,
			"type":"VEC2"
		},
		{
			"bufferView":15,
			"componentType":5123,
			"count":69,
			"type":"SCALAR"
		},
		{
			"bufferView":16,
			"componentType":5126,
			"count":144,
			"max":[
				5.796875,
				35.453125,
				5
			],
			"min":[
				-5.28125,
				5.09375,
				-4.984375
			],
			"type":"VEC3"
		},
		{
			"bufferView":17,
			"componentType":5126,
			"count":144,
			"type":"VEC3"
		},
		{
			"bufferView":18,
			"componentType":5126,
			"count":144,
			"type":"VEC2"
		},
		{
			"bufferView":19,
			"componentType":5123,
			"count":144,
			"type":"SCALAR"
		},
		{
			"bufferView":20,
			"componentType":5126,
			"count":63,
			"max":[
				7.96875,
				8.015625,
				9.0625
			],
			"min":[
				-10.6875,
				-0.109375,
				-8.046875
			],
			"type":"VEC3"
		},
		{
			"bufferView":21,
			"componentType":5126,
			"count":63,
			"type":"VEC3"
		},
		{
			"bufferView":22,
			"componentType":5126,
			"count":63,
			"type":"VEC2"
		},
		{
			"bufferView":23,
			"componentType":5123,
			"count":63,
			"type":"SCALAR"
		},
		{
			"bufferView":24,
			"componentType":5126,
			"count":51,
			"max":[
				7.96875,
				7.90625,
				9.0625
			],
			"min":[
				-10.6875,
				-0.21875,
				-8.046875
			],
			"type":"VEC3"
		},
		{
			"bufferView":25,
			"componentType":5126,
			"count":51,
			"type":"VEC3"
		},
		{
			"bufferView":26,
			"componentType":5126,
			"count":51,
			"type":"VEC2"
		},
		{
			"bufferView":27,
			"componentType":5123,
			"count":51,
			"type":"SCALAR"
		},
		{
			"bufferView":28,
			"componentType":5126,
			"count":90,
			"max":[
				4.4375,
				35.34375,
				5
			],
			"min":[
				-3.796875,
				5.296875,
				-4.9375
			],
			"type":"VEC3"
		},
		{
			"bufferView":29,
			"componentType":5126,
			"count":90,
			"type":"VEC3"
		},
		{
			"bufferView":30,
			"componentType":5126,
			"count":90,
			"type":"VEC2"
		},
		{
			"bufferView":31,
			"componentType":5123,
			"count":90,
			"type":"SCALAR"
		},
		{
			"bufferView":32,
			"componentType":5126,
			"count":33,
			"max":[
				3.8125,
				35.046875,
				5.296875
			],
			"min":[
				-0.828125,
				0.078125,
				-5.96875
			],
			"type":"VEC3"
		},
		{
			"bufferView":33,
			"componentType":5126,
			"count":33,
			"type":"VEC3"
		},
		{
			"bufferView":34,
			"componentType":5126,
			"count":33,
			"type":"VEC2"
		},
		{
			"bufferView":35,
			"componentType":5123,
			"count":33,
			"type":"SCALAR"
		},
		{
			"bufferView":36,
			"componentType":5126,
			"count":12,
			"max":[
				3.8125,
				13.21875,
				5.296875
			],
			"min":[
				-10.6875,
				0.078125,
				-5.96875
			],
			"type":"VEC3"
		},
		{
			"bufferView":37,
			"componentType":5126,
			"count":12,
			"type":"VEC3"
		},
		{
			"bufferView":38,
			"componentType":5126,
			"count":12,
			"type":"VEC2"
		},
		{
			"bufferView":39,
			"componentType":5123,
			"count":12,
			"type":"SCALAR"
		}
	],
	"bufferViews":[
		{
			"buffer":0,
			"byteLength":3204,
			"byteOffset":0,
			"target":34962
		},
		{
			"buffer":0,
			"byteLength":3204,
			"byteOffset":3204,
			"target":34962
		},
		{
			"buffer":0,
			"byteLength":2136,
			"byteOffset":6408,
			"target":34962
		},
		{
			"buffer":0,
			"byteLength":534,
			"byteOffset":8544,
			"target":34963
		},
		{
			"buffer":0,
			"byteLength":936,
			"byteOffset":9080,
			"target":34962
		},
		{
			"buffer":0,
			"byteLength":936,
			"byteOffset":10016,
			"target":34962
		},
		{
			"buffer":0,
			"byteLength":624,
			"byteOffset":10952,
			"target":34962
		},
		{
			"buffer":0,
			"byteLength":156,
			"byteOffset":11576,
			"target":34963
		},
		{
			"buffer":0,
			"byteLength":2448,
			"byteOffset":11732,
			"target":34962
		},
		{
			"buffer":0,
			"byteLength":2448,
			"byteOffset":14180,
			"target":34962
		},
		{
			"buffer":0,
			"byteLength":1632,
			"byteOffset":16628,
			"target":34962
		},
		{
			"buffer":0,
			"byteLength":408,
			"byteOffset":18260,
			"target":34963
		},
		{
			"buffer":0,
			"byteLength":828,
			"byteOffset":18668,
			"target":34962
		},
		{
			"buffer":0,
			"byteLength":828,
			"byteOffset":19496,
			"target":34962
		},
		{
			"buffer":0,
			"byteLength":552,
			"byteOffset":20324,
			"target":34962
		},
		{
			"buffer":0,
			"byteLength":138,
			"byteOffset":20876,
			"target":34963
		},
		{
			"buffer":0,
			"byteLength":1728,
			"byteOffset":21016,
			"target":34962
		},
		{
			"buffer":0,
			"byteLength":1728,
			"byteOffset":22744,
			"target":34962
		},
		{
			"buffer":0,
			"byteLength":1152,
			"byteOffset":24472,
			"target":34962
		},
		{
			"buffer":0,
			"byteLength":288,
			"byteOffset":25624,
			"target":34963
		},
		{
			"buffer":0,
			"byteLength":756,
			"byteOffset":25912,
			"target":34962
		},
		{
			"buffer":0,
			"byteLength":756,
			"byteOffset":26668,
			"target":34962
		},
		{
			"buffer":0,
			"byteLength":504,
			"byteOffset":27424,
			"target":34962
		},
		{
			"buffer":0,
			"byteLength":126,
			"byteOffset":27928,
			"target":34963
		},
		{
			"buffer":0,
			"byteLength":612,
			"byteOffset":28056,
			"target":34962
		},
		{
			"buffer":0,
			"byteLength":612,
			"byteOffset":28668,
			"target":34962
		},
		{
			"buffer":0,
			"byteLength":408,
			"byteOffset":29280,
			"target":34962
		},
		{
			"buffer":0,
			"byteLength":102,
			"byteOffset":29688,
			"target":34963
		},
		{
			"buffer":0,
			"byteLength":1080,
			"byteOffset":29792,
			"target":34962
		},
		{
			"buffer":0,
			"byteLength":1080,
			"byteOffset":30872,
			"target":34962
		},
		{
			"buffer":0,
			"byteLength":720,
			"byteOffset":31952,
			"target":34962
		},
		{
			"buffer":0,
			"byteLength":180,
			"byteOffset":32672,
			"target":34963
		},
		{
			"buffer":0,
			"byteLength":396,
			"byteOffset":32852,
			"target":34962
		},
		{
			"buffer":0,
			"byteLength":396,
			"byteOffset":33248,
			"target":34962
		},
		{
			"buffer":0,
			"byteLength":264,
			"byteOffset":33644,
			"target":34962
		},
		{
			"buffer":0,
			"byteLength":66,
			"byteOffset":33908,
			"target":34963
		},
		{
			"buffer":0,
			"byteLength":144,
			"byteOffset":33976,
			"target":34962
		},
		{
			"buffer":0,
			"byteLength":144,
			"byteOffset":34120,
			"target":34962
		},
		{
			"buffer":0,
			"byteLength":96,
			"byteOffset":34264,
			"target":34962
		},
		{
			"buffer":0,
			"byteLength":24,
			"byteOffset":34360,
			"target":34963
		}
	],
	"buffers":[
		{
			"byteLength":34384,
			"uri":"xspir2.bin"
		}
	]
}
