{
	"asset":{
		"generator":"Khronos glTF Blender I/O v4.5.48",
		"version":"2.0"
	},
	"scene":0,
	"scenes":[
		{
			"name":"Scene",
			"nodes":[
				0
			]
		}
	],
	"nodes":[
		{
			"mesh":0,
			"name":"Object"
		}
	],
	"materials":[
		{
			"doubleSided":true,
			"name":"BE_EFLO01",
			"pbrMetallicRoughness":{
				"baseColorFactor":[
					0.800000011920929,
					0.800000011920929,
					0.800000011920929,
					1
				],
				"metallicFactor":0,
				"roughnessFactor":0.5
			}
		},
		{
			"doubleSided":true,
			"name":"BE_EWAL09B",
			"pbrMetallicRoughness":{
				"baseColorFactor":[
					0.800000011920929,
					0.800000011920929,
					0.800000011920929,
					1
				],
				"metallicFactor":0,
				"roughnessFactor":0.5
			}
		},
		{
			"doubleSided":true,
			"name":"BE_EWAL04A",
			"pbrMetallicRoughness":{
				"baseColorFactor":[
					0.800000011920929,
					0.800000011920929,
					0.800000011920929,
					1
				],
				"metallicFactor":0,
				"roughnessFactor":0.5
			}
		},
		{
			"doubleSided":true,
			"name":"BE_EWAL06",
			"pbrMetallicRoughness":{
				"baseColorFactor":[
					0.800000011920929,
					0.800000011920929,
					0.800000011920929,
					1
				],
				"metallicFactor":0,
				"roughnessFactor":0.5
			}
		},
		{
			"doubleSided":true,
			"name":"BE_IHAWAL05B",
			"pbrMetallicRoughness":{
				"baseColorFactor":[
					0.800000011920929,
					0.800000011920929,
					0.800000011920929,
					1
				],
				"metallicFactor":0,
				"roughnessFactor":0.5
			}
		},
		{
			"doubleSided":true,
			"name":"BE_EWAL07",
			"pbrMetallicRoughness":{
				"baseColorFactor":[
					0.800000011920929,
					0.800000011920929,
					0.800000011920929,
					1
				],
				"metallicFactor":0,
				"roughnessFactor":0.5
			}
		},
		{
			"doubleSided":true,
			"name":"BE_ICEI03B",
			"pbrMetallicRoughness":{
				"baseColorFactor":[
					0.800000011920929,
					0.800000011920929,
					0.800000011920929,
					1
				],
				"metallicFactor":0,
				"roughnessFactor":0.5
			}
		},
		{
			"doubleSided":true,
			"name":"BE_ICEI04",
			"pbrMetallicRoughness":{
				"baseColorFactor":[
					0.800000011920929,
					0.800000011920929,
					0.800000011920929,
					1
				],
				"metallicFactor":0,
				"roughnessFactor":0.5
			}
		},
		{
			"doubleSided":true,
			"name":"BE_ICOBOR1",
			"pbrMetallicRoughness":{
				"baseColorFactor":[
					0.800000011920929,
					0.800000011920929,
					0.800000011920929,
					1
				],
				"metallicFactor":0,
				"roughnessFactor":0.5
			}
		},
		{
			"doubleSided":true,
			"name":"BE_ESPEC05B",
			"pbrMetallicRoughness":{
				"baseColorFactor":[
					0.800000011920929,
					0.800000011920929,
					0.800000011920929,
					1
				],
				"metallicFactor":0,
				"roughnessFactor":0.5
			}
		},
		{
			"doubleSided":true,
			"name":"BE_ITEBOR02A",
			"pbrMetallicRoughness":{
				"baseColorFactor":[
					0.800000011920929,
					0.800000011920929,
					0.800000011920929,
					1
				],
				"metallicFactor":0,
				"roughnessFactor":0.5
			}
		},
		{
			"doubleSided":true,
			"name":"BE_IHALIG",
			"pbrMetallicRoughness":{
				"baseColorFactor":[
					0.800000011920929,
					0.800000011920929,
					0.800000011920929,
					1
				],
				"metallicFactor":0,
				"roughnessFactor":0.5
			}
		},
		{
			"doubleSided":true,
			"name":"BE_EWAL01B",
			"pbrMetallicRoughness":{
				"baseColorFactor":[
					0.800000011920929,
					0.800000011920929,
					0.800000011920929,
					1
				],
				"metallicFactor":0,
				"roughnessFactor":0.5
			}
		},
		{
			"doubleSided":true,
			"name":"BE_ESPEC03B",
			"pbrMetallicRoughness":{
				"baseColorFactor":[
					0.800000011920929,
					0.800000011920929,
					0.800000011920929,
					1
				],
				"metallicFactor":0,
				"roughnessFactor":0.5
			}
		},
		{
			"doubleSided":true,
			"name":"BE_ESPEC06A",
			"pbrMetallicRoughness":{
				"baseColorFactor":[
					0.800000011920929,
					0.800000011920929,
					0.800000011920929,
					1
				],
				"metallicFactor":0,
				"roughnessFactor":0.5
			}
		}
	],
	"meshes":[
		{
			"name":"Mesh",
			"primitives":[
				{
					"attributes":{
						"POSITION":0,
						"NORMAL":1,
						"TEXCOORD_0":2
					},
					"indices":3,
					"material":0
				},
				{
					"attributes":{
						"POSITION":4,
						"NORMAL":5,
						"TEXCOORD_0":6
					},
					"indices":7,
					"material":1
				},
				{
					"attributes":{
						"POSITION":8,
						"NORMAL":9,
						"TEXCOORD_0":10
					},
					"indices":11,
					"material":2
				},
				{
					"attributes":{
						"POSITION":12,
						"NORMAL":13,
						"TEXCOORD_0":14
					},
					"indices":15,
					"material":3
				},
				{
					"attributes":{
						"POSITION":16,
						"NORMAL":17,
						"TEXCOORD_0":18
					},
					"indices":19,
					"material":4
				},
				{
					"attributes":{
						"POSITION":20,
						"NORMAL":21,
						"TEXCOORD_0":22
					},
					"indices":23,
					"material":5
				},
				{
					"attributes":{
						"POSITION":24,
						"NORMAL":25,
						"TEXCOORD_0":26
					},
					"indices":27,
					"material":6
				},
				{
					"attributes":{
						"POSITION":28,
						"NORMAL":29,
						"TEXCOORD_0":30
					},
					"indices":31,
					"material":7
				},
				{
					"attributes":{
						"POSITION":32,
						"NORMAL":33,
						"TEXCOORD_0":34
					},
					"indices":35,
					"material":8
				},
				{
					"attributes":{
						"POSITION":36,
						"NORMAL":37,
						"TEXCOORD_0":38
					},
					"indices":39,
					"material":9
				},
				{
					"attributes":{
						"POSITION":40,
						"NORMAL":41,
						"TEXCOORD_0":42
					},
					"indices":43,
					"material":10
				},
				{
					"attributes":{
						"POSITION":44,
						"NORMAL":45,
						"TEXCOORD_0":46
					},
					"indices":47,
					"material":11
				},
				{
					"attributes":{
						"POSITION":48,
						"NORMAL":49,
						"TEXCOORD_0":50
					},
					"indices":51,
					"material":12
				},
				{
					"attributes":{
						"POSITION":52,
						"NORMAL":53,
						"TEXCOORD_0":54
					},
					"indices":55,
					"material":13
				},
				{
					"attributes":{
						"POSITION":56,
						"NORMAL":57,
						"TEXCOORD_0":58
					},
					"indices":59,
					"material":14
				}
			]
		}
	],
	"accessors":[
		{
			"bufferView":0,
			"componentType":5126,
			"count":24,
			"max":[
				5,
				4,
				5
			],
			"min":[
				-5,
				1,
				-7.5
			],
			"type":"VEC3"
		},
		{
			"bufferView":1,
			"componentType":5126,
			"count":24,
			"type":"VEC3"
		},
		{
			"bufferView":2,
			"componentType":5126,
			"count":24,
			"type":"VEC2"
		},
		{
			"bufferView":3,
			"componentType":5123,
			"count":60,
			"type":"SCALAR"
		},
		{
			"bufferView":4,
			"componentType":5126,
			"count":214,
			"max":[
				13,
				9.5,
				7
			],
			"min":[
				-13,
				-1,
				-9.5
			],
			"type":"VEC3"
		},
		{
			"bufferView":5,
			"componentType":5126,
			"count":214,
			"type":"VEC3"
		},
		{
			"bufferView":6,
			"componentType":5126,
			"count":214,
			"type":"VEC2"
		},
		{
			"bufferView":7,
			"componentType":5123,
			"count":456,
			"type":"SCALAR"
		},
		{
			"bufferView":8,
			"componentType":5126,
			"count":20,
			"max":[
				5,
				8.5,
				2.5
			],
			"min":[
				-5,
				1,
				-5
			],
			"type":"VEC3"
		},
		{
			"bufferView":9,
			"componentType":5126,
			"count":20,
			"type":"VEC3"
		},
		{
			"bufferView":10,
			"componentType":5126,
			"count":20,
			"type":"VEC2"
		},
		{
			"bufferView":11,
			"componentType":5123,
			"count":36,
			"type":"SCALAR"
		},
		{
			"bufferView":12,
			"componentType":5126,
			"count":104,
			"max":[
				13,
				9.5,
				7
			],
			"min":[
				-13,
				3.5,
				-9.5
			],
			"type":"VEC3"
		},
		{
			"bufferView":13,
			"componentType":5126,
			"count":104,
			"type":"VEC3"
		},
		{
			"bufferView":14,
			"componentType":5126,
			"count":104,
			"type":"VEC2"
		},
		{
			"bufferView":15,
			"componentType":5123,
			"count":198,
			"type":"SCALAR"
		},
		{
			"bufferView":16,
			"componentType":5126,
			"count":54,
			"max":[
				3,
				7.5,
				5
			],
			"min":[
				-3,
				1,
				-7.5
			],
			"type":"VEC3"
		},
		{
			"bufferView":17,
			"componentType":5126,
			"count":54,
			"type":"VEC3"
		},
		{
			"bufferView":18,
			"componentType":5126,
			"count":54,
			"type":"VEC2"
		},
		{
			"bufferView":19,
			"componentType":5123,
			"count":120,
			"type":"SCALAR"
		},
		{
			"bufferView":20,
			"componentType":5126,
			"count":24,
			"max":[
				4,
				6.5,
				7
			],
			"min":[
				-4,
				3.5,
				5
			],
			"type":"VEC3"
		},
		{
			"bufferView":21,
			"componentType":5126,
			"count":24,
			"type":"VEC3"
		},
		{
			"bufferView":22,
			"componentType":5126,
			"count":24,
			"type":"VEC2"
		},
		{
			"bufferView":23,
			"componentType":5123,
			"count":48,
			"type":"SCALAR"
		},
		{
			"bufferView":24,
			"componentType":5126,
			"count":54,
			"max":[
				12,
				8.5,
				5
			],
			"min":[
				-12,
				7.5,
				-7.5
			],
			"type":"VEC3"
		},
		{
			"bufferView":25,
			"componentType":5126,
			"count":54,
			"type":"VEC3"
		},
		{
			"bufferView":26,
			"componentType":5126,
			"count":54,
			"type":"VEC2"
		},
		{
			"bufferView":27,
			"componentType":5123,
			"count":126,
			"type":"SCALAR"
		},
		{
			"bufferView":28,
			"componentType":5126,
			"count":22,
			"max":[
				3,
				9.5,
				5
			],
			"min":[
				-3,
				8.5,
				-8.5
			],
			"type":"VEC3"
		},
		{
			"bufferView":29,
			"componentType":5126,
			"count":22,
			"type":"VEC3"
		},
		{
			"bufferView":30,
			"componentType":5126,
			"count":22,
			"type":"VEC2"
		},
		{
			"bufferView":31,
			"componentType":5123,
			"count":42,
			"type":"SCALAR"
		},
		{
			"bufferView":32,
			"componentType":5126,
			"count":8,
			"max":[
				3,
				2,
				-6
			],
			"min":[
				-3,
				1,
				-7.5
			],
			"type":"VEC3"
		},
		{
			"bufferView":33,
			"componentType":5126,
			"count":8,
			"type":"VEC3"
		},
		{
			"bufferView":34,
			"componentType":5126,
			"count":8,
			"type":"VEC2"
		},
		{
			"bufferView":35,
			"componentType":5123,
			"count":12,
			"type":"SCALAR"
		},
		{
			"bufferView":36,
			"componentType":5126,
			"count":8,
			"max":[
				3,
				4,
				-6
			],
			"min":[
				-3,
				2,
				-7.5
			],
			"type":"VEC3"
		},
		{
			"bufferView":37,
			"componentType":5126,
			"count":8,
			"type":"VEC3"
		},
		{
			"bufferView":38,
			"componentType":5126,
			"count":8,
			"type":"VEC2"
		},
		{
			"bufferView":39,
			"componentType":5123,
			"count":12,
			"type":"SCALAR"
		},
		{
			"bufferView":40,
			"componentType":5126,
			"count":16,
			"max":[
				0.75,
				7.5,
				1.5
			],
			"min":[
				-0.75,
				7.25,
				-1.5
			],
			"type":"VEC3"
		},
		{
			"bufferView":41,
			"componentType":5126,
			"count":16,
			"type":"VEC3"
		},
		{
			"bufferView":42,
			"componentType":5126,
			"count":16,
			"type":"VEC2"
		},
		{
			"bufferView":43,
			"componentType":5123,
			"count":24,
			"type":"SCALAR"
		},
		{
			"bufferView":44,
			"componentType":5126,
			"count":4,
			"max":[
				0.5,
				7.25,
				1
			],
			"min":[
				-0.5,
				7.25,
				-1
			],
			"type":"VEC3"
		},
		{
			"bufferView":45,
			"componentType":5126,
			"count":4,
			"type":"VEC3"
		},
		{
			"bufferView":46,
			"componentType":5126,
			"count":4,
			"type":"VEC2"
		},
		{
			"bufferView":47,
			"componentType":5123,
			"count":6,
			"type":"SCALAR"
		},
		{
			"bufferView":48,
			"componentType":5126,
			"count":92,
			"max":[
				13,
				8.5,
				5
			],
			"min":[
				-13,
				-1,
				-6.5
			],
			"type":"VEC3"
		},
		{
			"bufferView":49,
			"componentType":5126,
			"count":92,
			"type":"VEC3"
		},
		{
			"bufferView":50,
			"componentType":5126,
			"count":92,
			"type":"VEC2"
		},
		{
			"bufferView":51,
			"componentType":5123,
			"count":168,
			"type":"SCALAR"
		},
		{
			"bufferView":52,
			"componentType":5126,
			"count":16,
			"max":[
				7,
				8.5,
				2.5
			],
			"min":[
				-7,
				1,
				-5
			],
			"type":"VEC3"
		},
		{
			"bufferView":53,
			"componentType":5126,
			"count":16,
			"type":"VEC3"
		},
		{
			"bufferView":54,
			"componentType":5126,
			"count":16,
			"type":"VEC2"
		},
		{
			"bufferView":55,
			"componentType":5123,
			"count":24,
			"type":"SCALAR"
		},
		{
			"bufferView":56,
			"componentType":5126,
			"count":50,
			"max":[
				13,
				1,
				5
			],
			"min":[
				-13,
				-0.5,
				-5.5
			],
			"type":"VEC3"
		},
		{
			"bufferView":57,
			"componentType":5126,
			"count":50,
			"type":"VEC3"
		},
		{
			"bufferView":58,
			"componentType":5126,
			"count":50,
			"type":"VEC2"
		},
		{
			"bufferView":59,
			"componentType":5123,
			"count":102,
			"type":"SCALAR"
		}
	],
	"bufferViews":[
		{
			"buffer":0,
			"byteLength":288,
			"byteOffset":0,
			"target":34962
		},
		{
			"buffer":0,
			"byteLength":288,
			"byteOffset":288,
			"target":34962
		},
		{
			"buffer":0,
			"byteLength":192,
			"byteOffset":576,
			"target":34962
		},
		{
			"buffer":0,
			"byteLength":120,
			"byteOffset":768,
			"target":34963
		},
		{
			"buffer":0,
			"byteLength":2568,
			"byteOffset":888,
			"target":34962
		},
		{
			"buffer":0,
			"byteLength":2568,
			"byteOffset":3456,
			"target":34962
		},
		{
			"buffer":0,
			"byteLength":1712,
			"byteOffset":6024,
			"target":34962
		},
		{
			"buffer":0,
			"byteLength":912,
			"byteOffset":7736,
			"target":34963
		},
		{
			"buffer":0,
			"byteLength":240,
			"byteOffset":8648,
			"target":34962
		},
		{
			"buffer":0,
			"byteLength":240,
			"byteOffset":8888,
			"target":34962
		},
		{
			"buffer":0,
			"byteLength":160,
			"byteOffset":9128,
			"target":34962
		},
		{
			"buffer":0,
			"byteLength":72,
			"byteOffset":9288,
			"target":34963
		},
		{
			"buffer":0,
			"byteLength":1248,
			"byteOffset":9360,
			"target":34962
		},
		{
			"buffer":0,
			"byteLength":1248,
			"byteOffset":10608,
			"target":34962
		},
		{
			"buffer":0,
			"byteLength":832,
			"byteOffset":11856,
			"target":34962
		},
		{
			"buffer":0,
			"byteLength":396,
			"byteOffset":12688,
			"target":34963
		},
		{
			"buffer":0,
			"byteLength":648,
			"byteOffset":13084,
			"target":34962
		},
		{
			"buffer":0,
			"byteLength":648,
			"byteOffset":13732,
			"target":34962
		},
		{
			"buffer":0,
			"byteLength":432,
			"byteOffset":14380,
			"target":34962
		},
		{
			"buffer":0,
			"byteLength":240,
			"byteOffset":14812,
			"target":34963
		},
		{
			"buffer":0,
			"byteLength":288,
			"byteOffset":15052,
			"target":34962
		},
		{
			"buffer":0,
			"byteLength":288,
			"byteOffset":15340,
			"target":34962
		},
		{
			"buffer":0,
			"byteLength":192,
			"byteOffset":15628,
			"target":34962
		},
		{
			"buffer":0,
			"byteLength":96,
			"byteOffset":15820,
			"target":34963
		},
		{
			"buffer":0,
			"byteLength":648,
			"byteOffset":15916,
			"target":34962
		},
		{
			"buffer":0,
			"byteLength":648,
			"byteOffset":16564,
			"target":34962
		},
		{
			"buffer":0,
			"byteLength":432,
			"byteOffset":17212,
			"target":34962
		},
		{
			"buffer":0,
			"byteLength":252,
			"byteOffset":17644,
			"target":34963
		},
		{
			"buffer":0,
			"byteLength":264,
			"byteOffset":17896,
			"target":34962
		},
		{
			"buffer":0,
			"byteLength":264,
			"byteOffset":18160,
			"target":34962
		},
		{
			"buffer":0,
			"byteLength":176,
			"byteOffset":18424,
			"target":34962
		},
		{
			"buffer":0,
			"byteLength":84,
			"byteOffset":18600,
			"target":34963
		},
		{
			"buffer":0,
			"byteLength":96,
			"byteOffset":18684,
			"target":34962
		},
		{
			"buffer":0,
			"byteLength":96,
			"byteOffset":18780,
			"target":34962
		},
		{
			"buffer":0,
			"byteLength":64,
			"byteOffset":18876,
			"target":34962
		},
		{
			"buffer":0,
			"byteLength":24,
			"byteOffset":18940,
			"target":34963
		},
		{
			"buffer":0,
			"byteLength":96,
			"byteOffset":18964,
			"target":34962
		},
		{
			"buffer":0,
			"byteLength":96,
			"byteOffset":19060,
			"target":34962
		},
		{
			"buffer":0,
			"byteLength":64,
			"byteOffset":19156,
			"target":34962
		},
		{
			"buffer":0,
			"byteLength":24,
			"byteOffset":19220,
			"target":34963
		},
		{
			"buffer":0,
			"byteLength":192,
			"byteOffset":19244,
			"target":34962
		},
		{
			"buffer":0,
			"byteLength":192,
			"byteOffset":19436,
			"target":34962
		},
		{
			"buffer":0,
			"byteLength":128,
			"byteOffset":19628,
			"target":34962
		},
		{
			"buffer":0,
			"byteLength":48,
			"byteOffset":19756,
			"target":34963
		},
		{
			"buffer":0,
			"byteLength":48,
			"byteOffset":19804,
			"target":34962
		},
		{
			"buffer":0,
			"byteLength":48,
			"byteOffset":19852,
			"target":34962
		},
		{
			"buffer":0,
			"byteLength":32,
			"byteOffset":19900,
			"target":34962
		},
		{
			"buffer":0,
			"byteLength":12,
			"byteOffset":19932,
			"target":34963
		},
		{
			"buffer":0,
			"byteLength":1104,
			"byteOffset":19944,
			"target":34962
		},
		{
			"buffer":0,
			"byteLength":1104,
			"byteOffset":21048,
			"target":34962
		},
		{
			"buffer":0,
			"byteLength":736,
			"byteOffset":22152,
			"target":34962
		},
		{
			"buffer":0,
			"byteLength":336,
			"byteOffset":22888,
			"target":34963
		},
		{
			"buffer":0,
			"byteLength":192,
			"byteOffset":23224,
			"target":34962
		},
		{
			"buffer":0,
			"byteLength":192,
			"byteOffset":23416,
			"target":34962
		},
		{
			"buffer":0,
			"byteLength":128,
			"byteOffset":23608,
			"target":34962
		},
		{
			"buffer":0,
			"byteLength":48,
			"byteOffset":23736,
			"target":34963
		},
		{
			"buffer":0,
			"byteLength":600,
			"byteOffset":23784,
			"target":34962
		},
		{
			"buffer":0,
			"byteLength":600,
			"byteOffset":24384,
			"target":34962
		},
		{
			"buffer":0,
			"byteLength":400,
			"byteOffset":24984,
			"target":34962
		},
		{
			"buffer":0,
			"byteLength":204,
			"byteOffset":25384,
			"target":34963
		}
	],
	"buffers":[
		{
			"byteLength":25588,
			"uri":"bbunke.bin"
		}
	]
}
