{
	"asset":{
		"generator":"Khronos glTF Blender I/O v4.5.48",
		"version":"2.0"
	},
	"scene":0,
	"scenes":[
		{
			"name":"Scene",
			"nodes":[
				0
			]
		}
	],
	"nodes":[
		{
			"mesh":0,
			"name":"Object"
		}
	],
	"materials":[
		{
			"doubleSided":true,
			"name":"BE_EWAL06",
			"pbrMetallicRoughness":{
				"baseColorFactor":[
					0.800000011920929,
					0.800000011920929,
					0.800000011920929,
					1
				],
				"metallicFactor":0,
				"roughnessFactor":0.5
			}
		},
		{
			"doubleSided":true,
			"name":"BE_EFLO02",
			"pbrMetallicRoughness":{
				"baseColorFactor":[
					0.800000011920929,
					0.800000011920929,
					0.800000011920929,
					1
				],
				"metallicFactor":0,
				"roughnessFactor":0.5
			}
		},
		{
			"doubleSided":true,
			"name":"BE_ESPEC06A",
			"pbrMetallicRoughness":{
				"baseColorFactor":[
					0.800000011920929,
					0.800000011920929,
					0.800000011920929,
					1
				],
				"metallicFactor":0,
				"roughnessFactor":0.5
			}
		},
		{
			"doubleSided":true,
			"name":"BE_ESPEC01",
			"pbrMetallicRoughness":{
				"baseColorFactor":[
					0.800000011920929,
					0.800000011920929,
					0.800000011920929,
					1
				],
				"metallicFactor":0,
				"roughnessFactor":0.5
			}
		},
		{
			"doubleSided":true,
			"name":"BE_EWAL01B",
			"pbrMetallicRoughness":{
				"baseColorFactor":[
					0.800000011920929,
					0.800000011920929,
					0.800000011920929,
					1
				],
				"metallicFactor":0,
				"roughnessFactor":0.5
			}
		},
		{
			"doubleSided":true,
			"name":"BE_EPORT01E",
			"pbrMetallicRoughness":{
				"baseColorFactor":[
					0.800000011920929,
					0.800000011920929,
					0.800000011920929,
					1
				],
				"metallicFactor":0,
				"roughnessFactor":0.5
			}
		},
		{
			"doubleSided":true,
			"name":"BE_ICEI01B",
			"pbrMetallicRoughness":{
				"baseColorFactor":[
					0.800000011920929,
					0.800000011920929,
					0.800000011920929,
					1
				],
				"metallicFactor":0,
				"roughnessFactor":0.5
			}
		},
		{
			"doubleSided":true,
			"name":"BE_ICOWAL02A",
			"pbrMetallicRoughness":{
				"baseColorFactor":[
					0.800000011920929,
					0.800000011920929,
					0.800000011920929,
					1
				],
				"metallicFactor":0,
				"roughnessFactor":0.5
			}
		},
		{
			"doubleSided":true,
			"name":"BE_ITEBOR01",
			"pbrMetallicRoughness":{
				"baseColorFactor":[
					0.800000011920929,
					0.800000011920929,
					0.800000011920929,
					1
				],
				"metallicFactor":0,
				"roughnessFactor":0.5
			}
		},
		{
			"doubleSided":true,
			"name":"BE_EWAL03A",
			"pbrMetallicRoughness":{
				"baseColorFactor":[
					0.800000011920929,
					0.800000011920929,
					0.800000011920929,
					1
				],
				"metallicFactor":0,
				"roughnessFactor":0.5
			}
		},
		{
			"doubleSided":true,
			"name":"BE_EWAL07",
			"pbrMetallicRoughness":{
				"baseColorFactor":[
					0.800000011920929,
					0.800000011920929,
					0.800000011920929,
					1
				],
				"metallicFactor":0,
				"roughnessFactor":0.5
			}
		},
		{
			"doubleSided":true,
			"name":"BE_EBOR01E",
			"pbrMetallicRoughness":{
				"baseColorFactor":[
					0.800000011920929,
					0.800000011920929,
					0.800000011920929,
					1
				],
				"metallicFactor":0,
				"roughnessFactor":0.5
			}
		},
		{
			"doubleSided":true,
			"name":"BE_IHAWAL04A",
			"pbrMetallicRoughness":{
				"baseColorFactor":[
					0.800000011920929,
					0.800000011920929,
					0.800000011920929,
					1
				],
				"metallicFactor":0,
				"roughnessFactor":0.5
			}
		},
		{
			"doubleSided":true,
			"name":"BE_IHASPE01",
			"pbrMetallicRoughness":{
				"baseColorFactor":[
					0.800000011920929,
					0.800000011920929,
					0.800000011920929,
					1
				],
				"metallicFactor":0,
				"roughnessFactor":0.5
			}
		},
		{
			"doubleSided":true,
			"name":"BE_ICEI01A",
			"pbrMetallicRoughness":{
				"baseColorFactor":[
					0.800000011920929,
					0.800000011920929,
					0.800000011920929,
					1
				],
				"metallicFactor":0,
				"roughnessFactor":0.5
			}
		},
		{
			"doubleSided":true,
			"name":"BE_ICOLIG",
			"pbrMetallicRoughness":{
				"baseColorFactor":[
					0.800000011920929,
					0.800000011920929,
					0.800000011920929,
					1
				],
				"metallicFactor":0,
				"roughnessFactor":0.5
			}
		},
		{
			"doubleSided":true,
			"name":"BE_ITEC01",
			"pbrMetallicRoughness":{
				"baseColorFactor":[
					0.800000011920929,
					0.800000011920929,
					0.800000011920929,
					1
				],
				"metallicFactor":0,
				"roughnessFactor":0.5
			}
		},
		{
			"doubleSided":true,
			"name":"BE_ICEI03B",
			"pbrMetallicRoughness":{
				"baseColorFactor":[
					0.800000011920929,
					0.800000011920929,
					0.800000011920929,
					1
				],
				"metallicFactor":0,
				"roughnessFactor":0.5
			}
		},
		{
			"doubleSided":true,
			"name":"BE_THRESH02",
			"pbrMetallicRoughness":{
				"baseColorFactor":[
					0.800000011920929,
					0.800000011920929,
					0.800000011920929,
					1
				],
				"metallicFactor":0,
				"roughnessFactor":0.5
			}
		},
		{
			"doubleSided":true,
			"name":"BE_ITELIG02",
			"pbrMetallicRoughness":{
				"baseColorFactor":[
					0.800000011920929,
					0.800000011920929,
					0.800000011920929,
					1
				],
				"metallicFactor":0,
				"roughnessFactor":0.5
			}
		}
	],
	"meshes":[
		{
			"name":"Mesh",
			"primitives":[
				{
					"attributes":{
						"POSITION":0,
						"NORMAL":1,
						"TEXCOORD_0":2
					},
					"indices":3,
					"material":0
				},
				{
					"attributes":{
						"POSITION":4,
						"NORMAL":5,
						"TEXCOORD_0":6
					},
					"indices":7,
					"material":1
				},
				{
					"attributes":{
						"POSITION":8,
						"NORMAL":9,
						"TEXCOORD_0":10
					},
					"indices":11,
					"material":2
				},
				{
					"attributes":{
						"POSITION":12,
						"NORMAL":13,
						"TEXCOORD_0":14
					},
					"indices":15,
					"material":3
				},
				{
					"attributes":{
						"POSITION":16,
						"NORMAL":17,
						"TEXCOORD_0":18
					},
					"indices":19,
					"material":4
				},
				{
					"attributes":{
						"POSITION":20,
						"NORMAL":21,
						"TEXCOORD_0":22
					},
					"indices":23,
					"material":5
				},
				{
					"attributes":{
						"POSITION":24,
						"NORMAL":25,
						"TEXCOORD_0":26
					},
					"indices":27,
					"material":6
				},
				{
					"attributes":{
						"POSITION":28,
						"NORMAL":29,
						"TEXCOORD_0":30
					},
					"indices":31,
					"material":7
				},
				{
					"attributes":{
						"POSITION":32,
						"NORMAL":33,
						"TEXCOORD_0":34
					},
					"indices":35,
					"material":8
				},
				{
					"attributes":{
						"POSITION":36,
						"NORMAL":37,
						"TEXCOORD_0":38
					},
					"indices":39,
					"material":9
				},
				{
					"attributes":{
						"POSITION":40,
						"NORMAL":41,
						"TEXCOORD_0":42
					},
					"indices":43,
					"material":10
				},
				{
					"attributes":{
						"POSITION":44,
						"NORMAL":45,
						"TEXCOORD_0":46
					},
					"indices":47,
					"material":11
				},
				{
					"attributes":{
						"POSITION":48,
						"NORMAL":49,
						"TEXCOORD_0":50
					},
					"indices":51,
					"material":12
				},
				{
					"attributes":{
						"POSITION":52,
						"NORMAL":53,
						"TEXCOORD_0":54
					},
					"indices":55,
					"material":13
				},
				{
					"attributes":{
						"POSITION":56,
						"NORMAL":57,
						"TEXCOORD_0":58
					},
					"indices":59,
					"material":14
				},
				{
					"attributes":{
						"POSITION":60,
						"NORMAL":61,
						"TEXCOORD_0":62
					},
					"indices":63,
					"material":15
				},
				{
					"attributes":{
						"POSITION":64,
						"NORMAL":65,
						"TEXCOORD_0":66
					},
					"indices":67,
					"material":16
				},
				{
					"attributes":{
						"POSITION":68,
						"NORMAL":69,
						"TEXCOORD_0":70
					},
					"indices":71,
					"material":17
				},
				{
					"attributes":{
						"POSITION":72,
						"NORMAL":73,
						"TEXCOORD_0":74
					},
					"indices":75,
					"material":18
				},
				{
					"attributes":{
						"POSITION":76,
						"NORMAL":77,
						"TEXCOORD_0":78
					},
					"indices":79,
					"material":19
				}
			]
		}
	],
	"accessors":[
		{
			"bufferView":0,
			"componentType":5126,
			"count":46,
			"max":[
				24,
				-18,
				33
			],
			"min":[
				-24,
				-26,
				-57
			],
			"type":"VEC3"
		},
		{
			"bufferView":1,
			"componentType":5126,
			"count":46,
			"type":"VEC3"
		},
		{
			"bufferView":2,
			"componentType":5126,
			"count":46,
			"type":"VEC2"
		},
		{
			"bufferView":3,
			"componentType":5123,
			"count":114,
			"type":"SCALAR"
		},
		{
			"bufferView":4,
			"componentType":5126,
			"count":82,
			"max":[
				32,
				-14,
				55
			],
			"min":[
				-32,
				-14,
				-2
			],
			"type":"VEC3"
		},
		{
			"bufferView":5,
			"componentType":5126,
			"count":82,
			"type":"VEC3"
		},
		{
			"bufferView":6,
			"componentType":5126,
			"count":82,
			"type":"VEC2"
		},
		{
			"bufferView":7,
			"componentType":5123,
			"count":234,
			"type":"SCALAR"
		},
		{
			"bufferView":8,
			"componentType":5126,
			"count":36,
			"max":[
				20,
				-14,
				33
			],
			"min":[
				-20,
				-18,
				-1
			],
			"type":"VEC3"
		},
		{
			"bufferView":9,
			"componentType":5126,
			"count":36,
			"type":"VEC3"
		},
		{
			"bufferView":10,
			"componentType":5126,
			"count":36,
			"type":"VEC2"
		},
		{
			"bufferView":11,
			"componentType":5123,
			"count":54,
			"type":"SCALAR"
		},
		{
			"bufferView":12,
			"componentType":5126,
			"count":45,
			"max":[
				16,
				6,
				54.5
			],
			"min":[
				-16,
				-6,
				-7
			],
			"type":"VEC3"
		},
		{
			"bufferView":13,
			"componentType":5126,
			"count":45,
			"type":"VEC3"
		},
		{
			"bufferView":14,
			"componentType":5126,
			"count":45,
			"type":"VEC2"
		},
		{
			"bufferView":15,
			"componentType":5123,
			"count":87,
			"type":"SCALAR"
		},
		{
			"bufferView":16,
			"componentType":5126,
			"count":258,
			"max":[
				40,
				24,
				55
			],
			"min":[
				-40,
				-18,
				-25
			],
			"type":"VEC3"
		},
		{
			"bufferView":17,
			"componentType":5126,
			"count":258,
			"type":"VEC3"
		},
		{
			"bufferView":18,
			"componentType":5126,
			"count":258,
			"type":"VEC2"
		},
		{
			"bufferView":19,
			"componentType":5123,
			"count":759,
			"type":"SCALAR"
		},
		{
			"bufferView":20,
			"componentType":5126,
			"count":42,
			"max":[
				20,
				-5,
				53
			],
			"min":[
				-20,
				-18,
				-7
			],
			"type":"VEC3"
		},
		{
			"bufferView":21,
			"componentType":5126,
			"count":42,
			"type":"VEC3"
		},
		{
			"bufferView":22,
			"componentType":5126,
			"count":42,
			"type":"VEC2"
		},
		{
			"bufferView":23,
			"componentType":5123,
			"count":78,
			"type":"SCALAR"
		},
		{
			"bufferView":24,
			"componentType":5126,
			"count":207,
			"max":[
				32,
				10,
				55
			],
			"min":[
				-32,
				-6,
				-25
			],
			"type":"VEC3"
		},
		{
			"bufferView":25,
			"componentType":5126,
			"count":207,
			"type":"VEC3"
		},
		{
			"bufferView":26,
			"componentType":5126,
			"count":207,
			"type":"VEC2"
		},
		{
			"bufferView":27,
			"componentType":5123,
			"count":615,
			"type":"SCALAR"
		},
		{
			"bufferView":28,
			"componentType":5126,
			"count":62,
			"max":[
				32,
				-6,
				55
			],
			"min":[
				-32,
				-14,
				-2
			],
			"type":"VEC3"
		},
		{
			"bufferView":29,
			"componentType":5126,
			"count":62,
			"type":"VEC3"
		},
		{
			"bufferView":30,
			"componentType":5126,
			"count":62,
			"type":"VEC2"
		},
		{
			"bufferView":31,
			"componentType":5123,
			"count":114,
			"type":"SCALAR"
		},
		{
			"bufferView":32,
			"componentType":5126,
			"count":67,
			"max":[
				32,
				-4,
				55
			],
			"min":[
				-32,
				-6,
				-1
			],
			"type":"VEC3"
		},
		{
			"bufferView":33,
			"componentType":5126,
			"count":67,
			"type":"VEC3"
		},
		{
			"bufferView":34,
			"componentType":5126,
			"count":67,
			"type":"VEC2"
		},
		{
			"bufferView":35,
			"componentType":5123,
			"count":105,
			"type":"SCALAR"
		},
		{
			"bufferView":36,
			"componentType":5126,
			"count":178,
			"max":[
				40,
				14,
				33
			],
			"min":[
				-40,
				-26,
				-47
			],
			"type":"VEC3"
		},
		{
			"bufferView":37,
			"componentType":5126,
			"count":178,
			"type":"VEC3"
		},
		{
			"bufferView":38,
			"componentType":5126,
			"count":178,
			"type":"VEC2"
		},
		{
			"bufferView":39,
			"componentType":5123,
			"count":366,
			"type":"SCALAR"
		},
		{
			"bufferView":40,
			"componentType":5126,
			"count":94,
			"max":[
				40.25,
				16,
				55
			],
			"min":[
				-40.5,
				-8,
				-25.25
			],
			"type":"VEC3"
		},
		{
			"bufferView":41,
			"componentType":5126,
			"count":94,
			"type":"VEC3"
		},
		{
			"bufferView":42,
			"componentType":5126,
			"count":94,
			"type":"VEC2"
		},
		{
			"bufferView":43,
			"componentType":5123,
			"count":201,
			"type":"SCALAR"
		},
		{
			"bufferView":44,
			"componentType":5126,
			"count":69,
			"max":[
				40.25,
				16,
				-2
			],
			"min":[
				-40.5,
				14,
				-25.25
			],
			"type":"VEC3"
		},
		{
			"bufferView":45,
			"componentType":5126,
			"count":69,
			"type":"VEC3"
		},
		{
			"bufferView":46,
			"componentType":5126,
			"count":69,
			"type":"VEC2"
		},
		{
			"bufferView":47,
			"componentType":5123,
			"count":117,
			"type":"SCALAR"
		},
		{
			"bufferView":48,
			"componentType":5126,
			"count":64,
			"max":[
				32,
				6,
				55
			],
			"min":[
				-32,
				-4,
				32
			],
			"type":"VEC3"
		},
		{
			"bufferView":49,
			"componentType":5126,
			"count":64,
			"type":"VEC3"
		},
		{
			"bufferView":50,
			"componentType":5126,
			"count":64,
			"type":"VEC2"
		},
		{
			"bufferView":51,
			"componentType":5123,
			"count":114,
			"type":"SCALAR"
		},
		{
			"bufferView":52,
			"componentType":5126,
			"count":20,
			"max":[
				21,
				6,
				55
			],
			"min":[
				-21,
				-14,
				-1
			],
			"type":"VEC3"
		},
		{
			"bufferView":53,
			"componentType":5126,
			"count":20,
			"type":"VEC3"
		},
		{
			"bufferView":54,
			"componentType":5126,
			"count":20,
			"type":"VEC2"
		},
		{
			"bufferView":55,
			"componentType":5123,
			"count":30,
			"type":"SCALAR"
		},
		{
			"bufferView":56,
			"componentType":5126,
			"count":32,
			"max":[
				28,
				10,
				52
			],
			"min":[
				-28,
				5.75,
				1
			],
			"type":"VEC3"
		},
		{
			"bufferView":57,
			"componentType":5126,
			"count":32,
			"type":"VEC3"
		},
		{
			"bufferView":58,
			"componentType":5126,
			"count":32,
			"type":"VEC2"
		},
		{
			"bufferView":59,
			"componentType":5123,
			"count":66,
			"type":"SCALAR"
		},
		{
			"bufferView":60,
			"componentType":5126,
			"count":16,
			"max":[
				22,
				-6,
				31
			],
			"min":[
				-22,
				-8,
				12
			],
			"type":"VEC3"
		},
		{
			"bufferView":61,
			"componentType":5126,
			"count":16,
			"type":"VEC3"
		},
		{
			"bufferView":62,
			"componentType":5126,
			"count":16,
			"type":"VEC2"
		},
		{
			"bufferView":63,
			"componentType":5123,
			"count":24,
			"type":"SCALAR"
		},
		{
			"bufferView":64,
			"componentType":5126,
			"count":16,
			"max":[
				21,
				-8,
				31
			],
			"min":[
				-21,
				-10,
				12
			],
			"type":"VEC3"
		},
		{
			"bufferView":65,
			"componentType":5126,
			"count":16,
			"type":"VEC3"
		},
		{
			"bufferView":66,
			"componentType":5126,
			"count":16,
			"type":"VEC2"
		},
		{
			"bufferView":67,
			"componentType":5123,
			"count":24,
			"type":"SCALAR"
		},
		{
			"bufferView":68,
			"componentType":5126,
			"count":96,
			"max":[
				28,
				6,
				52
			],
			"min":[
				-28,
				5.75,
				40
			],
			"type":"VEC3"
		},
		{
			"bufferView":69,
			"componentType":5126,
			"count":96,
			"type":"VEC3"
		},
		{
			"bufferView":70,
			"componentType":5126,
			"count":96,
			"type":"VEC2"
		},
		{
			"bufferView":71,
			"componentType":5123,
			"count":144,
			"type":"SCALAR"
		},
		{
			"bufferView":72,
			"componentType":5126,
			"count":72,
			"max":[
				20,
				3.5,
				33.25
			],
			"min":[
				-20,
				-4.5,
				-7.25
			],
			"type":"VEC3"
		},
		{
			"bufferView":73,
			"componentType":5126,
			"count":72,
			"type":"VEC3"
		},
		{
			"bufferView":74,
			"componentType":5126,
			"count":72,
			"type":"VEC2"
		},
		{
			"bufferView":75,
			"componentType":5123,
			"count":108,
			"type":"SCALAR"
		},
		{
			"bufferView":76,
			"componentType":5126,
			"count":6,
			"max":[
				4,
				-4,
				54.5
			],
			"min":[
				-4,
				-6,
				54.5
			],
			"type":"VEC3"
		},
		{
			"bufferView":77,
			"componentType":5126,
			"count":6,
			"type":"VEC3"
		},
		{
			"bufferView":78,
			"componentType":5126,
			"count":6,
			"type":"VEC2"
		},
		{
			"bufferView":79,
			"componentType":5123,
			"count":12,
			"type":"SCALAR"
		}
	],
	"bufferViews":[
		{
			"buffer":0,
			"byteLength":552,
			"byteOffset":0,
			"target":34962
		},
		{
			"buffer":0,
			"byteLength":552,
			"byteOffset":552,
			"target":34962
		},
		{
			"buffer":0,
			"byteLength":368,
			"byteOffset":1104,
			"target":34962
		},
		{
			"buffer":0,
			"byteLength":228,
			"byteOffset":1472,
			"target":34963
		},
		{
			"buffer":0,
			"byteLength":984,
			"byteOffset":1700,
			"target":34962
		},
		{
			"buffer":0,
			"byteLength":984,
			"byteOffset":2684,
			"target":34962
		},
		{
			"buffer":0,
			"byteLength":656,
			"byteOffset":3668,
			"target":34962
		},
		{
			"buffer":0,
			"byteLength":468,
			"byteOffset":4324,
			"target":34963
		},
		{
			"buffer":0,
			"byteLength":432,
			"byteOffset":4792,
			"target":34962
		},
		{
			"buffer":0,
			"byteLength":432,
			"byteOffset":5224,
			"target":34962
		},
		{
			"buffer":0,
			"byteLength":288,
			"byteOffset":5656,
			"target":34962
		},
		{
			"buffer":0,
			"byteLength":108,
			"byteOffset":5944,
			"target":34963
		},
		{
			"buffer":0,
			"byteLength":540,
			"byteOffset":6052,
			"target":34962
		},
		{
			"buffer":0,
			"byteLength":540,
			"byteOffset":6592,
			"target":34962
		},
		{
			"buffer":0,
			"byteLength":360,
			"byteOffset":7132,
			"target":34962
		},
		{
			"buffer":0,
			"byteLength":174,
			"byteOffset":7492,
			"target":34963
		},
		{
			"buffer":0,
			"byteLength":3096,
			"byteOffset":7668,
			"target":34962
		},
		{
			"buffer":0,
			"byteLength":3096,
			"byteOffset":10764,
			"target":34962
		},
		{
			"buffer":0,
			"byteLength":2064,
			"byteOffset":13860,
			"target":34962
		},
		{
			"buffer":0,
			"byteLength":1518,
			"byteOffset":15924,
			"target":34963
		},
		{
			"buffer":0,
			"byteLength":504,
			"byteOffset":17444,
			"target":34962
		},
		{
			"buffer":0,
			"byteLength":504,
			"byteOffset":17948,
			"target":34962
		},
		{
			"buffer":0,
			"byteLength":336,
			"byteOffset":18452,
			"target":34962
		},
		{
			"buffer":0,
			"byteLength":156,
			"byteOffset":18788,
			"target":34963
		},
		{
			"buffer":0,
			"byteLength":2484,
			"byteOffset":18944,
			"target":34962
		},
		{
			"buffer":0,
			"byteLength":2484,
			"byteOffset":21428,
			"target":34962
		},
		{
			"buffer":0,
			"byteLength":1656,
			"byteOffset":23912,
			"target":34962
		},
		{
			"buffer":0,
			"byteLength":1230,
			"byteOffset":25568,
			"target":34963
		},
		{
			"buffer":0,
			"byteLength":744,
			"byteOffset":26800,
			"target":34962
		},
		{
			"buffer":0,
			"byteLength":744,
			"byteOffset":27544,
			"target":34962
		},
		{
			"buffer":0,
			"byteLength":496,
			"byteOffset":28288,
			"target":34962
		},
		{
			"buffer":0,
			"byteLength":228,
			"byteOffset":28784,
			"target":34963
		},
		{
			"buffer":0,
			"byteLength":804,
			"byteOffset":29012,
			"target":34962
		},
		{
			"buffer":0,
			"byteLength":804,
			"byteOffset":29816,
			"target":34962
		},
		{
			"buffer":0,
			"byteLength":536,
			"byteOffset":30620,
			"target":34962
		},
		{
			"buffer":0,
			"byteLength":210,
			"byteOffset":31156,
			"target":34963
		},
		{
			"buffer":0,
			"byteLength":2136,
			"byteOffset":31368,
			"target":34962
		},
		{
			"buffer":0,
			"byteLength":2136,
			"byteOffset":33504,
			"target":34962
		},
		{
			"buffer":0,
			"byteLength":1424,
			"byteOffset":35640,
			"target":34962
		},
		{
			"buffer":0,
			"byteLength":732,
			"byteOffset":37064,
			"target":34963
		},
		{
			"buffer":0,
			"byteLength":1128,
			"byteOffset":37796,
			"target":34962
		},
		{
			"buffer":0,
			"byteLength":1128,
			"byteOffset":38924,
			"target":34962
		},
		{
			"buffer":0,
			"byteLength":752,
			"byteOffset":40052,
			"target":34962
		},
		{
			"buffer":0,
			"byteLength":402,
			"byteOffset":40804,
			"target":34963
		},
		{
			"buffer":0,
			"byteLength":828,
			"byteOffset":41208,
			"target":34962
		},
		{
			"buffer":0,
			"byteLength":828,
			"byteOffset":42036,
			"target":34962
		},
		{
			"buffer":0,
			"byteLength":552,
			"byteOffset":42864,
			"target":34962
		},
		{
			"buffer":0,
			"byteLength":234,
			"byteOffset":43416,
			"target":34963
		},
		{
			"buffer":0,
			"byteLength":768,
			"byteOffset":43652,
			"target":34962
		},
		{
			"buffer":0,
			"byteLength":768,
			"byteOffset":44420,
			"target":34962
		},
		{
			"buffer":0,
			"byteLength":512,
			"byteOffset":45188,
			"target":34962
		},
		{
			"buffer":0,
			"byteLength":228,
			"byteOffset":45700,
			"target":34963
		},
		{
			"buffer":0,
			"byteLength":240,
			"byteOffset":45928,
			"target":34962
		},
		{
			"buffer":0,
			"byteLength":240,
			"byteOffset":46168,
			"target":34962
		},
		{
			"buffer":0,
			"byteLength":160,
			"byteOffset":46408,
			"target":34962
		},
		{
			"buffer":0,
			"byteLength":60,
			"byteOffset":46568,
			"target":34963
		},
		{
			"buffer":0,
			"byteLength":384,
			"byteOffset":46628,
			"target":34962
		},
		{
			"buffer":0,
			"byteLength":384,
			"byteOffset":47012,
			"target":34962
		},
		{
			"buffer":0,
			"byteLength":256,
			"byteOffset":47396,
			"target":34962
		},
		{
			"buffer":0,
			"byteLength":132,
			"byteOffset":47652,
			"target":34963
		},
		{
			"buffer":0,
			"byteLength":192,
			"byteOffset":47784,
			"target":34962
		},
		{
			"buffer":0,
			"byteLength":192,
			"byteOffset":47976,
			"target":34962
		},
		{
			"buffer":0,
			"byteLength":128,
			"byteOffset":48168,
			"target":34962
		},
		{
			"buffer":0,
			"byteLength":48,
			"byteOffset":48296,
			"target":34963
		},
		{
			"buffer":0,
			"byteLength":192,
			"byteOffset":48344,
			"target":34962
		},
		{
			"buffer":0,
			"byteLength":192,
			"byteOffset":48536,
			"target":34962
		},
		{
			"buffer":0,
			"byteLength":128,
			"byteOffset":48728,
			"target":34962
		},
		{
			"buffer":0,
			"byteLength":48,
			"byteOffset":48856,
			"target":34963
		},
		{
			"buffer":0,
			"byteLength":1152,
			"byteOffset":48904,
			"target":34962
		},
		{
			"buffer":0,
			"byteLength":1152,
			"byteOffset":50056,
			"target":34962
		},
		{
			"buffer":0,
			"byteLength":768,
			"byteOffset":51208,
			"target":34962
		},
		{
			"buffer":0,
			"byteLength":288,
			"byteOffset":51976,
			"target":34963
		},
		{
			"buffer":0,
			"byteLength":864,
			"byteOffset":52264,
			"target":34962
		},
		{
			"buffer":0,
			"byteLength":864,
			"byteOffset":53128,
			"target":34962
		},
		{
			"buffer":0,
			"byteLength":576,
			"byteOffset":53992,
			"target":34962
		},
		{
			"buffer":0,
			"byteLength":216,
			"byteOffset":54568,
			"target":34963
		},
		{
			"buffer":0,
			"byteLength":72,
			"byteOffset":54784,
			"target":34962
		},
		{
			"buffer":0,
			"byteLength":72,
			"byteOffset":54856,
			"target":34962
		},
		{
			"buffer":0,
			"byteLength":48,
			"byteOffset":54928,
			"target":34962
		},
		{
			"buffer":0,
			"byteLength":24,
			"byteOffset":54976,
			"target":34963
		}
	],
	"buffers":[
		{
			"byteLength":55000,
			"uri":"bmisc_nefvbay.bin"
		}
	]
}
