{
	"asset":{
		"generator":"Khronos glTF Blender I/O v4.5.48",
		"version":"2.0"
	},
	"scene":0,
	"scenes":[
		{
			"name":"Scene",
			"nodes":[
				0
			]
		}
	],
	"nodes":[
		{
			"mesh":0,
			"name":"Object"
		}
	],
	"materials":[
		{
			"doubleSided":true,
			"name":"BE_IGENERIC",
			"pbrMetallicRoughness":{
				"baseColorFactor":[
					0.800000011920929,
					0.800000011920929,
					0.800000011920929,
					1
				],
				"metallicFactor":0,
				"roughnessFactor":0.5
			}
		},
		{
			"doubleSided":true,
			"name":"BE_ICEI03B",
			"pbrMetallicRoughness":{
				"baseColorFactor":[
					0.800000011920929,
					0.800000011920929,
					0.800000011920929,
					1
				],
				"metallicFactor":0,
				"roughnessFactor":0.5
			}
		},
		{
			"doubleSided":true,
			"name":"BE_ICOWAL02A",
			"pbrMetallicRoughness":{
				"baseColorFactor":[
					0.800000011920929,
					0.800000011920929,
					0.800000011920929,
					1
				],
				"metallicFactor":0,
				"roughnessFactor":0.5
			}
		},
		{
			"doubleSided":true,
			"name":"BE_ELIG03",
			"pbrMetallicRoughness":{
				"baseColorFactor":[
					0.800000011920929,
					0.800000011920929,
					0.800000011920929,
					1
				],
				"metallicFactor":0,
				"roughnessFactor":0.5
			}
		},
		{
			"doubleSided":true,
			"name":"BE_EWAL01B",
			"pbrMetallicRoughness":{
				"baseColorFactor":[
					0.800000011920929,
					0.800000011920929,
					0.800000011920929,
					1
				],
				"metallicFactor":0,
				"roughnessFactor":0.5
			}
		},
		{
			"doubleSided":true,
			"name":"BE_ESPEC01",
			"pbrMetallicRoughness":{
				"baseColorFactor":[
					0.800000011920929,
					0.800000011920929,
					0.800000011920929,
					1
				],
				"metallicFactor":0,
				"roughnessFactor":0.5
			}
		},
		{
			"doubleSided":true,
			"name":"BE_EPORT01E",
			"pbrMetallicRoughness":{
				"baseColorFactor":[
					0.800000011920929,
					0.800000011920929,
					0.800000011920929,
					1
				],
				"metallicFactor":0,
				"roughnessFactor":0.5
			}
		},
		{
			"doubleSided":true,
			"name":"BE_EFLO02",
			"pbrMetallicRoughness":{
				"baseColorFactor":[
					0.800000011920929,
					0.800000011920929,
					0.800000011920929,
					1
				],
				"metallicFactor":0,
				"roughnessFactor":0.5
			}
		},
		{
			"doubleSided":true,
			"name":"BE_EWAL07",
			"pbrMetallicRoughness":{
				"baseColorFactor":[
					0.800000011920929,
					0.800000011920929,
					0.800000011920929,
					1
				],
				"metallicFactor":0,
				"roughnessFactor":0.5
			}
		},
		{
			"doubleSided":true,
			"name":"BE_EFLO01",
			"pbrMetallicRoughness":{
				"baseColorFactor":[
					0.800000011920929,
					0.800000011920929,
					0.800000011920929,
					1
				],
				"metallicFactor":0,
				"roughnessFactor":0.5
			}
		}
	],
	"meshes":[
		{
			"name":"Mesh",
			"primitives":[
				{
					"attributes":{
						"POSITION":0,
						"NORMAL":1,
						"TEXCOORD_0":2
					},
					"indices":3,
					"material":0
				},
				{
					"attributes":{
						"POSITION":4,
						"NORMAL":5,
						"TEXCOORD_0":6
					},
					"indices":7,
					"material":1
				},
				{
					"attributes":{
						"POSITION":8,
						"NORMAL":9,
						"TEXCOORD_0":10
					},
					"indices":11,
					"material":2
				},
				{
					"attributes":{
						"POSITION":12,
						"NORMAL":13,
						"TEXCOORD_0":14
					},
					"indices":15,
					"material":3
				},
				{
					"attributes":{
						"POSITION":16,
						"NORMAL":17,
						"TEXCOORD_0":18
					},
					"indices":19,
					"material":4
				},
				{
					"attributes":{
						"POSITION":20,
						"NORMAL":21,
						"TEXCOORD_0":22
					},
					"indices":23,
					"material":5
				},
				{
					"attributes":{
						"POSITION":24,
						"NORMAL":25,
						"TEXCOORD_0":26
					},
					"indices":27,
					"material":6
				},
				{
					"attributes":{
						"POSITION":28,
						"NORMAL":29,
						"TEXCOORD_0":30
					},
					"indices":31,
					"material":7
				},
				{
					"attributes":{
						"POSITION":32,
						"NORMAL":33,
						"TEXCOORD_0":34
					},
					"indices":35,
					"material":8
				},
				{
					"attributes":{
						"POSITION":36,
						"NORMAL":37,
						"TEXCOORD_0":38
					},
					"indices":39,
					"material":9
				}
			]
		}
	],
	"accessors":[
		{
			"bufferView":0,
			"componentType":5126,
			"count":17,
			"max":[
				12.5,
				9,
				19
			],
			"min":[
				-20,
				9,
				-19
			],
			"type":"VEC3"
		},
		{
			"bufferView":1,
			"componentType":5126,
			"count":17,
			"type":"VEC3"
		},
		{
			"bufferView":2,
			"componentType":5126,
			"count":17,
			"type":"VEC2"
		},
		{
			"bufferView":3,
			"componentType":5123,
			"count":45,
			"type":"SCALAR"
		},
		{
			"bufferView":4,
			"componentType":5126,
			"count":79,
			"max":[
				12.5,
				8.5,
				19
			],
			"min":[
				-20,
				7,
				-19
			],
			"type":"VEC3"
		},
		{
			"bufferView":5,
			"componentType":5126,
			"count":79,
			"type":"VEC3"
		},
		{
			"bufferView":6,
			"componentType":5126,
			"count":79,
			"type":"VEC2"
		},
		{
			"bufferView":7,
			"componentType":5123,
			"count":285,
			"type":"SCALAR"
		},
		{
			"bufferView":8,
			"componentType":5126,
			"count":32,
			"max":[
				12.5,
				9,
				19
			],
			"min":[
				-20,
				7,
				-19
			],
			"type":"VEC3"
		},
		{
			"bufferView":9,
			"componentType":5126,
			"count":32,
			"type":"VEC3"
		},
		{
			"bufferView":10,
			"componentType":5126,
			"count":32,
			"type":"VEC2"
		},
		{
			"bufferView":11,
			"componentType":5123,
			"count":48,
			"type":"SCALAR"
		},
		{
			"bufferView":12,
			"componentType":5126,
			"count":44,
			"max":[
				11,
				9,
				18
			],
			"min":[
				-20,
				8.5,
				-18
			],
			"type":"VEC3"
		},
		{
			"bufferView":13,
			"componentType":5126,
			"count":44,
			"type":"VEC3"
		},
		{
			"bufferView":14,
			"componentType":5126,
			"count":44,
			"type":"VEC2"
		},
		{
			"bufferView":15,
			"componentType":5123,
			"count":66,
			"type":"SCALAR"
		},
		{
			"bufferView":16,
			"componentType":5126,
			"count":132,
			"max":[
				9,
				8.75,
				16
			],
			"min":[
				-20,
				-8,
				-16
			],
			"type":"VEC3"
		},
		{
			"bufferView":17,
			"componentType":5126,
			"count":132,
			"type":"VEC3"
		},
		{
			"bufferView":18,
			"componentType":5126,
			"count":132,
			"type":"VEC2"
		},
		{
			"bufferView":19,
			"componentType":5123,
			"count":228,
			"type":"SCALAR"
		},
		{
			"bufferView":20,
			"componentType":5126,
			"count":14,
			"max":[
				8,
				7,
				7
			],
			"min":[
				6,
				1,
				-7
			],
			"type":"VEC3"
		},
		{
			"bufferView":21,
			"componentType":5126,
			"count":14,
			"type":"VEC3"
		},
		{
			"bufferView":22,
			"componentType":5126,
			"count":14,
			"type":"VEC2"
		},
		{
			"bufferView":23,
			"componentType":5123,
			"count":30,
			"type":"SCALAR"
		},
		{
			"bufferView":24,
			"componentType":5126,
			"count":10,
			"max":[
				6,
				1,
				7
			],
			"min":[
				-4,
				-8,
				-7
			],
			"type":"VEC3"
		},
		{
			"bufferView":25,
			"componentType":5126,
			"count":10,
			"type":"VEC3"
		},
		{
			"bufferView":26,
			"componentType":5126,
			"count":10,
			"type":"VEC2"
		},
		{
			"bufferView":27,
			"componentType":5123,
			"count":18,
			"type":"SCALAR"
		},
		{
			"bufferView":28,
			"componentType":5126,
			"count":12,
			"max":[
				9,
				8.75,
				16
			],
			"min":[
				-20,
				8.75,
				-16
			],
			"type":"VEC3"
		},
		{
			"bufferView":29,
			"componentType":5126,
			"count":12,
			"type":"VEC3"
		},
		{
			"bufferView":30,
			"componentType":5126,
			"count":12,
			"type":"VEC2"
		},
		{
			"bufferView":31,
			"componentType":5123,
			"count":36,
			"type":"SCALAR"
		},
		{
			"bufferView":32,
			"componentType":5126,
			"count":24,
			"max":[
				4,
				8.75,
				4
			],
			"min":[
				-4,
				8.5,
				-4
			],
			"type":"VEC3"
		},
		{
			"bufferView":33,
			"componentType":5126,
			"count":24,
			"type":"VEC3"
		},
		{
			"bufferView":34,
			"componentType":5126,
			"count":24,
			"type":"VEC2"
		},
		{
			"bufferView":35,
			"componentType":5123,
			"count":48,
			"type":"SCALAR"
		},
		{
			"bufferView":36,
			"componentType":5126,
			"count":4,
			"max":[
				3,
				8.75,
				3
			],
			"min":[
				-3,
				8.75,
				-3
			],
			"type":"VEC3"
		},
		{
			"bufferView":37,
			"componentType":5126,
			"count":4,
			"type":"VEC3"
		},
		{
			"bufferView":38,
			"componentType":5126,
			"count":4,
			"type":"VEC2"
		},
		{
			"bufferView":39,
			"componentType":5123,
			"count":6,
			"type":"SCALAR"
		}
	],
	"bufferViews":[
		{
			"buffer":0,
			"byteLength":204,
			"byteOffset":0,
			"target":34962
		},
		{
			"buffer":0,
			"byteLength":204,
			"byteOffset":204,
			"target":34962
		},
		{
			"buffer":0,
			"byteLength":136,
			"byteOffset":408,
			"target":34962
		},
		{
			"buffer":0,
			"byteLength":90,
			"byteOffset":544,
			"target":34963
		},
		{
			"buffer":0,
			"byteLength":948,
			"byteOffset":636,
			"target":34962
		},
		{
			"buffer":0,
			"byteLength":948,
			"byteOffset":1584,
			"target":34962
		},
		{
			"buffer":0,
			"byteLength":632,
			"byteOffset":2532,
			"target":34962
		},
		{
			"buffer":0,
			"byteLength":570,
			"byteOffset":3164,
			"target":34963
		},
		{
			"buffer":0,
			"byteLength":384,
			"byteOffset":3736,
			"target":34962
		},
		{
			"buffer":0,
			"byteLength":384,
			"byteOffset":4120,
			"target":34962
		},
		{
			"buffer":0,
			"byteLength":256,
			"byteOffset":4504,
			"target":34962
		},
		{
			"buffer":0,
			"byteLength":96,
			"byteOffset":4760,
			"target":34963
		},
		{
			"buffer":0,
			"byteLength":528,
			"byteOffset":4856,
			"target":34962
		},
		{
			"buffer":0,
			"byteLength":528,
			"byteOffset":5384,
			"target":34962
		},
		{
			"buffer":0,
			"byteLength":352,
			"byteOffset":5912,
			"target":34962
		},
		{
			"buffer":0,
			"byteLength":132,
			"byteOffset":6264,
			"target":34963
		},
		{
			"buffer":0,
			"byteLength":1584,
			"byteOffset":6396,
			"target":34962
		},
		{
			"buffer":0,
			"byteLength":1584,
			"byteOffset":7980,
			"target":34962
		},
		{
			"buffer":0,
			"byteLength":1056,
			"byteOffset":9564,
			"target":34962
		},
		{
			"buffer":0,
			"byteLength":456,
			"byteOffset":10620,
			"target":34963
		},
		{
			"buffer":0,
			"byteLength":168,
			"byteOffset":11076,
			"target":34962
		},
		{
			"buffer":0,
			"byteLength":168,
			"byteOffset":11244,
			"target":34962
		},
		{
			"buffer":0,
			"byteLength":112,
			"byteOffset":11412,
			"target":34962
		},
		{
			"buffer":0,
			"byteLength":60,
			"byteOffset":11524,
			"target":34963
		},
		{
			"buffer":0,
			"byteLength":120,
			"byteOffset":11584,
			"target":34962
		},
		{
			"buffer":0,
			"byteLength":120,
			"byteOffset":11704,
			"target":34962
		},
		{
			"buffer":0,
			"byteLength":80,
			"byteOffset":11824,
			"target":34962
		},
		{
			"buffer":0,
			"byteLength":36,
			"byteOffset":11904,
			"target":34963
		},
		{
			"buffer":0,
			"byteLength":144,
			"byteOffset":11940,
			"target":34962
		},
		{
			"buffer":0,
			"byteLength":144,
			"byteOffset":12084,
			"target":34962
		},
		{
			"buffer":0,
			"byteLength":96,
			"byteOffset":12228,
			"target":34962
		},
		{
			"buffer":0,
			"byteLength":72,
			"byteOffset":12324,
			"target":34963
		},
		{
			"buffer":0,
			"byteLength":288,
			"byteOffset":12396,
			"target":34962
		},
		{
			"buffer":0,
			"byteLength":288,
			"byteOffset":12684,
			"target":34962
		},
		{
			"buffer":0,
			"byteLength":192,
			"byteOffset":12972,
			"target":34962
		},
		{
			"buffer":0,
			"byteLength":96,
			"byteOffset":13164,
			"target":34963
		},
		{
			"buffer":0,
			"byteLength":48,
			"byteOffset":13260,
			"target":34962
		},
		{
			"buffer":0,
			"byteLength":48,
			"byteOffset":13308,
			"target":34962
		},
		{
			"buffer":0,
			"byteLength":32,
			"byteOffset":13356,
			"target":34962
		},
		{
			"buffer":0,
			"byteLength":12,
			"byteOffset":13388,
			"target":34963
		}
	],
	"buffers":[
		{
			"byteLength":13400,
			"uri":"bmisc_nefledge1.bin"
		}
	]
}
