{
	"asset":{
		"generator":"Khronos glTF Blender I/O v4.5.48",
		"version":"2.0"
	},
	"scene":0,
	"scenes":[
		{
			"name":"Scene",
			"nodes":[
				0
			]
		}
	],
	"nodes":[
		{
			"mesh":0,
			"name":"Object"
		}
	],
	"materials":[
		{
			"doubleSided":true,
			"name":"DS_ETRANS01",
			"pbrMetallicRoughness":{
				"baseColorFactor":[
					0.800000011920929,
					0.800000011920929,
					0.800000011920929,
					1
				],
				"metallicFactor":0,
				"roughnessFactor":0.5
			}
		},
		{
			"doubleSided":true,
			"name":"DS_IWAL01",
			"pbrMetallicRoughness":{
				"baseColorFactor":[
					0.800000011920929,
					0.800000011920929,
					0.800000011920929,
					1
				],
				"metallicFactor":0,
				"roughnessFactor":0.5
			}
		},
		{
			"doubleSided":true,
			"name":"DS_ILIG03",
			"pbrMetallicRoughness":{
				"baseColorFactor":[
					0.800000011920929,
					0.800000011920929,
					0.800000011920929,
					1
				],
				"metallicFactor":0,
				"roughnessFactor":0.5
			}
		},
		{
			"doubleSided":true,
			"name":"DS_NEFWALL1",
			"pbrMetallicRoughness":{
				"baseColorFactor":[
					0.800000011920929,
					0.800000011920929,
					0.800000011920929,
					1
				],
				"metallicFactor":0,
				"roughnessFactor":0.5
			}
		},
		{
			"doubleSided":true,
			"name":"DS_NEFBLUE2",
			"pbrMetallicRoughness":{
				"baseColorFactor":[
					0.800000011920929,
					0.800000011920929,
					0.800000011920929,
					1
				],
				"metallicFactor":0,
				"roughnessFactor":0.5
			}
		},
		{
			"doubleSided":true,
			"name":"DS_NEFFLOOR2",
			"pbrMetallicRoughness":{
				"baseColorFactor":[
					0.800000011920929,
					0.800000011920929,
					0.800000011920929,
					1
				],
				"metallicFactor":0,
				"roughnessFactor":0.5
			}
		},
		{
			"doubleSided":true,
			"name":"DS_NEFBLUE",
			"pbrMetallicRoughness":{
				"baseColorFactor":[
					0.800000011920929,
					0.800000011920929,
					0.800000011920929,
					1
				],
				"metallicFactor":0,
				"roughnessFactor":0.5
			}
		},
		{
			"doubleSided":true,
			"name":"DS_ILIG05",
			"pbrMetallicRoughness":{
				"baseColorFactor":[
					0.800000011920929,
					0.800000011920929,
					0.800000011920929,
					1
				],
				"metallicFactor":0,
				"roughnessFactor":0.5
			}
		},
		{
			"doubleSided":true,
			"name":"DS_TECHWALL_3",
			"pbrMetallicRoughness":{
				"baseColorFactor":[
					0.800000011920929,
					0.800000011920929,
					0.800000011920929,
					1
				],
				"metallicFactor":0,
				"roughnessFactor":0.5
			}
		},
		{
			"doubleSided":true,
			"name":"DS_NEFFLOOR4",
			"pbrMetallicRoughness":{
				"baseColorFactor":[
					0.800000011920929,
					0.800000011920929,
					0.800000011920929,
					1
				],
				"metallicFactor":0,
				"roughnessFactor":0.5
			}
		},
		{
			"doubleSided":true,
			"name":"DS_IFLO04",
			"pbrMetallicRoughness":{
				"baseColorFactor":[
					0.800000011920929,
					0.800000011920929,
					0.800000011920929,
					1
				],
				"metallicFactor":0,
				"roughnessFactor":0.5
			}
		},
		{
			"doubleSided":true,
			"name":"DS_ICHUTE02",
			"pbrMetallicRoughness":{
				"baseColorFactor":[
					0.800000011920929,
					0.800000011920929,
					0.800000011920929,
					1
				],
				"metallicFactor":0,
				"roughnessFactor":0.5
			}
		},
		{
			"doubleSided":true,
			"name":"DS_ICHUTE01",
			"pbrMetallicRoughness":{
				"baseColorFactor":[
					0.800000011920929,
					0.800000011920929,
					0.800000011920929,
					1
				],
				"metallicFactor":0,
				"roughnessFactor":0.5
			}
		},
		{
			"doubleSided":true,
			"name":"DS_TECHWALL_1",
			"pbrMetallicRoughness":{
				"baseColorFactor":[
					0.800000011920929,
					0.800000011920929,
					0.800000011920929,
					1
				],
				"metallicFactor":0,
				"roughnessFactor":0.5
			}
		},
		{
			"doubleSided":true,
			"name":"DS_NEFFLOOR5",
			"pbrMetallicRoughness":{
				"baseColorFactor":[
					0.800000011920929,
					0.800000011920929,
					0.800000011920929,
					1
				],
				"metallicFactor":0,
				"roughnessFactor":0.5
			}
		},
		{
			"doubleSided":true,
			"name":"DS_EFLOOR1",
			"pbrMetallicRoughness":{
				"baseColorFactor":[
					0.800000011920929,
					0.800000011920929,
					0.800000011920929,
					1
				],
				"metallicFactor":0,
				"roughnessFactor":0.5
			}
		},
		{
			"doubleSided":true,
			"name":"DS_ALARM",
			"pbrMetallicRoughness":{
				"baseColorFactor":[
					0.800000011920929,
					0.800000011920929,
					0.800000011920929,
					1
				],
				"metallicFactor":0,
				"roughnessFactor":0.5
			}
		},
		{
			"doubleSided":true,
			"name":"DS_GENWALL",
			"pbrMetallicRoughness":{
				"baseColorFactor":[
					0.800000011920929,
					0.800000011920929,
					0.800000011920929,
					1
				],
				"metallicFactor":0,
				"roughnessFactor":0.5
			}
		},
		{
			"doubleSided":true,
			"name":"DS_ILIG02",
			"pbrMetallicRoughness":{
				"baseColorFactor":[
					0.800000011920929,
					0.800000011920929,
					0.800000011920929,
					1
				],
				"metallicFactor":0,
				"roughnessFactor":0.5
			}
		},
		{
			"doubleSided":true,
			"name":"DS_IFLO01",
			"pbrMetallicRoughness":{
				"baseColorFactor":[
					0.800000011920929,
					0.800000011920929,
					0.800000011920929,
					1
				],
				"metallicFactor":0,
				"roughnessFactor":0.5
			}
		},
		{
			"doubleSided":true,
			"name":"DS_ILIG06",
			"pbrMetallicRoughness":{
				"baseColorFactor":[
					0.800000011920929,
					0.800000011920929,
					0.800000011920929,
					1
				],
				"metallicFactor":0,
				"roughnessFactor":0.5
			}
		}
	],
	"meshes":[
		{
			"name":"Mesh",
			"primitives":[
				{
					"attributes":{
						"POSITION":0,
						"NORMAL":1,
						"TEXCOORD_0":2
					},
					"indices":3,
					"material":0
				},
				{
					"attributes":{
						"POSITION":4,
						"NORMAL":5,
						"TEXCOORD_0":6
					},
					"indices":7,
					"material":1
				},
				{
					"attributes":{
						"POSITION":8,
						"NORMAL":9,
						"TEXCOORD_0":10
					},
					"indices":11,
					"material":2
				},
				{
					"attributes":{
						"POSITION":12,
						"NORMAL":13,
						"TEXCOORD_0":14
					},
					"indices":15,
					"material":3
				},
				{
					"attributes":{
						"POSITION":16,
						"NORMAL":17,
						"TEXCOORD_0":18
					},
					"indices":19,
					"material":4
				},
				{
					"attributes":{
						"POSITION":20,
						"NORMAL":21,
						"TEXCOORD_0":22
					},
					"indices":23,
					"material":5
				},
				{
					"attributes":{
						"POSITION":24,
						"NORMAL":25,
						"TEXCOORD_0":26
					},
					"indices":27,
					"material":6
				},
				{
					"attributes":{
						"POSITION":28,
						"NORMAL":29,
						"TEXCOORD_0":30
					},
					"indices":31,
					"material":7
				},
				{
					"attributes":{
						"POSITION":32,
						"NORMAL":33,
						"TEXCOORD_0":34
					},
					"indices":35,
					"material":8
				},
				{
					"attributes":{
						"POSITION":36,
						"NORMAL":37,
						"TEXCOORD_0":38
					},
					"indices":39,
					"material":9
				},
				{
					"attributes":{
						"POSITION":40,
						"NORMAL":41,
						"TEXCOORD_0":42
					},
					"indices":43,
					"material":10
				},
				{
					"attributes":{
						"POSITION":44,
						"NORMAL":45,
						"TEXCOORD_0":46
					},
					"indices":47,
					"material":11
				},
				{
					"attributes":{
						"POSITION":48,
						"NORMAL":49,
						"TEXCOORD_0":50
					},
					"indices":51,
					"material":12
				},
				{
					"attributes":{
						"POSITION":52,
						"NORMAL":53,
						"TEXCOORD_0":54
					},
					"indices":55,
					"material":13
				},
				{
					"attributes":{
						"POSITION":56,
						"NORMAL":57,
						"TEXCOORD_0":58
					},
					"indices":59,
					"material":14
				},
				{
					"attributes":{
						"POSITION":60,
						"NORMAL":61,
						"TEXCOORD_0":62
					},
					"indices":63,
					"material":15
				},
				{
					"attributes":{
						"POSITION":64,
						"NORMAL":65,
						"TEXCOORD_0":66
					},
					"indices":67,
					"material":16
				},
				{
					"attributes":{
						"POSITION":68,
						"NORMAL":69,
						"TEXCOORD_0":70
					},
					"indices":71,
					"material":17
				},
				{
					"attributes":{
						"POSITION":72,
						"NORMAL":73,
						"TEXCOORD_0":74
					},
					"indices":75,
					"material":18
				},
				{
					"attributes":{
						"POSITION":76,
						"NORMAL":77,
						"TEXCOORD_0":78
					},
					"indices":79,
					"material":19
				},
				{
					"attributes":{
						"POSITION":80,
						"NORMAL":81,
						"TEXCOORD_0":82
					},
					"indices":83,
					"material":20
				}
			]
		}
	],
	"accessors":[
		{
			"bufferView":0,
			"componentType":5126,
			"count":192,
			"max":[
				1.25,
				-8,
				57.5
			],
			"min":[
				-19.25,
				-16,
				46.5
			],
			"type":"VEC3"
		},
		{
			"bufferView":1,
			"componentType":5126,
			"count":192,
			"type":"VEC3"
		},
		{
			"bufferView":2,
			"componentType":5126,
			"count":192,
			"type":"VEC2"
		},
		{
			"bufferView":3,
			"componentType":5123,
			"count":288,
			"type":"SCALAR"
		},
		{
			"bufferView":4,
			"componentType":5126,
			"count":144,
			"max":[
				1.5,
				-11,
				57.75
			],
			"min":[
				-19.5,
				-12.59375,
				46.25
			],
			"type":"VEC3"
		},
		{
			"bufferView":5,
			"componentType":5126,
			"count":144,
			"type":"VEC3"
		},
		{
			"bufferView":6,
			"componentType":5126,
			"count":144,
			"type":"VEC2"
		},
		{
			"bufferView":7,
			"componentType":5123,
			"count":432,
			"type":"SCALAR"
		},
		{
			"bufferView":8,
			"componentType":5126,
			"count":148,
			"max":[
				1.5,
				3.5,
				58
			],
			"min":[
				-33,
				-12.59375,
				46
			],
			"type":"VEC3"
		},
		{
			"bufferView":9,
			"componentType":5126,
			"count":148,
			"type":"VEC3"
		},
		{
			"bufferView":10,
			"componentType":5126,
			"count":148,
			"type":"VEC2"
		},
		{
			"bufferView":11,
			"componentType":5123,
			"count":294,
			"type":"SCALAR"
		},
		{
			"bufferView":12,
			"componentType":5126,
			"count":284,
			"max":[
				34,
				22,
				72
			],
			"min":[
				-38,
				-20,
				32
			],
			"type":"VEC3"
		},
		{
			"bufferView":13,
			"componentType":5126,
			"count":284,
			"type":"VEC3"
		},
		{
			"bufferView":14,
			"componentType":5126,
			"count":284,
			"type":"VEC2"
		},
		{
			"bufferView":15,
			"componentType":5123,
			"count":636,
			"type":"SCALAR"
		},
		{
			"bufferView":16,
			"componentType":5126,
			"count":8,
			"max":[
				16,
				22,
				72
			],
			"min":[
				-38,
				22,
				32
			],
			"type":"VEC3"
		},
		{
			"bufferView":17,
			"componentType":5126,
			"count":8,
			"type":"VEC3"
		},
		{
			"bufferView":18,
			"componentType":5126,
			"count":8,
			"type":"VEC2"
		},
		{
			"bufferView":19,
			"componentType":5123,
			"count":12,
			"type":"SCALAR"
		},
		{
			"bufferView":20,
			"componentType":5126,
			"count":48,
			"max":[
				2,
				12,
				72
			],
			"min":[
				-38,
				4,
				32
			],
			"type":"VEC3"
		},
		{
			"bufferView":21,
			"componentType":5126,
			"count":48,
			"type":"VEC3"
		},
		{
			"bufferView":22,
			"componentType":5126,
			"count":48,
			"type":"VEC2"
		},
		{
			"bufferView":23,
			"componentType":5123,
			"count":120,
			"type":"SCALAR"
		},
		{
			"bufferView":24,
			"componentType":5126,
			"count":114,
			"max":[
				32,
				20,
				68
			],
			"min":[
				-37,
				-20,
				36
			],
			"type":"VEC3"
		},
		{
			"bufferView":25,
			"componentType":5126,
			"count":114,
			"type":"VEC3"
		},
		{
			"bufferView":26,
			"componentType":5126,
			"count":114,
			"type":"VEC2"
		},
		{
			"bufferView":27,
			"componentType":5123,
			"count":420,
			"type":"SCALAR"
		},
		{
			"bufferView":28,
			"componentType":5126,
			"count":22,
			"max":[
				8,
				12,
				68
			],
			"min":[
				-33,
				12,
				36
			],
			"type":"VEC3"
		},
		{
			"bufferView":29,
			"componentType":5126,
			"count":22,
			"type":"VEC3"
		},
		{
			"bufferView":30,
			"componentType":5126,
			"count":22,
			"type":"VEC2"
		},
		{
			"bufferView":31,
			"componentType":5123,
			"count":60,
			"type":"SCALAR"
		},
		{
			"bufferView":32,
			"componentType":5126,
			"count":48,
			"max":[
				2,
				12,
				68
			],
			"min":[
				-35,
				-8.125,
				36
			],
			"type":"VEC3"
		},
		{
			"bufferView":33,
			"componentType":5126,
			"count":48,
			"type":"VEC3"
		},
		{
			"bufferView":34,
			"componentType":5126,
			"count":48,
			"type":"VEC2"
		},
		{
			"bufferView":35,
			"componentType":5123,
			"count":90,
			"type":"SCALAR"
		},
		{
			"bufferView":36,
			"componentType":5126,
			"count":12,
			"max":[
				-35,
				12,
				68
			],
			"min":[
				-37,
				4,
				36
			],
			"type":"VEC3"
		},
		{
			"bufferView":37,
			"componentType":5126,
			"count":12,
			"type":"VEC3"
		},
		{
			"bufferView":38,
			"componentType":5126,
			"count":12,
			"type":"VEC2"
		},
		{
			"bufferView":39,
			"componentType":5123,
			"count":24,
			"type":"SCALAR"
		},
		{
			"bufferView":40,
			"componentType":5126,
			"count":36,
			"max":[
				9,
				10,
				63
			],
			"min":[
				-32,
				-16,
				41
			],
			"type":"VEC3"
		},
		{
			"bufferView":41,
			"componentType":5126,
			"count":36,
			"type":"VEC3"
		},
		{
			"bufferView":42,
			"componentType":5126,
			"count":36,
			"type":"VEC2"
		},
		{
			"bufferView":43,
			"componentType":5123,
			"count":54,
			"type":"SCALAR"
		},
		{
			"bufferView":44,
			"componentType":5126,
			"count":96,
			"max":[
				13,
				10,
				63
			],
			"min":[
				-32,
				-16,
				41
			],
			"type":"VEC3"
		},
		{
			"bufferView":45,
			"componentType":5126,
			"count":96,
			"type":"VEC3"
		},
		{
			"bufferView":46,
			"componentType":5126,
			"count":96,
			"type":"VEC2"
		},
		{
			"bufferView":47,
			"componentType":5123,
			"count":156,
			"type":"SCALAR"
		},
		{
			"bufferView":48,
			"componentType":5126,
			"count":100,
			"max":[
				13,
				10,
				63
			],
			"min":[
				-32,
				-16,
				41
			],
			"type":"VEC3"
		},
		{
			"bufferView":49,
			"componentType":5126,
			"count":100,
			"type":"VEC3"
		},
		{
			"bufferView":50,
			"componentType":5126,
			"count":100,
			"type":"VEC2"
		},
		{
			"bufferView":51,
			"componentType":5123,
			"count":222,
			"type":"SCALAR"
		},
		{
			"bufferView":52,
			"componentType":5126,
			"count":98,
			"max":[
				9,
				-8,
				66
			],
			"min":[
				-32,
				-16,
				38
			],
			"type":"VEC3"
		},
		{
			"bufferView":53,
			"componentType":5126,
			"count":98,
			"type":"VEC3"
		},
		{
			"bufferView":54,
			"componentType":5126,
			"count":98,
			"type":"VEC2"
		},
		{
			"bufferView":55,
			"componentType":5123,
			"count":222,
			"type":"SCALAR"
		},
		{
			"bufferView":56,
			"componentType":5126,
			"count":20,
			"max":[
				8,
				4,
				68
			],
			"min":[
				-32,
				4,
				36
			],
			"type":"VEC3"
		},
		{
			"bufferView":57,
			"componentType":5126,
			"count":20,
			"type":"VEC3"
		},
		{
			"bufferView":58,
			"componentType":5126,
			"count":20,
			"type":"VEC2"
		},
		{
			"bufferView":59,
			"componentType":5123,
			"count":54,
			"type":"SCALAR"
		},
		{
			"bufferView":60,
			"componentType":5126,
			"count":6,
			"max":[
				-27,
				-15,
				56
			],
			"min":[
				-32,
				-15,
				48
			],
			"type":"VEC3"
		},
		{
			"bufferView":61,
			"componentType":5126,
			"count":6,
			"type":"VEC3"
		},
		{
			"bufferView":62,
			"componentType":5126,
			"count":6,
			"type":"VEC2"
		},
		{
			"bufferView":63,
			"componentType":5123,
			"count":12,
			"type":"SCALAR"
		},
		{
			"bufferView":64,
			"componentType":5126,
			"count":24,
			"max":[
				2,
				-8,
				66
			],
			"min":[
				-20,
				-9,
				38
			],
			"type":"VEC3"
		},
		{
			"bufferView":65,
			"componentType":5126,
			"count":24,
			"type":"VEC3"
		},
		{
			"bufferView":66,
			"componentType":5126,
			"count":24,
			"type":"VEC2"
		},
		{
			"bufferView":67,
			"componentType":5123,
			"count":36,
			"type":"SCALAR"
		},
		{
			"bufferView":68,
			"componentType":5126,
			"count":36,
			"max":[
				2,
				-8,
				66
			],
			"min":[
				-20,
				-9,
				38
			],
			"type":"VEC3"
		},
		{
			"bufferView":69,
			"componentType":5126,
			"count":36,
			"type":"VEC3"
		},
		{
			"bufferView":70,
			"componentType":5126,
			"count":36,
			"type":"VEC2"
		},
		{
			"bufferView":71,
			"componentType":5123,
			"count":36,
			"type":"SCALAR"
		},
		{
			"bufferView":72,
			"componentType":5126,
			"count":8,
			"max":[
				3,
				10.5,
				70.5
			],
			"min":[
				3,
				5.5,
				33.5
			],
			"type":"VEC3"
		},
		{
			"bufferView":73,
			"componentType":5126,
			"count":8,
			"type":"VEC3"
		},
		{
			"bufferView":74,
			"componentType":5126,
			"count":8,
			"type":"VEC2"
		},
		{
			"bufferView":75,
			"componentType":5123,
			"count":12,
			"type":"SCALAR"
		},
		{
			"bufferView":76,
			"componentType":5126,
			"count":58,
			"max":[
				8,
				-16,
				66
			],
			"min":[
				-27,
				-16,
				38
			],
			"type":"VEC3"
		},
		{
			"bufferView":77,
			"componentType":5126,
			"count":58,
			"type":"VEC3"
		},
		{
			"bufferView":78,
			"componentType":5126,
			"count":58,
			"type":"VEC2"
		},
		{
			"bufferView":79,
			"componentType":5123,
			"count":228,
			"type":"SCALAR"
		},
		{
			"bufferView":80,
			"componentType":5126,
			"count":4,
			"max":[
				-28.625,
				-8.125,
				53.875
			],
			"min":[
				-30.375,
				-8.125,
				50.125
			],
			"type":"VEC3"
		},
		{
			"bufferView":81,
			"componentType":5126,
			"count":4,
			"type":"VEC3"
		},
		{
			"bufferView":82,
			"componentType":5126,
			"count":4,
			"type":"VEC2"
		},
		{
			"bufferView":83,
			"componentType":5123,
			"count":6,
			"type":"SCALAR"
		}
	],
	"bufferViews":[
		{
			"buffer":0,
			"byteLength":2304,
			"byteOffset":0,
			"target":34962
		},
		{
			"buffer":0,
			"byteLength":2304,
			"byteOffset":2304,
			"target":34962
		},
		{
			"buffer":0,
			"byteLength":1536,
			"byteOffset":4608,
			"target":34962
		},
		{
			"buffer":0,
			"byteLength":576,
			"byteOffset":6144,
			"target":34963
		},
		{
			"buffer":0,
			"byteLength":1728,
			"byteOffset":6720,
			"target":34962
		},
		{
			"buffer":0,
			"byteLength":1728,
			"byteOffset":8448,
			"target":34962
		},
		{
			"buffer":0,
			"byteLength":1152,
			"byteOffset":10176,
			"target":34962
		},
		{
			"buffer":0,
			"byteLength":864,
			"byteOffset":11328,
			"target":34963
		},
		{
			"buffer":0,
			"byteLength":1776,
			"byteOffset":12192,
			"target":34962
		},
		{
			"buffer":0,
			"byteLength":1776,
			"byteOffset":13968,
			"target":34962
		},
		{
			"buffer":0,
			"byteLength":1184,
			"byteOffset":15744,
			"target":34962
		},
		{
			"buffer":0,
			"byteLength":588,
			"byteOffset":16928,
			"target":34963
		},
		{
			"buffer":0,
			"byteLength":3408,
			"byteOffset":17516,
			"target":34962
		},
		{
			"buffer":0,
			"byteLength":3408,
			"byteOffset":20924,
			"target":34962
		},
		{
			"buffer":0,
			"byteLength":2272,
			"byteOffset":24332,
			"target":34962
		},
		{
			"buffer":0,
			"byteLength":1272,
			"byteOffset":26604,
			"target":34963
		},
		{
			"buffer":0,
			"byteLength":96,
			"byteOffset":27876,
			"target":34962
		},
		{
			"buffer":0,
			"byteLength":96,
			"byteOffset":27972,
			"target":34962
		},
		{
			"buffer":0,
			"byteLength":64,
			"byteOffset":28068,
			"target":34962
		},
		{
			"buffer":0,
			"byteLength":24,
			"byteOffset":28132,
			"target":34963
		},
		{
			"buffer":0,
			"byteLength":576,
			"byteOffset":28156,
			"target":34962
		},
		{
			"buffer":0,
			"byteLength":576,
			"byteOffset":28732,
			"target":34962
		},
		{
			"buffer":0,
			"byteLength":384,
			"byteOffset":29308,
			"target":34962
		},
		{
			"buffer":0,
			"byteLength":240,
			"byteOffset":29692,
			"target":34963
		},
		{
			"buffer":0,
			"byteLength":1368,
			"byteOffset":29932,
			"target":34962
		},
		{
			"buffer":0,
			"byteLength":1368,
			"byteOffset":31300,
			"target":34962
		},
		{
			"buffer":0,
			"byteLength":912,
			"byteOffset":32668,
			"target":34962
		},
		{
			"buffer":0,
			"byteLength":840,
			"byteOffset":33580,
			"target":34963
		},
		{
			"buffer":0,
			"byteLength":264,
			"byteOffset":34420,
			"target":34962
		},
		{
			"buffer":0,
			"byteLength":264,
			"byteOffset":34684,
			"target":34962
		},
		{
			"buffer":0,
			"byteLength":176,
			"byteOffset":34948,
			"target":34962
		},
		{
			"buffer":0,
			"byteLength":120,
			"byteOffset":35124,
			"target":34963
		},
		{
			"buffer":0,
			"byteLength":576,
			"byteOffset":35244,
			"target":34962
		},
		{
			"buffer":0,
			"byteLength":576,
			"byteOffset":35820,
			"target":34962
		},
		{
			"buffer":0,
			"byteLength":384,
			"byteOffset":36396,
			"target":34962
		},
		{
			"buffer":0,
			"byteLength":180,
			"byteOffset":36780,
			"target":34963
		},
		{
			"buffer":0,
			"byteLength":144,
			"byteOffset":36960,
			"target":34962
		},
		{
			"buffer":0,
			"byteLength":144,
			"byteOffset":37104,
			"target":34962
		},
		{
			"buffer":0,
			"byteLength":96,
			"byteOffset":37248,
			"target":34962
		},
		{
			"buffer":0,
			"byteLength":48,
			"byteOffset":37344,
			"target":34963
		},
		{
			"buffer":0,
			"byteLength":432,
			"byteOffset":37392,
			"target":34962
		},
		{
			"buffer":0,
			"byteLength":432,
			"byteOffset":37824,
			"target":34962
		},
		{
			"buffer":0,
			"byteLength":288,
			"byteOffset":38256,
			"target":34962
		},
		{
			"buffer":0,
			"byteLength":108,
			"byteOffset":38544,
			"target":34963
		},
		{
			"buffer":0,
			"byteLength":1152,
			"byteOffset":38652,
			"target":34962
		},
		{
			"buffer":0,
			"byteLength":1152,
			"byteOffset":39804,
			"target":34962
		},
		{
			"buffer":0,
			"byteLength":768,
			"byteOffset":40956,
			"target":34962
		},
		{
			"buffer":0,
			"byteLength":312,
			"byteOffset":41724,
			"target":34963
		},
		{
			"buffer":0,
			"byteLength":1200,
			"byteOffset":42036,
			"target":34962
		},
		{
			"buffer":0,
			"byteLength":1200,
			"byteOffset":43236,
			"target":34962
		},
		{
			"buffer":0,
			"byteLength":800,
			"byteOffset":44436,
			"target":34962
		},
		{
			"buffer":0,
			"byteLength":444,
			"byteOffset":45236,
			"target":34963
		},
		{
			"buffer":0,
			"byteLength":1176,
			"byteOffset":45680,
			"target":34962
		},
		{
			"buffer":0,
			"byteLength":1176,
			"byteOffset":46856,
			"target":34962
		},
		{
			"buffer":0,
			"byteLength":784,
			"byteOffset":48032,
			"target":34962
		},
		{
			"buffer":0,
			"byteLength":444,
			"byteOffset":48816,
			"target":34963
		},
		{
			"buffer":0,
			"byteLength":240,
			"byteOffset":49260,
			"target":34962
		},
		{
			"buffer":0,
			"byteLength":240,
			"byteOffset":49500,
			"target":34962
		},
		{
			"buffer":0,
			"byteLength":160,
			"byteOffset":49740,
			"target":34962
		},
		{
			"buffer":0,
			"byteLength":108,
			"byteOffset":49900,
			"target":34963
		},
		{
			"buffer":0,
			"byteLength":72,
			"byteOffset":50008,
			"target":34962
		},
		{
			"buffer":0,
			"byteLength":72,
			"byteOffset":50080,
			"target":34962
		},
		{
			"buffer":0,
			"byteLength":48,
			"byteOffset":50152,
			"target":34962
		},
		{
			"buffer":0,
			"byteLength":24,
			"byteOffset":50200,
			"target":34963
		},
		{
			"buffer":0,
			"byteLength":288,
			"byteOffset":50224,
			"target":34962
		},
		{
			"buffer":0,
			"byteLength":288,
			"byteOffset":50512,
			"target":34962
		},
		{
			"buffer":0,
			"byteLength":192,
			"byteOffset":50800,
			"target":34962
		},
		{
			"buffer":0,
			"byteLength":72,
			"byteOffset":50992,
			"target":34963
		},
		{
			"buffer":0,
			"byteLength":432,
			"byteOffset":51064,
			"target":34962
		},
		{
			"buffer":0,
			"byteLength":432,
			"byteOffset":51496,
			"target":34962
		},
		{
			"buffer":0,
			"byteLength":288,
			"byteOffset":51928,
			"target":34962
		},
		{
			"buffer":0,
			"byteLength":72,
			"byteOffset":52216,
			"target":34963
		},
		{
			"buffer":0,
			"byteLength":96,
			"byteOffset":52288,
			"target":34962
		},
		{
			"buffer":0,
			"byteLength":96,
			"byteOffset":52384,
			"target":34962
		},
		{
			"buffer":0,
			"byteLength":64,
			"byteOffset":52480,
			"target":34962
		},
		{
			"buffer":0,
			"byteLength":24,
			"byteOffset":52544,
			"target":34963
		},
		{
			"buffer":0,
			"byteLength":696,
			"byteOffset":52568,
			"target":34962
		},
		{
			"buffer":0,
			"byteLength":696,
			"byteOffset":53264,
			"target":34962
		},
		{
			"buffer":0,
			"byteLength":464,
			"byteOffset":53960,
			"target":34962
		},
		{
			"buffer":0,
			"byteLength":456,
			"byteOffset":54424,
			"target":34963
		},
		{
			"buffer":0,
			"byteLength":48,
			"byteOffset":54880,
			"target":34962
		},
		{
			"buffer":0,
			"byteLength":48,
			"byteOffset":54928,
			"target":34962
		},
		{
			"buffer":0,
			"byteLength":32,
			"byteOffset":54976,
			"target":34962
		},
		{
			"buffer":0,
			"byteLength":12,
			"byteOffset":55008,
			"target":34963
		}
	],
	"buffers":[
		{
			"byteLength":55020,
			"uri":"dbase_neficeridge.bin"
		}
	]
}
