{
	"asset":{
		"generator":"Khronos glTF Blender I/O v4.5.48",
		"version":"2.0"
	},
	"scene":0,
	"scenes":[
		{
			"name":"Scene",
			"nodes":[
				0
			]
		}
	],
	"nodes":[
		{
			"mesh":0,
			"name":"Object"
		}
	],
	"materials":[
		{
			"doubleSided":true,
			"name":"DS_EFLOOR1",
			"pbrMetallicRoughness":{
				"baseColorFactor":[
					0.800000011920929,
					0.800000011920929,
					0.800000011920929,
					1
				],
				"metallicFactor":0,
				"roughnessFactor":0.5
			}
		},
		{
			"doubleSided":true,
			"name":"DS_NEFFLOOR1",
			"pbrMetallicRoughness":{
				"baseColorFactor":[
					0.800000011920929,
					0.800000011920929,
					0.800000011920929,
					1
				],
				"metallicFactor":0,
				"roughnessFactor":0.5
			}
		},
		{
			"doubleSided":true,
			"name":"DS_ILIG03",
			"pbrMetallicRoughness":{
				"baseColorFactor":[
					0.800000011920929,
					0.800000011920929,
					0.800000011920929,
					1
				],
				"metallicFactor":0,
				"roughnessFactor":0.5
			}
		},
		{
			"doubleSided":true,
			"name":"DS_NEFBLUE2",
			"pbrMetallicRoughness":{
				"baseColorFactor":[
					0.800000011920929,
					0.800000011920929,
					0.800000011920929,
					1
				],
				"metallicFactor":0,
				"roughnessFactor":0.5
			}
		},
		{
			"doubleSided":true,
			"name":"DS_NEFWALL1",
			"pbrMetallicRoughness":{
				"baseColorFactor":[
					0.800000011920929,
					0.800000011920929,
					0.800000011920929,
					1
				],
				"metallicFactor":0,
				"roughnessFactor":0.5
			}
		},
		{
			"doubleSided":true,
			"name":"DS_NEFBLUE",
			"pbrMetallicRoughness":{
				"baseColorFactor":[
					0.800000011920929,
					0.800000011920929,
					0.800000011920929,
					1
				],
				"metallicFactor":0,
				"roughnessFactor":0.5
			}
		},
		{
			"doubleSided":true,
			"name":"DS_ICHUTE01",
			"pbrMetallicRoughness":{
				"baseColorFactor":[
					0.800000011920929,
					0.800000011920929,
					0.800000011920929,
					1
				],
				"metallicFactor":0,
				"roughnessFactor":0.5
			}
		},
		{
			"doubleSided":true,
			"name":"DS_ETECHBOR01",
			"pbrMetallicRoughness":{
				"baseColorFactor":[
					0.800000011920929,
					0.800000011920929,
					0.800000011920929,
					1
				],
				"metallicFactor":0,
				"roughnessFactor":0.5
			}
		},
		{
			"doubleSided":true,
			"name":"DS_NEFBLTRIM",
			"pbrMetallicRoughness":{
				"baseColorFactor":[
					0.800000011920929,
					0.800000011920929,
					0.800000011920929,
					1
				],
				"metallicFactor":0,
				"roughnessFactor":0.5
			}
		},
		{
			"doubleSided":true,
			"name":"DS_NEFLIG01",
			"pbrMetallicRoughness":{
				"baseColorFactor":[
					0.800000011920929,
					0.800000011920929,
					0.800000011920929,
					1
				],
				"metallicFactor":0,
				"roughnessFactor":0.5
			}
		},
		{
			"doubleSided":true,
			"name":"DS_ILIG05",
			"pbrMetallicRoughness":{
				"baseColorFactor":[
					0.800000011920929,
					0.800000011920929,
					0.800000011920929,
					1
				],
				"metallicFactor":0,
				"roughnessFactor":0.5
			}
		},
		{
			"doubleSided":true,
			"name":"DS_NEFFLOOR5",
			"pbrMetallicRoughness":{
				"baseColorFactor":[
					0.800000011920929,
					0.800000011920929,
					0.800000011920929,
					1
				],
				"metallicFactor":0,
				"roughnessFactor":0.5
			}
		}
	],
	"meshes":[
		{
			"name":"Mesh",
			"primitives":[
				{
					"attributes":{
						"POSITION":0,
						"NORMAL":1,
						"TEXCOORD_0":2
					},
					"indices":3,
					"material":0
				},
				{
					"attributes":{
						"POSITION":4,
						"NORMAL":5,
						"TEXCOORD_0":6
					},
					"indices":7,
					"material":1
				},
				{
					"attributes":{
						"POSITION":8,
						"NORMAL":9,
						"TEXCOORD_0":10
					},
					"indices":11,
					"material":2
				},
				{
					"attributes":{
						"POSITION":12,
						"NORMAL":13,
						"TEXCOORD_0":14
					},
					"indices":15,
					"material":3
				},
				{
					"attributes":{
						"POSITION":16,
						"NORMAL":17,
						"TEXCOORD_0":18
					},
					"indices":19,
					"material":4
				},
				{
					"attributes":{
						"POSITION":20,
						"NORMAL":21,
						"TEXCOORD_0":22
					},
					"indices":23,
					"material":5
				},
				{
					"attributes":{
						"POSITION":24,
						"NORMAL":25,
						"TEXCOORD_0":26
					},
					"indices":27,
					"material":6
				},
				{
					"attributes":{
						"POSITION":28,
						"NORMAL":29,
						"TEXCOORD_0":30
					},
					"indices":31,
					"material":7
				},
				{
					"attributes":{
						"POSITION":32,
						"NORMAL":33,
						"TEXCOORD_0":34
					},
					"indices":35,
					"material":8
				},
				{
					"attributes":{
						"POSITION":36,
						"NORMAL":37,
						"TEXCOORD_0":38
					},
					"indices":39,
					"material":9
				},
				{
					"attributes":{
						"POSITION":40,
						"NORMAL":41,
						"TEXCOORD_0":42
					},
					"indices":43,
					"material":10
				},
				{
					"attributes":{
						"POSITION":44,
						"NORMAL":45,
						"TEXCOORD_0":46
					},
					"indices":47,
					"material":11
				}
			]
		}
	],
	"accessors":[
		{
			"bufferView":0,
			"componentType":5126,
			"count":4,
			"max":[
				5,
				3.5,
				5
			],
			"min":[
				-5,
				3.5,
				-5
			],
			"type":"VEC3"
		},
		{
			"bufferView":1,
			"componentType":5126,
			"count":4,
			"type":"VEC3"
		},
		{
			"bufferView":2,
			"componentType":5126,
			"count":4,
			"type":"VEC2"
		},
		{
			"bufferView":3,
			"componentType":5123,
			"count":6,
			"type":"SCALAR"
		},
		{
			"bufferView":4,
			"componentType":5126,
			"count":56,
			"max":[
				21,
				4,
				14
			],
			"min":[
				-21,
				0,
				-14
			],
			"type":"VEC3"
		},
		{
			"bufferView":5,
			"componentType":5126,
			"count":56,
			"type":"VEC3"
		},
		{
			"bufferView":6,
			"componentType":5126,
			"count":56,
			"type":"VEC2"
		},
		{
			"bufferView":7,
			"componentType":5123,
			"count":156,
			"type":"SCALAR"
		},
		{
			"bufferView":8,
			"componentType":5126,
			"count":16,
			"max":[
				6,
				4,
				6
			],
			"min":[
				-6,
				3.5,
				-6
			],
			"type":"VEC3"
		},
		{
			"bufferView":9,
			"componentType":5126,
			"count":16,
			"type":"VEC3"
		},
		{
			"bufferView":10,
			"componentType":5126,
			"count":16,
			"type":"VEC2"
		},
		{
			"bufferView":11,
			"componentType":5123,
			"count":24,
			"type":"SCALAR"
		},
		{
			"bufferView":12,
			"componentType":5126,
			"count":256,
			"max":[
				21,
				20,
				16
			],
			"min":[
				-21,
				0,
				-16
			],
			"type":"VEC3"
		},
		{
			"bufferView":13,
			"componentType":5126,
			"count":256,
			"type":"VEC3"
		},
		{
			"bufferView":14,
			"componentType":5126,
			"count":256,
			"type":"VEC2"
		},
		{
			"bufferView":15,
			"componentType":5123,
			"count":558,
			"type":"SCALAR"
		},
		{
			"bufferView":16,
			"componentType":5126,
			"count":92,
			"max":[
				16,
				20,
				16
			],
			"min":[
				-16,
				0,
				-16
			],
			"type":"VEC3"
		},
		{
			"bufferView":17,
			"componentType":5126,
			"count":92,
			"type":"VEC3"
		},
		{
			"bufferView":18,
			"componentType":5126,
			"count":92,
			"type":"VEC2"
		},
		{
			"bufferView":19,
			"componentType":5123,
			"count":228,
			"type":"SCALAR"
		},
		{
			"bufferView":20,
			"componentType":5126,
			"count":396,
			"max":[
				35,
				0,
				28
			],
			"min":[
				-35,
				-40,
				-28
			],
			"type":"VEC3"
		},
		{
			"bufferView":21,
			"componentType":5126,
			"count":396,
			"type":"VEC3"
		},
		{
			"bufferView":22,
			"componentType":5126,
			"count":396,
			"type":"VEC2"
		},
		{
			"bufferView":23,
			"componentType":5123,
			"count":906,
			"type":"SCALAR"
		},
		{
			"bufferView":24,
			"componentType":5126,
			"count":16,
			"max":[
				20.5625,
				-16,
				2
			],
			"min":[
				-21.84375,
				-20,
				-2
			],
			"type":"VEC3"
		},
		{
			"bufferView":25,
			"componentType":5126,
			"count":16,
			"type":"VEC3"
		},
		{
			"bufferView":26,
			"componentType":5126,
			"count":16,
			"type":"VEC2"
		},
		{
			"bufferView":27,
			"componentType":5123,
			"count":24,
			"type":"SCALAR"
		},
		{
			"bufferView":28,
			"componentType":5126,
			"count":16,
			"max":[
				20.5625,
				-16,
				1
			],
			"min":[
				-21.84375,
				-20,
				-1
			],
			"type":"VEC3"
		},
		{
			"bufferView":29,
			"componentType":5126,
			"count":16,
			"type":"VEC3"
		},
		{
			"bufferView":30,
			"componentType":5126,
			"count":16,
			"type":"VEC2"
		},
		{
			"bufferView":31,
			"componentType":5123,
			"count":24,
			"type":"SCALAR"
		},
		{
			"bufferView":32,
			"componentType":5126,
			"count":32,
			"max":[
				14,
				5,
				14
			],
			"min":[
				-14,
				4,
				-14
			],
			"type":"VEC3"
		},
		{
			"bufferView":33,
			"componentType":5126,
			"count":32,
			"type":"VEC3"
		},
		{
			"bufferView":34,
			"componentType":5126,
			"count":32,
			"type":"VEC2"
		},
		{
			"bufferView":35,
			"componentType":5123,
			"count":60,
			"type":"SCALAR"
		},
		{
			"bufferView":36,
			"componentType":5126,
			"count":24,
			"max":[
				18,
				-11.5,
				10
			],
			"min":[
				-18,
				-11.5,
				-10
			],
			"type":"VEC3"
		},
		{
			"bufferView":37,
			"componentType":5126,
			"count":24,
			"type":"VEC3"
		},
		{
			"bufferView":38,
			"componentType":5126,
			"count":24,
			"type":"VEC2"
		},
		{
			"bufferView":39,
			"componentType":5123,
			"count":36,
			"type":"SCALAR"
		},
		{
			"bufferView":40,
			"componentType":5126,
			"count":4,
			"max":[
				2,
				17.25,
				2
			],
			"min":[
				-2,
				17.25,
				-2
			],
			"type":"VEC3"
		},
		{
			"bufferView":41,
			"componentType":5126,
			"count":4,
			"type":"VEC3"
		},
		{
			"bufferView":42,
			"componentType":5126,
			"count":4,
			"type":"VEC2"
		},
		{
			"bufferView":43,
			"componentType":5123,
			"count":6,
			"type":"SCALAR"
		},
		{
			"bufferView":44,
			"componentType":5126,
			"count":28,
			"max":[
				35,
				0,
				28
			],
			"min":[
				-35,
				0,
				-28
			],
			"type":"VEC3"
		},
		{
			"bufferView":45,
			"componentType":5126,
			"count":28,
			"type":"VEC3"
		},
		{
			"bufferView":46,
			"componentType":5126,
			"count":28,
			"type":"VEC2"
		},
		{
			"bufferView":47,
			"componentType":5123,
			"count":84,
			"type":"SCALAR"
		}
	],
	"bufferViews":[
		{
			"buffer":0,
			"byteLength":48,
			"byteOffset":0,
			"target":34962
		},
		{
			"buffer":0,
			"byteLength":48,
			"byteOffset":48,
			"target":34962
		},
		{
			"buffer":0,
			"byteLength":32,
			"byteOffset":96,
			"target":34962
		},
		{
			"buffer":0,
			"byteLength":12,
			"byteOffset":128,
			"target":34963
		},
		{
			"buffer":0,
			"byteLength":672,
			"byteOffset":140,
			"target":34962
		},
		{
			"buffer":0,
			"byteLength":672,
			"byteOffset":812,
			"target":34962
		},
		{
			"buffer":0,
			"byteLength":448,
			"byteOffset":1484,
			"target":34962
		},
		{
			"buffer":0,
			"byteLength":312,
			"byteOffset":1932,
			"target":34963
		},
		{
			"buffer":0,
			"byteLength":192,
			"byteOffset":2244,
			"target":34962
		},
		{
			"buffer":0,
			"byteLength":192,
			"byteOffset":2436,
			"target":34962
		},
		{
			"buffer":0,
			"byteLength":128,
			"byteOffset":2628,
			"target":34962
		},
		{
			"buffer":0,
			"byteLength":48,
			"byteOffset":2756,
			"target":34963
		},
		{
			"buffer":0,
			"byteLength":3072,
			"byteOffset":2804,
			"target":34962
		},
		{
			"buffer":0,
			"byteLength":3072,
			"byteOffset":5876,
			"target":34962
		},
		{
			"buffer":0,
			"byteLength":2048,
			"byteOffset":8948,
			"target":34962
		},
		{
			"buffer":0,
			"byteLength":1116,
			"byteOffset":10996,
			"target":34963
		},
		{
			"buffer":0,
			"byteLength":1104,
			"byteOffset":12112,
			"target":34962
		},
		{
			"buffer":0,
			"byteLength":1104,
			"byteOffset":13216,
			"target":34962
		},
		{
			"buffer":0,
			"byteLength":736,
			"byteOffset":14320,
			"target":34962
		},
		{
			"buffer":0,
			"byteLength":456,
			"byteOffset":15056,
			"target":34963
		},
		{
			"buffer":0,
			"byteLength":4752,
			"byteOffset":15512,
			"target":34962
		},
		{
			"buffer":0,
			"byteLength":4752,
			"byteOffset":20264,
			"target":34962
		},
		{
			"buffer":0,
			"byteLength":3168,
			"byteOffset":25016,
			"target":34962
		},
		{
			"buffer":0,
			"byteLength":1812,
			"byteOffset":28184,
			"target":34963
		},
		{
			"buffer":0,
			"byteLength":192,
			"byteOffset":29996,
			"target":34962
		},
		{
			"buffer":0,
			"byteLength":192,
			"byteOffset":30188,
			"target":34962
		},
		{
			"buffer":0,
			"byteLength":128,
			"byteOffset":30380,
			"target":34962
		},
		{
			"buffer":0,
			"byteLength":48,
			"byteOffset":30508,
			"target":34963
		},
		{
			"buffer":0,
			"byteLength":192,
			"byteOffset":30556,
			"target":34962
		},
		{
			"buffer":0,
			"byteLength":192,
			"byteOffset":30748,
			"target":34962
		},
		{
			"buffer":0,
			"byteLength":128,
			"byteOffset":30940,
			"target":34962
		},
		{
			"buffer":0,
			"byteLength":48,
			"byteOffset":31068,
			"target":34963
		},
		{
			"buffer":0,
			"byteLength":384,
			"byteOffset":31116,
			"target":34962
		},
		{
			"buffer":0,
			"byteLength":384,
			"byteOffset":31500,
			"target":34962
		},
		{
			"buffer":0,
			"byteLength":256,
			"byteOffset":31884,
			"target":34962
		},
		{
			"buffer":0,
			"byteLength":120,
			"byteOffset":32140,
			"target":34963
		},
		{
			"buffer":0,
			"byteLength":288,
			"byteOffset":32260,
			"target":34962
		},
		{
			"buffer":0,
			"byteLength":288,
			"byteOffset":32548,
			"target":34962
		},
		{
			"buffer":0,
			"byteLength":192,
			"byteOffset":32836,
			"target":34962
		},
		{
			"buffer":0,
			"byteLength":72,
			"byteOffset":33028,
			"target":34963
		},
		{
			"buffer":0,
			"byteLength":48,
			"byteOffset":33100,
			"target":34962
		},
		{
			"buffer":0,
			"byteLength":48,
			"byteOffset":33148,
			"target":34962
		},
		{
			"buffer":0,
			"byteLength":32,
			"byteOffset":33196,
			"target":34962
		},
		{
			"buffer":0,
			"byteLength":12,
			"byteOffset":33228,
			"target":34963
		},
		{
			"buffer":0,
			"byteLength":336,
			"byteOffset":33240,
			"target":34962
		},
		{
			"buffer":0,
			"byteLength":336,
			"byteOffset":33576,
			"target":34962
		},
		{
			"buffer":0,
			"byteLength":224,
			"byteOffset":33912,
			"target":34962
		},
		{
			"buffer":0,
			"byteLength":168,
			"byteOffset":34136,
			"target":34963
		}
	],
	"buffers":[
		{
			"byteLength":34304,
			"uri":"dbase_neffloat2.bin"
		}
	]
}
