{
	"asset":{
		"generator":"Khronos glTF Blender I/O v4.5.48",
		"version":"2.0"
	},
	"scene":0,
	"scenes":[
		{
			"name":"Scene",
			"nodes":[
				0
			]
		}
	],
	"nodes":[
		{
			"mesh":0,
			"name":"Object"
		}
	],
	"materials":[
		{
			"doubleSided":true,
			"name":"DS_NEFBLUE",
			"pbrMetallicRoughness":{
				"baseColorFactor":[
					0.800000011920929,
					0.800000011920929,
					0.800000011920929,
					1
				],
				"metallicFactor":0,
				"roughnessFactor":0.5
			}
		},
		{
			"doubleSided":true,
			"name":"DS_NEFBLUE2",
			"pbrMetallicRoughness":{
				"baseColorFactor":[
					0.800000011920929,
					0.800000011920929,
					0.800000011920929,
					1
				],
				"metallicFactor":0,
				"roughnessFactor":0.5
			}
		},
		{
			"doubleSided":true,
			"name":"DS_TECHWALL_3",
			"pbrMetallicRoughness":{
				"baseColorFactor":[
					0.800000011920929,
					0.800000011920929,
					0.800000011920929,
					1
				],
				"metallicFactor":0,
				"roughnessFactor":0.5
			}
		},
		{
			"doubleSided":true,
			"name":"DS_NEFFLOOR5",
			"pbrMetallicRoughness":{
				"baseColorFactor":[
					0.800000011920929,
					0.800000011920929,
					0.800000011920929,
					1
				],
				"metallicFactor":0,
				"roughnessFactor":0.5
			}
		},
		{
			"doubleSided":true,
			"name":"DS_NEFWALL1",
			"pbrMetallicRoughness":{
				"baseColorFactor":[
					0.800000011920929,
					0.800000011920929,
					0.800000011920929,
					1
				],
				"metallicFactor":0,
				"roughnessFactor":0.5
			}
		},
		{
			"doubleSided":true,
			"name":"DS_IWALDECO02",
			"pbrMetallicRoughness":{
				"baseColorFactor":[
					0.800000011920929,
					0.800000011920929,
					0.800000011920929,
					1
				],
				"metallicFactor":0,
				"roughnessFactor":0.5
			}
		},
		{
			"doubleSided":true,
			"name":"DS_ILIG05",
			"pbrMetallicRoughness":{
				"baseColorFactor":[
					0.800000011920929,
					0.800000011920929,
					0.800000011920929,
					1
				],
				"metallicFactor":0,
				"roughnessFactor":0.5
			}
		},
		{
			"doubleSided":true,
			"name":"DS_GENWALL",
			"pbrMetallicRoughness":{
				"baseColorFactor":[
					0.800000011920929,
					0.800000011920929,
					0.800000011920929,
					1
				],
				"metallicFactor":0,
				"roughnessFactor":0.5
			}
		},
		{
			"doubleSided":true,
			"name":"DS_ETECHBRDR2",
			"pbrMetallicRoughness":{
				"baseColorFactor":[
					0.800000011920929,
					0.800000011920929,
					0.800000011920929,
					1
				],
				"metallicFactor":0,
				"roughnessFactor":0.5
			}
		}
	],
	"meshes":[
		{
			"name":"Mesh",
			"primitives":[
				{
					"attributes":{
						"POSITION":0,
						"NORMAL":1,
						"TEXCOORD_0":2
					},
					"indices":3,
					"material":0
				},
				{
					"attributes":{
						"POSITION":4,
						"NORMAL":5,
						"TEXCOORD_0":6
					},
					"indices":7,
					"material":1
				},
				{
					"attributes":{
						"POSITION":8,
						"NORMAL":9,
						"TEXCOORD_0":10
					},
					"indices":11,
					"material":2
				},
				{
					"attributes":{
						"POSITION":12,
						"NORMAL":13,
						"TEXCOORD_0":14
					},
					"indices":15,
					"material":3
				},
				{
					"attributes":{
						"POSITION":16,
						"NORMAL":17,
						"TEXCOORD_0":18
					},
					"indices":19,
					"material":4
				},
				{
					"attributes":{
						"POSITION":20,
						"NORMAL":21,
						"TEXCOORD_0":22
					},
					"indices":23,
					"material":5
				},
				{
					"attributes":{
						"POSITION":24,
						"NORMAL":25,
						"TEXCOORD_0":26
					},
					"indices":27,
					"material":6
				},
				{
					"attributes":{
						"POSITION":28,
						"NORMAL":29,
						"TEXCOORD_0":30
					},
					"indices":31,
					"material":7
				},
				{
					"attributes":{
						"POSITION":32,
						"NORMAL":33,
						"TEXCOORD_0":34
					},
					"indices":35,
					"material":8
				}
			]
		}
	],
	"accessors":[
		{
			"bufferView":0,
			"componentType":5126,
			"count":92,
			"max":[
				12,
				31,
				16
			],
			"min":[
				-12,
				-1,
				-12
			],
			"type":"VEC3"
		},
		{
			"bufferView":1,
			"componentType":5126,
			"count":92,
			"type":"VEC3"
		},
		{
			"bufferView":2,
			"componentType":5126,
			"count":92,
			"type":"VEC2"
		},
		{
			"bufferView":3,
			"componentType":5123,
			"count":180,
			"type":"SCALAR"
		},
		{
			"bufferView":4,
			"componentType":5126,
			"count":160,
			"max":[
				20,
				31,
				18
			],
			"min":[
				-20,
				-24,
				-14
			],
			"type":"VEC3"
		},
		{
			"bufferView":5,
			"componentType":5126,
			"count":160,
			"type":"VEC3"
		},
		{
			"bufferView":6,
			"componentType":5126,
			"count":160,
			"type":"VEC2"
		},
		{
			"bufferView":7,
			"componentType":5123,
			"count":504,
			"type":"SCALAR"
		},
		{
			"bufferView":8,
			"componentType":5126,
			"count":40,
			"max":[
				4,
				18,
				6
			],
			"min":[
				-4,
				8,
				-2
			],
			"type":"VEC3"
		},
		{
			"bufferView":9,
			"componentType":5126,
			"count":40,
			"type":"VEC3"
		},
		{
			"bufferView":10,
			"componentType":5126,
			"count":40,
			"type":"VEC2"
		},
		{
			"bufferView":11,
			"componentType":5123,
			"count":96,
			"type":"SCALAR"
		},
		{
			"bufferView":12,
			"componentType":5126,
			"count":36,
			"max":[
				10,
				18,
				16
			],
			"min":[
				-10,
				-1.7492320915720892e-15,
				-12
			],
			"type":"VEC3"
		},
		{
			"bufferView":13,
			"componentType":5126,
			"count":36,
			"type":"VEC3"
		},
		{
			"bufferView":14,
			"componentType":5126,
			"count":36,
			"type":"VEC2"
		},
		{
			"bufferView":15,
			"componentType":5123,
			"count":90,
			"type":"SCALAR"
		},
		{
			"bufferView":16,
			"componentType":5126,
			"count":56,
			"max":[
				10,
				8,
				15
			],
			"min":[
				-10,
				-1.7492320915720892e-15,
				-11
			],
			"type":"VEC3"
		},
		{
			"bufferView":17,
			"componentType":5126,
			"count":56,
			"type":"VEC3"
		},
		{
			"bufferView":18,
			"componentType":5126,
			"count":56,
			"type":"VEC2"
		},
		{
			"bufferView":19,
			"componentType":5123,
			"count":108,
			"type":"SCALAR"
		},
		{
			"bufferView":20,
			"componentType":5126,
			"count":44,
			"max":[
				5,
				9,
				15
			],
			"min":[
				-5,
				-1,
				-11
			],
			"type":"VEC3"
		},
		{
			"bufferView":21,
			"componentType":5126,
			"count":44,
			"type":"VEC3"
		},
		{
			"bufferView":22,
			"componentType":5126,
			"count":44,
			"type":"VEC2"
		},
		{
			"bufferView":23,
			"componentType":5123,
			"count":84,
			"type":"SCALAR"
		},
		{
			"bufferView":24,
			"componentType":5126,
			"count":20,
			"max":[
				10,
				8,
				15
			],
			"min":[
				-10,
				8,
				-11
			],
			"type":"VEC3"
		},
		{
			"bufferView":25,
			"componentType":5126,
			"count":20,
			"type":"VEC3"
		},
		{
			"bufferView":26,
			"componentType":5126,
			"count":20,
			"type":"VEC2"
		},
		{
			"bufferView":27,
			"componentType":5123,
			"count":48,
			"type":"SCALAR"
		},
		{
			"bufferView":28,
			"componentType":5126,
			"count":4,
			"max":[
				20,
				-24,
				18
			],
			"min":[
				-20,
				-24,
				-14
			],
			"type":"VEC3"
		},
		{
			"bufferView":29,
			"componentType":5126,
			"count":4,
			"type":"VEC3"
		},
		{
			"bufferView":30,
			"componentType":5126,
			"count":4,
			"type":"VEC2"
		},
		{
			"bufferView":31,
			"componentType":5123,
			"count":6,
			"type":"SCALAR"
		},
		{
			"bufferView":32,
			"componentType":5126,
			"count":8,
			"max":[
				10.25,
				17,
				16
			],
			"min":[
				-10.25,
				10,
				-12
			],
			"type":"VEC3"
		},
		{
			"bufferView":33,
			"componentType":5126,
			"count":8,
			"type":"VEC3"
		},
		{
			"bufferView":34,
			"componentType":5126,
			"count":8,
			"type":"VEC2"
		},
		{
			"bufferView":35,
			"componentType":5123,
			"count":12,
			"type":"SCALAR"
		}
	],
	"bufferViews":[
		{
			"buffer":0,
			"byteLength":1104,
			"byteOffset":0,
			"target":34962
		},
		{
			"buffer":0,
			"byteLength":1104,
			"byteOffset":1104,
			"target":34962
		},
		{
			"buffer":0,
			"byteLength":736,
			"byteOffset":2208,
			"target":34962
		},
		{
			"buffer":0,
			"byteLength":360,
			"byteOffset":2944,
			"target":34963
		},
		{
			"buffer":0,
			"byteLength":1920,
			"byteOffset":3304,
			"target":34962
		},
		{
			"buffer":0,
			"byteLength":1920,
			"byteOffset":5224,
			"target":34962
		},
		{
			"buffer":0,
			"byteLength":1280,
			"byteOffset":7144,
			"target":34962
		},
		{
			"buffer":0,
			"byteLength":1008,
			"byteOffset":8424,
			"target":34963
		},
		{
			"buffer":0,
			"byteLength":480,
			"byteOffset":9432,
			"target":34962
		},
		{
			"buffer":0,
			"byteLength":480,
			"byteOffset":9912,
			"target":34962
		},
		{
			"buffer":0,
			"byteLength":320,
			"byteOffset":10392,
			"target":34962
		},
		{
			"buffer":0,
			"byteLength":192,
			"byteOffset":10712,
			"target":34963
		},
		{
			"buffer":0,
			"byteLength":432,
			"byteOffset":10904,
			"target":34962
		},
		{
			"buffer":0,
			"byteLength":432,
			"byteOffset":11336,
			"target":34962
		},
		{
			"buffer":0,
			"byteLength":288,
			"byteOffset":11768,
			"target":34962
		},
		{
			"buffer":0,
			"byteLength":180,
			"byteOffset":12056,
			"target":34963
		},
		{
			"buffer":0,
			"byteLength":672,
			"byteOffset":12236,
			"target":34962
		},
		{
			"buffer":0,
			"byteLength":672,
			"byteOffset":12908,
			"target":34962
		},
		{
			"buffer":0,
			"byteLength":448,
			"byteOffset":13580,
			"target":34962
		},
		{
			"buffer":0,
			"byteLength":216,
			"byteOffset":14028,
			"target":34963
		},
		{
			"buffer":0,
			"byteLength":528,
			"byteOffset":14244,
			"target":34962
		},
		{
			"buffer":0,
			"byteLength":528,
			"byteOffset":14772,
			"target":34962
		},
		{
			"buffer":0,
			"byteLength":352,
			"byteOffset":15300,
			"target":34962
		},
		{
			"buffer":0,
			"byteLength":168,
			"byteOffset":15652,
			"target":34963
		},
		{
			"buffer":0,
			"byteLength":240,
			"byteOffset":15820,
			"target":34962
		},
		{
			"buffer":0,
			"byteLength":240,
			"byteOffset":16060,
			"target":34962
		},
		{
			"buffer":0,
			"byteLength":160,
			"byteOffset":16300,
			"target":34962
		},
		{
			"buffer":0,
			"byteLength":96,
			"byteOffset":16460,
			"target":34963
		},
		{
			"buffer":0,
			"byteLength":48,
			"byteOffset":16556,
			"target":34962
		},
		{
			"buffer":0,
			"byteLength":48,
			"byteOffset":16604,
			"target":34962
		},
		{
			"buffer":0,
			"byteLength":32,
			"byteOffset":16652,
			"target":34962
		},
		{
			"buffer":0,
			"byteLength":12,
			"byteOffset":16684,
			"target":34963
		},
		{
			"buffer":0,
			"byteLength":96,
			"byteOffset":16696,
			"target":34962
		},
		{
			"buffer":0,
			"byteLength":96,
			"byteOffset":16792,
			"target":34962
		},
		{
			"buffer":0,
			"byteLength":64,
			"byteOffset":16888,
			"target":34962
		},
		{
			"buffer":0,
			"byteLength":24,
			"byteOffset":16952,
			"target":34963
		}
	],
	"buffers":[
		{
			"byteLength":16976,
			"uri":"dbunk_nefdcbunk.bin"
		}
	]
}
