{
	"asset":{
		"generator":"Khronos glTF Blender I/O v4.5.48",
		"version":"2.0"
	},
	"scene":0,
	"scenes":[
		{
			"name":"Scene",
			"nodes":[
				0
			]
		}
	],
	"nodes":[
		{
			"mesh":0,
			"name":"Object"
		}
	],
	"materials":[
		{
			"doubleSided":true,
			"name":"DS_IFLO03",
			"pbrMetallicRoughness":{
				"baseColorFactor":[
					0.800000011920929,
					0.800000011920929,
					0.800000011920929,
					1
				],
				"metallicFactor":0,
				"roughnessFactor":0.5
			}
		},
		{
			"doubleSided":true,
			"name":"DS_NEFBLUE2",
			"pbrMetallicRoughness":{
				"baseColorFactor":[
					0.800000011920929,
					0.800000011920929,
					0.800000011920929,
					1
				],
				"metallicFactor":0,
				"roughnessFactor":0.5
			}
		},
		{
			"doubleSided":true,
			"name":"DS_NEFBLUE1",
			"pbrMetallicRoughness":{
				"baseColorFactor":[
					0.800000011920929,
					0.800000011920929,
					0.800000011920929,
					1
				],
				"metallicFactor":0,
				"roughnessFactor":0.5
			}
		},
		{
			"doubleSided":true,
			"name":"DS_NEFBLUE",
			"pbrMetallicRoughness":{
				"baseColorFactor":[
					0.800000011920929,
					0.800000011920929,
					0.800000011920929,
					1
				],
				"metallicFactor":0,
				"roughnessFactor":0.5
			}
		},
		{
			"doubleSided":true,
			"name":"DS_ETECHBRDR2",
			"pbrMetallicRoughness":{
				"baseColorFactor":[
					0.800000011920929,
					0.800000011920929,
					0.800000011920929,
					1
				],
				"metallicFactor":0,
				"roughnessFactor":0.5
			}
		},
		{
			"doubleSided":true,
			"name":"DS_NEFFLOOR5",
			"pbrMetallicRoughness":{
				"baseColorFactor":[
					0.800000011920929,
					0.800000011920929,
					0.800000011920929,
					1
				],
				"metallicFactor":0,
				"roughnessFactor":0.5
			}
		},
		{
			"doubleSided":true,
			"name":"DS_EWALDECO01",
			"pbrMetallicRoughness":{
				"baseColorFactor":[
					0.800000011920929,
					0.800000011920929,
					0.800000011920929,
					1
				],
				"metallicFactor":0,
				"roughnessFactor":0.5
			}
		},
		{
			"doubleSided":true,
			"name":"DS_NEFWALL1",
			"pbrMetallicRoughness":{
				"baseColorFactor":[
					0.800000011920929,
					0.800000011920929,
					0.800000011920929,
					1
				],
				"metallicFactor":0,
				"roughnessFactor":0.5
			}
		},
		{
			"doubleSided":true,
			"name":"DS_EFLOOR1",
			"pbrMetallicRoughness":{
				"baseColorFactor":[
					0.800000011920929,
					0.800000011920929,
					0.800000011920929,
					1
				],
				"metallicFactor":0,
				"roughnessFactor":0.5
			}
		},
		{
			"doubleSided":true,
			"name":"DS_ILIG05",
			"pbrMetallicRoughness":{
				"baseColorFactor":[
					0.800000011920929,
					0.800000011920929,
					0.800000011920929,
					1
				],
				"metallicFactor":0,
				"roughnessFactor":0.5
			}
		},
		{
			"doubleSided":true,
			"name":"DS_IWAL01A",
			"pbrMetallicRoughness":{
				"baseColorFactor":[
					0.800000011920929,
					0.800000011920929,
					0.800000011920929,
					1
				],
				"metallicFactor":0,
				"roughnessFactor":0.5
			}
		},
		{
			"doubleSided":true,
			"name":"DS_IWALDECO01A",
			"pbrMetallicRoughness":{
				"baseColorFactor":[
					0.800000011920929,
					0.800000011920929,
					0.800000011920929,
					1
				],
				"metallicFactor":0,
				"roughnessFactor":0.5
			}
		},
		{
			"doubleSided":true,
			"name":"DS_ICHUTE01",
			"pbrMetallicRoughness":{
				"baseColorFactor":[
					0.800000011920929,
					0.800000011920929,
					0.800000011920929,
					1
				],
				"metallicFactor":0,
				"roughnessFactor":0.5
			}
		}
	],
	"meshes":[
		{
			"name":"Mesh",
			"primitives":[
				{
					"attributes":{
						"POSITION":0,
						"NORMAL":1,
						"TEXCOORD_0":2
					},
					"indices":3,
					"material":0
				},
				{
					"attributes":{
						"POSITION":4,
						"NORMAL":5,
						"TEXCOORD_0":6
					},
					"indices":7,
					"material":1
				},
				{
					"attributes":{
						"POSITION":8,
						"NORMAL":9,
						"TEXCOORD_0":10
					},
					"indices":11,
					"material":2
				},
				{
					"attributes":{
						"POSITION":12,
						"NORMAL":13,
						"TEXCOORD_0":14
					},
					"indices":15,
					"material":3
				},
				{
					"attributes":{
						"POSITION":16,
						"NORMAL":17,
						"TEXCOORD_0":18
					},
					"indices":19,
					"material":4
				},
				{
					"attributes":{
						"POSITION":20,
						"NORMAL":21,
						"TEXCOORD_0":22
					},
					"indices":23,
					"material":5
				},
				{
					"attributes":{
						"POSITION":24,
						"NORMAL":25,
						"TEXCOORD_0":26
					},
					"indices":27,
					"material":6
				},
				{
					"attributes":{
						"POSITION":28,
						"NORMAL":29,
						"TEXCOORD_0":30
					},
					"indices":31,
					"material":7
				},
				{
					"attributes":{
						"POSITION":32,
						"NORMAL":33,
						"TEXCOORD_0":34
					},
					"indices":35,
					"material":8
				},
				{
					"attributes":{
						"POSITION":36,
						"NORMAL":37,
						"TEXCOORD_0":38
					},
					"indices":39,
					"material":9
				},
				{
					"attributes":{
						"POSITION":40,
						"NORMAL":41,
						"TEXCOORD_0":42
					},
					"indices":43,
					"material":10
				},
				{
					"attributes":{
						"POSITION":44,
						"NORMAL":45,
						"TEXCOORD_0":46
					},
					"indices":47,
					"material":11
				},
				{
					"attributes":{
						"POSITION":48,
						"NORMAL":49,
						"TEXCOORD_0":50
					},
					"indices":51,
					"material":12
				}
			]
		}
	],
	"accessors":[
		{
			"bufferView":0,
			"componentType":5126,
			"count":8,
			"max":[
				-1.5,
				-6.5,
				4
			],
			"min":[
				-6.5,
				-8.5,
				-4
			],
			"type":"VEC3"
		},
		{
			"bufferView":1,
			"componentType":5126,
			"count":8,
			"type":"VEC3"
		},
		{
			"bufferView":2,
			"componentType":5126,
			"count":8,
			"type":"VEC2"
		},
		{
			"bufferView":3,
			"componentType":5123,
			"count":18,
			"type":"SCALAR"
		},
		{
			"bufferView":4,
			"componentType":5126,
			"count":37,
			"max":[
				-2.5,
				26.5,
				15.5
			],
			"min":[
				-21.5,
				12.5,
				-15.5
			],
			"type":"VEC3"
		},
		{
			"bufferView":5,
			"componentType":5126,
			"count":37,
			"type":"VEC3"
		},
		{
			"bufferView":6,
			"componentType":5126,
			"count":37,
			"type":"VEC2"
		},
		{
			"bufferView":7,
			"componentType":5123,
			"count":69,
			"type":"SCALAR"
		},
		{
			"bufferView":8,
			"componentType":5126,
			"count":216,
			"max":[
				21.96875,
				26.5,
				15.5
			],
			"min":[
				-21.5,
				-28.5,
				-15.5
			],
			"type":"VEC3"
		},
		{
			"bufferView":9,
			"componentType":5126,
			"count":216,
			"type":"VEC3"
		},
		{
			"bufferView":10,
			"componentType":5126,
			"count":216,
			"type":"VEC2"
		},
		{
			"bufferView":11,
			"componentType":5123,
			"count":786,
			"type":"SCALAR"
		},
		{
			"bufferView":12,
			"componentType":5126,
			"count":54,
			"max":[
				-1,
				19,
				2.8162555094449904e-17
			],
			"min":[
				-2.5,
				12.5,
				-9
			],
			"type":"VEC3"
		},
		{
			"bufferView":13,
			"componentType":5126,
			"count":54,
			"type":"VEC3"
		},
		{
			"bufferView":14,
			"componentType":5126,
			"count":54,
			"type":"VEC2"
		},
		{
			"bufferView":15,
			"componentType":5123,
			"count":108,
			"type":"SCALAR"
		},
		{
			"bufferView":16,
			"componentType":5126,
			"count":38,
			"max":[
				-1.5,
				26.5,
				15.5
			],
			"min":[
				-20.5,
				1.5,
				-15.5
			],
			"type":"VEC3"
		},
		{
			"bufferView":17,
			"componentType":5126,
			"count":38,
			"type":"VEC3"
		},
		{
			"bufferView":18,
			"componentType":5126,
			"count":38,
			"type":"VEC2"
		},
		{
			"bufferView":19,
			"componentType":5123,
			"count":75,
			"type":"SCALAR"
		},
		{
			"bufferView":20,
			"componentType":5126,
			"count":55,
			"max":[
				8,
				12.5,
				15.5
			],
			"min":[
				-20,
				-6.5,
				-15.5
			],
			"type":"VEC3"
		},
		{
			"bufferView":21,
			"componentType":5126,
			"count":55,
			"type":"VEC3"
		},
		{
			"bufferView":22,
			"componentType":5126,
			"count":55,
			"type":"VEC2"
		},
		{
			"bufferView":23,
			"componentType":5123,
			"count":159,
			"type":"SCALAR"
		},
		{
			"bufferView":24,
			"componentType":5126,
			"count":110,
			"max":[
				-6,
				1,
				15.5
			],
			"min":[
				-14,
				-7,
				-15.5
			],
			"type":"VEC3"
		},
		{
			"bufferView":25,
			"componentType":5126,
			"count":110,
			"type":"VEC3"
		},
		{
			"bufferView":26,
			"componentType":5126,
			"count":110,
			"type":"VEC2"
		},
		{
			"bufferView":27,
			"componentType":5123,
			"count":222,
			"type":"SCALAR"
		},
		{
			"bufferView":28,
			"componentType":5126,
			"count":68,
			"max":[
				-1.5,
				0.5,
				15
			],
			"min":[
				-18,
				-7,
				-15
			],
			"type":"VEC3"
		},
		{
			"bufferView":29,
			"componentType":5126,
			"count":68,
			"type":"VEC3"
		},
		{
			"bufferView":30,
			"componentType":5126,
			"count":68,
			"type":"VEC2"
		},
		{
			"bufferView":31,
			"componentType":5123,
			"count":156,
			"type":"SCALAR"
		},
		{
			"bufferView":32,
			"componentType":5126,
			"count":10,
			"max":[
				11,
				-8.5,
				11
			],
			"min":[
				-1.5,
				-8.5,
				-11
			],
			"type":"VEC3"
		},
		{
			"bufferView":33,
			"componentType":5126,
			"count":10,
			"type":"VEC3"
		},
		{
			"bufferView":34,
			"componentType":5126,
			"count":10,
			"type":"VEC2"
		},
		{
			"bufferView":35,
			"componentType":5123,
			"count":24,
			"type":"SCALAR"
		},
		{
			"bufferView":36,
			"componentType":5126,
			"count":64,
			"max":[
				11,
				19,
				15
			],
			"min":[
				-18,
				0,
				-15
			],
			"type":"VEC3"
		},
		{
			"bufferView":37,
			"componentType":5126,
			"count":64,
			"type":"VEC3"
		},
		{
			"bufferView":38,
			"componentType":5126,
			"count":64,
			"type":"VEC2"
		},
		{
			"bufferView":39,
			"componentType":5123,
			"count":180,
			"type":"SCALAR"
		},
		{
			"bufferView":40,
			"componentType":5126,
			"count":42,
			"max":[
				11,
				0,
				11
			],
			"min":[
				-1,
				-8.5,
				-11
			],
			"type":"VEC3"
		},
		{
			"bufferView":41,
			"componentType":5126,
			"count":42,
			"type":"VEC3"
		},
		{
			"bufferView":42,
			"componentType":5126,
			"count":42,
			"type":"VEC2"
		},
		{
			"bufferView":43,
			"componentType":5123,
			"count":96,
			"type":"SCALAR"
		},
		{
			"bufferView":44,
			"componentType":5126,
			"count":38,
			"max":[
				-1,
				0,
				4.5
			],
			"min":[
				-1.5,
				-8.5,
				-4.5
			],
			"type":"VEC3"
		},
		{
			"bufferView":45,
			"componentType":5126,
			"count":38,
			"type":"VEC3"
		},
		{
			"bufferView":46,
			"componentType":5126,
			"count":38,
			"type":"VEC2"
		},
		{
			"bufferView":47,
			"componentType":5123,
			"count":84,
			"type":"SCALAR"
		},
		{
			"bufferView":48,
			"componentType":5126,
			"count":54,
			"max":[
				-12,
				12.5,
				15.5
			],
			"min":[
				-21.5,
				0.5,
				-15.5
			],
			"type":"VEC3"
		},
		{
			"bufferView":49,
			"componentType":5126,
			"count":54,
			"type":"VEC3"
		},
		{
			"bufferView":50,
			"componentType":5126,
			"count":54,
			"type":"VEC2"
		},
		{
			"bufferView":51,
			"componentType":5123,
			"count":132,
			"type":"SCALAR"
		}
	],
	"bufferViews":[
		{
			"buffer":0,
			"byteLength":96,
			"byteOffset":0,
			"target":34962
		},
		{
			"buffer":0,
			"byteLength":96,
			"byteOffset":96,
			"target":34962
		},
		{
			"buffer":0,
			"byteLength":64,
			"byteOffset":192,
			"target":34962
		},
		{
			"buffer":0,
			"byteLength":36,
			"byteOffset":256,
			"target":34963
		},
		{
			"buffer":0,
			"byteLength":444,
			"byteOffset":292,
			"target":34962
		},
		{
			"buffer":0,
			"byteLength":444,
			"byteOffset":736,
			"target":34962
		},
		{
			"buffer":0,
			"byteLength":296,
			"byteOffset":1180,
			"target":34962
		},
		{
			"buffer":0,
			"byteLength":138,
			"byteOffset":1476,
			"target":34963
		},
		{
			"buffer":0,
			"byteLength":2592,
			"byteOffset":1616,
			"target":34962
		},
		{
			"buffer":0,
			"byteLength":2592,
			"byteOffset":4208,
			"target":34962
		},
		{
			"buffer":0,
			"byteLength":1728,
			"byteOffset":6800,
			"target":34962
		},
		{
			"buffer":0,
			"byteLength":1572,
			"byteOffset":8528,
			"target":34963
		},
		{
			"buffer":0,
			"byteLength":648,
			"byteOffset":10100,
			"target":34962
		},
		{
			"buffer":0,
			"byteLength":648,
			"byteOffset":10748,
			"target":34962
		},
		{
			"buffer":0,
			"byteLength":432,
			"byteOffset":11396,
			"target":34962
		},
		{
			"buffer":0,
			"byteLength":216,
			"byteOffset":11828,
			"target":34963
		},
		{
			"buffer":0,
			"byteLength":456,
			"byteOffset":12044,
			"target":34962
		},
		{
			"buffer":0,
			"byteLength":456,
			"byteOffset":12500,
			"target":34962
		},
		{
			"buffer":0,
			"byteLength":304,
			"byteOffset":12956,
			"target":34962
		},
		{
			"buffer":0,
			"byteLength":150,
			"byteOffset":13260,
			"target":34963
		},
		{
			"buffer":0,
			"byteLength":660,
			"byteOffset":13412,
			"target":34962
		},
		{
			"buffer":0,
			"byteLength":660,
			"byteOffset":14072,
			"target":34962
		},
		{
			"buffer":0,
			"byteLength":440,
			"byteOffset":14732,
			"target":34962
		},
		{
			"buffer":0,
			"byteLength":318,
			"byteOffset":15172,
			"target":34963
		},
		{
			"buffer":0,
			"byteLength":1320,
			"byteOffset":15492,
			"target":34962
		},
		{
			"buffer":0,
			"byteLength":1320,
			"byteOffset":16812,
			"target":34962
		},
		{
			"buffer":0,
			"byteLength":880,
			"byteOffset":18132,
			"target":34962
		},
		{
			"buffer":0,
			"byteLength":444,
			"byteOffset":19012,
			"target":34963
		},
		{
			"buffer":0,
			"byteLength":816,
			"byteOffset":19456,
			"target":34962
		},
		{
			"buffer":0,
			"byteLength":816,
			"byteOffset":20272,
			"target":34962
		},
		{
			"buffer":0,
			"byteLength":544,
			"byteOffset":21088,
			"target":34962
		},
		{
			"buffer":0,
			"byteLength":312,
			"byteOffset":21632,
			"target":34963
		},
		{
			"buffer":0,
			"byteLength":120,
			"byteOffset":21944,
			"target":34962
		},
		{
			"buffer":0,
			"byteLength":120,
			"byteOffset":22064,
			"target":34962
		},
		{
			"buffer":0,
			"byteLength":80,
			"byteOffset":22184,
			"target":34962
		},
		{
			"buffer":0,
			"byteLength":48,
			"byteOffset":22264,
			"target":34963
		},
		{
			"buffer":0,
			"byteLength":768,
			"byteOffset":22312,
			"target":34962
		},
		{
			"buffer":0,
			"byteLength":768,
			"byteOffset":23080,
			"target":34962
		},
		{
			"buffer":0,
			"byteLength":512,
			"byteOffset":23848,
			"target":34962
		},
		{
			"buffer":0,
			"byteLength":360,
			"byteOffset":24360,
			"target":34963
		},
		{
			"buffer":0,
			"byteLength":504,
			"byteOffset":24720,
			"target":34962
		},
		{
			"buffer":0,
			"byteLength":504,
			"byteOffset":25224,
			"target":34962
		},
		{
			"buffer":0,
			"byteLength":336,
			"byteOffset":25728,
			"target":34962
		},
		{
			"buffer":0,
			"byteLength":192,
			"byteOffset":26064,
			"target":34963
		},
		{
			"buffer":0,
			"byteLength":456,
			"byteOffset":26256,
			"target":34962
		},
		{
			"buffer":0,
			"byteLength":456,
			"byteOffset":26712,
			"target":34962
		},
		{
			"buffer":0,
			"byteLength":304,
			"byteOffset":27168,
			"target":34962
		},
		{
			"buffer":0,
			"byteLength":168,
			"byteOffset":27472,
			"target":34963
		},
		{
			"buffer":0,
			"byteLength":648,
			"byteOffset":27640,
			"target":34962
		},
		{
			"buffer":0,
			"byteLength":648,
			"byteOffset":28288,
			"target":34962
		},
		{
			"buffer":0,
			"byteLength":432,
			"byteOffset":28936,
			"target":34962
		},
		{
			"buffer":0,
			"byteLength":264,
			"byteOffset":29368,
			"target":34963
		}
	],
	"buffers":[
		{
			"byteLength":29632,
			"uri":"dbunk_snowblind.bin"
		}
	]
}
