{
	"asset":{
		"generator":"Khronos glTF Blender I/O v4.5.48",
		"version":"2.0"
	},
	"scene":0,
	"scenes":[
		{
			"name":"Scene",
			"nodes":[
				0
			]
		}
	],
	"nodes":[
		{
			"mesh":0,
			"name":"Object"
		}
	],
	"materials":[
		{
			"doubleSided":true,
			"name":"DS_NEFFLOOR5",
			"pbrMetallicRoughness":{
				"baseColorFactor":[
					0.800000011920929,
					0.800000011920929,
					0.800000011920929,
					1
				],
				"metallicFactor":0,
				"roughnessFactor":0.5
			}
		},
		{
			"doubleSided":true,
			"name":"DS_NEFBLUE",
			"pbrMetallicRoughness":{
				"baseColorFactor":[
					0.800000011920929,
					0.800000011920929,
					0.800000011920929,
					1
				],
				"metallicFactor":0,
				"roughnessFactor":0.5
			}
		},
		{
			"doubleSided":true,
			"name":"DS_NEFBLUE1",
			"pbrMetallicRoughness":{
				"baseColorFactor":[
					0.800000011920929,
					0.800000011920929,
					0.800000011920929,
					1
				],
				"metallicFactor":0,
				"roughnessFactor":0.5
			}
		},
		{
			"doubleSided":true,
			"name":"DS_IWAL01",
			"pbrMetallicRoughness":{
				"baseColorFactor":[
					0.800000011920929,
					0.800000011920929,
					0.800000011920929,
					1
				],
				"metallicFactor":0,
				"roughnessFactor":0.5
			}
		},
		{
			"doubleSided":true,
			"name":"DS_TECHBORDER2",
			"pbrMetallicRoughness":{
				"baseColorFactor":[
					0.800000011920929,
					0.800000011920929,
					0.800000011920929,
					1
				],
				"metallicFactor":0,
				"roughnessFactor":0.5
			}
		},
		{
			"doubleSided":true,
			"name":"DS_GENWALL",
			"pbrMetallicRoughness":{
				"baseColorFactor":[
					0.800000011920929,
					0.800000011920929,
					0.800000011920929,
					1
				],
				"metallicFactor":0,
				"roughnessFactor":0.5
			}
		},
		{
			"doubleSided":true,
			"name":"DS_NEFWALL1",
			"pbrMetallicRoughness":{
				"baseColorFactor":[
					0.800000011920929,
					0.800000011920929,
					0.800000011920929,
					1
				],
				"metallicFactor":0,
				"roughnessFactor":0.5
			}
		},
		{
			"doubleSided":true,
			"name":"DS_ILIG05",
			"pbrMetallicRoughness":{
				"baseColorFactor":[
					0.800000011920929,
					0.800000011920929,
					0.800000011920929,
					1
				],
				"metallicFactor":0,
				"roughnessFactor":0.5
			}
		}
	],
	"meshes":[
		{
			"name":"Mesh",
			"primitives":[
				{
					"attributes":{
						"POSITION":0,
						"NORMAL":1,
						"TEXCOORD_0":2
					},
					"indices":3,
					"material":0
				},
				{
					"attributes":{
						"POSITION":4,
						"NORMAL":5,
						"TEXCOORD_0":6
					},
					"indices":7,
					"material":1
				},
				{
					"attributes":{
						"POSITION":8,
						"NORMAL":9,
						"TEXCOORD_0":10
					},
					"indices":11,
					"material":2
				},
				{
					"attributes":{
						"POSITION":12,
						"NORMAL":13,
						"TEXCOORD_0":14
					},
					"indices":15,
					"material":3
				},
				{
					"attributes":{
						"POSITION":16,
						"NORMAL":17,
						"TEXCOORD_0":18
					},
					"indices":19,
					"material":4
				},
				{
					"attributes":{
						"POSITION":20,
						"NORMAL":21,
						"TEXCOORD_0":22
					},
					"indices":23,
					"material":5
				},
				{
					"attributes":{
						"POSITION":24,
						"NORMAL":25,
						"TEXCOORD_0":26
					},
					"indices":27,
					"material":6
				},
				{
					"attributes":{
						"POSITION":28,
						"NORMAL":29,
						"TEXCOORD_0":30
					},
					"indices":31,
					"material":7
				}
			]
		}
	],
	"accessors":[
		{
			"bufferView":0,
			"componentType":5126,
			"count":14,
			"max":[
				28,
				-6,
				9
			],
			"min":[
				13,
				-8,
				1
			],
			"type":"VEC3"
		},
		{
			"bufferView":1,
			"componentType":5126,
			"count":14,
			"type":"VEC3"
		},
		{
			"bufferView":2,
			"componentType":5126,
			"count":14,
			"type":"VEC2"
		},
		{
			"bufferView":3,
			"componentType":5123,
			"count":30,
			"type":"SCALAR"
		},
		{
			"bufferView":4,
			"componentType":5126,
			"count":80,
			"max":[
				28,
				-0.125,
				16
			],
			"min":[
				6,
				-8,
				-6
			],
			"type":"VEC3"
		},
		{
			"bufferView":5,
			"componentType":5126,
			"count":80,
			"type":"VEC3"
		},
		{
			"bufferView":6,
			"componentType":5126,
			"count":80,
			"type":"VEC2"
		},
		{
			"bufferView":7,
			"componentType":5123,
			"count":186,
			"type":"SCALAR"
		},
		{
			"bufferView":8,
			"componentType":5126,
			"count":30,
			"max":[
				28,
				3.5,
				16
			],
			"min":[
				6,
				-8,
				-6
			],
			"type":"VEC3"
		},
		{
			"bufferView":9,
			"componentType":5126,
			"count":30,
			"type":"VEC3"
		},
		{
			"bufferView":10,
			"componentType":5126,
			"count":30,
			"type":"VEC2"
		},
		{
			"bufferView":11,
			"componentType":5123,
			"count":54,
			"type":"SCALAR"
		},
		{
			"bufferView":12,
			"componentType":5126,
			"count":22,
			"max":[
				23,
				-5,
				10
			],
			"min":[
				12,
				-5,
				-4.825179299966877e-16
			],
			"type":"VEC3"
		},
		{
			"bufferView":13,
			"componentType":5126,
			"count":22,
			"type":"VEC3"
		},
		{
			"bufferView":14,
			"componentType":5126,
			"count":22,
			"type":"VEC2"
		},
		{
			"bufferView":15,
			"componentType":5123,
			"count":66,
			"type":"SCALAR"
		},
		{
			"bufferView":16,
			"componentType":5126,
			"count":20,
			"max":[
				21,
				-5,
				9
			],
			"min":[
				13,
				-6,
				1
			],
			"type":"VEC3"
		},
		{
			"bufferView":17,
			"componentType":5126,
			"count":20,
			"type":"VEC3"
		},
		{
			"bufferView":18,
			"componentType":5126,
			"count":20,
			"type":"VEC2"
		},
		{
			"bufferView":19,
			"componentType":5123,
			"count":30,
			"type":"SCALAR"
		},
		{
			"bufferView":20,
			"componentType":5126,
			"count":20,
			"max":[
				22,
				-0.125,
				8
			],
			"min":[
				14,
				-6,
				2
			],
			"type":"VEC3"
		},
		{
			"bufferView":21,
			"componentType":5126,
			"count":20,
			"type":"VEC3"
		},
		{
			"bufferView":22,
			"componentType":5126,
			"count":20,
			"type":"VEC2"
		},
		{
			"bufferView":23,
			"componentType":5123,
			"count":48,
			"type":"SCALAR"
		},
		{
			"bufferView":24,
			"componentType":5126,
			"count":44,
			"max":[
				27,
				3.5,
				15
			],
			"min":[
				7,
				-1,
				-5
			],
			"type":"VEC3"
		},
		{
			"bufferView":25,
			"componentType":5126,
			"count":44,
			"type":"VEC3"
		},
		{
			"bufferView":26,
			"componentType":5126,
			"count":44,
			"type":"VEC2"
		},
		{
			"bufferView":27,
			"componentType":5123,
			"count":84,
			"type":"SCALAR"
		},
		{
			"bufferView":28,
			"componentType":5126,
			"count":4,
			"max":[
				18,
				-0.125,
				6
			],
			"min":[
				16,
				-0.125,
				4
			],
			"type":"VEC3"
		},
		{
			"bufferView":29,
			"componentType":5126,
			"count":4,
			"type":"VEC3"
		},
		{
			"bufferView":30,
			"componentType":5126,
			"count":4,
			"type":"VEC2"
		},
		{
			"bufferView":31,
			"componentType":5123,
			"count":6,
			"type":"SCALAR"
		}
	],
	"bufferViews":[
		{
			"buffer":0,
			"byteLength":168,
			"byteOffset":0,
			"target":34962
		},
		{
			"buffer":0,
			"byteLength":168,
			"byteOffset":168,
			"target":34962
		},
		{
			"buffer":0,
			"byteLength":112,
			"byteOffset":336,
			"target":34962
		},
		{
			"buffer":0,
			"byteLength":60,
			"byteOffset":448,
			"target":34963
		},
		{
			"buffer":0,
			"byteLength":960,
			"byteOffset":508,
			"target":34962
		},
		{
			"buffer":0,
			"byteLength":960,
			"byteOffset":1468,
			"target":34962
		},
		{
			"buffer":0,
			"byteLength":640,
			"byteOffset":2428,
			"target":34962
		},
		{
			"buffer":0,
			"byteLength":372,
			"byteOffset":3068,
			"target":34963
		},
		{
			"buffer":0,
			"byteLength":360,
			"byteOffset":3440,
			"target":34962
		},
		{
			"buffer":0,
			"byteLength":360,
			"byteOffset":3800,
			"target":34962
		},
		{
			"buffer":0,
			"byteLength":240,
			"byteOffset":4160,
			"target":34962
		},
		{
			"buffer":0,
			"byteLength":108,
			"byteOffset":4400,
			"target":34963
		},
		{
			"buffer":0,
			"byteLength":264,
			"byteOffset":4508,
			"target":34962
		},
		{
			"buffer":0,
			"byteLength":264,
			"byteOffset":4772,
			"target":34962
		},
		{
			"buffer":0,
			"byteLength":176,
			"byteOffset":5036,
			"target":34962
		},
		{
			"buffer":0,
			"byteLength":132,
			"byteOffset":5212,
			"target":34963
		},
		{
			"buffer":0,
			"byteLength":240,
			"byteOffset":5344,
			"target":34962
		},
		{
			"buffer":0,
			"byteLength":240,
			"byteOffset":5584,
			"target":34962
		},
		{
			"buffer":0,
			"byteLength":160,
			"byteOffset":5824,
			"target":34962
		},
		{
			"buffer":0,
			"byteLength":60,
			"byteOffset":5984,
			"target":34963
		},
		{
			"buffer":0,
			"byteLength":240,
			"byteOffset":6044,
			"target":34962
		},
		{
			"buffer":0,
			"byteLength":240,
			"byteOffset":6284,
			"target":34962
		},
		{
			"buffer":0,
			"byteLength":160,
			"byteOffset":6524,
			"target":34962
		},
		{
			"buffer":0,
			"byteLength":96,
			"byteOffset":6684,
			"target":34963
		},
		{
			"buffer":0,
			"byteLength":528,
			"byteOffset":6780,
			"target":34962
		},
		{
			"buffer":0,
			"byteLength":528,
			"byteOffset":7308,
			"target":34962
		},
		{
			"buffer":0,
			"byteLength":352,
			"byteOffset":7836,
			"target":34962
		},
		{
			"buffer":0,
			"byteLength":168,
			"byteOffset":8188,
			"target":34963
		},
		{
			"buffer":0,
			"byteLength":48,
			"byteOffset":8356,
			"target":34962
		},
		{
			"buffer":0,
			"byteLength":48,
			"byteOffset":8404,
			"target":34962
		},
		{
			"buffer":0,
			"byteLength":32,
			"byteOffset":8452,
			"target":34962
		},
		{
			"buffer":0,
			"byteLength":12,
			"byteOffset":8484,
			"target":34963
		}
	],
	"buffers":[
		{
			"byteLength":8496,
			"uri":"dbunk_nefsmall.bin"
		}
	]
}
