{
	"asset":{
		"generator":"Khronos glTF Blender I/O v4.5.48",
		"version":"2.0"
	},
	"scene":0,
	"scenes":[
		{
			"name":"Scene",
			"nodes":[
				0
			]
		}
	],
	"nodes":[
		{
			"mesh":0,
			"name":"Object"
		}
	],
	"materials":[
		{
			"doubleSided":true,
			"name":"DS_EWALL07",
			"pbrMetallicRoughness":{
				"baseColorFactor":[
					0.800000011920929,
					0.800000011920929,
					0.800000011920929,
					1
				],
				"metallicFactor":0,
				"roughnessFactor":0.5
			}
		},
		{
			"doubleSided":true,
			"name":"DS_IWAL01",
			"pbrMetallicRoughness":{
				"baseColorFactor":[
					0.800000011920929,
					0.800000011920929,
					0.800000011920929,
					1
				],
				"metallicFactor":0,
				"roughnessFactor":0.5
			}
		},
		{
			"doubleSided":true,
			"name":"DS_NEFBLUE2",
			"pbrMetallicRoughness":{
				"baseColorFactor":[
					0.800000011920929,
					0.800000011920929,
					0.800000011920929,
					1
				],
				"metallicFactor":0,
				"roughnessFactor":0.5
			}
		},
		{
			"doubleSided":true,
			"name":"DS_EWALL06",
			"pbrMetallicRoughness":{
				"baseColorFactor":[
					0.800000011920929,
					0.800000011920929,
					0.800000011920929,
					1
				],
				"metallicFactor":0,
				"roughnessFactor":0.5
			}
		},
		{
			"doubleSided":true,
			"name":"DS_ILIG06",
			"pbrMetallicRoughness":{
				"baseColorFactor":[
					0.800000011920929,
					0.800000011920929,
					0.800000011920929,
					1
				],
				"metallicFactor":0,
				"roughnessFactor":0.5
			}
		},
		{
			"doubleSided":true,
			"name":"DS_ILIG03",
			"pbrMetallicRoughness":{
				"baseColorFactor":[
					0.800000011920929,
					0.800000011920929,
					0.800000011920929,
					1
				],
				"metallicFactor":0,
				"roughnessFactor":0.5
			}
		},
		{
			"doubleSided":true,
			"name":"DS_NEFBLUE3",
			"pbrMetallicRoughness":{
				"baseColorFactor":[
					0.800000011920929,
					0.800000011920929,
					0.800000011920929,
					1
				],
				"metallicFactor":0,
				"roughnessFactor":0.5
			}
		},
		{
			"doubleSided":true,
			"name":"DS_NEFBLUE1",
			"pbrMetallicRoughness":{
				"baseColorFactor":[
					0.800000011920929,
					0.800000011920929,
					0.800000011920929,
					1
				],
				"metallicFactor":0,
				"roughnessFactor":0.5
			}
		},
		{
			"doubleSided":true,
			"name":"DS_NEFWALL1",
			"pbrMetallicRoughness":{
				"baseColorFactor":[
					0.800000011920929,
					0.800000011920929,
					0.800000011920929,
					1
				],
				"metallicFactor":0,
				"roughnessFactor":0.5
			}
		},
		{
			"doubleSided":true,
			"name":"DS_ICHUTE02",
			"pbrMetallicRoughness":{
				"baseColorFactor":[
					0.800000011920929,
					0.800000011920929,
					0.800000011920929,
					1
				],
				"metallicFactor":0,
				"roughnessFactor":0.5
			}
		},
		{
			"doubleSided":true,
			"name":"DS_EWAL02",
			"pbrMetallicRoughness":{
				"baseColorFactor":[
					0.800000011920929,
					0.800000011920929,
					0.800000011920929,
					1
				],
				"metallicFactor":0,
				"roughnessFactor":0.5
			}
		},
		{
			"doubleSided":true,
			"name":"DS_EFLOOR1",
			"pbrMetallicRoughness":{
				"baseColorFactor":[
					0.800000011920929,
					0.800000011920929,
					0.800000011920929,
					1
				],
				"metallicFactor":0,
				"roughnessFactor":0.5
			}
		},
		{
			"doubleSided":true,
			"name":"DS_ILIG05",
			"pbrMetallicRoughness":{
				"baseColorFactor":[
					0.800000011920929,
					0.800000011920929,
					0.800000011920929,
					1
				],
				"metallicFactor":0,
				"roughnessFactor":0.5
			}
		},
		{
			"doubleSided":true,
			"name":"DS_NEFFLOOR5",
			"pbrMetallicRoughness":{
				"baseColorFactor":[
					0.800000011920929,
					0.800000011920929,
					0.800000011920929,
					1
				],
				"metallicFactor":0,
				"roughnessFactor":0.5
			}
		},
		{
			"doubleSided":true,
			"name":"DS_ILAVLIGHT",
			"pbrMetallicRoughness":{
				"baseColorFactor":[
					0.800000011920929,
					0.800000011920929,
					0.800000011920929,
					1
				],
				"metallicFactor":0,
				"roughnessFactor":0.5
			}
		},
		{
			"doubleSided":true,
			"name":"DS_ETECHBRDR2",
			"pbrMetallicRoughness":{
				"baseColorFactor":[
					0.800000011920929,
					0.800000011920929,
					0.800000011920929,
					1
				],
				"metallicFactor":0,
				"roughnessFactor":0.5
			}
		},
		{
			"doubleSided":true,
			"name":"DS_ICHUTE01",
			"pbrMetallicRoughness":{
				"baseColorFactor":[
					0.800000011920929,
					0.800000011920929,
					0.800000011920929,
					1
				],
				"metallicFactor":0,
				"roughnessFactor":0.5
			}
		},
		{
			"doubleSided":true,
			"name":"DS_ALARM",
			"pbrMetallicRoughness":{
				"baseColorFactor":[
					0.800000011920929,
					0.800000011920929,
					0.800000011920929,
					1
				],
				"metallicFactor":0,
				"roughnessFactor":0.5
			}
		}
	],
	"meshes":[
		{
			"name":"Mesh",
			"primitives":[
				{
					"attributes":{
						"POSITION":0,
						"NORMAL":1,
						"TEXCOORD_0":2
					},
					"indices":3,
					"material":0
				},
				{
					"attributes":{
						"POSITION":4,
						"NORMAL":5,
						"TEXCOORD_0":6
					},
					"indices":7,
					"material":1
				},
				{
					"attributes":{
						"POSITION":8,
						"NORMAL":9,
						"TEXCOORD_0":10
					},
					"indices":11,
					"material":2
				},
				{
					"attributes":{
						"POSITION":12,
						"NORMAL":13,
						"TEXCOORD_0":14
					},
					"indices":15,
					"material":3
				},
				{
					"attributes":{
						"POSITION":16,
						"NORMAL":17,
						"TEXCOORD_0":18
					},
					"indices":19,
					"material":4
				},
				{
					"attributes":{
						"POSITION":20,
						"NORMAL":21,
						"TEXCOORD_0":22
					},
					"indices":23,
					"material":5
				},
				{
					"attributes":{
						"POSITION":24,
						"NORMAL":25,
						"TEXCOORD_0":26
					},
					"indices":27,
					"material":6
				},
				{
					"attributes":{
						"POSITION":28,
						"NORMAL":29,
						"TEXCOORD_0":30
					},
					"indices":31,
					"material":7
				},
				{
					"attributes":{
						"POSITION":32,
						"NORMAL":33,
						"TEXCOORD_0":34
					},
					"indices":35,
					"material":8
				},
				{
					"attributes":{
						"POSITION":36,
						"NORMAL":37,
						"TEXCOORD_0":38
					},
					"indices":39,
					"material":9
				},
				{
					"attributes":{
						"POSITION":40,
						"NORMAL":41,
						"TEXCOORD_0":42
					},
					"indices":43,
					"material":10
				},
				{
					"attributes":{
						"POSITION":44,
						"NORMAL":45,
						"TEXCOORD_0":46
					},
					"indices":47,
					"material":11
				},
				{
					"attributes":{
						"POSITION":48,
						"NORMAL":49,
						"TEXCOORD_0":50
					},
					"indices":51,
					"material":12
				},
				{
					"attributes":{
						"POSITION":52,
						"NORMAL":53,
						"TEXCOORD_0":54
					},
					"indices":55,
					"material":13
				},
				{
					"attributes":{
						"POSITION":56,
						"NORMAL":57,
						"TEXCOORD_0":58
					},
					"indices":59,
					"material":14
				},
				{
					"attributes":{
						"POSITION":60,
						"NORMAL":61,
						"TEXCOORD_0":62
					},
					"indices":63,
					"material":15
				},
				{
					"attributes":{
						"POSITION":64,
						"NORMAL":65,
						"TEXCOORD_0":66
					},
					"indices":67,
					"material":16
				},
				{
					"attributes":{
						"POSITION":68,
						"NORMAL":69,
						"TEXCOORD_0":70
					},
					"indices":71,
					"material":17
				}
			]
		}
	],
	"accessors":[
		{
			"bufferView":0,
			"componentType":5126,
			"count":289,
			"max":[
				12,
				36,
				48
			],
			"min":[
				-16,
				4,
				21
			],
			"type":"VEC3"
		},
		{
			"bufferView":1,
			"componentType":5126,
			"count":289,
			"type":"VEC3"
		},
		{
			"bufferView":2,
			"componentType":5126,
			"count":289,
			"type":"VEC2"
		},
		{
			"bufferView":3,
			"componentType":5123,
			"count":756,
			"type":"SCALAR"
		},
		{
			"bufferView":4,
			"componentType":5126,
			"count":225,
			"max":[
				12.25,
				36,
				48
			],
			"min":[
				-16,
				18,
				20.75
			],
			"type":"VEC3"
		},
		{
			"bufferView":5,
			"componentType":5126,
			"count":225,
			"type":"VEC3"
		},
		{
			"bufferView":6,
			"componentType":5126,
			"count":225,
			"type":"VEC2"
		},
		{
			"bufferView":7,
			"componentType":5123,
			"count":501,
			"type":"SCALAR"
		},
		{
			"bufferView":8,
			"componentType":5126,
			"count":126,
			"max":[
				30,
				37,
				51.5
			],
			"min":[
				-34,
				-4,
				18.5
			],
			"type":"VEC3"
		},
		{
			"bufferView":9,
			"componentType":5126,
			"count":126,
			"type":"VEC3"
		},
		{
			"bufferView":10,
			"componentType":5126,
			"count":126,
			"type":"VEC2"
		},
		{
			"bufferView":11,
			"componentType":5123,
			"count":240,
			"type":"SCALAR"
		},
		{
			"bufferView":12,
			"componentType":5126,
			"count":67,
			"max":[
				9.5,
				36,
				48
			],
			"min":[
				-15,
				29.5,
				23.5
			],
			"type":"VEC3"
		},
		{
			"bufferView":13,
			"componentType":5126,
			"count":67,
			"type":"VEC3"
		},
		{
			"bufferView":14,
			"componentType":5126,
			"count":67,
			"type":"VEC2"
		},
		{
			"bufferView":15,
			"componentType":5123,
			"count":114,
			"type":"SCALAR"
		},
		{
			"bufferView":16,
			"componentType":5126,
			"count":32,
			"max":[
				12.25,
				34.25,
				42.375
			],
			"min":[
				-8.5,
				29.75,
				20.75
			],
			"type":"VEC3"
		},
		{
			"bufferView":17,
			"componentType":5126,
			"count":32,
			"type":"VEC3"
		},
		{
			"bufferView":18,
			"componentType":5126,
			"count":32,
			"type":"VEC2"
		},
		{
			"bufferView":19,
			"componentType":5123,
			"count":54,
			"type":"SCALAR"
		},
		{
			"bufferView":20,
			"componentType":5126,
			"count":8,
			"max":[
				9.5,
				36,
				45
			],
			"min":[
				-13.5,
				36,
				43.5
			],
			"type":"VEC3"
		},
		{
			"bufferView":21,
			"componentType":5126,
			"count":8,
			"type":"VEC3"
		},
		{
			"bufferView":22,
			"componentType":5126,
			"count":8,
			"type":"VEC2"
		},
		{
			"bufferView":23,
			"componentType":5123,
			"count":12,
			"type":"SCALAR"
		},
		{
			"bufferView":24,
			"componentType":5126,
			"count":12,
			"max":[
				26,
				18,
				45
			],
			"min":[
				-30,
				-4,
				25
			],
			"type":"VEC3"
		},
		{
			"bufferView":25,
			"componentType":5126,
			"count":12,
			"type":"VEC3"
		},
		{
			"bufferView":26,
			"componentType":5126,
			"count":12,
			"type":"VEC2"
		},
		{
			"bufferView":27,
			"componentType":5123,
			"count":24,
			"type":"SCALAR"
		},
		{
			"bufferView":28,
			"componentType":5126,
			"count":164,
			"max":[
				30,
				37,
				51.5
			],
			"min":[
				-34,
				-4,
				18.5
			],
			"type":"VEC3"
		},
		{
			"bufferView":29,
			"componentType":5126,
			"count":164,
			"type":"VEC3"
		},
		{
			"bufferView":30,
			"componentType":5126,
			"count":164,
			"type":"VEC2"
		},
		{
			"bufferView":31,
			"componentType":5123,
			"count":330,
			"type":"SCALAR"
		},
		{
			"bufferView":32,
			"componentType":5126,
			"count":24,
			"max":[
				13,
				26,
				50
			],
			"min":[
				-17,
				4,
				20
			],
			"type":"VEC3"
		},
		{
			"bufferView":33,
			"componentType":5126,
			"count":24,
			"type":"VEC3"
		},
		{
			"bufferView":34,
			"componentType":5126,
			"count":24,
			"type":"VEC2"
		},
		{
			"bufferView":35,
			"componentType":5123,
			"count":75,
			"type":"SCALAR"
		},
		{
			"bufferView":36,
			"componentType":5126,
			"count":40,
			"max":[
				0.75,
				34,
				47
			],
			"min":[
				-4.75,
				18,
				42
			],
			"type":"VEC3"
		},
		{
			"bufferView":37,
			"componentType":5126,
			"count":40,
			"type":"VEC3"
		},
		{
			"bufferView":38,
			"componentType":5126,
			"count":40,
			"type":"VEC2"
		},
		{
			"bufferView":39,
			"componentType":5123,
			"count":60,
			"type":"SCALAR"
		},
		{
			"bufferView":40,
			"componentType":5126,
			"count":32,
			"max":[
				12,
				26,
				42
			],
			"min":[
				-16,
				18,
				28
			],
			"type":"VEC3"
		},
		{
			"bufferView":41,
			"componentType":5126,
			"count":32,
			"type":"VEC3"
		},
		{
			"bufferView":42,
			"componentType":5126,
			"count":32,
			"type":"VEC2"
		},
		{
			"bufferView":43,
			"componentType":5123,
			"count":54,
			"type":"SCALAR"
		},
		{
			"bufferView":44,
			"componentType":5126,
			"count":27,
			"max":[
				12,
				28,
				48
			],
			"min":[
				-16,
				28,
				21
			],
			"type":"VEC3"
		},
		{
			"bufferView":45,
			"componentType":5126,
			"count":27,
			"type":"VEC3"
		},
		{
			"bufferView":46,
			"componentType":5126,
			"count":27,
			"type":"VEC2"
		},
		{
			"bufferView":47,
			"componentType":5123,
			"count":75,
			"type":"SCALAR"
		},
		{
			"bufferView":48,
			"componentType":5126,
			"count":51,
			"max":[
				13,
				26,
				50
			],
			"min":[
				-17,
				4,
				20
			],
			"type":"VEC3"
		},
		{
			"bufferView":49,
			"componentType":5126,
			"count":51,
			"type":"VEC3"
		},
		{
			"bufferView":50,
			"componentType":5126,
			"count":51,
			"type":"VEC2"
		},
		{
			"bufferView":51,
			"componentType":5123,
			"count":129,
			"type":"SCALAR"
		},
		{
			"bufferView":52,
			"componentType":5126,
			"count":28,
			"max":[
				13,
				18,
				43
			],
			"min":[
				-17,
				18,
				28
			],
			"type":"VEC3"
		},
		{
			"bufferView":53,
			"componentType":5126,
			"count":28,
			"type":"VEC3"
		},
		{
			"bufferView":54,
			"componentType":5126,
			"count":28,
			"type":"VEC2"
		},
		{
			"bufferView":55,
			"componentType":5123,
			"count":78,
			"type":"SCALAR"
		},
		{
			"bufferView":56,
			"componentType":5126,
			"count":86,
			"max":[
				2,
				34,
				47
			],
			"min":[
				-6,
				18,
				42
			],
			"type":"VEC3"
		},
		{
			"bufferView":57,
			"componentType":5126,
			"count":86,
			"type":"VEC3"
		},
		{
			"bufferView":58,
			"componentType":5126,
			"count":86,
			"type":"VEC2"
		},
		{
			"bufferView":59,
			"componentType":5123,
			"count":138,
			"type":"SCALAR"
		},
		{
			"bufferView":60,
			"componentType":5126,
			"count":24,
			"max":[
				13.25,
				34,
				51.25
			],
			"min":[
				-17.25,
				30,
				18.75
			],
			"type":"VEC3"
		},
		{
			"bufferView":61,
			"componentType":5126,
			"count":24,
			"type":"VEC3"
		},
		{
			"bufferView":62,
			"componentType":5126,
			"count":24,
			"type":"VEC2"
		},
		{
			"bufferView":63,
			"componentType":5123,
			"count":48,
			"type":"SCALAR"
		},
		{
			"bufferView":64,
			"componentType":5126,
			"count":56,
			"max":[
				13.5,
				34,
				51.5
			],
			"min":[
				-17.5,
				30,
				18.5
			],
			"type":"VEC3"
		},
		{
			"bufferView":65,
			"componentType":5126,
			"count":56,
			"type":"VEC3"
		},
		{
			"bufferView":66,
			"componentType":5126,
			"count":56,
			"type":"VEC2"
		},
		{
			"bufferView":67,
			"componentType":5123,
			"count":120,
			"type":"SCALAR"
		},
		{
			"bufferView":68,
			"componentType":5126,
			"count":12,
			"max":[
				9.5,
				36,
				48
			],
			"min":[
				-15,
				35.375,
				23.5
			],
			"type":"VEC3"
		},
		{
			"bufferView":69,
			"componentType":5126,
			"count":12,
			"type":"VEC3"
		},
		{
			"bufferView":70,
			"componentType":5126,
			"count":12,
			"type":"VEC2"
		},
		{
			"bufferView":71,
			"componentType":5123,
			"count":18,
			"type":"SCALAR"
		}
	],
	"bufferViews":[
		{
			"buffer":0,
			"byteLength":3468,
			"byteOffset":0,
			"target":34962
		},
		{
			"buffer":0,
			"byteLength":3468,
			"byteOffset":3468,
			"target":34962
		},
		{
			"buffer":0,
			"byteLength":2312,
			"byteOffset":6936,
			"target":34962
		},
		{
			"buffer":0,
			"byteLength":1512,
			"byteOffset":9248,
			"target":34963
		},
		{
			"buffer":0,
			"byteLength":2700,
			"byteOffset":10760,
			"target":34962
		},
		{
			"buffer":0,
			"byteLength":2700,
			"byteOffset":13460,
			"target":34962
		},
		{
			"buffer":0,
			"byteLength":1800,
			"byteOffset":16160,
			"target":34962
		},
		{
			"buffer":0,
			"byteLength":1002,
			"byteOffset":17960,
			"target":34963
		},
		{
			"buffer":0,
			"byteLength":1512,
			"byteOffset":18964,
			"target":34962
		},
		{
			"buffer":0,
			"byteLength":1512,
			"byteOffset":20476,
			"target":34962
		},
		{
			"buffer":0,
			"byteLength":1008,
			"byteOffset":21988,
			"target":34962
		},
		{
			"buffer":0,
			"byteLength":480,
			"byteOffset":22996,
			"target":34963
		},
		{
			"buffer":0,
			"byteLength":804,
			"byteOffset":23476,
			"target":34962
		},
		{
			"buffer":0,
			"byteLength":804,
			"byteOffset":24280,
			"target":34962
		},
		{
			"buffer":0,
			"byteLength":536,
			"byteOffset":25084,
			"target":34962
		},
		{
			"buffer":0,
			"byteLength":228,
			"byteOffset":25620,
			"target":34963
		},
		{
			"buffer":0,
			"byteLength":384,
			"byteOffset":25848,
			"target":34962
		},
		{
			"buffer":0,
			"byteLength":384,
			"byteOffset":26232,
			"target":34962
		},
		{
			"buffer":0,
			"byteLength":256,
			"byteOffset":26616,
			"target":34962
		},
		{
			"buffer":0,
			"byteLength":108,
			"byteOffset":26872,
			"target":34963
		},
		{
			"buffer":0,
			"byteLength":96,
			"byteOffset":26980,
			"target":34962
		},
		{
			"buffer":0,
			"byteLength":96,
			"byteOffset":27076,
			"target":34962
		},
		{
			"buffer":0,
			"byteLength":64,
			"byteOffset":27172,
			"target":34962
		},
		{
			"buffer":0,
			"byteLength":24,
			"byteOffset":27236,
			"target":34963
		},
		{
			"buffer":0,
			"byteLength":144,
			"byteOffset":27260,
			"target":34962
		},
		{
			"buffer":0,
			"byteLength":144,
			"byteOffset":27404,
			"target":34962
		},
		{
			"buffer":0,
			"byteLength":96,
			"byteOffset":27548,
			"target":34962
		},
		{
			"buffer":0,
			"byteLength":48,
			"byteOffset":27644,
			"target":34963
		},
		{
			"buffer":0,
			"byteLength":1968,
			"byteOffset":27692,
			"target":34962
		},
		{
			"buffer":0,
			"byteLength":1968,
			"byteOffset":29660,
			"target":34962
		},
		{
			"buffer":0,
			"byteLength":1312,
			"byteOffset":31628,
			"target":34962
		},
		{
			"buffer":0,
			"byteLength":660,
			"byteOffset":32940,
			"target":34963
		},
		{
			"buffer":0,
			"byteLength":288,
			"byteOffset":33600,
			"target":34962
		},
		{
			"buffer":0,
			"byteLength":288,
			"byteOffset":33888,
			"target":34962
		},
		{
			"buffer":0,
			"byteLength":192,
			"byteOffset":34176,
			"target":34962
		},
		{
			"buffer":0,
			"byteLength":150,
			"byteOffset":34368,
			"target":34963
		},
		{
			"buffer":0,
			"byteLength":480,
			"byteOffset":34520,
			"target":34962
		},
		{
			"buffer":0,
			"byteLength":480,
			"byteOffset":35000,
			"target":34962
		},
		{
			"buffer":0,
			"byteLength":320,
			"byteOffset":35480,
			"target":34962
		},
		{
			"buffer":0,
			"byteLength":120,
			"byteOffset":35800,
			"target":34963
		},
		{
			"buffer":0,
			"byteLength":384,
			"byteOffset":35920,
			"target":34962
		},
		{
			"buffer":0,
			"byteLength":384,
			"byteOffset":36304,
			"target":34962
		},
		{
			"buffer":0,
			"byteLength":256,
			"byteOffset":36688,
			"target":34962
		},
		{
			"buffer":0,
			"byteLength":108,
			"byteOffset":36944,
			"target":34963
		},
		{
			"buffer":0,
			"byteLength":324,
			"byteOffset":37052,
			"target":34962
		},
		{
			"buffer":0,
			"byteLength":324,
			"byteOffset":37376,
			"target":34962
		},
		{
			"buffer":0,
			"byteLength":216,
			"byteOffset":37700,
			"target":34962
		},
		{
			"buffer":0,
			"byteLength":150,
			"byteOffset":37916,
			"target":34963
		},
		{
			"buffer":0,
			"byteLength":612,
			"byteOffset":38068,
			"target":34962
		},
		{
			"buffer":0,
			"byteLength":612,
			"byteOffset":38680,
			"target":34962
		},
		{
			"buffer":0,
			"byteLength":408,
			"byteOffset":39292,
			"target":34962
		},
		{
			"buffer":0,
			"byteLength":258,
			"byteOffset":39700,
			"target":34963
		},
		{
			"buffer":0,
			"byteLength":336,
			"byteOffset":39960,
			"target":34962
		},
		{
			"buffer":0,
			"byteLength":336,
			"byteOffset":40296,
			"target":34962
		},
		{
			"buffer":0,
			"byteLength":224,
			"byteOffset":40632,
			"target":34962
		},
		{
			"buffer":0,
			"byteLength":156,
			"byteOffset":40856,
			"target":34963
		},
		{
			"buffer":0,
			"byteLength":1032,
			"byteOffset":41012,
			"target":34962
		},
		{
			"buffer":0,
			"byteLength":1032,
			"byteOffset":42044,
			"target":34962
		},
		{
			"buffer":0,
			"byteLength":688,
			"byteOffset":43076,
			"target":34962
		},
		{
			"buffer":0,
			"byteLength":276,
			"byteOffset":43764,
			"target":34963
		},
		{
			"buffer":0,
			"byteLength":288,
			"byteOffset":44040,
			"target":34962
		},
		{
			"buffer":0,
			"byteLength":288,
			"byteOffset":44328,
			"target":34962
		},
		{
			"buffer":0,
			"byteLength":192,
			"byteOffset":44616,
			"target":34962
		},
		{
			"buffer":0,
			"byteLength":96,
			"byteOffset":44808,
			"target":34963
		},
		{
			"buffer":0,
			"byteLength":672,
			"byteOffset":44904,
			"target":34962
		},
		{
			"buffer":0,
			"byteLength":672,
			"byteOffset":45576,
			"target":34962
		},
		{
			"buffer":0,
			"byteLength":448,
			"byteOffset":46248,
			"target":34962
		},
		{
			"buffer":0,
			"byteLength":240,
			"byteOffset":46696,
			"target":34963
		},
		{
			"buffer":0,
			"byteLength":144,
			"byteOffset":46936,
			"target":34962
		},
		{
			"buffer":0,
			"byteLength":144,
			"byteOffset":47080,
			"target":34962
		},
		{
			"buffer":0,
			"byteLength":96,
			"byteOffset":47224,
			"target":34962
		},
		{
			"buffer":0,
			"byteLength":36,
			"byteOffset":47320,
			"target":34963
		}
	],
	"buffers":[
		{
			"byteLength":47356,
			"uri":"dbunk_stonehenge1.bin"
		}
	]
}
