{
	"asset":{
		"generator":"Khronos glTF Blender I/O v4.5.48",
		"version":"2.0"
	},
	"scene":0,
	"scenes":[
		{
			"name":"Scene",
			"nodes":[
				0
			]
		}
	],
	"nodes":[
		{
			"mesh":0,
			"name":"Object"
		}
	],
	"materials":[
		{
			"doubleSided":true,
			"name":"DS_NEFBLUE2",
			"pbrMetallicRoughness":{
				"baseColorFactor":[
					0.800000011920929,
					0.800000011920929,
					0.800000011920929,
					1
				],
				"metallicFactor":0,
				"roughnessFactor":0.5
			}
		},
		{
			"doubleSided":true,
			"name":"DS_NEFBLUE1",
			"pbrMetallicRoughness":{
				"baseColorFactor":[
					0.800000011920929,
					0.800000011920929,
					0.800000011920929,
					1
				],
				"metallicFactor":0,
				"roughnessFactor":0.5
			}
		},
		{
			"doubleSided":true,
			"name":"DS_TECHWALL_2",
			"pbrMetallicRoughness":{
				"baseColorFactor":[
					0.800000011920929,
					0.800000011920929,
					0.800000011920929,
					1
				],
				"metallicFactor":0,
				"roughnessFactor":0.5
			}
		},
		{
			"doubleSided":true,
			"name":"DS_NEFBLUE",
			"pbrMetallicRoughness":{
				"baseColorFactor":[
					0.800000011920929,
					0.800000011920929,
					0.800000011920929,
					1
				],
				"metallicFactor":0,
				"roughnessFactor":0.5
			}
		},
		{
			"doubleSided":true,
			"name":"DS_ILAVLIGHT",
			"pbrMetallicRoughness":{
				"baseColorFactor":[
					0.800000011920929,
					0.800000011920929,
					0.800000011920929,
					1
				],
				"metallicFactor":0,
				"roughnessFactor":0.5
			}
		},
		{
			"doubleSided":true,
			"name":"DS_ILIG03",
			"pbrMetallicRoughness":{
				"baseColorFactor":[
					0.800000011920929,
					0.800000011920929,
					0.800000011920929,
					1
				],
				"metallicFactor":0,
				"roughnessFactor":0.5
			}
		},
		{
			"doubleSided":true,
			"name":"DS_EFLOOR1",
			"pbrMetallicRoughness":{
				"baseColorFactor":[
					0.800000011920929,
					0.800000011920929,
					0.800000011920929,
					1
				],
				"metallicFactor":0,
				"roughnessFactor":0.5
			}
		},
		{
			"doubleSided":true,
			"name":"DS_IWAL01",
			"pbrMetallicRoughness":{
				"baseColorFactor":[
					0.800000011920929,
					0.800000011920929,
					0.800000011920929,
					1
				],
				"metallicFactor":0,
				"roughnessFactor":0.5
			}
		}
	],
	"meshes":[
		{
			"name":"Mesh",
			"primitives":[
				{
					"attributes":{
						"POSITION":0,
						"NORMAL":1,
						"TEXCOORD_0":2
					},
					"indices":3,
					"material":0
				},
				{
					"attributes":{
						"POSITION":4,
						"NORMAL":5,
						"TEXCOORD_0":6
					},
					"indices":7,
					"material":1
				},
				{
					"attributes":{
						"POSITION":8,
						"NORMAL":9,
						"TEXCOORD_0":10
					},
					"indices":11,
					"material":2
				},
				{
					"attributes":{
						"POSITION":12,
						"NORMAL":13,
						"TEXCOORD_0":14
					},
					"indices":15,
					"material":3
				},
				{
					"attributes":{
						"POSITION":16,
						"NORMAL":17,
						"TEXCOORD_0":18
					},
					"indices":19,
					"material":4
				},
				{
					"attributes":{
						"POSITION":20,
						"NORMAL":21,
						"TEXCOORD_0":22
					},
					"indices":23,
					"material":5
				},
				{
					"attributes":{
						"POSITION":24,
						"NORMAL":25,
						"TEXCOORD_0":26
					},
					"indices":27,
					"material":6
				},
				{
					"attributes":{
						"POSITION":28,
						"NORMAL":29,
						"TEXCOORD_0":30
					},
					"indices":31,
					"material":7
				}
			]
		}
	],
	"accessors":[
		{
			"bufferView":0,
			"componentType":5126,
			"count":153,
			"max":[
				19,
				7.5,
				15
			],
			"min":[
				5.25,
				-1,
				-12
			],
			"type":"VEC3"
		},
		{
			"bufferView":1,
			"componentType":5126,
			"count":153,
			"type":"VEC3"
		},
		{
			"bufferView":2,
			"componentType":5126,
			"count":153,
			"type":"VEC2"
		},
		{
			"bufferView":3,
			"componentType":5123,
			"count":363,
			"type":"SCALAR"
		},
		{
			"bufferView":4,
			"componentType":5126,
			"count":68,
			"max":[
				18,
				7,
				8
			],
			"min":[
				6,
				-1,
				-12
			],
			"type":"VEC3"
		},
		{
			"bufferView":5,
			"componentType":5126,
			"count":68,
			"type":"VEC3"
		},
		{
			"bufferView":6,
			"componentType":5126,
			"count":68,
			"type":"VEC2"
		},
		{
			"bufferView":7,
			"componentType":5123,
			"count":174,
			"type":"SCALAR"
		},
		{
			"bufferView":8,
			"componentType":5126,
			"count":60,
			"max":[
				16,
				7,
				2
			],
			"min":[
				8,
				-0.5,
				-6.5
			],
			"type":"VEC3"
		},
		{
			"bufferView":9,
			"componentType":5126,
			"count":60,
			"type":"VEC3"
		},
		{
			"bufferView":10,
			"componentType":5126,
			"count":60,
			"type":"VEC2"
		},
		{
			"bufferView":11,
			"componentType":5123,
			"count":138,
			"type":"SCALAR"
		},
		{
			"bufferView":12,
			"componentType":5126,
			"count":56,
			"max":[
				19,
				4,
				15
			],
			"min":[
				5.25,
				-1,
				-10.125
			],
			"type":"VEC3"
		},
		{
			"bufferView":13,
			"componentType":5126,
			"count":56,
			"type":"VEC3"
		},
		{
			"bufferView":14,
			"componentType":5126,
			"count":56,
			"type":"VEC2"
		},
		{
			"bufferView":15,
			"componentType":5123,
			"count":108,
			"type":"SCALAR"
		},
		{
			"bufferView":16,
			"componentType":5126,
			"count":22,
			"max":[
				16.75,
				7.25,
				3.75
			],
			"min":[
				7.25,
				7,
				-6.75
			],
			"type":"VEC3"
		},
		{
			"bufferView":17,
			"componentType":5126,
			"count":22,
			"type":"VEC3"
		},
		{
			"bufferView":18,
			"componentType":5126,
			"count":22,
			"type":"VEC2"
		},
		{
			"bufferView":19,
			"componentType":5123,
			"count":42,
			"type":"SCALAR"
		},
		{
			"bufferView":20,
			"componentType":5126,
			"count":8,
			"max":[
				16,
				-0.5,
				2
			],
			"min":[
				8,
				-0.5,
				-6.5
			],
			"type":"VEC3"
		},
		{
			"bufferView":21,
			"componentType":5126,
			"count":8,
			"type":"VEC3"
		},
		{
			"bufferView":22,
			"componentType":5126,
			"count":8,
			"type":"VEC2"
		},
		{
			"bufferView":23,
			"componentType":5123,
			"count":12,
			"type":"SCALAR"
		},
		{
			"bufferView":24,
			"componentType":5126,
			"count":20,
			"max":[
				15,
				0,
				6
			],
			"min":[
				9,
				-1,
				-6.5
			],
			"type":"VEC3"
		},
		{
			"bufferView":25,
			"componentType":5126,
			"count":20,
			"type":"VEC3"
		},
		{
			"bufferView":26,
			"componentType":5126,
			"count":20,
			"type":"VEC2"
		},
		{
			"bufferView":27,
			"componentType":5123,
			"count":36,
			"type":"SCALAR"
		},
		{
			"bufferView":28,
			"componentType":5126,
			"count":8,
			"max":[
				14.5,
				4,
				-7.5
			],
			"min":[
				9.5,
				2,
				-8.5
			],
			"type":"VEC3"
		},
		{
			"bufferView":29,
			"componentType":5126,
			"count":8,
			"type":"VEC3"
		},
		{
			"bufferView":30,
			"componentType":5126,
			"count":8,
			"type":"VEC2"
		},
		{
			"bufferView":31,
			"componentType":5123,
			"count":12,
			"type":"SCALAR"
		}
	],
	"bufferViews":[
		{
			"buffer":0,
			"byteLength":1836,
			"byteOffset":0,
			"target":34962
		},
		{
			"buffer":0,
			"byteLength":1836,
			"byteOffset":1836,
			"target":34962
		},
		{
			"buffer":0,
			"byteLength":1224,
			"byteOffset":3672,
			"target":34962
		},
		{
			"buffer":0,
			"byteLength":726,
			"byteOffset":4896,
			"target":34963
		},
		{
			"buffer":0,
			"byteLength":816,
			"byteOffset":5624,
			"target":34962
		},
		{
			"buffer":0,
			"byteLength":816,
			"byteOffset":6440,
			"target":34962
		},
		{
			"buffer":0,
			"byteLength":544,
			"byteOffset":7256,
			"target":34962
		},
		{
			"buffer":0,
			"byteLength":348,
			"byteOffset":7800,
			"target":34963
		},
		{
			"buffer":0,
			"byteLength":720,
			"byteOffset":8148,
			"target":34962
		},
		{
			"buffer":0,
			"byteLength":720,
			"byteOffset":8868,
			"target":34962
		},
		{
			"buffer":0,
			"byteLength":480,
			"byteOffset":9588,
			"target":34962
		},
		{
			"buffer":0,
			"byteLength":276,
			"byteOffset":10068,
			"target":34963
		},
		{
			"buffer":0,
			"byteLength":672,
			"byteOffset":10344,
			"target":34962
		},
		{
			"buffer":0,
			"byteLength":672,
			"byteOffset":11016,
			"target":34962
		},
		{
			"buffer":0,
			"byteLength":448,
			"byteOffset":11688,
			"target":34962
		},
		{
			"buffer":0,
			"byteLength":216,
			"byteOffset":12136,
			"target":34963
		},
		{
			"buffer":0,
			"byteLength":264,
			"byteOffset":12352,
			"target":34962
		},
		{
			"buffer":0,
			"byteLength":264,
			"byteOffset":12616,
			"target":34962
		},
		{
			"buffer":0,
			"byteLength":176,
			"byteOffset":12880,
			"target":34962
		},
		{
			"buffer":0,
			"byteLength":84,
			"byteOffset":13056,
			"target":34963
		},
		{
			"buffer":0,
			"byteLength":96,
			"byteOffset":13140,
			"target":34962
		},
		{
			"buffer":0,
			"byteLength":96,
			"byteOffset":13236,
			"target":34962
		},
		{
			"buffer":0,
			"byteLength":64,
			"byteOffset":13332,
			"target":34962
		},
		{
			"buffer":0,
			"byteLength":24,
			"byteOffset":13396,
			"target":34963
		},
		{
			"buffer":0,
			"byteLength":240,
			"byteOffset":13420,
			"target":34962
		},
		{
			"buffer":0,
			"byteLength":240,
			"byteOffset":13660,
			"target":34962
		},
		{
			"buffer":0,
			"byteLength":160,
			"byteOffset":13900,
			"target":34962
		},
		{
			"buffer":0,
			"byteLength":72,
			"byteOffset":14060,
			"target":34963
		},
		{
			"buffer":0,
			"byteLength":96,
			"byteOffset":14132,
			"target":34962
		},
		{
			"buffer":0,
			"byteLength":96,
			"byteOffset":14228,
			"target":34962
		},
		{
			"buffer":0,
			"byteLength":64,
			"byteOffset":14324,
			"target":34962
		},
		{
			"buffer":0,
			"byteLength":24,
			"byteOffset":14388,
			"target":34963
		}
	],
	"buffers":[
		{
			"byteLength":14412,
			"uri":"dbunk_vbunk1.bin"
		}
	]
}
