{
	"asset":{
		"generator":"Khronos glTF Blender I/O v4.5.48",
		"version":"2.0"
	},
	"scene":0,
	"scenes":[
		{
			"name":"Scene",
			"nodes":[
				0
			]
		}
	],
	"nodes":[
		{
			"mesh":0,
			"name":"Object"
		}
	],
	"materials":[
		{
			"doubleSided":true,
			"name":"DS_EWALL06",
			"pbrMetallicRoughness":{
				"baseColorFactor":[
					0.800000011920929,
					0.800000011920929,
					0.800000011920929,
					1
				],
				"metallicFactor":0,
				"roughnessFactor":0.5
			}
		},
		{
			"doubleSided":true,
			"name":"DS_GENWALL",
			"pbrMetallicRoughness":{
				"baseColorFactor":[
					0.800000011920929,
					0.800000011920929,
					0.800000011920929,
					1
				],
				"metallicFactor":0,
				"roughnessFactor":0.5
			}
		},
		{
			"doubleSided":true,
			"name":"DS_EFLOOR1",
			"pbrMetallicRoughness":{
				"baseColorFactor":[
					0.800000011920929,
					0.800000011920929,
					0.800000011920929,
					1
				],
				"metallicFactor":0,
				"roughnessFactor":0.5
			}
		},
		{
			"doubleSided":true,
			"name":"DS_ILIG04",
			"pbrMetallicRoughness":{
				"baseColorFactor":[
					0.800000011920929,
					0.800000011920929,
					0.800000011920929,
					1
				],
				"metallicFactor":0,
				"roughnessFactor":0.5
			}
		},
		{
			"doubleSided":true,
			"name":"DS_EWALL07",
			"pbrMetallicRoughness":{
				"baseColorFactor":[
					0.800000011920929,
					0.800000011920929,
					0.800000011920929,
					1
				],
				"metallicFactor":0,
				"roughnessFactor":0.5
			}
		},
		{
			"doubleSided":true,
			"name":"DS_ILIG02",
			"pbrMetallicRoughness":{
				"baseColorFactor":[
					0.800000011920929,
					0.800000011920929,
					0.800000011920929,
					1
				],
				"metallicFactor":0,
				"roughnessFactor":0.5
			}
		},
		{
			"doubleSided":true,
			"name":"DS_EWALDECO01",
			"pbrMetallicRoughness":{
				"baseColorFactor":[
					0.800000011920929,
					0.800000011920929,
					0.800000011920929,
					1
				],
				"metallicFactor":0,
				"roughnessFactor":0.5
			}
		},
		{
			"doubleSided":true,
			"name":"DS_ICHUTE01",
			"pbrMetallicRoughness":{
				"baseColorFactor":[
					0.800000011920929,
					0.800000011920929,
					0.800000011920929,
					1
				],
				"metallicFactor":0,
				"roughnessFactor":0.5
			}
		},
		{
			"doubleSided":true,
			"name":"DS_ETRANS01",
			"pbrMetallicRoughness":{
				"baseColorFactor":[
					0.800000011920929,
					0.800000011920929,
					0.800000011920929,
					1
				],
				"metallicFactor":0,
				"roughnessFactor":0.5
			}
		},
		{
			"doubleSided":true,
			"name":"DS_ILAVLIGHT",
			"pbrMetallicRoughness":{
				"baseColorFactor":[
					0.800000011920929,
					0.800000011920929,
					0.800000011920929,
					1
				],
				"metallicFactor":0,
				"roughnessFactor":0.5
			}
		},
		{
			"doubleSided":true,
			"name":"DS_ICEILIG01",
			"pbrMetallicRoughness":{
				"baseColorFactor":[
					0.800000011920929,
					0.800000011920929,
					0.800000011920929,
					1
				],
				"metallicFactor":0,
				"roughnessFactor":0.5
			}
		},
		{
			"doubleSided":true,
			"name":"DS_IWALDECO01A",
			"pbrMetallicRoughness":{
				"baseColorFactor":[
					0.800000011920929,
					0.800000011920929,
					0.800000011920929,
					1
				],
				"metallicFactor":0,
				"roughnessFactor":0.5
			}
		}
	],
	"meshes":[
		{
			"name":"Mesh",
			"primitives":[
				{
					"attributes":{
						"POSITION":0,
						"NORMAL":1,
						"TEXCOORD_0":2
					},
					"indices":3,
					"material":0
				},
				{
					"attributes":{
						"POSITION":4,
						"NORMAL":5,
						"TEXCOORD_0":6
					},
					"indices":7,
					"material":1
				},
				{
					"attributes":{
						"POSITION":8,
						"NORMAL":9,
						"TEXCOORD_0":10
					},
					"indices":11,
					"material":2
				},
				{
					"attributes":{
						"POSITION":12,
						"NORMAL":13,
						"TEXCOORD_0":14
					},
					"indices":15,
					"material":3
				},
				{
					"attributes":{
						"POSITION":16,
						"NORMAL":17,
						"TEXCOORD_0":18
					},
					"indices":19,
					"material":4
				},
				{
					"attributes":{
						"POSITION":20,
						"NORMAL":21,
						"TEXCOORD_0":22
					},
					"indices":23,
					"material":5
				},
				{
					"attributes":{
						"POSITION":24,
						"NORMAL":25,
						"TEXCOORD_0":26
					},
					"indices":27,
					"material":6
				},
				{
					"attributes":{
						"POSITION":28,
						"NORMAL":29,
						"TEXCOORD_0":30
					},
					"indices":31,
					"material":7
				},
				{
					"attributes":{
						"POSITION":32,
						"NORMAL":33,
						"TEXCOORD_0":34
					},
					"indices":35,
					"material":8
				},
				{
					"attributes":{
						"POSITION":36,
						"NORMAL":37,
						"TEXCOORD_0":38
					},
					"indices":39,
					"material":9
				},
				{
					"attributes":{
						"POSITION":40,
						"NORMAL":41,
						"TEXCOORD_0":42
					},
					"indices":43,
					"material":10
				},
				{
					"attributes":{
						"POSITION":44,
						"NORMAL":45,
						"TEXCOORD_0":46
					},
					"indices":47,
					"material":11
				}
			]
		}
	],
	"accessors":[
		{
			"bufferView":0,
			"componentType":5126,
			"count":457,
			"max":[
				27.159854888916016,
				-2.5,
				8
			],
			"min":[
				-6.159855365753174,
				-20,
				-32
			],
			"type":"VEC3"
		},
		{
			"bufferView":1,
			"componentType":5126,
			"count":457,
			"type":"VEC3"
		},
		{
			"bufferView":2,
			"componentType":5126,
			"count":457,
			"type":"VEC2"
		},
		{
			"bufferView":3,
			"componentType":5123,
			"count":963,
			"type":"SCALAR"
		},
		{
			"bufferView":4,
			"componentType":5126,
			"count":226,
			"max":[
				27,
				-5.5,
				8
			],
			"min":[
				-6,
				-20,
				-28.5
			],
			"type":"VEC3"
		},
		{
			"bufferView":5,
			"componentType":5126,
			"count":226,
			"type":"VEC3"
		},
		{
			"bufferView":6,
			"componentType":5126,
			"count":226,
			"type":"VEC2"
		},
		{
			"bufferView":7,
			"componentType":5123,
			"count":684,
			"type":"SCALAR"
		},
		{
			"bufferView":8,
			"componentType":5126,
			"count":66,
			"max":[
				22.5,
				-14,
				-1.5
			],
			"min":[
				-1.5,
				-16.5,
				-26
			],
			"type":"VEC3"
		},
		{
			"bufferView":9,
			"componentType":5126,
			"count":66,
			"type":"VEC3"
		},
		{
			"bufferView":10,
			"componentType":5126,
			"count":66,
			"type":"VEC2"
		},
		{
			"bufferView":11,
			"componentType":5123,
			"count":180,
			"type":"SCALAR"
		},
		{
			"bufferView":12,
			"componentType":5126,
			"count":72,
			"max":[
				22.5,
				-14,
				-1.5
			],
			"min":[
				-1.5,
				-17,
				-8.5
			],
			"type":"VEC3"
		},
		{
			"bufferView":13,
			"componentType":5126,
			"count":72,
			"type":"VEC3"
		},
		{
			"bufferView":14,
			"componentType":5126,
			"count":72,
			"type":"VEC2"
		},
		{
			"bufferView":15,
			"componentType":5123,
			"count":108,
			"type":"SCALAR"
		},
		{
			"bufferView":16,
			"componentType":5126,
			"count":56,
			"max":[
				26.5,
				-6,
				0
			],
			"min":[
				-5.5,
				-20,
				-32
			],
			"type":"VEC3"
		},
		{
			"bufferView":17,
			"componentType":5126,
			"count":56,
			"type":"VEC3"
		},
		{
			"bufferView":18,
			"componentType":5126,
			"count":56,
			"type":"VEC2"
		},
		{
			"bufferView":19,
			"componentType":5123,
			"count":126,
			"type":"SCALAR"
		},
		{
			"bufferView":20,
			"componentType":5126,
			"count":8,
			"max":[
				25.5,
				-11.5,
				-12.25
			],
			"min":[
				-4.5,
				-12.5,
				-12.25
			],
			"type":"VEC3"
		},
		{
			"bufferView":21,
			"componentType":5126,
			"count":8,
			"type":"VEC3"
		},
		{
			"bufferView":22,
			"componentType":5126,
			"count":8,
			"type":"VEC2"
		},
		{
			"bufferView":23,
			"componentType":5123,
			"count":12,
			"type":"SCALAR"
		},
		{
			"bufferView":24,
			"componentType":5126,
			"count":44,
			"max":[
				25.5,
				-6,
				0
			],
			"min":[
				-4.5,
				-20,
				-12
			],
			"type":"VEC3"
		},
		{
			"bufferView":25,
			"componentType":5126,
			"count":44,
			"type":"VEC3"
		},
		{
			"bufferView":26,
			"componentType":5126,
			"count":44,
			"type":"VEC2"
		},
		{
			"bufferView":27,
			"componentType":5123,
			"count":72,
			"type":"SCALAR"
		},
		{
			"bufferView":28,
			"componentType":5126,
			"count":81,
			"max":[
				27.159854888916016,
				-4.5,
				8
			],
			"min":[
				-6.159855365753174,
				-12.5,
				-28.818471908569336
			],
			"type":"VEC3"
		},
		{
			"bufferView":29,
			"componentType":5126,
			"count":81,
			"type":"VEC3"
		},
		{
			"bufferView":30,
			"componentType":5126,
			"count":81,
			"type":"VEC2"
		},
		{
			"bufferView":31,
			"componentType":5123,
			"count":201,
			"type":"SCALAR"
		},
		{
			"bufferView":32,
			"componentType":5126,
			"count":18,
			"max":[
				19.5,
				-6,
				-28
			],
			"min":[
				1.5,
				-20,
				-31.5
			],
			"type":"VEC3"
		},
		{
			"bufferView":33,
			"componentType":5126,
			"count":18,
			"type":"VEC3"
		},
		{
			"bufferView":34,
			"componentType":5126,
			"count":18,
			"type":"VEC2"
		},
		{
			"bufferView":35,
			"componentType":5123,
			"count":30,
			"type":"SCALAR"
		},
		{
			"bufferView":36,
			"componentType":5126,
			"count":36,
			"max":[
				26.5,
				-5,
				7.5
			],
			"min":[
				-5.5,
				-5.5,
				-28
			],
			"type":"VEC3"
		},
		{
			"bufferView":37,
			"componentType":5126,
			"count":36,
			"type":"VEC3"
		},
		{
			"bufferView":38,
			"componentType":5126,
			"count":36,
			"type":"VEC2"
		},
		{
			"bufferView":39,
			"componentType":5123,
			"count":60,
			"type":"SCALAR"
		},
		{
			"bufferView":40,
			"componentType":5126,
			"count":4,
			"max":[
				14.5,
				-5.5,
				-12
			],
			"min":[
				6.5,
				-5.5,
				-20
			],
			"type":"VEC3"
		},
		{
			"bufferView":41,
			"componentType":5126,
			"count":4,
			"type":"VEC3"
		},
		{
			"bufferView":42,
			"componentType":5126,
			"count":4,
			"type":"VEC2"
		},
		{
			"bufferView":43,
			"componentType":5123,
			"count":6,
			"type":"SCALAR"
		},
		{
			"bufferView":44,
			"componentType":5126,
			"count":8,
			"max":[
				16.5,
				-6,
				-25.5
			],
			"min":[
				4.5,
				-14,
				-25.5
			],
			"type":"VEC3"
		},
		{
			"bufferView":45,
			"componentType":5126,
			"count":8,
			"type":"VEC3"
		},
		{
			"bufferView":46,
			"componentType":5126,
			"count":8,
			"type":"VEC2"
		},
		{
			"bufferView":47,
			"componentType":5123,
			"count":12,
			"type":"SCALAR"
		}
	],
	"bufferViews":[
		{
			"buffer":0,
			"byteLength":5484,
			"byteOffset":0,
			"target":34962
		},
		{
			"buffer":0,
			"byteLength":5484,
			"byteOffset":5484,
			"target":34962
		},
		{
			"buffer":0,
			"byteLength":3656,
			"byteOffset":10968,
			"target":34962
		},
		{
			"buffer":0,
			"byteLength":1926,
			"byteOffset":14624,
			"target":34963
		},
		{
			"buffer":0,
			"byteLength":2712,
			"byteOffset":16552,
			"target":34962
		},
		{
			"buffer":0,
			"byteLength":2712,
			"byteOffset":19264,
			"target":34962
		},
		{
			"buffer":0,
			"byteLength":1808,
			"byteOffset":21976,
			"target":34962
		},
		{
			"buffer":0,
			"byteLength":1368,
			"byteOffset":23784,
			"target":34963
		},
		{
			"buffer":0,
			"byteLength":792,
			"byteOffset":25152,
			"target":34962
		},
		{
			"buffer":0,
			"byteLength":792,
			"byteOffset":25944,
			"target":34962
		},
		{
			"buffer":0,
			"byteLength":528,
			"byteOffset":26736,
			"target":34962
		},
		{
			"buffer":0,
			"byteLength":360,
			"byteOffset":27264,
			"target":34963
		},
		{
			"buffer":0,
			"byteLength":864,
			"byteOffset":27624,
			"target":34962
		},
		{
			"buffer":0,
			"byteLength":864,
			"byteOffset":28488,
			"target":34962
		},
		{
			"buffer":0,
			"byteLength":576,
			"byteOffset":29352,
			"target":34962
		},
		{
			"buffer":0,
			"byteLength":216,
			"byteOffset":29928,
			"target":34963
		},
		{
			"buffer":0,
			"byteLength":672,
			"byteOffset":30144,
			"target":34962
		},
		{
			"buffer":0,
			"byteLength":672,
			"byteOffset":30816,
			"target":34962
		},
		{
			"buffer":0,
			"byteLength":448,
			"byteOffset":31488,
			"target":34962
		},
		{
			"buffer":0,
			"byteLength":252,
			"byteOffset":31936,
			"target":34963
		},
		{
			"buffer":0,
			"byteLength":96,
			"byteOffset":32188,
			"target":34962
		},
		{
			"buffer":0,
			"byteLength":96,
			"byteOffset":32284,
			"target":34962
		},
		{
			"buffer":0,
			"byteLength":64,
			"byteOffset":32380,
			"target":34962
		},
		{
			"buffer":0,
			"byteLength":24,
			"byteOffset":32444,
			"target":34963
		},
		{
			"buffer":0,
			"byteLength":528,
			"byteOffset":32468,
			"target":34962
		},
		{
			"buffer":0,
			"byteLength":528,
			"byteOffset":32996,
			"target":34962
		},
		{
			"buffer":0,
			"byteLength":352,
			"byteOffset":33524,
			"target":34962
		},
		{
			"buffer":0,
			"byteLength":144,
			"byteOffset":33876,
			"target":34963
		},
		{
			"buffer":0,
			"byteLength":972,
			"byteOffset":34020,
			"target":34962
		},
		{
			"buffer":0,
			"byteLength":972,
			"byteOffset":34992,
			"target":34962
		},
		{
			"buffer":0,
			"byteLength":648,
			"byteOffset":35964,
			"target":34962
		},
		{
			"buffer":0,
			"byteLength":402,
			"byteOffset":36612,
			"target":34963
		},
		{
			"buffer":0,
			"byteLength":216,
			"byteOffset":37016,
			"target":34962
		},
		{
			"buffer":0,
			"byteLength":216,
			"byteOffset":37232,
			"target":34962
		},
		{
			"buffer":0,
			"byteLength":144,
			"byteOffset":37448,
			"target":34962
		},
		{
			"buffer":0,
			"byteLength":60,
			"byteOffset":37592,
			"target":34963
		},
		{
			"buffer":0,
			"byteLength":432,
			"byteOffset":37652,
			"target":34962
		},
		{
			"buffer":0,
			"byteLength":432,
			"byteOffset":38084,
			"target":34962
		},
		{
			"buffer":0,
			"byteLength":288,
			"byteOffset":38516,
			"target":34962
		},
		{
			"buffer":0,
			"byteLength":120,
			"byteOffset":38804,
			"target":34963
		},
		{
			"buffer":0,
			"byteLength":48,
			"byteOffset":38924,
			"target":34962
		},
		{
			"buffer":0,
			"byteLength":48,
			"byteOffset":38972,
			"target":34962
		},
		{
			"buffer":0,
			"byteLength":32,
			"byteOffset":39020,
			"target":34962
		},
		{
			"buffer":0,
			"byteLength":12,
			"byteOffset":39052,
			"target":34963
		},
		{
			"buffer":0,
			"byteLength":96,
			"byteOffset":39064,
			"target":34962
		},
		{
			"buffer":0,
			"byteLength":96,
			"byteOffset":39160,
			"target":34962
		},
		{
			"buffer":0,
			"byteLength":64,
			"byteOffset":39256,
			"target":34962
		},
		{
			"buffer":0,
			"byteLength":24,
			"byteOffset":39320,
			"target":34963
		}
	],
	"buffers":[
		{
			"byteLength":39344,
			"uri":"dbunk_nef_invbunk1.bin"
		}
	]
}
