{
	"asset":{
		"generator":"Khronos glTF Blender I/O v4.5.48",
		"version":"2.0"
	},
	"scene":0,
	"scenes":[
		{
			"name":"Scene",
			"nodes":[
				0
			]
		}
	],
	"nodes":[
		{
			"mesh":0,
			"name":"Object"
		}
	],
	"materials":[
		{
			"doubleSided":true,
			"name":"DS_NEFFLOOR1",
			"pbrMetallicRoughness":{
				"baseColorFactor":[
					0.800000011920929,
					0.800000011920929,
					0.800000011920929,
					1
				],
				"metallicFactor":0,
				"roughnessFactor":0.5
			}
		},
		{
			"doubleSided":true,
			"name":"DS_TECHWALL_3",
			"pbrMetallicRoughness":{
				"baseColorFactor":[
					0.800000011920929,
					0.800000011920929,
					0.800000011920929,
					1
				],
				"metallicFactor":0,
				"roughnessFactor":0.5
			}
		},
		{
			"doubleSided":true,
			"name":"DS_NEFBLTRIM",
			"pbrMetallicRoughness":{
				"baseColorFactor":[
					0.800000011920929,
					0.800000011920929,
					0.800000011920929,
					1
				],
				"metallicFactor":0,
				"roughnessFactor":0.5
			}
		},
		{
			"doubleSided":true,
			"name":"DS_TECHBORDER1",
			"pbrMetallicRoughness":{
				"baseColorFactor":[
					0.800000011920929,
					0.800000011920929,
					0.800000011920929,
					1
				],
				"metallicFactor":0,
				"roughnessFactor":0.5
			}
		},
		{
			"doubleSided":true,
			"name":"DS_NEFFLOOR5",
			"pbrMetallicRoughness":{
				"baseColorFactor":[
					0.800000011920929,
					0.800000011920929,
					0.800000011920929,
					1
				],
				"metallicFactor":0,
				"roughnessFactor":0.5
			}
		}
	],
	"meshes":[
		{
			"name":"Mesh",
			"primitives":[
				{
					"attributes":{
						"POSITION":0,
						"NORMAL":1,
						"TEXCOORD_0":2
					},
					"indices":3,
					"material":0
				},
				{
					"attributes":{
						"POSITION":4,
						"NORMAL":5,
						"TEXCOORD_0":6
					},
					"indices":7,
					"material":1
				},
				{
					"attributes":{
						"POSITION":8,
						"NORMAL":9,
						"TEXCOORD_0":10
					},
					"indices":11,
					"material":2
				},
				{
					"attributes":{
						"POSITION":12,
						"NORMAL":13,
						"TEXCOORD_0":14
					},
					"indices":15,
					"material":3
				},
				{
					"attributes":{
						"POSITION":16,
						"NORMAL":17,
						"TEXCOORD_0":18
					},
					"indices":19,
					"material":4
				}
			]
		}
	],
	"accessors":[
		{
			"bufferView":0,
			"componentType":5126,
			"count":4,
			"max":[
				-4.75,
				6,
				4.75
			],
			"min":[
				-12.75,
				6,
				-3.25
			],
			"type":"VEC3"
		},
		{
			"bufferView":1,
			"componentType":5126,
			"count":4,
			"type":"VEC3"
		},
		{
			"bufferView":2,
			"componentType":5126,
			"count":4,
			"type":"VEC2"
		},
		{
			"bufferView":3,
			"componentType":5123,
			"count":6,
			"type":"SCALAR"
		},
		{
			"bufferView":4,
			"componentType":5126,
			"count":22,
			"max":[
				15.25,
				5,
				4.75
			],
			"min":[
				-12.75,
				-6,
				-3.25
			],
			"type":"VEC3"
		},
		{
			"bufferView":5,
			"componentType":5126,
			"count":22,
			"type":"VEC3"
		},
		{
			"bufferView":6,
			"componentType":5126,
			"count":22,
			"type":"VEC2"
		},
		{
			"bufferView":7,
			"componentType":5123,
			"count":36,
			"type":"SCALAR"
		},
		{
			"bufferView":8,
			"componentType":5126,
			"count":18,
			"max":[
				-3.75,
				6,
				5.75
			],
			"min":[
				-13.75,
				5,
				-4.25
			],
			"type":"VEC3"
		},
		{
			"bufferView":9,
			"componentType":5126,
			"count":18,
			"type":"VEC3"
		},
		{
			"bufferView":10,
			"componentType":5126,
			"count":18,
			"type":"VEC2"
		},
		{
			"bufferView":11,
			"componentType":5123,
			"count":30,
			"type":"SCALAR"
		},
		{
			"bufferView":12,
			"componentType":5126,
			"count":20,
			"max":[
				-3.75,
				5,
				5.75
			],
			"min":[
				-13.75,
				4,
				-4.25
			],
			"type":"VEC3"
		},
		{
			"bufferView":13,
			"componentType":5126,
			"count":20,
			"type":"VEC3"
		},
		{
			"bufferView":14,
			"componentType":5126,
			"count":20,
			"type":"VEC2"
		},
		{
			"bufferView":15,
			"componentType":5123,
			"count":30,
			"type":"SCALAR"
		},
		{
			"bufferView":16,
			"componentType":5126,
			"count":4,
			"max":[
				15.25,
				5,
				3.75
			],
			"min":[
				-3.75,
				-6,
				-2.25
			],
			"type":"VEC3"
		},
		{
			"bufferView":17,
			"componentType":5126,
			"count":4,
			"type":"VEC3"
		},
		{
			"bufferView":18,
			"componentType":5126,
			"count":4,
			"type":"VEC2"
		},
		{
			"bufferView":19,
			"componentType":5123,
			"count":6,
			"type":"SCALAR"
		}
	],
	"bufferViews":[
		{
			"buffer":0,
			"byteLength":48,
			"byteOffset":0,
			"target":34962
		},
		{
			"buffer":0,
			"byteLength":48,
			"byteOffset":48,
			"target":34962
		},
		{
			"buffer":0,
			"byteLength":32,
			"byteOffset":96,
			"target":34962
		},
		{
			"buffer":0,
			"byteLength":12,
			"byteOffset":128,
			"target":34963
		},
		{
			"buffer":0,
			"byteLength":264,
			"byteOffset":140,
			"target":34962
		},
		{
			"buffer":0,
			"byteLength":264,
			"byteOffset":404,
			"target":34962
		},
		{
			"buffer":0,
			"byteLength":176,
			"byteOffset":668,
			"target":34962
		},
		{
			"buffer":0,
			"byteLength":72,
			"byteOffset":844,
			"target":34963
		},
		{
			"buffer":0,
			"byteLength":216,
			"byteOffset":916,
			"target":34962
		},
		{
			"buffer":0,
			"byteLength":216,
			"byteOffset":1132,
			"target":34962
		},
		{
			"buffer":0,
			"byteLength":144,
			"byteOffset":1348,
			"target":34962
		},
		{
			"buffer":0,
			"byteLength":60,
			"byteOffset":1492,
			"target":34963
		},
		{
			"buffer":0,
			"byteLength":240,
			"byteOffset":1552,
			"target":34962
		},
		{
			"buffer":0,
			"byteLength":240,
			"byteOffset":1792,
			"target":34962
		},
		{
			"buffer":0,
			"byteLength":160,
			"byteOffset":2032,
			"target":34962
		},
		{
			"buffer":0,
			"byteLength":60,
			"byteOffset":2192,
			"target":34963
		},
		{
			"buffer":0,
			"byteLength":48,
			"byteOffset":2252,
			"target":34962
		},
		{
			"buffer":0,
			"byteLength":48,
			"byteOffset":2300,
			"target":34962
		},
		{
			"buffer":0,
			"byteLength":32,
			"byteOffset":2348,
			"target":34962
		},
		{
			"buffer":0,
			"byteLength":12,
			"byteOffset":2380,
			"target":34963
		}
	],
	"buffers":[
		{
			"byteLength":2392,
			"uri":"dmisc_nefplat1.bin"
		}
	]
}
