{
	"asset":{
		"generator":"Khronos glTF Blender I/O v4.5.48",
		"version":"2.0"
	},
	"scene":0,
	"scenes":[
		{
			"name":"Scene",
			"nodes":[
				0
			]
		}
	],
	"nodes":[
		{
			"mesh":0,
			"name":"Object"
		}
	],
	"materials":[
		{
			"doubleSided":true,
			"name":"DS_NEFFLOOR1",
			"pbrMetallicRoughness":{
				"baseColorFactor":[
					0.800000011920929,
					0.800000011920929,
					0.800000011920929,
					1
				],
				"metallicFactor":0,
				"roughnessFactor":0.5
			}
		},
		{
			"doubleSided":true,
			"name":"DS_NEFBLUE",
			"pbrMetallicRoughness":{
				"baseColorFactor":[
					0.800000011920929,
					0.800000011920929,
					0.800000011920929,
					1
				],
				"metallicFactor":0,
				"roughnessFactor":0.5
			}
		},
		{
			"doubleSided":true,
			"name":"DS_NEFBLUE1",
			"pbrMetallicRoughness":{
				"baseColorFactor":[
					0.800000011920929,
					0.800000011920929,
					0.800000011920929,
					1
				],
				"metallicFactor":0,
				"roughnessFactor":0.5
			}
		},
		{
			"doubleSided":true,
			"name":"DS_ILIG02",
			"pbrMetallicRoughness":{
				"baseColorFactor":[
					0.800000011920929,
					0.800000011920929,
					0.800000011920929,
					1
				],
				"metallicFactor":0,
				"roughnessFactor":0.5
			}
		},
		{
			"doubleSided":true,
			"name":"DS_NEFWALL1",
			"pbrMetallicRoughness":{
				"baseColorFactor":[
					0.800000011920929,
					0.800000011920929,
					0.800000011920929,
					1
				],
				"metallicFactor":0,
				"roughnessFactor":0.5
			}
		},
		{
			"doubleSided":true,
			"name":"DS_NEFBLUE2",
			"pbrMetallicRoughness":{
				"baseColorFactor":[
					0.800000011920929,
					0.800000011920929,
					0.800000011920929,
					1
				],
				"metallicFactor":0,
				"roughnessFactor":0.5
			}
		},
		{
			"doubleSided":true,
			"name":"DS_NEFLIG01",
			"pbrMetallicRoughness":{
				"baseColorFactor":[
					0.800000011920929,
					0.800000011920929,
					0.800000011920929,
					1
				],
				"metallicFactor":0,
				"roughnessFactor":0.5
			}
		},
		{
			"doubleSided":true,
			"name":"DS_IWALDECO01A",
			"pbrMetallicRoughness":{
				"baseColorFactor":[
					0.800000011920929,
					0.800000011920929,
					0.800000011920929,
					1
				],
				"metallicFactor":0,
				"roughnessFactor":0.5
			}
		}
	],
	"meshes":[
		{
			"name":"Mesh",
			"primitives":[
				{
					"attributes":{
						"POSITION":0,
						"NORMAL":1,
						"TEXCOORD_0":2
					},
					"indices":3,
					"material":0
				},
				{
					"attributes":{
						"POSITION":4,
						"NORMAL":5,
						"TEXCOORD_0":6
					},
					"indices":7,
					"material":1
				},
				{
					"attributes":{
						"POSITION":8,
						"NORMAL":9,
						"TEXCOORD_0":10
					},
					"indices":11,
					"material":2
				},
				{
					"attributes":{
						"POSITION":12,
						"NORMAL":13,
						"TEXCOORD_0":14
					},
					"indices":15,
					"material":3
				},
				{
					"attributes":{
						"POSITION":16,
						"NORMAL":17,
						"TEXCOORD_0":18
					},
					"indices":19,
					"material":4
				},
				{
					"attributes":{
						"POSITION":20,
						"NORMAL":21,
						"TEXCOORD_0":22
					},
					"indices":23,
					"material":5
				},
				{
					"attributes":{
						"POSITION":24,
						"NORMAL":25,
						"TEXCOORD_0":26
					},
					"indices":27,
					"material":6
				},
				{
					"attributes":{
						"POSITION":28,
						"NORMAL":29,
						"TEXCOORD_0":30
					},
					"indices":31,
					"material":7
				}
			]
		}
	],
	"accessors":[
		{
			"bufferView":0,
			"componentType":5126,
			"count":4,
			"max":[
				48,
				-0.25,
				118
			],
			"min":[
				32,
				-0.25,
				-24
			],
			"type":"VEC3"
		},
		{
			"bufferView":1,
			"componentType":5126,
			"count":4,
			"type":"VEC3"
		},
		{
			"bufferView":2,
			"componentType":5126,
			"count":4,
			"type":"VEC2"
		},
		{
			"bufferView":3,
			"componentType":5123,
			"count":6,
			"type":"SCALAR"
		},
		{
			"bufferView":4,
			"componentType":5126,
			"count":178,
			"max":[
				50,
				32,
				118
			],
			"min":[
				30,
				-1,
				-24
			],
			"type":"VEC3"
		},
		{
			"bufferView":5,
			"componentType":5126,
			"count":178,
			"type":"VEC3"
		},
		{
			"bufferView":6,
			"componentType":5126,
			"count":178,
			"type":"VEC2"
		},
		{
			"bufferView":7,
			"componentType":5123,
			"count":336,
			"type":"SCALAR"
		},
		{
			"bufferView":8,
			"componentType":5126,
			"count":322,
			"max":[
				50,
				31.875,
				118
			],
			"min":[
				30,
				-1,
				-24
			],
			"type":"VEC3"
		},
		{
			"bufferView":9,
			"componentType":5126,
			"count":322,
			"type":"VEC3"
		},
		{
			"bufferView":10,
			"componentType":5126,
			"count":322,
			"type":"VEC2"
		},
		{
			"bufferView":11,
			"componentType":5123,
			"count":708,
			"type":"SCALAR"
		},
		{
			"bufferView":12,
			"componentType":5126,
			"count":16,
			"max":[
				43.5625,
				32,
				116.46875
			],
			"min":[
				36.5,
				32,
				-22.5
			],
			"type":"VEC3"
		},
		{
			"bufferView":13,
			"componentType":5126,
			"count":16,
			"type":"VEC3"
		},
		{
			"bufferView":14,
			"componentType":5126,
			"count":16,
			"type":"VEC2"
		},
		{
			"bufferView":15,
			"componentType":5123,
			"count":24,
			"type":"SCALAR"
		},
		{
			"bufferView":16,
			"componentType":5126,
			"count":292,
			"max":[
				50,
				32,
				118
			],
			"min":[
				30,
				-1,
				-24
			],
			"type":"VEC3"
		},
		{
			"bufferView":17,
			"componentType":5126,
			"count":292,
			"type":"VEC3"
		},
		{
			"bufferView":18,
			"componentType":5126,
			"count":292,
			"type":"VEC2"
		},
		{
			"bufferView":19,
			"componentType":5123,
			"count":468,
			"type":"SCALAR"
		},
		{
			"bufferView":20,
			"componentType":5126,
			"count":198,
			"max":[
				50,
				32,
				118
			],
			"min":[
				30,
				2,
				-24
			],
			"type":"VEC3"
		},
		{
			"bufferView":21,
			"componentType":5126,
			"count":198,
			"type":"VEC3"
		},
		{
			"bufferView":22,
			"componentType":5126,
			"count":198,
			"type":"VEC2"
		},
		{
			"bufferView":23,
			"componentType":5123,
			"count":450,
			"type":"SCALAR"
		},
		{
			"bufferView":24,
			"componentType":5126,
			"count":16,
			"max":[
				45,
				21.5,
				118
			],
			"min":[
				34.96875,
				21.5,
				-24
			],
			"type":"VEC3"
		},
		{
			"bufferView":25,
			"componentType":5126,
			"count":16,
			"type":"VEC3"
		},
		{
			"bufferView":26,
			"componentType":5126,
			"count":16,
			"type":"VEC2"
		},
		{
			"bufferView":27,
			"componentType":5123,
			"count":24,
			"type":"SCALAR"
		},
		{
			"bufferView":28,
			"componentType":5126,
			"count":24,
			"max":[
				46.5,
				31.75,
				110
			],
			"min":[
				33.5,
				31.75,
				-16
			],
			"type":"VEC3"
		},
		{
			"bufferView":29,
			"componentType":5126,
			"count":24,
			"type":"VEC3"
		},
		{
			"bufferView":30,
			"componentType":5126,
			"count":24,
			"type":"VEC2"
		},
		{
			"bufferView":31,
			"componentType":5123,
			"count":36,
			"type":"SCALAR"
		}
	],
	"bufferViews":[
		{
			"buffer":0,
			"byteLength":48,
			"byteOffset":0,
			"target":34962
		},
		{
			"buffer":0,
			"byteLength":48,
			"byteOffset":48,
			"target":34962
		},
		{
			"buffer":0,
			"byteLength":32,
			"byteOffset":96,
			"target":34962
		},
		{
			"buffer":0,
			"byteLength":12,
			"byteOffset":128,
			"target":34963
		},
		{
			"buffer":0,
			"byteLength":2136,
			"byteOffset":140,
			"target":34962
		},
		{
			"buffer":0,
			"byteLength":2136,
			"byteOffset":2276,
			"target":34962
		},
		{
			"buffer":0,
			"byteLength":1424,
			"byteOffset":4412,
			"target":34962
		},
		{
			"buffer":0,
			"byteLength":672,
			"byteOffset":5836,
			"target":34963
		},
		{
			"buffer":0,
			"byteLength":3864,
			"byteOffset":6508,
			"target":34962
		},
		{
			"buffer":0,
			"byteLength":3864,
			"byteOffset":10372,
			"target":34962
		},
		{
			"buffer":0,
			"byteLength":2576,
			"byteOffset":14236,
			"target":34962
		},
		{
			"buffer":0,
			"byteLength":1416,
			"byteOffset":16812,
			"target":34963
		},
		{
			"buffer":0,
			"byteLength":192,
			"byteOffset":18228,
			"target":34962
		},
		{
			"buffer":0,
			"byteLength":192,
			"byteOffset":18420,
			"target":34962
		},
		{
			"buffer":0,
			"byteLength":128,
			"byteOffset":18612,
			"target":34962
		},
		{
			"buffer":0,
			"byteLength":48,
			"byteOffset":18740,
			"target":34963
		},
		{
			"buffer":0,
			"byteLength":3504,
			"byteOffset":18788,
			"target":34962
		},
		{
			"buffer":0,
			"byteLength":3504,
			"byteOffset":22292,
			"target":34962
		},
		{
			"buffer":0,
			"byteLength":2336,
			"byteOffset":25796,
			"target":34962
		},
		{
			"buffer":0,
			"byteLength":936,
			"byteOffset":28132,
			"target":34963
		},
		{
			"buffer":0,
			"byteLength":2376,
			"byteOffset":29068,
			"target":34962
		},
		{
			"buffer":0,
			"byteLength":2376,
			"byteOffset":31444,
			"target":34962
		},
		{
			"buffer":0,
			"byteLength":1584,
			"byteOffset":33820,
			"target":34962
		},
		{
			"buffer":0,
			"byteLength":900,
			"byteOffset":35404,
			"target":34963
		},
		{
			"buffer":0,
			"byteLength":192,
			"byteOffset":36304,
			"target":34962
		},
		{
			"buffer":0,
			"byteLength":192,
			"byteOffset":36496,
			"target":34962
		},
		{
			"buffer":0,
			"byteLength":128,
			"byteOffset":36688,
			"target":34962
		},
		{
			"buffer":0,
			"byteLength":48,
			"byteOffset":36816,
			"target":34963
		},
		{
			"buffer":0,
			"byteLength":288,
			"byteOffset":36864,
			"target":34962
		},
		{
			"buffer":0,
			"byteLength":288,
			"byteOffset":37152,
			"target":34962
		},
		{
			"buffer":0,
			"byteLength":192,
			"byteOffset":37440,
			"target":34962
		},
		{
			"buffer":0,
			"byteLength":72,
			"byteOffset":37632,
			"target":34963
		}
	],
	"buffers":[
		{
			"byteLength":37704,
			"uri":"dmisc_nefrdbridge1.bin"
		}
	]
}
