{
	"asset":{
		"generator":"Khronos glTF Blender I/O v4.5.48",
		"version":"2.0"
	},
	"scene":0,
	"scenes":[
		{
			"name":"Scene",
			"nodes":[
				0
			]
		}
	],
	"nodes":[
		{
			"mesh":0,
			"name":"Object"
		}
	],
	"materials":[
		{
			"doubleSided":true,
			"name":"DS_EWALL06",
			"pbrMetallicRoughness":{
				"baseColorFactor":[
					0.800000011920929,
					0.800000011920929,
					0.800000011920929,
					1
				],
				"metallicFactor":0,
				"roughnessFactor":0.5
			}
		},
		{
			"doubleSided":true,
			"name":"DS_ICHUTE01",
			"pbrMetallicRoughness":{
				"baseColorFactor":[
					0.800000011920929,
					0.800000011920929,
					0.800000011920929,
					1
				],
				"metallicFactor":0,
				"roughnessFactor":0.5
			}
		},
		{
			"doubleSided":true,
			"name":"DS_ILAVLIGHT",
			"pbrMetallicRoughness":{
				"baseColorFactor":[
					0.800000011920929,
					0.800000011920929,
					0.800000011920929,
					1
				],
				"metallicFactor":0,
				"roughnessFactor":0.5
			}
		},
		{
			"doubleSided":true,
			"name":"DS_EFLOOR1",
			"pbrMetallicRoughness":{
				"baseColorFactor":[
					0.800000011920929,
					0.800000011920929,
					0.800000011920929,
					1
				],
				"metallicFactor":0,
				"roughnessFactor":0.5
			}
		},
		{
			"doubleSided":true,
			"name":"DS_ILIG02",
			"pbrMetallicRoughness":{
				"baseColorFactor":[
					0.800000011920929,
					0.800000011920929,
					0.800000011920929,
					1
				],
				"metallicFactor":0,
				"roughnessFactor":0.5
			}
		},
		{
			"doubleSided":true,
			"name":"DS_GENWALL",
			"pbrMetallicRoughness":{
				"baseColorFactor":[
					0.800000011920929,
					0.800000011920929,
					0.800000011920929,
					1
				],
				"metallicFactor":0,
				"roughnessFactor":0.5
			}
		},
		{
			"doubleSided":true,
			"name":"DS_IFLO03",
			"pbrMetallicRoughness":{
				"baseColorFactor":[
					0.800000011920929,
					0.800000011920929,
					0.800000011920929,
					1
				],
				"metallicFactor":0,
				"roughnessFactor":0.5
			}
		},
		{
			"doubleSided":true,
			"name":"DS_ILIG03",
			"pbrMetallicRoughness":{
				"baseColorFactor":[
					0.800000011920929,
					0.800000011920929,
					0.800000011920929,
					1
				],
				"metallicFactor":0,
				"roughnessFactor":0.5
			}
		},
		{
			"doubleSided":true,
			"name":"DS_ETECHBOR01",
			"pbrMetallicRoughness":{
				"baseColorFactor":[
					0.800000011920929,
					0.800000011920929,
					0.800000011920929,
					1
				],
				"metallicFactor":0,
				"roughnessFactor":0.5
			}
		}
	],
	"meshes":[
		{
			"name":"Mesh",
			"primitives":[
				{
					"attributes":{
						"POSITION":0,
						"NORMAL":1,
						"TEXCOORD_0":2
					},
					"indices":3,
					"material":0
				},
				{
					"attributes":{
						"POSITION":4,
						"NORMAL":5,
						"TEXCOORD_0":6
					},
					"indices":7,
					"material":1
				},
				{
					"attributes":{
						"POSITION":8,
						"NORMAL":9,
						"TEXCOORD_0":10
					},
					"indices":11,
					"material":2
				},
				{
					"attributes":{
						"POSITION":12,
						"NORMAL":13,
						"TEXCOORD_0":14
					},
					"indices":15,
					"material":3
				},
				{
					"attributes":{
						"POSITION":16,
						"NORMAL":17,
						"TEXCOORD_0":18
					},
					"indices":19,
					"material":4
				},
				{
					"attributes":{
						"POSITION":20,
						"NORMAL":21,
						"TEXCOORD_0":22
					},
					"indices":23,
					"material":5
				},
				{
					"attributes":{
						"POSITION":24,
						"NORMAL":25,
						"TEXCOORD_0":26
					},
					"indices":27,
					"material":6
				},
				{
					"attributes":{
						"POSITION":28,
						"NORMAL":29,
						"TEXCOORD_0":30
					},
					"indices":31,
					"material":7
				},
				{
					"attributes":{
						"POSITION":32,
						"NORMAL":33,
						"TEXCOORD_0":34
					},
					"indices":35,
					"material":8
				}
			]
		}
	],
	"accessors":[
		{
			"bufferView":0,
			"componentType":5126,
			"count":204,
			"max":[
				12,
				0,
				-4
			],
			"min":[
				-4,
				-4,
				-20
			],
			"type":"VEC3"
		},
		{
			"bufferView":1,
			"componentType":5126,
			"count":204,
			"type":"VEC3"
		},
		{
			"bufferView":2,
			"componentType":5126,
			"count":204,
			"type":"VEC2"
		},
		{
			"bufferView":3,
			"componentType":5123,
			"count":348,
			"type":"SCALAR"
		},
		{
			"bufferView":4,
			"componentType":5126,
			"count":724,
			"max":[
				13.375,
				16,
				-2.625
			],
			"min":[
				-5.375,
				-6.875,
				-21.375
			],
			"type":"VEC3"
		},
		{
			"bufferView":5,
			"componentType":5126,
			"count":724,
			"type":"VEC3"
		},
		{
			"bufferView":6,
			"componentType":5126,
			"count":724,
			"type":"VEC2"
		},
		{
			"bufferView":7,
			"componentType":5123,
			"count":1236,
			"type":"SCALAR"
		},
		{
			"bufferView":8,
			"componentType":5126,
			"count":32,
			"max":[
				11.75,
				-1,
				-4.25
			],
			"min":[
				-3.75,
				-1.5,
				-19.75
			],
			"type":"VEC3"
		},
		{
			"bufferView":9,
			"componentType":5126,
			"count":32,
			"type":"VEC3"
		},
		{
			"bufferView":10,
			"componentType":5126,
			"count":32,
			"type":"VEC2"
		},
		{
			"bufferView":11,
			"componentType":5123,
			"count":48,
			"type":"SCALAR"
		},
		{
			"bufferView":12,
			"componentType":5126,
			"count":8,
			"max":[
				7.5,
				-1,
				-8.5
			],
			"min":[
				0.5,
				-1,
				-15.5
			],
			"type":"VEC3"
		},
		{
			"bufferView":13,
			"componentType":5126,
			"count":8,
			"type":"VEC3"
		},
		{
			"bufferView":14,
			"componentType":5126,
			"count":8,
			"type":"VEC2"
		},
		{
			"bufferView":15,
			"componentType":5123,
			"count":18,
			"type":"SCALAR"
		},
		{
			"bufferView":16,
			"componentType":5126,
			"count":96,
			"max":[
				11.5,
				0,
				-4.5
			],
			"min":[
				-3.5,
				-0.5,
				-19.5
			],
			"type":"VEC3"
		},
		{
			"bufferView":17,
			"componentType":5126,
			"count":96,
			"type":"VEC3"
		},
		{
			"bufferView":18,
			"componentType":5126,
			"count":96,
			"type":"VEC2"
		},
		{
			"bufferView":19,
			"componentType":5123,
			"count":144,
			"type":"SCALAR"
		},
		{
			"bufferView":20,
			"componentType":5126,
			"count":48,
			"max":[
				12,
				-6,
				-4
			],
			"min":[
				-4,
				-8,
				-20
			],
			"type":"VEC3"
		},
		{
			"bufferView":21,
			"componentType":5126,
			"count":48,
			"type":"VEC3"
		},
		{
			"bufferView":22,
			"componentType":5126,
			"count":48,
			"type":"VEC2"
		},
		{
			"bufferView":23,
			"componentType":5123,
			"count":90,
			"type":"SCALAR"
		},
		{
			"bufferView":24,
			"componentType":5126,
			"count":44,
			"max":[
				11.5,
				-0.5,
				-4.5
			],
			"min":[
				-3.5,
				-0.5,
				-19.5
			],
			"type":"VEC3"
		},
		{
			"bufferView":25,
			"componentType":5126,
			"count":44,
			"type":"VEC3"
		},
		{
			"bufferView":26,
			"componentType":5126,
			"count":44,
			"type":"VEC2"
		},
		{
			"bufferView":27,
			"componentType":5123,
			"count":168,
			"type":"SCALAR"
		},
		{
			"bufferView":28,
			"componentType":5126,
			"count":32,
			"max":[
				8,
				-0.5,
				-8
			],
			"min":[
				0,
				-1,
				-16
			],
			"type":"VEC3"
		},
		{
			"bufferView":29,
			"componentType":5126,
			"count":32,
			"type":"VEC3"
		},
		{
			"bufferView":30,
			"componentType":5126,
			"count":32,
			"type":"VEC2"
		},
		{
			"bufferView":31,
			"componentType":5123,
			"count":48,
			"type":"SCALAR"
		},
		{
			"bufferView":32,
			"componentType":5126,
			"count":32,
			"max":[
				9.5,
				-4,
				-6.5
			],
			"min":[
				-1.5,
				-6,
				-17.5
			],
			"type":"VEC3"
		},
		{
			"bufferView":33,
			"componentType":5126,
			"count":32,
			"type":"VEC3"
		},
		{
			"bufferView":34,
			"componentType":5126,
			"count":32,
			"type":"VEC2"
		},
		{
			"bufferView":35,
			"componentType":5123,
			"count":48,
			"type":"SCALAR"
		}
	],
	"bufferViews":[
		{
			"buffer":0,
			"byteLength":2448,
			"byteOffset":0,
			"target":34962
		},
		{
			"buffer":0,
			"byteLength":2448,
			"byteOffset":2448,
			"target":34962
		},
		{
			"buffer":0,
			"byteLength":1632,
			"byteOffset":4896,
			"target":34962
		},
		{
			"buffer":0,
			"byteLength":696,
			"byteOffset":6528,
			"target":34963
		},
		{
			"buffer":0,
			"byteLength":8688,
			"byteOffset":7224,
			"target":34962
		},
		{
			"buffer":0,
			"byteLength":8688,
			"byteOffset":15912,
			"target":34962
		},
		{
			"buffer":0,
			"byteLength":5792,
			"byteOffset":24600,
			"target":34962
		},
		{
			"buffer":0,
			"byteLength":2472,
			"byteOffset":30392,
			"target":34963
		},
		{
			"buffer":0,
			"byteLength":384,
			"byteOffset":32864,
			"target":34962
		},
		{
			"buffer":0,
			"byteLength":384,
			"byteOffset":33248,
			"target":34962
		},
		{
			"buffer":0,
			"byteLength":256,
			"byteOffset":33632,
			"target":34962
		},
		{
			"buffer":0,
			"byteLength":96,
			"byteOffset":33888,
			"target":34963
		},
		{
			"buffer":0,
			"byteLength":96,
			"byteOffset":33984,
			"target":34962
		},
		{
			"buffer":0,
			"byteLength":96,
			"byteOffset":34080,
			"target":34962
		},
		{
			"buffer":0,
			"byteLength":64,
			"byteOffset":34176,
			"target":34962
		},
		{
			"buffer":0,
			"byteLength":36,
			"byteOffset":34240,
			"target":34963
		},
		{
			"buffer":0,
			"byteLength":1152,
			"byteOffset":34276,
			"target":34962
		},
		{
			"buffer":0,
			"byteLength":1152,
			"byteOffset":35428,
			"target":34962
		},
		{
			"buffer":0,
			"byteLength":768,
			"byteOffset":36580,
			"target":34962
		},
		{
			"buffer":0,
			"byteLength":288,
			"byteOffset":37348,
			"target":34963
		},
		{
			"buffer":0,
			"byteLength":576,
			"byteOffset":37636,
			"target":34962
		},
		{
			"buffer":0,
			"byteLength":576,
			"byteOffset":38212,
			"target":34962
		},
		{
			"buffer":0,
			"byteLength":384,
			"byteOffset":38788,
			"target":34962
		},
		{
			"buffer":0,
			"byteLength":180,
			"byteOffset":39172,
			"target":34963
		},
		{
			"buffer":0,
			"byteLength":528,
			"byteOffset":39352,
			"target":34962
		},
		{
			"buffer":0,
			"byteLength":528,
			"byteOffset":39880,
			"target":34962
		},
		{
			"buffer":0,
			"byteLength":352,
			"byteOffset":40408,
			"target":34962
		},
		{
			"buffer":0,
			"byteLength":336,
			"byteOffset":40760,
			"target":34963
		},
		{
			"buffer":0,
			"byteLength":384,
			"byteOffset":41096,
			"target":34962
		},
		{
			"buffer":0,
			"byteLength":384,
			"byteOffset":41480,
			"target":34962
		},
		{
			"buffer":0,
			"byteLength":256,
			"byteOffset":41864,
			"target":34962
		},
		{
			"buffer":0,
			"byteLength":96,
			"byteOffset":42120,
			"target":34963
		},
		{
			"buffer":0,
			"byteLength":384,
			"byteOffset":42216,
			"target":34962
		},
		{
			"buffer":0,
			"byteLength":384,
			"byteOffset":42600,
			"target":34962
		},
		{
			"buffer":0,
			"byteLength":256,
			"byteOffset":42984,
			"target":34962
		},
		{
			"buffer":0,
			"byteLength":96,
			"byteOffset":43240,
			"target":34963
		}
	],
	"buffers":[
		{
			"byteLength":43336,
			"uri":"dmisc_nefflagstand2.bin"
		}
	]
}
