{
	"asset":{
		"generator":"Khronos glTF Blender I/O v4.5.48",
		"version":"2.0"
	},
	"scene":0,
	"scenes":[
		{
			"name":"Scene",
			"nodes":[
				0
			]
		}
	],
	"nodes":[
		{
			"mesh":0,
			"name":"Object"
		}
	],
	"materials":[
		{
			"doubleSided":true,
			"name":"DS_ILAVLIGHT",
			"pbrMetallicRoughness":{
				"baseColorFactor":[
					0.800000011920929,
					0.800000011920929,
					0.800000011920929,
					1
				],
				"metallicFactor":0,
				"roughnessFactor":0.5
			}
		},
		{
			"doubleSided":true,
			"name":"DS_EFLOOR1",
			"pbrMetallicRoughness":{
				"baseColorFactor":[
					0.800000011920929,
					0.800000011920929,
					0.800000011920929,
					1
				],
				"metallicFactor":0,
				"roughnessFactor":0.5
			}
		},
		{
			"doubleSided":true,
			"name":"DS_NEFWALL1",
			"pbrMetallicRoughness":{
				"baseColorFactor":[
					0.800000011920929,
					0.800000011920929,
					0.800000011920929,
					1
				],
				"metallicFactor":0,
				"roughnessFactor":0.5
			}
		},
		{
			"doubleSided":true,
			"name":"DS_ICHUTE01",
			"pbrMetallicRoughness":{
				"baseColorFactor":[
					0.800000011920929,
					0.800000011920929,
					0.800000011920929,
					1
				],
				"metallicFactor":0,
				"roughnessFactor":0.5
			}
		},
		{
			"doubleSided":true,
			"name":"DS_NEFBLUE1",
			"pbrMetallicRoughness":{
				"baseColorFactor":[
					0.800000011920929,
					0.800000011920929,
					0.800000011920929,
					1
				],
				"metallicFactor":0,
				"roughnessFactor":0.5
			}
		},
		{
			"doubleSided":true,
			"name":"DS_ILIG02",
			"pbrMetallicRoughness":{
				"baseColorFactor":[
					0.800000011920929,
					0.800000011920929,
					0.800000011920929,
					1
				],
				"metallicFactor":0,
				"roughnessFactor":0.5
			}
		},
		{
			"doubleSided":true,
			"name":"DS_NEFFLOOR6",
			"pbrMetallicRoughness":{
				"baseColorFactor":[
					0.800000011920929,
					0.800000011920929,
					0.800000011920929,
					1
				],
				"metallicFactor":0,
				"roughnessFactor":0.5
			}
		},
		{
			"doubleSided":true,
			"name":"DS_ILIG03",
			"pbrMetallicRoughness":{
				"baseColorFactor":[
					0.800000011920929,
					0.800000011920929,
					0.800000011920929,
					1
				],
				"metallicFactor":0,
				"roughnessFactor":0.5
			}
		},
		{
			"doubleSided":true,
			"name":"DS_NEFBLUE",
			"pbrMetallicRoughness":{
				"baseColorFactor":[
					0.800000011920929,
					0.800000011920929,
					0.800000011920929,
					1
				],
				"metallicFactor":0,
				"roughnessFactor":0.5
			}
		},
		{
			"doubleSided":true,
			"name":"DS_FLOORGRATE1",
			"pbrMetallicRoughness":{
				"baseColorFactor":[
					0.800000011920929,
					0.800000011920929,
					0.800000011920929,
					1
				],
				"metallicFactor":0,
				"roughnessFactor":0.5
			}
		},
		{
			"doubleSided":true,
			"name":"DS_IWAL01",
			"pbrMetallicRoughness":{
				"baseColorFactor":[
					0.800000011920929,
					0.800000011920929,
					0.800000011920929,
					1
				],
				"metallicFactor":0,
				"roughnessFactor":0.5
			}
		},
		{
			"doubleSided":true,
			"name":"DS_IBOR03",
			"pbrMetallicRoughness":{
				"baseColorFactor":[
					0.800000011920929,
					0.800000011920929,
					0.800000011920929,
					1
				],
				"metallicFactor":0,
				"roughnessFactor":0.5
			}
		},
		{
			"doubleSided":true,
			"name":"DS_MRIVETED2",
			"pbrMetallicRoughness":{
				"baseColorFactor":[
					0.800000011920929,
					0.800000011920929,
					0.800000011920929,
					1
				],
				"metallicFactor":0,
				"roughnessFactor":0.5
			}
		}
	],
	"meshes":[
		{
			"name":"Mesh",
			"primitives":[
				{
					"attributes":{
						"POSITION":0,
						"NORMAL":1,
						"TEXCOORD_0":2
					},
					"indices":3,
					"material":0
				},
				{
					"attributes":{
						"POSITION":4,
						"NORMAL":5,
						"TEXCOORD_0":6
					},
					"indices":7,
					"material":1
				},
				{
					"attributes":{
						"POSITION":8,
						"NORMAL":9,
						"TEXCOORD_0":10
					},
					"indices":11,
					"material":2
				},
				{
					"attributes":{
						"POSITION":12,
						"NORMAL":13,
						"TEXCOORD_0":14
					},
					"indices":15,
					"material":3
				},
				{
					"attributes":{
						"POSITION":16,
						"NORMAL":17,
						"TEXCOORD_0":18
					},
					"indices":19,
					"material":4
				},
				{
					"attributes":{
						"POSITION":20,
						"NORMAL":21,
						"TEXCOORD_0":22
					},
					"indices":23,
					"material":5
				},
				{
					"attributes":{
						"POSITION":24,
						"NORMAL":25,
						"TEXCOORD_0":26
					},
					"indices":27,
					"material":6
				},
				{
					"attributes":{
						"POSITION":28,
						"NORMAL":29,
						"TEXCOORD_0":30
					},
					"indices":31,
					"material":7
				},
				{
					"attributes":{
						"POSITION":32,
						"NORMAL":33,
						"TEXCOORD_0":34
					},
					"indices":35,
					"material":8
				},
				{
					"attributes":{
						"POSITION":36,
						"NORMAL":37,
						"TEXCOORD_0":38
					},
					"indices":39,
					"material":9
				},
				{
					"attributes":{
						"POSITION":40,
						"NORMAL":41,
						"TEXCOORD_0":42
					},
					"indices":43,
					"material":10
				},
				{
					"attributes":{
						"POSITION":44,
						"NORMAL":45,
						"TEXCOORD_0":46
					},
					"indices":47,
					"material":11
				},
				{
					"attributes":{
						"POSITION":48,
						"NORMAL":49,
						"TEXCOORD_0":50
					},
					"indices":51,
					"material":12
				}
			]
		}
	],
	"accessors":[
		{
			"bufferView":0,
			"componentType":5126,
			"count":32,
			"max":[
				11.75,
				-7,
				-4.25
			],
			"min":[
				-3.75,
				-7.5,
				-19.75
			],
			"type":"VEC3"
		},
		{
			"bufferView":1,
			"componentType":5126,
			"count":32,
			"type":"VEC3"
		},
		{
			"bufferView":2,
			"componentType":5126,
			"count":32,
			"type":"VEC2"
		},
		{
			"bufferView":3,
			"componentType":5123,
			"count":48,
			"type":"SCALAR"
		},
		{
			"bufferView":4,
			"componentType":5126,
			"count":8,
			"max":[
				7.5,
				-7,
				-8.5
			],
			"min":[
				0.5,
				-7,
				-15.5
			],
			"type":"VEC3"
		},
		{
			"bufferView":5,
			"componentType":5126,
			"count":8,
			"type":"VEC3"
		},
		{
			"bufferView":6,
			"componentType":5126,
			"count":8,
			"type":"VEC2"
		},
		{
			"bufferView":7,
			"componentType":5123,
			"count":18,
			"type":"SCALAR"
		},
		{
			"bufferView":8,
			"componentType":5126,
			"count":73,
			"max":[
				12,
				-7.5,
				-4
			],
			"min":[
				-4,
				-12,
				-20
			],
			"type":"VEC3"
		},
		{
			"bufferView":9,
			"componentType":5126,
			"count":73,
			"type":"VEC3"
		},
		{
			"bufferView":10,
			"componentType":5126,
			"count":73,
			"type":"VEC2"
		},
		{
			"bufferView":11,
			"componentType":5123,
			"count":144,
			"type":"SCALAR"
		},
		{
			"bufferView":12,
			"componentType":5126,
			"count":764,
			"max":[
				64,
				-7,
				48
			],
			"min":[
				-56,
				-28,
				-72
			],
			"type":"VEC3"
		},
		{
			"bufferView":13,
			"componentType":5126,
			"count":764,
			"type":"VEC3"
		},
		{
			"bufferView":14,
			"componentType":5126,
			"count":764,
			"type":"VEC2"
		},
		{
			"bufferView":15,
			"componentType":5123,
			"count":1140,
			"type":"SCALAR"
		},
		{
			"bufferView":16,
			"componentType":5126,
			"count":144,
			"max":[
				12,
				-6,
				-4
			],
			"min":[
				-4,
				-16,
				-20
			],
			"type":"VEC3"
		},
		{
			"bufferView":17,
			"componentType":5126,
			"count":144,
			"type":"VEC3"
		},
		{
			"bufferView":18,
			"componentType":5126,
			"count":144,
			"type":"VEC2"
		},
		{
			"bufferView":19,
			"componentType":5123,
			"count":228,
			"type":"SCALAR"
		},
		{
			"bufferView":20,
			"componentType":5126,
			"count":48,
			"max":[
				12,
				-6,
				-4
			],
			"min":[
				-4,
				-12,
				-20
			],
			"type":"VEC3"
		},
		{
			"bufferView":21,
			"componentType":5126,
			"count":48,
			"type":"VEC3"
		},
		{
			"bufferView":22,
			"componentType":5126,
			"count":48,
			"type":"VEC2"
		},
		{
			"bufferView":23,
			"componentType":5123,
			"count":72,
			"type":"SCALAR"
		},
		{
			"bufferView":24,
			"componentType":5126,
			"count":20,
			"max":[
				11.5,
				-6.5,
				-4.5
			],
			"min":[
				-3.5,
				-6.5,
				-19.5
			],
			"type":"VEC3"
		},
		{
			"bufferView":25,
			"componentType":5126,
			"count":20,
			"type":"VEC3"
		},
		{
			"bufferView":26,
			"componentType":5126,
			"count":20,
			"type":"VEC2"
		},
		{
			"bufferView":27,
			"componentType":5123,
			"count":72,
			"type":"SCALAR"
		},
		{
			"bufferView":28,
			"componentType":5126,
			"count":32,
			"max":[
				8,
				-6.5,
				-8
			],
			"min":[
				0,
				-7,
				-16
			],
			"type":"VEC3"
		},
		{
			"bufferView":29,
			"componentType":5126,
			"count":32,
			"type":"VEC3"
		},
		{
			"bufferView":30,
			"componentType":5126,
			"count":32,
			"type":"VEC2"
		},
		{
			"bufferView":31,
			"componentType":5123,
			"count":48,
			"type":"SCALAR"
		},
		{
			"bufferView":32,
			"componentType":5126,
			"count":60,
			"max":[
				12,
				-12,
				-4
			],
			"min":[
				-4,
				-16,
				-20
			],
			"type":"VEC3"
		},
		{
			"bufferView":33,
			"componentType":5126,
			"count":60,
			"type":"VEC3"
		},
		{
			"bufferView":34,
			"componentType":5126,
			"count":60,
			"type":"VEC2"
		},
		{
			"bufferView":35,
			"componentType":5123,
			"count":138,
			"type":"SCALAR"
		},
		{
			"bufferView":36,
			"componentType":5126,
			"count":16,
			"max":[
				11,
				-12,
				-5
			],
			"min":[
				-3,
				-16,
				-19
			],
			"type":"VEC3"
		},
		{
			"bufferView":37,
			"componentType":5126,
			"count":16,
			"type":"VEC3"
		},
		{
			"bufferView":38,
			"componentType":5126,
			"count":16,
			"type":"VEC2"
		},
		{
			"bufferView":39,
			"componentType":5123,
			"count":24,
			"type":"SCALAR"
		},
		{
			"bufferView":40,
			"componentType":5126,
			"count":448,
			"max":[
				17,
				-8,
				1
			],
			"min":[
				-9,
				-12,
				-25
			],
			"type":"VEC3"
		},
		{
			"bufferView":41,
			"componentType":5126,
			"count":448,
			"type":"VEC3"
		},
		{
			"bufferView":42,
			"componentType":5126,
			"count":448,
			"type":"VEC2"
		},
		{
			"bufferView":43,
			"componentType":5123,
			"count":1380,
			"type":"SCALAR"
		},
		{
			"bufferView":44,
			"componentType":5126,
			"count":420,
			"max":[
				17,
				-8,
				1
			],
			"min":[
				-9,
				-12,
				-25
			],
			"type":"VEC3"
		},
		{
			"bufferView":45,
			"componentType":5126,
			"count":420,
			"type":"VEC3"
		},
		{
			"bufferView":46,
			"componentType":5126,
			"count":420,
			"type":"VEC2"
		},
		{
			"bufferView":47,
			"componentType":5123,
			"count":876,
			"type":"SCALAR"
		},
		{
			"bufferView":48,
			"componentType":5126,
			"count":256,
			"max":[
				16.5,
				-8.25,
				0.5
			],
			"min":[
				-8.5,
				-11.75,
				-24.5
			],
			"type":"VEC3"
		},
		{
			"bufferView":49,
			"componentType":5126,
			"count":256,
			"type":"VEC3"
		},
		{
			"bufferView":50,
			"componentType":5126,
			"count":256,
			"type":"VEC2"
		},
		{
			"bufferView":51,
			"componentType":5123,
			"count":384,
			"type":"SCALAR"
		}
	],
	"bufferViews":[
		{
			"buffer":0,
			"byteLength":384,
			"byteOffset":0,
			"target":34962
		},
		{
			"buffer":0,
			"byteLength":384,
			"byteOffset":384,
			"target":34962
		},
		{
			"buffer":0,
			"byteLength":256,
			"byteOffset":768,
			"target":34962
		},
		{
			"buffer":0,
			"byteLength":96,
			"byteOffset":1024,
			"target":34963
		},
		{
			"buffer":0,
			"byteLength":96,
			"byteOffset":1120,
			"target":34962
		},
		{
			"buffer":0,
			"byteLength":96,
			"byteOffset":1216,
			"target":34962
		},
		{
			"buffer":0,
			"byteLength":64,
			"byteOffset":1312,
			"target":34962
		},
		{
			"buffer":0,
			"byteLength":36,
			"byteOffset":1376,
			"target":34963
		},
		{
			"buffer":0,
			"byteLength":876,
			"byteOffset":1412,
			"target":34962
		},
		{
			"buffer":0,
			"byteLength":876,
			"byteOffset":2288,
			"target":34962
		},
		{
			"buffer":0,
			"byteLength":584,
			"byteOffset":3164,
			"target":34962
		},
		{
			"buffer":0,
			"byteLength":288,
			"byteOffset":3748,
			"target":34963
		},
		{
			"buffer":0,
			"byteLength":9168,
			"byteOffset":4036,
			"target":34962
		},
		{
			"buffer":0,
			"byteLength":9168,
			"byteOffset":13204,
			"target":34962
		},
		{
			"buffer":0,
			"byteLength":6112,
			"byteOffset":22372,
			"target":34962
		},
		{
			"buffer":0,
			"byteLength":2280,
			"byteOffset":28484,
			"target":34963
		},
		{
			"buffer":0,
			"byteLength":1728,
			"byteOffset":30764,
			"target":34962
		},
		{
			"buffer":0,
			"byteLength":1728,
			"byteOffset":32492,
			"target":34962
		},
		{
			"buffer":0,
			"byteLength":1152,
			"byteOffset":34220,
			"target":34962
		},
		{
			"buffer":0,
			"byteLength":456,
			"byteOffset":35372,
			"target":34963
		},
		{
			"buffer":0,
			"byteLength":576,
			"byteOffset":35828,
			"target":34962
		},
		{
			"buffer":0,
			"byteLength":576,
			"byteOffset":36404,
			"target":34962
		},
		{
			"buffer":0,
			"byteLength":384,
			"byteOffset":36980,
			"target":34962
		},
		{
			"buffer":0,
			"byteLength":144,
			"byteOffset":37364,
			"target":34963
		},
		{
			"buffer":0,
			"byteLength":240,
			"byteOffset":37508,
			"target":34962
		},
		{
			"buffer":0,
			"byteLength":240,
			"byteOffset":37748,
			"target":34962
		},
		{
			"buffer":0,
			"byteLength":160,
			"byteOffset":37988,
			"target":34962
		},
		{
			"buffer":0,
			"byteLength":144,
			"byteOffset":38148,
			"target":34963
		},
		{
			"buffer":0,
			"byteLength":384,
			"byteOffset":38292,
			"target":34962
		},
		{
			"buffer":0,
			"byteLength":384,
			"byteOffset":38676,
			"target":34962
		},
		{
			"buffer":0,
			"byteLength":256,
			"byteOffset":39060,
			"target":34962
		},
		{
			"buffer":0,
			"byteLength":96,
			"byteOffset":39316,
			"target":34963
		},
		{
			"buffer":0,
			"byteLength":720,
			"byteOffset":39412,
			"target":34962
		},
		{
			"buffer":0,
			"byteLength":720,
			"byteOffset":40132,
			"target":34962
		},
		{
			"buffer":0,
			"byteLength":480,
			"byteOffset":40852,
			"target":34962
		},
		{
			"buffer":0,
			"byteLength":276,
			"byteOffset":41332,
			"target":34963
		},
		{
			"buffer":0,
			"byteLength":192,
			"byteOffset":41608,
			"target":34962
		},
		{
			"buffer":0,
			"byteLength":192,
			"byteOffset":41800,
			"target":34962
		},
		{
			"buffer":0,
			"byteLength":128,
			"byteOffset":41992,
			"target":34962
		},
		{
			"buffer":0,
			"byteLength":48,
			"byteOffset":42120,
			"target":34963
		},
		{
			"buffer":0,
			"byteLength":5376,
			"byteOffset":42168,
			"target":34962
		},
		{
			"buffer":0,
			"byteLength":5376,
			"byteOffset":47544,
			"target":34962
		},
		{
			"buffer":0,
			"byteLength":3584,
			"byteOffset":52920,
			"target":34962
		},
		{
			"buffer":0,
			"byteLength":2760,
			"byteOffset":56504,
			"target":34963
		},
		{
			"buffer":0,
			"byteLength":5040,
			"byteOffset":59264,
			"target":34962
		},
		{
			"buffer":0,
			"byteLength":5040,
			"byteOffset":64304,
			"target":34962
		},
		{
			"buffer":0,
			"byteLength":3360,
			"byteOffset":69344,
			"target":34962
		},
		{
			"buffer":0,
			"byteLength":1752,
			"byteOffset":72704,
			"target":34963
		},
		{
			"buffer":0,
			"byteLength":3072,
			"byteOffset":74456,
			"target":34962
		},
		{
			"buffer":0,
			"byteLength":3072,
			"byteOffset":77528,
			"target":34962
		},
		{
			"buffer":0,
			"byteLength":2048,
			"byteOffset":80600,
			"target":34962
		},
		{
			"buffer":0,
			"byteLength":768,
			"byteOffset":82648,
			"target":34963
		}
	],
	"buffers":[
		{
			"byteLength":83416,
			"uri":"dmisc_nefflagstand3.bin"
		}
	]
}
