{
	"asset":{
		"generator":"Khronos glTF Blender I/O v4.5.48",
		"version":"2.0"
	},
	"scene":0,
	"scenes":[
		{
			"name":"Scene",
			"nodes":[
				0
			]
		}
	],
	"nodes":[
		{
			"mesh":0,
			"name":"Object"
		}
	],
	"materials":[
		{
			"doubleSided":true,
			"name":"DS_NEFWALL1",
			"pbrMetallicRoughness":{
				"baseColorFactor":[
					0.800000011920929,
					0.800000011920929,
					0.800000011920929,
					1
				],
				"metallicFactor":0,
				"roughnessFactor":0.5
			}
		},
		{
			"doubleSided":true,
			"name":"DS_NEFBLUE2",
			"pbrMetallicRoughness":{
				"baseColorFactor":[
					0.800000011920929,
					0.800000011920929,
					0.800000011920929,
					1
				],
				"metallicFactor":0,
				"roughnessFactor":0.5
			}
		},
		{
			"doubleSided":true,
			"name":"DS_NEFBLUE",
			"pbrMetallicRoughness":{
				"baseColorFactor":[
					0.800000011920929,
					0.800000011920929,
					0.800000011920929,
					1
				],
				"metallicFactor":0,
				"roughnessFactor":0.5
			}
		},
		{
			"doubleSided":true,
			"name":"DS_ILIG02",
			"pbrMetallicRoughness":{
				"baseColorFactor":[
					0.800000011920929,
					0.800000011920929,
					0.800000011920929,
					1
				],
				"metallicFactor":0,
				"roughnessFactor":0.5
			}
		},
		{
			"doubleSided":true,
			"name":"DS_NEFBLTRIM",
			"pbrMetallicRoughness":{
				"baseColorFactor":[
					0.800000011920929,
					0.800000011920929,
					0.800000011920929,
					1
				],
				"metallicFactor":0,
				"roughnessFactor":0.5
			}
		},
		{
			"doubleSided":true,
			"name":"DS_NEFFLOOR5",
			"pbrMetallicRoughness":{
				"baseColorFactor":[
					0.800000011920929,
					0.800000011920929,
					0.800000011920929,
					1
				],
				"metallicFactor":0,
				"roughnessFactor":0.5
			}
		},
		{
			"doubleSided":true,
			"name":"DS_ILIG03",
			"pbrMetallicRoughness":{
				"baseColorFactor":[
					0.800000011920929,
					0.800000011920929,
					0.800000011920929,
					1
				],
				"metallicFactor":0,
				"roughnessFactor":0.5
			}
		},
		{
			"doubleSided":true,
			"name":"DS_NEFBLUE1",
			"pbrMetallicRoughness":{
				"baseColorFactor":[
					0.800000011920929,
					0.800000011920929,
					0.800000011920929,
					1
				],
				"metallicFactor":0,
				"roughnessFactor":0.5
			}
		},
		{
			"doubleSided":true,
			"name":"DS_EFLOOR1",
			"pbrMetallicRoughness":{
				"baseColorFactor":[
					0.800000011920929,
					0.800000011920929,
					0.800000011920929,
					1
				],
				"metallicFactor":0,
				"roughnessFactor":0.5
			}
		},
		{
			"doubleSided":true,
			"name":"DS_TECHBORDER1",
			"pbrMetallicRoughness":{
				"baseColorFactor":[
					0.800000011920929,
					0.800000011920929,
					0.800000011920929,
					1
				],
				"metallicFactor":0,
				"roughnessFactor":0.5
			}
		},
		{
			"doubleSided":true,
			"name":"DS_ILIG06",
			"pbrMetallicRoughness":{
				"baseColorFactor":[
					0.800000011920929,
					0.800000011920929,
					0.800000011920929,
					1
				],
				"metallicFactor":0,
				"roughnessFactor":0.5
			}
		}
	],
	"meshes":[
		{
			"name":"Mesh",
			"primitives":[
				{
					"attributes":{
						"POSITION":0,
						"NORMAL":1,
						"TEXCOORD_0":2
					},
					"indices":3,
					"material":0
				},
				{
					"attributes":{
						"POSITION":4,
						"NORMAL":5,
						"TEXCOORD_0":6
					},
					"indices":7,
					"material":1
				},
				{
					"attributes":{
						"POSITION":8,
						"NORMAL":9,
						"TEXCOORD_0":10
					},
					"indices":11,
					"material":2
				},
				{
					"attributes":{
						"POSITION":12,
						"NORMAL":13,
						"TEXCOORD_0":14
					},
					"indices":15,
					"material":3
				},
				{
					"attributes":{
						"POSITION":16,
						"NORMAL":17,
						"TEXCOORD_0":18
					},
					"indices":19,
					"material":4
				},
				{
					"attributes":{
						"POSITION":20,
						"NORMAL":21,
						"TEXCOORD_0":22
					},
					"indices":23,
					"material":5
				},
				{
					"attributes":{
						"POSITION":24,
						"NORMAL":25,
						"TEXCOORD_0":26
					},
					"indices":27,
					"material":6
				},
				{
					"attributes":{
						"POSITION":28,
						"NORMAL":29,
						"TEXCOORD_0":30
					},
					"indices":31,
					"material":7
				},
				{
					"attributes":{
						"POSITION":32,
						"NORMAL":33,
						"TEXCOORD_0":34
					},
					"indices":35,
					"material":8
				},
				{
					"attributes":{
						"POSITION":36,
						"NORMAL":37,
						"TEXCOORD_0":38
					},
					"indices":39,
					"material":9
				},
				{
					"attributes":{
						"POSITION":40,
						"NORMAL":41,
						"TEXCOORD_0":42
					},
					"indices":43,
					"material":10
				}
			]
		}
	],
	"accessors":[
		{
			"bufferView":0,
			"componentType":5126,
			"count":52,
			"max":[
				17,
				22,
				-5
			],
			"min":[
				3,
				-6,
				-19
			],
			"type":"VEC3"
		},
		{
			"bufferView":1,
			"componentType":5126,
			"count":52,
			"type":"VEC3"
		},
		{
			"bufferView":2,
			"componentType":5126,
			"count":52,
			"type":"VEC2"
		},
		{
			"bufferView":3,
			"componentType":5123,
			"count":102,
			"type":"SCALAR"
		},
		{
			"bufferView":4,
			"componentType":5126,
			"count":461,
			"max":[
				26,
				22,
				4
			],
			"min":[
				-6,
				-46,
				-28
			],
			"type":"VEC3"
		},
		{
			"bufferView":5,
			"componentType":5126,
			"count":461,
			"type":"VEC3"
		},
		{
			"bufferView":6,
			"componentType":5126,
			"count":461,
			"type":"VEC2"
		},
		{
			"bufferView":7,
			"componentType":5123,
			"count":1005,
			"type":"SCALAR"
		},
		{
			"bufferView":8,
			"componentType":5126,
			"count":110,
			"max":[
				23,
				7,
				1
			],
			"min":[
				-3,
				-44.5,
				-25
			],
			"type":"VEC3"
		},
		{
			"bufferView":9,
			"componentType":5126,
			"count":110,
			"type":"VEC3"
		},
		{
			"bufferView":10,
			"componentType":5126,
			"count":110,
			"type":"VEC2"
		},
		{
			"bufferView":11,
			"componentType":5123,
			"count":294,
			"type":"SCALAR"
		},
		{
			"bufferView":12,
			"componentType":5126,
			"count":16,
			"max":[
				15,
				9,
				-7
			],
			"min":[
				5,
				8,
				-17
			],
			"type":"VEC3"
		},
		{
			"bufferView":13,
			"componentType":5126,
			"count":16,
			"type":"VEC3"
		},
		{
			"bufferView":14,
			"componentType":5126,
			"count":16,
			"type":"VEC2"
		},
		{
			"bufferView":15,
			"componentType":5123,
			"count":24,
			"type":"SCALAR"
		},
		{
			"bufferView":16,
			"componentType":5126,
			"count":26,
			"max":[
				25,
				-5,
				3
			],
			"min":[
				-5,
				-6,
				-27
			],
			"type":"VEC3"
		},
		{
			"bufferView":17,
			"componentType":5126,
			"count":26,
			"type":"VEC3"
		},
		{
			"bufferView":18,
			"componentType":5126,
			"count":26,
			"type":"VEC2"
		},
		{
			"bufferView":19,
			"componentType":5123,
			"count":54,
			"type":"SCALAR"
		},
		{
			"bufferView":20,
			"componentType":5126,
			"count":44,
			"max":[
				25,
				-6,
				3
			],
			"min":[
				-5,
				-6,
				-27
			],
			"type":"VEC3"
		},
		{
			"bufferView":21,
			"componentType":5126,
			"count":44,
			"type":"VEC3"
		},
		{
			"bufferView":22,
			"componentType":5126,
			"count":44,
			"type":"VEC2"
		},
		{
			"bufferView":23,
			"componentType":5123,
			"count":138,
			"type":"SCALAR"
		},
		{
			"bufferView":24,
			"componentType":5126,
			"count":78,
			"max":[
				18,
				-6,
				-4
			],
			"min":[
				2,
				-38,
				-20
			],
			"type":"VEC3"
		},
		{
			"bufferView":25,
			"componentType":5126,
			"count":78,
			"type":"VEC3"
		},
		{
			"bufferView":26,
			"componentType":5126,
			"count":78,
			"type":"VEC2"
		},
		{
			"bufferView":27,
			"componentType":5123,
			"count":162,
			"type":"SCALAR"
		},
		{
			"bufferView":28,
			"componentType":5126,
			"count":164,
			"max":[
				19,
				8,
				-3
			],
			"min":[
				-6,
				-45,
				-21
			],
			"type":"VEC3"
		},
		{
			"bufferView":29,
			"componentType":5126,
			"count":164,
			"type":"VEC3"
		},
		{
			"bufferView":30,
			"componentType":5126,
			"count":164,
			"type":"VEC2"
		},
		{
			"bufferView":31,
			"componentType":5123,
			"count":330,
			"type":"SCALAR"
		},
		{
			"bufferView":32,
			"componentType":5126,
			"count":9,
			"max":[
				7,
				-44,
				-7.375
			],
			"min":[
				-4,
				-46,
				-16.625
			],
			"type":"VEC3"
		},
		{
			"bufferView":33,
			"componentType":5126,
			"count":9,
			"type":"VEC3"
		},
		{
			"bufferView":34,
			"componentType":5126,
			"count":9,
			"type":"VEC2"
		},
		{
			"bufferView":35,
			"componentType":5123,
			"count":15,
			"type":"SCALAR"
		},
		{
			"bufferView":36,
			"componentType":5126,
			"count":4,
			"max":[
				7,
				-44,
				-9
			],
			"min":[
				7,
				-44.5,
				-15
			],
			"type":"VEC3"
		},
		{
			"bufferView":37,
			"componentType":5126,
			"count":4,
			"type":"VEC3"
		},
		{
			"bufferView":38,
			"componentType":5126,
			"count":4,
			"type":"VEC2"
		},
		{
			"bufferView":39,
			"componentType":5123,
			"count":6,
			"type":"SCALAR"
		},
		{
			"bufferView":40,
			"componentType":5126,
			"count":12,
			"max":[
				11.25,
				6.875,
				-8.25
			],
			"min":[
				8.75,
				-23,
				-15.75
			],
			"type":"VEC3"
		},
		{
			"bufferView":41,
			"componentType":5126,
			"count":12,
			"type":"VEC3"
		},
		{
			"bufferView":42,
			"componentType":5126,
			"count":12,
			"type":"VEC2"
		},
		{
			"bufferView":43,
			"componentType":5123,
			"count":18,
			"type":"SCALAR"
		}
	],
	"bufferViews":[
		{
			"buffer":0,
			"byteLength":624,
			"byteOffset":0,
			"target":34962
		},
		{
			"buffer":0,
			"byteLength":624,
			"byteOffset":624,
			"target":34962
		},
		{
			"buffer":0,
			"byteLength":416,
			"byteOffset":1248,
			"target":34962
		},
		{
			"buffer":0,
			"byteLength":204,
			"byteOffset":1664,
			"target":34963
		},
		{
			"buffer":0,
			"byteLength":5532,
			"byteOffset":1868,
			"target":34962
		},
		{
			"buffer":0,
			"byteLength":5532,
			"byteOffset":7400,
			"target":34962
		},
		{
			"buffer":0,
			"byteLength":3688,
			"byteOffset":12932,
			"target":34962
		},
		{
			"buffer":0,
			"byteLength":2010,
			"byteOffset":16620,
			"target":34963
		},
		{
			"buffer":0,
			"byteLength":1320,
			"byteOffset":18632,
			"target":34962
		},
		{
			"buffer":0,
			"byteLength":1320,
			"byteOffset":19952,
			"target":34962
		},
		{
			"buffer":0,
			"byteLength":880,
			"byteOffset":21272,
			"target":34962
		},
		{
			"buffer":0,
			"byteLength":588,
			"byteOffset":22152,
			"target":34963
		},
		{
			"buffer":0,
			"byteLength":192,
			"byteOffset":22740,
			"target":34962
		},
		{
			"buffer":0,
			"byteLength":192,
			"byteOffset":22932,
			"target":34962
		},
		{
			"buffer":0,
			"byteLength":128,
			"byteOffset":23124,
			"target":34962
		},
		{
			"buffer":0,
			"byteLength":48,
			"byteOffset":23252,
			"target":34963
		},
		{
			"buffer":0,
			"byteLength":312,
			"byteOffset":23300,
			"target":34962
		},
		{
			"buffer":0,
			"byteLength":312,
			"byteOffset":23612,
			"target":34962
		},
		{
			"buffer":0,
			"byteLength":208,
			"byteOffset":23924,
			"target":34962
		},
		{
			"buffer":0,
			"byteLength":108,
			"byteOffset":24132,
			"target":34963
		},
		{
			"buffer":0,
			"byteLength":528,
			"byteOffset":24240,
			"target":34962
		},
		{
			"buffer":0,
			"byteLength":528,
			"byteOffset":24768,
			"target":34962
		},
		{
			"buffer":0,
			"byteLength":352,
			"byteOffset":25296,
			"target":34962
		},
		{
			"buffer":0,
			"byteLength":276,
			"byteOffset":25648,
			"target":34963
		},
		{
			"buffer":0,
			"byteLength":936,
			"byteOffset":25924,
			"target":34962
		},
		{
			"buffer":0,
			"byteLength":936,
			"byteOffset":26860,
			"target":34962
		},
		{
			"buffer":0,
			"byteLength":624,
			"byteOffset":27796,
			"target":34962
		},
		{
			"buffer":0,
			"byteLength":324,
			"byteOffset":28420,
			"target":34963
		},
		{
			"buffer":0,
			"byteLength":1968,
			"byteOffset":28744,
			"target":34962
		},
		{
			"buffer":0,
			"byteLength":1968,
			"byteOffset":30712,
			"target":34962
		},
		{
			"buffer":0,
			"byteLength":1312,
			"byteOffset":32680,
			"target":34962
		},
		{
			"buffer":0,
			"byteLength":660,
			"byteOffset":33992,
			"target":34963
		},
		{
			"buffer":0,
			"byteLength":108,
			"byteOffset":34652,
			"target":34962
		},
		{
			"buffer":0,
			"byteLength":108,
			"byteOffset":34760,
			"target":34962
		},
		{
			"buffer":0,
			"byteLength":72,
			"byteOffset":34868,
			"target":34962
		},
		{
			"buffer":0,
			"byteLength":30,
			"byteOffset":34940,
			"target":34963
		},
		{
			"buffer":0,
			"byteLength":48,
			"byteOffset":34972,
			"target":34962
		},
		{
			"buffer":0,
			"byteLength":48,
			"byteOffset":35020,
			"target":34962
		},
		{
			"buffer":0,
			"byteLength":32,
			"byteOffset":35068,
			"target":34962
		},
		{
			"buffer":0,
			"byteLength":12,
			"byteOffset":35100,
			"target":34963
		},
		{
			"buffer":0,
			"byteLength":144,
			"byteOffset":35112,
			"target":34962
		},
		{
			"buffer":0,
			"byteLength":144,
			"byteOffset":35256,
			"target":34962
		},
		{
			"buffer":0,
			"byteLength":96,
			"byteOffset":35400,
			"target":34962
		},
		{
			"buffer":0,
			"byteLength":36,
			"byteOffset":35496,
			"target":34963
		}
	],
	"buffers":[
		{
			"byteLength":35532,
			"uri":"dtowr_classic1.bin"
		}
	]
}
