{
	"asset":{
		"generator":"Khronos glTF Blender I/O v4.5.48",
		"version":"2.0"
	},
	"scene":0,
	"scenes":[
		{
			"name":"Scene",
			"nodes":[
				0
			]
		}
	],
	"nodes":[
		{
			"mesh":0,
			"name":"Object"
		}
	],
	"materials":[
		{
			"doubleSided":true,
			"name":"BD_EWAL03C",
			"pbrMetallicRoughness":{
				"baseColorFactor":[
					0.800000011920929,
					0.800000011920929,
					0.800000011920929,
					1
				],
				"metallicFactor":0,
				"roughnessFactor":0.5
			}
		},
		{
			"doubleSided":true,
			"name":"BD_EBOR04",
			"pbrMetallicRoughness":{
				"baseColorFactor":[
					0.800000011920929,
					0.800000011920929,
					0.800000011920929,
					1
				],
				"metallicFactor":0,
				"roughnessFactor":0.5
			}
		},
		{
			"doubleSided":true,
			"name":"BD_EFLO01",
			"pbrMetallicRoughness":{
				"baseColorFactor":[
					0.800000011920929,
					0.800000011920929,
					0.800000011920929,
					1
				],
				"metallicFactor":0,
				"roughnessFactor":0.5
			}
		},
		{
			"doubleSided":true,
			"name":"BD_IBOR04",
			"pbrMetallicRoughness":{
				"baseColorFactor":[
					0.800000011920929,
					0.800000011920929,
					0.800000011920929,
					1
				],
				"metallicFactor":0,
				"roughnessFactor":0.5
			}
		},
		{
			"doubleSided":true,
			"name":"CP_IBOR03",
			"pbrMetallicRoughness":{
				"baseColorFactor":[
					0.800000011920929,
					0.800000011920929,
					0.800000011920929,
					1
				],
				"metallicFactor":0,
				"roughnessFactor":0.5
			}
		},
		{
			"doubleSided":true,
			"name":"BE_EBOR03",
			"pbrMetallicRoughness":{
				"baseColorFactor":[
					0.800000011920929,
					0.800000011920929,
					0.800000011920929,
					1
				],
				"metallicFactor":0,
				"roughnessFactor":0.5
			}
		},
		{
			"doubleSided":true,
			"name":"BE_ELIG03",
			"pbrMetallicRoughness":{
				"baseColorFactor":[
					0.800000011920929,
					0.800000011920929,
					0.800000011920929,
					1
				],
				"metallicFactor":0,
				"roughnessFactor":0.5
			}
		}
	],
	"meshes":[
		{
			"name":"Mesh",
			"primitives":[
				{
					"attributes":{
						"POSITION":0,
						"NORMAL":1,
						"TEXCOORD_0":2
					},
					"indices":3,
					"material":0
				},
				{
					"attributes":{
						"POSITION":4,
						"NORMAL":5,
						"TEXCOORD_0":6
					},
					"indices":7,
					"material":1
				},
				{
					"attributes":{
						"POSITION":8,
						"NORMAL":9,
						"TEXCOORD_0":10
					},
					"indices":11,
					"material":2
				},
				{
					"attributes":{
						"POSITION":12,
						"NORMAL":13,
						"TEXCOORD_0":14
					},
					"indices":15,
					"material":3
				},
				{
					"attributes":{
						"POSITION":16,
						"NORMAL":17,
						"TEXCOORD_0":18
					},
					"indices":19,
					"material":4
				},
				{
					"attributes":{
						"POSITION":20,
						"NORMAL":21,
						"TEXCOORD_0":22
					},
					"indices":23,
					"material":5
				},
				{
					"attributes":{
						"POSITION":24,
						"NORMAL":25,
						"TEXCOORD_0":26
					},
					"indices":27,
					"material":6
				}
			]
		}
	],
	"accessors":[
		{
			"bufferView":0,
			"componentType":5126,
			"count":128,
			"max":[
				13.625,
				-4.5,
				4.625
			],
			"min":[
				4.375,
				-6,
				-4.625
			],
			"type":"VEC3"
		},
		{
			"bufferView":1,
			"componentType":5126,
			"count":128,
			"type":"VEC3"
		},
		{
			"bufferView":2,
			"componentType":5126,
			"count":128,
			"type":"VEC2"
		},
		{
			"bufferView":3,
			"componentType":5123,
			"count":276,
			"type":"SCALAR"
		},
		{
			"bufferView":4,
			"componentType":5126,
			"count":72,
			"max":[
				13.625,
				-5,
				4.625
			],
			"min":[
				4.375,
				-6,
				-4.625
			],
			"type":"VEC3"
		},
		{
			"bufferView":5,
			"componentType":5126,
			"count":72,
			"type":"VEC3"
		},
		{
			"bufferView":6,
			"componentType":5126,
			"count":72,
			"type":"VEC2"
		},
		{
			"bufferView":7,
			"componentType":5123,
			"count":120,
			"type":"SCALAR"
		},
		{
			"bufferView":8,
			"componentType":5126,
			"count":296,
			"max":[
				14.5,
				-4.5,
				5.5
			],
			"min":[
				3.5,
				-7.5,
				-5.5
			],
			"type":"VEC3"
		},
		{
			"bufferView":9,
			"componentType":5126,
			"count":296,
			"type":"VEC3"
		},
		{
			"bufferView":10,
			"componentType":5126,
			"count":296,
			"type":"VEC2"
		},
		{
			"bufferView":11,
			"componentType":5123,
			"count":648,
			"type":"SCALAR"
		},
		{
			"bufferView":12,
			"componentType":5126,
			"count":120,
			"max":[
				14.5,
				-4.5,
				5.5
			],
			"min":[
				3.5,
				-7,
				-5.5
			],
			"type":"VEC3"
		},
		{
			"bufferView":13,
			"componentType":5126,
			"count":120,
			"type":"VEC3"
		},
		{
			"bufferView":14,
			"componentType":5126,
			"count":120,
			"type":"VEC2"
		},
		{
			"bufferView":15,
			"componentType":5123,
			"count":240,
			"type":"SCALAR"
		},
		{
			"bufferView":16,
			"componentType":5126,
			"count":64,
			"max":[
				12,
				-4.5,
				3
			],
			"min":[
				6,
				-5,
				-3
			],
			"type":"VEC3"
		},
		{
			"bufferView":17,
			"componentType":5126,
			"count":64,
			"type":"VEC3"
		},
		{
			"bufferView":18,
			"componentType":5126,
			"count":64,
			"type":"VEC2"
		},
		{
			"bufferView":19,
			"componentType":5123,
			"count":120,
			"type":"SCALAR"
		},
		{
			"bufferView":20,
			"componentType":5126,
			"count":32,
			"max":[
				12,
				-4.5,
				3
			],
			"min":[
				6,
				-4.5,
				-3
			],
			"type":"VEC3"
		},
		{
			"bufferView":21,
			"componentType":5126,
			"count":32,
			"type":"VEC3"
		},
		{
			"bufferView":22,
			"componentType":5126,
			"count":32,
			"type":"VEC2"
		},
		{
			"bufferView":23,
			"componentType":5123,
			"count":72,
			"type":"SCALAR"
		},
		{
			"bufferView":24,
			"componentType":5126,
			"count":40,
			"max":[
				12,
				-6,
				3
			],
			"min":[
				6,
				-7.5,
				-3
			],
			"type":"VEC3"
		},
		{
			"bufferView":25,
			"componentType":5126,
			"count":40,
			"type":"VEC3"
		},
		{
			"bufferView":26,
			"componentType":5126,
			"count":40,
			"type":"VEC2"
		},
		{
			"bufferView":27,
			"componentType":5123,
			"count":72,
			"type":"SCALAR"
		}
	],
	"bufferViews":[
		{
			"buffer":0,
			"byteLength":1536,
			"byteOffset":0,
			"target":34962
		},
		{
			"buffer":0,
			"byteLength":1536,
			"byteOffset":1536,
			"target":34962
		},
		{
			"buffer":0,
			"byteLength":1024,
			"byteOffset":3072,
			"target":34962
		},
		{
			"buffer":0,
			"byteLength":552,
			"byteOffset":4096,
			"target":34963
		},
		{
			"buffer":0,
			"byteLength":864,
			"byteOffset":4648,
			"target":34962
		},
		{
			"buffer":0,
			"byteLength":864,
			"byteOffset":5512,
			"target":34962
		},
		{
			"buffer":0,
			"byteLength":576,
			"byteOffset":6376,
			"target":34962
		},
		{
			"buffer":0,
			"byteLength":240,
			"byteOffset":6952,
			"target":34963
		},
		{
			"buffer":0,
			"byteLength":3552,
			"byteOffset":7192,
			"target":34962
		},
		{
			"buffer":0,
			"byteLength":3552,
			"byteOffset":10744,
			"target":34962
		},
		{
			"buffer":0,
			"byteLength":2368,
			"byteOffset":14296,
			"target":34962
		},
		{
			"buffer":0,
			"byteLength":1296,
			"byteOffset":16664,
			"target":34963
		},
		{
			"buffer":0,
			"byteLength":1440,
			"byteOffset":17960,
			"target":34962
		},
		{
			"buffer":0,
			"byteLength":1440,
			"byteOffset":19400,
			"target":34962
		},
		{
			"buffer":0,
			"byteLength":960,
			"byteOffset":20840,
			"target":34962
		},
		{
			"buffer":0,
			"byteLength":480,
			"byteOffset":21800,
			"target":34963
		},
		{
			"buffer":0,
			"byteLength":768,
			"byteOffset":22280,
			"target":34962
		},
		{
			"buffer":0,
			"byteLength":768,
			"byteOffset":23048,
			"target":34962
		},
		{
			"buffer":0,
			"byteLength":512,
			"byteOffset":23816,
			"target":34962
		},
		{
			"buffer":0,
			"byteLength":240,
			"byteOffset":24328,
			"target":34963
		},
		{
			"buffer":0,
			"byteLength":384,
			"byteOffset":24568,
			"target":34962
		},
		{
			"buffer":0,
			"byteLength":384,
			"byteOffset":24952,
			"target":34962
		},
		{
			"buffer":0,
			"byteLength":256,
			"byteOffset":25336,
			"target":34962
		},
		{
			"buffer":0,
			"byteLength":144,
			"byteOffset":25592,
			"target":34963
		},
		{
			"buffer":0,
			"byteLength":480,
			"byteOffset":25736,
			"target":34962
		},
		{
			"buffer":0,
			"byteLength":480,
			"byteOffset":26216,
			"target":34962
		},
		{
			"buffer":0,
			"byteLength":320,
			"byteOffset":26696,
			"target":34962
		},
		{
			"buffer":0,
			"byteLength":144,
			"byteOffset":27016,
			"target":34963
		}
	],
	"buffers":[
		{
			"byteLength":27160,
			"uri":"infbutch_blackturret8.bin"
		}
	]
}
