{
	"asset":{
		"generator":"Khronos glTF Blender I/O v4.5.48",
		"version":"2.0"
	},
	"scene":0,
	"scenes":[
		{
			"name":"Scene",
			"nodes":[
				0
			]
		}
	],
	"nodes":[
		{
			"mesh":0,
			"name":"Object"
		}
	],
	"materials":[
		{
			"doubleSided":true,
			"name":"BE_EWAL06",
			"pbrMetallicRoughness":{
				"baseColorFactor":[
					0.800000011920929,
					0.800000011920929,
					0.800000011920929,
					1
				],
				"metallicFactor":0,
				"roughnessFactor":0.5
			}
		},
		{
			"doubleSided":true,
			"name":"BD_EBOR04",
			"pbrMetallicRoughness":{
				"baseColorFactor":[
					0.800000011920929,
					0.800000011920929,
					0.800000011920929,
					1
				],
				"metallicFactor":0,
				"roughnessFactor":0.5
			}
		},
		{
			"doubleSided":true,
			"name":"DS_EFLOOR1",
			"pbrMetallicRoughness":{
				"baseColorFactor":[
					0.800000011920929,
					0.800000011920929,
					0.800000011920929,
					1
				],
				"metallicFactor":0,
				"roughnessFactor":0.5
			}
		},
		{
			"doubleSided":true,
			"name":"INF_BUTCH_GREY5",
			"pbrMetallicRoughness":{
				"baseColorFactor":[
					0.800000011920929,
					0.800000011920929,
					0.800000011920929,
					1
				],
				"metallicFactor":0,
				"roughnessFactor":0.5
			}
		},
		{
			"doubleSided":true,
			"name":"BD_EFLO01",
			"pbrMetallicRoughness":{
				"baseColorFactor":[
					0.800000011920929,
					0.800000011920929,
					0.800000011920929,
					1
				],
				"metallicFactor":0,
				"roughnessFactor":0.5
			}
		},
		{
			"doubleSided":true,
			"name":"CP_IBOR03",
			"pbrMetallicRoughness":{
				"baseColorFactor":[
					0.800000011920929,
					0.800000011920929,
					0.800000011920929,
					1
				],
				"metallicFactor":0,
				"roughnessFactor":0.5
			}
		},
		{
			"doubleSided":true,
			"name":"BD_EWAL03C",
			"pbrMetallicRoughness":{
				"baseColorFactor":[
					0.800000011920929,
					0.800000011920929,
					0.800000011920929,
					1
				],
				"metallicFactor":0,
				"roughnessFactor":0.5
			}
		},
		{
			"doubleSided":true,
			"name":"DS_ILIG03",
			"pbrMetallicRoughness":{
				"baseColorFactor":[
					0.800000011920929,
					0.800000011920929,
					0.800000011920929,
					1
				],
				"metallicFactor":0,
				"roughnessFactor":0.5
			}
		},
		{
			"doubleSided":true,
			"name":"BE_ELIG03",
			"pbrMetallicRoughness":{
				"baseColorFactor":[
					0.800000011920929,
					0.800000011920929,
					0.800000011920929,
					1
				],
				"metallicFactor":0,
				"roughnessFactor":0.5
			}
		},
		{
			"doubleSided":true,
			"name":"BD_IBOR04",
			"pbrMetallicRoughness":{
				"baseColorFactor":[
					0.800000011920929,
					0.800000011920929,
					0.800000011920929,
					1
				],
				"metallicFactor":0,
				"roughnessFactor":0.5
			}
		},
		{
			"doubleSided":true,
			"name":"BE_ICEI01A",
			"pbrMetallicRoughness":{
				"baseColorFactor":[
					0.800000011920929,
					0.800000011920929,
					0.800000011920929,
					1
				],
				"metallicFactor":0,
				"roughnessFactor":0.5
			}
		}
	],
	"meshes":[
		{
			"name":"Mesh",
			"primitives":[
				{
					"attributes":{
						"POSITION":0,
						"NORMAL":1,
						"TEXCOORD_0":2
					},
					"indices":3,
					"material":0
				},
				{
					"attributes":{
						"POSITION":4,
						"NORMAL":5,
						"TEXCOORD_0":6
					},
					"indices":7,
					"material":1
				},
				{
					"attributes":{
						"POSITION":8,
						"NORMAL":9,
						"TEXCOORD_0":10
					},
					"indices":11,
					"material":2
				},
				{
					"attributes":{
						"POSITION":12,
						"NORMAL":13,
						"TEXCOORD_0":14
					},
					"indices":15,
					"material":3
				},
				{
					"attributes":{
						"POSITION":16,
						"NORMAL":17,
						"TEXCOORD_0":18
					},
					"indices":19,
					"material":4
				},
				{
					"attributes":{
						"POSITION":20,
						"NORMAL":21,
						"TEXCOORD_0":22
					},
					"indices":23,
					"material":5
				},
				{
					"attributes":{
						"POSITION":24,
						"NORMAL":25,
						"TEXCOORD_0":26
					},
					"indices":27,
					"material":6
				},
				{
					"attributes":{
						"POSITION":28,
						"NORMAL":29,
						"TEXCOORD_0":30
					},
					"indices":31,
					"material":7
				},
				{
					"attributes":{
						"POSITION":32,
						"NORMAL":33,
						"TEXCOORD_0":34
					},
					"indices":35,
					"material":8
				},
				{
					"attributes":{
						"POSITION":36,
						"NORMAL":37,
						"TEXCOORD_0":38
					},
					"indices":39,
					"material":9
				},
				{
					"attributes":{
						"POSITION":40,
						"NORMAL":41,
						"TEXCOORD_0":42
					},
					"indices":43,
					"material":10
				}
			]
		}
	],
	"accessors":[
		{
			"bufferView":0,
			"componentType":5126,
			"count":122,
			"max":[
				35.25,
				3.25,
				19.5
			],
			"min":[
				-40.375,
				0,
				-19
			],
			"type":"VEC3"
		},
		{
			"bufferView":1,
			"componentType":5126,
			"count":122,
			"type":"VEC3"
		},
		{
			"bufferView":2,
			"componentType":5126,
			"count":122,
			"type":"VEC2"
		},
		{
			"bufferView":3,
			"componentType":5123,
			"count":252,
			"type":"SCALAR"
		},
		{
			"bufferView":4,
			"componentType":5126,
			"count":943,
			"max":[
				35.25,
				10.25,
				19.5
			],
			"min":[
				-40.375,
				0,
				-19
			],
			"type":"VEC3"
		},
		{
			"bufferView":5,
			"componentType":5126,
			"count":943,
			"type":"VEC3"
		},
		{
			"bufferView":6,
			"componentType":5126,
			"count":943,
			"type":"VEC2"
		},
		{
			"bufferView":7,
			"componentType":5123,
			"count":1860,
			"type":"SCALAR"
		},
		{
			"bufferView":8,
			"componentType":5126,
			"count":46,
			"max":[
				28.5,
				2.25,
				15
			],
			"min":[
				-40.375,
				0,
				-14.5
			],
			"type":"VEC3"
		},
		{
			"bufferView":9,
			"componentType":5126,
			"count":46,
			"type":"VEC3"
		},
		{
			"bufferView":10,
			"componentType":5126,
			"count":46,
			"type":"VEC2"
		},
		{
			"bufferView":11,
			"componentType":5123,
			"count":126,
			"type":"SCALAR"
		},
		{
			"bufferView":12,
			"componentType":5126,
			"count":48,
			"max":[
				32,
				3.25,
				18.5
			],
			"min":[
				-28.25,
				3.25,
				-18
			],
			"type":"VEC3"
		},
		{
			"bufferView":13,
			"componentType":5126,
			"count":48,
			"type":"VEC3"
		},
		{
			"bufferView":14,
			"componentType":5126,
			"count":48,
			"type":"VEC2"
		},
		{
			"bufferView":15,
			"componentType":5123,
			"count":84,
			"type":"SCALAR"
		},
		{
			"bufferView":16,
			"componentType":5126,
			"count":417,
			"max":[
				35.25,
				10.75,
				17.625
			],
			"min":[
				-27.375,
				4,
				-17.125
			],
			"type":"VEC3"
		},
		{
			"bufferView":17,
			"componentType":5126,
			"count":417,
			"type":"VEC3"
		},
		{
			"bufferView":18,
			"componentType":5126,
			"count":417,
			"type":"VEC2"
		},
		{
			"bufferView":19,
			"componentType":5123,
			"count":1029,
			"type":"SCALAR"
		},
		{
			"bufferView":20,
			"componentType":5126,
			"count":262,
			"max":[
				35.25,
				9.75,
				18.5
			],
			"min":[
				-28.25,
				2.25,
				-18
			],
			"type":"VEC3"
		},
		{
			"bufferView":21,
			"componentType":5126,
			"count":262,
			"type":"VEC3"
		},
		{
			"bufferView":22,
			"componentType":5126,
			"count":262,
			"type":"VEC2"
		},
		{
			"bufferView":23,
			"componentType":5123,
			"count":522,
			"type":"SCALAR"
		},
		{
			"bufferView":24,
			"componentType":5126,
			"count":275,
			"max":[
				35.25,
				10.75,
				18.5
			],
			"min":[
				-28.25,
				3.25,
				-18
			],
			"type":"VEC3"
		},
		{
			"bufferView":25,
			"componentType":5126,
			"count":275,
			"type":"VEC3"
		},
		{
			"bufferView":26,
			"componentType":5126,
			"count":275,
			"type":"VEC2"
		},
		{
			"bufferView":27,
			"componentType":5123,
			"count":507,
			"type":"SCALAR"
		},
		{
			"bufferView":28,
			"componentType":5126,
			"count":56,
			"max":[
				35.25,
				8.25,
				10.5
			],
			"min":[
				26.25,
				4.25,
				-10.5
			],
			"type":"VEC3"
		},
		{
			"bufferView":29,
			"componentType":5126,
			"count":56,
			"type":"VEC3"
		},
		{
			"bufferView":30,
			"componentType":5126,
			"count":56,
			"type":"VEC2"
		},
		{
			"bufferView":31,
			"componentType":5123,
			"count":84,
			"type":"SCALAR"
		},
		{
			"bufferView":32,
			"componentType":5126,
			"count":160,
			"max":[
				30.710525512695312,
				5,
				17.210525512695312
			],
			"min":[
				-26.960525512695312,
				4.5,
				-16.710525512695312
			],
			"type":"VEC3"
		},
		{
			"bufferView":33,
			"componentType":5126,
			"count":160,
			"type":"VEC3"
		},
		{
			"bufferView":34,
			"componentType":5126,
			"count":160,
			"type":"VEC2"
		},
		{
			"bufferView":35,
			"componentType":5123,
			"count":240,
			"type":"SCALAR"
		},
		{
			"bufferView":36,
			"componentType":5126,
			"count":140,
			"max":[
				35.25,
				9.25,
				11
			],
			"min":[
				26.25,
				4.25,
				-11
			],
			"type":"VEC3"
		},
		{
			"bufferView":37,
			"componentType":5126,
			"count":140,
			"type":"VEC3"
		},
		{
			"bufferView":38,
			"componentType":5126,
			"count":140,
			"type":"VEC2"
		},
		{
			"bufferView":39,
			"componentType":5123,
			"count":216,
			"type":"SCALAR"
		},
		{
			"bufferView":40,
			"componentType":5126,
			"count":12,
			"max":[
				31.75,
				9,
				7.5
			],
			"min":[
				20.75,
				9,
				-7.5
			],
			"type":"VEC3"
		},
		{
			"bufferView":41,
			"componentType":5126,
			"count":12,
			"type":"VEC3"
		},
		{
			"bufferView":42,
			"componentType":5126,
			"count":12,
			"type":"VEC2"
		},
		{
			"bufferView":43,
			"componentType":5123,
			"count":18,
			"type":"SCALAR"
		}
	],
	"bufferViews":[
		{
			"buffer":0,
			"byteLength":1464,
			"byteOffset":0,
			"target":34962
		},
		{
			"buffer":0,
			"byteLength":1464,
			"byteOffset":1464,
			"target":34962
		},
		{
			"buffer":0,
			"byteLength":976,
			"byteOffset":2928,
			"target":34962
		},
		{
			"buffer":0,
			"byteLength":504,
			"byteOffset":3904,
			"target":34963
		},
		{
			"buffer":0,
			"byteLength":11316,
			"byteOffset":4408,
			"target":34962
		},
		{
			"buffer":0,
			"byteLength":11316,
			"byteOffset":15724,
			"target":34962
		},
		{
			"buffer":0,
			"byteLength":7544,
			"byteOffset":27040,
			"target":34962
		},
		{
			"buffer":0,
			"byteLength":3720,
			"byteOffset":34584,
			"target":34963
		},
		{
			"buffer":0,
			"byteLength":552,
			"byteOffset":38304,
			"target":34962
		},
		{
			"buffer":0,
			"byteLength":552,
			"byteOffset":38856,
			"target":34962
		},
		{
			"buffer":0,
			"byteLength":368,
			"byteOffset":39408,
			"target":34962
		},
		{
			"buffer":0,
			"byteLength":252,
			"byteOffset":39776,
			"target":34963
		},
		{
			"buffer":0,
			"byteLength":576,
			"byteOffset":40028,
			"target":34962
		},
		{
			"buffer":0,
			"byteLength":576,
			"byteOffset":40604,
			"target":34962
		},
		{
			"buffer":0,
			"byteLength":384,
			"byteOffset":41180,
			"target":34962
		},
		{
			"buffer":0,
			"byteLength":168,
			"byteOffset":41564,
			"target":34963
		},
		{
			"buffer":0,
			"byteLength":5004,
			"byteOffset":41732,
			"target":34962
		},
		{
			"buffer":0,
			"byteLength":5004,
			"byteOffset":46736,
			"target":34962
		},
		{
			"buffer":0,
			"byteLength":3336,
			"byteOffset":51740,
			"target":34962
		},
		{
			"buffer":0,
			"byteLength":2058,
			"byteOffset":55076,
			"target":34963
		},
		{
			"buffer":0,
			"byteLength":3144,
			"byteOffset":57136,
			"target":34962
		},
		{
			"buffer":0,
			"byteLength":3144,
			"byteOffset":60280,
			"target":34962
		},
		{
			"buffer":0,
			"byteLength":2096,
			"byteOffset":63424,
			"target":34962
		},
		{
			"buffer":0,
			"byteLength":1044,
			"byteOffset":65520,
			"target":34963
		},
		{
			"buffer":0,
			"byteLength":3300,
			"byteOffset":66564,
			"target":34962
		},
		{
			"buffer":0,
			"byteLength":3300,
			"byteOffset":69864,
			"target":34962
		},
		{
			"buffer":0,
			"byteLength":2200,
			"byteOffset":73164,
			"target":34962
		},
		{
			"buffer":0,
			"byteLength":1014,
			"byteOffset":75364,
			"target":34963
		},
		{
			"buffer":0,
			"byteLength":672,
			"byteOffset":76380,
			"target":34962
		},
		{
			"buffer":0,
			"byteLength":672,
			"byteOffset":77052,
			"target":34962
		},
		{
			"buffer":0,
			"byteLength":448,
			"byteOffset":77724,
			"target":34962
		},
		{
			"buffer":0,
			"byteLength":168,
			"byteOffset":78172,
			"target":34963
		},
		{
			"buffer":0,
			"byteLength":1920,
			"byteOffset":78340,
			"target":34962
		},
		{
			"buffer":0,
			"byteLength":1920,
			"byteOffset":80260,
			"target":34962
		},
		{
			"buffer":0,
			"byteLength":1280,
			"byteOffset":82180,
			"target":34962
		},
		{
			"buffer":0,
			"byteLength":480,
			"byteOffset":83460,
			"target":34963
		},
		{
			"buffer":0,
			"byteLength":1680,
			"byteOffset":83940,
			"target":34962
		},
		{
			"buffer":0,
			"byteLength":1680,
			"byteOffset":85620,
			"target":34962
		},
		{
			"buffer":0,
			"byteLength":1120,
			"byteOffset":87300,
			"target":34962
		},
		{
			"buffer":0,
			"byteLength":432,
			"byteOffset":88420,
			"target":34963
		},
		{
			"buffer":0,
			"byteLength":144,
			"byteOffset":88852,
			"target":34962
		},
		{
			"buffer":0,
			"byteLength":144,
			"byteOffset":88996,
			"target":34962
		},
		{
			"buffer":0,
			"byteLength":96,
			"byteOffset":89140,
			"target":34962
		},
		{
			"buffer":0,
			"byteLength":36,
			"byteOffset":89236,
			"target":34963
		}
	],
	"buffers":[
		{
			"byteLength":89272,
			"uri":"infbutch_blackairinv13.bin"
		}
	]
}
