{
	"asset":{
		"generator":"Khronos glTF Blender I/O v4.5.48",
		"version":"2.0"
	},
	"scene":0,
	"scenes":[
		{
			"name":"Scene",
			"nodes":[
				0
			]
		}
	],
	"nodes":[
		{
			"mesh":0,
			"name":"Object"
		}
	],
	"materials":[
		{
			"doubleSided":true,
			"name":"CP_IFLO01",
			"pbrMetallicRoughness":{
				"baseColorFactor":[
					0.800000011920929,
					0.800000011920929,
					0.800000011920929,
					1
				],
				"metallicFactor":0,
				"roughnessFactor":0.5
			}
		},
		{
			"doubleSided":true,
			"name":"CP_SAND",
			"pbrMetallicRoughness":{
				"baseColorFactor":[
					0.800000011920929,
					0.800000011920929,
					0.800000011920929,
					1
				],
				"metallicFactor":0,
				"roughnessFactor":0.5
			}
		},
		{
			"doubleSided":true,
			"name":"CP_ISTRFACE01E",
			"pbrMetallicRoughness":{
				"baseColorFactor":[
					0.800000011920929,
					0.800000011920929,
					0.800000011920929,
					1
				],
				"metallicFactor":0,
				"roughnessFactor":0.5
			}
		},
		{
			"doubleSided":true,
			"name":"CP_ECOMBO1A",
			"pbrMetallicRoughness":{
				"baseColorFactor":[
					0.800000011920929,
					0.800000011920929,
					0.800000011920929,
					1
				],
				"metallicFactor":0,
				"roughnessFactor":0.5
			}
		},
		{
			"doubleSided":true,
			"name":"CP_EWAL01B",
			"pbrMetallicRoughness":{
				"baseColorFactor":[
					0.800000011920929,
					0.800000011920929,
					0.800000011920929,
					1
				],
				"metallicFactor":0,
				"roughnessFactor":0.5
			}
		},
		{
			"doubleSided":true,
			"name":"CP_IWAL02G",
			"pbrMetallicRoughness":{
				"baseColorFactor":[
					0.800000011920929,
					0.800000011920929,
					0.800000011920929,
					1
				],
				"metallicFactor":0,
				"roughnessFactor":0.5
			}
		},
		{
			"doubleSided":true,
			"name":"CP_ESPEC03",
			"pbrMetallicRoughness":{
				"baseColorFactor":[
					0.800000011920929,
					0.800000011920929,
					0.800000011920929,
					1
				],
				"metallicFactor":0,
				"roughnessFactor":0.5
			}
		},
		{
			"doubleSided":true,
			"name":"CP_ESPEC02BASE",
			"pbrMetallicRoughness":{
				"baseColorFactor":[
					0.800000011920929,
					0.800000011920929,
					0.800000011920929,
					1
				],
				"metallicFactor":0,
				"roughnessFactor":0.5
			}
		},
		{
			"doubleSided":true,
			"name":"CP_EWAL01",
			"pbrMetallicRoughness":{
				"baseColorFactor":[
					0.800000011920929,
					0.800000011920929,
					0.800000011920929,
					1
				],
				"metallicFactor":0,
				"roughnessFactor":0.5
			}
		},
		{
			"doubleSided":true,
			"name":"CP_ESPEC02",
			"pbrMetallicRoughness":{
				"baseColorFactor":[
					0.800000011920929,
					0.800000011920929,
					0.800000011920929,
					1
				],
				"metallicFactor":0,
				"roughnessFactor":0.5
			}
		},
		{
			"doubleSided":true,
			"name":"CP_ILIG02",
			"pbrMetallicRoughness":{
				"baseColorFactor":[
					0.800000011920929,
					0.800000011920929,
					0.800000011920929,
					1
				],
				"metallicFactor":0,
				"roughnessFactor":0.5
			}
		},
		{
			"doubleSided":true,
			"name":"CP_ISTRFACE01D",
			"pbrMetallicRoughness":{
				"baseColorFactor":[
					0.800000011920929,
					0.800000011920929,
					0.800000011920929,
					1
				],
				"metallicFactor":0,
				"roughnessFactor":0.5
			}
		}
	],
	"meshes":[
		{
			"name":"Mesh",
			"primitives":[
				{
					"attributes":{
						"POSITION":0,
						"NORMAL":1,
						"TEXCOORD_0":2
					},
					"indices":3,
					"material":0
				},
				{
					"attributes":{
						"POSITION":4,
						"NORMAL":5,
						"TEXCOORD_0":6
					},
					"indices":7,
					"material":1
				},
				{
					"attributes":{
						"POSITION":8,
						"NORMAL":9,
						"TEXCOORD_0":10
					},
					"indices":11,
					"material":2
				},
				{
					"attributes":{
						"POSITION":12,
						"NORMAL":13,
						"TEXCOORD_0":14
					},
					"indices":15,
					"material":3
				},
				{
					"attributes":{
						"POSITION":16,
						"NORMAL":17,
						"TEXCOORD_0":18
					},
					"indices":19,
					"material":4
				},
				{
					"attributes":{
						"POSITION":20,
						"NORMAL":21,
						"TEXCOORD_0":22
					},
					"indices":23,
					"material":5
				},
				{
					"attributes":{
						"POSITION":24,
						"NORMAL":25,
						"TEXCOORD_0":26
					},
					"indices":27,
					"material":6
				},
				{
					"attributes":{
						"POSITION":28,
						"NORMAL":29,
						"TEXCOORD_0":30
					},
					"indices":31,
					"material":7
				},
				{
					"attributes":{
						"POSITION":32,
						"NORMAL":33,
						"TEXCOORD_0":34
					},
					"indices":35,
					"material":8
				},
				{
					"attributes":{
						"POSITION":36,
						"NORMAL":37,
						"TEXCOORD_0":38
					},
					"indices":39,
					"material":9
				},
				{
					"attributes":{
						"POSITION":40,
						"NORMAL":41,
						"TEXCOORD_0":42
					},
					"indices":43,
					"material":10
				},
				{
					"attributes":{
						"POSITION":44,
						"NORMAL":45,
						"TEXCOORD_0":46
					},
					"indices":47,
					"material":11
				}
			]
		}
	],
	"accessors":[
		{
			"bufferView":0,
			"componentType":5126,
			"count":68,
			"max":[
				11.5,
				0,
				11.5
			],
			"min":[
				-15.5,
				0,
				-15.5
			],
			"type":"VEC3"
		},
		{
			"bufferView":1,
			"componentType":5126,
			"count":68,
			"type":"VEC3"
		},
		{
			"bufferView":2,
			"componentType":5126,
			"count":68,
			"type":"VEC2"
		},
		{
			"bufferView":3,
			"componentType":5123,
			"count":216,
			"type":"SCALAR"
		},
		{
			"bufferView":4,
			"componentType":5126,
			"count":40,
			"max":[
				18,
				-8,
				18
			],
			"min":[
				-22,
				-8,
				-22
			],
			"type":"VEC3"
		},
		{
			"bufferView":5,
			"componentType":5126,
			"count":40,
			"type":"VEC3"
		},
		{
			"bufferView":6,
			"componentType":5126,
			"count":40,
			"type":"VEC2"
		},
		{
			"bufferView":7,
			"componentType":5123,
			"count":114,
			"type":"SCALAR"
		},
		{
			"bufferView":8,
			"componentType":5126,
			"count":38,
			"max":[
				11.5,
				0,
				11.5
			],
			"min":[
				-15.5,
				-0.75,
				-15.5
			],
			"type":"VEC3"
		},
		{
			"bufferView":9,
			"componentType":5126,
			"count":38,
			"type":"VEC3"
		},
		{
			"bufferView":10,
			"componentType":5126,
			"count":38,
			"type":"VEC2"
		},
		{
			"bufferView":11,
			"componentType":5123,
			"count":66,
			"type":"SCALAR"
		},
		{
			"bufferView":12,
			"componentType":5126,
			"count":64,
			"max":[
				18,
				-0.75,
				18
			],
			"min":[
				-22,
				-8,
				-22
			],
			"type":"VEC3"
		},
		{
			"bufferView":13,
			"componentType":5126,
			"count":64,
			"type":"VEC3"
		},
		{
			"bufferView":14,
			"componentType":5126,
			"count":64,
			"type":"VEC2"
		},
		{
			"bufferView":15,
			"componentType":5123,
			"count":96,
			"type":"SCALAR"
		},
		{
			"bufferView":16,
			"componentType":5126,
			"count":50,
			"max":[
				12,
				8.8125,
				12
			],
			"min":[
				-16,
				6.5,
				-16
			],
			"type":"VEC3"
		},
		{
			"bufferView":17,
			"componentType":5126,
			"count":50,
			"type":"VEC3"
		},
		{
			"bufferView":18,
			"componentType":5126,
			"count":50,
			"type":"VEC2"
		},
		{
			"bufferView":19,
			"componentType":5123,
			"count":126,
			"type":"SCALAR"
		},
		{
			"bufferView":20,
			"componentType":5126,
			"count":64,
			"max":[
				12,
				6,
				12
			],
			"min":[
				-16,
				6,
				-16
			],
			"type":"VEC3"
		},
		{
			"bufferView":21,
			"componentType":5126,
			"count":64,
			"type":"VEC3"
		},
		{
			"bufferView":22,
			"componentType":5126,
			"count":64,
			"type":"VEC2"
		},
		{
			"bufferView":23,
			"componentType":5123,
			"count":198,
			"type":"SCALAR"
		},
		{
			"bufferView":24,
			"componentType":5126,
			"count":344,
			"max":[
				12,
				8.8125,
				12
			],
			"min":[
				-16,
				0,
				-16
			],
			"type":"VEC3"
		},
		{
			"bufferView":25,
			"componentType":5126,
			"count":344,
			"type":"VEC3"
		},
		{
			"bufferView":26,
			"componentType":5126,
			"count":344,
			"type":"VEC2"
		},
		{
			"bufferView":27,
			"componentType":5123,
			"count":540,
			"type":"SCALAR"
		},
		{
			"bufferView":28,
			"componentType":5126,
			"count":40,
			"max":[
				10.75,
				6.5,
				10.75
			],
			"min":[
				-14.75,
				0.75,
				-14.75
			],
			"type":"VEC3"
		},
		{
			"bufferView":29,
			"componentType":5126,
			"count":40,
			"type":"VEC3"
		},
		{
			"bufferView":30,
			"componentType":5126,
			"count":40,
			"type":"VEC2"
		},
		{
			"bufferView":31,
			"componentType":5123,
			"count":60,
			"type":"SCALAR"
		},
		{
			"bufferView":32,
			"componentType":5126,
			"count":96,
			"max":[
				11,
				4.5,
				11
			],
			"min":[
				-15,
				1.5,
				-15
			],
			"type":"VEC3"
		},
		{
			"bufferView":33,
			"componentType":5126,
			"count":96,
			"type":"VEC3"
		},
		{
			"bufferView":34,
			"componentType":5126,
			"count":96,
			"type":"VEC2"
		},
		{
			"bufferView":35,
			"componentType":5123,
			"count":288,
			"type":"SCALAR"
		},
		{
			"bufferView":36,
			"componentType":5126,
			"count":96,
			"max":[
				11,
				4.5,
				11
			],
			"min":[
				-15,
				1.5,
				-15
			],
			"type":"VEC3"
		},
		{
			"bufferView":37,
			"componentType":5126,
			"count":96,
			"type":"VEC3"
		},
		{
			"bufferView":38,
			"componentType":5126,
			"count":96,
			"type":"VEC2"
		},
		{
			"bufferView":39,
			"componentType":5123,
			"count":192,
			"type":"SCALAR"
		},
		{
			"bufferView":40,
			"componentType":5126,
			"count":48,
			"max":[
				5.65625,
				5.75,
				5.65625
			],
			"min":[
				-9.65625,
				5.75,
				-9.65625
			],
			"type":"VEC3"
		},
		{
			"bufferView":41,
			"componentType":5126,
			"count":48,
			"type":"VEC3"
		},
		{
			"bufferView":42,
			"componentType":5126,
			"count":48,
			"type":"VEC2"
		},
		{
			"bufferView":43,
			"componentType":5123,
			"count":120,
			"type":"SCALAR"
		},
		{
			"bufferView":44,
			"componentType":5126,
			"count":192,
			"max":[
				5.65625,
				6,
				5.65625
			],
			"min":[
				-9.65625,
				5.75,
				-9.65625
			],
			"type":"VEC3"
		},
		{
			"bufferView":45,
			"componentType":5126,
			"count":192,
			"type":"VEC3"
		},
		{
			"bufferView":46,
			"componentType":5126,
			"count":192,
			"type":"VEC2"
		},
		{
			"bufferView":47,
			"componentType":5123,
			"count":288,
			"type":"SCALAR"
		}
	],
	"bufferViews":[
		{
			"buffer":0,
			"byteLength":816,
			"byteOffset":0,
			"target":34962
		},
		{
			"buffer":0,
			"byteLength":816,
			"byteOffset":816,
			"target":34962
		},
		{
			"buffer":0,
			"byteLength":544,
			"byteOffset":1632,
			"target":34962
		},
		{
			"buffer":0,
			"byteLength":432,
			"byteOffset":2176,
			"target":34963
		},
		{
			"buffer":0,
			"byteLength":480,
			"byteOffset":2608,
			"target":34962
		},
		{
			"buffer":0,
			"byteLength":480,
			"byteOffset":3088,
			"target":34962
		},
		{
			"buffer":0,
			"byteLength":320,
			"byteOffset":3568,
			"target":34962
		},
		{
			"buffer":0,
			"byteLength":228,
			"byteOffset":3888,
			"target":34963
		},
		{
			"buffer":0,
			"byteLength":456,
			"byteOffset":4116,
			"target":34962
		},
		{
			"buffer":0,
			"byteLength":456,
			"byteOffset":4572,
			"target":34962
		},
		{
			"buffer":0,
			"byteLength":304,
			"byteOffset":5028,
			"target":34962
		},
		{
			"buffer":0,
			"byteLength":132,
			"byteOffset":5332,
			"target":34963
		},
		{
			"buffer":0,
			"byteLength":768,
			"byteOffset":5464,
			"target":34962
		},
		{
			"buffer":0,
			"byteLength":768,
			"byteOffset":6232,
			"target":34962
		},
		{
			"buffer":0,
			"byteLength":512,
			"byteOffset":7000,
			"target":34962
		},
		{
			"buffer":0,
			"byteLength":192,
			"byteOffset":7512,
			"target":34963
		},
		{
			"buffer":0,
			"byteLength":600,
			"byteOffset":7704,
			"target":34962
		},
		{
			"buffer":0,
			"byteLength":600,
			"byteOffset":8304,
			"target":34962
		},
		{
			"buffer":0,
			"byteLength":400,
			"byteOffset":8904,
			"target":34962
		},
		{
			"buffer":0,
			"byteLength":252,
			"byteOffset":9304,
			"target":34963
		},
		{
			"buffer":0,
			"byteLength":768,
			"byteOffset":9556,
			"target":34962
		},
		{
			"buffer":0,
			"byteLength":768,
			"byteOffset":10324,
			"target":34962
		},
		{
			"buffer":0,
			"byteLength":512,
			"byteOffset":11092,
			"target":34962
		},
		{
			"buffer":0,
			"byteLength":396,
			"byteOffset":11604,
			"target":34963
		},
		{
			"buffer":0,
			"byteLength":4128,
			"byteOffset":12000,
			"target":34962
		},
		{
			"buffer":0,
			"byteLength":4128,
			"byteOffset":16128,
			"target":34962
		},
		{
			"buffer":0,
			"byteLength":2752,
			"byteOffset":20256,
			"target":34962
		},
		{
			"buffer":0,
			"byteLength":1080,
			"byteOffset":23008,
			"target":34963
		},
		{
			"buffer":0,
			"byteLength":480,
			"byteOffset":24088,
			"target":34962
		},
		{
			"buffer":0,
			"byteLength":480,
			"byteOffset":24568,
			"target":34962
		},
		{
			"buffer":0,
			"byteLength":320,
			"byteOffset":25048,
			"target":34962
		},
		{
			"buffer":0,
			"byteLength":120,
			"byteOffset":25368,
			"target":34963
		},
		{
			"buffer":0,
			"byteLength":1152,
			"byteOffset":25488,
			"target":34962
		},
		{
			"buffer":0,
			"byteLength":1152,
			"byteOffset":26640,
			"target":34962
		},
		{
			"buffer":0,
			"byteLength":768,
			"byteOffset":27792,
			"target":34962
		},
		{
			"buffer":0,
			"byteLength":576,
			"byteOffset":28560,
			"target":34963
		},
		{
			"buffer":0,
			"byteLength":1152,
			"byteOffset":29136,
			"target":34962
		},
		{
			"buffer":0,
			"byteLength":1152,
			"byteOffset":30288,
			"target":34962
		},
		{
			"buffer":0,
			"byteLength":768,
			"byteOffset":31440,
			"target":34962
		},
		{
			"buffer":0,
			"byteLength":384,
			"byteOffset":32208,
			"target":34963
		},
		{
			"buffer":0,
			"byteLength":576,
			"byteOffset":32592,
			"target":34962
		},
		{
			"buffer":0,
			"byteLength":576,
			"byteOffset":33168,
			"target":34962
		},
		{
			"buffer":0,
			"byteLength":384,
			"byteOffset":33744,
			"target":34962
		},
		{
			"buffer":0,
			"byteLength":240,
			"byteOffset":34128,
			"target":34963
		},
		{
			"buffer":0,
			"byteLength":2304,
			"byteOffset":34368,
			"target":34962
		},
		{
			"buffer":0,
			"byteLength":2304,
			"byteOffset":36672,
			"target":34962
		},
		{
			"buffer":0,
			"byteLength":1536,
			"byteOffset":38976,
			"target":34962
		},
		{
			"buffer":0,
			"byteLength":576,
			"byteOffset":40512,
			"target":34963
		}
	],
	"buffers":[
		{
			"byteLength":41088,
			"uri":"pbunk7a_CC.bin"
		}
	]
}
