{
	"asset":{
		"generator":"Khronos glTF Blender I/O v4.5.48",
		"version":"2.0"
	},
	"scene":0,
	"scenes":[
		{
			"name":"Scene",
			"nodes":[
				0
			]
		}
	],
	"nodes":[
		{
			"mesh":0,
			"name":"Object"
		}
	],
	"materials":[
		{
			"doubleSided":true,
			"name":"CP_IFLO01",
			"pbrMetallicRoughness":{
				"baseColorFactor":[
					0.800000011920929,
					0.800000011920929,
					0.800000011920929,
					1
				],
				"metallicFactor":0,
				"roughnessFactor":0.5
			}
		},
		{
			"doubleSided":true,
			"name":"CP_SAND",
			"pbrMetallicRoughness":{
				"baseColorFactor":[
					0.800000011920929,
					0.800000011920929,
					0.800000011920929,
					1
				],
				"metallicFactor":0,
				"roughnessFactor":0.5
			}
		},
		{
			"doubleSided":true,
			"name":"CP_ISTRFACE01E",
			"pbrMetallicRoughness":{
				"baseColorFactor":[
					0.800000011920929,
					0.800000011920929,
					0.800000011920929,
					1
				],
				"metallicFactor":0,
				"roughnessFactor":0.5
			}
		},
		{
			"doubleSided":true,
			"name":"CP_ECOMBO1A",
			"pbrMetallicRoughness":{
				"baseColorFactor":[
					0.800000011920929,
					0.800000011920929,
					0.800000011920929,
					1
				],
				"metallicFactor":0,
				"roughnessFactor":0.5
			}
		},
		{
			"doubleSided":true,
			"name":"CP_EWAL01",
			"pbrMetallicRoughness":{
				"baseColorFactor":[
					0.800000011920929,
					0.800000011920929,
					0.800000011920929,
					1
				],
				"metallicFactor":0,
				"roughnessFactor":0.5
			}
		},
		{
			"doubleSided":true,
			"name":"CP_IWAL02B",
			"pbrMetallicRoughness":{
				"baseColorFactor":[
					0.800000011920929,
					0.800000011920929,
					0.800000011920929,
					1
				],
				"metallicFactor":0,
				"roughnessFactor":0.5
			}
		},
		{
			"doubleSided":true,
			"name":"CP_EWAL01B",
			"pbrMetallicRoughness":{
				"baseColorFactor":[
					0.800000011920929,
					0.800000011920929,
					0.800000011920929,
					1
				],
				"metallicFactor":0,
				"roughnessFactor":0.5
			}
		},
		{
			"doubleSided":true,
			"name":"CP_IWAL02G",
			"pbrMetallicRoughness":{
				"baseColorFactor":[
					0.800000011920929,
					0.800000011920929,
					0.800000011920929,
					1
				],
				"metallicFactor":0,
				"roughnessFactor":0.5
			}
		},
		{
			"doubleSided":true,
			"name":"CP_ESPEC03",
			"pbrMetallicRoughness":{
				"baseColorFactor":[
					0.800000011920929,
					0.800000011920929,
					0.800000011920929,
					1
				],
				"metallicFactor":0,
				"roughnessFactor":0.5
			}
		},
		{
			"doubleSided":true,
			"name":"CP_ESPEC02BASE",
			"pbrMetallicRoughness":{
				"baseColorFactor":[
					0.800000011920929,
					0.800000011920929,
					0.800000011920929,
					1
				],
				"metallicFactor":0,
				"roughnessFactor":0.5
			}
		},
		{
			"doubleSided":true,
			"name":"CP_ESPEC02",
			"pbrMetallicRoughness":{
				"baseColorFactor":[
					0.800000011920929,
					0.800000011920929,
					0.800000011920929,
					1
				],
				"metallicFactor":0,
				"roughnessFactor":0.5
			}
		},
		{
			"doubleSided":true,
			"name":"CP_IFLO02",
			"pbrMetallicRoughness":{
				"baseColorFactor":[
					0.800000011920929,
					0.800000011920929,
					0.800000011920929,
					1
				],
				"metallicFactor":0,
				"roughnessFactor":0.5
			}
		},
		{
			"doubleSided":true,
			"name":"CP_IFLO02B",
			"pbrMetallicRoughness":{
				"baseColorFactor":[
					0.800000011920929,
					0.800000011920929,
					0.800000011920929,
					1
				],
				"metallicFactor":0,
				"roughnessFactor":0.5
			}
		},
		{
			"doubleSided":true,
			"name":"CP_ILIG02",
			"pbrMetallicRoughness":{
				"baseColorFactor":[
					0.800000011920929,
					0.800000011920929,
					0.800000011920929,
					1
				],
				"metallicFactor":0,
				"roughnessFactor":0.5
			}
		},
		{
			"doubleSided":true,
			"name":"CP_ISTRFACE01D",
			"pbrMetallicRoughness":{
				"baseColorFactor":[
					0.800000011920929,
					0.800000011920929,
					0.800000011920929,
					1
				],
				"metallicFactor":0,
				"roughnessFactor":0.5
			}
		},
		{
			"doubleSided":true,
			"name":"CP_IWAL02D",
			"pbrMetallicRoughness":{
				"baseColorFactor":[
					0.800000011920929,
					0.800000011920929,
					0.800000011920929,
					1
				],
				"metallicFactor":0,
				"roughnessFactor":0.5
			}
		},
		{
			"doubleSided":true,
			"name":"CP_ISPECBASE01A",
			"pbrMetallicRoughness":{
				"baseColorFactor":[
					0.800000011920929,
					0.800000011920929,
					0.800000011920929,
					1
				],
				"metallicFactor":0,
				"roughnessFactor":0.5
			}
		},
		{
			"doubleSided":true,
			"name":"CP_ISPEC01CAP",
			"pbrMetallicRoughness":{
				"baseColorFactor":[
					0.800000011920929,
					0.800000011920929,
					0.800000011920929,
					1
				],
				"metallicFactor":0,
				"roughnessFactor":0.5
			}
		},
		{
			"doubleSided":true,
			"name":"CP_IBOR02",
			"pbrMetallicRoughness":{
				"baseColorFactor":[
					0.800000011920929,
					0.800000011920929,
					0.800000011920929,
					1
				],
				"metallicFactor":0,
				"roughnessFactor":0.5
			}
		},
		{
			"doubleSided":true,
			"name":"CP_ILIG02A",
			"pbrMetallicRoughness":{
				"baseColorFactor":[
					0.800000011920929,
					0.800000011920929,
					0.800000011920929,
					1
				],
				"metallicFactor":0,
				"roughnessFactor":0.5
			}
		}
	],
	"meshes":[
		{
			"name":"Mesh",
			"primitives":[
				{
					"attributes":{
						"POSITION":0,
						"NORMAL":1,
						"TEXCOORD_0":2
					},
					"indices":3,
					"material":0
				},
				{
					"attributes":{
						"POSITION":4,
						"NORMAL":5,
						"TEXCOORD_0":6
					},
					"indices":7,
					"material":1
				},
				{
					"attributes":{
						"POSITION":8,
						"NORMAL":9,
						"TEXCOORD_0":10
					},
					"indices":11,
					"material":2
				},
				{
					"attributes":{
						"POSITION":12,
						"NORMAL":13,
						"TEXCOORD_0":14
					},
					"indices":15,
					"material":3
				},
				{
					"attributes":{
						"POSITION":16,
						"NORMAL":17,
						"TEXCOORD_0":18
					},
					"indices":19,
					"material":4
				},
				{
					"attributes":{
						"POSITION":20,
						"NORMAL":21,
						"TEXCOORD_0":22
					},
					"indices":23,
					"material":5
				},
				{
					"attributes":{
						"POSITION":24,
						"NORMAL":25,
						"TEXCOORD_0":26
					},
					"indices":27,
					"material":6
				},
				{
					"attributes":{
						"POSITION":28,
						"NORMAL":29,
						"TEXCOORD_0":30
					},
					"indices":31,
					"material":7
				},
				{
					"attributes":{
						"POSITION":32,
						"NORMAL":33,
						"TEXCOORD_0":34
					},
					"indices":35,
					"material":8
				},
				{
					"attributes":{
						"POSITION":36,
						"NORMAL":37,
						"TEXCOORD_0":38
					},
					"indices":39,
					"material":9
				},
				{
					"attributes":{
						"POSITION":40,
						"NORMAL":41,
						"TEXCOORD_0":42
					},
					"indices":43,
					"material":10
				},
				{
					"attributes":{
						"POSITION":44,
						"NORMAL":45,
						"TEXCOORD_0":46
					},
					"indices":47,
					"material":11
				},
				{
					"attributes":{
						"POSITION":48,
						"NORMAL":49,
						"TEXCOORD_0":50
					},
					"indices":51,
					"material":12
				},
				{
					"attributes":{
						"POSITION":52,
						"NORMAL":53,
						"TEXCOORD_0":54
					},
					"indices":55,
					"material":13
				},
				{
					"attributes":{
						"POSITION":56,
						"NORMAL":57,
						"TEXCOORD_0":58
					},
					"indices":59,
					"material":14
				},
				{
					"attributes":{
						"POSITION":60,
						"NORMAL":61,
						"TEXCOORD_0":62
					},
					"indices":63,
					"material":15
				},
				{
					"attributes":{
						"POSITION":64,
						"NORMAL":65,
						"TEXCOORD_0":66
					},
					"indices":67,
					"material":16
				},
				{
					"attributes":{
						"POSITION":68,
						"NORMAL":69,
						"TEXCOORD_0":70
					},
					"indices":71,
					"material":17
				},
				{
					"attributes":{
						"POSITION":72,
						"NORMAL":73,
						"TEXCOORD_0":74
					},
					"indices":75,
					"material":18
				},
				{
					"attributes":{
						"POSITION":76,
						"NORMAL":77,
						"TEXCOORD_0":78
					},
					"indices":79,
					"material":19
				}
			]
		}
	],
	"accessors":[
		{
			"bufferView":0,
			"componentType":5126,
			"count":129,
			"max":[
				11.5,
				0.03125,
				19.5
			],
			"min":[
				-15.5,
				0,
				-15.5
			],
			"type":"VEC3"
		},
		{
			"bufferView":1,
			"componentType":5126,
			"count":129,
			"type":"VEC3"
		},
		{
			"bufferView":2,
			"componentType":5126,
			"count":129,
			"type":"VEC2"
		},
		{
			"bufferView":3,
			"componentType":5123,
			"count":390,
			"type":"SCALAR"
		},
		{
			"bufferView":4,
			"componentType":5126,
			"count":32,
			"max":[
				18,
				-8,
				26
			],
			"min":[
				-22,
				-8,
				-22
			],
			"type":"VEC3"
		},
		{
			"bufferView":5,
			"componentType":5126,
			"count":32,
			"type":"VEC3"
		},
		{
			"bufferView":6,
			"componentType":5126,
			"count":32,
			"type":"VEC2"
		},
		{
			"bufferView":7,
			"componentType":5123,
			"count":114,
			"type":"SCALAR"
		},
		{
			"bufferView":8,
			"componentType":5126,
			"count":38,
			"max":[
				11.5,
				0,
				19.5
			],
			"min":[
				-15.5,
				-0.75,
				-15.5
			],
			"type":"VEC3"
		},
		{
			"bufferView":9,
			"componentType":5126,
			"count":38,
			"type":"VEC3"
		},
		{
			"bufferView":10,
			"componentType":5126,
			"count":38,
			"type":"VEC2"
		},
		{
			"bufferView":11,
			"componentType":5123,
			"count":66,
			"type":"SCALAR"
		},
		{
			"bufferView":12,
			"componentType":5126,
			"count":64,
			"max":[
				18,
				-0.75,
				26
			],
			"min":[
				-22,
				-8,
				-22
			],
			"type":"VEC3"
		},
		{
			"bufferView":13,
			"componentType":5126,
			"count":64,
			"type":"VEC3"
		},
		{
			"bufferView":14,
			"componentType":5126,
			"count":64,
			"type":"VEC2"
		},
		{
			"bufferView":15,
			"componentType":5123,
			"count":96,
			"type":"SCALAR"
		},
		{
			"bufferView":16,
			"componentType":5126,
			"count":94,
			"max":[
				9,
				6,
				19
			],
			"min":[
				-13,
				0,
				-15
			],
			"type":"VEC3"
		},
		{
			"bufferView":17,
			"componentType":5126,
			"count":94,
			"type":"VEC3"
		},
		{
			"bufferView":18,
			"componentType":5126,
			"count":94,
			"type":"VEC2"
		},
		{
			"bufferView":19,
			"componentType":5123,
			"count":216,
			"type":"SCALAR"
		},
		{
			"bufferView":20,
			"componentType":5126,
			"count":16,
			"max":[
				7,
				6,
				11
			],
			"min":[
				-11,
				0,
				-7
			],
			"type":"VEC3"
		},
		{
			"bufferView":21,
			"componentType":5126,
			"count":16,
			"type":"VEC3"
		},
		{
			"bufferView":22,
			"componentType":5126,
			"count":16,
			"type":"VEC2"
		},
		{
			"bufferView":23,
			"componentType":5123,
			"count":24,
			"type":"SCALAR"
		},
		{
			"bufferView":24,
			"componentType":5126,
			"count":50,
			"max":[
				10.5,
				8.8125,
				20
			],
			"min":[
				-14.5,
				0,
				-16
			],
			"type":"VEC3"
		},
		{
			"bufferView":25,
			"componentType":5126,
			"count":50,
			"type":"VEC3"
		},
		{
			"bufferView":26,
			"componentType":5126,
			"count":50,
			"type":"VEC2"
		},
		{
			"bufferView":27,
			"componentType":5123,
			"count":126,
			"type":"SCALAR"
		},
		{
			"bufferView":28,
			"componentType":5126,
			"count":40,
			"max":[
				10.5,
				6,
				20
			],
			"min":[
				-14.5,
				6,
				-16
			],
			"type":"VEC3"
		},
		{
			"bufferView":29,
			"componentType":5126,
			"count":40,
			"type":"VEC3"
		},
		{
			"bufferView":30,
			"componentType":5126,
			"count":40,
			"type":"VEC2"
		},
		{
			"bufferView":31,
			"componentType":5123,
			"count":150,
			"type":"SCALAR"
		},
		{
			"bufferView":32,
			"componentType":5126,
			"count":200,
			"max":[
				10.5,
				8.8125,
				20
			],
			"min":[
				-14.5,
				0,
				-16
			],
			"type":"VEC3"
		},
		{
			"bufferView":33,
			"componentType":5126,
			"count":200,
			"type":"VEC3"
		},
		{
			"bufferView":34,
			"componentType":5126,
			"count":200,
			"type":"VEC2"
		},
		{
			"bufferView":35,
			"componentType":5123,
			"count":318,
			"type":"SCALAR"
		},
		{
			"bufferView":36,
			"componentType":5126,
			"count":24,
			"max":[
				10.5,
				6.5,
				18.75
			],
			"min":[
				-3,
				0.75,
				-14.75
			],
			"type":"VEC3"
		},
		{
			"bufferView":37,
			"componentType":5126,
			"count":24,
			"type":"VEC3"
		},
		{
			"bufferView":38,
			"componentType":5126,
			"count":24,
			"type":"VEC2"
		},
		{
			"bufferView":39,
			"componentType":5123,
			"count":42,
			"type":"SCALAR"
		},
		{
			"bufferView":40,
			"componentType":5126,
			"count":48,
			"max":[
				-0.75,
				4.5,
				19
			],
			"min":[
				-3.25,
				1.5,
				-15
			],
			"type":"VEC3"
		},
		{
			"bufferView":41,
			"componentType":5126,
			"count":48,
			"type":"VEC3"
		},
		{
			"bufferView":42,
			"componentType":5126,
			"count":48,
			"type":"VEC2"
		},
		{
			"bufferView":43,
			"componentType":5123,
			"count":96,
			"type":"SCALAR"
		},
		{
			"bufferView":44,
			"componentType":5126,
			"count":12,
			"max":[
				1,
				0.03125,
				13
			],
			"min":[
				-5,
				0.03125,
				-9
			],
			"type":"VEC3"
		},
		{
			"bufferView":45,
			"componentType":5126,
			"count":12,
			"type":"VEC3"
		},
		{
			"bufferView":46,
			"componentType":5126,
			"count":12,
			"type":"VEC2"
		},
		{
			"bufferView":47,
			"componentType":5123,
			"count":24,
			"type":"SCALAR"
		},
		{
			"bufferView":48,
			"componentType":5126,
			"count":4,
			"max":[
				-1.5,
				0.03125,
				6.875
			],
			"min":[
				-2.5,
				0.03125,
				-2.875
			],
			"type":"VEC3"
		},
		{
			"bufferView":49,
			"componentType":5126,
			"count":4,
			"type":"VEC3"
		},
		{
			"bufferView":50,
			"componentType":5126,
			"count":4,
			"type":"VEC2"
		},
		{
			"bufferView":51,
			"componentType":5123,
			"count":6,
			"type":"SCALAR"
		},
		{
			"bufferView":52,
			"componentType":5126,
			"count":24,
			"max":[
				-1.15625,
				5.75,
				11.75
			],
			"min":[
				-2.84375,
				5.75,
				-7.75
			],
			"type":"VEC3"
		},
		{
			"bufferView":53,
			"componentType":5126,
			"count":24,
			"type":"VEC3"
		},
		{
			"bufferView":54,
			"componentType":5126,
			"count":24,
			"type":"VEC2"
		},
		{
			"bufferView":55,
			"componentType":5123,
			"count":60,
			"type":"SCALAR"
		},
		{
			"bufferView":56,
			"componentType":5126,
			"count":96,
			"max":[
				-1.15625,
				6,
				11.75
			],
			"min":[
				-2.84375,
				5.75,
				-7.75
			],
			"type":"VEC3"
		},
		{
			"bufferView":57,
			"componentType":5126,
			"count":96,
			"type":"VEC3"
		},
		{
			"bufferView":58,
			"componentType":5126,
			"count":96,
			"type":"VEC2"
		},
		{
			"bufferView":59,
			"componentType":5123,
			"count":144,
			"type":"SCALAR"
		},
		{
			"bufferView":60,
			"componentType":5126,
			"count":8,
			"max":[
				-10.96875,
				5.0625,
				11
			],
			"min":[
				-11,
				1,
				-7
			],
			"type":"VEC3"
		},
		{
			"bufferView":61,
			"componentType":5126,
			"count":8,
			"type":"VEC3"
		},
		{
			"bufferView":62,
			"componentType":5126,
			"count":8,
			"type":"VEC2"
		},
		{
			"bufferView":63,
			"componentType":5123,
			"count":12,
			"type":"SCALAR"
		},
		{
			"bufferView":64,
			"componentType":5126,
			"count":8,
			"max":[
				6.96875,
				1,
				11
			],
			"min":[
				-10.96875,
				0,
				-7
			],
			"type":"VEC3"
		},
		{
			"bufferView":65,
			"componentType":5126,
			"count":8,
			"type":"VEC3"
		},
		{
			"bufferView":66,
			"componentType":5126,
			"count":8,
			"type":"VEC2"
		},
		{
			"bufferView":67,
			"componentType":5123,
			"count":12,
			"type":"SCALAR"
		},
		{
			"bufferView":68,
			"componentType":5126,
			"count":8,
			"max":[
				6.96875,
				6,
				11
			],
			"min":[
				-10.96875,
				5.0625,
				-7
			],
			"type":"VEC3"
		},
		{
			"bufferView":69,
			"componentType":5126,
			"count":8,
			"type":"VEC3"
		},
		{
			"bufferView":70,
			"componentType":5126,
			"count":8,
			"type":"VEC2"
		},
		{
			"bufferView":71,
			"componentType":5123,
			"count":12,
			"type":"SCALAR"
		},
		{
			"bufferView":72,
			"componentType":5126,
			"count":128,
			"max":[
				7,
				4.5,
				2.84375
			],
			"min":[
				-11,
				2,
				1.15625
			],
			"type":"VEC3"
		},
		{
			"bufferView":73,
			"componentType":5126,
			"count":128,
			"type":"VEC3"
		},
		{
			"bufferView":74,
			"componentType":5126,
			"count":128,
			"type":"VEC2"
		},
		{
			"bufferView":75,
			"componentType":5123,
			"count":192,
			"type":"SCALAR"
		},
		{
			"bufferView":76,
			"componentType":5126,
			"count":32,
			"max":[
				6.5625,
				4.5,
				2.84375
			],
			"min":[
				-10.5625,
				2,
				1.15625
			],
			"type":"VEC3"
		},
		{
			"bufferView":77,
			"componentType":5126,
			"count":32,
			"type":"VEC3"
		},
		{
			"bufferView":78,
			"componentType":5126,
			"count":32,
			"type":"VEC2"
		},
		{
			"bufferView":79,
			"componentType":5123,
			"count":84,
			"type":"SCALAR"
		}
	],
	"bufferViews":[
		{
			"buffer":0,
			"byteLength":1548,
			"byteOffset":0,
			"target":34962
		},
		{
			"buffer":0,
			"byteLength":1548,
			"byteOffset":1548,
			"target":34962
		},
		{
			"buffer":0,
			"byteLength":1032,
			"byteOffset":3096,
			"target":34962
		},
		{
			"buffer":0,
			"byteLength":780,
			"byteOffset":4128,
			"target":34963
		},
		{
			"buffer":0,
			"byteLength":384,
			"byteOffset":4908,
			"target":34962
		},
		{
			"buffer":0,
			"byteLength":384,
			"byteOffset":5292,
			"target":34962
		},
		{
			"buffer":0,
			"byteLength":256,
			"byteOffset":5676,
			"target":34962
		},
		{
			"buffer":0,
			"byteLength":228,
			"byteOffset":5932,
			"target":34963
		},
		{
			"buffer":0,
			"byteLength":456,
			"byteOffset":6160,
			"target":34962
		},
		{
			"buffer":0,
			"byteLength":456,
			"byteOffset":6616,
			"target":34962
		},
		{
			"buffer":0,
			"byteLength":304,
			"byteOffset":7072,
			"target":34962
		},
		{
			"buffer":0,
			"byteLength":132,
			"byteOffset":7376,
			"target":34963
		},
		{
			"buffer":0,
			"byteLength":768,
			"byteOffset":7508,
			"target":34962
		},
		{
			"buffer":0,
			"byteLength":768,
			"byteOffset":8276,
			"target":34962
		},
		{
			"buffer":0,
			"byteLength":512,
			"byteOffset":9044,
			"target":34962
		},
		{
			"buffer":0,
			"byteLength":192,
			"byteOffset":9556,
			"target":34963
		},
		{
			"buffer":0,
			"byteLength":1128,
			"byteOffset":9748,
			"target":34962
		},
		{
			"buffer":0,
			"byteLength":1128,
			"byteOffset":10876,
			"target":34962
		},
		{
			"buffer":0,
			"byteLength":752,
			"byteOffset":12004,
			"target":34962
		},
		{
			"buffer":0,
			"byteLength":432,
			"byteOffset":12756,
			"target":34963
		},
		{
			"buffer":0,
			"byteLength":192,
			"byteOffset":13188,
			"target":34962
		},
		{
			"buffer":0,
			"byteLength":192,
			"byteOffset":13380,
			"target":34962
		},
		{
			"buffer":0,
			"byteLength":128,
			"byteOffset":13572,
			"target":34962
		},
		{
			"buffer":0,
			"byteLength":48,
			"byteOffset":13700,
			"target":34963
		},
		{
			"buffer":0,
			"byteLength":600,
			"byteOffset":13748,
			"target":34962
		},
		{
			"buffer":0,
			"byteLength":600,
			"byteOffset":14348,
			"target":34962
		},
		{
			"buffer":0,
			"byteLength":400,
			"byteOffset":14948,
			"target":34962
		},
		{
			"buffer":0,
			"byteLength":252,
			"byteOffset":15348,
			"target":34963
		},
		{
			"buffer":0,
			"byteLength":480,
			"byteOffset":15600,
			"target":34962
		},
		{
			"buffer":0,
			"byteLength":480,
			"byteOffset":16080,
			"target":34962
		},
		{
			"buffer":0,
			"byteLength":320,
			"byteOffset":16560,
			"target":34962
		},
		{
			"buffer":0,
			"byteLength":300,
			"byteOffset":16880,
			"target":34963
		},
		{
			"buffer":0,
			"byteLength":2400,
			"byteOffset":17180,
			"target":34962
		},
		{
			"buffer":0,
			"byteLength":2400,
			"byteOffset":19580,
			"target":34962
		},
		{
			"buffer":0,
			"byteLength":1600,
			"byteOffset":21980,
			"target":34962
		},
		{
			"buffer":0,
			"byteLength":636,
			"byteOffset":23580,
			"target":34963
		},
		{
			"buffer":0,
			"byteLength":288,
			"byteOffset":24216,
			"target":34962
		},
		{
			"buffer":0,
			"byteLength":288,
			"byteOffset":24504,
			"target":34962
		},
		{
			"buffer":0,
			"byteLength":192,
			"byteOffset":24792,
			"target":34962
		},
		{
			"buffer":0,
			"byteLength":84,
			"byteOffset":24984,
			"target":34963
		},
		{
			"buffer":0,
			"byteLength":576,
			"byteOffset":25068,
			"target":34962
		},
		{
			"buffer":0,
			"byteLength":576,
			"byteOffset":25644,
			"target":34962
		},
		{
			"buffer":0,
			"byteLength":384,
			"byteOffset":26220,
			"target":34962
		},
		{
			"buffer":0,
			"byteLength":192,
			"byteOffset":26604,
			"target":34963
		},
		{
			"buffer":0,
			"byteLength":144,
			"byteOffset":26796,
			"target":34962
		},
		{
			"buffer":0,
			"byteLength":144,
			"byteOffset":26940,
			"target":34962
		},
		{
			"buffer":0,
			"byteLength":96,
			"byteOffset":27084,
			"target":34962
		},
		{
			"buffer":0,
			"byteLength":48,
			"byteOffset":27180,
			"target":34963
		},
		{
			"buffer":0,
			"byteLength":48,
			"byteOffset":27228,
			"target":34962
		},
		{
			"buffer":0,
			"byteLength":48,
			"byteOffset":27276,
			"target":34962
		},
		{
			"buffer":0,
			"byteLength":32,
			"byteOffset":27324,
			"target":34962
		},
		{
			"buffer":0,
			"byteLength":12,
			"byteOffset":27356,
			"target":34963
		},
		{
			"buffer":0,
			"byteLength":288,
			"byteOffset":27368,
			"target":34962
		},
		{
			"buffer":0,
			"byteLength":288,
			"byteOffset":27656,
			"target":34962
		},
		{
			"buffer":0,
			"byteLength":192,
			"byteOffset":27944,
			"target":34962
		},
		{
			"buffer":0,
			"byteLength":120,
			"byteOffset":28136,
			"target":34963
		},
		{
			"buffer":0,
			"byteLength":1152,
			"byteOffset":28256,
			"target":34962
		},
		{
			"buffer":0,
			"byteLength":1152,
			"byteOffset":29408,
			"target":34962
		},
		{
			"buffer":0,
			"byteLength":768,
			"byteOffset":30560,
			"target":34962
		},
		{
			"buffer":0,
			"byteLength":288,
			"byteOffset":31328,
			"target":34963
		},
		{
			"buffer":0,
			"byteLength":96,
			"byteOffset":31616,
			"target":34962
		},
		{
			"buffer":0,
			"byteLength":96,
			"byteOffset":31712,
			"target":34962
		},
		{
			"buffer":0,
			"byteLength":64,
			"byteOffset":31808,
			"target":34962
		},
		{
			"buffer":0,
			"byteLength":24,
			"byteOffset":31872,
			"target":34963
		},
		{
			"buffer":0,
			"byteLength":96,
			"byteOffset":31896,
			"target":34962
		},
		{
			"buffer":0,
			"byteLength":96,
			"byteOffset":31992,
			"target":34962
		},
		{
			"buffer":0,
			"byteLength":64,
			"byteOffset":32088,
			"target":34962
		},
		{
			"buffer":0,
			"byteLength":24,
			"byteOffset":32152,
			"target":34963
		},
		{
			"buffer":0,
			"byteLength":96,
			"byteOffset":32176,
			"target":34962
		},
		{
			"buffer":0,
			"byteLength":96,
			"byteOffset":32272,
			"target":34962
		},
		{
			"buffer":0,
			"byteLength":64,
			"byteOffset":32368,
			"target":34962
		},
		{
			"buffer":0,
			"byteLength":24,
			"byteOffset":32432,
			"target":34963
		},
		{
			"buffer":0,
			"byteLength":1536,
			"byteOffset":32456,
			"target":34962
		},
		{
			"buffer":0,
			"byteLength":1536,
			"byteOffset":33992,
			"target":34962
		},
		{
			"buffer":0,
			"byteLength":1024,
			"byteOffset":35528,
			"target":34962
		},
		{
			"buffer":0,
			"byteLength":384,
			"byteOffset":36552,
			"target":34963
		},
		{
			"buffer":0,
			"byteLength":384,
			"byteOffset":36936,
			"target":34962
		},
		{
			"buffer":0,
			"byteLength":384,
			"byteOffset":37320,
			"target":34962
		},
		{
			"buffer":0,
			"byteLength":256,
			"byteOffset":37704,
			"target":34962
		},
		{
			"buffer":0,
			"byteLength":168,
			"byteOffset":37960,
			"target":34963
		}
	],
	"buffers":[
		{
			"byteLength":38128,
			"uri":"pbunk4a_CC.bin"
		}
	]
}
