{
	"asset":{
		"generator":"Khronos glTF Blender I/O v4.5.48",
		"version":"2.0"
	},
	"scene":0,
	"scenes":[
		{
			"name":"Scene",
			"nodes":[
				0
			]
		}
	],
	"nodes":[
		{
			"mesh":0,
			"name":"Object"
		}
	],
	"materials":[
		{
			"doubleSided":true,
			"name":"BE_EWAL01B",
			"pbrMetallicRoughness":{
				"baseColorFactor":[
					0.800000011920929,
					0.800000011920929,
					0.800000011920929,
					1
				],
				"metallicFactor":0,
				"roughnessFactor":0.5
			}
		},
		{
			"doubleSided":true,
			"name":"BE_IHAWAL05A",
			"pbrMetallicRoughness":{
				"baseColorFactor":[
					0.800000011920929,
					0.800000011920929,
					0.800000011920929,
					1
				],
				"metallicFactor":0,
				"roughnessFactor":0.5
			}
		},
		{
			"doubleSided":true,
			"name":"BE_ICEI03B",
			"pbrMetallicRoughness":{
				"baseColorFactor":[
					0.800000011920929,
					0.800000011920929,
					0.800000011920929,
					1
				],
				"metallicFactor":0,
				"roughnessFactor":0.5
			}
		},
		{
			"doubleSided":true,
			"name":"BE_EWAL09B",
			"pbrMetallicRoughness":{
				"baseColorFactor":[
					0.800000011920929,
					0.800000011920929,
					0.800000011920929,
					1
				],
				"metallicFactor":0,
				"roughnessFactor":0.5
			}
		},
		{
			"doubleSided":true,
			"name":"BE_EWAL06",
			"pbrMetallicRoughness":{
				"baseColorFactor":[
					0.800000011920929,
					0.800000011920929,
					0.800000011920929,
					1
				],
				"metallicFactor":0,
				"roughnessFactor":0.5
			}
		},
		{
			"doubleSided":true,
			"name":"BE_ITEFLO02",
			"pbrMetallicRoughness":{
				"baseColorFactor":[
					0.800000011920929,
					0.800000011920929,
					0.800000011920929,
					1
				],
				"metallicFactor":0,
				"roughnessFactor":0.5
			}
		},
		{
			"doubleSided":true,
			"name":"BE_ITECEI02",
			"pbrMetallicRoughness":{
				"baseColorFactor":[
					0.800000011920929,
					0.800000011920929,
					0.800000011920929,
					1
				],
				"metallicFactor":0,
				"roughnessFactor":0.5
			}
		},
		{
			"doubleSided":true,
			"name":"BE_EWAL02B",
			"pbrMetallicRoughness":{
				"baseColorFactor":[
					0.800000011920929,
					0.800000011920929,
					0.800000011920929,
					1
				],
				"metallicFactor":0,
				"roughnessFactor":0.5
			}
		},
		{
			"doubleSided":true,
			"name":"BE_IHALIG",
			"pbrMetallicRoughness":{
				"baseColorFactor":[
					0.800000011920929,
					0.800000011920929,
					0.800000011920929,
					1
				],
				"metallicFactor":0,
				"roughnessFactor":0.5
			}
		},
		{
			"doubleSided":true,
			"name":"BE_THRESH02A",
			"pbrMetallicRoughness":{
				"baseColorFactor":[
					0.800000011920929,
					0.800000011920929,
					0.800000011920929,
					1
				],
				"metallicFactor":0,
				"roughnessFactor":0.5
			}
		}
	],
	"meshes":[
		{
			"name":"Mesh",
			"primitives":[
				{
					"attributes":{
						"POSITION":0,
						"NORMAL":1,
						"TEXCOORD_0":2
					},
					"indices":3,
					"material":0
				},
				{
					"attributes":{
						"POSITION":4,
						"NORMAL":5,
						"TEXCOORD_0":6
					},
					"indices":7,
					"material":1
				},
				{
					"attributes":{
						"POSITION":8,
						"NORMAL":9,
						"TEXCOORD_0":10
					},
					"indices":11,
					"material":2
				},
				{
					"attributes":{
						"POSITION":12,
						"NORMAL":13,
						"TEXCOORD_0":14
					},
					"indices":15,
					"material":3
				},
				{
					"attributes":{
						"POSITION":16,
						"NORMAL":17,
						"TEXCOORD_0":18
					},
					"indices":19,
					"material":4
				},
				{
					"attributes":{
						"POSITION":20,
						"NORMAL":21,
						"TEXCOORD_0":22
					},
					"indices":23,
					"material":5
				},
				{
					"attributes":{
						"POSITION":24,
						"NORMAL":25,
						"TEXCOORD_0":26
					},
					"indices":27,
					"material":6
				},
				{
					"attributes":{
						"POSITION":28,
						"NORMAL":29,
						"TEXCOORD_0":30
					},
					"indices":31,
					"material":7
				},
				{
					"attributes":{
						"POSITION":32,
						"NORMAL":33,
						"TEXCOORD_0":34
					},
					"indices":35,
					"material":8
				},
				{
					"attributes":{
						"POSITION":36,
						"NORMAL":37,
						"TEXCOORD_0":38
					},
					"indices":39,
					"material":9
				}
			]
		}
	],
	"accessors":[
		{
			"bufferView":0,
			"componentType":5126,
			"count":96,
			"max":[
				10,
				35,
				10
			],
			"min":[
				-10,
				-56,
				-10
			],
			"type":"VEC3"
		},
		{
			"bufferView":1,
			"componentType":5126,
			"count":96,
			"type":"VEC3"
		},
		{
			"bufferView":2,
			"componentType":5126,
			"count":96,
			"type":"VEC2"
		},
		{
			"bufferView":3,
			"componentType":5123,
			"count":144,
			"type":"SCALAR"
		},
		{
			"bufferView":4,
			"componentType":5126,
			"count":32,
			"max":[
				9,
				35,
				9
			],
			"min":[
				-9,
				25,
				-9
			],
			"type":"VEC3"
		},
		{
			"bufferView":5,
			"componentType":5126,
			"count":32,
			"type":"VEC3"
		},
		{
			"bufferView":6,
			"componentType":5126,
			"count":32,
			"type":"VEC2"
		},
		{
			"bufferView":7,
			"componentType":5123,
			"count":48,
			"type":"SCALAR"
		},
		{
			"bufferView":8,
			"componentType":5126,
			"count":32,
			"max":[
				6.5,
				16.66666603088379,
				6.5
			],
			"min":[
				-6.5,
				5,
				-6.5
			],
			"type":"VEC3"
		},
		{
			"bufferView":9,
			"componentType":5126,
			"count":32,
			"type":"VEC3"
		},
		{
			"bufferView":10,
			"componentType":5126,
			"count":32,
			"type":"VEC2"
		},
		{
			"bufferView":11,
			"componentType":5123,
			"count":48,
			"type":"SCALAR"
		},
		{
			"bufferView":12,
			"componentType":5126,
			"count":24,
			"max":[
				6,
				43,
				6
			],
			"min":[
				-6,
				35,
				-6
			],
			"type":"VEC3"
		},
		{
			"bufferView":13,
			"componentType":5126,
			"count":24,
			"type":"VEC3"
		},
		{
			"bufferView":14,
			"componentType":5126,
			"count":24,
			"type":"VEC2"
		},
		{
			"bufferView":15,
			"componentType":5123,
			"count":48,
			"type":"SCALAR"
		},
		{
			"bufferView":16,
			"componentType":5126,
			"count":4,
			"max":[
				3,
				43,
				3
			],
			"min":[
				-3,
				43,
				-3
			],
			"type":"VEC3"
		},
		{
			"bufferView":17,
			"componentType":5126,
			"count":4,
			"type":"VEC3"
		},
		{
			"bufferView":18,
			"componentType":5126,
			"count":4,
			"type":"VEC2"
		},
		{
			"bufferView":19,
			"componentType":5123,
			"count":6,
			"type":"SCALAR"
		},
		{
			"bufferView":20,
			"componentType":5126,
			"count":28,
			"max":[
				9,
				35,
				9
			],
			"min":[
				-9,
				25,
				-9
			],
			"type":"VEC3"
		},
		{
			"bufferView":21,
			"componentType":5126,
			"count":28,
			"type":"VEC3"
		},
		{
			"bufferView":22,
			"componentType":5126,
			"count":28,
			"type":"VEC2"
		},
		{
			"bufferView":23,
			"componentType":5123,
			"count":78,
			"type":"SCALAR"
		},
		{
			"bufferView":24,
			"componentType":5126,
			"count":20,
			"max":[
				5,
				25,
				5
			],
			"min":[
				-5,
				20,
				-5
			],
			"type":"VEC3"
		},
		{
			"bufferView":25,
			"componentType":5126,
			"count":20,
			"type":"VEC3"
		},
		{
			"bufferView":26,
			"componentType":5126,
			"count":20,
			"type":"VEC2"
		},
		{
			"bufferView":27,
			"componentType":5123,
			"count":30,
			"type":"SCALAR"
		},
		{
			"bufferView":28,
			"componentType":5126,
			"count":24,
			"max":[
				9,
				25,
				9
			],
			"min":[
				-9,
				20,
				-9
			],
			"type":"VEC3"
		},
		{
			"bufferView":29,
			"componentType":5126,
			"count":24,
			"type":"VEC3"
		},
		{
			"bufferView":30,
			"componentType":5126,
			"count":24,
			"type":"VEC2"
		},
		{
			"bufferView":31,
			"componentType":5123,
			"count":48,
			"type":"SCALAR"
		},
		{
			"bufferView":32,
			"componentType":5126,
			"count":32,
			"max":[
				6.5,
				24,
				6.5
			],
			"min":[
				-6.5,
				5,
				-6.5
			],
			"type":"VEC3"
		},
		{
			"bufferView":33,
			"componentType":5126,
			"count":32,
			"type":"VEC3"
		},
		{
			"bufferView":34,
			"componentType":5126,
			"count":32,
			"type":"VEC2"
		},
		{
			"bufferView":35,
			"componentType":5123,
			"count":48,
			"type":"SCALAR"
		},
		{
			"bufferView":36,
			"componentType":5126,
			"count":16,
			"max":[
				6.5,
				16.66666603088379,
				6.5
			],
			"min":[
				-6.5,
				6,
				-6.5
			],
			"type":"VEC3"
		},
		{
			"bufferView":37,
			"componentType":5126,
			"count":16,
			"type":"VEC3"
		},
		{
			"bufferView":38,
			"componentType":5126,
			"count":16,
			"type":"VEC2"
		},
		{
			"bufferView":39,
			"componentType":5123,
			"count":24,
			"type":"SCALAR"
		}
	],
	"bufferViews":[
		{
			"buffer":0,
			"byteLength":1152,
			"byteOffset":0,
			"target":34962
		},
		{
			"buffer":0,
			"byteLength":1152,
			"byteOffset":1152,
			"target":34962
		},
		{
			"buffer":0,
			"byteLength":768,
			"byteOffset":2304,
			"target":34962
		},
		{
			"buffer":0,
			"byteLength":288,
			"byteOffset":3072,
			"target":34963
		},
		{
			"buffer":0,
			"byteLength":384,
			"byteOffset":3360,
			"target":34962
		},
		{
			"buffer":0,
			"byteLength":384,
			"byteOffset":3744,
			"target":34962
		},
		{
			"buffer":0,
			"byteLength":256,
			"byteOffset":4128,
			"target":34962
		},
		{
			"buffer":0,
			"byteLength":96,
			"byteOffset":4384,
			"target":34963
		},
		{
			"buffer":0,
			"byteLength":384,
			"byteOffset":4480,
			"target":34962
		},
		{
			"buffer":0,
			"byteLength":384,
			"byteOffset":4864,
			"target":34962
		},
		{
			"buffer":0,
			"byteLength":256,
			"byteOffset":5248,
			"target":34962
		},
		{
			"buffer":0,
			"byteLength":96,
			"byteOffset":5504,
			"target":34963
		},
		{
			"buffer":0,
			"byteLength":288,
			"byteOffset":5600,
			"target":34962
		},
		{
			"buffer":0,
			"byteLength":288,
			"byteOffset":5888,
			"target":34962
		},
		{
			"buffer":0,
			"byteLength":192,
			"byteOffset":6176,
			"target":34962
		},
		{
			"buffer":0,
			"byteLength":96,
			"byteOffset":6368,
			"target":34963
		},
		{
			"buffer":0,
			"byteLength":48,
			"byteOffset":6464,
			"target":34962
		},
		{
			"buffer":0,
			"byteLength":48,
			"byteOffset":6512,
			"target":34962
		},
		{
			"buffer":0,
			"byteLength":32,
			"byteOffset":6560,
			"target":34962
		},
		{
			"buffer":0,
			"byteLength":12,
			"byteOffset":6592,
			"target":34963
		},
		{
			"buffer":0,
			"byteLength":336,
			"byteOffset":6604,
			"target":34962
		},
		{
			"buffer":0,
			"byteLength":336,
			"byteOffset":6940,
			"target":34962
		},
		{
			"buffer":0,
			"byteLength":224,
			"byteOffset":7276,
			"target":34962
		},
		{
			"buffer":0,
			"byteLength":156,
			"byteOffset":7500,
			"target":34963
		},
		{
			"buffer":0,
			"byteLength":240,
			"byteOffset":7656,
			"target":34962
		},
		{
			"buffer":0,
			"byteLength":240,
			"byteOffset":7896,
			"target":34962
		},
		{
			"buffer":0,
			"byteLength":160,
			"byteOffset":8136,
			"target":34962
		},
		{
			"buffer":0,
			"byteLength":60,
			"byteOffset":8296,
			"target":34963
		},
		{
			"buffer":0,
			"byteLength":288,
			"byteOffset":8356,
			"target":34962
		},
		{
			"buffer":0,
			"byteLength":288,
			"byteOffset":8644,
			"target":34962
		},
		{
			"buffer":0,
			"byteLength":192,
			"byteOffset":8932,
			"target":34962
		},
		{
			"buffer":0,
			"byteLength":96,
			"byteOffset":9124,
			"target":34963
		},
		{
			"buffer":0,
			"byteLength":384,
			"byteOffset":9220,
			"target":34962
		},
		{
			"buffer":0,
			"byteLength":384,
			"byteOffset":9604,
			"target":34962
		},
		{
			"buffer":0,
			"byteLength":256,
			"byteOffset":9988,
			"target":34962
		},
		{
			"buffer":0,
			"byteLength":96,
			"byteOffset":10244,
			"target":34963
		},
		{
			"buffer":0,
			"byteLength":192,
			"byteOffset":10340,
			"target":34962
		},
		{
			"buffer":0,
			"byteLength":192,
			"byteOffset":10532,
			"target":34962
		},
		{
			"buffer":0,
			"byteLength":128,
			"byteOffset":10724,
			"target":34962
		},
		{
			"buffer":0,
			"byteLength":48,
			"byteOffset":10852,
			"target":34963
		}
	],
	"buffers":[
		{
			"byteLength":10900,
			"uri":"ram_tower.bin"
		}
	]
}
