{
	"asset":{
		"generator":"Khronos glTF Blender I/O v4.5.48",
		"version":"2.0"
	},
	"scene":0,
	"scenes":[
		{
			"name":"Scene",
			"nodes":[
				0
			]
		}
	],
	"nodes":[
		{
			"mesh":0,
			"name":"Object"
		}
	],
	"materials":[
		{
			"doubleSided":true,
			"name":"SW_IWAL03SNOW",
			"pbrMetallicRoughness":{
				"baseColorFactor":[
					0.800000011920929,
					0.800000011920929,
					0.800000011920929,
					1
				],
				"metallicFactor":0,
				"roughnessFactor":0.5
			}
		},
		{
			"doubleSided":true,
			"name":"SW_THRESHGRATE",
			"pbrMetallicRoughness":{
				"baseColorFactor":[
					0.800000011920929,
					0.800000011920929,
					0.800000011920929,
					1
				],
				"metallicFactor":0,
				"roughnessFactor":0.5
			}
		},
		{
			"doubleSided":true,
			"name":"SW_IWAL02",
			"pbrMetallicRoughness":{
				"baseColorFactor":[
					0.800000011920929,
					0.800000011920929,
					0.800000011920929,
					1
				],
				"metallicFactor":0,
				"roughnessFactor":0.5
			}
		},
		{
			"doubleSided":true,
			"name":"SW_THRESHSIDE",
			"pbrMetallicRoughness":{
				"baseColorFactor":[
					0.800000011920929,
					0.800000011920929,
					0.800000011920929,
					1
				],
				"metallicFactor":0,
				"roughnessFactor":0.5
			}
		},
		{
			"doubleSided":true,
			"name":"SW_ICOLIGOLA",
			"pbrMetallicRoughness":{
				"baseColorFactor":[
					0.800000011920929,
					0.800000011920929,
					0.800000011920929,
					1
				],
				"metallicFactor":0,
				"roughnessFactor":0.5
			}
		},
		{
			"doubleSided":true,
			"name":"SW_EFLO01",
			"pbrMetallicRoughness":{
				"baseColorFactor":[
					0.800000011920929,
					0.800000011920929,
					0.800000011920929,
					1
				],
				"metallicFactor":0,
				"roughnessFactor":0.5
			}
		},
		{
			"doubleSided":true,
			"name":"SW_ILIG02",
			"pbrMetallicRoughness":{
				"baseColorFactor":[
					0.800000011920929,
					0.800000011920929,
					0.800000011920929,
					1
				],
				"metallicFactor":0,
				"roughnessFactor":0.5
			}
		},
		{
			"doubleSided":true,
			"name":"SW_EWAL06D",
			"pbrMetallicRoughness":{
				"baseColorFactor":[
					0.800000011920929,
					0.800000011920929,
					0.800000011920929,
					1
				],
				"metallicFactor":0,
				"roughnessFactor":0.5
			}
		}
	],
	"meshes":[
		{
			"name":"Mesh",
			"primitives":[
				{
					"attributes":{
						"POSITION":0,
						"NORMAL":1,
						"TEXCOORD_0":2
					},
					"indices":3,
					"material":0
				},
				{
					"attributes":{
						"POSITION":4,
						"NORMAL":5,
						"TEXCOORD_0":6
					},
					"indices":7,
					"material":1
				},
				{
					"attributes":{
						"POSITION":8,
						"NORMAL":9,
						"TEXCOORD_0":10
					},
					"indices":11,
					"material":2
				},
				{
					"attributes":{
						"POSITION":12,
						"NORMAL":13,
						"TEXCOORD_0":14
					},
					"indices":15,
					"material":3
				},
				{
					"attributes":{
						"POSITION":16,
						"NORMAL":17,
						"TEXCOORD_0":18
					},
					"indices":19,
					"material":4
				},
				{
					"attributes":{
						"POSITION":20,
						"NORMAL":21,
						"TEXCOORD_0":22
					},
					"indices":23,
					"material":5
				},
				{
					"attributes":{
						"POSITION":24,
						"NORMAL":25,
						"TEXCOORD_0":26
					},
					"indices":27,
					"material":6
				},
				{
					"attributes":{
						"POSITION":28,
						"NORMAL":29,
						"TEXCOORD_0":30
					},
					"indices":31,
					"material":7
				}
			]
		}
	],
	"accessors":[
		{
			"bufferView":0,
			"componentType":5126,
			"count":64,
			"max":[
				-4,
				6,
				-4
			],
			"min":[
				-20,
				0,
				-20
			],
			"type":"VEC3"
		},
		{
			"bufferView":1,
			"componentType":5126,
			"count":64,
			"type":"VEC3"
		},
		{
			"bufferView":2,
			"componentType":5126,
			"count":64,
			"type":"VEC2"
		},
		{
			"bufferView":3,
			"componentType":5123,
			"count":96,
			"type":"SCALAR"
		},
		{
			"bufferView":4,
			"componentType":5126,
			"count":96,
			"max":[
				-6,
				32,
				-6
			],
			"min":[
				-18,
				0,
				-18
			],
			"type":"VEC3"
		},
		{
			"bufferView":5,
			"componentType":5126,
			"count":96,
			"type":"VEC3"
		},
		{
			"bufferView":6,
			"componentType":5126,
			"count":96,
			"type":"VEC2"
		},
		{
			"bufferView":7,
			"componentType":5123,
			"count":174,
			"type":"SCALAR"
		},
		{
			"bufferView":8,
			"componentType":5126,
			"count":12,
			"max":[
				-8,
				8,
				-8
			],
			"min":[
				-16,
				8,
				-16
			],
			"type":"VEC3"
		},
		{
			"bufferView":9,
			"componentType":5126,
			"count":12,
			"type":"VEC3"
		},
		{
			"bufferView":10,
			"componentType":5126,
			"count":12,
			"type":"VEC2"
		},
		{
			"bufferView":11,
			"componentType":5123,
			"count":24,
			"type":"SCALAR"
		},
		{
			"bufferView":12,
			"componentType":5126,
			"count":64,
			"max":[
				-6,
				32,
				-6
			],
			"min":[
				-18,
				6,
				-18
			],
			"type":"VEC3"
		},
		{
			"bufferView":13,
			"componentType":5126,
			"count":64,
			"type":"VEC3"
		},
		{
			"bufferView":14,
			"componentType":5126,
			"count":64,
			"type":"VEC2"
		},
		{
			"bufferView":15,
			"componentType":5123,
			"count":120,
			"type":"SCALAR"
		},
		{
			"bufferView":16,
			"componentType":5126,
			"count":4,
			"max":[
				-8,
				24,
				-8
			],
			"min":[
				-16,
				24,
				-16
			],
			"type":"VEC3"
		},
		{
			"bufferView":17,
			"componentType":5126,
			"count":4,
			"type":"VEC3"
		},
		{
			"bufferView":18,
			"componentType":5126,
			"count":4,
			"type":"VEC2"
		},
		{
			"bufferView":19,
			"componentType":5123,
			"count":6,
			"type":"SCALAR"
		},
		{
			"bufferView":20,
			"componentType":5126,
			"count":28,
			"max":[
				-4.5,
				24,
				-8
			],
			"min":[
				-19.5,
				0,
				-16
			],
			"type":"VEC3"
		},
		{
			"bufferView":21,
			"componentType":5126,
			"count":28,
			"type":"VEC3"
		},
		{
			"bufferView":22,
			"componentType":5126,
			"count":28,
			"type":"VEC2"
		},
		{
			"bufferView":23,
			"componentType":5123,
			"count":48,
			"type":"SCALAR"
		},
		{
			"bufferView":24,
			"componentType":5126,
			"count":4,
			"max":[
				-10.5,
				8,
				-10.5
			],
			"min":[
				-13.5,
				8,
				-13.5
			],
			"type":"VEC3"
		},
		{
			"bufferView":25,
			"componentType":5126,
			"count":4,
			"type":"VEC3"
		},
		{
			"bufferView":26,
			"componentType":5126,
			"count":4,
			"type":"VEC2"
		},
		{
			"bufferView":27,
			"componentType":5123,
			"count":6,
			"type":"SCALAR"
		},
		{
			"bufferView":28,
			"componentType":5126,
			"count":32,
			"max":[
				-8,
				24,
				-8
			],
			"min":[
				-16,
				8,
				-16
			],
			"type":"VEC3"
		},
		{
			"bufferView":29,
			"componentType":5126,
			"count":32,
			"type":"VEC3"
		},
		{
			"bufferView":30,
			"componentType":5126,
			"count":32,
			"type":"VEC2"
		},
		{
			"bufferView":31,
			"componentType":5123,
			"count":48,
			"type":"SCALAR"
		}
	],
	"bufferViews":[
		{
			"buffer":0,
			"byteLength":768,
			"byteOffset":0,
			"target":34962
		},
		{
			"buffer":0,
			"byteLength":768,
			"byteOffset":768,
			"target":34962
		},
		{
			"buffer":0,
			"byteLength":512,
			"byteOffset":1536,
			"target":34962
		},
		{
			"buffer":0,
			"byteLength":192,
			"byteOffset":2048,
			"target":34963
		},
		{
			"buffer":0,
			"byteLength":1152,
			"byteOffset":2240,
			"target":34962
		},
		{
			"buffer":0,
			"byteLength":1152,
			"byteOffset":3392,
			"target":34962
		},
		{
			"buffer":0,
			"byteLength":768,
			"byteOffset":4544,
			"target":34962
		},
		{
			"buffer":0,
			"byteLength":348,
			"byteOffset":5312,
			"target":34963
		},
		{
			"buffer":0,
			"byteLength":144,
			"byteOffset":5660,
			"target":34962
		},
		{
			"buffer":0,
			"byteLength":144,
			"byteOffset":5804,
			"target":34962
		},
		{
			"buffer":0,
			"byteLength":96,
			"byteOffset":5948,
			"target":34962
		},
		{
			"buffer":0,
			"byteLength":48,
			"byteOffset":6044,
			"target":34963
		},
		{
			"buffer":0,
			"byteLength":768,
			"byteOffset":6092,
			"target":34962
		},
		{
			"buffer":0,
			"byteLength":768,
			"byteOffset":6860,
			"target":34962
		},
		{
			"buffer":0,
			"byteLength":512,
			"byteOffset":7628,
			"target":34962
		},
		{
			"buffer":0,
			"byteLength":240,
			"byteOffset":8140,
			"target":34963
		},
		{
			"buffer":0,
			"byteLength":48,
			"byteOffset":8380,
			"target":34962
		},
		{
			"buffer":0,
			"byteLength":48,
			"byteOffset":8428,
			"target":34962
		},
		{
			"buffer":0,
			"byteLength":32,
			"byteOffset":8476,
			"target":34962
		},
		{
			"buffer":0,
			"byteLength":12,
			"byteOffset":8508,
			"target":34963
		},
		{
			"buffer":0,
			"byteLength":336,
			"byteOffset":8520,
			"target":34962
		},
		{
			"buffer":0,
			"byteLength":336,
			"byteOffset":8856,
			"target":34962
		},
		{
			"buffer":0,
			"byteLength":224,
			"byteOffset":9192,
			"target":34962
		},
		{
			"buffer":0,
			"byteLength":96,
			"byteOffset":9416,
			"target":34963
		},
		{
			"buffer":0,
			"byteLength":48,
			"byteOffset":9512,
			"target":34962
		},
		{
			"buffer":0,
			"byteLength":48,
			"byteOffset":9560,
			"target":34962
		},
		{
			"buffer":0,
			"byteLength":32,
			"byteOffset":9608,
			"target":34962
		},
		{
			"buffer":0,
			"byteLength":12,
			"byteOffset":9640,
			"target":34963
		},
		{
			"buffer":0,
			"byteLength":384,
			"byteOffset":9652,
			"target":34962
		},
		{
			"buffer":0,
			"byteLength":384,
			"byteOffset":10036,
			"target":34962
		},
		{
			"buffer":0,
			"byteLength":256,
			"byteOffset":10420,
			"target":34962
		},
		{
			"buffer":0,
			"byteLength":96,
			"byteOffset":10676,
			"target":34963
		}
	],
	"buffers":[
		{
			"byteLength":10772,
			"uri":"rilke_domain2_boundrymarker.bin"
		}
	]
}
