{
	"asset":{
		"generator":"Khronos glTF Blender I/O v4.5.48",
		"version":"2.0"
	},
	"scene":0,
	"scenes":[
		{
			"name":"Scene",
			"nodes":[
				0
			]
		}
	],
	"nodes":[
		{
			"mesh":0,
			"name":"Object"
		}
	],
	"materials":[
		{
			"doubleSided":true,
			"name":"SW_THRESHGRATE",
			"pbrMetallicRoughness":{
				"baseColorFactor":[
					0.800000011920929,
					0.800000011920929,
					0.800000011920929,
					1
				],
				"metallicFactor":0,
				"roughnessFactor":0.5
			}
		},
		{
			"doubleSided":true,
			"name":"SW_IWAL03",
			"pbrMetallicRoughness":{
				"baseColorFactor":[
					0.800000011920929,
					0.800000011920929,
					0.800000011920929,
					1
				],
				"metallicFactor":0,
				"roughnessFactor":0.5
			}
		},
		{
			"doubleSided":true,
			"name":"SW_ICOLIGOLA",
			"pbrMetallicRoughness":{
				"baseColorFactor":[
					0.800000011920929,
					0.800000011920929,
					0.800000011920929,
					1
				],
				"metallicFactor":0,
				"roughnessFactor":0.5
			}
		},
		{
			"doubleSided":true,
			"name":"SW_FLOORGRATE",
			"pbrMetallicRoughness":{
				"baseColorFactor":[
					0.800000011920929,
					0.800000011920929,
					0.800000011920929,
					1
				],
				"metallicFactor":0,
				"roughnessFactor":0.5
			}
		},
		{
			"doubleSided":true,
			"name":"SW_ICHUTE02",
			"pbrMetallicRoughness":{
				"baseColorFactor":[
					0.800000011920929,
					0.800000011920929,
					0.800000011920929,
					1
				],
				"metallicFactor":0,
				"roughnessFactor":0.5
			}
		},
		{
			"doubleSided":true,
			"name":"SW_IWAL03SNOW",
			"pbrMetallicRoughness":{
				"baseColorFactor":[
					0.800000011920929,
					0.800000011920929,
					0.800000011920929,
					1
				],
				"metallicFactor":0,
				"roughnessFactor":0.5
			}
		},
		{
			"doubleSided":true,
			"name":"SW_THRESH01ON",
			"pbrMetallicRoughness":{
				"baseColorFactor":[
					0.800000011920929,
					0.800000011920929,
					0.800000011920929,
					1
				],
				"metallicFactor":0,
				"roughnessFactor":0.5
			}
		},
		{
			"doubleSided":true,
			"name":"SW_EWAL02",
			"pbrMetallicRoughness":{
				"baseColorFactor":[
					0.800000011920929,
					0.800000011920929,
					0.800000011920929,
					1
				],
				"metallicFactor":0,
				"roughnessFactor":0.5
			}
		},
		{
			"doubleSided":true,
			"name":"SW_EFLO01",
			"pbrMetallicRoughness":{
				"baseColorFactor":[
					0.800000011920929,
					0.800000011920929,
					0.800000011920929,
					1
				],
				"metallicFactor":0,
				"roughnessFactor":0.5
			}
		},
		{
			"doubleSided":true,
			"name":"SW_EWAL06D",
			"pbrMetallicRoughness":{
				"baseColorFactor":[
					0.800000011920929,
					0.800000011920929,
					0.800000011920929,
					1
				],
				"metallicFactor":0,
				"roughnessFactor":0.5
			}
		}
	],
	"meshes":[
		{
			"name":"Mesh",
			"primitives":[
				{
					"attributes":{
						"POSITION":0,
						"NORMAL":1,
						"TEXCOORD_0":2
					},
					"indices":3,
					"material":0
				},
				{
					"attributes":{
						"POSITION":4,
						"NORMAL":5,
						"TEXCOORD_0":6
					},
					"indices":7,
					"material":1
				},
				{
					"attributes":{
						"POSITION":8,
						"NORMAL":9,
						"TEXCOORD_0":10
					},
					"indices":11,
					"material":2
				},
				{
					"attributes":{
						"POSITION":12,
						"NORMAL":13,
						"TEXCOORD_0":14
					},
					"indices":11,
					"material":3
				},
				{
					"attributes":{
						"POSITION":15,
						"NORMAL":16,
						"TEXCOORD_0":17
					},
					"indices":18,
					"material":4
				},
				{
					"attributes":{
						"POSITION":19,
						"NORMAL":20,
						"TEXCOORD_0":21
					},
					"indices":22,
					"material":5
				},
				{
					"attributes":{
						"POSITION":23,
						"NORMAL":24,
						"TEXCOORD_0":25
					},
					"indices":26,
					"material":6
				},
				{
					"attributes":{
						"POSITION":27,
						"NORMAL":28,
						"TEXCOORD_0":29
					},
					"indices":30,
					"material":7
				},
				{
					"attributes":{
						"POSITION":31,
						"NORMAL":32,
						"TEXCOORD_0":33
					},
					"indices":34,
					"material":8
				},
				{
					"attributes":{
						"POSITION":35,
						"NORMAL":36,
						"TEXCOORD_0":37
					},
					"indices":38,
					"material":9
				}
			]
		}
	],
	"accessors":[
		{
			"bufferView":0,
			"componentType":5126,
			"count":44,
			"max":[
				-2,
				33,
				-2
			],
			"min":[
				-22,
				28,
				-22
			],
			"type":"VEC3"
		},
		{
			"bufferView":1,
			"componentType":5126,
			"count":44,
			"type":"VEC3"
		},
		{
			"bufferView":2,
			"componentType":5126,
			"count":44,
			"type":"VEC2"
		},
		{
			"bufferView":3,
			"componentType":5123,
			"count":78,
			"type":"SCALAR"
		},
		{
			"bufferView":4,
			"componentType":5126,
			"count":4,
			"max":[
				-2,
				28,
				-2
			],
			"min":[
				-22,
				28,
				-22
			],
			"type":"VEC3"
		},
		{
			"bufferView":5,
			"componentType":5126,
			"count":4,
			"type":"VEC3"
		},
		{
			"bufferView":6,
			"componentType":5126,
			"count":4,
			"type":"VEC2"
		},
		{
			"bufferView":7,
			"componentType":5123,
			"count":6,
			"type":"SCALAR"
		},
		{
			"bufferView":8,
			"componentType":5126,
			"count":4,
			"max":[
				-5.5,
				20,
				-5.5
			],
			"min":[
				-18.5,
				20,
				-18.5
			],
			"type":"VEC3"
		},
		{
			"bufferView":9,
			"componentType":5126,
			"count":4,
			"type":"VEC3"
		},
		{
			"bufferView":10,
			"componentType":5126,
			"count":4,
			"type":"VEC2"
		},
		{
			"bufferView":11,
			"componentType":5123,
			"count":6,
			"type":"SCALAR"
		},
		{
			"bufferView":12,
			"componentType":5126,
			"count":4,
			"max":[
				-5.75,
				19.5,
				-5.75
			],
			"min":[
				-18.25,
				19.5,
				-18.25
			],
			"type":"VEC3"
		},
		{
			"bufferView":13,
			"componentType":5126,
			"count":4,
			"type":"VEC3"
		},
		{
			"bufferView":14,
			"componentType":5126,
			"count":4,
			"type":"VEC2"
		},
		{
			"bufferView":15,
			"componentType":5126,
			"count":16,
			"max":[
				-5.5,
				20,
				-5.5
			],
			"min":[
				-18.5,
				19.5,
				-18.5
			],
			"type":"VEC3"
		},
		{
			"bufferView":16,
			"componentType":5126,
			"count":16,
			"type":"VEC3"
		},
		{
			"bufferView":17,
			"componentType":5126,
			"count":16,
			"type":"VEC2"
		},
		{
			"bufferView":18,
			"componentType":5123,
			"count":24,
			"type":"SCALAR"
		},
		{
			"bufferView":19,
			"componentType":5126,
			"count":24,
			"max":[
				-2,
				33,
				-2
			],
			"min":[
				-22,
				30,
				-22
			],
			"type":"VEC3"
		},
		{
			"bufferView":20,
			"componentType":5126,
			"count":24,
			"type":"VEC3"
		},
		{
			"bufferView":21,
			"componentType":5126,
			"count":24,
			"type":"VEC2"
		},
		{
			"bufferView":22,
			"componentType":5123,
			"count":48,
			"type":"SCALAR"
		},
		{
			"bufferView":23,
			"componentType":5126,
			"count":8,
			"max":[
				-6,
				33,
				-6
			],
			"min":[
				-18,
				30,
				-10
			],
			"type":"VEC3"
		},
		{
			"bufferView":24,
			"componentType":5126,
			"count":8,
			"type":"VEC3"
		},
		{
			"bufferView":25,
			"componentType":5126,
			"count":8,
			"type":"VEC2"
		},
		{
			"bufferView":26,
			"componentType":5123,
			"count":12,
			"type":"SCALAR"
		},
		{
			"bufferView":27,
			"componentType":5126,
			"count":32,
			"max":[
				-2.5,
				28,
				-2.5
			],
			"min":[
				-21.5,
				20,
				-21.5
			],
			"type":"VEC3"
		},
		{
			"bufferView":28,
			"componentType":5126,
			"count":32,
			"type":"VEC3"
		},
		{
			"bufferView":29,
			"componentType":5126,
			"count":32,
			"type":"VEC2"
		},
		{
			"bufferView":30,
			"componentType":5123,
			"count":48,
			"type":"SCALAR"
		},
		{
			"bufferView":31,
			"componentType":5126,
			"count":16,
			"max":[
				-2,
				28,
				-2
			],
			"min":[
				-22,
				20,
				-22
			],
			"type":"VEC3"
		},
		{
			"bufferView":32,
			"componentType":5126,
			"count":16,
			"type":"VEC3"
		},
		{
			"bufferView":33,
			"componentType":5126,
			"count":16,
			"type":"VEC2"
		},
		{
			"bufferView":34,
			"componentType":5123,
			"count":24,
			"type":"SCALAR"
		},
		{
			"bufferView":35,
			"componentType":5126,
			"count":32,
			"max":[
				-2,
				28,
				-2
			],
			"min":[
				-22,
				20,
				-22
			],
			"type":"VEC3"
		},
		{
			"bufferView":36,
			"componentType":5126,
			"count":32,
			"type":"VEC3"
		},
		{
			"bufferView":37,
			"componentType":5126,
			"count":32,
			"type":"VEC2"
		},
		{
			"bufferView":38,
			"componentType":5123,
			"count":48,
			"type":"SCALAR"
		}
	],
	"bufferViews":[
		{
			"buffer":0,
			"byteLength":528,
			"byteOffset":0,
			"target":34962
		},
		{
			"buffer":0,
			"byteLength":528,
			"byteOffset":528,
			"target":34962
		},
		{
			"buffer":0,
			"byteLength":352,
			"byteOffset":1056,
			"target":34962
		},
		{
			"buffer":0,
			"byteLength":156,
			"byteOffset":1408,
			"target":34963
		},
		{
			"buffer":0,
			"byteLength":48,
			"byteOffset":1564,
			"target":34962
		},
		{
			"buffer":0,
			"byteLength":48,
			"byteOffset":1612,
			"target":34962
		},
		{
			"buffer":0,
			"byteLength":32,
			"byteOffset":1660,
			"target":34962
		},
		{
			"buffer":0,
			"byteLength":12,
			"byteOffset":1692,
			"target":34963
		},
		{
			"buffer":0,
			"byteLength":48,
			"byteOffset":1704,
			"target":34962
		},
		{
			"buffer":0,
			"byteLength":48,
			"byteOffset":1752,
			"target":34962
		},
		{
			"buffer":0,
			"byteLength":32,
			"byteOffset":1800,
			"target":34962
		},
		{
			"buffer":0,
			"byteLength":12,
			"byteOffset":1832,
			"target":34963
		},
		{
			"buffer":0,
			"byteLength":48,
			"byteOffset":1844,
			"target":34962
		},
		{
			"buffer":0,
			"byteLength":48,
			"byteOffset":1892,
			"target":34962
		},
		{
			"buffer":0,
			"byteLength":32,
			"byteOffset":1940,
			"target":34962
		},
		{
			"buffer":0,
			"byteLength":192,
			"byteOffset":1972,
			"target":34962
		},
		{
			"buffer":0,
			"byteLength":192,
			"byteOffset":2164,
			"target":34962
		},
		{
			"buffer":0,
			"byteLength":128,
			"byteOffset":2356,
			"target":34962
		},
		{
			"buffer":0,
			"byteLength":48,
			"byteOffset":2484,
			"target":34963
		},
		{
			"buffer":0,
			"byteLength":288,
			"byteOffset":2532,
			"target":34962
		},
		{
			"buffer":0,
			"byteLength":288,
			"byteOffset":2820,
			"target":34962
		},
		{
			"buffer":0,
			"byteLength":192,
			"byteOffset":3108,
			"target":34962
		},
		{
			"buffer":0,
			"byteLength":96,
			"byteOffset":3300,
			"target":34963
		},
		{
			"buffer":0,
			"byteLength":96,
			"byteOffset":3396,
			"target":34962
		},
		{
			"buffer":0,
			"byteLength":96,
			"byteOffset":3492,
			"target":34962
		},
		{
			"buffer":0,
			"byteLength":64,
			"byteOffset":3588,
			"target":34962
		},
		{
			"buffer":0,
			"byteLength":24,
			"byteOffset":3652,
			"target":34963
		},
		{
			"buffer":0,
			"byteLength":384,
			"byteOffset":3676,
			"target":34962
		},
		{
			"buffer":0,
			"byteLength":384,
			"byteOffset":4060,
			"target":34962
		},
		{
			"buffer":0,
			"byteLength":256,
			"byteOffset":4444,
			"target":34962
		},
		{
			"buffer":0,
			"byteLength":96,
			"byteOffset":4700,
			"target":34963
		},
		{
			"buffer":0,
			"byteLength":192,
			"byteOffset":4796,
			"target":34962
		},
		{
			"buffer":0,
			"byteLength":192,
			"byteOffset":4988,
			"target":34962
		},
		{
			"buffer":0,
			"byteLength":128,
			"byteOffset":5180,
			"target":34962
		},
		{
			"buffer":0,
			"byteLength":48,
			"byteOffset":5308,
			"target":34963
		},
		{
			"buffer":0,
			"byteLength":384,
			"byteOffset":5356,
			"target":34962
		},
		{
			"buffer":0,
			"byteLength":384,
			"byteOffset":5740,
			"target":34962
		},
		{
			"buffer":0,
			"byteLength":256,
			"byteOffset":6124,
			"target":34962
		},
		{
			"buffer":0,
			"byteLength":96,
			"byteOffset":6380,
			"target":34963
		}
	],
	"buffers":[
		{
			"byteLength":6476,
			"uri":"rilke_domain2_boundrymarker2.bin"
		}
	]
}
