{
	"asset":{
		"generator":"Khronos glTF Blender I/O v4.5.48",
		"version":"2.0"
	},
	"scene":0,
	"scenes":[
		{
			"name":"Scene",
			"nodes":[
				0
			]
		}
	],
	"nodes":[
		{
			"mesh":0,
			"name":"Object"
		}
	],
	"materials":[
		{
			"doubleSided":true,
			"name":"SW_IWAL01",
			"pbrMetallicRoughness":{
				"baseColorFactor":[
					0.800000011920929,
					0.800000011920929,
					0.800000011920929,
					1
				],
				"metallicFactor":0,
				"roughnessFactor":0.5
			}
		},
		{
			"doubleSided":true,
			"name":"SW_FLOORGRATE",
			"pbrMetallicRoughness":{
				"baseColorFactor":[
					0.800000011920929,
					0.800000011920929,
					0.800000011920929,
					1
				],
				"metallicFactor":0,
				"roughnessFactor":0.5
			}
		},
		{
			"doubleSided":true,
			"name":"SW_IFLOOR01B",
			"pbrMetallicRoughness":{
				"baseColorFactor":[
					0.800000011920929,
					0.800000011920929,
					0.800000011920929,
					1
				],
				"metallicFactor":0,
				"roughnessFactor":0.5
			}
		},
		{
			"doubleSided":true,
			"name":"SW_EWAL02",
			"pbrMetallicRoughness":{
				"baseColorFactor":[
					0.800000011920929,
					0.800000011920929,
					0.800000011920929,
					1
				],
				"metallicFactor":0,
				"roughnessFactor":0.5
			}
		},
		{
			"doubleSided":true,
			"name":"SW_ICHUTE02",
			"pbrMetallicRoughness":{
				"baseColorFactor":[
					0.800000011920929,
					0.800000011920929,
					0.800000011920929,
					1
				],
				"metallicFactor":0,
				"roughnessFactor":0.5
			}
		},
		{
			"doubleSided":true,
			"name":"SW_ELIG01",
			"pbrMetallicRoughness":{
				"baseColorFactor":[
					0.800000011920929,
					0.800000011920929,
					0.800000011920929,
					1
				],
				"metallicFactor":0,
				"roughnessFactor":0.5
			}
		},
		{
			"doubleSided":true,
			"name":"SW_EFLO01",
			"pbrMetallicRoughness":{
				"baseColorFactor":[
					0.800000011920929,
					0.800000011920929,
					0.800000011920929,
					1
				],
				"metallicFactor":0,
				"roughnessFactor":0.5
			}
		},
		{
			"doubleSided":true,
			"name":"SW_EDOOR04",
			"pbrMetallicRoughness":{
				"baseColorFactor":[
					0.800000011920929,
					0.800000011920929,
					0.800000011920929,
					1
				],
				"metallicFactor":0,
				"roughnessFactor":0.5
			}
		},
		{
			"doubleSided":true,
			"name":"SW_EBOR01",
			"pbrMetallicRoughness":{
				"baseColorFactor":[
					0.800000011920929,
					0.800000011920929,
					0.800000011920929,
					1
				],
				"metallicFactor":0,
				"roughnessFactor":0.5
			}
		}
	],
	"meshes":[
		{
			"name":"Mesh",
			"primitives":[
				{
					"attributes":{
						"POSITION":0,
						"NORMAL":1,
						"TEXCOORD_0":2
					},
					"indices":3,
					"material":0
				},
				{
					"attributes":{
						"POSITION":4,
						"NORMAL":5,
						"TEXCOORD_0":6
					},
					"indices":7,
					"material":1
				},
				{
					"attributes":{
						"POSITION":8,
						"NORMAL":9,
						"TEXCOORD_0":10
					},
					"indices":11,
					"material":2
				},
				{
					"attributes":{
						"POSITION":12,
						"NORMAL":13,
						"TEXCOORD_0":14
					},
					"indices":15,
					"material":3
				},
				{
					"attributes":{
						"POSITION":16,
						"NORMAL":17,
						"TEXCOORD_0":18
					},
					"indices":19,
					"material":4
				},
				{
					"attributes":{
						"POSITION":20,
						"NORMAL":21,
						"TEXCOORD_0":22
					},
					"indices":23,
					"material":5
				},
				{
					"attributes":{
						"POSITION":24,
						"NORMAL":25,
						"TEXCOORD_0":26
					},
					"indices":27,
					"material":6
				},
				{
					"attributes":{
						"POSITION":28,
						"NORMAL":29,
						"TEXCOORD_0":30
					},
					"indices":31,
					"material":7
				},
				{
					"attributes":{
						"POSITION":32,
						"NORMAL":33,
						"TEXCOORD_0":34
					},
					"indices":35,
					"material":8
				}
			]
		}
	],
	"accessors":[
		{
			"bufferView":0,
			"componentType":5126,
			"count":212,
			"max":[
				10,
				2,
				96
			],
			"min":[
				-10,
				-32,
				-48
			],
			"type":"VEC3"
		},
		{
			"bufferView":1,
			"componentType":5126,
			"count":212,
			"type":"VEC3"
		},
		{
			"bufferView":2,
			"componentType":5126,
			"count":212,
			"type":"VEC2"
		},
		{
			"bufferView":3,
			"componentType":5123,
			"count":318,
			"type":"SCALAR"
		},
		{
			"bufferView":4,
			"componentType":5126,
			"count":8,
			"max":[
				10,
				2,
				96
			],
			"min":[
				-10,
				5.337288008338539e-16,
				-48
			],
			"type":"VEC3"
		},
		{
			"bufferView":5,
			"componentType":5126,
			"count":8,
			"type":"VEC3"
		},
		{
			"bufferView":6,
			"componentType":5126,
			"count":8,
			"type":"VEC2"
		},
		{
			"bufferView":7,
			"componentType":5123,
			"count":12,
			"type":"SCALAR"
		},
		{
			"bufferView":8,
			"componentType":5126,
			"count":12,
			"max":[
				7,
				1,
				96
			],
			"min":[
				-7,
				1,
				-48
			],
			"type":"VEC3"
		},
		{
			"bufferView":9,
			"componentType":5126,
			"count":12,
			"type":"VEC3"
		},
		{
			"bufferView":10,
			"componentType":5126,
			"count":12,
			"type":"VEC2"
		},
		{
			"bufferView":11,
			"componentType":5123,
			"count":18,
			"type":"SCALAR"
		},
		{
			"bufferView":12,
			"componentType":5126,
			"count":48,
			"max":[
				5,
				-6,
				70
			],
			"min":[
				-5,
				-16,
				-22
			],
			"type":"VEC3"
		},
		{
			"bufferView":13,
			"componentType":5126,
			"count":48,
			"type":"VEC3"
		},
		{
			"bufferView":14,
			"componentType":5126,
			"count":48,
			"type":"VEC2"
		},
		{
			"bufferView":15,
			"componentType":5123,
			"count":72,
			"type":"SCALAR"
		},
		{
			"bufferView":16,
			"componentType":5126,
			"count":8,
			"max":[
				7,
				1,
				66
			],
			"min":[
				-7,
				1,
				-18
			],
			"type":"VEC3"
		},
		{
			"bufferView":17,
			"componentType":5126,
			"count":8,
			"type":"VEC3"
		},
		{
			"bufferView":18,
			"componentType":5126,
			"count":8,
			"type":"VEC2"
		},
		{
			"bufferView":19,
			"componentType":5123,
			"count":12,
			"type":"SCALAR"
		},
		{
			"bufferView":20,
			"componentType":5126,
			"count":32,
			"max":[
				7,
				1.5,
				96
			],
			"min":[
				-7,
				-24,
				-48
			],
			"type":"VEC3"
		},
		{
			"bufferView":21,
			"componentType":5126,
			"count":32,
			"type":"VEC3"
		},
		{
			"bufferView":22,
			"componentType":5126,
			"count":32,
			"type":"VEC2"
		},
		{
			"bufferView":23,
			"componentType":5123,
			"count":48,
			"type":"SCALAR"
		},
		{
			"bufferView":24,
			"componentType":5126,
			"count":40,
			"max":[
				5,
				-2,
				66
			],
			"min":[
				-5,
				-24,
				-18
			],
			"type":"VEC3"
		},
		{
			"bufferView":25,
			"componentType":5126,
			"count":40,
			"type":"VEC3"
		},
		{
			"bufferView":26,
			"componentType":5126,
			"count":40,
			"type":"VEC2"
		},
		{
			"bufferView":27,
			"componentType":5123,
			"count":72,
			"type":"SCALAR"
		},
		{
			"bufferView":28,
			"componentType":5126,
			"count":40,
			"max":[
				7,
				-24,
				72
			],
			"min":[
				-7,
				-26,
				-24
			],
			"type":"VEC3"
		},
		{
			"bufferView":29,
			"componentType":5126,
			"count":40,
			"type":"VEC3"
		},
		{
			"bufferView":30,
			"componentType":5126,
			"count":40,
			"type":"VEC2"
		},
		{
			"bufferView":31,
			"componentType":5123,
			"count":72,
			"type":"SCALAR"
		},
		{
			"bufferView":32,
			"componentType":5126,
			"count":8,
			"max":[
				7,
				2,
				96
			],
			"min":[
				-7,
				1.5,
				-48
			],
			"type":"VEC3"
		},
		{
			"bufferView":33,
			"componentType":5126,
			"count":8,
			"type":"VEC3"
		},
		{
			"bufferView":34,
			"componentType":5126,
			"count":8,
			"type":"VEC2"
		},
		{
			"bufferView":35,
			"componentType":5123,
			"count":12,
			"type":"SCALAR"
		}
	],
	"bufferViews":[
		{
			"buffer":0,
			"byteLength":2544,
			"byteOffset":0,
			"target":34962
		},
		{
			"buffer":0,
			"byteLength":2544,
			"byteOffset":2544,
			"target":34962
		},
		{
			"buffer":0,
			"byteLength":1696,
			"byteOffset":5088,
			"target":34962
		},
		{
			"buffer":0,
			"byteLength":636,
			"byteOffset":6784,
			"target":34963
		},
		{
			"buffer":0,
			"byteLength":96,
			"byteOffset":7420,
			"target":34962
		},
		{
			"buffer":0,
			"byteLength":96,
			"byteOffset":7516,
			"target":34962
		},
		{
			"buffer":0,
			"byteLength":64,
			"byteOffset":7612,
			"target":34962
		},
		{
			"buffer":0,
			"byteLength":24,
			"byteOffset":7676,
			"target":34963
		},
		{
			"buffer":0,
			"byteLength":144,
			"byteOffset":7700,
			"target":34962
		},
		{
			"buffer":0,
			"byteLength":144,
			"byteOffset":7844,
			"target":34962
		},
		{
			"buffer":0,
			"byteLength":96,
			"byteOffset":7988,
			"target":34962
		},
		{
			"buffer":0,
			"byteLength":36,
			"byteOffset":8084,
			"target":34963
		},
		{
			"buffer":0,
			"byteLength":576,
			"byteOffset":8120,
			"target":34962
		},
		{
			"buffer":0,
			"byteLength":576,
			"byteOffset":8696,
			"target":34962
		},
		{
			"buffer":0,
			"byteLength":384,
			"byteOffset":9272,
			"target":34962
		},
		{
			"buffer":0,
			"byteLength":144,
			"byteOffset":9656,
			"target":34963
		},
		{
			"buffer":0,
			"byteLength":96,
			"byteOffset":9800,
			"target":34962
		},
		{
			"buffer":0,
			"byteLength":96,
			"byteOffset":9896,
			"target":34962
		},
		{
			"buffer":0,
			"byteLength":64,
			"byteOffset":9992,
			"target":34962
		},
		{
			"buffer":0,
			"byteLength":24,
			"byteOffset":10056,
			"target":34963
		},
		{
			"buffer":0,
			"byteLength":384,
			"byteOffset":10080,
			"target":34962
		},
		{
			"buffer":0,
			"byteLength":384,
			"byteOffset":10464,
			"target":34962
		},
		{
			"buffer":0,
			"byteLength":256,
			"byteOffset":10848,
			"target":34962
		},
		{
			"buffer":0,
			"byteLength":96,
			"byteOffset":11104,
			"target":34963
		},
		{
			"buffer":0,
			"byteLength":480,
			"byteOffset":11200,
			"target":34962
		},
		{
			"buffer":0,
			"byteLength":480,
			"byteOffset":11680,
			"target":34962
		},
		{
			"buffer":0,
			"byteLength":320,
			"byteOffset":12160,
			"target":34962
		},
		{
			"buffer":0,
			"byteLength":144,
			"byteOffset":12480,
			"target":34963
		},
		{
			"buffer":0,
			"byteLength":480,
			"byteOffset":12624,
			"target":34962
		},
		{
			"buffer":0,
			"byteLength":480,
			"byteOffset":13104,
			"target":34962
		},
		{
			"buffer":0,
			"byteLength":320,
			"byteOffset":13584,
			"target":34962
		},
		{
			"buffer":0,
			"byteLength":144,
			"byteOffset":13904,
			"target":34963
		},
		{
			"buffer":0,
			"byteLength":96,
			"byteOffset":14048,
			"target":34962
		},
		{
			"buffer":0,
			"byteLength":96,
			"byteOffset":14144,
			"target":34962
		},
		{
			"buffer":0,
			"byteLength":64,
			"byteOffset":14240,
			"target":34962
		},
		{
			"buffer":0,
			"byteLength":24,
			"byteOffset":14304,
			"target":34963
		}
	],
	"buffers":[
		{
			"byteLength":14328,
			"uri":"rilke_domain2_bridge1.bin"
		}
	]
}
