{
	"asset":{
		"generator":"Khronos glTF Blender I/O v4.5.48",
		"version":"2.0"
	},
	"scene":0,
	"scenes":[
		{
			"name":"Scene",
			"nodes":[
				0
			]
		}
	],
	"nodes":[
		{
			"mesh":0,
			"name":"Object"
		}
	],
	"materials":[
		{
			"doubleSided":true,
			"name":"CP_IWAL02G",
			"pbrMetallicRoughness":{
				"baseColorFactor":[
					0.800000011920929,
					0.800000011920929,
					0.800000011920929,
					1
				],
				"metallicFactor":0,
				"roughnessFactor":0.5
			}
		},
		{
			"doubleSided":true,
			"name":"CP_IWAL02B",
			"pbrMetallicRoughness":{
				"baseColorFactor":[
					0.800000011920929,
					0.800000011920929,
					0.800000011920929,
					1
				],
				"metallicFactor":0,
				"roughnessFactor":0.5
			}
		},
		{
			"doubleSided":true,
			"name":"CP_IFLO02A",
			"pbrMetallicRoughness":{
				"baseColorFactor":[
					0.800000011920929,
					0.800000011920929,
					0.800000011920929,
					1
				],
				"metallicFactor":0,
				"roughnessFactor":0.5
			}
		},
		{
			"doubleSided":true,
			"name":"CP_IWALBASE02",
			"pbrMetallicRoughness":{
				"baseColorFactor":[
					0.800000011920929,
					0.800000011920929,
					0.800000011920929,
					1
				],
				"metallicFactor":0,
				"roughnessFactor":0.5
			}
		},
		{
			"doubleSided":true,
			"name":"CP_IWALBASE02A",
			"pbrMetallicRoughness":{
				"baseColorFactor":[
					0.800000011920929,
					0.800000011920929,
					0.800000011920929,
					1
				],
				"metallicFactor":0,
				"roughnessFactor":0.5
			}
		},
		{
			"doubleSided":true,
			"name":"CP_ISPEC01",
			"pbrMetallicRoughness":{
				"baseColorFactor":[
					0.800000011920929,
					0.800000011920929,
					0.800000011920929,
					1
				],
				"metallicFactor":0,
				"roughnessFactor":0.5
			}
		}
	],
	"meshes":[
		{
			"name":"Mesh",
			"primitives":[
				{
					"attributes":{
						"POSITION":0,
						"NORMAL":1,
						"TEXCOORD_0":2
					},
					"indices":3,
					"material":0
				},
				{
					"attributes":{
						"POSITION":4,
						"NORMAL":5,
						"TEXCOORD_0":6
					},
					"indices":7,
					"material":1
				},
				{
					"attributes":{
						"POSITION":8,
						"NORMAL":9,
						"TEXCOORD_0":10
					},
					"indices":11,
					"material":2
				},
				{
					"attributes":{
						"POSITION":12,
						"NORMAL":13,
						"TEXCOORD_0":14
					},
					"indices":15,
					"material":3
				},
				{
					"attributes":{
						"POSITION":16,
						"NORMAL":17,
						"TEXCOORD_0":18
					},
					"indices":19,
					"material":4
				},
				{
					"attributes":{
						"POSITION":20,
						"NORMAL":21,
						"TEXCOORD_0":22
					},
					"indices":23,
					"material":5
				}
			]
		}
	],
	"accessors":[
		{
			"bufferView":0,
			"componentType":5126,
			"count":822,
			"max":[
				34,
				20,
				22
			],
			"min":[
				-10,
				-16,
				-24
			],
			"type":"VEC3"
		},
		{
			"bufferView":1,
			"componentType":5126,
			"count":822,
			"type":"VEC3"
		},
		{
			"bufferView":2,
			"componentType":5126,
			"count":822,
			"type":"VEC2"
		},
		{
			"bufferView":3,
			"componentType":5123,
			"count":1650,
			"type":"SCALAR"
		},
		{
			"bufferView":4,
			"componentType":5126,
			"count":144,
			"max":[
				26,
				8,
				17.4375
			],
			"min":[
				-2,
				-4,
				-16
			],
			"type":"VEC3"
		},
		{
			"bufferView":5,
			"componentType":5126,
			"count":144,
			"type":"VEC3"
		},
		{
			"bufferView":6,
			"componentType":5126,
			"count":144,
			"type":"VEC2"
		},
		{
			"bufferView":7,
			"componentType":5123,
			"count":330,
			"type":"SCALAR"
		},
		{
			"bufferView":8,
			"componentType":5126,
			"count":4,
			"max":[
				16,
				-14,
				-6
			],
			"min":[
				8,
				-14,
				-15
			],
			"type":"VEC3"
		},
		{
			"bufferView":9,
			"componentType":5126,
			"count":4,
			"type":"VEC3"
		},
		{
			"bufferView":10,
			"componentType":5126,
			"count":4,
			"type":"VEC2"
		},
		{
			"bufferView":11,
			"componentType":5123,
			"count":6,
			"type":"SCALAR"
		},
		{
			"bufferView":12,
			"componentType":5126,
			"count":21,
			"max":[
				22,
				-4,
				22
			],
			"min":[
				4,
				-8,
				16
			],
			"type":"VEC3"
		},
		{
			"bufferView":13,
			"componentType":5126,
			"count":21,
			"type":"VEC3"
		},
		{
			"bufferView":14,
			"componentType":5126,
			"count":21,
			"type":"VEC2"
		},
		{
			"bufferView":15,
			"componentType":5123,
			"count":33,
			"type":"SCALAR"
		},
		{
			"bufferView":16,
			"componentType":5126,
			"count":10,
			"max":[
				22,
				-5,
				20
			],
			"min":[
				4,
				-6,
				16
			],
			"type":"VEC3"
		},
		{
			"bufferView":17,
			"componentType":5126,
			"count":10,
			"type":"VEC3"
		},
		{
			"bufferView":18,
			"componentType":5126,
			"count":10,
			"type":"VEC2"
		},
		{
			"bufferView":19,
			"componentType":5123,
			"count":18,
			"type":"SCALAR"
		},
		{
			"bufferView":20,
			"componentType":5126,
			"count":9,
			"max":[
				26,
				14,
				15
			],
			"min":[
				-1,
				-4,
				15
			],
			"type":"VEC3"
		},
		{
			"bufferView":21,
			"componentType":5126,
			"count":9,
			"type":"VEC3"
		},
		{
			"bufferView":22,
			"componentType":5126,
			"count":9,
			"type":"VEC2"
		},
		{
			"bufferView":23,
			"componentType":5123,
			"count":15,
			"type":"SCALAR"
		}
	],
	"bufferViews":[
		{
			"buffer":0,
			"byteLength":9864,
			"byteOffset":0,
			"target":34962
		},
		{
			"buffer":0,
			"byteLength":9864,
			"byteOffset":9864,
			"target":34962
		},
		{
			"buffer":0,
			"byteLength":6576,
			"byteOffset":19728,
			"target":34962
		},
		{
			"buffer":0,
			"byteLength":3300,
			"byteOffset":26304,
			"target":34963
		},
		{
			"buffer":0,
			"byteLength":1728,
			"byteOffset":29604,
			"target":34962
		},
		{
			"buffer":0,
			"byteLength":1728,
			"byteOffset":31332,
			"target":34962
		},
		{
			"buffer":0,
			"byteLength":1152,
			"byteOffset":33060,
			"target":34962
		},
		{
			"buffer":0,
			"byteLength":660,
			"byteOffset":34212,
			"target":34963
		},
		{
			"buffer":0,
			"byteLength":48,
			"byteOffset":34872,
			"target":34962
		},
		{
			"buffer":0,
			"byteLength":48,
			"byteOffset":34920,
			"target":34962
		},
		{
			"buffer":0,
			"byteLength":32,
			"byteOffset":34968,
			"target":34962
		},
		{
			"buffer":0,
			"byteLength":12,
			"byteOffset":35000,
			"target":34963
		},
		{
			"buffer":0,
			"byteLength":252,
			"byteOffset":35012,
			"target":34962
		},
		{
			"buffer":0,
			"byteLength":252,
			"byteOffset":35264,
			"target":34962
		},
		{
			"buffer":0,
			"byteLength":168,
			"byteOffset":35516,
			"target":34962
		},
		{
			"buffer":0,
			"byteLength":66,
			"byteOffset":35684,
			"target":34963
		},
		{
			"buffer":0,
			"byteLength":120,
			"byteOffset":35752,
			"target":34962
		},
		{
			"buffer":0,
			"byteLength":120,
			"byteOffset":35872,
			"target":34962
		},
		{
			"buffer":0,
			"byteLength":80,
			"byteOffset":35992,
			"target":34962
		},
		{
			"buffer":0,
			"byteLength":36,
			"byteOffset":36072,
			"target":34963
		},
		{
			"buffer":0,
			"byteLength":108,
			"byteOffset":36108,
			"target":34962
		},
		{
			"buffer":0,
			"byteLength":108,
			"byteOffset":36216,
			"target":34962
		},
		{
			"buffer":0,
			"byteLength":72,
			"byteOffset":36324,
			"target":34962
		},
		{
			"buffer":0,
			"byteLength":30,
			"byteOffset":36396,
			"target":34963
		}
	],
	"buffers":[
		{
			"byteLength":36428,
			"uri":"ruin1.bin"
		}
	]
}
