{
	"asset":{
		"generator":"Khronos glTF Blender I/O v4.5.48",
		"version":"2.0"
	},
	"scene":0,
	"scenes":[
		{
			"name":"Scene",
			"nodes":[
				0
			]
		}
	],
	"nodes":[
		{
			"mesh":0,
			"name":"Object"
		}
	],
	"materials":[
		{
			"doubleSided":true,
			"name":"BE_EWAL01B",
			"pbrMetallicRoughness":{
				"baseColorFactor":[
					0.800000011920929,
					0.800000011920929,
					0.800000011920929,
					1
				],
				"metallicFactor":0,
				"roughnessFactor":0.5
			}
		},
		{
			"doubleSided":true,
			"name":"BE_EWAL09B",
			"pbrMetallicRoughness":{
				"baseColorFactor":[
					0.800000011920929,
					0.800000011920929,
					0.800000011920929,
					1
				],
				"metallicFactor":0,
				"roughnessFactor":0.5
			}
		},
		{
			"doubleSided":true,
			"name":"BE_EBOR02",
			"pbrMetallicRoughness":{
				"baseColorFactor":[
					0.800000011920929,
					0.800000011920929,
					0.800000011920929,
					1
				],
				"metallicFactor":0,
				"roughnessFactor":0.5
			}
		},
		{
			"doubleSided":true,
			"name":"BE_ITEBOR02A",
			"pbrMetallicRoughness":{
				"baseColorFactor":[
					0.800000011920929,
					0.800000011920929,
					0.800000011920929,
					1
				],
				"metallicFactor":0,
				"roughnessFactor":0.5
			}
		},
		{
			"doubleSided":true,
			"name":"BE_IHAWAL02",
			"pbrMetallicRoughness":{
				"baseColorFactor":[
					0.800000011920929,
					0.800000011920929,
					0.800000011920929,
					1
				],
				"metallicFactor":0,
				"roughnessFactor":0.5
			}
		},
		{
			"doubleSided":true,
			"name":"BE_EWAL03A",
			"pbrMetallicRoughness":{
				"baseColorFactor":[
					0.800000011920929,
					0.800000011920929,
					0.800000011920929,
					1
				],
				"metallicFactor":0,
				"roughnessFactor":0.5
			}
		},
		{
			"doubleSided":true,
			"name":"BE_IPIPE01",
			"pbrMetallicRoughness":{
				"baseColorFactor":[
					0.800000011920929,
					0.800000011920929,
					0.800000011920929,
					1
				],
				"metallicFactor":0,
				"roughnessFactor":0.5
			}
		},
		{
			"doubleSided":true,
			"name":"BE_EBOR04A",
			"pbrMetallicRoughness":{
				"baseColorFactor":[
					0.800000011920929,
					0.800000011920929,
					0.800000011920929,
					1
				],
				"metallicFactor":0,
				"roughnessFactor":0.5
			}
		},
		{
			"doubleSided":true,
			"name":"BE_EFLO02",
			"pbrMetallicRoughness":{
				"baseColorFactor":[
					0.800000011920929,
					0.800000011920929,
					0.800000011920929,
					1
				],
				"metallicFactor":0,
				"roughnessFactor":0.5
			}
		},
		{
			"doubleSided":true,
			"name":"BE_EWAL04A",
			"pbrMetallicRoughness":{
				"baseColorFactor":[
					0.800000011920929,
					0.800000011920929,
					0.800000011920929,
					1
				],
				"metallicFactor":0,
				"roughnessFactor":0.5
			}
		}
	],
	"meshes":[
		{
			"name":"Mesh",
			"primitives":[
				{
					"attributes":{
						"POSITION":0,
						"NORMAL":1,
						"TEXCOORD_0":2
					},
					"indices":3,
					"material":0
				},
				{
					"attributes":{
						"POSITION":4,
						"NORMAL":5,
						"TEXCOORD_0":6
					},
					"indices":7,
					"material":1
				},
				{
					"attributes":{
						"POSITION":8,
						"NORMAL":9,
						"TEXCOORD_0":10
					},
					"indices":11,
					"material":2
				},
				{
					"attributes":{
						"POSITION":12,
						"NORMAL":13,
						"TEXCOORD_0":14
					},
					"indices":15,
					"material":3
				},
				{
					"attributes":{
						"POSITION":16,
						"NORMAL":17,
						"TEXCOORD_0":18
					},
					"indices":19,
					"material":4
				},
				{
					"attributes":{
						"POSITION":20,
						"NORMAL":21,
						"TEXCOORD_0":22
					},
					"indices":23,
					"material":5
				},
				{
					"attributes":{
						"POSITION":24,
						"NORMAL":25,
						"TEXCOORD_0":26
					},
					"indices":27,
					"material":6
				},
				{
					"attributes":{
						"POSITION":28,
						"NORMAL":29,
						"TEXCOORD_0":30
					},
					"indices":31,
					"material":7
				},
				{
					"attributes":{
						"POSITION":32,
						"NORMAL":33,
						"TEXCOORD_0":34
					},
					"indices":35,
					"material":8
				},
				{
					"attributes":{
						"POSITION":36,
						"NORMAL":37,
						"TEXCOORD_0":38
					},
					"indices":39,
					"material":9
				}
			]
		}
	],
	"accessors":[
		{
			"bufferView":0,
			"componentType":5126,
			"count":44,
			"max":[
				12,
				8,
				8
			],
			"min":[
				-12,
				-2,
				-8
			],
			"type":"VEC3"
		},
		{
			"bufferView":1,
			"componentType":5126,
			"count":44,
			"type":"VEC3"
		},
		{
			"bufferView":2,
			"componentType":5126,
			"count":44,
			"type":"VEC2"
		},
		{
			"bufferView":3,
			"componentType":5123,
			"count":84,
			"type":"SCALAR"
		},
		{
			"bufferView":4,
			"componentType":5126,
			"count":12,
			"max":[
				12,
				6.743904272471328e-16,
				8
			],
			"min":[
				-12,
				-2,
				-8
			],
			"type":"VEC3"
		},
		{
			"bufferView":5,
			"componentType":5126,
			"count":12,
			"type":"VEC3"
		},
		{
			"bufferView":6,
			"componentType":5126,
			"count":12,
			"type":"VEC2"
		},
		{
			"bufferView":7,
			"componentType":5123,
			"count":24,
			"type":"SCALAR"
		},
		{
			"bufferView":8,
			"componentType":5126,
			"count":52,
			"max":[
				5,
				8.5,
				8
			],
			"min":[
				-5,
				6.5,
				-8
			],
			"type":"VEC3"
		},
		{
			"bufferView":9,
			"componentType":5126,
			"count":52,
			"type":"VEC3"
		},
		{
			"bufferView":10,
			"componentType":5126,
			"count":52,
			"type":"VEC2"
		},
		{
			"bufferView":11,
			"componentType":5123,
			"count":96,
			"type":"SCALAR"
		},
		{
			"bufferView":12,
			"componentType":5126,
			"count":8,
			"max":[
				4,
				8.5,
				8
			],
			"min":[
				-4,
				7.5,
				-8
			],
			"type":"VEC3"
		},
		{
			"bufferView":13,
			"componentType":5126,
			"count":8,
			"type":"VEC3"
		},
		{
			"bufferView":14,
			"componentType":5126,
			"count":8,
			"type":"VEC2"
		},
		{
			"bufferView":15,
			"componentType":5123,
			"count":12,
			"type":"SCALAR"
		},
		{
			"bufferView":16,
			"componentType":5126,
			"count":8,
			"max":[
				22.5,
				8.5,
				1
			],
			"min":[
				-22.5,
				-4,
				-1
			],
			"type":"VEC3"
		},
		{
			"bufferView":17,
			"componentType":5126,
			"count":8,
			"type":"VEC3"
		},
		{
			"bufferView":18,
			"componentType":5126,
			"count":8,
			"type":"VEC2"
		},
		{
			"bufferView":19,
			"componentType":5123,
			"count":12,
			"type":"SCALAR"
		},
		{
			"bufferView":20,
			"componentType":5126,
			"count":36,
			"max":[
				22.5,
				8.5,
				1
			],
			"min":[
				-22.5,
				-4,
				-1
			],
			"type":"VEC3"
		},
		{
			"bufferView":21,
			"componentType":5126,
			"count":36,
			"type":"VEC3"
		},
		{
			"bufferView":22,
			"componentType":5126,
			"count":36,
			"type":"VEC2"
		},
		{
			"bufferView":23,
			"componentType":5123,
			"count":60,
			"type":"SCALAR"
		},
		{
			"bufferView":24,
			"componentType":5126,
			"count":4,
			"max":[
				12,
				-4,
				8
			],
			"min":[
				-12,
				-4,
				-8
			],
			"type":"VEC3"
		},
		{
			"bufferView":25,
			"componentType":5126,
			"count":4,
			"type":"VEC3"
		},
		{
			"bufferView":26,
			"componentType":5126,
			"count":4,
			"type":"VEC2"
		},
		{
			"bufferView":27,
			"componentType":5123,
			"count":6,
			"type":"SCALAR"
		},
		{
			"bufferView":28,
			"componentType":5126,
			"count":20,
			"max":[
				12,
				-2,
				8
			],
			"min":[
				-12,
				-4,
				-8
			],
			"type":"VEC3"
		},
		{
			"bufferView":29,
			"componentType":5126,
			"count":20,
			"type":"VEC3"
		},
		{
			"bufferView":30,
			"componentType":5126,
			"count":20,
			"type":"VEC2"
		},
		{
			"bufferView":31,
			"componentType":5123,
			"count":36,
			"type":"SCALAR"
		},
		{
			"bufferView":32,
			"componentType":5126,
			"count":4,
			"max":[
				4,
				7.5,
				8
			],
			"min":[
				-4,
				7.5,
				-8
			],
			"type":"VEC3"
		},
		{
			"bufferView":33,
			"componentType":5126,
			"count":4,
			"type":"VEC3"
		},
		{
			"bufferView":34,
			"componentType":5126,
			"count":4,
			"type":"VEC2"
		},
		{
			"bufferView":35,
			"componentType":5123,
			"count":6,
			"type":"SCALAR"
		},
		{
			"bufferView":36,
			"componentType":5126,
			"count":8,
			"max":[
				4,
				7.5,
				8
			],
			"min":[
				-4,
				6.5,
				-8
			],
			"type":"VEC3"
		},
		{
			"bufferView":37,
			"componentType":5126,
			"count":8,
			"type":"VEC3"
		},
		{
			"bufferView":38,
			"componentType":5126,
			"count":8,
			"type":"VEC2"
		},
		{
			"bufferView":39,
			"componentType":5123,
			"count":12,
			"type":"SCALAR"
		}
	],
	"bufferViews":[
		{
			"buffer":0,
			"byteLength":528,
			"byteOffset":0,
			"target":34962
		},
		{
			"buffer":0,
			"byteLength":528,
			"byteOffset":528,
			"target":34962
		},
		{
			"buffer":0,
			"byteLength":352,
			"byteOffset":1056,
			"target":34962
		},
		{
			"buffer":0,
			"byteLength":168,
			"byteOffset":1408,
			"target":34963
		},
		{
			"buffer":0,
			"byteLength":144,
			"byteOffset":1576,
			"target":34962
		},
		{
			"buffer":0,
			"byteLength":144,
			"byteOffset":1720,
			"target":34962
		},
		{
			"buffer":0,
			"byteLength":96,
			"byteOffset":1864,
			"target":34962
		},
		{
			"buffer":0,
			"byteLength":48,
			"byteOffset":1960,
			"target":34963
		},
		{
			"buffer":0,
			"byteLength":624,
			"byteOffset":2008,
			"target":34962
		},
		{
			"buffer":0,
			"byteLength":624,
			"byteOffset":2632,
			"target":34962
		},
		{
			"buffer":0,
			"byteLength":416,
			"byteOffset":3256,
			"target":34962
		},
		{
			"buffer":0,
			"byteLength":192,
			"byteOffset":3672,
			"target":34963
		},
		{
			"buffer":0,
			"byteLength":96,
			"byteOffset":3864,
			"target":34962
		},
		{
			"buffer":0,
			"byteLength":96,
			"byteOffset":3960,
			"target":34962
		},
		{
			"buffer":0,
			"byteLength":64,
			"byteOffset":4056,
			"target":34962
		},
		{
			"buffer":0,
			"byteLength":24,
			"byteOffset":4120,
			"target":34963
		},
		{
			"buffer":0,
			"byteLength":96,
			"byteOffset":4144,
			"target":34962
		},
		{
			"buffer":0,
			"byteLength":96,
			"byteOffset":4240,
			"target":34962
		},
		{
			"buffer":0,
			"byteLength":64,
			"byteOffset":4336,
			"target":34962
		},
		{
			"buffer":0,
			"byteLength":24,
			"byteOffset":4400,
			"target":34963
		},
		{
			"buffer":0,
			"byteLength":432,
			"byteOffset":4424,
			"target":34962
		},
		{
			"buffer":0,
			"byteLength":432,
			"byteOffset":4856,
			"target":34962
		},
		{
			"buffer":0,
			"byteLength":288,
			"byteOffset":5288,
			"target":34962
		},
		{
			"buffer":0,
			"byteLength":120,
			"byteOffset":5576,
			"target":34963
		},
		{
			"buffer":0,
			"byteLength":48,
			"byteOffset":5696,
			"target":34962
		},
		{
			"buffer":0,
			"byteLength":48,
			"byteOffset":5744,
			"target":34962
		},
		{
			"buffer":0,
			"byteLength":32,
			"byteOffset":5792,
			"target":34962
		},
		{
			"buffer":0,
			"byteLength":12,
			"byteOffset":5824,
			"target":34963
		},
		{
			"buffer":0,
			"byteLength":240,
			"byteOffset":5836,
			"target":34962
		},
		{
			"buffer":0,
			"byteLength":240,
			"byteOffset":6076,
			"target":34962
		},
		{
			"buffer":0,
			"byteLength":160,
			"byteOffset":6316,
			"target":34962
		},
		{
			"buffer":0,
			"byteLength":72,
			"byteOffset":6476,
			"target":34963
		},
		{
			"buffer":0,
			"byteLength":48,
			"byteOffset":6548,
			"target":34962
		},
		{
			"buffer":0,
			"byteLength":48,
			"byteOffset":6596,
			"target":34962
		},
		{
			"buffer":0,
			"byteLength":32,
			"byteOffset":6644,
			"target":34962
		},
		{
			"buffer":0,
			"byteLength":12,
			"byteOffset":6676,
			"target":34963
		},
		{
			"buffer":0,
			"byteLength":96,
			"byteOffset":6688,
			"target":34962
		},
		{
			"buffer":0,
			"byteLength":96,
			"byteOffset":6784,
			"target":34962
		},
		{
			"buffer":0,
			"byteLength":64,
			"byteOffset":6880,
			"target":34962
		},
		{
			"buffer":0,
			"byteLength":24,
			"byteOffset":6944,
			"target":34963
		}
	],
	"buffers":[
		{
			"byteLength":6968,
			"uri":"t_bwall2a_sm_CC.bin"
		}
	]
}
