{
	"asset":{
		"generator":"Khronos glTF Blender I/O v4.5.48",
		"version":"2.0"
	},
	"scene":0,
	"scenes":[
		{
			"name":"Scene",
			"nodes":[
				0
			]
		}
	],
	"nodes":[
		{
			"mesh":0,
			"name":"Object"
		}
	],
	"materials":[
		{
			"doubleSided":true,
			"name":"BE_EFLO02",
			"pbrMetallicRoughness":{
				"baseColorFactor":[
					0.800000011920929,
					0.800000011920929,
					0.800000011920929,
					1
				],
				"metallicFactor":0,
				"roughnessFactor":0.5
			}
		},
		{
			"doubleSided":true,
			"name":"BE_EWAL04A",
			"pbrMetallicRoughness":{
				"baseColorFactor":[
					0.800000011920929,
					0.800000011920929,
					0.800000011920929,
					1
				],
				"metallicFactor":0,
				"roughnessFactor":0.5
			}
		},
		{
			"doubleSided":true,
			"name":"BE_EWAL01B",
			"pbrMetallicRoughness":{
				"baseColorFactor":[
					0.800000011920929,
					0.800000011920929,
					0.800000011920929,
					1
				],
				"metallicFactor":0,
				"roughnessFactor":0.5
			}
		},
		{
			"doubleSided":true,
			"name":"BE_EWAL09B",
			"pbrMetallicRoughness":{
				"baseColorFactor":[
					0.800000011920929,
					0.800000011920929,
					0.800000011920929,
					1
				],
				"metallicFactor":0,
				"roughnessFactor":0.5
			}
		},
		{
			"doubleSided":true,
			"name":"BE_IPIPE01",
			"pbrMetallicRoughness":{
				"baseColorFactor":[
					0.800000011920929,
					0.800000011920929,
					0.800000011920929,
					1
				],
				"metallicFactor":0,
				"roughnessFactor":0.5
			}
		},
		{
			"doubleSided":true,
			"name":"BE_EBOR04A",
			"pbrMetallicRoughness":{
				"baseColorFactor":[
					0.800000011920929,
					0.800000011920929,
					0.800000011920929,
					1
				],
				"metallicFactor":0,
				"roughnessFactor":0.5
			}
		},
		{
			"doubleSided":true,
			"name":"BE_EBOR02",
			"pbrMetallicRoughness":{
				"baseColorFactor":[
					0.800000011920929,
					0.800000011920929,
					0.800000011920929,
					1
				],
				"metallicFactor":0,
				"roughnessFactor":0.5
			}
		},
		{
			"doubleSided":true,
			"name":"BE_ITEBOR02A",
			"pbrMetallicRoughness":{
				"baseColorFactor":[
					0.800000011920929,
					0.800000011920929,
					0.800000011920929,
					1
				],
				"metallicFactor":0,
				"roughnessFactor":0.5
			}
		},
		{
			"doubleSided":true,
			"name":"BE_IHAWAL02",
			"pbrMetallicRoughness":{
				"baseColorFactor":[
					0.800000011920929,
					0.800000011920929,
					0.800000011920929,
					1
				],
				"metallicFactor":0,
				"roughnessFactor":0.5
			}
		},
		{
			"doubleSided":true,
			"name":"BE_EWAL03A",
			"pbrMetallicRoughness":{
				"baseColorFactor":[
					0.800000011920929,
					0.800000011920929,
					0.800000011920929,
					1
				],
				"metallicFactor":0,
				"roughnessFactor":0.5
			}
		}
	],
	"meshes":[
		{
			"name":"Mesh",
			"primitives":[
				{
					"attributes":{
						"POSITION":0,
						"NORMAL":1,
						"TEXCOORD_0":2
					},
					"indices":3,
					"material":0
				},
				{
					"attributes":{
						"POSITION":4,
						"NORMAL":5,
						"TEXCOORD_0":6
					},
					"indices":7,
					"material":1
				},
				{
					"attributes":{
						"POSITION":8,
						"NORMAL":9,
						"TEXCOORD_0":10
					},
					"indices":11,
					"material":2
				},
				{
					"attributes":{
						"POSITION":12,
						"NORMAL":13,
						"TEXCOORD_0":14
					},
					"indices":15,
					"material":3
				},
				{
					"attributes":{
						"POSITION":16,
						"NORMAL":17,
						"TEXCOORD_0":18
					},
					"indices":19,
					"material":4
				},
				{
					"attributes":{
						"POSITION":20,
						"NORMAL":21,
						"TEXCOORD_0":22
					},
					"indices":23,
					"material":5
				},
				{
					"attributes":{
						"POSITION":24,
						"NORMAL":25,
						"TEXCOORD_0":26
					},
					"indices":27,
					"material":6
				},
				{
					"attributes":{
						"POSITION":28,
						"NORMAL":29,
						"TEXCOORD_0":30
					},
					"indices":31,
					"material":7
				},
				{
					"attributes":{
						"POSITION":32,
						"NORMAL":33,
						"TEXCOORD_0":34
					},
					"indices":35,
					"material":8
				},
				{
					"attributes":{
						"POSITION":36,
						"NORMAL":37,
						"TEXCOORD_0":38
					},
					"indices":39,
					"material":9
				}
			]
		}
	],
	"accessors":[
		{
			"bufferView":0,
			"componentType":5126,
			"count":12,
			"max":[
				16.25,
				7.5,
				41
			],
			"min":[
				-10,
				7.5,
				14.75
			],
			"type":"VEC3"
		},
		{
			"bufferView":1,
			"componentType":5126,
			"count":12,
			"type":"VEC3"
		},
		{
			"bufferView":2,
			"componentType":5126,
			"count":12,
			"type":"VEC2"
		},
		{
			"bufferView":3,
			"componentType":5123,
			"count":30,
			"type":"SCALAR"
		},
		{
			"bufferView":4,
			"componentType":5126,
			"count":8,
			"max":[
				16.25,
				7.5,
				35
			],
			"min":[
				-4,
				6.5,
				14.75
			],
			"type":"VEC3"
		},
		{
			"bufferView":5,
			"componentType":5126,
			"count":8,
			"type":"VEC3"
		},
		{
			"bufferView":6,
			"componentType":5126,
			"count":8,
			"type":"VEC2"
		},
		{
			"bufferView":7,
			"componentType":5123,
			"count":12,
			"type":"SCALAR"
		},
		{
			"bufferView":8,
			"componentType":5126,
			"count":84,
			"max":[
				16.25,
				8,
				51
			],
			"min":[
				-20,
				-2,
				14.75
			],
			"type":"VEC3"
		},
		{
			"bufferView":9,
			"componentType":5126,
			"count":84,
			"type":"VEC3"
		},
		{
			"bufferView":10,
			"componentType":5126,
			"count":84,
			"type":"VEC2"
		},
		{
			"bufferView":11,
			"componentType":5123,
			"count":138,
			"type":"SCALAR"
		},
		{
			"bufferView":12,
			"componentType":5126,
			"count":34,
			"max":[
				16.25,
				9.179717448286112e-16,
				51
			],
			"min":[
				-20,
				-2,
				14.75
			],
			"type":"VEC3"
		},
		{
			"bufferView":13,
			"componentType":5126,
			"count":34,
			"type":"VEC3"
		},
		{
			"bufferView":14,
			"componentType":5126,
			"count":34,
			"type":"VEC2"
		},
		{
			"bufferView":15,
			"componentType":5123,
			"count":66,
			"type":"SCALAR"
		},
		{
			"bufferView":16,
			"componentType":5126,
			"count":8,
			"max":[
				16.25,
				-4,
				51
			],
			"min":[
				-20,
				-4,
				14.75
			],
			"type":"VEC3"
		},
		{
			"bufferView":17,
			"componentType":5126,
			"count":8,
			"type":"VEC3"
		},
		{
			"bufferView":18,
			"componentType":5126,
			"count":8,
			"type":"VEC2"
		},
		{
			"bufferView":19,
			"componentType":5123,
			"count":18,
			"type":"SCALAR"
		},
		{
			"bufferView":20,
			"componentType":5126,
			"count":36,
			"max":[
				16.25,
				-2,
				51
			],
			"min":[
				-20,
				-4,
				14.75
			],
			"type":"VEC3"
		},
		{
			"bufferView":21,
			"componentType":5126,
			"count":36,
			"type":"VEC3"
		},
		{
			"bufferView":22,
			"componentType":5126,
			"count":36,
			"type":"VEC2"
		},
		{
			"bufferView":23,
			"componentType":5123,
			"count":60,
			"type":"SCALAR"
		},
		{
			"bufferView":24,
			"componentType":5126,
			"count":134,
			"max":[
				16.25,
				8.5,
				42
			],
			"min":[
				-11,
				6.5,
				14.75
			],
			"type":"VEC3"
		},
		{
			"bufferView":25,
			"componentType":5126,
			"count":134,
			"type":"VEC3"
		},
		{
			"bufferView":26,
			"componentType":5126,
			"count":134,
			"type":"VEC2"
		},
		{
			"bufferView":27,
			"componentType":5123,
			"count":228,
			"type":"SCALAR"
		},
		{
			"bufferView":28,
			"componentType":5126,
			"count":40,
			"max":[
				16.25,
				8.5,
				41
			],
			"min":[
				-10,
				7.5,
				14.75
			],
			"type":"VEC3"
		},
		{
			"bufferView":29,
			"componentType":5126,
			"count":40,
			"type":"VEC3"
		},
		{
			"bufferView":30,
			"componentType":5126,
			"count":40,
			"type":"VEC2"
		},
		{
			"bufferView":31,
			"componentType":5123,
			"count":60,
			"type":"SCALAR"
		},
		{
			"bufferView":32,
			"componentType":5126,
			"count":20,
			"max":[
				21.75,
				8.5,
				62.5
			],
			"min":[
				-31.5,
				-4,
				9.25
			],
			"type":"VEC3"
		},
		{
			"bufferView":33,
			"componentType":5126,
			"count":20,
			"type":"VEC3"
		},
		{
			"bufferView":34,
			"componentType":5126,
			"count":20,
			"type":"VEC2"
		},
		{
			"bufferView":35,
			"componentType":5123,
			"count":30,
			"type":"SCALAR"
		},
		{
			"bufferView":36,
			"componentType":5126,
			"count":90,
			"max":[
				21.75,
				8.5,
				62.5
			],
			"min":[
				-31.5,
				-4,
				9.25
			],
			"type":"VEC3"
		},
		{
			"bufferView":37,
			"componentType":5126,
			"count":90,
			"type":"VEC3"
		},
		{
			"bufferView":38,
			"componentType":5126,
			"count":90,
			"type":"VEC2"
		},
		{
			"bufferView":39,
			"componentType":5123,
			"count":150,
			"type":"SCALAR"
		}
	],
	"bufferViews":[
		{
			"buffer":0,
			"byteLength":144,
			"byteOffset":0,
			"target":34962
		},
		{
			"buffer":0,
			"byteLength":144,
			"byteOffset":144,
			"target":34962
		},
		{
			"buffer":0,
			"byteLength":96,
			"byteOffset":288,
			"target":34962
		},
		{
			"buffer":0,
			"byteLength":60,
			"byteOffset":384,
			"target":34963
		},
		{
			"buffer":0,
			"byteLength":96,
			"byteOffset":444,
			"target":34962
		},
		{
			"buffer":0,
			"byteLength":96,
			"byteOffset":540,
			"target":34962
		},
		{
			"buffer":0,
			"byteLength":64,
			"byteOffset":636,
			"target":34962
		},
		{
			"buffer":0,
			"byteLength":24,
			"byteOffset":700,
			"target":34963
		},
		{
			"buffer":0,
			"byteLength":1008,
			"byteOffset":724,
			"target":34962
		},
		{
			"buffer":0,
			"byteLength":1008,
			"byteOffset":1732,
			"target":34962
		},
		{
			"buffer":0,
			"byteLength":672,
			"byteOffset":2740,
			"target":34962
		},
		{
			"buffer":0,
			"byteLength":276,
			"byteOffset":3412,
			"target":34963
		},
		{
			"buffer":0,
			"byteLength":408,
			"byteOffset":3688,
			"target":34962
		},
		{
			"buffer":0,
			"byteLength":408,
			"byteOffset":4096,
			"target":34962
		},
		{
			"buffer":0,
			"byteLength":272,
			"byteOffset":4504,
			"target":34962
		},
		{
			"buffer":0,
			"byteLength":132,
			"byteOffset":4776,
			"target":34963
		},
		{
			"buffer":0,
			"byteLength":96,
			"byteOffset":4908,
			"target":34962
		},
		{
			"buffer":0,
			"byteLength":96,
			"byteOffset":5004,
			"target":34962
		},
		{
			"buffer":0,
			"byteLength":64,
			"byteOffset":5100,
			"target":34962
		},
		{
			"buffer":0,
			"byteLength":36,
			"byteOffset":5164,
			"target":34963
		},
		{
			"buffer":0,
			"byteLength":432,
			"byteOffset":5200,
			"target":34962
		},
		{
			"buffer":0,
			"byteLength":432,
			"byteOffset":5632,
			"target":34962
		},
		{
			"buffer":0,
			"byteLength":288,
			"byteOffset":6064,
			"target":34962
		},
		{
			"buffer":0,
			"byteLength":120,
			"byteOffset":6352,
			"target":34963
		},
		{
			"buffer":0,
			"byteLength":1608,
			"byteOffset":6472,
			"target":34962
		},
		{
			"buffer":0,
			"byteLength":1608,
			"byteOffset":8080,
			"target":34962
		},
		{
			"buffer":0,
			"byteLength":1072,
			"byteOffset":9688,
			"target":34962
		},
		{
			"buffer":0,
			"byteLength":456,
			"byteOffset":10760,
			"target":34963
		},
		{
			"buffer":0,
			"byteLength":480,
			"byteOffset":11216,
			"target":34962
		},
		{
			"buffer":0,
			"byteLength":480,
			"byteOffset":11696,
			"target":34962
		},
		{
			"buffer":0,
			"byteLength":320,
			"byteOffset":12176,
			"target":34962
		},
		{
			"buffer":0,
			"byteLength":120,
			"byteOffset":12496,
			"target":34963
		},
		{
			"buffer":0,
			"byteLength":240,
			"byteOffset":12616,
			"target":34962
		},
		{
			"buffer":0,
			"byteLength":240,
			"byteOffset":12856,
			"target":34962
		},
		{
			"buffer":0,
			"byteLength":160,
			"byteOffset":13096,
			"target":34962
		},
		{
			"buffer":0,
			"byteLength":60,
			"byteOffset":13256,
			"target":34963
		},
		{
			"buffer":0,
			"byteLength":1080,
			"byteOffset":13316,
			"target":34962
		},
		{
			"buffer":0,
			"byteLength":1080,
			"byteOffset":14396,
			"target":34962
		},
		{
			"buffer":0,
			"byteLength":720,
			"byteOffset":15476,
			"target":34962
		},
		{
			"buffer":0,
			"byteLength":300,
			"byteOffset":16196,
			"target":34963
		}
	],
	"buffers":[
		{
			"byteLength":16496,
			"uri":"t_bwall2a_cnr_CC.bin"
		}
	]
}
